<svg xmlns="http://www.w3.org/2000/svg" width="288.092" height="29.853" viewBox="0 0 288.092 29.853">
  <path id="パス_10182" data-name="パス 10182" d="M1.517.123C4.305.041,6.642,0,8.569,0c1.476,0,3.854.041,7.093.123v-1.64c-2.993-.123-3.813-1.066-3.813-4.018V-13H23.985v7.462c0,3.157-.451,3.936-3.813,4.018V.123C23.042.041,25.379,0,27.224,0c1.64,0,4.018.041,7.093.123v-1.64C31.283-1.558,30.5-2.583,30.5-5.535V-22.181c0-2.665.738-3.649,3.649-3.649h.164v-1.681c-1.476.123-3.239.123-5.248.123-2.3,0-5.248,0-8.9-.123v1.681c3.526.041,3.813.861,3.813,3.649v7.093H11.849v-7.093c0-2.624.861-3.649,3.362-3.649h.451v-1.681c-2.788.082-5.166.123-7.093.123-1.968,0-4.305-.041-7.052-.123v1.681h.246c3.239,0,3.567.9,3.567,3.649V-5.535c0,3.157-.451,3.936-3.813,4.018ZM53.71-4.715a11.074,11.074,0,0,1-1.968,1.886,5.429,5.429,0,0,1-2.993.861c-3.444,0-5.412-2.419-5.412-7.011,0-.246.041-.533.041-.82H55.432v-.328c0-5.371-3.034-8.405-8.159-8.405-6.109,0-10.168,4.059-10.168,9.717,0,5.494,4.018,9.389,9.8,9.389a9.25,9.25,0,0,0,8.2-4.059ZM43.378-11.726c.287-3.4,1.435-5.084,3.608-5.084,2.009,0,3.116,1.6,3.116,4.592v.492ZM57.646.082C60.065,0,61.828,0,63.058,0c1.968,0,3.936.041,5.822.082V-1.435c-2.132,0-2.87-.328-2.87-2.009v-7.708c0-2.009,1.312-3.9,2.378-3.9.984,0,1.353,2.132,3.239,2.132a2.357,2.357,0,0,0,2.542-2.5c0-1.845-1.23-2.911-3.362-2.911-1.8,0-3.649,1.107-5.166,3.362l-.328-3.567h-.7A28.933,28.933,0,0,1,57.687-17.1v1.435c2.132.041,2.542,1.066,2.542,3.731v8.364c0,1.558-.574,1.927-2.583,2.132ZM75.44-8.9C75.44-3.4,79.622.574,85.485.574c6.191,0,10.332-3.936,10.332-9.8,0-5.371-4.1-9.266-9.963-9.266C79.622-18.491,75.44-14.432,75.44-8.9Zm6.191.082c0-5.412,1.189-7.954,4.1-7.954,2.747,0,3.936,2.46,3.936,7.5,0,5.535-1.025,8.118-3.977,8.118C82.533-1.148,81.631-3.567,81.631-8.815ZM98.113.123C99.917.041,101.885,0,103.976,0c.82,0,2.5.041,5.125.123V-1.435c-2.173-.123-2.583-.451-2.583-2.173V-18.614H105.9a37.465,37.465,0,0,1-7.79,1.435v1.435c2.091.082,2.583.492,2.583,2.46v9.676c0,1.681-.369,2.05-2.583,2.173Zm2.132-26.035a3.115,3.115,0,0,0,3.116,3.116,3.115,3.115,0,0,0,3.116-3.116,3.089,3.089,0,0,0-3.116-3.116A3.089,3.089,0,0,0,100.245-25.912ZM111.356.123c1.763-.082,3.4-.123,4.961-.123,1.394,0,3.28.041,5.7.123V-1.353c-1.968-.041-2.419-.656-2.419-2.542v-6.4c0-3.239,1.64-5.207,3.977-5.207,1.64,0,2.46,1.189,2.46,3.526V-3.69c0,1.845-.41,2.337-2.337,2.337V.123C125.665.041,127.387,0,128.822,0c1.681,0,3.444.041,5.33.123V-1.353c-2.255-.164-2.419-.533-2.419-2.337v-8.282c0-4.346-1.968-6.519-5.781-6.519a8.258,8.258,0,0,0-6.683,3.608l-.246-3.608h-.7a28.537,28.537,0,0,1-6.97,1.435v1.517c2.05,0,2.542.533,2.542,2.706V-3.69c0,1.763-.205,2.132-2.542,2.337Zm41.451-4.838a11.074,11.074,0,0,1-1.968,1.886,5.429,5.429,0,0,1-2.993.861c-3.444,0-5.412-2.419-5.412-7.011,0-.246.041-.533.041-.82h12.054v-.328c0-5.371-3.034-8.405-8.159-8.405-6.109,0-10.168,4.059-10.168,9.717,0,5.494,4.018,9.389,9.8,9.389a9.25,9.25,0,0,0,8.2-4.059Zm-10.332-7.011c.287-3.4,1.435-5.084,3.608-5.084,2.009,0,3.116,1.6,3.116,4.592v.492ZM168.346.164c2.009-.123,3.854-.205,5.535-.205,2.788,0,5.33.205,7.585.205C189.5.164,193.6-2.46,193.6-7.3c0-4.346-3.28-6.683-9.266-7.421,4.961-.7,7.5-2.911,7.5-6.273,0-4.428-3.731-6.6-11.316-6.6-2.173,0-4.551.246-7.093.246-1.271,0-2.952-.082-5.084-.246v1.681c3.2.041,3.854.779,3.854,3.526V-5.371c0,2.87-.738,3.731-3.854,3.772ZM178.555-13.53c.492-.041.943-.041,1.353-.041,4.428,0,6.437,1.763,6.437,5.781,0,3.9-1.517,5.822-4.592,5.822-2.46,0-3.2-1.312-3.2-4.674Zm0-1.968v-9.307c0-.615.123-.779,1.476-.779,3.4,0,5.043,1.517,5.043,4.715,0,3.854-1.517,5.412-5.576,5.412C179.211-15.457,178.883-15.5,178.555-15.5ZM197.21.082C199.629,0,201.392,0,202.622,0c1.968,0,3.936.041,5.822.082V-1.435c-2.132,0-2.87-.328-2.87-2.009v-7.708c0-2.009,1.312-3.9,2.378-3.9.984,0,1.353,2.132,3.239,2.132a2.357,2.357,0,0,0,2.542-2.5c0-1.845-1.23-2.911-3.362-2.911-1.8,0-3.649,1.107-5.166,3.362l-.328-3.567h-.7a28.933,28.933,0,0,1-6.929,1.435v1.435c2.132.041,2.542,1.066,2.542,3.731v8.364c0,1.558-.574,1.927-2.583,2.132ZM215-8.9C215-3.4,219.186.574,225.049.574c6.191,0,10.332-3.936,10.332-9.8,0-5.371-4.1-9.266-9.963-9.266C219.186-18.491,215-14.432,215-8.9Zm6.191.082c0-5.412,1.189-7.954,4.1-7.954,2.747,0,3.936,2.46,3.936,7.5,0,5.535-1.025,8.118-3.977,8.118C222.1-1.148,221.2-3.567,221.2-8.815ZM244.647.246h1.845l4.305-10.7,4.469,10.7h1.722l5.166-12.464c1.066-2.542,1.394-4.264,3.526-4.51v-1.435c-1.312.041-2.5.123-3.649.123-.984,0-2.173-.041-3.608-.123v1.353c1.8.2,2.542.574,2.542,1.6a9.183,9.183,0,0,1-.738,2.87L257.89-6.478l-4.264-11.644h-1.6L247.435-7.134l-2.583-6.806a4.59,4.59,0,0,1-.246-1.435c0-1.066.738-1.312,2.5-1.353v-1.394c-3.239.041-5.166.082-5.7.082-1.722,0-3.362-.041-5-.082v1.394c1.517.123,2.091,1.066,2.87,3.075Zm22.14-.123C268.55.041,270.19,0,271.748,0c1.394,0,3.28.041,5.7.123V-1.353c-1.968-.041-2.419-.656-2.419-2.542v-6.4c0-3.239,1.64-5.207,3.977-5.207,1.64,0,2.46,1.189,2.46,3.526V-3.69c0,1.845-.41,2.337-2.337,2.337V.123C281.1.041,282.818,0,284.253,0c1.681,0,3.444.041,5.33.123V-1.353c-2.255-.164-2.419-.533-2.419-2.337v-8.282c0-4.346-1.968-6.519-5.781-6.519a8.258,8.258,0,0,0-6.683,3.608l-.246-3.608h-.7a28.537,28.537,0,0,1-6.97,1.435v1.517c2.05,0,2.542.533,2.542,2.706V-3.69c0,1.763-.2,2.132-2.542,2.337Z" transform="translate(-1.516 29.027) rotate(0.05)" fill="#de8ca0"/>
</svg>
