<svg xmlns="http://www.w3.org/2000/svg" xmlns:xlink="http://www.w3.org/1999/xlink" width="366" height="64" viewBox="0 0 366 64">
  <defs>
    <clipPath id="clip-path">
      <rect id="長方形_1257" data-name="長方形 1257" width="366" height="64" transform="translate(78 2600.68)" fill="#fff" stroke="#707070" stroke-width="1"/>
    </clipPath>
    <filter id="パス_10108" x="-2.165" y="-1.398" width="369.331" height="54.407" filterUnits="userSpaceOnUse">
      <feOffset input="SourceAlpha"/>
      <feGaussianBlur stdDeviation="3" result="blur"/>
      <feFlood flood-color="#a4786b"/>
      <feComposite operator="in" in2="blur"/>
      <feComposite in="SourceGraphic"/>
    </filter>
  </defs>
  <g id="マスクグループ_2679" data-name="マスクグループ 2679" transform="translate(-78 -2600.68)" clip-path="url(#clip-path)">
    <g transform="matrix(1, 0, 0, 1, 78, 2600.68)" filter="url(#パス_10108)">
      <path id="パス_10108-2" data-name="パス 10108" d="M1.85.15C5.25.05,8.1,0,10.45,0c1.8,0,4.7.05,8.65.15v-2c-3.65-.15-4.65-1.3-4.65-4.9v-9.1h14.8v9.1c0,3.85-.55,4.8-4.65,4.9v2C28.1.05,30.95,0,33.2,0c2,0,4.9.05,8.65.15v-2c-3.7-.05-4.65-1.3-4.65-4.9v-20.3c0-3.25.9-4.45,4.45-4.45h.2v-2.05c-1.8.15-3.95.15-6.4.15-2.8,0-6.4,0-10.85-.15v2.05c4.3.05,4.65,1.05,4.65,4.45v8.65H14.45v-8.65c0-3.2,1.05-4.45,4.1-4.45h.55v-2.05c-3.4.1-6.3.15-8.65.15-2.4,0-5.25-.05-8.6-.15v2.05h.3c3.95,0,4.35,1.1,4.35,4.45v20.3c0,3.85-.55,4.8-4.65,4.9ZM65.5-5.75a13.5,13.5,0,0,1-2.4,2.3A6.62,6.62,0,0,1,59.45-2.4c-4.2,0-6.6-2.95-6.6-8.55,0-.3.05-.65.05-1H67.6v-.4c0-6.55-3.7-10.25-9.95-10.25-7.45,0-12.4,4.95-12.4,11.85C45.25-4.05,50.15.7,57.2.7c4.4,0,7.7-1.6,10-4.95ZM52.9-14.3c.35-4.15,1.75-6.2,4.4-6.2,2.45,0,3.8,1.95,3.8,5.6v.6ZM70.3.1C73.25,0,75.4,0,76.9,0c2.4,0,4.8.05,7.1.1V-1.75c-2.6,0-3.5-.4-3.5-2.45v-9.4c0-2.45,1.6-4.75,2.9-4.75,1.2,0,1.65,2.6,3.95,2.6a2.875,2.875,0,0,0,3.1-3.05c0-2.25-1.5-3.55-4.1-3.55-2.2,0-4.45,1.35-6.3,4.1l-.4-4.35H78.8a35.285,35.285,0,0,1-8.45,1.75v1.75c2.6.05,3.1,1.3,3.1,4.55v10.2c0,1.9-.7,2.35-3.15,2.6ZM92-10.85C92-4.15,97.1.7,104.25.7c7.55,0,12.6-4.8,12.6-11.95,0-6.55-5-11.3-12.15-11.3C97.1-22.55,92-17.6,92-10.85Zm7.55.1c0-6.6,1.45-9.7,5-9.7,3.35,0,4.8,3,4.8,9.15,0,6.75-1.25,9.9-4.85,9.9C100.65-1.4,99.55-4.35,99.55-10.75ZM119.65.15c2.2-.1,4.6-.15,7.15-.15,1,0,3.05.05,6.25.15v-1.9c-2.65-.15-3.15-.55-3.15-2.65V-22.7h-.75a45.688,45.688,0,0,1-9.5,1.75v1.75c2.55.1,3.15.6,3.15,3V-4.4c0,2.05-.45,2.5-3.15,2.65Zm2.6-31.75a3.8,3.8,0,0,0,3.8,3.8,3.8,3.8,0,0,0,3.8-3.8,3.767,3.767,0,0,0-3.8-3.8A3.767,3.767,0,0,0,122.25-31.6ZM135.8.15c2.15-.1,4.15-.15,6.05-.15,1.7,0,4,.05,6.95.15v-1.8c-2.4-.05-2.95-.8-2.95-3.1v-7.8c0-3.95,2-6.35,4.85-6.35,2,0,3,1.45,3,4.3V-4.5c0,2.25-.5,2.85-2.85,2.85V.15c2.4-.1,4.5-.15,6.25-.15,2.05,0,4.2.05,6.5.15v-1.8c-2.75-.2-2.95-.65-2.95-2.85V-14.6c0-5.3-2.4-7.95-7.05-7.95-3.15,0-5.85,1.45-8.15,4.4l-.3-4.4h-.85a34.8,34.8,0,0,1-8.5,1.75v1.85c2.5,0,3.1.65,3.1,3.3V-4.5c0,2.15-.25,2.6-3.1,2.85Zm50.55-5.9a13.5,13.5,0,0,1-2.4,2.3A6.62,6.62,0,0,1,180.3-2.4c-4.2,0-6.6-2.95-6.6-8.55,0-.3.05-.65.05-1h14.7v-.4c0-6.55-3.7-10.25-9.95-10.25-7.45,0-12.4,4.95-12.4,11.85C166.1-4.05,171,.7,178.05.7c4.4,0,7.7-1.6,10-4.95Zm-12.6-8.55c.35-4.15,1.75-6.2,4.4-6.2,2.45,0,3.8,1.95,3.8,5.6v.6ZM205.3.2c2.45-.15,4.7-.25,6.75-.25,3.4,0,6.5.25,9.25.25,9.8,0,14.8-3.2,14.8-9.1,0-5.3-4-8.15-11.3-9.05,6.05-.85,9.15-3.55,9.15-7.65,0-5.4-4.55-8.05-13.8-8.05-2.65,0-5.55.3-8.65.3-1.55,0-3.6-.1-6.2-.3v2.05c3.9.05,4.7.95,4.7,4.3V-6.55c0,3.5-.9,4.55-4.7,4.6Zm12.45-16.7c.6-.05,1.15-.05,1.65-.05,5.4,0,7.85,2.15,7.85,7.05,0,4.75-1.85,7.1-5.6,7.1-3,0-3.9-1.6-3.9-5.7Zm0-2.4V-30.25c0-.75.15-.95,1.8-.95,4.15,0,6.15,1.85,6.15,5.75,0,4.7-1.85,6.6-6.8,6.6C218.55-18.85,218.15-18.9,217.75-18.9ZM240.5.1c2.95-.1,5.1-.1,6.6-.1,2.4,0,4.8.05,7.1.1V-1.75c-2.6,0-3.5-.4-3.5-2.45v-9.4c0-2.45,1.6-4.75,2.9-4.75,1.2,0,1.65,2.6,3.95,2.6a2.875,2.875,0,0,0,3.1-3.05c0-2.25-1.5-3.55-4.1-3.55-2.2,0-4.45,1.35-6.3,4.1l-.4-4.35H249a35.285,35.285,0,0,1-8.45,1.75v1.75c2.6.05,3.1,1.3,3.1,4.55v10.2c0,1.9-.7,2.35-3.15,2.6Zm21.7-10.95C262.2-4.15,267.3.7,274.45.7c7.55,0,12.6-4.8,12.6-11.95,0-6.55-5-11.3-12.15-11.3C267.3-22.55,262.2-17.6,262.2-10.85Zm7.55.1c0-6.6,1.45-9.7,5-9.7,3.35,0,4.8,3,4.8,9.15,0,6.75-1.25,9.9-4.85,9.9C270.85-1.4,269.75-4.35,269.75-10.75ZM298.35.3h2.25l5.25-13.05L311.3.3h2.1l6.3-15.2c1.3-3.1,1.7-5.2,4.3-5.5v-1.75c-1.6.05-3.05.15-4.45.15-1.2,0-2.65-.05-4.4-.15v1.65c2.2.25,3.1.7,3.1,1.95a11.2,11.2,0,0,1-.9,3.5L314.5-7.9l-5.2-14.2h-1.95l-5.6,13.4L298.6-17a5.6,5.6,0,0,1-.3-1.75c0-1.3.9-1.6,3.05-1.65v-1.7c-3.95.05-6.3.1-6.95.1-2.1,0-4.1-.05-6.1-.1v1.7c1.85.15,2.55,1.3,3.5,3.75Zm27-.15C327.5.05,329.5,0,331.4,0c1.7,0,4,.05,6.95.15v-1.8c-2.4-.05-2.95-.8-2.95-3.1v-7.8c0-3.95,2-6.35,4.85-6.35,2,0,3,1.45,3,4.3V-4.5c0,2.25-.5,2.85-2.85,2.85V.15c2.4-.1,4.5-.15,6.25-.15,2.05,0,4.2.05,6.5.15v-1.8c-2.75-.2-2.95-.65-2.95-2.85V-14.6c0-5.3-2.4-7.95-7.05-7.95-3.15,0-5.85,1.45-8.15,4.4l-.3-4.4h-.85a34.8,34.8,0,0,1-8.5,1.75v1.85c2.5,0,3.1.65,3.1,3.3V-4.5c0,2.15-.25,2.6-3.1,2.85Z" transform="translate(4.99 43) rotate(0.05)" fill="#fff"/>
    </g>
  </g>
</svg>
