<svg xmlns="http://www.w3.org/2000/svg" xmlns:xlink="http://www.w3.org/1999/xlink" width="524.864" height="83.969" viewBox="0 0 524.864 83.969">
  <defs>
    <filter id="パス_10181" x="0" y="0" width="524.864" height="83.969" filterUnits="userSpaceOnUse">
      <feOffset input="SourceAlpha"/>
      <feGaussianBlur stdDeviation="5.5" result="blur"/>
      <feFlood flood-color="#cf8997"/>
      <feComposite operator="in" in2="blur"/>
      <feComposite in="SourceGraphic"/>
    </filter>
    <filter id="パス_10180" x="4.5" y="4.5" width="515.864" height="74.969" filterUnits="userSpaceOnUse">
      <feOffset input="SourceAlpha"/>
      <feGaussianBlur stdDeviation="4" result="blur-2"/>
      <feFlood flood-color="#e38ea0"/>
      <feComposite operator="in" in2="blur-2"/>
      <feComposite in="SourceGraphic"/>
    </filter>
  </defs>
  <g id="グループ_3946" data-name="グループ 3946" transform="translate(-763.73 -319.043)">
    <g transform="matrix(1, 0, 0, 1, 763.73, 319.04)" filter="url(#パス_10181)">
      <path id="パス_10181-2" data-name="パス 10181" d="M2.59.21C7.35.07,11.34,0,14.63,0c2.52,0,6.58.07,12.11.21v-2.8c-5.11-.21-6.51-1.82-6.51-6.86V-22.19H40.95V-9.45c0,5.39-.77,6.72-6.51,6.86V.21C39.34.07,43.33,0,46.48,0c2.8,0,6.86.07,12.11.21v-2.8c-5.18-.07-6.51-1.82-6.51-6.86V-37.87c0-4.55,1.26-6.23,6.23-6.23h.28v-2.87c-2.52.21-5.53.21-8.96.21-3.92,0-8.96,0-15.19-.21v2.87c6.02.07,6.51,1.47,6.51,6.23v12.11H20.23V-37.87c0-4.48,1.47-6.23,5.74-6.23h.77v-2.87c-4.76.14-8.82.21-12.11.21-3.36,0-7.35-.07-12.04-.21v2.87h.42c5.53,0,6.09,1.54,6.09,6.23V-9.45c0,5.39-.77,6.72-6.51,6.86ZM91.7-8.05a18.906,18.906,0,0,1-3.36,3.22,9.268,9.268,0,0,1-5.11,1.47c-5.88,0-9.24-4.13-9.24-11.97,0-.42.07-.91.07-1.4H94.64v-.56c0-9.17-5.18-14.35-13.93-14.35-10.43,0-17.36,6.93-17.36,16.59C63.35-5.67,70.21.98,80.08.98c6.16,0,10.78-2.24,14-6.93ZM74.06-20.02c.49-5.81,2.45-8.68,6.16-8.68,3.43,0,5.32,2.73,5.32,7.84v.84ZM98.42.14C102.55,0,105.56,0,107.66,0c3.36,0,6.72.07,9.94.14V-2.45c-3.64,0-4.9-.56-4.9-3.43V-19.04c0-3.43,2.24-6.65,4.06-6.65,1.68,0,2.31,3.64,5.53,3.64a4.025,4.025,0,0,0,4.34-4.27c0-3.15-2.1-4.97-5.74-4.97-3.08,0-6.23,1.89-8.82,5.74l-.56-6.09h-1.19a49.4,49.4,0,0,1-11.83,2.45v2.45c3.64.07,4.34,1.82,4.34,6.37V-6.09c0,2.66-.98,3.29-4.41,3.64ZM128.8-15.19c0,9.38,7.14,16.17,17.15,16.17,10.57,0,17.64-6.72,17.64-16.73,0-9.17-7-15.82-17.01-15.82C135.94-31.57,128.8-24.64,128.8-15.19Zm10.57.14c0-9.24,2.03-13.58,7-13.58,4.69,0,6.72,4.2,6.72,12.81,0,9.45-1.75,13.86-6.79,13.86C140.91-1.96,139.37-6.09,139.37-15.05ZM167.51.21C170.59.07,173.95,0,177.52,0c1.4,0,4.27.07,8.75.21V-2.45c-3.71-.21-4.41-.77-4.41-3.71V-31.78h-1.05a63.964,63.964,0,0,1-13.3,2.45v2.45c3.57.14,4.41.84,4.41,4.2V-6.16c0,2.87-.63,3.5-4.41,3.71Zm3.64-44.45a5.318,5.318,0,0,0,5.32,5.32,5.318,5.318,0,0,0,5.32-5.32,5.273,5.273,0,0,0-5.32-5.32A5.273,5.273,0,0,0,171.15-44.24ZM190.12.21c3.01-.14,5.81-.21,8.47-.21,2.38,0,5.6.07,9.73.21V-2.31c-3.36-.07-4.13-1.12-4.13-4.34V-17.57c0-5.53,2.8-8.89,6.79-8.89,2.8,0,4.2,2.03,4.2,6.02V-6.3c0,3.15-.7,3.99-3.99,3.99V.21c3.36-.14,6.3-.21,8.75-.21,2.87,0,5.88.07,9.1.21V-2.31c-3.85-.28-4.13-.91-4.13-3.99V-20.44c0-7.42-3.36-11.13-9.87-11.13-4.41,0-8.19,2.03-11.41,6.16l-.42-6.16h-1.19a48.722,48.722,0,0,1-11.9,2.45v2.59c3.5,0,4.34.91,4.34,4.62V-6.3c0,3.01-.35,3.64-4.34,3.99Zm70.77-8.26a18.906,18.906,0,0,1-3.36,3.22,9.268,9.268,0,0,1-5.11,1.47c-5.88,0-9.24-4.13-9.24-11.97,0-.42.07-.91.07-1.4h20.58v-.56c0-9.17-5.18-14.35-13.93-14.35-10.43,0-17.36,6.93-17.36,16.59,0,9.38,6.86,16.03,16.73,16.03,6.16,0,10.78-2.24,14-6.93ZM243.25-20.02c.49-5.81,2.45-8.68,6.16-8.68,3.43,0,5.32,2.73,5.32,7.84v.84ZM287.42.28c3.43-.21,6.58-.35,9.45-.35,4.76,0,9.1.35,12.95.35,13.72,0,20.72-4.48,20.72-12.74,0-7.42-5.6-11.41-15.82-12.67,8.47-1.19,12.81-4.97,12.81-10.71,0-7.56-6.37-11.27-19.32-11.27-3.71,0-7.77.42-12.11.42-2.17,0-5.04-.14-8.68-.42v2.87c5.46.07,6.58,1.33,6.58,6.02V-9.17c0,4.9-1.26,6.37-6.58,6.44ZM304.85-23.1c.84-.07,1.61-.07,2.31-.07,7.56,0,10.99,3.01,10.99,9.87,0,6.65-2.59,9.94-7.84,9.94-4.2,0-5.46-2.24-5.46-7.98Zm0-3.36V-42.35c0-1.05.21-1.33,2.52-1.33,5.81,0,8.61,2.59,8.61,8.05,0,6.58-2.59,9.24-9.52,9.24C305.97-26.39,305.41-26.46,304.85-26.46ZM336.7.14C340.83,0,343.84,0,345.94,0c3.36,0,6.72.07,9.94.14V-2.45c-3.64,0-4.9-.56-4.9-3.43V-19.04c0-3.43,2.24-6.65,4.06-6.65,1.68,0,2.31,3.64,5.53,3.64a4.025,4.025,0,0,0,4.34-4.27c0-3.15-2.1-4.97-5.74-4.97-3.08,0-6.23,1.89-8.82,5.74l-.56-6.09H348.6a49.4,49.4,0,0,1-11.83,2.45v2.45c3.64.07,4.34,1.82,4.34,6.37V-6.09c0,2.66-.98,3.29-4.41,3.64Zm30.38-15.33c0,9.38,7.14,16.17,17.15,16.17,10.57,0,17.64-6.72,17.64-16.73,0-9.17-7-15.82-17.01-15.82C374.22-31.57,367.08-24.64,367.08-15.19Zm10.57.14c0-9.24,2.03-13.58,7-13.58,4.69,0,6.72,4.2,6.72,12.81,0,9.45-1.75,13.86-6.79,13.86C379.19-1.96,377.65-6.09,377.65-15.05ZM417.69.42h3.15l7.35-18.27L435.82.42h2.94l8.82-21.28c1.82-4.34,2.38-7.28,6.02-7.7v-2.45c-2.24.07-4.27.21-6.23.21-1.68,0-3.71-.07-6.16-.21v2.31c3.08.35,4.34.98,4.34,2.73a15.679,15.679,0,0,1-1.26,4.9L440.3-11.06l-7.28-19.88h-2.73l-7.84,18.76L418.04-23.8a7.837,7.837,0,0,1-.42-2.45c0-1.82,1.26-2.24,4.27-2.31v-2.38c-5.53.07-8.82.14-9.73.14-2.94,0-5.74-.07-8.54-.14v2.38c2.59.21,3.57,1.82,4.9,5.25Zm37.8-.21C458.5.07,461.3,0,463.96,0c2.38,0,5.6.07,9.73.21V-2.31c-3.36-.07-4.13-1.12-4.13-4.34V-17.57c0-5.53,2.8-8.89,6.79-8.89,2.8,0,4.2,2.03,4.2,6.02V-6.3c0,3.15-.7,3.99-3.99,3.99V.21c3.36-.14,6.3-.21,8.75-.21,2.87,0,5.88.07,9.1.21V-2.31c-3.85-.28-4.13-.91-4.13-3.99V-20.44c0-7.42-3.36-11.13-9.87-11.13-4.41,0-8.19,2.03-11.41,6.16l-.42-6.16h-1.19a48.722,48.722,0,0,1-11.9,2.45v2.59c3.5,0,4.34.91,4.34,4.62V-6.3c0,3.01-.35,3.64-4.34,3.99Z" transform="translate(13.91 66.06) rotate(0.05)" fill="#fff"/>
    </g>
    <g transform="matrix(1, 0, 0, 1, 763.73, 319.04)" filter="url(#パス_10180)">
      <path id="パス_10180-2" data-name="パス 10180" d="M2.59.21C7.35.07,11.34,0,14.63,0c2.52,0,6.58.07,12.11.21v-2.8c-5.11-.21-6.51-1.82-6.51-6.86V-22.19H40.95V-9.45c0,5.39-.77,6.72-6.51,6.86V.21C39.34.07,43.33,0,46.48,0c2.8,0,6.86.07,12.11.21v-2.8c-5.18-.07-6.51-1.82-6.51-6.86V-37.87c0-4.55,1.26-6.23,6.23-6.23h.28v-2.87c-2.52.21-5.53.21-8.96.21-3.92,0-8.96,0-15.19-.21v2.87c6.02.07,6.51,1.47,6.51,6.23v12.11H20.23V-37.87c0-4.48,1.47-6.23,5.74-6.23h.77v-2.87c-4.76.14-8.82.21-12.11.21-3.36,0-7.35-.07-12.04-.21v2.87h.42c5.53,0,6.09,1.54,6.09,6.23V-9.45c0,5.39-.77,6.72-6.51,6.86ZM91.7-8.05a18.906,18.906,0,0,1-3.36,3.22,9.268,9.268,0,0,1-5.11,1.47c-5.88,0-9.24-4.13-9.24-11.97,0-.42.07-.91.07-1.4H94.64v-.56c0-9.17-5.18-14.35-13.93-14.35-10.43,0-17.36,6.93-17.36,16.59C63.35-5.67,70.21.98,80.08.98c6.16,0,10.78-2.24,14-6.93ZM74.06-20.02c.49-5.81,2.45-8.68,6.16-8.68,3.43,0,5.32,2.73,5.32,7.84v.84ZM98.42.14C102.55,0,105.56,0,107.66,0c3.36,0,6.72.07,9.94.14V-2.45c-3.64,0-4.9-.56-4.9-3.43V-19.04c0-3.43,2.24-6.65,4.06-6.65,1.68,0,2.31,3.64,5.53,3.64a4.025,4.025,0,0,0,4.34-4.27c0-3.15-2.1-4.97-5.74-4.97-3.08,0-6.23,1.89-8.82,5.74l-.56-6.09h-1.19a49.4,49.4,0,0,1-11.83,2.45v2.45c3.64.07,4.34,1.82,4.34,6.37V-6.09c0,2.66-.98,3.29-4.41,3.64ZM128.8-15.19c0,9.38,7.14,16.17,17.15,16.17,10.57,0,17.64-6.72,17.64-16.73,0-9.17-7-15.82-17.01-15.82C135.94-31.57,128.8-24.64,128.8-15.19Zm10.57.14c0-9.24,2.03-13.58,7-13.58,4.69,0,6.72,4.2,6.72,12.81,0,9.45-1.75,13.86-6.79,13.86C140.91-1.96,139.37-6.09,139.37-15.05ZM167.51.21C170.59.07,173.95,0,177.52,0c1.4,0,4.27.07,8.75.21V-2.45c-3.71-.21-4.41-.77-4.41-3.71V-31.78h-1.05a63.964,63.964,0,0,1-13.3,2.45v2.45c3.57.14,4.41.84,4.41,4.2V-6.16c0,2.87-.63,3.5-4.41,3.71Zm3.64-44.45a5.318,5.318,0,0,0,5.32,5.32,5.318,5.318,0,0,0,5.32-5.32,5.273,5.273,0,0,0-5.32-5.32A5.273,5.273,0,0,0,171.15-44.24ZM190.12.21c3.01-.14,5.81-.21,8.47-.21,2.38,0,5.6.07,9.73.21V-2.31c-3.36-.07-4.13-1.12-4.13-4.34V-17.57c0-5.53,2.8-8.89,6.79-8.89,2.8,0,4.2,2.03,4.2,6.02V-6.3c0,3.15-.7,3.99-3.99,3.99V.21c3.36-.14,6.3-.21,8.75-.21,2.87,0,5.88.07,9.1.21V-2.31c-3.85-.28-4.13-.91-4.13-3.99V-20.44c0-7.42-3.36-11.13-9.87-11.13-4.41,0-8.19,2.03-11.41,6.16l-.42-6.16h-1.19a48.722,48.722,0,0,1-11.9,2.45v2.59c3.5,0,4.34.91,4.34,4.62V-6.3c0,3.01-.35,3.64-4.34,3.99Zm70.77-8.26a18.906,18.906,0,0,1-3.36,3.22,9.268,9.268,0,0,1-5.11,1.47c-5.88,0-9.24-4.13-9.24-11.97,0-.42.07-.91.07-1.4h20.58v-.56c0-9.17-5.18-14.35-13.93-14.35-10.43,0-17.36,6.93-17.36,16.59,0,9.38,6.86,16.03,16.73,16.03,6.16,0,10.78-2.24,14-6.93ZM243.25-20.02c.49-5.81,2.45-8.68,6.16-8.68,3.43,0,5.32,2.73,5.32,7.84v.84ZM287.42.28c3.43-.21,6.58-.35,9.45-.35,4.76,0,9.1.35,12.95.35,13.72,0,20.72-4.48,20.72-12.74,0-7.42-5.6-11.41-15.82-12.67,8.47-1.19,12.81-4.97,12.81-10.71,0-7.56-6.37-11.27-19.32-11.27-3.71,0-7.77.42-12.11.42-2.17,0-5.04-.14-8.68-.42v2.87c5.46.07,6.58,1.33,6.58,6.02V-9.17c0,4.9-1.26,6.37-6.58,6.44ZM304.85-23.1c.84-.07,1.61-.07,2.31-.07,7.56,0,10.99,3.01,10.99,9.87,0,6.65-2.59,9.94-7.84,9.94-4.2,0-5.46-2.24-5.46-7.98Zm0-3.36V-42.35c0-1.05.21-1.33,2.52-1.33,5.81,0,8.61,2.59,8.61,8.05,0,6.58-2.59,9.24-9.52,9.24C305.97-26.39,305.41-26.46,304.85-26.46ZM336.7.14C340.83,0,343.84,0,345.94,0c3.36,0,6.72.07,9.94.14V-2.45c-3.64,0-4.9-.56-4.9-3.43V-19.04c0-3.43,2.24-6.65,4.06-6.65,1.68,0,2.31,3.64,5.53,3.64a4.025,4.025,0,0,0,4.34-4.27c0-3.15-2.1-4.97-5.74-4.97-3.08,0-6.23,1.89-8.82,5.74l-.56-6.09H348.6a49.4,49.4,0,0,1-11.83,2.45v2.45c3.64.07,4.34,1.82,4.34,6.37V-6.09c0,2.66-.98,3.29-4.41,3.64Zm30.38-15.33c0,9.38,7.14,16.17,17.15,16.17,10.57,0,17.64-6.72,17.64-16.73,0-9.17-7-15.82-17.01-15.82C374.22-31.57,367.08-24.64,367.08-15.19Zm10.57.14c0-9.24,2.03-13.58,7-13.58,4.69,0,6.72,4.2,6.72,12.81,0,9.45-1.75,13.86-6.79,13.86C379.19-1.96,377.65-6.09,377.65-15.05ZM417.69.42h3.15l7.35-18.27L435.82.42h2.94l8.82-21.28c1.82-4.34,2.38-7.28,6.02-7.7v-2.45c-2.24.07-4.27.21-6.23.21-1.68,0-3.71-.07-6.16-.21v2.31c3.08.35,4.34.98,4.34,2.73a15.679,15.679,0,0,1-1.26,4.9L440.3-11.06l-7.28-19.88h-2.73l-7.84,18.76L418.04-23.8a7.837,7.837,0,0,1-.42-2.45c0-1.82,1.26-2.24,4.27-2.31v-2.38c-5.53.07-8.82.14-9.73.14-2.94,0-5.74-.07-8.54-.14v2.38c2.59.21,3.57,1.82,4.9,5.25Zm37.8-.21C458.5.07,461.3,0,463.96,0c2.38,0,5.6.07,9.73.21V-2.31c-3.36-.07-4.13-1.12-4.13-4.34V-17.57c0-5.53,2.8-8.89,6.79-8.89,2.8,0,4.2,2.03,4.2,6.02V-6.3c0,3.15-.7,3.99-3.99,3.99V.21c3.36-.14,6.3-.21,8.75-.21,2.87,0,5.88.07,9.1.21V-2.31c-3.85-.28-4.13-.91-4.13-3.99V-20.44c0-7.42-3.36-11.13-9.87-11.13-4.41,0-8.19,2.03-11.41,6.16l-.42-6.16h-1.19a48.722,48.722,0,0,1-11.9,2.45v2.59c3.5,0,4.34.91,4.34,4.62V-6.3c0,3.01-.35,3.64-4.34,3.99Z" transform="translate(13.91 66.06) rotate(0.05)" fill="#fff"/>
    </g>
  </g>
</svg>
