<svg xmlns="http://www.w3.org/2000/svg" width="247" height="42" viewBox="0 0 247 42">
  <g id="グループ_3826" data-name="グループ 3826" transform="translate(72.674 -40.322)">
    <path id="パス_10184" data-name="パス 10184" d="M1.326-.116C5.878-.193,9.768-.271,13-.271c4.046,0,8.014.039,11.9.077l.156-7.724h-1.6c-.778,4.016-3.112,5.793-7.47,5.793-3.929,0-4.9-1.236-4.9-5.1V-21.356c0-2.549.7-3.283,3.5-3.283h.233v-1.545c-3.035.077-5.33.116-6.769.116-1.945,0-4.2-.039-6.731-.116v1.545h.195c2.568,0,3.385.734,3.385,3.051V-5.6c0,2.9-.661,3.862-3.268,3.862H1.326Zm45.13-4.6a10.476,10.476,0,0,1-1.867,1.776,5.179,5.179,0,0,1-2.84.811c-3.268,0-5.135-2.278-5.135-6.6,0-.232.039-.5.039-.772H48.09v-.309c0-5.059-2.879-7.917-7.742-7.917-5.8,0-9.648,3.823-9.648,9.152C30.7-3.4,34.512.27,40,.27a8.8,8.8,0,0,0,7.781-3.823Zm-9.8-6.6c.272-3.205,1.362-4.789,3.424-4.789,1.906,0,2.957,1.506,2.957,4.325v.463ZM52.408-.155c1.673-.077,3.229-.116,4.707-.116,1.323,0,3.112.039,5.408.116v-1.39c-1.867-.039-2.3-.618-2.3-2.394V-9.964c0-3.051,1.556-4.9,3.774-4.9,1.556,0,2.334,1.12,2.334,3.321v7.8c0,1.738-.389,2.2-2.218,2.2v1.39c1.867-.077,3.5-.116,4.863-.116,1.6,0,3.268.039,5.058.116v-1.39c-2.14-.154-2.3-.5-2.3-2.2v-7.8c0-4.093-1.867-6.14-5.486-6.14a7.853,7.853,0,0,0-6.341,3.4l-.233-3.4h-.661a27.254,27.254,0,0,1-6.614,1.352v1.429c1.945,0,2.412.5,2.412,2.549v8.612c0,1.661-.195,2.008-2.412,2.2ZM78.98.038h1.478l.584-1.467A7.2,7.2,0,0,0,86.216.27c4.007,0,6.536-2.317,6.536-5.638,0-2.9-1.79-4.673-5.563-5.947-2.723-.927-4.28-1.12-4.28-2.819,0-1.12,1.012-1.97,2.568-1.97a5.4,5.4,0,0,1,4.9,3.669h1.478c-.039-.965-.039-1.815-.039-2.587,0-.811,0-1.622.039-2.51H90.379l-.739,1.274a7.236,7.236,0,0,0-4.591-1.467c-3.579,0-5.8,2.24-5.8,5.561s2.062,4.325,6.108,5.793c2.1.772,3.346,1.236,3.346,2.78,0,1.2-1.206,2.2-2.918,2.2a5.822,5.822,0,0,1-5.408-4.325h-1.4c.078,1.159.078,2.124.078,2.9C79.058-2.086,79.058-1.12,78.98.038Zm32.135-.193c1.945-.039,3.7-.116,5.33-.116,2.412,0,4.746.116,7.042.116,4.474,0,7.7-.5,10.465-2.9a11.868,11.868,0,0,0,3.968-9.423c0-8.882-5.408-13.709-15.8-13.709-2.1,0-4.28.077-6.458.077-1.517,0-3.073,0-4.552-.077v1.545c3.112,0,3.54.888,3.54,3.669v15.64c0,2.819-.622,3.514-3.54,3.553Zm9.765-5.909V-23.4c0-.734.389-1,1.478-1,6.342,0,8.715,3.514,8.715,11.431,0,7.337-1.984,10.852-6.536,10.852C121.776-2.124,120.881-3.283,120.881-6.063Zm37.777,1.352a10.476,10.476,0,0,1-1.867,1.776,5.179,5.179,0,0,1-2.84.811c-3.268,0-5.135-2.278-5.135-6.6,0-.232.039-.5.039-.772h11.438v-.309c0-5.059-2.879-7.917-7.742-7.917-5.8,0-9.648,3.823-9.648,9.152C142.9-3.4,146.714.27,152.2.27a8.8,8.8,0,0,0,7.781-3.823Zm-9.8-6.6c.272-3.205,1.362-4.789,3.424-4.789,1.906,0,2.957,1.506,2.957,4.325v.463ZM165.427.038h1.478l.584-1.467a7.2,7.2,0,0,0,5.174,1.7c4.007,0,6.536-2.317,6.536-5.638,0-2.9-1.79-4.673-5.563-5.947-2.723-.927-4.28-1.12-4.28-2.819,0-1.12,1.012-1.97,2.568-1.97a5.4,5.4,0,0,1,4.9,3.669H178.3c-.039-.965-.039-1.815-.039-2.587,0-.811,0-1.622.039-2.51h-1.478l-.739,1.274a7.236,7.236,0,0,0-4.591-1.467c-3.579,0-5.8,2.24-5.8,5.561s2.062,4.325,6.108,5.793c2.1.772,3.346,1.236,3.346,2.78,0,1.2-1.206,2.2-2.918,2.2a5.822,5.822,0,0,1-5.408-4.325h-1.4c.078,1.159.078,2.124.078,2.9C165.5-2.086,165.5-1.12,165.427.038ZM184.14-.155c1.712-.077,3.579-.116,5.563-.116.778,0,2.373.039,4.863.116V-1.622c-2.062-.116-2.451-.425-2.451-2.047V-17.8h-.584a35.785,35.785,0,0,1-7.392,1.352V-15.1c1.984.077,2.451.463,2.451,2.317v9.114c0,1.583-.35,1.931-2.451,2.047Zm2.023-24.522a2.945,2.945,0,0,0,2.957,2.935,2.945,2.945,0,0,0,2.957-2.935,2.92,2.92,0,0,0-2.957-2.935A2.92,2.92,0,0,0,186.163-24.677ZM203.826-6.1c-2.334.657-3.618,2.2-3.618,4.209a3.78,3.78,0,0,0,2.607,3.669c1.556.541,3.774.579,6.769.579,2.762,0,4.124.888,4.124,2.626,0,2.124-2.3,3.746-5.836,3.746-3.346,0-5.174-1.2-5.174-3.012A1.6,1.6,0,0,1,203.9,4.171a2.116,2.116,0,0,0-2.023-1.2,2.675,2.675,0,0,0-2.49,2.858c0,2.7,2.879,4.557,8.209,4.557,6.38,0,9.765-2.433,9.765-6.758,0-4.518-2.879-5.87-9.143-6.024-2.84-.077-4.124.116-4.124-1.39,0-1.159,1.128-1.506,3.073-1.661,5.525-.386,8.092-2.008,8.092-6.063a5.5,5.5,0,0,0-1.4-3.785,1.748,1.748,0,0,1,.895-.386c1.012,0,1.517,1.429,2.568,1.429a1.541,1.541,0,0,0,1.712-1.467c0-1.545-.817-2.356-2.49-2.356a5.826,5.826,0,0,0-3.774,1.7,9.489,9.489,0,0,0-5.058-1.313c-4.707,0-7.664,2.626-7.664,6.179A5.446,5.446,0,0,0,203.826-6.1Zm1.478-5.522c0-3.089.661-4.673,2.412-4.673,1.829,0,2.3,1.622,2.3,4.75,0,3.089-.311,4.518-2.412,4.518C205.771-7.029,205.3-8.535,205.3-11.624Zm17.39,11.47c1.673-.077,3.229-.116,4.708-.116,1.323,0,3.112.039,5.408.116v-1.39c-1.867-.039-2.3-.618-2.3-2.394V-9.964c0-3.051,1.556-4.9,3.774-4.9,1.556,0,2.334,1.12,2.334,3.321v7.8c0,1.738-.389,2.2-2.218,2.2v1.39c1.867-.077,3.5-.116,4.863-.116,1.6,0,3.268.039,5.058.116v-1.39c-2.14-.154-2.3-.5-2.3-2.2v-7.8c0-4.093-1.867-6.14-5.486-6.14a7.853,7.853,0,0,0-6.341,3.4l-.233-3.4h-.661a27.254,27.254,0,0,1-6.614,1.352v1.429c1.945,0,2.412.5,2.412,2.549v8.612c0,1.661-.195,2.008-2.412,2.2Z" transform="translate(-72 69.934)" fill="#de8ca0" stroke="#de8ca0" stroke-width="4"/>
    <path id="パス_10183" data-name="パス 10183" d="M1.326-.116C5.878-.193,9.768-.271,13-.271c4.046,0,8.014.039,11.9.077l.156-7.724h-1.6c-.778,4.016-3.112,5.793-7.47,5.793-3.929,0-4.9-1.236-4.9-5.1V-21.356c0-2.549.7-3.283,3.5-3.283h.233v-1.545c-3.035.077-5.33.116-6.769.116-1.945,0-4.2-.039-6.731-.116v1.545h.195c2.568,0,3.385.734,3.385,3.051V-5.6c0,2.9-.661,3.862-3.268,3.862H1.326Zm45.13-4.6a10.476,10.476,0,0,1-1.867,1.776,5.179,5.179,0,0,1-2.84.811c-3.268,0-5.135-2.278-5.135-6.6,0-.232.039-.5.039-.772H48.09v-.309c0-5.059-2.879-7.917-7.742-7.917-5.8,0-9.648,3.823-9.648,9.152C30.7-3.4,34.512.27,40,.27a8.8,8.8,0,0,0,7.781-3.823Zm-9.8-6.6c.272-3.205,1.362-4.789,3.424-4.789,1.906,0,2.957,1.506,2.957,4.325v.463ZM52.408-.155c1.673-.077,3.229-.116,4.707-.116,1.323,0,3.112.039,5.408.116v-1.39c-1.867-.039-2.3-.618-2.3-2.394V-9.964c0-3.051,1.556-4.9,3.774-4.9,1.556,0,2.334,1.12,2.334,3.321v7.8c0,1.738-.389,2.2-2.218,2.2v1.39c1.867-.077,3.5-.116,4.863-.116,1.6,0,3.268.039,5.058.116v-1.39c-2.14-.154-2.3-.5-2.3-2.2v-7.8c0-4.093-1.867-6.14-5.486-6.14a7.853,7.853,0,0,0-6.341,3.4l-.233-3.4h-.661a27.254,27.254,0,0,1-6.614,1.352v1.429c1.945,0,2.412.5,2.412,2.549v8.612c0,1.661-.195,2.008-2.412,2.2ZM78.98.038h1.478l.584-1.467A7.2,7.2,0,0,0,86.216.27c4.007,0,6.536-2.317,6.536-5.638,0-2.9-1.79-4.673-5.563-5.947-2.723-.927-4.28-1.12-4.28-2.819,0-1.12,1.012-1.97,2.568-1.97a5.4,5.4,0,0,1,4.9,3.669h1.478c-.039-.965-.039-1.815-.039-2.587,0-.811,0-1.622.039-2.51H90.379l-.739,1.274a7.236,7.236,0,0,0-4.591-1.467c-3.579,0-5.8,2.24-5.8,5.561s2.062,4.325,6.108,5.793c2.1.772,3.346,1.236,3.346,2.78,0,1.2-1.206,2.2-2.918,2.2a5.822,5.822,0,0,1-5.408-4.325h-1.4c.078,1.159.078,2.124.078,2.9C79.058-2.086,79.058-1.12,78.98.038Zm32.135-.193c1.945-.039,3.7-.116,5.33-.116,2.412,0,4.746.116,7.042.116,4.474,0,7.7-.5,10.465-2.9a11.868,11.868,0,0,0,3.968-9.423c0-8.882-5.408-13.709-15.8-13.709-2.1,0-4.28.077-6.458.077-1.517,0-3.073,0-4.552-.077v1.545c3.112,0,3.54.888,3.54,3.669v15.64c0,2.819-.622,3.514-3.54,3.553Zm9.765-5.909V-23.4c0-.734.389-1,1.478-1,6.342,0,8.715,3.514,8.715,11.431,0,7.337-1.984,10.852-6.536,10.852C121.776-2.124,120.881-3.283,120.881-6.063Zm37.777,1.352a10.476,10.476,0,0,1-1.867,1.776,5.179,5.179,0,0,1-2.84.811c-3.268,0-5.135-2.278-5.135-6.6,0-.232.039-.5.039-.772h11.438v-.309c0-5.059-2.879-7.917-7.742-7.917-5.8,0-9.648,3.823-9.648,9.152C142.9-3.4,146.714.27,152.2.27a8.8,8.8,0,0,0,7.781-3.823Zm-9.8-6.6c.272-3.205,1.362-4.789,3.424-4.789,1.906,0,2.957,1.506,2.957,4.325v.463ZM165.427.038h1.478l.584-1.467a7.2,7.2,0,0,0,5.174,1.7c4.007,0,6.536-2.317,6.536-5.638,0-2.9-1.79-4.673-5.563-5.947-2.723-.927-4.28-1.12-4.28-2.819,0-1.12,1.012-1.97,2.568-1.97a5.4,5.4,0,0,1,4.9,3.669H178.3c-.039-.965-.039-1.815-.039-2.587,0-.811,0-1.622.039-2.51h-1.478l-.739,1.274a7.236,7.236,0,0,0-4.591-1.467c-3.579,0-5.8,2.24-5.8,5.561s2.062,4.325,6.108,5.793c2.1.772,3.346,1.236,3.346,2.78,0,1.2-1.206,2.2-2.918,2.2a5.822,5.822,0,0,1-5.408-4.325h-1.4c.078,1.159.078,2.124.078,2.9C165.5-2.086,165.5-1.12,165.427.038ZM184.14-.155c1.712-.077,3.579-.116,5.563-.116.778,0,2.373.039,4.863.116V-1.622c-2.062-.116-2.451-.425-2.451-2.047V-17.8h-.584a35.785,35.785,0,0,1-7.392,1.352V-15.1c1.984.077,2.451.463,2.451,2.317v9.114c0,1.583-.35,1.931-2.451,2.047Zm2.023-24.522a2.945,2.945,0,0,0,2.957,2.935,2.945,2.945,0,0,0,2.957-2.935,2.92,2.92,0,0,0-2.957-2.935A2.92,2.92,0,0,0,186.163-24.677ZM203.826-6.1c-2.334.657-3.618,2.2-3.618,4.209a3.78,3.78,0,0,0,2.607,3.669c1.556.541,3.774.579,6.769.579,2.762,0,4.124.888,4.124,2.626,0,2.124-2.3,3.746-5.836,3.746-3.346,0-5.174-1.2-5.174-3.012A1.6,1.6,0,0,1,203.9,4.171a2.116,2.116,0,0,0-2.023-1.2,2.675,2.675,0,0,0-2.49,2.858c0,2.7,2.879,4.557,8.209,4.557,6.38,0,9.765-2.433,9.765-6.758,0-4.518-2.879-5.87-9.143-6.024-2.84-.077-4.124.116-4.124-1.39,0-1.159,1.128-1.506,3.073-1.661,5.525-.386,8.092-2.008,8.092-6.063a5.5,5.5,0,0,0-1.4-3.785,1.748,1.748,0,0,1,.895-.386c1.012,0,1.517,1.429,2.568,1.429a1.541,1.541,0,0,0,1.712-1.467c0-1.545-.817-2.356-2.49-2.356a5.826,5.826,0,0,0-3.774,1.7,9.489,9.489,0,0,0-5.058-1.313c-4.707,0-7.664,2.626-7.664,6.179A5.446,5.446,0,0,0,203.826-6.1Zm1.478-5.522c0-3.089.661-4.673,2.412-4.673,1.829,0,2.3,1.622,2.3,4.75,0,3.089-.311,4.518-2.412,4.518C205.771-7.029,205.3-8.535,205.3-11.624Zm17.39,11.47c1.673-.077,3.229-.116,4.708-.116,1.323,0,3.112.039,5.408.116v-1.39c-1.867-.039-2.3-.618-2.3-2.394V-9.964c0-3.051,1.556-4.9,3.774-4.9,1.556,0,2.334,1.12,2.334,3.321v7.8c0,1.738-.389,2.2-2.218,2.2v1.39c1.867-.077,3.5-.116,4.863-.116,1.6,0,3.268.039,5.058.116v-1.39c-2.14-.154-2.3-.5-2.3-2.2v-7.8c0-4.093-1.867-6.14-5.486-6.14a7.853,7.853,0,0,0-6.341,3.4l-.233-3.4h-.661a27.254,27.254,0,0,1-6.614,1.352v1.429c1.945,0,2.412.5,2.412,2.549v8.612c0,1.661-.195,2.008-2.412,2.2Z" transform="translate(-72 69.934)" fill="#fff"/>
  </g>
</svg>
