<svg xmlns="http://www.w3.org/2000/svg" width="1277" height="642.715" viewBox="0 0 1277 642.715">
  <g id="グループ_3668" data-name="グループ 3668" transform="translate(-167 -1454)">
    <rect id="長方形_1189" data-name="長方形 1189" width="1277" height="625" transform="translate(167 1454)" fill="none"/>
    <path id="パス_9775" data-name="パス 9775" d="M26.456,66.737c0-3.708-2.689-6.713-6.008-6.713A5.656,5.656,0,0,0,16.4,61.773a5.661,5.661,0,0,0-4.047-1.749c-3.316,0-6.005,3-6.005,6.713A7.1,7.1,0,0,0,9.13,72.4l.026.017c.2.144.2.144,7.248,5.281,7.041-5.137,7.041-5.137,7.246-5.281l.015-.009.011-.009h0l.831-.651a6.93,6.93,0,0,0,1.95-5.011" transform="translate(279.395 1429.774)" fill="#f7e1e4"/>
    <path id="パス_9781" data-name="パス 9781" d="M30.786-.646a9.514,9.514,0,0,1,6.063,2.21,9.514,9.514,0,0,1,6.063-2.21A9.608,9.608,0,0,1,50.07,2.6a11.4,11.4,0,0,1,2.907,7.7c0,3.671-1.716,6.977-3.331,8.223l-.525.405L49,19.027l.021.06-.735.482c-.282.2-.657.466-10.816,7.763l-.626.45-.626-.45c-10.159-7.3-10.534-7.566-10.816-7.763l-1.174-.694.156-.154a11.65,11.65,0,0,1-2.4-3.161,11.3,11.3,0,0,1-1.266-5.252,11.4,11.4,0,0,1,2.907-7.7A9.608,9.608,0,0,1,30.786-.646Zm6.063,5.125-.758-.76a7.482,7.482,0,0,0-5.3-2.273c-4.379,0-7.941,3.975-7.941,8.861a9.354,9.354,0,0,0,3.727,7.51l.029.02c.307.214.312.218,10.248,7.354,9.935-7.136,9.941-7.14,10.248-7.354l.04-.027.008-.006,1.192-.921c1.015-.784,2.517-3.416,2.517-6.576,0-4.886-3.562-8.861-7.941-8.861a7.482,7.482,0,0,0-5.3,2.273Z" transform="translate(212.415 1656.629)" fill="#f7e1e4"/>
    <path id="パス_9781-2" data-name="パス 9781" d="M26.994-.646A5.93,5.93,0,0,1,30.772.731,5.93,5.93,0,0,1,34.551-.646,5.988,5.988,0,0,1,39.013,1.38a7.106,7.106,0,0,1,1.812,4.8A6.956,6.956,0,0,1,38.749,11.3l-.327.253-.073.056.013.037-.458.3c-.176.123-.41.291-6.741,4.838l-.39.28-.39-.28c-6.332-4.548-6.565-4.716-6.741-4.838l-.732-.432.1-.1a7.261,7.261,0,0,1-1.5-1.97,7.046,7.046,0,0,1-.789-3.274,7.106,7.106,0,0,1,1.812-4.8A5.988,5.988,0,0,1,26.994-.646Zm3.779,3.194L30.3,2.075A4.663,4.663,0,0,0,26.994.658a5.266,5.266,0,0,0-4.95,5.523,5.83,5.83,0,0,0,2.323,4.681l.018.013c.191.133.195.136,6.387,4.583,6.192-4.448,6.2-4.45,6.387-4.583l.025-.017h0l.743-.574a5.733,5.733,0,0,0,1.569-4.1A5.266,5.266,0,0,0,34.551.658a4.663,4.663,0,0,0-3.306,1.416Z" transform="translate(312.731 2079.646)" fill="#f7e1e4"/>
    <path id="パス_9818" data-name="パス 9818" d="M37.879,70.55c0-5.814-4.217-10.527-9.421-10.527a8.869,8.869,0,0,0-6.343,2.743,8.877,8.877,0,0,0-6.347-2.743c-5.2,0-9.418,4.712-9.418,10.527a11.142,11.142,0,0,0,4.357,8.878l.041.027c.321.225.321.225,11.366,8.281,11.042-8.056,11.042-8.056,11.362-8.281l.024-.014.017-.014h0l1.3-1.02c1.3-1.017,3.057-4.125,3.057-7.858" transform="translate(1153.509 2008.979)" fill="#f7e1e4"/>
    <path id="パス_9819" data-name="パス 9819" d="M27.208,66.988c0-3.846-2.79-6.964-6.232-6.964a5.867,5.867,0,0,0-4.2,1.815,5.872,5.872,0,0,0-4.2-1.815c-3.44,0-6.23,3.117-6.23,6.964a7.37,7.37,0,0,0,2.882,5.873l.027.018c.212.149.212.149,7.519,5.478,7.3-5.329,7.3-5.329,7.517-5.478l.016-.009.011-.009h0l.862-.675a7.189,7.189,0,0,0,2.022-5.2" transform="translate(358.427 1994.714)" fill="#f7e1e4"/>
    <path id="パス_9820" data-name="パス 9820" d="M25.334,66.362c0-3.5-2.539-6.338-5.672-6.338a5.34,5.34,0,0,0-3.819,1.652,5.345,5.345,0,0,0-3.821-1.652c-3.131,0-5.67,2.837-5.67,6.338a6.708,6.708,0,0,0,2.624,5.346L9,71.724c.193.136.193.136,6.844,4.986,6.648-4.851,6.648-4.851,6.841-4.986l.014-.008.01-.008h0l.785-.614a6.543,6.543,0,0,0,1.841-4.731" transform="translate(192.648 1563.769)" fill="#f7e1e4"/>
    <path id="パス_9821" data-name="パス 9821" d="M41.191,71.656c0-6.425-4.66-11.632-10.41-11.632a9.8,9.8,0,0,0-7.009,3.032,9.809,9.809,0,0,0-7.013-3.032c-5.746,0-10.407,5.207-10.407,11.632a12.312,12.312,0,0,0,4.815,9.811l.045.03c.354.249.354.249,12.56,9.151,12.2-8.9,12.2-8.9,12.556-9.151l.026-.015.019-.015h0l1.44-1.127c1.437-1.124,3.378-4.559,3.378-8.684" transform="translate(224.202 1823.564)" fill="#f7e1e4"/>
    <path id="パス_9781-3" data-name="パス 9781" d="M31.966-.646A10.629,10.629,0,0,1,38.74,1.823,10.629,10.629,0,0,1,45.513-.646a10.734,10.734,0,0,1,8,3.632,12.737,12.737,0,0,1,3.248,8.6c0,4.1-1.917,7.794-3.721,9.187l-.587.453-.131.1.024.067-.821.539c-.315.22-.735.521-12.084,8.673l-.7.5-.7-.5c-11.35-8.152-11.768-8.453-12.084-8.673l-1.311-.775.174-.172a13.016,13.016,0,0,1-2.685-3.532,12.629,12.629,0,0,1-1.414-5.868,12.737,12.737,0,0,1,3.248-8.6,10.734,10.734,0,0,1,8-3.631ZM38.739,5.08l-.847-.849a8.359,8.359,0,0,0-5.927-2.539c-4.892,0-8.872,4.441-8.872,9.9a10.451,10.451,0,0,0,4.164,8.39L27.29,20c.343.239.349.243,11.449,8.216,11.1-7.972,11.106-7.977,11.449-8.216l.044-.03.009-.007,1.332-1.029c1.134-.876,2.812-3.816,2.812-7.347,0-5.459-3.98-9.9-8.872-9.9a8.359,8.359,0,0,0-5.927,2.539Z" transform="translate(1317.726 1491.362)" fill="#f7e1e4"/>
    <path id="パス_9822" data-name="パス 9822" d="M27.208,66.988c0-3.846-2.79-6.964-6.232-6.964a5.867,5.867,0,0,0-4.2,1.815,5.872,5.872,0,0,0-4.2-1.815c-3.44,0-6.23,3.117-6.23,6.964a7.37,7.37,0,0,0,2.882,5.873l.027.018c.212.149.212.149,7.519,5.478,7.3-5.329,7.3-5.329,7.517-5.478l.016-.009.011-.009h0l.862-.675a7.189,7.189,0,0,0,2.022-5.2" transform="translate(771.792 1977.038)" fill="#f7e1e4"/>
    <path id="パス_9823" data-name="パス 9823" d="M41.191,71.656c0-6.425-4.66-11.632-10.41-11.632a9.8,9.8,0,0,0-7.009,3.032,9.809,9.809,0,0,0-7.013-3.032c-5.746,0-10.407,5.207-10.407,11.632a12.312,12.312,0,0,0,4.815,9.811l.045.03c.354.249.354.249,12.56,9.151,12.2-8.9,12.2-8.9,12.556-9.151l.026-.015.019-.015h0l1.44-1.127c1.437-1.124,3.378-4.559,3.378-8.684" transform="translate(1340.663 1935.107)" fill="#f7e1e4"/>
    <path id="パス_9781-4" data-name="パス 9781" d="M28.281-.646a7.146,7.146,0,0,1,4.554,1.66,7.146,7.146,0,0,1,4.554-1.66A7.217,7.217,0,0,1,42.765,1.8a8.563,8.563,0,0,1,2.184,5.785,8.383,8.383,0,0,1-2.5,6.177l-.394.3-.088.068.016.045-.552.362c-.212.148-.494.35-8.124,5.831l-.47.338-.47-.338c-7.631-5.481-7.912-5.683-8.124-5.831l-.882-.521.117-.116a8.75,8.75,0,0,1-1.8-2.374,8.491,8.491,0,0,1-.951-3.945A8.563,8.563,0,0,1,22.9,1.8,7.217,7.217,0,0,1,28.281-.646ZM32.835,3.2l-.569-.571a5.62,5.62,0,0,0-3.985-1.7c-3.289,0-5.965,2.986-5.965,6.656a7.026,7.026,0,0,0,2.8,5.641l.022.015c.23.161.235.163,7.7,5.523,7.462-5.36,7.467-5.363,7.7-5.523l.03-.02h.006l.9-.692a6.909,6.909,0,0,0,1.891-4.94C43.365,3.916,40.689.93,37.4.93a5.62,5.62,0,0,0-4,1.7Z" transform="translate(1368.149 2036.198)" fill="#f7e1e4"/>
    <path id="パス_9781-5" data-name="パス 9781" d="M26.994-.646A5.93,5.93,0,0,1,30.772.731,5.93,5.93,0,0,1,34.551-.646,5.988,5.988,0,0,1,39.013,1.38a7.106,7.106,0,0,1,1.812,4.8A6.956,6.956,0,0,1,38.749,11.3l-.327.253-.073.056.013.037-.458.3c-.176.123-.41.291-6.741,4.838l-.39.28-.39-.28c-6.332-4.548-6.565-4.716-6.741-4.838l-.732-.432.1-.1a7.261,7.261,0,0,1-1.5-1.97,7.046,7.046,0,0,1-.789-3.274,7.106,7.106,0,0,1,1.812-4.8A5.988,5.988,0,0,1,26.994-.646Zm3.779,3.194L30.3,2.075A4.663,4.663,0,0,0,26.994.658a5.266,5.266,0,0,0-4.95,5.523,5.83,5.83,0,0,0,2.323,4.681l.018.013c.191.133.195.136,6.387,4.583,6.192-4.448,6.2-4.45,6.387-4.583l.025-.017h0l.743-.574a5.733,5.733,0,0,0,1.569-4.1A5.266,5.266,0,0,0,34.551.658a4.663,4.663,0,0,0-3.306,1.416Z" transform="translate(1343.714 1664.673)" fill="#f7e1e4"/>
    <path id="パス_9824" data-name="パス 9824" d="M27.208,66.988c0-3.846-2.79-6.964-6.232-6.964a5.867,5.867,0,0,0-4.2,1.815,5.872,5.872,0,0,0-4.2-1.815c-3.44,0-6.23,3.117-6.23,6.964a7.37,7.37,0,0,0,2.882,5.873l.027.018c.212.149.212.149,7.519,5.478,7.3-5.329,7.3-5.329,7.517-5.478l.016-.009.011-.009h0l.862-.675a7.189,7.189,0,0,0,2.022-5.2" transform="translate(1389.666 1397.359)" fill="#f7e1e4"/>
    <path id="パス_9781-6" data-name="パス 9781" d="M30.786-.646a9.514,9.514,0,0,1,6.063,2.21,9.514,9.514,0,0,1,6.063-2.21A9.608,9.608,0,0,1,50.07,2.6a11.4,11.4,0,0,1,2.907,7.7c0,3.671-1.716,6.977-3.331,8.223l-.525.405L49,19.027l.021.06-.735.482c-.282.2-.657.466-10.816,7.763l-.626.45-.626-.45c-10.159-7.3-10.534-7.566-10.816-7.763l-1.174-.694.156-.154a11.65,11.65,0,0,1-2.4-3.161,11.3,11.3,0,0,1-1.266-5.252,11.4,11.4,0,0,1,2.907-7.7A9.608,9.608,0,0,1,30.786-.646Zm6.063,5.125-.758-.76a7.482,7.482,0,0,0-5.3-2.273c-4.379,0-7.941,3.975-7.941,8.861a9.354,9.354,0,0,0,3.727,7.51l.029.02c.307.214.312.218,10.248,7.354,9.935-7.136,9.941-7.14,10.248-7.354l.04-.027.008-.006,1.192-.921c1.015-.784,2.517-3.416,2.517-6.576,0-4.886-3.562-8.861-7.941-8.861a7.482,7.482,0,0,0-5.3,2.273Z" transform="translate(547.415 1855.806)" fill="#f7e1e4"/>
    <path id="パス_9822-2" data-name="パス 9822" d="M27.208,66.988c0-3.846-2.79-6.964-6.232-6.964a5.867,5.867,0,0,0-4.2,1.815,5.872,5.872,0,0,0-4.2-1.815c-3.44,0-6.23,3.117-6.23,6.964a7.37,7.37,0,0,0,2.882,5.873l.027.018c.212.149.212.149,7.519,5.478,7.3-5.329,7.3-5.329,7.517-5.478l.016-.009.011-.009h0l.862-.675a7.189,7.189,0,0,0,2.022-5.2" transform="translate(755.615 1697.31)" fill="#f7e1e4"/>
    <path id="パス_9781-7" data-name="パス 9781" d="M31.966-.646A10.629,10.629,0,0,1,38.74,1.823,10.629,10.629,0,0,1,45.513-.646a10.734,10.734,0,0,1,8,3.632,12.737,12.737,0,0,1,3.248,8.6c0,4.1-1.917,7.794-3.721,9.187l-.587.453-.131.1.024.067-.821.539c-.315.22-.735.521-12.084,8.673l-.7.5-.7-.5c-11.35-8.152-11.768-8.453-12.084-8.673l-1.311-.775.174-.172a13.016,13.016,0,0,1-2.685-3.532,12.629,12.629,0,0,1-1.414-5.868,12.737,12.737,0,0,1,3.248-8.6,10.734,10.734,0,0,1,8-3.631ZM38.739,5.08l-.847-.849a8.359,8.359,0,0,0-5.927-2.539c-4.892,0-8.872,4.441-8.872,9.9a10.451,10.451,0,0,0,4.164,8.39L27.29,20c.343.239.349.243,11.449,8.216,11.1-7.972,11.106-7.977,11.449-8.216l.044-.03.009-.007,1.332-1.029c1.134-.876,2.812-3.816,2.812-7.347,0-5.459-3.98-9.9-8.872-9.9a8.359,8.359,0,0,0-5.927,2.539Z" transform="translate(715.631 2007.462)" fill="#f7e1e4"/>
  </g>
</svg>
