<svg xmlns="http://www.w3.org/2000/svg" width="573.446" height="61.695" viewBox="0 0 573.446 61.695">
  <g id="グループ_3932" data-name="グループ 3932" transform="translate(22.826 -628.658)">
    <path id="パス_10092" data-name="パス 10092" d="M-172.425,1.825a30.23,30.23,0,0,1-5.787-.463A8.281,8.281,0,0,1-181.85-.175q-.3.2-.737.5t-.838.563q-.4.263-.6.413a1.753,1.753,0,0,1-1.363.25A1.52,1.52,0,0,1-186.5.725a1.754,1.754,0,0,1-.163-1.338,1.543,1.543,0,0,1,.838-1.013q.325-.175.875-.425t1.025-.475V-7.25a1.245,1.245,0,0,0-.162-.75.919.919,0,0,0-.713-.2h-.45a1.485,1.485,0,0,1-1.15-.463,1.586,1.586,0,0,1-.425-1.113,1.542,1.542,0,0,1,.425-1.1,1.506,1.506,0,0,1,1.15-.45h1.925a2.386,2.386,0,0,1,2.7,2.7V-3a3.06,3.06,0,0,0,.663.537,5.2,5.2,0,0,0,.938.438l-.1-.1a.819.819,0,0,1-.1-.125,1.391,1.391,0,0,1-.2-1.088,1.29,1.29,0,0,1,.65-.888,5.709,5.709,0,0,0,1.85-1.687,5.285,5.285,0,0,0,.9-2.387h-.8a1.346,1.346,0,0,1-1.012-.4,1.416,1.416,0,0,1-.413-.95,1.7,1.7,0,0,1-1.175.075,1.6,1.6,0,0,1-.875-.675,1.482,1.482,0,0,1-.162-1.162,1.45,1.45,0,0,1,.813-.913q.65-.35,1.475-.9t1.575-1.1h-2.6a1.2,1.2,0,0,1-.937-.375,1.3,1.3,0,0,1-.338-.9v-.05a1.755,1.755,0,0,1-.112.15.961.961,0,0,1-.163.15,1.713,1.713,0,0,1-1.187.488,1.469,1.469,0,0,1-1.163-.512q-.275-.325-.7-.763t-.863-.862a10.23,10.23,0,0,0-.787-.7,1.336,1.336,0,0,1-.45-1.1,1.708,1.708,0,0,1,.475-1.15,1.8,1.8,0,0,1,1.137-.538,1.572,1.572,0,0,1,1.213.413q.575.5,1.313,1.175t1.137,1.1a1.648,1.648,0,0,1,.475,1.325,1.2,1.2,0,0,1,.95-.4h5.275v-.7q-1.9.15-3.575.15a1.457,1.457,0,0,1-1.212-.4,1.459,1.459,0,0,1-.363-.975,1.2,1.2,0,0,1,.375-.975,1.545,1.545,0,0,1,1.1-.375q1.675,0,3.488-.1t3.475-.3a27.977,27.977,0,0,0,2.863-.475,1.743,1.743,0,0,1,1.275.062,1.262,1.262,0,0,1,.625.788,1.515,1.515,0,0,1-.062,1.1,1.261,1.261,0,0,1-.988.675q-.775.15-1.738.288t-2.012.263v.975h5.75a1.2,1.2,0,0,1,.938.375,1.3,1.3,0,0,1,.338.9,1.3,1.3,0,0,1-.338.9,1.2,1.2,0,0,1-.937.375h-2.85q.725.475,1.563.963t1.487.812a1.316,1.316,0,0,1,.738.888,1.527,1.527,0,0,1-.137,1.163,1.555,1.555,0,0,1-1.05.85,1.663,1.663,0,0,1-1.3-.25q-.575-.375-1.35-.925T-169.363-12q-.762-.625-1.312-1.125v1.95h.775a1.741,1.741,0,0,1,1.375.463A1.072,1.072,0,0,1-168.3-9.65q-.1.425.063.588a1.066,1.066,0,0,0,.713.162,2.8,2.8,0,0,1,2.025.6,2.622,2.622,0,0,1,.375,2.225A7.523,7.523,0,0,1-165.9-3.4a3.05,3.05,0,0,1-1.525,1.375,6.494,6.494,0,0,1-2.45.4,1.943,1.943,0,0,1-1.2-.375,1.554,1.554,0,0,1-.6-1.075,1.432,1.432,0,0,1,.313-1.163A1.549,1.549,0,0,1-170.2-4.8a2.384,2.384,0,0,0,1.125-.238,1.023,1.023,0,0,0,.35-.437q.1-.35-.025-.463a.9.9,0,0,0-.55-.112h-1.1q-1.875,0-1.5-1.425a.812.812,0,0,0,0-.637q-.125-.187-.625-.187h-.325a9.375,9.375,0,0,1-1.312,3.925A8.288,8.288,0,0,1-176.775-1.8a1.77,1.77,0,0,1-.475.225q.925.125,2.113.2t2.712.075q1.95,0,3.887-.062t3.263-.163a2.033,2.033,0,0,1,1.462.375,1.46,1.46,0,0,1,.587,1.225,1.733,1.733,0,0,1-.475,1.263,2.017,2.017,0,0,1-1.5.488Zm-3.55-13h2.05V-13A19.946,19.946,0,0,1-175.975-11.175ZM-143.65,2a2.032,2.032,0,0,1-1.4-.488,1.967,1.967,0,0,1-.6-1.438,1.852,1.852,0,0,1,.412-1.238,1.842,1.842,0,0,1,1.313-.663,1.717,1.717,0,0,0,.9-.3,1.207,1.207,0,0,0,.2-.825V-6.925h-3.95a11.475,11.475,0,0,1-2.113,5.1,11.851,11.851,0,0,1-4.288,3.4,2.535,2.535,0,0,1-1.65.262A1.6,1.6,0,0,1-155.975.9a1.557,1.557,0,0,1-.087-1.438,1.991,1.991,0,0,1,1.087-.988,9.107,9.107,0,0,0,2.838-1.937,6.935,6.935,0,0,0,1.6-2.8,13.734,13.734,0,0,0,.513-4.012V-15.95a6.4,6.4,0,0,1,.425-2.587,2.479,2.479,0,0,1,1.463-1.325,8.261,8.261,0,0,1,2.813-.388h1.375a8.131,8.131,0,0,1,2.813.388,2.481,2.481,0,0,1,1.438,1.325,6.4,6.4,0,0,1,.425,2.587V-1.875a3.772,3.772,0,0,1-1.038,2.938A4.9,4.9,0,0,1-143.65,2Zm-12.7-6.725a8.6,8.6,0,0,1-2.85-.387,2.615,2.615,0,0,1-1.538-1.338,5.956,5.956,0,0,1-.462-2.575v-6.45a5.941,5.941,0,0,1,.462-2.587,2.623,2.623,0,0,1,1.538-1.325,8.6,8.6,0,0,1,2.85-.387,8.582,8.582,0,0,1,2.863.387,2.623,2.623,0,0,1,1.525,1.325,5.941,5.941,0,0,1,.462,2.587v6.45a5.956,5.956,0,0,1-.462,2.575,2.615,2.615,0,0,1-1.525,1.338A8.582,8.582,0,0,1-156.35-4.725Zm9.85-5.2h3.675V-11.95H-146.5Zm-9.8,1.9a1.592,1.592,0,0,0,1.088-.25,1.555,1.555,0,0,0,.237-1.025v-1.5h-2.65v1.5a1.555,1.555,0,0,0,.238,1.025A1.592,1.592,0,0,0-156.3-8.025Zm-1.325-5.825h2.65v-1.475a1.555,1.555,0,0,0-.237-1.025,1.592,1.592,0,0,0-1.088-.25,1.592,1.592,0,0,0-1.087.25,1.555,1.555,0,0,0-.238,1.025Zm11.125-1.1h3.675v-.7a1.449,1.449,0,0,0-.262-1.012,1.8,1.8,0,0,0-1.187-.263h-.75a1.858,1.858,0,0,0-1.2.263,1.4,1.4,0,0,0-.275,1.012Zm9.95,9.625a1.449,1.449,0,0,1-.613-.963,1.439,1.439,0,0,1,.263-1.138,10.178,10.178,0,0,0,1.375-2.888A14.422,14.422,0,0,0-135-14.325a6.77,6.77,0,0,1,.475-2.538,2.581,2.581,0,0,1,1.412-1.35,7.05,7.05,0,0,1,2.663-.413h6.425q0-.275-.012-.538t-.013-.537a1.7,1.7,0,0,1,.388-1.237,1.55,1.55,0,0,1,1.162-.488q1.7-.05,1.75,1.575v.625q0,.3.025.6h1.65l-.475-.475a1.173,1.173,0,0,1-.337-.975,1.558,1.558,0,0,1,.462-.95,1.645,1.645,0,0,1,.975-.438,1.311,1.311,0,0,1,1.05.363q.125.1.4.35t.537.513l.363.363a1.274,1.274,0,0,1,.4,1.25h.55a1.366,1.366,0,0,1,1.063.425,1.468,1.468,0,0,1,.387,1.025,1.436,1.436,0,0,1-.387,1,1.366,1.366,0,0,1-1.062.425h-5.325q.15.925.35,1.762a12.767,12.767,0,0,0,.475,1.563q.275-.5.537-1a10.7,10.7,0,0,0,.463-1,1.42,1.42,0,0,1,.925-.9,1.569,1.569,0,0,1,1.275.15,1.5,1.5,0,0,1,.85.888,1.516,1.516,0,0,1-.125,1.162,23.867,23.867,0,0,1-2.125,3.65,2.144,2.144,0,0,0,.275.275l.3.25q.625.525.9-.3.025-.075.063-.2t.063-.225a1.351,1.351,0,0,1,.788-.825,1.688,1.688,0,0,1,1.212-.05,1.6,1.6,0,0,1,.875.675,1.4,1.4,0,0,1,.1,1.225q-.1.35-.3.863t-.375.938a2.914,2.914,0,0,1-1.925,1.838,3.618,3.618,0,0,1-2.85-.863q-.275-.2-.575-.45t-.575-.525q-.3.35-.613.675t-.637.625a1.932,1.932,0,0,1-1.187.538,1.476,1.476,0,0,1-1.238-.513,1.419,1.419,0,0,1-.412-1.1,1.431,1.431,0,0,1,.488-1.025q.425-.375.863-.825t.862-.95a16.3,16.3,0,0,1-1.187-2.788,20.421,20.421,0,0,1-.787-3.538H-129.9a2.225,2.225,0,0,0-1.5.35,1.908,1.908,0,0,0-.4,1.25,25.016,25.016,0,0,1-.613,4.55,10.519,10.519,0,0,1-1.712,3.875,1.717,1.717,0,0,1-1.1.688A1.7,1.7,0,0,1-136.55-5.325Zm11.975,7.475a12.693,12.693,0,0,1-3.35-.35A2.735,2.735,0,0,1-129.65.575a4.853,4.853,0,0,1-.5-2.4V-3.75a1.575,1.575,0,0,1,.475-1.2,1.611,1.611,0,0,1,1.15-.45,1.611,1.611,0,0,1,1.15.45,1.575,1.575,0,0,1,.475,1.2V-2.2a1.736,1.736,0,0,0,.188.888,1.02,1.02,0,0,0,.7.425,7.58,7.58,0,0,0,1.512.113,9.019,9.019,0,0,0,1.45-.088,1.574,1.574,0,0,0,.763-.313,1.969,1.969,0,0,0,.463-.625,1.663,1.663,0,0,1,.912-.837,1.561,1.561,0,0,1,1.237.037,1.687,1.687,0,0,1,.913.825,1.464,1.464,0,0,1,.012,1.2,4.326,4.326,0,0,1-.988,1.6,3.6,3.6,0,0,1-1.75.863A14.339,14.339,0,0,1-124.575,2.15ZM-127.7-6.1a8.753,8.753,0,0,1-2.238-.225,1.719,1.719,0,0,1-1.137-.85A3.921,3.921,0,0,1-131.4-8.95a3.908,3.908,0,0,1,.325-1.788,1.73,1.73,0,0,1,1.137-.838A8.753,8.753,0,0,1-127.7-11.8a8.6,8.6,0,0,1,2.225.225,1.724,1.724,0,0,1,1.125.838,3.908,3.908,0,0,1,.325,1.788,3.921,3.921,0,0,1-.325,1.775,1.714,1.714,0,0,1-1.125.85A8.6,8.6,0,0,1-127.7-6.1ZM-135.725.825a1.682,1.682,0,0,1-.562-1.05,1.306,1.306,0,0,1,.338-1.1q.25-.3.637-.788t.762-1q.375-.512.575-.812a1.671,1.671,0,0,1,1.038-.725,1.617,1.617,0,0,1,1.212.25,1.547,1.547,0,0,1,.725.95,1.391,1.391,0,0,1-.25,1.225q-.4.625-.988,1.463A11.874,11.874,0,0,1-133.3.575a1.794,1.794,0,0,1-1.162.638A1.6,1.6,0,0,1-135.725.825Zm5.3-13.275a1.178,1.178,0,0,1-.925-.363,1.249,1.249,0,0,1-.325-.863,1.282,1.282,0,0,1,.325-.887,1.178,1.178,0,0,1,.925-.362h5.65a1.139,1.139,0,0,1,.912.362,1.312,1.312,0,0,1,.313.887,1.278,1.278,0,0,1-.312.863,1.139,1.139,0,0,1-.912.363ZM-114.1.775a1.635,1.635,0,0,1-1.213.325,1.432,1.432,0,0,1-1.062-.6Q-116.6.175-117-.35t-.825-1.062a10.118,10.118,0,0,0-.75-.863,1.144,1.144,0,0,1-.3-1.025,1.56,1.56,0,0,1,.55-.975,1.54,1.54,0,0,1,1.125-.388,1.567,1.567,0,0,1,1.075.513,9.642,9.642,0,0,1,.8.862q.45.538.875,1.063t.65.825a1.481,1.481,0,0,1,.337,1.113A1.53,1.53,0,0,1-114.1.775Zm-8.7-2.8a1.639,1.639,0,0,1-1.125.387A1.34,1.34,0,0,1-125-2.2l-.562-.687a5.241,5.241,0,0,0-.537-.588,1.083,1.083,0,0,1-.3-1,1.46,1.46,0,0,1,.55-.95,1.579,1.579,0,0,1,1.037-.363,1.534,1.534,0,0,1,1.037.463q.575.525,1.125,1.125a1.469,1.469,0,0,1,.463,1.125A1.432,1.432,0,0,1-122.8-2.025ZM-127.7-8.3a1.946,1.946,0,0,0,.837-.113q.188-.112.188-.537t-.187-.538A1.946,1.946,0,0,0-127.7-9.6a1.946,1.946,0,0,0-.838.112q-.187.113-.187.538t.188.537A1.946,1.946,0,0,0-127.7-8.3Zm18.575,9.45A1.8,1.8,0,0,1-109.988,0a1.757,1.757,0,0,1,.213-1.4A26.608,26.608,0,0,0-107.5-6.5a36.982,36.982,0,0,0,1.425-5.775q-.675.075-1.312.125t-1.213.075a1.788,1.788,0,0,1-1.338-.438,1.751,1.751,0,0,1-.613-1.262,1.741,1.741,0,0,1,.463-1.338A1.749,1.749,0,0,1-108.8-15.7q.775-.05,1.588-.113t1.588-.137q.075-1.4.075-2.625a1.921,1.921,0,0,1,.463-1.35,1.653,1.653,0,0,1,1.263-.6,1.868,1.868,0,0,1,1.35.488,1.758,1.758,0,0,1,.6,1.313q0,1.025-.075,2.275.675-.125,1.275-.225a1.8,1.8,0,0,1,1.4.225,1.684,1.684,0,0,1,.8,1.15,1.716,1.716,0,0,1-.25,1.4,1.793,1.793,0,0,1-1.175.775q-.525.1-1.15.2t-1.325.225q-.35,2.325-.95,4.738a43.033,43.033,0,0,1-1.413,4.6A22.21,22.21,0,0,1-106.575.5a1.865,1.865,0,0,1-1.15.85A1.72,1.72,0,0,1-109.125,1.15Zm17.45-.475A12.143,12.143,0,0,1-98.287.7,6.2,6.2,0,0,1-102.1-2.4a2.044,2.044,0,0,1-.125-1.437,1.666,1.666,0,0,1,.875-1.088,1.785,1.785,0,0,1,1.412-.162,1.8,1.8,0,0,1,1.113.887A3.191,3.191,0,0,0-96.7-2.775a9.627,9.627,0,0,0,4.275-.2,1.7,1.7,0,0,1,1.388.25,1.885,1.885,0,0,1,.813,1.2A1.745,1.745,0,0,1-90.5-.15,2,2,0,0,1-91.675.675Zm-1.25-9.4a9.717,9.717,0,0,0-1.837-.262q-1.063-.063-2.163-.025a16.126,16.126,0,0,0-2.025.187,1.944,1.944,0,0,1-1.363-.3,1.7,1.7,0,0,1-.762-1.125,1.811,1.811,0,0,1,.287-1.35,1.737,1.737,0,0,1,1.137-.775,16.833,16.833,0,0,1,2.55-.275,24.18,24.18,0,0,1,2.7.05,14.633,14.633,0,0,1,2.35.35,1.729,1.729,0,0,1,1.113.813,1.741,1.741,0,0,1,.213,1.362,1.719,1.719,0,0,1-.825,1.113A1.862,1.862,0,0,1-92.925-8.725Zm17,9.525A1.52,1.52,0,0,1-77.137.475a1.667,1.667,0,0,1-.638-1.1,1.52,1.52,0,0,1,.325-1.212,1.667,1.667,0,0,1,1.1-.638,12.069,12.069,0,0,0,3.713-.987A4.01,4.01,0,0,0-70.85-4.988a2.714,2.714,0,0,0,.325-1.788,2.547,2.547,0,0,0-.838-1.7A2.9,2.9,0,0,0-73.4-8.9q-.8.075-1.862.225t-2.187.363q-1.125.212-2.15.437t-1.75.425a1.608,1.608,0,0,1-1.25-.162,1.655,1.655,0,0,1-.8-.988,1.608,1.608,0,0,1,.162-1.25,1.566,1.566,0,0,1,1.013-.775q.8-.225,1.887-.463t2.287-.437q1.2-.2,2.35-.363t2.05-.237a6.267,6.267,0,0,1,4.35,1.05A5.344,5.344,0,0,1-67.275-7.35a6,6,0,0,1-.2,2.662,6.394,6.394,0,0,1-1.437,2.45A8.513,8.513,0,0,1-71.687-.3,14.2,14.2,0,0,1-75.925.8Zm21.6-.625a2.053,2.053,0,0,1-1-1.038,1.679,1.679,0,0,1,0-1.387,1.734,1.734,0,0,1,1-1.025,1.767,1.767,0,0,1,1.425,0,3.174,3.174,0,0,0,1.925.375.852.852,0,0,0,.675-.925A4.123,4.123,0,0,0-50.687-5.6q-.388-.825-.862-1.65-.425-.75-.8-1.525a5.85,5.85,0,0,1-.513-1.675,4.7,4.7,0,0,1,.162-1.975,1.914,1.914,0,0,1,.85-1.163,1.693,1.693,0,0,1,1.4-.213,1.676,1.676,0,0,1,1.125.838A1.988,1.988,0,0,1-49.1-11.55a2.911,2.911,0,0,0,.188,1.675q.338.775.813,1.625a21.465,21.465,0,0,1,1.025,2.012,6.393,6.393,0,0,1,.5,2.638,4.54,4.54,0,0,1-.675,2.55A4.111,4.111,0,0,1-49.05.475a5.463,5.463,0,0,1-2.5.438A7.107,7.107,0,0,1-54.325.175Zm15.175-2a1.725,1.725,0,0,1-1.375.225A1.89,1.89,0,0,1-41.7-2.4a17.155,17.155,0,0,0-1.062-1.45q-.663-.825-1.4-1.662T-45.55-6.975a1.973,1.973,0,0,1-.6-1.3,1.65,1.65,0,0,1,.475-1.3,1.69,1.69,0,0,1,1.3-.575,1.806,1.806,0,0,1,1.325.55q.85.775,1.688,1.688t1.575,1.825A17.594,17.594,0,0,1-38.55-4.375a1.7,1.7,0,0,1,.237,1.4A1.817,1.817,0,0,1-39.15-1.825Zm-19.45.1a1.922,1.922,0,0,1-1.363.425,1.764,1.764,0,0,1-1.262-.625,1.762,1.762,0,0,1-.437-1.35,1.82,1.82,0,0,1,.637-1.275q.6-.525,1.438-1.187t1.713-1.338Q-57-7.75-56.3-8.275a1.845,1.845,0,0,1,1.375-.387A1.741,1.741,0,0,1-53.7-7.95a1.668,1.668,0,0,1,.362,1.337A1.825,1.825,0,0,1-54.075-5.4q-.675.525-1.513,1.213T-57.225-2.85Q-58.025-2.2-58.6-1.725ZM-48.95-13.8q-1.075-.7-2.138-1.262a20.043,20.043,0,0,0-2.087-.963,2.149,2.149,0,0,1-1.088-.925,1.679,1.679,0,0,1-.162-1.4,1.98,1.98,0,0,1,.912-1.137,1.451,1.451,0,0,1,1.388-.113q.875.35,1.85.813t1.9.975a16.215,16.215,0,0,1,1.65,1.038A1.71,1.71,0,0,1-46-15.562a1.877,1.877,0,0,1-.35,1.387,1.732,1.732,0,0,1-1.213.713A2.03,2.03,0,0,1-48.95-13.8Zm7.125,2.425a2.5,2.5,0,0,1-1.838-.763,2.5,2.5,0,0,1-.763-1.837,2.5,2.5,0,0,1,.763-1.838,2.5,2.5,0,0,1,1.838-.762,2.5,2.5,0,0,1,1.837.762,2.5,2.5,0,0,1,.763,1.838,2.5,2.5,0,0,1-.763,1.837A2.5,2.5,0,0,1-41.825-11.375Zm0-1.675a.91.91,0,0,0,.65-.263.877.877,0,0,0,.275-.662.889.889,0,0,0-.275-.65.889.889,0,0,0-.65-.275.889.889,0,0,0-.65.275.889.889,0,0,0-.275.65.877.877,0,0,0,.275.662A.91.91,0,0,0-41.825-13.05ZM-26.175,1.5a1.9,1.9,0,0,1-.6-1.3A1.682,1.682,0,0,1-26.3-1.125a14.543,14.543,0,0,0,3.025-4.937,17.437,17.437,0,0,0,1.025-6.062,4.19,4.19,0,0,0-.612-2.6,2.006,2.006,0,0,0-1.638-.75,2.557,2.557,0,0,0-1.725.65,3.964,3.964,0,0,0-1.1,2.15,13.662,13.662,0,0,0-.15,4.025,1.784,1.784,0,0,1-.375,1.325,1.671,1.671,0,0,1-1.2.65,1.7,1.7,0,0,1-1.3-.375A1.777,1.777,0,0,1-31-8.225a27.277,27.277,0,0,1-.25-3q-.05-1.6-.013-3.15t.138-2.863q.1-1.312.2-2.137a1.87,1.87,0,0,1,.675-1.25A1.691,1.691,0,0,1-28.9-21a1.816,1.816,0,0,1,1.225.65,1.76,1.76,0,0,1,.325,1.425q-.025.25-.113.85T-27.6-17.05a3.628,3.628,0,0,1,.787-1.062A4.272,4.272,0,0,1-25.65-18.9a3.079,3.079,0,0,1,1.3-.3,5.082,5.082,0,0,1,4.362,1.862A8.576,8.576,0,0,1-18.6-12.125a22.83,22.83,0,0,1-1.225,7.5A15.7,15.7,0,0,1-23.5,1.4a1.947,1.947,0,0,1-1.325.587A1.8,1.8,0,0,1-26.175,1.5ZM-.65,1.9A5.134,5.134,0,0,1-4.062.8,3.821,3.821,0,0,1-5.375-2.3,3.7,3.7,0,0,1-4.05-5.287,5.223,5.223,0,0,1-.575-6.4a8.132,8.132,0,0,1,1.1.075V-10.55a1.807,1.807,0,0,1,.525-1.313,1.745,1.745,0,0,1,1.3-.537,1.7,1.7,0,0,1,1.287.537A1.831,1.831,0,0,1,4.15-10.55v5.025a19.874,19.874,0,0,1,2.5,1.038A15.316,15.316,0,0,1,8.7-3.275a1.728,1.728,0,0,1,.763,1.213A1.833,1.833,0,0,1,9.125-.675,1.844,1.844,0,0,1,7.913.088,1.7,1.7,0,0,1,6.525-.25Q6-.65,5.388-1.038A12.755,12.755,0,0,0,4.1-1.75,4,4,0,0,1,2.625.938,5.156,5.156,0,0,1-.65,1.9ZM-9.675-5a1.89,1.89,0,0,1-.55-1.35,1.69,1.69,0,0,1,.575-1.3,15.7,15.7,0,0,0,2.287-2.575,17.3,17.3,0,0,0,1.713-3l-1.025.1q-.5.05-.925.075a1.788,1.788,0,0,1-1.338-.437A1.8,1.8,0,0,1-9.55-14.8a1.76,1.76,0,0,1,.438-1.288A2.011,2.011,0,0,1-7.8-16.7q.75-.075,1.575-.175T-4.55-17.1a12.97,12.97,0,0,0,.15-1.975,1.926,1.926,0,0,1,.538-1.312,1.7,1.7,0,0,1,1.287-.538,1.87,1.87,0,0,1,1.338.538A1.666,1.666,0,0,1-.7-19.075q-.025.325-.038.663A5.754,5.754,0,0,1-.8-17.75l.125-.025a1.766,1.766,0,0,1,1.4.237,1.726,1.726,0,0,1,.8,1.163A1.67,1.67,0,0,1,1.275-15,1.89,1.89,0,0,1,.1-14.2q-.35.075-.775.163l-.925.188a22.282,22.282,0,0,1-2.2,4.9A16.6,16.6,0,0,1-7.05-5a1.958,1.958,0,0,1-1.325.537A1.734,1.734,0,0,1-9.675-5Zm16.65-6.525A20.147,20.147,0,0,0,5.2-12.5a15.484,15.484,0,0,0-1.725-.725A2.366,2.366,0,0,1,2.363-14.1a1.629,1.629,0,0,1-.237-1.35,1.9,1.9,0,0,1,.863-1.163A1.611,1.611,0,0,1,4.375-16.8a15.145,15.145,0,0,1,1.638.587q.862.363,1.675.763a13.385,13.385,0,0,1,1.387.775,1.625,1.625,0,0,1,.775,1.188,1.974,1.974,0,0,1-.3,1.438,1.793,1.793,0,0,1-1.175.775A1.879,1.879,0,0,1,6.975-11.525ZM-.7-1.45A1.094,1.094,0,0,0,.525-2.7v-.325Q.2-3.075-.1-3.1t-.6-.025q-1.15,0-1.15.825Q-1.85-1.45-.7-1.45ZM19.95.6a1.847,1.847,0,0,1-1.487.025A1.909,1.909,0,0,1,17.375-.4a1.911,1.911,0,0,1-.038-1.5A1.862,1.862,0,0,1,18.35-3a24.047,24.047,0,0,0,6.413-4.038A15.661,15.661,0,0,0,28.6-12.1q.525-1.15.162-1.687t-1.713-.538H17.975a1.848,1.848,0,0,1-1.35-.575,1.848,1.848,0,0,1-.575-1.35,1.876,1.876,0,0,1,.575-1.375,1.848,1.848,0,0,1,1.35-.575h9.35q3.8,0,5.05,1.975t-.15,5.275a20.213,20.213,0,0,1-4.637,6.575A25.884,25.884,0,0,1,19.95.6ZM36-15.275a1.2,1.2,0,0,1-.887.35,1.2,1.2,0,0,1-.913-.4q-.25-.275-.763-.825t-.862-.95a1.011,1.011,0,0,1-.237-.738,1.162,1.162,0,0,1,.362-.812,1.148,1.148,0,0,1,.737-.337,1.236,1.236,0,0,1,.813.212,11.589,11.589,0,0,1,.975.788,6.68,6.68,0,0,1,.875.912,1.335,1.335,0,0,1,.313.9A1.292,1.292,0,0,1,36-15.275Zm.6-2.425q-.275-.275-.837-.763T34.8-19.3a1.147,1.147,0,0,1-.3-.712,1.135,1.135,0,0,1,.275-.862,1.151,1.151,0,0,1,.7-.4,1.21,1.21,0,0,1,.825.15,10.615,10.615,0,0,1,1.037.675,6.717,6.717,0,0,1,.963.825,1.349,1.349,0,0,1,.412.875,1.267,1.267,0,0,1-.312.925,1.247,1.247,0,0,1-.863.425A1.2,1.2,0,0,1,36.6-17.7ZM46.4,1.15a1.83,1.83,0,0,1-1.463-.113A1.869,1.869,0,0,1,43.975-.1a1.83,1.83,0,0,1,.113-1.462A1.869,1.869,0,0,1,45.2-2.525a17.164,17.164,0,0,0,5.3-2.738A11.284,11.284,0,0,0,53.85-9.25a.969.969,0,0,0,.025-.975q-.25-.375-1.125-.375H43.6a1.92,1.92,0,0,1-1.375-.55,1.768,1.768,0,0,1-.575-1.325,1.8,1.8,0,0,1,.575-1.35,1.92,1.92,0,0,1,1.375-.55h9.425a6.093,6.093,0,0,1,3.513.863,3.243,3.243,0,0,1,1.425,2.35A6.19,6.19,0,0,1,57.275-7.8a15.566,15.566,0,0,1-4.287,5.375A20.518,20.518,0,0,1,46.4,1.15Zm-1.225-16.9a1.806,1.806,0,0,1-1.325-.55,1.806,1.806,0,0,1-.55-1.325,1.806,1.806,0,0,1,.55-1.325,1.806,1.806,0,0,1,1.325-.55h9.8a1.765,1.765,0,0,1,1.312.55,1.827,1.827,0,0,1,.538,1.325,1.827,1.827,0,0,1-.538,1.325,1.765,1.765,0,0,1-1.312.55ZM73.875,1.6a2.265,2.265,0,0,1-1.463.163A1.7,1.7,0,0,1,71.25.9a1.927,1.927,0,0,1-.213-1.475,1.635,1.635,0,0,1,.888-1.15,19.4,19.4,0,0,0,5.05-3.45,10.34,10.34,0,0,0,2.7-4.7,7.419,7.419,0,0,0,.25-1.138,1.464,1.464,0,0,0-.15-.838,1.167,1.167,0,0,0-.525-.387,4.81,4.81,0,0,0-1.312-.25Q77-12.575,75.1-12.575q-1.775,0-2.713.063a5.012,5.012,0,0,0-1.325.213,1.36,1.36,0,0,0-.588.4,1.471,1.471,0,0,0-.162.925q.038.65.262,2.05a1.9,1.9,0,0,1-.337,1.437,1.824,1.824,0,0,1-1.263.788,1.876,1.876,0,0,1-1.45-.35A1.865,1.865,0,0,1,66.75-8.3q-.275-1.75-.35-2.9a6.317,6.317,0,0,1,.125-1.937A3.613,3.613,0,0,1,67.3-14.6a3.806,3.806,0,0,1,1.188-.962,5.847,5.847,0,0,1,1.787-.5A24.431,24.431,0,0,1,73.3-16.25v-2.675a1.836,1.836,0,0,1,.575-1.362,1.868,1.868,0,0,1,1.35-.562,1.9,1.9,0,0,1,1.375.563,1.836,1.836,0,0,1,.575,1.362v2.675a24.1,24.1,0,0,1,2.925.225,5.7,5.7,0,0,1,1.837.563A3.692,3.692,0,0,1,83.15-14.4a3.591,3.591,0,0,1,.713,2.325,14.681,14.681,0,0,1-.538,3.225,16.678,16.678,0,0,1-1.7,3.963,14.558,14.558,0,0,1-3.012,3.563A18.839,18.839,0,0,1,73.875,1.6ZM94.15-.65a1.886,1.886,0,0,1-1.488-.062A1.859,1.859,0,0,1,91.65-1.8a1.918,1.918,0,0,1,.063-1.5,1.767,1.767,0,0,1,1.088-1A31.319,31.319,0,0,0,96.762-6a44.111,44.111,0,0,0,3.875-2.225,32.752,32.752,0,0,0,3.375-2.475,19.878,19.878,0,0,0,2.488-2.45,1.765,1.765,0,0,1,1.287-.687,1.941,1.941,0,0,1,1.412.437,1.673,1.673,0,0,1,.713,1.275,1.96,1.96,0,0,1-.437,1.425A20.9,20.9,0,0,1,106.713-8,43.121,43.121,0,0,1,102.9-5.188a50.382,50.382,0,0,1-4.363,2.575A36.057,36.057,0,0,1,94.15-.65Zm1.775-10.175q-1-.825-2.125-1.663a21.918,21.918,0,0,0-2.075-1.387,1.824,1.824,0,0,1-.875-1.188,1.893,1.893,0,0,1,.225-1.437,1.834,1.834,0,0,1,1.188-.9,1.737,1.737,0,0,1,1.438.225q.75.475,1.613,1.063t1.65,1.188q.788.6,1.338,1.075a2.028,2.028,0,0,1,.725,1.275,1.786,1.786,0,0,1-.375,1.425,1.874,1.874,0,0,1-1.287.738A1.766,1.766,0,0,1,95.925-10.825Zm28.325,8.7q-3.675,1.225-5.8.15T116.325-6.35v-8.775a1.856,1.856,0,0,1,.563-1.362,1.856,1.856,0,0,1,1.363-.563,1.856,1.856,0,0,1,1.363.563,1.856,1.856,0,0,1,.563,1.362v8.15q0,1.15.65,1.463a2.884,2.884,0,0,0,2.025-.137,25.789,25.789,0,0,0,4.912-2.15,38.68,38.68,0,0,0,4.363-2.85,1.962,1.962,0,0,1,1.45-.375,1.792,1.792,0,0,1,1.275.75,1.85,1.85,0,0,1,.4,1.438,1.885,1.885,0,0,1-.75,1.313,31.435,31.435,0,0,1-2.988,2.013,39.727,39.727,0,0,1-3.55,1.888A35.32,35.32,0,0,1,124.25-2.125ZM144.15-.65a1.886,1.886,0,0,1-1.487-.062A1.859,1.859,0,0,1,141.65-1.8a1.918,1.918,0,0,1,.063-1.5,1.767,1.767,0,0,1,1.088-1A31.318,31.318,0,0,0,146.762-6a44.113,44.113,0,0,0,3.875-2.225,32.752,32.752,0,0,0,3.375-2.475,19.879,19.879,0,0,0,2.488-2.45,1.765,1.765,0,0,1,1.288-.687,1.941,1.941,0,0,1,1.412.437,1.673,1.673,0,0,1,.713,1.275,1.96,1.96,0,0,1-.437,1.425A20.9,20.9,0,0,1,156.712-8,43.118,43.118,0,0,1,152.9-5.188a50.38,50.38,0,0,1-4.362,2.575A36.058,36.058,0,0,1,144.15-.65Zm1.775-10.175q-1-.825-2.125-1.663a21.919,21.919,0,0,0-2.075-1.387,1.824,1.824,0,0,1-.875-1.188,1.893,1.893,0,0,1,.225-1.437,1.834,1.834,0,0,1,1.188-.9,1.737,1.737,0,0,1,1.438.225q.75.475,1.613,1.063t1.65,1.188q.788.6,1.338,1.075a2.028,2.028,0,0,1,.725,1.275,1.786,1.786,0,0,1-.375,1.425,1.874,1.874,0,0,1-1.287.738A1.766,1.766,0,0,1,145.925-10.825ZM167.3-.15a1.891,1.891,0,0,1-1.463.063,1.876,1.876,0,0,1-1.112-.963,1.886,1.886,0,0,1-.088-1.488,1.775,1.775,0,0,1,.988-1.088,28.756,28.756,0,0,0,6.15-4,23.991,23.991,0,0,0,4.4-4.9q.575-.825.313-1.237t-1.213-.413H168.65a1.868,1.868,0,0,1-1.35-.562,1.836,1.836,0,0,1-.575-1.363,1.836,1.836,0,0,1,.575-1.362,1.868,1.868,0,0,1,1.35-.562h6.825a6.73,6.73,0,0,1,3.813.912,3.171,3.171,0,0,1,1.45,2.512,6.6,6.6,0,0,1-1.088,3.675,8.468,8.468,0,0,1-.462.762q-.263.387-.538.762,1.125.925,2.25,2t2.138,2.075q1.013,1,1.737,1.75a1.89,1.89,0,0,1,.538,1.388A1.935,1.935,0,0,1,184.725-.8a1.824,1.824,0,0,1-1.375.537,1.95,1.95,0,0,1-1.4-.588q-.675-.725-1.637-1.713t-2.025-2.05Q177.225-5.675,176.2-6.55a34.691,34.691,0,0,1-4.238,3.588A31.232,31.232,0,0,1,167.3-.15Zm16.6-15.175a1.3,1.3,0,0,1-.912.313,1.166,1.166,0,0,1-.887-.413q-.25-.275-.75-.837t-.85-.962a1.036,1.036,0,0,1-.2-.737,1.212,1.212,0,0,1,.375-.813,1.211,1.211,0,0,1,.738-.312,1.168,1.168,0,0,1,.813.238,8.661,8.661,0,0,1,.95.8,8.141,8.141,0,0,1,.85.925,1.283,1.283,0,0,1,.3.9A1.344,1.344,0,0,1,183.9-15.325Zm.65-2.425q-.275-.275-.825-.775t-.925-.85a1.19,1.19,0,0,1-.288-.725,1.164,1.164,0,0,1,.288-.85,1.1,1.1,0,0,1,.7-.388,1.268,1.268,0,0,1,.825.163,8.088,8.088,0,0,1,1.025.7,8.424,8.424,0,0,1,.95.85,1.292,1.292,0,0,1,.363.875,1.368,1.368,0,0,1-.338.925,1.19,1.19,0,0,1-.85.413A1.18,1.18,0,0,1,184.55-17.75Zm-400.3,57.575a1.266,1.266,0,0,1-.988-.4,1.367,1.367,0,0,1-.363-.95,1.355,1.355,0,0,1,.363-.962,1.287,1.287,0,0,1,.988-.388h5.425V36.55h-4.45a1.128,1.128,0,0,1-.888-.35,1.2,1.2,0,0,1-.312-.825,1.231,1.231,0,0,1,.313-.85,1.128,1.128,0,0,1,.888-.35h4.45V33.6h-1.25a6.243,6.243,0,0,1-2.187-.312,2,2,0,0,1-1.163-1.162,6.605,6.605,0,0,1-.35-2.425,6.5,6.5,0,0,1,.35-2.413,2.046,2.046,0,0,1,1.163-1.162,6.023,6.023,0,0,1,2.188-.325h5.625a6.023,6.023,0,0,1,2.188.325,2.091,2.091,0,0,1,1.175,1.162,6.3,6.3,0,0,1,.362,2.413,6.4,6.4,0,0,1-.362,2.425,2.042,2.042,0,0,1-1.175,1.162,6.243,6.243,0,0,1-2.187.313h-1.25v.575h4.375a1.128,1.128,0,0,1,.887.35,1.231,1.231,0,0,1,.313.85,1.2,1.2,0,0,1-.312.825,1.128,1.128,0,0,1-.887.35H-207.2v.575h5.325a1.278,1.278,0,0,1,1,.388,1.383,1.383,0,0,1,.35.962,1.4,1.4,0,0,1-.35.95,1.258,1.258,0,0,1-1,.4ZM-220.1,36.8a6.374,6.374,0,0,1-2.287-.325,1.894,1.894,0,0,1-1.113-1.062,5.475,5.475,0,0,1-.3-2.012V21.525a5.579,5.579,0,0,1,.3-2.025,1.848,1.848,0,0,1,1.113-1.062,6.608,6.608,0,0,1,2.287-.312,6.591,6.591,0,0,1,2.3.313,1.849,1.849,0,0,1,1.1,1.063,5.579,5.579,0,0,1,.3,2.025V33.4a5.475,5.475,0,0,1-.3,2.012,1.9,1.9,0,0,1-1.1,1.063A6.357,6.357,0,0,1-220.1,36.8Zm5.225-11.575a1.208,1.208,0,0,1-.962-.388,1.378,1.378,0,0,1-.338-.937,1.332,1.332,0,0,1,.338-.925,1.228,1.228,0,0,1,.962-.375h1.9a1.3,1.3,0,0,0-.05-.162.307.307,0,0,1-.025-.113,1.169,1.169,0,0,1,.025-1.025h-1.4a1.208,1.208,0,0,1-.962-.388,1.378,1.378,0,0,1-.338-.937,1.332,1.332,0,0,1,.338-.925,1.228,1.228,0,0,1,.962-.375h4.025V18.1a1.446,1.446,0,0,1,.462-1.137,1.682,1.682,0,0,1,1.163-.413,1.717,1.717,0,0,1,1.188.413,1.446,1.446,0,0,1,.462,1.137v.575h4.1a1.228,1.228,0,0,1,.962.375,1.332,1.332,0,0,1,.337.925,1.378,1.378,0,0,1-.337.937,1.208,1.208,0,0,1-.962.388h-1.45a1.169,1.169,0,0,1,.025,1.025.307.307,0,0,1-.025.113,1.3,1.3,0,0,0-.05.162h2.425a1.228,1.228,0,0,1,.963.375,1.332,1.332,0,0,1,.337.925,1.378,1.378,0,0,1-.337.937,1.208,1.208,0,0,1-.963.388Zm5.125-2.625h2q.1-.325.212-.663a3.7,3.7,0,0,0,.138-.487.2.2,0,0,0,.025-.087.085.085,0,0,1,.025-.062h-2.8a.384.384,0,0,1,.05.15q.05.15.15.487T-209.75,22.6ZM-220.1,33.775a.732.732,0,0,0,.5-.138.817.817,0,0,0,.15-.588V31.525h-1.275V33.05a.817.817,0,0,0,.15.588A.688.688,0,0,0-220.1,33.775Zm-.625-5.375h1.275V26.275h-1.275Zm0-5.25h1.275V21.875a.817.817,0,0,0-.15-.587.732.732,0,0,0-.5-.138.688.688,0,0,0-.475.138.817.817,0,0,0-.15.587Zm13.525,5.625h1.7a.8.8,0,0,0-.3-.65,1.9,1.9,0,0,0-.9-.15h-.5Zm-4.825,0h1.7v-.8h-.5a1.824,1.824,0,0,0-.875.15A.863.863,0,0,0-212.025,28.775Zm1.2,2.65h.5V30.65h-1.7a.818.818,0,0,0,.325.638A1.969,1.969,0,0,0-210.825,31.425Zm3.625,0h.5a1.969,1.969,0,0,0,.875-.137.818.818,0,0,0,.325-.638h-1.7Zm12.8,7.4a1.835,1.835,0,0,1-1.388-.312,1.734,1.734,0,0,1-.762-1.187,24.671,24.671,0,0,1-.363-3q-.112-1.7-.125-3.588t.088-3.812q.1-1.925.313-3.675t.512-3.15a1.826,1.826,0,0,1,.825-1.188,1.766,1.766,0,0,1,1.4-.237,1.876,1.876,0,0,1,1.175.813,1.75,1.75,0,0,1,.25,1.413,37.823,37.823,0,0,0-.6,3.812q-.225,2.063-.288,4.188t.05,4.125a29.063,29.063,0,0,0,.413,3.625,1.872,1.872,0,0,1-.3,1.4A1.806,1.806,0,0,1-194.4,38.825Zm10.2-1.275a8.708,8.708,0,0,1-4.925-1.138,5.32,5.32,0,0,1-2.1-3.637,1.88,1.88,0,0,1,.313-1.413A1.749,1.749,0,0,1-189.7,30.6a1.8,1.8,0,0,1,1.375.312,1.852,1.852,0,0,1,.775,1.213,1.923,1.923,0,0,0,.9,1.3,5.312,5.312,0,0,0,2.6.45,14.16,14.16,0,0,0,2-.15q1.05-.15,2.375-.425a1.7,1.7,0,0,1,1.387.25,1.885,1.885,0,0,1,.813,1.2,1.744,1.744,0,0,1-.275,1.375,2,2,0,0,1-1.175.825,21.965,21.965,0,0,1-2.762.462A25.156,25.156,0,0,1-184.2,37.55Zm-4.4-12.5a1.865,1.865,0,0,1-1.387-.3,1.781,1.781,0,0,1-.787-1.175,1.817,1.817,0,0,1,.275-1.4,1.682,1.682,0,0,1,1.175-.775,24.059,24.059,0,0,1,3.25-.4,33.121,33.121,0,0,1,3.4-.025,25.436,25.436,0,0,1,3.025.3,1.6,1.6,0,0,1,1.175.75,1.9,1.9,0,0,1,.3,1.4,1.682,1.682,0,0,1-.762,1.213,1.9,1.9,0,0,1-1.387.287,23.034,23.034,0,0,0-4.1-.3A22.575,22.575,0,0,0-188.6,25.05Zm20.325,15.075a2.136,2.136,0,0,1-1.275-.375,1.422,1.422,0,0,1-.6-1.05,1.478,1.478,0,0,1,.313-1.213,1.622,1.622,0,0,1,1.112-.562,4.266,4.266,0,0,0,1.238-.212.875.875,0,0,0,.387-.687l.075-.375a.771.771,0,0,1-.575-.075.6.6,0,0,1-.325-.45q-.075-.5-.238-1.237t-.287-1.213a.684.684,0,0,1,.075-.537.684.684,0,0,1,.425-.338.771.771,0,0,1,.575.075.681.681,0,0,1,.35.45,7.065,7.065,0,0,1,.225.9q.025-.275.038-.512t.012-.437a.947.947,0,0,0-.15-.688q-.175-.187-.95-.187h-2.05a4.583,4.583,0,0,1-2.85-.687,3.127,3.127,0,0,1-.85-2.538V21.25a3.692,3.692,0,0,1,.888-2.812,4.3,4.3,0,0,1,2.938-.813h5.2a1.327,1.327,0,0,1,.975.4,1.327,1.327,0,0,1,.4.975,1.369,1.369,0,0,1-.4.988,1.307,1.307,0,0,1-.975.412h-1.5v.95h.9a1.228,1.228,0,0,1,.963.375,1.332,1.332,0,0,1,.337.925,1.332,1.332,0,0,1-.337.925,1.228,1.228,0,0,1-.963.375h-.9v1.025h.9a1.228,1.228,0,0,1,.963.375,1.332,1.332,0,0,1,.337.925,1.332,1.332,0,0,1-.337.925,1.228,1.228,0,0,1-.963.375h-.9v1.15a2.979,2.979,0,0,1,2,.813,2.989,2.989,0,0,1,.5,2.138q-.05,1.4-.213,2.737t-.437,2.663a3.914,3.914,0,0,1-1.25,2.337A4.491,4.491,0,0,1-168.275,40.125Zm15.2-.125a1.605,1.605,0,0,1-1.125-.437,1.5,1.5,0,0,1-.475-1.162V18.675a1.5,1.5,0,0,1,.475-1.163,1.605,1.605,0,0,1,1.125-.437,1.637,1.637,0,0,1,1.15.438,1.5,1.5,0,0,1,.475,1.163V38.4a1.5,1.5,0,0,1-.475,1.162A1.637,1.637,0,0,1-153.075,40Zm-9.85-.325a1.569,1.569,0,0,1-.912-.812,1.434,1.434,0,0,1-.038-1.212,17.8,17.8,0,0,0,.913-3.138,28.272,28.272,0,0,0,.438-3.525q.125-1.912.125-4.312v-8.05a1.446,1.446,0,0,1,.462-1.138,1.581,1.581,0,0,1,1.087-.413,1.568,1.568,0,0,1,1.1.413,1.466,1.466,0,0,1,.45,1.138v8.05a61.132,61.132,0,0,1-.35,6.95,22.61,22.61,0,0,1-1.075,5.025,1.733,1.733,0,0,1-.887.962A1.6,1.6,0,0,1-162.925,39.675ZM-157,36.5a1.555,1.555,0,0,1-1.087-.425,1.455,1.455,0,0,1-.463-1.125V20.525a1.446,1.446,0,0,1,.463-1.137A1.581,1.581,0,0,1-157,18.975a1.568,1.568,0,0,1,1.1.413,1.466,1.466,0,0,1,.45,1.137V34.95a1.475,1.475,0,0,1-.45,1.125A1.542,1.542,0,0,1-157,36.5Zm-16.45.7a.9.9,0,0,1-.687-.237.787.787,0,0,1-.262-.663q0-.35-.013-.925t-.025-1.138q-.012-.562-.038-.912a.8.8,0,0,1,.225-.65,1.077,1.077,0,0,1,.65-.3.807.807,0,0,1,.675.2.9.9,0,0,1,.3.625q.025.35.05.925t.063,1.162q.037.587.037.963a.8.8,0,0,1-.25.662A1.1,1.1,0,0,1-173.45,37.2Zm2.4-.6a.839.839,0,0,1-.65-.162.728.728,0,0,1-.3-.537q-.025-.325-.075-.838l-.1-1.025q-.05-.512-.1-.812a.874.874,0,0,1,.175-.612.7.7,0,0,1,.525-.287.811.811,0,0,1,.6.138.674.674,0,0,1,.3.537q.05.3.113.8l.125,1q.063.5.087.825a.9.9,0,0,1-.137.65A.766.766,0,0,1-171.05,36.6Zm2.05-.475a.93.93,0,0,1-.587-.088.647.647,0,0,1-.312-.537q-.05-.5-.187-1.275T-170.3,33a.818.818,0,0,1,.1-.638.687.687,0,0,1,.475-.312.837.837,0,0,1,.575.1.763.763,0,0,1,.325.55q.1.45.25,1.225t.2,1.225a.926.926,0,0,1-.113.612A.734.734,0,0,1-169,36.125Zm-.55-7.425h.55V27.575h-1.55V27.9a.831.831,0,0,0,.188.637A1.354,1.354,0,0,0-169.55,28.7Zm-1-3.725H-169V23.95h-1.55Zm0-3.625H-169V20.4h-.6a1.065,1.065,0,0,0-.75.2A1.065,1.065,0,0,0-170.55,21.35Zm33.05,18.875a1.893,1.893,0,0,1-1.337-.525,1.793,1.793,0,0,1-.562-1.375V35.15a33.266,33.266,0,0,1-3.013,2.075,35.673,35.673,0,0,1-3.537,1.925,2.186,2.186,0,0,1-1.575.188,1.622,1.622,0,0,1-1.05-.888,1.674,1.674,0,0,1-.1-1.375,1.747,1.747,0,0,1,1.05-.975q1.35-.525,2.837-1.262t2.688-1.488h-5.25a1.4,1.4,0,0,1-1.025-.425A1.4,1.4,0,0,1-148.8,31.9a1.4,1.4,0,0,1,.425-1.025,1.4,1.4,0,0,1,1.025-.425h7.95v-.5a2.153,2.153,0,0,1,.012-.237,1.609,1.609,0,0,1,.037-.212l-.275.162q-.15.088-.3.163a2.333,2.333,0,0,1-1.387.225,1.536,1.536,0,0,1-1.137-.725,1.62,1.62,0,0,1-.175-1.312,1.593,1.593,0,0,1,.825-.963,8.69,8.69,0,0,0,2.488-1.875,5.516,5.516,0,0,0,1.188-2.375h-1.85a1.488,1.488,0,0,1-1.087-.462,1.517,1.517,0,0,1-.462-1.112,1.476,1.476,0,0,1,.462-1.1,1.509,1.509,0,0,1,1.087-.45h2.1v-1.1a1.665,1.665,0,0,1,.525-1.3,1.8,1.8,0,0,1,1.25-.475,1.8,1.8,0,0,1,1.25.475,1.665,1.665,0,0,1,.525,1.3v1.1a7.528,7.528,0,0,1,2.575.35,2.2,2.2,0,0,1,1.3,1.225,6.568,6.568,0,0,1,.375,2.5v1.7a.9.9,0,0,0,.113.538.629.629,0,0,0,.487.138.536.536,0,0,0,.463-.187,2.147,2.147,0,0,0,.238-.812,1.353,1.353,0,0,1,.75-1.013,1.871,1.871,0,0,1,1.3-.112,1.5,1.5,0,0,1,1.275,1.85,3.863,3.863,0,0,1-1.3,2.788,4.743,4.743,0,0,1-2.925.813,7.737,7.737,0,0,1-2.225-.263,2,2,0,0,1-1.238-1,4.7,4.7,0,0,1-.387-2.138V23.875a1.215,1.215,0,0,0-.225-.838,1.08,1.08,0,0,0-.8-.237,9.6,9.6,0,0,1-.975,2.888,8.92,8.92,0,0,1-1.875,2.388,1.823,1.823,0,0,1,1.25.537,1.786,1.786,0,0,1,.525,1.337v.5h8.025a1.4,1.4,0,0,1,1.025.425,1.4,1.4,0,0,1,.425,1.025,1.4,1.4,0,0,1-.425,1.025,1.4,1.4,0,0,1-1.025.425h-5.05q1.225.725,2.712,1.475t2.762,1.25a1.548,1.548,0,0,1,.888.912,1.49,1.49,0,0,1-.088,1.313,1.792,1.792,0,0,1-1.162.975,2.174,2.174,0,0,1-1.513-.15q-1.075-.525-2.275-1.213t-2.312-1.45Q-134.75,35.7-135.625,35v3.325a1.814,1.814,0,0,1-.55,1.375A1.85,1.85,0,0,1-137.5,40.225ZM-146.125,29.7a1.927,1.927,0,0,1-1.337.312,1.573,1.573,0,0,1-1.163-.712,1.556,1.556,0,0,1-.275-1.225,1.528,1.528,0,0,1,.7-1.025q.6-.4,1.475-.987t1.738-1.175q.862-.588,1.438-.988a1.525,1.525,0,0,1,1.125-.262,1.428,1.428,0,0,1,1,.612,1.568,1.568,0,0,1,.313,1.175,1.6,1.6,0,0,1-.613,1.05q-.575.475-1.362,1.075t-1.6,1.163Q-145.5,29.275-146.125,29.7Zm-.225-5.525q-.175-.15-.562-.425t-.787-.55q-.4-.275-.6-.4a1.287,1.287,0,0,1-.562-.913,1.522,1.522,0,0,1,.238-1.087,1.656,1.656,0,0,1,.975-.663,1.432,1.432,0,0,1,1.175.188q.175.1.588.375l.825.55q.413.275.563.4a1.42,1.42,0,0,1,.613.987,1.472,1.472,0,0,1-.312,1.138,1.567,1.567,0,0,1-1,.65A1.422,1.422,0,0,1-146.35,24.175Zm2.2-3.1q-.175-.15-.575-.425t-.787-.562a4.5,4.5,0,0,0-.588-.388,1.273,1.273,0,0,1-.587-.925,1.464,1.464,0,0,1,.238-1.075,1.656,1.656,0,0,1,.975-.663,1.5,1.5,0,0,1,1.2.188q.175.1.575.375t.813.55q.412.275.587.4a1.37,1.37,0,0,1,.588.975,1.545,1.545,0,0,1-.288,1.15,1.653,1.653,0,0,1-1,.638A1.386,1.386,0,0,1-144.15,21.075ZM-112.5,39.7a9.8,9.8,0,0,1-5.325-1.213A4.337,4.337,0,0,1-119.7,34.55a2.953,2.953,0,0,1,.1-.787,5.68,5.68,0,0,1,.275-.763,4.393,4.393,0,0,1-2.763-1.212,3.668,3.668,0,0,1-1.037-2.712,3.573,3.573,0,0,1,1.287-2.913,4.955,4.955,0,0,1,3.263-1.062,4.908,4.908,0,0,1,.9.075v-1.25l-1.837.1q-.913.05-1.663.075a1.742,1.742,0,0,1-1.325-.512,1.684,1.684,0,0,1-.525-1.312,1.686,1.686,0,0,1,.55-1.288,1.973,1.973,0,0,1,1.325-.538q.7,0,1.6-.038t1.875-.087V19.05a1.765,1.765,0,0,1,.55-1.312A1.827,1.827,0,0,1-115.8,17.2a1.786,1.786,0,0,1,1.313.538,1.786,1.786,0,0,1,.538,1.313v1q.3-.05.563-.075t.487-.05a1.929,1.929,0,0,1,1.4.337,1.678,1.678,0,0,1,.725,1.213,1.828,1.828,0,0,1-.362,1.375,1.579,1.579,0,0,1-1.213.675q-.35.025-.75.063t-.85.087V28.25a5.964,5.964,0,0,1-.3,2.025,7.69,7.69,0,0,1-.7,1.462q-.4.637-.7,1.225a2.79,2.79,0,0,0-.3,1.287,1.512,1.512,0,0,0,.737,1.425,5.974,5.974,0,0,0,2.713.425,6.826,6.826,0,0,0,2.988-.512,2.409,2.409,0,0,0,1.3-1.588,7.06,7.06,0,0,0,.063-2.725,1.778,1.778,0,0,1,.388-1.387,1.844,1.844,0,0,1,1.237-.713,1.8,1.8,0,0,1,1.412.35,1.788,1.788,0,0,1,.738,1.25q.65,4.375-1.462,6.65T-112.5,39.7Zm8-11.35a22.2,22.2,0,0,0-1.887-1.362,24.694,24.694,0,0,0-2.163-1.237,1.881,1.881,0,0,1-.962-1.062,1.775,1.775,0,0,1,.063-1.413,1.881,1.881,0,0,1,1.063-.962,1.775,1.775,0,0,1,1.412.063,23.619,23.619,0,0,1,4.95,3.075,1.7,1.7,0,0,1,.65,1.288,1.858,1.858,0,0,1-.45,1.388,1.82,1.82,0,0,1-1.275.638A1.979,1.979,0,0,1-104.5,28.35Zm-14.075,1.75a1.1,1.1,0,0,0,.85-.3,1.035,1.035,0,0,0,.275-.725.991.991,0,0,0-.275-.713,1.127,1.127,0,0,0-.85-.287,1.179,1.179,0,0,0-.85.287.947.947,0,0,0-.3.713.988.988,0,0,0,.3.725A1.15,1.15,0,0,0-118.575,30.1Zm30.05,9.775a23.72,23.72,0,0,1-3.9-.263,5.29,5.29,0,0,1-2.387-.937,3.5,3.5,0,0,1-1.2-1.862A11.249,11.249,0,0,1-96.35,33.8v-5a6.616,6.616,0,0,1,.537-2.925,3.154,3.154,0,0,1,1.787-1.55,9.838,9.838,0,0,1,3.4-.475h2.275q.2-.275.438-.612t.362-.538q.275-.425.175-.6t-.6-.175H-91.4a30.919,30.919,0,0,1-2.475,2.038q-1.3.963-2.475,1.688a2.126,2.126,0,0,1-1.463.35,1.687,1.687,0,0,1-1.213-.75,1.833,1.833,0,0,1-.325-1.437A1.839,1.839,0,0,1-98.4,22.6a24.267,24.267,0,0,0,2.313-1.612q1.238-.962,2.375-2A18.881,18.881,0,0,0-91.875,17.1a1.921,1.921,0,0,1,1.412-.75,2,2,0,0,1,1.388.375,1.66,1.66,0,0,1,.65,1.012,1.744,1.744,0,0,1-.175,1.188h2.55a4.325,4.325,0,0,1,2.5.6,1.988,1.988,0,0,1,.9,1.587,3.523,3.523,0,0,1-.7,2.112q-.125.175-.225.338a2.862,2.862,0,0,1-.2.287h.05a9.251,9.251,0,0,1,3.25.45,2.763,2.763,0,0,1,1.6,1.45,6.689,6.689,0,0,1,.45,2.7,6.706,6.706,0,0,1-.45,2.688,2.711,2.711,0,0,1-1.6,1.45,9.495,9.495,0,0,1-3.25.438H-92.65V33.8a4.245,4.245,0,0,0,.275,1.75,1.522,1.522,0,0,0,1.15.763,14.086,14.086,0,0,0,2.7.188h4.3a16.944,16.944,0,0,0,2.6-.15,2.347,2.347,0,0,0,1.287-.537,2.463,2.463,0,0,0,.588-1.088,1.6,1.6,0,0,1,.938-1.062,1.991,1.991,0,0,1,1.463-.112,1.943,1.943,0,0,1,1.15.838A1.879,1.879,0,0,1-76,35.75a5.134,5.134,0,0,1-1.15,2.5,4.616,4.616,0,0,1-2.5,1.263,22.658,22.658,0,0,1-4.575.362ZM-92.65,29.95h3.4V27.025h-1.375a2.619,2.619,0,0,0-1.625.35,1.889,1.889,0,0,0-.4,1.425Zm7.1,0h1.825a1.878,1.878,0,0,0,1.3-.312,1.7,1.7,0,0,0,.3-1.163,1.648,1.648,0,0,0-.3-1.137,1.878,1.878,0,0,0-1.3-.312H-85.55Zm13.875,9.2a1.865,1.865,0,0,1-.85-1.15,1.72,1.72,0,0,1,.2-1.4,26.608,26.608,0,0,0,2.275-5.1,39.04,39.04,0,0,0,1.45-5.775q-.7.075-1.338.125t-1.187.075a1.829,1.829,0,0,1-1.35-.437,1.734,1.734,0,0,1-.625-1.262,1.851,1.851,0,0,1,.475-1.338A1.709,1.709,0,0,1-71.35,22.3q.8-.05,1.6-.112t1.575-.138a20.289,20.289,0,0,0,.075-2.625,1.894,1.894,0,0,1,.475-1.35,1.692,1.692,0,0,1,1.275-.6,1.868,1.868,0,0,1,1.35.488,1.679,1.679,0,0,1,.575,1.313q.025.525.013,1.087t-.062,1.188q.675-.125,1.275-.225a1.76,1.76,0,0,1,1.387.225A1.782,1.782,0,0,1-61,22.7a1.82,1.82,0,0,1-.262,1.4,1.761,1.761,0,0,1-1.187.775q-.5.1-1.125.2T-64.9,25.3q-.35,2.325-.963,4.738a45.03,45.03,0,0,1-1.425,4.6A22.209,22.209,0,0,1-69.125,38.5a1.865,1.865,0,0,1-1.15.85A1.72,1.72,0,0,1-71.675,39.15Zm17.475-.475a12.183,12.183,0,0,1-6.625.025,6.2,6.2,0,0,1-3.8-3.1,1.965,1.965,0,0,1-.15-1.437,1.666,1.666,0,0,1,.875-1.087,1.785,1.785,0,0,1,1.412-.163,1.8,1.8,0,0,1,1.112.888,3.2,3.2,0,0,0,2.138,1.425,9.566,9.566,0,0,0,4.263-.2,1.739,1.739,0,0,1,1.4.25,1.781,1.781,0,0,1,.8,1.2,1.67,1.67,0,0,1-.25,1.375A2,2,0,0,1-54.2,38.675Zm-1.25-9.4a9.717,9.717,0,0,0-1.838-.262q-1.062-.062-2.175-.025a16.187,16.187,0,0,0-2.037.188,1.939,1.939,0,0,1-1.35-.3,1.607,1.607,0,0,1-.75-1.125,1.7,1.7,0,0,1,.275-1.35,1.782,1.782,0,0,1,1.15-.775,16.78,16.78,0,0,1,2.538-.275,23.994,23.994,0,0,1,2.688.05,14.633,14.633,0,0,1,2.35.35,1.729,1.729,0,0,1,1.112.813,1.741,1.741,0,0,1,.212,1.362,1.729,1.729,0,0,1-.812,1.113A1.824,1.824,0,0,1-55.45,29.275Zm1.8-5.55a1.2,1.2,0,0,1-.887.35,1.2,1.2,0,0,1-.912-.4q-.25-.275-.763-.825t-.862-.95a.972.972,0,0,1-.225-.737,1.263,1.263,0,0,1,.35-.812,1.148,1.148,0,0,1,.737-.337,1.236,1.236,0,0,1,.813.212,11.588,11.588,0,0,1,.975.788,6.68,6.68,0,0,1,.875.913,1.335,1.335,0,0,1,.313.9A1.292,1.292,0,0,1-53.65,23.725Zm.6-2.425q-.275-.275-.837-.763t-.937-.837a1.033,1.033,0,0,1-.312-.712,1.15,1.15,0,0,1,.262-.837,1.111,1.111,0,0,1,.7-.425,1.21,1.21,0,0,1,.825.15,10.616,10.616,0,0,1,1.037.675,8.176,8.176,0,0,1,.988.825,1.4,1.4,0,0,1,.387.875,1.267,1.267,0,0,1-.312.925,1.167,1.167,0,0,1-.862.438A1.239,1.239,0,0,1-53.05,21.3Zm12.075,17.65a1.882,1.882,0,0,1-1.238-.725,1.791,1.791,0,0,1-.362-1.375,1.774,1.774,0,0,1,.713-1.237A1.789,1.789,0,0,1-40.5,35.25a5.7,5.7,0,0,0,1.338.037,1.446,1.446,0,0,0,.95-.5,3.761,3.761,0,0,0,.675-1.387,17.58,17.58,0,0,0,.513-2.625,6.762,6.762,0,0,0,.05-2.3,1.363,1.363,0,0,0-.8-1.037,4.051,4.051,0,0,0-1.775-.187,42.95,42.95,0,0,1-2.312,6.15,23.829,23.829,0,0,1-3.088,5.05,1.86,1.86,0,0,1-1.237.675,1.746,1.746,0,0,1-1.362-.375,1.834,1.834,0,0,1-.7-1.25,1.691,1.691,0,0,1,.375-1.35,21.812,21.812,0,0,0,2.513-3.85,33.934,33.934,0,0,0,2.013-4.7q-.65.05-1.3.125t-1.225.125a1.849,1.849,0,0,1-1.375-.4,1.745,1.745,0,0,1-.675-1.25,1.741,1.741,0,0,1,.388-1.375,1.787,1.787,0,0,1,1.262-.675q.95-.1,1.95-.175l2-.15q.2-1.025.35-2.012t.2-1.962a1.818,1.818,0,0,1,.625-1.288A1.78,1.78,0,0,1-39.8,18.1a1.862,1.862,0,0,1,1.3.625,1.68,1.68,0,0,1,.45,1.35q-.225,1.725-.6,3.625,3.275.15,4.5,1.962t.725,5.613a15.106,15.106,0,0,1-1.325,5,4.7,4.7,0,0,1-2.45,2.362A7.862,7.862,0,0,1-40.975,38.95ZM-26.7,31.5a1.748,1.748,0,0,1-1.413.15,1.864,1.864,0,0,1-1.112-.875A16.986,16.986,0,0,0-30.3,29.138q-.65-.888-1.337-1.713T-32.9,26a2.114,2.114,0,0,1-.575-1.312A1.634,1.634,0,0,1-33,23.4a1.73,1.73,0,0,1,1.3-.587,1.763,1.763,0,0,1,1.325.537,23.049,23.049,0,0,1,2.463,2.738,24.636,24.636,0,0,1,1.938,2.887A1.716,1.716,0,0,1-25.8,30.4,1.754,1.754,0,0,1-26.7,31.5Zm12.225,7.825a1.827,1.827,0,0,1-1.325-.538,1.854,1.854,0,0,1-.575-1.312,1.742,1.742,0,0,1,.512-1.325,1.765,1.765,0,0,1,1.313-.55,10.77,10.77,0,0,0,5.038-1A2.913,2.913,0,0,0-7.85,31.975a2.277,2.277,0,0,0-.775-1.788A3.248,3.248,0,0,0-10.85,29.5a6.752,6.752,0,0,0-2.163.375,8.744,8.744,0,0,0-2.125,1.063A7.847,7.847,0,0,0-16.9,32.575a1.671,1.671,0,0,1-1.075.575,1.919,1.919,0,0,1-1.2-.175,1.616,1.616,0,0,1-.788-.825A2.009,2.009,0,0,1-20.1,31q.175-1.125.413-2.45t.5-2.575q.263-1.25.463-2.1a1.854,1.854,0,0,1,.862-1.15,1.705,1.705,0,0,1,1.388-.2,1.752,1.752,0,0,1,1.15.85,1.788,1.788,0,0,1,.2,1.425q-.3,1.275-.725,2.75a12.221,12.221,0,0,1,2.525-1.162,8.4,8.4,0,0,1,2.6-.413,7.743,7.743,0,0,1,3.5.738A5.389,5.389,0,0,1-4.95,28.787a6.1,6.1,0,0,1,.8,3.188,6.239,6.239,0,0,1-2.663,5.337Q-9.475,39.25-14.475,39.325Zm3.85-15.8q-.75-.375-1.738-.837t-2.013-.9q-1.025-.437-1.9-.762A1.577,1.577,0,0,1-17.225,20a1.9,1.9,0,0,1,.075-1.45,1.738,1.738,0,0,1,1.063-.925,2.134,2.134,0,0,1,1.438.05q1.325.5,2.75,1.125t2.725,1.3A1.959,1.959,0,0,1-8.2,21.112a1.737,1.737,0,0,1,0,1.413,1.783,1.783,0,0,1-1,1.012A1.672,1.672,0,0,1-10.625,23.525Zm29.4,15.6q-6.7.925-10.15-.763a5.644,5.644,0,0,1-3.45-5.412,6.718,6.718,0,0,1,1.1-3.838A9.42,9.42,0,0,1,9.35,26.3q-.175-.925-.5-2.112t-.675-2.375q-.35-1.187-.625-2.038a1.907,1.907,0,0,1,1.3-2.3,1.9,1.9,0,0,1,1.463.188,1.785,1.785,0,0,1,.887,1.112q.375,1.325.762,2.913t.688,3.063q1.1-.425,2.35-.775t2.6-.65a1.8,1.8,0,0,1,1.4.225,1.771,1.771,0,0,1,.825,1.15,1.793,1.793,0,0,1-1.4,2.175,31.91,31.91,0,0,0-4.988,1.362,11.752,11.752,0,0,0-2.913,1.513,4.417,4.417,0,0,0-1.363,1.563A3.713,3.713,0,0,0,8.8,32.875,2.45,2.45,0,0,0,9.25,34.3a3.1,3.1,0,0,0,1.525,1.05,9.32,9.32,0,0,0,2.912.45,26.693,26.693,0,0,0,4.613-.375,1.667,1.667,0,0,1,1.375.362,1.861,1.861,0,0,1,.7,1.238,1.689,1.689,0,0,1-.35,1.375A1.93,1.93,0,0,1,18.775,39.125Zm25.175.025a11.841,11.841,0,0,1-5.05-1.775,8.509,8.509,0,0,1-3.925-7.225,9.342,9.342,0,0,1,.6-3.4,8.794,8.794,0,0,1,1.75-2.8q-1.625.275-3.175.55t-2.838.5q-1.288.225-2.163.375a1.749,1.749,0,0,1-1.387-.338,1.85,1.85,0,0,1-.738-1.212,1.9,1.9,0,0,1,.35-1.4,1.7,1.7,0,0,1,1.2-.725q1.075-.15,2.737-.412t3.575-.575l3.813-.625q1.9-.313,3.5-.6T44.775,19a1.674,1.674,0,0,1,1.35.288A1.829,1.829,0,0,1,46.9,20.45a1.9,1.9,0,0,1-.238,1.388,1.485,1.485,0,0,1-1.137.762,8.181,8.181,0,0,0-2.937.95A7.739,7.739,0,0,0,39.1,27.575a6.73,6.73,0,0,0-.45,2.375,4.853,4.853,0,0,0,1.525,3.675,7.679,7.679,0,0,0,4.325,1.85,1.743,1.743,0,0,1,1.213.725,1.828,1.828,0,0,1,.362,1.375A1.718,1.718,0,0,1,45.35,38.8,1.9,1.9,0,0,1,43.95,39.15Zm19.8.6a8.1,8.1,0,0,1-3.487-.713,5.392,5.392,0,0,1-2.375-2.15,6.869,6.869,0,0,1-.862-3.588,12.528,12.528,0,0,1,.225-1.9q-.625-.125-1.175-.262l-1.05-.263A1.7,1.7,0,0,1,53.963,30a1.752,1.752,0,0,1-.138-1.4,1.663,1.663,0,0,1,.875-1.075,1.784,1.784,0,0,1,1.4-.125q.325.1.775.2t1,.2q.1-.575.213-1.15T58.3,25.5q-.6-.125-1.1-.238t-.8-.187a1.713,1.713,0,0,1-1.088-.863,1.8,1.8,0,0,1-.162-1.388,1.713,1.713,0,0,1,.862-1.087,1.8,1.8,0,0,1,1.388-.162l.637.137q.413.087.938.187.2-1,.338-1.812T59.5,18.75a1.666,1.666,0,0,1,.738-1.212,1.88,1.88,0,0,1,1.412-.312,1.69,1.69,0,0,1,1.2.738,1.807,1.807,0,0,1,.325,1.387q-.075.575-.225,1.4t-.35,1.825q.525.075.925.15a1.833,1.833,0,0,1,1.225.687,1.689,1.689,0,0,1,.375,1.338,1.771,1.771,0,0,1-.7,1.212,1.751,1.751,0,0,1-1.35.363q-.225-.025-.525-.075t-.65-.1q-.1.55-.213,1.113t-.213,1.087q.35.025.713.063t.688.063a1.794,1.794,0,0,1,1.275.613A1.729,1.729,0,0,1,64.6,30.4a1.683,1.683,0,0,1-.588,1.25,1.817,1.817,0,0,1-1.312.475q-.45-.025-.925-.075t-.95-.075q-.075.45-.125.788a3.87,3.87,0,0,0-.05.537,2.59,2.59,0,0,0,.762,2.063,3.494,3.494,0,0,0,2.338.663,3.739,3.739,0,0,0,2.35-.713,2.218,2.218,0,0,0,.925-1.838,3.99,3.99,0,0,0-1.3-2.75,1.626,1.626,0,0,1-.425-1.363,1.811,1.811,0,0,1,.725-1.263,1.7,1.7,0,0,1,1.362-.387,2.1,2.1,0,0,1,1.263.688,7.475,7.475,0,0,1,1.563,2.375,7.041,7.041,0,0,1,.513,2.65,5.922,5.922,0,0,1-3.35,5.525A7.9,7.9,0,0,1,63.75,39.75ZM81.8,39.1a1.939,1.939,0,0,1-2.55-.925,1.927,1.927,0,0,1-.062-1.475,1.775,1.775,0,0,1,.988-1.075,10.253,10.253,0,0,0,3.8-2.787A9.5,9.5,0,0,0,85.85,28.55H78.775A1.765,1.765,0,0,1,77.463,28a1.9,1.9,0,0,1,0-2.65,1.765,1.765,0,0,1,1.313-.55h7.35q0-1.1-.062-2.225T85.95,20.6a1.971,1.971,0,0,1,.4-1.425,1.943,1.943,0,0,1,2.688-.363,1.848,1.848,0,0,1,.738,1.288q.1,1,.113,2.25T89.9,24.8h6.15a1.794,1.794,0,0,1,1.337.55,1.9,1.9,0,0,1,0,2.65,1.794,1.794,0,0,1-1.337.55H89.675a13.652,13.652,0,0,1-2.437,6.4A13.384,13.384,0,0,1,81.8,39.1Zm27.3-.3a1.9,1.9,0,0,1-1.437.362A1.827,1.827,0,0,1,106.4,38.4a1.9,1.9,0,0,1-.363-1.437A1.827,1.827,0,0,1,106.8,35.7a10.809,10.809,0,0,0,2.575-2.687,12.356,12.356,0,0,0,1.6-3.438h-8.1a1.875,1.875,0,0,1,0-3.75H111.5a15.363,15.363,0,0,0-.15-2.125q-1.4.2-2.775.363T106,24.3a1.862,1.862,0,0,1-1.363-.513,1.858,1.858,0,0,1-.087-2.675,1.9,1.9,0,0,1,1.35-.588q1.2-.075,2.6-.237t2.863-.412q1.462-.25,2.813-.55T116.6,18.7a2.188,2.188,0,0,1,1.475.063,1.69,1.69,0,0,1,1,1.038,1.889,1.889,0,0,1-.05,1.475,1.734,1.734,0,0,1-1.1.975q-.575.175-1.312.362T115.075,23q.1.7.138,1.4t.037,1.425h6.825a1.875,1.875,0,0,1,0,3.75H114.8a17.508,17.508,0,0,1-2.088,5.263A12.939,12.939,0,0,1,109.1,38.8Zm21.075-1.9a1.6,1.6,0,0,1-1.187-.5,1.736,1.736,0,0,1,0-2.413,1.616,1.616,0,0,1,1.188-.487h8.6a15.25,15.25,0,0,0,.688-2.463q.112-.787-.287-1.025a2.733,2.733,0,0,0-1.325-.237H133a1.707,1.707,0,0,1-1.7-1.7,1.6,1.6,0,0,1,.5-1.188A1.658,1.658,0,0,1,133,26.4h4.85a8.447,8.447,0,0,1,3.662.637A2.652,2.652,0,0,1,143,29.225a10.344,10.344,0,0,1-.7,4.275h2.5a1.616,1.616,0,0,1,1.188.487,1.736,1.736,0,0,1,0,2.413,1.6,1.6,0,0,1-1.187.5ZM158.9,39.15a1.83,1.83,0,0,1-1.462-.113,1.869,1.869,0,0,1-.962-1.137,1.83,1.83,0,0,1,.112-1.463,1.869,1.869,0,0,1,1.113-.963,17.164,17.164,0,0,0,5.3-2.737,11.284,11.284,0,0,0,3.35-3.987.969.969,0,0,0,.025-.975q-.25-.375-1.125-.375H156.1a1.92,1.92,0,0,1-1.375-.55,1.768,1.768,0,0,1-.575-1.325,1.8,1.8,0,0,1,.575-1.35,1.92,1.92,0,0,1,1.375-.55h9.425a6.093,6.093,0,0,1,3.513.862,3.243,3.243,0,0,1,1.425,2.35,6.19,6.19,0,0,1-.687,3.363,15.566,15.566,0,0,1-4.287,5.375A20.518,20.518,0,0,1,158.9,39.15Zm-1.225-16.9a1.875,1.875,0,0,1,0-3.75h9.8a1.765,1.765,0,0,1,1.313.55,1.9,1.9,0,0,1,0,2.65,1.765,1.765,0,0,1-1.312.55ZM194.3,35.025q-3.625,1.4-5.738.45T186.45,31.3V23.075a1.925,1.925,0,1,1,3.85,0v7.25q0,1.075.563,1.337a2.2,2.2,0,0,0,1.637-.137q.625-.225,1.425-.55t1.65-.7q.85-.375,1.575-.7a2.009,2.009,0,0,1,1.475-.088,1.861,1.861,0,0,1,1.125.963,1.964,1.964,0,0,1,.125,1.475,1.734,1.734,0,0,1-.95,1.125q-1.1.525-2.35,1.063T194.3,35.025Zm-16.55,1.65a1.89,1.89,0,0,1-1.462.063,1.863,1.863,0,0,1-1.113-.987,1.889,1.889,0,0,1-.05-1.475A1.829,1.829,0,0,1,176.1,33.2a8.255,8.255,0,0,0,3.912-3.55,11.657,11.657,0,0,0,1.137-5.4,1.877,1.877,0,0,1,.55-1.363,1.9,1.9,0,0,1,2.7,0,1.877,1.877,0,0,1,.55,1.363,15.28,15.28,0,0,1-1.875,7.712A11.735,11.735,0,0,1,177.75,36.675ZM212.5,39.75a1,1,0,0,1-.7-.312,6.183,6.183,0,0,1-.675-.787,3.18,3.18,0,0,0-.35-.463q-.25-.287-.6-.662-.85-1-2.187-2.613a37.657,37.657,0,0,1-2.588-3.537q-3.025-4.775-3.025-8.45a5.08,5.08,0,0,1,1.675-3.8,5.36,5.36,0,0,1,3.825-1.55,5.062,5.062,0,0,1,2.775.763,4.905,4.905,0,0,1,1.85,2.237,4.905,4.905,0,0,1,1.85-2.237,5.062,5.062,0,0,1,2.775-.763,5.361,5.361,0,0,1,3.925,1.65,5.064,5.064,0,0,1,1.575,3.7q0,3.675-3.025,8.45a34.782,34.782,0,0,1-2.562,3.537q-1.338,1.613-2.213,2.613l-.575.662q-.25.287-.375.463a6.183,6.183,0,0,1-.675.787A1,1,0,0,1,212.5,39.75Zm0-1.075q.05-.05.175-.2t.35-.45q.15-.2.4-.488l.6-.687q.675-.775,1.638-1.925t1.987-2.562a30.95,30.95,0,0,0,1.913-2.987,19.332,19.332,0,0,0,1.45-3.213,9.92,9.92,0,0,0,.563-3.237,4.145,4.145,0,0,0-1.25-2.95,4.373,4.373,0,0,0-3.2-1.35,3.972,3.972,0,0,0-2.212.625,4.029,4.029,0,0,0-1.488,1.825,2.209,2.209,0,0,1-.3.513.735.735,0,0,1-.625.262.7.7,0,0,1-.613-.262,3.845,3.845,0,0,1-.312-.513,4.029,4.029,0,0,0-1.488-1.825,3.972,3.972,0,0,0-2.212-.625,4.373,4.373,0,0,0-3.2,1.35,4.145,4.145,0,0,0-1.25,2.95,9.92,9.92,0,0,0,.563,3.237,19.332,19.332,0,0,0,1.45,3.213,30.95,30.95,0,0,0,1.913,2.987q1.025,1.413,1.987,2.563t1.638,1.925l.6.688q.25.288.4.488.225.3.35.45T212.5,38.675Z" transform="translate(261.879 650.129)" fill="#de8ca0"/>
    <path id="パス_9827" data-name="パス 9827" d="M70.524,26.153c0-4.516-3.276-8.176-7.317-8.176a6.889,6.889,0,0,0-4.927,2.131,6.9,6.9,0,0,0-4.929-2.131c-4.039,0-7.315,3.66-7.315,8.176a8.654,8.654,0,0,0,3.384,6.9l.032.021c.249.175.249.175,8.828,6.432,8.576-6.257,8.576-6.257,8.825-6.432l.019-.011.013-.011h0l1.012-.792a8.441,8.441,0,0,0,2.375-6.1" transform="translate(-68.862 614.052)" fill="#de8ca0"/>
    <path id="パス_9828" data-name="パス 9828" d="M62.145,23.355a5.119,5.119,0,0,0-4.814-5.378,4.532,4.532,0,0,0-3.241,1.4,4.536,4.536,0,0,0-3.243-1.4,5.119,5.119,0,0,0-4.812,5.378,5.693,5.693,0,0,0,2.226,4.536l.021.014c.164.115.164.115,5.807,4.231,5.642-4.116,5.642-4.116,5.805-4.231l.012-.007.009-.007h0l.666-.521a5.553,5.553,0,0,0,1.562-4.015" transform="translate(463.576 637.808)" fill="#de8ca0"/>
    <path id="パス_9781" data-name="パス 9781" d="M28.491-.646a7.344,7.344,0,0,1,4.68,1.706,7.344,7.344,0,0,1,4.68-1.706,7.417,7.417,0,0,1,5.526,2.509,8.8,8.8,0,0,1,2.244,5.946,8.616,8.616,0,0,1-2.571,6.348l-.405.313-.091.07.017.046L42,14.958c-.218.152-.507.36-8.349,5.992l-.483.347-.483-.347c-7.843-5.633-8.131-5.84-8.349-5.992l-.906-.536.123-.119a8.993,8.993,0,0,1-1.855-2.44,8.727,8.727,0,0,1-.977-4.055,8.8,8.8,0,0,1,2.244-5.946A7.417,7.417,0,0,1,28.491-.646Zm4.68,3.957-.585-.587a5.775,5.775,0,0,0-4.1-1.754c-3.38,0-6.13,3.067-6.13,6.84a7.221,7.221,0,0,0,2.878,5.8l.023.016c.237.165.241.168,7.913,5.677,7.668-5.508,7.674-5.512,7.913-5.677l.031-.021.006,0,.92-.711a7.1,7.1,0,0,0,1.943-5.077c0-3.772-2.75-6.84-6.13-6.84a5.775,5.775,0,0,0-4.1,1.754Z" transform="translate(504.998 635.955)" fill="#de8ca0"/>
    <path id="パス_9781-2" data-name="パス 9781" d="M26.078-.646A5.063,5.063,0,0,1,29.3.53,5.063,5.063,0,0,1,32.531-.646a5.113,5.113,0,0,1,3.809,1.73,6.067,6.067,0,0,1,1.547,4.1,5.939,5.939,0,0,1-1.773,4.376l-.28.216-.063.048.011.032-.391.257c-.15.1-.35.248-5.756,4.131l-.333.239-.333-.239c-5.406-3.883-5.606-4.026-5.756-4.131l-.625-.369.085-.082A6.2,6.2,0,0,1,21.4,7.978a6.016,6.016,0,0,1-.674-2.8,6.067,6.067,0,0,1,1.547-4.1A5.113,5.113,0,0,1,26.078-.646ZM29.3,2.082l-.4-.4A3.981,3.981,0,0,0,26.078.467a4.5,4.5,0,0,0-4.226,4.715,4.978,4.978,0,0,0,1.984,4l.016.011c.163.114.166.116,5.455,3.913,5.286-3.8,5.29-3.8,5.455-3.913l.021-.014,0,0,.634-.49a4.895,4.895,0,0,0,1.34-3.5A4.5,4.5,0,0,0,32.534.467a3.981,3.981,0,0,0-2.823,1.209Z" transform="translate(-23.743 655.464)" fill="#de8ca0"/>
  </g>
</svg>
