<svg xmlns="http://www.w3.org/2000/svg" width="804.616" height="229" viewBox="0 0 804.616 229">
  <g id="グループ_3667" data-name="グループ 3667" transform="translate(-188.86 -1458)">
    <path id="パス_9775" data-name="パス 9775" d="M35.864,69.878c0-5.443-3.948-9.854-8.819-9.854a8.3,8.3,0,0,0-5.938,2.568,8.309,8.309,0,0,0-5.941-2.568c-4.868,0-8.815,4.411-8.815,9.854a10.429,10.429,0,0,0,4.079,8.311l.038.026c.3.211.3.211,10.639,7.752,10.336-7.541,10.336-7.541,10.636-7.752l.022-.013.016-.013h0L33,77.233c1.217-.952,2.862-3.862,2.862-7.356" transform="translate(335.724 1459.317)" fill="#f7e1e4"/>
    <path id="パス_9781" data-name="パス 9781" d="M37.228-.646a15.6,15.6,0,0,1,9.943,3.624A15.6,15.6,0,0,1,57.113-.646a15.756,15.756,0,0,1,11.74,5.332,18.7,18.7,0,0,1,4.768,12.632c0,6.02-2.814,11.441-5.463,13.486l-.861.665-.192.149.035.1-1.205.791c-.463.323-1.078.765-17.738,12.731l-1.027.737-1.027-.737C29.483,33.27,28.869,32.829,28.406,32.506l-1.925-1.138.256-.252A19.106,19.106,0,0,1,22.8,25.931a18.539,18.539,0,0,1-2.076-8.614A18.7,18.7,0,0,1,25.488,4.686,15.756,15.756,0,0,1,37.228-.646Zm9.943,8.405L45.928,6.513a12.27,12.27,0,0,0-8.7-3.727C30.047,2.786,24.2,9.3,24.2,17.318a15.341,15.341,0,0,0,6.113,12.316l.048.034c.5.351.512.357,16.806,12.06,16.293-11.7,16.3-11.709,16.806-12.06l.065-.044.013-.01,1.955-1.51c1.665-1.285,4.128-5.6,4.128-10.785,0-8.013-5.842-14.532-13.023-14.532a12.27,12.27,0,0,0-8.7,3.727Z" transform="translate(237.915 1458.646)" fill="#f7e1e4"/>
    <path id="パス_9781-2" data-name="パス 9781" d="M33.387-.646a11.972,11.972,0,0,1,7.63,2.781,11.972,11.972,0,0,1,7.63-2.781,12.091,12.091,0,0,1,9.008,4.091,14.347,14.347,0,0,1,3.659,9.693c0,4.619-2.16,8.779-4.192,10.348l-.661.51-.148.114.027.075-.925.607c-.355.248-.827.587-13.611,9.769l-.788.566-.788-.566c-12.785-9.183-13.256-9.521-13.611-9.769l-1.477-.873.2-.194a14.661,14.661,0,0,1-3.024-3.978,14.226,14.226,0,0,1-1.593-6.61,14.347,14.347,0,0,1,3.659-9.693A12.091,12.091,0,0,1,33.387-.646Zm7.63,6.45-.954-.957a9.415,9.415,0,0,0-6.676-2.86c-5.51,0-9.994,5-9.994,11.151a11.772,11.772,0,0,0,4.691,9.451l.037.026c.386.269.393.274,12.9,9.254,12.5-8.98,12.51-8.985,12.9-9.254l.05-.034.01-.008,1.5-1.159c1.278-.986,3.168-4.3,3.168-8.276,0-6.149-4.483-11.151-9.994-11.151a9.415,9.415,0,0,0-6.676,2.86Z" transform="translate(802.915 1525.492)" fill="#f7e1e4"/>
    <path id="パス_9818" data-name="パス 9818" d="M52.632,75.476c0-8.535-6.191-15.452-13.829-15.452a13.019,13.019,0,0,0-9.311,4.027,13.03,13.03,0,0,0-9.316-4.027c-7.633,0-13.824,6.917-13.824,15.452a16.355,16.355,0,0,0,6.4,13.033l.06.04c.471.331.471.331,16.684,12.156C45.7,88.879,45.7,88.879,46.171,88.549l.035-.02.025-.02h0l1.913-1.5c1.908-1.493,4.488-6.056,4.488-11.535" transform="translate(902.724 1437.211)" fill="#f7e1e4"/>
    <path id="パス_9819" data-name="パス 9819" d="M36.967,70.246c0-5.646-4.1-10.222-9.148-10.222a8.612,8.612,0,0,0-6.16,2.664A8.62,8.62,0,0,0,15.5,60.024c-5.05,0-9.145,4.576-9.145,10.222a10.819,10.819,0,0,0,4.231,8.621l.04.027c.311.219.311.219,11.037,8.042,10.722-7.823,10.722-7.823,11.034-8.042l.023-.013.017-.013h0L34,77.877c1.262-.987,2.969-4.006,2.969-7.631" transform="translate(956.509 1586.981)" fill="#f7e1e4"/>
    <path id="パス_9820" data-name="パス 9820" d="M41.618,71.8c0-6.5-4.718-11.775-10.538-11.775a9.921,9.921,0,0,0-7.1,3.069,9.93,9.93,0,0,0-7.1-3.069C11.069,60.024,6.351,65.3,6.351,71.8a12.463,12.463,0,0,0,4.874,9.931l.046.031c.359.252.359.252,12.714,9.263,12.351-9.012,12.351-9.012,12.71-9.263l.027-.015.019-.015h0L38.2,80.589c1.454-1.137,3.42-4.615,3.42-8.79" transform="translate(182.509 1441.288)" fill="#f7e1e4"/>
    <path id="パス_9821" data-name="パス 9821" d="M39.338,71.037c0-6.083-4.412-11.013-9.857-11.013a9.279,9.279,0,0,0-6.637,2.87,9.287,9.287,0,0,0-6.64-2.87c-5.441,0-9.853,4.93-9.853,11.013a11.657,11.657,0,0,0,4.559,9.289l.043.029c.336.236.336.236,11.892,8.664C34.4,80.591,34.4,80.591,34.732,80.355l.025-.014.018-.014h0l1.364-1.067c1.36-1.064,3.2-4.316,3.2-8.222" transform="translate(201.142 1597.981)" fill="#f7e1e4"/>
  </g>
</svg>
