<svg xmlns="http://www.w3.org/2000/svg" width="325.899" height="32" viewBox="0 0 325.899 32">
  <g id="グループ_3881" data-name="グループ 3881" transform="translate(74.041 -40.049)">
    <path id="パス_10312" data-name="パス 10312" d="M13.5-27.885l-2.8,7.8H5.019L3.619-16.4H9.374L7.7-11.715H2.258L.858-8.028H6.341l-2.8,7.8H7.624l2.839-7.8h4.822l-2.8,7.8h4.083l2.8-7.8h5.522l1.361-3.687H20.69L22.362-16.4H27.65l1.4-3.687H23.684l2.8-7.8H22.439l-2.839,7.8H14.779l2.8-7.8ZM13.379-16.4h4.977l-1.672,4.686H11.668ZM33.677-.307c2.644-.077,4.861-.115,6.688-.115,1.4,0,3.655.038,6.727.115V-1.844c-2.839-.115-3.616-1-3.616-3.764V-12.6h11.51v6.99c0,2.957-.428,3.687-3.616,3.764V-.307c2.722-.077,4.938-.115,6.688-.115,1.555,0,3.811.038,6.727.115V-1.844c-2.878-.038-3.616-1-3.616-3.764V-21.2c0-2.5.7-3.418,3.461-3.418h.156V-26.2c-1.4.115-3.072.115-4.977.115-2.178,0-4.977,0-8.438-.115v1.575c3.344.038,3.616.807,3.616,3.418v6.645H43.477V-21.2c0-2.458.817-3.418,3.189-3.418h.428V-26.2c-2.644.077-4.9.115-6.727.115-1.867,0-4.083-.038-6.688-.115v1.575h.233c3.072,0,3.383.845,3.383,3.418V-5.608c0,2.957-.428,3.687-3.616,3.764ZM85.512-4.84a10.45,10.45,0,0,1-1.867,1.767,5.2,5.2,0,0,1-2.839.807c-3.266,0-5.133-2.266-5.133-6.568,0-.23.039-.5.039-.768H87.145V-9.91c0-5.032-2.878-7.874-7.738-7.874-5.794,0-9.644,3.8-9.644,9.1,0,5.147,3.811,8.8,9.294,8.8a8.808,8.808,0,0,0,7.777-3.8Zm-9.8-6.568c.272-3.188,1.361-4.763,3.422-4.763,1.905,0,2.955,1.5,2.955,4.3v.461ZM91.578-.346c2.294-.077,3.966-.077,5.133-.077,1.867,0,3.733.038,5.522.077V-1.767c-2.022,0-2.722-.307-2.722-1.882V-10.87c0-1.882,1.244-3.649,2.255-3.649.933,0,1.283,2,3.072,2a2.223,2.223,0,0,0,2.411-2.343c0-1.728-1.167-2.727-3.189-2.727-1.711,0-3.461,1.037-4.9,3.15l-.311-3.342h-.661a27.736,27.736,0,0,1-6.572,1.344v1.344c2.022.038,2.411,1,2.411,3.5v7.835c0,1.46-.544,1.805-2.45,2Zm19.209-8.412c0,5.147,3.966,8.872,9.527,8.872,5.872,0,9.8-3.687,9.8-9.18,0-5.032-3.889-8.68-9.449-8.68C114.754-17.745,110.787-13.943,110.787-8.757Zm5.872.077c0-5.07,1.128-7.451,3.889-7.451,2.605,0,3.733,2.3,3.733,7.029,0,5.185-.972,7.6-3.772,7.6C117.515-1.5,116.659-3.764,116.659-8.681ZM134.624-.307c1.711-.077,3.577-.115,5.561-.115.778,0,2.372.038,4.861.115v-1.46c-2.061-.115-2.45-.422-2.45-2.036V-17.86h-.583a35.925,35.925,0,0,1-7.388,1.344v1.344c1.983.077,2.45.461,2.45,2.3V-3.8c0,1.575-.35,1.92-2.45,2.036Zm2.022-24.39a2.936,2.936,0,0,0,2.955,2.919,2.936,2.936,0,0,0,2.955-2.919,2.912,2.912,0,0,0-2.955-2.919A2.912,2.912,0,0,0,136.646-24.7ZM149.517-.307c1.672-.077,3.227-.115,4.705-.115,1.322,0,3.111.038,5.405.115V-1.69c-1.867-.038-2.294-.615-2.294-2.381v-5.992c0-3.034,1.555-4.878,3.772-4.878,1.555,0,2.333,1.114,2.333,3.3V-3.88c0,1.728-.389,2.189-2.216,2.189V-.307c1.867-.077,3.5-.115,4.861-.115,1.594,0,3.266.038,5.055.115V-1.69c-2.139-.154-2.294-.5-2.294-2.189v-7.759c0-4.071-1.867-6.107-5.483-6.107a7.86,7.86,0,0,0-6.338,3.38l-.233-3.38h-.661a27.359,27.359,0,0,1-6.611,1.344v1.421c1.944,0,2.411.5,2.411,2.535V-3.88c0,1.652-.194,2-2.411,2.189ZM191.164-4.84A10.45,10.45,0,0,1,189.3-3.073a5.2,5.2,0,0,1-2.839.807c-3.266,0-5.133-2.266-5.133-6.568,0-.23.039-.5.039-.768H192.8V-9.91c0-5.032-2.878-7.874-7.738-7.874-5.794,0-9.644,3.8-9.644,9.1,0,5.147,3.811,8.8,9.294,8.8a8.808,8.808,0,0,0,7.777-3.8Zm-9.8-6.568c.272-3.188,1.361-4.763,3.422-4.763,1.905,0,2.955,1.5,2.955,4.3v.461ZM197.541-.269c1.905-.115,3.655-.192,5.25-.192,2.644,0,5.055.192,7.194.192,7.622,0,11.51-2.458,11.51-6.99,0-4.071-3.111-6.261-8.788-6.952,4.705-.653,7.116-2.727,7.116-5.877,0-4.148-3.539-6.184-10.732-6.184-2.061,0-4.316.23-6.727.23-1.205,0-2.8-.077-4.822-.23V-24.7c3.033.038,3.655.73,3.655,3.3v15.94c0,2.689-.7,3.5-3.655,3.534ZM207.223-13.1c.467-.038.894-.038,1.283-.038,4.2,0,6.105,1.652,6.105,5.416,0,3.649-1.439,5.454-4.355,5.454-2.333,0-3.033-1.229-3.033-4.379Zm0-1.844V-23.66c0-.576.117-.73,1.4-.73,3.227,0,4.783,1.421,4.783,4.417,0,3.61-1.439,5.07-5.288,5.07C207.846-14.9,207.535-14.941,207.223-14.941ZM227.25-.346c2.294-.077,3.966-.077,5.133-.077,1.867,0,3.733.038,5.522.077V-1.767c-2.022,0-2.722-.307-2.722-1.882V-10.87c0-1.882,1.244-3.649,2.255-3.649.933,0,1.283,2,3.072,2a2.223,2.223,0,0,0,2.411-2.343c0-1.728-1.167-2.727-3.189-2.727-1.711,0-3.461,1.037-4.9,3.15l-.311-3.342h-.661a27.736,27.736,0,0,1-6.572,1.344v1.344c2.022.038,2.411,1,2.411,3.5v7.835c0,1.46-.544,1.805-2.45,2Zm19.209-8.412c0,5.147,3.966,8.872,9.527,8.872,5.872,0,9.8-3.687,9.8-9.18,0-5.032-3.889-8.68-9.449-8.68C250.425-17.745,246.459-13.943,246.459-8.757Zm5.872.077c0-5.07,1.128-7.451,3.889-7.451,2.605,0,3.733,2.3,3.733,7.029,0,5.185-.972,7.6-3.772,7.6C253.186-1.5,252.331-3.764,252.331-8.681ZM276.906-.192h1.75l4.083-10.025L286.978-.192h1.633l4.9-11.676c1.011-2.381,1.322-3.995,3.344-4.225v-1.344c-1.244.038-2.372.115-3.461.115-.933,0-2.061-.038-3.422-.115v1.267c1.711.192,2.411.538,2.411,1.5a8.516,8.516,0,0,1-.7,2.689l-2.216,5.492L285.422-17.4h-1.517L279.551-7.106l-2.45-6.376a4.253,4.253,0,0,1-.233-1.344c0-1,.7-1.229,2.372-1.267V-17.4c-3.072.038-4.9.077-5.405.077-1.633,0-3.189-.038-4.744-.077v1.306c1.439.115,1.983,1,2.722,2.881Zm23.331-.115c1.672-.077,3.228-.115,4.705-.115,1.322,0,3.111.038,5.405.115V-1.69c-1.866-.038-2.294-.615-2.294-2.381v-5.992c0-3.034,1.555-4.878,3.772-4.878,1.555,0,2.333,1.114,2.333,3.3V-3.88c0,1.728-.389,2.189-2.216,2.189V-.307c1.867-.077,3.5-.115,4.861-.115,1.594,0,3.266.038,5.055.115V-1.69c-2.139-.154-2.294-.5-2.294-2.189v-7.759c0-4.071-1.867-6.107-5.483-6.107a7.86,7.86,0,0,0-6.338,3.38l-.233-3.38h-.661a27.359,27.359,0,0,1-6.611,1.344v1.421c1.944,0,2.411.5,2.411,2.535V-3.88c0,1.652-.194,2-2.411,2.189Z" transform="translate(-72 69.934)" fill="#fff" stroke="#e8aeb8" stroke-width="4"/>
    <path id="パス_10311" data-name="パス 10311" d="M13.5-27.885l-2.8,7.8H5.019L3.619-16.4H9.374L7.7-11.715H2.258L.858-8.028H6.341l-2.8,7.8H7.624l2.839-7.8h4.822l-2.8,7.8h4.083l2.8-7.8h5.522l1.361-3.687H20.69L22.362-16.4H27.65l1.4-3.687H23.684l2.8-7.8H22.439l-2.839,7.8H14.779l2.8-7.8ZM13.379-16.4h4.977l-1.672,4.686H11.668ZM33.677-.307c2.644-.077,4.861-.115,6.688-.115,1.4,0,3.655.038,6.727.115V-1.844c-2.839-.115-3.616-1-3.616-3.764V-12.6h11.51v6.99c0,2.957-.428,3.687-3.616,3.764V-.307c2.722-.077,4.938-.115,6.688-.115,1.555,0,3.811.038,6.727.115V-1.844c-2.878-.038-3.616-1-3.616-3.764V-21.2c0-2.5.7-3.418,3.461-3.418h.156V-26.2c-1.4.115-3.072.115-4.977.115-2.178,0-4.977,0-8.438-.115v1.575c3.344.038,3.616.807,3.616,3.418v6.645H43.477V-21.2c0-2.458.817-3.418,3.189-3.418h.428V-26.2c-2.644.077-4.9.115-6.727.115-1.867,0-4.083-.038-6.688-.115v1.575h.233c3.072,0,3.383.845,3.383,3.418V-5.608c0,2.957-.428,3.687-3.616,3.764ZM85.512-4.84a10.45,10.45,0,0,1-1.867,1.767,5.2,5.2,0,0,1-2.839.807c-3.266,0-5.133-2.266-5.133-6.568,0-.23.039-.5.039-.768H87.145V-9.91c0-5.032-2.878-7.874-7.738-7.874-5.794,0-9.644,3.8-9.644,9.1,0,5.147,3.811,8.8,9.294,8.8a8.808,8.808,0,0,0,7.777-3.8Zm-9.8-6.568c.272-3.188,1.361-4.763,3.422-4.763,1.905,0,2.955,1.5,2.955,4.3v.461ZM91.578-.346c2.294-.077,3.966-.077,5.133-.077,1.867,0,3.733.038,5.522.077V-1.767c-2.022,0-2.722-.307-2.722-1.882V-10.87c0-1.882,1.244-3.649,2.255-3.649.933,0,1.283,2,3.072,2a2.223,2.223,0,0,0,2.411-2.343c0-1.728-1.167-2.727-3.189-2.727-1.711,0-3.461,1.037-4.9,3.15l-.311-3.342h-.661a27.736,27.736,0,0,1-6.572,1.344v1.344c2.022.038,2.411,1,2.411,3.5v7.835c0,1.46-.544,1.805-2.45,2Zm19.209-8.412c0,5.147,3.966,8.872,9.527,8.872,5.872,0,9.8-3.687,9.8-9.18,0-5.032-3.889-8.68-9.449-8.68C114.754-17.745,110.787-13.943,110.787-8.757Zm5.872.077c0-5.07,1.128-7.451,3.889-7.451,2.605,0,3.733,2.3,3.733,7.029,0,5.185-.972,7.6-3.772,7.6C117.515-1.5,116.659-3.764,116.659-8.681ZM134.624-.307c1.711-.077,3.577-.115,5.561-.115.778,0,2.372.038,4.861.115v-1.46c-2.061-.115-2.45-.422-2.45-2.036V-17.86h-.583a35.925,35.925,0,0,1-7.388,1.344v1.344c1.983.077,2.45.461,2.45,2.3V-3.8c0,1.575-.35,1.92-2.45,2.036Zm2.022-24.39a2.936,2.936,0,0,0,2.955,2.919,2.936,2.936,0,0,0,2.955-2.919,2.912,2.912,0,0,0-2.955-2.919A2.912,2.912,0,0,0,136.646-24.7ZM149.517-.307c1.672-.077,3.227-.115,4.705-.115,1.322,0,3.111.038,5.405.115V-1.69c-1.867-.038-2.294-.615-2.294-2.381v-5.992c0-3.034,1.555-4.878,3.772-4.878,1.555,0,2.333,1.114,2.333,3.3V-3.88c0,1.728-.389,2.189-2.216,2.189V-.307c1.867-.077,3.5-.115,4.861-.115,1.594,0,3.266.038,5.055.115V-1.69c-2.139-.154-2.294-.5-2.294-2.189v-7.759c0-4.071-1.867-6.107-5.483-6.107a7.86,7.86,0,0,0-6.338,3.38l-.233-3.38h-.661a27.359,27.359,0,0,1-6.611,1.344v1.421c1.944,0,2.411.5,2.411,2.535V-3.88c0,1.652-.194,2-2.411,2.189ZM191.164-4.84A10.45,10.45,0,0,1,189.3-3.073a5.2,5.2,0,0,1-2.839.807c-3.266,0-5.133-2.266-5.133-6.568,0-.23.039-.5.039-.768H192.8V-9.91c0-5.032-2.878-7.874-7.738-7.874-5.794,0-9.644,3.8-9.644,9.1,0,5.147,3.811,8.8,9.294,8.8a8.808,8.808,0,0,0,7.777-3.8Zm-9.8-6.568c.272-3.188,1.361-4.763,3.422-4.763,1.905,0,2.955,1.5,2.955,4.3v.461ZM197.541-.269c1.905-.115,3.655-.192,5.25-.192,2.644,0,5.055.192,7.194.192,7.622,0,11.51-2.458,11.51-6.99,0-4.071-3.111-6.261-8.788-6.952,4.705-.653,7.116-2.727,7.116-5.877,0-4.148-3.539-6.184-10.732-6.184-2.061,0-4.316.23-6.727.23-1.205,0-2.8-.077-4.822-.23V-24.7c3.033.038,3.655.73,3.655,3.3v15.94c0,2.689-.7,3.5-3.655,3.534ZM207.223-13.1c.467-.038.894-.038,1.283-.038,4.2,0,6.105,1.652,6.105,5.416,0,3.649-1.439,5.454-4.355,5.454-2.333,0-3.033-1.229-3.033-4.379Zm0-1.844V-23.66c0-.576.117-.73,1.4-.73,3.227,0,4.783,1.421,4.783,4.417,0,3.61-1.439,5.07-5.288,5.07C207.846-14.9,207.535-14.941,207.223-14.941ZM227.25-.346c2.294-.077,3.966-.077,5.133-.077,1.867,0,3.733.038,5.522.077V-1.767c-2.022,0-2.722-.307-2.722-1.882V-10.87c0-1.882,1.244-3.649,2.255-3.649.933,0,1.283,2,3.072,2a2.223,2.223,0,0,0,2.411-2.343c0-1.728-1.167-2.727-3.189-2.727-1.711,0-3.461,1.037-4.9,3.15l-.311-3.342h-.661a27.736,27.736,0,0,1-6.572,1.344v1.344c2.022.038,2.411,1,2.411,3.5v7.835c0,1.46-.544,1.805-2.45,2Zm19.209-8.412c0,5.147,3.966,8.872,9.527,8.872,5.872,0,9.8-3.687,9.8-9.18,0-5.032-3.889-8.68-9.449-8.68C250.425-17.745,246.459-13.943,246.459-8.757Zm5.872.077c0-5.07,1.128-7.451,3.889-7.451,2.605,0,3.733,2.3,3.733,7.029,0,5.185-.972,7.6-3.772,7.6C253.186-1.5,252.331-3.764,252.331-8.681ZM276.906-.192h1.75l4.083-10.025L286.978-.192h1.633l4.9-11.676c1.011-2.381,1.322-3.995,3.344-4.225v-1.344c-1.244.038-2.372.115-3.461.115-.933,0-2.061-.038-3.422-.115v1.267c1.711.192,2.411.538,2.411,1.5a8.516,8.516,0,0,1-.7,2.689l-2.216,5.492L285.422-17.4h-1.517L279.551-7.106l-2.45-6.376a4.253,4.253,0,0,1-.233-1.344c0-1,.7-1.229,2.372-1.267V-17.4c-3.072.038-4.9.077-5.405.077-1.633,0-3.189-.038-4.744-.077v1.306c1.439.115,1.983,1,2.722,2.881Zm23.331-.115c1.672-.077,3.228-.115,4.705-.115,1.322,0,3.111.038,5.405.115V-1.69c-1.866-.038-2.294-.615-2.294-2.381v-5.992c0-3.034,1.555-4.878,3.772-4.878,1.555,0,2.333,1.114,2.333,3.3V-3.88c0,1.728-.389,2.189-2.216,2.189V-.307c1.867-.077,3.5-.115,4.861-.115,1.594,0,3.266.038,5.055.115V-1.69c-2.139-.154-2.294-.5-2.294-2.189v-7.759c0-4.071-1.867-6.107-5.483-6.107a7.86,7.86,0,0,0-6.338,3.38l-.233-3.38h-.661a27.359,27.359,0,0,1-6.611,1.344v1.421c1.944,0,2.411.5,2.411,2.535V-3.88c0,1.652-.194,2-2.411,2.189Z" transform="translate(-72 69.934)" fill="#fff"/>
  </g>
</svg>
