<svg xmlns="http://www.w3.org/2000/svg" xmlns:xlink="http://www.w3.org/1999/xlink" width="179" height="97" viewBox="0 0 179 97">
  <defs>
    <clipPath id="clip-path">
      <rect id="長方形_1264" data-name="長方形 1264" width="179" height="97" transform="translate(308.977 1478.855)" fill="#fff" stroke="#707070" stroke-width="1"/>
    </clipPath>
    <clipPath id="clip-path-2">
      <rect id="長方形_1253" data-name="長方形 1253" width="178.91" height="83.611" transform="translate(194 1423.389)" fill="#fff" stroke="#707070" stroke-width="1"/>
    </clipPath>
  </defs>
  <g id="マスクグループ_2687" data-name="マスクグループ 2687" transform="translate(-308.977 -1478.855)" clip-path="url(#clip-path)">
    <g id="マスクグループ_2675" data-name="マスクグループ 2675" transform="translate(240.258 42.845) rotate(5)" clip-path="url(#clip-path-2)">
      <g id="レイヤー_1" data-name="レイヤー 1" transform="matrix(0.998, -0.07, 0.07, 0.998, 180.64, 1406.135)">
        <g id="グループ_3874" data-name="グループ 3874" transform="matrix(0.951, 0.309, -0.309, 0.951, 27.795, 0)">
          <g id="グループ_3875" data-name="グループ 3875" transform="translate(0 0)">
            <g id="グループ_3867" data-name="グループ 3867">
              <path id="パス_10006" data-name="パス 10006" d="M26.664,0a2.125,2.125,0,0,1,1.4.526l3,2.626a2.126,2.126,0,0,1,.682,2.03A2.125,2.125,0,0,1,33.109,6.8l.375,2.076a2.126,2.126,0,0,1-1.38,2.381c.477.283,1.043.584,1.715.9a2.126,2.126,0,0,1,.906,3.044l-1,1.619-.019.04a2.126,2.126,0,0,1,.431.957,18.619,18.619,0,0,1,.156,7.032q-.023.107-.049.21c.185-.045.333-.083.435-.113a2.126,2.126,0,0,1,2.7,2.332l-.35,2.551a2.126,2.126,0,0,1-1.738,1.8l-19.06,3.352a10.307,10.307,0,0,1-1.77.155,10.518,10.518,0,0,1-3.288-.542A17.511,17.511,0,0,1,9.42,36.535l-.011.01a2.126,2.126,0,0,1-3.341-.5L3.942,32.194a2.126,2.126,0,0,1,.911-2.929c.24-.12.485-.249.713-.376l-.895-5.1a2.127,2.127,0,0,1-2.061-1.753l-.375-2.1a2.126,2.126,0,0,1,1.722-2.467l.671-.119A37.841,37.841,0,0,0,.477,9.771,2.126,2.126,0,0,1,.6,6.948L2.277,5.222a2.126,2.126,0,0,1,2.7-.292A49.488,49.488,0,0,1,9.954,8.77l-.466-.638a2.126,2.126,0,0,1,1.337-3.345C15.493,3.938,21.841,2.3,25.659.253A2.123,2.123,0,0,1,26.664,0ZM23.537,10.631a2.126,2.126,0,0,1-2.094-1.76l-.35-2a2.128,2.128,0,0,1-.027-.223q-.467.147-.938.287a2.144,2.144,0,0,1,.074.292l.325,1.8A2.126,2.126,0,0,1,18.8,11.5l-1.5.262a2.123,2.123,0,0,1-.024.812c-.065.289-.139.584-.229.887q.312-.334.609-.7a2.126,2.126,0,0,1,3.741.97l.078.437.911-.161-.072-.4a2.126,2.126,0,0,1,3.132-2.231q.465.261.908.485c-.211-.28-.391-.551-.554-.813a2.124,2.124,0,0,1-.284-.737l-1.614.286A2.128,2.128,0,0,1,23.537,10.631ZM8.128,12.842c-.568-.523-1.119-1.005-1.641-1.444.372.7.718,1.4,1.027,2.044Zm18.6,6.324a2.126,2.126,0,0,1-.021-.685c.021-.157.039-.3.054-.437L25.6,18.25q.015.084.024.169.046.451.058.921l.833-.148A2.1,2.1,0,0,1,26.728,19.166ZM18.647,24.2a6.94,6.94,0,0,0,1.138-4.922l-1.211.215q.012.066.021.134A16.975,16.975,0,0,1,18.647,24.2Zm10.277.656a4.233,4.233,0,0,0,.894-.292c.12-.062.207-.107.322-.633a10.844,10.844,0,0,0,.111-3.271l-1.062.189a2.14,2.14,0,0,1-.212.027q.014.075.024.15a9.743,9.743,0,0,1-.062,3.779ZM11.389,30.125a8.9,8.9,0,0,1-.825-2.611l-1.182-6.69-.887.157,0,.013L10,29.548a2.126,2.126,0,0,1,.032.376,2.12,2.12,0,0,1,1.207.136Zm3.091-7.763a2.108,2.108,0,0,1-.52-.065l.338,1.911a6.761,6.761,0,0,0,.227-1.847Z" transform="translate(0 20.11)" fill="#e38ea0"/>
              <path id="パス_10007" data-name="パス 10007" d="M28.465,0a2.126,2.126,0,0,1,2.094,1.758l3.9,22.186c.453,2.594.493,4.629-.785,6.136-1.177,1.388-3.005,1.711-4.941,2.054l-5.13.9a2.126,2.126,0,0,1-2.229-1.067l-.71-1.287A27.648,27.648,0,0,1,16.121,34.5l-.021.014a2.126,2.126,0,0,1-2.439,0l-1.676-1.176a2.126,2.126,0,0,1-.266-3.26,16.356,16.356,0,0,0,2.008-2.338l-.562.1a2.127,2.127,0,0,1-1.74,1.826l-5.1.9a2.126,2.126,0,0,1-2.463-1.725L.032,7.123A2.126,2.126,0,0,1,1.758,4.659L13.289,2.633a2.122,2.122,0,0,1,.712,0,2.124,2.124,0,0,1,.637-.221L28.1.032A2.119,2.119,0,0,1,28.465,0Zm1.96,27.334a6.082,6.082,0,0,0-.152-2.656L26.739,4.59,25.4,4.826l.006.033.951,5.4a2.117,2.117,0,0,1-.1,1.1,2.117,2.117,0,0,1,.47,1l.976,5.5a2.127,2.127,0,0,1-.089,1.081,2.124,2.124,0,0,1,.465,1l1.051,5.978,0,.013a6.133,6.133,0,0,1,.118,1.772A4.071,4.071,0,0,0,30.425,27.334ZM20.239,12.43a2.126,2.126,0,0,1-.471-1.005l-.951-5.4-.005-.032-1.341.237L19.5,17.74a17.973,17.973,0,0,1-.02,7.426,10.35,10.35,0,0,0,1.383-4.45,2.121,2.121,0,0,1,.32-.985,2.126,2.126,0,0,1-.259-.782c-.024-.2-.052-.439-.083-.72-.1-.879-.233-2.082-.45-3.3l-.25-1.4A2.127,2.127,0,0,1,20.239,12.43ZM14.744,23.238,11.905,7.194l-.985.173,0,.016,1.2,6.779a2.117,2.117,0,0,1-.1,1.1,2.125,2.125,0,0,1,.471,1.006L13.75,23.4l0,.017ZM7.157,16.131a2.127,2.127,0,0,1-.471-1L5.485,8.35l0-.027-.892.157L7.678,26l1.018-.18a2.112,2.112,0,0,1,.1-.44,2.127,2.127,0,0,1-.489-1.027L7.061,17.226A2.117,2.117,0,0,1,7.157,16.131ZM24.895,26.37l-.377-2.146A14.809,14.809,0,0,1,23.6,26.53C24.017,26.493,24.46,26.442,24.895,26.37Z" transform="translate(35.394 15.008)" fill="#e38ea0"/>
              <path id="パス_10008" data-name="パス 10008" d="M9.58,36.344a2.127,2.127,0,0,1-.447-.048L3.9,35.171a2.126,2.126,0,0,1-1.459-3.019,28.5,28.5,0,0,0,1.412-3.436q-.065-.037-.129-.079L1.878,27.411a2.126,2.126,0,0,1-.866-2.371c.481-1.638,1.025-3.5.146-8.541L.033,10.151A2.126,2.126,0,0,1,1.758,7.686L14.983,5.364,14.789,4.24a2.126,2.126,0,0,1,1.729-2.457l5.3-.925a2.12,2.12,0,0,1,.846.023l.639-.468A2.126,2.126,0,0,1,25.188.094a34.738,34.738,0,0,1,4.778,1.831,2.126,2.126,0,0,1,1.161,2.146,2.128,2.128,0,0,1,.181.557l.375,2.1a2.126,2.126,0,0,1-.35,1.592q-.03.042-.061.083a2.126,2.126,0,0,1,.544,2.063,31.546,31.546,0,0,1-1.067,3.224,12.983,12.983,0,0,0,1.258.465,2.126,2.126,0,0,1,1.485,1.982,13.028,13.028,0,0,1-.47,4.467,6.04,6.04,0,0,1-1.031,1.909c1.166.932,2.315,1.934,3.284,2.875a2.126,2.126,0,0,1-.132,3.169L30.766,32.15a2.127,2.127,0,0,1-2.631.59l-.05-.025a2.125,2.125,0,0,1-.588-.437l-.088.074A7.557,7.557,0,0,1,23.7,33.837l-8.822,1.55a9.61,9.61,0,0,1-1.7.181,4.361,4.361,0,0,1-1.731-.324,2.126,2.126,0,0,1-1.863,1.1Zm2.81-10.059L13.1,30.35a7.251,7.251,0,0,0,.217.96,7.326,7.326,0,0,0,.812-.11l.3-.053a5.812,5.812,0,0,1-.42-1.569L13.406,26.1Zm12.027,2.2a6.253,6.253,0,0,1-.136.842,1.448,1.448,0,0,0,.783-.759C24.85,28.543,24.635,28.515,24.416,28.485ZM29.7,26.131c.135.336.268.686.4,1.059l.436-.358C30.267,26.6,29.987,26.362,29.7,26.131ZM4.591,11.506l.754,4.257a30.542,30.542,0,0,1,.535,5.551,12.887,12.887,0,0,0,.38-6.666l-.576-3.329v0Zm19.322,7.1a2.118,2.118,0,0,1,1.409.534,3.754,3.754,0,0,0,2.015,1.09l.076.014q.1.019.19.045a2.148,2.148,0,0,1,.23-.053,1.289,1.289,0,0,0,.99-.609,2.6,2.6,0,0,1-.5.144,2.332,2.332,0,0,1-.419.038,3.59,3.59,0,0,1-2.656-1.653,2.126,2.126,0,0,1-.21-2.459,24.365,24.365,0,0,0,2.019-4.263l-.639-.154c-.056.324-.12.643-.184.951l-.011.053a2.126,2.126,0,0,1-4.066.33,21.778,21.778,0,0,1-1.047-3.953,2.126,2.126,0,0,1,.069-1.125,2.116,2.116,0,0,1-.482-1.018c-.06-.34-.131-.73-.2-1.117l-1.126.2c.063.3.14.647.221,1.015a2.126,2.126,0,0,1-.044,1.088,2.117,2.117,0,0,1,.512.955,23.652,23.652,0,0,0,3.4,8.407,2.126,2.126,0,0,1,.357,1.544Z" transform="translate(70.687 8.154)" fill="#e38ea0"/>
              <path id="パス_10009" data-name="パス 10009" d="M20.861,0l.083,0a29.52,29.52,0,0,1,5.9.873,2.126,2.126,0,0,1,1.549,1.368q.034.095.058.191a2.127,2.127,0,0,1,1.907,1.745l.375,2.1a2.126,2.126,0,0,1-1.152,2.28,2.126,2.126,0,0,1,.072,1.259l-.025.1a2.129,2.129,0,0,1-.156.427c-.234.474-.47.931-.71,1.374a15.066,15.066,0,0,0,2.178.4,2.126,2.126,0,0,1,1.876,2.2,11.479,11.479,0,0,1-2.476,7.027l.6,3.429.853-.152a2.126,2.126,0,0,1,2.466,1.72l.375,2.1a2.126,2.126,0,0,1-1.724,2.468L4.771,35.862a2.126,2.126,0,0,1-2.462-1.72l-.375-2.1a2.126,2.126,0,0,1,1.72-2.467l.865-.154-.26-1.488a2.121,2.121,0,0,1-1.392-.37L.916,26.211a2.126,2.126,0,0,1-.7-2.681c.922-1.889,1.873-3.837.842-9.732L.307,9.522A2.126,2.126,0,0,1,2.031,7.061l9.582-1.695c-.1-.426-.214-.991-.263-1.359A2.126,2.126,0,0,1,13.09,1.633L18.518.682a2.126,2.126,0,0,1,.775.008A2.126,2.126,0,0,1,20.861,0ZM18.121,7.645a2.117,2.117,0,0,1-.609-1.068c-.042-.182-.084-.365-.127-.55-.059-.253-.121-.518-.184-.8l-1.186.208c.068.244.159.548.294.976a2.126,2.126,0,0,1,.026,1.193,2.119,2.119,0,0,1,.6.875A22.379,22.379,0,0,0,20.247,15a2.125,2.125,0,0,1,.4,1.511,2.1,2.1,0,0,1,1.465.572,8.693,8.693,0,0,0,1.925,1.442,2.127,2.127,0,0,1,.9,2.775,2.117,2.117,0,0,1,.348.844l.994,5.618.847-.149v0l-1.176-6.7a2.126,2.126,0,0,1,.94-2.153,1.971,1.971,0,0,0,.5-.5,2.464,2.464,0,0,1-1.008.408l-.061.01a2.6,2.6,0,0,1-.366.026c-1.508,0-2.9-1.289-3.589-2.057a2.126,2.126,0,0,1-.1-2.735,29.33,29.33,0,0,0,2.077-3.008l-.776-.137c-.064.218-.136.455-.222.733a2.126,2.126,0,0,1-3.955.277l-.079-.166a23.955,23.955,0,0,1-1.132-2.747A2.126,2.126,0,0,1,18.121,7.645Zm-11.2,6.2a2.126,2.126,0,0,1-.334-.824l-.4-2.276q-.009-.051-.015-.1l-1.308.231.383,2.186a26.331,26.331,0,0,1,.438,6.854q.071-.158.141-.32.035-.081.075-.157a2.126,2.126,0,0,1,.093-.314,11.54,11.54,0,0,0,.71-4.319v-.027A2.121,2.121,0,0,1,6.92,13.849Zm6.509,5.086q.023-.058.049-.116c.084-.182.419-1.185-.081-4.841l-1.149.2a28.192,28.192,0,0,1,.484,4.653q0,.03,0,.061a3.885,3.885,0,0,1-.039.45,1.424,1.424,0,0,0,.7-.375Zm7.659,9.737-.993-5.61-.441.078v0l.993,5.608Zm-5.605.987-.991-5.6,0-.012-.365.064v.008l.992,5.606Zm-5.5.969-.99-5.594,0-.024-.891.156.981,5.61,0,.011Z" transform="translate(106.631 2.426)" fill="#e38ea0"/>
              <path id="パス_10010" data-name="パス 10010" d="M9.956,31.166a2.126,2.126,0,0,1-2.1-1.815c-.115-.777-.284-1.841-.473-3a2.126,2.126,0,0,1-2.926-.214L1.3,22.664a2.126,2.126,0,0,1-.066-2.779c.559-.678,2.945-3.7,4.166-5.268l-.035-.2-.131-.768c-.63.17-1.3.364-1.98.583A2.126,2.126,0,0,1,.508,12.578L.033,9.9A2.126,2.126,0,0,1,1.694,7.448c1.014-.211,1.778-.376,2.381-.509l-.69-3.863A2.126,2.126,0,0,1,5.257.587l5.5-.575A2.126,2.126,0,0,1,13.1,1.973c.075,1.035.253,2.4.451,3.736a12.965,12.965,0,0,1,5.937-3.15,7.411,7.411,0,0,1,1.275-.111c3.345,0,5.716,2.116,6.342,5.661l0,.014c.115.674.292,2.365.5,4.324.169,1.611.371,3.542.512,4.588a2.126,2.126,0,0,1,2.915-.313L32.96,18.2a2.126,2.126,0,0,1,.482,2.857c-2.081,3.159-4.76,5.19-7.545,5.72l-.038.007a7.4,7.4,0,0,1-1.285.118c-2.969,0-5.021-1.945-5.631-5.337-.2-1.119-.454-3.17-.642-4.667-.037-.293-.07-.562-.1-.794l0-.034c-.084-.758-.4-4.013-.531-5.3a18.488,18.488,0,0,0-2.756,3.008l2.442,13.9a2.126,2.126,0,0,1-1.7,2.457l-5.3,1A2.119,2.119,0,0,1,9.956,31.166ZM8.479,17.859a2.127,2.127,0,0,1,2.1,1.78c.094.571.208,1.254.331,1.993.26,1.561.561,3.37.81,4.912l1.083-.2L10.563,13.6a2.126,2.126,0,0,1,.383-1.63l.08-.109a2.126,2.126,0,0,1-1.013-1.46C9.8,9.2,9.37,6.686,9.088,4.462l-1.115.117.648,3.627A2.117,2.117,0,0,1,8.44,9.51a2.126,2.126,0,0,1,.615,1.2c.066.426.329,1.97.5,2.992.088.514.161.942.193,1.134a2.126,2.126,0,0,1-.412,1.646c-.214.278-.608.784-1.085,1.392A2.134,2.134,0,0,1,8.479,17.859Zm13.943-2.278c.029.23.063.5.1.785.172,1.371.431,3.442.609,4.45.329,1.83,1.049,1.828,1.444,1.83a3.136,3.136,0,0,0,.532-.05,4.668,4.668,0,0,0,1.183-.415,2.925,2.925,0,0,1-1.7-1.617,9.167,9.167,0,0,1-.565-2.207c-.153-.83-.354-2.707-.644-5.467-.181-1.724-.367-3.506-.459-4.051-.267-1.5-.911-2.139-2.153-2.139a3.176,3.176,0,0,0-.539.046l-.031.006A4.516,4.516,0,0,1,21.808,9.6l.007.033a2.121,2.121,0,0,1,.037.234l.043.433C22,11.42,22.337,14.807,22.422,15.582Z" transform="translate(140.148 0)" fill="#e38ea0"/>
            </g>
          </g>
          <g id="グループ_3869" data-name="グループ 3869" transform="translate(2.126 2.126)">
            <path id="パス_10011" data-name="パス 10011" d="M4.7,14.958A41.742,41.742,0,0,0,0,6.3L1.676,4.577a49.784,49.784,0,0,1,7.379,6.128L4.7,14.958ZM8.98,16.233l1.551,8.78c.55,3.077,1.626,3.852,5.878,3.1l9.13-1.6c.95-.175,6.478-1.326,7.6-1.651l-.35,2.551-19.06,3.352a9.012,9.012,0,0,1-5.453-.875,16.328,16.328,0,0,1-2.476,3L3.677,29.04a14.357,14.357,0,0,0,2.1-1.251l-1.5-8.555-1.7.3-.375-2.1,6.779-1.2Zm20.686-2.426a22.6,22.6,0,0,1-7.379-2.7l.45,2.5-5.1.9-.45-2.526a23.064,23.064,0,0,1-4.252,3.852l13.832-2.451a12.9,12.9,0,0,1-.075,3.252l3.227-.575a16.589,16.589,0,0,1,.175,6.2c-.475,2.176-1.7,2.376-5.028,2.977l-3.952.7-1.076-2.251a26.343,26.343,0,0,0,3.177-.25c1.776-.325,1.851-1.8,1.551-4.277l-3.527.625a12.312,12.312,0,0,0,.15-3.277l-1.626.275c.2,2.2.55,6.9-6.6,10.781l-1.576-1.3c2.751-2.126,3.277-4.377,2.776-8.5l-2,.35-.3-1.676c-.925.625-1.076.7-1.326.875l-1.4-1.351c2.576-2.451,3.352-4.2,3.752-5.978l-3.677.65L9.03,8.554l7.279-1.276-.325-1.8c-.4.1-5.228,1.075-5.553,1.126L9.08,4.752C13.757,3.9,20.436,2.2,24.538,0l3,2.626c-.175.275-6.2,1.676-6.478,1.751l.35,2L28.89,5.053l.375,2.076L25.488,7.8c.65,1.051,1.726,2.476,5.3,4.152l-1.176,1.9Z" transform="translate(0 20.111)" fill="#fff"/>
            <path id="パス_10012" data-name="パス 10012" d="M11.506,2.626l3.577,20.211-6.4,1.126.25,1.476-5.1.9L0,4.627,11.531,2.6Zm-3.6,9.78L6.7,5.628l-1.251.225,1.2,6.779Zm-.875,2.326,1.251,7.129,1.251-.225L8.279,14.508ZM23.837,18.21l-2.977.525c-.45,6.578-6.028,10.455-8.1,11.906l-1.676-1.176c4.752-4.652,5-8.93,4.2-13.482l-2.4-13.607L26.339,0l3.9,22.187c.825,4.727-.325,5.078-4,5.728l-5.128.9-1.2-2.176a28.189,28.189,0,0,0,3.5-.35c1.726-.3,1.751-.65,1.5-2.126l-1.051-5.978Zm-4.1-9.28,2.4-.425-.951-5.4-2.4.425Zm2.776,1.676-2.4.425.25,1.4c.3,1.676.45,3.327.55,4.127l2.576-.45Z" transform="translate(35.394 15.008)" fill="#fff"/>
            <path id="パス_10013" data-name="パス 10013" d="M26.964,28.715c-1.251-3.852-1.751-5.228-3.277-7.454l1.2-1.051a5.758,5.758,0,0,1-3.1-1.6,20.494,20.494,0,0,1-3.227,2.876l-1.976-1.176c.425-.45.5-.575.875-.976l-8.9,1.576L7.379,14.232l9.2-1.626,1.126,6.4a20.746,20.746,0,0,0,1.876-2.852,25.615,25.615,0,0,1-3.727-9.13L5.653,8.83l.575,3.327c1.051,6.028-.9,9.705-3.452,12.582L.925,23.512c.55-1.876,1.151-4.052.2-9.5L0,7.654l15.383-2.7c-.15-.675-.35-1.6-.4-1.9l-.225-1.3,5.3-.925s.375,1.926.6,3.2l1.3-.225a8.9,8.9,0,0,0-1.4-2.426L22.437,0a33.189,33.189,0,0,1,4.452,1.7L24.538,3.327l2.551-.45.375,2.1L21.061,6.1a19.936,19.936,0,0,0,.95,3.627A11.146,11.146,0,0,0,22.337,6.5l5.3,1.276a27.031,27.031,0,0,1-2.9,6.879c.425.5.825.951,1.076.9.75-.125.45-2.276.375-2.876a12.766,12.766,0,0,0,3.052,1.376c.05,2.326.05,5.6-3.177,6.153a45.06,45.06,0,0,1,5.6,4.577l-4.752,3.9ZM7.079,23.963a48.666,48.666,0,0,1,.375,8.129L2.226,30.966a30.96,30.96,0,0,0,2.476-7.2l2.4.2Zm8.83-15.008.375,2.1L7,12.707l-.375-2.1Zm0,18.26a27.988,27.988,0,0,0-2.426-5.628l1.7-1.126c1.1.475,5.2,2.726,5.978,3.177l-.45.3a27.9,27.9,0,0,0,4.577.55c.2,4.377-2.476,4.853-4.077,5.128l-8.83,1.551c-2.351.425-3.052.05-3.5-2.576L7.8,22.437l5.2-.925.976,5.578c.225,1.3.275,1.551,1.7,1.3l2.751-.475c1.351-.25,1.9-.325,1.751-3.6l-4.252,2.927ZM11.856,15.633l.425,2.476,1.051-.175-.425-2.476Z" transform="translate(70.687 8.154)" fill="#fff"/>
            <path id="パス_10014" data-name="パス 10014" d="M25.438,7.279a31.973,31.973,0,0,1-3.627,5.8c.925,1.026,1.726,1.4,2.076,1.351.725-.125.825-2.476.775-3.227a17,17,0,0,0,3.9.9c-.1,2.526-1.026,5.253-2.651,6.3l1.176,6.7,2.952-.525.375,2.1L2.276,31.642,1.9,29.54l2.952-.525L3.6,21.861a14.374,14.374,0,0,1-1.651,1.826L0,22.337c1.026-2.1,2.176-4.452,1.026-11.031L.275,7.029l11.881-2.1c-.3-.95-.4-1.351-.5-1.751s-.275-1.2-.325-1.576L16.759.65l.075.45c.2,1.1.425,2,.625,2.876l2.827-.5a14.48,14.48,0,0,0-3-1.676L18.735,0a27.747,27.747,0,0,1,5.528.825l-1.8,2.251,3.677-.65.375,2.1-8.454,1.5a22.543,22.543,0,0,0,1.126,2.7,15.854,15.854,0,0,0,.625-2.551l5.653,1ZM12.857,18.26a4.512,4.512,0,0,1-2.8,1.251l-3.477.625L5.653,18.31a17.055,17.055,0,0,1-1.576,2.9l10.43-1.826L12.882,18.26ZM6.7,12.682a13.612,13.612,0,0,1-.85,5.078H7.629a.943.943,0,0,0,.85-1.051,26.251,26.251,0,0,0-.45-4.277L6.7,12.657Zm6.328-3.3c.725,4.1.85,6.9.25,8.2a20.052,20.052,0,0,0,3.127-3.452,24.643,24.643,0,0,1-3.6-7.054L6.153,8.254l.4,2.276ZM9.905,22.362l-.951.175,1,5.653.951-.175Zm5.528-.976-.976.175,1,5.653.976-.175Zm5.453-3.127a10.88,10.88,0,0,1-2.351-1.751,28.245,28.245,0,0,1-4,2.876l6.353-1.126Zm.175,7.954,1-.175-1-5.653-1,.175Z" transform="translate(106.631 2.426)" fill="#fff"/>
            <path id="パス_10015" data-name="パス 10015" d="M29.54,17.759c-2.751,4.177-5.653,4.7-6.178,4.8-2.826.5-4.052-1.276-4.452-3.5-.225-1.276-.55-3.977-.725-5.353-.1-.9-.55-5.5-.575-5.753-.075-.35-.375-2.1-1.826-1.851-.9.15-2.651,1.476-5.253,5l2.6,14.808-5.3,1c-.325-2.2-1.076-6.628-1.476-9.055-1.126,2-2.051,3.952-2.451,4.727L.75,19.11c.7-.85,4.027-5.078,4.778-6.053-.1-.6-.6-3.5-.7-4.152C3.852,9.13,2.176,9.53.475,10.08L0,7.4c2.651-.55,3.627-.8,4.4-.95L3.352.575,8.855,0c.15,2.076.7,5.5,1.126,7.9,2.276-2.351,4.928-4.878,7.754-5.378,1.576-.275,4.477,0,5.153,3.827.225,1.326.825,8.029,1.1,9.5.3,1.751.475,2.376,1.426,2.2a3.963,3.963,0,0,0,2.2-1.776l1.926,1.476Z" transform="translate(140.148 0)" fill="#fff"/>
          </g>
          <path id="パス_10016" data-name="パス 10016" d="M25.589,0a2.122,2.122,0,0,1,.988.244A24.671,24.671,0,0,1,30.559,2.81a2.126,2.126,0,0,1,.226,3.129L29.034,7.789a2.125,2.125,0,0,1-.246.222,2.128,2.128,0,0,1-.286.36L26.975,9.92C26.383,24.9,19.6,30.657,8.105,35.5a2.126,2.126,0,0,1-2.513-.665l-1.4-1.826a2.126,2.126,0,0,1,.764-3.21c6.03-2.9,11.557-7,11.737-16.971L2.872,15.276A2.126,2.126,0,0,1,.406,13.543L.031,11.367A2.126,2.126,0,0,1,1.757,8.912L19.524,5.779q-.018-.093-.028-.188A2.126,2.126,0,0,1,20.081,3.9l1.326-1.376a2.125,2.125,0,0,1,1.4-.647L24.1.609A2.125,2.125,0,0,1,25.589,0Zm-2.9,10.444-.9-.747-.952.168a2.127,2.127,0,0,1,.042.31c.337,5.5-.558,10.055-2.73,13.84C20.849,20.811,22.358,16.6,22.694,10.444Z" transform="translate(56.193 44.324)" fill="#e38ea0"/>
          <path id="パス_10017" data-name="パス 10017" d="M20.261,5.3l2.476,2.051c-.45,13.907-6.253,19.285-17.584,24.063l-1.4-1.826c6.8-3.277,13.682-8.329,12.882-21.411L.375,11.056,0,8.88,20.286,5.3Zm2.751,1.326a15.068,15.068,0,0,0-3.527-3.377l1.326-1.376a25.788,25.788,0,0,1,4.052,2.876L23.012,6.628ZM25.363,4.2a16.2,16.2,0,0,0-3.3-2.826L23.462,0a22.473,22.473,0,0,1,3.652,2.351Z" transform="translate(58.319 46.45)" fill="#fff"/>
          <path id="パス_10018" data-name="パス 10018" d="M21.662,0a2.126,2.126,0,0,1,2.1,1.765l.375,2.176a2.127,2.127,0,0,1-1.045,2.21l.231-.041a2.127,2.127,0,0,1,1.541.32l1.847.8a2.126,2.126,0,0,1,1.282,1.867A19.772,19.772,0,0,1,25.2,21.205c-4.049,6.285-11.33,8.365-14.439,9.254a2.125,2.125,0,0,1-2.314-.809L7.075,27.725A2.126,2.126,0,0,1,8.09,24.487c6.909-2.466,9.633-5.351,9.795-10.86L2.871,16.276A2.126,2.126,0,0,1,.407,14.544L.031,12.368A2.126,2.126,0,0,1,1.757,9.913l2.194-.387A2.126,2.126,0,0,1,2.207,7.79L1.832,5.614A2.126,2.126,0,0,1,3.558,3.159L21.293.032A2.131,2.131,0,0,1,21.662,0ZM23.78,10.6l-.409-.177-1.357.239a2.124,2.124,0,0,1,.041.28,17.211,17.211,0,0,1-1.528,9.434,12.887,12.887,0,0,0,1.1-1.463A14.439,14.439,0,0,0,23.78,10.6Z" transform="translate(87.784 43.198)" fill="#e38ea0"/>
          <path id="パス_10019" data-name="パス 10019" d="M21.536,6.1l2.2.95a17.659,17.659,0,0,1-2.451,10.881c-3.577,5.553-10.08,7.454-13.232,8.354L6.679,24.363C14.458,21.586,18.51,17.834,17.809,8.98L.375,12.056,0,9.88l21.561-3.8Zm-2-6.1.375,2.176L2.176,5.3,1.8,3.127Z" transform="translate(89.911 45.325)" fill="#fff"/>
          <path id="パス_10020" data-name="パス 10020" d="M15.261,0a2.126,2.126,0,0,1,2.093,1.762l.461,2.654,5.306-.932a2.128,2.128,0,0,1,1.416.244L26.787,5A2.126,2.126,0,0,1,27.849,6.6c.326,2.682,1.089,8.963-1.973,14.889C22.168,28.622,15.156,30.7,11.786,31.7a2.127,2.127,0,0,1-2.311-.77L8.024,28.983A2.126,2.126,0,0,1,9,25.717c7.432-2.706,10.1-5.486,8.885-14.765l-7.519,1.328.8,4.533a2.126,2.126,0,0,1-1.725,2.465l-5.4.95A2.125,2.125,0,0,1,1.584,18.5L.033,9.725A2.126,2.126,0,0,1,1.754,7.262L8.24,6.108,7.712,3.15A2.126,2.126,0,0,1,9.554.666l5.453-.65A2.143,2.143,0,0,1,15.261,0ZM14,7.32c-.005-.026-.01-.051-.015-.077l-.48-2.766-1.215.145L12.8,7.456q.007.037.012.074Zm9.746.851L23.1,7.8l-1.362.239q.008.037.014.075c.926,5.366.87,9.3-.211,12.383q.292-.465.557-.971C24.235,15.4,24.025,10.81,23.75,8.171ZM6.615,15.459l-.8-4.532q-.006-.033-.011-.066l-1.211.215.812,4.6Z" transform="translate(117.45 37.595)" fill="#e38ea0"/>
          <path id="パス_10021" data-name="パス 10021" d="M7.679.65,13.132,0l.825,4.753,7.4-1.3,2.251,1.276c.325,2.676.976,8.379-1.751,13.657-3.277,6.3-9.6,8.2-12.807,9.155L7.6,25.588c8.93-3.252,12.006-7.2,9.93-19.235L5.778,8.429l1.176,6.628-5.4.95L0,7.229,8.579,5.7Z" transform="translate(119.576 39.722)" fill="#fff"/>
          <path id="パス_10022" data-name="パス 10022" d="M2.826,0h.05A26.993,26.993,0,0,1,15.283,3a2.126,2.126,0,0,1,.857,3.02l-3,4.853a2.126,2.126,0,0,1-3.312.385,21.164,21.164,0,0,0-8.4-5.2,2.126,2.126,0,0,1-1.3-2.733L.828,1.4A2.126,2.126,0,0,1,2.826,0Zm8.426,5.84A20.963,20.963,0,0,0,9,5.082q.963.646,1.866,1.384ZM25.013,3.6a2.127,2.127,0,0,1,.941.22L27.93,4.8A2.126,2.126,0,0,1,29.02,7.334a33.367,33.367,0,0,1-7.409,13.475c-3.253,3.467-7.445,6.277-13.592,9.112a2.126,2.126,0,0,1-2.673-.771L1.995,24a2.126,2.126,0,0,1-.344-1.159v-.025a2.126,2.126,0,0,1,1.564-2.051C14.941,17.548,19.385,12.476,23.1,4.8a2.127,2.127,0,0,1,1.914-1.2ZM7.9,25.271a36.819,36.819,0,0,0,10.109-6.825A34.469,34.469,0,0,1,7.094,24.037Z" transform="translate(146.24 34.494)" fill="#e38ea0"/>
          <path id="パス_10023" data-name="パス 10023" d="M9.2,7.629A23.385,23.385,0,0,0,0,1.926L.7,0A24.9,24.9,0,0,1,12.206,2.776l-3,4.853ZM1.651,20.686c11.956-3.277,17.084-8.5,21.236-17.084l1.976.976C21.586,15.133,16.284,20.661,5,25.864L1.651,20.711Z" transform="translate(148.366 36.62)" fill="#fff"/>
        </g>
      </g>
    </g>
  </g>
</svg>
