<svg xmlns="http://www.w3.org/2000/svg" xmlns:xlink="http://www.w3.org/1999/xlink" width="187" height="94" viewBox="0 0 187 94">
  <defs>
    <clipPath id="clip-path">
      <rect id="長方形_1254" data-name="長方形 1254" width="187" height="94" transform="translate(39 2981.68)" fill="#fff" stroke="#707070" stroke-width="1"/>
    </clipPath>
    <filter id="合体_5" x="-8.648" y="-10.501" width="203.064" height="119.008" filterUnits="userSpaceOnUse">
      <feOffset input="SourceAlpha"/>
      <feGaussianBlur stdDeviation="4" result="blur"/>
      <feFlood flood-color="#e585ae"/>
      <feComposite operator="in" in2="blur"/>
      <feComposite in="SourceGraphic"/>
    </filter>
    <filter id="合体_6" x="-5.648" y="-7.501" width="197.064" height="113.008" filterUnits="userSpaceOnUse">
      <feOffset input="SourceAlpha"/>
      <feGaussianBlur stdDeviation="3" result="blur-2"/>
      <feFlood flood-color="#e585ae"/>
      <feComposite operator="in" in2="blur-2"/>
      <feComposite in="SourceGraphic"/>
    </filter>
  </defs>
  <g id="マスクグループ_2676" data-name="マスクグループ 2676" transform="translate(-39 -2981.68)" clip-path="url(#clip-path)">
    <g id="レイヤー_1" data-name="レイヤー 1" transform="translate(15.604 2988.846) rotate(-16)">
      <g id="グループ_3874" data-name="グループ 3874" transform="matrix(0.951, 0.309, -0.309, 0.951, 28.84, 0)">
        <g transform="matrix(1, -0.03, 0.03, 1, -4.3, 0.93)" filter="url(#合体_5)">
          <path id="合体_5-2" data-name="合体 5" d="M-1043.249-4405.271c7.06-3.4,14.2-8.642,13.365-22.216l-16.87,2.984-.389-2.257,21.026-3.708,2.565,2.125c-.467,14.43-6.488,20.009-18.245,24.967Zm35.816-6.592c8.071-2.88,12.276-6.773,11.549-15.961l-18.089,3.192-.389-2.258,22.371-3.945-.026.026,2.284.986a18.326,18.326,0,0,1-2.543,11.29c-3.711,5.761-10.459,7.734-13.73,8.667Zm31.741-4.542c9.265-3.373,12.457-7.474,10.3-19.958l-12.2,2.153,1.22,6.878-5.606.986-1.609-9.109,8.9-1.584-.933-5.243,5.657-.674.857,4.931,7.682-1.351,2.336,1.325c.337,2.777,1.011,8.693-1.817,14.17-3.4,6.54-9.966,8.512-13.288,9.5Zm23.695-8.278v-.026c12.406-3.4,17.726-8.824,22.034-17.725l2.051,1.011c-3.4,10.953-8.9,16.688-20.607,22.087Zm-74.927-7.916,1.375-1.427a26.793,26.793,0,0,1,4.2,2.984l-1.92,1.947A15.659,15.659,0,0,0-1026.924-4432.6Zm.8,2.129h.026l-.021,0Zm1.869-4.075,1.453-1.427a23.349,23.349,0,0,1,3.789,2.438l-1.816,1.921A16.792,16.792,0,0,0-1024.25-4434.546Zm11.757.648,18.4-3.245.39,2.258-18.4,3.244Zm-40.02-7.4a14.911,14.911,0,0,0,2.179-1.3l-1.557-8.876-1.764.311-.389-2.18,7.034-1.246,1.608,9.111c.572,3.191,1.688,4,6.1,3.218l9.474-1.661c.986-.181,6.722-1.375,7.89-1.712l-.364,2.646-19.776,3.479a9.35,9.35,0,0,1-5.658-.91,16.819,16.819,0,0,1-2.569,3.115Zm98.8-2.881.726-2a25.841,25.841,0,0,1,11.939,2.88l-3.115,5.035A24.266,24.266,0,0,0-953.709-4444.175Zm-90.6,0c2.855-2.206,3.4-4.542,2.88-8.825l-2.077.364-.311-1.739c-.961.648-1.116.728-1.377.908l-1.453-1.4c2.674-2.543,3.478-4.36,3.894-6.2l-3.815.675-.39-2.154,7.552-1.323-.337-1.87c-.415.1-5.424,1.117-5.762,1.169l-1.4-1.921c4.854-.882,11.783-2.646,16.04-4.93l3.114,2.725c-.182.286-6.437,1.739-6.722,1.816l.364,2.077,7.759-1.376.39,2.156-3.92.7c.675,1.089,1.792,2.569,5.5,4.308l-1.186,1.918a23.479,23.479,0,0,1-7.638-2.8l.467,2.6-5.294.935-.467-2.623a23.869,23.869,0,0,1-4.413,4l14.353-2.543a13.353,13.353,0,0,1-.079,3.375l3.348-.6a17.181,17.181,0,0,1,.182,6.437c-.493,2.258-1.764,2.467-5.217,3.089l-4.1.727-1.116-2.336a27.006,27.006,0,0,0,3.3-.261c1.842-.337,1.92-1.868,1.609-4.437l-3.66.648a12.781,12.781,0,0,0,.156-3.4l-1.687.286c.207,2.283.57,7.163-6.853,11.185Zm36.2-1.972c4.931-4.828,5.192-9.265,4.361-13.99l-2.493-14.119,13.964-2.465,4.047,23.021c.857,4.905-.336,5.27-4.152,5.944l-5.319.935-1.246-2.258a29.252,29.252,0,0,0,3.633-.363c1.791-.312,1.816-.675,1.557-2.207l-1.089-6.2-.026.026-3.088.545c-.468,6.825-6.255,10.849-8.411,12.354Zm9.369-19.128.26,1.454c.311,1.738.467,3.451.57,4.282l2.673-.467-1.011-5.71Zm-1.374-7.787.985,5.607,2.492-.441-.987-5.606Zm-19.492,1.142,11.965-2.1-.026.026,3.71,20.971-6.643,1.167.258,1.532-5.293.935Zm7.293,10.485,1.3,7.4,1.3-.233-1.3-7.4Zm-1.635-9.213,1.246,7.034,1.3-.233-1.246-7.034Zm33.272,18.946a32.155,32.155,0,0,0,2.569-7.475l2.49.208h-.025a50.552,50.552,0,0,1,.389,8.436Zm6.9-2.466-1.116-6.384,5.4-.961,1.012,5.787c.232,1.351.285,1.61,1.763,1.351l2.856-.494c1.4-.259,1.972-.337,1.816-3.737l-4.412,3.037-.026-.026a29.021,29.021,0,0,0-2.518-5.84l1.764-1.167c1.142.492,5.4,2.829,6.2,3.3l-.467.311a28.717,28.717,0,0,0,4.749.571c.209,4.542-2.569,5.036-4.23,5.321l-9.161,1.609a7.96,7.96,0,0,1-1.383.154C-972.886-4451.34-973.407-4452.045-973.771-4454.167Zm18.712.1.035-.028c-1.284-3.955-1.806-5.381-3.382-7.68l1.247-1.09a5.975,5.975,0,0,1-3.219-1.661,21.238,21.238,0,0,1-3.348,2.984l-2.05-1.22c.441-.467.517-.6.908-1.011l-9.239,1.635-1.22-6.93,9.552-1.687,1.167,6.644a21.48,21.48,0,0,0,1.947-2.959,26.538,26.538,0,0,1-3.867-9.473l-10.589,1.87.6,3.451c1.09,6.255-.935,10.07-3.582,13.056l-1.92-1.272c.57-1.947,1.194-4.205.207-9.861l-1.168-6.593,15.961-2.8c-.156-.7-.363-1.662-.415-1.973l-.233-1.35,5.5-.96s.389,2,.623,3.322l1.349-.233a9.26,9.26,0,0,0-1.453-2.518l1.946-1.427a34.352,34.352,0,0,1,4.619,1.765l-2.439,1.688,2.647-.468.389,2.179-6.644,1.169a20.555,20.555,0,0,0,.986,3.762,11.565,11.565,0,0,0,.337-3.347l5.5,1.324a28.021,28.021,0,0,1-3.011,7.136c.442.52.857.987,1.115.936.78-.131.468-2.363.39-2.985a13.232,13.232,0,0,0,3.166,1.427c.053,2.414.053,5.814-3.3,6.385a46.5,46.5,0,0,1,5.813,4.75l-4.9,4.021c.006.018.011.036.018.054Zm-15.624-13.548.442,2.569,1.09-.182-.441-2.569Zm-85.645,2.726,1.739-1.792a51.634,51.634,0,0,1,7.656,6.359l-4.516,4.413A43.241,43.241,0,0,0-1056.329-4464.886Zm112.611,5.761,3.063-.546-1.3-7.422a14.994,14.994,0,0,1-1.713,1.894l-2.025-1.4c1.064-2.182,2.258-4.62,1.064-11.446l-.779-4.438,12.328-2.181c-.312-.986-.415-1.4-.519-1.817s-.286-1.246-.338-1.633l5.631-.987.079.467c.207,1.142.441,2.077.648,2.984l2.932-.519a15.117,15.117,0,0,0-3.114-1.74l1.505-1.868a28.751,28.751,0,0,1,5.735.857l-1.868,2.335,3.815-.674.39,2.179-8.772,1.558a23.326,23.326,0,0,0,1.167,2.8,16.454,16.454,0,0,0,.649-2.647l5.866,1.039-.026.1a33.162,33.162,0,0,1-3.764,6.021c.961,1.063,1.792,1.453,2.155,1.4.753-.129.857-2.569.8-3.349a17.6,17.6,0,0,0,4.049.935c-.1,2.621-1.064,5.45-2.751,6.54l1.22,6.956,3.062-.545.389,2.18-29.2,5.139Zm7.319-7.268,1.038,5.866.985-.182-1.037-5.865Zm5.709-1.011,1.039,5.865,1.011-.182-1.037-5.866Zm5.814-1.038,1.038,5.865,1.038-.182-1.038-5.866Zm-16.584.674,10.823-1.894-1.687-1.168h-.026a4.68,4.68,0,0,1-2.908,1.3l-3.607.648-.961-1.894A17.628,17.628,0,0,1-941.46-4467.768Zm10.849-1.894,6.592-1.168a11.311,11.311,0,0,1-2.44-1.816A29.289,29.289,0,0,1-930.611-4469.662Zm-8.123-6.982v.027a14.1,14.1,0,0,1-.884,5.268h1.843a.977.977,0,0,0,.883-1.09,27.175,27.175,0,0,0-.468-4.437Zm6.825,5.114a20.878,20.878,0,0,0,3.245-3.582,25.547,25.547,0,0,1-3.739-7.319l-6.9,1.219.415,2.363,6.723-1.194C-931.416-4475.787-931.286-4472.88-931.908-4471.53Zm-93.658,14.427.018,0-.052.052Zm121.246-16.659c-1.168,2.077-2.129,4.1-2.543,4.905l-3.271-3.608c.727-.883,4.179-5.269,4.957-6.281-.1-.624-.622-3.634-.726-4.309-1.012.234-2.751.649-4.516,1.22l-.493-2.776c2.751-.573,3.763-.832,4.568-.988l-1.09-6.1,5.71-.6c.156,2.155.726,5.709,1.167,8.2,2.362-2.439,5.113-5.06,8.046-5.579,1.635-.286,4.645,0,5.346,3.971.233,1.375.856,8.331,1.142,9.862.311,1.816.493,2.465,1.479,2.283a4.1,4.1,0,0,0,2.283-1.842l2,1.531c-2.855,4.335-5.865,4.88-6.411,4.983-2.934.52-4.205-1.323-4.62-3.632-.232-1.325-.57-4.127-.752-5.554-.1-.935-.572-5.71-.6-5.971-.079-.362-.39-2.179-1.9-1.92-.935.155-2.751,1.532-5.45,5.19l2.7,15.365-5.5,1.038C-903.126-4466.651-903.905-4471.245-904.32-4473.762Zm-71.787.935,9.629-1.714.389,2.181-9.628,1.712Z" transform="translate(905.36 4527.92) rotate(2)" fill="#fff"/>
        </g>
        <g transform="matrix(1, -0.03, 0.03, 1, -4.3, 0.93)" filter="url(#合体_6)">
          <path id="合体_6-2" data-name="合体 6" d="M-1043.249-4405.271c7.06-3.4,14.2-8.642,13.365-22.216l-16.87,2.984-.389-2.257,21.026-3.708,2.565,2.125c-.467,14.43-6.488,20.009-18.245,24.967Zm35.816-6.592c8.071-2.88,12.276-6.773,11.549-15.961l-18.089,3.192-.389-2.258,22.371-3.945-.026.026,2.284.986a18.326,18.326,0,0,1-2.543,11.29c-3.711,5.761-10.459,7.734-13.73,8.667Zm31.741-4.542c9.265-3.373,12.457-7.474,10.3-19.958l-12.2,2.153,1.22,6.878-5.606.986-1.609-9.109,8.9-1.584-.933-5.243,5.657-.674.857,4.931,7.682-1.351,2.336,1.325c.337,2.777,1.011,8.693-1.817,14.17-3.4,6.54-9.966,8.512-13.288,9.5Zm23.695-8.278v-.026c12.406-3.4,17.726-8.824,22.034-17.725l2.051,1.011c-3.4,10.953-8.9,16.688-20.607,22.087Zm-74.927-7.916,1.375-1.427a26.793,26.793,0,0,1,4.2,2.984l-1.92,1.947A15.659,15.659,0,0,0-1026.924-4432.6Zm.8,2.129h.026l-.021,0Zm1.869-4.075,1.453-1.427a23.349,23.349,0,0,1,3.789,2.438l-1.816,1.921A16.792,16.792,0,0,0-1024.25-4434.546Zm11.757.648,18.4-3.245.39,2.258-18.4,3.244Zm-40.02-7.4a14.911,14.911,0,0,0,2.179-1.3l-1.557-8.876-1.764.311-.389-2.18,7.034-1.246,1.608,9.111c.572,3.191,1.688,4,6.1,3.218l9.474-1.661c.986-.181,6.722-1.375,7.89-1.712l-.364,2.646-19.776,3.479a9.35,9.35,0,0,1-5.658-.91,16.819,16.819,0,0,1-2.569,3.115Zm98.8-2.881.726-2a25.841,25.841,0,0,1,11.939,2.88l-3.115,5.035A24.266,24.266,0,0,0-953.709-4444.175Zm-90.6,0c2.855-2.206,3.4-4.542,2.88-8.825l-2.077.364-.311-1.739c-.961.648-1.116.728-1.377.908l-1.453-1.4c2.674-2.543,3.478-4.36,3.894-6.2l-3.815.675-.39-2.154,7.552-1.323-.337-1.87c-.415.1-5.424,1.117-5.762,1.169l-1.4-1.921c4.854-.882,11.783-2.646,16.04-4.93l3.114,2.725c-.182.286-6.437,1.739-6.722,1.816l.364,2.077,7.759-1.376.39,2.156-3.92.7c.675,1.089,1.792,2.569,5.5,4.308l-1.186,1.918a23.479,23.479,0,0,1-7.638-2.8l.467,2.6-5.294.935-.467-2.623a23.869,23.869,0,0,1-4.413,4l14.353-2.543a13.353,13.353,0,0,1-.079,3.375l3.348-.6a17.181,17.181,0,0,1,.182,6.437c-.493,2.258-1.764,2.467-5.217,3.089l-4.1.727-1.116-2.336a27.006,27.006,0,0,0,3.3-.261c1.842-.337,1.92-1.868,1.609-4.437l-3.66.648a12.781,12.781,0,0,0,.156-3.4l-1.687.286c.207,2.283.57,7.163-6.853,11.185Zm36.2-1.972c4.931-4.828,5.192-9.265,4.361-13.99l-2.493-14.119,13.964-2.465,4.047,23.021c.857,4.905-.336,5.27-4.152,5.944l-5.319.935-1.246-2.258a29.252,29.252,0,0,0,3.633-.363c1.791-.312,1.816-.675,1.557-2.207l-1.089-6.2-.026.026-3.088.545c-.468,6.825-6.255,10.849-8.411,12.354Zm9.369-19.128.26,1.454c.311,1.738.467,3.451.57,4.282l2.673-.467-1.011-5.71Zm-1.374-7.787.985,5.607,2.492-.441-.987-5.606Zm-19.492,1.142,11.965-2.1-.026.026,3.71,20.971-6.643,1.167.258,1.532-5.293.935Zm7.293,10.485,1.3,7.4,1.3-.233-1.3-7.4Zm-1.635-9.213,1.246,7.034,1.3-.233-1.246-7.034Zm33.272,18.946a32.155,32.155,0,0,0,2.569-7.475l2.49.208h-.025a50.552,50.552,0,0,1,.389,8.436Zm6.9-2.466-1.116-6.384,5.4-.961,1.012,5.787c.232,1.351.285,1.61,1.763,1.351l2.856-.494c1.4-.259,1.972-.337,1.816-3.737l-4.412,3.037-.026-.026a29.021,29.021,0,0,0-2.518-5.84l1.764-1.167c1.142.492,5.4,2.829,6.2,3.3l-.467.311a28.717,28.717,0,0,0,4.749.571c.209,4.542-2.569,5.036-4.23,5.321l-9.161,1.609a7.96,7.96,0,0,1-1.383.154C-972.886-4451.34-973.407-4452.045-973.771-4454.167Zm18.712.1.035-.028c-1.284-3.955-1.806-5.381-3.382-7.68l1.247-1.09a5.975,5.975,0,0,1-3.219-1.661,21.238,21.238,0,0,1-3.348,2.984l-2.05-1.22c.441-.467.517-.6.908-1.011l-9.239,1.635-1.22-6.93,9.552-1.687,1.167,6.644a21.48,21.48,0,0,0,1.947-2.959,26.538,26.538,0,0,1-3.867-9.473l-10.589,1.87.6,3.451c1.09,6.255-.935,10.07-3.582,13.056l-1.92-1.272c.57-1.947,1.194-4.205.207-9.861l-1.168-6.593,15.961-2.8c-.156-.7-.363-1.662-.415-1.973l-.233-1.35,5.5-.96s.389,2,.623,3.322l1.349-.233a9.26,9.26,0,0,0-1.453-2.518l1.946-1.427a34.352,34.352,0,0,1,4.619,1.765l-2.439,1.688,2.647-.468.389,2.179-6.644,1.169a20.555,20.555,0,0,0,.986,3.762,11.565,11.565,0,0,0,.337-3.347l5.5,1.324a28.021,28.021,0,0,1-3.011,7.136c.442.52.857.987,1.115.936.78-.131.468-2.363.39-2.985a13.232,13.232,0,0,0,3.166,1.427c.053,2.414.053,5.814-3.3,6.385a46.5,46.5,0,0,1,5.813,4.75l-4.9,4.021c.006.018.011.036.018.054Zm-15.624-13.548.442,2.569,1.09-.182-.441-2.569Zm-85.645,2.726,1.739-1.792a51.634,51.634,0,0,1,7.656,6.359l-4.516,4.413A43.241,43.241,0,0,0-1056.329-4464.886Zm112.611,5.761,3.063-.546-1.3-7.422a14.994,14.994,0,0,1-1.713,1.894l-2.025-1.4c1.064-2.182,2.258-4.62,1.064-11.446l-.779-4.438,12.328-2.181c-.312-.986-.415-1.4-.519-1.817s-.286-1.246-.338-1.633l5.631-.987.079.467c.207,1.142.441,2.077.648,2.984l2.932-.519a15.117,15.117,0,0,0-3.114-1.74l1.505-1.868a28.751,28.751,0,0,1,5.735.857l-1.868,2.335,3.815-.674.39,2.179-8.772,1.558a23.326,23.326,0,0,0,1.167,2.8,16.454,16.454,0,0,0,.649-2.647l5.866,1.039-.026.1a33.162,33.162,0,0,1-3.764,6.021c.961,1.063,1.792,1.453,2.155,1.4.753-.129.857-2.569.8-3.349a17.6,17.6,0,0,0,4.049.935c-.1,2.621-1.064,5.45-2.751,6.54l1.22,6.956,3.062-.545.389,2.18-29.2,5.139Zm7.319-7.268,1.038,5.866.985-.182-1.037-5.865Zm5.709-1.011,1.039,5.865,1.011-.182-1.037-5.866Zm5.814-1.038,1.038,5.865,1.038-.182-1.038-5.866Zm-16.584.674,10.823-1.894-1.687-1.168h-.026a4.68,4.68,0,0,1-2.908,1.3l-3.607.648-.961-1.894A17.628,17.628,0,0,1-941.46-4467.768Zm10.849-1.894,6.592-1.168a11.311,11.311,0,0,1-2.44-1.816A29.289,29.289,0,0,1-930.611-4469.662Zm-8.123-6.982v.027a14.1,14.1,0,0,1-.884,5.268h1.843a.977.977,0,0,0,.883-1.09,27.175,27.175,0,0,0-.468-4.437Zm6.825,5.114a20.878,20.878,0,0,0,3.245-3.582,25.547,25.547,0,0,1-3.739-7.319l-6.9,1.219.415,2.363,6.723-1.194C-931.416-4475.787-931.286-4472.88-931.908-4471.53Zm-93.658,14.427.018,0-.052.052Zm121.246-16.659c-1.168,2.077-2.129,4.1-2.543,4.905l-3.271-3.608c.727-.883,4.179-5.269,4.957-6.281-.1-.624-.622-3.634-.726-4.309-1.012.234-2.751.649-4.516,1.22l-.493-2.776c2.751-.573,3.763-.832,4.568-.988l-1.09-6.1,5.71-.6c.156,2.155.726,5.709,1.167,8.2,2.362-2.439,5.113-5.06,8.046-5.579,1.635-.286,4.645,0,5.346,3.971.233,1.375.856,8.331,1.142,9.862.311,1.816.493,2.465,1.479,2.283a4.1,4.1,0,0,0,2.283-1.842l2,1.531c-2.855,4.335-5.865,4.88-6.411,4.983-2.934.52-4.205-1.323-4.62-3.632-.232-1.325-.57-4.127-.752-5.554-.1-.935-.572-5.71-.6-5.971-.079-.362-.39-2.179-1.9-1.92-.935.155-2.751,1.532-5.45,5.19l2.7,15.365-5.5,1.038C-903.126-4466.651-903.905-4471.245-904.32-4473.762Zm-71.787.935,9.629-1.714.389,2.181-9.628,1.712Z" transform="translate(905.36 4527.92) rotate(2)" fill="#fff"/>
        </g>
      </g>
    </g>
  </g>
</svg>
