<?xml version="1.0" encoding="UTF-8"?>
<svg id="_レイヤー_2" data-name="レイヤー 2" xmlns="http://www.w3.org/2000/svg" viewBox="0 0 251.55 65.48">
  <defs>
    <style>
      .cls-1 {
        fill: #231815;
      }
    </style>
  </defs>
  <g id="image">
    <g>
      <g>
        <path class="cls-1" d="m203.03,4.02c.64.25,1.56.7,2.38,1.27l-.44.86c-.67-.51-1.23-.85-2.34-1.33l.4-.8Zm8.01,1.17c-.65.92-1.47,2.09-3.14,3.47-1.77,1.47-2.99,1.88-4.11,2.26l-.58-.89c.92-.26,2.07-.58,3.79-1.88,1.87-1.41,2.69-2.65,3.4-3.73l.64.77Zm-6.74-3.88c.71.28,1.57.72,2.34,1.27l-.44.83c-.52-.41-1.06-.79-2.31-1.33l.4-.77Z"/>
        <path class="cls-1" d="m220.32,5.19s.2-.05.38-.31l.56.31c-.45,1.08-.92,2.15-1.48,3.17l-.69-.27c.45-.71.9-1.6,1.15-2.19l-2.84.62.92,4.69-.73.08-.9-4.65-2.56.56-.15-.65,2.59-.54-.44-2.19.57-.06c.3-.02.39-.02.39.07,0,.05-.17.21-.19.25l.38,1.77,3.04-.65Z"/>
        <path class="cls-1" d="m224.94,3.41v-.84h6.53c.09,0,.28-.08.53-.21l.89.77c-.3.3-.33.32-.4.5-.91,3.19-1.66,4.39-3.16,5.62-.72.59-1.28.91-2.6,1.5l-.83-.8c.98-.34,2.24-.78,3.49-2.04,1.53-1.53,1.83-3.06,2.12-4.5h-6.57Zm7.55-1.75c0-.65.56-1.15,1.17-1.15s1.15.52,1.15,1.15-.52,1.16-1.15,1.16-1.17-.52-1.17-1.16Zm1.79,0c0-.37-.28-.63-.63-.63-.32,0-.64.25-.64.63,0,.34.27.64.65.64.34,0,.62-.28.62-.64Z"/>
        <path class="cls-1" d="m246.37,5.56c-1.33,1.33-2.77,2.77-7.76,4.57-.01.02-.14.31-.21.31-.09,0-.15-.14-.22-.3l-.4-.97c1.17-.21,2.46-.44,4.64-1.68,2.06-1.16,2.89-2.06,3.56-2.79l.4.86Zm-6.22-.98c-.58-.73-1.25-1.38-1.95-2.01l.69-.67c.37.31,1.37,1.2,2.06,2.07l-.79.62Z"/>
      </g>
      <g>
        <path class="cls-1" d="m153.76,19.14c-5.52-.56-15.29-.44-18.75-.38h-6.94v.64h1.55c3.46,0,3.28,2.81,3.28,7.34v30.76s.18,7.34-3.28,7.34h-1.55v.65h18.58v-.64h-1.55c-3.46,0-3.28-2.81-3.28-7.34v-8.57c2.37,1.6,5.59,2.6,8.52,2.77,9.9.56,16.81-5.5,16.38-17.35-.32-8.64-5.08-14.41-12.96-15.21Zm-3.94,31.19c-4.44.35-7.99-4.01-7.99-11.69v-18.71h3.89c8.48,0,12.59,6.52,12.59,16.42,0,5.74-2.04,13.47-8.49,13.98Z"/>
        <path class="cls-1" d="m88.74,44.41v-15.42c0-7.93-4.9-12.06-10.76-12.06-5.27,0-9.93,3.9-11.89,6.65v-13.17s-.18-7.34,3.28-7.34h1.55v-.65h-18.58v.64h1.55c3.46,0,3.28,2.81,3.28,7.34v22.21c-4.83,5.69-13.65,15.65-25.58,16.94-13.97,1.51-21.38-7.54-21.99-21.84.17-14.21,4.16-24.76,16.18-25.58,10.58-.72,15.11,4.82,17.98,12.27h.86V6.32h0s0-6.32,0-6.32h-.65l-.12,5.48C38.1,1.66,32.63.79,27.56.79h0C11.16.8,0,10.47,0,26.2c0,9.7,4.25,17.1,11.36,21.35,6.15,4.21,14.23,4.82,22.58,3.11,10.66-2.19,18.62-10.97,23.24-16.48v8.91s.18,7.34-3.28,7.34h-1.55v.65h18.58v-.64h-1.55c-3.46,0-3.28-2.81-3.28-7.34v-17.66c2.04-3.15,5.23-6.17,7.83-6.31,5.47-.28,5.92,6.7,5.92,11.61v13.67c-.01,4.51.16,6.07-3.28,6.07h-1.54v.64h18.53v-.64h-1.54c-3.45,0-3.27-1.56-3.27-6.07Z"/>
        <path class="cls-1" d="m250,50.47c-3.46,0-3.28-2.81-3.28-7.34v-14.24c0-7.38-6.04-11.16-11.92-11.16-10.08,0-16.61,8.2-18.95,10.16-.83.69-1.4,1.24-1.81,1.72v-2.99s-.18-7.34,3.28-7.34h1.55v-.65h-18.58v.64h1.55c3.46,0,3.28,2.81,3.28,7.34v12.2c-.56.62-1.23,1.32-2.08,2.12-2.02,1.92-8.94,8.74-15.51,8.74-5.86,0-6.15-5.82-6.17-11.23v-11.84c0-4.52-.18-7.34,3.28-7.34h1.55v-.65h-18.58v.64h1.55c3.46,0,3.28,2.81,3.28,7.34v14.24c0,7.38,6.04,11.16,11.92,11.16,10.08,0,16.61-8.2,18.95-10.16.83-.69,1.4-1.24,1.81-1.72v2.99s.18,7.34-3.28,7.34h-1.55v.65h18.58s0-.64,0-.64h-1.55c-3.46,0-3.28-2.81-3.28-7.34v-12.2c.56-.62,1.23-1.32,2.08-2.12,2.02-1.92,8.94-8.74,15.51-8.74,5.86,0,6.15,5.82,6.17,11.23v11.84c0,4.52.18,7.34-3.28,7.34h-1.55v.65h18.58v-.64h-1.55Z"/>
        <path class="cls-1" d="m112.23,50.48h-1.54v.64h18.53v-.64h-1.54c-3.45,0-3.27-1.56-3.27-6.07v-14.59c0-7.67-2.97-12.83-12.16-12.83-6.18,0-10.23,3.92-11.87,5.64-1.22,1.27-2.27,1.18-3.3.03-.62-.68-1.81-2.38-2.32-3.08l-.75.12c1.78,3.17,3.96,6.86,3.96,6.86l.64.14c3.02-4.91,7.66-7.26,11.62-6.58,4.96.85,5.29,4.68,5.29,8.99l-7.79,2.6c-.74.23-4.02,1.64-4.02,1.64-4.57,1.9-8.63,4.42-8.63,8.97,0,5.28,3.95,8.24,8.66,8.24,5.35,0,9.88-3.9,11.78-10.58v4.41c-.01,4.51.16,6.07-3.28,6.07Zm-5.32-4.49c-2.93,0-5.92-1.7-5.92-5.85,0-5.22,4.54-6.48,8.91-8.18l5.61-1.95v1.64c-.1,8.83-2.33,14.34-8.6,14.34Z"/>
      </g>
    </g>
  </g>
</svg>