<?xml version="1.0" encoding="utf-8"?>
<!-- Generator: Adobe Illustrator 26.5.0, SVG Export Plug-In . SVG Version: 6.00 Build 0)  -->
<svg version="1.1" id="レイヤー_1" xmlns="http://www.w3.org/2000/svg" xmlns:xlink="http://www.w3.org/1999/xlink" x="0px"
	 y="0px" viewBox="0 0 1500 350" style="enable-background:new 0 0 1500 350;" xml:space="preserve">
<style type="text/css">
	.st0{fill:#595757;}
</style>
<path class="st0" d="M67.41,181.61V20.36H0V3.44h153.7v16.92H86.56v161.25H67.41z"/>
<path class="st0" d="M303.35,185.04c-57.17,0-86.29-44.41-86.29-92.78C217.06,43.88,246.18,0,303.35,0
	c57.17,0,86.29,43.88,86.29,92.26C389.64,140.63,360.52,185.04,303.35,185.04z M303.35,16.39c-43.95,0-66.61,36.22-66.61,76.13
	c0,39.39,22.65,76.13,66.61,76.13s66.6-36.21,66.6-76.13C369.95,53.13,347.31,16.39,303.35,16.39z"/>
<path class="st0" d="M541.17,114.99h-44.76v66.61h-19.15V3.44h64.18c35.86,0,60.13,21.15,60.13,54.98
	C601.57,93.58,579.19,114.99,541.17,114.99z M540.63,19.56h-44.22V98.6h43.95c27.77,0,42.06-14.28,42.06-39.65
	C582.43,35.42,565.98,19.56,540.63,19.56z"/>
<path class="st0" d="M810.81,181.61l-22.11-54.72h-79.55l-21.84,54.72h-21.04L741.24,0.79h16.45l74.43,180.81H810.81z
	 M715.62,110.76h66.61l-33.44-82.74L715.62,110.76z"/>
<path class="st0" d="M1023.28,181.61l-52.04-74.81h-39.1v74.81h-19.15V3.44h65.26c31.01,0,56.36,18.5,56.36,50.75
	c0,29.6-19.42,46.26-42.6,49.96l55.28,77.45H1023.28z M977.44,19.56h-45.3v71.11h43.41c22.92,0,39.91-11.37,39.91-36.22
	C1015.46,32.78,998.74,19.56,977.44,19.56z"/>
<path class="st0" d="M1204.74,181.61h-65.79V3.44h65.79c59.59,0,87.1,40.71,87.1,88.82
	C1291.84,141.43,1262.45,181.61,1204.74,181.61z M1203.4,19.83h-45.3v145.39h45.3c45.57,0,68.76-30.4,68.76-72.7
	C1272.16,48.38,1245.46,19.83,1203.4,19.83z"/>
<path class="st0" d="M1436.09,185.04c-26.43,0-47.73-8.19-65.53-28.55l14.29-12.95c12.41,15.6,28.58,25.11,51.77,25.11
	c28.05,0,43.42-12.16,43.42-30.13c0-52.08-100.85-28.55-100.85-90.67c0-24.59,16.99-47.85,58.51-47.85
	c25.08,0,43.69,7.67,60.67,27.23l-13.48,12.43c-11.59-15.07-26.7-23.27-46.65-23.27c-26.97,0-39.1,11.9-39.1,28.55
	c0,47.05,100.85,27.23,100.85,90.14C1500,167.59,1472.49,185.04,1436.09,185.04z"/>
<path class="st0" d="M27.06,350C8.55,350,0,335.11,0,319.61c0-15.67,8.55-30.57,27.06-30.57c9.71,0,16.56,3.75,21.64,9.67
	l-4.64,4.01c-4.71-5.84-10.23-8.27-16.81-8.27c-14.34,0-20.74,12.62-20.74,25.08c0,12.45,6.41,25.08,20.74,25.08
	c6.58,0,12.11-2.44,16.81-8.27l4.64,4.01C43.62,346.25,36.77,350,27.06,350z"/>
<path class="st0" d="M109.15,350c-18.87,0-28.48-14.63-28.48-30.56c0-15.94,9.61-30.4,28.48-30.4s28.48,14.46,28.48,30.4
	C137.64,335.37,128.03,350,109.15,350z M109.15,294.45c-14.51,0-21.98,11.93-21.98,25.08c0,12.97,7.48,25.08,21.98,25.08
	s22-11.93,22-25.08C131.15,306.55,123.66,294.45,109.15,294.45z"/>
<path class="st0" d="M173.15,348.87v-58.69h6.32v53.11h31.6v5.57H173.15z"/>
<path class="st0" d="M269.75,350c-18.87,0-28.48-14.63-28.48-30.56c0-15.94,9.61-30.4,28.48-30.4s28.48,14.46,28.48,30.4
	C298.24,335.37,288.62,350,269.75,350z M269.75,294.45c-14.51,0-21.98,11.93-21.98,25.08c0,12.97,7.48,25.08,21.98,25.08
	s22-11.93,22-25.08C291.75,306.55,284.26,294.45,269.75,294.45z"/>
<path class="st0" d="M370.16,348.87l-17.18-24.65h-12.91v24.65h-6.32v-58.69h21.53c10.25,0,18.61,6.09,18.61,16.72
	c0,9.75-6.41,15.23-14.06,16.46l18.24,25.51H370.16z M355.02,295.49h-14.95v23.42h14.34c7.57,0,13.17-3.75,13.17-11.93
	C367.57,299.84,362.06,295.49,355.02,295.49z"/>
<path class="st0" d="M478.45,350c-18.51,0-27.06-14.89-27.06-30.39c0-15.67,8.55-30.57,27.06-30.57c9.71,0,16.56,3.75,21.64,9.67
	l-4.64,4.01c-4.71-5.84-10.23-8.27-16.81-8.27c-14.34,0-20.74,12.62-20.74,25.08c0,12.45,6.41,25.08,20.74,25.08
	c6.58,0,12.11-2.44,16.81-8.27l4.64,4.01C495.01,346.25,488.15,350,478.45,350z"/>
<path class="st0" d="M560.54,350c-18.87,0-28.48-14.63-28.48-30.56c0-15.94,9.61-30.4,28.48-30.4c18.87,0,28.48,14.46,28.48,30.4
	C589.02,335.37,579.41,350,560.54,350z M560.54,294.45c-14.51,0-21.98,11.93-21.98,25.08c0,12.97,7.48,25.08,21.98,25.08
	c14.51,0,22-11.93,22-25.08C582.54,306.55,575.05,294.45,560.54,294.45z"/>
<path class="st0" d="M667.88,349.65l-37.2-48.15v47.37h-6.15v-59.48h4.63l37.29,48.42v-47.63h6.15v59.47H667.88z"/>
<path class="st0" d="M728.16,348.87v-53.11h-22.25v-5.57h50.73v5.57h-22.17v53.11H728.16z"/>
<path class="st0" d="M829.64,348.87l-7.29-18.03h-26.26l-7.21,18.03h-6.95l24.75-59.56h5.43l24.57,59.56H829.64z M798.23,325.53
	h21.98l-11.04-27.25L798.23,325.53z"/>
<path class="st0" d="M891.27,350c-18.51,0-27.06-14.89-27.06-30.39c0-15.67,8.55-30.57,27.06-30.57c9.71,0,16.56,3.75,21.63,9.67
	l-4.61,4.01c-4.72-5.84-10.25-8.27-16.83-8.27c-14.34,0-20.74,12.62-20.74,25.08c0,12.45,6.41,25.08,20.74,25.08
	c6.58,0,12.11-2.44,16.83-8.27l4.61,4.01C907.83,346.25,900.98,350,891.27,350z"/>
<path class="st0" d="M964.91,348.87v-53.11h-22.26v-5.57h50.75v5.57h-22.17v53.11H964.91z"/>
<path class="st0" d="M1068.94,348.87v-58.69h6.32v53.11h31.61v5.57H1068.94z"/>
<path class="st0" d="M1142.83,348.87v-58.69h35.7v5.57h-29.38v20.02h26.7v5.4h-26.7v22.12h31.16v5.57H1142.83z"/>
<path class="st0" d="M1261.86,349.65l-37.2-48.15v47.37h-6.15v-59.48h4.63l37.29,48.42v-47.63h6.15v59.47H1261.86z"/>
<path class="st0" d="M1324.81,350c-8.73,0-15.76-2.69-21.64-9.4l4.72-4.26c4.1,5.14,9.43,8.27,17.09,8.27
	c9.26,0,14.34-4.01,14.34-9.93c0-17.15-33.3-9.4-33.3-29.86c0-8.1,5.6-15.77,19.32-15.77c8.28,0,14.43,2.53,20.03,8.97l-4.46,4.09
	c-3.82-4.96-8.81-7.66-15.39-7.66c-8.92,0-12.91,3.92-12.91,9.4c0,15.5,33.28,8.96,33.28,29.69
	C1345.89,344.26,1336.82,350,1324.81,350z"/>
<path class="st0" d="M1384.55,348.87v-58.69h35.7v5.57h-29.38v20.02h26.7v5.4h-26.7v22.12h31.16v5.57H1384.55z"/>
<path class="st0" d="M1478.9,350c-8.72,0-15.74-2.69-21.63-9.4l4.72-4.26c4.09,5.14,9.44,8.27,17.09,8.27
	c9.26,0,14.34-4.01,14.34-9.93c0-17.15-33.3-9.4-33.3-29.86c0-8.1,5.62-15.77,19.32-15.77c8.28,0,14.41,2.53,20.03,8.97l-4.46,4.09
	c-3.82-4.96-8.81-7.66-15.4-7.66c-8.89,0-12.9,3.92-12.9,9.4c0,15.5,33.28,8.96,33.28,29.69C1500,344.26,1490.93,350,1478.9,350z"/>
</svg>
