<svg xmlns="http://www.w3.org/2000/svg" width="1249" height="64.541" viewBox="0 0 1249 64.541">
  <g id="グループ_904" data-name="グループ 904" transform="translate(-342.42 -3150.38)">
    <rect id="長方形_187" data-name="長方形 187" width="282.62" height="61.541" rx="30.771" transform="translate(1048.255 3151.88)" fill="none" stroke="#b5825f" stroke-miterlimit="10" stroke-width="3"/>
    <path id="パス_3275" data-name="パス 3275" d="M1356.69,2101.646a.489.489,0,0,0-.236.067c-1.063.853-5.512,4.144-6.643,4.144-.928,0-2.051-1.814-2.051-2.363,0-.414.65-.718,1.03-.9a38.949,38.949,0,0,0,10.45-7.74,18.419,18.419,0,0,0,2.3-2.912.749.749,0,0,1,.65-.447c.346,0,2.777.583,3.283.718.27.067.65.236.65.582,0,.2-.2.346-.38.414a.316.316,0,0,0-.169.236.175.175,0,0,0,.068.135,33.777,33.777,0,0,0,12.332,9.006c.312.135.785.313.785.718,0,.481-1.063,2.6-1.781,2.6-1.03,0-6.128-3.461-7.192-4.212a.291.291,0,0,0-.2-.1c-.2,0-.278.169-.312.346-.034.515-.1.785-.684.785-.819,0-1.781-.068-2.743-.068H1360.4c-.928,0-1.95.068-2.709.068-.583,0-.684-.237-.718-.785-.034-.169-.1-.3-.27-.3Zm.169,19.414c-.448,0-.616.2-.616.65v.1c0,.785-.549.751-1.916.751s-1.815,0-1.815-.751c0-.448.1-1.435.1-2.127v-5.031c0-.65-.068-1.333-.068-1.984,0-1.333,1.165-1.469,2.228-1.469.962,0,1.916.068,2.878.068h6.854a1.4,1.4,0,0,0,1.4-.718,15.639,15.639,0,0,0,1.646-2.777c0-.448-.785-.38-1.1-.38h-8.871c-1.266,0-2.6.1-3.63.1-.819,0-.785-.447-.785-1.578,0-.962,0-1.4.785-1.4.853,0,2.3.1,3.63.1h9.656c1,0,1.95-.068,2.946-.068a2.324,2.324,0,0,1,2.161,1.579c0,.751-1.849,3.6-2.33,4.347a.478.478,0,0,0-.1.313c0,.3.236.413.515.413h.962c1.03,0,2.161.169,2.161,1.435,0,.684-.068,1.334-.068,2.017v5.031c0,.448.1,1.612.1,2.094,0,.819-.515.785-1.849.785s-1.815.034-1.815-.751v-.1c0-.448-.2-.65-.616-.65h-12.433Zm13.117-6.027a.99.99,0,0,0-.962-.962H1357.1a.985.985,0,0,0-.962.962v2.262a.984.984,0,0,0,.962.962h11.918a.99.99,0,0,0,.962-.962Zm-6.845-19.177a.877.877,0,0,0-.616.312,41.721,41.721,0,0,1-3.25,3.216.5.5,0,0,0-.135.312c0,.237.169.313.38.346h7.192c.169-.034.38-.1.38-.346a.384.384,0,0,0-.1-.27,36.126,36.126,0,0,1-3.216-3.216.956.956,0,0,0-.616-.346Z" transform="translate(-258.053 1076.097)" fill="#b5825f"/>
    <path id="パス_3276" data-name="パス 3276" d="M1396,2103.374c-1.131,0-2.262.068-3.393.068-.785,0-.785-.414-.785-1.747s0-1.781.785-1.781c1.131,0,2.262.068,3.393.068h5.309a1.552,1.552,0,0,1,1.511.65,2.012,2.012,0,0,1,.481,1.3,10.636,10.636,0,0,1-.515,2.228,31.686,31.686,0,0,1-4.347,9.175c-.751,1.063-4.077,5.174-5.309,5.174-.718,0-2.363-1.3-2.363-2.017,0-.346.346-.583.616-.785a24.087,24.087,0,0,0,5.689-6.778c.481-.853,2.051-4.144,2.051-5,0-.616-.616-.549-1.511-.549H1396Zm14.9.346a.789.789,0,0,0,.549-.2,36.628,36.628,0,0,0,4.963-5.141c.135-.135.312-.38.515-.38a18.492,18.492,0,0,1,2.878,1.916c.169.135.515.448.515.684a.456.456,0,0,1-.447.447c-.169,0-.312-.033-.481-.033a.707.707,0,0,0-.515.2,61.43,61.43,0,0,1-5.681,5.241.988.988,0,0,0-.414.718,1.087,1.087,0,0,0,.2.549,31.191,31.191,0,0,0,7.841,7.74c.27.169.65.414.65.751,0,.515-1.511,2.33-2.364,2.33-.65,0-2.709-1.815-3.283-2.33a33.069,33.069,0,0,1-7.5-10.205c-.067-.067-.1-.135-.2-.135-.135,0-.2.1-.2.236v9.9c0,.928.068,1.848.068,2.743,0,3.663-3.216,3.866-6.094,3.866-.785,0-1.435,0-1.747-.718a8.575,8.575,0,0,1-.38-2.262c0-.548.169-.853.751-.853.414,0,1.2.1,1.95.1,2.051,0,1.983-.684,1.983-2.777v-19.692c0-1.2-.034-2.431-.135-3.461,0-.1-.034-.312-.034-.448,0-.38.236-.481.583-.481.582,0,2.6.169,3.25.236.27.034.819.068.819.448,0,.236-.236.346-.549.549-.414.312-.481.928-.481,2.093v1.916a3.152,3.152,0,0,0,.2,1.232,45.447,45.447,0,0,0,2.161,4.794c.169.2.346.414.616.414Z" transform="translate(-264.759 1076.014)" fill="#b5825f"/>
    <path id="パス_3277" data-name="パス 3277" d="M1451.988,2113.5h7.538c1.334,0,2.709-.1,4.043-.1.819,0,.819.346.819,1.612s0,1.612-.819,1.612c-1.334,0-2.709-.068-4.043-.068h-7.571c-.65,0-.928.27-.928.928v.65c0,1.165.067,2.364.067,3.528,0,1.1-.413,1.131-1.815,1.131s-1.848-.034-1.848-1.1c0-1.2.067-2.4.067-3.562v-.65c0-.65-.278-.928-.928-.928H1439c-1.333,0-2.676.068-4.043.068-.819,0-.785-.346-.785-1.612s0-1.612.785-1.612c1.368,0,2.709.1,4.043.1h7.571c.616,0,.886-.27.928-.928-.034-.3-.1-1.03-.1-1.131,0-.346.236-.481.582-.481.414,0,2.811.237,3.326.27.279.034.582.1.582.414,0,.27-.236.38-.447.515a.845.845,0,0,0-.38.684c.068.515.447.65.928.65Zm-9.521-7.023c0,.718-.068.819-.515,1.03-1.477.718-2.811,1.3-4.49,2.017-.549.236-.717.27-.852.684-.068.2-.2.38-.413.38-.27,0-.38-.27-.549-.65-.312-.616-.549-1.266-.819-1.916a1.325,1.325,0,0,1-.169-.515c0-.27.2-.27.718-.413a43.5,43.5,0,0,0,5.824-2.33,1.364,1.364,0,0,1,.481-.169C1442.332,2104.592,1442.467,2106.027,1442.467,2106.475Zm.169,4.929c-.1.2-.236.38-.481.38-.312,0-.447-.38-.515-.616a23.014,23.014,0,0,1-.65-2.465c0-.346.236-.38,1.781-.414.819,0,1.4.068,2.017-.616.169-.2.38-.413.549-.616a1.076,1.076,0,0,0,.236-.616.817.817,0,0,0-.346-.65c-1-.853-2.017-1.612-3.081-2.364-.2-.135-.616-.38-.616-.684,0-.38.684-1.233.928-1.545.38-.447.583-.481.819-.414a1.573,1.573,0,0,0,.549.1.678.678,0,0,0,.583-.3c.38-.582.717-1.165,1.064-1.747a.552.552,0,0,0,.1-.312c0-.38-.27-.481-.583-.515h-5.41c-1.368,0-2.709.067-4.077.067-.819,0-.785-.346-.785-1.544s-.034-1.579.819-1.579c1.333,0,2.667.068,4.043.068h6.955c.616,0,.928-.236.962-.886-.034-.515-.067-1.03-.135-1.511a.838.838,0,0,1-.034-.27c0-.38.38-.414.65-.414.616,0,2.4.135,3.081.2.38.034.785.068.785.414,0,.27-.236.38-.447.481-.38.2-.346.549-.346,1.1,0,.65.313.886.928.886h7.057c1.333,0,2.709-.068,4.043-.068.819,0,.819.38.819,1.579s0,1.544-.819,1.544c-1.334,0-2.709-.067-4.043-.067h-10.2c-.068,0-.135.034-.135.1a.073.073,0,0,0,.067.067c.236.135.785.414.785.684s-.346.27-.515.27c-.236.034-.27.034-.448.27-.65.928-1.4,2.094-2.127,2.979a.627.627,0,0,0-.169.414c0,.177.135.3.236.447a3.024,3.024,0,0,1,.413.346,1.077,1.077,0,0,0,.616.236.817.817,0,0,0,.65-.346c.717-1,1.367-1.916,2.017-2.979.1-.135.2-.312.414-.312.27,0,2.946,1.477,2.946,1.848s-.413.413-.65.413c-.38,0-.346.034-.549.237a57.668,57.668,0,0,1-3.765,4.592.645.645,0,0,0-.1.27.338.338,0,0,0,.38.346c.962-.1,1.95-.169,2.912-.236.278-.068.515-.2.515-.515,0-.236-.236-.481-.38-.684a3.147,3.147,0,0,1-.481-.962c0-.515,1.612-1.2,2.017-1.2a.891.891,0,0,1,.751.549c.684.962,1.3,1.848,1.882,2.844a15.615,15.615,0,0,1,1.477,2.811c0,.549-1.68,1.266-2.194,1.266-.481,0-.582-.448-.819-.887a1.037,1.037,0,0,0-1-.684h-.236c-3.461.38-6.888.684-10.34.928-.2,0-.27.1-.38.27Zm-3.495-7.225c-.312,0-1-.785-1.2-1.03-.481-.481-1.646-1.469-2.195-1.916-.2-.135-.582-.38-.582-.684,0-.27,1.3-1.849,1.848-1.849.447,0,1.848,1.3,2.262,1.68.312.27,1.714,1.469,1.714,1.848C1440.99,2102.744,1439.758,2104.179,1439.141,2104.179Zm24.005-2.634a.807.807,0,0,1-.3-.067,1.013,1.013,0,0,0-.279-.068.9.9,0,0,0-.38.135c-.928.447-4.448,2.161-5.309,2.161s-1.511-1.747-1.511-2.051c0-.447.481-.549,1.1-.751a24.532,24.532,0,0,0,4.76-2.195,1.218,1.218,0,0,1,.481-.2c.413,0,1.747,2.6,1.747,2.743a.293.293,0,0,1-.312.313Zm-1.95,4.76c.448.236,2.262,1.131,2.262,1.646,0,.414-1.03,2.085-1.578,2.085a1.3,1.3,0,0,1-.717-.38,49.105,49.105,0,0,0-4.794-2.667c-.346-.169-.785-.346-.785-.751,0-.237.65-1.95,1.232-1.95A31.009,31.009,0,0,1,1461.2,2106.306Z" transform="translate(-271.527 1076.028)" fill="#b5825f"/>
    <path id="パス_3278" data-name="パス 3278" d="M1500.579,2107.822c0,.1.169.2.515.313a5.364,5.364,0,0,1,3.942,5.41c0,3.8-2.811,7.605-10.272,7.605a16.066,16.066,0,0,1-6.406-1.233c-.515-.236-.718-.447-.718-.785a1.571,1.571,0,0,1,.135-.616l.582-1.68c.169-.481.312-.718.582-.718a1.724,1.724,0,0,1,.65.27,10.448,10.448,0,0,0,5.309,1.333c4.043,0,6.061-2.093,6.061-4.245,0-2.364-1.984-3.562-6.406-3.562-.751,0-1.95.034-2.3.034-.895,0-1.03-.135-1.03-1v-1.544c0-.886.135-1.03,1.03-1.03.38,0,1.3.034,1.95.034,4.144,0,5.689-1.469,5.689-3.359s-1.68-3.013-4.313-3.013a9.011,9.011,0,0,0-4.794,1.334,1.471,1.471,0,0,1-.684.312c-.236,0-.414-.2-.616-.684l-.751-1.579a1.821,1.821,0,0,1-.2-.683c0-.312.2-.481.684-.718a14.744,14.744,0,0,1,6.778-1.612c5.613,0,7.909,2.845,7.909,5.925a5.56,5.56,0,0,1-2.878,5.106c-.279.135-.447.271-.447.38Z" transform="translate(-279.864 1075.331)" fill="#b5825f"/>
    <path id="パス_3279" data-name="パス 3279" d="M1529.28,2108.04c0,.135.169.27.515.447,2.532,1.266,4.558,3.013,4.558,6.06,0,3.908-3.182,6.677-9.969,6.677-5.411,0-9.285-2.33-9.285-6.373,0-2.6,1.545-4.727,4.381-6.162.346-.168.515-.312.515-.447s-.169-.27-.481-.481c-1.95-1.165-3.393-2.811-3.393-5.343,0-3.292,3.047-6.128,8.871-6.128,5.309,0,8.39,2.532,8.39,5.824,0,2.262-1.334,4.111-3.63,5.444-.312.169-.481.346-.481.481Zm-5.107,1.882a2.376,2.376,0,0,0-.962.237c-2.6,1.1-4.144,2.464-4.144,4.415,0,2.161,2.364,3.325,5.478,3.325,3.427,0,5.757-1.232,5.757-3.461,0-2.094-2.127-3.148-5.208-4.313a2.722,2.722,0,0,0-.928-.2Zm.684-10.2c-2.676,0-4.693,1.063-4.693,2.811s1.747,2.743,4.111,3.7a2.88,2.88,0,0,0,.928.236,2.46,2.46,0,0,0,.962-.27c2.085-1,3.25-2.194,3.25-3.73,0-1.713-1.95-2.743-4.558-2.743Z" transform="translate(-284.146 1075.35)" fill="#b5825f"/>
    <path id="パス_3280" data-name="パス 3280" d="M1556.61,2103.27c0,4.727-2.634,7.428-6.3,7.428-3.359,0-5.993-2.5-5.993-6.887s2.4-7.36,6.373-7.36c3.325,0,5.925,2.431,5.925,6.812Zm-8.837.616c0,2.4,1.1,3.664,2.566,3.664,1.713,0,2.844-1.469,2.844-4.077,0-2.364-1.063-3.7-2.6-3.7-1.815,0-2.811,1.68-2.811,4.111Zm3.942,17.017c-.515,0-.751-.068-.751-.312a1.582,1.582,0,0,1,.2-.616c.582-1.1,1.165-2.262,1.714-3.325l7.808-15.75c.515-1.03,1.064-2.195,1.578-3.325.346-.785.549-.928,1.435-.928h1.815c.515,0,.751.067.751.313a1.472,1.472,0,0,1-.2.582c-.616,1.2-1.232,2.4-1.747,3.461l-7.774,15.683c-.515,1.1-1.063,2.195-1.578,3.292-.38.785-.549.928-1.435.928h-1.815Zm21.161-7.225c0,4.727-2.633,7.428-6.305,7.428-3.359,0-5.993-2.5-5.993-6.888s2.4-7.36,6.373-7.36c3.326,0,5.925,2.431,5.925,6.812Zm-8.837.616c0,2.4,1.1,3.663,2.566,3.663,1.714,0,2.844-1.469,2.844-4.077,0-2.363-1.063-3.7-2.6-3.7-1.815,0-2.811,1.68-2.811,4.111Z" transform="translate(-288.702 1075.325)" fill="#b5825f"/>
    <rect id="長方形_188" data-name="長方形 188" width="240.476" height="61.541" rx="30.771" transform="translate(1349.444 3151.88)" fill="none" stroke="#b5825f" stroke-miterlimit="10" stroke-width="3"/>
    <path id="パス_3281" data-name="パス 3281" d="M1706,2120.936c-1.612,0-4.313.067-4.558.067-.717,0-.962-.236-.962-.962,0-.237.068-3.942.068-5.858V2103.43c0-1.68-.068-5.141-.068-5.723,0-.819.2-1.1.962-1.1.38,0,2.946.068,4.558.068h2.634c4.929,0,7.842,1.3,7.842,5.478a5.916,5.916,0,0,1-2.228,5.174c-.27.2-.448.346-.448.447,0,.169.169.27.549.414,1.983.785,3.292,2.5,3.292,5.309,0,5.106-3.393,7.428-8.905,7.428h-2.743Zm-1.578-15.379c0,.853.169,1.03,1.03,1.03h2.743c2.532,0,4.347-.962,4.347-3.7,0-2.262-1.849-2.845-3.942-2.845h-3.148c-.853,0-1.03.169-1.03,1.03Zm0,11.058c0,.852.169,1.029,1.03,1.029h3.216c2.845,0,4.929-1.333,4.929-4.178,0-2.6-1.68-3.6-4.313-3.6h-3.832c-.853,0-1.03.169-1.03,1.03v5.723Z" transform="translate(-313.052 1075.3)" fill="#b5825f"/>
    <path id="パス_3282" data-name="パス 3282" d="M1745.411,2119.3c0,.313-.236.481-.751.718a15.06,15.06,0,0,1-5.79,1.1c-7.09,0-11.64-4.727-11.64-11.749s4.347-12.915,12.915-12.915a13.409,13.409,0,0,1,4.929.853c.515.2.751.38.751.684a2.045,2.045,0,0,1-.169.65l-.751,2.051c-.2.515-.3.718-.583.718a1.818,1.818,0,0,1-.684-.2,9.212,9.212,0,0,0-3.663-.785c-5.689,0-8.593,4.009-8.593,8.837s3.047,8.12,7.943,8.12a9.055,9.055,0,0,0,3.976-.853,1.646,1.646,0,0,1,.684-.236c.27,0,.413.2.616.718l.65,1.646a2.046,2.046,0,0,1,.169.65Z" transform="translate(-317.223 1075.325)" fill="#b5825f"/>
    <path id="パス_3283" data-name="パス 3283" d="M1780.6,2108.04c0,.135.169.27.515.447,2.532,1.266,4.558,3.013,4.558,6.06,0,3.908-3.182,6.677-9.969,6.677-5.411,0-9.285-2.33-9.285-6.373,0-2.6,1.545-4.727,4.381-6.162.346-.168.515-.312.515-.447s-.169-.27-.481-.481c-1.95-1.165-3.393-2.811-3.393-5.343,0-3.292,3.047-6.128,8.871-6.128,5.309,0,8.39,2.532,8.39,5.824,0,2.262-1.333,4.111-3.63,5.444-.312.169-.481.346-.481.481Zm-5.107,1.882a2.375,2.375,0,0,0-.962.237c-2.6,1.1-4.144,2.464-4.144,4.415,0,2.161,2.363,3.325,5.478,3.325,3.427,0,5.757-1.232,5.757-3.461,0-2.094-2.127-3.148-5.208-4.313a2.723,2.723,0,0,0-.929-.2Zm.684-10.2c-2.676,0-4.693,1.063-4.693,2.811s1.747,2.743,4.111,3.7a2.88,2.88,0,0,0,.928.236,2.46,2.46,0,0,0,.962-.27c2.085-1,3.25-2.194,3.25-3.73,0-1.713-1.95-2.743-4.558-2.743Z" transform="translate(-323.334 1075.35)" fill="#b5825f"/>
    <path id="パス_3284" data-name="パス 3284" d="M1800.974,2121.953a2.609,2.609,0,0,1-2.709,2.777,2.341,2.341,0,0,1-2.465-2.4,2.61,2.61,0,0,1,2.743-2.743A2.324,2.324,0,0,1,1800.974,2121.953Z" transform="translate(-327.915 1071.717)" fill="#b5825f"/>
    <path id="パス_3285" data-name="パス 3285" d="M1814.314,2106.559a11.25,11.25,0,0,1,5.512-1.469c4.043,0,7.706,2.33,7.706,7.327,0,5.377-4.144,8.736-9.453,8.736-5.858,0-9.209-3.908-9.209-9.555a15.808,15.808,0,0,1,4.313-11.369,14.818,14.818,0,0,1,9.622-3.8c.684,0,.819.169.819.962v1.781c0,.886-.135,1.03-1.03,1.131a11.359,11.359,0,0,0-7.192,3.182,7.836,7.836,0,0,0-1.984,3.326.123.123,0,0,0,.135.135,1.759,1.759,0,0,0,.751-.38Zm-.65,3.63a1.9,1.9,0,0,0-.928,1.849c0,3.393,2.161,5.689,5.512,5.689s5.377-2.3,5.377-5c0-2.4-1.747-4.246-4.761-4.246a8.937,8.937,0,0,0-5.208,1.713Z" transform="translate(-329.953 1075.328)" fill="#b5825f"/>
    <path id="パス_3286" data-name="パス 3286" d="M1842.2,2116.67c0,1.545.068,4.381.068,4.625,0,.718-.2.853-1,.853h-1.984c-.785,0-1-.135-1-.853,0-.236.067-3.081.067-4.625v-6.609c0-1.545-.067-4.381-.067-4.626,0-.717.2-.852,1-.852h1.68c.785,0,.92.135.962.929.034.447.1.65.27.65a1.052,1.052,0,0,0,.515-.237,7.369,7.369,0,0,1,4.558-1.545,5.385,5.385,0,0,1,4.111,1.646c.312.346.481.515.684.515.169,0,.346-.135.684-.414a8.424,8.424,0,0,1,5.14-1.747c3.393,0,5.647,2.33,5.647,6.128v6.162c0,1.545.067,4.381.067,4.625,0,.718-.2.853-1,.853h-1.984c-.785,0-1-.135-1-.853,0-.236.067-3.081.067-4.625v-5.107c0-2.085-1-3.494-3.115-3.494a4.906,4.906,0,0,0-3.013,1.1,1.289,1.289,0,0,0-.65,1.334v6.162c0,1.545.068,4.381.068,4.625,0,.718-.2.852-1,.852h-1.984c-.785,0-1-.135-1-.852,0-.236.068-3.081.068-4.625v-5.107c0-2.085-1-3.494-3.115-3.494a4.993,4.993,0,0,0-3.013,1.064,1.644,1.644,0,0,0-.751,1.544v5.993Z" transform="translate(-334.541 1074.088)" fill="#b5825f"/>
    <path id="パス_3287" data-name="パス 3287" d="M1880.258,2116.67c0,1.545.068,4.381.068,4.625,0,.718-.2.853-1,.853h-1.984c-.785,0-1-.135-1-.853,0-.236.068-3.081.068-4.625v-6.609c0-1.545-.068-4.381-.068-4.626,0-.717.2-.852,1-.852h1.68c.785,0,.92.135.962.929.034.447.1.65.27.65a1.053,1.053,0,0,0,.515-.237,7.368,7.368,0,0,1,4.558-1.545,5.385,5.385,0,0,1,4.111,1.646c.312.346.481.515.684.515.169,0,.346-.135.684-.414a8.424,8.424,0,0,1,5.14-1.747c3.393,0,5.647,2.33,5.647,6.128v6.162c0,1.545.068,4.381.068,4.625,0,.718-.2.853-1,.853h-1.983c-.785,0-1-.135-1-.853,0-.236.068-3.081.068-4.625v-5.107c0-2.085-1-3.494-3.115-3.494a4.906,4.906,0,0,0-3.013,1.1,1.289,1.289,0,0,0-.65,1.334v6.162c0,1.545.067,4.381.067,4.625,0,.718-.2.852-1,.852h-1.984c-.785,0-1-.135-1-.852,0-.236.068-3.081.068-4.625v-5.107c0-2.085-1-3.494-3.115-3.494a4.993,4.993,0,0,0-3.013,1.064,1.644,1.644,0,0,0-.751,1.544v5.993Z" transform="translate(-340.475 1074.088)" fill="#b5825f"/>
    <rect id="長方形_189" data-name="長方形 189" width="303.772" height="61.541" rx="30.771" transform="translate(343.92 3151.88)" fill="none" stroke="#b5825f" stroke-miterlimit="10" stroke-width="3"/>
    <path id="パス_3288" data-name="パス 3288" d="M525.53,2120.336c-1.612,0-4.313.068-4.558.068-.751,0-.962-.27-.962-1.1.034-1.916.068-4.077.068-5.723V2102.83c0-1.68-.034-3.731-.068-5.723,0-.819.2-1.1.962-1.1.236,0,2.946.068,4.558.068h4.212c6.778,0,10.821,3.764,10.821,11.4s-4.381,12.838-11.918,12.838H525.53Zm-1.469-4.558c0,.853.169,1.03,1.03,1.03h3.461c5.377,0,7.976-3.663,7.976-9.107,0-4.625-2.195-7.909-7.158-7.909h-4.279c-.853,0-1.03.169-1.03,1.03v14.965Z" transform="translate(-128.982 1075.394)" fill="#b5825f"/>
    <path id="パス_3289" data-name="パス 3289" d="M553.066,2120.352c-.785,0-1-.135-1-.853,0-.236.1-4.009.1-5.993v-10.551c0-1.984-.1-5.757-.1-5.993,0-.718.2-.853,1-.853h2.195c.785,0,1,.135,1,.853,0,.237-.1,4.009-.1,5.993v10.551c0,1.984.1,5.757.1,5.993,0,.718-.2.853-1,.853Z" transform="translate(-133.981 1075.378)" fill="#b5825f"/>
    <path id="パス_3290" data-name="パス 3290" d="M571.135,2114.627c-.895,0-1.131.067-1.435.819-.481,1.131-.928,2.3-1.511,3.942-.312.819-.481.962-1.367.962h-2.4c-.549,0-.785-.068-.785-.346a1.474,1.474,0,0,1,.2-.582c1.063-2.4,1.815-4.111,2.532-5.79l4.9-11.606c.616-1.469,1.334-3.115,2.051-4.963.312-.819.481-.962,1.367-.962h1.469c.895,0,1.064.135,1.367.962.717,1.848,1.4,3.494,2.017,4.929l4.929,11.572c.751,1.781,1.511,3.494,2.566,5.858a1.475,1.475,0,0,1,.2.582c0,.27-.236.346-.785.346h-2.633c-.886,0-1.064-.135-1.367-.962-.582-1.646-1.03-2.811-1.511-3.942-.312-.751-.515-.819-1.435-.819h-8.39Zm.616-4.246a1.55,1.55,0,0,0-.135.582c0,.3.236.38.785.38h5.858c.549,0,.785-.068.785-.38a1.55,1.55,0,0,0-.135-.582l-3.182-7.842c-.135-.346-.236-.549-.38-.549-.1,0-.236.169-.38.549Z" transform="translate(-135.785 1075.38)" fill="#b5825f"/>
    <path id="パス_3291" data-name="パス 3291" d="M617.871,2113.506c0,1.984.1,5.579.1,5.993,0,.718-.2.853-1,.853h-2.127c-.785,0-1-.135-1-.853,0-.414.1-4.009.1-5.993V2101.52c0-.582-.1-.819-.414-.819a1.413,1.413,0,0,0-.549.135c-1.03.38-2.195.853-3.081,1.266a1.548,1.548,0,0,1-.65.2c-.312,0-.447-.236-.616-.751l-.65-1.714a1.852,1.852,0,0,1-.135-.65c0-.312.2-.481.785-.65a54.048,54.048,0,0,0,5.343-2.017,4.481,4.481,0,0,1,2.017-.414h.928c.785,0,1,.135,1,.853,0,.515-.068,4.01-.068,5.993v10.551Z" transform="translate(-142.68 1075.378)" fill="#b5825f"/>
    <path id="パス_3292" data-name="パス 3292" d="M645.789,2116.069c0,1.165.068,3.183.068,3.427,0,.718-.2.853-1,.853h-1.916c-.785,0-1-.135-1-.853,0-.236.068-2.262.068-3.427,0-.785-.135-.928-.928-.928h-5.41c-1.984,0-4.929.067-5.174.067-.717,0-.853-.2-.853-1v-.583a3.425,3.425,0,0,1,.481-1.95c.751-1.368,1.469-2.777,2.161-4.111l3.013-5.824c.717-1.4,1.511-2.979,2.33-4.727.346-.785.549-.929,1.435-.929h2.566c.515,0,.751.068.751.313a1.71,1.71,0,0,1-.236.583c-1.1,2.017-1.984,3.7-2.844,5.343l-4.381,8.458a1.584,1.584,0,0,0-.2.616c0,.236.236.313.751.313h5.613c.819,0,.928-.2.928-1,0-2.33-.068-5.444-.068-5.689,0-.718.2-.853,1-.853h1.916c.785,0,1,.135,1,.853,0,.236-.068,3.326-.068,5.757,0,.785.135.928.928.928.928,0,2.6-.034,2.844-.034.717,0,.853.2.853,1v1.544c0,.785-.135,1-.853,1-.236,0-1.916-.067-2.844-.067-.785,0-.928.135-.928.928Z" transform="translate(-146.078 1075.381)" fill="#b5825f"/>
    <path id="パス_3293" data-name="パス 3293" d="M665.064,2121.353a2.609,2.609,0,0,1-2.709,2.777,2.341,2.341,0,0,1-2.465-2.4,2.61,2.61,0,0,1,2.743-2.743A2.324,2.324,0,0,1,665.064,2121.353Z" transform="translate(-150.793 1071.81)" fill="#b5825f"/>
    <path id="パス_3294" data-name="パス 3294" d="M681.353,2105.074c4.727,0,8.356,2.33,8.356,7.023,0,4.01-2.6,8.491-10.1,8.491a14.791,14.791,0,0,1-6.128-1.3c-.481-.236-.717-.414-.717-.718a2.045,2.045,0,0,1,.169-.65l.65-1.646c.2-.481.346-.718.582-.718a1.278,1.278,0,0,1,.65.313,10.094,10.094,0,0,0,5,1.3c4.178,0,5.892-2.228,5.892-4.76s-2.161-4.077-5.309-4.077a10.954,10.954,0,0,0-3.731.616,2.887,2.887,0,0,1-.928.236,4.127,4.127,0,0,1-1-.236c-.684-.237-.886-.38-.886-.886a2.191,2.191,0,0,1,.034-.447c.135-1.03.236-1.984.346-3.047l.38-4.246c.068-.928.169-2.33.2-3.216.034-.819.169-1,.852-1,.447,0,3.461.068,5.208.068h1.916c1.747,0,5.064-.068,5.309-.068.717,0,.852.2.852,1v1.815c0,.785-.135,1-.852,1-.236,0-3.562-.1-5.309-.1h-3.427c-.886,0-1.064.135-1.131,1.03l-.27,3.013a7.876,7.876,0,0,0-.068.929c0,.448.135.582.481.582a2.2,2.2,0,0,0,.447-.034,12.164,12.164,0,0,1,2.532-.236Z" transform="translate(-152.8 1075.378)" fill="#b5825f"/>
    <path id="パス_3295" data-name="パス 3295" d="M704.618,2116.07c0,1.545.068,4.381.068,4.625,0,.718-.2.853-1,.853h-1.984c-.785,0-1-.135-1-.853,0-.236.068-3.081.068-4.625v-6.609c0-1.545-.068-4.381-.068-4.625,0-.718.2-.853,1-.853h1.68c.785,0,.929.135.962.928.034.448.1.65.27.65a1.083,1.083,0,0,0,.515-.236,7.369,7.369,0,0,1,4.558-1.545,5.385,5.385,0,0,1,4.111,1.646c.312.346.481.515.684.515.169,0,.346-.135.684-.413a8.424,8.424,0,0,1,5.14-1.748c3.393,0,5.647,2.33,5.647,6.128v6.162c0,1.545.068,4.381.068,4.625,0,.718-.2.853-1,.853h-1.984c-.785,0-1-.135-1-.853,0-.236.068-3.081.068-4.625v-5.107c0-2.085-1-3.494-3.115-3.494a4.9,4.9,0,0,0-3.013,1.1,1.288,1.288,0,0,0-.65,1.334v6.162c0,1.544.068,4.381.068,4.625,0,.718-.2.853-1,.853h-1.984c-.785,0-1-.135-1-.853,0-.236.068-3.081.068-4.625v-5.107c0-2.085-1-3.494-3.115-3.494a4.994,4.994,0,0,0-3.013,1.063,1.644,1.644,0,0,0-.751,1.545v5.993Z" transform="translate(-157.158 1074.182)" fill="#b5825f"/>
    <path id="パス_3296" data-name="パス 3296" d="M742.678,2116.07c0,1.545.068,4.381.068,4.625,0,.718-.2.853-1,.853h-1.984c-.785,0-1-.135-1-.853,0-.236.067-3.081.067-4.625v-6.609c0-1.545-.067-4.381-.067-4.625,0-.718.2-.853,1-.853h1.68c.785,0,.928.135.962.928.034.448.1.65.27.65a1.082,1.082,0,0,0,.515-.236,7.369,7.369,0,0,1,4.558-1.545,5.385,5.385,0,0,1,4.111,1.646c.312.346.481.515.684.515.169,0,.346-.135.684-.413a8.424,8.424,0,0,1,5.14-1.748c3.393,0,5.647,2.33,5.647,6.128v6.162c0,1.545.068,4.381.068,4.625,0,.718-.2.853-1,.853H761.1c-.785,0-1-.135-1-.853,0-.236.068-3.081.068-4.625v-5.107c0-2.085-1-3.494-3.115-3.494a4.9,4.9,0,0,0-3.013,1.1,1.289,1.289,0,0,0-.65,1.334v6.162c0,1.544.068,4.381.068,4.625,0,.718-.2.853-1,.853h-1.983c-.785,0-1-.135-1-.853,0-.236.068-3.081.068-4.625v-5.107c0-2.085-1-3.494-3.115-3.494a4.994,4.994,0,0,0-3.013,1.063,1.644,1.644,0,0,0-.751,1.545v5.993Z" transform="translate(-163.093 1074.182)" fill="#b5825f"/>
    <rect id="長方形_190" data-name="長方形 190" width="363.735" height="61.541" rx="30.771" transform="translate(666.119 3151.88)" fill="none" stroke="#b5825f" stroke-miterlimit="10" stroke-width="3"/>
    <path id="パス_3297" data-name="パス 3297" d="M912.846,2121.27H902.227c-.27,0-.481.068-.515.515-.034.718-.27.785-1.781.785s-1.849-.033-1.849-.819c0-.895.068-1.814.068-2.709v-4.693c-.034-.2-.1-.413-.346-.413a.344.344,0,0,0-.27.169c-.616.684-3.629,3.765-4.381,3.765s-2.363-1.2-2.363-2.018c0-.312.27-.515.515-.684a24.813,24.813,0,0,0,7.056-8.01.989.989,0,0,0,.068-.312c0-.38-.3-.481-.616-.515h-1.984c-1.3,0-2.633.068-3.976.068-.684,0-.684-.312-.684-1.266s0-1.3.684-1.3c1.334,0,2.676.067,3.976.067H903.6c.549,0,.785-.236.785-.819v-.1c0-.583-.236-.819-.785-.819h-4.558c-1.232,0-2.465.068-3.731.068-.684,0-.65-.414-.65-1.232s0-1.232.65-1.232c1.266,0,2.5.068,3.731.068h4.693c.481,0,.65-.169.65-.65v-.312c0-.481-.169-.65-.616-.65h-6.955c-1.334,0-2.633.068-3.976.068-.717,0-.684-.448-.684-1.3,0-.928,0-1.3.684-1.3,1.334,0,2.634.068,3.976.068h2.195c.27,0,.549-.1.549-.448a.593.593,0,0,0-.1-.312c-.447-.65-.785-1.064-1.3-1.714a.779.779,0,0,1-.27-.481c0-.616,2.051-1.266,2.5-1.266.515,0,1,.616,1.3,1.03a8.72,8.72,0,0,1,1.367,2.127c0,.38-.616.65-.928.785-.034.034-.1.068-.1.135,0,.1.068.135.169.135h5.993a1.3,1.3,0,0,0,1.367-.718,21.139,21.139,0,0,0,1.545-3.013c.068-.27.169-.515.481-.515a14.645,14.645,0,0,1,2.161.718c.515.169,1.545.549,1.545.853s-.447.38-.684.414a.6.6,0,0,0-.447.313c-.27.38-.481.785-.717,1.165a.657.657,0,0,0-.1.346c0,.346.27.414.549.448h1.849c1.3,0,2.6-.068,3.942-.068.717,0,.717.346.717,1.3,0,.886,0,1.3-.684,1.3-1.334,0-2.676-.068-3.976-.068h-7.056c-.447,0-.65.169-.65.616v.346c0,.481.169.65.65.65H913.4c1.266,0,2.5-.068,3.731-.068.684,0,.684.346.684,1.232s0,1.232-.65,1.232c-1.266,0-2.5-.068-3.765-.068h-4.558c-.582,0-.819.236-.819.819v.1c0,.582.236.819.819.819h7.875c1.3,0,2.633-.068,3.976-.068.717,0,.684.346.684,1.3s.034,1.266-.684,1.266c-1.334,0-2.667-.068-3.976-.068H903.088a.963.963,0,0,0-.928.65.986.986,0,0,0-.068.313c0,.38.3.515.65.515h9.791c.962,0,1.916-.034,2.878-.034,1.1,0,1.578.346,1.578,1.511,0,.886-.034,1.781-.034,2.667v7.158c0,.928.068,1.815.068,2.743,0,.785-.414.785-1.815.785-1.68,0-1.815-.068-1.849-.886,0-.447-.27-.481-.515-.481Zm-.068-9.656a.591.591,0,0,0,.65-.65v-.135a.617.617,0,0,0-.65-.684H902.295a.617.617,0,0,0-.65.684v.135a.591.591,0,0,0,.65.65Zm-10.483,2.093a.625.625,0,0,0-.65.65v.2a.591.591,0,0,0,.65.65h10.483a.591.591,0,0,0,.65-.65v-.2a.607.607,0,0,0-.65-.65Zm0,3.7a.625.625,0,0,0-.65.65v.2a.625.625,0,0,0,.65.65h10.483a.607.607,0,0,0,.65-.65v-.2a.607.607,0,0,0-.65-.65Z" transform="translate(-186.797 1076.097)" fill="#b5825f"/>
    <path id="パス_3298" data-name="パス 3298" d="M955.087,2100.812c0,.313.236.38.481.38h.895c1.131,0,2.262-.034,3.393-.034,1.266,0,1.984.313,1.984,1.714,0,.886-.068,1.747-.068,2.634v3.764c0,1.1.068,2.161.068,2.912s-.346.785-1.578.785c-1.165,0-1.815,0-2.127-.481a.971.971,0,0,0-.928-.346h-14.83c-.684,0-.962.27-.962.962v2.634c0,2.5.3,2.777,3.013,2.777h12.7c2.71,0,3.25-.346,3.731-3.461.135-.785.135-1.131.853-1.131.928,0,2.845.38,2.845,1.545a11.233,11.233,0,0,1-1.266,4.279c-1.064,1.916-2.633,2.051-4.659,2.051H943.388c-6.229,0-5.579-1.882-5.579-6.575v-9.42c-.034-.27-.1-.515-.414-.515a.549.549,0,0,0-.312.135,2.557,2.557,0,0,1-1.2.616c-.853,0-2.195-1.511-2.195-2.228,0-.414.481-.65.785-.853a35.213,35.213,0,0,0,7.639-7.673,21.648,21.648,0,0,0,1.984-3.216.668.668,0,0,1,.616-.448c.27,0,2.262.549,2.709.65.549.135,1.232.27,1.232.751,0,.346-.515.448-.785.549-.27.068-.447.346-.582.582a.657.657,0,0,0-.1.346c0,.346.27.413.549.447h5.377c.751,0,1.511-.068,2.228-.068a2.283,2.283,0,0,1,2.363,1.747c0,.718-1.984,3.182-2.5,3.832-.068.135-.135.2-.135.346Zm-12.7,3.528a.99.99,0,0,0-.962.962v2.709a.99.99,0,0,0,.962.962h4.761a.913.913,0,0,0,.928-.962V2105.3a.913.913,0,0,0-.928-.962Zm-.2-3.494c0,.236.236.346.447.346h6.677a1.521,1.521,0,0,0,1.469-.616,10.26,10.26,0,0,0,1.68-2.431c0-.414-.447-.346-.853-.346h-5.959a1.544,1.544,0,0,0-1.469.65,26.591,26.591,0,0,1-1.848,2.051.6.6,0,0,0-.135.346Zm9.487,7.158a.917.917,0,0,0,.929.962h4.727a.99.99,0,0,0,.962-.962v-2.709a.984.984,0,0,0-.962-.962H952.6a.913.913,0,0,0-.929.962Z" transform="translate(-193.487 1076.078)" fill="#b5825f"/>
    <path id="パス_3299" data-name="パス 3299" d="M990.673,2100.056c.684,0,.962-.27.962-.962v-.346c0-.684-.27-.962-.962-.962h-8.154c-1.367,0-2.777.068-4.178.068-.751,0-.751-.38-.751-1.469,0-1.165,0-1.545.751-1.545,1.4,0,2.811.067,4.178.067h8.154c.65,0,.928-.236.962-.886-.034-.447-.068-.895-.135-1.334v-.346c0-.38.27-.481.616-.481.414,0,2.3.169,2.912.237.1,0,.2.034.312.034.481.034.928.068.928.447,0,.27-.169.346-.515.515a.9.9,0,0,0-.414.928c-.034.65.312.886.928.886h6.128c1.4,0,2.777-.068,4.178-.068.751,0,.751.346.751,1.511s0,1.511-.751,1.511c-1.4,0-2.777-.067-4.178-.067h-6.162c-.65,0-.928.27-.928.962v.346c0,.684.27.962.928.962h2.633c.717,0,1.435-.034,2.195-.034,1.03,0,1.578.236,1.578,1.367,0,.819-.034,1.646-.034,2.465v9.453c0,.819.068,1.646.068,2.431,0,1.03-.751,1.064-1.849,1.064a3.115,3.115,0,0,1-1.469-.237,1.138,1.138,0,0,0-.549-.236h-8.736a1.292,1.292,0,0,0-.549.236,3.015,3.015,0,0,1-1.469.237c-1.1,0-1.815-.068-1.815-1.064,0-.717.068-1.646.068-2.431v-9.453c0-.819-.034-1.646-.034-2.465,0-1.1.549-1.367,1.578-1.367.751,0,1.469.034,2.228.034h.616Zm-9.69,22.6c-1.435,0-1.849,0-1.849-1.131,0-1.3.068-2.634.068-3.975v-11.885a16.907,16.907,0,0,0-.1-2.3,1.3,1.3,0,0,1-.034-.346c0-.413.312-.481.616-.481.65,0,2.465.169,3.216.236.312,0,.819.034.819.481,0,.236-.2.313-.515.515-.414.236-.447.65-.447,1.68v12.155c0,.684.27.962.962.962h18.764c1.367,0,2.743-.067,4.144-.067.785,0,.785.346.785,1.544s0,1.545-.785,1.545c-1.4,0-2.777-.068-4.144-.068h-18.8c-.481,0-.65.313-1,.819-.3.313-.819.313-1.713.313Zm17.329-17.844a.771.771,0,0,0,.819-.819v-.346a.789.789,0,0,0-.819-.819h-7.74a.789.789,0,0,0-.819.819V2104a.789.789,0,0,0,.819.819Zm-7.74,2.33a.789.789,0,0,0-.819.819v.413a.762.762,0,0,0,.819.785h7.74a.763.763,0,0,0,.819-.785v-.413a.789.789,0,0,0-.819-.819Zm0,4.347c-.582,0-.819.236-.819.819v.481c0,.583.236.819.819.819h7.74c.549,0,.819-.236.819-.819v-.481a.721.721,0,0,0-.819-.819Z" transform="translate(-200.332 1076.04)" fill="#b5825f"/>
    <path id="パス_3300" data-name="パス 3300" d="M1028.238,2106.805c0,.237-.2.346-.414.481-.27.2-.312.515-.312,1.68v8.424c0,1.435.068,2.844.068,4.279,0,.928-.38,1.131-1.781,1.131s-1.781-.27-1.781-1.2c0-1.4.068-2.811.068-4.212v-7.056c0-.2-.1-.414-.346-.414a.471.471,0,0,0-.3.1c-.346.346-1.367,1.4-1.815,1.4a4.22,4.22,0,0,1-2.161-2.195c0-.312.27-.515.515-.684a40.789,40.789,0,0,0,7.808-9.141c.135-.27.236-.481.549-.481a15.6,15.6,0,0,1,2.566,1.232c.236.1.616.312.616.616,0,.236-.346.312-.549.346-.312.034-.38.034-.65.448-1,1.469-2.051,2.878-3.148,4.28a.361.361,0,0,0-.068.2c0,.2.135.27.346.313.27.034.785.067.785.447Zm.135-13.969c.135.068.312.169.447.236.515.271,1.03.549,1.03.819,0,.068-.034.312-.481.346-.27,0-.346.034-.481.2a47.076,47.076,0,0,1-5.545,6.128c-.27.236-1.2,1.1-1.511,1.1-.582,0-2.161-1.4-2.161-2.051,0-.38.38-.616.895-1.03a32.689,32.689,0,0,0,5.681-6.061c.135-.2.27-.413.515-.413a5.635,5.635,0,0,1,1.612.717Zm14.18,18.012h1.435c1.3,0,2.566-.068,3.866-.068.895,0,.853.448.853,1.646,0,1.3,0,1.68-.895,1.68-1.3,0-2.566-.1-3.832-.1h-1.435a.844.844,0,0,0-.962.962v2.5c0,.684.312.962.962.962h3.115c1.3,0,2.566-.068,3.866-.068.895,0,.853.448.853,1.68s.034,1.68-.853,1.68c-1.3,0-2.566-.068-3.866-.068h-11.986c-1.266,0-2.566.068-3.866.068-.886,0-.852-.481-.852-1.68,0-1.3,0-1.68.886-1.68,1.3,0,2.566.068,3.832.068h3.495c.684,0,.962-.27.962-.962v-2.5c0-.65-.27-.962-.962-.962h-1.232c-1.3,0-2.566.1-3.866.1-.886,0-.853-.447-.853-1.68s0-1.646.886-1.646c1.266,0,2.566.068,3.832.068h1.232c.684,0,.962-.27.962-.962a10.185,10.185,0,0,0-.135-2.262v-.312c0-.448.27-.515.616-.515.169,0,2.912.169,3.182.2.2,0,.616.1.616.38s-.2.313-.447.481c-.38.237-.414.718-.38,2.094,0,.65.346.895.962.895Zm-9.825-2.228a5.766,5.766,0,0,1-1.578.515c-.751,0-1.747-1.916-1.747-2.431,0-.481.785-.683,1.714-1.029a29.113,29.113,0,0,0,5.478-2.6c.236-.169.414-.312.414-.582a.755.755,0,0,0-.236-.549,20.03,20.03,0,0,1-3.359-5.241c-.169-.312-.346-.616-.717-.616-.346,0-.718.034-1.1.034-.751,0-.717-.38-.717-1.545s-.034-1.511.717-1.511c1.232,0,2.431.068,3.663.068h8.086c.785,0,1.578-.034,2.364-.034a1.748,1.748,0,0,1,1.612.818,2.659,2.659,0,0,1,.785,1.612c0,1.68-3.562,5.276-4.794,6.44a.854.854,0,0,0-.27.548.639.639,0,0,0,.38.549,31.567,31.567,0,0,0,6.812,2.912c.27.068.481.169.481.481,0,.684-1.03,2.6-1.781,2.6a2.874,2.874,0,0,1-.886-.236,35.475,35.475,0,0,1-7.327-3.629,1.515,1.515,0,0,0-.751-.237,1.4,1.4,0,0,0-.717.237,35.023,35.023,0,0,1-6.508,3.427Zm10.753-12.087c0-.549-.447-.515-1.646-.515h-4.246c-.3.034-.616.135-.616.515a.592.592,0,0,0,.1.313,15.543,15.543,0,0,0,2.3,3.115.907.907,0,0,0,.684.346,1.226,1.226,0,0,0,.684-.27c.616-.583,2.743-2.709,2.743-3.495Z" transform="translate(-206.861 1076.001)" fill="#b5825f"/>
    <path id="パス_3301" data-name="パス 3301" d="M1083.761,2114.1c0,1.984.1,5.58.1,5.993,0,.718-.2.853-1,.853h-2.127c-.785,0-1-.135-1-.853,0-.414.1-4.009.1-5.993v-11.986c0-.582-.1-.819-.414-.819a1.414,1.414,0,0,0-.549.135c-1.03.38-2.195.853-3.081,1.266a1.55,1.55,0,0,1-.65.2c-.3,0-.448-.236-.616-.751l-.65-1.713a1.85,1.85,0,0,1-.135-.65c0-.312.2-.481.785-.65a54.05,54.05,0,0,0,5.343-2.017,4.484,4.484,0,0,1,2.017-.414h.928c.785,0,1,.135,1,.853,0,.515-.067,4.01-.067,5.993V2114.1Z" transform="translate(-215.326 1075.286)" fill="#b5825f"/>
    <path id="パス_3302" data-name="パス 3302" d="M1108.22,2107.822c0,.1.169.2.515.313a5.364,5.364,0,0,1,3.942,5.41c0,3.8-2.811,7.605-10.272,7.605a16.067,16.067,0,0,1-6.406-1.233c-.515-.236-.718-.447-.718-.785a1.569,1.569,0,0,1,.135-.616l.582-1.68c.169-.481.3-.718.582-.718a1.726,1.726,0,0,1,.65.27,10.447,10.447,0,0,0,5.309,1.333c4.043,0,6.06-2.093,6.06-4.245,0-2.364-1.984-3.562-6.406-3.562-.751,0-1.95.034-2.3.034-.886,0-1.03-.135-1.03-1v-1.544c0-.886.135-1.03,1.03-1.03.38,0,1.3.034,1.95.034,4.144,0,5.681-1.469,5.681-3.359s-1.68-3.013-4.313-3.013a9.012,9.012,0,0,0-4.794,1.334,1.471,1.471,0,0,1-.684.312c-.236,0-.414-.2-.616-.684l-.751-1.579a1.819,1.819,0,0,1-.2-.683c0-.312.2-.481.684-.718a14.743,14.743,0,0,1,6.778-1.612c5.613,0,7.909,2.845,7.909,5.925a5.56,5.56,0,0,1-2.878,5.106c-.27.135-.448.271-.448.38Z" transform="translate(-218.683 1075.331)" fill="#b5825f"/>
    <path id="パス_3303" data-name="パス 3303" d="M1128.194,2121.953a2.609,2.609,0,0,1-2.709,2.777,2.341,2.341,0,0,1-2.465-2.4,2.61,2.61,0,0,1,2.743-2.743A2.324,2.324,0,0,1,1128.194,2121.953Z" transform="translate(-223.009 1071.717)" fill="#b5825f"/>
    <path id="パス_3304" data-name="パス 3304" d="M1146.7,2113.757c-.751,1.95-1.367,3.731-2.228,6.229-.312.819-.481.962-1.367.962h-2.431c-.549,0-.785-.068-.785-.38a1.551,1.551,0,0,1,.135-.583c1.03-2.465,1.747-4.313,2.465-6.162l4.693-12.433a1.551,1.551,0,0,0,.135-.582c0-.312-.236-.38-.785-.38h-5.478c-1.747,0-5.065.1-5.309.1-.718,0-.853-.2-.853-1v-1.848c0-.785.135-1,.853-1,.236,0,3.562.068,5.309.068h4.963c1.781,0,5.107-.068,5.343-.068.717,0,.853.2.853,1v.718a4.579,4.579,0,0,1-.414,2.017c-.616,1.545-1.232,3.148-1.781,4.592l-3.326,8.736Z" transform="translate(-224.86 1075.287)" fill="#b5825f"/>
    <path id="パス_3305" data-name="パス 3305" d="M1166.378,2116.67c0,1.545.067,4.381.067,4.625,0,.718-.2.853-1,.853h-1.984c-.785,0-1-.135-1-.853,0-.236.068-3.081.068-4.625v-6.609c0-1.545-.068-4.381-.068-4.626,0-.717.2-.852,1-.852h1.68c.785,0,.928.135.962.929.034.447.1.65.27.65a1.085,1.085,0,0,0,.515-.237,7.368,7.368,0,0,1,4.558-1.545,5.384,5.384,0,0,1,4.111,1.646c.312.346.481.515.684.515.169,0,.346-.135.684-.414a8.424,8.424,0,0,1,5.14-1.747c3.393,0,5.647,2.33,5.647,6.128v6.162c0,1.545.067,4.381.067,4.625,0,.718-.2.853-1,.853H1184.8c-.785,0-1-.135-1-.853,0-.236.068-3.081.068-4.625v-5.107c0-2.085-1-3.494-3.115-3.494a4.906,4.906,0,0,0-3.013,1.1,1.289,1.289,0,0,0-.65,1.334v6.162c0,1.545.068,4.381.068,4.625,0,.718-.2.852-1,.852h-1.983c-.785,0-1-.135-1-.852,0-.236.067-3.081.067-4.625v-5.107c0-2.085-1-3.494-3.115-3.494a4.993,4.993,0,0,0-3.013,1.064,1.644,1.644,0,0,0-.751,1.544v5.993Z" transform="translate(-229.16 1074.088)" fill="#b5825f"/>
    <path id="パス_19964" data-name="パス 19964" d="M1166.378,2116.67c0,1.545.067,4.381.067,4.625,0,.718-.2.853-1,.853h-1.984c-.785,0-1-.135-1-.853,0-.236.068-3.081.068-4.625v-6.609c0-1.545-.068-4.381-.068-4.626,0-.717.2-.852,1-.852h1.68c.785,0,.928.135.962.929.034.447.1.65.27.65a1.085,1.085,0,0,0,.515-.237,7.368,7.368,0,0,1,4.558-1.545,5.384,5.384,0,0,1,4.111,1.646c.312.346.481.515.684.515.169,0,.346-.135.684-.414a8.424,8.424,0,0,1,5.14-1.747c3.393,0,5.647,2.33,5.647,6.128v6.162c0,1.545.067,4.381.067,4.625,0,.718-.2.853-1,.853H1184.8c-.785,0-1-.135-1-.853,0-.236.068-3.081.068-4.625v-5.107c0-2.085-1-3.494-3.115-3.494a4.906,4.906,0,0,0-3.013,1.1,1.289,1.289,0,0,0-.65,1.334v6.162c0,1.545.068,4.381.068,4.625,0,.718-.2.852-1,.852h-1.983c-.785,0-1-.135-1-.852,0-.236.067-3.081.067-4.625v-5.107c0-2.085-1-3.494-3.115-3.494a4.993,4.993,0,0,0-3.013,1.064,1.644,1.644,0,0,0-.751,1.544v5.993Z" transform="translate(-197.16 1074.088)" fill="#b5825f"/>
  </g>
</svg>
