<svg xmlns="http://www.w3.org/2000/svg" width="1248.089" height="189.863" viewBox="0 0 1248.089 189.863">
  <g id="グループ_2418" data-name="グループ 2418" transform="translate(-380.479 -1726.158)">
    <g id="グループ_405" data-name="グループ 405" transform="translate(0.833 -39.258)">
      <path id="パス_2373" data-name="パス 2373" d="M407.981,1832.761c1.176,0,3.92,0,5.04-.111.225,0,.84-.112,1.008-.112,1.345,0,3.752,3.024,3.752,3.584s-.5,1.176-.951,3.584c-1.9,10.807-5.881,18.256-14.953,24.639a52.03,52.03,0,0,1-10.752,5.712,5.7,5.7,0,0,1-1.848.5c-1.343,0-3.36-3.752-3.36-4.648,0-.615.5-.783,1.009-.9a39.364,39.364,0,0,0,13.944-7.391,26.038,26.038,0,0,0,9.184-16.352,11.069,11.069,0,0,0,.112-1.345c0-1.064-.953-1.175-1.96-1.175h-19.88c-2.352,0-4.648.111-7,.111-1.736,0-1.68-.5-1.68-3.024,0-2.575-.056-3.191,1.512-3.191,2.407,0,4.816.111,7.223.111Z" fill="#877877"/>
      <path id="パス_2374" data-name="パス 2374" d="M461.966,1845.7c1.736,0,1.68-2.071,1.68-3.7,0-2.856,0-3.976-1.344-3.976-.281,0-7.784.839-11.76.839-1.288,0-1.512-.223-1.96-1.288a11.479,11.479,0,0,1-1.064-3.584c0-.727.448-1.007,1.12-1.007.5,0,1.736.112,2.632.112a79.722,79.722,0,0,0,17.08-1.792c1.9-.448,5.879-1.512,7.5-2.576a2.294,2.294,0,0,1,.952-.392c.615,0,1.847,1.344,2.3,1.792.56.56,2.744,2.688,2.744,3.359,0,.393-.392.56-.728.56-.113,0-.392-.056-.56-.056a1.576,1.576,0,0,0-.5-.055c-.617,0-4.425,1.288-5.376,1.568-1.177.335-2.408.671-3.584.952-.841.224-1.512.615-1.512,1.568,0,1.064.111,2.071.111,3.08,0,1.064-.055,2.071-.055,3.08,0,.84.336,1.511,1.288,1.511h7.951c2.577,0,5.208-.111,7.336-.111,1.4,0,1.456.728,1.456,3.191,0,2.128-.168,2.8-1.567,2.8-2.409,0-4.816-.055-7.225-.055h-8.4c-1.792,0-2.072,1.064-2.464,2.464a29.223,29.223,0,0,1-9.969,14.952c-1.064.839-5.376,3.975-6.551,3.975-1.064,0-4.256-3.08-4.256-3.975,0-.505.728-.785,1.288-1.065,5.935-3.079,9.8-6.384,12.432-12.656a13.283,13.283,0,0,0,.952-2.744.958.958,0,0,0-1.009-.951H449.534c-2.52,0-5.152.111-7,.111-1.513,0-1.513-1.007-1.513-2.8,0-2.352-.055-3.3,1.4-3.3,1.512,0,4.7.168,7.112.168Z" fill="#877877"/>
      <path id="パス_2375" data-name="パス 2375" d="M535.382,1855.61a11.774,11.774,0,0,1,2.464,7.111c0,4.648-3.3,6.048-7.449,6.048-1.343,0-7.111-.391-7.951-1.176-.448-.447-.616-3.808-.616-4.591,0-.56.224-1.009.84-1.009a6.367,6.367,0,0,1,1.4.336,18.178,18.178,0,0,0,4.928.841c1.456,0,2.52-.505,2.52-2.128,0-2.129-2.408-5.657-3.7-5.657-.784,0-3.136,1.456-3.864,1.9-3.92,2.352-7.729,4.7-11.48,7.28-1.344.9-1.288.9-1.68,1.68-.224.337-.5.784-.9.784-.672,0-1.512-1.568-2.016-2.407-.448-.728-1.736-2.912-1.736-3.584,0-.728,1.064-1.009,1.68-1.233,3.7-1.511,10.752-5.656,14.728-7.783.56-.281,1.232-.561,1.232-1.345,0-.391-.28-.672-.84-1.511a5.581,5.581,0,0,1-1.064-3.36c0-1.456,1.008-6.664,2.744-6.664.784,0,4.648,1.4,4.648,2.184a3.468,3.468,0,0,1-.448,1.008,7.084,7.084,0,0,0-1.176,3.416c0,1.232,1.847,3.248,2.968,3.248a2.668,2.668,0,0,0,.671-.057,16.6,16.6,0,0,1,2.913-.224c13.384,0,20.5,12.936,20.5,13.944,0,.952-3.976,3.136-5.208,3.136-.672,0-1.009-.728-1.232-1.288-1.68-3.64-4.425-7.392-8.064-9.239a13.455,13.455,0,0,0-4.088-1.121c-.392,0-1.064.225-1.064.729C535.046,1855.161,535.27,1855.385,535.382,1855.61Zm-3.248-24.528a43.07,43.07,0,0,1,4.48,2.688.962.962,0,0,1,.448.783c0,.841-2.24,4.7-3.136,4.7a1.525,1.525,0,0,1-.952-.447,39.624,39.624,0,0,0-8.064-4.985c-.56-.279-1.232-.5-1.232-1.119,0-.9,1.624-4.257,2.744-4.257C527.206,1828.449,531.238,1830.578,532.134,1831.082Z" fill="#877877"/>
      <path id="パス_2376" data-name="パス 2376" d="M581.694,1851.073a173.057,173.057,0,0,1,11.7-19.767c.84-1.344,1.568-2.52,2.3-3.864.168-.28.448-.84.84-.84.5,0,2.576,1.679,3.136,2.128.559.392,2.576,1.792,2.576,2.407s-.5.841-1.008.9a2.43,2.43,0,0,0-1.456.728,55.377,55.377,0,0,0-3.528,4.593c-.784,1.064-5.656,8.175-5.656,8.96a.6.6,0,0,0,.56.56,2.238,2.238,0,0,0,1.008-.392,12.577,12.577,0,0,1,5.936-1.905c2.24,0,4.984,1.177,5.936,3.3a9.364,9.364,0,0,1,.616,3.527,29.471,29.471,0,0,1-.728,5.432,32.023,32.023,0,0,0-.9,5.488c0,.952.336,2.128,1.456,2.128,3.136,0,8.456-6.776,10.192-9.24.28-.335.672-.784,1.12-.784,1.008,0,2.911,4.425,2.911,5.208a2.156,2.156,0,0,1-.615,1.232c-1.288,1.288-2.576,2.576-3.92,3.808-3.08,2.8-6.888,5.88-11.256,5.88-3.976,0-5.6-3.415-5.6-6.944a36.067,36.067,0,0,1,.728-6.5,25.217,25.217,0,0,0,.616-4.535c0-1.456-.5-2.577-2.128-2.577a10.442,10.442,0,0,0-4.816,1.568,16.63,16.63,0,0,0-5.712,5.1c-2.24,3.024-4.2,8.121-5.152,11.76-.168.728-.28,1.737-1.232,1.737-.9,0-5.376-1.624-5.376-2.577,0-.056.952-2.352,1.008-2.463C577.326,1860.425,579.4,1855.721,581.694,1851.073Z" fill="#877877"/>
      <path id="パス_2377" data-name="パス 2377" d="M658.637,1827.106c.336.111.673.336.673.671a1.057,1.057,0,0,1-.393.729c-.672.671-.784.616-1.008,2.968-.112.783-.391,3.36-.391,4.032,0,.616.223.728.839.839.336.113,2.185,2.3,2.185,3.024,0,.449-.505.841-.785,1.177-.672.728-2.744,3.359-2.744,4.312,0,.56.056.9.337.9.223,0,.559-.336.727-.5,4.144-3.584,8.512-6.664,14.224-6.664,7.616,0,13.048,6.383,13.048,13.775,0,8.457-6.328,13.833-13.608,16.8a16.583,16.583,0,0,1-4.592,1.345c-1.567,0-3.08-3.473-3.08-4.648,0-.953.672-1.121,1.456-1.289,6.1-1.4,13.608-4.647,13.608-11.983,0-4.2-2.8-8.232-7.336-8.232-4.76,0-11.255,4.312-14.224,7.951a3.23,3.23,0,0,0-.672,2.241c0,3.3.057,6.607.224,9.856.056,1.567.393,6.887.393,7.5s-.505.953-4.2.953c-1.624,0-2.352-.057-2.352-1.177,0-.447.056-1.511.056-1.792.056-1.736.168-4.144.168-4.424.057-1.792.057-3.64.057-5.432,0-.392-.113-.9-.56-.9s-.841.617-1.121.9c-1.064,1.288-3.359,4.2-4.2,5.489-.168.336-.448.783-.84.783-1.007,0-4.2-3.248-4.2-4.312,0-.615.952-1.456,1.4-1.9,3.3-3.36,7.447-8.289,9.463-12.488a4.616,4.616,0,0,0,.336-2.184v-.728c0-.56-.224-1.177-.9-1.177a4.891,4.891,0,0,0-.952.168,58.138,58.138,0,0,1-5.936,1.345c-.783,0-1.064-.728-1.287-1.345a22.949,22.949,0,0,1-.9-4.256c0-.839.559-.951,1.287-.951h.784a32.412,32.412,0,0,0,6.161-.56,2.128,2.128,0,0,0,1.735-.952,5.2,5.2,0,0,0,.28-2.3c0-1.905.112-3.808.112-5.712,0-.784-.056-1.4-.056-1.792,0-.616.281-.784.84-.784C653.485,1826.378,657.965,1826.938,658.637,1827.106Z" fill="#877877"/>
      <path id="パス_2378" data-name="パス 2378" d="M723.038,1832.257c0,.336-.392.617-.673.729a2.578,2.578,0,0,0-1.064,1.12,22.271,22.271,0,0,0-1.624,4.7,29.5,29.5,0,0,0-.728,6.272c0,.447-.055,2.856.56,2.856.449,0,.784-.9,1.009-1.456.279-.617,1.288-3.024,1.96-3.024.5,0,2.184,1.007,2.184,1.736,0,.167-.841,2.127-1.345,3.472l-.5,1.343c-.784,2.128-1.848,4.7-1.848,6.944,0,.784.113,1.4.113,1.792,0,1.569-2.969,2.241-4.033,2.241-1.232,0-1.624-1.008-1.96-2.073a46.524,46.524,0,0,1-1.848-13.048,52.727,52.727,0,0,1,1.288-11.48c.336-1.4.728-2.743.953-4.144.056-.391.224-1.4.728-1.4.168,0,2.631,1.009,3.023,1.177C720.461,1830.578,723.038,1831.642,723.038,1832.257Zm17.695-4.872c1.064,0,1.176.673,1.4,1.513a74.039,74.039,0,0,1,1.736,16.128c0,9.688-1.624,17.919-8.68,25.087-.9.9-3.191,3.136-4.48,3.136-.9,0-4.144-2.743-4.144-3.92,0-.447.5-.783.84-.951a21.267,21.267,0,0,0,7.616-8.737c2.072-4.424,2.576-9.351,2.576-14.112a54.383,54.383,0,0,0-1.96-15.624,3.316,3.316,0,0,1-.112-.728C735.525,1827.945,740.117,1827.385,740.733,1827.385Z" fill="#877877"/>
      <path id="パス_2379" data-name="パス 2379" d="M778.589,1840.882c.728,0,5.993,3.248,6.945,3.863,1.511.9,4.367,2.465,4.367,3.361,0,1.007-2.239,4.312-3.359,4.312a3.033,3.033,0,0,1-1.289-.617,99.279,99.279,0,0,0-8.9-5.655c-.392-.224-.953-.449-.953-.952C775.4,1844.3,777.525,1840.882,778.589,1840.882Zm1.848,24.023a66.535,66.535,0,0,0,6.665-2.24c5.432-2.183,9.856-4.592,13.943-8.791,4.537-4.761,7.392-10.808,9.577-16.912.223-.56.447-1.345,1.175-1.345.84,0,4.2,3.08,4.2,4.2a12.324,12.324,0,0,1-.728,2.184c-.113.392-.281.671-.336.9a49.465,49.465,0,0,1-10.361,15.847c-5.208,5.1-12.32,8.848-19.152,11.312a3.1,3.1,0,0,0-2.128,1.624.739.739,0,0,1-.56.336c-.615,0-1.064-1.232-1.4-1.9q-.922-2.016-1.848-4.032a1.358,1.358,0,0,1-.111-.5C779.374,1865.13,780.1,1865.017,780.437,1864.905Zm10.752-32.7c1.177.841,3.192,2.241,4.2,3.08a1.31,1.31,0,0,1,.615.953c0,1.007-2.352,4.144-3.359,4.144a2.826,2.826,0,0,1-1.4-.728,85.266,85.266,0,0,0-8.232-5.936c-.392-.225-.952-.561-.952-1.064,0-.785,2.408-3.864,3.416-3.864.671,0,3.359,1.847,4.872,2.856C790.742,1831.865,791.021,1832.09,791.189,1832.2Z" fill="#877877"/>
      <path id="パス_2380" data-name="パス 2380" d="M870.542,1832.761c1.176,0,3.919,0,5.04-.111.224,0,.839-.112,1.007-.112,1.345,0,3.752,3.024,3.752,3.584s-.5,1.176-.951,3.584c-1.905,10.807-5.88,18.256-14.953,24.639a52.021,52.021,0,0,1-10.751,5.712,5.709,5.709,0,0,1-1.849.5c-1.343,0-3.359-3.752-3.359-4.648,0-.615.5-.783,1.008-.9a39.364,39.364,0,0,0,13.944-7.391,26.032,26.032,0,0,0,9.183-16.352,10.872,10.872,0,0,0,.113-1.345c0-1.064-.953-1.175-1.96-1.175h-19.88c-2.352,0-4.648.111-7,.111-1.737,0-1.68-.5-1.68-3.024,0-2.575-.057-3.191,1.512-3.191,2.407,0,4.816.111,7.223.111Z" fill="#877877"/>
      <path id="パス_2381" data-name="パス 2381" d="M917.134,1846.874l9.408-.168c1.063,0,1.512-.841,1.512-1.792v-1.177a34.484,34.484,0,0,0-.281-5.376c0-.167-.055-.447-.055-.671,0-.617.448-.84,1.008-.84.784,0,3.08.336,3.92.448.5.111,1.12.224,1.12.9,0,.392-.168.5-.449.784-.336.336-.336.783-.336,1.4v4.087c0,.9.336,2.072,1.569,2.072H936.4c1.177,0,5.376-.223,5.712-.223,1.233,0,1.345.839,1.345,2.967,0,1.568-.225,2.128-1.513,2.128h-2.8c-.9,0-1.792.056-2.632.056h-1.792a1.6,1.6,0,0,0-1.569,1.568l.168,9.409c0,.839.057,1.735.057,2.575,0,4.425-1.121,6.832-7.952,6.832-.784,0-1.568,0-1.96-.783a10.549,10.549,0,0,1-.84-3.416.857.857,0,0,1,.952-.953c.392,0,1.511.112,2.464.112,2.352,0,2.408-.672,2.352-3.975l-.112-6.553c0-.392-.168-.784-.673-.784-.391,0-.615.337-.9.673a60.684,60.684,0,0,1-12.095,10.92,3.1,3.1,0,0,1-1.512.671c-.784,0-3.3-2.184-3.3-3.192,0-.5.5-.784.9-1.007a52.974,52.974,0,0,0,11.088-8.792c.392-.449,1.9-1.96,1.9-2.465a.684.684,0,0,0-.728-.615l-5.712.055c-.784,0-5.04.224-5.488.224-1.288,0-1.4-1.12-1.4-2.184v-.672c0-1.4-.056-2.3,1.455-2.3.729,0,1.457.056,2.185.056Z" fill="#877877"/>
      <path id="パス_2382" data-name="パス 2382" d="M1016.2,1843.794c0,.951-2.24,3.135-2.968,3.863-9.072,9.352-18.591,15.624-30.408,21.112-1.847.9-1.9.952-2.351,1.9a.563.563,0,0,1-.561.336c-.616,0-1.792-2.24-2.183-2.912a15.681,15.681,0,0,1-1.681-3.36c0-.616,1.009-.728,1.736-.952,12.376-3.639,26.376-14.223,34.328-24.36a1.376,1.376,0,0,1,.953-.615C1014.182,1838.81,1016.2,1842.953,1016.2,1843.794Zm-28.9-9.241c.728.505,3.416,2.352,3.416,3.193,0,1.287-2.632,4.312-3.7,4.312a6.007,6.007,0,0,1-2.24-1.512,69.593,69.593,0,0,0-7.448-5.208c-.447-.28-.9-.561-.9-1.064,0-.84,2.241-4.424,3.528-4.424C980.861,1829.85,986.237,1833.77,987.3,1834.553Z" fill="#877877"/>
      <path id="パス_2383" data-name="パス 2383" d="M1067.829,1833.21c1.568,0,4.145-.112,4.928-.112,1.177,0,1.96,1.008,2.688,1.736.5.5,1.96,2.071,1.96,2.631,0,.5-.448,1.064-.84,3.249-1.848,10.527-5.992,17.919-14.839,24.08a50.853,50.853,0,0,1-10.752,5.767,6.913,6.913,0,0,1-1.849.505c-1.288,0-3.3-3.752-3.3-4.705,0-.616.5-.784,1.008-.9a39.4,39.4,0,0,0,13.944-7.392,26.331,26.331,0,0,0,9.128-16.3,13.513,13.513,0,0,0,.168-1.4c0-1.064-.952-1.177-1.96-1.177h-19.935c-2.353,0-4.649.113-7,.113-1.681,0-1.681-.5-1.681-2.969,0-2.631-.055-3.247,1.569-3.247,2.408,0,4.815.112,7.223.112Zm14-.785c0,.785-1.96,2.577-2.687,2.577-.336,0-.5-.281-.729-.5a44.984,44.984,0,0,0-4.2-4.48c-.168-.224-.447-.449-.447-.728,0-.617,2.071-2.352,2.687-2.352S1081.829,1831.754,1081.829,1832.425Zm5.04-4.312c0,.785-1.96,2.577-2.632,2.577-.28,0-.56-.336-.728-.5a53.4,53.4,0,0,0-4.2-4.536c-.168-.168-.449-.393-.449-.672,0-.672,2.073-2.352,2.688-2.352S1086.869,1827.385,1086.869,1828.113Z" fill="#877877"/>
      <path id="パス_2384" data-name="パス 2384" d="M1135.253,1841.33c1.288,0,3.864,0,5.04-.113a6.166,6.166,0,0,1,1.009-.111c1.176,0,3.975,2.688,3.975,3.7a14.33,14.33,0,0,1-.728,2.3,38.953,38.953,0,0,1-3.247,7.56,46.775,46.775,0,0,1-11.593,13.216c-1.567,1.288-7.615,5.6-9.352,5.6-1.288,0-3.864-3.192-3.864-4.144,0-.672,1.4-1.176,1.96-1.456a40.3,40.3,0,0,0,17.193-15.9,14.394,14.394,0,0,0,1.511-3.64c0-1.343-1.511-1.232-2.408-1.232h-20.832c-2.352,0-4.7.113-7.111.113-1.569,0-1.569-.56-1.569-2.745,0-2.855.057-3.248,1.624-3.248,2.353,0,4.76.113,7.168.113Zm-3.752-12.1c2.3,0,5.152-.168,6.608-.168,1.4,0,1.512.616,1.512,3.416,0,1.9,0,2.631-1.512,2.631-2.24,0-4.423-.111-6.608-.111h-13.72c-2.183,0-4.368.111-6.552.111-1.568,0-1.568-.671-1.568-2.743,0-2.633.112-3.3,1.513-3.3,1.567,0,4.424.168,6.607.168Z" fill="#877877"/>
      <path id="パス_2385" data-name="パス 2385" d="M1186.382,1836.513a1.531,1.531,0,0,0,1.567-1.568v-2.295a51.3,51.3,0,0,0-.223-5.152,2.968,2.968,0,0,1-.056-.673c0-.5.447-.559.84-.559.559,0,4.2.28,4.76.28.391,0,2.072.056,2.072.671,0,.281-.448.617-.672.841-.673.559-.616,1.232-.616,4.48v2.407a1.531,1.531,0,0,0,1.567,1.568h8.12a20.059,20.059,0,0,0,2.689-.111,7.373,7.373,0,0,1,1.12-.057,3.548,3.548,0,0,1,2.071,1.177c1.008.952,1.624,1.4,1.624,2.184a6.836,6.836,0,0,1-.336,1.455c-.223.728-.391,1.456-.559,2.184-1.905,10.024-4.985,17.192-12.88,24.024-1.681,1.4-8.681,6.776-10.584,6.776-1.288,0-3.7-3.415-3.7-4.312,0-.559.5-.727,1.008-.951,7.336-3.3,13.889-9.017,17.193-16.409.9-2.015,2.464-6.776,2.464-8.9,0-1.343-1.121-1.456-2.184-1.456h-21.729a1.566,1.566,0,0,0-1.568,1.568v5.6c0,1.456.112,3.305.112,4.256,0,1.569-.5,1.569-3.416,1.569-2.408,0-2.8-.113-2.8-1.456,0-1.4.055-2.8.055-4.2v-7.728c0-1.007-.055-1.96-.055-2.911,0-1.624.112-2.352,2.744-2.352,2.015,0,4.088.055,6.16.055Z" fill="#877877"/>
      <path id="パス_2386" data-name="パス 2386" d="M1280.518,1843.794c0,.951-2.241,3.135-2.968,3.863-9.072,9.352-18.592,15.624-30.408,21.112-1.848.9-1.9.952-2.352,1.9a.561.561,0,0,1-.561.336c-.616,0-1.791-2.24-2.183-2.912a15.678,15.678,0,0,1-1.681-3.36c0-.616,1.009-.728,1.737-.952,12.376-3.639,26.376-14.223,34.328-24.36a1.372,1.372,0,0,1,.952-.615C1278.5,1838.81,1280.518,1842.953,1280.518,1843.794Zm-28.9-9.241c.729.505,3.416,2.352,3.416,3.193,0,1.287-2.632,4.312-3.695,4.312a6,6,0,0,1-2.24-1.512,69.709,69.709,0,0,0-7.449-5.208c-.447-.28-.895-.561-.895-1.064,0-.84,2.24-4.424,3.527-4.424C1245.182,1829.85,1250.558,1833.77,1251.621,1834.553Z" fill="#877877"/>
      <path id="パス_2387" data-name="パス 2387" d="M1315.182,1859.026c0,1.4.112,2.3,1.12,2.3a24.165,24.165,0,0,0,4.592-1.792,77.637,77.637,0,0,0,21.5-14.728c.336-.336.84-.9,1.344-.9.9,0,2.8,3.7,2.8,4.816a1.628,1.628,0,0,1-.616,1.009c-1.233,1.232-2.576,2.352-3.92,3.471a100.29,100.29,0,0,1-24.641,14.56,20.892,20.892,0,0,0-1.96.9,3.333,3.333,0,0,1-1.4.56,19.7,19.7,0,0,1-4.424-2.071c-.672-.505-.728-1.009-.728-1.961,0-1.9.112-3.975.112-6.048v-22.792c0-1.232,0-2.463-.056-3.416-.056-.391-.168-1.568-.168-1.847a.6.6,0,0,1,.615-.673,11.8,11.8,0,0,1,1.176.169c.9.112,3.7.559,4.536.783.5.113,1.177.168,1.177.729,0,.335-.28.5-.505.728a2.15,2.15,0,0,0-.5,1.735c-.055.841-.055,1.737-.055,2.633Z" fill="#877877"/>
      <path id="パス_2388" data-name="パス 2388" d="M1412.678,1843.794c0,.951-2.24,3.135-2.968,3.863-9.072,9.352-18.592,15.624-30.408,21.112-1.848.9-1.905.952-2.352,1.9a.561.561,0,0,1-.56.336c-.617,0-1.792-2.24-2.184-2.912a15.678,15.678,0,0,1-1.681-3.36c0-.616,1.009-.728,1.737-.952,12.376-3.639,26.376-14.223,34.328-24.36a1.372,1.372,0,0,1,.952-.615C1410.662,1838.81,1412.678,1842.953,1412.678,1843.794Zm-28.9-9.241c.729.505,3.416,2.352,3.416,3.193,0,1.287-2.632,4.312-3.7,4.312a6,6,0,0,1-2.24-1.512,69.707,69.707,0,0,0-7.449-5.208c-.447-.28-.9-.561-.9-1.064,0-.84,2.24-4.424,3.527-4.424C1377.342,1829.85,1382.718,1833.77,1383.781,1834.553Z" fill="#877877"/>
      <path id="パス_2389" data-name="パス 2389" d="M1462.014,1833.489c.952,0,3.192,0,4.032-.111a8.981,8.981,0,0,1,1.231-.112c1.177,0,3.584,3.024,3.584,3.752,0,.447-.672,1.232-.9,1.624-.784,1.119-1.68,2.743-2.408,3.975a83.732,83.732,0,0,1-6.1,8.681,1.607,1.607,0,0,0-.5,1.12,1.478,1.478,0,0,0,.84,1.287,84.74,84.74,0,0,1,9.464,7.224c1.4,1.232,2.744,2.464,4.032,3.752a1.253,1.253,0,0,1,.447.841c0,1.232-3.08,4.535-4.311,4.535a1.837,1.837,0,0,1-1.344-.9c-4.032-4.759-7.448-7.447-12.432-11.088a2.167,2.167,0,0,0-1.232-.5c-.84,0-1.513.785-2.072,1.344a58.4,58.4,0,0,1-13.945,9.633,8.776,8.776,0,0,1-2.183.839c-1.12,0-3.7-3.7-3.7-4.7,0-.728.728-1.008,1.288-1.232,9.744-3.752,19.544-12.6,25.032-21.447a3.558,3.558,0,0,0,.727-1.624c0-.84-.952-.953-1.792-.953H1448.35c-2.409,0-4.816.113-7.168.113-1.512,0-1.4-1.009-1.4-3.193,0-2.015-.112-3.024,1.288-3.024,2.408,0,4.871.168,7.28.168Zm14.9,0c0,.841-1.961,2.577-2.688,2.577-.336,0-.672-.5-1.233-1.121-1.119-1.343-2.351-2.631-3.584-3.863-.223-.224-.5-.449-.5-.784,0-.616,2.073-2.3,2.745-2.3C1472.206,1828,1476.91,1832.761,1476.91,1833.489Zm5.544-3.807c0,.783-1.9,2.519-2.688,2.519-.281,0-.56-.336-.728-.559a59.087,59.087,0,0,0-4.032-4.368c-.225-.225-.5-.5-.5-.785,0-.671,2.071-2.351,2.687-2.351C1477.75,1824.138,1482.454,1828.9,1482.454,1829.682Z" fill="#877877"/>
      <path id="パス_2390" data-name="パス 2390" d="M1502.67,1834.666c8.176-.5,16.351-1.345,24.472-2.3,4.255-.505,8.512-1.064,12.712-1.737a3.243,3.243,0,0,1,.728-.055c.84,0,.952.728,1.064,1.4a25.448,25.448,0,0,1,.5,4.088c0,1.232-1.175,1.12-2.519,1.175-3.248.057-6.1.057-9.3,1.177a17.022,17.022,0,0,0-9.521,8.343,20.968,20.968,0,0,0-2.687,9.856c0,6.5,4.144,8.064,9.855,8.064.953,0,2.185-.055,2.8-.055.84,0,1.288.055,1.288.951a15.83,15.83,0,0,1-.841,4.593c-.391.839-.839.951-1.791.951-9.52,0-17.7-3.024-17.7-13.944a24.868,24.868,0,0,1,6.16-16.071c.616-.672.952-1.064.952-1.345,0-.5-.448-.671-.84-.671s-2.968.448-3.528.5c-3.752.56-8.792,1.345-12.376,2.3a4.331,4.331,0,0,1-.84.113c-.784,0-1.064-1.232-1.232-1.849a25.087,25.087,0,0,1-.616-4.031C1499.422,1834.666,1500.206,1834.834,1502.67,1834.666Zm37.184,13.663c0,.841-2.24,2.352-2.856,2.352-.393,0-.56-.391-.784-.672-1.12-1.624-2.353-3.191-3.584-4.7-.168-.168-.5-.5-.5-.783,0-.672,2.24-2.073,2.855-2.073S1539.854,1847.657,1539.854,1848.329Zm6.776-3.079c0,.783-2.185,2.352-2.857,2.352-.391,0-.615-.449-.839-.728a47.277,47.277,0,0,0-3.64-4.648,1.343,1.343,0,0,1-.393-.728c0-.673,2.185-2.129,2.857-2.129C1542.317,1839.369,1546.63,1844.577,1546.63,1845.25Z" fill="#877877"/>
      <path id="パス_2391" data-name="パス 2391" d="M812.525,1923.695a1.376,1.376,0,0,0,1.513,1.568c.671-.056,1.343-.056,2.071-.056,1.345,0,2.632.28,2.632,1.96,0,.5-.112,1.064-.112,1.848v.84c.057.336.112,1.512.112,1.68,0,1.064-.728.952-2.3,1.008-.392.056-.84.224-.84.672a1.09,1.09,0,0,0,.168.56,11.606,11.606,0,0,1,1.624,2.912c0,.84-2.576,1.736-3.3,1.736a.887.887,0,0,1-.9-.616,41.5,41.5,0,0,0-3.416-5.376,1.882,1.882,0,0,1-.28-.784c0-1.008,2.464-1.848,2.856-1.848a1.092,1.092,0,0,1,.84.392.486.486,0,0,0,.336.168.38.38,0,0,0,.392-.392v-.392c0-.728-.279-1.064-1.064-1.064H803.9c-.392.056-.728.168-.728.616,0,.336.168.448.392.728.5.56,1.121,1.232,1.121,1.68,0,.728-2.3,1.848-2.913,1.848-.56,0-.839-.392-1.735-1.456-.392-.448-.9-1.064-1.568-1.848a1.246,1.246,0,0,1-.337-.728c0-.168.113-.28.224-.448a.2.2,0,0,0,.057-.167c0-.169-.113-.169-.225-.225h-9.912c-.447.056-.672.225-.672.728v.784c.057.112.168.112.281.056s.168-.112.28-.112a14.715,14.715,0,0,1,2.8.9c.673.224,1.345.392,1.345.952,0,.28-.281.448-.56.56-.5.112-.5.168-1.064,1.232q-1.008,1.932-2.185,3.864c-.224.392-.5.84-1.007.84-.728,0-3.248-1.008-3.248-1.848a3.994,3.994,0,0,1,.783-1.344c.281-.448.56-.84.9-1.4a.9.9,0,0,0,.168-.5c0-.56-.448-.728-.9-.784-1.68,0-2.408,0-2.408-.952,0-.392.111-1.288.111-1.624v-.9c0-.728-.111-1.288-.111-1.848,0-1.736,1.512-1.9,2.856-1.9.56,0,1.12,0,1.68.056,1.064-.111,1.4-.5,1.511-1.568v-5.432c0-1.176-.111-2.352-.111-3.527,0-1.792,1.007-2.3,2.631-2.3,1.121,0,2.185.056,3.3.056a1.052,1.052,0,0,0,1.119-.615l.056-.113a1.3,1.3,0,0,0,.113-.448c0-.616-.449-.784-.952-.84h-3.473c-1.9,0-3.752.112-5.6.112-1.12,0-1.12-.56-1.12-1.959v-.505a.261.261,0,0,0-.281-.28h-.168c-.839.392-.9.617-1.232,1.9a72.365,72.365,0,0,1-3.64,9.744c0,.056-.055.168-.055.224,0,.28.223.392.447.448.5.056,1.232.112,1.232.728,0,.392-.336.56-.672.841-.56.391-.615,1.567-.615,3.583v20.552c0,2.464.112,4.984.112,7.448,0,1.568-.617,1.848-2.745,1.848-2.239,0-2.743-.392-2.743-1.9,0-2.464.112-4.928.112-7.392v-15.792c0-.224-.057-.448-.336-.448a.4.4,0,0,0-.336.168c-.392.616-1.288,2.016-2.073,2.016-.9,0-3.416-2.968-3.416-3.976a1.672,1.672,0,0,1,.449-.952,64.851,64.851,0,0,0,9.407-20.832c.113-.5.225-1.064.9-1.064a32.889,32.889,0,0,1,5.489,1.568.408.408,0,0,0,.336.113.7.7,0,0,0,.336-.057,2.3,2.3,0,0,1,.616-.056c1.847,0,3.7.056,5.6.056h21.336c1.9,0,3.752-.056,5.6-.056,1.121,0,1.121.673,1.121,2.016,0,1.4,0,2.016-1.121,2.016-1.9,0-3.752-.112-5.6-.112h-9.8a1.245,1.245,0,0,0-1.232.673,1.609,1.609,0,0,0-.168.559c0,.616.447.784.951.84h3.137c1.4,0,2.8-.112,4.2-.112,1.68,0,2.688.448,2.688,2.352,0,1.176-.112,2.352-.112,3.472Zm-5.879,25.032c0,.336.224.448.5.56a56.629,56.629,0,0,0,10.584,1.456c.953,0,1.849-.112,1.849,1.176,0,.784-.393,3.3-2.353,3.3a69.584,69.584,0,0,1-8.176-1.064,41.576,41.576,0,0,1-7.391-2.184,3.326,3.326,0,0,0-1.288-.28,2.756,2.756,0,0,0-1.177.224,58.1,58.1,0,0,1-11.424,2.968,26.8,26.8,0,0,1-2.856.392c-1.567,0-2.463-2.632-2.463-3.36,0-.784.671-.784,2.575-.952a62.174,62.174,0,0,0,9.465-1.68c.336-.112.56-.28.56-.672a.97.97,0,0,0-.337-.616,20.529,20.529,0,0,1-2.071-1.792,1.821,1.821,0,0,0-1.232-.672,1.889,1.889,0,0,0-.953.28c-1.064.616-4.087,2.408-5.208,2.408-1.175,0-2.239-2.24-2.239-2.912,0-.56.336-.672,1.064-.952a33.946,33.946,0,0,0,9.52-6.048c.168-.168.223-.224.223-.448a1.251,1.251,0,0,0-.279-.616,3.129,3.129,0,0,1-.729-2.184c0-.336.057-.784.057-1.008v-1.064c0-.672-.168-2.072-.168-2.576,0-.392.223-.5.615-.5.281,0,3.584.224,3.92.224.392.056.952.168.952.616,0,.392-.447.616-.728.728-.392.224-.447.672-.447,1.512v.5c0,1.232.5,1.176,1.96,1.176h3.807c1.68,0,2.073-.112,2.352-1.848.113-.616.224-.952.952-.952.561,0,3.528.28,3.528,1.624a8.7,8.7,0,0,1-1.456,3.752c-.783.952-2.575,1.064-3.975,1.064h-2.128a9.836,9.836,0,0,0-1.12.224c-.672.056-1.064-.056-1.681.672a.788.788,0,0,0-.168.5c0,.392.336.5.672.56h5.04c1.456,0,2.912-.056,4.369-.056,2.688,0,3.3,3.136,3.3,3.192,0,1.4-4.256,3.976-5.431,4.7A.758.758,0,0,0,806.646,1948.727Zm.111-31.584a.781.781,0,0,0,.728-.728v-.223a.83.83,0,0,0-.728-.728H794.549a.73.73,0,0,0-.672.728v.223a.7.7,0,0,0,.672.728Zm-12.208,2.24a.731.731,0,0,0-.672.728v.336a.7.7,0,0,0,.672.728h12.208a.782.782,0,0,0,.728-.728v-.336a.832.832,0,0,0-.728-.728Zm12.936,4.7a.73.73,0,0,0-.728-.672H794.549a.648.648,0,0,0-.672.672v.5a.648.648,0,0,0,.672.672h12.208a.73.73,0,0,0,.728-.672Zm-6.608,22.68a2.852,2.852,0,0,0,1.177-.336c.615-.336,3.247-1.68,3.247-2.352,0-.336-.615-.392-1.9-.392h-5.6c-.336,0-.728.168-.728.56,0,.224.113.336.281.5.728.56,1.4,1.064,2.184,1.568A2.945,2.945,0,0,0,800.877,1946.767Z" fill="#877877"/>
      <path id="パス_2392" data-name="パス 2392" d="M855.87,1910.535c.392.056,1.12.281,1.12.784,0,.392-.336.561-.673.84-1.96,1.456-2.463,19.208-2.463,22.4,0,4.368-.112,11.144,5.936,11.144a14.18,14.18,0,0,0,10.527-5.432,17.783,17.783,0,0,0,3.416-8.288c.168-.9.281-1.848,1.121-1.848,1.231,0,4.647,2.856,4.647,4.536,0,1.568-1.512,5.1-2.295,6.552-3.36,6.272-9.745,10.7-17.024,10.7-3.7,0-7.56-1.344-9.856-4.312-2.52-3.36-2.8-8.792-2.8-12.88q0-6.636.505-13.272c.168-2.576.672-7.952.672-10.248v-.616c0-.84.056-1.4.84-1.4A47.488,47.488,0,0,1,855.87,1910.535Z" fill="#877877"/>
      <path id="パス_2393" data-name="パス 2393" d="M915.846,1914.679a2.59,2.59,0,0,0-2.409,1.12c-1.119,1.344-6.495,7.616-8.007,7.616-.784,0-3.584-1.679-3.584-2.8,0-.56.784-1.064,1.288-1.512a41.5,41.5,0,0,0,10.976-14.112c.168-.336.336-.616.728-.616a29.981,29.981,0,0,1,3.975,1.065c1.177.336,2.129.559,2.129,1.119,0,.392-.616.616-.952.673a1.684,1.684,0,0,0-1.344,1.064,4.989,4.989,0,0,0-.336.559,1.083,1.083,0,0,0-.168.56c0,.56.5.673.9.728H941.6c2.128,0,4.256-.112,6.385-.112,1.343,0,1.343.5,1.343,2.408,0,1.848,0,2.352-1.343,2.352-2.129,0-4.257-.112-6.385-.112Zm8.96,26.208a1.518,1.518,0,0,0,.616,1.12,59.844,59.844,0,0,1,5.767,4.816c.393.392.953.84.953,1.4,0,.84-1.4,3.864-3.024,3.864-.672,0-1.177-.56-1.624-.952-1.9-1.792-3.7-3.584-5.712-5.208a1.824,1.824,0,0,0-1.064-.448,2.056,2.056,0,0,0-1.12.5,55.945,55.945,0,0,1-11.088,7.672,6.656,6.656,0,0,1-2.352,1.008c-1.12,0-3.136-3.024-3.136-3.976,0-.56.672-.9,1.344-1.232.168-.056.28-.168.448-.224a48.912,48.912,0,0,0,10.08-6.44,1.191,1.191,0,0,0,.392-.84,1.111,1.111,0,0,0-.56-.9,51.351,51.351,0,0,0-5.824-2.912c-.673-.28-1.792-.616-1.792-1.4,0-.952,2.072-3.472,3.024-3.472,1.288,0,6.887,3.192,8.288,4.032a1.885,1.885,0,0,0,.952.28,1.593,1.593,0,0,0,1.176-.672,27.5,27.5,0,0,0,3.08-4.872c.168-.448.559-1.4,1.12-1.4a13.622,13.622,0,0,1,3.248,1.456c.28.168.5.28.616.336.56.28,1.792.84,1.792,1.4,0,.448-.448.56-.784.616-.9.056-.9.112-1.568,1.232a31.744,31.744,0,0,1-2.912,4.256A1.77,1.77,0,0,0,924.806,1940.887Zm-10.864-11.368c-2.3,0-4.592.168-6.888.168-1.232,0-1.232-.616-1.232-2.52,0-2.015.056-2.52,1.288-2.52,2.3,0,4.536.168,6.832.168H936.9c1.345,0,2.689-.112,3.976-.112,2.073,0,3.416.168,3.416,2.576,0,1.736-.335,5.88-.335,9.24,0,1.736.335,12.544,2.295,12.544,1.4,0,1.905-5.712,2.017-6.832.111-1.008.28-1.344,1.344-1.344,1.232,0,3.136.56,3.136,2.016a29.1,29.1,0,0,1-1.176,6.888c-.9,2.744-2.52,5.376-5.768,5.376-2.577,0-4.312-1.512-5.321-3.808-1.96-4.592-2.351-12.04-2.351-17.024,0-1.12,0-2.24.055-3.3,0-1.064-.447-1.512-1.511-1.512Zm5.376-7.783c-1.848,0-3.7.111-5.544.111-1.288,0-1.232-.784-1.232-2.184,0-1.511,0-2.24,1.232-2.24,1.848,0,3.7.112,5.544.112h16.968c1.848,0,3.7-.112,5.544-.112,1.288,0,1.232.729,1.232,2.24,0,1.568,0,2.184-1.232,2.184-1.849,0-3.7-.111-5.544-.111Z" fill="#877877"/>
      <path id="パス_2394" data-name="パス 2394" d="M992.565,1907.568c.281.111.9.279.9.671s-.392.616-.9,1.008c-.448.392-.839,2.352-1.007,2.968a18.149,18.149,0,0,0-.617,2.521.653.653,0,0,0,.617.728,27.159,27.159,0,0,0,3.191-.841,2.03,2.03,0,0,1,.561-.112c.671,0,.727,1.008.839,1.681a26.307,26.307,0,0,1,.281,2.967c0,1.232-.673,1.344-5.825,2.3-2.016.336-1.959.728-2.631,2.576a142.611,142.611,0,0,1-9.128,19.936c-.336.56-.5.784-1.12.784-1.233,0-4.985-1.624-4.985-2.8a6.214,6.214,0,0,1,1.008-2.016A104.584,104.584,0,0,0,980.413,1927a21.894,21.894,0,0,0,1.288-3.416.754.754,0,0,0-.784-.728c-.447,0-4.76.56-6.048.56-.952,0-1.176-.5-1.4-1.792-.113-.672-.393-2.688-.393-3.248,0-.728.393-.9,1.008-.9h2.576a49.753,49.753,0,0,0,5.769-.28c.727-.112,1.231-.168,1.679-.9.84-1.4,1.792-7.616,1.792-9.408,0-.391,0-.951.5-.951C987.021,1905.944,991.669,1907.287,992.565,1907.568Zm8.064,16.687c.616.168,1.12.5,1.12,1.176,0,.112-.112,1.792-.112,2.968,0,1.624.28,9.688.56,10.864.168.84.9,1.064,1.737,1.4.168.056.391.168.559.224,1.288.5,7.9,3.584,7.9,4.928,0,.9-2.072,4.088-3.472,4.088-.56,0-1.063-.5-1.456-.784-.84-.616-3.584-2.576-4.48-2.576-.616,0-.839.784-.9,1.288-.672,4.088-3.976,5.488-7.784,5.488-4.535,0-9.856-2.408-9.856-7.616,0-5.152,4.872-6.944,9.3-6.944H995.2c.672,0,1.176-.28,1.176-.952,0-1.792-.84-9.912-1.008-12.1,0-.28-.055-.5-.055-.784,0-.9.5-1.232,1.343-1.232A23.448,23.448,0,0,1,1000.629,1924.255Zm-10.472,21.336c0,1.736,2.24,2.632,3.7,2.632,2.015,0,2.912-1.064,2.912-3.024,0-1.12-.057-1.736-2.857-1.736C992.565,1943.463,990.157,1943.8,990.157,1945.591Zm24.472-21.392c0,1.344-3.191,3.864-4.2,3.864-.56,0-.951-.616-1.232-1.008a31.752,31.752,0,0,0-7-7.224c-.223-.168-.728-.5-.728-.9,0-.783,2.576-3.864,3.752-3.864C1006.621,1915.071,1014.629,1922.743,1014.629,1924.2Z" fill="#877877"/>
      <path id="パス_2395" data-name="パス 2395" d="M1042.687,1946.151c-1.008,0-1.457.448-1.512,1.512,0,.616.055,1.232.055,1.848,0,1.456-.839,1.344-2.744,1.344-2.128,0-2.744.056-2.744-1.512,0-2.016.112-4.088.112-6.1v-27.664c0-1.568-.055-3.192-.055-4.759,0-1.792.336-2.689,2.239-2.689,1.009,0,2.017.112,3.025.112h3.919c1.008,0,1.96-.112,2.968-.112,2.017,0,2.3.952,2.3,2.744,0,1.568-.056,3.136-.056,4.7v25.7c0,1.9.056,3.808.056,5.712,0,1.512-.672,1.456-2.576,1.456-2.239,0-2.407-.112-2.575-1.288-.113-.672-.336-1.008-1.009-1.008Zm2.519-31.136c0-.952-.615-1.456-1.567-1.568h-.952c-.953.112-1.569.616-1.569,1.568v2.52c0,.952.616,1.456,1.569,1.568h.952a1.6,1.6,0,0,0,1.567-1.568Zm-1.567,14.448a1.6,1.6,0,0,0,1.567-1.568v-2.352a1.564,1.564,0,0,0-1.567-1.568h-.952a1.47,1.47,0,0,0-1.569,1.568v2.352c0,.952.616,1.456,1.569,1.568Zm0,11.536a1.483,1.483,0,0,0,1.567-1.512v-3.472a1.483,1.483,0,0,0-1.567-1.512h-.952a1.428,1.428,0,0,0-1.569,1.512v3.472a1.428,1.428,0,0,0,1.569,1.512Zm26.712,1.232c0,.784.336,1.064,1.063,1.064h3.7c1.905,0,3.808-.112,5.768-.112,1.232,0,1.177.784,1.177,2.184,0,1.456.055,2.184-1.177,2.184-1.96,0-3.863-.112-5.768-.112h-3.639c-.784,0-1.12.28-1.12,1.064v.392a.926.926,0,0,0,1.063,1.064h5.152c1.96,0,3.976-.112,5.993-.112,1.343,0,1.287.616,1.287,2.24,0,1.512.056,2.184-1.232,2.184-2.015,0-4.032-.112-6.048-.112h-19.152c-2.016,0-4.031.112-6.048.112-1.288,0-1.288-.56-1.288-2.184,0-1.68,0-2.24,1.288-2.24,2.017,0,4.032.112,6.048.112h6.328a.926.926,0,0,0,1.065-1.064v-.392c0-.784-.281-1.064-1.065-1.064h-3.807c-1.905,0-3.865.112-5.769.112-1.231,0-1.176-.672-1.176-2.184,0-1.456-.055-2.184,1.176-2.184,1.96,0,3.864.112,5.769.112h3.807c.729,0,1.065-.28,1.065-1.008v-.28c0-.728-.281-1.064-1.065-1.064h-2.464c-1.232,0-2.464.112-3.7.112-1.567,0-2.408-.5-2.408-2.184,0-.952.056-1.848.056-2.8V1929.3c0-.952-.056-1.848-.056-2.744,0-1.736.841-2.184,2.465-2.184,1.231,0,2.464.056,3.639.056h12.657c1.231,0,2.463-.056,3.695-.056,1.568,0,2.464.392,2.464,2.128,0,.952-.056,1.848-.056,2.8v6.776c0,.952.056,1.9.056,2.8,0,1.68-.9,2.184-2.407,2.184-1.233,0-2.521-.112-3.752-.112h-2.464c-.784,0-1.12.28-1.12,1.064Zm.168-34.272c0,.9.727,1.176,1.456,1.176h3.3c1.737,0,3.529-.111,5.264-.111,1.288,0,1.232.727,1.232,2.239,0,1.624,0,2.3-1.232,2.3-1.176,0-2.352-.056-3.472-.112a.121.121,0,0,0-.112.112c0,.056,0,.113.057.113.5.111,1.287.279,1.287.839,0,.392-.224.5-.56.56a1.2,1.2,0,0,0-.895.672,3.634,3.634,0,0,0-.449,1.232c0,.616.449.84,1.008.84,1.68,0,3.416-.112,5.1-.112,1.288,0,1.232.784,1.232,2.3,0,1.569.056,2.24-1.232,2.24-2.016,0-4.031-.112-6.048-.112h-17.359c-1.96,0-3.977.112-5.992.112-1.289,0-1.289-.56-1.289-2.24,0-1.736,0-2.3,1.289-2.3,1.679,0,3.3.112,4.927.112.56,0,1.065-.224,1.065-.9a1.639,1.639,0,0,0-.113-.5c-.224-.728-.5-1.4-.784-2.128-.168-.392-.336-.784-.784-.784-.84,0-1.735.056-2.519.056-1.289,0-1.233-.728-1.233-2.3,0-1.624,0-2.239,1.288-2.239,1.737,0,3.472.111,5.208.111h3.136c1.009,0,1.568-.448,1.513-1.512a13.727,13.727,0,0,0-.113-1.512,1.753,1.753,0,0,1-.055-.5c0-.673.5-.785,1.007-.785,1.064,0,3.417.225,4.537.336.615.056,1.624.056,1.624.728,0,.392-.281.5-.729.785a1.2,1.2,0,0,0-.559.951Zm-5.433,21.28a1.25,1.25,0,0,0-1.344-1.288h-2.072a1.25,1.25,0,0,0-1.344,1.288v.28a1.3,1.3,0,0,0,1.344,1.344h2.072a1.294,1.294,0,0,0,1.344-1.344Zm-3.416,4.872a1.3,1.3,0,0,0-1.344,1.344v.448a1.264,1.264,0,0,0,1.344,1.344h2.072a1.264,1.264,0,0,0,1.344-1.344v-.448a1.294,1.294,0,0,0-1.344-1.344Zm3.584-16.3h3.809c1.175,0,1.624-.224,2.071-1.344a9.193,9.193,0,0,0,.616-2.016c0-.728-.56-.952-1.176-1.008h-5.6c-.281.056-1.121.056-1.121.953a1.315,1.315,0,0,0,.112.447c.169.617.505,1.513.616,2.128C1064.694,1917.367,1064.807,1917.815,1065.254,1917.815Zm8.288,13.048a1.3,1.3,0,0,0,1.345-1.344v-.28a1.251,1.251,0,0,0-1.345-1.288h-2.071a1.222,1.222,0,0,0-1.345,1.288v.28a1.264,1.264,0,0,0,1.345,1.344Zm-3.416,5.04a1.237,1.237,0,0,0,1.345,1.344h2.071a1.264,1.264,0,0,0,1.345-1.344v-.448a1.3,1.3,0,0,0-1.345-1.344h-2.071a1.264,1.264,0,0,0-1.345,1.344Z" fill="#877877"/>
      <path id="パス_2396" data-name="パス 2396" d="M1116.1,1911.991c.448.168,1.12.392,1.12.953,0,.335-.225.391-.785.728-.952.5-1.175,1.007-1.736,2.407a44.431,44.431,0,0,0-3.136,15.9c0,1.064.224,7.84,1.512,7.84.5,0,1.288-1.624,1.513-2.184.336-.728.672-1.344,1.176-1.344.559,0,2.015,1.176,2.015,1.792,0,.5-2.24,5.6-2.24,8.12,0,.56.168,1.848.225,2.352a5.07,5.07,0,0,1,.112.84c0,1.4-3.192,2.744-4.368,2.744-.952,0-1.624-1.232-2.353-2.744-2.632-5.32-3.416-11.312-3.416-17.192a66.967,66.967,0,0,1,2.857-18.535,25.841,25.841,0,0,0,.727-2.8c.112-.5.225-1.232.84-1.232C1110.614,1909.639,1115.318,1911.655,1116.1,1911.991Zm6.944,26.768c2.407,2.968,4.76,3.92,8.512,3.92a45.819,45.819,0,0,0,12.319-1.792,3.993,3.993,0,0,1,1.177-.224c.895,0,1.008,1.344,1.008,4.2,0,.672.055,1.68-.672,2.072-1.569.84-11.033,1.68-13.273,1.68-9.071,0-12.824-4.7-12.824-5.6,0-.784,1.96-4.76,3.024-4.76A.99.99,0,0,1,1123.047,1938.759Zm2.016-24.472a35.915,35.915,0,0,0,7.335.84,36.6,36.6,0,0,0,8.512-1.12,5.416,5.416,0,0,1,1.008-.167c.784,0,1.009.671,1.12,1.343a27.467,27.467,0,0,1,.225,3.024c0,1.176,0,1.624-1.065,1.848a65.257,65.257,0,0,1-9.408.785c-1.735,0-8.624-.337-9.8-1.121-.616-.392-.559-1.567-.559-2.184,0-2.688.279-3.528,1.175-3.528A7.405,7.405,0,0,1,1125.063,1914.287Z" fill="#877877"/>
    </g>
    <g id="グループ_1767" data-name="グループ 1767" transform="translate(84.451 -261.081)" opacity="0.3" style="mix-blend-mode: multiply;isolation: isolate">
      <path id="パス_15735" data-name="パス 15735" d="M1479.263,2044.939c1.832-6.224-2.181-14.082-5.654-19.561s-5.6-13.806-3.585-19.973c1.992-6.088,9.823-9.384,15.645-6.717s8.489,10.535,5.653,16.277a12.817,12.817,0,1,1,25,5.661c-1.791,7.536-9.643,11.717-16.683,14.952q-10.186,4.682-20.374,9.362" transform="translate(0 17.978)" fill="#833e4d"/>
      <path id="パス_15736" data-name="パス 15736" d="M1490.81,2012.157c-.816-5.91-3.417-10.646-3.962-14.676s.715-9.1,4.658-10.094a6.324,6.324,0,0,1,6.295,2.5,10.9,10.9,0,0,1,1.959,6.761,17.182,17.182,0,0,1,3.981-4.877c5.547-3.528,11.413,4.078,10.354,8.5-1.257,5.254-5.27,7.435-9.508,9.459s-9.083,2.246-13.776,2.431" transform="translate(29.898)" fill="#833e4d"/>
    </g>
  </g>
</svg>
