<svg xmlns="http://www.w3.org/2000/svg" width="306.466" height="66.304" viewBox="0 0 306.466 66.304">
  <g id="グループ_429" data-name="グループ 429" transform="translate(-221.314 -2072.381)">
    <rect id="長方形_151" data-name="長方形 151" width="125.859" height="27.406" rx="13.703" transform="translate(252.856 2110.779)" fill="none" stroke="#b5825f" stroke-miterlimit="10" stroke-width="1"/>
    <g id="グループ_422" data-name="グループ 422" transform="translate(271.312 2117.781)">
      <g id="グループ_421" data-name="グループ 421">
        <path id="パス_2464" data-name="パス 2464" d="M1109.346,2096.024a.218.218,0,0,0-.107.031,11.989,11.989,0,0,1-2.959,1.845c-.412,0-.915-.808-.915-1.052,0-.183.29-.32.458-.4a17.25,17.25,0,0,0,4.651-3.446,8.3,8.3,0,0,0,1.022-1.3.33.33,0,0,1,.29-.2c.153,0,1.235.259,1.464.32.122.031.289.107.289.259,0,.092-.091.153-.168.184a.141.141,0,0,0-.076.106.08.08,0,0,0,.03.061,15.054,15.054,0,0,0,5.49,4.01c.137.061.351.138.351.321,0,.214-.473,1.159-.793,1.159a16.326,16.326,0,0,1-3.2-1.875.132.132,0,0,0-.091-.046c-.092,0-.122.076-.137.152-.015.229-.046.351-.305.351-.366,0-.793-.031-1.22-.031h-2.425c-.412,0-.869.031-1.2.031-.259,0-.305-.106-.321-.351C1109.453,2096.085,1109.422,2096.024,1109.346,2096.024Zm.076,8.647c-.2,0-.275.091-.275.29v.045c0,.351-.244.336-.854.336-.579,0-.808,0-.808-.336,0-.2.046-.64.046-.945v-2.242c0-.29-.03-.595-.03-.885,0-.595.519-.656.991-.656.427,0,.854.03,1.281.03h3.05a.628.628,0,0,0,.625-.32,7.081,7.081,0,0,0,.732-1.236c0-.2-.35-.168-.488-.168h-3.95c-.564,0-1.159.046-1.617.046-.366,0-.351-.2-.351-.7,0-.427,0-.625.351-.625.382,0,1.022.046,1.617.046h4.3c.442,0,.869-.031,1.312-.031a1.033,1.033,0,0,1,.961.7,8.567,8.567,0,0,1-1.037,1.937.214.214,0,0,0-.046.138c0,.137.107.183.229.183h.427c.457,0,.961.076.961.64,0,.3-.03.595-.03.9v2.242c0,.2.046.717.046.93,0,.366-.229.351-.824.351s-.809.015-.809-.336v-.045c0-.2-.091-.29-.274-.29Zm5.841-2.685a.436.436,0,0,0-.427-.427h-5.308a.436.436,0,0,0-.427.427v1.006a.436.436,0,0,0,.427.427h5.308a.436.436,0,0,0,.427-.427Zm-3.05-8.54a.4.4,0,0,0-.274.137,18.358,18.358,0,0,1-1.449,1.433.23.23,0,0,0-.061.137c0,.107.076.137.167.153h3.2c.076-.015.168-.046.168-.153a.173.173,0,0,0-.046-.122,15.918,15.918,0,0,1-1.434-1.433A.416.416,0,0,0,1112.213,2093.447Z" transform="translate(-1105.365 -2091.51)" fill="#b5825f"/>
        <path id="パス_2465" data-name="パス 2465" d="M1150.714,2097.085c-.5,0-1.006.03-1.51.03-.351,0-.351-.183-.351-.778,0-.61,0-.793.351-.793.5,0,1.007.03,1.51.03h2.364a.688.688,0,0,1,.671.29.906.906,0,0,1,.214.58,4.647,4.647,0,0,1-.229.991,14.166,14.166,0,0,1-1.936,4.087c-.336.472-1.815,2.3-2.364,2.3-.32,0-1.052-.58-1.052-.9,0-.153.153-.26.274-.351a10.683,10.683,0,0,0,2.532-3.02,9.8,9.8,0,0,0,.915-2.227c0-.274-.274-.244-.671-.244Zm6.634.152a.347.347,0,0,0,.244-.091,16.525,16.525,0,0,0,2.211-2.288c.061-.061.137-.167.229-.167a8.085,8.085,0,0,1,1.281.854c.076.061.229.2.229.305a.2.2,0,0,1-.2.2c-.076,0-.137-.015-.213-.015a.313.313,0,0,0-.229.091,27.017,27.017,0,0,1-2.531,2.333.432.432,0,0,0-.183.32.482.482,0,0,0,.091.244,13.892,13.892,0,0,0,3.493,3.447c.122.076.289.183.289.335,0,.229-.671,1.037-1.052,1.037-.29,0-1.2-.808-1.464-1.037a14.623,14.623,0,0,1-3.34-4.545c-.03-.03-.046-.061-.091-.061-.061,0-.092.046-.092.107v4.407c0,.412.03.824.03,1.22,0,1.632-1.433,1.724-2.715,1.724-.351,0-.64,0-.778-.32a3.772,3.772,0,0,1-.168-1.006c0-.244.076-.381.335-.381.183,0,.534.046.869.046.915,0,.885-.305.885-1.236v-8.769c0-.534-.015-1.083-.061-1.54,0-.046-.015-.137-.015-.2,0-.167.107-.213.26-.213.259,0,1.159.076,1.449.107.122.015.366.03.366.2,0,.107-.107.152-.244.244-.183.137-.214.412-.214.93v.854a1.39,1.39,0,0,0,.092.549,20.7,20.7,0,0,0,.961,2.135C1157.149,2097.146,1157.226,2097.238,1157.348,2097.238Z" transform="translate(-1132.211 -2091.839)" fill="#b5825f"/>
        <path id="パス_2466" data-name="パス 2466" d="M1199.731,2101.549h3.355c.6,0,1.205-.046,1.8-.046.366,0,.366.153.366.717s0,.717-.366.717c-.595,0-1.2-.03-1.8-.03h-3.37c-.29,0-.412.122-.412.411v.29c0,.519.03,1.052.03,1.571,0,.488-.183.5-.809.5-.64,0-.823-.015-.823-.488,0-.533.031-1.067.031-1.586v-.29c0-.29-.122-.411-.412-.411h-3.37c-.595,0-1.19.03-1.8.03-.366,0-.35-.153-.35-.717,0-.579,0-.717.35-.717.61,0,1.205.046,1.8.046h3.37c.275,0,.4-.122.412-.412-.015-.137-.046-.458-.046-.5,0-.153.107-.214.259-.214.183,0,1.251.107,1.479.122.122.016.259.046.259.183,0,.122-.107.167-.2.229a.372.372,0,0,0-.168.305C1199.35,2101.488,1199.518,2101.549,1199.731,2101.549Zm-4.24-3.127c0,.32-.031.366-.229.458-.656.32-1.251.58-2,.9-.244.107-.32.122-.381.305-.03.091-.092.168-.183.168-.122,0-.168-.122-.244-.29-.137-.274-.244-.564-.366-.854a.582.582,0,0,1-.076-.229c0-.122.092-.122.321-.183a19.565,19.565,0,0,0,2.593-1.036.59.59,0,0,1,.214-.077C1195.431,2097.583,1195.491,2098.224,1195.491,2098.422Zm.076,2.2c-.046.091-.107.167-.214.167-.137,0-.2-.167-.229-.275a9.822,9.822,0,0,1-.29-1.1c0-.153.106-.168.793-.183.366,0,.625.031.9-.275.076-.091.168-.183.244-.274a.478.478,0,0,0,.107-.275.368.368,0,0,0-.153-.29c-.442-.381-.9-.717-1.372-1.052-.091-.061-.275-.167-.275-.3,0-.168.305-.549.412-.686.167-.2.259-.213.366-.183a.7.7,0,0,0,.244.046.3.3,0,0,0,.259-.137c.168-.259.32-.519.472-.778a.243.243,0,0,0,.046-.137c0-.168-.122-.214-.259-.229h-2.41c-.61,0-1.2.031-1.815.031-.366,0-.351-.153-.351-.686,0-.549-.015-.7.366-.7.595,0,1.189.031,1.8.031h3.1c.275,0,.412-.107.427-.4-.015-.229-.031-.457-.061-.671a.385.385,0,0,1-.015-.122c0-.168.168-.183.29-.183.275,0,1.067.061,1.373.091.168.016.351.031.351.183,0,.122-.107.168-.2.214-.167.091-.152.244-.152.488,0,.29.137.4.411.4h3.142c.595,0,1.2-.031,1.8-.031.366,0,.366.167.366.7,0,.549,0,.686-.366.686-.595,0-1.2-.031-1.8-.031h-4.545c-.031,0-.061.016-.061.046a.033.033,0,0,0,.03.031c.107.061.351.183.351.305s-.153.122-.229.122c-.107.015-.122.015-.2.122-.29.412-.625.93-.946,1.327a.28.28,0,0,0-.076.183c0,.077.061.137.107.2a1.68,1.68,0,0,1,.183.153.476.476,0,0,0,.275.107.369.369,0,0,0,.29-.153c.32-.442.61-.854.9-1.327.046-.061.092-.137.183-.137.122,0,1.312.656,1.312.823s-.183.183-.29.183c-.168,0-.153.015-.244.107a25.5,25.5,0,0,1-1.678,2.044.289.289,0,0,0-.046.122.148.148,0,0,0,.168.152c.427-.046.869-.076,1.3-.107.123-.03.229-.091.229-.228,0-.107-.107-.214-.168-.305a1.358,1.358,0,0,1-.214-.427c0-.229.717-.534.9-.534a.4.4,0,0,1,.335.244c.305.427.58.824.839,1.266a7.072,7.072,0,0,1,.656,1.25c0,.244-.748.564-.976.564-.214,0-.259-.2-.366-.4a.464.464,0,0,0-.442-.3h-.107c-1.54.168-3.065.3-4.605.412C1195.644,2100.5,1195.613,2100.542,1195.568,2100.619Zm-1.556-3.218c-.137,0-.442-.351-.534-.458-.214-.214-.732-.656-.976-.854-.091-.061-.259-.168-.259-.3,0-.122.579-.823.823-.823.2,0,.824.58,1.007.747.137.122.763.656.763.823C1194.836,2096.76,1194.287,2097.4,1194.012,2097.4Zm10.691-1.174a.376.376,0,0,1-.137-.03.473.473,0,0,0-.122-.031.378.378,0,0,0-.168.061,12.631,12.631,0,0,1-2.364.961c-.4,0-.671-.778-.671-.915,0-.2.214-.244.488-.335a11.123,11.123,0,0,0,2.12-.976.532.532,0,0,1,.213-.091c.183,0,.777,1.159.777,1.22A.128.128,0,0,1,1204.7,2096.227Zm-.869,2.12c.2.107,1.006.5,1.006.732,0,.183-.458.93-.7.93a.6.6,0,0,1-.32-.168,22.478,22.478,0,0,0-2.135-1.189c-.152-.076-.351-.153-.351-.335,0-.107.29-.869.549-.869A13.609,13.609,0,0,1,1203.834,2098.346Z" transform="translate(-1159.31 -2091.789)" fill="#b5825f"/>
        <path id="パス_2467" data-name="パス 2467" d="M1251.01,2101.5q0,.069.228.137a2.387,2.387,0,0,1,1.754,2.41c0,1.693-1.251,3.386-4.575,3.386a7.134,7.134,0,0,1-2.852-.549c-.229-.107-.32-.2-.32-.351a.689.689,0,0,1,.061-.274l.259-.748c.076-.214.137-.32.259-.32a.767.767,0,0,1,.29.122,4.645,4.645,0,0,0,2.364.595c1.8,0,2.7-.93,2.7-1.891,0-1.053-.884-1.586-2.852-1.586-.335,0-.869.015-1.021.015-.4,0-.458-.061-.458-.442v-.687c0-.4.061-.458.458-.458.168,0,.579.015.869.015,1.845,0,2.532-.656,2.532-1.495,0-.823-.748-1.342-1.922-1.342a4,4,0,0,0-2.135.595.621.621,0,0,1-.305.137c-.107,0-.183-.092-.274-.305l-.336-.7a.8.8,0,0,1-.091-.3c0-.137.091-.213.3-.32a6.589,6.589,0,0,1,3.02-.717c2.5,0,3.523,1.266,3.523,2.638a2.476,2.476,0,0,1-1.281,2.273C1251.086,2101.391,1251.01,2101.452,1251.01,2101.5Z" transform="translate(-1192.666 -2094.574)" fill="#b5825f"/>
        <path id="パス_2468" data-name="パス 2468" d="M1279.031,2101.529c0,.061.076.122.229.2a3.016,3.016,0,0,1,2.029,2.7c0,1.738-1.419,2.974-4.438,2.974-2.409,0-4.133-1.038-4.133-2.837a3.078,3.078,0,0,1,1.952-2.745c.153-.076.229-.137.229-.2s-.076-.122-.214-.214a2.692,2.692,0,0,1-1.51-2.379c0-1.464,1.357-2.73,3.949-2.73,2.364,0,3.737,1.128,3.737,2.593a2.819,2.819,0,0,1-1.617,2.425C1279.107,2101.392,1279.031,2101.468,1279.031,2101.529Zm-2.273.839a1.03,1.03,0,0,0-.427.107c-1.159.488-1.845,1.1-1.845,1.968,0,.961,1.052,1.479,2.44,1.479,1.525,0,2.562-.549,2.562-1.541,0-.93-.945-1.4-2.318-1.921A1.19,1.19,0,0,0,1276.759,2102.368Zm.3-4.544c-1.19,0-2.089.472-2.089,1.25s.778,1.22,1.83,1.647a1.259,1.259,0,0,0,.412.107,1.077,1.077,0,0,0,.427-.122c.93-.442,1.449-.976,1.449-1.662C1279.092,2098.281,1278.223,2097.823,1277.063,2097.823Z" transform="translate(-1209.811 -2094.499)" fill="#b5825f"/>
        <path id="パス_2469" data-name="パス 2469" d="M1307.41,2099.495c0,2.1-1.174,3.31-2.806,3.31-1.495,0-2.669-1.113-2.669-3.065,0-1.983,1.067-3.279,2.836-3.279C1306.251,2096.46,1307.41,2097.542,1307.41,2099.495Zm-3.935.275c0,1.068.488,1.632,1.144,1.632.763,0,1.266-.656,1.266-1.815,0-1.052-.473-1.647-1.159-1.647C1303.917,2097.939,1303.475,2098.687,1303.475,2099.769Zm1.754,7.58c-.229,0-.335-.03-.335-.137a.7.7,0,0,1,.091-.274c.259-.488.519-1.007.763-1.479l3.477-7.016c.229-.458.473-.976.7-1.479.153-.351.244-.412.64-.412h.809c.229,0,.335.031.335.138a.652.652,0,0,1-.091.259c-.274.534-.549,1.067-.778,1.541l-3.462,6.985c-.229.488-.473.976-.7,1.464-.168.351-.244.412-.64.412Zm9.425-3.218c0,2.1-1.174,3.31-2.806,3.31-1.495,0-2.669-1.114-2.669-3.066,0-1.983,1.067-3.279,2.836-3.279C1313.495,2101.1,1314.654,2102.179,1314.654,2104.131Zm-3.934.274c0,1.068.488,1.632,1.144,1.632.762,0,1.266-.656,1.266-1.815,0-1.052-.473-1.647-1.159-1.647C1311.162,2102.576,1310.72,2103.323,1310.72,2104.405Z" transform="translate(-1228.047 -2094.599)" fill="#b5825f"/>
      </g>
    </g>
    <rect id="長方形_152" data-name="長方形 152" width="107.091" height="27.406" rx="13.703" transform="translate(389.148 2110.779)" fill="none" stroke="#b5825f" stroke-miterlimit="10" stroke-width="1"/>
    <g id="グループ_424" data-name="グループ 424" transform="translate(406.065 2119.581)">
      <g id="グループ_423" data-name="グループ 423">
        <path id="パス_2470" data-name="パス 2470" d="M1460.556,2107.45c-.717,0-1.922.031-2.029.031-.32,0-.427-.107-.427-.427,0-.107.031-1.754.031-2.608v-4.789c0-.747-.031-2.288-.031-2.547,0-.366.092-.488.427-.488.168,0,1.312.03,2.029.03h1.174c2.2,0,3.492.58,3.492,2.44a2.627,2.627,0,0,1-.991,2.3c-.122.091-.2.152-.2.2,0,.076.076.122.244.183a2.321,2.321,0,0,1,1.465,2.364c0,2.272-1.51,3.309-3.966,3.309Zm-.7-6.847c0,.381.076.457.457.457h1.22c1.128,0,1.937-.427,1.937-1.647,0-1.007-.823-1.266-1.754-1.266h-1.4c-.381,0-.457.076-.457.458Zm0,4.926c0,.381.076.458.457.458h1.434c1.266,0,2.2-.595,2.2-1.861,0-1.159-.748-1.6-1.922-1.6h-1.708c-.381,0-.457.077-.457.458Z" transform="translate(-1458.101 -2096.5)" fill="#b5825f"/>
        <path id="パス_2471" data-name="パス 2471" d="M1492.94,2106.632c0,.137-.106.213-.335.32a6.692,6.692,0,0,1-2.578.488,4.9,4.9,0,0,1-5.185-5.231,5.376,5.376,0,0,1,5.75-5.75,5.977,5.977,0,0,1,2.2.381c.229.091.336.168.336.305a.907.907,0,0,1-.076.29l-.336.915c-.091.229-.137.32-.259.32a.808.808,0,0,1-.305-.092,4.112,4.112,0,0,0-1.631-.351,3.651,3.651,0,0,0-3.829,3.935,3.359,3.359,0,0,0,3.538,3.615,3.984,3.984,0,0,0,1.77-.381.714.714,0,0,1,.305-.107c.122,0,.183.091.274.32l.29.732A.9.9,0,0,1,1492.94,2106.632Z" transform="translate(-1474.79 -2096.399)" fill="#b5825f"/>
        <path id="パス_2472" data-name="パス 2472" d="M1530.356,2101.529c0,.061.076.122.229.2a3.016,3.016,0,0,1,2.029,2.7c0,1.738-1.419,2.974-4.438,2.974-2.41,0-4.133-1.038-4.133-2.837a3.078,3.078,0,0,1,1.952-2.745c.153-.076.229-.137.229-.2s-.076-.122-.214-.214a2.692,2.692,0,0,1-1.51-2.379c0-1.464,1.357-2.73,3.95-2.73,2.364,0,3.736,1.128,3.736,2.593a2.819,2.819,0,0,1-1.617,2.425C1530.432,2101.392,1530.356,2101.468,1530.356,2101.529Zm-2.273.839a1.029,1.029,0,0,0-.427.107c-1.159.488-1.845,1.1-1.845,1.968,0,.961,1.052,1.479,2.44,1.479,1.525,0,2.562-.549,2.562-1.541,0-.93-.946-1.4-2.318-1.921A1.194,1.194,0,0,0,1528.083,2102.368Zm.3-4.544c-1.19,0-2.089.472-2.089,1.25s.778,1.22,1.83,1.647a1.261,1.261,0,0,0,.412.107,1.077,1.077,0,0,0,.427-.122c.93-.442,1.449-.976,1.449-1.662C1530.417,2098.281,1529.548,2097.823,1528.388,2097.823Z" transform="translate(-1499.256 -2096.298)" fill="#b5825f"/>
        <path id="パス_2473" data-name="パス 2473" d="M1555.725,2120.639a1.16,1.16,0,0,1-1.205,1.235,1.042,1.042,0,0,1-1.1-1.068,1.159,1.159,0,0,1,1.22-1.22A1.034,1.034,0,0,1,1555.725,2120.639Z" transform="translate(-1517.592 -2110.833)" fill="#b5825f"/>
        <path id="パス_2474" data-name="パス 2474" d="M1568.913,2100.934a4.99,4.99,0,0,1,2.456-.656,3.152,3.152,0,0,1,3.432,3.264,3.886,3.886,0,0,1-4.209,3.889c-2.608,0-4.1-1.739-4.1-4.255a7.036,7.036,0,0,1,1.922-5.063,6.6,6.6,0,0,1,4.285-1.693c.3,0,.366.076.366.427v.793c0,.4-.061.458-.458.5a5.069,5.069,0,0,0-3.2,1.418,3.5,3.5,0,0,0-.884,1.479.056.056,0,0,0,.061.061A.811.811,0,0,0,1568.913,2100.934Zm-.289,1.617a.842.842,0,0,0-.412.823,2.35,2.35,0,0,0,2.455,2.531,2.227,2.227,0,0,0,2.395-2.227,1.9,1.9,0,0,0-2.12-1.891A3.975,3.975,0,0,0,1568.623,2102.55Z" transform="translate(-1525.747 -2096.374)" fill="#b5825f"/>
        <path id="パス_2475" data-name="パス 2475" d="M1597.646,2109.847c0,.687.03,1.953.03,2.059,0,.321-.091.381-.442.381h-.885c-.351,0-.442-.061-.442-.381,0-.106.031-1.373.031-2.059V2106.9c0-.687-.031-1.953-.031-2.059,0-.32.091-.381.442-.381h.747c.351,0,.412.061.427.412.015.2.046.289.122.289a.464.464,0,0,0,.229-.106,3.287,3.287,0,0,1,2.028-.686,2.421,2.421,0,0,1,1.83.732c.137.153.214.229.305.229.076,0,.152-.061.3-.183a3.76,3.76,0,0,1,2.287-.778,2.456,2.456,0,0,1,2.517,2.73v2.745c0,.687.03,1.953.03,2.059,0,.321-.092.381-.443.381h-.885c-.35,0-.442-.061-.442-.381,0-.106.031-1.373.031-2.059v-2.272c0-.93-.443-1.555-1.388-1.555a2.177,2.177,0,0,0-1.342.488.574.574,0,0,0-.29.595v2.745c0,.687.031,1.953.031,2.059,0,.321-.092.381-.442.381h-.885c-.351,0-.442-.061-.442-.381,0-.106.031-1.373.031-2.059v-2.272c0-.93-.442-1.555-1.388-1.555a2.218,2.218,0,0,0-1.342.473.733.733,0,0,0-.336.687Z" transform="translate(-1544.108 -2101.337)" fill="#b5825f"/>
        <path id="パス_2476" data-name="パス 2476" d="M1635.711,2109.847c0,.687.03,1.953.03,2.059,0,.321-.091.381-.442.381h-.885c-.351,0-.442-.061-.442-.381,0-.106.031-1.373.031-2.059V2106.9c0-.687-.031-1.953-.031-2.059,0-.32.091-.381.442-.381h.748c.35,0,.411.061.427.412.015.2.046.289.122.289a.463.463,0,0,0,.229-.106,3.285,3.285,0,0,1,2.028-.686,2.421,2.421,0,0,1,1.83.732c.137.153.213.229.305.229.076,0,.152-.061.305-.183a3.76,3.76,0,0,1,2.288-.778,2.456,2.456,0,0,1,2.516,2.73v2.745c0,.687.031,1.953.031,2.059,0,.321-.091.381-.442.381h-.885c-.351,0-.442-.061-.442-.381,0-.106.031-1.373.031-2.059v-2.272c0-.93-.442-1.555-1.388-1.555a2.177,2.177,0,0,0-1.342.488.574.574,0,0,0-.29.595v2.745c0,.687.031,1.953.031,2.059,0,.321-.092.381-.442.381h-.885c-.351,0-.442-.061-.442-.381,0-.106.031-1.373.031-2.059v-2.272c0-.93-.442-1.555-1.388-1.555a2.219,2.219,0,0,0-1.342.473.733.733,0,0,0-.335.687Z" transform="translate(-1567.865 -2101.337)" fill="#b5825f"/>
      </g>
    </g>
    <path id="パス_9150" data-name="パス 9150" d="M13.7,0H121.577a13.7,13.7,0,1,1,0,27.406H13.7A13.7,13.7,0,0,1,13.7,0Z" transform="translate(221.814 2072.881)" fill="none" stroke="#b5825f" stroke-width="1"/>
    <g id="グループ_426" data-name="グループ 426" transform="translate(242.795 2081.58)">
      <g id="グループ_425" data-name="グループ 425" transform="translate(0)">
        <path id="パス_2477" data-name="パス 2477" d="M280.085,2106.851c-.717,0-1.922.03-2.028.03-.335,0-.427-.122-.427-.488.015-.854.03-1.815.03-2.547v-4.789c0-.747-.015-1.662-.03-2.547,0-.366.092-.488.427-.488.107,0,1.311.03,2.028.03h1.876c3.02,0,4.819,1.678,4.819,5.079,0,3.554-1.952,5.719-5.308,5.719Zm-.656-2.028c0,.381.077.457.458.457h1.54c2.394,0,3.554-1.632,3.554-4.057,0-2.059-.976-3.523-3.188-3.523h-1.907c-.381,0-.458.076-.458.458Z" transform="translate(-277.63 -2096.023)" fill="#b5825f"/>
        <path id="パス_2478" data-name="パス 2478" d="M310.129,2106.9c-.351,0-.442-.061-.442-.381,0-.107.046-1.784.046-2.669v-4.7c0-.885-.046-2.562-.046-2.669,0-.32.092-.381.442-.381h.976c.351,0,.442.061.442.381,0,.107-.046,1.784-.046,2.669v4.7c0,.885.046,2.562.046,2.669,0,.32-.092.381-.442.381Z" transform="translate(-297.637 -2096.074)" fill="#b5825f"/>
        <path id="パス_2479" data-name="パス 2479" d="M324.593,2104.355c-.4,0-.5.031-.641.366-.214.5-.412,1.021-.671,1.753-.137.366-.214.427-.61.427H321.6c-.244,0-.351-.03-.351-.153a.648.648,0,0,1,.092-.259c.473-1.068.808-1.831,1.129-2.578l2.181-5.17c.275-.656.6-1.388.915-2.211.137-.366.214-.427.61-.427h.656c.4,0,.473.061.61.427.32.823.625,1.556.9,2.2l2.2,5.155c.336.793.671,1.555,1.144,2.608a.649.649,0,0,1,.092.259c0,.123-.107.153-.351.153h-1.175c-.4,0-.473-.061-.61-.427-.259-.732-.457-1.25-.671-1.753-.138-.336-.229-.366-.641-.366Zm.274-1.891a.686.686,0,0,0-.061.259c0,.137.107.168.351.168h2.608c.244,0,.351-.031.351-.168a.679.679,0,0,0-.061-.259l-1.418-3.493c-.061-.152-.107-.244-.168-.244-.045,0-.106.076-.168.244Z" transform="translate(-304.856 -2096.074)" fill="#b5825f"/>
        <path id="パス_2480" data-name="パス 2480" d="M369.938,2103.852c0,.885.046,2.486.046,2.669,0,.32-.092.381-.442.381H368.6c-.351,0-.442-.061-.442-.381,0-.183.046-1.784.046-2.669v-5.338c0-.26-.046-.366-.183-.366a.626.626,0,0,0-.244.061c-.457.168-.976.381-1.373.564a.684.684,0,0,1-.29.091c-.137,0-.2-.106-.274-.335l-.29-.762a.815.815,0,0,1-.061-.29c0-.137.091-.214.351-.29a23.722,23.722,0,0,0,2.379-.9,2.027,2.027,0,0,1,.9-.183h.412c.351,0,.442.061.442.381,0,.229-.03,1.784-.03,2.669Z" transform="translate(-332.461 -2096.074)" fill="#b5825f"/>
        <path id="パス_2481" data-name="パス 2481" d="M394.458,2105c0,.519.031,1.418.031,1.525,0,.32-.092.381-.442.381h-.854c-.351,0-.442-.061-.442-.381,0-.107.03-1.006.03-1.525,0-.351-.061-.412-.412-.412H389.96c-.885,0-2.2.031-2.3.031-.32,0-.382-.092-.382-.443v-.259a1.536,1.536,0,0,1,.214-.869c.335-.61.656-1.235.96-1.83l1.342-2.593c.32-.625.671-1.326,1.037-2.1.153-.351.244-.412.641-.412h1.144c.229,0,.336.03.336.137a.753.753,0,0,1-.107.259c-.488.9-.884,1.647-1.266,2.379l-1.952,3.767a.7.7,0,0,0-.092.274c0,.107.107.138.336.138h2.5c.366,0,.412-.092.412-.442,0-1.037-.03-2.425-.03-2.532,0-.32.091-.381.442-.381h.854c.351,0,.442.061.442.381,0,.107-.031,1.479-.031,2.562,0,.351.061.412.412.412.412,0,1.159-.015,1.266-.015.32,0,.381.091.381.442v.686c0,.351-.061.443-.381.443-.107,0-.854-.031-1.266-.031C394.52,2104.583,394.458,2104.645,394.458,2105Z" transform="translate(-346.061 -2096.074)" fill="#b5825f"/>
        <path id="パス_2482" data-name="パス 2482" d="M419.81,2120.04a1.16,1.16,0,0,1-1.2,1.235,1.041,1.041,0,0,1-1.1-1.068,1.159,1.159,0,0,1,1.22-1.22A1.034,1.034,0,0,1,419.81,2120.04Z" transform="translate(-364.929 -2110.355)" fill="#b5825f"/>
        <path id="パス_2483" data-name="パス 2483" d="M434.2,2100.1c2.1,0,3.721,1.037,3.721,3.127,0,1.784-1.159,3.782-4.5,3.782a6.57,6.57,0,0,1-2.73-.58c-.214-.106-.32-.183-.32-.32a.9.9,0,0,1,.076-.29l.29-.732c.091-.213.153-.32.259-.32a.587.587,0,0,1,.29.137,4.486,4.486,0,0,0,2.226.58c1.861,0,2.623-.991,2.623-2.12,0-1.174-.961-1.815-2.364-1.815a4.917,4.917,0,0,0-1.662.274,1.262,1.262,0,0,1-.412.106,1.772,1.772,0,0,1-.442-.106c-.3-.107-.4-.168-.4-.4a.936.936,0,0,1,.015-.2c.061-.457.107-.884.153-1.357l.168-1.891c.03-.412.076-1.037.092-1.433.015-.366.076-.442.381-.442.2,0,1.54.03,2.318.03h.854c.778,0,2.257-.03,2.364-.03.32,0,.381.091.381.442v.808c0,.351-.061.442-.381.442-.107,0-1.586-.046-2.364-.046h-1.525c-.4,0-.473.061-.5.457l-.122,1.342a3.537,3.537,0,0,0-.03.412c0,.2.061.26.214.26a.926.926,0,0,0,.2-.015A5.376,5.376,0,0,1,434.2,2100.1Z" transform="translate(-372.957 -2096.074)" fill="#b5825f"/>
        <path id="パス_2484" data-name="パス 2484" d="M460.068,2109.248c0,.687.03,1.952.03,2.059,0,.32-.092.381-.442.381h-.884c-.351,0-.442-.061-.442-.381,0-.107.03-1.373.03-2.059V2106.3c0-.686-.03-1.952-.03-2.059,0-.32.091-.381.442-.381h.747c.351,0,.412.061.427.411.015.2.046.29.122.29a.467.467,0,0,0,.229-.107,3.285,3.285,0,0,1,2.028-.686,2.421,2.421,0,0,1,1.83.732c.137.153.214.229.305.229.076,0,.152-.061.3-.184a3.761,3.761,0,0,1,2.288-.777,2.456,2.456,0,0,1,2.516,2.73v2.745c0,.687.03,1.952.03,2.059,0,.32-.091.381-.442.381h-.884c-.351,0-.442-.061-.442-.381,0-.107.03-1.373.03-2.059v-2.272c0-.93-.442-1.556-1.388-1.556a2.177,2.177,0,0,0-1.342.488.574.574,0,0,0-.29.595v2.745c0,.687.03,1.952.03,2.059,0,.32-.092.381-.442.381h-.884c-.351,0-.442-.061-.442-.381,0-.107.03-1.373.03-2.059v-2.272c0-.93-.442-1.556-1.388-1.556a2.217,2.217,0,0,0-1.342.473.733.733,0,0,0-.335.687Z" transform="translate(-390.406 -2100.86)" fill="#b5825f"/>
        <path id="パス_2485" data-name="パス 2485" d="M498.132,2109.248c0,.687.03,1.952.03,2.059,0,.32-.092.381-.442.381h-.884c-.351,0-.442-.061-.442-.381,0-.107.03-1.373.03-2.059V2106.3c0-.686-.03-1.952-.03-2.059,0-.32.091-.381.442-.381h.747c.351,0,.412.061.427.411.015.2.046.29.122.29a.465.465,0,0,0,.229-.107,3.287,3.287,0,0,1,2.028-.686,2.422,2.422,0,0,1,1.831.732c.137.153.213.229.3.229.076,0,.152-.061.3-.184a3.762,3.762,0,0,1,2.288-.777,2.456,2.456,0,0,1,2.517,2.73v2.745c0,.687.03,1.952.03,2.059,0,.32-.091.381-.442.381h-.884c-.351,0-.442-.061-.442-.381,0-.107.03-1.373.03-2.059v-2.272c0-.93-.442-1.556-1.387-1.556a2.177,2.177,0,0,0-1.342.488.575.575,0,0,0-.29.595v2.745c0,.687.03,1.952.03,2.059,0,.32-.091.381-.442.381h-.884c-.351,0-.442-.061-.442-.381,0-.107.03-1.373.03-2.059v-2.272c0-.93-.442-1.556-1.388-1.556a2.216,2.216,0,0,0-1.342.473.733.733,0,0,0-.336.687Z" transform="translate(-414.162 -2100.86)" fill="#b5825f"/>
      </g>
    </g>
    <rect id="長方形_154" data-name="長方形 154" width="161.982" height="27.406" rx="13.703" transform="translate(365.299 2072.881)" fill="none" stroke="#b5825f" stroke-miterlimit="10" stroke-width="1"/>
    <g id="グループ_428" data-name="グループ 428" transform="translate(382.166 2079.883)">
      <g id="グループ_427" data-name="グループ 427" transform="translate(0)">
        <path id="パス_2486" data-name="パス 2486" d="M658.23,2104.763H653.5c-.122,0-.214.031-.229.229-.015.32-.122.351-.793.351-.656,0-.824-.016-.824-.366,0-.4.03-.808.03-1.2v-2.09c-.015-.091-.046-.183-.153-.183a.156.156,0,0,0-.122.076c-.274.305-1.616,1.678-1.952,1.678s-1.052-.534-1.052-.9c0-.137.122-.229.229-.305a11.024,11.024,0,0,0,3.142-3.569.441.441,0,0,0,.031-.137c0-.168-.137-.214-.274-.229h-.884c-.58,0-1.174.03-1.769.03-.3,0-.3-.137-.3-.564,0-.442,0-.58.3-.58.595,0,1.19.031,1.769.031h3.462c.244,0,.351-.106.351-.366v-.046c0-.259-.107-.366-.351-.366h-2.028c-.549,0-1.1.031-1.663.031-.3,0-.29-.183-.29-.549s0-.549.29-.549c.564,0,1.113.031,1.663.031h2.089c.214,0,.29-.076.29-.29v-.137c0-.214-.076-.29-.274-.29h-3.1c-.595,0-1.174.031-1.769.031-.32,0-.305-.2-.305-.579,0-.412,0-.58.305-.58.595,0,1.174.031,1.769.031h.976c.122,0,.244-.046.244-.2a.245.245,0,0,0-.046-.137c-.2-.29-.351-.472-.579-.762a.343.343,0,0,1-.122-.214c0-.274.915-.564,1.113-.564.229,0,.442.275.58.458a3.83,3.83,0,0,1,.61.946c0,.168-.275.29-.412.35-.015.016-.046.031-.046.062s.031.061.076.061h2.669a.584.584,0,0,0,.61-.32,9.241,9.241,0,0,0,.686-1.342c.03-.122.076-.229.214-.229a6.41,6.41,0,0,1,.961.32c.229.076.686.244.686.381s-.2.168-.3.184a.267.267,0,0,0-.2.137c-.122.168-.214.351-.32.519a.292.292,0,0,0-.046.152c0,.153.122.183.244.2h.824c.579,0,1.159-.031,1.754-.031.32,0,.32.152.32.58,0,.4,0,.579-.305.579-.595,0-1.19-.031-1.769-.031h-3.142c-.2,0-.29.076-.29.275v.152c0,.213.076.29.29.29h2.1c.564,0,1.113-.031,1.662-.031.305,0,.305.153.305.549,0,.381,0,.549-.29.549-.565,0-1.113-.031-1.678-.031h-2.028c-.259,0-.366.107-.366.366v.046c0,.259.107.366.366.366h3.508c.579,0,1.174-.031,1.769-.031.32,0,.3.153.3.58s.015.564-.3.564c-.595,0-1.19-.03-1.769-.03h-6.07a.422.422,0,0,0-.412.29.438.438,0,0,0-.03.137c0,.168.137.229.289.229h4.362c.427,0,.854-.015,1.281-.015.488,0,.7.153.7.671,0,.4-.015.793-.015,1.189v3.188c0,.412.03.808.03,1.22,0,.351-.183.351-.808.351-.747,0-.808-.03-.824-.4C658.458,2104.778,658.336,2104.763,658.23,2104.763Zm-.03-4.3a.265.265,0,0,0,.29-.29v-.061a.277.277,0,0,0-.29-.3h-4.667a.276.276,0,0,0-.29.3v.061a.265.265,0,0,0,.29.29Zm-4.667.931a.281.281,0,0,0-.29.29v.092a.265.265,0,0,0,.29.29H658.2a.265.265,0,0,0,.29-.29v-.092a.273.273,0,0,0-.29-.29Zm0,1.647a.28.28,0,0,0-.29.29v.091a.28.28,0,0,0,.29.29H658.2a.272.272,0,0,0,.29-.29v-.091a.272.272,0,0,0-.29-.29Z" transform="translate(-648.408 -2091.51)" fill="#b5825f"/>
        <path id="パス_2487" data-name="パス 2487" d="M700.857,2095.719c0,.137.107.167.213.167h.4c.5,0,1.007-.015,1.51-.015.564,0,.884.137.884.762,0,.4-.03.778-.03,1.174v1.678c0,.488.03.961.03,1.3s-.153.351-.7.351c-.519,0-.809,0-.946-.214a.435.435,0,0,0-.412-.152h-6.6c-.3,0-.427.122-.427.427v1.174c0,1.113.137,1.235,1.342,1.235h5.658c1.2,0,1.449-.153,1.662-1.541.061-.351.061-.5.381-.5.412,0,1.266.167,1.266.686a5.006,5.006,0,0,1-.564,1.906c-.473.854-1.175.916-2.074.916h-6.787c-2.776,0-2.486-.839-2.486-2.928v-4.194c-.015-.122-.046-.229-.183-.229a.229.229,0,0,0-.138.061,1.121,1.121,0,0,1-.534.274c-.381,0-.976-.671-.976-.991,0-.183.214-.29.351-.382a15.692,15.692,0,0,0,3.4-3.416,9.962,9.962,0,0,0,.885-1.434.293.293,0,0,1,.274-.2c.122,0,1.007.244,1.2.29.244.061.549.122.549.336,0,.153-.229.2-.351.244-.122.031-.2.153-.259.259a.3.3,0,0,0-.046.153c0,.152.122.183.244.2h2.394c.335,0,.671-.031.991-.031a1.018,1.018,0,0,1,1.052.778,6.675,6.675,0,0,1-1.113,1.708C700.887,2095.628,700.857,2095.658,700.857,2095.719Zm-5.658,1.571a.436.436,0,0,0-.427.427v1.205a.437.437,0,0,0,.427.427h2.12a.4.4,0,0,0,.412-.427v-1.205a.4.4,0,0,0-.412-.427Zm-.091-1.556c0,.107.107.152.2.152h2.974a.682.682,0,0,0,.656-.274,4.616,4.616,0,0,0,.747-1.083c0-.183-.2-.153-.381-.153h-2.654a.693.693,0,0,0-.656.29,11.739,11.739,0,0,1-.824.915A.272.272,0,0,0,695.107,2095.734Zm4.225,3.188a.4.4,0,0,0,.412.427h2.1a.437.437,0,0,0,.427-.427v-1.205a.437.437,0,0,0-.427-.427h-2.1a.4.4,0,0,0-.412.427Z" transform="translate(-675.202 -2091.586)" fill="#b5825f"/>
        <path id="パス_2488" data-name="パス 2488" d="M741.033,2095.52c.305,0,.427-.122.427-.427v-.153c0-.3-.122-.427-.427-.427H737.4c-.61,0-1.236.031-1.861.031-.336,0-.336-.168-.336-.656,0-.519,0-.686.336-.686.625,0,1.251.03,1.861.03h3.63c.29,0,.412-.107.427-.4-.015-.2-.03-.4-.061-.595v-.153c0-.167.122-.213.274-.213.183,0,1.022.076,1.3.107.045,0,.092.015.137.015.213.015.412.031.412.2,0,.122-.076.153-.229.229a.4.4,0,0,0-.183.412c-.015.29.137.4.412.4h2.73c.625,0,1.236-.03,1.861-.03.336,0,.336.153.336.671,0,.5,0,.671-.336.671-.625,0-1.235-.031-1.861-.031H743.5c-.29,0-.412.122-.412.427v.153c0,.3.122.427.412.427h1.174c.32,0,.64-.015.976-.015.457,0,.7.107.7.61,0,.366-.015.732-.015,1.1v4.209c0,.366.03.732.03,1.083,0,.458-.336.473-.824.473a1.384,1.384,0,0,1-.656-.107.5.5,0,0,0-.244-.107h-3.889a.572.572,0,0,0-.244.107,1.325,1.325,0,0,1-.656.107c-.488,0-.808-.031-.808-.473,0-.321.03-.732.03-1.083v-4.209c0-.366-.015-.732-.015-1.1,0-.488.244-.61.7-.61.336,0,.656.015.992.015Zm-4.316,10.065c-.641,0-.824,0-.824-.5,0-.58.03-1.174.03-1.769v-5.292a7.4,7.4,0,0,0-.046-1.022.579.579,0,0,1-.015-.152c0-.183.137-.214.274-.214.29,0,1.1.076,1.434.107.137,0,.366.015.366.214,0,.107-.091.137-.229.229-.183.107-.2.29-.2.748v5.414c0,.3.122.427.427.427h8.357c.61,0,1.22-.03,1.845-.03.351,0,.351.153.351.686s0,.686-.351.686c-.625,0-1.235-.03-1.845-.03h-8.373c-.214,0-.29.138-.442.366C737.342,2105.585,737.114,2105.585,736.717,2105.585Zm7.717-7.946a.344.344,0,0,0,.366-.366v-.153a.352.352,0,0,0-.366-.366h-3.447a.352.352,0,0,0-.366.366v.153a.352.352,0,0,0,.366.366Zm-3.447,1.037a.352.352,0,0,0-.366.366v.183a.34.34,0,0,0,.366.351h3.447a.34.34,0,0,0,.366-.351v-.183a.352.352,0,0,0-.366-.366Zm0,1.937c-.259,0-.366.107-.366.366v.214c0,.259.107.366.366.366h3.447c.244,0,.366-.107.366-.366v-.214a.324.324,0,0,0-.366-.366Z" transform="translate(-702.58 -2091.738)" fill="#b5825f"/>
        <path id="パス_2489" data-name="パス 2489" d="M780.989,2098.661c0,.107-.091.153-.183.214-.122.092-.137.229-.137.747v3.751c0,.641.03,1.266.03,1.907,0,.412-.168.5-.793.5-.656,0-.793-.122-.793-.534,0-.625.03-1.25.03-1.876v-3.141c0-.092-.046-.183-.152-.183a.213.213,0,0,0-.137.046c-.153.153-.61.625-.808.625a1.877,1.877,0,0,1-.961-.976c0-.137.122-.229.229-.305a18.081,18.081,0,0,0,3.477-4.072c.061-.122.107-.213.244-.213a7.007,7.007,0,0,1,1.144.549c.107.046.274.137.274.274,0,.107-.153.137-.244.153-.137.015-.168.015-.29.2-.442.656-.915,1.281-1.4,1.906a.165.165,0,0,0-.03.092c0,.091.061.122.153.137C780.76,2098.478,780.989,2098.493,780.989,2098.661Zm.061-6.222c.061.031.138.076.2.107.229.122.457.244.457.366,0,.031-.015.137-.214.153-.122,0-.153.015-.214.092a20.881,20.881,0,0,1-2.471,2.73c-.122.107-.534.488-.671.488-.259,0-.961-.625-.961-.915,0-.167.168-.274.4-.458a14.627,14.627,0,0,0,2.532-2.7c.061-.092.122-.183.229-.183A2.475,2.475,0,0,1,781.05,2092.438Zm6.314,8.022h.641c.579,0,1.144-.03,1.723-.03.4,0,.382.2.382.732,0,.58,0,.747-.4.747-.58,0-1.144-.045-1.708-.045h-.641a.374.374,0,0,0-.427.427v1.113c0,.305.138.427.427.427h1.388c.58,0,1.144-.031,1.723-.031.4,0,.382.2.382.748,0,.564.015.747-.382.747-.579,0-1.143-.031-1.723-.031h-5.338c-.564,0-1.144.031-1.723.031-.4,0-.381-.213-.381-.747,0-.58,0-.748.4-.748.58,0,1.144.031,1.708.031h1.556c.3,0,.427-.122.427-.427v-1.113c0-.29-.122-.427-.427-.427h-.549c-.58,0-1.144.045-1.723.045-.4,0-.381-.2-.381-.747,0-.564,0-.732.4-.732.564,0,1.144.03,1.708.03h.549c.3,0,.427-.122.427-.427a4.465,4.465,0,0,0-.061-1.007v-.137c0-.2.122-.229.275-.229.076,0,1.3.076,1.418.092.091,0,.275.045.275.168s-.092.137-.2.213c-.168.107-.183.32-.168.93C786.937,2100.354,787.09,2100.46,787.364,2100.46Zm-4.377-.991a2.51,2.51,0,0,1-.7.229c-.336,0-.778-.854-.778-1.083,0-.213.351-.305.762-.458a12.748,12.748,0,0,0,2.44-1.159c.107-.076.183-.137.183-.259a.331.331,0,0,0-.107-.244,8.955,8.955,0,0,1-1.495-2.334c-.076-.137-.153-.274-.32-.274-.153,0-.32.015-.488.015-.335,0-.32-.167-.32-.686s-.015-.671.32-.671c.549,0,1.083.031,1.632.031h3.6c.351,0,.7-.015,1.052-.015a.761.761,0,0,1,.716.366,1.184,1.184,0,0,1,.351.717c0,.747-1.586,2.349-2.135,2.867a.379.379,0,0,0-.122.244.286.286,0,0,0,.168.244,13.972,13.972,0,0,0,3.035,1.3c.122.031.214.077.214.214,0,.3-.457,1.159-.793,1.159a1.28,1.28,0,0,1-.4-.107,15.842,15.842,0,0,1-3.263-1.617.671.671,0,0,0-.336-.107.617.617,0,0,0-.32.107A15.478,15.478,0,0,1,782.987,2099.469Zm4.789-5.384c0-.244-.2-.229-.732-.229h-1.892c-.137.015-.274.061-.274.229a.246.246,0,0,0,.046.137,7.081,7.081,0,0,0,1.022,1.388.4.4,0,0,0,.305.153.542.542,0,0,0,.3-.122C786.831,2095.382,787.776,2094.437,787.776,2094.085Z" transform="translate(-728.717 -2091.889)" fill="#b5825f"/>
        <path id="パス_2490" data-name="パス 2490" d="M835.834,2104.45c0,.885.046,2.486.046,2.669,0,.32-.092.381-.442.381h-.945c-.351,0-.442-.061-.442-.381,0-.183.046-1.784.046-2.669v-5.338c0-.259-.046-.366-.183-.366a.627.627,0,0,0-.244.061c-.457.168-.976.382-1.373.564a.681.681,0,0,1-.29.092c-.137,0-.2-.107-.274-.336l-.29-.762a.816.816,0,0,1-.061-.29c0-.137.091-.214.351-.29a23.854,23.854,0,0,0,2.379-.9,2.027,2.027,0,0,1,.9-.183h.412c.351,0,.442.061.442.381,0,.229-.03,1.785-.03,2.669Z" transform="translate(-762.604 -2094.751)" fill="#b5825f"/>
        <path id="パス_2491" data-name="パス 2491" d="M858.653,2101.5c0,.046.076.092.229.137a2.387,2.387,0,0,1,1.754,2.41c0,1.693-1.251,3.386-4.575,3.386a7.132,7.132,0,0,1-2.852-.549c-.229-.107-.32-.2-.32-.351a.694.694,0,0,1,.061-.274l.259-.748c.076-.214.137-.32.259-.32a.766.766,0,0,1,.29.122,4.644,4.644,0,0,0,2.364.595c1.8,0,2.7-.93,2.7-1.891,0-1.053-.884-1.586-2.852-1.586-.336,0-.869.015-1.022.015-.4,0-.457-.061-.457-.442v-.687c0-.4.061-.458.457-.458.168,0,.58.015.869.015,1.845,0,2.532-.656,2.532-1.495,0-.823-.747-1.342-1.922-1.342a4,4,0,0,0-2.135.595.621.621,0,0,1-.305.137c-.107,0-.183-.092-.274-.305l-.335-.7a.8.8,0,0,1-.092-.3c0-.137.092-.213.3-.32a6.588,6.588,0,0,1,3.02-.717c2.5,0,3.523,1.266,3.523,2.638a2.476,2.476,0,0,1-1.281,2.273C858.729,2101.391,858.653,2101.452,858.653,2101.5Z" transform="translate(-776.026 -2094.574)" fill="#b5825f"/>
        <path id="パス_2492" data-name="パス 2492" d="M882.947,2120.639a1.16,1.16,0,0,1-1.205,1.235,1.042,1.042,0,0,1-1.1-1.068,1.159,1.159,0,0,1,1.22-1.22A1.034,1.034,0,0,1,882.947,2120.639Z" transform="translate(-793.349 -2109.033)" fill="#b5825f"/>
        <path id="パス_2493" data-name="パス 2493" d="M897.755,2104.3c-.335.869-.61,1.662-.991,2.776-.137.366-.214.427-.61.427h-1.083c-.244,0-.351-.031-.351-.168a.682.682,0,0,1,.061-.259c.457-1.1.777-1.922,1.1-2.745l2.09-5.536a.685.685,0,0,0,.061-.26c0-.137-.107-.167-.351-.167h-2.44c-.777,0-2.257.045-2.364.045-.32,0-.381-.091-.381-.442v-.824c0-.351.061-.442.381-.442.107,0,1.586.031,2.364.031h2.212c.793,0,2.272-.031,2.379-.031.32,0,.381.091.381.442v.32a2.069,2.069,0,0,1-.183.9c-.275.686-.549,1.4-.793,2.044Z" transform="translate(-800.745 -2094.751)" fill="#b5825f"/>
        <path id="パス_2494" data-name="パス 2494" d="M921.825,2109.847c0,.687.03,1.953.03,2.059,0,.321-.091.381-.442.381h-.884c-.351,0-.442-.061-.442-.381,0-.106.031-1.373.031-2.059V2106.9c0-.687-.031-1.953-.031-2.059,0-.32.091-.381.442-.381h.747c.351,0,.412.061.427.412.015.2.045.289.122.289a.464.464,0,0,0,.229-.106,3.286,3.286,0,0,1,2.028-.686,2.422,2.422,0,0,1,1.83.732c.137.153.214.229.3.229.076,0,.153-.061.3-.183a3.761,3.761,0,0,1,2.288-.778,2.456,2.456,0,0,1,2.517,2.73v2.745c0,.687.03,1.953.03,2.059,0,.321-.091.381-.442.381h-.884c-.351,0-.442-.061-.442-.381,0-.106.03-1.373.03-2.059v-2.272c0-.93-.442-1.555-1.388-1.555a2.175,2.175,0,0,0-1.342.488.574.574,0,0,0-.29.595v2.745c0,.687.03,1.953.03,2.059,0,.321-.092.381-.442.381H925.3c-.351,0-.442-.061-.442-.381,0-.106.03-1.373.03-2.059v-2.272c0-.93-.442-1.555-1.388-1.555a2.217,2.217,0,0,0-1.342.473.733.733,0,0,0-.336.687Z" transform="translate(-817.966 -2099.537)" fill="#b5825f"/>
        <path id="パス_2495" data-name="パス 2495" d="M959.89,2109.847c0,.687.031,1.953.031,2.059,0,.321-.091.381-.442.381h-.884c-.351,0-.442-.061-.442-.381,0-.106.03-1.373.03-2.059V2106.9c0-.687-.03-1.953-.03-2.059,0-.32.091-.381.442-.381h.747c.351,0,.412.061.427.412.015.2.046.289.122.289a.465.465,0,0,0,.229-.106,3.286,3.286,0,0,1,2.028-.686,2.42,2.42,0,0,1,1.83.732c.138.153.214.229.305.229s.153-.061.3-.183a3.762,3.762,0,0,1,2.288-.778,2.456,2.456,0,0,1,2.517,2.73v2.745c0,.687.031,1.953.031,2.059,0,.321-.092.381-.442.381h-.885c-.351,0-.442-.061-.442-.381,0-.106.03-1.373.03-2.059v-2.272c0-.93-.442-1.555-1.388-1.555a2.178,2.178,0,0,0-1.342.488.575.575,0,0,0-.289.595v2.745c0,.687.03,1.953.03,2.059,0,.321-.092.381-.442.381h-.885c-.35,0-.442-.061-.442-.381,0-.106.03-1.373.03-2.059v-2.272c0-.93-.442-1.555-1.388-1.555a2.216,2.216,0,0,0-1.342.473.733.733,0,0,0-.336.687Z" transform="translate(-841.722 -2099.537)" fill="#b5825f"/>
      </g>
    </g>
  </g>
</svg>
