<svg xmlns="http://www.w3.org/2000/svg" width="304.307" height="40.54" viewBox="0 0 304.307 40.54">
  <g id="グループ_2304" data-name="グループ 2304" transform="translate(31.748 -791.868)">
    <g id="グループ_1728" data-name="グループ 1728" transform="translate(-2210.417 -953.482)">
      <path id="パス_15439" data-name="パス 15439" d="M2465.239,1750.35c-.423,6.206-1.269,9.8-8.321,10.437,6.911.847,8.086,3.62,8.324,10.579.279-7.875,2.184-10.014,8.883-10.508C2466.72,1760.858,2465.521,1756.486,2465.239,1750.35Z" fill="none" stroke="#452f27" stroke-linejoin="round" stroke-width="0.496"/>
      <path id="パス_15440" data-name="パス 15440" d="M2477.973,1768.986c-.227,3.322-.68,5.247-4.455,5.587,3.7.453,4.329,1.938,4.456,5.662.15-4.215,1.169-5.36,4.755-5.624C2478.765,1774.611,2478.124,1772.27,2477.973,1768.986Z" fill="none" stroke="#452f27" stroke-linejoin="round" stroke-width="0.496"/>
    </g>
    <g id="グループ_2267" data-name="グループ 2267" transform="translate(-31.5 796.868)">
      <path id="パス_15439-2" data-name="パス 15439" d="M2465.8,1750.35c.423,6.206,1.269,9.8,8.321,10.437-6.911.847-8.086,3.62-8.324,10.579-.279-7.875-2.184-10.014-8.883-10.508C2464.323,1760.858,2465.522,1756.486,2465.8,1750.35Z" transform="translate(-2448.314 -1750.35)" fill="none" stroke="#452f27" stroke-linejoin="round" stroke-width="0.496"/>
      <path id="パス_15440-2" data-name="パス 15440" d="M2478.274,1768.986c.227,3.322.68,5.247,4.455,5.587-3.7.453-4.329,1.938-4.456,5.662-.15-4.215-1.169-5.36-4.755-5.624C2477.482,1774.611,2478.123,1772.27,2478.274,1768.986Z" transform="translate(-2473.518 -1750.35)" fill="none" stroke="#452f27" stroke-linejoin="round" stroke-width="0.496"/>
    </g>
    <g id="グループ_1720" data-name="グループ 1720" transform="translate(-2097.065 -682.069)">
      <path id="パス_15318" data-name="パス 15318" d="M2129.691,1483.058a3.442,3.442,0,0,1,.72,2.079c0,1.359-.965,1.769-2.177,1.769a7.441,7.441,0,0,1-2.326-.345,4.317,4.317,0,0,1-.18-1.342c0-.164.066-.295.246-.295a1.887,1.887,0,0,1,.41.1,5.26,5.26,0,0,0,1.441.246c.425,0,.736-.147.736-.622,0-.622-.7-1.654-1.081-1.654a4.276,4.276,0,0,0-1.13.557c-1.146.687-2.26,1.376-3.356,2.129-.394.261-.377.261-.492.491-.065.1-.146.229-.262.229-.2,0-.441-.459-.59-.7a4.126,4.126,0,0,1-.506-1.048c0-.214.311-.295.491-.36,1.081-.442,3.144-1.655,4.306-2.277.165-.082.361-.164.361-.393,0-.115-.083-.2-.246-.441a1.637,1.637,0,0,1-.31-.983c0-.426.294-1.948.8-1.948.229,0,1.359.409,1.359.638a1.01,1.01,0,0,1-.13.3,2.065,2.065,0,0,0-.344,1,1.227,1.227,0,0,0,.868.95.8.8,0,0,0,.2-.016,4.874,4.874,0,0,1,.852-.065c3.914,0,5.993,3.782,5.993,4.077,0,.279-1.162.917-1.522.917-.2,0-.295-.213-.361-.377a5.666,5.666,0,0,0-2.358-2.7,3.943,3.943,0,0,0-1.194-.328c-.116,0-.311.066-.311.215C2129.594,1482.927,2129.659,1482.992,2129.691,1483.058Zm-.951-7.174a12.571,12.571,0,0,1,1.311.786.282.282,0,0,1,.131.229c0,.246-.655,1.377-.917,1.377a.45.45,0,0,1-.279-.131,11.576,11.576,0,0,0-2.358-1.458c-.164-.081-.36-.147-.36-.327,0-.262.475-1.245.8-1.245A9.38,9.38,0,0,1,2128.74,1475.885Z" transform="translate(0 0.099)" fill="#674646"/>
      <path id="パス_15319" data-name="パス 15319" d="M2143.666,1474.768c.1.034.2.1.2.2a.308.308,0,0,1-.116.213c-.2.2-.229.18-.294.868-.034.229-.115.982-.115,1.178s.066.213.246.246a2.176,2.176,0,0,1,.638.885c0,.13-.147.246-.23.344a3.751,3.751,0,0,0-.8,1.262c0,.163.016.261.1.261.066,0,.165-.1.213-.147a6.364,6.364,0,0,1,4.16-1.949,3.89,3.89,0,0,1,3.816,4.03c0,2.472-1.851,4.044-3.98,4.912a4.842,4.842,0,0,1-1.343.392c-.458,0-.9-1.015-.9-1.358,0-.279.195-.328.425-.376,1.786-.41,3.98-1.359,3.98-3.5a2.257,2.257,0,0,0-2.146-2.408,6.615,6.615,0,0,0-4.159,2.325.946.946,0,0,0-.2.656c0,.965.016,1.932.065,2.882.016.458.115,2.014.115,2.194s-.147.279-1.228.279c-.475,0-.687-.015-.687-.344,0-.131.015-.441.015-.525.017-.506.05-1.211.05-1.293.017-.524.017-1.063.017-1.588,0-.115-.033-.262-.165-.262s-.245.18-.326.262c-.311.376-.983,1.228-1.229,1.605-.049.1-.131.229-.246.229a2.489,2.489,0,0,1-1.227-1.261c0-.18.278-.426.408-.557a15.657,15.657,0,0,0,2.769-3.651,1.363,1.363,0,0,0,.1-.64v-.213c0-.164-.065-.345-.261-.345a1.4,1.4,0,0,0-.279.05,17.188,17.188,0,0,1-1.737.393c-.229,0-.311-.213-.375-.393a6.715,6.715,0,0,1-.262-1.245c0-.246.164-.279.376-.279h.229a9.418,9.418,0,0,0,1.8-.164.621.621,0,0,0,.507-.277,1.518,1.518,0,0,0,.083-.672c0-.557.032-1.113.032-1.671,0-.229-.016-.409-.016-.524,0-.181.082-.23.245-.23C2142.16,1474.556,2143.469,1474.721,2143.666,1474.768Z" transform="translate(1.444 0.052)" fill="#674646"/>
      <path id="パス_15320" data-name="パス 15320" d="M2156.383,1480.4a12.275,12.275,0,0,0,1.507-.491,15.031,15.031,0,0,1,4.717-1.18,3.166,3.166,0,0,1,3.405,3.21c0,2.031-1.49,3.276-3.209,4.012a9.3,9.3,0,0,1-2.523.688c-.54,0-.77-1.113-.77-1.245,0-.279.311-.312.525-.327a7.373,7.373,0,0,0,2.8-.82,2.8,2.8,0,0,0,1.6-2.342,1.666,1.666,0,0,0-1.833-1.654,12.508,12.508,0,0,0-5.109,1.654.859.859,0,0,1-.459.164c-.427,0-1.016-.982-1.016-1.326C2156.023,1480.527,2156.2,1480.446,2156.383,1480.4Z" transform="translate(2.933 0.403)" fill="#674646"/>
      <path id="パス_15321" data-name="パス 15321" d="M2175.777,1475.015a6.065,6.065,0,0,1,.785-.081c.459,0,.426.246.459.622a22.265,22.265,0,0,0,.508,2.93c.049.215.1.493.376.493a26.5,26.5,0,0,0,3.341-1.819,1.054,1.054,0,0,1,.425-.164c.213,0,.491.492.59.656a3.273,3.273,0,0,1,.476,1c0,.164-.18.212-.311.262a30.079,30.079,0,0,0-4.046,1.883,16.565,16.565,0,0,0-2.948,1.933,2.059,2.059,0,0,0-.8,1.473c0,.59.573,1,1.081,1.18a6.56,6.56,0,0,0,2.178.294,24.763,24.763,0,0,0,4.273-.425.464.464,0,0,1,.148-.016c.229,0,.246.671.246,1.016v.2c0,.426-.017.607-.344.688a39.246,39.246,0,0,1-4.5.261,6.131,6.131,0,0,1-3.358-.7,2.882,2.882,0,0,1-1.506-2.522c0-1.785,1.473-2.948,2.833-3.833a.507.507,0,0,0,.279-.425.567.567,0,0,0-.066-.295c-.2-.59-.655-2.325-.82-3a9.9,9.9,0,0,0-.311-1.081.928.928,0,0,1-.049-.2C2174.711,1475.1,2175.251,1475.1,2175.777,1475.015Z" transform="translate(4.348 0.084)" fill="#674646"/>
      <path id="パス_15322" data-name="パス 15322" d="M2199.986,1479.543c0,.294.131.441.443.458.2-.017.393-.017.6-.017.393,0,.77.083.77.574,0,.147-.033.311-.033.54v.246c.015.1.033.442.033.491,0,.311-.213.279-.671.295-.115.016-.246.066-.246.2a.313.313,0,0,0,.049.164,3.4,3.4,0,0,1,.476.852c0,.245-.755.507-.967.507a.258.258,0,0,1-.261-.18,12.114,12.114,0,0,0-1-1.572.556.556,0,0,1-.082-.23c0-.294.72-.54.834-.54a.321.321,0,0,1,.247.115.138.138,0,0,0,.1.049.111.111,0,0,0,.115-.115v-.114c0-.213-.082-.312-.311-.312h-2.62c-.115.016-.213.049-.213.181,0,.1.049.131.114.213.147.164.327.36.327.491,0,.212-.671.541-.851.541-.164,0-.246-.115-.509-.427-.114-.13-.261-.31-.458-.54a.361.361,0,0,1-.1-.212c0-.049.032-.081.065-.131a.057.057,0,0,0,.017-.049c0-.05-.034-.05-.066-.066h-2.9c-.131.016-.2.066-.2.214v.23c.017.031.05.031.083.015s.049-.032.081-.032a4.286,4.286,0,0,1,.818.262c.2.065.394.115.394.279,0,.081-.082.13-.163.163-.147.034-.147.05-.311.361q-.3.564-.639,1.13c-.066.115-.147.246-.3.246-.213,0-.95-.3-.95-.541a1.169,1.169,0,0,1,.23-.393c.082-.131.164-.246.262-.41a.262.262,0,0,0,.049-.147c0-.163-.131-.213-.262-.229-.491,0-.7,0-.7-.279,0-.115.032-.376.032-.475v-.261c0-.214-.032-.377-.032-.541,0-.507.442-.557.834-.557a4.677,4.677,0,0,1,.492.017c.311-.034.408-.148.442-.458v-1.589c0-.345-.034-.688-.034-1.031,0-.525.295-.672.77-.672.327,0,.639.016.966.016a.309.309,0,0,0,.328-.18l.015-.032a.369.369,0,0,0,.034-.131c0-.18-.131-.23-.279-.246h-1.016c-.556,0-1.1.034-1.637.034-.327,0-.327-.165-.327-.575v-.147a.076.076,0,0,0-.081-.081h-.05c-.246.115-.261.18-.36.557a21.242,21.242,0,0,1-1.065,2.849c0,.017-.015.05-.015.065,0,.083.065.116.131.132.146.015.36.033.36.213,0,.114-.1.164-.2.245-.163.115-.18.458-.18,1.048v6.01c0,.721.032,1.458.032,2.179,0,.459-.18.54-.8.54-.655,0-.8-.115-.8-.557,0-.721.033-1.441.033-2.162v-4.618c0-.065-.015-.131-.1-.131a.117.117,0,0,0-.1.05c-.115.18-.376.59-.606.59-.261,0-1-.868-1-1.163a.492.492,0,0,1,.13-.279,18.946,18.946,0,0,0,2.751-6.092c.034-.147.066-.311.262-.311a9.571,9.571,0,0,1,1.6.459.121.121,0,0,0,.1.032.213.213,0,0,0,.1-.016.672.672,0,0,1,.18-.016c.541,0,1.081.016,1.637.016h6.24c.557,0,1.1-.016,1.638-.016.327,0,.327.2.327.59,0,.409,0,.59-.327.59-.557,0-1.1-.034-1.638-.034h-2.865a.364.364,0,0,0-.361.2.476.476,0,0,0-.049.163c0,.18.131.23.279.246H2198c.41,0,.82-.033,1.229-.033.491,0,.787.131.787.687,0,.345-.034.688-.034,1.016Zm-1.719,7.32c0,.1.066.131.147.164a16.593,16.593,0,0,0,3.1.426c.276,0,.54-.034.54.344,0,.229-.115.966-.688.966a20.479,20.479,0,0,1-2.39-.311,12.214,12.214,0,0,1-2.162-.639.984.984,0,0,0-.377-.082.793.793,0,0,0-.344.066,17.063,17.063,0,0,1-3.34.868,7.959,7.959,0,0,1-.836.114c-.459,0-.721-.77-.721-.982,0-.23.2-.23.753-.279a18.17,18.17,0,0,0,2.768-.491c.1-.033.164-.082.164-.2a.284.284,0,0,0-.1-.18,5.834,5.834,0,0,1-.606-.524.534.534,0,0,0-.361-.2.561.561,0,0,0-.279.082,5.536,5.536,0,0,1-1.522.7c-.344,0-.656-.656-.656-.852,0-.164.1-.2.312-.277a9.931,9.931,0,0,0,2.783-1.769c.05-.05.065-.065.065-.131a.35.35,0,0,0-.081-.18.916.916,0,0,1-.213-.639c0-.1.017-.23.017-.295v-.311c0-.2-.049-.606-.049-.753,0-.114.065-.147.18-.147.081,0,1.048.065,1.146.065.115.017.279.05.279.181,0,.114-.131.18-.212.213-.115.066-.131.2-.131.442v.147c0,.36.147.344.573.344h1.113c.492,0,.607-.034.688-.54.032-.18.066-.279.279-.279.164,0,1.032.081,1.032.475a2.546,2.546,0,0,1-.426,1.1,1.583,1.583,0,0,1-1.163.311h-.622a2.691,2.691,0,0,0-.327.066c-.2.015-.311-.017-.491.2a.233.233,0,0,0-.05.148c0,.114.1.147.2.163h1.473c.426,0,.853-.015,1.278-.015.786,0,.966.916.966.933,0,.409-1.245,1.162-1.588,1.376A.22.22,0,0,0,2198.267,1486.863Zm.033-9.237a.231.231,0,0,0,.213-.212v-.066a.244.244,0,0,0-.213-.213h-3.571a.213.213,0,0,0-.2.213v.066a.2.2,0,0,0,.2.212Zm-3.571.655a.213.213,0,0,0-.2.214v.1a.2.2,0,0,0,.2.213h3.571a.229.229,0,0,0,.213-.213v-.1a.244.244,0,0,0-.213-.214Zm3.783,1.376a.216.216,0,0,0-.213-.2h-3.571a.19.19,0,0,0-.2.2v.147a.19.19,0,0,0,.2.2h3.571a.216.216,0,0,0,.213-.2Zm-1.933,6.633a.833.833,0,0,0,.344-.1c.18-.1.95-.491.95-.687,0-.1-.18-.115-.556-.115h-1.637c-.1,0-.214.049-.214.165,0,.064.032.1.083.146.212.164.41.311.637.459A.862.862,0,0,0,2196.58,1486.29Z" transform="translate(5.546 0.011)" fill="#674646"/>
      <path id="パス_15323" data-name="パス 15323" d="M2209.667,1475.6c.114.017.326.083.326.23,0,.114-.1.164-.2.245-.573.426-.72,5.618-.72,6.55,0,1.278-.033,3.26,1.734,3.26a4.15,4.15,0,0,0,3.08-1.589,5.206,5.206,0,0,0,1-2.423c.05-.262.082-.541.327-.541.361,0,1.36.836,1.36,1.327a6.062,6.062,0,0,1-.672,1.916,5.73,5.73,0,0,1-4.977,3.129,3.622,3.622,0,0,1-2.884-1.261,6.621,6.621,0,0,1-.817-3.767q0-1.94.146-3.881c.049-.754.2-2.325.2-3v-.18c0-.246.017-.41.246-.41A14.067,14.067,0,0,1,2209.667,1475.6Z" transform="translate(7.24 0.107)" fill="#674646"/>
      <path id="パス_15324" data-name="パス 15324" d="M2230.94,1476.5c0,.164-.23.146-.344.146a.744.744,0,0,0-.442.2q-.613.444-1.228.933c-.917.753-1.85,1.507-2.7,2.325-.311.295-.671.622-.671.933,0,.41.54,1,.817,1.294.935,1,1.949,1.916,2.965,2.817.279.246,1.408,1.162,1.408,1.49,0,.395-1,1.327-1.393,1.327-.18,0-.408-.295-.506-.426-.623-.736-1.311-1.425-1.982-2.112-.885-.885-1.785-1.769-2.588-2.719a2.489,2.489,0,0,1-.787-1.736,1.859,1.859,0,0,1,.361-1.13,15.882,15.882,0,0,1,2.113-1.917,22.291,22.291,0,0,0,3.063-2.9c.065-.081.146-.2.245-.2.214,0,.688.556.868.737C2230.285,1475.713,2230.94,1476.319,2230.94,1476.5Z" transform="translate(8.607 0.075)" fill="#674646"/>
      <path id="パス_15325" data-name="パス 15325" d="M2239.653,1479.268a.416.416,0,0,0-.165-.295c-.294-.214-.572-.394-.785-.54-.395-.246-.64-.41-.64-.557,0-.246.459-.918.77-.918a9.083,9.083,0,0,1,1.655,1,.515.515,0,0,0,.279.1.444.444,0,0,0,.327-.18,4.778,4.778,0,0,0,.867-1.442c0-.212-.18-.229-.442-.229h-.72c-.557,0-1.113.033-1.67.033-.393,0-.377-.18-.377-.737,0-.573-.015-.753.377-.753.557,0,1.113.032,1.67.032h1.277c.392,0,.7-.015.95-.015a1.259,1.259,0,0,1,.77.163.966.966,0,0,1,.376.656c0,.867-1.555,2.865-2.128,3.554a.211.211,0,0,0-.066.163c0,.131.115.165.23.181.294.016.573.016.868.016h3.21c.311,0,.621,0,.932-.016.115-.016.213-.05.213-.181a.292.292,0,0,0-.064-.163,18,18,0,0,1-2.458-3.6.994.994,0,0,1-.163-.41c0-.345.8-.7,1.063-.7.212,0,.295.132.557.606.081.164.2.377.344.622.081.1.147.2.295.2a.372.372,0,0,0,.262-.131,8.868,8.868,0,0,0,.9-1c.081-.1.147-.229.279-.229a3.07,3.07,0,0,1,.7.459c.081.065.18.147.261.212.2.18.345.261.345.377,0,.229-.295.18-.476.18a.385.385,0,0,0-.18.1c-.409.441-.654.686-1.081,1.113a.442.442,0,0,0-.13.278.358.358,0,0,0,.1.245c.131.149.246.3.394.443a.288.288,0,0,0,.246.131.365.365,0,0,0,.261-.131,12.844,12.844,0,0,0,1.293-1.376c.05-.083.132-.213.246-.213a2.3,2.3,0,0,1,.622.425c.081.066.18.131.262.2.229.18.394.294.394.426,0,.213-.246.18-.394.18a.2.2,0,0,0-.164.081c-.392.425-.787.835-1.212,1.228a.4.4,0,0,0-.147.277.37.37,0,0,0,.164.3,11.7,11.7,0,0,0,1.392.95c.2.114.426.229.426.41,0,.245-.606,1.178-.966,1.178a8.423,8.423,0,0,1-2.178-1.539.215.215,0,0,0-.131-.049c-.1,0-.131.081-.147.164-.018.36-.018.557-.426.557h-.311c-.327,0-.442.13-.442.441v.787c0,.326.131.459.458.459h.7c.624,0,1.246-.05,1.868-.05.409,0,.392.214.392.8,0,.606.016.8-.392.8-.622,0-1.245-.049-1.868-.049h-.7c-.327,0-.458.131-.458.458v1.473c0,.607.066.737.7.737h1.162c.556,0,.835-.065,1.064-1.146.049-.214.1-.344.345-.344s1.178.18,1.178.572a4.662,4.662,0,0,1-.541,1.654,1.639,1.639,0,0,1-1.653.771h-2c-1.261,0-1.9-.215-1.9-1.605v-2.113c0-.311-.131-.458-.442-.458h-1.195a.492.492,0,0,0-.573.426,6.091,6.091,0,0,1-3.6,3.717,1.673,1.673,0,0,1-.557.147c-.376,0-.9-.917-.9-1.18,0-.18.131-.23.278-.261a4.687,4.687,0,0,0,3.079-2.44.384.384,0,0,0,.032-.148c0-.2-.164-.245-.326-.261h-.377c-.623,0-1.261.049-1.883.049-.41,0-.394-.212-.394-.8,0-.621,0-.8.409-.8.622,0,1.246.05,1.868.05h.671c.311,0,.458-.132.458-.459v-.787c0-.311-.115-.441-.426-.441h-.23c-.36,0-.392-.2-.392-.476-.016-.1-.049-.18-.147-.18a.174.174,0,0,0-.131.066c-.376.327-2,1.8-2.407,1.8-.345,0-.934-.786-.934-1.081,0-.147.13-.229.246-.295a15.156,15.156,0,0,0,1.851-1.392A.361.361,0,0,0,2239.653,1479.268Zm4.453,1.786c-.311,0-.458.13-.458.458v.8c0,.311.131.459.458.459h.982c.311,0,.442-.132.442-.459v-.8c0-.327-.131-.458-.442-.458Z" transform="translate(9.778 0.041)" fill="#674646"/>
      <path id="パス_15326" data-name="パス 15326" d="M2264.042,1478.325c0,.149.114.181.229.181h.426c.541,0,1.081-.017,1.622-.017.6,0,.95.147.95.819,0,.426-.034.835-.034,1.261v1.8c0,.525.034,1.032.034,1.393,0,.344-.165.376-.754.376-.556,0-.867,0-1.015-.23a.468.468,0,0,0-.441-.163h-7.091c-.328,0-.459.13-.459.459v1.261c0,1.195.147,1.326,1.442,1.326h6.075c1.294,0,1.556-.164,1.786-1.654.065-.376.065-.54.409-.54.442,0,1.359.18,1.359.737a5.367,5.367,0,0,1-.606,2.047c-.507.917-1.261.983-2.228.983h-7.287c-2.981,0-2.67-.9-2.67-3.145v-4.5c-.016-.131-.049-.246-.2-.246a.254.254,0,0,0-.149.066,1.2,1.2,0,0,1-.572.294c-.41,0-1.049-.72-1.049-1.064,0-.2.23-.311.377-.41a16.833,16.833,0,0,0,3.651-3.669,10.677,10.677,0,0,0,.951-1.539.313.313,0,0,1,.295-.213c.131,0,1.081.261,1.293.311.262.066.59.13.59.36,0,.165-.246.212-.377.262-.131.032-.213.164-.279.277a.324.324,0,0,0-.049.165c0,.164.131.2.263.212h2.571c.36,0,.72-.033,1.063-.033a1.1,1.1,0,0,1,1.131.835,7.208,7.208,0,0,1-1.2,1.834C2264.073,1478.228,2264.042,1478.26,2264.042,1478.325Zm-6.076,1.688a.469.469,0,0,0-.459.458v1.294a.47.47,0,0,0,.459.459h2.275a.434.434,0,0,0,.441-.459v-1.294a.433.433,0,0,0-.441-.458Zm-.1-1.671c0,.114.114.164.213.164h3.192a.731.731,0,0,0,.7-.3,4.914,4.914,0,0,0,.8-1.162c0-.2-.212-.164-.409-.164h-2.85a.746.746,0,0,0-.7.311,12.655,12.655,0,0,1-.884.982A.294.294,0,0,0,2257.868,1478.343Zm4.536,3.423a.434.434,0,0,0,.442.459h2.259a.469.469,0,0,0,.458-.459v-1.294a.468.468,0,0,0-.458-.458h-2.259a.434.434,0,0,0-.442.458Z" transform="translate(11.159)" fill="#674646"/>
      <path id="パス_15327" data-name="パス 15327" d="M2278.335,1474.506c.393.032.885.081.885.23a.25.25,0,0,1-.1.18c-.115.081-.246.212-.262.687-.016.344-.016.7-.016,1.048a.432.432,0,0,0,.475.475c.131,0,.77-.049.95-.049.8-.034,2.555-.131,3.259-.131.262,0,.377.1.377.835,0,1-.2.982-.36.982-.23,0-1.458-.081-2.375-.081-.294,0-1.816.016-2,.066a.525.525,0,0,0-.312.54v.573a1.378,1.378,0,0,0,.165.852,5.047,5.047,0,0,1,.507,2.292c0,2.638-1.753,5.569-2.474,5.569-.195,0-1.521-.41-1.521-.7,0-.131.278-.361.376-.459a5.3,5.3,0,0,0,1.179-1.589.622.622,0,0,0,.083-.245.124.124,0,0,0-.116-.115.359.359,0,0,0-.13.016,1.573,1.573,0,0,1-.376.082c-1.426,0-1.949-1.541-1.949-2.736,0-1.506.655-2.946,2.309-3.094.082-.017.2-.066.2-.2,0-.6-.115-.687-.295-.687-.131,0-.885.082-1.081.1-.851.083-2.965.311-3.75.476a1.355,1.355,0,0,1-.246.033c-.262,0-.278-.23-.327-.442a9.687,9.687,0,0,1-.131-1.18c0-.327.147-.294.95-.327.443-.016,4.291-.23,4.438-.262a.479.479,0,0,0,.36-.507,14.041,14.041,0,0,0-.163-2.031.35.35,0,0,1-.017-.131.185.185,0,0,1,.212-.2C2277.435,1474.375,2277.943,1474.473,2278.335,1474.506Zm-2.162,8.2c0,.491.114,1.392.77,1.392s.851-.835.851-1.343-.147-1.441-.818-1.441C2276.338,1481.319,2276.174,1482.22,2276.174,1482.711Z" transform="translate(12.627 0.037)" fill="#674646"/>
      <path id="パス_15328" data-name="パス 15328" d="M2297.509,1476.713c0,.116-.18.214-.36.345a15.762,15.762,0,0,0-2.375,2.194.493.493,0,0,0-.164.279c0,.131.131.213.279.213a.9.9,0,0,0,.213-.032,3.124,3.124,0,0,1,.671-.066,4.818,4.818,0,0,1,2.015.491,3.388,3.388,0,0,1,1.948,3.177c0,2.9-2.572,4.406-5.207,4.406-1.359,0-3.293-.557-3.293-2.227a2.056,2.056,0,0,1,2.1-1.982,2.674,2.674,0,0,1,2.179,1.162,1.627,1.627,0,0,1,.295,1.048c.016.114.065.212.2.212a2.662,2.662,0,0,0,1.982-2.521c0-1.588-1.343-2.243-2.768-2.243a4.973,4.973,0,0,0-3.669,1.6c-.639.622-1.228,1.293-1.818,1.965a.223.223,0,0,1-.18.114c-.344,0-1.179-.917-1.179-1.18,0-.2.246-.376.393-.491a65.483,65.483,0,0,0,5.093-5.142c.131-.13.426-.426.426-.59,0-.147-.147-.2-.279-.2a3.675,3.675,0,0,0-.393.066c-.393.1-2.7.572-2.963.572-.361,0-.41-1.228-.41-1.507,0-.376.015-.409.507-.409h.394a15.149,15.149,0,0,0,4.142-.606,2.207,2.207,0,0,1,.622-.18C2296.559,1475.191,2297.509,1476.434,2297.509,1476.713Zm-4.144,8.123a.679.679,0,0,0-.7.656c0,.589.787.867,1.278.867.311,0,.441-.295.441-.557A1,1,0,0,0,2293.365,1484.836Z" transform="translate(14.064 0.105)" fill="#674646"/>
      <path id="パス_15329" data-name="パス 15329" d="M2161.729,1503.192a11.234,11.234,0,0,1,2.294,1.572c.229.2,1.146.9,1.146,1.179s-.77,1.13-1.1,1.13a.59.59,0,0,1-.36-.214,24.492,24.492,0,0,0-2.375-1.916.3.3,0,0,0-.163-.066c-.147,0-.2.131-.2.264v4.471c0,.655.032,1.293.032,1.948,0,.753-.016.852-1.016.852-.655,0-.932-.017-.932-.557,0-.737.048-1.473.048-2.21v-9.335c0-.426-.033-.867-.048-1.277,0-.081-.017-.23-.017-.295,0-.164.05-.245.212-.245.1,0,.442.049.557.064.738.1,1.409.165,1.409.395a.488.488,0,0,1-.082.212,1.316,1.316,0,0,0-.18.868c0,.245.016.556.016.965v2.458c0,.13.082.163.13.163a.178.178,0,0,0,.149-.065C2161.369,1503.421,2161.549,1503.192,2161.729,1503.192Zm3.9-1.621c0,.228-.606.72-.8.72-.1,0-.18-.115-.246-.18a16.665,16.665,0,0,0-1.113-1.31c-.082-.083-.147-.149-.147-.23,0-.2.622-.656.8-.656A6.12,6.12,0,0,1,2165.628,1501.571Zm1.7-1.147c0,.229-.589.737-.8.737-.1,0-.18-.131-.229-.2-.344-.441-.753-.9-1.13-1.293-.065-.082-.147-.147-.147-.229,0-.2.622-.672.8-.672A6.369,6.369,0,0,1,2167.331,1500.424Z" transform="translate(3.188 2.065)" fill="#674646"/>
      <path id="パス_15330" data-name="パス 15330" d="M2174.492,1503.167c.181.213.556.8.721,1.065a5.92,5.92,0,0,1,.7,1.293c0,.344-.982.753-1.179.753-.163,0-.245-.147-.31-.279a16.178,16.178,0,0,0-1.18-1.982.6.6,0,0,1-.131-.295c0-.294.885-.7,1.1-.7A.363.363,0,0,1,2174.492,1503.167Zm8.106-.262c.131.049.3.13.3.295,0,.114-.115.18-.2.245-.131.1-.147.147-.212.345a12.264,12.264,0,0,1-2.243,4.585,9.358,9.358,0,0,1-4.456,2.85,2.891,2.891,0,0,1-.507.13c-.311,0-.917-.9-.917-1.13,0-.18.1-.245.262-.294a7.99,7.99,0,0,0,5.076-3.456,9.477,9.477,0,0,0,1.344-3.717c.015-.148.033-.328.212-.328A10.944,10.944,0,0,1,2182.6,1502.9Zm-4.094.36a6.428,6.428,0,0,1,.737,1.343c0,.327-.95.753-1.179.753-.165,0-.262-.18-.328-.311a17.29,17.29,0,0,0-1.147-1.932.567.567,0,0,1-.146-.328c0-.279.884-.687,1.1-.687.229,0,.54.459.818.917Z" transform="translate(4.371 2.369)" fill="#674646"/>
      <path id="パス_15331" data-name="パス 15331" d="M2194.979,1503.192a11.289,11.289,0,0,1,2.293,1.572c.229.2,1.146.9,1.146,1.179s-.77,1.13-1.1,1.13a.591.591,0,0,1-.36-.214,24.492,24.492,0,0,0-2.375-1.916.3.3,0,0,0-.164-.066c-.147,0-.2.131-.2.264v4.471c0,.655.031,1.293.031,1.948,0,.753-.015.852-1.015.852-.655,0-.932-.017-.932-.557,0-.737.049-1.473.049-2.21v-9.335c0-.426-.034-.867-.049-1.277,0-.081-.017-.23-.017-.295,0-.164.05-.245.212-.245.1,0,.442.049.557.064.738.1,1.409.165,1.409.395a.491.491,0,0,1-.082.212,1.316,1.316,0,0,0-.18.868c0,.245.016.556.016.965v2.458c0,.13.081.163.13.163a.177.177,0,0,0,.148-.065C2194.618,1503.421,2194.8,1503.192,2194.979,1503.192Z" transform="translate(5.984 2.065)" fill="#674646"/>
      <path id="パス_15332" data-name="パス 15332" d="M2215.289,1503.848c.688,0,1.376-.05,2.063-.05.476,0,.509.082.509.868,0,.672-.033.9-.459.9-.7,0-1.409-.033-2.113-.033h-2.146c-.458,0-.458.409-.524.753a8.292,8.292,0,0,1-1.081,2.964,7.218,7.218,0,0,1-3.407,2.669,2.862,2.862,0,0,1-.77.261c-.36,0-1.243-1.08-1.243-1.342,0-.2.245-.23.441-.294a7.869,7.869,0,0,0,2.064-.853,4.9,4.9,0,0,0,2.064-2.98,7.846,7.846,0,0,0,.13-.786.374.374,0,0,0-.376-.392h-3.325c-.687,0-1.425.049-2.063.049-.442,0-.426-.311-.426-.933,0-.606.017-.852.41-.852.572,0,1.359.05,2.079.05Zm-2.522-4.291c.721,0,1.506-.049,2.063-.049.491,0,.458.327.458.982,0,.557,0,.786-.441.786-.688,0-1.392-.033-2.08-.033h-3.489c-.687,0-1.376.033-2.079.033-.459,0-.426-.261-.426-.851s-.033-.917.458-.917c.525,0,1.31.049,2.047.049Zm5.354,1.653c0,.246-.6.721-.818.721-.081,0-.2-.146-.344-.326-.311-.427-.656-.82-1-1.213a.321.321,0,0,1-.148-.213c0-.18.639-.639.819-.639A6.1,6.1,0,0,1,2218.122,1501.211Zm.688-2.342c.131.148.655.706.655.868,0,.23-.589.721-.8.721-.114,0-.23-.18-.41-.41-.261-.344-.671-.786-.966-1.1a.336.336,0,0,1-.13-.213c0-.2.622-.655.8-.655C2218.107,1498.084,2218.679,1498.721,2218.81,1498.869Z" transform="translate(7.021 2.031)" fill="#674646"/>
      <path id="パス_15333" data-name="パス 15333" d="M2223.71,1502.711c.426,0,.54-.245.54-.425v-1.115c0-.916-.049-1.784-.049-1.8,0-.13.049-.163.164-.163.279,0,1.228.081,1.54.114.115.017.426.049.426.2,0,.066-.066.13-.1.18-.212.246-.2.377-.2,1.441v1.13a.434.434,0,0,0,.409.442h2.9c.23,0,.41-.164.41-.491,0-.59,0-2.293-.065-2.784a.785.785,0,0,1-.017-.2c0-.148.114-.2.343-.2s.557.049,1.017.082c.425.032.752.05.752.214,0,.1-.049.147-.164.277a5.287,5.287,0,0,0-.1,1.376v1.2c0,.344.163.524.491.524h.441c.639,0,1.409-.049,1.917-.049.311,0,.41.13.41.77,0,.818-.05.966-.443.966-.638,0-1.26-.032-1.884-.032h-.441c-.524,0-.524.344-.524.556-.066,2.85-.311,4.816-2.85,6.5a6.984,6.984,0,0,1-1.67.853,2.83,2.83,0,0,1-1.178-1.179c0-.147.13-.214.261-.262,3.111-1.326,3.685-2.653,3.685-5.945,0-.279-.115-.524-.426-.524h-2.866a.415.415,0,0,0-.409.41v1.572c0,.442.032.9.032,1.359,0,.7-.081.655-1.064.655-.573,0-.77,0-.77-.425,0-.525.016-1.048.016-1.573v-1.556a.44.44,0,0,0-.441-.442h-.491c-.607,0-1.228.05-1.835.05-.393,0-.441-.312-.441-.755,0-.785.016-1,.426-1,.474,0,1.195.049,1.851.049Zm10.94-1.686c0,.229-.606.72-.818.72-.1,0-.23-.2-.442-.475-.295-.361-.606-.721-.934-1.065a.3.3,0,0,1-.114-.2c0-.18.638-.64.8-.64A6.08,6.08,0,0,1,2234.65,1501.026Zm1.392-1.441c0,.228-.572.736-.8.736-.081,0-.165-.1-.214-.164-.344-.426-.77-.917-1.162-1.311-.065-.049-.148-.13-.148-.212,0-.2.623-.672.787-.672A6.309,6.309,0,0,1,2236.042,1499.585Z" transform="translate(8.402 2.021)" fill="#674646"/>
      <path id="パス_15334" data-name="パス 15334" d="M2245.862,1509.718c0,.72.033,1.441.033,2.145,0,.442-.214.491-.82.491-.9,0-1.064-.049-1.064-.474,0-.706.033-1.409.033-2.114v-4.453c0-.1.048-.46-.263-.46-.163,0-.506.279-.639.377a20.214,20.214,0,0,1-3.521,2.1,2.758,2.758,0,0,1-1.276-1.31c0-.164.146-.23.261-.279a23.569,23.569,0,0,0,6.435-4.339,13.825,13.825,0,0,0,2.228-2.769c.05-.081.148-.246.262-.246a6.121,6.121,0,0,1,1.114.671c.18.116.639.395.639.59,0,.1-.083.131-.165.165a.885.885,0,0,0-.638.393,32.177,32.177,0,0,1-2.243,2.458.87.87,0,0,0-.377.736Z" transform="translate(9.857 2.056)" fill="#674646"/>
      <path id="パス_15335" data-name="パス 15335" d="M2267.86,1503.521c0,.278-.654.916-.867,1.13a28.461,28.461,0,0,1-8.893,6.174c-.54.261-.556.279-.687.557a.166.166,0,0,1-.164.1c-.181,0-.524-.655-.64-.852a4.589,4.589,0,0,1-.491-.982c0-.18.3-.213.509-.279a22.406,22.406,0,0,0,10.039-7.124.4.4,0,0,1,.279-.18C2267.271,1502.063,2267.86,1503.275,2267.86,1503.521Zm-8.451-2.7c.215.148,1,.688,1,.934,0,.376-.77,1.261-1.081,1.261a1.767,1.767,0,0,1-.655-.441,20.3,20.3,0,0,0-2.178-1.524c-.131-.081-.261-.164-.261-.311,0-.245.654-1.293,1.031-1.293A13.035,13.035,0,0,1,2259.409,1500.818Z" transform="translate(11.352 2.145)" fill="#674646"/>
    </g>
  </g>
</svg>
