<svg xmlns="http://www.w3.org/2000/svg" width="285.253" height="142.626" viewBox="0 0 285.253 142.626">
  <g id="グループ_1750" data-name="グループ 1750" transform="translate(-1313.87 -1567.24)">
    <path id="パス_15709" data-name="パス 15709" d="M1599.123,1567.24a142.626,142.626,0,0,1-285.253,0" transform="translate(0 0)" fill="#b5825f"/>
    <path id="パス_3209" data-name="パス 3209" d="M1922.576,131.751c-3.506,6.517-8.733,9.807-15.536,9.807s-12.03-3.3-15.536-9.807c-2.795-5.227-4.224-11.6-4.224-19.042s1.429-13.815,4.224-19.042c3.506-6.517,8.734-9.807,15.536-9.807s12.03,3.3,15.536,9.807c2.865,5.3,4.294,11.668,4.294,19.042S1925.441,126.454,1922.576,131.751Zm-7.876-30.424c-1.645-4.656-4.224-7.019-7.66-7.019s-5.945,2.363-7.589,7.019a35.723,35.723,0,0,0,0,22.764c1.645,4.656,4.224,7.019,7.589,7.019s6.016-2.363,7.66-7.019a35.732,35.732,0,0,0,0-22.764Z" transform="translate(-470.59 1522.073)" fill="#fff"/>
    <path id="パス_3210" data-name="パス 3210" d="M1963.25,140.055a128.145,128.145,0,0,0,12.818-16.178c5.011-7.66,7.513-13.745,7.513-18.4a12.074,12.074,0,0,0-3.29-8.594,14.471,14.471,0,0,0-8.378-4.37l1.721-10.023c6.232,1,11.167,3.506,14.749,7.514s5.367,9.165,5.367,15.466c0,7.3-3.506,15.39-10.455,24.339h11.312v10.239H1963.25Z" transform="translate(-498.306 1522.572)" fill="#fff"/>
  </g>
</svg>
