<svg xmlns="http://www.w3.org/2000/svg" width="1053.357" height="184.453" viewBox="0 0 1053.357 184.453">
  <g id="グループ_2282" data-name="グループ 2282" transform="translate(-190.72 -2466.693)">
    <g id="グループ_1693" data-name="グループ 1693" transform="translate(1195.097 2467.332)">
      <line id="線_325" data-name="線 325" y1="119.534" x2="42.67" transform="translate(0 0)" fill="none" stroke="#674646" stroke-linecap="round" stroke-linejoin="round" stroke-width="1"/>
      <line id="線_326" data-name="線 326" y1="63.04" x2="30.978" transform="translate(17.333 55.819)" fill="none" stroke="#674646" stroke-linecap="round" stroke-linejoin="round" stroke-width="1"/>
    </g>
    <g id="グループ_1694" data-name="グループ 1694" transform="translate(191.405 2538.537)">
      <line id="線_327" data-name="線 327" x1="64.536" y1="109.289" transform="translate(0 0)" fill="none" stroke="#674646" stroke-linecap="round" stroke-linejoin="round" stroke-width="1"/>
      <line id="線_328" data-name="線 328" x1="42.356" y1="56.032" transform="translate(5.032 55.877)" fill="none" stroke="#674646" stroke-linecap="round" stroke-linejoin="round" stroke-width="1"/>
    </g>
    <g id="グループ_1655" data-name="グループ 1655" transform="matrix(0.998, -0.07, 0.07, 0.998, -3874.344, 2497.351)">
      <path id="パス_14139" data-name="パス 14139" d="M4255.75,338.04c0-.648-.459-.879-1.02-.879h-9.665c-1.8,0-3.6.093-5.41.093-1.154,0-1.108-.6-1.108-2.405,0-1.85-.046-2.451,1.108-2.451,1.806,0,3.609.138,5.41.138h10.315c.877,0,1.248-.324,1.34-1.247.091-1.435.139-2.915.139-4.348V325a35.1,35.1,0,0,0-.139-3.976.82.82,0,0,1-.045-.326c0-.646.507-.739,1.016-.739.788,0,3.516.231,4.346.324.327.046.88.138.88.6,0,.231-.185.37-.371.508a1.407,1.407,0,0,0-.693,1.435c-.091,2.82,0,5.642-.137,8.51.046.832.417,1.2,1.247,1.2h10.408c1.8,0,3.608-.138,5.458-.138,1.155,0,1.063.648,1.063,2.451,0,1.85.092,2.405-1.111,2.405-1.8,0-3.608-.093-5.41-.093h-9.945c-.463.047-.925.186-.925.741,0,.184.046.277.046.415a34.077,34.077,0,0,0,15.91,18.176c.463.277.879.461.879,1.063,0,.97-1.665,3.514-2.728,3.514-.783,0-3.792-2.081-4.532-2.636a37.447,37.447,0,0,1-12.209-14.753.5.5,0,0,0-.461-.322c-.231,0-.371.184-.513.369-3,7.4-9.108,13.135-16.138,16.7-.092.045-.141.091-.229.091a3.97,3.97,0,0,1-1.622.555c-1.155,0-2.356-3.1-2.356-3.838,0-.555.554-.832,1.016-1.063a2.619,2.619,0,0,0,.325-.138c7.816-3.609,13.643-9.111,15.861-17.668Z" transform="translate(59.416 0.297)" fill="#674646"/>
      <path id="パス_14140" data-name="パス 14140" d="M4272.282,355.1a.783.783,0,0,0-.694.463,47.833,47.833,0,0,1-2.637,4.162c-.324.417-.692.925-1.249.925-.879,0-3.653-1.109-3.653-2.174a1.833,1.833,0,0,1,.509-.97,27.583,27.583,0,0,0,6.013-14.567c.046-.555.046-1.2.787-1.2.463,0,2.636.461,3.191.553,1.34.279,2.081.417,2.081.973,0,.277-.325.508-.554.6-.7.324-.742.554-.972,1.757-.139.648-.278,1.573-.645,2.913a2.522,2.522,0,0,0-.143.834,2.086,2.086,0,0,0,.464,1.247,9.428,9.428,0,0,0,4.95,4.024c.137,0,.275.045.369.045.6,0,.787-.46.832-.97V340.074c0-.925-.37-1.294-1.295-1.294h-3.422c-1.622,0-3.284.093-4.95.093-1.153,0-1.153-.6-1.153-2.221,0-1.571-.049-2.219,1.153-2.219,1.666,0,3.286.093,4.95.093h14.521c1.663,0,3.286-.093,4.948-.093,1.159,0,1.159.6,1.159,2.219,0,1.711,0,2.221-1.159,2.221-1.663,0-3.286-.093-4.948-.093h-3.607c-.924,0-1.295.37-1.295,1.294v3.006c0,.879.371,1.249,1.295,1.249h2.962c1.478,0,2.91-.093,4.391-.093,1.2,0,1.155.6,1.155,2.267,0,1.619.047,2.219-1.155,2.219-1.48,0-2.913-.093-4.391-.093h-2.962c-.924,0-1.295.372-1.295,1.294v4.486c0,.832.278,1.3,1.2,1.342,1.988.138,3.975.093,5.964.093,2.819,0,6.1-.093,8.926-.371a8.64,8.64,0,0,1,1.108-.046c.788,0,.975.648.975,1.295,0,.925-.28,2.684-1.111,3.237a3.474,3.474,0,0,1-1.847.324c-1.529.048-3.057.048-4.582.048h-4.625c-6.52,0-14.1.415-18.915-4.9A.882.882,0,0,0,4272.282,355.1Zm14.846-29.828h7.585c1.756,0,3.514-.093,5.272-.093,1.294,0,2.728.324,2.728,1.9,0,.646-.091,1.526-.091,2.541v1.666c0,.556.138,1.435.138,1.943,0,1.111-.739,1.063-2.592,1.063-1.571,0-2.45.093-2.45-1.018,0-.508.094-1.342.094-1.988v-.694c0-.925-.373-1.295-1.3-1.295h-26.173c-.88,0-1.3.37-1.3,1.295v.786c0,.648.139,1.48.139,1.988,0,1.111-.88,1.018-2.5,1.018s-2.45.093-2.45-1.018c0-.6.093-1.387.093-1.988v-1.759c0-1.2-.047-2.034-.047-2.5,0-1.573,1.341-1.9,2.634-1.9,1.8,0,3.561.047,5.319.047h7.446c.925,0,1.293-.37,1.293-1.294v-.462a22.228,22.228,0,0,0-.183-2.5c0-.139-.047-.324-.047-.463,0-.555.417-.648.879-.648,1.019,0,2.914.186,3.977.279.416.046,1.341.046,1.341.646,0,.324-.276.417-.6.694-.558.417-.558,1.249-.51,2.453C4285.833,324.906,4286.251,325.276,4287.128,325.276Z" transform="translate(84.312 0.251)" fill="#674646"/>
      <path id="パス_14141" data-name="パス 14141" d="M4323.272,346.661c-.416,0-.6.277-.647.694a12.907,12.907,0,0,0-.045,1.294V357.3c0,.973.138,2.36.138,3.1,0,1.063-.646,1.018-2.453,1.018-1.757,0-2.5.045-2.5-.972v-.186c0-.6-.419-.646-.695-.646H4300.8c-.51,0-.647.231-.741.646-.044.972-.369.972-2.452.972-1.757,0-2.449.047-2.449-1.018,0-.045.088-2.635.088-3.1V347.078c-.043-.417-.231-.741-.692-.741a1.125,1.125,0,0,0-.416.093c-.739.415-2.867,1.712-3.607,1.712-1.017,0-2.4-2.267-2.4-3.192,0-.508.507-.694,1.433-1.111a42.927,42.927,0,0,0,11.331-7.445.426.426,0,0,0,.185-.369c0-.372-.276-.462-.555-.462h-5.136c-1.895,0-3.789.091-5.64.091-1.067,0-1.016-.553-1.016-2.081,0-1.571-.051-2.126,1.016-2.126,1.851,0,3.745.14,5.64.14h1.852c.416-.048.788-.186.788-.648a.885.885,0,0,0-.142-.463c-.045-.093-.23-.369-.417-.648a13.791,13.791,0,0,1-1.246-2.267c0-.555.924-.925,1.339-1.109.093-.045.093-.093.093-.186a.122.122,0,0,0-.139-.138h-3.793c-.786,0-1.987.138-1.987-2.961,0-.925.556-.97,1.295-.97,1.94,0,3.838.093,5.78.093,5.412,0,17.065-.555,21.921-2.405a2.193,2.193,0,0,1,.785-.231c.324,0,.742.462,1.528,1.34.324.371.693.786,1.154,1.249a2.621,2.621,0,0,1,.743,1.3.448.448,0,0,1-.417.415,1.549,1.549,0,0,1-.6-.184,1.455,1.455,0,0,0-.645-.14c-.231,0-2.314.51-2.824.6a.4.4,0,0,0-.321.37.437.437,0,0,0,.23.324c.693.277,3.007,1.063,3.007,1.619,0,.369-.416.415-.6.46-.509.047-.692.095-.973.51-.233.324-1.2,1.988-1.893,3.006a.867.867,0,0,0-.142.462c0,.417.371.555.74.6h2.222c1.851,0,3.7-.14,5.6-.14,1.061,0,1.061.508,1.061,2.126s0,2.081-1.061,2.081c-1.9,0-3.746-.091-5.6-.091H4317.4c-.279,0-.557.091-.557.462a.567.567,0,0,0,.187.415,42.873,42.873,0,0,0,11.747,7.864c.416.184.925.415.925.923,0,.88-1.711,3.1-2.59,3.1-.7,0-2.682-1.156-3.375-1.526A.782.782,0,0,0,4323.272,346.661ZM4306.25,336.9c-.183,0-.274.093-.415.231a38.537,38.537,0,0,1-6.749,6.1c-.142.093-.234.186-.234.324,0,.277.234.369.464.415h18.913c.187-.046.418-.138.418-.415a.484.484,0,0,0-.185-.37,48.887,48.887,0,0,1-6.245-5.735.375.375,0,0,0-.37-.186c-.28,0-.369.233-.369.464,0,1.294.045,2.589.045,3.884,0,1.435-.415,1.48-2.5,1.48-2.037,0-2.5-.045-2.5-1.48,0-1.387.094-2.82.138-4.208C4306.624,337.181,4306.529,336.9,4306.25,336.9Zm.373,11.795a1.068,1.068,0,0,0-1.109-1.111h-4.44a1.068,1.068,0,0,0-1.109,1.111v.46a1.068,1.068,0,0,0,1.109,1.111h4.44a1.068,1.068,0,0,0,1.109-1.111Zm-5.549,4.532a1.068,1.068,0,0,0-1.109,1.109v.694a1.033,1.033,0,0,0,1.109,1.065h4.44a1.033,1.033,0,0,0,1.109-1.065v-.694a1.068,1.068,0,0,0-1.109-1.109Zm-.23-26.593a1.727,1.727,0,0,0,.414.879,11.587,11.587,0,0,1,1.48,3.052c0,.372-.323.555-.552.694-.049.047-.1.093-.1.14,0,.138.046.138.188.186h3.1c.924,0,1.292-.417,1.292-1.3V327.1c0-.788-.369-1.249-1.2-1.2-1.342.045-2.635.093-3.931.138C4301.167,326.082,4300.844,326.22,4300.844,326.635Zm15.954,23.633a1.033,1.033,0,0,0,1.065-1.111v-.46a1.033,1.033,0,0,0-1.065-1.111h-4.535a1.069,1.069,0,0,0-1.108,1.111v.46a1.069,1.069,0,0,0,1.108,1.111Zm-5.643,4.763a1.033,1.033,0,0,0,1.108,1.065h4.535a1,1,0,0,0,1.065-1.065v-.694a1.033,1.033,0,0,0-1.065-1.109h-4.535a1.069,1.069,0,0,0-1.108,1.109Zm.279-28.255v3.514c0,.879.369,1.3,1.294,1.3h.464a1.58,1.58,0,0,0,1.662-.834,31.3,31.3,0,0,0,2.823-4.994.772.772,0,0,0,.047-.324.561.561,0,0,0-.6-.6h-.137c-1.436.231-2.916.324-4.349.508C4311.756,325.434,4311.434,325.9,4311.434,326.776Z" transform="translate(107.818 0)" fill="#674646"/>
      <path id="パス_14142" data-name="パス 14142" d="M4330.441,332.526c1.3,0,1.39-1.158,1.39-2.174V329.7c0-1.156-.047-6.937-.186-7.723,0-.138-.046-.415-.046-.553a.416.416,0,0,1,.463-.464c.6,0,4.115.372,4.719.51.275.045.692.231.692.553a.646.646,0,0,1-.232.464c-.417.415-.46.694-.46,1.526v.739c0,2.035-.049,4.071-.049,6.1,0,.88.415,1.666,1.387,1.666h6.153c2.033,0,4.071-.14,6.1-.14,1.11,0,1.155.555,1.155,2.636,0,1.99-.277,2.451-1.249,2.451-1.988,0-4.022-.093-6.01-.093H4337.7c-1.017,0-1.339.787-1.435,1.618-.923,6.939-4.021,12.9-9.756,17.113-.648.462-3.378,2.312-4.068,2.312-.925,0-3.792-2.591-3.792-3.376,0-.464.877-.741,1.247-.925,6.2-2.637,9.9-7.909,11.193-14.384a11.176,11.176,0,0,0,.184-1.2,1.168,1.168,0,0,0-1.11-1.158h-9.156c-1.942,0-4.255.14-5.783.14-1.107,0-1.247-.648-1.247-2.682,0-1.8,0-2.453,1.155-2.453,1.345,0,4.022.14,5.875.14Z" transform="translate(133.06 1.279)" fill="#674646"/>
      <path id="パス_14143" data-name="パス 14143" d="M4355.866,335.744c1.431,0,1.389-1.712,1.389-3.052,0-2.36,0-3.284-1.109-3.284-.236,0-6.43.694-9.717.694-1.062,0-1.245-.184-1.613-1.063a9.491,9.491,0,0,1-.881-2.961c0-.6.369-.832.926-.832.415,0,1.433.093,2.176.093a65.948,65.948,0,0,0,14.1-1.478,25.892,25.892,0,0,0,6.2-2.128,1.863,1.863,0,0,1,.786-.324c.506,0,1.527,1.111,1.9,1.48.462.462,2.264,2.219,2.264,2.775,0,.322-.32.463-.6.463-.1,0-.326-.048-.467-.048a1.267,1.267,0,0,0-.414-.045c-.507,0-3.653,1.063-4.442,1.294-.968.279-1.986.555-2.958.786-.692.186-1.248.51-1.248,1.295,0,.879.09,1.711.09,2.543,0,.879-.043,1.712-.043,2.543,0,.694.276,1.249,1.063,1.249h6.566c2.129,0,4.3-.093,6.058-.093,1.159,0,1.207.6,1.207,2.636,0,1.757-.142,2.312-1.295,2.312-1.989,0-3.98-.045-5.969-.045H4362.9c-1.479,0-1.71.877-2.037,2.035a24.136,24.136,0,0,1-8.228,12.348c-.881.692-4.442,3.283-5.413,3.283-.88,0-3.516-2.543-3.516-3.283,0-.417.6-.648,1.063-.88,4.905-2.543,8.093-5.273,10.267-10.453a11.08,11.08,0,0,0,.787-2.265.791.791,0,0,0-.834-.787H4345.6c-2.084,0-4.253.093-5.782.093-1.249,0-1.249-.834-1.249-2.312,0-1.943-.045-2.729,1.155-2.729,1.25,0,3.887.138,5.875.138Z" transform="translate(157.066 1.713)" fill="#674646"/>
      <path id="パス_14144" data-name="パス 14144" d="M4384.345,327.443c.554,0,1.109,0,1.572-.046.188,0,.464-.045.649-.045,1.064,0,2.68,1.294,2.68,2.358,0,.372-.138.6-.23,1.294-.138.88-.276,1.9-.321,2.128l-.972,8.508a.985.985,0,0,0,.972,1.111h1.247c1.528,0,3.052-.093,4.625-.093,1.205,0,1.157.787,1.157,2.312,0,1.3,0,2.083-1.3,2.083-1.48,0-3-.093-4.484-.093h-18.915c-1.573,0-3.331.093-4.439.093-1.249,0-1.205-1.065-1.205-1.99,0-1.571.1-2.405,1.158-2.405.787,0,3.236.093,4.486.093h11.053a1.3,1.3,0,0,0,1.3-1.111l.879-8.093c0-.138.137-.832.137-.925,0-.739-.646-.97-1.248-.97h-6.428c-1.572,0-3.376.093-4.535.093-1.062,0-1.062-.787-1.062-2.267,0-1.2-.092-2.081,1.015-2.081.786,0,2.733.046,4.582.046Z" transform="translate(183.245 7.517)" fill="#674646"/>
      <path id="パス_14145" data-name="パス 14145" d="M4414.387,331.841c1.064,0,3.189,0,4.161-.093a4.955,4.955,0,0,1,.833-.093c.969,0,3.281,2.219,3.281,3.053a11.521,11.521,0,0,1-.6,1.9,32.253,32.253,0,0,1-2.682,6.243,38.727,38.727,0,0,1-9.571,10.915c-1.3,1.063-6.291,4.625-7.727,4.625-1.062,0-3.187-2.636-3.187-3.423,0-.555,1.154-.97,1.615-1.2a33.272,33.272,0,0,0,14.2-13.135,11.818,11.818,0,0,0,1.248-3.006c0-1.111-1.248-1.018-1.987-1.018h-17.2c-1.942,0-3.886.093-5.874.093-1.292,0-1.292-.462-1.292-2.267,0-2.358.045-2.682,1.337-2.682,1.942,0,3.933.093,5.921.093Zm-3.1-9.99c1.892,0,4.255-.138,5.454-.138,1.158,0,1.25.51,1.25,2.822,0,1.571,0,2.174-1.25,2.174-1.85,0-3.652-.093-5.454-.093h-11.329c-1.805,0-3.609.093-5.415.093-1.292,0-1.292-.555-1.292-2.267,0-2.174.093-2.729,1.251-2.729,1.293,0,3.651.138,5.457.138Z" transform="translate(206.887 2.01)" fill="#674646"/>
      <path id="パス_14146" data-name="パス 14146" d="M4425.944,324.08c.554.1,1.157.1,1.157.555,0,.231-.28.465-.461.648-.279.277-.234,1.063-.234,1.48v1.016c0,9.573-.646,17.714-8,24.743-.369.324-.924.97-1.433.97-.693,0-4.116-1.71-4.116-2.543,0-.324.371-.646.6-.832,7.029-5.826,7.911-12.3,7.911-20.9,0-1.387-.046-3.237-.187-4.579,0-.138-.044-.37-.044-.508,0-.417.276-.508.6-.508C4422.614,323.62,4424.973,323.942,4425.944,324.08Zm10.958,19.332c0,1.435.046,2.126.741,2.126,1.528,0,10.637-8.138,12.115-9.664.233-.231.558-.6.925-.6.787,0,2.359,2.958,2.359,3.7,0,.692-1.805,2.172-2.4,2.682-2.774,2.4-5.548,4.763-8.464,6.937-1.247.97-3.236,2.451-4.348,3.421-.415.326-.878.834-1.431.834a11.967,11.967,0,0,1-3.193-1.387c-.644-.37-1.477-.834-1.477-1.666,0-.322.182-3.328.182-5.549V328.058a40.874,40.874,0,0,0-.182-4.717v-.231a.413.413,0,0,1,.463-.461c.275,0,1.43.184,1.8.229,2.405.324,3.747.462,3.747.972,0,.324-.188.415-.371.646a1.832,1.832,0,0,0-.417,1.2c-.046,1.063-.046,3.376-.046,4.532Z" transform="translate(229.592 2.925)" fill="#674646"/>
      <path id="パス_14147" data-name="パス 14147" d="M4446.719,345.9c0,1.158.091,1.9.925,1.9a19.908,19.908,0,0,0,3.792-1.48A64.232,64.232,0,0,0,4469.2,334.16c.275-.279.694-.739,1.111-.739.736,0,2.309,3.051,2.309,3.976a1.342,1.342,0,0,1-.508.832c-1.019,1.018-2.128,1.943-3.24,2.868a82.652,82.652,0,0,1-20.348,12.024,17.508,17.508,0,0,0-1.614.739,2.777,2.777,0,0,1-1.161.462,16.358,16.358,0,0,1-3.653-1.709c-.554-.417-.6-.834-.6-1.621,0-1.571.1-3.283.1-4.992V327.175c0-1.016,0-2.036-.049-2.82-.046-.324-.138-1.294-.138-1.526a.5.5,0,0,1,.509-.555c.183,0,.692.093.972.138.741.093,3.049.462,3.744.648.415.093.974.138.974.6,0,.277-.233.415-.416.6a1.766,1.766,0,0,0-.419,1.433c-.045.694-.045,1.435-.045,2.174Z" transform="translate(257.46 2.559)" fill="#674646"/>
      <path id="パス_14148" data-name="パス 14148" d="M4498.4,333.554c0,.787-1.849,2.591-2.452,3.192a80.353,80.353,0,0,1-25.11,17.435c-1.529.739-1.574.787-1.94,1.573a.466.466,0,0,1-.464.277c-.509,0-1.482-1.85-1.8-2.4a12.962,12.962,0,0,1-1.387-2.777c0-.508.833-.6,1.431-.785,10.223-3.006,21.782-11.747,28.353-20.117a1.119,1.119,0,0,1,.783-.51C4496.734,329.439,4498.4,332.86,4498.4,333.554Zm-23.86-7.63c.6.417,2.821,1.943,2.821,2.636,0,1.063-2.175,3.561-3.054,3.561a4.949,4.949,0,0,1-1.852-1.249,57.606,57.606,0,0,0-6.149-4.3c-.37-.231-.742-.462-.742-.877,0-.694,1.853-3.654,2.917-3.654C4469.218,322.04,4473.658,325.277,4474.539,325.923Z" transform="translate(280.739 2.33)" fill="#674646"/>
      <path id="パス_14149" data-name="パス 14149" d="M4511.044,327.376c.786,0,2.635,0,3.326-.093a7.727,7.727,0,0,1,1.017-.093c.973,0,2.962,2.5,2.962,3.1,0,.37-.555,1.018-.739,1.342-.646.925-1.387,2.265-1.989,3.283a68.931,68.931,0,0,1-5.042,7.168,1.331,1.331,0,0,0-.417.925,1.219,1.219,0,0,0,.7,1.063,69.958,69.958,0,0,1,7.814,5.967c1.158,1.018,2.265,2.036,3.332,3.1a1.037,1.037,0,0,1,.366.694c0,1.018-2.54,3.747-3.561,3.747a1.526,1.526,0,0,1-1.109-.741,52.208,52.208,0,0,0-10.264-9.158,1.8,1.8,0,0,0-1.02-.415c-.694,0-1.249.648-1.712,1.111a48.273,48.273,0,0,1-11.513,7.955,7.359,7.359,0,0,1-1.807.694c-.924,0-3.051-3.053-3.051-3.885,0-.6.6-.832,1.063-1.018,8.047-3.1,16.141-10.405,20.674-17.712a2.946,2.946,0,0,0,.6-1.342c0-.694-.787-.785-1.479-.785h-9.437c-1.99,0-3.976.091-5.919.091-1.247,0-1.157-.832-1.157-2.636,0-1.664-.09-2.5,1.064-2.5,1.99,0,4.022.138,6.012.138Zm12.3,0c0,.694-1.615,2.127-2.216,2.127-.279,0-.557-.415-1.018-.923-.928-1.111-1.944-2.174-2.961-3.192-.184-.186-.418-.37-.418-.648,0-.508,1.712-1.9,2.266-1.9C4519.459,322.845,4523.343,326.776,4523.343,327.376Zm4.581-3.144c0,.646-1.572,2.079-2.22,2.079-.229,0-.464-.277-.6-.461-1.02-1.249-2.175-2.45-3.333-3.609-.182-.184-.415-.415-.415-.646,0-.555,1.713-1.943,2.22-1.943C4524.038,319.653,4527.923,323.584,4527.923,324.232Z" transform="translate(303.284 0)" fill="#674646"/>
      <path id="パス_14150" data-name="パス 14150" d="M4526.976,352.84a3.406,3.406,0,0,1-3.6,3.561,3,3,0,0,1-3.191-3.054,3.459,3.459,0,0,1,3.561-3.7A3.1,3.1,0,0,1,4526.976,352.84Zm-4.16-6.8c-1.157,0-1.388-.232-1.433-1.387l-.325-11.7c-.092-2.775-.418-8.973-.418-9.9,0-.787.275-.97,1.3-.97h3.236c1.019,0,1.295.184,1.295.97,0,.925-.323,7.123-.417,10.174l-.276,11.423c-.046,1.156-.275,1.387-1.431,1.387Z" transform="translate(334.374 2.376)" fill="#674646"/>
      <path id="パス_14151" data-name="パス 14151" d="M4205.023,374.252c0,.925.371,1.3,1.293,1.3h1.758a.263.263,0,0,0,.281-.233c0-.091-.095-.138-.188-.184-.417-.186-1.295-.51-1.295-1.063a3.717,3.717,0,0,1,.741-1.387,31.464,31.464,0,0,0,2.82-5.225c.095-.279.183-.51.507-.51a22.552,22.552,0,0,1,2.546.787c.187.046.37.139.508.184.831.279,1.3.462,1.3.832,0,.464-.788.51-.833.51-.325.045-.507.37-1.019,1.387-.416.787-1.016,2.036-2.124,3.884a.726.726,0,0,0-.142.417c0,.417.325.555.694.6h.14c1.848,0,3.651-.095,5.5-.095,1.015,0,1.015.464,1.015,1.9,0,1.48,0,1.943-1.015,1.943-1.851,0-3.654-.093-5.5-.093h-27.842c-1.854,0-3.653.093-5.5.093-1.018,0-.972-.555-.972-1.9,0-1.433-.045-1.943.972-1.943,1.85,0,3.65.095,5.5.095h.37c.326-.047.512-.14.512-.464a.667.667,0,0,0-.095-.324,34.543,34.543,0,0,0-2.64-5.085,1.748,1.748,0,0,1-.319-.789c0-.877,2.587-1.757,3.236-1.757.417,0,.6.326.834.648.6.97,1.247,2.129,1.757,3.144a10.353,10.353,0,0,1,1.153,2.913c0,.648-1.108,1.111-1.664,1.342a.242.242,0,0,0-.092.186c0,.138.046.138.186.186h2.452c.926,0,1.294-.371,1.294-1.3v-6.2c0-.925-.368-1.295-1.294-1.295h-3.792c-1.8,0-3.653.093-5.507.093-1.014,0-1.014-.462-1.014-1.9,0-1.528,0-1.943,1.014-1.943,1.854,0,3.7.093,5.507.093h2.126c.417-.047.784-.186.784-.648a.65.65,0,0,0-.137-.417,27.661,27.661,0,0,0-1.711-2.773,1.358,1.358,0,0,1-.322-.741c0-.786,2.682-1.666,3.376-1.666.923,0,1.662,1.389,2.125,2.128a10.619,10.619,0,0,1,1.344,2.591c0,.553-.648.877-1.111,1.063a.374.374,0,0,0-.139.229c0,.093.089.186.275.233h8.372a1.771,1.771,0,0,0,1.849-1.018,31.9,31.9,0,0,0,2.128-4.393c.14-.279.231-.648.557-.648.276,0,5.132,1.573,5.132,2.267,0,.369-.509.462-.786.462a.83.83,0,0,0-.742.417c-.184.229-.739,1.292-1.111,1.9a.744.744,0,0,0-.136.415c0,.417.371.555.739.6h1.618c1.85,0,3.655-.093,5.506-.093,1.016,0,1.016.462,1.016,1.943,0,1.433-.047,1.9-1.016,1.9-1.851,0-3.656-.093-5.506-.093h-3.979c-.922,0-1.293.37-1.293,1.295ZM4190.6,396.542c-.557,0-.832.231-.832.786,0,1.526-.326,1.48-2.405,1.48-1.711,0-2.31.045-2.31-1.156,0-1.018.09-2.081.09-3.1v-7.676c0-1.065-.046-2.083-.046-3.146,0-1.34.372-1.988,1.757-1.988,1.247,0,2.454.046,3.653.046h14.938c1.247,0,2.453-.046,3.655-.046,1.386,0,1.8.648,1.8,1.988,0,1.063-.047,2.081-.047,3.146v7.769c0,1.018.047,2.034.047,3.1,0,1.247-.6,1.156-2.358,1.156-1.666,0-2.312.091-2.312-1.111v-.231c0-.694-.37-1.018-1.063-1.018Zm14.8-8.925a.84.84,0,0,0,.879-.925v-.463a.805.805,0,0,0-.879-.879h-14.846a.827.827,0,0,0-.881.879v.463a.89.89,0,0,0,.881.925Zm-14.613,3.1a1.071,1.071,0,0,0-1.114,1.111v.138a1.035,1.035,0,0,0,1.114,1.063h14.427a1,1,0,0,0,1.064-1.063v-.138a1.033,1.033,0,0,0-1.064-1.111Zm6.241-23.957a1.227,1.227,0,0,0-1.249,1.295v6.2a1.229,1.229,0,0,0,1.249,1.3h2.13a1.325,1.325,0,0,0,1.293-1.3v-6.2a1.324,1.324,0,0,0-1.293-1.295Z" transform="translate(0 36.327)" fill="#674646"/>
      <path id="パス_14152" data-name="パス 14152" d="M4209.577,374.9c0,.925.372,1.294,1.295,1.294h2.682c1.525,0,3.052-.093,4.622-.093,1.022,0,.976.508.976,2.174,0,1.619.046,2.174-.976,2.174-1.57,0-3.1-.093-4.622-.093h-2.682c-.923,0-1.295.369-1.295,1.249v2.5c0,.6.277,1.158.973,1.158.091,0,.184-.047.275-.047,2.637-.37,8.65-1.48,8.878-1.48.974,0,.928,1.435.928,2.129,0,1.294-.186,1.619-1.156,1.85-2.87.646-5.784,1.156-8.7,1.571-.926.231-1.2.6-1.2,1.48v1.526c0,1.759.093,3.561.093,5.32,0,1.154-.739,1.063-2.312,1.063-1.663,0-2.407.091-2.407-1.063,0-1.759.093-3.561.093-5.32v-1.016c-.045-.464-.093-1.063-.647-1.063a1.109,1.109,0,0,0-.831.554c-.141.186-.278.417-.509.417-.6,0-.7-.463-1.065-1.9-.092-.369-.23-.832-.37-1.34a5.425,5.425,0,0,1-.274-1.156c0-.6.6-.648,1.572-.694a6.266,6.266,0,0,0,.922-.048,1.232,1.232,0,0,0,1.2-1.433V366.993c0-1.387-.045-2.82-.045-4.208,0-2.405,1.109-2.5,3.281-2.913a33.752,33.752,0,0,0,8.463-2.545,1.865,1.865,0,0,1,.649-.23c.554,0,1.3,1.109,1.62,1.526a18.566,18.566,0,0,1,1.619,2.635.606.606,0,0,1-.556.6,2,2,0,0,1-.556-.138,1.7,1.7,0,0,0-.694-.186,4.78,4.78,0,0,0-1.341.324,41.3,41.3,0,0,1-6.242,1.664c-1.851.279-1.711.741-1.665,3.053,0,.925.372,1.294,1.295,1.294h2.682c1.574,0,3.1-.093,4.672-.093.972,0,.972.462.972,2.081,0,1.664,0,2.081-1.022,2.081-1.57,0-3.1-.093-4.622-.093h-2.682c-.923,0-1.295.37-1.295,1.3Zm20.949,18.36a1.646,1.646,0,0,0-.925.37,38.058,38.058,0,0,1-7.122,3.931,13.078,13.078,0,0,1-2.82,1.018c-1.157,0-2.452-2.358-2.452-3.285,0-.739.88-.925,2.035-1.34a28.706,28.706,0,0,0,7.264-3.561,1.075,1.075,0,0,0,.553-.88,1.44,1.44,0,0,0-.325-.832,26.011,26.011,0,0,1-3.24-6.243,1.3,1.3,0,0,0-1.338-1.063h-.461c-1.018,0-1.018-.555-1.018-2.081,0-1.712,0-2.174,1.062-2.174,1.433,0,3.054.138,4.578.138h7.4c1.248,0,2.635-.093,3.516-.093,1.708,0,2.91,2.267,2.91,3.054a8.168,8.168,0,0,1-1.017,2.589,28.9,28.9,0,0,1-4.438,6.336,1.154,1.154,0,0,0-.372.832,1.021,1.021,0,0,0,.468.832,24.416,24.416,0,0,0,6.841,3.47c.508.184,1.433.37,1.433,1.063,0,.739-1.25,3.376-2.406,3.376a8.522,8.522,0,0,1-1.988-.694,29.916,29.916,0,0,1-7.167-4.348A1.85,1.85,0,0,0,4230.526,393.261Zm-1.433-30.476c-.879,0-1.3.324-1.342,1.2a19.426,19.426,0,0,1-1.847,8.231c-.418.88-2.128,3.7-3.143,3.7-.884,0-3.059-1.664-3.059-2.5,0-.369.466-.832.694-1.111a12.055,12.055,0,0,0,3.1-7.953c.052-.972.1-1.8.1-2.5,0-2.221,0-3.1,1.9-3.1.6,0,1.2.046,1.808.046h4.854c.6,0,1.2-.046,1.8-.046,1.709,0,1.941.694,1.941,2.219,0,.787-.046,1.573-.046,2.312v4.672c0,1.295,0,2.081.971,2.081h1.112c.83,0,.97-.648,1.295-3.654.045-.646.275-.879.921-.879a7.1,7.1,0,0,1,1.99.324c.784.231,1.019.508,1.019,1.156a18.755,18.755,0,0,1-.833,4.765c-.647,2.081-1.569,2.589-3.608,2.589h-3.837c-3.006,0-3.425-1.619-3.425-3.838,0-.787.05-1.666.05-2.543V364.08c0-.925-.371-1.295-1.249-1.295Zm1.618,23.631a.914.914,0,0,0,.788-.415c.6-.648,2.869-3.607,2.869-4.348,0-.322-.417-.369-1.205-.369h-4.484c-.509.047-.927.186-.927.741a1.314,1.314,0,0,0,.093.415,20.162,20.162,0,0,0,2.034,3.468A1.016,1.016,0,0,0,4230.71,386.416Z" transform="translate(23.094 36.557)" fill="#674646"/>
      <path id="パス_14153" data-name="パス 14153" d="M4239.705,359.732a1.344,1.344,0,0,0-.88.972,72.776,72.776,0,0,1-4.066,8.832.649.649,0,0,0-.094.277c0,.324.23.464.507.51.371.045,1.065.093,1.065.6,0,.277-.234.37-.556.646-.509.372-.553,1.435-.553,2.868v16.557c0,2.034.138,4.069.138,6.15,0,1.433-.463,1.48-2.453,1.48-1.894,0-2.452-.047-2.452-1.435,0-2.081.094-4.115.094-6.2V377.629c0-.186-.094-.463-.37-.463-.139,0-.231.093-.369.184-.7.925-1.668,2.36-2.407,2.36-.879,0-2.593-2.682-2.593-3.514a2.557,2.557,0,0,1,.745-1.387,47,47,0,0,0,9.017-16.789c.137-.415.324-.97.833-.97.417,0,3.328,1.018,4.022,1.247.371.095.971.324.971.834C4240.305,359.408,4239.935,359.639,4239.705,359.732Zm25.387,38.939a11.275,11.275,0,0,1-1.663-.277,47.911,47.911,0,0,1-12.166-4.625,1.69,1.69,0,0,0-.827-.231,1.578,1.578,0,0,0-1.063.463,21.312,21.312,0,0,1-8.6,4.3,5.061,5.061,0,0,1-1.2.231c-1.249,0-2.727-2.219-2.727-3.375,0-.648.414-.832.968-.925a19,19,0,0,0,7.68-2.96,1.18,1.18,0,0,0,.462-.787,1.112,1.112,0,0,0-.418-.832c-.645-.6-3.465-3.561-3.465-4.3,0-.555,2.175-2.358,3-2.358.417,0,.742.368,1.386,1.154.42.463.929,1.065,1.621,1.8a.909.909,0,0,0,.647.277c.37,0,.553-.277.649-.6a14.4,14.4,0,0,0,.46-2.451v-.184c0-.741-.557-1.02-1.2-1.02h-3.93c-.418,0-.695.372-1.021.741-.277.324-.552.37-2.08.37-1.8,0-2.218-.046-2.218-1.111,0-1.293.091-2.634.091-3.976v-3.328c0-1.02-.091-2.083-.091-3.146,0-1.664.828-2.081,2.356-2.081,1.2,0,2.4.093,3.56.093h3.424c.926,0,1.3-.37,1.3-1.295v-.694c0-.925-.37-1.3-1.3-1.3h-3.793c-1.757,0-3.469.093-5.226.093-1.109,0-1.109-.553-1.109-2.174,0-1.664,0-2.174,1.109-2.174,1.757,0,3.469.14,5.226.14h3.793c.926,0,1.2-.37,1.3-1.249,0-.878-.142-2.868-.142-3.006,0-.648.372-.787.926-.787.646,0,3.607.231,4.3.324.322.045.785.186.785.6,0,.372-.321.51-.6.694-.6.372-.649.832-.649,1.526v.6c0,.925.37,1.295,1.293,1.295h4.581c1.708,0,3.466-.14,5.179-.14,1.156,0,1.109.555,1.109,2.174,0,1.666.046,2.174-1.109,2.174-1.759,0-3.47-.093-5.179-.093h-4.581c-.924,0-1.293.372-1.293,1.3v.694c0,.925.37,1.295,1.293,1.295h3.607c1.159,0,2.361-.093,3.516-.093,1.526,0,2.405.417,2.405,2.081,0,1.063-.048,2.127-.048,3.146V378c0,1.342.095,2.684.095,3.976,0,1.065-.462,1.111-2.268,1.111-1.619,0-1.9-.046-2.17-.37-.279-.277-.6-.741-1.022-.741H4255.8a1.156,1.156,0,0,0-1.339,1.2,17.671,17.671,0,0,1-1.109,5.318,1.5,1.5,0,0,0-.14.648,1.107,1.107,0,0,0,.7,1.018,43.446,43.446,0,0,0,12.209,3.976c.6.093,1.108.231,1.108.97C4267.222,395.9,4266.621,398.671,4265.092,398.671Zm-15.073-24.048c0-.925-.37-1.295-1.3-1.295h-3.654c-.925,0-1.295.37-1.295,1.295v2.219c0,.88.37,1.295,1.295,1.295h3.654c.926,0,1.3-.415,1.3-1.295Zm10.958,0c0-.925-.368-1.295-1.294-1.295h-3.748c-.924,0-1.293.37-1.293,1.295v2.219c0,.88.37,1.295,1.293,1.295h3.748c.926,0,1.294-.415,1.294-1.295Z" transform="translate(45.914 36.511)" fill="#674646"/>
      <path id="パス_14154" data-name="パス 14154" d="M4257.2,362.4c.368.093,1.017.184,1.017.648,0,.277-.187.368-.462.6-.649.51-.694,1.435-.835,2.221a34.425,34.425,0,0,0-.369,4.9,26.472,26.472,0,0,0,1.479,9.666c.554,1.294,2.083,4.024,3.7,4.024,1.294,0,2.637-2.036,3.192-3.053.276-.463.645-1.156,1.245-1.156.973,0,3.332,1.9,3.332,2.729,0,.879-2.082,3.282-2.73,4.024-1.339,1.526-2.775,2.913-4.947,2.913-3.422,0-6.1-3.1-7.63-5.919-2.312-4.348-2.682-10.174-2.682-15.077,0-.739.137-6.613.23-7.03a.575.575,0,0,1,.648-.508C4252.99,361.379,4256.412,362.259,4257.2,362.4Zm18.82-.927c1.019,0,4.9,2.915,7.123,7.17a25.258,25.258,0,0,1,2.729,9.619c0,.878-.462,1.111-1.249,1.342a9.757,9.757,0,0,1-2.59.417c-1.483,0-1.432-.648-1.526-1.759-.554-5.411-2.451-9.8-6.845-13.18a.77.77,0,0,1-.415-.694C4273.246,363.506,4275.1,361.47,4276.019,361.47Z" transform="translate(72.069 40.737)" fill="#674646"/>
      <path id="パス_14155" data-name="パス 14155" d="M4291.85,359.448c.372.093,1.157.231,1.157.739,0,.279-.187.417-.372.556-.878.646-.969,1.387-1.247,3.006-.092.555-.184,1.2-.326,1.988a2.009,2.009,0,0,0-.091.51.935.935,0,0,0,1.019.97c.186,0,.37-.046.554-.046,1.9,0,3.607,0,5.273,1.063,2.31,1.48,2.821,4.162,2.821,6.706,0,4.255-.741,10.5-2.777,14.2a9.448,9.448,0,0,1-8.739,4.994,1.953,1.953,0,0,1-2.125-1.109,9.961,9.961,0,0,1-.786-3.285c0-.462.137-.785.6-.785s1.251.138,2.174.138c2.5,0,3.653-.555,4.814-2.822,1.339-2.682,2.034-7.492,2.034-10.451,0-2.312-.142-4.209-2.915-4.209-2.637,0-3.1.372-3.425,1.664a54.578,54.578,0,0,1-5.872,13.737,53.327,53.327,0,0,1-4.624,6.658,1.271,1.271,0,0,1-.831.462c-.788,0-3.749-1.757-3.749-2.82a1.738,1.738,0,0,1,.646-1.065,37.906,37.906,0,0,0,8.234-12.9,25.534,25.534,0,0,0,1.154-3.468.558.558,0,0,0-.6-.6,37.509,37.509,0,0,0-5.27,1.621,3.823,3.823,0,0,1-.975.277c-1.154,0-1.94-4.532-1.94-4.763,0-.694.786-.694,1.387-.739a72.9,72.9,0,0,0,7.674-1.435c.929-.186,1.389-.417,1.53-1.387a42.657,42.657,0,0,0,.463-5.966c0-.508-.045-1.018-.045-1.571,0-.371,0-.927.508-.927C4287.643,358.383,4291.156,359.262,4291.85,359.448Zm20.118,14.984c0,1.016-2.915,2.727-3.837,2.727-.6,0-.833-.6-1.062-1.063-1.853-3.976-3.1-6.613-6.2-9.9a1.2,1.2,0,0,1-.416-.785c0-.834,2.681-2.453,3.516-2.453C4305.677,362.962,4311.967,373.274,4311.967,374.433Z" transform="translate(94.432 37.812)" fill="#674646"/>
      <path id="パス_14156" data-name="パス 14156" d="M4308.878,367.74c.322.138.831.277.831.648a.6.6,0,0,1-.415.508c-.741.463-.788.88-.973,1.8-.37,2.126-.646,4.3-1.109,6.429a6.776,6.776,0,0,0-.141.971c0,.276.141.555.462.555a1.021,1.021,0,0,0,.6-.279c3.425-2.405,6.2-4.253,10.592-4.253,5.688,0,10.082,3.791,10.082,9.619,0,6.567-4.9,9.342-10.5,11.006A30.879,30.879,0,0,1,4312.3,396c-1.021,0-1.3-.415-1.714-1.294a9.656,9.656,0,0,1-.785-3.008c0-.737.557-.785,1.156-.832a30.642,30.642,0,0,0,6.149-.925c3.285-.832,6.708-2.265,6.708-6.2,0-3.192-2.59-4.9-5.547-4.9-4.858,0-9.762,4.071-12.677,7.725-.367.461-.735.971-1.387.971-.416,0-3.514-.462-3.514-1.8a7.057,7.057,0,0,1,.462-1.619c.417-1.48.786-3.006,1.063-4.532a74.271,74.271,0,0,0,1.11-10.083c0-.37.046-.692.046-1.016,0-1.342.046-2.036.789-2.036A33,33,0,0,1,4308.878,367.74Zm.831-9.988c.692,0,4.438,2.405,5.272,2.913.692.417,3.375,1.9,3.375,2.682,0,.832-1.9,3.654-2.866,3.654-.509,0-1.109-.648-1.481-.925a37.6,37.6,0,0,0-5.828-3.931c-.463-.279-1.063-.51-1.063-1.018C4307.117,360.527,4308.6,357.752,4309.709,357.752Z" transform="translate(120.085 37.196)" fill="#674646"/>
      <path id="パス_14157" data-name="パス 14157" d="M4351.761,373.516c1.941,0,3.883-.138,5.825-.138,1.343,0,1.434.231,1.434,2.451,0,1.9-.091,2.543-1.295,2.543-1.99,0-3.977-.093-5.964-.093H4345.7c-1.292,0-1.292,1.156-1.477,2.128a23.323,23.323,0,0,1-3.053,8.37c-2.219,3.561-5.828,5.919-9.619,7.538a8.091,8.091,0,0,1-2.172.741c-1.021,0-3.517-3.053-3.517-3.793,0-.555.694-.648,1.25-.832a22.187,22.187,0,0,0,5.826-2.405,13.85,13.85,0,0,0,5.829-8.417c.091-.415.371-1.9.371-2.219a1.059,1.059,0,0,0-1.066-1.111h-9.39c-1.939,0-4.022.138-5.824.138-1.251,0-1.2-.877-1.2-2.637,0-1.709.047-2.4,1.156-2.4,1.619,0,3.838.138,5.871.138Zm-7.122-12.117c2.031,0,4.253-.138,5.827-.138,1.386,0,1.295.925,1.295,2.775,0,1.573,0,2.219-1.252,2.219-1.941,0-3.927-.093-5.87-.093h-9.851c-1.945,0-3.886.093-5.875.093-1.3,0-1.2-.741-1.2-2.405s-.094-2.589,1.293-2.589c1.483,0,3.7.138,5.784.138Zm15.121,4.67c0,.694-1.711,2.036-2.311,2.036-.233,0-.555-.417-.971-.925-.88-1.2-1.849-2.312-2.82-3.423a.9.9,0,0,1-.416-.6c0-.508,1.8-1.8,2.309-1.8S4359.76,365.468,4359.76,366.069Zm1.943-6.613c.371.417,1.849,1.988,1.849,2.453,0,.646-1.664,2.034-2.265,2.034-.322,0-.646-.508-1.158-1.156-.741-.972-1.9-2.22-2.727-3.1a.941.941,0,0,1-.371-.6c0-.555,1.757-1.85,2.266-1.85C4359.714,357.237,4361.334,359.041,4361.7,359.456Z" transform="translate(140.552 36.693)" fill="#674646"/>
      <path id="パス_14158" data-name="パス 14158" d="M4374.43,366.127c2.126,0,5.133-.138,5.735-.138,1.248,0,1.3.369,1.3,2.913,0,1.48-.048,2.36-1.251,2.36-1.941,0-3.881-.093-5.78-.093h-21.274c-1.893,0-3.837.093-5.777.093-1.205,0-1.25-.88-1.25-2.312,0-2.591.092-2.961,1.3-2.961.6,0,3.792.138,5.731.138Z" transform="translate(164.445 45.238)" fill="#674646"/>
      <path id="パス_14159" data-name="パス 14159" d="M4380.341,371.142c.923,0,5.549,3.652,6.474,4.439.646.555,3.235,2.543,3.235,3.33s-2.173,3.192-3.1,3.192a1.676,1.676,0,0,1-1.017-.6,68.37,68.37,0,0,0-6.706-5.411.814.814,0,0,0-.461-.186c-.419,0-.558.37-.558.739v12.627c0,1.85.094,3.652.094,5.5,0,2.128-.045,2.405-2.865,2.405-1.854,0-2.639-.045-2.639-1.571,0-2.081.142-4.164.142-6.243V363c0-1.2-.1-2.45-.142-3.607,0-.231-.046-.648-.046-.832,0-.463.138-.694.6-.694.279,0,1.25.138,1.574.184,2.081.279,3.978.462,3.978,1.111a1.348,1.348,0,0,1-.232.6,3.732,3.732,0,0,0-.509,2.453c0,.694.045,1.571.045,2.727v6.937c0,.37.231.462.373.462a.5.5,0,0,0,.415-.186C4379.321,371.788,4379.831,371.142,4380.341,371.142Z" transform="translate(190.441 37.31)" fill="#674646"/>
      <path id="パス_14160" data-name="パス 14160" d="M4405.264,358.565c1.2.138,1.847.231,1.847.739,0,.879-.785.093-.877,3.84,0,.646.138,1.34.969,1.34.187,0,1.991-.277,2.314-.322a46.346,46.346,0,0,0,5.041-1.065,12.138,12.138,0,0,1,1.758-.37c1.017,0,1.156,3.006,1.156,3.792,0,.925-.418,1.018-1.3,1.2-2.4.508-5.271.925-7.722,1.2-.973.138-2.082.093-2.082,1.387a15.059,15.059,0,0,0,.23,2.451c.094.279.183.739.741.739a39.135,39.135,0,0,0,5.92-1.109,2.969,2.969,0,0,1,.88-.184c.645,0,.783,1.016.783,2.773,0,1.526-.047,1.99-.879,2.174a40.645,40.645,0,0,1-4.761.787c-1.758.186-2.685.186-2.685,1.48,0,4.81.183,4.439,2.175,5.087,1.523.508,7.631,3.1,7.631,4.763,0,1.018-1.529,3.376-2.636,3.376a2.53,2.53,0,0,1-1.434-.739c-.835-.648-3.885-2.82-4.81-2.82-.743,0-.832.692-.926,1.016-.969,3.978-4.622,5.134-8.368,5.134-3.7,0-7.727-1.712-7.727-6.012,0-4.672,5.042-6.152,8.881-6.152.555,0,1.619.095,1.9.095.787,0,.787-.834.787-1.3,0-1.48.091-3.192-1.063-3.192-.973,0-3.561.186-5.551.186-1.894,0-2.775.047-3.144-.787a9.526,9.526,0,0,1-.6-3.237c0-.553.138-.97.786-.97.554,0,3.145.231,4.9.231h2.082c1.711,0,2.357-.138,2.357-1.156,0-1.342-.046-3.237-1.248-3.237-1.621,0-5.318.231-7.815.231h-1.386c-1.251,0-2.4-.045-2.684-.417a8.226,8.226,0,0,1-.51-3.376c0-.648.048-1.294.835-1.294.969,0,4.856.37,7.12.37,4.071,0,5.228.091,5.228-1.156,0-.739-.279-3.84-.418-4.625a4.157,4.157,0,0,1-.092-.741c0-.462.276-.553.694-.553C4402.256,358.15,4404.43,358.472,4405.264,358.565Zm-10.313,30.708c0,1.573,2.079,1.85,3.284,1.85,2.124,0,3.928-.6,3.928-3.1,0-.878-1.108-.878-2.171-.878C4398.559,387.146,4394.951,387.285,4394.951,389.273Z" transform="translate(205.516 37.585)" fill="#674646"/>
      <path id="パス_14161" data-name="パス 14161" d="M4413.079,363.023c6.753-.415,13.5-1.109,20.212-1.9,3.514-.417,7.026-.88,10.494-1.433a2.613,2.613,0,0,1,.6-.047c.7,0,.786.6.879,1.156a21,21,0,0,1,.416,3.378c0,1.016-.971.923-2.082.97a22.89,22.89,0,0,0-7.678.97,14.048,14.048,0,0,0-7.859,6.891,17.275,17.275,0,0,0-2.223,8.14c0,5.364,3.425,6.658,8.142,6.658.785,0,1.8-.046,2.31-.046.694,0,1.064.046,1.064.787a13.133,13.133,0,0,1-.691,3.79c-.324.694-.7.787-1.48.787-7.861,0-14.613-2.5-14.613-11.516a20.538,20.538,0,0,1,5.085-13.273c.509-.553.785-.877.785-1.109,0-.417-.368-.555-.692-.555s-2.453.37-2.916.417c-3.1.462-7.258,1.109-10.22,1.9a3.579,3.579,0,0,1-.692.093c-.646,0-.877-1.018-1.018-1.526a20.979,20.979,0,0,1-.506-3.33C4410.4,363.023,4411.046,363.161,4413.079,363.023Zm30.706,11.285c0,.694-1.847,1.943-2.355,1.943-.322,0-.463-.324-.646-.555-.929-1.34-1.942-2.636-2.962-3.885-.14-.138-.416-.415-.416-.646,0-.555,1.85-1.711,2.359-1.711S4443.785,373.754,4443.785,374.307Zm5.6-2.543c0,.648-1.8,1.943-2.356,1.943-.326,0-.507-.37-.693-.6a39.226,39.226,0,0,0-3.008-3.838,1.09,1.09,0,0,1-.325-.6c0-.555,1.807-1.757,2.359-1.757C4445.822,366.908,4449.383,371.208,4449.383,371.764Z" transform="translate(227.195 39.046)" fill="#674646"/>
      <path id="パス_14162" data-name="パス 14162" d="M4439.39,370.3c0-.6-.23-.879-.875-.879h-.509a.766.766,0,0,0-.881.879v12.069c0,1.9.093,3.793.093,5.688,0,1.2-.23,1.342-1.756,1.342-1.341,0-1.712-.093-1.712-1.249,0-1.9.047-3.838.047-5.781V370.948c0-1.2-.047-2.405-.047-3.607,0-1.433.276-2.219,1.849-2.219.742,0,1.435.045,2.174.045h.233c.922,0,1.292-.37,1.292-1.294v-2.081a22.589,22.589,0,0,0-.183-3.514v-.417c0-.51.275-.694.738-.694a7.669,7.669,0,0,1,.971.091c.508.047.973.047,1.385.093,1.438.093,2.27.14,2.27.6,0,.324-.322.462-.646.694-.462.324-.51.97-.51,2.358v2.868c0,.925.369,1.294,1.249,1.294h.279c.739,0,1.436-.045,2.127-.045,1.477,0,1.806.739,1.806,2.081,0,1.247-.049,2.5-.049,3.7v11.145c0,1.063.091,2.128.091,3.192,0,3.051-.646,4.208-4.392,4.208a2.108,2.108,0,0,1-.742-.138,1.87,1.87,0,0,1-.229-.047.313.313,0,0,0-.326.279v1.018c0,2.219.142,4.439.142,6.66,0,1.294-.372,1.433-1.989,1.433-1.666,0-1.991-.138-1.991-1.433,0-2.221.092-4.441.092-6.66Zm3.746,14.105c.048.46.326.6.741.646a5.2,5.2,0,0,0,.832.047c.787,0,.741-.741.741-1.943V370.3a.764.764,0,0,0-.878-.879h-.555a.766.766,0,0,0-.88.879Zm12.579-21.831c-1.664,0-3.329.093-5.037.093-1.066,0-1.02-.6-1.02-1.988,0-1.433-.046-2.034,1.02-2.034,1.708,0,3.373.138,5.037.138h11.656c1.711,0,3.375-.138,5.042-.138,1.11,0,1.061.6,1.061,2.034,0,1.48,0,1.988-1.061,1.988-1.667,0-3.332-.093-5.042-.093Zm12.119,34.686c0-.741-.324-1.063-1.064-1.063h-10.5c-.741,0-1.018.277-1.063,1.018,0,.231.046.462.046.694,0,.877-.555.832-2.219.832-1.712,0-2.126,0-2.126-.88,0-.925.091-2.682.091-3.7V383.8c0-1.016-.046-2.034-.046-3.051,0-1.433.879-1.712,2.125-1.712.973,0,1.9.048,2.825.048h11.237c.923,0,1.9-.048,2.821-.048,1.2,0,2.173.231,2.173,1.666,0,1.063-.092,2.081-.092,3.1v10.684c0,1.111.092,2.267.092,3.376,0,.925-.417.88-2.173.88-1.525,0-2.128.045-2.128-.832Zm2.032-24.6c0,.786.051,1.342.051,1.988,0,1.294-.6,1.757-1.854,1.757-.923,0-1.8-.045-2.681-.045h-7.68c-.876,0-1.8.045-2.682.045-1.248,0-1.849-.463-1.849-1.757,0-.646.047-1.249.047-1.988v-3.745c0-.787-.047-1.342-.047-1.943,0-1.342.556-1.8,1.849-1.8.882,0,1.805.045,2.682.045h7.68c.879,0,1.758-.045,2.635-.045,1.251,0,1.9.415,1.9,1.757,0,.694-.051,1.294-.051,1.99Zm-10.357,11.33a1.144,1.144,0,0,0-1.249-1.249h-1.8c-.834,0-1.2.462-1.3,1.249v.508a1.3,1.3,0,0,0,1.3,1.3h1.8a1.228,1.228,0,0,0,1.249-1.3Zm0,6.429a1.144,1.144,0,0,0-1.249-1.249h-1.8c-.834,0-1.2.462-1.3,1.249v.694a1.3,1.3,0,0,0,1.3,1.295h1.8a1.226,1.226,0,0,0,1.249-1.295Zm-2.128-19.008a1.292,1.292,0,0,0,1.3,1.294h5.781a1.292,1.292,0,0,0,1.295-1.294v-1.247a1.294,1.294,0,0,0-1.295-1.3h-5.781a1.294,1.294,0,0,0-1.3,1.3Zm9.252,14.384a1.324,1.324,0,0,0,1.292-1.3v-.508a1.225,1.225,0,0,0-1.292-1.249h-1.852a1.16,1.16,0,0,0-1.3,1.249v.508c0,.787.465,1.2,1.3,1.3Zm-3.15,5.318c0,.787.465,1.2,1.3,1.295h1.852a1.322,1.322,0,0,0,1.292-1.295v-.694a1.225,1.225,0,0,0-1.292-1.249h-1.852a1.16,1.16,0,0,0-1.3,1.249Z" transform="translate(249.992 36.625)" fill="#674646"/>
      <path id="パス_14163" data-name="パス 14163" d="M4490.783,362.852c1.943,0,3.84-.138,5.779-.138,1.206,0,1.158.51,1.158,2.267s.048,2.265-1.158,2.265c-1.939,0-3.835-.091-5.779-.091h-23.862c-.925,0-1.3.37-1.3,1.294v7.909c0,6.289-.877,13.225-3.419,19.052-.926,2.128-1.386,2.913-2.221,2.913-.926,0-3.469-1.109-3.469-2.219a.969.969,0,0,1,.184-.508c3.333-6.057,4.209-13.225,4.209-19.978v-6.382c0-1.435-.089-2.867-.089-4.3,0-1.848,1.107-2.174,2.726-2.174,1.571,0,3.144.093,4.763.093h6.2c.924,0,1.3-.415,1.3-1.295a22.724,22.724,0,0,0-.185-3.514c0-.093-.048-.277-.048-.417,0-.508.418-.646.879-.646.74,0,3.513.277,4.394.369.37.046,1.108.091,1.108.646,0,.279-.275.417-.554.694-.6.417-.6,1.156-.554,2.868a1.13,1.13,0,0,0,1.293,1.295Zm-6.1,19.564a1.293,1.293,0,0,1-.28-.694c0-.925,2.915-2.267,3.469-2.267a1.159,1.159,0,0,1,.926.6c1.385,1.9,3.42,5.178,4.623,7.261.695,1.2,4.441,7.814,4.441,8.739,0,.879-2.729,2.174-3.562,2.174-.554,0-.785-.463-1.43-1.85-.232-.462-.515-1.065-.882-1.8a1.478,1.478,0,0,0-1.388-.88,1,1,0,0,0-.37.048c-7.354,1.063-14.705,2.081-22.058,2.775a.787.787,0,0,0-.6.462c-.183.277-.324.555-.695.555-.6,0-.646-.555-.831-1.295-.14-.51-.786-3.1-.786-3.516,0-.646.461-.646,1.291-.694.326-.046.651-.046,1.066-.093s.786-.046,1.2-.091c.925-.138,1.2-.462,1.572-1.3,1.76-5.225,5.321-15.814,6.384-20.9.091-.508.186-.879.786-.879a31.122,31.122,0,0,1,4.3,1.249c.323.093.969.326.969.693s-.369.465-.785.6a1.11,1.11,0,0,0-.646.646c-1.987,6.1-3.978,12.21-6.289,18.176a1.125,1.125,0,0,0-.047.37c0,.324.234.693.878.648,4.023-.417,8.05-.832,12.075-1.387a.732.732,0,0,0,.738-.741.885.885,0,0,0-.141-.463C4487.359,386.484,4486.02,384.451,4484.681,382.415Z" transform="translate(272.218 36.443)" fill="#674646"/>
      <path id="パス_14164" data-name="パス 14164" d="M4506.194,363.03c0,.462-.644.417-.968.417a2.053,2.053,0,0,0-1.249.555q-1.737,1.248-3.469,2.635c-2.591,2.128-5.226,4.255-7.63,6.567-.88.832-1.9,1.759-1.9,2.636,0,1.156,1.527,2.822,2.312,3.654,2.638,2.82,5.506,5.411,8.371,7.955.785.692,3.979,3.283,3.979,4.208,0,1.111-2.824,3.745-3.931,3.745-.51,0-1.159-.832-1.437-1.2-1.756-2.081-3.7-4.024-5.593-5.964-2.5-2.5-5.044-5-7.309-7.678-1.293-1.48-2.221-2.822-2.221-4.9a5.263,5.263,0,0,1,1.019-3.192,44.885,44.885,0,0,1,5.969-5.411,63.12,63.12,0,0,0,8.646-8.186c.185-.231.416-.555.693-.555.6,0,1.941,1.573,2.452,2.081C4504.347,360.811,4506.194,362.523,4506.194,363.03Z" transform="translate(300.176 37.744)" fill="#674646"/>
      <path id="パス_14165" data-name="パス 14165" d="M4519.065,359.732a1.333,1.333,0,0,0-.88.972,72.068,72.068,0,0,1-4.07,8.832.669.669,0,0,0-.093.277c0,.324.231.464.51.51.369.045,1.064.093,1.064.6,0,.277-.232.37-.555.646-.509.372-.556,1.435-.556,2.868v16.557c0,2.034.14,4.069.14,6.15,0,1.433-.463,1.48-2.45,1.48-1.9,0-2.453-.047-2.453-1.435,0-2.081.091-4.115.091-6.2V377.629c0-.186-.091-.463-.37-.463-.137,0-.23.093-.368.184-.7.925-1.667,2.36-2.407,2.36-.876,0-2.588-2.682-2.588-3.514a2.546,2.546,0,0,1,.739-1.387,46.889,46.889,0,0,0,9.016-16.789c.142-.415.326-.97.835-.97.415,0,3.327,1.018,4.021,1.247.374.095.97.324.97.834C4519.662,359.408,4519.294,359.639,4519.065,359.732Zm25.387,38.939a11.371,11.371,0,0,1-1.666-.277,47.877,47.877,0,0,1-12.16-4.625,1.718,1.718,0,0,0-.834-.231,1.577,1.577,0,0,0-1.062.463,21.3,21.3,0,0,1-8.6,4.3,5.008,5.008,0,0,1-1.2.231c-1.247,0-2.728-2.219-2.728-3.375,0-.648.414-.832.972-.925a19.013,19.013,0,0,0,7.676-2.96,1.174,1.174,0,0,0,.462-.787,1.128,1.128,0,0,0-.418-.832c-.646-.6-3.465-3.561-3.465-4.3,0-.555,2.172-2.358,3-2.358.418,0,.742.368,1.389,1.154.416.463.926,1.065,1.619,1.8a.91.91,0,0,0,.648.277c.369,0,.551-.277.647-.6a14.352,14.352,0,0,0,.46-2.451v-.184c0-.741-.557-1.02-1.2-1.02h-3.931c-.417,0-.695.372-1.019.741-.276.324-.552.37-2.08.37-1.805,0-2.22-.046-2.22-1.111,0-1.293.092-2.634.092-3.976v-3.328c0-1.02-.092-2.083-.092-3.146,0-1.664.832-2.081,2.358-2.081,1.2,0,2.407.093,3.56.093h3.425c.923,0,1.293-.37,1.293-1.295v-.694c0-.925-.37-1.3-1.293-1.3h-3.794c-1.758,0-3.468.093-5.224.093-1.109,0-1.109-.553-1.109-2.174,0-1.664,0-2.174,1.109-2.174,1.756,0,3.465.14,5.224.14h3.794c.923,0,1.2-.37,1.293-1.249,0-.878-.141-2.868-.141-3.006,0-.648.372-.787.927-.787.646,0,3.606.231,4.3.324.321.045.781.186.781.6,0,.372-.322.51-.6.694-.6.372-.65.832-.65,1.526v.6c0,.925.371,1.295,1.3,1.295h4.581c1.711,0,3.468-.14,5.177-.14,1.156,0,1.111.555,1.111,2.174,0,1.666.045,2.174-1.111,2.174-1.756,0-3.466-.093-5.177-.093H4535.3c-.925,0-1.3.372-1.3,1.3v.694c0,.925.371,1.295,1.3,1.295h3.608c1.157,0,2.358-.093,3.514-.093,1.526,0,2.4.417,2.4,2.081,0,1.063-.042,2.127-.042,3.146V378c0,1.342.092,2.684.092,3.976,0,1.065-.46,1.111-2.265,1.111-1.622,0-1.9-.046-2.175-.37-.278-.277-.6-.741-1.018-.741h-4.257a1.156,1.156,0,0,0-1.34,1.2,17.656,17.656,0,0,1-1.109,5.318,1.467,1.467,0,0,0-.138.648,1.105,1.105,0,0,0,.692,1.018,43.444,43.444,0,0,0,12.208,3.976c.6.093,1.11.231,1.11.97C4546.58,395.9,4545.98,398.671,4544.453,398.671Zm-15.076-24.048c0-.925-.37-1.295-1.293-1.295h-3.656c-.922,0-1.294.37-1.294,1.295v2.219c0,.88.372,1.295,1.294,1.295h3.656c.923,0,1.293-.415,1.293-1.295Zm10.961,0c0-.925-.372-1.295-1.295-1.295H4535.3c-.925,0-1.3.37-1.3,1.295v2.219c0,.88.371,1.295,1.3,1.295h3.747c.923,0,1.295-.415,1.295-1.295Z" transform="translate(318.657 36.511)" fill="#674646"/>
      <path id="パス_14166" data-name="パス 14166" d="M4554.244,386.657c-.094.739-.323,2.312-.323,3.006a1.33,1.33,0,0,0,1.522,1.526c2.223,0,4.994-1.619,6.847-2.775a3.652,3.652,0,0,1,1.3-.6c.646,0,.6,2.407.6,2.915,0,.832.045,2.312-.789,2.775a22.918,22.918,0,0,1-8.557,2.358c-3.144,0-5.686-2.081-5.686-5.318a23.827,23.827,0,0,1,.418-3.654,21,21,0,0,0,.276-2.913c0-1.063-.418-1.664-1.526-1.664a7.444,7.444,0,0,0-4.119,1.941c-2.31,1.99-6.752,7.864-8.786,10.5-.277.322-.83,1.2-1.295,1.2-.969,0-3.7-2.312-3.7-3.376,0-.555.738-1.2,1.107-1.573,5.273-5.225,10.039-10.913,14.987-16.417.416-.463,1.665-1.711,1.665-2.174a.378.378,0,0,0-.417-.37,28.791,28.791,0,0,0-2.82.739c-1.065.279-6.478,1.711-7.261,1.711-.646,0-.831-.37-1.249-1.063a3.28,3.28,0,0,0-.324-.555,6.987,6.987,0,0,1-1.063-2.589c0-.6.462-.694.97-.739a98.007,98.007,0,0,0,16.7-3.332,4.092,4.092,0,0,1,1.295-.322c1.107,0,3.236,3.237,3.236,3.931,0,.508-.6.878-1.018,1.156a58.782,58.782,0,0,0-6.429,6.243c-.228.231-.6.6-.6.925a.466.466,0,0,0,.465.462c.321,0,.6-.045.923-.045,1.252,0,4.025.785,4.025,4.623A22.33,22.33,0,0,1,4554.244,386.657Zm-3.884-26.131c.462.14.875.324.875.88,0,.231-.647,3.931-1.712,3.931-.324,0-2.911-.925-4.9-1.619-.876-.324-1.661-.6-1.99-.694-1.619-.51-2.633-.694-2.633-1.435a12.5,12.5,0,0,1,.692-2.358c.461-1.249.646-1.433,1.157-1.433C4542.22,357.8,4549.341,360.2,4550.36,360.526Z" transform="translate(344.377 37.242)" fill="#674646"/>
      <path id="パス_14167" data-name="パス 14167" d="M4580.05,363.176c0,.324-.509.6-1.019.972a44.885,44.885,0,0,0-6.706,6.2,1.381,1.381,0,0,0-.46.786c0,.372.368.6.785.6a2.741,2.741,0,0,0,.6-.091,8.862,8.862,0,0,1,1.9-.186,13.57,13.57,0,0,1,5.689,1.387,9.553,9.553,0,0,1,5.5,8.972c0,8.186-7.257,12.439-14.705,12.439-3.838,0-9.295-1.571-9.295-6.289a5.808,5.808,0,0,1,5.919-5.6,7.546,7.546,0,0,1,6.151,3.285,4.606,4.606,0,0,1,.833,2.961c.045.322.184.6.553.6,1.2,0,5.6-2.453,5.6-7.123,0-4.486-3.792-6.336-7.817-6.336a14.03,14.03,0,0,0-10.357,4.534c-1.8,1.757-3.47,3.652-5.135,5.548a.619.619,0,0,1-.507.324c-.973,0-3.33-2.589-3.33-3.33,0-.553.692-1.063,1.108-1.387a185.243,185.243,0,0,0,14.383-14.522c.369-.37,1.2-1.2,1.2-1.664,0-.415-.416-.553-.786-.553-.23,0-.834.138-1.109.184-1.112.277-7.631,1.619-8.37,1.619-1.019,0-1.157-3.468-1.157-4.255,0-1.063.046-1.156,1.434-1.156h1.107c2.962,0,9.021-.646,11.7-1.712a6.307,6.307,0,0,1,1.756-.508C4577.367,358.875,4580.05,362.389,4580.05,363.176Zm-11.7,22.939a1.914,1.914,0,0,0-1.987,1.85c0,1.664,2.219,2.451,3.606,2.451.879,0,1.25-.832,1.25-1.573A2.827,2.827,0,0,0,4568.349,386.114Z" transform="translate(367.633 38.293)" fill="#674646"/>
      <path id="パス_14168" data-name="パス 14168" d="M4586.844,357.448c2.451,3.931,2.681,4.115,8.185,8.6,3.007,2.451,6.153,5.18,6.153,9.759,0,3.328-2.362,9.573-9.433,12.718l-.094-.138a28.174,28.174,0,0,0,4.442-4.627c2.172-2.958,2.769-5.318,2.769-6.706,0-2.773-1.937-4.208-3.556-5.225-1.111-.694-6.243-3.421-7.262-4.024V390.1c0,2.684-4.44,7.816-7.677,7.816a2.477,2.477,0,0,1-2.681-2.405c0-2.267,2.543-5.874,8.787-6.382V357.448Z" transform="translate(390.521 36.899)" fill="#674646"/>
    </g>
  </g>
</svg>
