<svg xmlns="http://www.w3.org/2000/svg" width="59.24" height="719.721" viewBox="0 0 59.24 719.721">
  <g id="グループ_937" data-name="グループ 937" transform="translate(-1712.551 -11685.825)">
    <path id="パス_3138" data-name="パス 3138" d="M1996.52,797.42h-3.09V786.39h-7.64v9.66h-3.09v-9.66h-10.2v-3.22h24.01v14.25Z" transform="translate(-241.279 10902.655)" fill="#756c67"/>
    <path id="パス_3139" data-name="パス 3139" d="M1978.14,812.4a5.629,5.629,0,0,0-2.03,2.08,5.761,5.761,0,0,0-.75,2.91,6.29,6.29,0,0,0,.73,3.01,5.353,5.353,0,0,0,2.03,2.11,5.6,5.6,0,0,0,2.89.76h15.51v3.15h-15.61a8.517,8.517,0,0,1-4.53-1.2,8.182,8.182,0,0,1-3.06-3.25,9.7,9.7,0,0,1-1.08-4.58,9.582,9.582,0,0,1,1.08-4.55,8.09,8.09,0,0,1,3.06-3.24,8.646,8.646,0,0,1,4.53-1.18h15.61v3.22h-15.51A5.474,5.474,0,0,0,1978.14,812.4Z" transform="translate(-241.279 10902.655)" fill="#756c67"/>
    <path id="パス_3140" data-name="パス 3140" d="M1971.45,858.23l14.35-5.61-14.41-6.14,25.04-9.56v3.75l-17.47,6.21,10.89,4.15,6.58-2.56v3.19l-17.1,6.67,17.1,5.91v3.45l-24.97-9.46Z" transform="translate(-241.279 10902.655)" fill="#756c67"/>
    <path id="パス_3141" data-name="パス 3141" d="M1978.82,891.04v-9.23l-6.31-2.56v-3.19l25.01,10.49v.2l-25.01,10.49v-3.72l6.31-2.49Zm2.79-1.1,8.77-3.42-8.77-3.55Z" transform="translate(-241.279 10902.655)" fill="#756c67"/>
    <path id="パス_3142" data-name="パス 3142" d="M1996.52,921.96h-3.09V910.93h-7.64v9.66h-3.09v-9.66h-10.2v-3.22h24.01v14.25Z" transform="translate(-241.279 10902.655)" fill="#756c67"/>
    <path id="パス_3143" data-name="パス 3143" d="M1978.14,936.93a5.629,5.629,0,0,0-2.03,2.08,5.761,5.761,0,0,0-.75,2.91,6.29,6.29,0,0,0,.73,3.01,5.353,5.353,0,0,0,2.03,2.11,5.6,5.6,0,0,0,2.89.76h15.51v3.15h-15.61a8.517,8.517,0,0,1-4.53-1.2,8.182,8.182,0,0,1-3.06-3.25,9.7,9.7,0,0,1-1.08-4.58,9.582,9.582,0,0,1,1.08-4.55,8.09,8.09,0,0,1,3.06-3.24,8.646,8.646,0,0,1,4.53-1.18h15.61v3.22h-15.51A5.474,5.474,0,0,0,1978.14,936.93Z" transform="translate(-241.279 10902.655)" fill="#756c67"/>
    <path id="パス_3144" data-name="パス 3144" d="M1971.45,982.76l14.35-5.61-14.41-6.14,25.04-9.56v3.75l-17.47,6.21,10.89,4.15,6.58-2.56v3.19l-17.1,6.67,17.1,5.91v3.45l-24.97-9.46Z" transform="translate(-241.279 10902.655)" fill="#756c67"/>
    <path id="パス_3145" data-name="パス 3145" d="M1978.82,1015.57v-9.23l-6.31-2.56v-3.19l25.01,10.49v.2l-25.01,10.49v-3.72l6.31-2.49Zm2.79-1.1,8.77-3.42-8.77-3.55Z" transform="translate(-241.279 10902.655)" fill="#756c67"/>
    <path id="パス_3146" data-name="パス 3146" d="M1972.89,1063.41a11.224,11.224,0,0,1-.65-3.87,12.64,12.64,0,0,1,1.63-6.49,11.288,11.288,0,0,1,4.38-4.32,12.378,12.378,0,0,1,6.08-1.51,13.237,13.237,0,0,1,6.39,1.53,11.328,11.328,0,0,1,4.45,4.23,11.786,11.786,0,0,1,1.61,6.13,13.183,13.183,0,0,1-1.92,6.94l-3.02-1.3a9.862,9.862,0,0,0,1.86-5.55,7.99,7.99,0,0,0-1.23-4.3,9.063,9.063,0,0,0-3.34-3.16,9.3,9.3,0,0,0-4.63-1.18,10.169,10.169,0,0,0-4.68,1.08,7.922,7.922,0,0,0-3.27,3.09,9.584,9.584,0,0,0,.65,10.24l-2.89,1.36a14.175,14.175,0,0,1-1.41-2.94Z" transform="translate(-241.279 10902.655)" fill="#756c67"/>
    <path id="パス_3147" data-name="パス 3147" d="M1978.82,1090.32v-9.23l-6.31-2.56v-3.19l25.01,10.49v.2l-25.01,10.49v-3.72l6.31-2.49Zm2.79-1.1,8.77-3.42-8.77-3.55v6.97Z" transform="translate(-241.279 10902.655)" fill="#756c67"/>
    <path id="パス_3148" data-name="パス 3148" d="M1994.56,1119.56a6.954,6.954,0,0,1-5.48,2.21,8.988,8.988,0,0,1-3.79-.81,6.541,6.541,0,0,1-2.86-2.62,8.594,8.594,0,0,1-1.1-4.57v-3.55h-8.83V1107h24.01v6.44a8.921,8.921,0,0,1-1.96,6.13Zm-9.37-2.99a4.206,4.206,0,0,0,1.78,1.54,5.031,5.031,0,0,0,2.04.47,4.662,4.662,0,0,0,3.07-1.13,4.33,4.33,0,0,0,1.34-3.52v-3.72h-8.97v3.55a4.908,4.908,0,0,0,.73,2.81Z" transform="translate(-241.279 10902.655)" fill="#756c67"/>
    <path id="パス_3149" data-name="パス 3149" d="M1994.56,1145.3a6.954,6.954,0,0,1-5.48,2.21,8.988,8.988,0,0,1-3.79-.81,6.541,6.541,0,0,1-2.86-2.62,8.594,8.594,0,0,1-1.1-4.57v-3.55h-8.83v-3.22h24.01v6.44a8.921,8.921,0,0,1-1.96,6.13Zm-9.37-2.99a4.206,4.206,0,0,0,1.78,1.54,5.031,5.031,0,0,0,2.04.47,4.662,4.662,0,0,0,3.07-1.13,4.33,4.33,0,0,0,1.34-3.52v-3.72h-8.97v3.55a4.908,4.908,0,0,0,.73,2.81Z" transform="translate(-241.279 10902.655)" fill="#756c67"/>
    <path id="パス_3150" data-name="パス 3150" d="M1978.14,1162.15a5.628,5.628,0,0,0-2.03,2.08,5.761,5.761,0,0,0-.75,2.91,6.29,6.29,0,0,0,.73,3.01,5.353,5.353,0,0,0,2.03,2.11,5.6,5.6,0,0,0,2.89.76h15.51v3.15h-15.61a8.517,8.517,0,0,1-4.53-1.2,8.183,8.183,0,0,1-3.06-3.25,9.7,9.7,0,0,1-1.08-4.58,9.582,9.582,0,0,1,1.08-4.55,8.09,8.09,0,0,1,3.06-3.24,8.646,8.646,0,0,1,4.53-1.18h15.61v3.22h-15.51A5.474,5.474,0,0,0,1978.14,1162.15Z" transform="translate(-241.279 10902.655)" fill="#756c67"/>
    <path id="パス_3151" data-name="パス 3151" d="M1972.89,1203.45a11.224,11.224,0,0,1-.65-3.87,12.64,12.64,0,0,1,1.63-6.49,11.288,11.288,0,0,1,4.38-4.32,12.378,12.378,0,0,1,6.08-1.51,13.237,13.237,0,0,1,6.39,1.53,11.328,11.328,0,0,1,4.45,4.23,11.786,11.786,0,0,1,1.61,6.13,13.183,13.183,0,0,1-1.92,6.94l-3.02-1.3a9.862,9.862,0,0,0,1.86-5.55,7.99,7.99,0,0,0-1.23-4.3,9.063,9.063,0,0,0-3.34-3.16,9.3,9.3,0,0,0-4.63-1.18,10.169,10.169,0,0,0-4.68,1.08,7.922,7.922,0,0,0-3.27,3.09,9.584,9.584,0,0,0,.65,10.24l-2.89,1.36a14.175,14.175,0,0,1-1.41-2.94Z" transform="translate(-241.279 10902.655)" fill="#756c67"/>
    <path id="パス_3152" data-name="パス 3152" d="M1972.89,1232.47a11.224,11.224,0,0,1-.65-3.87,12.64,12.64,0,0,1,1.63-6.49,11.288,11.288,0,0,1,4.38-4.32,12.378,12.378,0,0,1,6.08-1.51,13.237,13.237,0,0,1,6.39,1.53,11.328,11.328,0,0,1,4.45,4.23,11.786,11.786,0,0,1,1.61,6.13,13.183,13.183,0,0,1-1.92,6.94l-3.02-1.3a9.862,9.862,0,0,0,1.86-5.55,7.99,7.99,0,0,0-1.23-4.3,9.063,9.063,0,0,0-3.34-3.16,9.3,9.3,0,0,0-4.63-1.18,10.169,10.169,0,0,0-4.68,1.08,7.922,7.922,0,0,0-3.27,3.09,9.584,9.584,0,0,0,.65,10.24l-2.89,1.36a14.175,14.175,0,0,1-1.41-2.94Z" transform="translate(-241.279 10902.655)" fill="#756c67"/>
    <path id="パス_3153" data-name="パス 3153" d="M1996.52,1250.02h-24.01v-3.22h24.01Z" transform="translate(-241.279 10902.655)" fill="#756c67"/>
    <path id="パス_3154" data-name="パス 3154" d="M1996.52,1283.83h-24.81v-.1l17.9-17.63-17.1.07v-3.25h24.74v.17l-18.1,17.6,17.37-.07v3.22Z" transform="translate(-241.279 10902.655)" fill="#756c67"/>
    <path id="パス_3155" data-name="パス 3155" d="M1990.61,1296.88a12.678,12.678,0,0,1,4.5,4.47,11.987,11.987,0,0,1,0,12.24,12.762,12.762,0,0,1-4.5,4.5,11.736,11.736,0,0,1-6.11,1.68,11.918,11.918,0,0,1-6.14-1.66,12.363,12.363,0,0,1-4.47-4.5,12.208,12.208,0,0,1,10.61-18.38,11.657,11.657,0,0,1,6.11,1.66Zm-10.69,2.86a9.053,9.053,0,0,0-3.32,3.27,8.818,8.818,0,0,0,3.3,12.25,9.525,9.525,0,0,0,9.22-.02,8.863,8.863,0,0,0,3.35-3.25,8.858,8.858,0,0,0-.02-9.04,8.963,8.963,0,0,0-3.37-3.24,9.343,9.343,0,0,0-4.62-1.18,8.946,8.946,0,0,0-4.55,1.2Z" transform="translate(-241.279 10902.655)" fill="#756c67"/>
    <circle id="楕円形_10" data-name="楕円形 10" cx="29.62" cy="29.62" r="29.62" transform="translate(1712.551 12270.295)" fill="#c1875c"/>
    <circle id="楕円形_11" data-name="楕円形 11" cx="29.62" cy="29.62" r="29.62" transform="translate(1712.551 12346.306)" fill="#3b332d"/>
  </g>
</svg>
