<svg xmlns="http://www.w3.org/2000/svg" width="108.102" height="15.564" viewBox="0 0 108.102 15.564">
  <g id="グループ_382" data-name="グループ 382" transform="translate(0 0)">
    <g id="グループ_381" data-name="グループ 381" transform="translate(0 0)">
      <path id="パス_2345" data-name="パス 2345" d="M794.3,190.529a.424.424,0,0,0,.485.485h2.357c.659,0,1.3-.052,1.958-.052.416,0,.416.208.416.728,0,.537,0,.745-.416.745-.659,0-1.3-.052-1.958-.052h-2.357c-.329,0-.485.139-.485.485v3.848c0,.347.156.485.485.485h3.83c.693,0,1.387-.052,2.1-.052.4,0,.4.225.4.745,0,.538-.017.746-.4.746-.711,0-1.4-.035-2.1-.035h-10.1c-.693,0-1.4.035-2.1.035-.381,0-.4-.191-.4-.746s.017-.745.4-.745c.693,0,1.4.052,2.1.052h3.865c.347,0,.485-.139.485-.485v-3.848c0-.347-.139-.485-.485-.485h-2.34c-.641,0-1.283.052-1.941.052-.433,0-.433-.208-.433-.745,0-.52,0-.728.433-.728.659,0,1.3.052,1.941.052h2.34c.347,0,.485-.156.485-.485v-3.64c0-.347-.139-.486-.485-.486h-3.12c-.676,0-1.352.035-2.028.035-.416,0-.416-.225-.416-.728,0-.52,0-.745.416-.745.676,0,1.352.052,2.028.052h8.684c.676,0,1.352-.052,2.028-.052.4,0,.416.191.416.745s-.017.728-.416.728c-.676,0-1.352-.035-2.028-.035h-3.154c-.329,0-.485.139-.485.486Z" transform="translate(-786.016 -183.856)" fill="#877877"/>
      <path id="パス_2346" data-name="パス 2346" d="M848.1,189.7c0-.347-.139-.485-.468-.485h-.693c-.26,0-.52.035-.78.035-.329,0-.364-.156-.364-.676,0-.537.035-.676.364-.676.26,0,.52.035.78.035h.607c.347,0,.676-.035,1.023-.035.624,0,.936.156.936.8,0,.468-.035.936-.035,1.4v2.409a2.089,2.089,0,0,0,1.508,2.288,18.756,18.756,0,0,0,4.87.433c1.508,0,3.016-.069,4.506-.069h.295c.26,0,.295.156.295.381,0,.867-.26.971-.971.971-.225,0-.485-.017-.8-.017h-3.744a18.158,18.158,0,0,1-4.905-.416,3.563,3.563,0,0,1-1.543-1.282.4.4,0,0,0-.329-.208.382.382,0,0,0-.26.1c-.555.433-1.074.9-1.629,1.317-.156.121-.156.225-.173.4a.225.225,0,0,1-.225.191c-.121,0-.277-.243-.485-.589-.087-.156-.208-.329-.329-.52a.571.571,0,0,1-.121-.277c0-.191.5-.416.676-.5.243-.138,1.352-.918,1.664-1.144a.733.733,0,0,0,.329-.711Zm.8-4.108c-.173,0-.277-.156-.381-.277a20.466,20.466,0,0,0-2.271-2.479c-.1-.1-.225-.208-.225-.364,0-.26.555-.728.814-.728.156,0,.277.139.433.277.4.364,2.479,2.461,2.479,2.86C849.748,185.125,849.228,185.592,848.9,185.592Zm4.784.642a.538.538,0,0,0,.589-.347,2.433,2.433,0,0,0,.225-.589c0-.277-.277-.277-.329-.277h-1.681c-.572,0-1.144.035-1.716.035-.364,0-.347-.225-.347-.607s-.017-.589.347-.589c.572,0,1.144.035,1.716.035h.468c.121-.018.225-.069.225-.225a.208.208,0,0,0-.035-.139c-.277-.537-.485-.884-.815-1.4a.508.508,0,0,1-.121-.277c0-.295.641-.468.884-.468s.4.191.849.971a5.482,5.482,0,0,1,.52,1.075c0,.173-.1.243-.243.312a.08.08,0,0,0-.052.087c0,.017,0,.052.087.069h1.7a.632.632,0,0,0,.693-.4,12.646,12.646,0,0,0,.8-1.872c.035-.087.069-.225.191-.225s1.421.416,1.421.693c0,.156-.139.156-.26.173a.254.254,0,0,0-.243.156c-.191.364-.364.711-.555,1.075a.242.242,0,0,0-.052.156c0,.173.139.225.295.243h.676c.572,0,1.144-.035,1.716-.035.364,0,.347.225.347.589,0,.381,0,.607-.347.607-.572,0-1.144-.035-1.716-.035h-2.409a.517.517,0,0,0-.572.347c-.052.156-.1.295-.173.451a.411.411,0,0,0-.035.156c0,.191.139.243.312.26h1.473c.347,0,.693-.017,1.057-.017.555,0,.849.139.849.745,0,.364-.035.728-.035,1.092v4.42c0,.416.035.815.035,1.23,0,.486-.26.5-.693.5-.329,0-.485-.017-.624-.156-.069-.087-.1-.139-.208-.139h-4.645c-.1,0-.139.052-.208.122-.121.156-.26.173-.624.173-.416,0-.693-.017-.693-.485,0-.416.035-.832.035-1.248v-4.42c0-.364-.017-.728-.017-1.092,0-.607.277-.745.832-.745.364,0,.711.017,1.057.017Zm3.952,2.2a.4.4,0,0,0,.416-.416v-.295a.4.4,0,0,0-.416-.416h-4.125a.4.4,0,0,0-.416.416v.295a.4.4,0,0,0,.416.416Zm-4.125,1.005a.391.391,0,0,0-.416.416v.329a.391.391,0,0,0,.416.416h4.125a.391.391,0,0,0,.416-.416v-.329a.391.391,0,0,0-.416-.416Zm0,2.167a.4.4,0,0,0-.416.416v.364a.4.4,0,0,0,.416.416h4.125a.4.4,0,0,0,.416-.416v-.364a.4.4,0,0,0-.416-.416Z" transform="translate(-827.042 -181.381)" fill="#877877"/>
      <path id="パス_2347" data-name="パス 2347" d="M914.237,188.441a.13.13,0,0,0-.121.1,14.024,14.024,0,0,1-5.858,8.129,2.149,2.149,0,0,1-.884.451c-.347,0-.9-.676-.9-1.005,0-.173.173-.26.4-.4a13.263,13.263,0,0,0,4.056-3.674,14.8,14.8,0,0,0,2.548-8.458c0-.382-.017-.763-.017-1.144s.087-.5.364-.5a10.171,10.171,0,0,1,1.213.156c.191.035.4.052.4.226,0,.156-.208.225-.329.295a.269.269,0,0,0-.156.26c-.017.433-.035.849-.035,1.283,0,.121.017.277.017.4a14.973,14.973,0,0,0,.971,4.42,14.1,14.1,0,0,0,5.668,6.864c.139.087.347.208.347.364,0,.347-.537.988-.867.988a.689.689,0,0,1-.312-.122,13.718,13.718,0,0,1-2.895-2.392,15.055,15.055,0,0,1-3.484-6.136A.13.13,0,0,0,914.237,188.441Z" transform="translate(-869.19 -181.768)" fill="#877877"/>
      <path id="パス_2348" data-name="パス 2348" d="M970.612,193.927a.267.267,0,0,0-.225.156c-.763,1.387-2.478,3.085-3,3.085-.329,0-.884-.711-.884-.936,0-.1.1-.173.191-.225a6.549,6.549,0,0,0,2.825-3.137c0-.035.017-.087.017-.121,0-.225-.191-.295-.382-.312h-.485c-.537,0-1.092.035-1.63.035-.364,0-.364-.191-.364-.624,0-.451,0-.641.364-.641.538,0,1.092.034,1.63.034h.693c.294,0,.4-.1.433-.4v-.19c0-.243-.017-.5-.017-.659,0-.208.069-.295.26-.295a8.722,8.722,0,0,1,.918.086c.295.035.537.035.537.208,0,.1-.121.19-.208.242a.3.3,0,0,0-.174.26v.277c0,.329.139.468.468.468h.676c.537,0,1.074-.034,1.612-.034.364,0,.364.156.364.641,0,.468,0,.624-.364.624-.538,0-1.075-.035-1.612-.035h-.5c-.139.017-.295.069-.295.243a.279.279,0,0,0,.052.156,10.3,10.3,0,0,0,1.838,2.132c.086.069.19.156.19.26a1.234,1.234,0,0,1-.832.867c-.451,0-1.612-1.63-1.872-2.045A.3.3,0,0,0,970.612,193.927Zm.642-7.054c-.087,0-.121.086-.121.173v.121c0,.537.034,1.075.034,1.595,0,.485-.139.537-.676.537-.5,0-.659-.035-.659-.5,0-.537.035-1.075.035-1.629v-.1c0-.069-.035-.139-.1-.139s-.1.017-.121.069a11.056,11.056,0,0,1-1.924,2.305.86.86,0,0,1-.434.26c-.243,0-.745-.555-.745-.8,0-.156.173-.277.381-.451a9.364,9.364,0,0,0,1.959-2.011.334.334,0,0,0,.052-.173c0-.173-.139-.208-.277-.226h-.173c-.451,0-.919.035-1.369.035-.33,0-.33-.173-.33-.607s0-.624.33-.624c.572,0,1.126.034,1.7.034h.589c.33,0,.468-.138.468-.485v-1.075q0-.467-.052-.988c0-.052-.017-.1-.017-.156,0-.191.139-.208.277-.208.19,0,.9.052,1.126.069.139.017.347.035.347.208,0,.121-.1.156-.226.243-.173.1-.19.26-.19.763v1.144c0,.347.138.485.468.485h.659c.572,0,1.144-.034,1.7-.034.329,0,.347.208.347.624,0,.433-.017.607-.347.607-.572,0-1.144-.035-1.716-.035-.139.018-.26.052-.26.208a.213.213,0,0,0,.052.156,11.268,11.268,0,0,0,1.958,1.785c.122.069.312.208.312.347a1.187,1.187,0,0,1-.8.8c-.416,0-1.855-1.837-2.132-2.236C971.341,186.907,971.306,186.873,971.254,186.873Zm-2.773-2.461c-.225,0-.33-.226-.5-.537a10.16,10.16,0,0,0-.642-.867.472.472,0,0,1-.138-.295c0-.295.641-.572.832-.572.225,0,.572.537.745.8a3.436,3.436,0,0,1,.537.936C969.313,184.152,968.654,184.412,968.481,184.412Zm5.321-1.456c-.173.017-.225.139-.4.416-.624.971-.728,1.127-.953,1.127-.174,0-.78-.312-.78-.5a.278.278,0,0,1,.087-.191,16.291,16.291,0,0,0,.936-1.473c.034-.069.069-.139.156-.139a3.843,3.843,0,0,1,.693.277c.33.156.5.191.5.329C974.044,182.956,973.836,182.956,973.8,182.956Zm3.484,12.306c-.035,0-.174-.035-.208-.035a.3.3,0,0,0-.208.1,11.406,11.406,0,0,1-3.033,1.89c-.295,0-.762-.572-.762-.815,0-.208.208-.278.416-.381a12.477,12.477,0,0,0,2.583-1.733c.069-.07.208-.208.294-.208a3.155,3.155,0,0,1,1.109,1.023A.177.177,0,0,1,977.286,195.262Zm.728-10.226c0,.191.139.243.3.243h1.161c.329,0,.659-.017.988-.017.537,0,.728.225.728.745,0,.381-.017.78-.017,1.161v4.887c0,.382.017.763.017,1.162,0,.52-.191.728-.728.728-.329,0-.659-.017-.988-.017h-2.895c-.329,0-.659.017-.988.017-.572,0-.728-.225-.728-.763,0-.381.018-.763.018-1.127v-4.887c0-.364-.018-.728-.018-1.092,0-.537.122-.815.728-.815.121,0,.26.017.4.017a.574.574,0,0,0,.555-.329c.156-.277.312-.555.451-.849a.513.513,0,0,0,.034-.156c0-.26-.26-.26-.312-.26h-.173c-.607,0-1.231.035-1.786.035-.346,0-.346-.173-.346-.659s.017-.659.346-.659c.589,0,1.179.035,1.786.035H979.9c.589,0,1.179-.035,1.785-.035.329,0,.347.191.347.659s-.018.659-.347.659c-.572,0-1.2-.035-1.785-.035h-.763a.609.609,0,0,0-.659.4c-.138.26-.277.537-.433.8A.5.5,0,0,0,978.013,185.035Zm1.785,1.855a.391.391,0,0,0-.416-.416h-2.7a.391.391,0,0,0-.416.416v.52a.383.383,0,0,0,.416.416h2.7a.383.383,0,0,0,.416-.416Zm-3.12,2.045a.391.391,0,0,0-.416.416v.468a.391.391,0,0,0,.416.416h2.7a.391.391,0,0,0,.416-.416v-.468a.391.391,0,0,0-.416-.416Zm0,2.392a.391.391,0,0,0-.416.416v.572a.391.391,0,0,0,.416.416h2.7a.391.391,0,0,0,.416-.416v-.572a.391.391,0,0,0-.416-.416Zm4.8,5.928c-.416,0-2.947-1.872-2.947-2.253,0-.243.572-.728.8-.728.139,0,.243.122.33.208a11.735,11.735,0,0,0,2.253,1.595c.122.052.312.139.312.295C982.225,196.648,981.775,197.255,981.48,197.255Z" transform="translate(-910.643 -181.69)" fill="#877877"/>
      <path id="パス_2349" data-name="パス 2349" d="M1039,189.2c.711,0,1.421-.035,2.132-.035.4,0,.433.156.433.849,0,.45-.017.641-.45.641-.711,0-1.421-.035-2.115-.035H1037.9a.492.492,0,0,0-.5.5v2.409a.5.5,0,0,0,.5.5h3.207c.745,0,1.542-.035,2.184-.035.416,0,.416.173.416.78,0,.416,0,.711-.416.711-.728,0-1.456-.035-2.184-.035h-3.224a.481.481,0,0,0-.485.468v.988c0,.416-.018.746-.018,1.023,0,1.127.191,1.213,2.028,1.213a29.287,29.287,0,0,0,3.068-.122c.069,0,.139-.017.208-.017.312,0,.312.4.312.624,0,.954-.173.988-1.092.988a42.487,42.487,0,0,1-4.524-.174c-1.577-.277-1.491-.936-1.491-2.479v-2.011a.5.5,0,0,0-.5-.5h-2.947c-.711,0-1.421.035-2.115.035-.433,0-.433-.312-.433-.676,0-.659.035-.815.433-.815.468,0,1.352.035,2.115.035h2.947a.5.5,0,0,0,.5-.5v-2.409a.482.482,0,0,0-.5-.5h-1.075c-.711,0-1.4.035-2.1.035-.4,0-.5-.087-.5-.555,0-.85.017-.936.5-.936.694,0,1.4.035,2.115.035Z" transform="translate(-954.414 -186.756)" fill="#877877"/>
      <path id="パス_2350" data-name="パス 2350" d="M1101.754,191.85c.711,0,1.421-.052,2.131-.052.468,0,.468.173.468.745,0,.485-.017.763-.45.763-.711,0-1.438-.052-2.149-.052h-2.479c-.468,0-.485.451-.537.8a8.854,8.854,0,0,1-1.144,3.224,6.93,6.93,0,0,1-2.583,2.323,7.753,7.753,0,0,1-1.8.78c-.312,0-1.04-.884-1.04-1.127,0-.191.295-.26.433-.295a8.921,8.921,0,0,0,2.254-.953,5.452,5.452,0,0,0,2.235-3.362,6.633,6.633,0,0,0,.156-.971.418.418,0,0,0-.4-.416h-3.8c-.711,0-1.438.052-2.149.052-.4,0-.416-.243-.416-.728,0-.572.052-.78.416-.78.711,0,1.421.052,2.149.052Zm-2.617-4.61c.728,0,1.456-.035,2.184-.035.4,0,.416.208.416.8,0,.451.018.694-.416.694-.728,0-1.456-.035-2.167-.035h-3.778c-.711,0-1.438.035-2.149.035-.451,0-.433-.26-.433-.728,0-.607.035-.763.433-.763.728,0,1.456.035,2.167.035Z" transform="translate(-996.252 -185.402)" fill="#877877"/>
    </g>
  </g>
</svg>
