<svg xmlns="http://www.w3.org/2000/svg" width="1078.301" height="119.5" viewBox="0 0 1078.301 119.5">
  <g id="グループ_2400" data-name="グループ 2400" transform="translate(-417.217 -291.732)">
    <g id="グループ_2327" data-name="グループ 2327">
      <g id="グループ_2326" data-name="グループ 2326">
        <path id="パス_19946" data-name="パス 19946" d="M441.767,400.607l-17.625-6.5,14.625-39.75,17.625,6.375Zm42.125-57c10.75,8.875,16.125,19.25,16.125,31.25,0,14.25-7.25,26.375-21.875,36.375l-10.625-15.375c9.125-6.25,13.75-13.25,13.75-21,0-5.375-2.375-10.25-7.125-14.875-2.625-2.5-7.375-5.75-14-9.75l13-27.75h-22v-18.75h51.5Zm35.875,52.5-16.75-38.625,17.125-7.5,16.75,38.625Z" fill="#fff"/>
        <path id="パス_19947" data-name="パス 19947" d="M646.392,402.232l-16.125-9.5a40.72,40.72,0,0,0,6.125-21.125c0-7.375-2-13.25-5.875-17.875-4.125-4.875-9.875-7.375-17-7.375q-13.312,0-27,10.125v53.875h-18.75v-35.25c-2.875,3.5-6,7.5-9.25,12l-15.25-10.875c8.625-11.875,16.75-21.375,24.5-28.5V337.107H553.392v-18.75h14.375V299.732h18.75v34.625a58.369,58.369,0,0,1,27-6.75c12.375,0,22.5,4.25,30.125,12.625s11.5,18.875,11.5,31.375A58.5,58.5,0,0,1,646.392,402.232Z" fill="#fff"/>
        <path id="パス_19948" data-name="パス 19948" d="M686.767,400.607l-17.625-6.5,14.625-39.75,17.625,6.375Zm42.125-57c10.75,8.875,16.125,19.25,16.125,31.25,0,14.25-7.25,26.375-21.875,36.375l-10.625-15.375c9.125-6.25,13.75-13.25,13.75-21,0-5.375-2.375-10.25-7.125-14.875-2.625-2.5-7.375-5.75-14-9.75l13-27.75h-22v-18.75h51.5Zm35.875,52.5-16.75-38.625,17.125-7.5,16.75,38.625Z" fill="#fff"/>
        <path id="パス_19949" data-name="パス 19949" d="M891.392,402.232l-16.125-9.5a40.72,40.72,0,0,0,6.125-21.125c0-7.375-2-13.25-5.875-17.875-4.125-4.875-9.875-7.375-17-7.375q-13.312,0-27,10.125v53.875h-18.75v-35.25c-2.875,3.5-6,7.5-9.25,12l-15.25-10.875c8.625-11.875,16.75-21.375,24.5-28.5V337.107H798.392v-18.75h14.375V299.732h18.75v34.625a58.369,58.369,0,0,1,27-6.75c12.375,0,22.5,4.25,30.125,12.625s11.5,18.875,11.5,31.375A58.5,58.5,0,0,1,891.392,402.232Z" fill="#fff"/>
        <path id="パス_19950" data-name="パス 19950" d="M989.893,407.732V343.857H968.768q-7.312,39.188-27,63.25l-14.375-12c10.375-12.625,17.875-29.75,22.25-51.25H928.517v-18.75h23.875a193.832,193.832,0,0,0,1.125-20.25h18.751c0,6.625-.375,13.375-1,20.25h37.375v82.625Z" fill="#fff"/>
        <path id="パス_19951" data-name="パス 19951" d="M1148.393,322.357a14.347,14.347,0,0,1-10.5,4.375,13.188,13.188,0,0,1-6.25-1.5c-6.375,32.25-21.375,60.875-45.25,86l-13.625-12.875q28.5-30.187,38.5-68h-61.875v-18.75h73.75a14.62,14.62,0,0,1,4.5-10.25,14.689,14.689,0,0,1,25,10.625A13.956,13.956,0,0,1,1148.393,322.357Zm-5.375-15.5a7.08,7.08,0,0,0-5.125-2.125,6.884,6.884,0,0,0-5,2,7.4,7.4,0,0,0-2.25,4.875,7.056,7.056,0,0,0,2,5.375,6.809,6.809,0,0,0,5.25,2.25,7.248,7.248,0,0,0,5.125-12.375Z" fill="#fff"/>
        <path id="パス_19952" data-name="パス 19952" d="M1227.143,358.982q-5.812,27.938-26.375,51.5l-14.125-12.375c10.875-12.375,18-25.5,21.375-39.125h-39.125v-18.75h42.125c.375-4.875.625-10.375.75-16.25l-29.25,3.875-2.5-18.625,67.625-8.875,2.5,18.5-19.625,2.625c0,6.75-.25,13-.625,18.75h28.625v18.75Z" fill="#fff"/>
        <path id="パス_19953" data-name="パス 19953" d="M1287.393,362.482v-17.5h102.5v17.5Z" fill="#fff"/>
        <path id="パス_19954" data-name="パス 19954" d="M1475.268,363.357c-9.125,15.375-22.125,30-38.875,43.625l-11.875-14.5c14.875-12.25,26.5-25.125,34.625-38.75s14.125-30,18-49.125l18.375,3.875Q1488.768,340.732,1475.268,363.357Z" fill="#fff"/>
      </g>
    </g>
    <g id="グループ_2329" data-name="グループ 2329">
      <g id="グループ_2328" data-name="グループ 2328">
        <path id="パス_19955" data-name="パス 19955" d="M436.767,396.607l-17.625-6.5,14.625-39.75,17.625,6.375Zm42.125-57c10.75,8.875,16.125,19.25,16.125,31.25,0,14.25-7.25,26.375-21.875,36.375l-10.625-15.375c9.125-6.25,13.75-13.25,13.75-21,0-5.375-2.375-10.25-7.125-14.875-2.625-2.5-7.375-5.75-14-9.75l13-27.75h-22v-18.75h51.5Zm35.875,52.5-16.75-38.625,17.125-7.5,16.75,38.625Z" fill="none" stroke="#877877" stroke-miterlimit="10" stroke-width="3"/>
        <path id="パス_19956" data-name="パス 19956" d="M641.392,398.232l-16.125-9.5a40.72,40.72,0,0,0,6.125-21.125c0-7.375-2-13.25-5.875-17.875-4.125-4.875-9.875-7.375-17-7.375q-13.312,0-27,10.125v53.875h-18.75v-35.25c-2.875,3.5-6,7.5-9.25,12l-15.25-10.875c8.625-11.875,16.75-21.375,24.5-28.5V333.107H548.392v-18.75h14.375V295.732h18.75v34.625a58.369,58.369,0,0,1,27-6.75c12.375,0,22.5,4.25,30.125,12.625s11.5,18.875,11.5,31.375A58.5,58.5,0,0,1,641.392,398.232Z" fill="none" stroke="#877877" stroke-miterlimit="10" stroke-width="3"/>
        <path id="パス_19957" data-name="パス 19957" d="M681.767,396.607l-17.625-6.5,14.625-39.75,17.625,6.375Zm42.125-57c10.75,8.875,16.125,19.25,16.125,31.25,0,14.25-7.25,26.375-21.875,36.375l-10.625-15.375c9.125-6.25,13.75-13.25,13.75-21,0-5.375-2.375-10.25-7.125-14.875-2.625-2.5-7.375-5.75-14-9.75l13-27.75h-22v-18.75h51.5Zm35.875,52.5-16.75-38.625,17.125-7.5,16.75,38.625Z" fill="none" stroke="#877877" stroke-miterlimit="10" stroke-width="3"/>
        <path id="パス_19958" data-name="パス 19958" d="M886.392,398.232l-16.125-9.5a40.72,40.72,0,0,0,6.125-21.125c0-7.375-2-13.25-5.875-17.875-4.125-4.875-9.875-7.375-17-7.375q-13.312,0-27,10.125v53.875h-18.75v-35.25c-2.875,3.5-6,7.5-9.25,12l-15.25-10.875c8.625-11.875,16.75-21.375,24.5-28.5V333.107H793.392v-18.75h14.375V295.732h18.75v34.625a58.369,58.369,0,0,1,27-6.75c12.375,0,22.5,4.25,30.125,12.625s11.5,18.875,11.5,31.375A58.5,58.5,0,0,1,886.392,398.232Z" fill="none" stroke="#877877" stroke-miterlimit="10" stroke-width="3"/>
        <path id="パス_19959" data-name="パス 19959" d="M984.893,403.732V339.857H963.768q-7.314,39.188-27,63.25l-14.375-12c10.375-12.625,17.875-29.75,22.25-51.25H923.517v-18.75h23.875a193.832,193.832,0,0,0,1.125-20.25h18.751c0,6.625-.375,13.375-1,20.25h37.375v82.625Z" fill="none" stroke="#877877" stroke-miterlimit="10" stroke-width="3"/>
        <path id="パス_19960" data-name="パス 19960" d="M1143.393,318.357a14.347,14.347,0,0,1-10.5,4.375,13.188,13.188,0,0,1-6.25-1.5c-6.375,32.25-21.375,60.875-45.25,86l-13.625-12.875q28.5-30.187,38.5-68h-61.875v-18.75h73.75a14.62,14.62,0,0,1,4.5-10.25,14.689,14.689,0,0,1,25,10.625A13.956,13.956,0,0,1,1143.393,318.357Zm-5.375-15.5a7.08,7.08,0,0,0-5.125-2.125,6.884,6.884,0,0,0-5,2,7.4,7.4,0,0,0-2.25,4.875,7.056,7.056,0,0,0,2,5.375,6.809,6.809,0,0,0,5.25,2.25,7.248,7.248,0,0,0,5.125-12.375Z" fill="none" stroke="#877877" stroke-miterlimit="10" stroke-width="3"/>
        <path id="パス_19961" data-name="パス 19961" d="M1222.143,354.982q-5.812,27.938-26.375,51.5l-14.125-12.375c10.875-12.375,18-25.5,21.375-39.125h-39.125v-18.75h42.125c.375-4.875.625-10.375.75-16.25l-29.25,3.875-2.5-18.625,67.625-8.875,2.5,18.5-19.625,2.625c0,6.75-.25,13-.625,18.75h28.625v18.75Z" fill="none" stroke="#877877" stroke-miterlimit="10" stroke-width="3"/>
        <path id="パス_19962" data-name="パス 19962" d="M1282.393,358.482v-17.5h102.5v17.5Z" fill="none" stroke="#877877" stroke-miterlimit="10" stroke-width="3"/>
        <path id="パス_19963" data-name="パス 19963" d="M1470.268,359.357c-9.125,15.375-22.125,30-38.875,43.625l-11.875-14.5c14.875-12.25,26.5-25.125,34.625-38.75s14.125-30,18-49.125l18.375,3.875Q1483.768,336.732,1470.268,359.357Z" fill="none" stroke="#877877" stroke-miterlimit="10" stroke-width="3"/>
      </g>
    </g>
  </g>
</svg>
