<?xml version="1.0" encoding="utf-8"?>
<!-- Generator: Adobe Illustrator 25.4.1, SVG Export Plug-In . SVG Version: 6.00 Build 0)  -->
<svg version="1.1" id="レイヤー_1" xmlns="http://www.w3.org/2000/svg" xmlns:xlink="http://www.w3.org/1999/xlink" x="0px"
	 y="0px" viewBox="0 0 100 98.5" style="enable-background:new 0 0 100 98.5;" xml:space="preserve">
<style type="text/css">
	.st0{fill:#C77765;}
</style>
<polygon class="st0" points="50,39.2 41.3,0 46.6,39.8 25,5.9 43.6,41.6 11.7,17.1 41.3,44.2 3,32.1 40.2,47.5 0,49.2 40.2,51 
	3,66.3 41.3,54.2 11.7,81.4 43.6,56.9 25,92.5 46.6,58.6 41.3,98.5 50,59.2 58.7,98.5 53.4,58.6 75,92.5 56.4,56.9 88.3,81.4 
	58.7,54.2 97,66.3 59.8,51 100,49.2 59.8,47.5 97,32.1 58.7,44.2 88.3,17.1 56.4,41.6 75,5.9 53.4,39.8 58.7,0 "/>
</svg>
