<svg xmlns="http://www.w3.org/2000/svg" width="833.073" height="175.026" viewBox="0 0 833.073 175.026">
  <g id="グループ_2404" data-name="グループ 2404" transform="translate(-551.495 -1743.158)">
    <g id="グループ_308" data-name="グループ 308" transform="translate(150.401 -37.206)">
      <path id="パス_825" data-name="パス 825" d="M652.7,1856.394c0,6.776,1.12,6.663,8.848,6.663,5.488,0,13.328-.112,18.648-1.175.168,0,.392-.057.56-.057,1.008,0,1.12,1.345,1.12,2.856,0,2.016,0,3.3-1.736,3.529-3.864.559-15.288.615-19.656.615-3.752,0-10.024.224-12.432-3.248-1.4-2.071-1.456-6.44-1.456-8.9V1837.69a71.807,71.807,0,0,0-.28-7.785v-.447a.629.629,0,0,1,.672-.617c.5,0,4.648.9,5.544,1.064.392.057,1.232.168,1.232.728,0,.336-.224.5-.5.841-.5.559-.616,1.792-.616,3.36,0,.9.056,1.848.056,2.912v5.488c0,1.12.952,1.4,1.96,1.4,5.712,0,15.68-3.191,20.552-6.215.28-.113.616-.392.9-.392.56,0,1.512,1.567,1.848,2.071.448.617,2.24,3.08,2.24,3.64,0,.449-.5.561-.84.561-.224,0-.448-.057-.672-.057-.168,0-.336-.055-.448-.055a5.281,5.281,0,0,0-2.016.615c-7.224,3.024-13.832,4.929-21.728,5.32-1.064.056-1.68.448-1.792,1.569Zm36.4-23.52a5.572,5.572,0,1,1-11.144,0,5.572,5.572,0,0,1,11.144,0Zm-8.568,0a2.965,2.965,0,0,0,2.968,3.024,3,3,0,1,0,0-5.993A2.918,2.918,0,0,0,680.534,1832.874Z" transform="translate(-139.86)" fill="#877877"/>
      <path id="パス_826" data-name="パス 826" d="M726.958,1842.673c.672,0,1.344,0,1.9-.056.224,0,.56-.055.784-.055,1.288,0,3.248,1.568,3.248,2.856,0,.447-.168.728-.28,1.568-.168,1.063-.336,2.3-.392,2.576l-1.176,10.3a1.2,1.2,0,0,0,1.176,1.345h1.512c1.848,0,3.7-.113,5.6-.113,1.457,0,1.4.952,1.4,2.8,0,1.567,0,2.52-1.568,2.52-1.792,0-3.64-.113-5.432-.113h-22.9c-1.9,0-4.032.113-5.376.113-1.512,0-1.456-1.288-1.456-2.409,0-1.9.112-2.912,1.4-2.912.952,0,3.92.113,5.432.113h13.384a1.57,1.57,0,0,0,1.568-1.345l1.064-9.8c0-.168.168-1.009.168-1.121,0-.9-.785-1.175-1.512-1.175h-7.784c-1.9,0-4.088.112-5.488.112-1.288,0-1.288-.953-1.288-2.745,0-1.456-.112-2.52,1.232-2.52.952,0,3.3.056,5.544.056Z" transform="translate(-139.86)" fill="#877877"/>
      <path id="パス_827" data-name="パス 827" d="M793.934,1833.153a40.338,40.338,0,0,0,5.824-.279,2.957,2.957,0,0,1,.728-.056c.84,0,1.4.728,2.072,1.456s2.072,2.239,2.072,3.248c0,.615-.784,1.175-1.232,1.511-.336.281-4.536,4.648-5.208,5.376-1.96,2.016-4.872,4.872-6.944,6.721-.392.335-.784.783-1.344.783-.952,0-4.088-2.464-4.088-3.415,0-.56,1.008-1.345,1.4-1.68,1.008-.9,7.224-6.384,7.224-7.168s-1.232-.672-1.736-.672H768.678c-2.576,0-5.1.168-7.616.168-1.456,0-1.512-.617-1.512-2.856v-1.12c0-1.456.112-2.128,1.4-2.128,2.576,0,5.152.111,7.728.111Zm-9.8,8.96c.392.057,1.176.057,1.176.672a.853.853,0,0,1-.336.56c-.728.785-.952,2.969-1.12,4.033-1.624,10.248-5.1,17.359-13.44,23.8-.448.336-1.232,1.008-1.848,1.008-.952,0-4.592-2.911-4.592-3.92,0-.5.56-.728,1.344-1.232a26.523,26.523,0,0,0,11.7-16.3,30.024,30.024,0,0,0,.9-8.343c0-.449,0-.728.56-.728C779.206,1841.666,783.294,1842,784.134,1842.113Z" transform="translate(-139.86)" fill="#877877"/>
      <path id="パス_828" data-name="パス 828" d="M842.43,1829.458a1.042,1.042,0,0,1-.5.84,3.645,3.645,0,0,0-1.176,2.3c-.112.336-.168.673-.336,1.121a6.354,6.354,0,0,0-.336,1.4.858.858,0,0,0,.952.841c2.016,0,8.68-1.737,10.808-2.465a4.635,4.635,0,0,1,1.512-.391c.728,0,.84.784,1.064,1.568a17.9,17.9,0,0,1,.5,3.471c0,.9-.616,1.064-2.016,1.345-3.024.56-9.632,1.567-12.768,1.9-1.848.225-1.9.617-2.576,3.248-.168.785-.448,1.792-.784,3.024a3.177,3.177,0,0,0-.168,1.009c0,.336.168.5.56.5a1.175,1.175,0,0,0,.616-.225c3.36-1.9,5.88-3.023,9.8-3.023,6.888,0,11.368,4.7,11.368,11.591,0,7.056-4.816,11.369-11.312,13.1a51.227,51.227,0,0,1-11.7,1.568c-1.848,0-2.128-.28-2.464-1.455a17.289,17.289,0,0,1-.728-3.7,1.116,1.116,0,0,1,1.176-1.175c.728,0,2.408.391,4.536.391,5.824,0,14.728-1.68,14.728-9.072,0-3.3-2.184-5.823-5.544-5.823a18.417,18.417,0,0,0-13.552,7c-.392.5-.9,1.232-1.568,1.232-1.288,0-4.48-1.569-4.48-3.137a7.891,7.891,0,0,1,.784-2.463,56.532,56.532,0,0,0,3.08-9.3,6.217,6.217,0,0,0,.28-1.4.809.809,0,0,0-.9-.841c-.336,0-.84.057-1.176.057-1.288.056-5.656.56-6.776.56a1.315,1.315,0,0,1-1.456-1.121,17,17,0,0,1-.616-3.695c0-1.456.9-1.4,1.176-1.4.784,0,4.088.223,6.328.223,3.976,0,4.592-.168,5.1-1.343a53.871,53.871,0,0,0,1.176-7.113c.112-.783.056-2.015.952-2.015C836.55,1826.6,842.43,1828.226,842.43,1829.458Z" transform="translate(-139.86)" fill="#877877"/>
      <path id="パス_829" data-name="パス 829" d="M889.246,1842.17l.84.336c1.064.447,1.792.616,1.792,1.231,0,.393-.224.561-.5.785a2.059,2.059,0,0,0-.84,1.232,37.15,37.15,0,0,0-.728,4.815c0,.28.056.617.392.617.28,0,.448-.337.56-.56a21.976,21.976,0,0,1,4.76-5.432,13.026,13.026,0,0,1,4.536-2.353c.56-.168,1.232-.335,1.232-1.288a22.687,22.687,0,0,0-.9-3.471,2.956,2.956,0,0,1-.224-.952c0-.785,1.064-.84,1.624-.84,3.92,0,4.592.223,4.592.951a1.583,1.583,0,0,1-.336.841,1.4,1.4,0,0,0-.224.783,14.477,14.477,0,0,0,.336,2.073,1.546,1.546,0,0,0,1.4,1.288c.9.223,1.736.391,2.576.672,4.928,1.792,7.5,6.047,7.5,11.2,0,6.721-4.648,12.825-11.76,12.88-1.064,0-1.344.448-1.736,1.344-.56,1.176-2.52,5.04-3.976,5.04-.784,0-3.36-1.959-3.36-2.855a1.256,1.256,0,0,1,.448-.841c.56-.672,2.184-2.743,2.184-3.528,0-.615-.5-.9-.952-1.175a11.511,11.511,0,0,1-4.648-9.128c0-1.96,2.576-2.184,3.024-2.184,1.008,0,1.064.728,1.064,1.175.224,4.256,2.24,5.768,2.968,5.768a.777.777,0,0,0,.672-.56,41.157,41.157,0,0,0,.84-7.951c0-3.7-.224-4.761-1.12-4.761-.84,0-3.136,1.4-3.864,1.96-3.752,2.8-6.832,8.177-6.832,12.88a10.169,10.169,0,0,0,.336,2.576,4.345,4.345,0,0,1,.112.84c0,1.288-2.912,1.848-3.64,1.848-1.064,0-1.344-1.231-1.68-2.856a47.99,47.99,0,0,1-.9-9.8,60.351,60.351,0,0,1,.952-10.529c.112-.672.224-1.232.336-1.96.056-.392.28-.839.728-.839A10.611,10.611,0,0,1,889.246,1842.17ZM907,1847.938c0,.56.168,3.192.168,4.648a50.078,50.078,0,0,1-.672,7.671,4.955,4.955,0,0,0-.168.785.84.84,0,0,0,.9.84c2.128,0,5.544-2.745,5.544-7.785,0-5.208-3.808-6.944-4.984-6.944A.686.686,0,0,0,907,1847.938Z" transform="translate(-139.86)" fill="#877877"/>
      <path id="パス_830" data-name="パス 830" d="M970.558,1833.938c0,.392-.617.728-1.233,1.175a54.332,54.332,0,0,0-8.119,7.5,1.672,1.672,0,0,0-.56.952c0,.449.448.729.952.729a3.35,3.35,0,0,0,.728-.112,10.635,10.635,0,0,1,2.3-.224,16.414,16.414,0,0,1,6.888,1.68,11.573,11.573,0,0,1,6.664,10.864c0,9.912-8.792,15.063-17.808,15.063-4.648,0-11.256-1.9-11.256-7.616a7.032,7.032,0,0,1,7.168-6.776,9.137,9.137,0,0,1,7.448,3.976,5.576,5.576,0,0,1,1.007,3.584c.057.393.225.728.672.728,1.456,0,6.777-2.968,6.777-8.624,0-5.432-4.592-7.671-9.464-7.671-5.1,0-8.96,1.96-12.544,5.487-2.184,2.128-4.2,4.424-6.216,6.721a.762.762,0,0,1-.616.392c-1.176,0-4.032-3.137-4.032-4.033,0-.671.84-1.288,1.344-1.68a224.381,224.381,0,0,0,17.416-17.583c.448-.448,1.456-1.456,1.456-2.016,0-.5-.505-.673-.952-.673-.28,0-1.008.169-1.345.224-1.343.336-9.239,1.96-10.135,1.96-1.232,0-1.4-4.2-1.4-5.151,0-1.289.056-1.4,1.736-1.4h1.344c3.584,0,10.92-.785,14.167-2.073a7.69,7.69,0,0,1,2.128-.615C967.31,1828.73,970.558,1832.986,970.558,1833.938Zm-14.168,27.776a2.319,2.319,0,0,0-2.408,2.239c0,2.016,2.688,2.969,4.368,2.969,1.064,0,1.512-1.009,1.512-1.905A3.421,3.421,0,0,0,956.39,1861.714Z" transform="translate(-139.86)" fill="#877877"/>
      <path id="パス_831" data-name="パス 831" d="M1004.494,1851.073a173.343,173.343,0,0,1,11.7-19.767c.84-1.344,1.569-2.52,2.3-3.864.168-.28.448-.84.841-.84.5,0,2.575,1.679,3.136,2.128.559.392,2.576,1.792,2.576,2.407s-.5.841-1.009.9a2.436,2.436,0,0,0-1.456.728,55.6,55.6,0,0,0-3.527,4.593c-.784,1.064-5.657,8.175-5.657,8.96a.6.6,0,0,0,.561.56,2.238,2.238,0,0,0,1.008-.392,12.57,12.57,0,0,1,5.935-1.905c2.241,0,4.985,1.177,5.937,3.3a9.382,9.382,0,0,1,.615,3.527,29.475,29.475,0,0,1-.727,5.432,32.021,32.021,0,0,0-.9,5.488c0,.952.336,2.128,1.456,2.128,3.137,0,8.456-6.776,10.193-9.24.28-.335.671-.784,1.12-.784,1.007,0,2.912,4.425,2.912,5.208a2.158,2.158,0,0,1-.616,1.232c-1.289,1.288-2.577,2.576-3.92,3.808-3.08,2.8-6.888,5.88-11.256,5.88-3.977,0-5.6-3.415-5.6-6.944a35.98,35.98,0,0,1,.729-6.5,25.212,25.212,0,0,0,.616-4.535c0-1.456-.5-2.577-2.128-2.577a10.438,10.438,0,0,0-4.816,1.568,16.629,16.629,0,0,0-5.712,5.1c-2.241,3.024-4.2,8.121-5.153,11.76-.168.728-.279,1.737-1.231,1.737-.9,0-5.376-1.624-5.376-2.577,0-.056.952-2.352,1.008-2.463C1000.127,1860.425,1002.2,1855.721,1004.494,1851.073Z" transform="translate(-139.86)" fill="#877877"/>
      <path id="パス_832" data-name="パス 832" d="M1070.462,1859.026c0,1.4.112,2.3,1.12,2.3a24.164,24.164,0,0,0,4.592-1.792,77.656,77.656,0,0,0,21.5-14.728c.336-.336.84-.9,1.343-.9.9,0,2.8,3.7,2.8,4.816a1.628,1.628,0,0,1-.616,1.009c-1.232,1.232-2.576,2.352-3.92,3.471a100.266,100.266,0,0,1-24.64,14.56,20.892,20.892,0,0,0-1.96.9,3.343,3.343,0,0,1-1.4.56,19.7,19.7,0,0,1-4.424-2.071c-.672-.505-.728-1.009-.728-1.961,0-1.9.112-3.975.112-6.048v-22.792c0-1.232,0-2.463-.056-3.416-.056-.391-.169-1.568-.169-1.847a.6.6,0,0,1,.617-.673,11.835,11.835,0,0,1,1.176.169c.9.112,3.7.559,4.536.783.5.113,1.176.168,1.176.729,0,.335-.28.5-.505.728a2.153,2.153,0,0,0-.5,1.735c-.056.841-.056,1.737-.056,2.633Z" transform="translate(-139.86)" fill="#877877"/>
      <path id="パス_833" data-name="パス 833" d="M1161.238,1843.794c0,.951-2.24,3.135-2.967,3.863-9.073,9.352-18.592,15.624-30.409,21.112-1.847.9-1.9.952-2.351,1.9a.563.563,0,0,1-.561.336c-.616,0-1.792-2.24-2.183-2.912a15.683,15.683,0,0,1-1.681-3.36c0-.616,1.009-.728,1.736-.952,12.376-3.639,26.376-14.223,34.328-24.36a1.376,1.376,0,0,1,.953-.615C1159.223,1838.81,1161.238,1842.953,1161.238,1843.794Zm-28.9-9.241c.728.505,3.416,2.352,3.416,3.193,0,1.287-2.632,4.312-3.7,4.312a6,6,0,0,1-2.241-1.512,69.593,69.593,0,0,0-7.448-5.208c-.447-.28-.9-.561-.9-1.064,0-.84,2.24-4.424,3.527-4.424C1125.9,1829.85,1131.278,1833.77,1132.342,1834.553Z" transform="translate(-139.86)" fill="#877877"/>
      <path id="パス_834" data-name="パス 834" d="M1203.854,1833.489c.953,0,3.193,0,4.033-.111a8.983,8.983,0,0,1,1.231-.112c1.177,0,3.584,3.024,3.584,3.752,0,.447-.672,1.232-.9,1.624-.785,1.119-1.68,2.743-2.409,3.975a83.591,83.591,0,0,1-6.1,8.681,1.607,1.607,0,0,0-.5,1.12,1.477,1.477,0,0,0,.84,1.287,84.729,84.729,0,0,1,9.464,7.224c1.4,1.232,2.744,2.464,4.032,3.752a1.253,1.253,0,0,1,.447.841c0,1.232-3.08,4.535-4.311,4.535a1.838,1.838,0,0,1-1.344-.9c-4.032-4.759-7.448-7.447-12.433-11.088a2.161,2.161,0,0,0-1.231-.5c-.84,0-1.513.785-2.072,1.344a58.424,58.424,0,0,1-13.945,9.633,8.776,8.776,0,0,1-2.183.839c-1.12,0-3.7-3.7-3.7-4.7,0-.728.729-1.008,1.288-1.232,9.745-3.752,19.544-12.6,25.033-21.447a3.558,3.558,0,0,0,.727-1.624c0-.84-.951-.953-1.792-.953H1190.19c-2.408,0-4.815.113-7.168.113-1.511,0-1.4-1.009-1.4-3.193,0-2.015-.112-3.024,1.288-3.024,2.407,0,4.871.168,7.279.168Zm14.9,0c0,.841-1.96,2.577-2.688,2.577-.336,0-.672-.5-1.233-1.121-1.119-1.343-2.351-2.631-3.584-3.863-.224-.224-.5-.449-.5-.784,0-.616,2.072-2.3,2.744-2.3C1214.047,1828,1218.751,1832.761,1218.751,1833.489Zm5.544-3.807c0,.783-1.9,2.519-2.689,2.519-.28,0-.559-.336-.727-.559a59.353,59.353,0,0,0-4.032-4.368c-.225-.225-.5-.5-.5-.785,0-.671,2.071-2.351,2.687-2.351C1219.591,1824.138,1224.3,1828.9,1224.3,1829.682Z" transform="translate(-139.86)" fill="#877877"/>
      <path id="パス_835" data-name="パス 835" d="M1237.79,1834.666c8.176-.5,16.352-1.345,24.472-2.3,4.256-.505,8.511-1.064,12.712-1.737a3.247,3.247,0,0,1,.728-.055c.84,0,.952.728,1.064,1.4a25.45,25.45,0,0,1,.5,4.088c0,1.232-1.176,1.12-2.52,1.175-3.248.057-6.1.057-9.3,1.177a17.02,17.02,0,0,0-9.52,8.343,20.971,20.971,0,0,0-2.688,9.856c0,6.5,4.144,8.064,9.856,8.064.952,0,2.184-.055,2.8-.055.84,0,1.287.055,1.287.951a15.861,15.861,0,0,1-.839,4.593c-.392.839-.84.951-1.792.951-9.52,0-17.7-3.024-17.7-13.944a24.868,24.868,0,0,1,6.16-16.071c.616-.672.952-1.064.952-1.345,0-.5-.448-.671-.84-.671s-2.968.448-3.528.5c-3.752.56-8.792,1.345-12.376,2.3a4.331,4.331,0,0,1-.84.113c-.784,0-1.064-1.232-1.232-1.849a25.087,25.087,0,0,1-.616-4.031C1234.542,1834.666,1235.326,1834.834,1237.79,1834.666Zm37.184,13.663c0,.841-2.24,2.352-2.856,2.352-.392,0-.56-.391-.784-.672-1.12-1.624-2.352-3.191-3.584-4.7-.168-.168-.5-.5-.5-.783,0-.672,2.24-2.073,2.856-2.073S1274.974,1847.657,1274.974,1848.329Zm6.776-3.079c0,.783-2.185,2.352-2.856,2.352-.392,0-.616-.449-.84-.728a47.259,47.259,0,0,0-3.64-4.648,1.343,1.343,0,0,1-.393-.728c0-.673,2.185-2.129,2.857-2.129C1277.438,1839.369,1281.75,1844.577,1281.75,1845.25Z" transform="translate(-139.86)" fill="#877877"/>
      <path id="パス_836" data-name="パス 836" d="M436.71,1925.823c0,1.121.448,1.568,1.568,1.568h3.64c2.352,0,4.648-.112,6.944-.112,1.4,0,1.344.672,1.344,2.744,0,2.128.056,2.744-1.344,2.744-2.3,0-4.648-.112-6.944-.112h-3.64c-1.12,0-1.568.448-1.568,1.568v10.528c0,1.344.112,2.688.112,4.088,0,5.6-6.328,6.328-10.64,6.328-.952,0-2.576,0-3.136-.784a8.221,8.221,0,0,1-1.008-3.808c0-.728.224-1.68,1.12-1.68a11.809,11.809,0,0,1,1.4.112c.672.056,1.4.056,2.072.056,3.808,0,4.032-.728,4.032-4.312v-10.528c0-1.12-.448-1.568-1.568-1.568H409.382c-2.352,0-4.648.112-7,.112-1.344,0-1.288-.672-1.288-2.744,0-2.128,0-2.744,1.288-2.744,2.352,0,4.648.112,7,.112h19.712c1.12,0,1.568-.447,1.568-1.568v-2.016a20.482,20.482,0,0,0-.224-3.7v-.5c0-.672.448-.784,1.008-.784,1.008,0,3.864.28,4.984.392.56.056,1.624.056,1.624.784,0,.336-.28.5-.728.841-.56.391-.616,1.231-.616,2.687Zm2.352-14.112c2.072,0,4.088-.056,6.16-.056,1.568,0,3.136.448,3.136,2.3,0,.672-.112,1.9-.112,3.192v3.192c0,.84.112,1.792.112,2.52,0,1.4-.784,1.344-2.968,1.344-2.128,0-3.024.056-3.024-1.288,0-.616.112-1.792.112-2.576v-1.848c0-1.064-.448-1.568-1.568-1.568H410.446c-1.064,0-1.568.448-1.568,1.568v1.736c0,.784.168,2.016.168,2.632,0,1.344-1.12,1.288-3.024,1.288-2.016,0-2.968,0-2.968-1.344,0-.728.112-1.736.112-2.576v-3.08c0-1.344-.056-2.52-.056-3.192,0-2.016,1.568-2.352,4.48-2.352,1.288,0,2.912.112,4.76.112h8.512c1.12,0,1.568-.448,1.568-1.512v-.56a22.58,22.58,0,0,0-.224-3.36v-.56c0-.671.5-.784,1.064-.784,1.232,0,3.752.224,5.04.336.616.112,1.736.112,1.736.84,0,.393-.336.561-.672.84-.728.5-.728,1.345-.672,3.248,0,1.064.448,1.512,1.568,1.512Zm-22.736,35.672c-.56,0-.84-.5-1.176-1.064a85.961,85.961,0,0,0-5.992-8.064,1.875,1.875,0,0,1-.616-1.12c0-.952,3.024-2.912,4.032-2.912a1.6,1.6,0,0,1,1.064.616c.56.56,3.416,4.256,3.976,4.984s2.856,3.864,2.856,4.536C420.47,1945.423,417.39,1947.383,416.326,1947.383Z" fill="#877877"/>
      <path id="パス_837" data-name="パス 837" d="M479.438,1912.663c0,.336-.392.616-.672.728a2.571,2.571,0,0,0-1.064,1.12,22.234,22.234,0,0,0-1.624,4.7,29.521,29.521,0,0,0-.728,6.272c0,.448-.056,2.856.56,2.856.448,0,.784-.9,1.008-1.456.28-.616,1.288-3.024,1.96-3.024.5,0,2.184,1.008,2.184,1.736,0,.168-.84,2.128-1.344,3.472l-.5,1.344c-.784,2.128-1.848,4.7-1.848,6.944,0,.784.112,1.4.112,1.792,0,1.568-2.968,2.24-4.032,2.24-1.232,0-1.624-1.008-1.96-2.072a46.5,46.5,0,0,1-1.848-13.048,52.661,52.661,0,0,1,1.288-11.48c.336-1.4.728-2.743.952-4.144.056-.391.224-1.4.728-1.4.168,0,2.632,1.009,3.024,1.176C476.862,1910.984,479.438,1912.048,479.438,1912.663Zm17.7-4.872c1.064,0,1.176.673,1.4,1.512a74.1,74.1,0,0,1,1.736,16.128c0,9.688-1.624,17.92-8.68,25.088-.9.9-3.192,3.136-4.48,3.136-.9,0-4.144-2.744-4.144-3.92,0-.448.5-.784.84-.952a21.284,21.284,0,0,0,7.616-8.736c2.072-4.424,2.576-9.352,2.576-14.112a54.372,54.372,0,0,0-1.96-15.624,3.269,3.269,0,0,1-.112-.728C491.926,1908.351,496.518,1907.791,497.134,1907.791Z" fill="#877877"/>
      <path id="パス_838" data-name="パス 838" d="M544.79,1906.727c.5.168,2.072.56,2.072,1.176,0,.28-.336.448-.5.561-.84.5-.9.728-1.288,1.959-.168.616-1.344,4.7-1.344,4.984a.825.825,0,0,0,.84.84c1.008,0,5.376-1.624,6.5-2.072a3.008,3.008,0,0,1,1.176-.28c1.12,0,1.12,3.416,1.12,4.257,0,.951-.112,1.735-1.064,2.015a84.252,84.252,0,0,1-9.184,2.184c-1.624.336-1.792.616-2.3,2.184a174.469,174.469,0,0,1-10.416,24.7c-.728,1.344-1.176,2.128-2.016,2.128-.9,0-4.76-1.792-4.76-3.024a4.18,4.18,0,0,1,.952-1.848c3.528-5.04,7.728-14.784,9.912-20.72a8.542,8.542,0,0,0,.448-1.456c0-.56-.448-.84-1.008-.84-.784,0-3.248.28-4.984.28-1.12,0-2.016.056-2.352-1.008a24.042,24.042,0,0,1-.448-4.088c0-.616.168-1.008.84-1.008.5,0,2.856.224,5.264.224,3.584,0,4.424-.056,4.928-.9.672-1.12,2.016-8.568,2.072-10.192.056-.839.056-1.4.616-1.4C540.366,1905.383,544.062,1906.5,544.79,1906.727Zm-.784,36.12c2.464,2.744,6.72,3.248,10.136,3.248a25.3,25.3,0,0,0,7.952-1.12,1.989,1.989,0,0,1,.56-.112c.952,0,.952,1.288.952,3.528,0,1.12.056,2.408-.616,2.8-1.008.448-7.336.728-8.736.728-3.7,0-8.848-.448-11.984-2.52-.9-.616-2.744-2.016-2.744-3.192,0-.84,2.576-4.144,3.472-4.144C543.39,1942.063,543.782,1942.567,544.006,1942.847Zm6.832-18.088c2.968,0,8.456.5,11.256,1.568a1.054,1.054,0,0,1,.784,1.12,14.067,14.067,0,0,1-1.064,3.92c-.224.5-.448.728-1.008.728a3.008,3.008,0,0,1-1.176-.28,25.142,25.142,0,0,0-8.9-1.4c-.728,0-1.4.056-2.128.056-1.12,0-1.4-.28-1.4-1.232C547.2,1924.423,548.206,1924.759,550.838,1924.759Z" fill="#877877"/>
      <path id="パス_839" data-name="パス 839" d="M614.622,1913.5c0,.56-.784.5-1.176.5a2.5,2.5,0,0,0-1.512.672q-2.1,1.512-4.2,3.192c-3.136,2.576-6.328,5.152-9.24,7.952-1.064,1.008-2.3,2.128-2.3,3.192,0,1.4,1.848,3.416,2.8,4.424,3.192,3.416,6.664,6.552,10.136,9.632.952.84,4.816,3.976,4.816,5.1,0,1.344-3.416,4.536-4.76,4.536-.616,0-1.4-1.008-1.736-1.456-2.128-2.52-4.48-4.872-6.776-7.224-3.024-3.024-6.1-6.048-8.848-9.3-1.568-1.792-2.688-3.416-2.688-5.936a6.358,6.358,0,0,1,1.232-3.864c1.4-1.848,5.264-4.983,7.224-6.552,3.3-2.743,7.84-6.552,10.472-9.911.224-.281.5-.673.84-.673.728,0,2.352,1.9,2.968,2.52C612.382,1910.816,614.622,1912.887,614.622,1913.5Z" fill="#877877"/>
      <path id="パス_840" data-name="パス 840" d="M662.726,1907.568c.28.111.9.279.9.671s-.392.616-.9,1.008c-.448.392-.84,2.352-1.008,2.968a18.126,18.126,0,0,0-.616,2.521.652.652,0,0,0,.616.728,27.119,27.119,0,0,0,3.192-.841,2.024,2.024,0,0,1,.56-.112c.672,0,.728,1.008.84,1.681a26.548,26.548,0,0,1,.28,2.967c0,1.232-.672,1.344-5.824,2.3-2.016.336-1.96.728-2.632,2.576a142.492,142.492,0,0,1-9.128,19.936c-.336.56-.5.784-1.12.784-1.232,0-4.984-1.624-4.984-2.8a6.2,6.2,0,0,1,1.008-2.016A104.568,104.568,0,0,0,650.574,1927a21.889,21.889,0,0,0,1.288-3.416.754.754,0,0,0-.784-.728c-.448,0-4.76.56-6.048.56-.952,0-1.176-.5-1.4-1.792-.112-.672-.392-2.688-.392-3.248,0-.728.392-.9,1.008-.9h2.576a49.727,49.727,0,0,0,5.768-.28c.728-.112,1.232-.168,1.68-.9.84-1.4,1.792-7.616,1.792-9.408,0-.391,0-.951.5-.951C657.182,1905.944,661.83,1907.287,662.726,1907.568Zm8.064,16.687c.616.168,1.12.5,1.12,1.176,0,.112-.112,1.792-.112,2.968,0,1.624.28,9.688.56,10.864.168.84.9,1.064,1.736,1.4.168.056.392.168.56.224,1.288.5,7.9,3.584,7.9,4.928,0,.9-2.072,4.088-3.472,4.088-.56,0-1.064-.5-1.456-.784-.84-.616-3.584-2.576-4.48-2.576-.616,0-.84.784-.9,1.288-.672,4.088-3.976,5.488-7.784,5.488-4.536,0-9.856-2.408-9.856-7.616,0-5.152,4.872-6.944,9.3-6.944h1.456c.672,0,1.176-.28,1.176-.952,0-1.792-.84-9.912-1.008-12.1,0-.28-.056-.5-.056-.784,0-.9.5-1.232,1.344-1.232A23.447,23.447,0,0,1,670.79,1924.255Zm-10.472,21.336c0,1.736,2.24,2.632,3.7,2.632,2.016,0,2.912-1.064,2.912-3.024,0-1.12-.056-1.736-2.856-1.736C662.726,1943.463,660.318,1943.8,660.318,1945.591ZM684.79,1924.2c0,1.344-3.192,3.864-4.2,3.864-.56,0-.952-.616-1.232-1.008a31.749,31.749,0,0,0-7-7.224c-.224-.168-.728-.5-.728-.9,0-.783,2.576-3.864,3.752-3.864C676.782,1915.071,684.79,1922.743,684.79,1924.2Z" fill="#877877"/>
      <path id="パス_841" data-name="パス 841" d="M705.51,1927.951a42.373,42.373,0,0,0,5.152-1.68c4.984-1.792,10.864-4.032,16.128-4.032,6.552,0,11.647,4.2,11.647,10.976,0,6.944-5.1,11.2-10.975,13.72-1.96.84-6.552,2.352-8.624,2.352-1.848,0-2.632-3.808-2.632-4.256,0-.952,1.064-1.064,1.792-1.12a25.187,25.187,0,0,0,9.576-2.8c2.968-1.68,5.488-4.424,5.488-8.008,0-3.64-2.856-5.656-6.272-5.656-5.432,0-12.712,3.08-17.472,5.656a2.943,2.943,0,0,1-1.568.56c-1.456,0-3.472-3.36-3.472-4.536C704.278,1928.4,704.894,1928.119,705.51,1927.951Z" fill="#877877"/>
      <path id="パス_842" data-name="パス 842" d="M783.07,1909.863a1.039,1.039,0,0,1-.5.84,3.65,3.65,0,0,0-1.176,2.3c-.112.336-.168.673-.336,1.12a6.362,6.362,0,0,0-.336,1.4.858.858,0,0,0,.952.841c2.016,0,8.68-1.737,10.808-2.465a4.636,4.636,0,0,1,1.512-.392c.728,0,.84.784,1.064,1.568a17.9,17.9,0,0,1,.5,3.472c0,.9-.616,1.064-2.016,1.344-3.024.56-9.632,1.568-12.768,1.9-1.848.224-1.9.616-2.576,3.248-.168.784-.448,1.792-.784,3.024a3.171,3.171,0,0,0-.168,1.008c0,.336.168.5.56.5a1.174,1.174,0,0,0,.616-.224c3.36-1.9,5.88-3.024,9.8-3.024,6.888,0,11.368,4.7,11.368,11.592,0,7.056-4.816,11.368-11.312,13.1a51.227,51.227,0,0,1-11.7,1.568c-1.848,0-2.128-.28-2.464-1.456a17.268,17.268,0,0,1-.728-3.7,1.117,1.117,0,0,1,1.176-1.176c.728,0,2.408.392,4.536.392,5.824,0,14.728-1.68,14.728-9.072,0-3.3-2.184-5.824-5.544-5.824a18.42,18.42,0,0,0-13.552,7c-.392.5-.9,1.232-1.568,1.232-1.288,0-4.48-1.568-4.48-3.136a7.906,7.906,0,0,1,.784-2.464,56.5,56.5,0,0,0,3.08-9.3,6.206,6.206,0,0,0,.28-1.4.809.809,0,0,0-.9-.84c-.336,0-.84.056-1.176.056-1.288.056-5.656.56-6.776.56a1.315,1.315,0,0,1-1.456-1.12,16.983,16.983,0,0,1-.616-3.7c0-1.456.9-1.4,1.176-1.4.784,0,4.088.223,6.328.223,3.976,0,4.592-.168,5.1-1.344a53.853,53.853,0,0,0,1.176-7.111c.112-.785.056-2.017.952-2.017C777.19,1907.007,783.07,1908.632,783.07,1909.863Z" fill="#877877"/>
      <path id="パス_843" data-name="パス 843" d="M836.55,1923.3c-.616-.168-1.344-.336-1.344-1.064,0-.56,1.008-3.752,2.24-3.752a35.281,35.281,0,0,1,5.488,1.848c.784.336,2.184.784,2.184,1.68a3.665,3.665,0,0,1-.336,1.345.788.788,0,0,0-.112.335c0,.56.392.672.84.616a16.771,16.771,0,0,1,3.752-.448c4.816,0,8.512,2.688,8.512,7.784,0,4.592-3.024,7.224-6.944,8.9a19.4,19.4,0,0,1-5.1,1.456c-1.4,0-2.52-3.08-2.52-3.752,0-1.064,1.12-1.064,2.24-1.288,2.632-.448,7.168-1.9,7.168-5.208,0-2.128-1.68-3.192-3.64-3.192-3.248,0-8.12,2.52-10.808,4.256a1.415,1.415,0,0,0-.84,1.288c0,1.232,6.272,11.368,7.336,13.048a4.9,4.9,0,0,1,.952,1.96c0,1.064-3.136,2.576-4.032,2.576-.616,0-.9-.448-1.176-.9-.5-.952-.952-1.9-1.4-2.8-1.68-3.192-3.416-6.272-5.04-9.464-.392-.784-.728-1.512-1.512-1.512s-3.584,2.408-4.312,3.024c-.28.168-.616.5-.952.5-1.064,0-3.024-3.024-3.024-4.032,0-.616.616-.9,1.064-1.12.5-.336,3.64-2.3,4.032-2.632a1.552,1.552,0,0,0,.728-1.288c0-.952-2.128-4.368-2.8-5.152a2.248,2.248,0,0,1-.672-1.232c0-.56.728-.84,2.464-1.456.448-.168,1.064-.392,1.736-.672a4.446,4.446,0,0,1,1.232-.335.8.8,0,0,1,.784.615,1.337,1.337,0,0,1-.112.5,1.093,1.093,0,0,0-.056.392,22.446,22.446,0,0,0,1.456,3.752,1.406,1.406,0,0,0,1.176.9,3.083,3.083,0,0,0,1.4-.56c1.12-.616,3.192-1.736,4.368-2.3a.689.689,0,0,0,.392-.616.665.665,0,0,0-.448-.56A44.341,44.341,0,0,0,836.55,1923.3Z" fill="#877877"/>
      <path id="パス_844" data-name="パス 844" d="M915.062,1932.039c0,8.792-6.5,15.736-13.608,20.048-.952.56-3.752,2.072-4.816,2.072-1.68,0-3.976-3.808-3.976-4.7,0-.56.616-.784,1.12-.952,6.72-2.128,15.008-8.232,15.008-16.016,0-4.76-3.024-7.728-7.784-7.728-4.7,0-8.512,2.352-11.984,5.264a2.54,2.54,0,0,1-1.176.56c-1.344,0-3.136-4.032-3.136-5.32,0-.9,1.008-1.4,1.68-1.736,4.48-2.464,9.744-4.536,14.952-4.536C909.294,1918.991,915.062,1923.807,915.062,1932.039Zm-23.24-23.8c.224-.5.448-1.064,1.12-1.064a1.966,1.966,0,0,1,.9.336c3.528,1.513,10.136,2.408,14,2.8.784.056,1.4.056,1.4.9a24.122,24.122,0,0,1-.56,3.416c-.28,1.12-.616,1.68-1.512,1.68-1.792,0-10.752-1.96-12.88-2.52-2.352-.616-3.584-.9-3.584-1.792A13.12,13.12,0,0,1,891.822,1908.239Z" fill="#877877"/>
      <path id="パス_850" data-name="パス 850" d="M1262.99,1914.679c1.12,0,1.568-.448,1.568-1.568v-2.464a34.657,34.657,0,0,0-.168-4.2,2.3,2.3,0,0,1-.056-.616c0-.672.5-.728,1.008-.728,1.008,0,4.48.224,5.544.337.448.055.952.168.952.671,0,.393-.28.5-.728.84-.672.449-.728,1.345-.728,3.36v2.856c0,1.064.5,1.512,1.568,1.512h2.407c2.017,0,4.089-.111,5.937-.111,1.176,0,1.176.783,1.176,2.743,0,2.072-.056,2.744-1.176,2.744-1.68,0-3.976-.111-5.937-.111h-2.407c-1.12,0-1.568.447-1.568,1.567v23.3c0,2.912.168,5.768.168,8.68,0,1.848-.672,1.9-3.08,1.9-2.352,0-3.08-.056-3.08-1.848v-.392c0-1.064-.448-1.4-1.512-1.512H1250.5c-1.064,0-1.512.448-1.512,1.512-.056,2.016-.392,2.128-3.024,2.128-2.352,0-3.08-.056-3.08-1.792,0-2.968.168-5.88.168-8.792v-23.184c0-1.12-.5-1.567-1.568-1.567H1239.3c-1.96,0-4.088.111-5.936.111-1.176,0-1.176-.784-1.176-2.744,0-2.016,0-2.743,1.176-2.743,1.68,0,3.976.111,5.936.111h2.184c1.064,0,1.568-.448,1.568-1.568v-2.576a36.1,36.1,0,0,0-.224-4.256,1.909,1.909,0,0,1-.056-.56c0-.671.5-.728,1.008-.728,1.176,0,3.808.224,5.04.28.56.056,1.456.056,1.456.728,0,.392-.28.505-.728.841-.672.447-.728,1.511-.728,3.359v2.968c.112,1.064.5,1.512,1.568,1.512Zm-14.168,13.888a1.6,1.6,0,0,0,1.568,1.568h12.6a1.6,1.6,0,0,0,1.568-1.568v-7.056a1.564,1.564,0,0,0-1.568-1.567h-12.6a1.564,1.564,0,0,0-1.568,1.567Zm0,16.3c0,1.064.5,1.456,1.568,1.568h12.6c1.12-.112,1.568-.5,1.568-1.568v-7.9c0-1.12-.448-1.568-1.568-1.568h-12.6c-1.064,0-1.568.448-1.568,1.568Z" transform="translate(-297)" fill="#877877"/>
      <path id="パス_851" data-name="パス 851" d="M1323.022,1909.3c.392.168.953.392.953.953,0,.391-.225.615-.393.951a7.509,7.509,0,0,0-.952,3.64c0,.112-.056.392-.056.5,0,1.12,1.065,1.232,1.848,1.456,7.673,1.96,12.881,7.448,12.881,15.568,0,9.464-6.441,15.232-14.449,19.04a8.294,8.294,0,0,1-2.8.952c-1.288,0-3.529-3.416-3.529-4.536,0-.672.84-.84,1.737-1.12,6.5-2.128,13.159-6.888,13.159-14.448,0-7.616-7.336-10.248-8.9-10.248-.785,0-1.121.728-1.233,1.345a41.755,41.755,0,0,1-7.168,17.023c-2.855,3.808-7.391,7.672-12.376,7.672-5.208,0-6.943-5.432-6.943-9.744a20.253,20.253,0,0,1,5.208-13.832,1.677,1.677,0,0,0,.615-1.288,3.954,3.954,0,0,0-.336-1.344c-.784-2.352-1.4-4.76-2.183-7.168a3.719,3.719,0,0,1-.168-.839c0-.505.448-.785.895-.9a28.375,28.375,0,0,1,4.424-1.121c.9,0,.952.9,1.064,1.624.224,1.344.672,3.472,1.008,4.76.168.5.393.9,1.008.9a1.885,1.885,0,0,0,.952-.28,23.327,23.327,0,0,1,7.448-2.463c1.905-.281,2.016-.617,2.016-4.873,0-.84-.056-1.68-.056-2.463,0-.56.113-1.009.785-1.009A34.343,34.343,0,0,1,1323.022,1909.3Zm-15.959,28.9c-1.121-2.3-2.185-4.536-3.193-6.888-.111-.28-.391-.784-.784-.784-.9,0-2.632,4.144-2.632,7.728,0,1.456.225,4.088,2.128,4.088,1.624,0,4.7-2.016,4.7-3.3A2.075,2.075,0,0,0,1307.063,1938.2Zm.616-12.6c0,.728,1.9,5.208,2.3,6.1.5,1.12.727,1.792,1.288,1.792,1.456,0,4.311-9.24,4.311-10.808a.709.709,0,0,0-.784-.784C1313.446,1921.9,1307.679,1923.751,1307.679,1925.6Z" transform="translate(-297)" fill="#877877"/>
      <path id="パス_852" data-name="パス 852" d="M1391.51,1916.863a18.941,18.941,0,0,1,5.656,13.776,20.121,20.121,0,0,1-10.92,18.088c-1.288.672-4.761,2.24-6.1,2.24-1.456,0-3.752-3.472-3.752-4.7,0-.56.839-.672,1.4-.784,7.336-1.736,13.1-6.552,13.1-14.56,0-5.992-3.136-11.368-8.96-13.384a9.773,9.773,0,0,0-2.128-.5c-1.288,0-1.288,1.232-1.344,2.184-.616,8.176-2.576,18.144-7.952,24.584-1.848,2.24-4.313,4.312-7.392,4.312-3.416,0-6.1-2.464-7.616-5.32a17.555,17.555,0,0,1-1.736-7.952c0-13.1,10.024-23.52,23.24-23.52C1382.494,1911.319,1387.533,1912.944,1391.51,1916.863Zm-21.784,1.624a17.327,17.327,0,0,0-10.08,16.128c0,2.072.728,7.28,3.583,7.28,2.8,0,5.937-6.384,7.5-12.1a56.86,56.86,0,0,0,1.792-10.92c0-.56-.279-1.008-.9-1.008A6.3,6.3,0,0,0,1369.726,1918.487Z" transform="translate(-297)" fill="#877877"/>
      <path id="パス_853" data-name="パス 853" d="M1418.446,1946.151c-1.008,0-1.456.448-1.511,1.512,0,.616.055,1.232.055,1.848,0,1.456-.84,1.344-2.744,1.344-2.128,0-2.744.056-2.744-1.512,0-2.016.112-4.088.112-6.1v-27.664c0-1.568-.055-3.192-.055-4.759,0-1.792.336-2.689,2.239-2.689,1.009,0,2.016.112,3.024.112h3.92c1.008,0,1.96-.112,2.968-.112,2.017,0,2.3.952,2.3,2.744,0,1.568-.056,3.136-.056,4.7v25.7c0,1.9.056,3.808.056,5.712,0,1.512-.672,1.456-2.576,1.456-2.24,0-2.408-.112-2.576-1.288-.112-.672-.335-1.008-1.008-1.008Zm2.52-31.136c0-.952-.615-1.456-1.568-1.568h-.952c-.952.112-1.568.616-1.568,1.568v2.52c0,.952.616,1.456,1.568,1.568h.952a1.6,1.6,0,0,0,1.568-1.568Zm-1.568,14.448a1.6,1.6,0,0,0,1.568-1.568v-2.352a1.565,1.565,0,0,0-1.568-1.568h-.952a1.47,1.47,0,0,0-1.568,1.568v2.352c0,.952.616,1.456,1.568,1.568Zm0,11.536a1.484,1.484,0,0,0,1.568-1.512v-3.472a1.484,1.484,0,0,0-1.568-1.512h-.952a1.427,1.427,0,0,0-1.568,1.512v3.472a1.427,1.427,0,0,0,1.568,1.512Zm26.712,1.232c0,.784.336,1.064,1.064,1.064h3.7c1.9,0,3.808-.112,5.768-.112,1.232,0,1.176.784,1.176,2.184,0,1.456.056,2.184-1.176,2.184-1.96,0-3.864-.112-5.768-.112h-3.64c-.784,0-1.12.28-1.12,1.064v.392a.926.926,0,0,0,1.064,1.064h5.152c1.96,0,3.976-.112,5.992-.112,1.344,0,1.287.616,1.287,2.24,0,1.512.057,2.184-1.231,2.184-2.016,0-4.032-.112-6.048-.112h-19.152c-2.016,0-4.031.112-6.048.112-1.288,0-1.288-.56-1.288-2.184,0-1.68,0-2.24,1.288-2.24,2.017,0,4.032.112,6.048.112h6.328a.926.926,0,0,0,1.064-1.064v-.392c0-.784-.28-1.064-1.064-1.064h-3.808c-1.9,0-3.864.112-5.768.112-1.232,0-1.176-.672-1.176-2.184,0-1.456-.056-2.184,1.176-2.184,1.96,0,3.864.112,5.768.112h3.808c.728,0,1.064-.28,1.064-1.008v-.28c0-.728-.28-1.064-1.064-1.064h-2.464c-1.232,0-2.464.112-3.7.112-1.568,0-2.408-.5-2.408-2.184,0-.952.056-1.848.056-2.8V1929.3c0-.952-.056-1.848-.056-2.744,0-1.736.84-2.184,2.464-2.184,1.232,0,2.464.056,3.64.056h12.656c1.232,0,2.464-.056,3.7-.056,1.568,0,2.464.392,2.464,2.128,0,.952-.056,1.848-.056,2.8v6.776c0,.952.056,1.9.056,2.8,0,1.68-.9,2.184-2.408,2.184-1.232,0-2.52-.112-3.752-.112h-2.464c-.784,0-1.12.28-1.12,1.064Zm.168-34.272c0,.9.728,1.176,1.456,1.176h3.3c1.736,0,3.528-.111,5.264-.111,1.288,0,1.232.727,1.232,2.239,0,1.624,0,2.3-1.232,2.3-1.176,0-2.352-.056-3.472-.112a.12.12,0,0,0-.112.112c0,.056,0,.113.056.113.5.111,1.288.279,1.288.839,0,.392-.224.5-.56.56a1.2,1.2,0,0,0-.9.672,3.654,3.654,0,0,0-.448,1.232c0,.616.448.84,1.008.84,1.68,0,3.416-.112,5.1-.112,1.288,0,1.232.784,1.232,2.3,0,1.569.056,2.24-1.232,2.24-2.016,0-4.032-.112-6.048-.112h-17.36c-1.959,0-3.976.112-5.992.112-1.288,0-1.288-.56-1.288-2.24,0-1.736,0-2.3,1.288-2.3,1.68,0,3.3.112,4.928.112.56,0,1.064-.224,1.064-.9a1.634,1.634,0,0,0-.112-.5c-.224-.728-.5-1.4-.784-2.128-.168-.392-.336-.784-.784-.784-.84,0-1.736.056-2.52.056-1.288,0-1.232-.728-1.232-2.3,0-1.624,0-2.239,1.288-2.239,1.736,0,3.472.111,5.208.111h3.136c1.009,0,1.568-.448,1.512-1.512a13.725,13.725,0,0,0-.112-1.512,1.72,1.72,0,0,1-.056-.5c0-.673.5-.785,1.008-.785,1.064,0,3.416.225,4.536.336.616.056,1.624.056,1.624.728,0,.392-.28.5-.728.785a1.208,1.208,0,0,0-.56.951Zm-5.432,21.28a1.25,1.25,0,0,0-1.344-1.288h-2.072a1.25,1.25,0,0,0-1.344,1.288v.28a1.294,1.294,0,0,0,1.344,1.344h2.072a1.294,1.294,0,0,0,1.344-1.344Zm-3.416,4.872a1.294,1.294,0,0,0-1.344,1.344v.448a1.264,1.264,0,0,0,1.344,1.344h2.072a1.264,1.264,0,0,0,1.344-1.344v-.448a1.294,1.294,0,0,0-1.344-1.344Zm3.584-16.3h3.808c1.176,0,1.624-.224,2.072-1.344a9.193,9.193,0,0,0,.616-2.016c0-.728-.56-.952-1.176-1.008h-5.6c-.28.056-1.12.056-1.12.953a1.315,1.315,0,0,0,.112.447c.169.617.5,1.513.616,2.128C1440.454,1917.367,1440.566,1917.815,1441.014,1917.815Zm8.288,13.048a1.294,1.294,0,0,0,1.344-1.344v-.28a1.25,1.25,0,0,0-1.344-1.288h-2.072a1.221,1.221,0,0,0-1.344,1.288v.28a1.264,1.264,0,0,0,1.344,1.344Zm-3.416,5.04a1.236,1.236,0,0,0,1.344,1.344h2.072a1.264,1.264,0,0,0,1.344-1.344v-.448a1.294,1.294,0,0,0-1.344-1.344h-2.072a1.264,1.264,0,0,0-1.344,1.344Z" transform="translate(-297)" fill="#877877"/>
      <path id="パス_854" data-name="パス 854" d="M1485.143,1911.991c.448.168,1.12.392,1.12.953,0,.335-.225.391-.784.728-.953.5-1.176,1.007-1.737,2.407a44.434,44.434,0,0,0-3.136,15.9c0,1.064.224,7.84,1.512,7.84.5,0,1.288-1.624,1.513-2.184.336-.728.672-1.344,1.176-1.344.559,0,2.015,1.176,2.015,1.792,0,.5-2.24,5.6-2.24,8.12,0,.56.168,1.848.225,2.352a5.06,5.06,0,0,1,.111.84c0,1.4-3.191,2.744-4.367,2.744-.952,0-1.624-1.232-2.353-2.744-2.632-5.32-3.416-11.312-3.416-17.192a66.963,66.963,0,0,1,2.857-18.535,25.84,25.84,0,0,0,.727-2.8c.113-.5.225-1.232.84-1.232C1479.654,1909.639,1484.358,1911.655,1485.143,1911.991Zm6.943,26.768c2.408,2.968,4.761,3.92,8.513,3.92a45.819,45.819,0,0,0,12.319-1.792,4,4,0,0,1,1.177-.224c.9,0,1.008,1.344,1.008,4.2,0,.672.055,1.68-.672,2.072-1.569.84-11.033,1.68-13.273,1.68-9.072,0-12.824-4.7-12.824-5.6,0-.784,1.961-4.76,3.024-4.76A.987.987,0,0,1,1492.086,1938.759Zm2.017-24.472a35.914,35.914,0,0,0,7.335.84,36.6,36.6,0,0,0,8.512-1.12,5.417,5.417,0,0,1,1.008-.167c.784,0,1.009.671,1.12,1.343a27.5,27.5,0,0,1,.225,3.024c0,1.176,0,1.624-1.065,1.848a65.257,65.257,0,0,1-9.408.785c-1.735,0-8.624-.337-9.8-1.121-.616-.392-.559-1.567-.559-2.184,0-2.688.279-3.528,1.175-3.528A7.407,7.407,0,0,1,1494.1,1914.287Z" transform="translate(-297)" fill="#877877"/>
    </g>
    <g id="グループ_1767" data-name="グループ 1767" transform="translate(-159.549 -244.081)" opacity="0.3" style="mix-blend-mode: multiply;isolation: isolate">
      <path id="パス_15735" data-name="パス 15735" d="M1479.263,2044.939c1.832-6.224-2.181-14.082-5.654-19.561s-5.6-13.806-3.585-19.973c1.992-6.088,9.823-9.384,15.645-6.717s8.489,10.535,5.653,16.277a12.817,12.817,0,1,1,25,5.661c-1.791,7.536-9.643,11.717-16.683,14.952q-10.186,4.682-20.374,9.362" transform="translate(0 17.978)" fill="#833e4d"/>
      <path id="パス_15736" data-name="パス 15736" d="M1490.81,2012.157c-.816-5.91-3.417-10.646-3.962-14.676s.715-9.1,4.658-10.094a6.324,6.324,0,0,1,6.295,2.5,10.9,10.9,0,0,1,1.959,6.761,17.182,17.182,0,0,1,3.981-4.877c5.547-3.528,11.413,4.078,10.354,8.5-1.257,5.254-5.27,7.435-9.508,9.459s-9.083,2.246-13.776,2.431" transform="translate(29.898)" fill="#833e4d"/>
    </g>
  </g>
</svg>
