<svg xmlns="http://www.w3.org/2000/svg" width="1249" height="64.541" viewBox="0 0 1249 64.541">
  <g id="グループ_921" data-name="グループ 921" transform="translate(-221.41 -2161.38)">
    <rect id="長方形_544" data-name="長方形 544" width="282.62" height="61.541" rx="30.771" transform="translate(927.244 2162.88)" fill="none" stroke="#9a6167" stroke-miterlimit="10" stroke-width="3"/>
    <path id="パス_8370" data-name="パス 8370" d="M1115.6,2101.646a.485.485,0,0,0-.236.068c-1.063.852-5.512,4.144-6.643,4.144-.928,0-2.051-1.815-2.051-2.363,0-.414.65-.718,1.03-.9a38.952,38.952,0,0,0,10.45-7.74,18.413,18.413,0,0,0,2.3-2.912.749.749,0,0,1,.65-.447c.346,0,2.777.583,3.283.718.27.068.65.236.65.583,0,.2-.2.346-.38.413a.316.316,0,0,0-.169.237.176.176,0,0,0,.068.135,33.778,33.778,0,0,0,12.332,9.006c.312.135.785.312.785.718,0,.481-1.064,2.6-1.781,2.6-1.03,0-6.128-3.461-7.192-4.212a.292.292,0,0,0-.2-.1c-.2,0-.278.169-.312.346-.034.515-.1.785-.684.785-.819,0-1.781-.068-2.743-.068h-5.444c-.928,0-1.95.068-2.709.068-.582,0-.684-.237-.717-.785-.034-.169-.1-.3-.27-.3Zm.169,19.414c-.448,0-.616.2-.616.65v.1c0,.785-.549.751-1.916.751s-1.815,0-1.815-.751c0-.447.1-1.435.1-2.127v-5.031c0-.65-.067-1.334-.067-1.984,0-1.334,1.165-1.469,2.228-1.469.962,0,1.916.068,2.878.068h6.854a1.4,1.4,0,0,0,1.4-.718,15.628,15.628,0,0,0,1.646-2.777c0-.448-.785-.38-1.1-.38h-8.871c-1.266,0-2.6.1-3.63.1-.819,0-.785-.447-.785-1.579,0-.962,0-1.4.785-1.4.852,0,2.3.1,3.63.1h9.656c1,0,1.95-.068,2.946-.068a2.324,2.324,0,0,1,2.161,1.579c0,.751-1.848,3.6-2.33,4.347a.478.478,0,0,0-.1.312c0,.3.236.414.515.414h.962c1.03,0,2.161.169,2.161,1.435,0,.684-.068,1.334-.068,2.017v5.031c0,.447.1,1.612.1,2.093,0,.819-.515.785-1.848.785s-1.815.034-1.815-.751v-.1c0-.448-.2-.65-.616-.65h-12.433Zm13.117-6.027a.99.99,0,0,0-.962-.962h-11.918a.984.984,0,0,0-.962.962v2.262a.984.984,0,0,0,.962.962h11.918a.99.99,0,0,0,.962-.962Zm-6.845-19.177a.878.878,0,0,0-.616.312,41.717,41.717,0,0,1-3.25,3.216.505.505,0,0,0-.135.313c0,.236.169.313.38.346h7.192c.169-.034.38-.1.38-.346a.385.385,0,0,0-.1-.27,36.109,36.109,0,0,1-3.216-3.216.956.956,0,0,0-.616-.346Z" transform="translate(-137.973 87.097)" fill="#9a6167"/>
    <path id="パス_8371" data-name="パス 8371" d="M1154.913,2103.374c-1.131,0-2.262.068-3.393.068-.785,0-.785-.414-.785-1.747s0-1.781.785-1.781c1.131,0,2.262.068,3.393.068h5.309a1.553,1.553,0,0,1,1.511.65,2.014,2.014,0,0,1,.481,1.3,10.641,10.641,0,0,1-.515,2.228,31.689,31.689,0,0,1-4.347,9.175c-.751,1.063-4.077,5.174-5.309,5.174-.717,0-2.363-1.3-2.363-2.017,0-.346.346-.583.616-.785a24.094,24.094,0,0,0,5.689-6.778c.481-.853,2.051-4.144,2.051-5,0-.616-.616-.549-1.511-.549h-1.612Zm14.9.346a.789.789,0,0,0,.549-.2,36.613,36.613,0,0,0,4.963-5.14c.135-.135.312-.38.515-.38a18.477,18.477,0,0,1,2.878,1.916c.169.135.515.448.515.684a.456.456,0,0,1-.448.448c-.169,0-.312-.034-.481-.034a.707.707,0,0,0-.515.2,61.481,61.481,0,0,1-5.681,5.242.986.986,0,0,0-.414.717,1.089,1.089,0,0,0,.2.549,31.193,31.193,0,0,0,7.841,7.74c.27.169.65.414.65.751,0,.515-1.511,2.33-2.363,2.33-.65,0-2.709-1.815-3.283-2.33a33.057,33.057,0,0,1-7.5-10.2c-.068-.067-.1-.135-.2-.135-.135,0-.2.1-.2.237v9.9c0,.928.068,1.848.068,2.743,0,3.664-3.216,3.866-6.094,3.866-.785,0-1.435,0-1.747-.717a8.575,8.575,0,0,1-.38-2.262c0-.549.169-.853.751-.853.414,0,1.2.1,1.95.1,2.051,0,1.984-.684,1.984-2.777v-19.692c0-1.2-.034-2.431-.135-3.461,0-.1-.034-.312-.034-.447,0-.38.236-.481.582-.481.583,0,2.6.169,3.25.237.27.034.819.067.819.447,0,.236-.236.346-.549.548-.413.313-.481.929-.481,2.093v1.916a3.15,3.15,0,0,0,.2,1.232,45.377,45.377,0,0,0,2.161,4.794c.169.2.346.414.616.414Z" transform="translate(-144.679 87.014)" fill="#9a6167"/>
    <path id="パス_8372" data-name="パス 8372" d="M1210.9,2113.5h7.538c1.334,0,2.709-.1,4.043-.1.819,0,.819.346.819,1.612s0,1.612-.819,1.612c-1.334,0-2.709-.067-4.043-.067h-7.571c-.65,0-.928.27-.928.929v.65c0,1.165.068,2.363.068,3.528,0,1.1-.414,1.131-1.815,1.131s-1.849-.034-1.849-1.1c0-1.2.068-2.4.068-3.562v-.65c0-.65-.278-.929-.928-.929h-7.571c-1.334,0-2.676.067-4.043.067-.819,0-.785-.346-.785-1.612s0-1.612.785-1.612c1.367,0,2.709.1,4.043.1h7.571c.616,0,.886-.27.928-.929-.034-.3-.1-1.03-.1-1.131,0-.346.236-.481.582-.481.414,0,2.811.237,3.326.27.278.034.582.1.582.414,0,.27-.236.38-.447.515a.845.845,0,0,0-.38.684c.068.515.448.65.929.65Zm-9.521-7.023c0,.718-.068.819-.515,1.03-1.477.718-2.811,1.3-4.49,2.017-.549.237-.717.271-.852.684-.068.2-.2.38-.414.38-.27,0-.38-.27-.549-.65-.312-.616-.549-1.266-.819-1.916a1.322,1.322,0,0,1-.169-.515c0-.271.2-.271.717-.414a43.486,43.486,0,0,0,5.824-2.33,1.37,1.37,0,0,1,.481-.169c.65,0,.785,1.435.785,1.882Zm.169,4.93c-.1.2-.236.38-.481.38-.312,0-.447-.38-.515-.616a22.984,22.984,0,0,1-.65-2.465c0-.346.236-.38,1.781-.414.819,0,1.4.068,2.017-.616.169-.2.38-.414.549-.616a1.075,1.075,0,0,0,.236-.616.816.816,0,0,0-.346-.65c-1-.853-2.017-1.612-3.081-2.364-.2-.135-.616-.38-.616-.684,0-.38.684-1.232.928-1.545.38-.447.582-.481.819-.414a1.572,1.572,0,0,0,.549.1.678.678,0,0,0,.583-.3c.38-.582.717-1.165,1.063-1.747a.551.551,0,0,0,.1-.312c0-.38-.27-.481-.582-.515h-5.411c-1.367,0-2.709.068-4.077.068-.819,0-.785-.346-.785-1.545s-.034-1.579.819-1.579c1.333,0,2.667.068,4.043.068h6.955c.616,0,.929-.236.962-.886-.034-.515-.067-1.03-.135-1.511a.837.837,0,0,1-.034-.27c0-.38.38-.414.65-.414.616,0,2.4.135,3.081.2.38.034.785.067.785.414,0,.27-.236.38-.447.481-.38.2-.346.549-.346,1.1,0,.65.312.886.928.886h7.056c1.334,0,2.709-.068,4.043-.068.819,0,.819.38.819,1.579s0,1.545-.819,1.545c-1.334,0-2.709-.068-4.043-.068h-10.2c-.068,0-.135.034-.135.1a.073.073,0,0,0,.068.068c.236.135.785.413.785.684s-.346.27-.515.27c-.236.034-.27.034-.447.27-.65.929-1.4,2.094-2.127,2.98a.626.626,0,0,0-.169.413c0,.177.135.3.236.448a2.993,2.993,0,0,1,.414.346,1.077,1.077,0,0,0,.616.237.817.817,0,0,0,.65-.346c.717-1,1.367-1.916,2.017-2.979.1-.135.2-.312.414-.312.27,0,2.946,1.477,2.946,1.848s-.413.414-.65.414c-.38,0-.346.034-.549.236a57.526,57.526,0,0,1-3.765,4.592.648.648,0,0,0-.1.271.338.338,0,0,0,.38.346c.962-.1,1.95-.169,2.912-.236.279-.067.515-.2.515-.515,0-.237-.236-.481-.38-.684a3.149,3.149,0,0,1-.481-.962c0-.515,1.612-1.2,2.017-1.2a.891.891,0,0,1,.751.549c.684.962,1.3,1.848,1.882,2.844a15.642,15.642,0,0,1,1.477,2.811c0,.548-1.68,1.266-2.195,1.266-.481,0-.582-.447-.819-.886a1.036,1.036,0,0,0-1-.684h-.236c-3.461.38-6.888.684-10.34.928-.2,0-.27.1-.38.27Zm-3.495-7.226c-.312,0-1-.785-1.2-1.03-.481-.481-1.646-1.468-2.195-1.916-.2-.135-.582-.38-.582-.684,0-.27,1.3-1.848,1.849-1.848.447,0,1.849,1.3,2.262,1.68.312.27,1.714,1.469,1.714,1.848,0,.515-1.232,1.95-1.849,1.95Zm24.005-2.634a.8.8,0,0,1-.3-.068,1.019,1.019,0,0,0-.278-.067.9.9,0,0,0-.38.135c-.928.448-4.448,2.161-5.309,2.161s-1.511-1.747-1.511-2.051c0-.447.481-.548,1.1-.751a24.547,24.547,0,0,0,4.761-2.195,1.219,1.219,0,0,1,.481-.2c.413,0,1.747,2.6,1.747,2.743a.292.292,0,0,1-.312.313Zm-1.95,4.761c.447.236,2.262,1.131,2.262,1.646,0,.414-1.03,2.085-1.578,2.085a1.3,1.3,0,0,1-.717-.38,49.083,49.083,0,0,0-4.794-2.667c-.346-.169-.785-.346-.785-.751,0-.236.65-1.95,1.232-1.95a30.982,30.982,0,0,1,4.381,2.017Z" transform="translate(-151.447 87.028)" fill="#9a6167"/>
    <path id="パス_8389" data-name="パス 8389" d="M1259.49,2107.822c0,.1.169.2.515.313a5.364,5.364,0,0,1,3.942,5.41c0,3.8-2.811,7.6-10.272,7.6a16.071,16.071,0,0,1-6.406-1.232c-.515-.237-.718-.448-.718-.785a1.569,1.569,0,0,1,.135-.616l.582-1.68c.169-.481.312-.718.582-.718a1.729,1.729,0,0,1,.65.27,10.45,10.45,0,0,0,5.309,1.334c4.043,0,6.06-2.094,6.06-4.246,0-2.364-1.984-3.562-6.406-3.562-.751,0-1.95.034-2.3.034-.895,0-1.03-.135-1.03-1v-1.545c0-.886.135-1.03,1.03-1.03.38,0,1.3.034,1.95.034,4.144,0,5.689-1.469,5.689-3.359s-1.68-3.013-4.313-3.013a9.012,9.012,0,0,0-4.794,1.334,1.466,1.466,0,0,1-.684.312c-.236,0-.414-.2-.616-.684l-.751-1.579a1.819,1.819,0,0,1-.2-.684c0-.312.2-.481.684-.718a14.744,14.744,0,0,1,6.778-1.612c5.613,0,7.909,2.844,7.909,5.926a5.561,5.561,0,0,1-2.878,5.106c-.279.135-.447.27-.447.38Z" transform="translate(-159.784 86.331)" fill="#9a6167"/>
    <path id="パス_8409" data-name="パス 8409" d="M1288.19,2108.039c0,.135.169.27.515.448,2.532,1.266,4.558,3.013,4.558,6.06,0,3.908-3.182,6.677-9.969,6.677-5.411,0-9.285-2.33-9.285-6.373,0-2.6,1.545-4.727,4.381-6.162.346-.169.515-.312.515-.448s-.169-.27-.481-.481c-1.95-1.165-3.393-2.811-3.393-5.343,0-3.292,3.047-6.128,8.871-6.128,5.309,0,8.39,2.532,8.39,5.824,0,2.262-1.334,4.111-3.63,5.444-.312.169-.481.346-.481.481Zm-5.107,1.882a2.371,2.371,0,0,0-.962.237c-2.6,1.1-4.145,2.464-4.145,4.414,0,2.161,2.363,3.326,5.478,3.326,3.427,0,5.756-1.232,5.756-3.461,0-2.093-2.127-3.149-5.208-4.313a2.723,2.723,0,0,0-.928-.2Zm.684-10.2c-2.676,0-4.693,1.064-4.693,2.811s1.747,2.743,4.111,3.7a2.886,2.886,0,0,0,.928.236,2.468,2.468,0,0,0,.962-.27c2.085-1,3.25-2.195,3.25-3.731,0-1.714-1.95-2.743-4.558-2.743Z" transform="translate(-164.066 86.35)" fill="#9a6167"/>
    <path id="パス_8410" data-name="パス 8410" d="M1315.53,2103.27c0,4.727-2.633,7.428-6.3,7.428-3.359,0-5.993-2.5-5.993-6.888s2.4-7.36,6.373-7.36c3.326,0,5.925,2.431,5.925,6.812Zm-8.837.616c0,2.4,1.1,3.663,2.566,3.663,1.714,0,2.845-1.469,2.845-4.077,0-2.364-1.063-3.7-2.6-3.7-1.815,0-2.811,1.68-2.811,4.111Zm3.942,17.016c-.515,0-.751-.068-.751-.312a1.583,1.583,0,0,1,.2-.616c.582-1.1,1.165-2.262,1.714-3.326l7.808-15.75c.515-1.03,1.063-2.195,1.578-3.326.346-.785.549-.929,1.435-.929h1.815c.515,0,.751.068.751.313a1.472,1.472,0,0,1-.2.582c-.616,1.2-1.232,2.4-1.747,3.461l-7.774,15.683c-.515,1.1-1.063,2.195-1.578,3.292-.38.785-.549.928-1.435.928h-1.815Zm21.161-7.225c0,4.727-2.634,7.428-6.305,7.428-3.359,0-5.993-2.5-5.993-6.887s2.4-7.36,6.373-7.36c3.326,0,5.925,2.431,5.925,6.812Zm-8.837.616c0,2.4,1.1,3.663,2.566,3.663,1.714,0,2.844-1.469,2.844-4.077,0-2.364-1.064-3.7-2.6-3.7-1.815,0-2.811,1.68-2.811,4.111Z" transform="translate(-168.624 86.325)" fill="#9a6167"/>
    <rect id="長方形_548" data-name="長方形 548" width="240.476" height="61.541" rx="30.771" transform="translate(1228.434 2162.88)" fill="none" stroke="#9a6167" stroke-miterlimit="10" stroke-width="3"/>
    <path id="パス_8417" data-name="パス 8417" d="M1464.91,2120.936c-1.612,0-4.313.068-4.558.068-.717,0-.962-.236-.962-.962,0-.236.068-3.942.068-5.858V2103.43c0-1.68-.068-5.14-.068-5.723,0-.819.2-1.1.962-1.1.38,0,2.946.068,4.558.068h2.634c4.929,0,7.841,1.3,7.841,5.478a5.915,5.915,0,0,1-2.228,5.174c-.27.2-.447.346-.447.448,0,.168.169.27.549.413,1.984.785,3.292,2.5,3.292,5.309,0,5.107-3.393,7.428-8.9,7.428H1464.9Zm-1.578-15.379c0,.853.169,1.03,1.03,1.03h2.743c2.532,0,4.347-.962,4.347-3.7,0-2.262-1.848-2.845-3.942-2.845h-3.148c-.853,0-1.03.169-1.03,1.03Zm0,11.057c0,.853.169,1.03,1.03,1.03h3.216c2.845,0,4.929-1.334,4.929-4.178,0-2.6-1.68-3.6-4.313-3.6h-3.832c-.853,0-1.03.168-1.03,1.03v5.723Z" transform="translate(-192.972 86.3)" fill="#9a6167"/>
    <path id="パス_8428" data-name="パス 8428" d="M1504.321,2119.3c0,.313-.236.481-.751.718a15.057,15.057,0,0,1-5.79,1.1c-7.09,0-11.64-4.727-11.64-11.75s4.347-12.914,12.914-12.914a13.4,13.4,0,0,1,4.929.853c.515.2.751.38.751.684a2.048,2.048,0,0,1-.169.65l-.751,2.051c-.2.515-.3.718-.582.718a1.822,1.822,0,0,1-.684-.2,9.213,9.213,0,0,0-3.663-.785c-5.689,0-8.593,4.009-8.593,8.837s3.047,8.12,7.943,8.12a9.054,9.054,0,0,0,3.976-.853,1.645,1.645,0,0,1,.684-.237c.27,0,.414.2.616.718l.65,1.646a2.05,2.05,0,0,1,.169.65Z" transform="translate(-197.143 86.325)" fill="#9a6167"/>
    <path id="パス_8429" data-name="パス 8429" d="M1539.52,2108.039c0,.135.169.27.515.448,2.532,1.266,4.558,3.013,4.558,6.06,0,3.908-3.182,6.677-9.969,6.677-5.411,0-9.285-2.33-9.285-6.373,0-2.6,1.545-4.727,4.381-6.162.346-.169.515-.312.515-.448s-.169-.27-.481-.481c-1.95-1.165-3.393-2.811-3.393-5.343,0-3.292,3.047-6.128,8.871-6.128,5.309,0,8.39,2.532,8.39,5.824,0,2.262-1.334,4.111-3.63,5.444-.312.169-.481.346-.481.481Zm-5.107,1.882a2.372,2.372,0,0,0-.962.237c-2.6,1.1-4.144,2.464-4.144,4.414,0,2.161,2.364,3.326,5.478,3.326,3.427,0,5.757-1.232,5.757-3.461,0-2.093-2.127-3.149-5.208-4.313a2.722,2.722,0,0,0-.928-.2Zm.684-10.2c-2.676,0-4.693,1.064-4.693,2.811s1.747,2.743,4.11,3.7a2.887,2.887,0,0,0,.929.236,2.467,2.467,0,0,0,.962-.27c2.085-1,3.25-2.195,3.25-3.731C1539.655,2100.747,1537.705,2099.717,1535.1,2099.717Z" transform="translate(-203.256 86.35)" fill="#9a6167"/>
    <path id="パス_8430" data-name="パス 8430" d="M1559.884,2121.953a2.609,2.609,0,0,1-2.709,2.777,2.341,2.341,0,0,1-2.465-2.4,2.61,2.61,0,0,1,2.743-2.743A2.324,2.324,0,0,1,1559.884,2121.953Z" transform="translate(-207.835 82.717)" fill="#9a6167"/>
    <path id="パス_8431" data-name="パス 8431" d="M1573.234,2106.559a11.247,11.247,0,0,1,5.512-1.469c4.043,0,7.706,2.33,7.706,7.326,0,5.377-4.144,8.736-9.454,8.736-5.858,0-9.209-3.908-9.209-9.555a15.808,15.808,0,0,1,4.313-11.37,14.818,14.818,0,0,1,9.622-3.8c.684,0,.819.169.819.962v1.781c0,.886-.135,1.03-1.03,1.131a11.359,11.359,0,0,0-7.192,3.182,7.836,7.836,0,0,0-1.984,3.326.124.124,0,0,0,.135.135,1.762,1.762,0,0,0,.751-.38Zm-.65,3.63a1.9,1.9,0,0,0-.928,1.848c0,3.393,2.161,5.689,5.512,5.689s5.377-2.3,5.377-5c0-2.4-1.747-4.246-4.761-4.246a8.939,8.939,0,0,0-5.208,1.714Z" transform="translate(-209.875 86.328)" fill="#9a6167"/>
    <path id="パス_8432" data-name="パス 8432" d="M1601.108,2116.669c0,1.545.068,4.381.068,4.626,0,.718-.2.853-1,.853H1598.2c-.785,0-1-.135-1-.853,0-.237.067-3.081.067-4.626v-6.609c0-1.544-.067-4.381-.067-4.625,0-.718.2-.853,1-.853h1.68c.785,0,.92.135.962.928.034.448.1.65.27.65a1.052,1.052,0,0,0,.515-.237,7.368,7.368,0,0,1,4.558-1.545,5.385,5.385,0,0,1,4.111,1.646c.312.346.481.515.684.515.169,0,.346-.135.684-.414a8.424,8.424,0,0,1,5.14-1.747c3.393,0,5.647,2.33,5.647,6.128v6.162c0,1.545.067,4.381.067,4.626,0,.718-.2.853-1,.853h-1.984c-.785,0-1-.135-1-.853,0-.237.068-3.081.068-4.626v-5.106c0-2.085-1-3.494-3.115-3.494a4.9,4.9,0,0,0-3.013,1.1,1.289,1.289,0,0,0-.65,1.334v6.162c0,1.545.068,4.381.068,4.625,0,.718-.2.853-1,.853h-1.984c-.785,0-1-.135-1-.853,0-.237.068-3.081.068-4.625v-5.107c0-2.085-1-3.494-3.115-3.494a4.994,4.994,0,0,0-3.013,1.063,1.644,1.644,0,0,0-.751,1.545v5.993Z" transform="translate(-214.461 85.088)" fill="#9a6167"/>
    <path id="パス_8437" data-name="パス 8437" d="M1639.168,2116.669c0,1.545.068,4.381.068,4.626,0,.718-.2.853-1,.853h-1.984c-.785,0-1-.135-1-.853,0-.237.068-3.081.068-4.626v-6.609c0-1.544-.068-4.381-.068-4.625,0-.718.2-.853,1-.853h1.68c.785,0,.92.135.962.928.034.448.1.65.27.65a1.052,1.052,0,0,0,.515-.237,7.369,7.369,0,0,1,4.558-1.545,5.385,5.385,0,0,1,4.111,1.646c.312.346.481.515.684.515.169,0,.346-.135.684-.414a8.424,8.424,0,0,1,5.14-1.747c3.393,0,5.647,2.33,5.647,6.128v6.162c0,1.545.068,4.381.068,4.626,0,.718-.2.853-1,.853h-1.984c-.785,0-1-.135-1-.853,0-.237.068-3.081.068-4.626v-5.106c0-2.085-1-3.494-3.115-3.494a4.9,4.9,0,0,0-3.013,1.1,1.289,1.289,0,0,0-.65,1.334v6.162c0,1.545.067,4.381.067,4.625,0,.718-.2.853-1,.853h-1.984c-.785,0-1-.135-1-.853,0-.237.068-3.081.068-4.625v-5.107c0-2.085-1-3.494-3.115-3.494a4.994,4.994,0,0,0-3.013,1.063,1.645,1.645,0,0,0-.751,1.545v5.993Z" transform="translate(-220.395 85.088)" fill="#9a6167"/>
    <rect id="長方形_528" data-name="長方形 528" width="303.773" height="61.541" rx="30.771" transform="translate(222.91 2162.88)" fill="none" stroke="#9a6167" stroke-miterlimit="10" stroke-width="3"/>
    <path id="パス_7684" data-name="パス 7684" d="M284.6,2120.336c-1.612,0-4.313.068-4.558.068-.751,0-.962-.27-.962-1.1.034-1.916.068-4.077.068-5.723V2102.83c0-1.68-.034-3.731-.068-5.723,0-.819.2-1.1.962-1.1.236,0,2.946.068,4.558.068h4.212c6.778,0,10.821,3.764,10.821,11.4s-4.381,12.838-11.918,12.838H284.6Zm-1.469-4.558c0,.853.169,1.03,1.03,1.03h3.461c5.377,0,7.976-3.663,7.976-9.108,0-4.625-2.195-7.909-7.158-7.909h-4.279c-.853,0-1.03.169-1.03,1.03v14.965Z" transform="translate(-8.927 86.393)" fill="#9a6167"/>
    <path id="パス_7685" data-name="パス 7685" d="M312.136,2120.352c-.785,0-1-.135-1-.853,0-.236.1-4.01.1-5.993v-10.551c0-1.984-.1-5.757-.1-5.993,0-.718.2-.853,1-.853h2.195c.785,0,1,.135,1,.853,0,.236-.1,4.009-.1,5.993v10.551c0,1.984.1,5.757.1,5.993,0,.717-.2.853-1,.853Z" transform="translate(-13.927 86.378)" fill="#9a6167"/>
    <path id="パス_7686" data-name="パス 7686" d="M330.215,2114.627c-.895,0-1.131.068-1.435.819-.481,1.131-.929,2.3-1.511,3.942-.312.819-.481.962-1.367.962h-2.4c-.549,0-.785-.068-.785-.346a1.474,1.474,0,0,1,.2-.583c1.064-2.4,1.815-4.111,2.532-5.79l4.9-11.606c.616-1.469,1.334-3.115,2.051-4.963.312-.819.481-.962,1.367-.962h1.469c.895,0,1.064.135,1.367.962.717,1.849,1.4,3.495,2.017,4.929l4.929,11.572c.751,1.781,1.511,3.494,2.566,5.858a1.475,1.475,0,0,1,.2.583c0,.27-.236.346-.785.346H342.9c-.886,0-1.064-.135-1.367-.962-.582-1.646-1.03-2.811-1.511-3.942-.312-.751-.515-.819-1.435-.819H330.2Zm.616-4.246a1.549,1.549,0,0,0-.135.582c0,.3.236.38.785.38h5.858c.549,0,.785-.068.785-.38a1.55,1.55,0,0,0-.135-.582l-3.182-7.841c-.135-.346-.236-.549-.38-.549-.1,0-.236.169-.38.549Z" transform="translate(-15.732 86.379)" fill="#9a6167"/>
    <path id="パス_7687" data-name="パス 7687" d="M376.941,2113.506c0,1.983.1,5.579.1,5.993,0,.718-.2.853-1,.853h-2.127c-.785,0-1-.135-1-.853,0-.414.1-4.01.1-5.993v-11.986c0-.582-.1-.819-.414-.819a1.414,1.414,0,0,0-.549.135c-1.03.38-2.195.853-3.081,1.266a1.552,1.552,0,0,1-.65.2c-.312,0-.447-.237-.616-.751l-.65-1.714a1.851,1.851,0,0,1-.135-.65c0-.312.2-.481.785-.65a54.046,54.046,0,0,0,5.343-2.017,4.485,4.485,0,0,1,2.017-.414H376c.785,0,1,.135,1,.853,0,.515-.068,4.01-.068,5.993v10.551Z" transform="translate(-22.626 86.378)" fill="#9a6167"/>
    <path id="パス_7688" data-name="パス 7688" d="M404.859,2116.069c0,1.165.068,3.182.068,3.427,0,.717-.2.852-1,.852h-1.916c-.785,0-1-.135-1-.852,0-.237.068-2.262.068-3.427,0-.785-.135-.929-.928-.929h-5.411c-1.984,0-4.929.068-5.174.068-.717,0-.853-.2-.853-1v-.582a3.426,3.426,0,0,1,.481-1.95c.751-1.368,1.469-2.777,2.161-4.111l3.013-5.824c.718-1.4,1.511-2.979,2.33-4.727.346-.785.549-.929,1.435-.929h2.566c.515,0,.751.068.751.313a1.707,1.707,0,0,1-.236.582c-1.1,2.017-1.984,3.7-2.844,5.343L394,2110.785a1.581,1.581,0,0,0-.2.616c0,.237.236.313.751.313h5.613c.819,0,.928-.2.928-1,0-2.33-.068-5.444-.068-5.689,0-.718.2-.853,1-.853h1.916c.785,0,1,.135,1,.853,0,.236-.068,3.325-.068,5.757,0,.785.135.928.928.928.928,0,2.6-.034,2.845-.034.717,0,.852.2.852,1v1.545c0,.785-.135,1-.852,1-.236,0-1.916-.068-2.845-.068-.785,0-.928.135-.928.928Z" transform="translate(-26.024 86.381)" fill="#9a6167"/>
    <path id="パス_7689" data-name="パス 7689" d="M424.134,2121.353a2.608,2.608,0,0,1-2.709,2.777,2.341,2.341,0,0,1-2.465-2.4,2.61,2.61,0,0,1,2.743-2.743A2.324,2.324,0,0,1,424.134,2121.353Z" transform="translate(-30.739 82.81)" fill="#9a6167"/>
    <path id="パス_7690" data-name="パス 7690" d="M441.975,2116.783c1.747,0,4.963-.067,5.208-.067.717,0,.853.2.853,1v1.612c0,.785-.135,1-.853,1-.236,0-3.461-.068-5.208-.068h-4.448c-1.747,0-4.963.068-5.208.068-.717,0-.853-.2-.853-1v-.616a1.611,1.611,0,0,1,.819-1.68c.616-.447,1.165-.928,1.747-1.435,6.162-5.411,9.724-8.838,9.724-12.188,0-2.228-1.545-3.764-4.347-3.764a6.879,6.879,0,0,0-5,2.262c-.312.346-.515.481-.717.481-.169,0-.38-.169-.684-.481l-1.367-1.469c-.27-.312-.414-.515-.414-.718,0-.236.169-.448.481-.751a11.7,11.7,0,0,1,8.044-3.115c5.208,0,8.12,3.081,8.12,7.023,0,4.828-3.866,8.7-9.108,13.252-.27.236-.38.38-.38.481,0,.135.2.2.616.2h2.98Z" transform="translate(-32.652 86.418)" fill="#9a6167"/>
    <path id="パス_7691" data-name="パス 7691" d="M463.368,2116.07c0,1.545.068,4.381.068,4.625,0,.718-.2.852-1,.852h-1.984c-.785,0-1-.135-1-.852,0-.237.068-3.081.068-4.625v-6.609c0-1.544-.068-4.381-.068-4.625,0-.718.2-.852,1-.852h1.68c.785,0,.928.135.962.928.034.448.1.65.27.65a1.084,1.084,0,0,0,.515-.236,7.368,7.368,0,0,1,4.558-1.545,5.385,5.385,0,0,1,4.111,1.646c.312.346.481.515.684.515.169,0,.346-.135.684-.413a8.424,8.424,0,0,1,5.14-1.747c3.393,0,5.647,2.33,5.647,6.128v6.162c0,1.545.068,4.381.068,4.625,0,.718-.2.852-1,.852h-1.984c-.785,0-1-.135-1-.852,0-.237.068-3.081.068-4.625v-5.107c0-2.085-1-3.495-3.115-3.495a4.9,4.9,0,0,0-3.013,1.1,1.289,1.289,0,0,0-.65,1.334v6.162c0,1.545.068,4.381.068,4.625,0,.718-.2.853-1,.853h-1.984c-.785,0-1-.135-1-.853,0-.236.068-3.081.068-4.625v-5.107c0-2.085-1-3.494-3.115-3.494a4.992,4.992,0,0,0-3.013,1.064,1.644,1.644,0,0,0-.751,1.544v5.993Z" transform="translate(-37.054 85.182)" fill="#9a6167"/>
    <path id="パス_7692" data-name="パス 7692" d="M501.428,2116.07c0,1.545.068,4.381.068,4.625,0,.718-.2.852-1,.852h-1.984c-.785,0-1-.135-1-.852,0-.237.068-3.081.068-4.625v-6.609c0-1.544-.068-4.381-.068-4.625,0-.718.2-.852,1-.852h1.68c.785,0,.928.135.962.928.034.448.1.65.27.65a1.084,1.084,0,0,0,.515-.236,7.368,7.368,0,0,1,4.558-1.545,5.385,5.385,0,0,1,4.111,1.646c.312.346.481.515.684.515.169,0,.346-.135.684-.413a8.424,8.424,0,0,1,5.14-1.747c3.393,0,5.647,2.33,5.647,6.128v6.162c0,1.545.068,4.381.068,4.625,0,.718-.2.852-1,.852h-1.984c-.785,0-1-.135-1-.852,0-.237.068-3.081.068-4.625v-5.107c0-2.085-1-3.495-3.115-3.495a4.9,4.9,0,0,0-3.013,1.1,1.288,1.288,0,0,0-.65,1.334v6.162c0,1.545.068,4.381.068,4.625,0,.718-.2.853-1,.853h-1.984c-.785,0-1-.135-1-.853,0-.236.068-3.081.068-4.625v-5.107c0-2.085-1-3.494-3.115-3.494a4.992,4.992,0,0,0-3.013,1.064,1.644,1.644,0,0,0-.751,1.544v5.993Z" transform="translate(-42.989 85.182)" fill="#9a6167"/>
    <rect id="長方形_529" data-name="長方形 529" width="363.735" height="61.541" rx="30.771" transform="translate(545.109 2162.88)" fill="none" stroke="#9a6167" stroke-miterlimit="10" stroke-width="3"/>
    <path id="パス_7693" data-name="パス 7693" d="M671.066,2121.27H660.447c-.27,0-.481.068-.515.515-.034.718-.27.785-1.781.785s-1.849-.034-1.849-.819c0-.895.068-1.815.068-2.709v-4.693c-.034-.2-.1-.414-.346-.414a.344.344,0,0,0-.27.169c-.616.684-3.63,3.764-4.381,3.764s-2.363-1.2-2.363-2.017c0-.312.27-.515.515-.684a24.811,24.811,0,0,0,7.056-8.01.986.986,0,0,0,.068-.312c0-.38-.312-.481-.616-.515h-1.984c-1.3,0-2.633.067-3.976.067-.684,0-.684-.312-.684-1.266s0-1.3.684-1.3c1.334,0,2.667.067,3.976.067h7.774c.549,0,.785-.236.785-.819v-.1c0-.582-.236-.819-.785-.819h-4.558c-1.232,0-2.465.068-3.731.068-.684,0-.65-.414-.65-1.232s0-1.232.65-1.232c1.266,0,2.5.068,3.731.068h4.693c.481,0,.65-.169.65-.65v-.312c0-.481-.169-.65-.616-.65h-6.955c-1.334,0-2.633.067-3.976.067-.717,0-.684-.447-.684-1.3,0-.928,0-1.3.684-1.3,1.334,0,2.633.068,3.976.068h2.195c.27,0,.549-.1.549-.448a.592.592,0,0,0-.1-.312c-.447-.65-.785-1.063-1.3-1.713a.78.78,0,0,1-.27-.481c0-.616,2.051-1.266,2.5-1.266.515,0,1,.616,1.3,1.03a8.724,8.724,0,0,1,1.367,2.127c0,.38-.616.65-.928.785-.034.034-.1.067-.1.135,0,.1.068.135.169.135h5.993a1.3,1.3,0,0,0,1.367-.717,21.154,21.154,0,0,0,1.545-3.013c.068-.27.169-.515.481-.515a14.618,14.618,0,0,1,2.161.718c.515.168,1.545.548,1.545.852s-.447.38-.684.414a.6.6,0,0,0-.447.313c-.27.38-.481.785-.717,1.165a.656.656,0,0,0-.1.346c0,.346.27.414.549.447h1.849c1.3,0,2.6-.067,3.942-.067.717,0,.717.346.717,1.3,0,.886,0,1.3-.684,1.3-1.334,0-2.676-.068-3.976-.068H666.9c-.447,0-.65.169-.65.616v.346c0,.481.169.65.65.65h4.727c1.266,0,2.5-.067,3.731-.067.684,0,.684.346.684,1.232s0,1.232-.65,1.232c-1.266,0-2.5-.067-3.765-.067h-4.558c-.582,0-.819.236-.819.819v.1c0,.582.236.819.819.819h7.875c1.3,0,2.633-.068,3.976-.068.717,0,.684.346.684,1.3s.034,1.266-.684,1.266c-1.334,0-2.667-.068-3.976-.068H661.308a.963.963,0,0,0-.928.65.986.986,0,0,0-.068.313c0,.38.3.515.65.515h9.791c.962,0,1.916-.034,2.878-.034,1.1,0,1.578.346,1.578,1.511,0,.886-.034,1.781-.034,2.667v7.158c0,.929.068,1.815.068,2.743,0,.785-.414.785-1.815.785-1.68,0-1.815-.068-1.848-.886,0-.447-.27-.481-.515-.481Zm-.068-9.656a.591.591,0,0,0,.65-.65v-.135a.617.617,0,0,0-.65-.684H660.515a.617.617,0,0,0-.65.684v.135a.591.591,0,0,0,.65.65Zm-10.483,2.093a.625.625,0,0,0-.65.65v.2a.591.591,0,0,0,.65.65H671a.591.591,0,0,0,.65-.65v-.2a.607.607,0,0,0-.65-.65Zm0,3.7a.625.625,0,0,0-.65.65v.2a.625.625,0,0,0,.65.65H671a.607.607,0,0,0,.65-.65v-.2a.607.607,0,0,0-.65-.65Z" transform="translate(-66.61 87.097)" fill="#9a6167"/>
    <path id="パス_7694" data-name="パス 7694" d="M713.307,2100.812c0,.313.236.38.481.38h.895c1.131,0,2.262-.034,3.393-.034,1.266,0,1.984.313,1.984,1.713,0,.886-.068,1.747-.068,2.634v3.765c0,1.1.068,2.161.068,2.912s-.346.785-1.578.785c-1.165,0-1.815,0-2.127-.481a.971.971,0,0,0-.928-.346H700.6c-.684,0-.962.27-.962.962v2.634c0,2.5.312,2.777,3.013,2.777h12.7c2.709,0,3.25-.346,3.731-3.461.135-.785.135-1.131.852-1.131.928,0,2.844.38,2.844,1.545a11.235,11.235,0,0,1-1.266,4.28c-1.064,1.916-2.633,2.051-4.659,2.051H701.608c-6.229,0-5.579-1.882-5.579-6.575v-9.42c-.034-.27-.1-.515-.414-.515a.55.55,0,0,0-.312.135,2.556,2.556,0,0,1-1.2.616c-.852,0-2.195-1.511-2.195-2.228,0-.414.481-.65.785-.853a35.2,35.2,0,0,0,7.639-7.673,22.4,22.4,0,0,0,1.984-3.216.668.668,0,0,1,.616-.447c.27,0,2.262.549,2.71.65.549.135,1.232.27,1.232.751,0,.346-.515.448-.785.549-.27.067-.447.346-.582.582a.658.658,0,0,0-.1.346c0,.346.27.413.549.447h5.377c.751,0,1.511-.068,2.228-.068a2.283,2.283,0,0,1,2.363,1.747c0,.718-1.984,3.182-2.5,3.832-.068.135-.135.2-.135.346Zm-12.7,3.528a.99.99,0,0,0-.962.962v2.709a.99.99,0,0,0,.962.962h4.761a.913.913,0,0,0,.928-.962V2105.3a.913.913,0,0,0-.928-.962Zm-.2-3.494c0,.236.236.346.447.346h6.677a1.521,1.521,0,0,0,1.469-.616,10.252,10.252,0,0,0,1.68-2.431c0-.414-.447-.346-.853-.346h-5.959a1.544,1.544,0,0,0-1.469.65,26.67,26.67,0,0,1-1.849,2.051.6.6,0,0,0-.135.346Zm9.487,7.158a.917.917,0,0,0,.928.962h4.727a.99.99,0,0,0,.962-.962v-2.709a.984.984,0,0,0-.962-.962h-4.727a.913.913,0,0,0-.928.962Z" transform="translate(-73.3 87.078)" fill="#9a6167"/>
    <path id="パス_7695" data-name="パス 7695" d="M748.893,2100.056c.684,0,.962-.27.962-.962v-.346c0-.684-.27-.962-.962-.962h-8.154c-1.367,0-2.777.068-4.178.068-.751,0-.751-.38-.751-1.469,0-1.165,0-1.545.751-1.545,1.4,0,2.811.068,4.178.068h8.154c.65,0,.928-.236.962-.886-.034-.447-.068-.895-.135-1.333v-.346c0-.38.27-.481.616-.481.414,0,2.3.169,2.912.236.1,0,.2.034.312.034.481.034.928.068.928.448,0,.27-.169.346-.515.515a.9.9,0,0,0-.414.928c-.034.65.312.886.928.886h6.128c1.4,0,2.777-.068,4.178-.068.751,0,.751.346.751,1.511s0,1.511-.751,1.511c-1.4,0-2.777-.068-4.178-.068h-6.162c-.65,0-.928.27-.928.962v.346c0,.684.27.962.928.962h2.633c.717,0,1.435-.034,2.195-.034,1.03,0,1.578.237,1.578,1.368,0,.819-.034,1.646-.034,2.465v9.454c0,.819.068,1.646.068,2.431,0,1.03-.751,1.063-1.849,1.063a3.121,3.121,0,0,1-1.469-.236,1.136,1.136,0,0,0-.549-.237h-8.736a1.29,1.29,0,0,0-.549.237,3.021,3.021,0,0,1-1.469.236c-1.1,0-1.815-.068-1.815-1.063,0-.718.068-1.646.068-2.431v-9.454c0-.819-.034-1.646-.034-2.465,0-1.1.549-1.368,1.578-1.368.751,0,1.469.034,2.228.034h.616Zm-9.69,22.6c-1.435,0-1.849,0-1.849-1.131,0-1.3.068-2.634.068-3.976v-11.885a16.9,16.9,0,0,0-.1-2.3,1.3,1.3,0,0,1-.034-.346c0-.414.312-.481.616-.481.65,0,2.465.169,3.216.237.312,0,.819.034.819.481,0,.236-.2.313-.515.515-.414.236-.447.65-.447,1.68v12.154c0,.684.27.962.962.962H760.7c1.367,0,2.743-.068,4.144-.068.785,0,.785.346.785,1.545s0,1.545-.785,1.545c-1.4,0-2.777-.067-4.144-.067H741.9c-.481,0-.65.312-1,.818-.312.313-.819.313-1.713.313Zm17.329-17.844a.771.771,0,0,0,.819-.819v-.346a.789.789,0,0,0-.819-.819h-7.74a.789.789,0,0,0-.819.819V2104a.789.789,0,0,0,.819.819Zm-7.74,2.33a.789.789,0,0,0-.819.819v.414a.762.762,0,0,0,.819.785h7.74a.762.762,0,0,0,.819-.785v-.414a.789.789,0,0,0-.819-.819Zm0,4.347c-.582,0-.819.237-.819.819v.481c0,.582.236.819.819.819h7.74c.549,0,.819-.236.819-.819v-.481a.721.721,0,0,0-.819-.819Z" transform="translate(-80.145 87.04)" fill="#9a6167"/>
    <path id="パス_7696" data-name="パス 7696" d="M786.458,2106.805c0,.236-.2.346-.414.481-.27.2-.312.515-.312,1.68v8.424c0,1.435.068,2.844.068,4.28,0,.928-.38,1.131-1.781,1.131s-1.781-.27-1.781-1.2c0-1.4.068-2.811.068-4.212v-7.057c0-.2-.1-.414-.346-.414a.472.472,0,0,0-.3.1c-.346.346-1.367,1.4-1.815,1.4a4.221,4.221,0,0,1-2.161-2.195c0-.312.27-.515.515-.684A40.8,40.8,0,0,0,786,2099.4c.135-.27.236-.481.549-.481a15.643,15.643,0,0,1,2.566,1.232c.236.1.616.313.616.616,0,.236-.346.313-.549.346-.312.034-.38.034-.65.448-1,1.469-2.051,2.878-3.148,4.28a.361.361,0,0,0-.068.2c0,.2.135.27.346.312.27.034.785.068.785.448Zm.135-13.969c.135.067.312.169.447.236.515.27,1.03.549,1.03.819,0,.068-.034.312-.481.346-.27,0-.346.034-.481.2a47.036,47.036,0,0,1-5.546,6.128c-.27.236-1.2,1.1-1.511,1.1-.582,0-2.161-1.4-2.161-2.051,0-.38.38-.616.895-1.03a32.7,32.7,0,0,0,5.681-6.061c.135-.2.27-.414.515-.414a5.643,5.643,0,0,1,1.612.718Zm14.18,18.012h1.435c1.3,0,2.566-.067,3.866-.067.895,0,.853.447.853,1.646,0,1.3,0,1.68-.895,1.68-1.3,0-2.566-.1-3.832-.1h-1.435a.844.844,0,0,0-.962.962v2.5c0,.684.312.962.962.962h3.115c1.3,0,2.566-.068,3.866-.068.886,0,.853.447.853,1.679s.034,1.68-.853,1.68c-1.3,0-2.566-.068-3.866-.068H791.894c-1.266,0-2.566.068-3.866.068-.886,0-.853-.481-.853-1.68,0-1.3,0-1.679.886-1.679,1.3,0,2.566.068,3.832.068h3.494c.684,0,.962-.27.962-.962v-2.5c0-.65-.27-.962-.962-.962h-1.232c-1.3,0-2.566.1-3.866.1-.886,0-.853-.447-.853-1.68s0-1.646.886-1.646c1.266,0,2.566.067,3.832.067h1.232c.684,0,.962-.27.962-.962a10.2,10.2,0,0,0-.135-2.262v-.312c0-.448.27-.515.616-.515.169,0,2.912.169,3.182.2.2,0,.616.1.616.38s-.2.313-.447.481c-.38.236-.414.718-.38,2.094,0,.65.346.895.962.895Zm-9.825-2.228a5.756,5.756,0,0,1-1.578.515c-.751,0-1.747-1.916-1.747-2.431,0-.481.785-.684,1.714-1.03a29.116,29.116,0,0,0,5.478-2.6c.236-.169.414-.312.414-.583a.754.754,0,0,0-.236-.549,20.046,20.046,0,0,1-3.359-5.241c-.169-.312-.346-.616-.717-.616-.346,0-.717.034-1.1.034-.751,0-.717-.38-.717-1.545s-.034-1.511.717-1.511c1.232,0,2.431.068,3.663.068h8.086c.785,0,1.578-.034,2.363-.034a1.748,1.748,0,0,1,1.612.819,2.659,2.659,0,0,1,.785,1.612c0,1.68-3.562,5.275-4.794,6.44a.854.854,0,0,0-.27.549.639.639,0,0,0,.38.549,31.6,31.6,0,0,0,6.812,2.912c.27.067.481.169.481.481,0,.684-1.03,2.6-1.781,2.6a2.874,2.874,0,0,1-.886-.236,35.442,35.442,0,0,1-7.327-3.63,1.516,1.516,0,0,0-.751-.236,1.4,1.4,0,0,0-.718.236,35,35,0,0,1-6.508,3.427Zm10.753-12.087c0-.548-.447-.515-1.646-.515h-4.246c-.312.034-.616.135-.616.515a.592.592,0,0,0,.1.313,15.543,15.543,0,0,0,2.3,3.115.906.906,0,0,0,.684.346,1.223,1.223,0,0,0,.684-.27c.616-.582,2.743-2.709,2.743-3.494Z" transform="translate(-86.674 87.001)" fill="#9a6167"/>
    <path id="パス_7697" data-name="パス 7697" d="M841.981,2114.1c0,1.984.1,5.58.1,5.993,0,.718-.2.853-1,.853h-2.127c-.785,0-1-.135-1-.853,0-.414.1-4.009.1-5.993v-11.986c0-.582-.1-.819-.414-.819a1.414,1.414,0,0,0-.549.135c-1.03.38-2.195.853-3.081,1.266a1.545,1.545,0,0,1-.65.2c-.312,0-.447-.236-.616-.751l-.65-1.713a1.852,1.852,0,0,1-.135-.65c0-.312.2-.481.785-.65a53.993,53.993,0,0,0,5.343-2.017,4.481,4.481,0,0,1,2.017-.414h.928c.785,0,1,.135,1,.853,0,.515-.068,4.009-.068,5.993V2114.1Z" transform="translate(-95.139 86.286)" fill="#9a6167"/>
    <path id="パス_7698" data-name="パス 7698" d="M866.44,2107.822c0,.1.169.2.515.313a5.363,5.363,0,0,1,3.942,5.41c0,3.8-2.811,7.6-10.272,7.6a16.072,16.072,0,0,1-6.406-1.232c-.515-.237-.717-.448-.717-.785a1.568,1.568,0,0,1,.135-.616l.582-1.68c.169-.481.3-.718.582-.718a1.73,1.73,0,0,1,.65.27,10.45,10.45,0,0,0,5.309,1.334c4.043,0,6.06-2.094,6.06-4.246,0-2.364-1.984-3.562-6.407-3.562-.751,0-1.95.034-2.3.034-.886,0-1.03-.135-1.03-1v-1.545c0-.886.135-1.03,1.03-1.03.38,0,1.3.034,1.95.034,4.144,0,5.681-1.469,5.681-3.359s-1.68-3.013-4.313-3.013a9.011,9.011,0,0,0-4.794,1.334,1.466,1.466,0,0,1-.684.312c-.236,0-.414-.2-.616-.684l-.751-1.579a1.821,1.821,0,0,1-.2-.684c0-.312.2-.481.684-.718a14.744,14.744,0,0,1,6.778-1.612c5.613,0,7.909,2.844,7.909,5.926a5.56,5.56,0,0,1-2.878,5.106c-.27.135-.447.27-.447.38Z" transform="translate(-98.496 86.331)" fill="#9a6167"/>
    <path id="パス_7699" data-name="パス 7699" d="M886.424,2121.953a2.609,2.609,0,0,1-2.71,2.777,2.341,2.341,0,0,1-2.465-2.4,2.61,2.61,0,0,1,2.743-2.743A2.324,2.324,0,0,1,886.424,2121.953Z" transform="translate(-102.823 82.717)" fill="#9a6167"/>
    <path id="パス_7700" data-name="パス 7700" d="M902.713,2105.674c4.727,0,8.356,2.329,8.356,7.022,0,4.009-2.6,8.491-10.1,8.491a14.79,14.79,0,0,1-6.128-1.3c-.481-.236-.718-.414-.718-.718a2.048,2.048,0,0,1,.169-.65l.65-1.646c.2-.481.346-.718.582-.718a1.279,1.279,0,0,1,.65.313,10.121,10.121,0,0,0,5,1.3c4.178,0,5.892-2.229,5.892-4.761s-2.161-4.077-5.309-4.077a10.955,10.955,0,0,0-3.731.616,2.885,2.885,0,0,1-.928.236,4.126,4.126,0,0,1-1-.236c-.684-.236-.886-.38-.886-.886a2.2,2.2,0,0,1,.034-.448c.135-1.03.236-1.983.346-3.047l.38-4.246c.068-.928.169-2.33.2-3.216.034-.819.169-1,.853-1,.447,0,3.461.068,5.208.068h1.916c1.747,0,5.064-.068,5.309-.068.717,0,.852.2.852,1v1.814c0,.785-.135,1-.852,1-.236,0-3.562-.1-5.309-.1h-3.427c-.886,0-1.063.135-1.131,1.03l-.27,3.014a7.872,7.872,0,0,0-.068.928c0,.447.135.582.481.582a2.215,2.215,0,0,0,.447-.033,12.163,12.163,0,0,1,2.532-.236Z" transform="translate(-104.83 86.284)" fill="#9a6167"/>
    <path id="パス_7701" data-name="パス 7701" d="M925.978,2116.669c0,1.545.068,4.381.068,4.626,0,.718-.2.853-1,.853h-1.984c-.785,0-1-.135-1-.853,0-.237.068-3.081.068-4.626v-6.609c0-1.544-.068-4.381-.068-4.625,0-.718.2-.853,1-.853h1.68c.785,0,.928.135.962.928.034.448.1.65.27.65a1.085,1.085,0,0,0,.515-.237,7.368,7.368,0,0,1,4.558-1.545,5.385,5.385,0,0,1,4.111,1.646c.312.346.481.515.684.515.169,0,.346-.135.684-.414a8.424,8.424,0,0,1,5.14-1.747c3.393,0,5.647,2.33,5.647,6.128v6.162c0,1.545.068,4.381.068,4.626,0,.718-.2.853-1,.853H944.4c-.785,0-1-.135-1-.853,0-.237.068-3.081.068-4.626v-5.106c0-2.085-1-3.494-3.115-3.494a4.9,4.9,0,0,0-3.013,1.1,1.289,1.289,0,0,0-.65,1.334v6.162c0,1.545.068,4.381.068,4.625,0,.718-.2.853-1,.853h-1.984c-.785,0-1-.135-1-.853,0-.237.068-3.081.068-4.625v-5.107c0-2.085-1-3.494-3.115-3.494a4.994,4.994,0,0,0-3.013,1.063,1.644,1.644,0,0,0-.751,1.545v5.993Z" transform="translate(-109.188 85.088)" fill="#9a6167"/>
    <path id="パス_7702" data-name="パス 7702" d="M964.038,2116.669c0,1.545.068,4.381.068,4.626,0,.718-.2.853-1,.853h-1.984c-.785,0-1-.135-1-.853,0-.237.068-3.081.068-4.626v-6.609c0-1.544-.068-4.381-.068-4.625,0-.718.2-.853,1-.853h1.68c.785,0,.928.135.962.928.034.448.1.65.279.65a1.085,1.085,0,0,0,.515-.237,7.368,7.368,0,0,1,4.558-1.545,5.385,5.385,0,0,1,4.111,1.646c.312.346.481.515.684.515.169,0,.346-.135.684-.414a8.424,8.424,0,0,1,5.14-1.747c3.393,0,5.647,2.33,5.647,6.128v6.162c0,1.545.068,4.381.068,4.626,0,.718-.2.853-1,.853h-1.984c-.785,0-1-.135-1-.853,0-.237.068-3.081.068-4.626v-5.106c0-2.085-1-3.494-3.115-3.494a4.9,4.9,0,0,0-3.013,1.1,1.289,1.289,0,0,0-.65,1.334v6.162c0,1.545.068,4.381.068,4.625,0,.718-.2.853-1,.853h-1.984c-.785,0-1-.135-1-.853,0-.237.068-3.081.068-4.625v-5.107c0-2.085-1-3.494-3.115-3.494a4.994,4.994,0,0,0-3.013,1.063,1.644,1.644,0,0,0-.751,1.545v5.993Z" transform="translate(-115.123 85.088)" fill="#9a6167"/>
  </g>
</svg>
