<svg xmlns="http://www.w3.org/2000/svg" width="303.079" height="65.102" viewBox="0 0 303.079 65.102">
  <g id="グループ_1534" data-name="グループ 1534" transform="translate(-63.46 -658.308)">
    <g id="グループ_332" data-name="グループ 332" transform="translate(-157.854 -1414.072)">
      <rect id="長方形_121" data-name="長方形 121" width="124.464" height="27.102" rx="13.551" transform="translate(244.435 2109.881)" fill="none" stroke="#9a6167" stroke-miterlimit="10" stroke-width="1"/>
      <g id="グループ_325" data-name="グループ 325" transform="translate(262.687 2116.805)">
        <g id="グループ_324" data-name="グループ 324" transform="translate(0 0)">
          <path id="パス_914" data-name="パス 914" d="M1109.3,2095.974a.216.216,0,0,0-.106.03,11.857,11.857,0,0,1-2.926,1.825c-.407,0-.905-.8-.905-1.041,0-.181.287-.317.453-.392a17.075,17.075,0,0,0,4.6-3.408,8.23,8.23,0,0,0,1.01-1.282.326.326,0,0,1,.286-.2c.151,0,1.222.256,1.448.317.12.03.286.106.286.256,0,.091-.09.151-.166.181a.14.14,0,0,0-.075.105.078.078,0,0,0,.03.061,14.88,14.88,0,0,0,5.429,3.967c.136.061.347.136.347.317,0,.211-.468,1.146-.784,1.146a16.146,16.146,0,0,1-3.167-1.855.131.131,0,0,0-.09-.045c-.091,0-.121.076-.136.151-.015.226-.045.347-.3.347-.362,0-.784-.031-1.207-.031h-2.4c-.407,0-.86.031-1.192.031-.256,0-.3-.106-.317-.347C1109.407,2096.035,1109.377,2095.974,1109.3,2095.974Zm.075,8.551c-.2,0-.271.091-.271.287v.045c0,.347-.242.332-.845.332-.573,0-.8,0-.8-.332,0-.2.045-.634.045-.935v-2.218c0-.286-.03-.588-.03-.875,0-.588.513-.648.98-.648.422,0,.845.03,1.267.03h3.016a.621.621,0,0,0,.618-.316,6.991,6.991,0,0,0,.724-1.222c0-.2-.346-.166-.482-.166h-3.906c-.558,0-1.146.045-1.6.045-.362,0-.347-.2-.347-.694,0-.422,0-.619.347-.619.377,0,1.011.045,1.6.045h4.253c.437,0,.86-.03,1.3-.03a1.022,1.022,0,0,1,.95.694,8.475,8.475,0,0,1-1.026,1.915.212.212,0,0,0-.046.136c0,.135.106.181.226.181h.422c.453,0,.95.075.95.633,0,.3-.03.588-.03.889v2.218c0,.2.045.708.045.92,0,.362-.227.347-.815.347-.573,0-.8.015-.8-.332v-.045c0-.2-.09-.287-.271-.287Zm5.776-2.655a.431.431,0,0,0-.422-.422h-5.249a.432.432,0,0,0-.422.422v1a.431.431,0,0,0,.422.422h5.249a.431.431,0,0,0,.422-.422Zm-3.016-8.446a.394.394,0,0,0-.271.136,18.1,18.1,0,0,1-1.433,1.417.228.228,0,0,0-.06.136c0,.105.075.136.166.15h3.167c.075-.015.166-.045.166-.15a.172.172,0,0,0-.045-.121,15.755,15.755,0,0,1-1.418-1.417A.413.413,0,0,0,1112.137,2093.425Z" transform="translate(-1105.365 -2091.51)" fill="#9a6167"/>
          <path id="パス_915" data-name="パス 915" d="M1150.688,2097.029c-.5,0-1,.03-1.493.03-.347,0-.347-.181-.347-.769,0-.6,0-.784.347-.784.5,0,1,.03,1.493.03h2.338a.68.68,0,0,1,.664.287.9.9,0,0,1,.211.573,4.59,4.59,0,0,1-.226.98,14.009,14.009,0,0,1-1.915,4.042c-.332.467-1.795,2.278-2.338,2.278-.317,0-1.041-.573-1.041-.89,0-.151.151-.256.271-.347a10.568,10.568,0,0,0,2.5-2.986,9.69,9.69,0,0,0,.9-2.2c0-.271-.271-.241-.664-.241Zm6.561.151a.344.344,0,0,0,.242-.09,16.352,16.352,0,0,0,2.187-2.263c.06-.06.136-.166.226-.166a8.006,8.006,0,0,1,1.267.844c.075.06.226.2.226.3a.2.2,0,0,1-.2.2c-.075,0-.136-.015-.211-.015a.308.308,0,0,0-.227.091,26.772,26.772,0,0,1-2.5,2.308.427.427,0,0,0-.181.316.474.474,0,0,0,.09.241,13.734,13.734,0,0,0,3.454,3.408c.121.076.286.181.286.332,0,.227-.663,1.026-1.04,1.026-.287,0-1.192-.8-1.448-1.026a14.462,14.462,0,0,1-3.3-4.494c-.03-.03-.045-.061-.09-.061-.061,0-.091.045-.091.106v4.359c0,.407.03.814.03,1.206,0,1.614-1.417,1.7-2.685,1.7-.347,0-.633,0-.769-.317a3.726,3.726,0,0,1-.166-1c0-.241.075-.376.331-.376.181,0,.528.045.86.045.9,0,.875-.3.875-1.222v-8.672c0-.528-.015-1.071-.06-1.523,0-.045-.015-.136-.015-.2,0-.166.105-.211.257-.211.256,0,1.146.075,1.433.105.12.015.362.03.362.2,0,.105-.106.151-.242.241-.181.135-.211.407-.211.92v.845a1.371,1.371,0,0,0,.091.543,20.575,20.575,0,0,0,.95,2.112C1157.052,2097.09,1157.128,2097.18,1157.248,2097.18Z" transform="translate(-1132.391 -2091.841)" fill="#9a6167"/>
          <path id="パス_916" data-name="パス 916" d="M1199.643,2101.443h3.318c.588,0,1.192-.045,1.78-.045.362,0,.362.151.362.709s0,.709-.362.709c-.588,0-1.192-.03-1.78-.03h-3.333c-.286,0-.407.121-.407.407v.287c0,.513.03,1.041.03,1.553,0,.482-.182.5-.8.5-.634,0-.814-.015-.814-.483,0-.528.031-1.055.031-1.568v-.287c0-.287-.121-.407-.407-.407h-3.333c-.588,0-1.177.03-1.78.03-.362,0-.347-.151-.347-.709s0-.709.347-.709c.6,0,1.192.045,1.78.045h3.333c.272,0,.392-.121.407-.407-.015-.136-.045-.453-.045-.5,0-.151.106-.211.256-.211.181,0,1.237.106,1.463.121.121.015.256.045.256.181s-.106.166-.2.226a.368.368,0,0,0-.166.3C1199.266,2101.382,1199.432,2101.443,1199.643,2101.443Zm-4.192-3.092c0,.317-.03.362-.226.452-.649.317-1.237.573-1.976.89-.241.105-.317.121-.377.3a.207.207,0,0,1-.181.166c-.12,0-.166-.121-.241-.286-.136-.271-.241-.558-.362-.844a.573.573,0,0,1-.075-.227c0-.12.091-.12.317-.181a19.366,19.366,0,0,0,2.564-1.025.586.586,0,0,1,.212-.076C1195.39,2097.521,1195.451,2098.155,1195.451,2098.351Zm.075,2.172c-.045.09-.106.166-.211.166-.135,0-.2-.166-.226-.272a9.719,9.719,0,0,1-.287-1.085c0-.151.105-.166.784-.181.362,0,.618.03.89-.272.075-.091.166-.181.241-.271a.471.471,0,0,0,.106-.271.365.365,0,0,0-.151-.287c-.437-.377-.89-.708-1.357-1.041-.09-.06-.272-.166-.272-.3,0-.166.3-.543.407-.678.166-.2.256-.211.362-.181a.682.682,0,0,0,.241.045.3.3,0,0,0,.256-.135c.166-.257.317-.513.467-.77a.241.241,0,0,0,.046-.136c0-.166-.121-.211-.256-.226h-2.383c-.6,0-1.192.03-1.795.03-.362,0-.347-.151-.347-.679,0-.543-.015-.694.362-.694.588,0,1.176.03,1.78.03h3.061c.272,0,.407-.105.423-.392-.015-.227-.031-.452-.061-.663a.381.381,0,0,1-.015-.121c0-.166.166-.181.286-.181.272,0,1.056.06,1.357.09.166.015.347.031.347.181,0,.12-.106.166-.2.211-.166.091-.151.241-.151.483,0,.287.136.392.407.392h3.107c.588,0,1.192-.03,1.78-.03.362,0,.362.166.362.694,0,.543,0,.679-.362.679-.588,0-1.191-.03-1.78-.03h-4.494c-.03,0-.06.015-.06.045a.032.032,0,0,0,.03.03c.106.061.347.181.347.3s-.151.121-.226.121c-.105.015-.12.015-.2.12-.287.407-.618.92-.935,1.312a.279.279,0,0,0-.076.181c0,.076.061.136.106.2a1.639,1.639,0,0,1,.181.151.471.471,0,0,0,.271.106.366.366,0,0,0,.287-.151c.317-.437.6-.845.889-1.312.045-.06.091-.136.181-.136.121,0,1.3.649,1.3.814s-.182.181-.286.181c-.166,0-.151.015-.241.105a25.151,25.151,0,0,1-1.659,2.021.285.285,0,0,0-.045.121.147.147,0,0,0,.166.15c.422-.045.86-.076,1.282-.105.121-.03.227-.091.227-.226,0-.105-.106-.211-.166-.3a1.35,1.35,0,0,1-.211-.422c0-.226.709-.528.89-.528a.4.4,0,0,1,.332.241c.3.422.573.814.83,1.252a7,7,0,0,1,.649,1.237c0,.241-.74.558-.965.558s-.256-.2-.362-.392a.459.459,0,0,0-.437-.3h-.106c-1.523.166-3.031.3-4.554.407C1195.6,2100.4,1195.571,2100.448,1195.526,2100.523Zm-1.538-3.182c-.136,0-.438-.347-.528-.453-.211-.211-.724-.648-.965-.845-.091-.06-.256-.166-.256-.3,0-.12.573-.814.814-.814.2,0,.814.573,1,.739.136.121.754.649.754.814C1194.8,2096.707,1194.259,2097.341,1193.988,2097.341Zm10.572-1.161a.357.357,0,0,1-.135-.03.469.469,0,0,0-.121-.03.37.37,0,0,0-.166.061,12.49,12.49,0,0,1-2.338.95c-.392,0-.663-.769-.663-.9,0-.2.211-.241.483-.332a10.987,10.987,0,0,0,2.1-.966.527.527,0,0,1,.211-.09c.181,0,.769,1.146.769,1.206A.127.127,0,0,1,1204.56,2096.179Zm-.859,2.1c.2.105,1,.5,1,.724,0,.181-.452.92-.694.92a.59.59,0,0,1-.317-.166,22.2,22.2,0,0,0-2.111-1.176c-.151-.076-.347-.151-.347-.332,0-.106.287-.86.543-.86A13.454,13.454,0,0,1,1203.7,2098.275Z" transform="translate(-1159.671 -2091.791)" fill="#9a6167"/>
          <path id="パス_917" data-name="パス 917" d="M1250.946,2101.441c0,.045.075.09.226.135a2.361,2.361,0,0,1,1.734,2.383c0,1.674-1.237,3.348-4.524,3.348a7.06,7.06,0,0,1-2.821-.543c-.226-.106-.317-.2-.317-.347a.68.68,0,0,1,.06-.271l.257-.739c.075-.211.136-.316.256-.316a.76.76,0,0,1,.287.12,4.593,4.593,0,0,0,2.338.588c1.779,0,2.669-.92,2.669-1.87,0-1.041-.875-1.569-2.821-1.569-.332,0-.859.015-1.01.015-.392,0-.453-.06-.453-.437v-.679c0-.393.06-.452.453-.452.166,0,.573.015.859.015,1.825,0,2.5-.649,2.5-1.479,0-.814-.739-1.327-1.9-1.327a3.958,3.958,0,0,0-2.111.588.617.617,0,0,1-.3.136c-.106,0-.181-.091-.271-.3l-.332-.694a.8.8,0,0,1-.09-.3c0-.136.09-.211.3-.317a6.514,6.514,0,0,1,2.986-.709c2.473,0,3.484,1.252,3.484,2.609a2.448,2.448,0,0,1-1.267,2.247C1251.021,2101.335,1250.946,2101.4,1250.946,2101.441Z" transform="translate(-1193.249 -2094.594)" fill="#9a6167"/>
          <path id="パス_918" data-name="パス 918" d="M1278.961,2101.471c0,.06.075.121.226.2a2.983,2.983,0,0,1,2.006,2.67c0,1.719-1.4,2.941-4.389,2.941-2.383,0-4.087-1.026-4.087-2.805a3.044,3.044,0,0,1,1.93-2.715c.151-.075.226-.136.226-.2s-.075-.121-.211-.211a2.663,2.663,0,0,1-1.493-2.353c0-1.448,1.342-2.7,3.906-2.7,2.338,0,3.7,1.116,3.7,2.564a2.787,2.787,0,0,1-1.6,2.4C1279.036,2101.335,1278.961,2101.411,1278.961,2101.471Zm-2.248.829a1.021,1.021,0,0,0-.422.106c-1.146.483-1.825,1.086-1.825,1.946,0,.95,1.04,1.463,2.413,1.463,1.509,0,2.534-.543,2.534-1.524,0-.92-.935-1.387-2.293-1.9A1.178,1.178,0,0,0,1276.714,2102.3Zm.3-4.494c-1.177,0-2.066.468-2.066,1.237s.769,1.206,1.81,1.629a1.251,1.251,0,0,0,.407.105,1.067,1.067,0,0,0,.422-.121c.92-.437,1.433-.965,1.433-1.644C1279.021,2098.259,1278.162,2097.806,1277.015,2097.806Z" transform="translate(-1210.509 -2094.518)" fill="#9a6167"/>
          <path id="パス_919" data-name="パス 919" d="M1307.349,2099.461c0,2.081-1.161,3.272-2.775,3.272-1.478,0-2.639-1.1-2.639-3.031,0-1.961,1.055-3.243,2.8-3.243C1306.2,2096.46,1307.349,2097.531,1307.349,2099.461Zm-3.891.271c0,1.056.483,1.614,1.131,1.614.754,0,1.252-.648,1.252-1.795,0-1.041-.467-1.629-1.146-1.629C1303.9,2097.923,1303.458,2098.661,1303.458,2099.732Zm1.734,7.5c-.226,0-.332-.03-.332-.136a.7.7,0,0,1,.09-.271c.256-.483.513-1,.754-1.463l3.438-6.938c.227-.453.468-.966.694-1.463.151-.347.242-.407.633-.407h.8c.226,0,.332.03.332.136a.649.649,0,0,1-.09.256c-.271.528-.543,1.055-.769,1.523l-3.423,6.907c-.226.483-.468.965-.694,1.448-.166.347-.242.407-.633.407Zm9.321-3.182c0,2.081-1.161,3.273-2.775,3.273-1.478,0-2.639-1.1-2.639-3.032,0-1.96,1.056-3.242,2.8-3.242C1313.367,2101.045,1314.513,2102.115,1314.513,2104.046Zm-3.891.271c0,1.056.482,1.614,1.131,1.614.754,0,1.251-.648,1.251-1.795,0-1.041-.468-1.629-1.146-1.629C1311.059,2102.508,1310.622,2103.246,1310.622,2104.317Z" transform="translate(-1228.866 -2094.62)" fill="#9a6167"/>
        </g>
      </g>
      <path id="パス_9145" data-name="パス 9145" d="M13.551,0h78.8a13.551,13.551,0,1,1,0,27.1h-78.8a13.551,13.551,0,0,1,0-27.1Z" transform="translate(377.077 2109.881)" fill="none" stroke="#9a6167" stroke-width="1"/>
      <g id="グループ_327" data-name="グループ 327" transform="translate(393.806 2118.585)">
        <g id="グループ_326" data-name="グループ 326" transform="translate(0 0)">
          <path id="パス_920" data-name="パス 920" d="M1460.529,2107.33c-.709,0-1.9.031-2.006.031-.317,0-.422-.106-.422-.422,0-.106.03-1.735.03-2.579v-4.736c0-.739-.03-2.262-.03-2.518,0-.362.09-.483.422-.483.166,0,1.3.03,2.006.03h1.161c2.172,0,3.454.573,3.454,2.413a2.6,2.6,0,0,1-.98,2.277c-.12.091-.2.151-.2.2,0,.075.075.12.241.181a2.3,2.3,0,0,1,1.448,2.338c0,2.247-1.494,3.272-3.922,3.272Zm-.694-6.772c0,.377.075.453.452.453h1.207c1.116,0,1.916-.422,1.916-1.629,0-1-.814-1.252-1.734-1.252h-1.388c-.377,0-.452.075-.452.453Zm0,4.872c0,.377.075.452.452.452h1.418c1.252,0,2.172-.588,2.172-1.84,0-1.146-.739-1.583-1.9-1.583h-1.689c-.377,0-.452.075-.452.452Z" transform="translate(-1458.101 -2096.502)" fill="#9a6167"/>
          <path id="パス_921" data-name="パス 921" d="M1492.851,2106.519c0,.136-.105.211-.332.317a6.614,6.614,0,0,1-2.549.483,4.849,4.849,0,0,1-5.128-5.173,5.316,5.316,0,0,1,5.686-5.686,5.906,5.906,0,0,1,2.172.377c.226.09.332.166.332.3a.893.893,0,0,1-.076.286l-.332.905c-.09.226-.135.317-.256.317a.794.794,0,0,1-.3-.091,4.07,4.07,0,0,0-1.613-.347,3.61,3.61,0,0,0-3.786,3.891,3.321,3.321,0,0,0,3.5,3.574,3.935,3.935,0,0,0,1.75-.377.706.706,0,0,1,.3-.106c.12,0,.181.091.271.317l.287.724A.9.9,0,0,1,1492.851,2106.519Z" transform="translate(-1474.902 -2096.399)" fill="#9a6167"/>
          <path id="パス_922" data-name="パス 922" d="M1530.286,2101.471c0,.06.075.121.226.2a2.983,2.983,0,0,1,2.006,2.67c0,1.719-1.4,2.941-4.389,2.941-2.383,0-4.087-1.026-4.087-2.805a3.044,3.044,0,0,1,1.93-2.715c.151-.075.226-.136.226-.2s-.075-.121-.211-.211a2.663,2.663,0,0,1-1.493-2.353c0-1.448,1.342-2.7,3.906-2.7,2.338,0,3.695,1.116,3.695,2.564a2.787,2.787,0,0,1-1.6,2.4C1530.361,2101.335,1530.286,2101.411,1530.286,2101.471Zm-2.248.829a1.021,1.021,0,0,0-.422.106c-1.146.483-1.825,1.086-1.825,1.946,0,.95,1.04,1.463,2.413,1.463,1.508,0,2.534-.543,2.534-1.524,0-.92-.935-1.387-2.292-1.9A1.182,1.182,0,0,0,1528.039,2102.3Zm.3-4.494c-1.177,0-2.066.468-2.066,1.237s.769,1.206,1.81,1.629a1.254,1.254,0,0,0,.407.105,1.066,1.066,0,0,0,.422-.121c.92-.437,1.433-.965,1.433-1.644C1530.346,2098.259,1529.487,2097.806,1528.34,2097.806Z" transform="translate(-1499.53 -2096.298)" fill="#9a6167"/>
          <path id="パス_923" data-name="パス 923" d="M1555.7,2120.627a1.147,1.147,0,0,1-1.192,1.222,1.03,1.03,0,0,1-1.086-1.056,1.146,1.146,0,0,1,1.207-1.206A1.022,1.022,0,0,1,1555.7,2120.627Z" transform="translate(-1517.989 -2110.93)" fill="#9a6167"/>
          <path id="パス_924" data-name="パス 924" d="M1568.886,2100.883a4.938,4.938,0,0,1,2.428-.649,3.118,3.118,0,0,1,3.394,3.228,4.115,4.115,0,0,1-8.22-.362,6.959,6.959,0,0,1,1.9-5.007,6.526,6.526,0,0,1,4.238-1.674c.3,0,.362.076.362.422v.784c0,.392-.061.452-.453.5a5.014,5.014,0,0,0-3.167,1.4,3.458,3.458,0,0,0-.875,1.463.055.055,0,0,0,.06.06A.8.8,0,0,0,1568.886,2100.883Zm-.286,1.6a.832.832,0,0,0-.407.814,2.324,2.324,0,0,0,2.428,2.5,2.2,2.2,0,0,0,2.368-2.2,1.882,1.882,0,0,0-2.1-1.87A3.931,3.931,0,0,0,1568.6,2102.482Z" transform="translate(-1526.198 -2096.374)" fill="#9a6167"/>
          <path id="パス_925" data-name="パス 925" d="M1597.627,2109.786c0,.679.03,1.931.03,2.037,0,.316-.09.377-.437.377h-.875c-.347,0-.437-.06-.437-.377,0-.106.03-1.358.03-2.037v-2.911c0-.679-.03-1.931-.03-2.036,0-.317.09-.377.438-.377h.739c.347,0,.407.06.422.407.015.2.045.286.12.286a.462.462,0,0,0,.226-.105,3.25,3.25,0,0,1,2.006-.678,2.4,2.4,0,0,1,1.81.724c.136.151.211.226.3.226.075,0,.151-.06.3-.181a3.718,3.718,0,0,1,2.262-.769,2.429,2.429,0,0,1,2.489,2.7v2.715c0,.679.03,1.931.03,2.037,0,.316-.091.377-.437.377h-.875c-.346,0-.437-.06-.437-.377,0-.106.03-1.358.03-2.037v-2.247c0-.92-.437-1.538-1.373-1.538a2.151,2.151,0,0,0-1.327.482.567.567,0,0,0-.287.588v2.715c0,.679.03,1.931.03,2.037,0,.316-.091.377-.437.377h-.875c-.347,0-.437-.06-.437-.377,0-.106.03-1.358.03-2.037v-2.247c0-.92-.437-1.538-1.373-1.538a2.193,2.193,0,0,0-1.327.467.724.724,0,0,0-.332.679Z" transform="translate(-1544.682 -2101.371)" fill="#9a6167"/>
          <path id="パス_926" data-name="パス 926" d="M1635.692,2109.786c0,.679.03,1.931.03,2.037,0,.316-.09.377-.438.377h-.875c-.347,0-.437-.06-.437-.377,0-.106.03-1.358.03-2.037v-2.911c0-.679-.03-1.931-.03-2.036,0-.317.09-.377.437-.377h.739c.346,0,.407.06.422.407.015.2.046.286.121.286a.461.461,0,0,0,.226-.105,3.249,3.249,0,0,1,2.006-.678,2.4,2.4,0,0,1,1.81.724c.136.151.211.226.3.226.075,0,.151-.06.3-.181a3.717,3.717,0,0,1,2.262-.769,2.429,2.429,0,0,1,2.488,2.7v2.715c0,.679.03,1.931.03,2.037,0,.316-.09.377-.438.377h-.875c-.347,0-.437-.06-.437-.377,0-.106.03-1.358.03-2.037v-2.247c0-.92-.437-1.538-1.372-1.538a2.153,2.153,0,0,0-1.328.482.568.568,0,0,0-.286.588v2.715c0,.679.03,1.931.03,2.037,0,.316-.091.377-.437.377h-.875c-.347,0-.437-.06-.437-.377,0-.106.03-1.358.03-2.037v-2.247c0-.92-.437-1.538-1.372-1.538a2.194,2.194,0,0,0-1.328.467.725.725,0,0,0-.332.679Z" transform="translate(-1568.598 -2101.371)" fill="#9a6167"/>
        </g>
      </g>
      <path id="パス_9146" data-name="パス 9146" d="M13.551,0H120.229a13.551,13.551,0,1,1,0,27.1H13.551a13.551,13.551,0,0,1,0-27.1Z" transform="translate(221.814 2072.881)" fill="none" stroke="#9a6167" stroke-width="1"/>
      <g id="グループ_329" data-name="グループ 329" transform="translate(242.622 2081.408)">
        <g id="グループ_328" data-name="グループ 328" transform="translate(0 0)">
          <path id="パス_927" data-name="パス 927" d="M280.22,2106.731c-.709,0-1.9.03-2.006.03-.332,0-.422-.12-.422-.483.015-.845.03-1.8.03-2.519v-4.736c0-.739-.015-1.644-.03-2.519,0-.362.091-.482.422-.482.106,0,1.3.03,2.006.03h1.855c2.986,0,4.766,1.659,4.766,5.022,0,3.514-1.93,5.656-5.248,5.656Zm-.648-2.006c0,.377.076.452.452.452h1.523c2.368,0,3.514-1.613,3.514-4.011,0-2.036-.965-3.484-3.152-3.484h-1.885c-.377,0-.452.076-.452.452Z" transform="translate(-277.792 -2095.948)" fill="#9a6167"/>
          <path id="パス_928" data-name="パス 928" d="M310.287,2106.782c-.347,0-.437-.06-.437-.377,0-.106.045-1.764.045-2.639v-4.645c0-.875-.045-2.534-.045-2.639,0-.317.09-.377.437-.377h.965c.347,0,.438.06.438.377,0,.105-.045,1.764-.045,2.639v4.645c0,.875.045,2.534.045,2.639,0,.317-.091.377-.437.377Z" transform="translate(-297.933 -2095.998)" fill="#9a6167"/>
          <path id="パス_929" data-name="パス 929" d="M324.719,2104.263c-.392,0-.5.03-.633.362-.211.5-.407,1.01-.663,1.734-.136.362-.211.423-.6.423h-1.056c-.241,0-.347-.03-.347-.151a.647.647,0,0,1,.09-.256c.468-1.056.8-1.81,1.116-2.549l2.156-5.113c.272-.649.588-1.373.905-2.187.136-.362.211-.422.6-.422h.648c.392,0,.468.06.6.422.317.814.619,1.538.89,2.172l2.172,5.1c.332.784.664,1.538,1.131,2.579a.643.643,0,0,1,.091.256c0,.121-.106.151-.347.151h-1.161c-.392,0-.468-.06-.6-.423-.256-.724-.452-1.237-.664-1.734-.136-.332-.226-.362-.633-.362Zm.271-1.87a.679.679,0,0,0-.06.256c0,.136.106.166.347.166h2.579c.242,0,.347-.03.347-.166a.672.672,0,0,0-.06-.256l-1.4-3.454c-.06-.151-.106-.241-.166-.241s-.106.075-.166.241Z" transform="translate(-305.2 -2095.998)" fill="#9a6167"/>
          <path id="パス_930" data-name="パス 930" d="M370.051,2103.765c0,.875.045,2.458.045,2.639,0,.317-.09.377-.438.377h-.935c-.347,0-.437-.06-.437-.377,0-.181.045-1.764.045-2.639v-5.279c0-.257-.045-.362-.181-.362a.624.624,0,0,0-.241.06c-.452.167-.965.377-1.358.558a.678.678,0,0,1-.286.091c-.136,0-.2-.105-.272-.332l-.287-.754a.806.806,0,0,1-.06-.286c0-.136.09-.211.347-.287a23.45,23.45,0,0,0,2.353-.89,2,2,0,0,1,.89-.181h.407c.347,0,.438.06.438.377,0,.226-.03,1.764-.03,2.639Z" transform="translate(-332.989 -2095.998)" fill="#9a6167"/>
          <path id="パス_931" data-name="パス 931" d="M394.541,2104.9c0,.513.03,1.4.03,1.508,0,.317-.091.377-.438.377h-.845c-.347,0-.437-.06-.437-.377,0-.106.03-1,.03-1.508,0-.347-.06-.407-.407-.407h-2.383c-.875,0-2.172.03-2.278.03-.317,0-.377-.09-.377-.437v-.256a1.522,1.522,0,0,1,.212-.86c.332-.6.648-1.222.95-1.81l1.327-2.564c.317-.618.664-1.312,1.026-2.081.151-.347.242-.407.633-.407h1.131c.226,0,.332.03.332.135a.751.751,0,0,1-.106.257c-.483.89-.875,1.629-1.252,2.353l-1.93,3.726a.69.69,0,0,0-.091.271c0,.105.106.136.332.136h2.473c.362,0,.407-.091.407-.437,0-1.025-.03-2.4-.03-2.5,0-.317.091-.377.438-.377h.845c.347,0,.438.06.438.377,0,.105-.03,1.463-.03,2.534,0,.347.061.407.407.407.407,0,1.146-.015,1.252-.015.317,0,.377.09.377.437v.679c0,.347-.06.438-.377.438-.106,0-.845-.03-1.252-.03C394.6,2104.49,394.541,2104.55,394.541,2104.9Z" transform="translate(-346.68 -2095.998)" fill="#9a6167"/>
          <path id="パス_932" data-name="パス 932" d="M419.946,2120.028a1.147,1.147,0,0,1-1.191,1.221,1.03,1.03,0,0,1-1.086-1.056,1.146,1.146,0,0,1,1.207-1.207A1.022,1.022,0,0,1,419.946,2120.028Z" transform="translate(-365.674 -2110.375)" fill="#9a6167"/>
          <path id="パス_933" data-name="パス 933" d="M434.659,2105.05c.769,0,2.187-.031,2.292-.031.317,0,.377.091.377.438v.709c0,.347-.06.438-.377.438-.106,0-1.523-.03-2.292-.03H432.7c-.769,0-2.187.03-2.292.03-.317,0-.377-.091-.377-.438v-.271a.709.709,0,0,1,.362-.739c.272-.2.513-.407.769-.633,2.715-2.383,4.283-3.891,4.283-5.369,0-.98-.678-1.659-1.915-1.659a3.026,3.026,0,0,0-2.2,1c-.136.151-.226.211-.317.211s-.166-.075-.3-.211l-.6-.648c-.121-.135-.181-.227-.181-.317,0-.105.075-.2.212-.332a5.153,5.153,0,0,1,3.544-1.372c2.292,0,3.574,1.357,3.574,3.092,0,2.127-1.7,3.831-4.012,5.837-.121.1-.166.166-.166.211s.091.091.272.091Z" transform="translate(-373.373 -2095.82)" fill="#9a6167"/>
          <path id="パス_934" data-name="パス 934" d="M459.886,2109.187c0,.679.03,1.93.03,2.036,0,.317-.091.377-.438.377H458.6c-.347,0-.437-.06-.437-.377,0-.106.03-1.357.03-2.036v-2.911c0-.678-.03-1.93-.03-2.036,0-.317.09-.377.438-.377h.739c.347,0,.407.06.422.407.015.2.045.287.12.287a.458.458,0,0,0,.226-.105,3.248,3.248,0,0,1,2.006-.678,2.4,2.4,0,0,1,1.81.724c.136.151.211.226.3.226.075,0,.151-.061.3-.181a3.718,3.718,0,0,1,2.262-.769,2.428,2.428,0,0,1,2.488,2.7v2.715c0,.679.03,1.93.03,2.036,0,.317-.09.377-.437.377H468c-.347,0-.438-.06-.438-.377,0-.106.03-1.357.03-2.036v-2.247c0-.92-.437-1.539-1.372-1.539a2.153,2.153,0,0,0-1.327.483.568.568,0,0,0-.287.588v2.715c0,.679.03,1.93.03,2.036,0,.317-.091.377-.437.377h-.875c-.347,0-.438-.06-.438-.377,0-.106.03-1.357.03-2.036v-2.247c0-.92-.437-1.539-1.372-1.539a2.2,2.2,0,0,0-1.327.468.725.725,0,0,0-.332.679Z" transform="translate(-391.118 -2100.817)" fill="#9a6167"/>
          <path id="パス_935" data-name="パス 935" d="M497.95,2109.187c0,.679.03,1.93.03,2.036,0,.317-.091.377-.437.377h-.875c-.347,0-.438-.06-.438-.377,0-.106.03-1.357.03-2.036v-2.911c0-.678-.03-1.93-.03-2.036,0-.317.091-.377.438-.377h.739c.347,0,.407.06.422.407.015.2.045.287.121.287a.458.458,0,0,0,.226-.105,3.25,3.25,0,0,1,2.006-.678,2.394,2.394,0,0,1,1.81.724c.136.151.211.226.3.226.075,0,.151-.061.3-.181a3.72,3.72,0,0,1,2.262-.769,2.428,2.428,0,0,1,2.489,2.7v2.715c0,.679.03,1.93.03,2.036,0,.317-.09.377-.437.377h-.875c-.347,0-.437-.06-.437-.377,0-.106.03-1.357.03-2.036v-2.247c0-.92-.437-1.539-1.372-1.539a2.154,2.154,0,0,0-1.327.483.568.568,0,0,0-.287.588v2.715c0,.679.03,1.93.03,2.036,0,.317-.09.377-.437.377h-.875c-.347,0-.437-.06-.437-.377,0-.106.03-1.357.03-2.036v-2.247c0-.92-.437-1.539-1.372-1.539a2.194,2.194,0,0,0-1.327.468.725.725,0,0,0-.332.679Z" transform="translate(-415.032 -2100.817)" fill="#9a6167"/>
        </g>
      </g>
      <path id="パス_9147" data-name="パス 9147" d="M13.551,0H146.635a13.551,13.551,0,0,1,0,27.1H13.551a13.551,13.551,0,0,1,0-27.1Z" transform="translate(363.708 2072.881)" fill="none" stroke="#9a6167" stroke-width="1"/>
      <g id="グループ_331" data-name="グループ 331" transform="translate(380.132 2079.805)">
        <g id="グループ_330" data-name="グループ 330" transform="translate(0 0)">
          <path id="パス_936" data-name="パス 936" d="M657.431,2104.616h-4.675c-.121,0-.211.03-.226.226-.015.317-.12.347-.784.347s-.814-.015-.814-.362c0-.392.03-.8.03-1.191v-2.066c-.015-.09-.045-.181-.151-.181a.155.155,0,0,0-.121.076c-.271.3-1.6,1.659-1.93,1.659s-1.04-.528-1.04-.889c0-.136.12-.226.226-.3a10.9,10.9,0,0,0,3.107-3.529.439.439,0,0,0,.03-.136c0-.166-.136-.211-.272-.226h-.875c-.573,0-1.161.03-1.749.03-.3,0-.3-.136-.3-.558s0-.573.3-.573c.588,0,1.176.03,1.749.03h3.424c.241,0,.347-.105.347-.362v-.046c0-.256-.106-.362-.347-.362h-2.006c-.543,0-1.086.03-1.644.03-.3,0-.287-.181-.287-.542s0-.543.287-.543c.558,0,1.1.03,1.644.03h2.066c.211,0,.287-.075.287-.286v-.136c0-.211-.076-.287-.271-.287h-3.062c-.588,0-1.161.031-1.749.031-.317,0-.3-.2-.3-.573,0-.407,0-.573.3-.573.588,0,1.161.03,1.749.03h.965c.121,0,.241-.045.241-.2a.244.244,0,0,0-.045-.135c-.2-.286-.347-.468-.573-.754a.34.34,0,0,1-.121-.212c0-.271.905-.558,1.1-.558.226,0,.438.272.573.453a3.8,3.8,0,0,1,.6.935c0,.166-.272.287-.407.347-.015.015-.045.031-.045.061,0,.045.03.06.076.06h2.639a.578.578,0,0,0,.6-.317,9.165,9.165,0,0,0,.678-1.327c.03-.121.076-.226.211-.226a6.344,6.344,0,0,1,.95.317c.226.075.679.241.679.377s-.2.166-.3.181a.265.265,0,0,0-.2.136c-.121.166-.211.347-.317.513a.287.287,0,0,0-.045.15c0,.151.12.181.241.2h.814c.573,0,1.146-.03,1.734-.03.317,0,.317.151.317.573,0,.392,0,.573-.3.573-.588,0-1.177-.031-1.749-.031h-3.107c-.2,0-.287.076-.287.272v.15c0,.211.075.286.287.286h2.081c.558,0,1.1-.03,1.644-.03.3,0,.3.151.3.543,0,.377,0,.542-.287.542-.558,0-1.1-.03-1.659-.03h-2.006c-.256,0-.362.106-.362.362v.046c0,.256.106.362.362.362h3.469c.573,0,1.161-.03,1.749-.03.317,0,.3.151.3.573s.015.558-.3.558c-.588,0-1.177-.03-1.749-.03h-6a.417.417,0,0,0-.407.286.438.438,0,0,0-.03.136c0,.166.136.226.286.226h4.313c.423,0,.845-.015,1.267-.015.483,0,.694.151.694.664,0,.392-.015.784-.015,1.176v3.152c0,.407.03.8.03,1.207,0,.347-.181.347-.8.347-.739,0-.8-.03-.814-.392C657.657,2104.631,657.536,2104.616,657.431,2104.616Zm-.03-4.253a.262.262,0,0,0,.287-.287v-.06a.273.273,0,0,0-.287-.3h-4.615a.273.273,0,0,0-.287.3v.06a.262.262,0,0,0,.287.287Zm-4.615.92a.278.278,0,0,0-.287.287v.091a.262.262,0,0,0,.287.286H657.4a.262.262,0,0,0,.287-.286v-.091a.269.269,0,0,0-.287-.287Zm0,1.629a.277.277,0,0,0-.287.286v.091a.277.277,0,0,0,.287.286H657.4a.269.269,0,0,0,.287-.286v-.091a.269.269,0,0,0-.287-.286Z" transform="translate(-647.718 -2091.51)" fill="#9a6167"/>
          <path id="パス_937" data-name="パス 937" d="M700.061,2095.674c0,.135.106.166.211.166h.392c.5,0,1-.015,1.493-.015.558,0,.875.136.875.754,0,.392-.03.769-.03,1.161v1.659c0,.482.03.95.03,1.282,0,.316-.151.347-.694.347-.513,0-.8,0-.935-.211a.43.43,0,0,0-.407-.15h-6.53c-.3,0-.423.12-.423.422v1.161c0,1.1.136,1.222,1.327,1.222h5.6c1.191,0,1.433-.151,1.644-1.523.06-.347.06-.5.377-.5.407,0,1.252.166,1.252.679a4.945,4.945,0,0,1-.558,1.885c-.468.845-1.161.905-2.051.905h-6.711c-2.745,0-2.458-.83-2.458-2.9v-4.147c-.015-.121-.046-.226-.181-.226a.225.225,0,0,0-.136.061,1.111,1.111,0,0,1-.528.271c-.377,0-.965-.664-.965-.98,0-.18.212-.286.347-.377a15.535,15.535,0,0,0,3.363-3.378,9.883,9.883,0,0,0,.875-1.418.29.29,0,0,1,.271-.2c.121,0,1,.241,1.191.286.241.06.543.121.543.332,0,.151-.226.2-.347.241s-.2.151-.256.257a.29.29,0,0,0-.045.151c0,.15.121.181.242.2H699.2c.332,0,.664-.03.98-.03a1.006,1.006,0,0,1,1.04.769,6.593,6.593,0,0,1-1.1,1.689C700.091,2095.583,700.061,2095.613,700.061,2095.674Zm-5.6,1.553a.432.432,0,0,0-.423.422v1.191a.433.433,0,0,0,.423.423h2.1a.4.4,0,0,0,.407-.423v-1.191a.4.4,0,0,0-.407-.422Zm-.091-1.538c0,.105.106.15.2.15h2.941a.675.675,0,0,0,.649-.271,4.561,4.561,0,0,0,.739-1.071c0-.181-.2-.151-.377-.151H695.9a.685.685,0,0,0-.649.287,11.673,11.673,0,0,1-.815.9A.268.268,0,0,0,694.375,2095.689Zm4.178,3.152a.4.4,0,0,0,.407.423h2.081a.433.433,0,0,0,.423-.423v-1.191a.432.432,0,0,0-.423-.422H698.96a.4.4,0,0,0-.407.422Z" transform="translate(-674.691 -2091.587)" fill="#9a6167"/>
          <path id="パス_938" data-name="パス 938" d="M740.278,2095.48c.3,0,.422-.121.422-.422v-.151c0-.3-.12-.422-.422-.422h-3.589c-.6,0-1.222.03-1.84.03-.332,0-.332-.166-.332-.648,0-.513,0-.679.332-.679.618,0,1.237.03,1.84.03h3.589c.287,0,.407-.105.422-.392-.015-.2-.03-.392-.06-.588v-.151c0-.166.12-.211.271-.211.181,0,1.01.075,1.282.106.045,0,.091.015.136.015.211.015.407.031.407.2,0,.12-.075.151-.226.226a.4.4,0,0,0-.181.407c-.015.286.136.392.407.392h2.7c.619,0,1.222-.03,1.84-.03.332,0,.332.151.332.664,0,.5,0,.663-.332.663-.618,0-1.221-.03-1.84-.03h-2.715c-.287,0-.407.121-.407.422v.151c0,.3.12.422.407.422h1.161c.317,0,.633-.015.965-.015.452,0,.694.105.694.6,0,.362-.015.724-.015,1.086v4.163c0,.362.03.724.03,1.071,0,.453-.332.468-.814.468a1.369,1.369,0,0,1-.649-.106.5.5,0,0,0-.241-.106h-3.846a.564.564,0,0,0-.241.106,1.31,1.31,0,0,1-.649.106c-.482,0-.8-.03-.8-.468,0-.317.03-.724.03-1.071v-4.163c0-.362-.015-.724-.015-1.086,0-.483.242-.6.694-.6.332,0,.649.015.981.015Zm-4.268,9.954c-.633,0-.814,0-.814-.5,0-.573.03-1.161.03-1.75v-5.233a7.379,7.379,0,0,0-.045-1.011.557.557,0,0,1-.015-.151c0-.181.136-.211.271-.211.287,0,1.086.075,1.418.106.136,0,.362.015.362.211,0,.105-.09.135-.226.226-.181.106-.2.287-.2.74v5.354c0,.3.12.422.422.422h8.265c.6,0,1.207-.03,1.825-.03.347,0,.347.151.347.679s0,.678-.347.678c-.618,0-1.221-.03-1.825-.03H737.2c-.211,0-.287.136-.437.362C736.628,2105.434,736.4,2105.434,736.01,2105.434Zm7.632-7.857a.341.341,0,0,0,.362-.362v-.151a.348.348,0,0,0-.362-.362h-3.408a.348.348,0,0,0-.362.362v.151a.349.349,0,0,0,.362.362Zm-3.408,1.025a.349.349,0,0,0-.362.362v.181a.337.337,0,0,0,.362.347h3.408a.337.337,0,0,0,.362-.347v-.181a.349.349,0,0,0-.362-.362Zm0,1.915c-.257,0-.362.106-.362.362v.211c0,.256.106.362.362.362h3.408c.241,0,.362-.106.362-.362v-.211a.32.32,0,0,0-.362-.362Z" transform="translate(-702.252 -2091.739)" fill="#9a6167"/>
          <path id="パス_939" data-name="パス 939" d="M780.257,2098.588c0,.106-.09.151-.181.211-.12.091-.136.227-.136.739v3.71c0,.633.03,1.252.03,1.885,0,.407-.166.5-.784.5-.648,0-.784-.12-.784-.528,0-.618.03-1.237.03-1.855v-3.107c0-.09-.045-.181-.151-.181a.212.212,0,0,0-.136.045c-.151.151-.6.618-.8.618a1.855,1.855,0,0,1-.95-.965c0-.136.12-.226.226-.3a17.89,17.89,0,0,0,3.439-4.027c.06-.12.106-.211.241-.211a6.932,6.932,0,0,1,1.131.543c.106.045.271.135.271.271,0,.106-.151.136-.241.151-.136.015-.166.015-.287.2-.437.649-.9,1.267-1.388,1.885a.164.164,0,0,0-.03.091c0,.09.06.12.151.135C780.03,2098.407,780.257,2098.422,780.257,2098.588Zm.06-6.154c.06.03.136.076.2.106.226.12.452.241.452.362,0,.03-.015.135-.211.151-.121,0-.151.015-.211.091a20.657,20.657,0,0,1-2.443,2.7c-.12.106-.528.482-.664.482-.256,0-.95-.618-.95-.9,0-.166.166-.271.392-.452a14.467,14.467,0,0,0,2.5-2.67c.06-.09.12-.181.226-.181A2.448,2.448,0,0,1,780.317,2092.434Zm6.244,7.934h.633c.573,0,1.131-.03,1.7-.03.392,0,.377.2.377.724,0,.573,0,.739-.392.739-.573,0-1.131-.045-1.689-.045h-.633a.369.369,0,0,0-.423.422v1.1c0,.3.136.422.423.422h1.372c.573,0,1.131-.03,1.7-.03.392,0,.377.2.377.74s.015.739-.377.739c-.573,0-1.131-.03-1.7-.03h-5.279c-.558,0-1.131.03-1.7.03-.392,0-.377-.211-.377-.739,0-.573,0-.74.392-.74.573,0,1.131.03,1.689.03h1.539c.3,0,.422-.12.422-.422v-1.1c0-.287-.121-.422-.422-.422h-.543c-.573,0-1.131.045-1.7.045-.392,0-.377-.2-.377-.739,0-.558,0-.724.392-.724.558,0,1.131.03,1.689.03h.543c.3,0,.422-.121.422-.423a4.417,4.417,0,0,0-.061-1v-.135c0-.2.121-.227.272-.227.076,0,1.282.075,1.4.091.09,0,.272.045.272.166s-.091.135-.2.211c-.166.106-.181.316-.166.92C786.138,2100.262,786.289,2100.368,786.561,2100.368Zm-4.329-.981a2.479,2.479,0,0,1-.694.226c-.332,0-.769-.845-.769-1.071,0-.21.347-.3.754-.452a12.64,12.64,0,0,0,2.413-1.146c.106-.076.181-.136.181-.257a.33.33,0,0,0-.106-.241,8.847,8.847,0,0,1-1.478-2.307c-.076-.136-.151-.271-.317-.271s-.317.015-.483.015c-.332,0-.317-.166-.317-.678s-.015-.664.317-.664c.543,0,1.071.03,1.614.03h3.559c.347,0,.694-.015,1.041-.015a.753.753,0,0,1,.708.362,1.172,1.172,0,0,1,.347.709c0,.739-1.568,2.323-2.111,2.835a.375.375,0,0,0-.12.242c0,.12.075.181.166.241a13.85,13.85,0,0,0,3,1.281c.121.031.211.076.211.211,0,.3-.452,1.146-.784,1.146a1.264,1.264,0,0,1-.392-.105,15.682,15.682,0,0,1-3.227-1.6.665.665,0,0,0-.332-.106.611.611,0,0,0-.317.106A15.3,15.3,0,0,1,782.232,2099.387Zm4.736-5.324c0-.241-.2-.226-.724-.226h-1.871c-.136.015-.271.061-.271.226a.242.242,0,0,0,.045.136,7.017,7.017,0,0,0,1.01,1.373.394.394,0,0,0,.3.151.534.534,0,0,0,.3-.121C786.033,2095.345,786.968,2094.41,786.968,2094.063Z" transform="translate(-728.564 -2091.892)" fill="#9a6167"/>
          <path id="パス_940" data-name="パス 940" d="M835.095,2104.365c0,.875.045,2.458.045,2.639,0,.317-.09.377-.438.377h-.935c-.347,0-.437-.06-.437-.377,0-.181.045-1.764.045-2.639v-5.279c0-.257-.045-.362-.181-.362a.617.617,0,0,0-.241.06c-.452.166-.965.377-1.358.558a.673.673,0,0,1-.287.09c-.136,0-.2-.105-.271-.332l-.287-.754a.809.809,0,0,1-.06-.287c0-.136.09-.211.347-.287a23.449,23.449,0,0,0,2.353-.89,2,2,0,0,1,.89-.181h.407c.347,0,.438.06.438.377,0,.226-.03,1.765-.03,2.64Z" transform="translate(-762.676 -2094.772)" fill="#9a6167"/>
          <path id="パス_941" data-name="パス 941" d="M857.9,2101.441c0,.045.075.09.226.135a2.361,2.361,0,0,1,1.734,2.383c0,1.674-1.237,3.348-4.525,3.348a7.059,7.059,0,0,1-2.82-.543c-.226-.106-.317-.2-.317-.347a.687.687,0,0,1,.06-.271l.256-.739c.076-.211.136-.316.257-.316a.758.758,0,0,1,.287.12,4.592,4.592,0,0,0,2.337.588c1.78,0,2.67-.92,2.67-1.87,0-1.041-.875-1.569-2.82-1.569-.332,0-.86.015-1.011.015-.392,0-.452-.06-.452-.437v-.679c0-.393.061-.452.452-.452.166,0,.573.015.86.015,1.825,0,2.5-.649,2.5-1.479,0-.814-.739-1.327-1.9-1.327a3.958,3.958,0,0,0-2.111.588.617.617,0,0,1-.3.136c-.105,0-.181-.091-.271-.3l-.332-.694a.792.792,0,0,1-.091-.3c0-.136.091-.211.3-.317a6.514,6.514,0,0,1,2.986-.709c2.474,0,3.484,1.252,3.484,2.609a2.448,2.448,0,0,1-1.267,2.247C857.974,2101.335,857.9,2101.4,857.9,2101.441Z" transform="translate(-776.189 -2094.594)" fill="#9a6167"/>
          <path id="パス_942" data-name="パス 942" d="M882.232,2120.627a1.147,1.147,0,0,1-1.192,1.222,1.03,1.03,0,0,1-1.086-1.056,1.146,1.146,0,0,1,1.207-1.206A1.022,1.022,0,0,1,882.232,2120.627Z" transform="translate(-793.627 -2109.15)" fill="#9a6167"/>
          <path id="パス_943" data-name="パス 943" d="M896.6,2100.655c2.082,0,3.68,1.026,3.68,3.092,0,1.765-1.146,3.74-4.449,3.74a6.5,6.5,0,0,1-2.7-.573c-.211-.106-.317-.181-.317-.317a.9.9,0,0,1,.075-.287l.287-.724c.09-.211.151-.317.256-.317a.579.579,0,0,1,.287.135,4.44,4.44,0,0,0,2.2.573c1.84,0,2.594-.98,2.594-2.1,0-1.161-.95-1.795-2.337-1.795a4.875,4.875,0,0,0-1.644.271,1.249,1.249,0,0,1-.407.105,1.759,1.759,0,0,1-.437-.105c-.3-.106-.392-.166-.392-.392a.923.923,0,0,1,.015-.2c.06-.452.106-.875.151-1.342l.166-1.87c.03-.408.075-1.026.09-1.418.015-.362.075-.438.377-.438.2,0,1.523.03,2.292.03h.845c.769,0,2.232-.03,2.338-.03.317,0,.377.091.377.438v.8c0,.347-.06.437-.377.437-.106,0-1.569-.045-2.338-.045h-1.508c-.392,0-.467.06-.5.452l-.121,1.327a3.408,3.408,0,0,0-.03.407c0,.2.06.256.211.256a.924.924,0,0,0,.2-.015A5.309,5.309,0,0,1,896.6,2100.655Z" transform="translate(-801.709 -2094.772)" fill="#9a6167"/>
          <path id="パス_944" data-name="パス 944" d="M922.5,2109.786c0,.679.03,1.931.03,2.037,0,.316-.091.377-.437.377h-.875c-.347,0-.437-.06-.437-.377,0-.106.03-1.358.03-2.037v-2.911c0-.679-.03-1.931-.03-2.036,0-.317.091-.377.438-.377h.739c.347,0,.407.06.422.407.015.2.045.286.121.286a.464.464,0,0,0,.226-.105,3.249,3.249,0,0,1,2.006-.678,2.394,2.394,0,0,1,1.81.724c.136.151.211.226.3.226.076,0,.151-.06.3-.181a3.718,3.718,0,0,1,2.262-.769,2.429,2.429,0,0,1,2.489,2.7v2.715c0,.679.03,1.931.03,2.037,0,.316-.09.377-.438.377h-.875c-.347,0-.437-.06-.437-.377,0-.106.03-1.358.03-2.037v-2.247c0-.92-.437-1.538-1.372-1.538a2.152,2.152,0,0,0-1.327.482.568.568,0,0,0-.287.588v2.715c0,.679.03,1.931.03,2.037,0,.316-.091.377-.438.377h-.875c-.347,0-.437-.06-.437-.377,0-.106.03-1.358.03-2.037v-2.247c0-.92-.438-1.538-1.372-1.538a2.192,2.192,0,0,0-1.327.467.724.724,0,0,0-.332.679Z" transform="translate(-819.275 -2099.591)" fill="#9a6167"/>
          <path id="パス_945" data-name="パス 945" d="M960.56,2109.786c0,.679.03,1.931.03,2.037,0,.316-.09.377-.438.377h-.875c-.347,0-.437-.06-.437-.377,0-.106.03-1.358.03-2.037v-2.911c0-.679-.03-1.931-.03-2.036,0-.317.09-.377.438-.377h.739c.347,0,.407.06.422.407.015.2.045.286.121.286a.464.464,0,0,0,.226-.105,3.249,3.249,0,0,1,2.006-.678,2.394,2.394,0,0,1,1.81.724c.136.151.211.226.3.226s.151-.06.3-.181a3.718,3.718,0,0,1,2.262-.769,2.429,2.429,0,0,1,2.488,2.7v2.715c0,.679.03,1.931.03,2.037,0,.316-.091.377-.437.377h-.875c-.347,0-.438-.06-.438-.377,0-.106.03-1.358.03-2.037v-2.247c0-.92-.437-1.538-1.372-1.538a2.152,2.152,0,0,0-1.327.482.568.568,0,0,0-.287.588v2.715c0,.679.03,1.931.03,2.037,0,.316-.09.377-.437.377H964c-.347,0-.437-.06-.437-.377,0-.106.03-1.358.03-2.037v-2.247c0-.92-.437-1.538-1.372-1.538a2.192,2.192,0,0,0-1.327.467.724.724,0,0,0-.331.679Z" transform="translate(-843.189 -2099.591)" fill="#9a6167"/>
        </g>
      </g>
    </g>
  </g>
</svg>
