<svg xmlns="http://www.w3.org/2000/svg" width="838.573" height="111.715" viewBox="0 0 838.573 111.715">
  <g id="グループ_2281" data-name="グループ 2281" transform="translate(31.748 -886.868)">
    <path id="パス_15272" data-name="パス 15272" d="M2131.1,1397.642c0,.362-.4.54-.626.673-.448.27-.629.448-1.033,1.48a49.055,49.055,0,0,0-2.687,15.233,21.271,21.271,0,0,0,.451,4.523.438.438,0,0,0,.445.406c.358,0,.582-.5.94-1.344a9.616,9.616,0,0,0,.4-.943c.181-.4.406-.988.806-.988.448,0,1.928.9,1.928,1.48a9.829,9.829,0,0,1-.673,1.927,21.416,21.416,0,0,0-1.791,7.035c0,.582.089,1.119.089,1.611,0,.807-.582,1.029-1.255,1.346a6.266,6.266,0,0,1-1.973.581c-.762,0-1.074-.9-1.343-1.521a36.987,36.987,0,0,1-2.51-14.114,55.239,55.239,0,0,1,2.2-14.83c.358-1.435.759-2.868,1.029-4.3.044-.314.133-.854.584-.854a16.655,16.655,0,0,1,3.269,1.391C2129.847,1396.7,2131.1,1397.108,2131.1,1397.642Zm21.642,2.242c0,.9-.9,1.076-3.942,1.435-1.121.133-1.524.534-1.524,1.655v1.525c0,1.657.089,2.375.851,2.375a35.029,35.029,0,0,0,4.749-1.166,4.526,4.526,0,0,1,1.343-.359c.492,0,.671.626.852,1.344a14.974,14.974,0,0,1,.4,2.42c0,.9-.9,1.121-4.659,1.7-1.881.27-3.224.27-3.224,1.655,0,1.08.267,4.529.312,6.006.047,1.255.225,1.433,1.343,1.925,1.211.584,6.5,3.586,6.5,4.929,0,.852-1.706,3.272-2.732,3.272-.407,0-.721-.314-1.168-.807-.089-.089-.175-.225-.267-.315-.582-.581-2.42-2.417-3.227-2.417-.537,0-.628.492-.94,1.3-.94,2.6-4.3,3.271-6.766,3.271-3.312,0-7.26-1.436-7.26-5.377,0-4.126,4.17-5.692,7.661-5.692.673,0,1.391.089,1.661.089a.966.966,0,0,0,.985-.985c0-.759-.222-3.675-.269-4.615-.042-.584-.223-1.118-.941-1.118-.086,0-.223.042-.356.042-2.105.229-5.961.4-8.066.4-.446,0-1.388.089-1.614-.356a26,26,0,0,1-.356-3.316c0-.718.133-1.032.9-1.032.9,0,1.925.089,2.957.089,6.588,0,7.169-.13,7.169-1.521,0-3.99-.134-4.212-.944-4.212-.535,0-4.209.359-6,.359-.8,0-1.3-.048-1.477-.807-.09-.359-.271-2.643-.271-3.046,0-.537.223-.9.852-.9a2.62,2.62,0,0,1,.584.048c.807.089,2.776.133,3.675.133a37.88,37.88,0,0,0,11.6-1.566,1.788,1.788,0,0,1,.492-.092C2152.426,1396.165,2152.744,1399.256,2152.744,1399.885Zm-15.189,24.326c0,1.3,1.924,1.613,2.909,1.613,1.972,0,3.361-.4,3.361-2.417,0-1.032-1.7-.988-2.417-.988C2140.286,1422.419,2137.555,1422.644,2137.555,1424.21Z" transform="translate(-2000.759 -504.952)" fill="#674646"/>
    <path id="パス_15273" data-name="パス 15273" d="M2144.268,1414.2a138.366,138.366,0,0,1,9.366-15.817c.671-1.074,1.251-2.017,1.836-3.09.137-.223.359-.67.67-.67a11.188,11.188,0,0,1,2.512,1.7c.446.311,2.059,1.432,2.059,1.925s-.4.673-.8.715a1.976,1.976,0,0,0-1.169.584,45.249,45.249,0,0,0-2.82,3.675c-.629.851-4.523,6.54-4.523,7.168a.481.481,0,0,0,.445.448,1.794,1.794,0,0,0,.81-.314A10.06,10.06,0,0,1,2157.4,1409c1.794,0,3.989.943,4.75,2.646a7.472,7.472,0,0,1,.492,2.823,23.453,23.453,0,0,1-.584,4.345,25.833,25.833,0,0,0-.715,4.389c0,.762.267,1.706,1.167,1.706,2.506,0,6.765-5.425,8.153-7.4.224-.264.536-.625.9-.625.8,0,2.329,3.541,2.329,4.167a1.741,1.741,0,0,1-.492.987c-1.032,1.029-2.064,2.059-3.138,3.047-2.464,2.24-5.51,4.7-9,4.7-3.183,0-4.482-2.734-4.482-5.555a29.027,29.027,0,0,1,.582-5.2,20.034,20.034,0,0,0,.492-3.63c0-1.163-.4-2.058-1.7-2.058a8.343,8.343,0,0,0-3.852,1.254,13.312,13.312,0,0,0-4.571,4.078,31,31,0,0,0-4.119,9.408c-.133.581-.222,1.391-.985,1.391-.718,0-4.3-1.3-4.3-2.064,0-.042.76-1.883.8-1.972C2140.777,1421.682,2142.431,1417.919,2144.268,1414.2Z" transform="translate(-1969.232 -505.782)" fill="#674646"/>
    <path id="パス_15274" data-name="パス 15274" d="M2185.284,1400.219a15.155,15.155,0,0,1,4.526,11.024,16.1,16.1,0,0,1-8.738,14.471c-1.029.537-3.811,1.791-4.885,1.791-1.163,0-3-2.779-3-3.766,0-.445.674-.534,1.121-.623,5.869-1.391,10.484-5.244,10.484-11.65,0-4.793-2.508-9.1-7.168-10.709a8.006,8.006,0,0,0-1.705-.4c-1.027,0-1.027.985-1.074,1.747-.491,6.543-2.058,14.514-6.358,19.667-1.484,1.794-3.455,3.449-5.918,3.449-2.731,0-4.882-1.972-6.091-4.256a14.04,14.04,0,0,1-1.392-6.361,18.457,18.457,0,0,1,18.594-18.816A15.938,15.938,0,0,1,2185.284,1400.219Zm-17.427,1.3a13.863,13.863,0,0,0-8.064,12.9c0,1.655.581,5.825,2.868,5.825,2.24,0,4.746-5.11,6-9.677a45.43,45.43,0,0,0,1.432-8.737c0-.448-.223-.807-.714-.807A5.062,5.062,0,0,0,2167.857,1401.518Z" transform="translate(-1936.257 -503.495)" fill="#674646"/>
    <path id="パス_15275" data-name="パス 15275" d="M2181.245,1398.73c0,.27-.315.492-.54.581a2.121,2.121,0,0,0-.853.9,17.736,17.736,0,0,0-1.295,3.764,23.571,23.571,0,0,0-.584,5.019c0,.356-.045,2.28.448,2.28.359,0,.628-.715.806-1.162.223-.492,1.033-2.42,1.57-2.42.4,0,1.747.807,1.747,1.388,0,.136-.671,1.7-1.077,2.782l-.4,1.074a17.648,17.648,0,0,0-1.477,5.555c0,.629.092,1.122.092,1.433,0,1.255-2.376,1.794-3.227,1.794-.988,0-1.3-.807-1.572-1.661a37.261,37.261,0,0,1-1.476-10.437,42.057,42.057,0,0,1,1.031-9.186c.27-1.121.582-2.195.763-3.315.041-.312.177-1.118.581-1.118.134,0,2.106.807,2.42.938C2179.183,1397.386,2181.245,1398.238,2181.245,1398.73Zm14.155-3.9c.852,0,.943.537,1.121,1.21a59.1,59.1,0,0,1,1.388,12.9c0,7.753-1.3,14.337-6.943,20.073-.718.718-2.553,2.509-3.586,2.509-.715,0-3.316-2.2-3.316-3.135,0-.359.407-.628.676-.762a17.039,17.039,0,0,0,6.089-6.99,26.43,26.43,0,0,0,2.065-11.291,43.345,43.345,0,0,0-1.573-12.5,2.844,2.844,0,0,1-.086-.584C2191.237,1395.281,2194.908,1394.833,2195.4,1394.833Z" transform="translate(-1900.248 -505.367)" fill="#674646"/>
    <path id="パス_15276" data-name="パス 15276" d="M2197.7,1406.144c0,.311-.267.444-.537.626-.581.359-.628.851-.628,1.972v.762c0,.8.447,1.121,1.254,1.121h2.151c.9,0,1.746-.047,2.6-.047,2.017,0,2.106,1.165,2.106,2.464,0,1.973-.045,3.99-.177,5.959-.134,1.925-.807,8.289-1.122,10.173-.673,4.119-1.613,5.1-6.048,5.1-1.972,0-3,.092-3-3.719,0-.492.044-1.118.626-1.118.359,0,1.033.089,1.614.089,1.254,0,1.883-.178,2.242-1.477a64.606,64.606,0,0,0,1.478-12.143c0-1.121-.271-1.121-1.928-1.121h-.671c-.851,0-1.21.27-1.39,1.166a51.87,51.87,0,0,1-3.269,13.752c-1.077,2.6-1.613,4.034-2.376,4.034-.944,0-3.312-1.388-3.312-2.42a3.406,3.406,0,0,1,.492-1.207,45.547,45.547,0,0,0,4.434-19.313v-2.148a18.637,18.637,0,0,0-.092-2.15c-.042-.314,0-1.209-.94-1.209-.67,0-1.388.089-2.058.089-1.166,0-1.122-.581-1.122-2.242,0-1.7-.044-2.239,1.122-2.239.941,0,2.506.134,3.983.134h.406c.9,0,1.255-.356,1.255-1.254v-1.744c0-.985-.089-1.972-.178-2.916,0-.086-.044-.267-.044-.4,0-.534.492-.626.937-.626.54,0,1.48.092,2.105.134.318.047.585.047.852.092,1.3.089,1.972.134,1.972.67,0,.4-.267.54-.582.718-.492.226-.54.448-.54,1.928v2.147c0,.9.362,1.254,1.255,1.254h.673c1.432,0,3-.134,4.033-.134,1.207,0,1.117.626,1.117,2.239,0,1.661.048,2.242-1.117,2.242-.94,0-2.555-.089-4.033-.089H2197.3c-.133,0-.221,0-.221.133,0,.089.088.136.178.178C2197.52,1405.7,2197.7,1405.826,2197.7,1406.144Zm24.281-3.138c1.524,0,3-.089,4.481-.089,1.029,0,.988.54.988,2.194s.042,2.2-.988,2.2c-.673,0-1.387-.047-2.061-.047-.09,0-.226.047-.226.178a.207.207,0,0,0,.226.181c.225.09.537.226.537.54,0,.4-.446.626-.762.893a1.7,1.7,0,0,0-.671,1.391,36.064,36.064,0,0,1-3.762,11.155,2.054,2.054,0,0,0-.223.9,1.541,1.541,0,0,0,.445,1.029,36.521,36.521,0,0,0,7.3,6.317c.314.181.674.448.674.807,0,.94-1.927,3.046-2.868,3.046-1.525,0-6.5-5.243-7.661-6.587a.968.968,0,0,0-.762-.359,1.118,1.118,0,0,0-.762.359,32.24,32.24,0,0,1-8.064,6.454,3.733,3.733,0,0,1-1.436.625c-.851,0-2.55-2.195-2.55-2.957,0-.492.847-.9,1.521-1.255a2.862,2.862,0,0,0,.359-.178,25.271,25.271,0,0,0,7.7-6.41,1.61,1.61,0,0,0,.4-.984,1.8,1.8,0,0,0-.312-.94,30.581,30.581,0,0,1-3.049-9,.428.428,0,0,0-.4-.359c-.177,0-.266.136-.358.27-.671,1.344-1.255,2.6-1.926,2.6-.718,0-2.734-1.388-2.734-2.15a10.94,10.94,0,0,1,.717-1.524,63.145,63.145,0,0,0,4.393-11.647c.311-1.166.985-3.855,1.118-4.974.045-.4.088-.718.581-.718a37.647,37.647,0,0,1,3.764.9c.314.092.718.314.718.673,0,.311-.314.492-.536.581-.582.314-.674.673-1.167,2.509-.225.8-.5,1.836-.9,3.269a.8.8,0,0,0-.043.314c0,.584.444.807.939.807Zm-2.551,4.974c0-.582-.317-.763-.851-.763h-4.348c-.584,0-1.031.223-1.031.9v.27a36.75,36.75,0,0,0,2.734,9,.594.594,0,0,0,.541.406.577.577,0,0,0,.533-.406A27.511,27.511,0,0,0,2219.432,1407.98Z" transform="translate(-1872.911 -507.089)" fill="#674646"/>
    <path id="パス_15277" data-name="パス 15277" d="M2206.546,1422.451c-.133.271-.311.54-.67.54-.492,0-.673-.582-1.032-1.525a2.828,2.828,0,0,0-.178-.581,16.325,16.325,0,0,1-.717-2.242c0-.493.717-.537,1.436-.582.133,0,.312-.044.447-.044.852-.134,1.167-.493,1.167-1.391v-12.14c0-1.254-.093-2.509-.093-3.719,0-1.436.673-1.792,2.017-1.792h1.032a1.4,1.4,0,0,0,1.614-1.029,22.014,22.014,0,0,0,1.073-3.272c.09-.359.134-.673.582-.673a1.545,1.545,0,0,1,.452.092c.358.089.851.175,1.251.267.492.089,3,.5,3,1.077,0,.4-.4.493-.714.581-.359.089-.4.181-.54.537-.222.448-.4.94-.626,1.391a1.274,1.274,0,0,0-.088.4c0,.492.355.673.807.673h.984c.9,0,1.791-.045,2.691-.045,1.343,0,2.057.315,2.057,1.792,0,1.258-.088,2.465-.088,3.719v9.049a2.068,2.068,0,0,0,.9,1.928,1.569,1.569,0,0,0,.264.225c.584.492,1.7,1.477,1.7,1.836,0,.582-.717.582-.85.582-.449.044-.763.537-1.256,1.076a2.507,2.507,0,0,0-.761,2.014v5.063c0,1.166.088,2.334.088,3.5,0,3.36-1.254,4.434-6.183,4.434-2.194,0-2.956.092-2.956-3.227,0-.67.047-1.163.81-1.163.8,0,1.613.089,2.417.089,1.7,0,1.661-.851,1.661-2.687v-2.061c-.048-.314-.137-.626-.539-.626a.817.817,0,0,0-.4.178c-1.568,1.3-8.826,6.943-10.484,6.943-.9,0-2.465-1.97-2.465-2.687,0-.493.582-.807.988-1.032a56.18,56.18,0,0,0,10.529-7.213.316.316,0,0,0,.133-.267c0-.133-.091-.314-.4-.27-2.824.629-5.692,1.211-8.56,1.791C2206.771,1422.05,2206.683,1422.139,2206.546,1422.451Zm10.618-17.427a1.037,1.037,0,0,0,1.079-1.074v-.181a1.038,1.038,0,0,0-1.079-1.074h-4.927a1.032,1.032,0,0,0-1.073,1.074v.181a1.032,1.032,0,0,0,1.073,1.074Zm-6,4.663a1.008,1.008,0,0,0,1.073,1.074h4.927a1.013,1.013,0,0,0,1.079-1.074v-.228a1,1,0,0,0-1.079-1.027h-4.927a1,1,0,0,0-1.073,1.027Zm1.254,4.478c-.851,0-1.254.356-1.254,1.254v.626c0,.629.267,1.077.937,1.077h.271c1.7-.314,3.36-.584,5.063-.9a.856.856,0,0,0,.809-.9c-.048-.851-.451-1.166-1.258-1.166Zm31.044-9.811c1.169,0,1.121.582,1.121,2.239,0,1.7.048,2.24-1.121,2.24-.937,0-2.1-.044-3.132-.089-.852.044-1.169.451-1.169,1.254v16.49c0,1.027.048,2.059.048,3.09,0,4.571-3.675,4.834-7.35,4.834-1.7,0-2.865.181-2.865-3.221,0-.9.089-1.614.893-1.614.5,0,1.435.134,2.693.134,2.147,0,2.195-.718,2.195-3.764V1410c0-.9-.359-1.254-1.259-1.254h-3.537c-1.526,0-3.092.089-4.527.089-1.121,0-1.074-.537-1.074-2.24s-.047-2.239,1.122-2.239c1.3,0,2.909.089,4.479.089h3.537c.9,0,1.259-.359,1.259-1.255V1399.2c0-1.3-.089-2.554-.181-3.808,0-.178-.044-.359-.044-.534,0-.54.359-.72.807-.72.625,0,1.613.133,2.239.181.269,0,.492.044.762.044,1.074.089,1.836.133,1.836.626,0,.362-.314.5-.537.673-.448.314-.5,1.21-.5,2.554v4.974c0,.851.317,1.255,1.169,1.255C2241.359,1404.486,2242.525,1404.353,2243.462,1404.353Zm-14.737,17.786c-.537,0-.674-.492-.807-1.032a74.022,74.022,0,0,0-2.554-7.121,1.3,1.3,0,0,1-.182-.54c0-.715,2.465-1.433,3.05-1.433.717,0,1.029.582,2.327,4.211a39.576,39.576,0,0,1,1.347,4.39C2231.907,1421.51,2229.4,1422.139,2228.725,1422.139Z" transform="translate(-1840.201 -507)" fill="#674646"/>
    <path id="パス_15278" data-name="パス 15278" d="M2229.205,1400.08c0-2.064-.134-5.021-.134-5.244,0-.714.492-.762,1.073-.762.762,0,2.646.134,3.45.226.4.044,1.21.133,1.21.717,0,.359-.4.537-.63.762-.536.448-.581,1.344-.581,3.09v28.049c0,1.969.134,3.983.134,5.955,0,1.255-.715,1.436-2.328,1.436-1.928,0-2.328-.359-2.328-1.436,0-2.014.134-3.986.134-5.955v-6.587c0-.047-.046-.581-.493-.581a.607.607,0,0,0-.4.134c-1.3,1.162-2.6,2.328-3.9,3.4a.922.922,0,0,0-.358.8c0,.362-.09.854-.538.854a.822.822,0,0,1-.583-.362,5.45,5.45,0,0,1-.445-.715c-.582-.9-1.3-1.972-1.432-2.195a2.594,2.594,0,0,1-.492-1.074c0-.27.264-.451.759-.718.226-.134.537-.315.851-.54,1.657-1.207,4.66-3.538,6.184-4.885a1.986,1.986,0,0,0,.852-1.969Zm-4.212,9.856c-.718,0-.851-.581-1.077-1.166a49.1,49.1,0,0,0-2.553-5.914,2.781,2.781,0,0,1-.312-.852c0-.94,2.551-1.613,2.957-1.613.941,0,1.432,1.3,2.55,3.9a5.794,5.794,0,0,0,.271.626,19.7,19.7,0,0,1,1.209,3.316C2228.039,1409.355,2225.171,1409.936,2224.993,1409.936Zm19.936,1.21c0-.718-.5-1.029-1.165-1.029h-2.2c-1.7,0-3.4.133-5.108.133-1.165,0-1.12-.584-1.12-2.2s-.045-2.147,1.12-2.147c1.7,0,3.406.089,5.108.089h2.284c.9,0,1.254-.359,1.254-1.255v-6.317q0-1.615-.133-3.227c0-.136-.045-.312-.045-.448,0-.581.4-.715.9-.715.762,0,3.582.223,4.3.311.359.045.762.134.762.582,0,.314-.269.4-.581.629-.582.359-.629.807-.629,2.331v6.854c0,.9.358,1.255,1.255,1.255h3.5c1.7,0,3.405-.089,5.1-.089,1.168,0,1.121.533,1.121,2.147s.048,2.2-1.121,2.2c-1.7,0-3.4-.133-5.1-.133h-3.36c-.584,0-1.077.267-1.077.94v.27a31.2,31.2,0,0,0,10.392,18.86c.27.222.673.537.673.943,0,.893-2.194,2.821-3.138,2.821-.625,0-2.639-2.151-3.132-2.69a33.374,33.374,0,0,1-6.587-10.618.487.487,0,0,0-.448-.312.475.475,0,0,0-.4.312,31.846,31.846,0,0,1-8.423,12.635,2.722,2.722,0,0,1-1.432.809c-1.033,0-3.049-2.334-3.049-3.185,0-.311.359-.581.625-.759a26.009,26.009,0,0,0,7.708-10.129,30.485,30.485,0,0,0,2.15-8.734Zm11.647-6.454c-.4,0-.625-.359-.8-.714a44.668,44.668,0,0,0-3.36-5.377,1,1,0,0,1-.226-.492c0-.714,2.509-2.061,3.135-2.061.717,0,2.242,2.509,2.646,3.09a17.661,17.661,0,0,1,1.883,3.449C2259.85,1403.441,2257.25,1404.692,2256.576,1404.692Z" transform="translate(-1807.546 -506.939)" fill="#674646"/>
    <path id="パス_15279" data-name="パス 15279" d="M2268.408,1400.219a15.158,15.158,0,0,1,4.525,11.024,16.1,16.1,0,0,1-8.738,14.471c-1.03.537-3.808,1.791-4.885,1.791-1.163,0-3-2.779-3-3.766,0-.445.671-.534,1.118-.623,5.87-1.391,10.485-5.244,10.485-11.65,0-4.793-2.51-9.1-7.169-10.709a8.009,8.009,0,0,0-1.706-.4c-1.026,0-1.026.985-1.073,1.747-.492,6.543-2.059,14.514-6.359,19.667-1.48,1.794-3.452,3.449-5.917,3.449-2.731,0-4.882-1.972-6.091-4.256a14.049,14.049,0,0,1-1.392-6.361,18.457,18.457,0,0,1,18.6-18.816A15.941,15.941,0,0,1,2268.408,1400.219Zm-17.428,1.3a13.865,13.865,0,0,0-8.065,12.9c0,1.655.582,5.825,2.868,5.825,2.24,0,4.745-5.11,6-9.677a45.4,45.4,0,0,0,1.437-8.737.709.709,0,0,0-.719-.807A5.065,5.065,0,0,0,2250.98,1401.518Z" transform="translate(-1772.849 -503.495)" fill="#674646"/>
    <path id="パス_15280" data-name="パス 15280" d="M2269.188,1414.27c.271.311.629.67.629.984,0,.718-1.524,2.865-2.242,2.865-.762,0-2.017-2.551-2.376-3.179a.3.3,0,0,0-.267-.178c-.178,0-.269.133-.269.312v11.739c0,2.061.091,4.123.091,6.184,0,1.344-.405,1.388-2.152,1.388-1.792,0-2.24-.044-2.24-1.343,0-2.105.091-4.167.091-6.228v-8.871c0-.178-.091-.223-.135-.223a.248.248,0,0,0-.227.134,41.944,41.944,0,0,1-2.776,6.9c-.27.534-.492.938-.94.938-.807,0-2.734-1.88-2.734-2.732a3.535,3.535,0,0,1,.628-1.391,55.394,55.394,0,0,0,5.375-13.931.731.731,0,0,0,.047-.314c0-.626-.45-.852-.988-.852-1.21-.044-2.509.089-3.049.089-.985,0-.938-.626-.938-2.106,0-1.566-.047-2.195.938-2.195.628,0,1.75.089,3,.089h.582c.9,0,1.212-.359,1.212-1.255v-3.227a28.14,28.14,0,0,0-.135-2.82c0-.136-.046-.27-.046-.4,0-.5.312-.581.763-.581.492,0,3.18.267,3.808.311.356.045.984.092.984.584,0,.312-.27.448-.628.67-.492.27-.537.985-.537,2.376v3.09c0,.851.313,1.21,1.165,1.255.8,0,1.614-.089,2.465-.089.985,0,.94.628.94,2.195,0,1.48.045,2.106-.94,2.106-.27,0-2.062-.089-2.554-.089-.629.045-1.032.267-1.076.94a.938.938,0,0,0,.181.492A32.691,32.691,0,0,0,2269.188,1414.27Zm.94,19.53a9.041,9.041,0,0,1-1.924.361c-1.3,0-2.287-2.779-2.287-3.5,0-.626.584-.673,1.077-.759,3.493-.673,7.48-2.153,9.721-5.018.089-.181.178-.27.178-.451,0-.4-.4-.534-.759-.581h-1.347c-1.928,0-3.808.137-5.688.137-1.213,0-1.213-.451-1.213-1.931s0-1.836,1.213-1.836c1.88,0,3.76.092,5.688.092h2.554a1.156,1.156,0,0,0,1.343-1.166c0-.581-.089-1.165.718-1.165.451,0,2.868.269,3.45.362.314.042,1.255.13,1.255.534,0,.314-.4.54-.626.673-.177.137-.359.27-.359.492,0,.178.133.226.314.27h3.987c1.884,0,3.764-.092,5.647-.092,1.251,0,1.21.359,1.21,1.836s.041,1.931-1.169,1.931c-1.88,0-3.8-.137-5.688-.137h-3.18c-.359.048-.673.137-.673.54a.567.567,0,0,0,.178.4,21.846,21.846,0,0,0,10.351,5.691c.449.134.763.267.763.762,0,.985-1.077,3.224-2.195,3.224a13.609,13.609,0,0,1-3.5-1.207,23.573,23.573,0,0,1-7.794-5.6,1,1,0,0,0-.718-.4.955.955,0,0,0-.715.451C2277.656,1430.753,2273.67,1432.726,2270.127,1433.8Zm4.3-31.765c0-.67-.222-.984-.94-1.029-1.255.045-2.554.089-3.807.089-1.207,0-1.166-.448-1.166-1.791,0-1.388,0-1.839,1.166-1.839,1.253,0,2.464.137,3.674.092.807,0,1.073-.4,1.118-1.166a6.426,6.426,0,0,0-.088-1.3c0-.092-.045-.267-.045-.356,0-.5.314-.587.715-.587.762,0,3,.181,3.811.27.448.047,1.118.047,1.118.628,0,.222-.267.359-.493.537a1.2,1.2,0,0,0-.537,1.029c0,.721.582.943,1.21.943h1.924c.854,0,1.214-.359,1.214-1.255a11.337,11.337,0,0,0-.092-1.21c0-.134-.045-.267-.045-.4,0-.448.492-.54.852-.54.492,0,3.045.225,3.675.27.4.047,1.165.089,1.165.539,0,.312-.27.448-.539.626a1.2,1.2,0,0,0-.537,1.029c0,.673.537.943,1.118.943,1.3.045,2.557-.092,3.856-.092,1.254,0,1.165.493,1.165,1.839s.089,1.791-1.165,1.791c-1.3,0-2.642-.044-3.99-.089a.882.882,0,0,0-.939.984v.718c0,.762.312,1.032,1.031,1.032h.492c1.477,0,1.972.534,1.972,2.014,0,.943-.047,1.839-.047,2.732v4.481c0,.9.047,1.794.047,2.687,0,1.436-.406,2.064-1.883,2.064-.985,0-1.973-.091-2.957-.091H2275.55c-.941,0-1.881.091-2.865.091-1.436,0-1.932-.539-1.932-1.972,0-.94.048-1.839.048-2.779v-4.481c0-.893-.048-1.836-.048-2.776,0-1.344.452-1.969,1.884-1.969h.762c.9,0,1.029-.359,1.029-1.077Zm1.477,5.107a.8.8,0,0,0-.851.851v.317a.781.781,0,0,0,.851.852h10.262a.782.782,0,0,0,.854-.852v-.317a.8.8,0,0,0-.854-.851Zm-.851,6.317a.8.8,0,0,0,.851.851h10.262a.8.8,0,0,0,.854-.851v-.492a.78.78,0,0,0-.854-.851h-10.262a.78.78,0,0,0-.851.851Zm7.127-9.63c1.163,0,1.03-.673,1.073-1.661-.043-.851-.355-1.163-1.207-1.163h-1.838c-.852,0-1.211.312-1.211,1.163v.451c0,.762.045,1.21.944,1.21Z" transform="translate(-1742.511 -506.881)" fill="#674646"/>
    <path id="パス_15281" data-name="パス 15281" d="M2285.439,1413.967c.18.229.447.492.447.81,0,.626-1.3,3.135-2.017,3.135-.625,0-1.524-1.747-1.881-2.372a.448.448,0,0,0-.314-.181c-.226,0-.266.181-.313.356v10.976c0,2.064.135,4.17.135,6.229,0,1.3-.447,1.346-2.194,1.346-1.794,0-2.287,0-2.287-1.346,0-2.059.133-4.164.133-6.229v-8.645c0-.223-.133-.223-.177-.223-.092,0-.133.044-.181.134a45.568,45.568,0,0,1-2.957,6.765c-.178.359-.445.9-.937.9-.854,0-2.645-2.017-2.645-2.868a3.41,3.41,0,0,1,.582-1.385,57.786,57.786,0,0,0,5.513-13.445c0-.089.042-.177.042-.311,0-.629-.492-.851-1.03-.851-1.118-.048-2.328.134-3.045.134-.941,0-.9-.673-.9-2.151,0-1.569-.045-2.195.9-2.195.717,0,2.016.089,3.271.089h.311c.9,0,1.254-.359,1.254-1.257v-2.954a18.878,18.878,0,0,0-.177-3.272v-.448c0-.448.359-.537.759-.537.584,0,2.959.222,3.631.311.359.048,1.073.048,1.073.582,0,.317-.222.406-.58.673-.445.314-.492,1.121-.492,2.6v3.043c0,.851.313,1.168,1.21,1.257.314,0,2.1-.089,2.286-.089.985,0,.9.67.9,2.147s.088,2.2-.9,2.2c-.4,0-1.75-.092-2.376-.092-.673,0-1.032.362-1.073,1.077a1.14,1.14,0,0,0,.133.537A26.808,26.808,0,0,0,2285.439,1413.967Zm8.734,12.412c-2.014,1.433-3.761,2.465-5.955,3.764-.763.448-.851.536-.9,1.165,0,.267-.269.626-.54.626-.67,0-2.464-3.672-2.464-4.078,0-.267.222-.4.451-.492a60.575,60.575,0,0,0,8.331-4.481c.18-.086.358-.267.539-.267.715,0,1.3,1.792,1.3,2.6C2294.934,1425.839,2294.623,1426.067,2294.173,1426.379Zm8.74-5.777a1.121,1.121,0,0,0,.762-.359,38.647,38.647,0,0,0,3-2.957c.133-.137.358-.4.583-.4s.537.311,1.03.851c.314.356.714.8,1.076,1.166.537.582.94.985.94,1.344a.449.449,0,0,1-.448.448c-.092,0-.225-.048-.267-.048a1.209,1.209,0,0,0-.358-.042.976.976,0,0,0-.629.222,27.322,27.322,0,0,1-2.557,2.2,1.139,1.139,0,0,0-.445.807,1.2,1.2,0,0,0,.358.759,33.381,33.381,0,0,0,4.257,3.319c.4.267,1.162.67,1.162,1.21,0,.851-1.88,2.6-2.776,2.6-.492,0-2.287-1.436-2.731-1.836a27.252,27.252,0,0,1-5.022-5.6.452.452,0,0,0-.312-.181c-.225,0-.314.225-.358.451v2.687c0,.762.089,1.524.089,2.286a4.366,4.366,0,0,1-1.344,3.583c-1.524,1.166-3.9,1.252-5.736,1.252-.537,0-1.387,0-1.7-.582a7.306,7.306,0,0,1-.537-2.6c0-.626.314-1.029.94-1.029a4.641,4.641,0,0,1,.762.044c.492.044.988.089,1.345.089,1.749,0,1.792-.492,1.792-2.732v-9.678c0-.9-.36-1.255-1.252-1.255h-2.6c-1.572,0-3.183.089-4.751.089-1.032,0-.986-.582-.986-1.836,0-1.347,0-1.839,1.033-1.839,1.565,0,3.132.089,4.7.089h2.776c.762,0,1.074-.311,1.074-1.026v-.451c0-.762-.312-1.073-1.074-1.073H2293.1c-1.477,0-2.958.085-4.434.085-.988,0-.94-.581-.94-1.747,0-1.207-.048-1.7.984-1.7,1.479,0,2.913.047,4.39.047h1.613c.762,0,1.074-.314,1.074-1.032v-.359c0-.714-.312-1.029-1.074-1.029h-2.153c-1.567,0-3.18.089-4.793.089-1.028,0-.985-.492-.985-1.88,0-1.344,0-1.794.985-1.794,1.614,0,3.227.092,4.793.092h5.647a1.711,1.711,0,0,0,1.791-.9,45.55,45.55,0,0,0,2.957-5.692c.136-.359.225-.715.629-.715.221,0,2.867,1.255,3.312,1.477.629.27,1.033.448,1.033.8,0,.406-.36.451-.941.588a.905.905,0,0,0-.585.492c-.669.94-1.207,1.969-1.792,2.957a.641.641,0,0,0-.133.4c0,.4.359.54.718.584,1.388,0,2.732-.092,4.123-.092,1.03,0,.984.54.984,1.839s.046,1.836-.984,1.836c-1.614,0-3.227-.089-4.841-.089h-3.228c-.761,0-1.073.315-1.073,1.029v.359c0,.718.312,1.032,1.073,1.032h2.646c1.433,0,2.91-.047,4.346-.047,1.028,0,.988.5.988,1.7s.041,1.747-.944,1.747c-1.48,0-2.912-.085-4.39-.085h-2.646c-.761,0-1.073.355-1.073,1.073v.451c0,.715.312,1.026,1.073,1.026h3.946c1.611,0,3.179-.089,4.748-.089,1.029,0,.988.582.988,1.839,0,1.3.041,1.836-.988,1.836-1.569,0-3.18-.089-4.748-.089h-3.808c-.4.045-.852.181-.852.674a1.458,1.458,0,0,0,.178.625,17.47,17.47,0,0,0,1.347,2.15A1.1,1.1,0,0,0,2302.913,1420.6Zm-12.367,2.639c-.314,0-.584-.267-1.118-.714a29.508,29.508,0,0,0-2.824-2.284c-.224-.136-.314-.229-.314-.493,0-.451,1.118-2.735,1.791-2.735a5.868,5.868,0,0,1,1.7.985c.178.089.314.225.406.27.534.447,2.37,1.836,2.37,2.373C2292.559,1421.227,2291.263,1423.241,2290.545,1423.241Zm1.924-22.265c-.444,0-.714-.448-1.254-1.477-.356-.672-.892-1.613-1.655-2.826a2.219,2.219,0,0,1-.314-.67c0-.807,2.732-1.7,3.271-1.7.626,0,1.3,1.21,2.017,2.42a11.18,11.18,0,0,1,1.252,2.6C2295.787,1400.08,2293.054,1400.976,2292.469,1400.976Z" transform="translate(-1709.86 -506.939)" fill="#674646"/>
    <path id="パス_15282" data-name="パス 15282" d="M2290.545,1398.963c6.543-.4,13.082-1.074,19.581-1.836,3.4-.4,6.809-.851,10.17-1.388a2.578,2.578,0,0,1,.584-.045c.671,0,.763.582.851,1.121a20.46,20.46,0,0,1,.4,3.268c0,.985-.943.9-2.017.943a22.061,22.061,0,0,0-7.439.94,13.622,13.622,0,0,0-7.616,6.677,16.77,16.77,0,0,0-2.151,7.883c0,5.2,3.314,6.453,7.884,6.453.762,0,1.75-.047,2.242-.047.674,0,1.029.047,1.029.762a12.718,12.718,0,0,1-.673,3.678c-.311.67-.67.759-1.433.759-7.613,0-14.155-2.42-14.155-11.155a19.894,19.894,0,0,1,4.929-12.86c.493-.536.759-.851.759-1.077,0-.4-.358-.537-.67-.537s-2.375.359-2.824.4c-3,.448-7.031,1.077-9.9,1.839a3.785,3.785,0,0,1-.674.089c-.63,0-.852-.988-.988-1.48a20.159,20.159,0,0,1-.492-3.224C2287.947,1398.963,2288.576,1399.1,2290.545,1398.963ZM2320.3,1409.9c0,.67-1.791,1.88-2.283,1.88-.314,0-.448-.314-.628-.536-.9-1.3-1.881-2.554-2.869-3.764-.133-.134-.4-.4-.4-.626,0-.54,1.792-1.658,2.284-1.658S2320.3,1409.358,2320.3,1409.9Zm5.421-2.465c0,.629-1.747,1.883-2.287,1.883-.311,0-.491-.359-.669-.585a37.909,37.909,0,0,0-2.913-3.719,1.072,1.072,0,0,1-.312-.582c0-.537,1.747-1.7,2.284-1.7C2322.268,1402.729,2325.717,1406.893,2325.717,1407.433Z" transform="translate(-1675.071 -503.674)" fill="#674646"/>
    <path id="パス_15283" data-name="パス 15283" d="M2120.581,1434.258c0,2.013.088,4.078.088,6.092,0,1.391-.4,1.569-2.506,1.569s-2.69-.134-2.69-1.344c0-2.106.133-4.167.133-6.273v-9.452c0-1.21-.09-2.376-.133-3.541,0-.267-.045-.537-.045-.807,0-.314.088-.445.4-.445.449,0,3.224.4,3.853.493.944.178,1.57.178,1.57.581a.976.976,0,0,1-.226.493,4.149,4.149,0,0,0-.492,2.6c0,.67.046,1.48.046,2.512Zm17.563-1.747a68.128,68.128,0,0,1-.493,9.545,15.189,15.189,0,0,1-5.466,10.391c-.761.627-4.122,3.135-4.929,3.135-.673,0-3.764-2.239-3.764-3.043,0-.406.854-.762,1.213-.943,4.386-2.284,7.211-4.837,7.972-9.9a55.58,55.58,0,0,0,.54-8.646v-9.722a23.4,23.4,0,0,0-.136-3.09,4.493,4.493,0,0,1-.088-.762c0-.359.177-.448.537-.448a39.3,39.3,0,0,1,4.433.448c.359.092.9.133.9.537,0,.27-.177.4-.406.628a3.792,3.792,0,0,0-.311,1.925Z" transform="translate(-2014.22 -457.809)" fill="#674646"/>
    <path id="パス_15284" data-name="パス 15284" d="M2157.495,1420.516a31.92,31.92,0,0,0,4.66-.226,2.575,2.575,0,0,1,.58-.041c.673,0,1.122.581,1.658,1.162s1.661,1.794,1.661,2.6c0,.493-.628.94-.988,1.21-.27.225-3.631,3.719-4.167,4.3-1.569,1.61-3.9,3.9-5.555,5.374-.314.27-.628.629-1.077.629-.762,0-3.27-1.972-3.27-2.734,0-.448.809-1.074,1.121-1.344.807-.714,5.78-5.107,5.78-5.736s-.985-.536-1.388-.536h-19.222c-2.062,0-4.078.136-6.092.136-1.166,0-1.213-.492-1.213-2.286v-.9c0-1.166.092-1.7,1.122-1.7,2.063,0,4.123.089,6.184.089Zm-7.842,7.168c.314.045.944.045.944.537a.685.685,0,0,1-.271.448c-.581.629-.762,2.375-.9,3.227-1.3,8.2-4.078,13.889-10.754,19.041-.36.27-.986.807-1.478.807-.761,0-3.674-2.328-3.674-3.135,0-.406.447-.581,1.076-.988a21.224,21.224,0,0,0,9.363-13.035,24.089,24.089,0,0,0,.715-6.676c0-.362,0-.584.451-.584C2145.711,1427.325,2148.982,1427.6,2149.652,1427.684Z" transform="translate(-1985.606 -455.403)" fill="#674646"/>
    <path id="パス_15285" data-name="パス 15285" d="M2158.938,1421.231c.54.089,1.122.089,1.122.537,0,.226-.27.448-.448.629-.27.267-.222,1.029-.222,1.433v.984c0,9.274-.629,17.161-7.753,23.97-.359.314-.9.943-1.392.943-.67,0-3.985-1.658-3.985-2.468,0-.312.358-.623.583-.8,6.809-5.644,7.661-11.92,7.661-20.251,0-1.344-.048-3.138-.181-4.437,0-.134-.044-.356-.044-.492,0-.4.27-.492.582-.492C2155.712,1420.783,2158,1421.094,2158.938,1421.231Zm10.619,18.73c0,1.385.048,2.058.717,2.058,1.477,0,10.307-7.883,11.739-9.363.227-.226.537-.584.9-.584.762,0,2.287,2.868,2.287,3.585,0,.673-1.747,2.106-2.33,2.6-2.691,2.328-5.378,4.615-8.2,6.721-1.21.94-3.138,2.375-4.212,3.316-.406.314-.85.807-1.391.807a11.521,11.521,0,0,1-3.091-1.346c-.628-.356-1.432-.8-1.432-1.611,0-.314.178-3.224.178-5.377v-15.68a39.134,39.134,0,0,0-.178-4.57v-.223a.4.4,0,0,1,.445-.451c.271,0,1.392.181,1.751.229,2.327.311,3.629.445,3.629.938,0,.314-.181.406-.358.628a1.737,1.737,0,0,0-.4,1.163c-.048,1.033-.048,3.271-.048,4.393Z" transform="translate(-1953.608 -456.206)" fill="#674646"/>
    <path id="パス_15286" data-name="パス 15286" d="M2179.653,1419.584c.223.089.716.223.716.537s-.315.492-.716.807a7.916,7.916,0,0,0-.81,2.372,14.734,14.734,0,0,0-.492,2.02.523.523,0,0,0,.492.581,21.856,21.856,0,0,0,2.557-.673,1.561,1.561,0,0,1,.448-.089c.537,0,.581.807.671,1.344a20.885,20.885,0,0,1,.224,2.376c0,.985-.539,1.074-4.661,1.836-1.614.271-1.566.585-2.106,2.061a113.589,113.589,0,0,1-7.3,15.951c-.267.448-.4.626-.9.626-.985,0-3.987-1.3-3.987-2.239a4.94,4.94,0,0,1,.8-1.611,83.417,83.417,0,0,0,5.333-10.354,17.326,17.326,0,0,0,1.032-2.731.6.6,0,0,0-.629-.582c-.359,0-3.809.448-4.841.448-.763,0-.937-.4-1.118-1.436-.089-.534-.314-2.147-.314-2.6,0-.581.314-.715.807-.715h2.062a40.075,40.075,0,0,0,4.614-.225c.585-.089.985-.134,1.344-.715.674-1.121,1.435-6.095,1.435-7.527,0-.314,0-.762.4-.762C2175.217,1418.285,2178.933,1419.359,2179.653,1419.584Zm6.448,13.35c.492.136.9.4.9.943,0,.089-.089,1.432-.089,2.373,0,1.3.226,7.753.448,8.693.137.673.718.852,1.391,1.121.134.045.314.134.445.175,1.032.406,6.317,2.868,6.317,3.947,0,.715-1.655,3.269-2.776,3.269-.449,0-.849-.4-1.166-.629-.671-.492-2.868-2.058-3.583-2.058-.491,0-.671.626-.718,1.029-.537,3.271-3.179,4.392-6.228,4.392-3.627,0-7.884-1.928-7.884-6.095,0-4.12,3.9-5.555,7.436-5.555h1.169c.534,0,.937-.225.937-.762,0-1.433-.674-7.928-.8-9.678,0-.222-.045-.4-.045-.626,0-.718.4-.985,1.073-.985A18.79,18.79,0,0,1,2186.1,1432.933ZM2177.722,1450c0,1.388,1.794,2.106,2.958,2.106,1.613,0,2.33-.851,2.33-2.417,0-.9-.043-1.391-2.283-1.391C2179.653,1448.3,2177.722,1448.572,2177.722,1450Zm19.581-17.116c0,1.077-2.554,3.09-3.36,3.09-.448,0-.762-.492-.986-.8a25.379,25.379,0,0,0-5.6-5.781c-.178-.133-.582-.4-.582-.714,0-.629,2.062-3.094,3-3.094C2190.9,1425.587,2197.3,1431.726,2197.3,1432.889Z" transform="translate(-1919.142 -459.263)" fill="#674646"/>
    <path id="パス_15287" data-name="パス 15287" d="M2197.426,1420.856a.833.833,0,0,1-.4.673,2.913,2.913,0,0,0-.941,1.836c-.088.27-.134.54-.27.9a5.118,5.118,0,0,0-.269,1.121.685.685,0,0,0,.762.67,48.056,48.056,0,0,0,8.649-1.969,3.655,3.655,0,0,1,1.21-.314c.583,0,.673.629.852,1.254a14.465,14.465,0,0,1,.4,2.776c0,.718-.492.851-1.614,1.077-2.417.448-7.7,1.254-10.215,1.524-1.48.181-1.524.492-2.061,2.6-.133.626-.356,1.432-.626,2.417a2.576,2.576,0,0,0-.137.81c0,.267.137.4.448.4a.933.933,0,0,0,.492-.181c2.691-1.525,4.7-2.417,7.842-2.417,5.511,0,9.093,3.761,9.093,9.274,0,5.644-3.852,9.094-9.048,10.481a40.9,40.9,0,0,1-9.362,1.255c-1.48,0-1.7-.226-1.972-1.166a13.8,13.8,0,0,1-.582-2.957.894.894,0,0,1,.941-.94c.584,0,1.927.315,3.629.315,4.66,0,11.784-1.344,11.784-7.258a4.365,4.365,0,0,0-4.437-4.659,14.742,14.742,0,0,0-10.842,5.6c-.312.4-.716.984-1.254.984-1.031,0-3.583-1.254-3.583-2.506a6.352,6.352,0,0,1,.626-1.972,45.152,45.152,0,0,0,2.465-7.439,4.907,4.907,0,0,0,.224-1.118.647.647,0,0,0-.717-.673c-.271,0-.671.044-.941.044-1.032.042-4.524.448-5.422.448a1.054,1.054,0,0,1-1.166-.9,13.655,13.655,0,0,1-.493-2.957c0-1.162.715-1.118.943-1.118.626,0,3.268.181,5.063.181,3.18,0,3.671-.137,4.074-1.076a42.646,42.646,0,0,0,.941-5.689c.089-.628.047-1.613.763-1.613C2192.723,1418.572,2197.426,1419.868,2197.426,1420.856Z" transform="translate(-1886.314 -458.699)" fill="#674646"/>
    <path id="パス_15288" data-name="パス 15288" d="M2201.786,1425.889l.674.27c.85.359,1.433.492,1.433.985,0,.315-.179.448-.4.629a1.634,1.634,0,0,0-.673.985,29.3,29.3,0,0,0-.583,3.852c0,.226.042.5.312.5.222,0,.36-.27.451-.451a17.557,17.557,0,0,1,3.808-4.345,10.4,10.4,0,0,1,3.627-1.88c.448-.136.985-.27.985-1.032a17.981,17.981,0,0,0-.718-2.779,2.342,2.342,0,0,1-.175-.759c0-.629.848-.673,1.3-.673,3.139,0,3.674.181,3.674.762a1.249,1.249,0,0,1-.266.67,1.116,1.116,0,0,0-.18.629,11.733,11.733,0,0,0,.268,1.657,1.24,1.24,0,0,0,1.118,1.033c.719.178,1.392.311,2.062.534a9.028,9.028,0,0,1,6.007,8.963c0,5.375-3.72,10.259-9.411,10.3-.852,0-1.078.359-1.389,1.077-.448.94-2.017,4.031-3.179,4.031-.629,0-2.693-1.566-2.693-2.284a1.009,1.009,0,0,1,.362-.673c.447-.537,1.744-2.194,1.744-2.82,0-.493-.4-.718-.756-.944a9.2,9.2,0,0,1-3.72-7.3c0-1.572,2.059-1.749,2.418-1.749.807,0,.851.581.851.94.182,3.408,1.8,4.615,2.376,4.615a.624.624,0,0,0,.537-.448,32.919,32.919,0,0,0,.67-6.362c0-2.957-.178-3.808-.9-3.808a9.209,9.209,0,0,0-3.091,1.569c-3,2.239-5.467,6.54-5.467,10.306a8.091,8.091,0,0,0,.271,2.058,3.47,3.47,0,0,1,.089.67c0,1.032-2.328,1.48-2.912,1.48-.853,0-1.077-.988-1.345-2.284a38.49,38.49,0,0,1-.717-7.842,48.293,48.293,0,0,1,.762-8.42c.088-.54.177-.988.27-1.572.042-.311.222-.671.582-.671A8.386,8.386,0,0,1,2201.786,1425.889Zm14.2,4.615c0,.448.133,2.554.133,3.719a40.474,40.474,0,0,1-.532,6.14,3.744,3.744,0,0,0-.137.626.672.672,0,0,0,.718.67c1.7,0,4.434-2.195,4.434-6.225,0-4.167-3.046-5.555-3.99-5.555A.548.548,0,0,0,2215.99,1430.5Z" transform="translate(-1851.405 -453.562)" fill="#674646"/>
    <path id="パス_15289" data-name="パス 15289" d="M2238.559,1423.31c0,.318-.493.584-.985.943a43.4,43.4,0,0,0-6.495,6,1.338,1.338,0,0,0-.451.762c0,.359.362.581.762.581a2.454,2.454,0,0,0,.584-.089,8.564,8.564,0,0,1,1.835-.181,13.146,13.146,0,0,1,5.511,1.347,9.259,9.259,0,0,1,5.333,8.69c0,7.931-7.034,12.053-14.248,12.053-3.719,0-9.008-1.525-9.008-6.092a5.627,5.627,0,0,1,5.738-5.422,7.3,7.3,0,0,1,5.958,3.179,4.452,4.452,0,0,1,.806,2.868c.048.311.181.582.541.582,1.162,0,5.421-2.376,5.421-6.9,0-4.345-3.677-6.137-7.574-6.137a13.6,13.6,0,0,0-10.036,4.39c-1.747,1.7-3.36,3.541-4.974,5.377a.6.6,0,0,1-.492.311c-.94,0-3.223-2.509-3.223-3.227,0-.534.669-1.026,1.077-1.344a179.482,179.482,0,0,0,13.93-14.066c.358-.356,1.168-1.166,1.168-1.614,0-.4-.406-.537-.762-.537a9.951,9.951,0,0,0-1.077.181c-1.077.267-7.394,1.566-8.109,1.566-.988,0-1.12-3.36-1.12-4.119,0-1.032.044-1.121,1.387-1.121h1.077c2.868,0,8.738-.626,11.335-1.658a6.055,6.055,0,0,1,1.7-.492C2235.961,1419.146,2238.559,1422.548,2238.559,1423.31Zm-11.335,22.223a1.856,1.856,0,0,0-1.925,1.794c0,1.611,2.151,2.373,3.494,2.373.851,0,1.21-.807,1.21-1.525A2.738,2.738,0,0,0,2227.223,1445.533Z" transform="translate(-1821.305 -457.571)" fill="#674646"/>
    <path id="パス_15290" data-name="パス 15290" d="M2235.7,1438.15a139.253,139.253,0,0,1,9.364-15.817c.673-1.073,1.255-2.014,1.836-3.09.136-.222.359-.67.674-.67a11.215,11.215,0,0,1,2.509,1.7c.448.311,2.061,1.432,2.061,1.925s-.4.673-.806.718a1.938,1.938,0,0,0-1.163.582,43.84,43.84,0,0,0-2.823,3.675c-.629.851-4.526,6.54-4.526,7.168a.484.484,0,0,0,.448.451,1.8,1.8,0,0,0,.807-.317,10.088,10.088,0,0,1,4.747-1.524c1.792,0,3.986.943,4.749,2.645a7.489,7.489,0,0,1,.493,2.823,23.452,23.452,0,0,1-.582,4.345,25.447,25.447,0,0,0-.716,4.389c0,.762.271,1.706,1.164,1.706,2.509,0,6.768-5.422,8.153-7.394.228-.266.54-.626.9-.626.807,0,2.328,3.539,2.328,4.164a1.751,1.751,0,0,1-.492.988c-1.029,1.032-2.062,2.058-3.135,3.046-2.465,2.239-5.514,4.7-9.008,4.7-3.183,0-4.479-2.735-4.479-5.555a29.011,29.011,0,0,1,.582-5.2,20.273,20.273,0,0,0,.492-3.627c0-1.166-.4-2.061-1.7-2.061a8.321,8.321,0,0,0-3.853,1.254,13.3,13.3,0,0,0-4.571,4.078,30.986,30.986,0,0,0-4.122,9.408c-.135.581-.223,1.391-.985,1.391-.717,0-4.3-1.3-4.3-2.064,0-.042.762-1.88.807-1.973C2232.211,1445.632,2233.869,1441.869,2235.7,1438.15Z" transform="translate(-1789.485 -458.699)" fill="#674646"/>
    <path id="パス_15291" data-name="パス 15291" d="M2280.813,1422.356c0,.314.229.451.54.451,1.032,0,2.062-.089,3.139-.089s1.073.448,1.073,2.014,0,2.017-1.073,2.017c-1.8,0-3.542-.133-5.333-.133h-5.869c-.537,0-1.077.222-1.077.9a.548.548,0,0,0,.048.27,27.233,27.233,0,0,0,1.343,5.33.528.528,0,0,0,.493.4.543.543,0,0,0,.536-.311,32.971,32.971,0,0,0,2.106-4.618c.134-.356.225-.94.718-.94a14.953,14.953,0,0,1,2.466,1.077,6.153,6.153,0,0,0,.58.27c.94.444,1.433.625,1.433,1.028,0,.359-.359.493-.63.582-.533.136-.625.359-1.026,1.12a56.726,56.726,0,0,1-3.315,5.733,1.868,1.868,0,0,0-.362.943,1.122,1.122,0,0,0,.406.892c.674.81,1.88,2.064,3,2.064,1.388,0,1.7-2.687,1.883-3.764.042-.315.134-.673.851-.673,1.074,0,3,.537,3,1.839a11.087,11.087,0,0,1-1.344,4.745,4.269,4.269,0,0,1-3.985,2.334,8.551,8.551,0,0,1-6.139-3.094.966.966,0,0,0-1.57,0c-.085.089-.266.225-.444.4-.721.762-1.972,1.969-2.51,1.969-.762,0-2.782-1.836-2.782-2.6,0-.4.811-1.029,1.122-1.3a19.442,19.442,0,0,0,2.2-2.106,1.608,1.608,0,0,0,.492-1.029,2.234,2.234,0,0,0-.226-.94,33.913,33.913,0,0,1-2.865-9.363,1.2,1.2,0,0,0-1.39-1.166h-11.7c-.851,0-1.251.356-1.251,1.255v3.9a30.9,30.9,0,0,1-2.018,11.6c-.314.855-1.48,3.811-2.464,3.811-.807,0-3.317-1.613-3.317-2.509a9.908,9.908,0,0,1,.719-1.343c2.195-3.9,2.734-8.649,2.734-13.083v-2.465c0-1.255-.093-2.243-.093-3.049,0-1.7,1.077-1.972,2.51-1.972,1.388,0,2.779.092,4.164.092h10.4c.809-.092,1.165-.359,1.165-1.21,0-.762-.222-2.554-.222-2.643,0-.629.493-.721.985-.721.269,0,2.553.136,3,.181,1.255.089,1.972.089,1.972.718,0,.4-.4.537-.762.763-.4.222-.448.492-.448,1.032a3.455,3.455,0,0,0,.044.67c.048.9.449,1.118,1.255,1.21h4.84c.177-.044.4-.092.4-.314a.312.312,0,0,0-.177-.311,18.342,18.342,0,0,0-2.059-1.079c-1.079-.493-1.523-.67-1.523-1.074,0-.581.895-2.15,1.523-2.15a13.8,13.8,0,0,1,2.821,1.21c.537.267,2.554,1.344,2.554,1.839a2.6,2.6,0,0,1-.4,1.026A.622.622,0,0,0,2280.813,1422.356Zm-26.432,25.269c.271.089.674.269.674.676,0,.445-.581.534-.717.581-.4.089-.492.445-.585.763a36.006,36.006,0,0,1-3.135,6.673,1.213,1.213,0,0,1-1.166.762c-.8,0-3.135-.807-3.135-1.7a1.113,1.113,0,0,1,.267-.671,27.763,27.763,0,0,0,3.448-7.394c.092-.362.181-.854.673-.854C2251.021,1446.459,2253.846,1447.447,2254.381,1447.625Zm4.3-15.9c-.988,0-1.973.089-3,.089-.852,0-.807-.673-.807-1.566,0-.943-.045-1.525.851-1.525.985,0,1.97.045,2.958.045h4.033c.985,0,1.973-.045,2.957-.045.9,0,.851.492.851,1.525,0,.937.044,1.566-.806,1.566-.984,0-1.972-.089-3-.089Zm7.26,7.8c0,.626.043,1.074.043,1.613,0,1.118-.492,1.61-1.615,1.61-.758,0-1.477-.092-2.195-.092h-2.283c-.448,0-1.077,0-1.255.762-.089.54-.222.54-1.836.54-1.077,0-1.568.045-1.568-.806v-6.362c0-.54-.045-1.077-.045-1.613,0-1.166.537-1.614,1.7-1.614.717,0,1.432.089,2.153.089h3.132c.718,0,1.436-.089,2.153-.089,1.121,0,1.656.407,1.656,1.614,0,.537-.043,1.073-.043,1.613Zm4.479,13.8c.9,0,1.792.181,2.283-2.779.137-.718.137-1.21.988-1.21,1.122,0,3.361.629,3.361,1.973a12.567,12.567,0,0,1-1.479,4.481c-1.166,1.836-2.51,1.658-5.019,1.658h-10.347c-2.2,0-4.256-.314-4.256-3.048,0-.626.043-1.208.043-1.836v-2.687c0-1.255-.136-2.824-.136-3.271s.271-.629.674-.629c.718,0,3.538.27,4.347.314.356.048.851.137.851.585,0,.222-.181.356-.359.492-.629.4-.717.492-.717,2.15v2.643c0,1.254.67,1.165,1.839,1.165Zm-11.739-14.918a1.284,1.284,0,0,0,1.254,1.254h1.255a1.284,1.284,0,0,0,1.255-1.254v-.451a1.256,1.256,0,0,0-1.255-1.255h-1.255a1.256,1.256,0,0,0-1.254,1.255Zm9.141,12.857c-.4,0-.674-.356-.9-.673a46.447,46.447,0,0,0-3.583-3.671c-.224-.223-.586-.493-.586-.851,0-.673,2.243-2.2,2.826-2.2.537,0,2.6,2.016,3.091,2.509s2.15,2.016,2.15,2.646C2270.824,1449.82,2268.54,1451.255,2267.823,1451.255Zm13.978,5.333c-.628,0-.807-.537-.987-1.032a35.157,35.157,0,0,0-3.4-6.092,2.114,2.114,0,0,1-.4-.851c0-.807,2.462-1.747,3.135-1.747a1.048,1.048,0,0,1,.807.492,33.278,33.278,0,0,1,2.061,3.224c.4.673,2.15,3.586,2.15,4.214C2285.162,1455.826,2282.338,1456.588,2281.8,1456.588Z" transform="translate(-1758.407 -459.977)" fill="#674646"/>
    <path id="パス_15292" data-name="パス 15292" d="M2282.952,1420.808c0,.266-.312.448-.534.536-.72.267-.9.493-1.483,1.524a3.089,3.089,0,0,0-.448,1.029.437.437,0,0,0,.5.448,32.285,32.285,0,0,0,5.2-1.255,3.434,3.434,0,0,1,1.12-.27c.763,0,.986.721,1.118,1.344a14.157,14.157,0,0,1,.36,2.42c0,.762-1.433.94-2.375,1.122-2.82.581-5.645,1.073-8.465,1.391a1.572,1.572,0,0,0-1.344.715,14.437,14.437,0,0,0-1.524,2.6.348.348,0,0,0,.356.314,1.753,1.753,0,0,0,.81-.27,12.4,12.4,0,0,1,4.881-1.162c2.868,0,4.522,1.207,5.107,4.031.088.4.225.762.67.762a40,40,0,0,0,5.244-2.553,3.735,3.735,0,0,1,1.162-.451c.854,0,1.931,3.452,1.931,4.214,0,.537-.5.715-1.344.985-.181.092-.406.133-.628.222-1.794.673-3.541,1.435-5.285,2.2-.809.312-1.167.581-1.167,1.48v.581c0,1.388.046,2.732.046,4.123,0,1.614-.227,1.791-1.928,1.791-1.925,0-2.734-.089-2.734-1.257,0-.985.092-1.97.092-2.91,0-.4-.133-.762-.584-.762-.222,0-4.841,1.972-4.841,4.752,0,3,4.348,3.268,6.5,3.268a32.716,32.716,0,0,0,8.335-1.121,5.893,5.893,0,0,1,.895-.089c.585,0,.9.492.9,3.046,0,1.344-.044,1.7-1.029,1.928a59.81,59.81,0,0,1-8.6.581,16.594,16.594,0,0,1-7.082-1.165,6.8,6.8,0,0,1-4.479-6.407c0-4.031,3.272-6.225,6.362-8.064.9-.537,1.836-1.029,2.779-1.48.449-.222.807-.493.807-1.026a6.162,6.162,0,0,0-.225-1.258,1.863,1.863,0,0,0-1.969-1.525c-2.512,0-6.635,2.153-8.379,3.944a29.2,29.2,0,0,0-3.763,5.244.748.748,0,0,1-.629.445c-.8,0-3.809-1.788-3.809-2.6,0-.359.36-.715.582-.984,1.032-1.121,7.527-10.126,7.527-10.976,0-.4-.359-.537-.985-.537-.718,0-1.747.134-3.134.134-.985,0-1.166-.226-1.166-2.51,0-1.792.181-2.061,1.3-2.061.76,0,1.928.092,3.224.092h1.3c1.163,0,2.376-.047,2.776-.584a24.607,24.607,0,0,0,2.421-5.78c.088-.493.177-.94.628-.94C2278.34,1418.073,2282.952,1420.134,2282.952,1420.808Z" transform="translate(-1723.203 -459.68)" fill="#674646"/>
    <path id="パス_15293" data-name="パス 15293" d="M2290.066,1441.861c0,1.388-5.241,11.024-6.228,12.727a2.921,2.921,0,0,0-.493,1.255c0,.264.136.67.136.939a.548.548,0,0,1-.5.582,7.881,7.881,0,0,1-2.016-1.121c-.267-.178-.582-.359-.851-.537-.9-.584-1.255-.851-1.255-1.254a1.213,1.213,0,0,1,.359-.715,69.542,69.542,0,0,0,7.034-13.13c.182-.448.314-1.029.807-1.029S2290.066,1440.921,2290.066,1441.861Zm-4.929-11.11c.854.629,1.7,1.251,2.509,1.972a.987.987,0,0,1,.4.759c0,.626-1.525,2.732-2.239,2.732a2.031,2.031,0,0,1-1.3-.671,54.91,54.91,0,0,0-4.527-3.313c-.447-.318-.8-.493-.8-1.033,0-.717,1.521-2.779,2.281-2.779C2282,1428.42,2284.555,1430.3,2285.137,1430.751Zm1.839-4.3a3.444,3.444,0,0,1-1.388-.851c-1.48-1.163-3.046-2.373-4.66-3.449a.643.643,0,0,1-.362-.581c0-.763,1.573-2.913,2.335-2.913s3.131,1.928,4.031,2.553c.851.581,2.461,1.7,2.461,2.284C2289.393,1424.253,2287.693,1426.448,2286.976,1426.448Zm6.451,3.811a9.617,9.617,0,0,1-1.121.042c-1.432,0-2.1,0-2.1-.938,0-.406.089-1.21.089-1.794v-1.655c0-.9-.089-1.75-.089-2.153,0-1.255,1.163-1.614,2.2-1.614,1.343,0,2.688.047,4.03.047h4.078c.807,0,1.208-.27,1.255-1.121a10.873,10.873,0,0,0-.181-2.106v-.4c0-.536.4-.581.807-.581.807,0,2.957.175,3.809.267.447.044,1.209.044,1.209.582,0,.269-.222.359-.537.584-.493.356-.493.94-.493,1.658.045.851.493,1.121,1.254,1.121h4.167c1.3,0,2.554-.047,3.808-.047,1.118,0,2.462.226,2.462,1.614,0,.54-.087,1.21-.087,2.153v1.655c0,.54.087,1.388.087,1.794,0,.985-.673.938-2.373.938-.4,0-.807-.042-1.21-.042-.359-.044-.718.042-.763.448,0,.852,0,1.389-1.029,1.389-1.436,0-2.868-.092-4.3-.092h-1.255c-.714,0-1.029.318-1.029,1.08v.267c0,.76.314,1.077,1.029,1.077h3.764c1.077,0,2.154-.047,3.227-.047,1.391,0,2.106.359,2.106,1.836,0,.9-.088,1.749-.088,2.645v7.08c0,.893.088,1.747.088,2.643,0,1.477-.715,1.88-2.106,1.88-1.073,0-2.15-.089-3.227-.089h-.582c-.222,0-.4.089-.4.314a.452.452,0,0,0,.181.314,36.425,36.425,0,0,0,7.927,3.316c.45.134,1.032.27,1.032.9,0,.448-.988,2.957-2.2,2.957-1.39,0-5.465-1.883-6.857-2.6a30.99,30.99,0,0,1-3.315-1.972.744.744,0,0,1-.357-.537c0-.5.937-1.569,1.3-1.928a.592.592,0,0,0,.133-.356c0-.317-.225-.406-.448-.406h-7.349c-.312.044-.581.136-.581.5a.662.662,0,0,0,.181.4c.359.4,1.7,1.925,1.7,2.417a.413.413,0,0,1-.448.4c-.134,0-.27-.044-.4-.044a1.813,1.813,0,0,0-.492-.089,6.528,6.528,0,0,0-1.839.8c-.267.136-.493.27-.625.317-1.436.715-6.454,2.869-7.886,2.869-1.388,0-2.331-2.646-2.331-3.185,0-.671.854-.763,1.435-.893a33.272,33.272,0,0,0,7.883-2.868.463.463,0,0,0,.181-.314.318.318,0,0,0-.359-.314c-.807.044-1.61.089-2.419.089-1.389,0-2.105-.356-2.105-1.88,0-.9.047-1.75.047-2.643v-7.08c0-.9-.047-1.747-.047-2.645,0-1.477.672-1.836,2.061-1.836,1.076,0,2.15.047,3.271.047h3.539c.762,0,1.077-.317,1.077-1.077v-.267c0-.762-.315-1.08-1.077-1.08h-.893c-1.436,0-2.868.092-4.3.092-.807,0-.94-.27-1.03-.985C2294.411,1430.437,2294.053,1430.3,2293.426,1430.258Zm20.384-3.049c0-.851-.36-1.254-1.251-1.254h-16.8c-.854,0-1.213.4-1.213,1.254v.4c0,.582.5.718.988.762,1.436.044,2.868.089,4.3.089h8.553c1.435,0,2.868-.089,4.3-.089a1.547,1.547,0,0,1,.447.044h.223c.225,0,.4-.044.4-.267a2.044,2.044,0,0,0,.044-.492Zm-12.005,11.831a1.036,1.036,0,0,0-1.077-1.077h-3.316a1,1,0,0,0-1.029,1.077v.582a1,1,0,0,0,1.029,1.074h3.316a1.034,1.034,0,0,0,1.077-1.074Zm-4.393,4.971a1,1,0,0,0-1.029,1.076v.67a1,1,0,0,0,1.029,1.074h3.316a1.034,1.034,0,0,0,1.077-1.074v-.67a1.038,1.038,0,0,0-1.077-1.076Zm13.264-3.316a1.031,1.031,0,0,0,1.073-1.074v-.582a1.033,1.033,0,0,0-1.073-1.077h-3.493a1.013,1.013,0,0,0-1.077,1.077v.582a1.011,1.011,0,0,0,1.077,1.074Zm-4.57,5.062a1.011,1.011,0,0,0,1.077,1.074h3.493a1.031,1.031,0,0,0,1.073-1.074v-.67a1.035,1.035,0,0,0-1.073-1.076h-3.493a1.014,1.014,0,0,0-1.077,1.076Z" transform="translate(-1692.926 -459.857)" fill="#674646"/>
    <path id="パス_15294" data-name="パス 15294" d="M2310.7,1432.1c.851,0,1.251-.359,1.251-1.254v-8.065a24.217,24.217,0,0,0-.178-3.763,1.254,1.254,0,0,1-.044-.4c0-.492.4-.581.807-.581.629,0,3.09.223,3.853.312.358.047,1.209.047,1.209.584,0,.267-.269.4-.54.628-.446.312-.493.941-.493,2.195v9.094c0,.9.359,1.254,1.211,1.254h6.005c.892,0,1.254-.359,1.254-1.254v-6.184a24.286,24.286,0,0,0-.136-2.639c0-.137-.044-.318-.044-.452,0-.492.4-.536.807-.536.537,0,3.986.178,4.345.267.314.047.585.181.585.54,0,.27-.226.4-.541.626-.493.359-.537,1.032-.537,2.106v7.346c0,1.436.092,2.869.092,4.3,0,1.3-.492,1.255-2.334,1.255-1.385,0-1.788,0-2.146-.359-.27-.359-.493-.67-.944-.717h-6.405c-.853,0-1.211.4-1.211,1.255v12.187c0,.854.359,1.209,1.211,1.209h8.6c.892,0,1.254-.356,1.254-1.209v-5.822a18.781,18.781,0,0,0-.133-2.779,1.423,1.423,0,0,1-.048-.447c0-.492.4-.537.807-.537.763,0,2.96.133,3.809.178.4.045,1.166.045,1.166.626,0,.27-.225.4-.536.626-.629.451-.585,1.438-.585,3.719v6.813c0,1.613.133,3.224.133,4.793,0,1.346-.492,1.346-2.417,1.346-1.748,0-2.286,0-2.286-1.3v-.537c0-.718-.311-1.029-1.03-1.029h-24.688a.9.9,0,0,0-1.029,1.029v.4c0,1.3-.537,1.3-2.287,1.3-1.789,0-2.373,0-2.373-1.3,0-1.525.134-3.047.134-4.523v-8.379a15.331,15.331,0,0,0-.177-2.868v-.451c0-.534.4-.534.807-.534.714,0,2.912.134,3.716.175.406.047,1.122.047,1.122.588,0,.311-.223.444-.493.67-.54.4-.581,1.254-.581,2.642v5.6c.09.854.4,1.209,1.255,1.209h8.782c.851,0,1.251-.356,1.251-1.209v-12.187a1.1,1.1,0,0,0-1.251-1.255h-6.41c-.492.048-.669.358-.94.717-.312.314-.714.359-1.566.359h-.587c-1.7,0-2.328.044-2.328-1.255,0-1.477.092-3,.092-4.481v-7.257q0-1.344-.134-2.69c0-.133-.047-.263-.047-.444,0-.493.4-.54.806-.54.762,0,2.96.133,3.809.181.359.045,1.122.089,1.122.626,0,.314-.27.448-.538.629-.5.4-.539,1.3-.539,2.465v6.136c0,.9.358,1.254,1.254,1.254Z" transform="translate(-1659.057 -459.768)" fill="#674646"/>
    <path id="パス_15439" data-name="パス 15439" d="M2480.284,1750.1h.008a.685.685,0,0,1,.676.653c.344,7.485,1.16,15.146,4.765,20.467,3.624,5.346,9.673,7.838,19.038,7.838a.684.684,0,0,1,.051,1.366c-9.674.714-15.006,2.629-18.4,6.613-3.418,4.007-5.045,10.492-5.442,21.685a.685.685,0,0,1-.684.66h0a.684.684,0,0,1-.683-.66c-.308-9-1.182-15.929-4.446-20.519-3.16-4.442-8.511-6.828-17.891-7.978a.684.684,0,0,1,.022-1.36c9.09-.818,14.581-3.382,17.8-8.316,2.947-4.509,3.883-10.679,4.506-19.811A.684.684,0,0,1,2480.284,1750.1Zm17.612,29.789a24.8,24.8,0,0,1-5.724-1.668,17.149,17.149,0,0,1-7.572-6.234c-2.5-3.693-3.725-8.38-4.369-13.349-.7,5.3-1.835,9.36-3.989,12.659a16.841,16.841,0,0,1-6.972,6.038,28.4,28.4,0,0,1-7.2,2.263c7.013,1.4,11.379,3.835,14.208,7.811,2.239,3.147,3.415,7.251,4.052,12.256.872-6.278,2.485-10.513,5.049-13.518a17.157,17.157,0,0,1,7.663-5.005A32.679,32.679,0,0,1,2497.9,1779.891Z" transform="translate(-1722.34 -850.139)" fill="#452f27"/>
    <path id="パス_15440" data-name="パス 15440" d="M2486.23,1768.738h.007a.685.685,0,0,1,.676.653c.443,9.629,2.554,14.848,12.423,14.848a.684.684,0,0,1,.05,1.366c-5.085.374-7.875,1.367-9.633,3.428-1.778,2.085-2.627,5.5-2.838,11.412a.684.684,0,0,1-.683.66h0a.684.684,0,0,1-.683-.661c-.163-4.757-.619-8.416-2.322-10.808-1.635-2.3-4.433-3.536-9.358-4.139a.684.684,0,0,1,.022-1.36c9.657-.87,11.015-5.383,11.656-14.762A.684.684,0,0,1,2486.23,1768.738Zm7.96,16.258a10,10,0,0,1-5.913-4.046,14.634,14.634,0,0,1-2.076-5.356c-.922,4.6-2.958,7.843-8.312,9.257,5.19,1.374,7.411,4.118,8.372,8.836a12.135,12.135,0,0,1,2.453-5.542A10.042,10.042,0,0,1,2494.19,1785Z" transform="translate(-1693.195 -817.42)" fill="#452f27"/>
    <path id="パス_15439-2" data-name="パス 15439" d="M2481.841,1750.1a.683.683,0,0,1,.682.637c.623,9.132,1.56,15.3,4.506,19.811,3.223,4.934,8.713,7.5,17.8,8.316a.684.684,0,0,1,.022,1.36c-9.38,1.15-14.731,3.536-17.891,7.978-3.265,4.59-4.139,11.522-4.447,20.519a.684.684,0,0,1-.683.66h0a.684.684,0,0,1-.684-.66c-.4-11.193-2.024-17.679-5.442-21.685-3.4-3.984-8.73-5.9-18.4-6.613a.684.684,0,0,1,.051-1.366c9.365,0,15.414-2.491,19.038-7.838,3.606-5.321,4.422-12.981,4.766-20.467a.684.684,0,0,1,.676-.653Zm18.215,29.5a28.409,28.409,0,0,1-7.2-2.263,16.843,16.843,0,0,1-6.972-6.038c-2.154-3.3-3.285-7.361-3.988-12.659-.645,4.968-1.867,9.655-4.37,13.349a17.148,17.148,0,0,1-7.571,6.234,24.8,24.8,0,0,1-5.724,1.668,32.676,32.676,0,0,1,4.855,1.253,17.156,17.156,0,0,1,7.664,5.005c2.563,3.005,4.177,7.239,5.049,13.518.637-5.006,1.813-9.109,4.052-12.256C2488.677,1783.435,2493.043,1781,2500.056,1779.6Z" transform="translate(-2464.708 -850.139)" fill="#452f27"/>
    <path id="パス_15440-2" data-name="パス 15440" d="M2487.06,1768.738a.684.684,0,0,1,.682.637c.64,9.379,2,13.892,11.655,14.762a.684.684,0,0,1,.022,1.36c-4.924.6-7.723,1.841-9.358,4.139-1.7,2.392-2.159,6.051-2.321,10.808a.684.684,0,0,1-.683.661h0a.684.684,0,0,1-.684-.66c-.21-5.914-1.059-9.327-2.838-11.412-1.757-2.06-4.548-3.054-9.632-3.428a.684.684,0,0,1,.05-1.366c9.869,0,11.98-5.219,12.423-14.848a.684.684,0,0,1,.676-.653Zm8.342,16.113c-5.354-1.414-7.391-4.656-8.312-9.257a14.659,14.659,0,0,1-2.075,5.356A10.006,10.006,0,0,1,2479.1,1785a10.043,10.043,0,0,1,5.476,3.149,12.135,12.135,0,0,1,2.454,5.542C2487.99,1788.969,2490.212,1786.225,2495.4,1784.851Z" transform="translate(-2505.017 -817.42)" fill="#452f27"/>
  </g>
</svg>
