<svg xmlns="http://www.w3.org/2000/svg" width="285.253" height="142.626" viewBox="0 0 285.253 142.626">
  <g id="グループ_1750" data-name="グループ 1750" transform="translate(-1313.496 -1567.24)">
    <path id="パス_15709" data-name="パス 15709" d="M1599.123,1567.24a142.626,142.626,0,0,1-285.253,0" transform="translate(-0.373)" fill="#7f6760"/>
    <g id="グループ_1749" data-name="グループ 1749" transform="translate(1422.496 1605.062)">
      <path id="パス_15710" data-name="パス 15710" d="M1379.891,1626.537c-3.543,6.586-8.831,9.916-15.708,9.916s-12.16-3.33-15.708-9.916c-2.826-5.287-4.271-11.729-4.271-19.258s1.446-13.971,4.271-19.258c3.547-6.586,8.831-9.916,15.708-9.916s12.164,3.33,15.708,9.916c2.9,5.357,4.348,11.8,4.348,19.258S1382.79,1621.179,1379.891,1626.537Zm-7.962-30.767c-1.663-4.706-4.272-7.094-7.745-7.094-3.4,0-6.008,2.388-7.671,7.094a36.1,36.1,0,0,0,0,23.019c1.663,4.709,4.268,7.1,7.671,7.1,3.473,0,6.082-2.388,7.745-7.1a36.1,36.1,0,0,0,0-23.019Z" transform="translate(-1344.204 -1577.885)" fill="#fff"/>
      <path id="パス_15711" data-name="パス 15711" d="M1369.817,1635.6V1593.97l-8.47,4.272-3.911-8.54c4.993-2.678,12.595-6.516,22.658-11.66V1635.6Z" transform="translate(-1311.105 -1578.042)" fill="#fff"/>
    </g>
  </g>
</svg>
