<svg xmlns="http://www.w3.org/2000/svg" width="217.002" height="14.203" viewBox="0 0 217.002 14.203">
  <g id="グループ_342" data-name="グループ 342" transform="translate(-422.865 -3038.351)">
    <path id="パス_966" data-name="パス 966" d="M433.34,3052.618h-1.774v-5.795h-6.928v5.795h-1.773V3039.4h1.773v5.722h6.928V3039.4h1.774Z" transform="translate(0 -0.502)" fill="#9a6167"/>
    <path id="パス_967" data-name="パス 967" d="M458.273,3039.4v13.216H456.5V3039.4Z" transform="translate(-16.067 -0.502)" fill="#9a6167"/>
    <path id="パス_968" data-name="パス 968" d="M484.991,3039.034v13.655h-.055l-9.707-9.853.037,9.415h-1.791v-13.619h.091l9.689,9.962-.037-9.56Z" transform="translate(-24.177 -0.134)" fill="#9a6167"/>
    <path id="パス_969" data-name="パス 969" d="M514.828,3048.643h-5.082l-1.408,3.473h-1.755l5.777-13.765h.109l5.777,13.765H516.2Zm-.6-1.535-1.883-4.826-1.956,4.826Z" transform="translate(-39.993)" fill="#9a6167"/>
    <path id="パス_970" data-name="パス 970" d="M537.524,3041.919a2.548,2.548,0,0,0,.539-.832,2.658,2.658,0,0,0,.21-1.032,3.838,3.838,0,0,0-.037-.42l1.371-.128a3,3,0,0,1,.037.4,2.959,2.959,0,0,1-.366,1.389,2.885,2.885,0,0,1-.9,1.06Z" transform="translate(-54.774 -0.552)" fill="#9a6167"/>
    <path id="パス_971" data-name="パス 971" d="M574.614,3041.071a5.371,5.371,0,0,0-1.517-.237,2.74,2.74,0,0,0-1.709.484,1.645,1.645,0,0,0,.11,2.669,9.579,9.579,0,0,0,2.111,1.032,9.416,9.416,0,0,1,1.727.8,3.514,3.514,0,0,1,1.17,1.188,3.631,3.631,0,0,1,.466,1.929,3.582,3.582,0,0,1-.53,1.919,3.662,3.662,0,0,1-1.508,1.353,5.036,5.036,0,0,1-2.294.493,7.143,7.143,0,0,1-2.358-.393,8,8,0,0,1-1.993-1l.786-1.407a6.393,6.393,0,0,0,1.627.868,5.066,5.066,0,0,0,1.773.356,3.186,3.186,0,0,0,1.855-.548,1.847,1.847,0,0,0,.8-1.626,1.774,1.774,0,0,0-.667-1.454,7.27,7.27,0,0,0-1.874-1.014,15.045,15.045,0,0,1-1.855-.823,3.924,3.924,0,0,1-1.271-1.106,2.85,2.85,0,0,1-.53-1.764,3.192,3.192,0,0,1,1.088-2.514,4.328,4.328,0,0,1,2.824-1.014,7.777,7.777,0,0,1,3.967,1.06l-.676,1.371A7.914,7.914,0,0,0,574.614,3041.071Z" transform="translate(-69.47 -0.435)" fill="#9a6167"/>
    <path id="パス_972" data-name="パス 972" d="M621.579,3052.274a6.169,6.169,0,0,1-2.129.356,6.992,6.992,0,0,1-3.573-.9,6.2,6.2,0,0,1-2.376-2.413,6.845,6.845,0,0,1-.832-3.346,7.309,7.309,0,0,1,.841-3.519,6.222,6.222,0,0,1,2.331-2.45,6.473,6.473,0,0,1,3.372-.887,7.185,7.185,0,0,1,2.084.292,7.29,7.29,0,0,1,1.737.768l-.713,1.663a5.417,5.417,0,0,0-3.052-1.024,4.4,4.4,0,0,0-2.368.677,4.98,4.98,0,0,0-1.737,1.837,5.139,5.139,0,0,0-.649,2.55,5.535,5.535,0,0,0,.594,2.578,4.357,4.357,0,0,0,1.7,1.8,5.288,5.288,0,0,0,5.64-.356l.749,1.59A7.825,7.825,0,0,1,621.579,3052.274Z" transform="translate(-90.671 -0.368)" fill="#9a6167"/>
    <path id="パス_973" data-name="パス 973" d="M644.172,3042.521a6.94,6.94,0,0,1,2.458-2.477,6.6,6.6,0,0,1,6.736,0,6.993,6.993,0,0,1,2.477,2.477,6.47,6.47,0,0,1,.923,3.364,6.554,6.554,0,0,1-.914,3.382,6.756,6.756,0,0,1-2.477,2.459,6.721,6.721,0,0,1-10.118-5.841A6.516,6.516,0,0,1,644.172,3042.521Zm1.572,5.887a4.937,4.937,0,0,0,1.8,1.828,4.811,4.811,0,0,0,2.495.676,4.759,4.759,0,0,0,2.477-.667,4.813,4.813,0,0,0,1.773-1.828,5.246,5.246,0,0,0-.009-5.073,4.918,4.918,0,0,0-1.791-1.846,4.767,4.767,0,0,0-2.486-.677,4.711,4.711,0,0,0-2.486.686,4.916,4.916,0,0,0-1.783,1.855,5.157,5.157,0,0,0-.649,2.541A4.964,4.964,0,0,0,645.744,3048.408Z" transform="translate(-105.284 -0.368)" fill="#9a6167"/>
    <path id="パス_974" data-name="パス 974" d="M694.271,3038.6v13.637h-1.755v-8.555l-4.863,6.892h-.036l-4.771-6.655v8.317h-1.718V3038.6h.018l6.508,9.213,6.6-9.213Z" transform="translate(-123.375 -0.117)" fill="#9a6167"/>
    <path id="パス_975" data-name="パス 975" d="M733.016,3038.6v13.637h-1.755v-8.555l-4.863,6.892h-.036l-4.771-6.655v8.317h-1.718V3038.6h.018l6.508,9.213,6.6-9.213Z" transform="translate(-141.883 -0.117)" fill="#9a6167"/>
    <path id="パス_976" data-name="パス 976" d="M767.207,3039.4v1.7h-6.818v4.022h6.087v1.7h-6.087v4.077h7.074v1.718h-8.848V3039.4Z" transform="translate(-160.391 -0.502)" fill="#9a6167"/>
    <path id="パス_977" data-name="パス 977" d="M799.287,3039.034v13.655h-.055l-9.707-9.853.037,9.415h-1.792v-13.619h.091l9.688,9.962-.036-9.56Z" transform="translate(-174.319 -0.134)" fill="#9a6167"/>
    <path id="パス_978" data-name="パス 978" d="M830.321,3039.4v1.7h-3.546v11.517H825V3041.1h-3.455v-1.7Z" transform="translate(-190.453 -0.502)" fill="#9a6167"/>
  </g>
</svg>
