<svg xmlns="http://www.w3.org/2000/svg" width="665.205" height="53.727" viewBox="0 0 665.205 53.727">
  <g id="グループ_1701" data-name="グループ 1701" transform="translate(-3284.267 -1564.348)">
    <path id="パス_15068" data-name="パス 15068" d="M3307.173,1570.475c0,.677-1.292,1.667-1.787,2.1a43.242,43.242,0,0,0-7.967,10.064c-2.655,4.692-4.511,9.2-4.511,14.7s2.532,9.507,8.4,9.507a13.064,13.064,0,0,0,10.437-5.249c3.4-4.569,4.012-11.917,4.012-17.473a39.55,39.55,0,0,0-2.713-15.624,2.206,2.206,0,0,1-.188-.865c0-1.36,4.511-2.163,5.68-2.163,1.483,0,1.545.929,1.732,2.1,1.233,6.609,4.877,12.845,9.015,17.971.435.5,1.111,1.234,1.111,1.914,0,1.36-4.2,3.338-5,3.338-1.05,0-2.16-2.474-2.594-3.338-.185-.5-1.05-2.468-1.545-2.468-.428,0-.428.5-.428.8,0,.988.123,1.917.123,2.843,0,4.445-.867,10.372-2.9,14.322a18.34,18.34,0,0,1-16.554,10.129c-9.079,0-14.817-6.237-14.817-15.19,0-6.609,2.282-11.917,5.553-17.6a1.48,1.48,0,0,0,.25-.557.412.412,0,0,0-.435-.369,12.031,12.031,0,0,0-2.036.738,13.871,13.871,0,0,1-2.84.991c-.681,0-1.05-.8-1.3-1.3-.554-1.237-1.6-3.708-1.6-5.006,0-.8.554-.864,1.852-.984a34.012,34.012,0,0,0,9.634-1.914c2.282-.864,3.4-2.286,4.63-4.326.373-.616.742-1.48,1.545-1.48C3303.534,1566.09,3307.173,1569.115,3307.173,1570.475Z" transform="translate(0 2.334)" fill="#9a6167"/>
    <path id="パス_15069" data-name="パス 15069" d="M3329.372,1566.142c.306.12.985.3.985.742s-.432.677-.985,1.107c-.494.434-.929,2.594-1.113,3.273a20.148,20.148,0,0,0-.68,2.782.718.718,0,0,0,.68.8,30.136,30.136,0,0,0,3.522-.923,2.067,2.067,0,0,1,.612-.126c.741,0,.806,1.114.93,1.853a30.153,30.153,0,0,1,.308,3.273c0,1.36-.741,1.483-6.421,2.532-2.225.373-2.163.8-2.905,2.84a156.723,156.723,0,0,1-10.066,21.983c-.37.619-.554.865-1.234.865-1.356,0-5.5-1.791-5.5-3.089a6.805,6.805,0,0,1,1.114-2.222,115.733,115.733,0,0,0,7.351-14.264,24.627,24.627,0,0,0,1.418-3.769.831.831,0,0,0-.865-.8c-.494,0-5.252.615-6.67.615-1.05,0-1.3-.554-1.544-1.976-.124-.741-.435-2.966-.435-3.582,0-.8.435-.987,1.114-.987h2.84a54.237,54.237,0,0,0,6.359-.311,2.1,2.1,0,0,0,1.853-.984c.929-1.544,1.979-8.4,1.979-10.378,0-.427,0-1.049.554-1.049C3323.256,1564.348,3328.382,1565.834,3329.372,1566.142Zm8.889,18.4c.681.185,1.234.554,1.234,1.3,0,.123-.12,1.978-.12,3.271,0,1.793.308,10.683.615,11.981.185.926.987,1.175,1.914,1.544.188.062.434.185.618.246,1.419.557,8.707,3.951,8.707,5.434,0,.991-2.285,4.507-3.83,4.507-.615,0-1.169-.554-1.6-.864-.926-.68-3.953-2.837-4.941-2.837-.68,0-.926.865-.983,1.418-.745,4.507-4.388,6.052-8.585,6.052-5,0-10.873-2.655-10.873-8.4,0-5.68,5.378-7.655,10.255-7.655h1.6c.745,0,1.3-.311,1.3-1.049,0-1.979-.926-10.932-1.114-13.341,0-.308-.062-.554-.062-.865,0-.987.558-1.356,1.486-1.356A25.617,25.617,0,0,1,3338.261,1584.544Zm-11.547,23.528c0,1.914,2.468,2.9,4.077,2.9,2.225,0,3.209-1.169,3.209-3.332,0-1.237-.062-1.914-3.147-1.914C3329.372,1605.725,3326.714,1606.094,3326.714,1608.072Zm26.986-23.593c0,1.483-3.52,4.262-4.633,4.262-.616,0-1.05-.68-1.357-1.111a34.94,34.94,0,0,0-7.72-7.966c-.246-.187-.8-.557-.8-.991,0-.865,2.837-4.258,4.135-4.258C3344.87,1574.415,3353.7,1582.876,3353.7,1584.479Z" transform="translate(48.268 0)" fill="#9a6167"/>
    <path id="パス_15070" data-name="パス 15070" d="M3354.235,1567.878a1.153,1.153,0,0,1-.557.929,4.027,4.027,0,0,0-1.3,2.529c-.123.373-.185.745-.37,1.237a7.044,7.044,0,0,0-.368,1.544.946.946,0,0,0,1.049.926c2.222,0,9.571-1.914,11.917-2.72a5.121,5.121,0,0,1,1.667-.431c.807,0,.926.864,1.175,1.729a19.916,19.916,0,0,1,.554,3.828c0,.991-.68,1.175-2.224,1.483-3.333.615-10.621,1.729-14.079,2.1-2.037.243-2.1.677-2.838,3.581-.184.865-.5,1.972-.864,3.333a3.437,3.437,0,0,0-.184,1.113c0,.37.184.554.615.554a1.272,1.272,0,0,0,.68-.249c3.7-2.1,6.482-3.332,10.806-3.332,7.593,0,12.534,5.187,12.534,12.78,0,7.785-5.31,12.535-12.473,14.449a56.355,56.355,0,0,1-12.907,1.729c-2.037,0-2.345-.3-2.717-1.6a19.082,19.082,0,0,1-.8-4.077,1.23,1.23,0,0,1,1.295-1.3c.8,0,2.655.431,5,.431,6.424,0,16.242-1.849,16.242-10,0-3.643-2.409-6.421-6.113-6.421-5.373,0-11.794,3.4-14.944,7.72-.431.554-.987,1.36-1.729,1.36-1.422,0-4.938-1.729-4.938-3.461a8.677,8.677,0,0,1,.864-2.717,62.149,62.149,0,0,0,3.394-10.251,6.851,6.851,0,0,0,.311-1.541.89.89,0,0,0-.99-.926c-.369,0-.923.062-1.3.062-1.418.058-6.233.618-7.473.618a1.455,1.455,0,0,1-1.6-1.24,18.563,18.563,0,0,1-.68-4.071c0-1.609.987-1.544,1.3-1.544.865,0,4.508.246,6.976.246,4.388,0,5.067-.185,5.621-1.48a60.155,60.155,0,0,0,1.3-7.843c.119-.864.062-2.225,1.049-2.225C3347.749,1564.73,3354.235,1566.518,3354.235,1567.878Z" transform="translate(96.827 0.793)" fill="#9a6167"/>
    <path id="パス_15071" data-name="パス 15071" d="M3368.864,1574.156c-.681-.19-1.479-.375-1.479-1.175,0-.618,1.107-4.135,2.468-4.135.863,0,5,1.6,6.051,2.034.865.372,2.406.868,2.406,1.853a4.052,4.052,0,0,1-.369,1.483.929.929,0,0,0-.123.373c0,.618.435.738.926.677a18.6,18.6,0,0,1,4.139-.493c5.311,0,9.384,2.963,9.384,8.584,0,5.064-3.332,7.963-7.654,9.818a21.5,21.5,0,0,1-5.621,1.606c-1.545,0-2.778-3.4-2.778-4.141,0-1.169,1.233-1.169,2.47-1.418,2.9-.5,7.905-2.1,7.905-5.742,0-2.347-1.853-3.522-4.016-3.522-3.581,0-8.953,2.778-11.916,4.7a1.553,1.553,0,0,0-.927,1.418c0,1.36,6.916,12.535,8.089,14.39a5.4,5.4,0,0,1,1.05,2.157c0,1.175-3.459,2.843-4.443,2.843-.68,0-.991-.5-1.3-.987-.558-1.05-1.05-2.1-1.546-3.089-1.852-3.517-3.765-6.914-5.556-10.437-.434-.864-.8-1.665-1.668-1.665s-3.953,2.652-4.756,3.333c-.306.184-.681.557-1.05.557-1.176,0-3.332-3.335-3.332-4.449,0-.68.68-.985,1.173-1.234.557-.369,4.012-2.532,4.445-2.9a1.713,1.713,0,0,0,.8-1.422c0-1.049-2.342-4.815-3.086-5.679a2.459,2.459,0,0,1-.738-1.36c0-.619.8-.923,2.717-1.6.5-.185,1.172-.434,1.913-.745a5.009,5.009,0,0,1,1.36-.369.884.884,0,0,1,.862.68,1.456,1.456,0,0,1-.124.554,1.217,1.217,0,0,0-.062.434,24.606,24.606,0,0,0,1.606,4.138,1.543,1.543,0,0,0,1.3.988,3.407,3.407,0,0,0,1.544-.618c1.233-.68,3.517-1.914,4.815-2.533a.753.753,0,0,0,.43-.68.736.736,0,0,0-.494-.615A48.629,48.629,0,0,0,3368.864,1574.156Z" transform="translate(147.349 9.339)" fill="#9a6167"/>
    <path id="パス_15072" data-name="パス 15072" d="M3384.844,1591.713c4.572-9.076,7.477-13.458,12.907-21.8.93-1.486,1.729-2.779,2.532-4.265.185-.3.5-.923.927-.923.557,0,2.839,1.853,3.461,2.348.615.431,2.836,1.975,2.836,2.652s-.553.926-1.107.991a2.7,2.7,0,0,0-1.609.8,61.742,61.742,0,0,0-3.889,5.064c-.864,1.175-6.239,9.015-6.239,9.879a.665.665,0,0,0,.621.619,2.441,2.441,0,0,0,1.107-.431,13.88,13.88,0,0,1,6.547-2.1c2.472,0,5.5,1.3,6.549,3.646a10.372,10.372,0,0,1,.68,3.889,32.623,32.623,0,0,1-.8,5.99,35.158,35.158,0,0,0-.99,6.049c0,1.049.369,2.347,1.605,2.347,3.462,0,9.326-7.473,11.24-10.187.311-.373.738-.865,1.233-.865,1.114,0,3.213,4.877,3.213,5.742a2.368,2.368,0,0,1-.681,1.359c-1.418,1.418-2.84,2.837-4.319,4.2-3.4,3.089-7.6,6.486-12.415,6.486-4.385,0-6.176-3.769-6.176-7.661a39.876,39.876,0,0,1,.8-7.16,27.668,27.668,0,0,0,.68-5c0-1.609-.557-2.843-2.347-2.843a11.53,11.53,0,0,0-5.314,1.729,18.315,18.315,0,0,0-6.295,5.622c-2.471,3.332-4.631,8.953-5.68,12.965-.185.8-.312,1.917-1.359,1.917-.988,0-5.93-1.794-5.93-2.843,0-.062,1.049-2.594,1.113-2.717C3380.029,1602.027,3382.312,1596.839,3384.844,1591.713Z" transform="translate(191.821 0.793)" fill="#9a6167"/>
    <path id="パス_15073" data-name="パス 15073" d="M3413.747,1599.436c-.741,0-8.089,5.926-9.142,6.855a1.937,1.937,0,0,1-.926.5c-1.233,0-3.7-4.633-3.7-5.867,0-.68.677-.868,1.422-1.3,3.458-1.979,6.731-4.2,10.128-6.3,2.345-1.421,2.594-1.48,2.594-3.394v-2.1c0-.923.059-1.85.059-2.779v-.615a1.347,1.347,0,0,0-1.36-1.421c-.123,0-.242.064-.368.064-1.173.246-5.37.984-6.3.984-.8,0-1.791-.061-1.791-4.565,0-1.671.126-1.914,1.3-1.979,1.914-.062,4.073-.185,5.987-.431a3.31,3.31,0,0,0,2.286-.745,2.483,2.483,0,0,0,.5-1.849c.061-1.729.119-3.458.119-5.187,0-1.237-.119-2.655-.119-2.9,0-.5.184-.929.8-.929.93,0,5.068.865,6.3,1.114.369.062,1.234.246,1.234.8,0,.375-.37.745-.619.991-.927.738-.984,1.482-1.172,3.4-.062.369-.123.865-.185,1.418,0,.249-.064.618-.064.864a1.083,1.083,0,0,0,1.049,1.049c.437,0,3.273-.864,3.892-1.049a3.35,3.35,0,0,1,1.05-.311c1.421,0,1.605,4.019,1.605,5.067,0,1.6-1.049,1.6-5.741,2.406-2.282.431-2.408.864-2.408,3.7v.865c0,1.052.126,2.409.926,2.409a5.857,5.857,0,0,0,1.541-.557,28.926,28.926,0,0,1,10.255-2.037c6.852,0,13.458,4.261,13.458,11.67a10.872,10.872,0,0,1-4.935,9.2c-3.154,2.16-8.711,2.779-12.416,2.779h-.741c-.987,0-2.282-.062-2.594-.68a12.018,12.018,0,0,1-.987-4.446c0-.8.185-1.6,1.114-1.6a48.846,48.846,0,0,0,5.061.554c3.582,0,8.834-1.175,8.834-5.68,0-3.892-3.954-5.806-7.415-5.806a24.041,24.041,0,0,0-10.867,2.966,2.075,2.075,0,0,0-.988,1.914c0,.738.123,3.209.185,4.074.124,1.3.561,6.855.561,7.474,0,3.021-3.77,4.507-5.437,4.507-1.36,0-1.791-1.3-2.283-2.347a12.54,12.54,0,0,0-3.77-4.818c-.308-.3-.738-.68-.738-1.169a1.4,1.4,0,0,1,1.354-1.24,14.821,14.821,0,0,1,3.154,1.919,1.212,1.212,0,0,0,.738.369c.369,0,.434-.249.434-.495,0-.065-.123-2.594-.123-2.717,0-.311-.061-.619-.061-.864C3414.362,1600.052,3414.362,1599.436,3413.747,1599.436Zm31.183-21.553c1.668,1.3,4.758,3.892,4.758,4.572,0,1.173-2.659,4.2-3.893,4.2a2.48,2.48,0,0,1-1.36-.745,88.806,88.806,0,0,0-8.211-6.913c-.432-.311-1.111-.8-1.111-1.483,0-.926,2.717-4.012,3.708-4.012.738,0,3.273,2.1,4.627,3.212C3443.942,1577.084,3444.434,1577.514,3444.929,1577.884Z" transform="translate(240.299 2.334)" fill="#9a6167"/>
    <path id="パス_15074" data-name="パス 15074" d="M3449.773,1564.9c1.479.126,3.335.311,3.335.865a.941.941,0,0,1-.373.68c-.434.311-.929.8-.987,2.593-.062,1.3-.062,2.658-.062,3.951a1.628,1.628,0,0,0,1.791,1.794c.492,0,2.9-.188,3.581-.188,3.027-.123,9.633-.492,12.285-.492.991,0,1.425.369,1.425,3.147,0,3.769-.745,3.708-1.36,3.708-.864,0-5.494-.308-8.953-.308-1.113,0-6.854.059-7.534.243a1.991,1.991,0,0,0-1.173,2.04v2.163a5.175,5.175,0,0,0,.618,3.206,19.017,19.017,0,0,1,1.914,8.649c0,9.938-6.608,21-9.323,21-.744,0-5.744-1.545-5.744-2.658,0-.5,1.05-1.36,1.419-1.729a19.9,19.9,0,0,0,4.445-5.99,2.272,2.272,0,0,0,.312-.923.466.466,0,0,0-.432-.437,1.283,1.283,0,0,0-.494.065,5.768,5.768,0,0,1-1.422.311c-5.372,0-7.348-5.806-7.348-10.313,0-5.68,2.471-11.116,8.7-11.67.312-.064.745-.25.745-.745,0-2.283-.434-2.594-1.114-2.594-.5,0-3.332.311-4.076.373-3.209.308-11.179,1.172-14.142,1.791a4.755,4.755,0,0,1-.923.126c-.99,0-1.049-.865-1.233-1.667a35.274,35.274,0,0,1-.5-4.449c0-1.234.554-1.107,3.579-1.234,1.667-.064,16.181-.864,16.737-.987a1.818,1.818,0,0,0,1.356-1.914,52.693,52.693,0,0,0-.618-7.658,1.42,1.42,0,0,1-.059-.492.7.7,0,0,1,.8-.745C3446.375,1564.408,3448.29,1564.78,3449.773,1564.9Zm-8.154,30.937c0,1.855.435,5.252,2.905,5.252s3.212-3.153,3.212-5.067-.56-5.431-3.089-5.431C3442.241,1590.594,3441.619,1593.988,3441.619,1595.84Z" transform="translate(288.445 0.125)" fill="#9a6167"/>
    <path id="パス_15075" data-name="パス 15075" d="M3473.056,1564.9c1.48.126,3.332.311,3.332.865a.94.94,0,0,1-.369.68c-.434.311-.93.8-.991,2.593-.059,1.3-.059,2.658-.059,3.951a1.626,1.626,0,0,0,1.788,1.794c.5,0,2.905-.188,3.582-.188,3.026-.123,9.633-.492,12.288-.492.987,0,1.422.369,1.422,3.147,0,3.769-.745,3.708-1.357,3.708-.864,0-5.5-.308-8.953-.308-1.114,0-6.855.059-7.535.243a1.994,1.994,0,0,0-1.176,2.04v2.163a5.2,5.2,0,0,0,.618,3.206,19.017,19.017,0,0,1,1.914,8.649c0,9.938-6.608,21-9.322,21-.744,0-5.744-1.545-5.744-2.658,0-.5,1.049-1.36,1.418-1.729a19.841,19.841,0,0,0,4.446-5.99,2.286,2.286,0,0,0,.311-.923.466.466,0,0,0-.431-.437,1.281,1.281,0,0,0-.492.065,5.82,5.82,0,0,1-1.425.311c-5.372,0-7.345-5.806-7.345-10.313,0-5.68,2.468-11.116,8.705-11.67.308-.064.741-.25.741-.745,0-2.283-.434-2.594-1.114-2.594-.491,0-3.332.311-4.076.373-3.206.308-11.175,1.172-14.138,1.791a4.784,4.784,0,0,1-.926.126c-.988,0-1.05-.865-1.233-1.667a35.638,35.638,0,0,1-.5-4.449c0-1.234.558-1.107,3.584-1.234,1.665-.064,16.179-.864,16.731-.987a1.817,1.817,0,0,0,1.36-1.914,52.423,52.423,0,0,0-.621-7.658,1.42,1.42,0,0,1-.059-.492.7.7,0,0,1,.8-.745C3469.657,1564.408,3471.57,1564.78,3473.056,1564.9Zm-8.153,30.937c0,1.855.434,5.252,2.9,5.252s3.212-3.153,3.212-5.067-.557-5.431-3.086-5.431C3465.521,1590.594,3464.9,1593.988,3464.9,1595.84Z" transform="translate(336.794 0.125)" fill="#9a6167"/>
    <path id="パス_15076" data-name="パス 15076" d="M3501.23,1566.512c.427.185,1.049.431,1.049,1.049,0,.431-.249.68-.434,1.049a8.27,8.27,0,0,0-1.05,4.012c0,.126-.061.434-.061.557,0,1.237,1.175,1.357,2.036,1.606,8.461,2.16,14.2,8.215,14.2,17.168,0,10.434-7.1,16.793-15.928,20.993a9.16,9.16,0,0,1-3.089,1.052c-1.426,0-3.893-3.77-3.893-5,0-.739.926-.926,1.914-1.234,7.166-2.348,14.513-7.6,14.513-15.935,0-8.4-8.092-11.3-9.82-11.3-.865,0-1.234.806-1.36,1.483a45.941,45.941,0,0,1-7.905,18.771c-3.146,4.2-8.146,8.461-13.642,8.461-5.741,0-7.661-5.987-7.661-10.744a22.351,22.351,0,0,1,5.747-15.252,1.86,1.86,0,0,0,.677-1.421,4.418,4.418,0,0,0-.368-1.483c-.865-2.594-1.545-5.246-2.409-7.9a4.085,4.085,0,0,1-.185-.923c0-.557.491-.865.984-.99a31.477,31.477,0,0,1,4.883-1.234c.987,0,1.049.99,1.172,1.791.246,1.483.742,3.831,1.11,5.249.186.554.435.991,1.114.991a2.112,2.112,0,0,0,1.05-.311,25.549,25.549,0,0,1,8.208-2.717c2.1-.311,2.225-.68,2.225-5.372,0-.929-.062-1.855-.062-2.717,0-.622.126-1.114.864-1.114A38.163,38.163,0,0,1,3501.23,1566.512Zm-17.6,31.863c-1.234-2.535-2.409-5-3.517-7.6-.126-.308-.437-.864-.864-.864-.991,0-2.905,4.569-2.905,8.52,0,1.609.246,4.511,2.345,4.511,1.794,0,5.191-2.222,5.191-3.646A2.284,2.284,0,0,0,3483.627,1598.376Zm.68-13.9c0,.8,2.1,5.745,2.532,6.729.554,1.24.8,1.979,1.419,1.979,1.605,0,4.757-10.187,4.757-11.917a.781.781,0,0,0-.865-.864C3490.667,1580.407,3484.307,1582.441,3484.307,1584.481Z" transform="translate(385.937 1.543)" fill="#9a6167"/>
    <path id="パス_15077" data-name="パス 15077" d="M3506.6,1607a4.55,4.55,0,0,1-4.818,4.756,4.011,4.011,0,0,1-4.262-4.077,4.62,4.62,0,0,1,4.757-4.938A4.137,4.137,0,0,1,3506.6,1607Zm-5.557-9.074c-1.545,0-1.855-.311-1.914-1.855l-.435-15.621c-.122-3.708-.557-11.981-.557-13.218,0-1.049.37-1.3,1.729-1.3h4.323c1.356,0,1.729.25,1.729,1.3,0,1.237-.432,9.51-.558,13.587l-.369,15.252c-.059,1.544-.369,1.855-1.914,1.855Z" transform="translate(442.874 3.291)" fill="#9a6167"/>
  </g>
</svg>
