<svg xmlns="http://www.w3.org/2000/svg" width="326.014" height="66.242" viewBox="0 0 326.014 66.242">
  <g id="グループ_2296" data-name="グループ 2296" transform="translate(-34.985 -2307.263)">
    <g id="グループ_1692" data-name="グループ 1692" transform="translate(-4017.704 836.174)">
      <path id="パス_14961" data-name="パス 14961" d="M4100.887,1493.622c.115-.007.159-.075.2-.16a25.6,25.6,0,0,0,.839-2.448c.025-.1.05-.231.18-.24a6.018,6.018,0,0,1,.849.288,1.055,1.055,0,0,1,.117.041c.15.056.45.151.46.314s-.135.188-.183.207c-.144.042-.207.062-.263.212a22.693,22.693,0,0,1-.984,2.458.38.38,0,0,0-.036.2.346.346,0,0,0,.128.235,2.146,2.146,0,0,0,.19.168.351.351,0,0,0,.251.1c.146-.009.2-.11.264-.212.243-.536.484-1.09.694-1.625.057-.134.081-.282.227-.291a6.092,6.092,0,0,1,1.1.419c.184.07.386.17.394.3.009.146-.168.174-.2.176a.394.394,0,0,0-.28.2c-.561,1.176-1.139,2.338-1.8,3.439a.238.238,0,0,0-.023.148c.008.13.125.171.239.164.259-.033.532-.083.79-.132.162-.027.3-.117.29-.312,0-.065-.022-.1-.025-.144a2.272,2.272,0,0,1-.266-.587c-.018-.292.634-.529.861-.543.26-.017.389.2.869,1.345a11.451,11.451,0,0,1,.54,1.58c.013.211-.1.283-.269.375a1.747,1.747,0,0,1-.622.219c-.26.017-.308-.224-.388-.464a.292.292,0,0,0-.356-.206l-.256.05-.032.017c-.305.086-.41.223-.391.53l.192,3.02c.047.73.126,1.459.174,2.2.032.5-.1.528-.7.566-.569.037-.746.048-.778-.456-.048-.746-.064-1.495-.11-2.226l-.181-2.84c-.015-.227-.123-.4-.383-.383a.1.1,0,0,0-.064.021l-1.065.165a.286.286,0,0,0-.2.16c-.043.1-.1.185-.217.193-.177.011-.243-.229-.352-.678-.06-.176-.107-.4-.189-.657a1.277,1.277,0,0,1-.046-.225c-.014-.211.148-.221.424-.239.081-.005.161-.026.259-.032l.1-.007c.324-.02.431-.142.609-.414.116-.235.247-.472.379-.709a.621.621,0,0,0,.078-.313.54.54,0,0,0-.2-.346c-.519-.456-1.034-.864-1.6-1.268-.239-.163-.307-.225-.316-.355-.016-.26.349-1.178.624-1.2a.588.588,0,0,1,.3.143A.283.283,0,0,0,4100.887,1493.622Zm.865,6.66c.049.012.1.009.148.023.263.032.459.051.469.2a.212.212,0,0,1-.118.2c-.173.093-.187.126-.19.338a27.373,27.373,0,0,1-.408,3.318c-.039.149-.114.252-.277.262-.21.013-.934-.087-.951-.347a2.069,2.069,0,0,1,.06-.346,17.226,17.226,0,0,0,.394-3.284c0-.245-.043-.422.2-.437C4101.176,1500.2,4101.621,1500.273,4101.752,1500.282Zm3.959,2.811c-.324.02-.341-.239-.383-.383a9.943,9.943,0,0,0-.7-1.993,1.559,1.559,0,0,1-.121-.367c-.019-.292.785-.458.85-.462.276-.017.508.572.748,1.257a10.167,10.167,0,0,1,.416,1.408C4106.547,1502.909,4105.841,1503.084,4105.711,1503.093Zm3.178-3.087c-.326.021-.446.159-.426.484l.08,1.249c.074,1.169.171,1.423,1.373,1.347l2.24-.143c.811-.051,1.027-.26,1.1-1.471.024-.392,0-.505.357-.528a2.591,2.591,0,0,1,.87.108c.283.08.4.186.419.43a5.061,5.061,0,0,1-.544,2.2,1.827,1.827,0,0,1-1.664.742l-3.247.206a3.878,3.878,0,0,1-1.572-.128c-.721-.312-.825-.925-.87-1.64-.025-.389-.034-.78-.059-1.17l-.342-5.372a.173.173,0,0,0-.206-.166.316.316,0,0,0-.128.041c-.032,0-.047.019-.063.02-.276.017-1.113-.581-1.128-.824-.009-.13.174-.321.266-.409a12.867,12.867,0,0,0,2.643-4.324c.041-.116.083-.233.213-.242.1-.006,1,.165,1.186.2.05.014.114.009.164.022.28.048.448.118.455.232.008.13-.151.2-.246.244a.416.416,0,0,0-.23.21.216.216,0,0,0-.041.133c.01.146.142.17.272.178l1.3-.083c.276-.017.551-.051.828-.068.713-.046,1.074.762,1.082.876a7.715,7.715,0,0,1-.94,1.869.26.26,0,0,0-.04.149.193.193,0,0,0,.223.181c.309-.02.616-.055.909-.074.567-.036.79.129.826.7.024.373.032.763.056,1.137l.134,2.109c.029.455.091.908.112,1.232.025.406-.17.4-.8.442l-.212.013c-.275.018-.455.013-.558-.078-.106-.123-.195-.248-.375-.253Zm-1.15-5.517a.311.311,0,0,0-.039.166c.009.13.109.172.224.181l1.525-.1a.7.7,0,0,0,.661-.368,6.578,6.578,0,0,0,.714-1.333c-.01-.162-.2-.133-.35-.124l-1.347.086a.673.673,0,0,0-.645.367A13.4,13.4,0,0,1,4107.739,1494.489Zm.578,3.7a.453.453,0,0,0,.483.425l.406-.025a.43.43,0,0,0,.408-.483l-.1-1.541a.43.43,0,0,0-.466-.427l-.406.026a.454.454,0,0,0-.426.483Zm3.761.217a.467.467,0,0,0,.426-.484l-.1-1.541a.464.464,0,0,0-.483-.426l-.439.028a.465.465,0,0,0-.425.483l.1,1.542a.467.467,0,0,0,.483.426Z" fill="#674646"/>
      <path id="パス_14962" data-name="パス 14962" d="M4122.145,1498.053a.672.672,0,0,0,.206.412,11,11,0,0,1,1.84,2.294,1.7,1.7,0,0,1-.929,1.021c-.178.011-.32-.159-.639-.579-.2-.265-.48-.621-.884-1.084a.287.287,0,0,0-.235-.1.323.323,0,0,0-.249.178,13.825,13.825,0,0,1-2.063,3.18c-.106.12-.287.36-.449.37a1.794,1.794,0,0,1-1.117-.907c-.009-.129.16-.3.235-.405a13.776,13.776,0,0,0,2.192-3.448.879.879,0,0,0,.047-.3.551.551,0,0,0-.2-.362,15.153,15.153,0,0,0-2.118-1.527c-.136-.09-.273-.179-.284-.357-.014-.227.521-1.028.83-1.047a9.789,9.789,0,0,1,2.074,1.351.344.344,0,0,0,.217.068c.13-.008.188-.11.23-.227a13.4,13.4,0,0,0,.315-1.96c.024-.147.063-.3.242-.308a7.264,7.264,0,0,1,1.355.305c.166.039.379.074.39.253.009.13-.118.186-.212.241-.236.129-.241.308-.289.588-.118.709-.286,1.387-.47,2.084A.751.751,0,0,0,4122.145,1498.053Zm-.958-5.838c.02.325.159.446.483.426.537-.018,1.085-.1,1.556-.131.487-.031.486.2.524.8.04.633.051.812-.436.843-.52.033-1.041.033-1.544.065l-2.45.156c-.52.033-1.037.1-1.557.132-.487.031-.485-.2-.522-.781s-.069-.827.418-.858c.47-.03.929-.01,1.4-.057.324-.021.446-.159.425-.483l-.049-.779a10.093,10.093,0,0,0-.142-1.213c0-.049-.026-.129-.029-.178-.012-.194.116-.235.279-.246.227-.014,1.255.018,1.517.034.131.008.359.01.371.189.007.113-.056.15-.179.255-.155.14-.153.417-.119.953Zm5.049,7.371c-.212.014-.306-.176-.381-.35a22.7,22.7,0,0,0-1.382-2.748.78.78,0,0,1-.133-.318c-.018-.275.884-.691,1.128-.707.179-.011.25.1.34.222.254.409.459.819.682,1.245a11.705,11.705,0,0,1,.821,1.886C4127.34,1499.271,4126.366,1499.578,4126.236,1499.586Zm3.513-7.525c.02.309.14.415.45.412.292-.019.712-.078.988-.1.421-.027.4.17.442.8.038.584.084.809-.322.835-.259.017-.7.012-1.008.032-.308.036-.412.173-.394.465l.39,6.12c.025.389.066.793.091,1.183a1.458,1.458,0,0,1-.39,1.28,4.776,4.776,0,0,1-2.309.6c-.373.023-.714.045-.879-.238a2.837,2.837,0,0,1-.24-.962c-.016-.244,0-.441.3-.459.146-.01.506.016.863-.007.975-.062.921-.384.862-1.31l-.388-6.1c-.02-.309-.159-.447-.484-.426l-1.33.085c-.553.035-1.15.122-1.589.15-.4.026-.4-.2-.441-.8s-.069-.81.337-.836c.52-.033,1.059-.019,1.6-.053l1.33-.085c.325-.02.445-.175.426-.483l-.092-1.445a10.47,10.47,0,0,0-.145-1.246c0-.048-.024-.112-.027-.16-.012-.2.116-.236.279-.246.21-.014,1.125.009,1.37.026.229.018.5,0,.517.195.008.114-.055.15-.179.256-.154.14-.148.482-.116.985Z" fill="#674646"/>
      <path id="パス_14963" data-name="パス 14963" d="M4144.515,1490.8c-.021-.325-.175-.445-.484-.425l-7.206.459c-.681.043-1.362.118-2.044.162-.421.027-.418-.169-.458-.8-.041-.649-.071-.859.351-.886.681-.043,1.367-.038,2.049-.082l9.381-.6c.681-.043,1.361-.135,2.042-.179.422-.027.434.168.477.833s.037.829-.353.854c-.552.035-1.089.053-1.625.071-.307.052-.4.172-.377.481l.554,8.7c.024.374.064.762.088,1.135a1.6,1.6,0,0,1-.522,1.516,5.946,5.946,0,0,1-2.534.651c-.26.017-.649.041-.826-.176a2.282,2.282,0,0,1-.325-1.006c-.017-.26,0-.521.324-.542.227-.014.573.029,1.01,0,1.2-.077,1.1-.4,1.035-1.419Zm-3.921,7.779-1.786.114c-.308.019-.429.158-.41.465.012.179.039.356.051.552.023.357-.171.369-.821.411-.616.039-.828.053-.85-.3-.028-.438-.022-.862-.049-1.285l-.25-3.928c-.022-.34-.06-.663-.081-1.005-.036-.551.314-.688.8-.719.358-.023.732-.03,1.089-.052l2.013-.129c.373-.023.729-.063,1.086-.086.488-.031.851.061.886.612.022.342.027.667.048,1.007l.219,3.441c.027.423.087.842.114,1.264.024.374-.172.387-.8.427-.567.036-.842.069-.865-.288,0-.048.01-.1.007-.147C4140.958,1498.664,4140.854,1498.558,4140.594,1498.574Zm-.145-1.507a.43.43,0,0,0,.409-.482l-.123-1.932a.4.4,0,0,0-.466-.41l-1.737.111c-.292.019-.411.189-.427.467l.123,1.931a.455.455,0,0,0,.484.426Z" fill="#674646"/>
      <path id="パス_14964" data-name="パス 14964" d="M4159.233,1495.676a.117.117,0,0,0-.094.054.337.337,0,0,1-.256.082c-.112.024-.233.162-.386.334l-.091.1a.183.183,0,0,0-.04.133c.007.115.107.157.2.151l2.337-.149c.422-.027.843-.07,1.249-.1a.822.822,0,0,1,.9.643c.037.585-1.543,1.875-1.994,2.213a.206.206,0,0,0-.087.185.161.161,0,0,0,.157.153,21.894,21.894,0,0,0,4.729.3c.211-.014.361.042.376.286.014.21-.154,1.166-.688,1.2-.406.026-1.518-.017-1.976-.053a13.784,13.784,0,0,1-4.006-.722,1.143,1.143,0,0,0-.412-.072.944.944,0,0,0-.352.1,17.336,17.336,0,0,1-4.617,1.468,7.823,7.823,0,0,1-.871.121c-.633.04-.892-.937-.9-1.035-.016-.244.245-.243.713-.306a17,17,0,0,0,4.175-1c.094-.055.172-.11.165-.223a.245.245,0,0,0-.127-.187c-.325-.24-.581-.436-.875-.694a.54.54,0,0,0-.368-.156.627.627,0,0,0-.286.116,10.874,10.874,0,0,1-2.151,1.294,1.563,1.563,0,0,1-1.033-.879c-.012-.2.209-.307.509-.456a12.145,12.145,0,0,0,3.309-2.542.179.179,0,0,0,.056-.15.3.3,0,0,0-.177-.217.772.772,0,0,1-.351-.646c-.014-.21-.01-.423-.023-.617l-.035-.553c0-.048-.037-.062-.085-.059a.9.9,0,0,1-.144.042c-.128.04-.125.088-.414.678a10.174,10.174,0,0,1-.827,1.339.4.4,0,0,1-.295.216c-.26.016-1.038-.408-1.057-.715a.525.525,0,0,1,.175-.338,6.389,6.389,0,0,0,1.042-1.794c.043-.084.088-.152.185-.158a5.447,5.447,0,0,1,1.066.355.308.308,0,0,0,.115.01c.146-.009.188-.11.18-.239-.005-.082-.054-.324-.058-.388-.009-.146.088-.169.218-.178.211-.013,1.025-.015,1.271,0,.162-.01.438-.028.45.168,0,.08-.056.133-.118.187-.17.157-.215.209-.186.663l.031.487c.03.47.288.421.742.392l1.818-.116c.7-.044.757-.145.907-.872.022-.148.065-.233.228-.243.211-.013,1.051.129,1.075.5a3.642,3.642,0,0,1-.269,1.158c-.242.554-.826.591-1.361.625Zm-4.807-4.6c.13-.009.256-.066.246-.228a.224.224,0,0,0-.058-.143c-.284-.356-.589-.81-1.076-.779l-.2.012c-.292.019-.454.029-.58-.158a2.194,2.194,0,0,1-.317-.877c-.021-.34.305-.329.548-.344l.893-.057a34.263,34.263,0,0,0,8.782-1.569,1.164,1.164,0,0,1,.24-.065c.163-.01.32.159.631.432l.19.168c.139.121.515.423.527.6a.16.16,0,0,1-.152.173.662.662,0,0,1-.2-.021.85.85,0,0,0-.281-.046,7.381,7.381,0,0,0-.911.269c-.064.021-.111.057-.107.121a.13.13,0,0,0,.089.125c.1.042.183.053.251.082.448.134.547.144.555.274.007.113-.073.135-.169.157-.161.043-.208.062-.267.181-.129.268-.228.5-.373.789a.315.315,0,0,0-.038.165c.01.163.143.2.289.194.586-.021,1.168-.091,1.752-.129.439-.028.867.044.9.579.015.244,0,.506.015.749l.033.519c.014.228.061.453.076.68.026.406-.236.39-.836.428-.569.036-.891.09-.916-.3-.015-.227.018-.474,0-.7l-.007-.113c-.02-.308-.158-.43-.483-.41l-3.619.231c-.13.008-.24.064-.231.211a.4.4,0,0,0,.058.143,3.229,3.229,0,0,1,.6.907c.02.308-.657.693-.917.71a.324.324,0,0,1-.3-.16,8.83,8.83,0,0,0-.694-.917.368.368,0,0,1-.112-.221c-.01-.163.175-.321.284-.41a.114.114,0,0,0,.042-.1c0-.064-.053-.078-.119-.074l-4.4.28c-.325.021-.446.159-.427.467l.008.114c.014.228.061.469.075.68.026.406-.268.392-.853.429-.6.038-.874.089-.9-.317-.013-.2.018-.475,0-.686l-.033-.519c-.016-.243-.065-.5-.081-.745-.036-.567.414-.662.869-.691.552-.035,1.088-.052,1.64-.087Zm3.409-.217c.146-.01.272-.067.262-.229a.273.273,0,0,0-.059-.159c-.178-.234-.356-.483-.567-.714a.407.407,0,0,0-.338-.191l-.97.111c-.128.041-.223.08-.214.226a.283.283,0,0,0,.075.158c.088.108.387.448.4.578,0,.048-.012.065-.007.131.009.146.124.171.238.164Zm1.32,7.934a.7.7,0,0,0,.351-.121c.2-.143,1.076-.769,1.061-1-.011-.179-.222-.15-.709-.119l-2,.128c-.1.006-.192.045-.184.175,0,.048.037.079.073.126a9.155,9.155,0,0,0,1.039.715A.708.708,0,0,0,4159.155,1498.794Zm2.054-9.958c-.593.151-1.189.255-1.785.374-.129.024-.222.1-.214.225a.34.34,0,0,0,.077.174,2.848,2.848,0,0,1,.538.781c0,.017-.011.082-.008.131.01.146.11.188.241.2l.227-.015a.63.63,0,0,0,.644-.383,11.064,11.064,0,0,0,.545-1.176.284.284,0,0,0,.009-.114.2.2,0,0,0-.225-.2Zm2.652,6.578c-.179.011-.25-.082-.34-.224a14.056,14.056,0,0,0-1.305-1.806.567.567,0,0,1-.164-.284c-.02-.308.573-.7.866-.723s.667.495,1.093,1.039a5.687,5.687,0,0,1,.781,1.254C4164.814,1495.026,4164.153,1495.4,4163.861,1495.414Z" fill="#674646"/>
      <path id="パス_14965" data-name="パス 14965" d="M4179.025,1488.369c.011.162-.218.161-.332.168a.725.725,0,0,0-.425.222c-.387.319-.773.652-1.158,1-.863.8-1.74,1.61-2.532,2.475-.29.311-.626.658-.606.967.026.406.6.956.892,1.231.989.93,2.053,1.776,3.117,2.6.291.227,1.468,1.064,1.489,1.388.024.39-.906,1.378-1.3,1.4-.178.011-.424-.266-.53-.39-.663-.691-1.388-1.329-2.1-1.969-.932-.82-1.881-1.64-2.737-2.53a2.474,2.474,0,0,1-.888-1.671,1.845,1.845,0,0,1,.286-1.143,15.7,15.7,0,0,1,1.973-2.032,22.23,22.23,0,0,0,2.852-3.067c.06-.086.134-.2.231-.21.211-.013.717.508.907.675C4178.326,1487.631,4179.014,1488.191,4179.025,1488.369Z" fill="#674646"/>
      <path id="パス_14966" data-name="パス 14966" d="M4192.86,1485.761c.082.027.264.064.271.178s-.1.186-.24.308a2.827,2.827,0,0,0-.238.879,5.087,5.087,0,0,0-.132.743.189.189,0,0,0,.192.2,8.038,8.038,0,0,0,.91-.3.54.54,0,0,1,.159-.043c.195-.013.23.279.276.471a8.017,8.017,0,0,1,.135.855c.022.357-.17.4-1.646.773-.578.135-.555.247-.715.795a41.366,41.366,0,0,1-2.278,5.947c-.087.169-.132.236-.31.248-.357.023-1.475-.378-1.5-.72a1.784,1.784,0,0,1,.255-.6,30.227,30.227,0,0,0,1.693-3.872,6.4,6.4,0,0,0,.31-1.014.219.219,0,0,0-.241-.2c-.129.008-1.369.25-1.742.273-.276.018-.351-.124-.439-.493-.045-.193-.164-.772-.174-.934-.014-.211.1-.267.276-.279l.746-.047a14.227,14.227,0,0,0,1.667-.188c.209-.045.354-.071.47-.29a9.86,9.86,0,0,0,.346-2.76c-.007-.113-.017-.276.129-.285C4191.222,1485.392,4192.6,1485.7,4192.86,1485.761Zm2.644,4.688c.182.037.334.125.346.32,0,.032,0,.522.023.862.03.471.26,2.8.363,3.139.064.24.279.292.528.373.051.013.118.042.167.055.383.123,2.355.893,2.38,1.283.017.26-.526,1.222-.931,1.248-.162.011-.317-.126-.437-.2a4.6,4.6,0,0,0-1.346-.663c-.178.011-.228.242-.235.389-.12,1.2-1.052,1.664-2.155,1.734-1.315.084-2.9-.515-3-2.025-.1-1.494,1.285-2.1,2.567-2.184l.421-.027c.2-.012.336-.1.324-.3-.033-.52-.426-2.858-.516-3.488,0-.081-.025-.145-.03-.226-.017-.26.123-.367.367-.382A6.7,6.7,0,0,1,4195.5,1490.449Zm-2.641,6.377c.032.5.7.721,1.12.694a.759.759,0,0,0,.788-.93c-.021-.324-.048-.5-.86-.45C4193.522,1496.165,4192.83,1496.307,4192.863,1496.826Zm6.7-6.652c.025.39-.853,1.179-1.146,1.2-.162.011-.287-.161-.376-.268a9.188,9.188,0,0,0-2.162-1.966c-.068-.044-.22-.132-.227-.246-.014-.228.675-1.167,1.016-1.189A8.343,8.343,0,0,1,4199.561,1490.174Z" fill="#674646"/>
      <path id="パス_14967" data-name="パス 14967" d="M4209.133,1484.61c.083.028.184.07.19.167a.361.361,0,0,1-.115.252c-.2.192-.18.239-.235.911-.015.278-.078,1.081-.064,1.308.012.179.129.22.278.26a1.162,1.162,0,0,1,.6.712c0,.064-.056.133-.086.183-.074.12-.345.708-.387.824a1.217,1.217,0,0,0-.016.262c0,.081.043.16.14.153.049,0,.094-.054.125-.088.318-.379.929-1.005,1.3-1.354a3.828,3.828,0,0,1,2.28-1.3,1.756,1.756,0,0,1,1.441.626,2.959,2.959,0,0,1,.391,1.523c.054.844.075,1.69.079,2.521.011.7.009,1.433.053,2.115.025.39.045.959.418.935.439-.028,1.092-.77,1.364-1.114a.463.463,0,0,1,.3-.2c.276-.017.824,1.17.841,1.43.014.227-.559.687-.729.828a4.218,4.218,0,0,1-2.229,1.088c-1.363.087-1.594-1.48-1.659-2.5-.093-1.46.024-2.951-.069-4.411-.022-.357-.059-.926-.546-.9a2.436,2.436,0,0,0-1.224.731,16.258,16.258,0,0,0-1.669,1.687,5.455,5.455,0,0,0-.844,1.1c-.051.215.14,2.191.163,2.564.007.1.07.582.105.858.074.663.178,1.537.19,1.716.007.113.034.274-1.167.351-.39.025-.682.043-.7-.281-.01-.147-.027-1.955-.074-2.685,0-.082-.046-.208-.159-.2s-.212.257-.359.511c-.16.3-.607,1.212-.749,1.531-.043.1-.1.2-.2.208-.276.017-1.268-.718-1.286-.993a1.726,1.726,0,0,1,.287-.605c.8-1.339,1.473-2.718,2.134-4.113a1.513,1.513,0,0,0,.146-.775c-.009-.146.014-.294.006-.424s-.08-.24-.227-.231a1.009,1.009,0,0,0-.286.1,11.279,11.279,0,0,1-1.922.791c-.259.016-.405-.218-.5-.424a4.871,4.871,0,0,1-.411-1.083c-.017-.259.325-.281.517-.326.483-.095,2.522-.584,2.692-.986a1.07,1.07,0,0,0,.05-.492c-.028-.438-.025-1.416-.071-2.131-.012-.194-.041-.388-.048-.5-.011-.178.067-.232.246-.244S4208.967,1484.572,4209.133,1484.61Z" fill="#674646"/>
      <path id="パス_14968" data-name="パス 14968" d="M4230.592,1485.33c.008.114-.165.222-.335.364a15.78,15.78,0,0,0-2.215,2.324.492.492,0,0,0-.144.286c.008.13.143.2.289.194a.989.989,0,0,0,.21-.046,3.128,3.128,0,0,1,.66-.108,4.782,4.782,0,0,1,2.027.36,3.362,3.362,0,0,1,2.133,3.026c.183,2.873-2.27,4.529-4.884,4.7-1.347.085-3.3-.345-3.4-2a2.042,2.042,0,0,1,1.952-2.1,2.65,2.65,0,0,1,2.231,1.015,1.617,1.617,0,0,1,.359,1.021c.023.112.078.206.208.2a2.642,2.642,0,0,0,1.806-2.624c-.1-1.574-1.474-2.139-2.885-2.049a4.932,4.932,0,0,0-3.534,1.822c-.594.658-1.136,1.36-1.678,2.063a.223.223,0,0,1-.171.125c-.342.022-1.227-.834-1.244-1.094-.012-.2.22-.39.358-.512a65.253,65.253,0,0,0,4.724-5.418c.122-.139.4-.449.385-.612-.009-.145-.159-.185-.289-.176-.08.005-.289.067-.385.089-.383.122-2.641.739-2.9.755-.357.023-.484-1.191-.5-1.467-.024-.373-.01-.407.477-.438l.39-.025a15.057,15.057,0,0,0,4.067-.861,2.195,2.195,0,0,1,.606-.218C4229.555,1483.881,4230.575,1485.054,4230.592,1485.33Zm-3.593,8.311a.674.674,0,0,0-.656.7c.037.584.833.81,1.32.779.309-.019.42-.32.4-.58A1,1,0,0,0,4227,1493.641Z" fill="#674646"/>
      <path id="パス_14969" data-name="パス 14969" d="M4239.432,1495.392c-.145.026-.158.076-.215.21-.042.1-.085.2-.2.208-.146.009-.206-.166-.344-.549a9.751,9.751,0,0,1-.324-.99c-.01-.161.135-.187.476-.209a6.146,6.146,0,0,0,.76-.1c.306-.053.41-.206.391-.514l-.24-3.766c-.053-.322-.157-.413-.483-.425-.357.038-.713.078-1.07.1-.34.022-.351-.157-.38-.611-.033-.505-.026-.651.3-.672.633-.04,1.269-.048,1.9-.088l9.884-.63c.618-.039,1.248-.112,1.881-.152.341-.022.351.141.381.611.029.454.041.65-.283.671-.633.04-1.268.047-1.9.088l-4.724.3c-.307.02-.446.159-.425.484l.275,4.318c.043.681.136,1.376.18,2.057.032.5-.129.531-.762.571-.584.037-.8.034-.827-.437-.02-.324-.024-.651-.029-.976-.029-.209-.137-.35-.364-.336-.032,0-.063.022-.079.023C4241.958,1494.872,4240.705,1495.149,4239.432,1495.392Zm9.6-10.03c.019.292.051.551.069.826.034.536-.4.629-.838.656-.455.029-.927.044-1.4.073l-3.928.251c-.455.029-.908.073-1.362.1-.439.028-.912.01-.947-.542-.016-.243,0-.505-.021-.83l-.129-2.013c-.019-.308-.068-.566-.084-.825-.033-.52.4-.629.838-.657.454-.029.926-.026,1.4-.056l3.928-.25c.454-.029.906-.091,1.377-.121.422-.027.9-.008.931.544.018.276.019.553.037.829Zm-7.86,4.265a.317.317,0,0,0,.327.288l1.542-.1a.32.32,0,0,0,.289-.327l-.012-.179a.3.3,0,0,0-.328-.289l-1.542.1a.3.3,0,0,0-.288.329Zm.107,1.688a.363.363,0,0,0,.413.348l1.38-.088a.361.361,0,0,0,.365-.4l0-.048a.375.375,0,0,0-.414-.365l-1.38.087a.377.377,0,0,0-.364.415Zm.476,1.338c-.276.018-.382.139-.364.415l.014.227c.014.211.1.335.33.321a12.848,12.848,0,0,0,1.547-.278c.209-.045.268-.147.27-.359-.036-.307-.174-.429-.482-.41Zm5.676-9.146a.29.29,0,0,0-.329-.287l-4.852.309a.281.281,0,0,0-.289.327l.006.1a.29.29,0,0,0,.328.288l4.853-.309a.3.3,0,0,0,.289-.327Zm-5.072,1.742a.283.283,0,0,0-.289.328l.011.162a.283.283,0,0,0,.328.289l4.853-.309a.29.29,0,0,0,.288-.328l-.01-.162a.3.3,0,0,0-.328-.289Zm6.536,9.231a.581.581,0,0,0-.316.15,7.482,7.482,0,0,1-2.2,1.559c-.373.024-.856-.647-.875-.955-.016-.243.317-.4.5-.505a7.823,7.823,0,0,0,1.5-1.073.385.385,0,0,0,.159-.319.509.509,0,0,0-.133-.286,8.052,8.052,0,0,1-1.189-1.782c-.113-.237-.235-.376-.528-.358l-.146.01c-.324.02-.322-.191-.348-.6-.032-.5-.04-.633.3-.655.568-.036,1.154-.04,1.739-.077l1.817-.116c.342-.022.68-.076,1.021-.1a.792.792,0,0,1,.768.293,1.025,1.025,0,0,1,.348.6,9.032,9.032,0,0,1-1.264,2.656.458.458,0,0,0-.081.266.345.345,0,0,0,.2.3,8.42,8.42,0,0,0,2.077.9c.149.039.3.079.309.241.021.325-.481,1.156-.821,1.177a8.077,8.077,0,0,1-2.488-1.194A.542.542,0,0,0,4248.891,1494.48Zm-.2-2.334a.323.323,0,0,0,.25-.179,4.2,4.2,0,0,0,.532-1.11c-.013-.194-.192-.2-.534-.177l-.876.056c-.146.009-.287.083-.276.261a.481.481,0,0,0,.058.143,9.789,9.789,0,0,0,.576.86A.321.321,0,0,0,4248.694,1492.146Z" fill="#674646"/>
      <path id="パス_14970" data-name="パス 14970" d="M4257.353,1488.4l.877-.056c.325-.02.647-.073.956-.092.666-.043.788.34.823.891a17.183,17.183,0,0,1-.317,4.5c-.35,1.407-1.081,1.715-2.444,1.8-.487.031-1.017.162-1.1-1.2-.016-.244,0-.506.309-.526.211-.013.62.009.879-.007.731-.047.83-.281.931-.744a13.013,13.013,0,0,0,.183-2.765c-.026-.4-.268-.358-.706-.33l-.617.039c-.211.013-.253.131-.356.3-.059.1-.137.139-.478.161-.292.018-.975.062-1-.344-.006-.1.052-1,.056-1.176.023-.409.1-3.511.13-3.595.089-.4.412-.434.818-.459.309-.02.634-.024.943-.043l.519-.033c.324-.021.446-.159.425-.484l-.06-.941c-.019-.309-.158-.431-.482-.41l-1.266.081c-.357.022-.712.078-.988.1-.389.025-.4-.138-.44-.771s-.049-.778.34-.8c.26-.017.6-.023.991-.047l1.542-.1c.308-.019.616-.055.924-.074.455-.029.8.03.833.549.029.455.042.91.07,1.349l.1,1.623c.027.438.088.875.117,1.329.025.389-.22.389-.772.424l-.178.011a.842.842,0,0,1-.559-.079c-.1-.107-.211-.246-.375-.253l-.552.035c-.471.03-.47.047-.485,1.074-.006.18-.024.393-.024.654C4256.908,1488.3,4257.062,1488.419,4257.353,1488.4Zm8.276-3.639a.509.509,0,0,0-.209.045.035.035,0,0,0,.034.031c.115.009.375-.008.386.171.007.114-.1.185-.227.275-.187.142-.178.288-.133.726.021.324.158.43.467.41l.616-.039c.471-.03.843-.071,1.152-.09.7-.045.962.02.993.507.019.292.022.586.04.877l.1,1.608c.018.291.052.566.07.859.033.519-.288.589-.727.617s-.909.041-1.348.069l-.616.039c-.309.02-.447.159-.427.484l.057.893c.02.308.158.43.466.393l.63-.089c.128-.04.222-.095.212-.241a.359.359,0,0,0-.041-.128,1.451,1.451,0,0,1-.219-.377c-.016-.26.91-.563,1.121-.576a.39.39,0,0,1,.354.188c.3.406.573.812.827,1.219a6.942,6.942,0,0,1,.81,1.448c.022.341-.953.647-1.116.657-.276.018-.354-.188-.6-.7a.488.488,0,0,0-.493-.31l-.129.008c-2.077.409-4.157.753-6.239,1.082-.112.023-.124.088-.167.19-.057.117-.1.234-.213.242-.194.012-.257-.212-.428-.837a7.238,7.238,0,0,1-.218-.883c-.009-.145.247-.2.831-.248.907-.074,1.8-.2,2.7-.319a.408.408,0,0,0,.393-.5l-.065-1.023c-.021-.325-.176-.445-.484-.426l-.487.031c-.52.033-.565.085-.57.265.021.324-.127.3-.76.342-.6.038-.745.079-.774-.375-.021-.325-.026-.65-.046-.974l-.137-2.143c-.018-.292-.052-.567-.07-.86-.032-.5.19-.6.9-.644.309-.02.683-.027,1.17-.058l.487-.031c.324-.02.413-.156.426-.467-.032-.242-.043-.421-.075-.664a.4.4,0,0,0-.479-.36c-.726.111-1.453.206-2.18.318-.112.024-.127.057-.185.159-.06.085-.1.185-.216.193-.13.008-.2-.134-.244-.246-.042-.143-.359-1.3-.366-1.394-.013-.211.133-.221.8-.263l.455-.029a.624.624,0,0,0,.592-.429,14.821,14.821,0,0,0,.876-2.63c.024-.116.06-.314.207-.323a11.181,11.181,0,0,1,1.255.262c.233.067.562.127.574.306.009.146-.151.189-.279.23s-.193.044-.25.162c-.255.619-.542,1.224-.8,1.827a.261.261,0,0,0-.04.149c.009.146.144.2.274.211.793-.083,1.585-.2,2.376-.3.129-.024.255-.1.246-.244-.008-.13-.129-.236-.2-.33a2.629,2.629,0,0,1-.465-.655c-.019-.291.842-.59,1.086-.606.177-.011.248.065.369.188.194.233.768,1.043.982,1.339a10.006,10.006,0,0,1,1.11,1.82c.023.357-.787.686-1.047.7-.292.019-.389-.22-.645-.66a.53.53,0,0,0-.606-.3Zm-2.646,3.232a.465.465,0,0,0-.426.483l.05.78a.465.465,0,0,0,.483.425l.617-.039a.465.465,0,0,0,.426-.483l-.05-.78a.466.466,0,0,0-.483-.426Zm2.675,1.069a.465.465,0,0,0,.484.425l.746-.047a.468.468,0,0,0,.426-.484l-.05-.78a.466.466,0,0,0-.483-.425l-.746.047a.467.467,0,0,0-.427.484Z" fill="#674646"/>
      <path id="パス_14971" data-name="パス 14971" d="M4277.22,1489.661c.026.406.074.664.367.645a7.024,7.024,0,0,0,1.3-.6,22.555,22.555,0,0,0,5.961-4.665c.091-.1.228-.276.373-.285.26-.017.88,1.02.9,1.344a.469.469,0,0,1-.16.3c-.335.38-.7.729-1.072,1.08a29.152,29.152,0,0,1-6.873,4.674c-.19.094-.379.188-.552.3a.979.979,0,0,1-.4.188,5.684,5.684,0,0,1-1.32-.519c-.205-.133-.23-.278-.248-.554-.035-.553-.041-1.155-.079-1.755L4275,1483.2c-.022-.356-.045-.713-.079-.988-.024-.113-.078-.452-.083-.533a.176.176,0,0,1,.166-.207c.066,0,.246.018.344.027.261.016,1.081.095,1.329.144.148.023.344.028.354.189.006.1-.071.151-.132.221a.623.623,0,0,0-.114.512c0,.244.016.5.033.764Z" fill="#674646"/>
      <path id="パス_14972" data-name="パス 14972" d="M4303.25,1483.571c.017.275-.591.95-.789,1.175a28.256,28.256,0,0,1-8.424,6.68c-.519.293-.534.311-.646.595a.165.165,0,0,1-.157.108c-.178.011-.56-.616-.686-.8a4.567,4.567,0,0,1-.549-.942c-.011-.179.279-.23.486-.308a22.264,22.264,0,0,0,9.5-7.695.4.4,0,0,1,.264-.2C4302.573,1482.163,4303.234,1483.328,4303.25,1483.571Zm-8.546-2.145c.22.133,1.034.619,1.05.862.023.374-.684,1.3-.992,1.318a1.728,1.728,0,0,1-.677-.4,20.26,20.26,0,0,0-2.255-1.372c-.135-.073-.271-.146-.28-.292-.015-.243.567-1.323.941-1.347A13.039,13.039,0,0,1,4294.7,1481.426Z" fill="#674646"/>
      <path id="パス_14973" data-name="パス 14973" d="M4315.412,1479.8c.276-.018.925-.059,1.167-.108a2.66,2.66,0,0,1,.355-.054c.34-.022,1.094.81,1.108,1.021.008.13-.173.37-.23.487-.207.339-.437.827-.625,1.2a24.347,24.347,0,0,1-1.609,2.628.47.47,0,0,0-.125.335.426.426,0,0,0,.267.357,24.6,24.6,0,0,1,2.876,1.919c.429.332.842.664,1.238,1.013a.37.37,0,0,1,.146.236,2.27,2.27,0,0,1-1.167,1.394.535.535,0,0,1-.406-.235A18.357,18.357,0,0,0,4314.6,1487a.631.631,0,0,0-.367-.123c-.244.015-.424.255-.576.427a16.922,16.922,0,0,1-3.863,3.049,2.545,2.545,0,0,1-.618.284c-.324.02-1.14-1-1.158-1.3-.014-.211.192-.3.351-.381a16.212,16.212,0,0,0,6.859-6.678,1.032,1.032,0,0,0,.181-.485c-.015-.243-.293-.258-.537-.243l-3.311.211c-.7.045-1.394.122-2.076.165-.438.028-.424-.267-.464-.9-.038-.583-.089-.874.317-.9.7-.045,1.416-.042,2.113-.086Zm4.317-.275c.015.244-.52.783-.731.8-.1.007-.2-.134-.378-.3-.349-.369-.73-.719-1.11-1.053-.069-.062-.154-.121-.161-.218-.011-.179.558-.7.754-.717A6.231,6.231,0,0,1,4319.729,1479.523Zm1.537-1.206c.014.227-.5.765-.732.78-.082.005-.169-.087-.222-.149-.385-.415-.818-.812-1.249-1.192-.069-.06-.156-.137-.161-.218-.012-.194.557-.72.736-.731A6.06,6.06,0,0,1,4321.266,1478.317Z" fill="#674646"/>
      <path id="パス_14974" data-name="パス 14974" d="M4332.542,1488.517a1.2,1.2,0,0,1-1.187,1.331,1.056,1.056,0,0,1-1.188-1,1.218,1.218,0,0,1,1.168-1.378A1.089,1.089,0,0,1,4332.542,1488.517Zm-1.612-2.292c-.406.026-.493-.05-.535-.455l-.375-4.1c-.094-.973-.347-3.14-.367-3.465-.018-.275.075-.346.433-.369l1.136-.072c.357-.023.458.035.476.311.02.325.046,2.507.081,3.58l.158,4.016c.01.406-.066.493-.472.519Z" fill="#674646"/>
      <path id="パス_14975" data-name="パス 14975" d="M4126.134,1515.667a.3.3,0,0,1-.13.254,1.058,1.058,0,0,0-.3.686c-.027.1-.037.2-.077.332a1.8,1.8,0,0,0-.071.412.248.248,0,0,0,.291.225,17.412,17.412,0,0,0,3.087-.913,1.34,1.34,0,0,1,.431-.141c.211-.014.258.211.338.434a5.258,5.258,0,0,1,.21,1c.016.26-.159.32-.56.427-.866.218-2.763.632-3.666.787-.531.1-.54.214-.686.99-.034.23-.1.527-.171.89a.921.921,0,0,0-.03.3c.006.1.058.143.171.135a.34.34,0,0,0,.174-.076,5.237,5.237,0,0,1,2.785-1.057,3.15,3.15,0,0,1,3.509,3.149c.13,2.046-1.186,3.384-3.037,4.007a14.859,14.859,0,0,1-3.364.67c-.535.035-.621-.041-.741-.376a5.037,5.037,0,0,1-.278-1.058.324.324,0,0,1,.318-.362c.212-.013.706.069,1.322.03,1.689-.108,4.238-.758,4.1-2.9a1.586,1.586,0,0,0-1.715-1.585,5.353,5.353,0,0,0-3.8,2.279c-.1.153-.236.374-.431.386-.373.024-1.327-.371-1.356-.827a2.318,2.318,0,0,1,.182-.728,16.434,16.434,0,0,0,.72-2.751,1.757,1.757,0,0,0,.056-.411.235.235,0,0,0-.276-.227c-.1.007-.242.032-.339.038-.372.039-1.629.267-1.954.288a.384.384,0,0,1-.443-.3,4.907,4.907,0,0,1-.246-1.059c-.027-.423.234-.422.315-.428.227-.014,1.189-.011,1.838-.052,1.153-.073,1.328-.133,1.452-.483a15.8,15.8,0,0,0,.21-2.083c.018-.229-.021-.586.239-.6C4124.377,1514.948,4126.111,1515.31,4126.134,1515.667Z" fill="#674646"/>
      <path id="パス_14976" data-name="パス 14976" d="M4143.823,1516.774c.131.024.265.081.275.243a.282.282,0,0,1-.083.217c-.137.155-.215.209-.13,1.541.019.308.159.446.386.431a11.286,11.286,0,0,0,1.771-.586.915.915,0,0,1,.287-.1c.357-.022.683,1,.692,1.129.013.211-.194.29-.353.349a11.51,11.51,0,0,1-2.033.586c-.256.065-.6.1-.569.524.015.227.147,1.54.177,1.766.051.274.221.377.484.426.5.1,3.213.8,3.245,1.308.017.276-.4,1.1-.711,1.121a.694.694,0,0,1-.3-.111,8.2,8.2,0,0,0-2.174-.889c-.309.02-.29.313-.308.542-.051,1.257-1.178,1.721-2.282,1.791-1.152.073-2.613-.339-2.7-1.719-.078-1.233.969-1.935,2.047-2.15a5.378,5.378,0,0,1,.89-.106c.211-.013.384-.122.368-.366-.008-.13-.16-1.489-.179-1.781-.1-1.053-.242-2.788-.419-3.755,0-.064-.046-.208-.05-.273-.011-.179.115-.252.277-.262C4142.608,1516.64,4143.608,1516.738,4143.823,1516.774Zm-2.95,8.451c.033.5.8.535,1.174.512.6-.039,1.078-.217,1.033-.914-.03-.47-.224-.458-.663-.43S4140.834,1524.607,4140.873,1525.225Z" fill="#674646"/>
      <path id="パス_14977" data-name="パス 14977" d="M4155.6,1519.054a12.334,12.334,0,0,0,1.462-.581,14.891,14.891,0,0,1,4.6-1.466,3.144,3.144,0,0,1,3.578,2.966c.129,2.013-1.269,3.34-2.927,4.179a9.278,9.278,0,0,1-2.456.841c-.536.034-.833-1.055-.842-1.185-.017-.276.289-.328.5-.358a7.311,7.311,0,0,0,2.724-.988,2.783,2.783,0,0,0,1.443-2.423,1.655,1.655,0,0,0-1.922-1.523,12.423,12.423,0,0,0-4.96,1.961.855.855,0,0,1-.444.192c-.423.027-1.069-.91-1.091-1.25C4155.255,1519.207,4155.428,1519.114,4155.6,1519.054Z" fill="#674646"/>
      <path id="パス_14978" data-name="パス 14978" d="M4177.516,1513.553c.01.162-.312.459-.435.581a10.629,10.629,0,0,0-1.909,2.779,7.48,7.48,0,0,0-.956,3.939c.092,1.444.841,2.456,2.383,2.357a3.426,3.426,0,0,0,2.638-1.568A7.98,7.98,0,0,0,4180,1517a10.573,10.573,0,0,0-.977-4.077,1.019,1.019,0,0,1-.062-.208c-.023-.358,1.148-.643,1.457-.663.405-.026.4.2.489.523a10.992,10.992,0,0,0,2.687,4.57c.106.124.3.308.308.487.023.357-1.032.945-1.243.959-.292.018-.625-.612-.738-.85-.057-.127-.349-.629-.448-.623s-.1.153-.1.235c.015.243.048.5.063.745a9.027,9.027,0,0,1-.506,3.813,4.849,4.849,0,0,1-4.181,2.939,3.736,3.736,0,0,1-4.166-3.744,8.82,8.82,0,0,1,1.155-4.653.489.489,0,0,0,.068-.215.1.1,0,0,0-.121-.09,2.976,2.976,0,0,0-.506.227,3.628,3.628,0,0,1-.747.309c-.178.011-.273-.2-.348-.337a3.873,3.873,0,0,1-.52-1.271c-.014-.211.147-.237.486-.292a9.323,9.323,0,0,0,2.5-.664,2.287,2.287,0,0,0,1.13-1.212c.086-.169.185-.4.4-.417C4176.485,1512.461,4177.493,1513.2,4177.516,1513.553Zm7.691-1.044a1.61,1.61,0,1,1-1.71-1.521A1.614,1.614,0,0,1,4185.207,1512.509Zm-2.467.157a.857.857,0,0,0,.915.806.871.871,0,1,0-.11-1.738A.861.861,0,0,0,4182.74,1512.666Z" fill="#674646"/>
      <path id="パス_14979" data-name="パス 14979" d="M4193.027,1512.222c.007.1-.1.186-.181.224a.731.731,0,0,0-.287.344,6.513,6.513,0,0,0-.384,1.393,8.518,8.518,0,0,0-.095,1.832c.008.129.036.829.214.818.13-.009.211-.275.266-.441.07-.184.317-.9.513-.913.145-.009.651.252.665.463,0,.048-.2.632-.326,1.032l-.121.4a6.4,6.4,0,0,0-.408,2.047c.015.227.059.4.066.517.029.454-.82.7-1.127.724-.358.023-.49-.263-.607-.565a13.467,13.467,0,0,1-.777-3.747,15.319,15.319,0,0,1,.161-3.351c.073-.412.161-.81.2-1.22.008-.114.038-.409.184-.419.049,0,.782.244.9.286C4192.25,1511.783,4193.016,1512.044,4193.027,1512.222Zm5.04-1.738c.308-.02.353.173.434.413a21.49,21.49,0,0,1,.8,4.642c.179,2.807-.14,5.223-2.053,7.431-.243.277-.866.968-1.241.992-.258.016-1.251-.718-1.272-1.06-.009-.13.131-.236.225-.291a6.169,6.169,0,0,0,2.046-2.673,9.6,9.6,0,0,0,.487-4.138,15.779,15.779,0,0,0-.857-4.492.977.977,0,0,1-.046-.209C4196.567,1510.743,4197.888,1510.495,4198.067,1510.484Z" fill="#674646"/>
      <path id="パス_14980" data-name="パス 14980" d="M4213.712,1511.492c.324-.021.446-.159.425-.483l-.045-.715a9.932,9.932,0,0,0-.127-1.214.668.668,0,0,1-.027-.178c-.012-.194.133-.219.278-.229.293-.018,1.3-.018,1.614-.005.131.008.279.031.288.177.007.114-.072.151-.2.258-.186.141-.185.4-.148.986l.053.828c.019.308.173.429.482.409l.7-.044c.584-.037,1.182-.108,1.718-.142.341-.022.356.2.392.774.038.6.035.8-.291.817-.486.031-1.154.041-1.722.077l-.7.044c-.324.021-.446.159-.425.484l.43,6.752c.054.844.155,1.669.209,2.512.034.536-.161.564-.858.609s-.894.041-.927-.478l-.008-.114c-.019-.309-.155-.4-.465-.411l-3.588.229c-.308.019-.43.158-.41.466.021.586-.074.624-.837.673-.682.043-.894.04-.926-.463-.055-.86-.06-1.708-.114-2.551l-.428-6.72c-.02-.324-.174-.445-.483-.425l-.633.04c-.567.036-1.183.108-1.718.142-.341.022-.355-.205-.391-.774-.037-.584-.051-.8.289-.817.488-.031,1.155-.041,1.723-.077l.633-.04c.308-.02.446-.159.425-.484l-.047-.746a10.606,10.606,0,0,0-.143-1.23.548.548,0,0,1-.026-.16c-.013-.2.132-.221.278-.23.341-.022,1.107-.006,1.465-.012.164.005.424-.011.436.183.008.114-.072.152-.2.258-.186.142-.184.452-.15.987l.055.86c.052.306.175.429.482.409Zm-3.851,4.287a.466.466,0,0,0,.484.425l3.652-.233a.463.463,0,0,0,.425-.483l-.13-2.045a.454.454,0,0,0-.483-.425l-3.652.232a.456.456,0,0,0-.426.484Zm.3,4.723c.02.309.174.413.484.426l3.652-.233c.322-.053.445-.175.425-.483l-.146-2.289c-.02-.325-.159-.446-.483-.426l-3.652.233c-.308.02-.446.159-.426.483Z" fill="#674646"/>
      <path id="パス_14981" data-name="パス 14981" d="M4232.014,1518.132c-.016.262-.062.819-.047,1.063a.469.469,0,0,0,.57.5,5.367,5.367,0,0,0,2.34-1.127,1.311,1.311,0,0,1,.441-.241c.227-.014.265.831.276,1.01.019.292.068.81-.213.991a8.048,8.048,0,0,1-2.951,1.019,1.872,1.872,0,0,1-2.115-1.739,8.534,8.534,0,0,1,.064-1.292,7.258,7.258,0,0,0,.032-1.029c-.024-.373-.183-.574-.572-.549a2.61,2.61,0,0,0-1.4.773,35.223,35.223,0,0,0-2.85,3.881c-.09.12-.265.441-.427.451-.341.022-1.35-.729-1.374-1.1-.012-.194.232-.438.354-.576,1.734-1.952,3.278-4.055,4.893-6.1.135-.172.546-.639.536-.8a.134.134,0,0,0-.156-.12,9.7,9.7,0,0,0-.973.323c-.367.121-2.234.745-2.51.762-.227.015-.3-.111-.462-.345a1.159,1.159,0,0,0-.126-.188,2.479,2.479,0,0,1-.432-.885c-.013-.212.148-.254.325-.282a34.328,34.328,0,0,0,5.785-1.542,1.444,1.444,0,0,1,.448-.142c.388-.025,1.208,1.064,1.223,1.307.012.178-.191.322-.331.428a20.606,20.606,0,0,0-2.117,2.336c-.076.086-.2.225-.19.338a.163.163,0,0,0,.173.152c.114-.007.21-.03.323-.037a1.444,1.444,0,0,1,1.515,1.533A7.749,7.749,0,0,1,4232.014,1518.132Zm-1.948-9.083c.166.038.316.094.328.289,0,.081-.139,1.394-.512,1.418-.114.007-1.044-.26-1.757-.459-.316-.093-.6-.174-.714-.2-.579-.142-.94-.185-.957-.444a4.378,4.378,0,0,1,.191-.844c.134-.449.195-.517.373-.528C4227.148,1508.273,4229.7,1508.958,4230.066,1509.049Z" fill="#674646"/>
      <path id="パス_14982" data-name="パス 14982" d="M4246.272,1507.1c.149.039.611.125.622.3.006.081-.089.136-.135.171-.235.163-.247.228-.338.593-.037.181-.3,1.388-.3,1.469a.239.239,0,0,0,.259.228,11.5,11.5,0,0,0,1.845-.721.9.9,0,0,1,.335-.1c.325-.02.388.97.4,1.213.017.277,0,.506-.272.6a24.106,24.106,0,0,1-2.621.8c-.465.129-.509.212-.626.676a50.626,50.626,0,0,1-2.563,7.351c-.186.4-.3.638-.545.654s-1.412-.432-1.435-.789a1.227,1.227,0,0,1,.242-.554,32.072,32.072,0,0,0,2.489-6.188,2.473,2.473,0,0,0,.1-.43c-.011-.163-.146-.235-.308-.225-.227.015-.936.141-1.439.173-.325.02-.583.054-.7-.249a6.972,6.972,0,0,1-.206-1.176c-.011-.178.03-.3.225-.308.147-.009.832.013,1.53-.032,1.039-.066,1.281-.1,1.412-.351a14.85,14.85,0,0,0,.412-2.993c0-.244-.01-.405.153-.416C4244.965,1506.8,4246.057,1507.053,4246.272,1507.1Zm.44,10.484a3.934,3.934,0,0,0,3,.754,7.336,7.336,0,0,0,2.284-.471.545.545,0,0,1,.159-.043c.276-.017.3.356.341,1.006.021.324.062.7-.127.821a15.489,15.489,0,0,1-2.518.373,6.9,6.9,0,0,1-3.52-.509c-.27-.162-.832-.534-.854-.874-.015-.244.67-1.249.93-1.266C4246.519,1517.372,4246.641,1517.511,4246.712,1517.588Zm1.645-5.369a11.7,11.7,0,0,1,3.293.247.305.305,0,0,1,.247.31,4.09,4.09,0,0,1-.236,1.156c-.056.151-.116.219-.279.23a.891.891,0,0,1-.346-.06,7.311,7.311,0,0,0-2.606-.242c-.211.014-.405.043-.616.057-.324.02-.411-.056-.429-.332C4247.3,1512.189,4247.594,1512.268,4248.357,1512.219Z" fill="#674646"/>
      <path id="パス_14983" data-name="パス 14983" d="M4259.907,1509.039c.131.025.36.042.371.205.006.1-.057.134-.149.221a1.185,1.185,0,0,0-.243.8,12.2,12.2,0,0,0-.019,1.728,9.3,9.3,0,0,0,.735,3.36c.223.442.82,1.365,1.388,1.329.455-.029.88-.773,1.052-1.142.087-.169.2-.42.412-.434.341-.022,1.211.59,1.23.883.019.309-.657,1.2-.868,1.473a2.339,2.339,0,0,1-1.672,1.134c-1.2.076-2.211-.951-2.81-1.907a11.738,11.738,0,0,1-1.279-5.232c-.016-.26-.1-2.324-.075-2.472a.2.2,0,0,1,.215-.193C4258.407,1508.776,4259.627,1509.008,4259.907,1509.039Zm6.585-.745a5.275,5.275,0,0,1,2.659,2.356,8.865,8.865,0,0,1,1.173,3.315c.02.309-.137.4-.408.5a3.468,3.468,0,0,1-.9.2c-.52.033-.519-.195-.575-.583a6.24,6.24,0,0,0-2.7-4.472.27.27,0,0,1-.161-.235A1.573,1.573,0,0,1,4266.492,1508.294Z" fill="#674646"/>
      <path id="パス_14984" data-name="パス 14984" d="M4283.828,1517.457l-4.95.315c-.259.016-.366.138-.35.4l.01.163c.029.454-.132.464-.9.513-.7.044-.926.059-.954-.38-.043-.681-.037-1.366-.079-2.032l-.52-8.163c-.033-.52-.1-1.021-.131-1.54-.042-.65.206-.861.839-.9.47-.03.943-.027,1.43-.058l4.739-.3c.472-.03.94-.093,1.41-.123.617-.039.9.105.946.771.033.52.033,1.04.066,1.56l.518,8.132c.043.682.135,1.344.179,2.026.029.454-.168.45-.9.5s-.925.059-.952-.378a.433.433,0,0,1,.006-.148A.34.34,0,0,0,4283.828,1517.457Zm-.472-6.913a.466.466,0,0,0,.426-.483l-.166-2.6a.466.466,0,0,0-.483-.427l-4.886.311a.468.468,0,0,0-.426.485l.166,2.6a.466.466,0,0,0,.483.426Zm-5.031,5.194a.466.466,0,0,0,.483.426l4.886-.312a.466.466,0,0,0,.426-.483l-.182-2.857a.467.467,0,0,0-.484-.426l-4.886.311a.466.466,0,0,0-.425.484Z" fill="#674646"/>
      <path id="パス_14985" data-name="パス 14985" d="M4295.259,1505.517c.133.04.332.092.342.255.006.1-.057.118-.213.226-.267.163-.322.313-.459.729a12.909,12.909,0,0,0-.615,4.668c.019.308.21,2.269.583,2.245.146-.01.343-.495.4-.661.085-.218.171-.4.317-.412.162-.01.606.3.617.482a12.48,12.48,0,0,0-.5,2.4c.01.161.083.531.108.677a1.453,1.453,0,0,1,.048.241c.026.406-.875.855-1.215.876-.276.018-.494-.327-.732-.752a11.209,11.209,0,0,1-1.308-4.919,19.432,19.432,0,0,1,.486-5.426,7.532,7.532,0,0,0,.159-.825c.023-.148.042-.361.22-.372C4293.625,1504.936,4295.026,1505.434,4295.259,1505.517Zm2.508,7.63a2.784,2.784,0,0,0,2.538.979,13.24,13.24,0,0,0,3.538-.747,1.177,1.177,0,0,1,.337-.086c.26-.017.317.371.369,1.2.013.2.048.487-.156.613a18.859,18.859,0,0,1-3.815.732c-2.63.168-3.8-1.126-3.82-1.386-.015-.228.479-1.417.788-1.436A.29.29,0,0,1,4297.767,1513.147Zm.132-7.13a10.446,10.446,0,0,0,2.142.108,10.669,10.669,0,0,0,2.446-.482,1.521,1.521,0,0,1,.289-.067c.228-.015.3.176.349.368a7.932,7.932,0,0,1,.121.873c.021.34.03.47-.274.556a18.942,18.942,0,0,1-2.713.4,11.236,11.236,0,0,1-2.861-.143c-.186-.1-.191-.445-.2-.623-.049-.78.016-1.028.275-1.044A2.1,2.1,0,0,1,4297.9,1506.017Z" fill="#674646"/>
      <path id="パス_14986" data-name="パス 14986" d="M4317.76,1502.339a3.605,3.605,0,0,1,3.981,3.4c.246,3.863-3.564,9.027-5.865,11.293-2.792-2.121-7.014-6.741-7.248-10.425a3.6,3.6,0,0,1,3.516-3.908,3.458,3.458,0,0,0,5.616-.358Zm-5.563.926a3.1,3.1,0,0,0-2.954,3.268c.284,4.464,6.376,9.535,6.583,9.7.168-.173,5.582-5.994,5.3-10.458a3.114,3.114,0,0,0-3.344-2.867,2.964,2.964,0,0,1-5.583.356Z" fill="#674646"/>
    </g>
    <g id="グループ_1693" data-name="グループ 1693" transform="translate(-4017.704 836.174)">
      <line id="線_325" data-name="線 325" y1="42.367" x2="15.124" transform="translate(4360.911 1471.729)" fill="none" stroke="#674646" stroke-linecap="round" stroke-linejoin="round" stroke-width="1"/>
      <line id="線_326" data-name="線 326" y1="22.344" x2="10.98" transform="translate(4367.055 1491.513)" fill="none" stroke="#674646" stroke-linecap="round" stroke-linejoin="round" stroke-width="1"/>
    </g>
    <g id="グループ_1694" data-name="グループ 1694" transform="translate(-4017.704 836.174)">
      <line id="線_327" data-name="線 327" x1="22.874" y1="38.736" transform="translate(4053.374 1496.966)" fill="none" stroke="#674646" stroke-linecap="round" stroke-linejoin="round" stroke-width="1"/>
      <line id="線_328" data-name="線 328" x1="15.013" y1="19.86" transform="translate(4055.158 1516.771)" fill="none" stroke="#674646" stroke-linecap="round" stroke-linejoin="round" stroke-width="1"/>
    </g>
  </g>
</svg>
