<svg xmlns="http://www.w3.org/2000/svg" width="59.24" height="721.211" viewBox="0 0 59.24 721.211">
  <g id="グループ_929" data-name="グループ 929" transform="translate(-1712.54 -9029.68)">
    <g id="グループ_928" data-name="グループ 928">
      <path id="パス_1600" data-name="パス 1600" d="M1731.8,797.87a11.223,11.223,0,0,1-.65-3.87,12.64,12.64,0,0,1,1.63-6.49,11.289,11.289,0,0,1,4.38-4.32,12.376,12.376,0,0,1,6.08-1.51,13.237,13.237,0,0,1,6.39,1.53,11.328,11.328,0,0,1,4.45,4.23,11.786,11.786,0,0,1,1.61,6.13,13.183,13.183,0,0,1-1.92,6.94l-3.02-1.3a9.862,9.862,0,0,0,1.86-5.55,7.989,7.989,0,0,0-1.23-4.3,9.062,9.062,0,0,0-3.34-3.16,9.3,9.3,0,0,0-4.63-1.18,10.169,10.169,0,0,0-4.68,1.08,7.922,7.922,0,0,0-3.27,3.09,9.584,9.584,0,0,0,.65,10.24l-2.89,1.36a14.174,14.174,0,0,1-1.41-2.94Z" transform="translate(-0.2 8248)" fill="#756c67"/>
      <path id="パス_1601" data-name="パス 1601" d="M1731.42,831.23v-3.22h10.53V815.42h-10.53V812.2h24.01v3.22h-10.39v12.59h10.39v3.22Z" transform="translate(-0.2 8248)" fill="#756c67"/>
      <path id="パス_1602" data-name="パス 1602" d="M1737.05,847.8a5.629,5.629,0,0,0-2.03,2.08,5.761,5.761,0,0,0-.75,2.91,6.29,6.29,0,0,0,.73,3.01,5.353,5.353,0,0,0,2.03,2.11,5.6,5.6,0,0,0,2.89.76h15.51v3.15h-15.61a8.517,8.517,0,0,1-4.53-1.2,8.182,8.182,0,0,1-3.06-3.25,9.7,9.7,0,0,1-1.08-4.58,9.582,9.582,0,0,1,1.08-4.55,8.09,8.09,0,0,1,3.06-3.24,8.646,8.646,0,0,1,4.53-1.18h15.61v3.22h-15.51A5.474,5.474,0,0,0,1737.05,847.8Z" transform="translate(-0.2 8248)" fill="#756c67"/>
      <path id="パス_1603" data-name="パス 1603" d="M1731.42,887.62l8.87-5.65a7.764,7.764,0,0,1-.03-.8v-3.55h-8.83V874.4h24.01v6.41a10.665,10.665,0,0,1-.86,4.38,6.908,6.908,0,0,1-2.54,3.02,7.223,7.223,0,0,1-4.04,1.1,8.657,8.657,0,0,1-4.08-.98,6.357,6.357,0,0,1-2.82-3.01l-9.66,6.04v-3.75Zm13.32-2.77a4.74,4.74,0,0,0,3.12,1.15,4.87,4.87,0,0,0,2.09-.48,4.1,4.1,0,0,0,1.71-1.53,4.794,4.794,0,0,0,.68-2.64v-3.72h-8.97v3.49a4.633,4.633,0,0,0,1.36,3.74Z" transform="translate(-0.2 8248)" fill="#756c67"/>
      <path id="パス_1604" data-name="パス 1604" d="M1737.05,905.98a5.629,5.629,0,0,0-2.03,2.08,5.761,5.761,0,0,0-.75,2.91,6.29,6.29,0,0,0,.73,3.01,5.353,5.353,0,0,0,2.03,2.11,5.6,5.6,0,0,0,2.89.76h15.51V920h-15.61a8.517,8.517,0,0,1-4.53-1.2,8.182,8.182,0,0,1-3.06-3.25,9.7,9.7,0,0,1-1.08-4.58,9.582,9.582,0,0,1,1.08-4.55,8.09,8.09,0,0,1,3.06-3.24,8.646,8.646,0,0,1,4.53-1.18h15.61v3.22h-15.51A5.474,5.474,0,0,0,1737.05,905.98Z" transform="translate(-0.2 8248)" fill="#756c67"/>
      <path id="パス_1605" data-name="パス 1605" d="M1755.43,953.5h-24.81v-.1l17.9-17.63-17.1.07v-3.25h24.74v.17l-18.1,17.6,17.37-.07v3.22Z" transform="translate(-0.2 8248)" fill="#756c67"/>
      <path id="パス_1606" data-name="パス 1606" d="M1731.8,997.55a11.223,11.223,0,0,1-.65-3.87,12.64,12.64,0,0,1,1.63-6.49,11.289,11.289,0,0,1,4.38-4.32,12.376,12.376,0,0,1,6.08-1.51,13.237,13.237,0,0,1,6.39,1.53,11.328,11.328,0,0,1,4.45,4.23,11.786,11.786,0,0,1,1.61,6.13,13.183,13.183,0,0,1-1.92,6.94l-3.02-1.3a9.862,9.862,0,0,0,1.86-5.55,7.989,7.989,0,0,0-1.23-4.3,9.062,9.062,0,0,0-3.34-3.16,9.3,9.3,0,0,0-4.63-1.18,10.169,10.169,0,0,0-4.68,1.08,7.922,7.922,0,0,0-3.27,3.09,9.584,9.584,0,0,0,.65,10.24l-2.89,1.36a14.174,14.174,0,0,1-1.41-2.94Z" transform="translate(-0.2 8248)" fill="#756c67"/>
      <path id="パス_1607" data-name="パス 1607" d="M1731.42,1030.91v-3.22h10.53V1015.1h-10.53v-3.22h24.01v3.22h-10.39v12.59h10.39v3.22Z" transform="translate(-0.2 8248)" fill="#756c67"/>
      <path id="パス_1608" data-name="パス 1608" d="M1749.52,1043.96a12.678,12.678,0,0,1,4.5,4.47,11.987,11.987,0,0,1,0,12.24,12.762,12.762,0,0,1-4.5,4.5,11.736,11.736,0,0,1-6.11,1.68,11.918,11.918,0,0,1-6.14-1.66,12.363,12.363,0,0,1-4.47-4.5,12.208,12.208,0,0,1,10.61-18.38,11.657,11.657,0,0,1,6.11,1.66Zm-10.69,2.86a9.053,9.053,0,0,0-3.32,3.27,8.818,8.818,0,0,0,3.3,12.25,9.525,9.525,0,0,0,9.22-.02,8.863,8.863,0,0,0,3.35-3.25,8.858,8.858,0,0,0-.02-9.04,8.963,8.963,0,0,0-3.37-3.24,9.343,9.343,0,0,0-4.62-1.18,8.946,8.946,0,0,0-4.55,1.2Z" transform="translate(-0.2 8248)" fill="#756c67"/>
      <path id="パス_1609" data-name="パス 1609" d="M1731.8,1092.93a11.224,11.224,0,0,1-.65-3.87,12.64,12.64,0,0,1,1.63-6.49,11.288,11.288,0,0,1,4.38-4.32,12.378,12.378,0,0,1,6.08-1.51,13.237,13.237,0,0,1,6.39,1.53,11.328,11.328,0,0,1,4.45,4.23,11.786,11.786,0,0,1,1.61,6.13,13.183,13.183,0,0,1-1.92,6.94l-3.02-1.3a9.862,9.862,0,0,0,1.86-5.55,7.99,7.99,0,0,0-1.23-4.3,9.063,9.063,0,0,0-3.34-3.16,9.3,9.3,0,0,0-4.63-1.18,10.169,10.169,0,0,0-4.68,1.08,7.922,7.922,0,0,0-3.27,3.09,9.584,9.584,0,0,0,.65,10.24l-2.89,1.36a14.175,14.175,0,0,1-1.41-2.94Z" transform="translate(-0.2 8248)" fill="#756c67"/>
      <path id="パス_1610" data-name="パス 1610" d="M1749.52,1107.42a12.678,12.678,0,0,1,4.5,4.47,11.987,11.987,0,0,1,0,12.24,12.762,12.762,0,0,1-4.5,4.5,11.736,11.736,0,0,1-6.11,1.68,11.918,11.918,0,0,1-6.14-1.66,12.363,12.363,0,0,1-4.47-4.5,12.208,12.208,0,0,1,10.61-18.38,11.657,11.657,0,0,1,6.11,1.66Zm-10.69,2.86a9.053,9.053,0,0,0-3.32,3.27,8.818,8.818,0,0,0,3.3,12.25,9.525,9.525,0,0,0,9.22-.02,8.863,8.863,0,0,0,3.35-3.25,8.858,8.858,0,0,0-.02-9.04,8.963,8.963,0,0,0-3.37-3.24,9.343,9.343,0,0,0-4.62-1.18,8.946,8.946,0,0,0-4.55,1.2Z" transform="translate(-0.2 8248)" fill="#756c67"/>
      <path id="パス_1611" data-name="パス 1611" d="M1755.43,1155.94h-3.09v-11.03h-7.64v9.66h-3.09v-9.66h-10.2v-3.22h24.01v14.25Z" transform="translate(-0.2 8248)" fill="#756c67"/>
      <path id="パス_1612" data-name="パス 1612" d="M1731.42,1180.45l8.87-5.65a7.765,7.765,0,0,1-.03-.8v-3.55h-8.83v-3.22h24.01v6.41a10.665,10.665,0,0,1-.86,4.38,6.907,6.907,0,0,1-2.54,3.02,7.223,7.223,0,0,1-4.04,1.1,8.656,8.656,0,0,1-4.08-.98,6.357,6.357,0,0,1-2.82-3.01l-9.66,6.04v-3.75Zm13.32-2.77a4.74,4.74,0,0,0,3.12,1.15,4.87,4.87,0,0,0,2.09-.48,4.1,4.1,0,0,0,1.71-1.53,4.793,4.793,0,0,0,.68-2.64v-3.72h-8.97v3.49a4.633,4.633,0,0,0,1.36,3.74Z" transform="translate(-0.2 8248)" fill="#756c67"/>
      <path id="パス_1613" data-name="パス 1613" d="M1737.73,1207.71v-9.23l-6.31-2.56v-3.19l25.01,10.49v.2l-25.01,10.49v-3.72l6.31-2.49Zm2.79-1.1,8.77-3.42-8.77-3.55v6.97Z" transform="translate(-0.2 8248)" fill="#756c67"/>
      <path id="パス_1614" data-name="パス 1614" d="M1753.47,1236.96a6.954,6.954,0,0,1-5.48,2.21,8.988,8.988,0,0,1-3.79-.81,6.541,6.541,0,0,1-2.86-2.62,8.594,8.594,0,0,1-1.1-4.57v-3.55h-8.83v-3.22h24.01v6.44a8.921,8.921,0,0,1-1.96,6.13Zm-9.37-2.99a4.206,4.206,0,0,0,1.78,1.54,5.031,5.031,0,0,0,2.04.47,4.662,4.662,0,0,0,3.07-1.13,4.33,4.33,0,0,0,1.34-3.52v-3.72h-8.97v3.55a4.908,4.908,0,0,0,.73,2.81Z" transform="translate(-0.2 8248)" fill="#756c67"/>
      <path id="パス_1615" data-name="パス 1615" d="M1753.47,1262.69a6.954,6.954,0,0,1-5.48,2.21,8.988,8.988,0,0,1-3.79-.81,6.541,6.541,0,0,1-2.86-2.62,8.594,8.594,0,0,1-1.1-4.57v-3.55h-8.83v-3.22h24.01v6.44a8.921,8.921,0,0,1-1.96,6.13Zm-9.37-2.99a4.206,4.206,0,0,0,1.78,1.54,5.031,5.031,0,0,0,2.04.47,4.662,4.662,0,0,0,3.07-1.13,4.33,4.33,0,0,0,1.34-3.52v-3.72h-8.97v3.55a4.908,4.908,0,0,0,.73,2.81Z" transform="translate(-0.2 8248)" fill="#756c67"/>
      <path id="パス_1616" data-name="パス 1616" d="M1755.43,1291.47h-3.09v-12.39h-7.31v11.06h-3.09v-11.06h-7.41v12.85h-3.12v-16.07h24.01v15.61Z" transform="translate(-0.2 8248)" fill="#756c67"/>
    </g>
    <circle id="楕円形_8" data-name="楕円形 8" cx="29.62" cy="29.62" r="29.62" transform="translate(1712.54 9615.641)" fill="#bf855f"/>
    <circle id="楕円形_9" data-name="楕円形 9" cx="29.62" cy="29.62" r="29.62" transform="translate(1712.54 9691.65)" fill="#4d2922"/>
  </g>
</svg>
