<svg xmlns="http://www.w3.org/2000/svg" width="1322.7" height="124.61" viewBox="0 0 1322.7 124.61">
  <g id="グループ_924" data-name="グループ 924" transform="translate(-315.41 -8536.75)">
    <path id="パス_1628" data-name="パス 1628" d="M358.19,330.98l-2,17.25a37.6,37.6,0,0,1,17.88,12.62,32.4,32.4,0,0,1,6.75,20.25,31.647,31.647,0,0,1-6,18.38,42.262,42.262,0,0,1-14.62,13l-9.25-16.25c7.38-4.12,11.12-9.25,11.12-15.38s-3-10.88-9.12-13.5c-3.5-1.62-9.25-2.75-17.38-3.5l3.75-32.88h-15.5V312.22h17.62l1.62-14.62,18.62,2.12-1.38,12.5h28.62v18.75H358.17Z" transform="translate(-0.2 8248)" fill="#fff"/>
    <path id="パス_1629" data-name="パス 1629" d="M513.81,394.61l-13.62-8.75a31.048,31.048,0,0,0,5.38-17.12,20.928,20.928,0,0,0-3.25-11.5,15.612,15.612,0,0,0-9.25-6.5c-1.38,25.38-6.88,45.5-16.5,60.62l-13.75-8.75q11.82-18.75,13.88-51a69.937,69.937,0,0,0-18.25,9.25v20.38H442.2V336.86h16.25v5a67.416,67.416,0,0,1,18.38-7.12,74.756,74.756,0,0,0-1.38-12.25l15.88-3.5a110.831,110.831,0,0,1,1.75,15.12q13.125,2.07,21,11.62a35.794,35.794,0,0,1,7.75,23,46.913,46.913,0,0,1-8,25.88Z" transform="translate(-0.2 8248)" fill="#fff"/>
    <path id="パス_1630" data-name="パス 1630" d="M626.81,400.98c-6.88,7-15.75,10.5-26.5,10.5-7.88,0-14.25-2.5-19.25-7.38s-7.5-11.25-7.5-19a20.587,20.587,0,0,1,7.62-16.25,25.016,25.016,0,0,1,17-6.38c8.25,0,15,3.5,20.12,10.5a28.776,28.776,0,0,0-8.38-18.12c-3.5-3.62-9.12-7.5-16.75-11.5l11.12-22.38H579.17V302.22h55.38l-16.88,34a53.942,53.942,0,0,1,13.88,17,44.213,44.213,0,0,1,5.62,21.12c0,10.75-3.5,19.62-10.38,26.62ZM606.43,387.1a10.857,10.857,0,0,0-3.25-4.5,7.518,7.518,0,0,0-5-2,7.3,7.3,0,0,0-3.88,1.38,3.75,3.75,0,0,0-2,3.12c0,5.12,2.62,7.62,8,7.62,7.75,0,13.12-3.25,16.12-9.88l-10,4.25Z" transform="translate(-0.2 8248)" fill="#fff"/>
    <path id="パス_1631" data-name="パス 1631" d="M749.69,408.23a43.16,43.16,0,0,1-25.62-8.25,59.814,59.814,0,0,1-17.62-20.62l-10.5,27.12-17.5-6.88,39.5-101.25,17.5,6.88-27.38,69.88,13.88-6.62q10.125,21,27.75,21c5.38,0,11.12-1.62,17.25-4.75l8.38,16.88c-8.88,4.38-17.38,6.62-25.62,6.62Z" transform="translate(-0.2 8248)" fill="#fff"/>
    <path id="パス_1632" data-name="パス 1632" d="M860.94,358.98c-3.88,18.62-12.62,35.75-26.38,51.5L820.44,398.1c10.88-12.38,18-25.5,21.38-39.12H802.7V340.23h42.12c.38-4.88.62-10.38.75-16.25l-29.25,3.88-2.5-18.62,67.62-8.88,2.5,18.5-19.62,2.62c0,6.75-.25,13-.62,18.75h28.62v18.75Z" transform="translate(-0.2 8248)" fill="#fff"/>
    <path id="パス_1633" data-name="パス 1633" d="M940.19,404.11V387.86h43v-15.5h-43V356.11h43V344.86h-43V328.61h59.25v75.5Z" transform="translate(-0.2 8248)" fill="#fff"/>
    <path id="パス_1634" data-name="パス 1634" d="M1056.06,398.36V379.61h59.38V330.86h-58.62V312.11h77.38v86.25h-78.12Z" transform="translate(-0.2 8248)" fill="#fff"/>
    <path id="パス_1635" data-name="パス 1635" d="M1259.44,317.36q-7.68,50.07-49.25,93.88l-13.62-12.88c21.88-23.12,36-47.38,42.25-73H1173.2V306.61h87.88l-1.62,10.75Z" transform="translate(-0.2 8248)" fill="#fff"/>
    <path id="パス_1636" data-name="パス 1636" d="M1380.94,348.11q-7.125,35.82-42.62,65.25l-12-14.38c16.12-13.38,27.12-27.75,33-43.38h-64.75V336.85h88.62l-2.25,11.25Zm-77-23.88v-19h72.62v19Z" transform="translate(-0.2 8248)" fill="#fff"/>
    <path id="パス_1637" data-name="パス 1637" d="M1428.19,359.86l-3.5-22.75,16.12-2.5,3.5,22.88-16.12,2.38Zm25.5-4.5-3.5-22.88,16-2.38,3.5,22.75-16,2.5Zm34.5,21a140.005,140.005,0,0,1-26.75,33.88l-11-11.88a124.13,124.13,0,0,0,23.5-29.75,110.006,110.006,0,0,0,13.25-35.5l16,2.88a123.648,123.648,0,0,1-15,40.38Z" transform="translate(-0.2 8248)" fill="#fff"/>
    <path id="パス_1638" data-name="パス 1638" d="M1625.56,388.48c-18.88-17.5-36.88-31.75-53.75-42.62l-30.12,22.38-11.25-15,40.25-29.88q31.5,18,67.62,51.38l-12.75,13.75Zm-1.88-53.5a14.348,14.348,0,0,1-10.5,4.38,14.959,14.959,0,0,1-14.76-14.76,14.332,14.332,0,0,1,4.38-10.5,13.948,13.948,0,0,1,10.38-4.25,14.517,14.517,0,0,1,14.75,14.75A14,14,0,0,1,1623.68,334.98Zm-5.38-15.5a7.243,7.243,0,1,0,2.12,5.12A7.052,7.052,0,0,0,1618.3,319.48Z" transform="translate(-0.2 8248)" fill="#fff"/>
    <path id="パス_1639" data-name="パス 1639" d="M337.88,292.08l18.62,2.12-1.38,12.5h28.62v18.75H352.99l-2,17.25a37.6,37.6,0,0,1,17.88,12.62,32.4,32.4,0,0,1,6.75,20.25,31.647,31.647,0,0,1-6,18.38,42.262,42.262,0,0,1-14.62,13l-9.25-16.25c7.38-4.12,11.12-9.25,11.12-15.38s-3-10.88-9.12-13.5c-3.5-1.62-9.25-2.75-17.38-3.5l3.75-32.88h-15.5V306.69h17.62l1.62-14.62m-2.65-3.32-.33,2.99-1.33,11.96H315.61v24.75h15.14l-3.37,29.54-.35,3.05,3.05.28c7.8.72,13.32,1.81,16.39,3.23l.04.02.04.02c4.98,2.14,7.31,5.55,7.31,10.74s-3.14,9.15-9.59,12.76l-2.64,1.48,1.5,2.63,9.25,16.25,1.46,2.57,2.59-1.43a45.289,45.289,0,0,0,15.65-13.92,34.713,34.713,0,0,0,6.53-20.08,35.461,35.461,0,0,0-7.37-22.07,40.733,40.733,0,0,0-17.01-12.79l1.42-12.26h31.08V303.72H358.45l1.01-9.17.33-2.97-2.97-.34-18.62-2.12-2.99-.34h0Z" transform="translate(-0.2 8248)" fill="#877877"/>
    <path id="パス_1640" data-name="パス 1640" d="M486.13,313.46a110.831,110.831,0,0,1,1.75,15.12q13.125,2.07,21,11.62a35.794,35.794,0,0,1,7.75,23,46.913,46.913,0,0,1-8,25.88l-13.62-8.75a31.048,31.048,0,0,0,5.38-17.12,20.928,20.928,0,0,0-3.25-11.5,15.612,15.612,0,0,0-9.25-6.5c-1.38,25.38-6.88,45.5-16.5,60.62l-13.75-8.75q11.82-18.75,13.88-51a69.937,69.937,0,0,0-18.25,9.25v20.38H437.02V331.33h16.25v5a67.416,67.416,0,0,1,18.38-7.12,74.756,74.756,0,0,0-1.38-12.25l15.88-3.5m2.39-3.6-3.03.67-15.88,3.5-2.85.63.56,2.87a75.331,75.331,0,0,1,1.21,9.34,69.59,69.59,0,0,0-12.26,4.56v-3.09H434.04v50.38h22.25V356.94a70.218,70.218,0,0,1,11.9-6.43c-1.67,18.75-6.06,33.87-13.07,44.98l-1.59,2.53,2.52,1.6,13.75,8.75,2.53,1.61,1.61-2.53c9.32-14.65,14.93-34.11,16.7-57.89a11.745,11.745,0,0,1,4,3.77,18.019,18.019,0,0,1,2.78,9.88,28.009,28.009,0,0,1-4.9,15.5l-1.63,2.53,2.53,1.62,13.62,8.75,2.51,1.61,1.63-2.5a49.811,49.811,0,0,0,8.49-27.51,38.574,38.574,0,0,0-8.41-24.88,35.383,35.383,0,0,0-20.48-12.26,115.553,115.553,0,0,0-1.66-13.15l-.56-3.06h0Z" transform="translate(-0.2 8248)" fill="#877877"/>
    <path id="パス_1641" data-name="パス 1641" d="M629.38,296.71l-16.88,34a53.942,53.942,0,0,1,13.88,17A44.213,44.213,0,0,1,632,368.83c0,10.75-3.5,19.62-10.38,26.62s-15.75,10.5-26.5,10.5c-7.88,0-14.25-2.5-19.25-7.38s-7.5-11.25-7.5-19a20.587,20.587,0,0,1,7.62-16.25,25.016,25.016,0,0,1,17-6.38c8.25,0,15,3.5,20.12,10.5a28.776,28.776,0,0,0-8.38-18.12c-3.5-3.62-9.12-7.5-16.75-11.5l11.12-22.38H573.98V296.69h55.38m-34.25,90.5c7.75,0,13.12-3.25,16.12-9.88l-10,4.25a10.857,10.857,0,0,0-3.25-4.5,7.518,7.518,0,0,0-5-2,7.3,7.3,0,0,0-3.88,1.38,3.75,3.75,0,0,0-2,3.12c0,5.12,2.62,7.62,8,7.62m39.09-93.5H570.98v24.75h23.28l-8.97,18.04-1.31,2.63,2.6,1.36c7.31,3.83,12.69,7.51,15.99,10.93a27,27,0,0,1,4.74,6.47,26.591,26.591,0,0,0-14.34-3.93A28.1,28.1,0,0,0,574,361.04a23.451,23.451,0,0,0-8.65,18.51c0,8.59,2.83,15.71,8.41,21.15,5.6,5.46,12.78,8.23,21.34,8.23,11.58,0,21.21-3.83,28.64-11.4,7.45-7.59,11.23-17.26,11.23-28.73a47.492,47.492,0,0,0-5.98-22.54,57.225,57.225,0,0,0-12.78-16.36l15.83-31.89,2.15-4.33Zm-39.09,90.5c-3.24,0-5-.74-5-4.62,0-.03.11-.28.61-.59a4.673,4.673,0,0,1,2.26-.91,4.486,4.486,0,0,1,3.06,1.29,7.85,7.85,0,0,1,2.39,3.29l.47,1.22a20.493,20.493,0,0,1-3.79.33h0Z" transform="translate(-0.2 8248)" fill="#877877"/>
    <path id="パス_1642" data-name="パス 1642" d="M712.76,292.83l17.5,6.88-27.38,69.88,13.88-6.62q10.125,21,27.75,21c5.38,0,11.12-1.62,17.25-4.75l8.38,16.88c-8.88,4.38-17.38,6.62-25.62,6.62a43.16,43.16,0,0,1-25.62-8.25,59.814,59.814,0,0,1-17.62-20.62l-10.5,27.12-17.5-6.88,39.5-101.25m-1.7-3.89-1.09,2.8L670.49,393l-1.09,2.79,2.79,1.09,17.5,6.88,2.81,1.1,1.09-2.81,8.28-21.39a60.4,60.4,0,0,0,15.3,16.25,46.417,46.417,0,0,0,27.37,8.81c8.67,0,17.49-2.27,26.95-6.93l2.7-1.33-1.34-2.69-8.38-16.88-1.35-2.72-2.7,1.38c-5.75,2.93-11.1,4.42-15.89,4.42-10.59,0-18.79-6.31-25.05-19.3l-1.3-2.69-2.7,1.29-7.02,3.35,24.6-62.8,1.09-2.79-2.79-1.1-17.5-6.88-2.8-1.1h0Z" transform="translate(-0.2 8248)" fill="#877877"/>
    <path id="パス_1643" data-name="パス 1643" d="M876.26,294.83l2.5,18.5-19.62,2.62c0,6.75-.25,13-.62,18.75h28.62v18.75H855.76c-3.88,18.62-12.62,35.75-26.38,51.5l-14.12-12.38c10.88-12.38,18-25.5,21.38-39.12H797.52V334.7h42.12c.38-4.88.62-10.38.75-16.25l-29.25,3.88-2.5-18.62,67.62-8.88m2.57-3.36-2.96.39-67.62,8.88-2.98.39.4,2.98,2.5,18.62.4,2.97,2.97-.39,25.77-3.41c-.11,3.48-.26,6.76-.46,9.81H794.52v24.75h38.19c-3.59,11.88-10.21,23.35-19.69,34.14l-1.98,2.26,2.26,1.98,14.12,12.38,2.26,1.98,1.98-2.26c13.4-15.35,22.32-32.32,26.53-50.47h31.96V331.72H861.71c.25-4.46.39-8.79.43-13.12l17.03-2.28,2.98-.4-.4-2.98-2.5-18.5-.4-2.96h0Z" transform="translate(-0.2 8248)" fill="#877877"/>
    <path id="パス_1644" data-name="パス 1644" d="M994.26,323.08v75.5H935.01V382.33h43v-15.5h-43V350.58h43V339.33h-43V323.08h59.25m3-3H932.01v22.25h43v5.25h-43v22.25h43v9.5h-43v22.25h65.25v-81.5Z" transform="translate(-0.2 8248)" fill="#877877"/>
    <path id="パス_1645" data-name="パス 1645" d="M1129.01,306.58v86.25h-78.12V374.08h59.38V325.33h-58.62V306.58h77.38m3-3h-83.38v24.75h58.62v42.75h-59.38v24.75h84.12V303.58h0Z" transform="translate(-0.2 8248)" fill="#877877"/>
    <path id="パス_1646" data-name="パス 1646" d="M1255.88,301.08l-1.62,10.75q-7.68,50.07-49.25,93.88l-13.62-12.88c21.88-23.12,36-47.38,42.25-73h-65.62V301.08h87.88m3.49-3h-94.36v24.75h64.74c-6.5,23.51-20.13,46.35-40.55,67.94l-2.06,2.18,2.18,2.06,13.62,12.88,2.18,2.06,2.06-2.17c28.01-29.52,44.84-61.65,50.04-95.48l1.63-10.76.52-3.45h0Z" transform="translate(-0.2 8248)" fill="#877877"/>
    <path id="パス_1647" data-name="パス 1647" d="M1371.38,299.71v19h-72.62v-19h72.62m6.62,31.62-2.25,11.25q-7.125,35.82-42.62,65.25l-12-14.38c16.12-13.38,27.12-27.75,33-43.38h-64.75V331.32H1378m-3.62-34.62h-78.62v25h78.62v-25Zm7.28,31.62h-95.28v24.75h63.29c-5.97,13.57-15.97,26.06-30.45,38.07l-2.32,1.92,1.93,2.31,12,14.38,1.92,2.3,2.3-1.91c24.11-20.03,38.79-42.56,43.65-66.97l2.25-11.25.72-3.59h0Z" transform="translate(-0.2 8248)" fill="#877877"/>
    <path id="パス_1648" data-name="パス 1648" d="M1461.01,324.58l3.5,22.75-16,2.5-3.5-22.88,16-2.38m21,3,16,2.88a123.648,123.648,0,0,1-15,40.38,140.005,140.005,0,0,1-26.75,33.88l-11-11.88a124.13,124.13,0,0,0,23.5-29.75,110.006,110.006,0,0,0,13.25-35.5m-46.38,1.5,3.5,22.88-16.12,2.38-3.5-22.75,16.12-2.5m27.89-7.91-2.95.44-16,2.38-2.98.44.46,2.98,3.5,22.88.46,2.98,2.97-.46,16-2.5,2.96-.46-.46-2.96-3.5-22.75-.45-2.95h0Zm16.05,2.92-.52,2.97c-2.03,11.56-6.25,22.85-12.9,34.53a121.579,121.579,0,0,1-22.94,29.04l-2.19,2.04,2.03,2.19,11,11.88,2.03,2.19,2.2-2.02a143.464,143.464,0,0,0,27.33-34.6,126.537,126.537,0,0,0,15.35-41.35l.51-2.94-2.94-.53-16-2.88-2.97-.53h0Zm-41.43,1.56-2.97.46-16.12,2.5-2.96.46.46,2.96,3.5,22.75.45,2.95,2.95-.43,16.12-2.38,2.98-.44-.46-2.98-3.5-22.88-.45-2.97h0Z" transform="translate(-0.2 8248)" fill="#877877"/>
    <path id="パス_1649" data-name="パス 1649" d="M1608.01,304.33a14.517,14.517,0,0,1,14.75,14.75,14,14,0,0,1-4.25,10.38,14.332,14.332,0,0,1-10.5,4.38,14.959,14.959,0,0,1-14.76-14.76,14.332,14.332,0,0,1,4.38-10.5,13.948,13.948,0,0,1,10.38-4.25m0,22a7.238,7.238,0,1,0-5.12-2.12,7.076,7.076,0,0,0,5.12,2.12m-42.5-8.5q31.5,18,67.62,51.38l-12.75,13.75c-18.88-17.5-36.88-31.75-53.75-42.62l-30.12,22.38-11.25-15,40.25-29.88m42.5-16.5a16.869,16.869,0,0,0-12.5,5.13,17.267,17.267,0,0,0-5.25,12.62,17.928,17.928,0,0,0,17.75,17.75,17.421,17.421,0,0,0,12.62-5.25,16.869,16.869,0,0,0,5.13-12.5,17.52,17.52,0,0,0-17.75-17.75Zm0,22a4.268,4.268,0,1,1,3-1.25,4.04,4.04,0,0,1-3,1.25Zm-42.71-9.08-1.57,1.17-40.25,29.88-2.42,1.8,1.81,2.41,11.25,15,1.79,2.39,2.4-1.78L1566.76,344c16.27,10.66,33.62,24.51,51.6,41.17l2.2,2.04,2.04-2.2,12.75-13.75,2.05-2.21-2.21-2.04c-24.25-22.36-47.18-39.78-68.17-51.77l-1.7-.97h0Z" transform="translate(-0.2 8248)" fill="#877877"/>
  </g>
</svg>
