<svg xmlns="http://www.w3.org/2000/svg" width="227.5" height="247.97" viewBox="0 0 227.5 247.97">
  <g id="グループ_925" data-name="グループ 925" transform="translate(-1597.7 -8248)">
    <path id="パス_1681" data-name="パス 1681" d="M1825.4,0V247.97l-113.75-26.1-113.75,26.1V0Z" transform="translate(-0.2 8248)" fill="#7f6760"/>
    <path id="パス_1682" data-name="パス 1682" d="M1708.98,159.26c-5.52,10.26-13.75,15.44-24.46,15.44s-18.94-5.19-24.46-15.44c-4.4-8.23-6.65-18.26-6.65-29.98s2.25-21.75,6.65-29.98c5.52-10.26,13.75-15.44,24.46-15.44s18.94,5.19,24.46,15.44c4.51,8.34,6.76,18.37,6.76,29.98S1713.49,150.92,1708.98,159.26Zm-12.4-47.9c-2.59-7.33-6.65-11.05-12.06-11.05s-9.36,3.72-11.95,11.05a56.264,56.264,0,0,0,0,35.84c2.59,7.33,6.65,11.05,11.95,11.05s9.47-3.72,12.06-11.05a56.264,56.264,0,0,0,0-35.84Z" transform="translate(-0.2 8248)" fill="#fff"/>
    <path id="パス_1683" data-name="パス 1683" d="M1747.08,173.12V108.31l-13.19,6.65-6.09-13.3c7.78-4.17,19.61-10.14,35.28-18.15v89.61h-16.01Z" transform="translate(-0.2 8248)" fill="#fff"/>
  </g>
</svg>
