<svg xmlns="http://www.w3.org/2000/svg" width="468.29" height="50.001" viewBox="0 0 468.29 50.001">
  <g id="グループ_923" data-name="グループ 923" transform="translate(-726.17 -8429.56)">
    <path id="パス_1617" data-name="パス 1617" d="M733.1,213.97c.34.06.78.22.78.62a.679.679,0,0,1-.45.62c-.45.17-.62.22-.73.73-.45,2.52-.9,4.98-1.46,7.45-.95,4.09-1.18,5.21-2.24,5.21-.67,0-2.63-.39-2.63-1.23a8.428,8.428,0,0,1,.45-1.57,56.009,56.009,0,0,0,2.35-11.31c.06-.56,0-1.12.78-1.12.39,0,2.63.5,3.14.62Zm-2.41-22.23a.725.725,0,0,0,.67-.45,72.636,72.636,0,0,0,4.03-8.85c.11-.34.22-.78.62-.78.17,0,4.09,1.51,4.09,2.35,0,.5-.45.5-.9.62-.39.06-.62.17-.73.56a89.965,89.965,0,0,1-4.31,8.62,1.572,1.572,0,0,0-.17.73,1.266,1.266,0,0,0,.45.9l1.12,1.12a1.313,1.313,0,0,0,.84.39,1.122,1.122,0,0,0,.95-.62c1.12-2.02,2.24-3.98,3.25-6.05.11-.39.28-.84.73-.84.28,0,4.14,1.74,4.14,2.52,0,.5-.56.5-.73.56a1.129,1.129,0,0,0-1.01.56,120.961,120.961,0,0,1-7.34,11.76.8.8,0,0,0-.17.5.706.706,0,0,0,.78.62c1.4-.11,2.8-.28,4.26-.39.5-.11.9-.34.9-.9a1.144,1.144,0,0,0-.11-.45,9.584,9.584,0,0,1-.84-2.13c0-.9,1.74-1.57,2.46-1.57.78,0,1.01.62,1.29,1.18.67,1.46,1.23,2.86,1.79,4.31a23.183,23.183,0,0,1,1.29,4.31c0,1.06-1.96,1.51-2.52,1.51-.84,0-1.12-.84-1.4-1.9a1.082,1.082,0,0,0-1.29-.84c-.67.11-1.34.17-2.02.28-1.06.22-1.34.56-1.46,1.74v11.31c0,2.3.17,4.65.17,7,0,1.79-.39,2.02-2.18,2.02-1.68,0-2.13-.22-2.13-2.02,0-2.35.11-4.7.11-7V211.56c0-1.01-.45-1.4-1.46-1.4-1.46.17-2.91.28-4.37.45a.89.89,0,0,0-.67.5c-.17.28-.34.62-.73.62-.56,0-.67-.56-1.01-1.9-.11-.5-.22-1.12-.45-1.9a3.492,3.492,0,0,1-.11-.78c0-.78.84-.73,2.63-.73h.73a2.129,2.129,0,0,0,1.79-1.06c.67-.95,1.34-1.96,1.96-2.91a2.181,2.181,0,0,0,.34-1.06,1.781,1.781,0,0,0-.56-1.23c-1.9-1.96-3.92-3.7-5.99-5.49-.34-.28-.84-.67-.84-1.12,0-.84,1.12-2.97,2.02-2.97.45,0,1.12.67,1.46.95a1.048,1.048,0,0,0,.62.22ZM745.36,224a1.18,1.18,0,0,1-1.23-1.23,36.031,36.031,0,0,0-2.35-6.78,4.774,4.774,0,0,1-.34-1.18c0-.84,1.96-1.34,2.46-1.34.95,0,1.68,2.24,2.41,4.31a34.255,34.255,0,0,1,1.4,4.7c0,1.12-1.85,1.51-2.35,1.51Zm23.58-9.74H755.78c-1.12,0-1.57.45-1.57,1.57v5.32c0,4.31.06,5.32,4.48,5.32h8.62c2.91,0,3.98-.56,4.48-5.15.11-1.18.11-1.57,1.23-1.57s3.3.34,3.3,1.79a16.086,16.086,0,0,1-2.24,7.11c-1.4,1.85-3.47,1.96-5.6,1.96H757.22c-4.42,0-7.45-.45-7.45-5.71,0-1.51.06-3.02.06-4.54V203.34c0-.9-.06-1.85-.06-2.74-.06-.28-.17-.5-.5-.5a.507.507,0,0,0-.39.17,2.707,2.707,0,0,1-1.23.67c-.9,0-2.86-1.62-2.86-2.35,0-.5.62-.95.95-1.29a42.2,42.2,0,0,0,10.3-14.56c.17-.34.28-.73.73-.73a9.455,9.455,0,0,1,1.57.39c2.18.56,3.3.84,3.3,1.34,0,.39-.45.62-.78.73-.56.17-.78.39-1.18,1.12a.665.665,0,0,0-.06.34c0,.45.34.62.73.62h5.38c.95,0,1.9-.06,2.91-.06a3.2,3.2,0,0,1,2.97,2.63c0,1.29-3.3,5.77-4.2,7a.8.8,0,0,0-.17.5c0,.5.39.62.84.62h3.64c1.9,0,2.69.45,2.69,2.46,0,1.23-.06,2.41-.06,3.64v7.06c0,1.57.11,2.97.11,3.98,0,1.18-.56,1.23-2.3,1.23-.62,0-1.62.06-2.07-.39-.28-.39-.62-.9-1.18-.95Zm-16.13-18.14a1.009,1.009,0,0,0-.17.45c0,.56.56.62.73.62.9.06,1.79.06,2.63.06h3.86a2.346,2.346,0,0,0,2.35-1.12c.62-.78,3.42-4.65,3.42-5.38,0-.62-.84-.5-1.23-.5h-5.71a2.293,2.293,0,0,0-2.35,1.23,51.79,51.79,0,0,1-3.53,4.65Zm1.4,12.71a1.5,1.5,0,0,0,1.51,1.51h2.63a1.5,1.5,0,0,0,1.51-1.51v-6.16a1.6,1.6,0,0,0-1.51-1.57h-2.63a1.517,1.517,0,0,0-1.51,1.57Zm14.22,1.51a1.517,1.517,0,0,0,1.57-1.51v-6.16a1.6,1.6,0,0,0-1.51-1.57h-2.8a1.517,1.517,0,0,0-1.51,1.57v6.16a1.5,1.5,0,0,0,1.51,1.51Z" transform="translate(-0.2 8248)" fill="#877877"/>
    <path id="パス_1618" data-name="パス 1618" d="M802.6,210.72a2.115,2.115,0,0,0,.62,1.46c.95,1.18,5.71,7.28,5.71,8.46,0,.84-1.79,2.46-2.63,2.46-.62,0-1.12-.73-2.24-2.46-.67-.95-1.57-2.3-2.86-3.98a.963.963,0,0,0-.78-.45,1.1,1.1,0,0,0-.84.56,51.97,51.97,0,0,1-8.51,11.48c-.39.39-1.06,1.12-1.62,1.12-.84,0-2.8-1.74-2.8-2.58,0-.45.62-1.01.9-1.34a49.356,49.356,0,0,0,8.96-12.26,2.07,2.07,0,0,0,.28-1.01,1.841,1.841,0,0,0-.67-1.34,54.289,54.289,0,0,0-7.22-6.1c-.45-.28-.95-.67-.95-1.23,0-.73,1.46-2.63,2.41-2.63,1.06,0,6.44,4.76,7.5,5.77a1.309,1.309,0,0,0,.73.28c.45,0,.67-.34.84-.67a48.683,48.683,0,0,0,1.85-7.34c.11-.5.22-1.06.78-1.06a15.557,15.557,0,0,1,2.69.67,3.991,3.991,0,0,0,.67.22c.95.34,1.46.5,1.46,1.01,0,.39-.45.62-.78.78-.78.39-.84,1.01-1.12,2.07a64.379,64.379,0,0,1-2.13,7.11,3.037,3.037,0,0,0-.22,1.01Zm-2.07-19.26c0,1.12.45,1.57,1.57,1.57h.73c1.79,0,3.58-.11,5.43-.11,1.4,0,1.34.73,1.34,2.24s0,2.3-1.34,2.3c-1.79,0-3.64-.17-5.43-.17h-8.74c-1.79,0-3.64.17-5.43.17-1.34,0-1.34-.78-1.34-2.3s0-2.24,1.34-2.24c1.85,0,3.64.11,5.43.11h.28c1.06,0,1.57-.45,1.57-1.57v-3.42a26.124,26.124,0,0,0-.22-4.14,1.783,1.783,0,0,1-.06-.56c0-.62.39-.73.95-.73.67,0,3.42.28,4.26.39.39.06,1.06.11,1.06.67,0,.39-.34.5-.73.84-.62.39-.67,1.18-.67,2.8v4.14Zm16.97,25.37c-.73,0-1.01-.67-1.23-1.29a60.745,60.745,0,0,0-4.2-9.8,2.126,2.126,0,0,1-.39-1.06c0-.84,2.3-1.79,3.02-1.79a1.18,1.18,0,0,1,1.01.73,41.2,41.2,0,0,1,2.18,4.42c.5,1.18,2.52,5.88,2.52,6.83,0,1.34-2.35,1.96-2.91,1.96Zm12.32-24.02c0,1.06.45,1.51,1.51,1.51,1.12.06,3.25-.11,4.2-.11,1.23,0,1.23.67,1.23,2.24s0,2.24-1.23,2.24c-.67,0-3.3-.06-4.2-.11-1.06.06-1.51.5-1.51,1.57v21.67c0,1.34.11,2.74.11,4.14a5.007,5.007,0,0,1-1.57,4.03c-1.9,1.4-5.6,1.57-7.9,1.57-1.51,0-3.02.11-3.02-3.47,0-.73.17-1.34,1.01-1.34.34,0,.67.06,1.01.06a11.423,11.423,0,0,0,1.96.11c3.92,0,3.81-1.4,3.81-4.93V200.15c0-1.12-.45-1.57-1.57-1.57h-4.87c-1.9,0-3.86.11-5.77.11-1.18,0-1.23-.62-1.23-2.24s.06-2.24,1.23-2.24c1.9,0,3.86.17,5.77.17h4.87c1.12,0,1.57-.5,1.57-1.57V187.1a26.882,26.882,0,0,0-.22-4.2v-.56c0-.62.39-.78.9-.78.73,0,3.25.28,4.09.39.45.06,1.23.06,1.23.73,0,.34-.28.5-.73.78-.62.45-.67,1.34-.67,3.42v5.94Z" transform="translate(-0.2 8248)" fill="#877877"/>
    <path id="パス_1619" data-name="パス 1619" d="M862.46,189.84c0,.39-.22.5-.5.62a2.945,2.945,0,0,0-1.74,1.9c-1.9,4.37-3.02,12.66-3.02,17.42,0,1.23.34,8.85,1.62,8.85.67,0,1.57-2.91,1.85-3.7s.56-1.62,1.18-1.62c.5,0,1.79.73,1.79,1.29a3.683,3.683,0,0,1-.28,1.12c-.78,2.41-2.18,6.38-2.18,8.85,0,.84.11,1.74.11,2.58,0,1.68-3.25,2.3-3.47,2.3-.78,0-1.29-1.12-1.57-1.74a41.255,41.255,0,0,1-3.53-17.75,65.7,65.7,0,0,1,2.35-17.19c.39-1.57.9-3.14,1.23-4.7.11-.39.22-.9.73-.9a39.845,39.845,0,0,1,4.09,1.68c.56.22,1.34.45,1.34,1.01Zm20.33-2.3c.84.11,1.29.22,1.29.67a1.8,1.8,0,0,1-.39.95c-.5.84-.45,2.74-.45,3.7,0,2.63-.11,3.98,1.23,3.98a37.237,37.237,0,0,0,5.49-1.4,5.768,5.768,0,0,1,1.29-.39c1.18,0,1.46,3.81,1.46,3.92,0,.78-.73.95-1.34,1.12-1.62.39-4.2.9-5.88,1.12-.95.11-1.85.34-1.85,1.68,0,1.46.56,9.69.67,11.93.06,1.68.56,1.74,1.9,2.35,1.57.73,7.67,3.92,7.67,5.66,0,1.06-1.51,3.3-2.63,3.3-.5,0-1.12-.56-1.46-.9-.78-.67-3.98-3.42-4.87-3.42-.62,0-.67.78-.78,1.29-.78,3.92-4.31,4.98-7.9,4.98-4.14,0-8.85-1.96-8.85-6.78s4.48-6.55,8.62-6.55c1.18,0,2.07.17,2.97.17.67,0,.95-.45.95-1.06,0-1.51-.45-8.01-.56-9.69-.06-.62.06-2.07-1.23-2.07-.06,0-4.87.34-7.95.34-3.3,0-4.2-.17-4.37-.62a18.213,18.213,0,0,1-.39-3.14c0-.67.11-1.12.84-1.12.67,0,5.04.39,7.5.39,3.75,0,5.04,0,5.04-1.34s-.62-7-.84-8.46a1.979,1.979,0,0,1-.06-.62c0-.45.28-.67.73-.67a38.62,38.62,0,0,1,4.14.67Zm-11.14,33.82c0,2.02,2.86,2.74,4.48,2.74,2.58,0,4.09-.95,4.09-3.7,0-1.57-2.63-1.68-3.81-1.68-1.51,0-4.76.56-4.76,2.63Zm22.57-30.24c0,.73-1.74,2.18-2.46,2.18-.34,0-.62-.39-.78-.62a56.258,56.258,0,0,0-3.81-4.42,1.423,1.423,0,0,1-.45-.73c0-.62,1.79-2.02,2.35-2.02.62,0,5.15,5.04,5.15,5.6Zm5.32-3.47c0,.73-1.74,2.18-2.46,2.18-.34,0-.56-.34-.73-.56a49.287,49.287,0,0,0-3.92-4.48c-.17-.17-.45-.45-.45-.67,0-.67,1.79-2.02,2.35-2.02.62,0,5.21,4.93,5.21,5.54Z" transform="translate(-0.2 8248)" fill="#877877"/>
    <path id="パス_1620" data-name="パス 1620" d="M936.66,212.4c1.9,2.46,3.02,4.7,3.02,7.84,0,4.2-2.97,5.6-6.72,5.6-1.23,0-7.06-.39-7.78-1.06-.39-.39-.5-3.08-.5-3.75,0-.39.17-.9.67-.9a4.181,4.181,0,0,1,1.12.28,19.126,19.126,0,0,0,5.32.95c1.62,0,2.86-.56,2.86-2.41,0-2.18-1.62-4.48-3.02-6.05a1.776,1.776,0,0,0-1.29-.78c-.95,0-4.26,2.13-5.38,2.8-3.53,2.13-6.94,4.37-10.36,6.66-1.12.78-1.18.78-1.57,1.57a1.1,1.1,0,0,1-.9.73c-.9,0-3.25-4.31-3.25-4.98,0-.62,1.06-.95,1.68-1.18,4.14-1.68,11.03-5.94,15.34-8.18.5-.28,1.12-.5,1.12-1.18a1.492,1.492,0,0,0-.45-.95c-1.12-1.4-1.85-2.41-1.85-4.31a13.879,13.879,0,0,1,1.4-5.32c.22-.5.45-.9,1.12-.9.73,0,3.7,1.23,3.7,2.02a2.425,2.425,0,0,1-.45,1.01,6.775,6.775,0,0,0-1.06,3.36c0,1.18,1.01,2.07,1.74,2.86a2.16,2.16,0,0,0,1.57.9c.28,0,.45-.06.73-.06a16.346,16.346,0,0,1,3.3-.34c12.66,0,19.88,12.43,19.88,13.61,0,.84-3.19,2.46-4.31,2.46-.56,0-.84-.45-1.01-.9-2.35-5.21-7.73-10.98-13.89-10.98-.45,0-1.23.17-1.23.78,0,.28.28.56.45.78Zm-1.23-22.85a5.352,5.352,0,0,1,.73.45c1.29.78,2.74,1.46,2.74,2.18,0,.78-1.68,3.75-2.52,3.75-.39,0-.9-.45-1.23-.73a37.1,37.1,0,0,0-7.28-4.37c-.56-.28-1.18-.5-1.18-1.18,0-.78,1.23-3.36,2.18-3.36.84,0,5.54,2.69,6.55,3.25Zm17.14,7.28c0,.73-1.68,2.24-2.41,2.24-.45,0-1.23-1.18-1.57-1.57a44.094,44.094,0,0,0-3.19-3.36c-.17-.17-.45-.45-.45-.73,0-.62,1.74-2.02,2.35-2.02.56,0,5.26,4.82,5.26,5.43Zm5.43-3.81c0,.73-1.62,2.24-2.41,2.24-.28,0-.5-.34-.73-.56a49.885,49.885,0,0,0-4.03-4.37c-.17-.22-.45-.45-.45-.73,0-.62,1.74-2.07,2.35-2.07.56,0,5.26,4.87,5.26,5.49Z" transform="translate(-0.2 8248)" fill="#877877"/>
    <path id="パス_1621" data-name="パス 1621" d="M1005.94,190.29c.84,0,1.62,0,2.24-.06a5.126,5.126,0,0,1,.95-.11c1.23,0,3.19,2.46,3.19,2.97,0,.62-.45,1.01-.84,3.47-1.79,10.7-6.05,18.42-15.06,24.58A48.893,48.893,0,0,1,986,226.68a5.092,5.092,0,0,1-1.79.5c-1.06,0-2.69-2.63-2.69-3.53,0-.62.5-.73,1.01-.9a38.726,38.726,0,0,0,16.86-10.3,28.323,28.323,0,0,0,6.78-15.12c0-.28.11-.84.11-1.12,0-1.12-.9-1.23-2.02-1.23H983.32c-2.3,0-4.59.11-6.89.11-1.46,0-1.46-.5-1.46-2.58,0-1.68,0-2.35,1.4-2.35,2.35,0,4.65.11,7,.11h22.57Z" transform="translate(-0.2 8248)" fill="#877877"/>
    <path id="パス_1622" data-name="パス 1622" d="M1060.93,199.47c1.74,0,3.47-.11,5.21-.11,1.34,0,1.4.67,1.4,2.3,0,1.29-.06,1.96-1.4,1.96-1.74,0-3.47-.06-5.21-.06h-3.53a1.61,1.61,0,0,0-1.62,1.57v12.1a1.62,1.62,0,0,0,1.62,1.62h6.55c1.85,0,3.64-.11,5.49-.11,1.29,0,1.23.95,1.23,2.3,0,1.06,0,2.02-1.29,2.02-1.79,0-3.64-.11-5.43-.11h-20.5c-1.79,0-3.58.11-5.43.11-1.34,0-1.29-1.01-1.29-2.13,0-1.18-.06-2.18,1.23-2.18,1.85,0,3.64.11,5.49.11H1050a1.62,1.62,0,0,0,1.62-1.62v-12.1a1.616,1.616,0,0,0-1.62-1.57h-3.53c-1.74,0-3.47.06-5.21.06-1.34,0-1.4-.78-1.4-1.9,0-1.68.06-2.35,1.4-2.35,1.74,0,3.47.11,5.21.11h14.45Z" transform="translate(-0.2 8248)" fill="#877877"/>
    <path id="パス_1623" data-name="パス 1623" d="M1118.16,221.81c0,2.41.17,4.82.17,7.22,0,1.4-.73,1.57-2.41,1.57-2.35,0-2.8-.22-2.8-1.57,0-2.35.11-4.76.11-7.11V205.23c0-.34.17-1.51-.78-1.51a3.063,3.063,0,0,0-1.46.73,95.61,95.61,0,0,1-12.15,7.73,4.933,4.933,0,0,1-1.68.67c-.84,0-3.3-2.52-3.3-3.42,0-.5.39-.73.78-.9,10.47-4.76,23.58-14.22,29.4-24.25.17-.28.45-.73.78-.73.56,0,2.41,1.34,2.91,1.68.17.11.28.22.45.34.73.45,1.46.95,1.46,1.46,0,.45-.45.5-.95.67a2.482,2.482,0,0,0-1.51,1.12,83.527,83.527,0,0,1-8.01,8.79,2.358,2.358,0,0,0-1.01,2.07V221.8Z" transform="translate(-0.2 8248)" fill="#877877"/>
    <path id="パス_1624" data-name="パス 1624" d="M1181.66,190.62c.95,0,3.25,0,4.09-.11a7.7,7.7,0,0,1,1.12-.11c.95,0,3.02,2.46,3.02,3.19a2.373,2.373,0,0,1-.62,1.18,20.214,20.214,0,0,0-1.51,2.3,86.706,86.706,0,0,1-7.67,11.03,1.748,1.748,0,0,0-.5,1.18c0,.78.56,1.12,1.18,1.51a91.832,91.832,0,0,1,10.98,8.68c.56.56,2.91,2.52,2.91,3.19,0,1.01-2.3,3.53-3.36,3.53-.56,0-.9-.45-1.23-.84a64.836,64.836,0,0,0-12.99-11.37,2.01,2.01,0,0,0-1.23-.5c-.67,0-1.4.78-2.8,2.07-.28.22-.56.56-.9.84a71.426,71.426,0,0,1-12.66,8.34,6.36,6.36,0,0,1-1.9.78c-1.06,0-3.08-2.8-3.08-3.64,0-.56.62-.84,1.06-1.01,10.58-4.31,20.16-13.33,26.15-22.96a3.864,3.864,0,0,0,.78-1.68c0-.78-.9-.9-1.74-.9h-12.88c-2.3,0-4.65.11-7,.11-1.34,0-1.29-.78-1.29-2.69,0-1.34-.06-2.24,1.29-2.24,2.3,0,4.65.11,7,.11h13.78Z" transform="translate(-0.2 8248)" fill="#877877"/>
  </g>
</svg>
