<?xml version="1.0" encoding="utf-8"?>
<!-- Generator: Adobe Illustrator 27.4.0, SVG Export Plug-In . SVG Version: 6.00 Build 0)  -->
<svg version="1.1" id="レイヤー_1" xmlns="http://www.w3.org/2000/svg" xmlns:xlink="http://www.w3.org/1999/xlink" x="0px"
	 y="0px" viewBox="0 0 1600 412.8" style="enable-background:new 0 0 1600 412.8;" xml:space="preserve">
<g>
	<g>
		<g>
			<path d="M167.4,408.1H0V1h61.4V347h105.9L167.4,408.1L167.4,408.1z"/>
			<path d="M282.5,408.1H221V1h61.4V408.1z"/>
			<path d="M511,408.1H343.7V1h61.4V347H511V408.1z"/>
			<path d="M648.5,407.9h-61.4V0.4h88.2l57.2,292.7l55-292.7h84.7v407.5h-61.5V151.8l-53.3,256.1H708l-59.5-255.4V407.9z"/>
			<path d="M1011.5-4.5c27.1,0,50.1,9.6,69.1,28.6c19,19.1,28.4,42.1,28.4,68.9v222.3c0,27.1-9.5,50.1-28.6,69
				c-19,19-42,28.5-68.9,28.5c-27.1,0-50-9.5-68.9-28.6c-18.8-19.1-28.3-42.1-28.3-68.9V93c0-27.1,9.5-50.1,28.6-69.1
				C962,5,984.8-4.5,1011.5-4.5z M1044.9,91.7c0-9.7-3.4-18.1-10.2-24.9c-6.8-6.8-15.1-10.2-24.9-10.2c-9.7,0-18.1,3.4-25,10.2
				c-7,6.8-10.4,15.1-10.4,24.9v222.9c0,9.8,3.5,18,10.4,24.9c6.9,6.8,15.3,10.2,25,10.2c9.8,0,18.1-3.4,24.9-10.2
				c6.8-6.8,10.2-15.1,10.2-24.9V91.7z"/>
			<path d="M1248.4-4.5c27.1,0,50.1,9.6,69.1,28.6c19,19.1,28.4,42.1,28.4,68.9v222.3c0,27.1-9.6,50.1-28.6,69
				c-19.1,19-42.1,28.5-68.9,28.5c-27.1,0-50-9.5-68.9-28.6c-18.8-19.1-28.2-42.1-28.2-68.9V93c0-27.1,9.5-50.1,28.6-69.1
				C1198.9,5,1221.7-4.5,1248.4-4.5z M1281.9,91.7c0-9.7-3.4-18.1-10.2-24.9c-6.8-6.8-15.1-10.2-24.9-10.2c-9.8,0-18.1,3.4-25,10.2
				c-6.9,6.8-10.4,15.1-10.4,24.9v222.9c0,9.8,3.5,18,10.4,24.9c6.9,6.8,15.3,10.2,25,10.2c9.7,0,18.1-3.4,24.9-10.2
				c6.8-6.8,10.2-15.1,10.2-24.9V91.7z"/>
			<path d="M1457.1,0.4l81.5,273.9V0.4h61.4v407.5h-66l-84.5-261v261h-61.4V0.4H1457.1z"/>
		</g>
	</g>
</g>
</svg>
