<?xml version="1.0" encoding="UTF-8"?>
<svg id="_レイヤー_1" data-name=" レイヤー 1" xmlns="http://www.w3.org/2000/svg" version="1.1" viewBox="0 0 1600 400">
  <defs>
    <style>
      .cls-1 {
        fill: #806134;
        stroke-width: 0px;
      }
    </style>
  </defs>
  <path class="cls-1" d="M146,305.9H23.3V7.4h45v253.7h77.7v44.8h0Z"/>
  <path class="cls-1" d="M292.9,305.9h-45.1V7.4h45v298.5h0Z"/>
  <path class="cls-1" d="M516.9,305.9h-122.7V7.4h45v253.7h77.7v44.8h0Z"/>
  <path class="cls-1" d="M666.5,305.7h-45V7h64.6l42,214.6L768.4,7h62.1v298.8h-45.1V118l-39.1,187.7h-36.2l-43.7-187.2v187.2h0Z"/>
  <path class="cls-1" d="M997.1,3.3c19.9,0,36.8,7,50.7,21,13.9,14,20.8,30.8,20.8,50.5v163c0,19.9-7,36.8-21,50.6-13.9,13.9-30.8,20.9-50.5,20.9s-36.7-7-50.5-21c-13.8-14-20.8-30.8-20.8-50.5V74.9c0-19.9,7-36.8,21-50.7,14-13.9,30.7-20.8,50.3-20.8h0ZM1021.5,73.9c0-7.1-2.5-13.3-7.5-18.2-5-5-11-7.5-18.2-7.5s-13.3,2.5-18.3,7.5c-5.1,5-7.6,11-7.6,18.2v163.4c0,7.2,2.6,13.2,7.6,18.2,5,5,11.2,7.5,18.3,7.5s13.3-2.5,18.2-7.5c5-5,7.5-11,7.5-18.2V73.9Z"/>
  <path class="cls-1" d="M1238.1,3.3c19.9,0,36.8,7,50.7,21,13.9,14,20.8,30.8,20.8,50.5v163c0,19.9-7,36.8-21,50.6-14,13.9-30.8,20.9-50.5,20.9s-36.7-7-50.5-21c-13.8-14-20.7-30.8-20.7-50.5V74.9c0-19.9,7-36.8,21-50.7,13.9-13.9,30.6-20.8,50.3-20.8h0ZM1262.7,73.9c0-7.1-2.5-13.3-7.5-18.2-5-5-11-7.5-18.2-7.5s-13.3,2.5-18.3,7.5c-5,5-7.6,11-7.6,18.2v163.4c0,7.2,2.6,13.2,7.6,18.2,5,5,11.2,7.5,18.3,7.5s13.3-2.5,18.2-7.5c5-5,7.5-11,7.5-18.2V73.9Z"/>
  <path class="cls-1" d="M1462.5,7l59.7,200.8V7h45v298.8h-48.4l-62-191.4v191.4h-45V7h50.6Z"/>
  <path class="cls-1" d="M1831-387.8l80.6,270.9v-270.9h60.7V15.3h-65.3l-83.6-258.2V15.3h-60.7v-403.1h68.3Z"/>
  <g>
    <path class="cls-1" d="M565.5,394.9h-5.9v-27.1h5.9v1.7h-3.9v23.8h3.9v1.7Z"/>
    <path class="cls-1" d="M631.1,383.3v-14.8l4.8.3c0,.4-.4.5-.9.6v13.9h-3.9ZM648.9,367.3c0,.4-.3.5-.9.6v9.4c0,6.3-2.1,12.2-10.6,15.8-.6-.7-2-2.1-2.9-2.8,7.9-3,9.5-8,9.5-12.9v-10.2l4.8.3h0Z"/>
    <path class="cls-1" d="M715.9,371.2c0,.4-.4.6-.8.7-.2,8.6-1,15.6-5.1,21.1-.9-.6-2.3-1.4-3.3-1.9,4-4.7,4.6-12.5,4.6-20.2l4.7.4h0ZM723.6,386.7c4-2.2,6.5-6.2,7.8-10.9.8.7,2.5,1.7,3.4,2.1-2.1,6.2-5.6,10.6-12.1,13.7-.2.4-.4.6-.7.7l-2.8-3.3.4-.6v-21.4l4.7.3c0,.4-.3.6-.9.7v18.7h0Z"/>
    <path class="cls-1" d="M807.8,392.4c-.4-1.2-1-2.3-1.5-3.3-6.6.7-14.9,1.4-19.3,1.6,0,.4-.4.6-.7.7l-1.2-4.5h3.1c1.8-5.6,4.3-14.2,5.7-19.9l4.8,1.2c0,.4-.4.5-1,.5-1.5,5.1-3.8,12.2-5.7,18,3.5-.2,9.2-.6,12.4-.9-1.2-2.1-2.7-4.2-4.1-5.9l3.2-1.8c3,3.4,6.2,8.9,7.8,12.4l-3.7,1.8h.2Z"/>
    <path class="cls-1" d="M866.5,377.3h25.1v3.8h-23.9c-.2.4-.6.5-1.1.6l-.3-4.3h0Z"/>
    <path class="cls-1" d="M950.4,368.4c3,1,6.6,2.5,8.8,4l-2,3.4c-2.1-1.4-5.7-3.1-8.6-4.1l1.8-3.3h0ZM949.4,388.8c10.1-3.2,17.1-9,20.6-17.3,1.1.9,2.4,1.6,3.5,2.2-3.7,8.2-10.9,14.6-20.9,18.1,0,.4-.3.7-.5.8l-2.7-3.9h0Z"/>
    <path class="cls-1" d="M1034.5,367.8h5.9v27.1h-5.9v-1.7h3.9v-23.8h-3.9v-1.7h0Z"/>
  </g>
</svg>