<?xml version="1.0" encoding="UTF-8"?>
<svg id="_レイヤー_1" data-name="レイヤー 1" xmlns="http://www.w3.org/2000/svg" version="1.1" viewBox="0 0 1600 540">
  <defs>
    <style>
      .cls-1 {
        fill: #fff;
        stroke-width: 0px;
      }
    </style>
  </defs>
  <g>
    <path class="cls-1" d="M170.2,413H4.6V10.3h60.7v342.3h104.8v60.4h0Z"/>
    <path class="cls-1" d="M284,413h-60.8V10.3h60.7v402.7h0Z"/>
    <path class="cls-1" d="M510.1,413h-165.5V10.3h60.7v342.3h104.8v60.4Z"/>
    <path class="cls-1" d="M646.1,412.8h-60.7V9.7h87.2l56.6,289.5L783.6,9.7h83.8v403.1h-60.8v-253.3l-52.7,253.3h-48.9l-58.9-252.6v252.6Z"/>
    <path class="cls-1" d="M1005.2,4.8c26.8,0,49.6,9.5,68.4,28.3,18.8,18.9,28.1,41.6,28.1,68.2v219.9c0,26.8-9.4,49.6-28.3,68.3-18.8,18.8-41.5,28.2-68.2,28.2s-49.5-9.4-68.2-28.3c-18.6-18.9-28-41.6-28-68.2V101.3c0-26.8,9.4-49.6,28.3-68.4,18.9-18.7,41.4-28.1,67.9-28.1ZM1038.2,100c0-9.6-3.4-17.9-10.1-24.6-6.7-6.7-14.9-10.1-24.6-10.1s-17.9,3.4-24.7,10.1c-6.9,6.7-10.3,14.9-10.3,24.6v220.5c0,9.7,3.5,17.8,10.3,24.6,6.8,6.7,15.1,10.1,24.7,10.1s17.9-3.4,24.6-10.1c6.7-6.7,10.1-14.9,10.1-24.6V100Z"/>
    <path class="cls-1" d="M1239.5,4.8c26.8,0,49.6,9.5,68.4,28.3,18.8,18.9,28.1,41.6,28.1,68.2v219.9c0,26.8-9.5,49.6-28.3,68.3-18.9,18.8-41.6,28.2-68.2,28.2s-49.5-9.4-68.2-28.3c-18.6-18.9-27.9-41.6-27.9-68.2V101.3c0-26.8,9.4-49.6,28.3-68.4,18.8-18.7,41.3-28.1,67.8-28.1ZM1272.7,100c0-9.6-3.4-17.9-10.1-24.6-6.7-6.7-14.9-10.1-24.6-10.1s-17.9,3.4-24.7,10.1c-6.8,6.7-10.3,14.9-10.3,24.6v220.5c0,9.7,3.5,17.8,10.3,24.6,6.8,6.7,15.1,10.1,24.7,10.1s17.9-3.4,24.6-10.1c6.7-6.7,10.1-14.9,10.1-24.6V100Z"/>
    <path class="cls-1" d="M1446,9.7l80.6,270.9V9.7h60.7v403.1h-65.3l-83.6-258.2v258.2h-60.7V9.7h68.3Z"/>
  </g>
  <g>
    <path class="cls-1" d="M200.2,540h-15v-69.3h15v4.3h-9.8v60.7h9.8v4.3Z"/>
    <path class="cls-1" d="M368,510.2v-37.8l12.1.6c0,.8-.8,1.4-2.2,1.6v35.5h-9.8ZM413.5,469.2c0,.8-.7,1.3-2.2,1.5v24c0,16.3-5.4,31.4-27,40.3-1.5-1.9-5.1-5.5-7.4-7.1,20.3-7.7,24.3-20.5,24.3-33.2v-26.2l12.2.7Z"/>
    <path class="cls-1" d="M585,479.1c0,.8-.8,1.5-2,1.7-.4,22-2.5,39.8-13,54.1-2.2-1.5-5.9-3.6-8.6-5,10.2-11.9,11.6-31.9,11.6-51.5l12,.8ZM604.7,519c10.3-5.7,16.6-16,20-27.9,2,1.7,6.4,4.2,8.7,5.3-5.5,15.9-14.5,27.1-30.8,35.2-.4.8-1.1,1.5-1.8,1.9l-7.2-8.5,1.2-1.6v-54.6l12,.6c-.2.8-.7,1.6-2.2,1.8v47.8Z"/>
    <path class="cls-1" d="M820,533.5c-1.2-3.1-2.5-5.8-3.8-8.4-16.8,1.9-38,3.6-49.4,4.1-.2.8-.9,1.5-1.7,1.7l-3.2-11.4c2.2,0,4.9,0,7.9-.2,4.7-14.3,11.1-36.2,14.7-50.8l12.4,3.1c-.2.8-1.1,1.4-2.4,1.4-3.8,13-9.6,31.3-14.6,45.9,9.1-.4,23.7-1.5,31.8-2.3-3.2-5.5-7-10.9-10.5-15.1l8.2-4.5c7.6,8.8,15.9,22.7,20,31.7l-9.5,4.7Z"/>
    <path class="cls-1" d="M970.2,495h64.1v9.7h-60.9c-.5.8-1.5,1.3-2.6,1.5l-.6-11.1Z"/>
    <path class="cls-1" d="M1184.8,472.2c7.7,2.4,16.9,6.4,22.5,10.1l-5.1,8.7c-5.5-3.7-14.6-7.9-22-10.5l4.5-8.4ZM1182.2,524.2c25.9-8,43.7-23,52.6-44.1,2.8,2.3,6.1,4.1,9,5.7-9.5,21-27.9,37.3-53.3,46.3-.2.8-.6,1.7-1.3,2l-7-9.8Z"/>
    <path class="cls-1" d="M1399.7,470.6h15.1v69.3h-15.1v-4.3h9.9v-60.7h-9.9v-4.3Z"/>
  </g>
</svg>