<?xml version="1.0" encoding="UTF-8"?>
<svg id="_レイヤー_1" data-name="レイヤー_1" xmlns="http://www.w3.org/2000/svg" viewBox="0 0 256 256">
  <defs>
    <style>
      .cls-1 {
        fill: #534741;
      }
    </style>
  </defs>
  <g>
    <path class="cls-1" d="M49.43,215.96v-53.16h15.75c18.96,0,27.41,8.15,27.41,26.43s-8.66,26.73-28.09,26.73h-15.07ZM57.6,209.45h7.5c8.47,0,18.56-3.51,18.56-20.22,0-13.43-6.07-19.92-18.56-19.92h-7.5v40.14Z"/>
    <path class="cls-1" d="M142.73,215.96l-4.51-12.72h-23.3l-4.36,12.72h-8.01l20.35-53.16h8.71l20.35,53.16h-9.23ZM116.51,197.93h20.49l-10.19-30.68-10.3,30.68Z"/>
    <polygon class="cls-1" points="178.77 215.96 178.77 193.61 159.55 162.79 169.43 162.79 183.56 188.88 197.19 162.79 206.57 162.79 187.08 193.6 187.08 215.96 178.77 215.96"/>
  </g>
  <path class="cls-1" d="M61.86,133.79V62.22l-3.3,1.56c-3.51,1.66-8.55,3.4-13.82,4.78l-1.92-8.74c7.06-2.4,16.15-6.27,21.65-10.38h9.89v84.35h-12.5Z"/>
  <path class="cls-1" d="M161.92,142.55c-28.26,0-51.25-22.99-51.25-51.25s22.99-51.25,51.25-51.25,51.25,22.99,51.25,51.25-22.99,51.25-51.25,51.25ZM161.92,43.78c-26.2,0-47.52,21.32-47.52,47.52s21.32,47.52,47.52,47.52,47.52-21.31,47.52-47.52-21.32-47.52-47.52-47.52Z"/>
  <polygon class="cls-1" points="162.42 92.78 162.42 58.49 166.71 58.49 166.71 88.49 192.24 88.49 192.24 92.78 162.42 92.78"/>
</svg>