<?xml version="1.0" encoding="UTF-8"?>
<svg id="_レイヤー_1" data-name="レイヤー_1" xmlns="http://www.w3.org/2000/svg" viewBox="0 0 256 256">
  <defs>
    <style>
      .cls-1 {
        fill: none;
        stroke: #4a2426;
        stroke-miterlimit: 10;
        stroke-width: 1.65px;
      }
    </style>
  </defs>
  <path class="cls-1" d="M161.43,37.4c-7.89,0-16.05,9.03-22.43,24.8-7.03,17.4-11.01,40.68-11.21,65.55-.42,53.39,16.69,90.74,32.3,90.86.03,0,.05,0,.08,0,7.89,0,16.05-9.03,22.43-24.8,7.03-17.4,11.01-40.68,11.21-65.55.42-53.39-16.69-90.74-32.3-90.86-.03,0-.05,0-.08,0Z"/>
  <path class="cls-1" d="M161.51,37.4c-.19,0-.39,0-.58,0-41.47,0-86.26,34.23-86.69,89.93-.26,33.74,14.92,55.17,27.71,67.2,16.08,15.14,37.28,23.91,58.16,24.08"/>
  <path class="cls-1" d="M74.03,134.21c-.68.02-1.37.02-2.08.02-8.06,0-6.95.25-13.43-1.8M255.49,135.11c-8.45-.79-15.78-2.89-23.05-6.59M49.58,128.8c-4.01-2-7.6-4.27-11.07-6.47-2.83-1.79-5.76-3.65-8.84-5.3M224.23,123.79c-.78-.49-1.55-.97-2.32-1.46-5.47-3.46-10.63-6.73-17.38-9.05M165.34,112.31c-8.3,2.3-14.46,6.2-19.89,9.64M21.65,113.46c-6.39-2.27-13.48-3.38-21.68-3.38M196.06,111.11c-3.94-.69-8.08-1.03-12.68-1.03-3.31,0-6.48.18-9.43.54"/>
  <path class="cls-1" d="M71.95,150.39,74.03,156.14c-.68.02-1.37.02-2.08.02-5.68,0-9.05-.58-13.43-1.8M255.49,157.04c-8.45-.79-15.78-2.89-23.05-6.59M49.58,150.73c-4.01-2-7.6-4.27-11.07-6.47-2.83-1.79-5.76-3.65-8.84-5.3M225.01,139.38,224.23,145.72c-.78-.49-1.55-.97-2.32-1.46-5.47-3.46-10.63-6.73-17.38-9.05M165.34,134.24c-8.3,2.3-14.46,6.2-19.89,9.64M21.65,135.39c-6.39-2.27-13.48-3.38-21.68-3.38M196.06,133.03c-3.94-.69-8.08-1.03-12.68-1.03-3.31,0-6.48.18-9.43.54"/>
</svg>