<?xml version="1.0" encoding="UTF-8"?>
<svg id="_レイヤー_1" data-name="レイヤー_1" xmlns="http://www.w3.org/2000/svg" viewBox="0 0 256 256">
  <defs>
    <style>
      .cls-1 {
        fill: #534741;
      }

      .cls-2 {
        fill: #fff;
      }

      .cls-2, .cls-3 {
        stroke: #4a2426;
        stroke-miterlimit: 10;
        stroke-width: 2px;
      }

      .cls-3 {
        fill: none;
      }
    </style>
  </defs>
  <path class="cls-2" d="M202.45,33.36h-26.82c-1.57,0-2.85,1.27-2.85,2.85v14.32c0,3.64-2.95,6.6-6.6,6.6h-22.08c-3.64,0-6.6-2.95-6.6-6.6v-14.32c0-1.57-1.27-2.85-2.85-2.85h-20.75c-1.57,0-2.85,1.27-2.85,2.85v14.32c0,3.64-2.95,6.6-6.6,6.6h-22.08c-3.64,0-6.6-2.95-6.6-6.6v-14.32c0-1.57-1.27-2.85-2.85-2.85h-34.54c-3.99,0-7.22,3.23-7.22,7.22v164.05c0,3.99,3.23,7.22,7.22,7.22h164.05c3.99,0,7.22-3.23,7.22-7.22V40.58c0-3.99-3.23-7.22-7.22-7.22Z"/>
  <path class="cls-3" d="M227.67,54.71v163.83c0,6.25-5.06,11.31-11.31,11.31H52.53"/>
  <g>
    <path class="cls-1" d="M112.5,101.55c-2.02,0-3.67-1.5-3.67-4,0-3.34,2.3-3.67,3.95-3.9,1.41-.19,3.81-.52,5.17-4.09.71-1.79,1.27-3.34,4.33-3.34s4.23,2.07,4.23,3.34v32.77c0,1.65-.38,4.65-4.8,4.65-2.63,0-5.12-.66-5.12-4.65v-20.78h-4.09Z"/>
    <path class="cls-1" d="M78.37,162.12c0,.9-.19,2.68-2.76,2.68-1.48,0-2.95-.36-2.95-2.68v-12.63c0-1.75.79-2.68,2.76-2.68,1.39,0,1.83.3,2.1.47-1.15.71-2.46,1.97-2.46,3.42,0,1.29,1.04,3.06,3.31,2.98v8.45ZM95.4,162.12c0,.9-.19,2.68-2.76,2.68-1.48,0-2.95-.36-2.95-2.68v-8.34c0-1.67-.71-1.94-1.31-1.94-1.28,0-1.5,1.39-1.5,2.51v7.76c0,.68,0,2.68-2.73,2.68-1.45,0-2.98-.33-2.98-2.68v-7.93c0-1.42-.06-2.35-.71-2.35-.33,0-.41.08-.9.57-.33.36-.77.63-1.42.63-1.29,0-2.41-1.07-2.41-2.29,0-1.78,2.76-3.94,5.58-3.94,2.46,0,3.77,1.45,4.29,2.05,1.7-2.05,3.66-2.05,4.21-2.05,4.48,0,5.6,3.8,5.6,6.4v8.91Z"/>
    <path class="cls-1" d="M111.94,154.83c1.04,0,3.03-.44,3.55-2.76.3.74.68,1.67.68,3.66,0,4.78-2.92,9.08-8.83,9.08s-8.8-4.48-8.8-8.99,2.79-8.99,8.8-8.99c5.36,0,7.54,3.47,7.54,4.84,0,1.53-1.48,2.51-3.03,2.51-1.01,0-1.56-.36-2.16-1.04-.63-.74-1.18-1.37-2.35-1.37-2.19,0-2.9,2.35-2.9,4.05s.71,4.04,2.9,4.04,2.92-2.32,2.92-3.91c0-.66-.11-1.23-.19-1.67.36.25.79.55,1.86.55Z"/>
    <path class="cls-1" d="M125.06,162.12c0,.98-.25,2.68-2.76,2.68-1.45,0-2.95-.33-2.95-2.68v-12.63c0-1.67.77-2.68,2.82-2.68,1.23,0,1.53.19,1.94.47-1.15.6-2,1.37-2,2.73,0,.46.16,3.06,2.95,3.36v8.75ZM134.73,162.12c0,.71,0,2.68-2.76,2.68-1.39,0-2.95-.3-2.95-2.68v-7.93c0-.79-.06-2.49-1.31-2.49-.35,0-.66.19-1.5.68-.25.14-.6.3-1.12.3-1.18,0-2.32-1.12-2.32-2.6,0-2.16,3.25-3.28,5.58-3.28,6.4,0,6.4,5.3,6.4,7.57v7.74Z"/>
    <path class="cls-1" d="M142.25,149.63c0,2.27-1.83,2.27-2.38,2.27-.74,0-2.35-.19-2.35-2.24,0-2.24,1.8-2.27,2.35-2.27.49,0,2.38,0,2.38,2.24ZM140.53,144.99c0-.87.16-2.68,2.76-2.68,1.48,0,2.95.36,2.95,2.68v2.4h1.12c.49,0,2.35,0,2.35,2.24s-1.72,2.27-2.35,2.27h-1.12v7.16c0,1.01.36,1.01,1.31,1.04,1.39.03,2.24.77,2.24,2.13,0,2.51-2.68,2.57-3.77,2.57-4.54,0-5.49-1.97-5.49-5.19v-7.11c2.38-.3,2.38-2.6,2.38-2.87,0-.82-.27-2.57-2.38-2.84v-1.8Z"/>
    <path class="cls-1" d="M158.27,162.12c0,.93-.22,2.68-2.76,2.68-1.48,0-2.95-.36-2.95-2.68v-18.34c0-.9.16-2.68,2.76-2.68,1.48,0,2.95.36,2.95,2.68v2.98c-1.72.63-3.09,1.78-3.09,3.42,0,1.39,1.04,3.03,3.09,3.03v8.91ZM167.95,162.12c0,.93-.22,2.68-2.76,2.68-1.48,0-2.95-.36-2.95-2.68v-7.68c0-1.31-.16-2.71-1.48-2.71-.46,0-.96.19-1.23.36-.71.38-.87.46-1.39.46-1.31,0-2.3-1.12-2.3-2.38,0-2.24,3.42-3.36,5.6-3.36,1.18,0,6.51.3,6.51,6.53v8.77Z"/>
  </g>
</svg>