<svg xmlns="http://www.w3.org/2000/svg" width="46.62" height="648.354" viewBox="0 0 46.62 648.354">
  <g id="グループ_966" data-name="グループ 966" transform="translate(-1874.029 -3030.887)">
    <g id="グループ_965" data-name="グループ 965">
      <path id="パス_9174" data-name="パス 9174" d="M1900.819,3654.041a9.585,9.585,0,0,1,6.21-2.16,11.277,11.277,0,0,1,6.87,2.01,11.757,11.757,0,0,1,4.02,5.28,19.375,19.375,0,0,1,1.29,7.17v12.9h-43.38v-11.22q0-6.66,2.73-10.32t8.19-3.66a11.378,11.378,0,0,1,5.97,1.53,10.51,10.51,0,0,1,3.99,4.35A13.755,13.755,0,0,1,1900.819,3654.041Zm-6.03,19.38v-6.6a6.437,6.437,0,0,0-1.92-5.07,7.121,7.121,0,0,0-4.92-1.71,5.9,5.9,0,0,0-4.92,2.04,8.951,8.951,0,0,0-1.62,5.7v5.64Zm17.31-13.08a5.713,5.713,0,0,0-5.01-2.46,5.476,5.476,0,0,0-5.04,2.67,12.208,12.208,0,0,0-1.62,6.45v6.42h13.38v-6.84A10.685,10.685,0,0,0,1912.1,3660.341Z" fill="#c9a1ad"/>
      <path id="パス_9175" data-name="パス 9175" d="M1919.209,3607.422l-16.02,10.2a12.646,12.646,0,0,1,.06,1.44v6.42h15.96v5.82h-43.38v-11.58a19.185,19.185,0,0,1,1.56-7.92,12.441,12.441,0,0,1,4.59-5.46,13.034,13.034,0,0,1,7.29-1.98,15.6,15.6,0,0,1,7.38,1.77,11.518,11.518,0,0,1,5.1,5.43l17.46-10.92Zm-24.06,5.01a8.506,8.506,0,0,0-5.64-2.07,8.859,8.859,0,0,0-3.78.87,7.414,7.414,0,0,0-3.09,2.76,8.58,8.58,0,0,0-1.23,4.77v6.72h16.2v-6.3Q1897.609,3614.5,1895.149,3612.432Z" fill="#c9a1ad"/>
      <path id="パス_9176" data-name="パス 9176" d="M1907.809,3558.163v16.68l11.4,4.619v5.761l-45.18-18.96v-.361l45.18-18.96v6.721Zm-5.04,1.98-15.84,6.18,15.84,6.42Z" fill="#c9a1ad"/>
      <path id="パス_9177" data-name="パス 9177" d="M1875.829,3490.244h44.82v.18l-32.34,31.86,30.9-.12v5.879h-44.7v-.3l32.7-31.8-31.38.119Z" fill="#c9a1ad"/>
      <path id="パス_9178" data-name="パス 9178" d="M1875.829,3466.963v-11.88q0-8.1,3.21-13.409a19.451,19.451,0,0,1,8.28-7.74,24.463,24.463,0,0,1,10.71-2.431,20.976,20.976,0,0,1,11.13,2.941,20.067,20.067,0,0,1,7.44,7.86,22.439,22.439,0,0,1,2.61,10.679v13.98Zm37.74-12.84a18.929,18.929,0,0,0-1.89-8.58,13.987,13.987,0,0,0-5.49-5.909,18.361,18.361,0,0,0-17.34.09,14.6,14.6,0,0,0-5.55,5.91,17.186,17.186,0,0,0-1.89,7.949v7.561h32.16Z" fill="#c9a1ad"/>
      <path id="パス_9179" data-name="パス 9179" d="M1918.519,3354.615a20.267,20.267,0,0,1,1.17,6.99,22.958,22.958,0,0,1-2.94,11.73,20.317,20.317,0,0,1-7.92,7.8,22.446,22.446,0,0,1-10.98,2.73,23.984,23.984,0,0,1-11.55-2.76,20.412,20.412,0,0,1-8.04-7.65,21.229,21.229,0,0,1-2.91-11.07,23.6,23.6,0,0,1,.96-6.84,23.892,23.892,0,0,1,2.52-5.7l5.46,2.34a17.788,17.788,0,0,0-3.36,10.02,14.447,14.447,0,0,0,2.22,7.77,16.372,16.372,0,0,0,6.03,5.7,16.868,16.868,0,0,0,8.37,2.13,18.178,18.178,0,0,0,8.46-1.95,14.318,14.318,0,0,0,5.91-5.58,17.353,17.353,0,0,0-1.17-18.51l5.22-2.46A25.837,25.837,0,0,1,1918.519,3354.615Z" fill="#c9a1ad"/>
      <path id="パス_9180" data-name="パス 9180" d="M1886.509,3328.425a22.762,22.762,0,0,1-8.13-8.07,21.682,21.682,0,0,1,0-22.11,22.959,22.959,0,0,1,8.13-8.13,21.243,21.243,0,0,1,11.04-3.03,21.5,21.5,0,0,1,11.1,3,22.165,22.165,0,0,1,8.07,8.13,22.06,22.06,0,0,1-19.17,33.21A21.386,21.386,0,0,1,1886.509,3328.425Zm19.32-5.16a16.191,16.191,0,0,0,6-5.91,15.944,15.944,0,0,0-5.97-22.14,17.227,17.227,0,0,0-16.65.03,16.148,16.148,0,0,0-6.06,5.88,15.644,15.644,0,0,0-2.22,8.16,15.466,15.466,0,0,0,2.25,8.16,16.132,16.132,0,0,0,6.09,5.85,16.9,16.9,0,0,0,8.34,2.13A16.274,16.274,0,0,0,1905.829,3323.265Z" fill="#c9a1ad"/>
      <path id="パス_9181" data-name="パス 9181" d="M1875.829,3228.706h44.82v.18l-32.34,31.86,30.9-.121v5.88h-44.7v-.3l32.7-31.8-31.38.119Z" fill="#c9a1ad"/>
      <path id="パス_9182" data-name="パス 9182" d="M1918.519,3178.875a20.278,20.278,0,0,1,1.17,6.991,22.958,22.958,0,0,1-2.94,11.73,20.308,20.308,0,0,1-7.92,7.8,22.446,22.446,0,0,1-10.98,2.73,23.984,23.984,0,0,1-11.55-2.759,20.416,20.416,0,0,1-8.04-7.651,21.224,21.224,0,0,1-2.91-11.07,23.6,23.6,0,0,1,.96-6.839,23.917,23.917,0,0,1,2.52-5.7l5.46,2.34a17.791,17.791,0,0,0-3.36,10.02,14.441,14.441,0,0,0,2.22,7.77,16.365,16.365,0,0,0,6.03,5.7,16.867,16.867,0,0,0,8.37,2.129,18.177,18.177,0,0,0,8.46-1.949,14.318,14.318,0,0,0,5.91-5.58,17.354,17.354,0,0,0-1.17-18.511l5.22-2.46A25.837,25.837,0,0,1,1918.519,3178.875Z" fill="#c9a1ad"/>
      <path id="パス_9183" data-name="パス 9183" d="M1875.829,3124.787h5.58v22.379h13.2v-19.98h5.58v19.98h13.38v-23.219h5.64v29.039h-43.38Z" fill="#c9a1ad"/>
      <path id="パス_9184" data-name="パス 9184" d="M1879.369,3080.3q3.54-3.988,9.9-3.989a16.12,16.12,0,0,1,6.84,1.469,11.755,11.755,0,0,1,5.16,4.741,15.7,15.7,0,0,1,1.98,8.25v6.419h15.96v5.82h-43.38v-11.639Q1875.829,3084.287,1879.369,3080.3Zm16.92,5.4a7.606,7.606,0,0,0-3.21-2.79,9.051,9.051,0,0,0-3.69-.841,8.4,8.4,0,0,0-5.55,2.04q-2.43,2.042-2.43,6.361v6.719h16.2v-6.419A8.877,8.877,0,0,0,1896.289,3085.7Z" fill="#c9a1ad"/>
      <path id="パス_9185" data-name="パス 9185" d="M1875.829,3030.887h5.58v11.64h37.8v5.82h-37.8v11.34h-5.58Z" fill="#c9a1ad"/>
    </g>
  </g>
</svg>
