<svg xmlns="http://www.w3.org/2000/svg" width="342.211" height="62.89" viewBox="0 0 342.211 62.89">
  <g id="グループ_96" data-name="グループ 96" transform="translate(0.504 0.5)">
    <g id="グループ_93" data-name="グループ 93" transform="translate(1.829 0.686)">
      <g id="グループ_92" data-name="グループ 92" transform="translate(0 0)">
        <path id="パス_324" data-name="パス 324" d="M215.826,2463.008c-1.149,0-2.35.086-3.5.086-.661,0-.67-.287-.439-1.15l.485-1.81c.239-.891.381-1.207,1.1-1.207,1.149,0,2.275.086,3.424.086h2.5c1.063,0,1.228-.4,1.806-1.379.785-1.322,1.624-2.844,2.281-4.224.142-.316.292-.661.637-.661a8.771,8.771,0,0,1,1.386.4c1.7.517,2.631.69,2.469,1.293-.069.259-.33.373-.62.489-.448.173-.715.632-1.2,1.493-.215.374-.446.8-.793,1.351a2.18,2.18,0,0,0-.321.661c-.154.574.449.574.852.574h8.074c1.149,0,2.293-.086,3.442-.086.747,0,.719.316.481,1.207l-.446,1.667c-.262.977-.4,1.293-1.122,1.293-1.149,0-2.275-.086-3.425-.086h-.4c-.23,0-.546,0-.6.2-.039.144.168.23.3.287.314.115.971.345.863.747-.069.259-.482.4-.706.489-.636.229-.7.344-.993.919a24.1,24.1,0,0,1-2.936,4.31,2.707,2.707,0,0,0-.62.919c-.131.489.44.718.738.891a35.628,35.628,0,0,1,4.137,2.787c.362.259.511.345.411.718-.292,1.093-1.812,3.333-2.818,3.333-.288,0-.584-.287-.768-.459-.842-.719-4.646-3.678-5.594-3.678a1.737,1.737,0,0,0-.816.259c-3.3,2.011-8.152,3.189-11.652,3.706-.389.058-1.441.23-1.757.23-1.322,0-1.077-2.414-.808-3.419.162-.6.65-.6,1.585-.661a32.354,32.354,0,0,0,8.583-1.581c.672-.258.881-.287.943-.517.054-.2-.111-.23-.681-.46-.728-.287-1.476-.6-2.224-.92a1,1,0,0,0-.429-.115c-.316,0-.477.173-.661.431-.4.517-.644.689-.961.689-1.034,0-3.125-.776-2.909-1.58a27.371,27.371,0,0,1,1.963-2.5c1-1.264,2.12-2.873,3.114-4.224a.855.855,0,0,0,.171-.316c.131-.488-.444-.488-.674-.488Zm7.068,0c-.891,0-1.046.259-1.894,1.494-.332.489-.76,1.121-1.357,1.954a1.851,1.851,0,0,0-.305.6c-.116.431.175.632.518.747.9.287,2.753,1.092,3.63,1.465a.773.773,0,0,0,.45.144c.489,0,1.158-.89,1.991-2.069a24.8,24.8,0,0,0,2.236-3.735c.162-.6-.442-.6-.873-.6Z" transform="translate(-208.657 -2452.291)" fill="#fff"/>
        <path id="パス_325" data-name="パス 325" d="M384.829,2469.259a8.327,8.327,0,0,1,1.067,7.384,15.313,15.313,0,0,1-8.331,9.539,14.184,14.184,0,0,1-3.765,1.293c-1.006,0-1.82-2.643-1.6-3.448.069-.259.359-.373,1.246-.574,3.564-.862,6.855-2.96,7.841-6.637,1.209-4.511-1.762-6.292-2.624-6.292-.488,0-.685.517-.852,1.034-1.386,3.994-3.844,8.878-7.334,12.039-1.41,1.293-3.081,2.385-4.805,2.385a3.649,3.649,0,0,1-3.574-2.959,9.1,9.1,0,0,1,.207-4.31c1.848-6.9,8.633-12.383,15.557-12.383C380.787,2466.328,383.314,2467.19,384.829,2469.259Zm-18.234,9.4c-.185.69-.574,2.787.431,2.787.69,0,2.174-1.9,2.624-2.5a33.619,33.619,0,0,0,3.781-7.355c.062-.23,0-.431-.258-.431C372.34,2471.155,367.9,2473.8,366.6,2478.654Z" transform="translate(-327.862 -2462.851)" fill="#fff"/>
        <path id="パス_326" data-name="パス 326" d="M521.359,2466.844a.607.607,0,0,0,.589.8H527c1.293,0,2.609-.086,3.9-.086.747,0,.72.316.466,1.264l-.462,1.724c-.254.949-.4,1.293-1.151,1.293-1.293,0-2.563-.086-3.856-.086h-5.057a1.154,1.154,0,0,0-1.02.8l-.947,3.534c-.177.661-.276,1.35-.452,2.011-.939,3.5-4.637,3.792-7.309,3.792-.833,0-1.63-.029-1.732-.718a11.535,11.535,0,0,1,.41-2.815c.131-.489.3-.891.871-.891.2,0,.5.058.674.058.366.028.81.086,1.184.086,1.638,0,1.692-.2,2.053-1.551l.939-3.505a.6.6,0,0,0-.589-.8h-5.143c-1.293,0-2.609.086-3.9.086-.776,0-.741-.345-.479-1.322l.447-1.667c.254-.948.4-1.293,1.151-1.293,1.293,0,2.592.086,3.884.086h5.028a1.122,1.122,0,0,0,1.15-.862l.131-.489c.162-.6.333-1.35.437-1.954.023-.085.025-.2.048-.287.108-.4.41-.46.726-.46h.287a2.433,2.433,0,0,0,1.562-.574c.073-.058.211-.144.386-.259a13.735,13.735,0,0,0,2.032-1.58c.054-.2-.32-.2-.78-.2h-5.89c-1.178,0-2.379.086-3.557.086-.747,0-.712-.345-.458-1.293l.462-1.723c.254-.949.4-1.293,1.151-1.293,1.12,0,2.3.086,3.511.086h8.16c1.293,0,2.565-.029,3.858-.029a1.4,1.4,0,0,1,1.508.8c.252.345.772.977.634,1.494-.346,1.293-7.423,5.4-8.867,6.178a1.879,1.879,0,0,0-.979,1.292Z" transform="translate(-439.336 -2455.408)" fill="#fff"/>
        <path id="パス_327" data-name="パス 327" d="M684.808,2469.259a8.328,8.328,0,0,1,1.067,7.384,15.315,15.315,0,0,1-8.331,9.539,14.19,14.19,0,0,1-3.766,1.293c-1.005,0-1.82-2.643-1.6-3.448.069-.259.359-.373,1.246-.574,3.564-.862,6.855-2.96,7.841-6.637,1.209-4.511-1.762-6.292-2.624-6.292-.488,0-.684.517-.852,1.034-1.386,3.994-3.844,8.878-7.334,12.039-1.409,1.293-3.081,2.385-4.8,2.385a3.649,3.649,0,0,1-3.574-2.959,9.088,9.088,0,0,1,.206-4.31c1.848-6.9,8.634-12.383,15.558-12.383C680.766,2466.328,683.294,2467.19,684.808,2469.259Zm-18.233,9.4c-.185.69-.575,2.787.431,2.787.689,0,2.174-1.9,2.623-2.5a33.607,33.607,0,0,0,3.781-7.355c.062-.23,0-.431-.258-.431C672.319,2471.155,667.875,2473.8,666.574,2478.654Z" transform="translate(-561.185 -2462.851)" fill="#fff"/>
        <path id="パス_328" data-name="パス 328" d="M839.551,2450.768c.8,0,1.489-.086,2.063-.086.69,0,.67.287.424,1.207l-.362,1.35c-.246.919-.381,1.207-1.071,1.207-.431,0-.846-.058-1.249-.058h-3.936c-.948,0-1.107.489-1.323,1.293l-4.5,16.779c-.393,1.466-.72,2.9-1.113,4.367-.246.92-.384,1.006-1.333,1.006H825.49c-.747,0-.9-.086-.673-.919.4-1.494.851-2.96,1.251-4.454l4.712-17.584c.277-1.035.46-2.04.737-3.074.254-.948.752-1.092,1.586-1.092.6,0,1.162.058,1.737.058Z" transform="translate(-687.831 -2450.682)" fill="#fff"/>
        <path id="パス_329" data-name="パス 329" d="M946.922,2455.179c.322.086.607.2.561.373-.038.144-.278.288-.685.518a7.467,7.467,0,0,0-.948,1.609,1.683,1.683,0,0,0-.119.23c-.023.086-.083.2-.114.316-.046.173.036.4.237.4a3.661,3.661,0,0,0,.678-.172,1.8,1.8,0,0,1,.519-.115c.259,0,.306.143.287.431a28.637,28.637,0,0,1-.513,2.988c-.177.661-.61.776-2.959,1.178-1.052.172-1.134.374-1.725,1.293-.843,1.322-1.735,2.615-2.656,3.907-1.2,1.7-2.439,3.419-3.768,5.057-.338.4-.748.862-1.013,1.207a.824.824,0,0,1-.748.431c-.977,0-3.411-1.207-3.211-1.954a7.156,7.156,0,0,1,.911-1.149c.836-.977,5.5-6.695,5.693-7.413.077-.287-.143-.431-.373-.431-.172,0-.762.057-.971.086-.323.029-.943.086-1.287.086-.6,0-.793-.259-.34-2.7.033-.23.114-.747.183-1.006a.643.643,0,0,1,.713-.517c.488,0,1.163.058,1.795.058,2.615,0,3-.058,3.491-.8a23.758,23.758,0,0,0,1.912-4.453c.061-.23.123-.46.324-.46C943.169,2454.173,946.387,2455.035,946.922,2455.179Zm1.433,9.022c.458.115.662.316.524.833-.077.287-.273.8-.412,1.322-.385,1.437-.647,2.844-.939,4.252-.156.689-.058.862.533,1.121.72.316,3.886,2.011,3.67,2.815-.169.632-2.41,2.989-3.329,2.989-.23,0-.563-.259-1.064-.747a6.067,6.067,0,0,0-.43-.431.5.5,0,0,0-.414-.173.9.9,0,0,0-.763.489,7.5,7.5,0,0,1-1.339,1.351,6.181,6.181,0,0,1-3.769,1.092c-2.73,0-5.22-1.322-4.388-4.424.77-2.873,3.629-4.109,6.186-4.109h.23a.874.874,0,0,0,.874-.689c.131-.489.557-3.046.7-3.908a11.208,11.208,0,0,1,.247-1.35.959.959,0,0,1,1.086-.833A15.006,15.006,0,0,1,948.355,2464.2Zm-7.867,10.487c-.154.574.344.862.832.862a1.087,1.087,0,0,0,1.145-.948c.1-.374.156-.689-.677-.689A1.273,1.273,0,0,0,940.488,2474.688Zm13.61-13.906c.5.6,1.847,2.327,1.686,2.931-.239.891-3.1,2.873-3.815,2.873-.345,0-.488-.431-.6-.747a12.372,12.372,0,0,0-2.6-3.707c-.184-.172-.417-.374-.356-.6.123-.459,2.593-2.815,3.4-2.815C952.354,2458.713,953.754,2460.35,954.1,2460.781Z" transform="translate(-770.286 -2453.397)" fill="#fff"/>
        <path id="パス_330" data-name="パス 330" d="M1103.8,2460.106c.356.172.469.287.415.488-.046.172-.14.2-.3.259a3.953,3.953,0,0,0-1.718,1.695,17.571,17.571,0,0,0-2.067,4.281c-.046.173-.131.489.128.489.173,0,.326-.143.606-.546.228-.316.5-.69.817-.69.287,0,1.385.833,1.262,1.293a1.92,1.92,0,0,1-.246.488c-1.092,1.609-2.856,4.224-3.294,5.862l-.192.718c-.177.661-.857.948-1.457,1.149a5.879,5.879,0,0,1-1.8.373c-.891,0-.972-.661-1.017-1.35a23.873,23.873,0,0,1,.863-6.867,35.223,35.223,0,0,1,2.383-6.321c.373-.747.782-1.523,1.162-2.3.246-.488.4-.833.654-.833C1100.546,2458.3,1102.778,2459.617,1103.8,2460.106Zm7.4-2.1a16.211,16.211,0,0,1,2.276-.345c.546,0,.607.2.587.919a41.458,41.458,0,0,1-1.428,8.763c-1.324,4.942-3.3,9.194-7.824,12.9-.7.574-2.238,1.81-3.042,1.81-.46,0-1.085-.776-1.345-1.092-.541-.661-1-1.207-.867-1.7.046-.172.2-.316.643-.574a15.831,15.831,0,0,0,4.853-4.281,19.053,19.053,0,0,0,2.97-6.58,36.281,36.281,0,0,0,1.231-8.562,2.316,2.316,0,0,1,.087-.431C1109.458,2458.382,1109.863,2458.268,1111.2,2458.009Z" transform="translate(-897.987 -2456.112)" fill="#fff"/>
        <path id="パス_331" data-name="パス 331" d="M1237.815,2453.1c.507.143,1.3.4,1.223.689-.038.144-.234.229-.364.287-.456.2-.694.661-1.207,1.609q-.19.389-.513.948c-.06.115-.119.23-.127.259-.092.345.091.517.407.517a15.244,15.244,0,0,0,2.527-.747,3.011,3.011,0,0,1,.772-.2c.776,0,.013,2.844-.218,3.706-.108.4-.269.575-.767.719-1.249.374-3.2.8-4.386,1.034-1.3.259-1.4.287-2.021,1.322a116.364,116.364,0,0,1-8.919,12.7c-.33.374-.587.689-1.075.689s-3.13-1.293-2.9-2.155a3.822,3.822,0,0,1,.875-1.121,64.909,64.909,0,0,0,7.245-9.453,2.57,2.57,0,0,0,.378-.661c.108-.4-.185-.488-.5-.488-.575,0-1.287.086-1.919.086-.6,0-.954-.086-.957-.719a21.94,21.94,0,0,1,.5-3.045c.1-.374.234-.661.694-.661.287,0,1.542.143,3.036.143,1.437,0,1.9,0,2.318-.718a39.154,39.154,0,0,0,2.25-5.286c.046-.173.142-.316.315-.316C1234.857,2452.233,1237.336,2452.951,1237.815,2453.1Zm-5.522,17.928c.8,1.408,2.9,1.724,4.624,1.724a15.444,15.444,0,0,0,4.5-.6,1.182,1.182,0,0,1,.332-.058c.459,0,.348.632.1,1.552l-.231.862c-.423,1.581-.516,1.925-1.071,2.069a35.594,35.594,0,0,1-4.956.374c-2.04,0-4.758-.258-6.122-1.494-.367-.345-1.071-1.149-.894-1.81a9.888,9.888,0,0,1,1.993-2.183c.3-.259.97-.833,1.315-.833C1232.085,2470.622,1232.216,2470.88,1232.293,2471.024Zm5.156-8.734a22.808,22.808,0,0,1,6.291.862c.372.115.657.23.534.689a13.344,13.344,0,0,1-1.709,3.16.839.839,0,0,1-.638.345,2,2,0,0,1-.664-.2,11.169,11.169,0,0,0-4.734-.775h-1.034c-.661,0-.839-.087-.7-.6C1235.679,2462.461,1236.3,2462.289,1237.449,2462.289Z" transform="translate(-995.46 -2451.888)" fill="#fff"/>
        <path id="パス_332" data-name="パス 332" d="M1388.221,2475.263c.272.058.565.144.5.4-.031.115-.14.2-.38.344a2.825,2.825,0,0,0-.885,1.264A25.091,25.091,0,0,0,1386,2481.3a12.806,12.806,0,0,0-.444,5.516c.1.489.37,1.408,1,1.408.661,0,1.637-1.178,2.019-1.638a1.617,1.617,0,0,1,1.083-.718c.862,0,2.549,1.638,2.365,2.327s-1.914,2.213-2.549,2.759c-1.306,1.121-2.565,2.069-4.146,2.069a4.33,4.33,0,0,1-3.848-2.9c-1.326-2.988-.4-7.183.544-10.717.146-.546,1.193-4.023,1.33-4.425a.591.591,0,0,1,.611-.46C1384.342,2474.516,1387.542,2475.12,1388.221,2475.263Zm10.762-.919c.776,0,2.568,1.782,3.286,3.822a13.207,13.207,0,0,1,.548,5.89c-.066.46-.165,1.15-.257,1.494a1.209,1.209,0,0,1-1,1.034,11.336,11.336,0,0,1-2.86.489c-1.063,0-.991-.373-.785-1.465.665-3.448.19-6.177-2.016-8.131a.453.453,0,0,1-.156-.489C1395.924,2476.326,1398.122,2474.344,1398.984,2474.344Z" transform="translate(-1120.364 -2469.086)" fill="#fff"/>
        <path id="パス_333" data-name="パス 333" d="M1512.442,2477.876c-.8,0-1.489.087-2.063.087-.69,0-.67-.287-.424-1.207l.362-1.35c.246-.919.381-1.207,1.07-1.207.431,0,.847.058,1.249.058h3.937c.948,0,1.108-.488,1.323-1.293l4.5-16.779c.393-1.465.72-2.9,1.113-4.367.246-.919.384-1.006,1.332-1.006h1.667c.747,0,.9.086.673.92-.4,1.494-.85,2.959-1.251,4.453l-4.712,17.584c-.277,1.034-.46,2.04-.737,3.074-.254.948-.752,1.092-1.586,1.092-.6,0-1.163-.058-1.737-.058Z" transform="translate(-1220.682 -2450.782)" fill="#fff"/>
        <path id="パス_334" data-name="パス 334" d="M1633.738,2464.029c.505-.919.956-1.637,1.44-2.586.127-.259.29-.546.577-.546a40.528,40.528,0,0,1,3.7,1.724c.456.229.582.4.536.574s-.177.23-.336.288a3.4,3.4,0,0,0-1.714,1.465,27.906,27.906,0,0,0-4.026,8.591c-.162.6-.323,1.207-.036,1.207.23,0,.37-.2.5-.373.472-.69.737-1.035,1-1.035.4,0,1.614.948,1.5,1.379-.139.517-2.595,3.678-3.118,5.631-.085.316-.158.8-.222,1.15a3.477,3.477,0,0,1-.11.517c-.208.775-1.214,1.206-1.916,1.465a6.012,6.012,0,0,1-1.565.374c-.517,0-.653-.46-.8-1.092a20.175,20.175,0,0,1,.69-9.223A44.723,44.723,0,0,1,1633.738,2464.029Zm16.824-2.528c.136.029.35.086.3.287a1.376,1.376,0,0,1-.368.517,5.714,5.714,0,0,0-1.195,2.529c-.108.4.016.689.448.689a21.817,21.817,0,0,0,2.257-.488,5.332,5.332,0,0,1,.793-.173c.431,0,.392.575.363,1.006a12.157,12.157,0,0,1-.294,2.385c-.193.718-.49.862-3.766,1.293-.655.086-1.01.23-1.2.948-.1.374-.974,4.281-1.054,4.683-.127.689.116.747.734,1.121a11.225,11.225,0,0,1,2.489,2.184,1.315,1.315,0,0,1,.338,1.207c-.216.8-2.116,2.643-2.978,2.643-.431,0-.762-.374-1.211-.948-.084-.115-.176-.2-.26-.316-.126-.172-.252-.344-.482-.344-.258,0-.383.143-.669.459a6.811,6.811,0,0,1-4.99,1.9c-2.615,0-4.883-1.293-4.09-4.252.754-2.816,3.514-4.109,6.043-4.109h.661a.864.864,0,0,0,.882-.718c.177-.661.4-2.011.518-2.471.262-.977.27-1.437-.362-1.437-.517,0-2.53.115-3.737.115h-.431c-.661,0-1.22-.057-1.36-.287a14.646,14.646,0,0,1,.6-3.218c.1-.374.294-.776.753-.776.173,0,1.04.086,1.291.115,1.147.115,2.31.172,3.459.172a.942.942,0,0,0,1.018-.69c.162-.6.608-3.448.777-4.08.092-.344.246-.488.591-.488C1647.031,2460.955,1649.875,2461.385,1650.563,2461.5Zm-11.159,17.411c-.154.574.689.862,1.292.862a1.45,1.45,0,0,0,1.562-1.005c.154-.575-.729-.6-1.16-.6S1639.574,2478.28,1639.4,2478.912Z" transform="translate(-1313.296 -2458.627)" fill="#fff"/>
        <path id="パス_335" data-name="パス 335" d="M476.292,2626.141a1.731,1.731,0,0,1-.689.747c-3.691,2.729-7.908,7.211-9.017,11.349-.578,2.155-.1,3.707,2.225,3.707a7.116,7.116,0,0,0,4.8-2.155c1.968-1.982,3.138-5.172,3.785-7.585a16.552,16.552,0,0,0,.608-7.1,1.76,1.76,0,0,1,.039-.575c.231-.862,3.164-1.408,3.854-1.408.891,0,.846.489.753,1.264a14.742,14.742,0,0,0,1.991,8.332c.013.058.056.115.069.173a1.369,1.369,0,0,1,.213.919c-.116.431-.725.776-1.436,1.178a8.924,8.924,0,0,1-2.194,1.005c-.4,0-.58-.517-.667-.833-.026-.115-.08-.345-.252-.345-.287,0-.349.23-.5.689a18.826,18.826,0,0,1-2.869,5.775,12.21,12.21,0,0,1-9.15,4.769c-4.539,0-6.574-3.132-5.38-7.585a19.411,19.411,0,0,1,3.4-6.58,1.1,1.1,0,0,0,.207-.344c.031-.115-.025-.23-.14-.23a1.23,1.23,0,0,0-.441.144,1.525,1.525,0,0,1-.592.172c-.718,0-.938-3.362-.753-4.051.123-.46.455-.518,1.339-.6a20.9,20.9,0,0,0,4.33-.719,5.559,5.559,0,0,0,2.931-2.04c.294-.344.712-.833,1.143-.833C474.819,2623.383,476.515,2625.307,476.292,2626.141Z" transform="translate(-405.814 -2584.807)" fill="#fff"/>
        <path id="パス_336" data-name="パス 336" d="M617.3,2621.285a21.978,21.978,0,0,1,2.389-.23c.776,0,.818.058.442,2.212a21.916,21.916,0,0,0-.443,3.477c-.006.345.03.747.461.747a27.189,27.189,0,0,0,4.243-1.9,14.352,14.352,0,0,1,2.578-1.149c.316,0,.681.891.906,1.552a6.641,6.641,0,0,1,.516,2.471c-.085.316-.431.431-1.089.632-.13.058-.282.086-.441.144a67.109,67.109,0,0,0-10.267,4.539c-1.61.862-3.939,2.155-4.34,3.649-.516,1.925,3.133,1.925,4.455,1.925a37.611,37.611,0,0,0,4.429-.23c.627-.086,2.693-.4,3.192-.546.086,0,.209-.029.295-.029.288,0,.243.489.21.719-.137.833-.362,1.781-.586,2.615-.231.862-.329,1.121-1.13,1.322a60.559,60.559,0,0,1-8,.488c-2.27,0-4.214-.144-5.917-1.293a4.309,4.309,0,0,1-1.557-4.913c.762-2.844,3.441-5.229,6.1-6.695.5-.259.8-.4.928-.891a2.217,2.217,0,0,0,.012-.69c-.022-.776-.008-1.581.014-2.414a37.483,37.483,0,0,0-.029-4.4,1.372,1.372,0,0,1,.006-.345C614.771,2621.716,615.162,2621.544,617.3,2621.285Z" transform="translate(-518.83 -2583.198)" fill="#fff"/>
        <path id="パス_337" data-name="パス 337" d="M772.668,2638.224a6.5,6.5,0,0,1,.658,5.373c-1.263,4.712-5.594,7.9-10.133,9.51a27.559,27.559,0,0,1-6.16,1.437c-.661,0-.817-.489-.93-1.034a8.472,8.472,0,0,1-.159-2.73c.154-.574.817-.689,1.284-.718a18.128,18.128,0,0,0,5.9-1.322c2.417-.977,4.888-2.586,5.573-5.143.577-2.155-.747-3.218-2.729-3.218-3.85,0-8.542,2.069-12.3,3.879a1.937,1.937,0,0,1-.939.287c-1.235,0-2.187-2.988-1.879-4.137.116-.431.52-.546.888-.632,2.757-.747,5.5-1.667,8.226-2.5a24.1,24.1,0,0,1,7.056-1.351C769.319,2635.925,771.485,2636.529,772.668,2638.224Z" transform="translate(-630.328 -2594.763)" fill="#fff"/>
        <path id="パス_338" data-name="パス 338" d="M919.678,2624.344c.343.115.6.23.553.4-.031.115-.133.173-.263.23a2.217,2.217,0,0,0-1.015,1.322,66.222,66.222,0,0,0-3.8,10.746c-.6,2.241-1.232,4.6,1.067,4.6a8.323,8.323,0,0,0,5.28-2.442,12.978,12.978,0,0,0,2.963-4.2c.233-.545.486-1.063.974-1.063.632,0,1.286.776,1.638,1.178.394.46,1.048,1.236.856,1.954a14.711,14.711,0,0,1-2.183,3.534c-2.747,3.39-6.594,5.631-10.53,5.631-2.04,0-4.039-.69-4.914-2.356-.944-1.839-.3-4.885.315-7.184.885-3.3,2.058-6.608,3.181-9.941.234-.661.509-1.581.687-2.241.169-.632.269-1.006.758-1.006A36.831,36.831,0,0,1,919.678,2624.344Zm4.954,2.1c.3.374,1.648,2.212,1.525,2.672a4.628,4.628,0,0,1-2.147,1.581c-.172,0-.283-.23-.331-.373a26.108,26.108,0,0,0-1.4-2.3c-.084-.115-.211-.288-.172-.431a5.127,5.127,0,0,1,2.2-1.437C924.451,2626.155,924.569,2626.356,924.632,2626.442Zm3.844-2.442c.26.316.526.718.813,1.149a3.685,3.685,0,0,1,.754,1.58,4.722,4.722,0,0,1-2.118,1.581c-.086,0-.207-.086-.339-.345a16.912,16.912,0,0,0-1.453-2.3c-.126-.172-.2-.316-.172-.431.123-.46,1.908-1.437,2.195-1.437A.439.439,0,0,1,928.476,2624Z" transform="translate(-754.026 -2585.108)" fill="#fff"/>
        <path id="パス_339" data-name="パス 339" d="M1046.408,2647.907a7.585,7.585,0,0,1,1.086-1.7c.485-.632.721-.977,1.152-.977a13.912,13.912,0,0,1,2.826,1.034c.335.144,1.026.46.9.948-.038.144-.105.287-.136.4-.069.259.044.374.3.374.2,0,.569-.086,1.316-.086,2.7,0,4.252,1.609,3.5,4.425-1.194,4.454-6.882,5.632-7.772,5.632-.948,0-1.043-2.327-.935-2.729.116-.431.434-.546.823-.6,1.174-.2,3.784-.718,4.177-2.184a.882.882,0,0,0-.9-1.235,15.251,15.251,0,0,0-5.385,1.867,1.076,1.076,0,0,0-.551.661c-.185.689,1.67,5.775,2.035,6.666a1.264,1.264,0,0,1,.1.69c-.169.632-2.776,1.781-3.379,1.781a.474.474,0,0,1-.475-.374c-.2-.632-1.235-4.827-1.5-5.861-.141-.546-.2-.862-.631-.862a6.576,6.576,0,0,0-1.873,1.092,3.556,3.556,0,0,0-.32.23,1.111,1.111,0,0,1-.558.259c-.69,0-1.43-2.385-1.284-2.931.077-.287.439-.459.708-.6,1.681-.8,2.486-1.236,2.64-1.811a6.2,6.2,0,0,0-.683-2.385c-.174-.316-.272-.488-.218-.689.1-.374.728-.575,2.153-1.063.375-.115.824-.287,1.33-.46a2.47,2.47,0,0,1,.707-.172c.2,0,.392.144.338.345a4.372,4.372,0,0,0-.261.546,2.363,2.363,0,0,0,.057.862c.112.546.044,1.12.647,1.12a3.171,3.171,0,0,0,1.027-.4c.3-.144.586-.259.656-.517.062-.23-.03-.316-.208-.4q-.322-.086-.557-.173C1046.664,2648.453,1046.292,2648.338,1046.408,2647.907Z" transform="translate(-854.414 -2602.005)" fill="#fff"/>
        <path id="パス_340" data-name="パス 340" d="M1175.057,2617.147c.322.086.607.2.561.374-.038.144-.278.288-.684.517a7.481,7.481,0,0,0-.948,1.609,1.7,1.7,0,0,0-.119.23c-.023.086-.083.2-.113.316-.046.172.036.4.237.4a3.628,3.628,0,0,0,.678-.172,1.788,1.788,0,0,1,.519-.115c.259,0,.306.144.287.431a28.8,28.8,0,0,1-.514,2.988c-.177.661-.61.775-2.959,1.178-1.052.173-1.134.373-1.725,1.293-.843,1.322-1.735,2.615-2.656,3.907-1.2,1.7-2.439,3.419-3.769,5.057-.338.4-.748.862-1.013,1.207a.823.823,0,0,1-.748.431c-.976,0-3.411-1.207-3.211-1.954a7.154,7.154,0,0,1,.911-1.149c.836-.977,5.5-6.694,5.693-7.412.077-.288-.143-.431-.373-.431-.172,0-.763.058-.971.086-.324.029-.942.086-1.287.086-.6,0-.793-.259-.339-2.7.032-.23.114-.747.183-1.005a.643.643,0,0,1,.713-.518c.488,0,1.163.058,1.795.058,2.615,0,3-.058,3.491-.8a23.7,23.7,0,0,0,1.911-4.454c.062-.229.123-.46.324-.46C1171.3,2616.141,1174.521,2617,1175.057,2617.147Zm1.433,9.022c.457.115.662.316.523.833-.077.287-.273.8-.412,1.321-.385,1.437-.647,2.844-.938,4.252-.156.69-.058.863.533,1.121.72.316,3.886,2.012,3.67,2.816-.17.632-2.41,2.989-3.329,2.989-.23,0-.563-.259-1.064-.747-.134-.144-.268-.287-.431-.431a.5.5,0,0,0-.413-.172.9.9,0,0,0-.763.489,7.5,7.5,0,0,1-1.339,1.35,6.182,6.182,0,0,1-3.769,1.092c-2.729,0-5.22-1.322-4.389-4.424.77-2.874,3.629-4.109,6.187-4.109h.229a.874.874,0,0,0,.874-.689c.131-.488.557-3.045.7-3.908a11.125,11.125,0,0,1,.247-1.35.959.959,0,0,1,1.085-.833A15.029,15.029,0,0,1,1176.489,2626.168Zm-7.867,10.487c-.154.574.344.862.832.862a1.088,1.088,0,0,0,1.145-.948c.1-.374.156-.689-.677-.689A1.273,1.273,0,0,0,1168.622,2636.656Zm13.61-13.906c.5.6,1.847,2.328,1.686,2.931-.239.891-3.1,2.874-3.815,2.874-.345,0-.488-.431-.6-.747a12.373,12.373,0,0,0-2.6-3.707c-.184-.172-.417-.373-.356-.6.123-.46,2.593-2.816,3.4-2.816C1180.488,2620.681,1181.888,2622.319,1182.232,2622.749Z" transform="translate(-947.728 -2579.376)" fill="#fff"/>
        <path id="パス_341" data-name="パス 341" d="M1318.962,2637.232c.272.058.565.144.5.4-.031.115-.14.2-.38.345a2.823,2.823,0,0,0-.885,1.264,25.063,25.063,0,0,0-1.451,4.022,12.813,12.813,0,0,0-.444,5.517c.1.488.37,1.408,1,1.408.66,0,1.637-1.178,2.019-1.638a1.614,1.614,0,0,1,1.083-.718c.862,0,2.549,1.637,2.364,2.327s-1.915,2.212-2.549,2.759c-1.306,1.12-2.566,2.068-4.146,2.068a4.33,4.33,0,0,1-3.848-2.9c-1.326-2.988-.4-7.183.544-10.717.146-.546,1.193-4.022,1.329-4.425a.591.591,0,0,1,.612-.459C1315.082,2636.485,1318.282,2637.089,1318.962,2637.232Zm10.762-.919c.776,0,2.568,1.781,3.286,3.821a13.215,13.215,0,0,1,.548,5.891c-.066.459-.164,1.149-.257,1.494a1.209,1.209,0,0,1-1,1.035,11.37,11.37,0,0,1-2.86.489c-1.063,0-.992-.374-.785-1.466.665-3.448.19-6.177-2.016-8.131a.453.453,0,0,1-.157-.488C1326.664,2638.3,1328.862,2636.313,1329.724,2636.313Z" transform="translate(-1066.494 -2595.065)" fill="#fff"/>
      </g>
    </g>
    <g id="グループ_95" data-name="グループ 95" transform="translate(0 0)">
      <g id="グループ_94" data-name="グループ 94">
        <path id="パス_342" data-name="パス 342" d="M207.6,2459.922c-1.149,0-2.35.086-3.5.086-.661,0-.67-.288-.439-1.15l.485-1.811c.239-.89.381-1.206,1.1-1.206,1.149,0,2.275.086,3.425.086h2.5c1.063,0,1.228-.4,1.806-1.379.785-1.322,1.624-2.845,2.281-4.223.142-.316.292-.661.637-.661a8.791,8.791,0,0,1,1.386.4c1.7.517,2.631.689,2.469,1.293-.069.259-.33.373-.619.488-.449.173-.715.632-1.2,1.494-.215.373-.445.8-.793,1.35a2.178,2.178,0,0,0-.321.661c-.154.575.45.575.852.575h8.074c1.149,0,2.293-.086,3.442-.086.747,0,.72.316.481,1.206l-.447,1.667c-.262.978-.4,1.294-1.122,1.294-1.149,0-2.275-.086-3.425-.086h-.4c-.23,0-.546,0-.6.2-.038.144.168.23.3.287.314.115.971.345.863.747-.069.259-.481.4-.705.488-.636.23-.7.345-.993.919a24.084,24.084,0,0,1-2.936,4.31,2.7,2.7,0,0,0-.62.919c-.131.489.44.719.738.891a35.625,35.625,0,0,1,4.138,2.787c.361.259.511.345.411.719-.293,1.092-1.812,3.333-2.818,3.333-.288,0-.584-.287-.767-.46-.842-.719-4.646-3.677-5.594-3.677a1.743,1.743,0,0,0-.817.258c-3.3,2.011-8.152,3.189-11.652,3.706-.389.058-1.441.23-1.757.23-1.322,0-1.077-2.414-.808-3.419.162-.6.65-.6,1.585-.661a32.351,32.351,0,0,0,8.583-1.58c.673-.259.881-.287.943-.517.054-.2-.111-.23-.681-.46-.728-.287-1.476-.6-2.224-.919a.992.992,0,0,0-.429-.115c-.316,0-.477.173-.661.431-.4.518-.644.689-.96.689-1.034,0-3.125-.775-2.91-1.58a27.309,27.309,0,0,1,1.963-2.5c1-1.264,2.12-2.873,3.114-4.224a.855.855,0,0,0,.171-.316c.131-.488-.444-.488-.674-.488Zm7.068,0c-.891,0-1.046.258-1.894,1.494-.332.489-.76,1.12-1.357,1.953a1.854,1.854,0,0,0-.305.6c-.116.431.175.633.518.748.9.287,2.753,1.091,3.63,1.465a.777.777,0,0,0,.45.144c.488,0,1.158-.891,1.991-2.069a24.84,24.84,0,0,0,2.236-3.735c.162-.6-.442-.6-.873-.6Z" transform="translate(-200.426 -2449.205)" fill="none" stroke="#856660" stroke-miterlimit="10" stroke-width="1"/>
        <path id="パス_343" data-name="パス 343" d="M376.6,2466.172a8.328,8.328,0,0,1,1.067,7.384,15.315,15.315,0,0,1-8.331,9.539,14.211,14.211,0,0,1-3.765,1.293c-1.006,0-1.82-2.643-1.6-3.448.069-.259.359-.374,1.246-.575,3.564-.862,6.855-2.959,7.841-6.637,1.209-4.511-1.762-6.292-2.624-6.292-.488,0-.684.517-.852,1.034-1.386,3.993-3.844,8.878-7.334,12.039-1.41,1.293-3.081,2.385-4.8,2.385a3.649,3.649,0,0,1-3.574-2.959,9.088,9.088,0,0,1,.206-4.31c1.848-6.9,8.634-12.384,15.558-12.384C372.556,2463.241,375.084,2464.1,376.6,2466.172Zm-18.234,9.4c-.185.689-.575,2.787.431,2.787.689,0,2.174-1.9,2.623-2.5a33.617,33.617,0,0,0,3.781-7.355c.062-.23,0-.431-.258-.431C364.109,2468.068,359.665,2470.711,358.364,2475.567Z" transform="translate(-319.631 -2459.765)" fill="none" stroke="#856660" stroke-miterlimit="10" stroke-width="1"/>
        <path id="パス_344" data-name="パス 344" d="M513.129,2463.758a.607.607,0,0,0,.589.8h5.057c1.293,0,2.609-.086,3.9-.086.747,0,.72.316.466,1.264l-.462,1.724c-.254.948-.4,1.293-1.151,1.293-1.293,0-2.563-.086-3.856-.086h-5.057a1.154,1.154,0,0,0-1.02.8l-.947,3.534c-.177.661-.276,1.35-.452,2.011-.939,3.505-4.637,3.792-7.309,3.792-.833,0-1.63-.029-1.733-.718a11.561,11.561,0,0,1,.41-2.816c.131-.489.3-.891.871-.891.2,0,.5.058.674.058.366.029.81.086,1.184.086,1.638,0,1.691-.2,2.053-1.552l.939-3.505a.6.6,0,0,0-.589-.8h-5.143c-1.293,0-2.609.086-3.9.086-.776,0-.741-.345-.479-1.321l.446-1.667c.254-.948.4-1.293,1.151-1.293,1.293,0,2.591.086,3.884.086h5.028a1.121,1.121,0,0,0,1.15-.862l.131-.489c.162-.6.333-1.35.437-1.954.023-.086.025-.2.048-.287.108-.4.411-.46.727-.46h.287a2.434,2.434,0,0,0,1.562-.574c.073-.058.211-.144.385-.259a13.684,13.684,0,0,0,2.032-1.58c.054-.2-.32-.2-.779-.2h-5.89c-1.178,0-2.379.086-3.557.086-.747,0-.712-.344-.458-1.292l.462-1.724c.254-.948.4-1.292,1.151-1.292,1.12,0,2.3.086,3.511.086h8.16c1.293,0,2.565-.029,3.857-.029a1.4,1.4,0,0,1,1.508.8c.252.344.772.977.634,1.494-.346,1.293-7.424,5.4-8.867,6.177a1.879,1.879,0,0,0-.979,1.293Z" transform="translate(-431.105 -2452.323)" fill="none" stroke="#856660" stroke-miterlimit="10" stroke-width="1"/>
        <path id="パス_345" data-name="パス 345" d="M676.578,2466.172a8.328,8.328,0,0,1,1.067,7.384,15.315,15.315,0,0,1-8.331,9.539,14.212,14.212,0,0,1-3.766,1.293c-1.005,0-1.82-2.643-1.6-3.448.069-.259.358-.374,1.246-.575,3.564-.862,6.855-2.959,7.841-6.637,1.209-4.511-1.762-6.292-2.624-6.292-.488,0-.685.517-.852,1.034-1.386,3.993-3.844,8.878-7.334,12.039-1.41,1.293-3.081,2.385-4.8,2.385a3.649,3.649,0,0,1-3.574-2.959,9.092,9.092,0,0,1,.206-4.31c1.848-6.9,8.634-12.384,15.558-12.384C672.536,2463.241,675.063,2464.1,676.578,2466.172Zm-18.234,9.4c-.185.689-.574,2.787.431,2.787.689,0,2.174-1.9,2.624-2.5a33.635,33.635,0,0,0,3.781-7.355c.061-.23,0-.431-.258-.431C664.089,2468.068,659.645,2470.711,658.344,2475.567Z" transform="translate(-552.955 -2459.765)" fill="none" stroke="#856660" stroke-miterlimit="10" stroke-width="1"/>
        <path id="パス_346" data-name="パス 346" d="M831.321,2447.681c.8,0,1.489-.087,2.063-.087.69,0,.67.287.424,1.207l-.362,1.35c-.246.919-.381,1.207-1.07,1.207-.431,0-.847-.057-1.249-.057H827.19c-.948,0-1.108.489-1.323,1.293l-4.5,16.779c-.393,1.465-.72,2.9-1.113,4.367-.246.92-.384,1.006-1.332,1.006h-1.666c-.747,0-.9-.086-.673-.919.4-1.494.85-2.959,1.251-4.454l4.711-17.583c.277-1.034.46-2.04.737-3.075.254-.948.752-1.092,1.586-1.092.6,0,1.163.057,1.737.057Z" transform="translate(-679.6 -2447.595)" fill="none" stroke="#856660" stroke-miterlimit="10" stroke-width="1"/>
        <path id="パス_347" data-name="パス 347" d="M938.692,2452.093c.322.086.607.2.561.373-.039.144-.278.287-.685.517a7.5,7.5,0,0,0-.948,1.609,1.687,1.687,0,0,0-.119.23c-.023.086-.083.2-.114.316-.046.172.036.4.237.4a3.621,3.621,0,0,0,.678-.172,1.788,1.788,0,0,1,.519-.115c.259,0,.307.143.287.431a28.628,28.628,0,0,1-.513,2.989c-.177.661-.61.775-2.959,1.177-1.052.173-1.134.374-1.726,1.293-.843,1.322-1.735,2.615-2.656,3.907-1.2,1.7-2.439,3.419-3.768,5.057-.338.4-.748.862-1.013,1.207a.824.824,0,0,1-.747.431c-.977,0-3.412-1.207-3.211-1.954a7.163,7.163,0,0,1,.911-1.149c.836-.977,5.5-6.695,5.693-7.413.077-.287-.143-.431-.373-.431-.173,0-.763.057-.971.086-.323.029-.943.086-1.287.086-.6,0-.793-.258-.34-2.7.033-.23.114-.747.183-1.006a.643.643,0,0,1,.713-.517c.488,0,1.163.058,1.795.058,2.615,0,3-.058,3.491-.805a23.7,23.7,0,0,0,1.911-4.453c.062-.23.123-.459.324-.459C934.939,2451.087,938.156,2451.949,938.692,2452.093Zm1.433,9.022c.457.115.662.316.523.833-.077.287-.273.8-.411,1.322-.385,1.436-.647,2.844-.939,4.252-.156.689-.058.862.533,1.12.72.316,3.886,2.011,3.671,2.816-.17.632-2.41,2.988-3.329,2.988-.23,0-.563-.259-1.064-.747a5.856,5.856,0,0,0-.43-.431.5.5,0,0,0-.413-.173.9.9,0,0,0-.763.489,7.52,7.52,0,0,1-1.338,1.35,6.184,6.184,0,0,1-3.769,1.092c-2.729,0-5.22-1.321-4.388-4.425.77-2.874,3.629-4.109,6.186-4.109h.23a.874.874,0,0,0,.874-.689c.131-.489.558-3.045.7-3.907a11.05,11.05,0,0,1,.247-1.35.959.959,0,0,1,1.085-.833A15.03,15.03,0,0,1,940.125,2461.114Zm-7.867,10.487c-.154.574.344.862.832.862a1.088,1.088,0,0,0,1.145-.948c.1-.373.156-.689-.677-.689A1.273,1.273,0,0,0,932.257,2471.6Zm13.61-13.906c.5.6,1.847,2.327,1.686,2.931-.239.89-3.1,2.873-3.816,2.873-.345,0-.488-.431-.6-.747a12.366,12.366,0,0,0-2.6-3.706c-.184-.172-.417-.373-.356-.6.123-.46,2.593-2.815,3.4-2.815C944.123,2455.627,945.523,2457.264,945.867,2457.7Z" transform="translate(-762.055 -2450.311)" fill="none" stroke="#856660" stroke-miterlimit="10" stroke-width="1"/>
        <path id="パス_348" data-name="パス 348" d="M1095.565,2457.02c.356.172.469.287.415.488-.046.173-.14.2-.3.259a3.948,3.948,0,0,0-1.718,1.7,17.538,17.538,0,0,0-2.067,4.281c-.046.173-.131.488.127.488.172,0,.326-.144.606-.546.228-.316.5-.689.817-.689.288,0,1.386.833,1.262,1.293a1.961,1.961,0,0,1-.246.489c-1.092,1.609-2.855,4.223-3.294,5.861l-.193.719c-.177.661-.857.948-1.457,1.149a5.863,5.863,0,0,1-1.8.374c-.89,0-.972-.661-1.017-1.35a23.883,23.883,0,0,1,.863-6.867,35.18,35.18,0,0,1,2.383-6.321c.372-.747.782-1.523,1.161-2.3.246-.489.4-.833.654-.833C1092.315,2455.209,1094.547,2456.531,1095.565,2457.02Zm7.4-2.1a16.254,16.254,0,0,1,2.276-.344c.546,0,.607.2.587.919a41.452,41.452,0,0,1-1.429,8.763c-1.324,4.942-3.3,9.194-7.824,12.9-.7.574-2.238,1.81-3.042,1.81-.459,0-1.085-.776-1.345-1.092-.541-.661-1-1.207-.867-1.7.046-.173.2-.316.642-.575a15.819,15.819,0,0,0,4.853-4.281,19.058,19.058,0,0,0,2.97-6.579,36.3,36.3,0,0,0,1.231-8.562,2.3,2.3,0,0,1,.087-.431C1101.228,2455.3,1101.632,2455.181,1102.965,2454.922Z" transform="translate(-889.756 -2453.026)" fill="none" stroke="#856660" stroke-miterlimit="10" stroke-width="1"/>
        <path id="パス_349" data-name="パス 349" d="M1229.584,2450.009c.507.144,1.3.4,1.223.69-.038.144-.234.23-.364.287-.456.2-.694.661-1.207,1.61q-.191.387-.512.948c-.06.115-.12.23-.127.258-.092.345.092.517.407.517a15.237,15.237,0,0,0,2.528-.747,3.01,3.01,0,0,1,.772-.2c.776,0,.014,2.845-.217,3.707-.108.4-.269.574-.767.719-1.249.373-3.2.8-4.386,1.034-1.3.259-1.4.287-2.021,1.322a116.3,116.3,0,0,1-8.919,12.7c-.33.373-.587.689-1.075.689s-3.13-1.293-2.9-2.155a3.835,3.835,0,0,1,.875-1.121,64.894,64.894,0,0,0,7.245-9.452,2.584,2.584,0,0,0,.379-.661c.107-.4-.185-.488-.5-.488-.575,0-1.287.086-1.919.086-.6,0-.954-.086-.957-.718a21.986,21.986,0,0,1,.5-3.045c.1-.374.235-.661.694-.661.287,0,1.542.144,3.036.144,1.437,0,1.9,0,2.319-.718a39.164,39.164,0,0,0,2.249-5.287c.046-.172.142-.316.314-.316C1226.626,2449.147,1229.105,2449.865,1229.584,2450.009Zm-5.522,17.929c.8,1.408,2.9,1.724,4.623,1.724a15.451,15.451,0,0,0,4.5-.6,1.2,1.2,0,0,1,.332-.058c.46,0,.348.632.1,1.552l-.231.862c-.423,1.58-.516,1.925-1.071,2.069a35.741,35.741,0,0,1-4.956.374c-2.04,0-4.757-.259-6.121-1.494-.368-.344-1.071-1.149-.894-1.81a9.878,9.878,0,0,1,1.993-2.183c.3-.259.971-.833,1.315-.833C1223.854,2467.535,1223.985,2467.794,1224.062,2467.937Zm5.156-8.734a22.8,22.8,0,0,1,6.291.862c.372.115.657.23.534.69a13.344,13.344,0,0,1-1.709,3.16.84.84,0,0,1-.638.345,2,2,0,0,1-.664-.2,11.161,11.161,0,0,0-4.734-.776h-1.034c-.661,0-.839-.086-.7-.6C1227.448,2459.375,1228.069,2459.2,1229.218,2459.2Z" transform="translate(-987.229 -2448.802)" fill="none" stroke="#856660" stroke-miterlimit="10" stroke-width="1"/>
        <path id="パス_350" data-name="パス 350" d="M1379.991,2472.178c.272.057.565.144.5.4-.031.115-.14.2-.38.345a2.828,2.828,0,0,0-.885,1.264,25.093,25.093,0,0,0-1.452,4.022,12.822,12.822,0,0,0-.444,5.516c.1.488.37,1.408,1,1.408.661,0,1.637-1.178,2.019-1.638a1.615,1.615,0,0,1,1.083-.718c.862,0,2.549,1.638,2.365,2.327s-1.915,2.212-2.549,2.758c-1.306,1.121-2.566,2.069-4.146,2.069a4.331,4.331,0,0,1-3.849-2.9c-1.325-2.988-.4-7.183.544-10.717.146-.546,1.193-4.022,1.329-4.424a.591.591,0,0,1,.612-.46C1376.111,2471.43,1379.311,2472.034,1379.991,2472.178Zm10.762-.92c.776,0,2.568,1.782,3.286,3.821a13.207,13.207,0,0,1,.548,5.89c-.066.46-.164,1.149-.256,1.494a1.209,1.209,0,0,1-1,1.034,11.335,11.335,0,0,1-2.86.488c-1.063,0-.992-.373-.785-1.465.665-3.448.19-6.177-2.016-8.131a.452.452,0,0,1-.156-.488C1387.693,2473.241,1389.891,2471.258,1390.753,2471.258Z" transform="translate(-1112.133 -2466)" fill="none" stroke="#856660" stroke-miterlimit="10" stroke-width="1"/>
        <path id="パス_351" data-name="パス 351" d="M1504.212,2474.79c-.8,0-1.489.086-2.063.086-.689,0-.67-.287-.424-1.206l.362-1.351c.246-.92.381-1.207,1.07-1.207.431,0,.846.058,1.249.058h3.936c.948,0,1.108-.489,1.323-1.293l4.5-16.779c.393-1.465.72-2.9,1.113-4.368.246-.919.384-1.005,1.333-1.005h1.666c.747,0,.9.086.673.919-.4,1.494-.85,2.959-1.25,4.454l-4.712,17.584c-.277,1.034-.46,2.04-.738,3.074-.254.948-.752,1.092-1.585,1.092-.6,0-1.163-.057-1.737-.057Z" transform="translate(-1212.452 -2447.696)" fill="none" stroke="#856660" stroke-miterlimit="10" stroke-width="1"/>
        <path id="パス_352" data-name="パス 352" d="M1625.508,2460.942c.5-.919.956-1.638,1.44-2.586.127-.259.29-.546.577-.546a40.368,40.368,0,0,1,3.7,1.724c.456.23.582.4.536.574s-.177.23-.336.287a3.4,3.4,0,0,0-1.714,1.466,27.913,27.913,0,0,0-4.026,8.591c-.161.6-.323,1.207-.036,1.207.23,0,.37-.2.5-.373.472-.69.737-1.034,1-1.034.4,0,1.613.948,1.5,1.379-.139.517-2.595,3.678-3.118,5.632-.084.316-.158.8-.222,1.149a3.528,3.528,0,0,1-.11.518c-.208.776-1.214,1.207-1.915,1.465a6.021,6.021,0,0,1-1.565.374c-.517,0-.653-.46-.8-1.092a20.176,20.176,0,0,1,.689-9.223A44.74,44.74,0,0,1,1625.508,2460.942Zm16.825-2.528c.136.029.35.086.3.287a1.378,1.378,0,0,1-.369.517,5.717,5.717,0,0,0-1.195,2.528c-.108.4.016.69.447.69a21.761,21.761,0,0,0,2.257-.489,5.385,5.385,0,0,1,.793-.172c.431,0,.392.575.363,1.006a12.136,12.136,0,0,1-.294,2.385c-.193.719-.49.862-3.765,1.293-.655.086-1.01.23-1.2.948-.1.374-.974,4.281-1.054,4.683-.127.689.116.747.734,1.121a11.225,11.225,0,0,1,2.489,2.184,1.314,1.314,0,0,1,.338,1.207c-.215.8-2.116,2.643-2.978,2.643-.432,0-.762-.373-1.211-.948-.084-.115-.176-.2-.26-.316-.126-.172-.252-.344-.482-.344-.259,0-.384.143-.669.46a6.813,6.813,0,0,1-4.99,1.9c-2.614,0-4.882-1.293-4.089-4.252.754-2.816,3.514-4.109,6.043-4.109h.661a.864.864,0,0,0,.882-.719c.177-.661.4-2.011.518-2.471.262-.977.27-1.437-.362-1.437-.517,0-2.53.115-3.737.115h-.431c-.661,0-1.22-.057-1.36-.287a14.619,14.619,0,0,1,.6-3.218c.1-.374.294-.776.754-.776.172,0,1.04.086,1.291.115,1.147.115,2.309.173,3.459.173a.943.943,0,0,0,1.018-.69c.162-.6.608-3.448.777-4.08.092-.345.246-.488.59-.488C1638.8,2457.868,1641.645,2458.3,1642.333,2458.414Zm-11.159,17.412c-.154.574.689.862,1.292.862a1.45,1.45,0,0,0,1.562-1.006c.154-.574-.729-.6-1.16-.6S1631.343,2475.193,1631.174,2475.825Z" transform="translate(-1305.065 -2455.54)" fill="none" stroke="#856660" stroke-miterlimit="10" stroke-width="1"/>
        <path id="パス_353" data-name="パス 353" d="M468.061,2623.054a1.732,1.732,0,0,1-.689.747c-3.691,2.729-7.908,7.212-9.017,11.349-.577,2.155-.1,3.706,2.225,3.706a7.118,7.118,0,0,0,4.8-2.155c1.968-1.983,3.139-5.172,3.785-7.585a16.549,16.549,0,0,0,.608-7.1,1.764,1.764,0,0,1,.039-.575c.231-.862,3.164-1.407,3.854-1.407.891,0,.846.488.753,1.264a14.741,14.741,0,0,0,1.991,8.332c.013.057.055.115.069.172a1.37,1.37,0,0,1,.213.919c-.115.431-.725.776-1.436,1.178a8.926,8.926,0,0,1-2.195,1.006c-.4,0-.58-.517-.668-.833-.026-.115-.08-.345-.252-.345-.288,0-.349.23-.5.69a18.831,18.831,0,0,1-2.869,5.775,12.21,12.21,0,0,1-9.15,4.77c-4.539,0-6.574-3.132-5.38-7.585a19.414,19.414,0,0,1,3.4-6.58,1.1,1.1,0,0,0,.207-.345c.031-.115-.024-.23-.139-.23a1.233,1.233,0,0,0-.441.144,1.516,1.516,0,0,1-.592.172c-.718,0-.938-3.361-.753-4.051.123-.459.455-.517,1.34-.6a20.884,20.884,0,0,0,4.33-.719,5.555,5.555,0,0,0,2.931-2.04c.294-.345.712-.833,1.143-.833C466.588,2620.3,468.284,2622.221,468.061,2623.054Z" transform="translate(-397.583 -2581.72)" fill="none" stroke="#856660" stroke-miterlimit="10" stroke-width="1"/>
        <path id="パス_354" data-name="パス 354" d="M609.07,2618.2a21.953,21.953,0,0,1,2.389-.23c.776,0,.818.057.442,2.213a21.893,21.893,0,0,0-.443,3.476c-.006.344.029.747.461.747a27.144,27.144,0,0,0,4.243-1.9,14.4,14.4,0,0,1,2.578-1.149c.316,0,.681.891.906,1.551a6.643,6.643,0,0,1,.516,2.471c-.085.316-.432.431-1.089.632-.13.057-.281.086-.441.144a67.171,67.171,0,0,0-10.267,4.54c-1.61.862-3.939,2.155-4.339,3.649-.516,1.925,3.133,1.925,4.455,1.925a37.6,37.6,0,0,0,4.428-.23c.627-.086,2.694-.4,3.192-.546.086,0,.209-.028.295-.028.287,0,.243.488.21.718-.137.833-.362,1.781-.586,2.615-.231.862-.329,1.12-1.13,1.321a60.474,60.474,0,0,1-8,.489c-2.27,0-4.214-.144-5.917-1.293a4.311,4.311,0,0,1-1.557-4.914c.762-2.844,3.441-5.229,6.1-6.694.5-.259.8-.4.928-.891a2.215,2.215,0,0,0,.013-.69c-.022-.776-.008-1.58.015-2.414a37.456,37.456,0,0,0-.029-4.4,1.371,1.371,0,0,1,.006-.345C606.541,2618.629,606.932,2618.456,609.07,2618.2Z" transform="translate(-510.599 -2580.111)" fill="none" stroke="#856660" stroke-miterlimit="10" stroke-width="1"/>
        <path id="パス_355" data-name="パス 355" d="M764.437,2635.136a6.506,6.506,0,0,1,.658,5.373c-1.263,4.712-5.594,7.9-10.134,9.51a27.576,27.576,0,0,1-6.16,1.436c-.661,0-.817-.489-.929-1.035a8.459,8.459,0,0,1-.159-2.729c.154-.574.817-.689,1.284-.718a18.131,18.131,0,0,0,5.9-1.322c2.417-.977,4.888-2.586,5.573-5.143.578-2.155-.747-3.218-2.729-3.218-3.85,0-8.542,2.069-12.3,3.879a1.94,1.94,0,0,1-.939.287c-1.235,0-2.187-2.988-1.879-4.137.115-.431.52-.546.888-.632,2.757-.747,5.5-1.667,8.226-2.5a24.109,24.109,0,0,1,7.057-1.35C761.088,2632.838,763.254,2633.441,764.437,2635.136Z" transform="translate(-622.097 -2591.677)" fill="none" stroke="#856660" stroke-miterlimit="10" stroke-width="1"/>
        <path id="パス_356" data-name="パス 356" d="M911.448,2621.258c.343.115.6.229.553.4-.031.115-.132.172-.263.23a2.218,2.218,0,0,0-1.015,1.322,66.2,66.2,0,0,0-3.8,10.746c-.6,2.241-1.232,4.6,1.067,4.6a8.321,8.321,0,0,0,5.28-2.442,12.988,12.988,0,0,0,2.963-4.195c.232-.546.486-1.063.974-1.063.632,0,1.286.776,1.638,1.178.394.46,1.048,1.235.856,1.954a14.728,14.728,0,0,1-2.182,3.534c-2.747,3.391-6.595,5.632-10.531,5.632-2.039,0-4.039-.69-4.914-2.356-.944-1.839-.3-4.884.316-7.183.885-3.3,2.058-6.608,3.181-9.941.234-.661.509-1.58.687-2.241.169-.632.27-1.006.758-1.006A36.733,36.733,0,0,1,911.448,2621.258Zm4.955,2.1c.3.374,1.648,2.213,1.525,2.672a4.627,4.627,0,0,1-2.147,1.58c-.173,0-.283-.229-.331-.374a26.13,26.13,0,0,0-1.4-2.3c-.084-.115-.21-.287-.172-.431a5.127,5.127,0,0,1,2.2-1.437C916.22,2623.068,916.339,2623.269,916.4,2623.355Zm3.843-2.442c.26.316.526.718.813,1.149a3.68,3.68,0,0,1,.754,1.58,4.724,4.724,0,0,1-2.118,1.58c-.086,0-.207-.086-.338-.345a16.9,16.9,0,0,0-1.453-2.3c-.126-.173-.2-.316-.172-.431.123-.46,1.908-1.436,2.2-1.436A.437.437,0,0,1,920.245,2620.913Z" transform="translate(-745.796 -2582.022)" fill="none" stroke="#856660" stroke-miterlimit="10" stroke-width="1"/>
        <path id="パス_357" data-name="パス 357" d="M1038.178,2644.82a7.58,7.58,0,0,1,1.086-1.7c.485-.632.721-.977,1.152-.977a13.923,13.923,0,0,1,2.826,1.034c.335.144,1.026.46.9.948-.038.144-.106.287-.136.4-.069.258.043.373.3.373.2,0,.569-.086,1.316-.086,2.7,0,4.252,1.609,3.5,4.424-1.193,4.454-6.882,5.631-7.772,5.631-.948,0-1.043-2.327-.935-2.729.115-.431.434-.546.823-.6,1.174-.2,3.784-.718,4.177-2.183a.882.882,0,0,0-.9-1.236,15.25,15.25,0,0,0-5.385,1.867,1.076,1.076,0,0,0-.551.661c-.185.689,1.671,5.775,2.035,6.666a1.265,1.265,0,0,1,.1.689c-.169.632-2.776,1.781-3.379,1.781a.473.473,0,0,1-.474-.373c-.2-.632-1.235-4.827-1.5-5.861-.141-.546-.2-.862-.631-.862a6.582,6.582,0,0,0-1.873,1.092,3.4,3.4,0,0,0-.32.23,1.114,1.114,0,0,1-.558.259c-.689,0-1.429-2.385-1.283-2.931.077-.287.439-.459.708-.6,1.681-.8,2.486-1.236,2.64-1.81a6.189,6.189,0,0,0-.683-2.385c-.174-.316-.271-.489-.217-.69.1-.373.729-.574,2.152-1.063.376-.115.824-.287,1.33-.459a2.451,2.451,0,0,1,.707-.173c.2,0,.392.143.339.344a4.324,4.324,0,0,0-.261.546,2.361,2.361,0,0,0,.057.862c.112.546.044,1.121.647,1.121a3.176,3.176,0,0,0,1.027-.4c.3-.144.586-.259.656-.517.061-.23-.03-.316-.208-.4q-.322-.086-.557-.172C1038.433,2645.366,1038.062,2645.251,1038.178,2644.82Z" transform="translate(-846.184 -2598.918)" fill="none" stroke="#856660" stroke-miterlimit="10" stroke-width="1"/>
        <path id="パス_358" data-name="パス 358" d="M1166.825,2614.061c.322.086.607.2.561.373-.038.144-.278.287-.685.517a7.446,7.446,0,0,0-.948,1.609,1.612,1.612,0,0,0-.119.229c-.023.086-.083.2-.114.316-.046.173.036.4.237.4a3.618,3.618,0,0,0,.678-.172,1.81,1.81,0,0,1,.52-.115c.259,0,.306.143.287.431a28.639,28.639,0,0,1-.513,2.988c-.177.661-.61.775-2.959,1.177-1.052.173-1.134.374-1.725,1.293-.843,1.322-1.735,2.615-2.656,3.908-1.2,1.7-2.439,3.419-3.768,5.057-.338.4-.748.862-1.013,1.207a.824.824,0,0,1-.748.431c-.977,0-3.412-1.206-3.211-1.954a7.139,7.139,0,0,1,.911-1.149c.837-.977,5.5-6.695,5.693-7.413.077-.287-.143-.431-.373-.431-.172,0-.762.057-.971.086-.324.029-.943.086-1.287.086-.6,0-.792-.259-.339-2.7.033-.23.114-.747.183-1.006a.644.644,0,0,1,.714-.517c.488,0,1.163.058,1.795.058,2.615,0,3-.058,3.491-.8a23.724,23.724,0,0,0,1.912-4.453c.062-.23.123-.459.324-.459C1163.073,2613.055,1166.29,2613.917,1166.825,2614.061Zm1.433,9.021c.458.115.662.316.524.833-.077.288-.273.8-.412,1.322-.385,1.437-.647,2.844-.938,4.252-.156.689-.058.862.533,1.121.719.316,3.886,2.011,3.67,2.816-.17.632-2.41,2.988-3.329,2.988-.23,0-.563-.258-1.064-.747a5.911,5.911,0,0,0-.43-.431.5.5,0,0,0-.414-.172.9.9,0,0,0-.763.488,7.507,7.507,0,0,1-1.339,1.351,6.183,6.183,0,0,1-3.769,1.092c-2.73,0-5.22-1.322-4.389-4.425.77-2.873,3.63-4.109,6.187-4.109h.23a.874.874,0,0,0,.874-.69c.131-.488.557-3.045.7-3.907a11.179,11.179,0,0,1,.247-1.35.959.959,0,0,1,1.086-.833A15.046,15.046,0,0,1,1168.258,2623.082Zm-7.867,10.487c-.154.574.344.862.832.862a1.087,1.087,0,0,0,1.145-.948c.1-.373.156-.689-.677-.689A1.273,1.273,0,0,0,1160.391,2633.57Zm13.61-13.906c.5.6,1.847,2.327,1.685,2.931-.239.891-3.1,2.873-3.815,2.873-.345,0-.488-.43-.6-.747a12.37,12.37,0,0,0-2.6-3.706c-.184-.173-.417-.373-.356-.6.123-.46,2.593-2.816,3.4-2.816C1172.257,2617.594,1173.657,2619.232,1174,2619.663Z" transform="translate(-939.497 -2576.29)" fill="none" stroke="#856660" stroke-miterlimit="10" stroke-width="1"/>
        <path id="パス_359" data-name="パス 359" d="M1310.732,2634.146c.272.058.565.144.5.4-.031.115-.14.2-.379.345a2.823,2.823,0,0,0-.885,1.264,25.054,25.054,0,0,0-1.451,4.022,12.811,12.811,0,0,0-.444,5.517c.1.489.37,1.408,1,1.408.661,0,1.637-1.178,2.019-1.638a1.615,1.615,0,0,1,1.083-.719c.862,0,2.549,1.638,2.365,2.327s-1.914,2.213-2.549,2.758c-1.306,1.121-2.566,2.069-4.146,2.069a4.33,4.33,0,0,1-3.848-2.9c-1.326-2.988-.4-7.183.544-10.717.146-.546,1.193-4.022,1.33-4.425a.591.591,0,0,1,.612-.46C1306.852,2633.4,1310.052,2634,1310.732,2634.146Zm10.762-.919c.776,0,2.568,1.781,3.286,3.821a13.2,13.2,0,0,1,.548,5.89c-.066.459-.164,1.149-.257,1.494a1.208,1.208,0,0,1-1,1.034,11.351,11.351,0,0,1-2.861.488c-1.063,0-.992-.374-.785-1.465.665-3.448.19-6.177-2.016-8.131a.453.453,0,0,1-.156-.489C1318.434,2635.209,1320.632,2633.226,1321.494,2633.226Z" transform="translate(-1058.263 -2591.979)" fill="none" stroke="#856660" stroke-miterlimit="10" stroke-width="1"/>
      </g>
    </g>
  </g>
</svg>
