<svg xmlns="http://www.w3.org/2000/svg" width="1195.072" height="219.38" viewBox="0 0 1195.072 219.38">
  <g id="グループ_1023" data-name="グループ 1023" transform="translate(-198.985 -2446.155)">
    <g id="グループ_1020" data-name="グループ 1020" transform="translate(206.814 2449.991)">
      <g id="グループ_1019" data-name="グループ 1019">
        <path id="パス_9467" data-name="パス 9467" d="M233.7,2488.581c-4.014,0-8.21.3-12.224.3-2.308,0-2.34-1-1.534-4.015l1.694-6.323c.834-3.112,1.33-4.215,3.84-4.215,4.014,0,7.947.3,11.962.3h8.732c3.713,0,4.29-1.4,6.309-4.818,2.742-4.617,5.673-9.936,7.968-14.753.5-1.1,1.02-2.309,2.225-2.309a30.675,30.675,0,0,1,4.843,1.406c5.939,1.806,9.19,2.408,8.626,4.517-.242.9-1.153,1.3-2.164,1.706-1.566.6-2.5,2.208-4.208,5.218-.751,1.3-1.556,2.811-2.769,4.718a7.624,7.624,0,0,0-1.121,2.309c-.537,2.007,1.57,2.007,2.975,2.007h28.2c4.014,0,8.009-.3,12.024-.3,2.61,0,2.513,1.1,1.68,4.215l-1.559,5.822c-.914,3.412-1.41,4.516-3.92,4.516-4.014,0-7.948-.3-11.963-.3h-1.406c-.8,0-1.907,0-2.095.7-.135.5.588.8,1.035,1,1.1.4,3.391,1.2,3.015,2.609-.242.9-1.682,1.406-2.465,1.707-2.222.8-2.429,1.2-3.47,3.211a84.161,84.161,0,0,1-10.256,15.055,9.468,9.468,0,0,0-2.166,3.212c-.457,1.706,1.536,2.508,2.579,3.111a124.472,124.472,0,0,1,14.453,9.736c1.264.9,1.786,1.2,1.436,2.509-1.021,3.814-6.331,11.643-9.844,11.643-1,0-2.04-1-2.682-1.606-2.941-2.509-16.229-12.847-19.541-12.847a6.07,6.07,0,0,0-2.852.9c-11.518,7.025-28.478,11.14-40.7,12.947-1.359.2-5.034.8-6.137.8-4.618,0-3.764-8.43-2.822-11.943.564-2.107,2.271-2.107,5.537-2.309,8.564-.5,21.366-2.208,29.983-5.52,2.349-.9,3.078-1,3.294-1.806.188-.7-.387-.8-2.38-1.606-2.542-1-5.157-2.107-7.77-3.212a3.476,3.476,0,0,0-1.5-.4c-1.1,0-1.667.6-2.311,1.506-1.387,1.806-2.251,2.409-3.355,2.409-3.612,0-10.916-2.71-10.163-5.521.269-1,5.8-7.426,6.856-8.731,3.491-4.417,7.406-10.037,10.878-14.754a2.991,2.991,0,0,0,.6-1.1c.457-1.706-1.55-1.706-2.353-1.706Zm24.69,0c-3.111,0-3.655.9-6.617,5.219-1.16,1.706-2.655,3.914-4.739,6.825a6.448,6.448,0,0,0-1.066,2.107c-.4,1.506.612,2.208,1.809,2.61,3.144,1,9.618,3.814,12.68,5.119a2.711,2.711,0,0,0,1.571.5c1.707,0,4.046-3.111,6.955-7.227,1.776-2.508,7.193-10.738,7.812-13.047.564-2.108-1.543-2.108-3.049-2.108Z" transform="translate(-208.657 -2451.145)" fill="#fff"/>
        <path id="パス_9468" data-name="パス 9468" d="M441.952,2476.565c5.217,7.125,6.39,15.858,3.727,25.794-3.792,14.151-14.854,26.6-29.1,33.321-2.886,1.406-10.343,4.517-13.153,4.517-3.513,0-6.358-9.233-5.6-12.044.242-.9,1.253-1.3,4.351-2.007,12.448-3.011,23.947-10.337,27.389-23.184,4.222-15.757-6.154-21.98-9.165-21.98-1.706,0-2.391,1.806-2.975,3.613-4.843,13.95-13.429,31.013-25.62,42.053-4.924,4.516-10.763,8.33-16.785,8.33-6.725,0-11.007-4.616-12.485-10.337-1.125-4.417-.6-10.137.722-15.055,6.454-24.088,30.158-43.257,54.345-43.257C427.835,2466.328,436.662,2469.339,441.952,2476.565Zm-63.692,32.819c-.645,2.409-2.006,9.736,1.507,9.736,2.409,0,7.6-6.624,9.164-8.732,5.449-7.226,12.239-22.08,13.208-25.693.215-.8,0-1.5-.9-1.5C398.326,2483.189,382.8,2492.423,378.26,2509.384Z" transform="translate(-242.958 -2454.184)" fill="#fff"/>
        <path id="パス_9469" data-name="パス 9469" d="M561.555,2491.987a2.121,2.121,0,0,0,2.058,2.811h17.664c4.517,0,9.114-.3,13.63-.3,2.61,0,2.514,1.1,1.627,4.416l-1.614,6.022c-.887,3.312-1.41,4.517-4.02,4.517-4.517,0-8.952-.3-13.468-.3H559.767a4.032,4.032,0,0,0-3.564,2.81L552.9,2524.3c-.619,2.308-.962,4.717-1.58,7.025-3.281,12.244-16.2,13.249-25.53,13.249-2.911,0-5.694-.1-6.052-2.509-.266-2.007.84-7.628,1.431-9.836.457-1.706,1.034-3.111,3.041-3.111.7,0,1.753.2,2.355.2,1.278.1,2.83.3,4.135.3,5.721,0,5.909-.7,7.173-5.419l3.281-12.245a2.081,2.081,0,0,0-2.057-2.81H521.126c-4.516,0-9.112.3-13.629.3-2.71,0-2.588-1.2-1.673-4.617l1.56-5.821c.887-3.312,1.411-4.516,4.02-4.516,4.516,0,9.053.3,13.569.3h17.563a3.918,3.918,0,0,0,4.018-3.011l.457-1.706c.565-2.107,1.164-4.717,1.528-6.825.081-.3.088-.7.169-1,.376-1.406,1.434-1.607,2.537-1.607h1c2.61,0,3.528-.8,5.456-2.007.255-.2.737-.5,1.347-.9,2.364-1.707,6.911-4.818,7.1-5.52s-1.118-.7-2.723-.7H542.854c-4.115,0-8.311.3-12.425.3-2.61,0-2.488-1.2-1.6-4.517l1.614-6.022c.887-3.312,1.411-4.517,4.021-4.517,3.914,0,8.048.3,12.264.3h28.5c4.516,0,8.96-.1,13.475-.1,3.112,0,3.753.6,5.27,2.81.882,1.2,2.7,3.412,2.214,5.219-1.21,4.517-25.931,18.868-30.973,21.579a6.562,6.562,0,0,0-3.418,4.516Z" transform="translate(-275.035 -2452.042)" fill="#fff"/>
        <path id="パス_9470" data-name="パス 9470" d="M741.932,2476.565c5.216,7.125,6.389,15.858,3.727,25.794-3.792,14.151-14.855,26.6-29.1,33.321-2.887,1.406-10.343,4.517-13.154,4.517-3.512,0-6.358-9.233-5.606-12.044.242-.9,1.254-1.3,4.353-2.007,12.449-3.011,23.946-10.337,27.389-23.184,4.222-15.757-6.154-21.98-9.165-21.98-1.706,0-2.391,1.806-2.975,3.613-4.842,13.95-13.428,31.013-25.62,42.053-4.923,4.516-10.763,8.33-16.784,8.33-6.725,0-11.008-4.616-12.485-10.337-1.126-4.417-.6-10.137.721-15.055,6.454-24.088,30.159-43.257,54.346-43.257C727.814,2466.328,736.642,2469.339,741.932,2476.565Zm-63.692,32.819c-.646,2.409-2.007,9.736,1.506,9.736,2.408,0,7.6-6.624,9.164-8.732,5.449-7.226,12.24-22.08,13.208-25.693.215-.8,0-1.5-.9-1.5C698.305,2483.189,682.784,2492.423,678.239,2509.384Z" transform="translate(-310.097 -2454.184)" fill="#fff"/>
        <path id="パス_9471" data-name="パス 9471" d="M876.523,2450.983c2.811,0,5.2-.3,7.207-.3,2.409,0,2.341,1,1.48,4.216l-1.264,4.717c-.861,3.212-1.33,4.216-3.74,4.216-1.505,0-2.957-.2-4.362-.2h-13.75c-3.312,0-3.868,1.706-4.621,4.517l-15.705,58.613c-1.372,5.118-2.516,10.136-3.888,15.255-.861,3.212-1.342,3.512-4.655,3.512H827.4c-2.61,0-3.13-.3-2.351-3.211,1.4-5.219,2.971-10.338,4.369-15.556l16.458-61.424c.968-3.613,1.608-7.125,2.576-10.739.887-3.313,2.628-3.814,5.539-3.814,2.107,0,4.06.2,6.068.2Z" transform="translate(-346.54 -2450.682)" fill="#fff"/>
        <path id="パス_9472" data-name="パス 9472" d="M987.284,2457.686c1.124.3,2.121.7,1.959,1.3-.134.5-.972,1-2.391,1.807-.71.4-2.453,3.914-3.311,5.62a5.9,5.9,0,0,0-.417.8c-.081.3-.29.7-.4,1.1-.161.6.126,1.4.828,1.4a12.664,12.664,0,0,0,2.37-.6,6.287,6.287,0,0,1,1.814-.4c.9,0,1.07.5,1,1.506a99.99,99.99,0,0,1-1.793,10.437c-.619,2.308-2.131,2.71-10.336,4.115-3.674.6-3.962,1.3-6.027,4.516-2.944,4.617-6.06,9.133-9.279,13.65-4.2,5.922-8.519,11.943-13.163,17.665-1.179,1.405-2.613,3.011-3.538,4.215a2.879,2.879,0,0,1-2.612,1.506c-3.411,0-11.917-4.216-11.217-6.825a25.028,25.028,0,0,1,3.182-4.014c2.922-3.412,19.213-23.385,19.885-25.895.269-1-.5-1.505-1.3-1.505-.6,0-2.663.2-3.393.3-1.13.1-3.293.3-4.5.3-2.107,0-2.769-.9-1.186-9.435.115-.8.4-2.61.64-3.513a2.247,2.247,0,0,1,2.492-1.806c1.706,0,4.061.2,6.269.2,9.133,0,10.492-.2,12.194-2.811,2.218-3.412,5.843-12.445,6.678-15.556.215-.8.43-1.606,1.133-1.606C974.174,2454.173,985.412,2457.184,987.284,2457.686Zm5,31.514c1.6.4,2.314,1.1,1.829,2.911-.269,1-.954,2.811-1.438,4.617-1.344,5.018-2.26,9.936-3.278,14.854-.544,2.408-.2,3.011,1.863,3.914,2.513,1.1,13.573,7.025,12.82,9.836-.591,2.208-8.417,10.438-11.629,10.438-.8,0-1.966-.9-3.717-2.61a21.152,21.152,0,0,0-1.5-1.506,1.756,1.756,0,0,0-1.445-.6,3.129,3.129,0,0,0-2.665,1.706,26.22,26.22,0,0,1-4.676,4.718c-3.919,3.011-8.95,3.813-13.166,3.813-9.535,0-18.234-4.617-15.329-15.456,2.689-10.036,12.677-14.352,21.61-14.352h.8a3.055,3.055,0,0,0,3.054-2.409c.456-1.706,1.947-10.639,2.453-13.65a38.949,38.949,0,0,1,.862-4.717c.565-2.108,1.583-2.911,3.792-2.911A52.469,52.469,0,0,1,992.289,2489.2Zm-27.48,36.633c-.538,2.007,1.2,3.011,2.907,3.011,2.309,0,3.435-1.2,4-3.312.349-1.3.544-2.409-2.366-2.409C967.642,2523.123,965.346,2523.826,964.809,2525.833Zm47.542-48.576c1.743,2.107,6.452,8.13,5.888,10.237-.834,3.111-10.819,10.036-13.328,10.036-1.2,0-1.7-1.5-2.111-2.609a43.227,43.227,0,0,0-9.076-12.948c-.642-.6-1.457-1.3-1.243-2.107.431-1.606,9.059-9.836,11.87-9.836C1006.256,2470.031,1011.147,2475.751,1012.35,2477.257Z" transform="translate(-370.266 -2451.463)" fill="#fff"/>
        <path id="パス_9473" data-name="パス 9473" d="M1125.934,2466.2c1.244.6,1.639,1,1.45,1.706-.162.6-.49.7-1.046.9-2.8,1.1-4.48,3.613-6,5.921-2.709,4.115-6.036,10.538-7.219,14.954-.161.6-.457,1.706.446,1.706.6,0,1.139-.5,2.117-1.906.8-1.1,1.75-2.408,2.854-2.408,1,0,4.84,2.91,4.409,4.516a6.725,6.725,0,0,1-.858,1.706c-3.815,5.62-9.976,14.754-11.508,20.475l-.672,2.509c-.619,2.308-3,3.312-5.091,4.015a20.5,20.5,0,0,1-6.271,1.3c-3.111,0-3.4-2.308-3.553-4.717-.427-7.025,1.025-16.56,3.014-23.987a123.026,123.026,0,0,1,8.325-22.08c1.3-2.61,2.731-5.319,4.059-8.029.859-1.706,1.383-2.911,2.285-2.911C1114.582,2459.872,1122.377,2464.489,1125.934,2466.2Zm25.85-7.326a56.666,56.666,0,0,1,7.951-1.2c1.906,0,2.12.7,2.049,3.212-.185,8.933-2.49,21.278-4.99,30.611-4.626,17.262-11.516,32.116-27.33,45.064-2.446,2.007-7.817,6.323-10.628,6.323-1.605,0-3.789-2.711-4.7-3.814-1.891-2.309-3.488-4.215-3.03-5.922.161-.6.7-1.1,2.245-2.007a55.286,55.286,0,0,0,16.954-14.954c5.376-7.326,8.249-15.055,10.374-22.984a126.779,126.779,0,0,0,4.3-29.909,8.105,8.105,0,0,1,.3-1.505C1145.714,2460.173,1147.126,2459.772,1151.784,2458.869Z" transform="translate(-407.013 -2452.244)" fill="#fff"/>
        <path id="パス_9474" data-name="パス 9474" d="M1281.643,2455.244c1.772.5,4.541,1.4,4.272,2.409-.134.5-.817.8-1.272,1-1.594.7-2.425,2.308-4.216,5.62q-.665,1.356-1.791,3.312c-.208.4-.417.8-.443.9-.323,1.2.319,1.806,1.423,1.806,1.506,0,7.163-2.007,8.829-2.61a10.524,10.524,0,0,1,2.7-.7c2.71,0,.047,9.936-.76,12.947-.376,1.406-.938,2.008-2.68,2.51-4.364,1.3-11.19,2.811-15.319,3.613-4.557.9-4.886,1-7.059,4.617-7.469,12.144-21.937,33.923-31.156,44.362-1.153,1.3-2.05,2.408-3.756,2.408s-10.934-4.516-10.127-7.527c.241-.9,1.368-2.107,3.055-3.915,9.642-10.137,17.8-21.478,25.308-33.02a9.033,9.033,0,0,0,1.321-2.308c.376-1.4-.647-1.706-1.751-1.706-2.007,0-4.5.3-6.7.3-2.107,0-3.332-.3-3.342-2.509a76.662,76.662,0,0,1,1.747-10.639c.349-1.3.819-2.308,2.425-2.308,1,0,5.385.5,10.605.5,5.018,0,6.623,0,8.1-2.509,2.173-3.613,6.583-14.452,7.858-18.467.161-.6.5-1.1,1.1-1.1C1271.309,2452.233,1279.97,2454.742,1281.643,2455.244Zm-19.291,62.627c2.8,4.917,10.129,6.021,16.151,6.021a54,54,0,0,0,15.719-2.107,4.115,4.115,0,0,1,1.158-.2c1.605,0,1.215,2.208.355,5.419l-.807,3.011c-1.479,5.52-1.8,6.725-3.742,7.226-3.227.8-14,1.3-17.311,1.3-7.126,0-16.619-.9-21.385-5.218-1.283-1.2-3.741-4.015-3.123-6.323.456-1.706,5.38-6.222,6.961-7.628,1.045-.9,3.39-2.911,4.594-2.911C1261.625,2516.466,1262.086,2517.37,1262.353,2517.872Zm18.012-30.511a79.72,79.72,0,0,1,21.975,3.011c1.3.4,2.294.8,1.864,2.408a46.588,46.588,0,0,1-5.969,11.041,2.935,2.935,0,0,1-2.23,1.2,6.98,6.98,0,0,1-2.321-.7c-5.2-2.308-10.414-2.709-16.536-2.709h-3.613c-2.308,0-2.931-.3-2.447-2.107C1274.18,2487.963,1276.349,2487.361,1280.364,2487.361Z" transform="translate(-435.061 -2451.029)" fill="#fff"/>
        <path id="パス_9475" data-name="パス 9475" d="M1406.67,2477.556c.95.2,1.974.5,1.732,1.405-.108.4-.489.7-1.326,1.2-1.574,1-2.387,2.911-3.091,4.416a87.7,87.7,0,0,0-5.069,14.052c-1.7,6.323-2.728,13.549-1.551,19.27.345,1.706,1.292,4.918,3.5,4.918,2.307,0,5.72-4.115,7.052-5.721,1.026-1.2,2.279-2.509,3.784-2.509,3.011,0,8.905,5.72,8.26,8.129s-6.688,7.729-8.9,9.635c-4.562,3.914-8.962,7.227-14.482,7.227-6.724,0-11.127-4.919-13.442-10.137-4.631-10.438-1.407-25.091,1.9-37.436.511-1.907,4.167-14.052,4.644-15.456a2.065,2.065,0,0,1,2.136-1.606C1393.118,2474.947,1404.295,2477.055,1406.67,2477.556Zm37.594-3.212c2.71,0,8.971,6.223,11.478,13.349a46.14,46.14,0,0,1,1.914,20.574c-.23,1.606-.575,4.015-.9,5.219-.564,2.108-1.309,3.011-3.477,3.613a39.641,39.641,0,0,1-9.992,1.706c-3.713,0-3.463-1.3-2.742-5.118,2.323-12.044.663-21.579-7.044-28.4a1.583,1.583,0,0,1-.547-1.707C1433.575,2481.269,1441.253,2474.344,1444.264,2474.344Z" transform="translate(-471.002 -2455.978)" fill="#fff"/>
        <path id="パス_9476" data-name="パス 9476" d="M1519.031,2545.354c-2.81,0-5.2.3-7.207.3-2.408,0-2.339-1-1.479-4.215l1.265-4.717c.86-3.212,1.33-4.216,3.738-4.216,1.506,0,2.957.2,4.362.2h13.75c3.312,0,3.87-1.707,4.622-4.517l15.706-58.613c1.371-5.119,2.515-10.137,3.886-15.255.861-3.212,1.342-3.513,4.655-3.513h5.821c2.61,0,3.131.3,2.351,3.212-1.4,5.219-2.97,10.337-4.368,15.556L1549.674,2531c-.968,3.613-1.609,7.126-2.576,10.74-.888,3.312-2.628,3.813-5.539,3.813-2.107,0-4.061-.2-6.068-.2Z" transform="translate(-499.869 -2450.71)" fill="#fff"/>
        <path id="パス_9477" data-name="パス 9477" d="M1645.873,2471.837c1.763-3.212,3.339-5.72,5.03-9.033.442-.9,1.013-1.906,2.017-1.906s11.348,5.219,12.938,6.022,2.034,1.4,1.872,2.007-.617.8-1.173,1c-2.878,1-3.984,2.51-5.987,5.119-5.885,7.728-11.508,20.474-14.063,30.009-.566,2.107-1.13,4.216-.127,4.216.8,0,1.293-.7,1.755-1.3,1.649-2.409,2.575-3.614,3.477-3.614,1.4,0,5.637,3.313,5.233,4.818-.484,1.807-9.063,12.847-10.891,19.672-.3,1.1-.552,2.81-.775,4.014a12.137,12.137,0,0,1-.383,1.807c-.727,2.71-4.241,4.215-6.691,5.118a21,21,0,0,1-5.468,1.3c-1.806,0-2.281-1.606-2.792-3.813-2.1-10.137-.575-21.077,2.409-32.218A156.27,156.27,0,0,1,1645.873,2471.837Zm58.771-8.832c.475.1,1.224.3,1.035,1a4.806,4.806,0,0,1-1.286,1.807c-2.406,2.61-3.366,5.821-4.174,8.833-.376,1.4.057,2.408,1.563,2.408a76.092,76.092,0,0,0,7.884-1.706,18.752,18.752,0,0,1,2.77-.6c1.506,0,1.369,2.007,1.267,3.513a42.469,42.469,0,0,1-1.027,8.331c-.672,2.509-1.711,3.011-13.153,4.516-2.289.3-3.528.8-4.2,3.312-.349,1.305-3.4,14.955-3.681,16.359-.444,2.408.406,2.61,2.565,3.915a39.244,39.244,0,0,1,8.694,7.628c.883,1.2,1.664,2.408,1.18,4.215-.753,2.81-7.392,9.233-10.4,9.233-1.506,0-2.662-1.3-4.231-3.312-.294-.4-.615-.7-.909-1.1-.44-.6-.882-1.2-1.685-1.2-.9,0-1.339.5-2.337,1.606-4.456,5.018-11.911,6.624-17.432,6.624-9.133,0-17.056-4.517-14.286-14.854,2.635-9.836,12.276-14.352,21.108-14.352h2.307a3.018,3.018,0,0,0,3.082-2.509c.619-2.309,1.38-7.026,1.811-8.632.914-3.412.943-5.018-1.265-5.018-1.806,0-8.839.4-13.054.4h-1.506c-2.308,0-4.262-.2-4.749-1-.533-1,1.625-9.434,2.109-11.24.35-1.3,1.027-2.71,2.632-2.71.6,0,3.633.3,4.51.4,4.008.4,8.069.6,12.084.6a3.291,3.291,0,0,0,3.555-2.408c.565-2.108,2.124-12.044,2.716-14.253.323-1.2.859-1.706,2.063-1.706C1692.309,2461.1,1702.242,2462.6,1704.644,2463Zm-38.979,60.821c-.537,2.007,2.406,3.011,4.514,3.011,2.308,0,4.731-.8,5.457-3.513.539-2.007-2.547-2.107-4.053-2.107S1666.257,2521.617,1665.664,2523.826Z" transform="translate(-526.518 -2452.968)" fill="#fff"/>
        <path id="パス_9478" data-name="パス 9478" d="M511.58,2633.662c-.269,1-1.542,2.007-2.405,2.609-12.892,9.534-27.625,25.192-31.5,39.644-2.017,7.527-.359,12.947,7.771,12.947,5.72,0,12.221-2.911,16.77-7.528,6.874-6.925,10.963-18.066,13.222-26.5,2.5-9.334,3.3-16.058,2.125-24.79a6.147,6.147,0,0,1,.137-2.008c.807-3.01,11.052-4.917,13.461-4.917,3.111,0,2.955,1.706,2.631,4.416-1.125,10.939,2.543,20.474,6.954,29.105.047.2.194.4.241.6a4.783,4.783,0,0,1,.745,3.212c-.4,1.506-2.533,2.71-5.017,4.115-1.546.9-6.26,3.512-7.665,3.512s-2.025-1.806-2.332-2.911c-.092-.4-.279-1.2-.882-1.2-1,0-1.219.8-1.75,2.408-2.176,6.624-5.351,14.352-10.022,20.173-8.263,10.238-20.321,16.661-31.963,16.661-15.858,0-22.963-10.94-18.795-26.5,2.179-8.13,6.431-15.757,11.88-22.983a3.857,3.857,0,0,0,.724-1.2c.107-.4-.086-.8-.487-.8a4.284,4.284,0,0,0-1.539.5,5.31,5.31,0,0,1-2.069.6c-2.509,0-3.277-11.743-2.631-14.151.43-1.606,1.588-1.806,4.679-2.107a72.918,72.918,0,0,0,15.125-2.51c4.793-1.406,6.936-3.413,10.24-7.126,1.025-1.2,2.486-2.91,3.991-2.91C506.434,2624.027,512.36,2630.751,511.58,2633.662Z" transform="translate(-265.389 -2489.277)" fill="#fff"/>
        <path id="パス_9479" data-name="パス 9479" d="M641.881,2621.858a76.736,76.736,0,0,1,8.345-.8c2.71,0,2.857.2,1.543,7.728-1.119,6.424-1.524,9.434-1.548,12.144-.022,1.2.1,2.609,1.609,2.609,1.907,0,12.265-5.319,14.822-6.624,1.747-.9,7.7-4.015,9-4.015,1.1,0,2.377,3.111,3.164,5.419.619,1.807,2.312,6.724,1.8,8.631-.3,1.1-1.507,1.506-3.8,2.208-.455.2-.983.3-1.539.5-9.966,3.111-24.488,9.735-35.863,15.858-5.625,3.011-13.76,7.527-15.159,12.746-1.8,6.724,10.945,6.724,15.562,6.724a131.465,131.465,0,0,0,15.47-.8c2.189-.3,9.409-1.4,11.149-1.907.3,0,.73-.1,1.031-.1,1,0,.848,1.706.733,2.509-.479,2.911-1.265,6.223-2.045,9.133-.807,3.011-1.15,3.914-3.947,4.617-4.94,1.2-22.437,1.706-27.958,1.706-7.928,0-14.719-.5-20.668-4.517-5.255-3.613-7.375-9.936-5.438-17.162,2.662-9.936,12.02-18.266,21.32-23.385,1.747-.9,2.786-1.4,3.243-3.111a7.749,7.749,0,0,0,.043-2.409c-.078-2.71-.027-5.52.05-8.43a130.964,130.964,0,0,0-.1-15.356,4.806,4.806,0,0,1,.021-1.2C633.048,2623.363,634.413,2622.761,641.881,2621.858Z" transform="translate(-297.909 -2488.813)" fill="#fff"/>
        <path id="パス_9480" data-name="パス 9480" d="M827.208,2643.954c3.473,5.018,4.126,11.943,2.3,18.768-4.41,16.46-19.539,27.6-35.4,33.221-5,1.806-16.8,5.018-21.518,5.018-2.309,0-2.856-1.706-3.248-3.613-.439-2.107-1.148-7.326-.557-9.535.538-2.007,2.853-2.408,4.486-2.509a63.344,63.344,0,0,0,20.607-4.616c8.442-3.413,17.073-9.033,19.467-17.966,2.017-7.528-2.608-11.241-9.532-11.241-13.45,0-29.838,7.226-42.974,13.549a6.775,6.775,0,0,1-3.279,1c-4.315,0-7.641-10.437-6.565-14.453.4-1.5,1.815-1.907,3.1-2.208,9.631-2.61,19.224-5.821,28.735-8.732,8.427-2.61,16.52-4.717,24.649-4.717C815.51,2635.925,823.074,2638.032,827.208,2643.954Z" transform="translate(-329.993 -2492.142)" fill="#fff"/>
        <path id="パス_9481" data-name="パス 9481" d="M944.235,2626.422c1.2.4,2.093.8,1.932,1.4-.108.4-.463.6-.918.8-2.075,1-2.76,2.811-3.545,4.617a231.42,231.42,0,0,0-13.27,37.537c-2.1,7.828-4.3,16.058,3.726,16.058,6.323,0,13.34-3.714,18.445-8.531a45.356,45.356,0,0,0,10.349-14.654c.813-1.906,1.7-3.713,3.4-3.713,2.208,0,4.493,2.71,5.723,4.115,1.376,1.606,3.661,4.316,2.989,6.824-.806,3.012-5.393,9.635-7.625,12.345-9.6,11.843-23.035,19.671-36.784,19.671-7.125,0-14.108-2.408-17.165-8.23-3.3-6.423-1.049-17.061,1.1-25.091,3.093-11.542,7.19-23.084,11.113-34.726.819-2.308,1.78-5.52,2.4-7.829.591-2.207.942-3.512,2.648-3.512A128.544,128.544,0,0,1,944.235,2626.422Zm17.307,7.327c1.055,1.305,5.757,7.728,5.327,9.333-.484,1.806-6.4,5.521-7.5,5.521-.6,0-.989-.8-1.156-1.3a91.429,91.429,0,0,0-4.874-8.03c-.293-.4-.736-1-.6-1.5.4-1.506,6.664-5.019,7.668-5.019C960.908,2632.745,961.322,2633.448,961.542,2633.749Zm13.427-8.531c.908,1.1,1.836,2.509,2.839,4.015,1.562,2.408,2.85,4.717,2.635,5.52-.457,1.706-6.3,5.52-7.4,5.52-.3,0-.723-.3-1.183-1.2a59.111,59.111,0,0,0-5.075-8.03c-.441-.6-.708-1.1-.6-1.5.43-1.606,6.664-5.018,7.666-5.018A1.531,1.531,0,0,1,974.969,2625.218Z" transform="translate(-365.587 -2489.364)" fill="#fff"/>
        <path id="パス_9482" data-name="パス 9482" d="M1065.138,2654.569c.377-1.405,2.742-4.617,3.795-5.922,1.7-2.208,2.519-3.412,4.025-3.412,1.708,0,8.18,2.809,9.871,3.613,1.171.5,3.585,1.605,3.127,3.312-.134.5-.368,1-.476,1.405-.242.9.152,1.3,1.056,1.3.7,0,1.987-.3,4.6-.3,9.435,0,14.853,5.62,12.218,15.456-4.169,15.556-24.039,19.671-27.15,19.671-3.313,0-3.643-8.129-3.266-9.534.4-1.506,1.514-1.907,2.873-2.108,4.1-.7,13.219-2.509,14.589-7.628.7-2.61-.65-4.316-3.158-4.316-4.717,0-14.2,3.915-18.81,6.524a3.759,3.759,0,0,0-1.923,2.309c-.646,2.409,5.835,20.174,7.109,23.285a4.419,4.419,0,0,1,.359,2.408c-.591,2.208-9.7,6.223-11.8,6.223a1.656,1.656,0,0,1-1.658-1.3c-.713-2.208-4.313-16.861-5.252-20.474-.493-1.907-.7-3.012-2.2-3.012-1.2,0-4.56,2.409-6.542,3.814a12.122,12.122,0,0,0-1.118.8,3.883,3.883,0,0,1-1.948.9c-2.409,0-4.995-8.33-4.484-10.237.269-1,1.534-1.606,2.471-2.107,5.873-2.811,8.685-4.316,9.223-6.323.43-1.606-1.657-6.925-2.385-8.331-.608-1.1-.948-1.706-.76-2.408.349-1.305,2.544-2.007,7.519-3.713,1.312-.4,2.878-1,4.646-1.606a8.633,8.633,0,0,1,2.47-.6c.7,0,1.371.5,1.182,1.2a15.326,15.326,0,0,0-.912,1.907,8.262,8.262,0,0,0,.2,3.011c.392,1.906.155,3.914,2.263,3.914a11.1,11.1,0,0,0,3.588-1.406c1.038-.5,2.048-.9,2.29-1.806.215-.8-.1-1.1-.727-1.4q-1.124-.3-1.947-.6C1066.032,2656.476,1064.735,2656.074,1065.138,2654.569Z" transform="translate(-394.474 -2494.226)" fill="#fff"/>
        <path id="パス_9483" data-name="パス 9483" d="M1215.418,2619.654c1.124.3,2.12.7,1.959,1.3-.135.5-.972,1-2.391,1.807-.71.4-2.454,3.914-3.313,5.62a5.921,5.921,0,0,0-.416.8c-.08.3-.289.7-.4,1.1-.162.6.125,1.4.827,1.4a12.683,12.683,0,0,0,2.37-.6,6.281,6.281,0,0,1,1.814-.4c.9,0,1.069.5,1,1.506a100.2,100.2,0,0,1-1.794,10.438c-.619,2.308-2.131,2.709-10.336,4.114-3.674.6-3.962,1.3-6.027,4.517-2.943,4.617-6.061,9.133-9.278,13.649-4.2,5.922-8.52,11.944-13.164,17.665-1.179,1.405-2.613,3.011-3.539,4.216a2.877,2.877,0,0,1-2.611,1.5c-3.411,0-11.917-4.216-11.217-6.825a24.979,24.979,0,0,1,3.183-4.015c2.921-3.412,19.212-23.385,19.884-25.894.269-1-.5-1.506-1.3-1.506-.6,0-2.664.2-3.393.3-1.131.1-3.292.3-4.5.3-2.107,0-2.769-.9-1.185-9.435.114-.8.4-2.61.64-3.512a2.247,2.247,0,0,1,2.491-1.807c1.706,0,4.061.2,6.269.2,9.133,0,10.491-.2,12.194-2.811,2.219-3.412,5.844-12.445,6.677-15.556.216-.8.431-1.606,1.133-1.606C1202.308,2616.141,1213.546,2619.152,1215.418,2619.654Zm5.005,31.515c1.6.4,2.313,1.1,1.829,2.91-.269,1-.953,2.811-1.437,4.617-1.345,5.019-2.26,9.936-3.278,14.854-.544,2.409-.2,3.011,1.863,3.914,2.514,1.1,13.573,7.026,12.82,9.836-.592,2.208-8.418,10.438-11.629,10.438-.8,0-1.967-.9-3.716-2.61-.468-.5-.936-1-1.5-1.506a1.754,1.754,0,0,0-1.444-.6,3.129,3.129,0,0,0-2.666,1.707,26.206,26.206,0,0,1-4.676,4.717c-3.918,3.011-8.95,3.813-13.166,3.813-9.535,0-18.234-4.616-15.33-15.455,2.69-10.037,12.678-14.352,21.611-14.352h.8a3.052,3.052,0,0,0,3.054-2.409c.458-1.706,1.948-10.638,2.454-13.65a38.8,38.8,0,0,1,.862-4.717c.564-2.107,1.583-2.91,3.792-2.91A52.449,52.449,0,0,1,1220.423,2651.169Zm-27.48,36.633c-.538,2.007,1.2,3.011,2.907,3.011,2.308,0,3.435-1.2,4-3.312.349-1.3.544-2.408-2.366-2.408C1195.776,2685.092,1193.481,2685.795,1192.943,2687.8Zm47.542-48.577c1.743,2.108,6.453,8.13,5.888,10.237-.834,3.112-10.819,10.037-13.328,10.037-1.2,0-1.7-1.506-2.111-2.61a43.239,43.239,0,0,0-9.075-12.948c-.643-.6-1.458-1.3-1.242-2.108.43-1.606,9.059-9.836,11.869-9.836C1234.391,2632,1239.281,2637.72,1240.484,2639.225Z" transform="translate(-421.326 -2487.714)" fill="#fff"/>
        <path id="パス_9484" data-name="パス 9484" d="M1337.41,2639.525c.95.2,1.974.5,1.732,1.405-.107.4-.489.7-1.326,1.2-1.574,1-2.386,2.91-3.091,4.416a87.652,87.652,0,0,0-5.069,14.051c-1.695,6.324-2.728,13.55-1.551,19.27.346,1.706,1.292,4.918,3.5,4.918,2.308,0,5.72-4.115,7.053-5.721,1.025-1.2,2.278-2.508,3.784-2.508,3.011,0,8.9,5.72,8.259,8.129s-6.687,7.729-8.9,9.635c-4.562,3.914-8.963,7.226-14.483,7.226-6.724,0-11.127-4.918-13.442-10.137-4.631-10.438-1.406-25.091,1.9-37.436.511-1.907,4.167-14.051,4.644-15.456a2.066,2.066,0,0,1,2.137-1.606C1323.858,2636.915,1335.036,2639.022,1337.41,2639.525Zm37.594-3.212c2.71,0,8.971,6.223,11.478,13.348a46.146,46.146,0,0,1,1.914,20.575c-.23,1.6-.574,4.015-.9,5.218-.565,2.108-1.309,3.012-3.477,3.613a39.65,39.65,0,0,1-9.992,1.707c-3.714,0-3.464-1.3-2.743-5.119,2.323-12.043.663-21.578-7.043-28.4a1.583,1.583,0,0,1-.547-1.706C1364.316,2643.238,1371.993,2636.313,1375,2636.313Z" transform="translate(-455.501 -2492.229)" fill="#fff"/>
      </g>
    </g>
    <g id="グループ_1022" data-name="グループ 1022" transform="translate(200.426 2447.595)">
      <g id="グループ_1021" data-name="グループ 1021">
        <path id="パス_9485" data-name="パス 9485" d="M254.443,2448.224a16,16,0,0,1,4.074,1.075c.448.152.871.3,1.19.394.8.242,1.534.459,2.247.669a32.7,32.7,0,0,1,5.306,1.837c2.213,1.151,2.332,2.679,2.043,3.759-.441,1.645-1.994,2.263-3.022,2.671l-.015.006c-1.065.409-1.879,1.778-3.474,4.586l0,.007c-.181.314-.365.641-.561.988-.612,1.084-1.305,2.313-2.242,3.785l0,0a6.215,6.215,0,0,0-.94,1.9c-.008.029-.014.055-.019.079a7.608,7.608,0,0,0,1.6.117h28.2c1.98,0,4-.076,5.958-.149,1.982-.074,4.032-.152,6.066-.152a3.684,3.684,0,0,1,3.091,1.137c.957,1.248.483,3.017-.019,4.891l-1.56,5.822a11.5,11.5,0,0,1-1.62,4.055,4.347,4.347,0,0,1-3.691,1.53c-2.035,0-4.069-.077-6.036-.152-1.809-.068-3.676-.139-5.524-.148l.03.02a2.844,2.844,0,0,1,1.508,3.227c-.42,1.565-2.165,2.23-3.209,2.628l-.157.06c-1.692.612-1.711.647-2.681,2.52l-.005.01a85.143,85.143,0,0,1-10.444,15.329l-.033.037a7.986,7.986,0,0,0-1.826,2.6c-.03.113-.05.188.158.4a5.887,5.887,0,0,0,1.292.842c.159.086.308.167.453.25a124.751,124.751,0,0,1,14.595,9.827l.142.1a5.472,5.472,0,0,1,1.57,1.434,3.028,3.028,0,0,1,.259,2.505,24.919,24.919,0,0,1-4.243,7.763c-1.756,2.257-4.4,4.947-6.993,4.947-1.546,0-2.839-1.217-3.611-1.944l-.031-.029c-1.545-1.314-5.6-4.508-9.5-7.261-7.182-5.072-8.905-5.219-9.078-5.219a4.678,4.678,0,0,0-2.108.7,87.051,87.051,0,0,1-20.421,8.579,154.422,154.422,0,0,1-20.816,4.56c-.241.036-.556.084-.916.14a52.465,52.465,0,0,1-5.431.68,4.266,4.266,0,0,1-3.5-1.712c-1.031-1.343-1.535-3.424-1.5-6.186a25.268,25.268,0,0,1,.79-5.86,3.828,3.828,0,0,1,2.538-2.811,14.563,14.563,0,0,1,3.855-.535l.447-.027c8.4-.493,21.184-2.209,29.554-5.427.452-.174.839-.316,1.181-.442l.229-.084-.514-.2c-2.595-1.025-5.239-2.142-7.8-3.222l-.029-.013a2.167,2.167,0,0,0-.909-.275c-.334,0-.522.038-1.138.9l-.03.04c-1.408,1.835-2.651,2.972-4.5,2.972a18.081,18.081,0,0,1-5.831-1.214,11.726,11.726,0,0,1-5.031-3.186,3.279,3.279,0,0,1-.692-2.932c.114-.425.387-1.021,2.446-3.6,1.158-1.45,2.528-3.084,3.528-4.278.522-.623.935-1.116,1.15-1.381,2.358-2.983,4.926-6.54,7.41-9.981,1.195-1.655,2.323-3.219,3.434-4.727l.016-.022a2.538,2.538,0,0,0,.291-.44,5.649,5.649,0,0,0-.9-.054h-3.011c-1.981,0-4.054.076-6.059.15-2.031.074-4.131.152-6.165.152a3.5,3.5,0,0,1-2.9-1.1c-.885-1.153-.55-2.756-.021-4.73l1.694-6.323a10.214,10.214,0,0,1,1.566-3.811,4.4,4.4,0,0,1,3.665-1.471c2.034,0,4.069.077,6.036.152,1.94.073,3.947.149,5.927.149h8.732c2.656,0,3.009-.6,4.7-3.49q.175-.3.365-.621c3.035-5.108,5.84-10.3,7.9-14.625l.016-.035a8.525,8.525,0,0,1,1.027-1.844A3.106,3.106,0,0,1,254.443,2448.224Zm12.087,6.942a3.478,3.478,0,0,0-1.33-.739c-.993-.4-2.347-.8-4.061-1.3-.719-.212-1.463-.431-2.273-.677l-.008,0c-.356-.11-.8-.26-1.267-.419a22.44,22.44,0,0,0-3.15-.922c-.256,0-.667.918-.888,1.41l-.035.077c-2.1,4.405-4.949,9.686-8.03,14.87-.124.209-.243.413-.359.61-1.8,3.064-2.882,4.913-7.188,4.913H229.21c-2.034,0-4.069-.077-6.036-.152-1.94-.073-3.947-.149-5.927-.149-1.36,0-1.6,0-2.449,3.147l-1.694,6.323a10.266,10.266,0,0,0-.434,2.165,3.553,3.553,0,0,0,.575.037c1.981,0,4.054-.076,6.059-.15,2.031-.074,4.131-.152,6.165-.152h3.011c.8,0,2.461,0,3.363,1.176a2.583,2.583,0,0,1,.381,2.343,4.366,4.366,0,0,1-.835,1.6c-1.1,1.494-2.222,3.049-3.41,4.7-2.5,3.468-5.092,7.054-7.49,10.087l-.009.011c-.23.285-.653.79-1.188,1.428-.94,1.122-2.227,2.658-3.332,4.034a25.714,25.714,0,0,0-2.071,2.781.9.9,0,0,0,.2.391,9.1,9.1,0,0,0,3.75,2.24,15.343,15.343,0,0,0,4.827,1.033c.4,0,.9-.141,2.2-1.826a4.069,4.069,0,0,1,3.468-2.088,4.835,4.835,0,0,1,2.074.521c2.539,1.072,5.164,2.181,7.724,3.192l.009,0c.272.11.521.208.741.294a7.849,7.849,0,0,1,1.71.8,1.981,1.981,0,0,1,.782,2.216,2.567,2.567,0,0,1-1.25,1.6,11.208,11.208,0,0,1-1.777.752c-.333.122-.71.261-1.142.427-8.669,3.332-21.4,5.085-30.415,5.614l-.447.027c-3.253.194-3.553.362-3.782,1.216a22.518,22.518,0,0,0-.692,5.151,7.6,7.6,0,0,0,.9,4.395,1.392,1.392,0,0,0,1.219.584c.8,0,3.526-.42,4.992-.646.367-.057.688-.106.933-.142,5.962-.88,26.476-4.4,40.164-12.751l.01-.006a7.431,7.431,0,0,1,3.592-1.108c1.063,0,2.529.569,4.753,1.846,1.639.94,3.653,2.253,5.987,3.9,4.039,2.852,8.124,6.071,9.735,7.445l.052.047.058.055a9.173,9.173,0,0,0,1.017.866,1.325,1.325,0,0,0,.619.294c.8,0,2.516-1,4.72-3.835a22.615,22.615,0,0,0,3.734-6.74,1.813,1.813,0,0,0,.053-.258,8.191,8.191,0,0,0-.772-.59l-.2-.146a122.019,122.019,0,0,0-14.286-9.624l-.011-.006c-.111-.064-.245-.136-.387-.213a8.1,8.1,0,0,1-1.971-1.35,3.2,3.2,0,0,1-.892-3.168,10.528,10.528,0,0,1,2.488-3.8,82.12,82.12,0,0,0,10.049-14.757,8.94,8.94,0,0,1,1.559-2.418,6.958,6.958,0,0,1,2.686-1.477l.123-.047a9.5,9.5,0,0,0,1.006-.43,2.69,2.69,0,0,0,.32-.193,3.141,3.141,0,0,0-.545-.344,11.952,11.952,0,0,0-1.37-.57l-.124-.045-.092-.041a4.779,4.779,0,0,1-1.006-.56,1.981,1.981,0,0,1-.787-2.109,2.306,2.306,0,0,1,1.9-1.649,7.412,7.412,0,0,1,1.587-.121h1.406c2.035,0,4.069.077,6.036.152,1.94.073,3.947.149,5.927.149,1.359,0,1.6,0,2.529-3.449l1.56-5.822a13.38,13.38,0,0,0,.477-2.342,3.771,3.771,0,0,0-.767-.06c-1.98,0-4,.076-5.958.149-1.982.074-4.032.152-6.066.152h-28.2c-1.2,0-3.016,0-3.974-1.249a2.832,2.832,0,0,1-.391-2.573,9.01,9.01,0,0,1,1.3-2.713c.895-1.405,1.567-2.6,2.161-3.649.2-.35.384-.681.57-1,1.786-3.146,2.866-5.046,4.934-5.846.4-.16,1.232-.491,1.3-.738C266.525,2455.193,266.528,2455.177,266.53,2455.166Zm-16.369,28.888h15.355c1.3,0,3.08,0,4.047,1.26a2.927,2.927,0,0,1,.393,2.66c-.762,2.841-6.925,11.949-8.027,13.507a60.155,60.155,0,0,1-4.033,5.287c-1.584,1.762-2.848,2.547-4.1,2.547a4,4,0,0,1-2.217-.652l-1.044-.446c-3.252-1.391-8.7-3.718-11.428-4.591l-.019-.006c-3.238-1.084-3-3.4-2.744-4.348a7.788,7.788,0,0,1,1.275-2.558l.012-.017c1.943-2.712,3.358-4.793,4.495-6.465l.437-.641C245.409,2485.45,246.366,2484.054,250.161,2484.054Zm17.049,3.01a7.4,7.4,0,0,0-1.693-.129H250.161c-2.193,0-2.388.16-5.22,4.288l-.43.63c-1.144,1.684-2.569,3.778-4.529,6.515a5.1,5.1,0,0,0-.852,1.65c-.082.305-.021.377.009.411a1.959,1.959,0,0,0,.859.457c2.866.917,8.378,3.274,11.673,4.683l1.121.479.081.034.076.044c.473.274.545.309.85.309.023,0,.562-.035,1.983-1.623a58.6,58.6,0,0,0,3.8-4.994c2.334-3.3,7.108-10.766,7.6-12.589A1.539,1.539,0,0,0,267.21,2487.063Z" transform="translate(-200.426 -2448.058)" fill="#856660"/>
        <path id="パス_9486" data-name="パス 9486" d="M409.367,2461.8a39.274,39.274,0,0,1,14.566,2.511,24.576,24.576,0,0,1,10.95,8.315,27.465,27.465,0,0,1,5.082,12.492,36.408,36.408,0,0,1-1.126,14.525,47.46,47.46,0,0,1-4.273,10.552,53.411,53.411,0,0,1-6.666,9.471,58.724,58.724,0,0,1-18.931,14.224c-1.485.723-4.139,1.879-6.728,2.837a23.981,23.981,0,0,1-7.048,1.821,4.859,4.859,0,0,1-3.775-2.262,18.013,18.013,0,0,1-2.746-5.949c-.3-1.1-.955-3.859-.476-5.646.491-1.831,2.377-2.348,5.415-3.037,8.148-1.973,22.393-7.474,26.327-22.155,2.227-8.309.119-13.41-2.042-16.226a12.129,12.129,0,0,0-3.394-3.059,5.459,5.459,0,0,0-2.338-.881c-.632,0-1.082,1-1.6,2.616l-.01.029a131.424,131.424,0,0,1-10.168,22.367,83.847,83.847,0,0,1-15.842,20.277,41.7,41.7,0,0,1-8.27,6.064,20.138,20.138,0,0,1-9.485,2.643,13.532,13.532,0,0,1-9.169-3.389,16,16,0,0,1-4.711-8.03c-1.087-4.262-.823-10.015.725-15.788a57.55,57.55,0,0,1,8.011-17.355,63.733,63.733,0,0,1,13-14.058C385.054,2466.386,397.386,2461.8,409.367,2461.8Zm-14.173,73.868c2.328,0,9.39-2.845,12.523-4.371l.016-.008c14.082-6.647,24.671-18.756,28.325-32.392,2.576-9.613,1.4-17.88-3.5-24.57-4.62-6.311-12.64-9.647-23.192-9.647-23.356,0-46.616,18.532-52.955,42.189-1.4,5.232-1.67,10.588-.717,14.326,1.5,5.793,5.642,9.254,11.089,9.254,4.739,0,10.058-2.675,15.811-7.952l.007-.006c14.254-12.907,22.383-33.27,25.221-41.443a11.232,11.232,0,0,1,1.239-2.832,3.639,3.639,0,0,1,3.1-1.763,8.106,8.106,0,0,1,3.807,1.284,15.03,15.03,0,0,1,4.21,3.784,17.226,17.226,0,0,1,3.261,7.549,25.744,25.744,0,0,1-.722,11.175,29.971,29.971,0,0,1-10.819,16.041,40.9,40.9,0,0,1-8.317,5,52.136,52.136,0,0,1-9.305,3.175l-.02,0a25.433,25.433,0,0,0-2.563.676,2.676,2.676,0,0,0-.725.334,10.1,10.1,0,0,0,.48,4.1,15.316,15.316,0,0,0,2.253,4.958C394.25,2535.244,394.807,2535.669,395.194,2535.669Zm-2.188-57.007a2.364,2.364,0,0,1,1.934.889,2.744,2.744,0,0,1,.359,2.429,88.269,88.269,0,0,1-5.023,11.757,101.291,101.291,0,0,1-8.424,14.429,67.118,67.118,0,0,1-4.367,5.275,24.658,24.658,0,0,1-2.843,2.665,5.283,5.283,0,0,1-3.106,1.367,3.26,3.26,0,0,1-2.68-1.3c-.873-1.138-1.209-2.928-1.026-5.47a27.56,27.56,0,0,1,.809-4.774,42.789,42.789,0,0,1,12.517-20.145,40.851,40.851,0,0,1,6.945-5.213C389.318,2479.855,391.574,2478.662,393.006,2478.662Zm-21.473,35.93c.056,0,1.052-.116,3.9-3.177a64.385,64.385,0,0,0,4.11-4.974l.005-.007a98.5,98.5,0,0,0,8.142-13.971,96.391,96.391,0,0,0,4.688-10.768,15.786,15.786,0,0,0-2.855,1.376,38.035,38.035,0,0,0-6.443,4.851,39.91,39.91,0,0,0-11.661,18.749,24.445,24.445,0,0,0-.718,4.235c-.179,2.493.29,3.317.439,3.51A.41.41,0,0,0,371.533,2514.592Z" transform="translate(-234.727 -2451.097)" fill="#856660"/>
        <path id="パス_9487" data-name="パス 9487" d="M526.232,2452.232c1.947,0,3.895.072,5.957.148s4.186.154,6.306.154H567c2.25,0,4.523-.026,6.721-.05s4.487-.051,6.754-.051a7.654,7.654,0,0,1,3.953.77,8.065,8.065,0,0,1,2.491,2.646c.069.094.144.2.224.3,1.059,1.42,2.83,3.8,2.208,6.124-.254.946-1.067,2.444-5.141,5.655-2.359,1.859-5.562,4.1-9.52,6.65-7.09,4.574-14.647,8.893-17.016,10.166a5.144,5.144,0,0,0-2.716,3.625l-.242.9a.86.86,0,0,0,.092.756.7.7,0,0,0,.575.241h17.664c2.235,0,4.539-.076,6.767-.15,2.252-.074,4.58-.152,6.862-.152a3.664,3.664,0,0,1,3.075,1.133c.969,1.263.471,3.125-.057,5.1l-1.614,6.023a11.144,11.144,0,0,1-1.628,4.023,4.545,4.545,0,0,1-3.784,1.56c-2.282,0-4.57-.077-6.782-.152-2.189-.073-4.452-.15-6.686-.15H551.536a2.6,2.6,0,0,0-2.172,1.743l-3.308,12.345c-.3,1.114-.539,2.292-.771,3.433-.24,1.179-.489,2.4-.809,3.592-1.574,5.874-5.4,9.977-11.386,12.194-5.074,1.881-10.967,2.122-15.535,2.122a16.056,16.056,0,0,1-4.391-.41,3.966,3.966,0,0,1-3.086-3.326l0-.024c-.309-2.346.909-8.307,1.469-10.4.363-1.356,1.12-4.179,4.432-4.179a12.718,12.718,0,0,1,1.433.116c.353.042.717.085.922.085h.056l.056,0c.392.031.795.069,1.221.11.96.092,1.952.187,2.8.187,2.226,0,3.728-.1,4.336-.608.568-.472.917-1.774,1.444-3.744l3.281-12.245a.927.927,0,0,0-.07-.78.744.744,0,0,0-.6-.218H512.9c-2.234,0-4.539.076-6.767.15-2.252.074-4.58.152-6.862.152a3.728,3.728,0,0,1-3.132-1.159c-1-1.3-.48-3.228.067-5.27l1.559-5.821a11.162,11.162,0,0,1,1.628-4.024,4.544,4.544,0,0,1,3.784-1.561c2.282,0,4.595.077,6.832.152,2.214.074,4.5.15,6.737.15h17.564a2.491,2.491,0,0,0,2.626-1.943l.458-1.707c.6-2.225,1.17-4.791,1.5-6.7l.011-.065.017-.063c.015-.056.033-.2.047-.311a5.109,5.109,0,0,1,.121-.69,3.373,3.373,0,0,1,1.742-2.247,4.815,4.815,0,0,1,2.188-.43h1a6.131,6.131,0,0,0,4.052-1.382c.185-.118.376-.24.581-.369.229-.173.533-.371.909-.616l.442-.289c.411-.3.886-.634,1.387-.99.916-.651,2.413-1.715,3.588-2.606H534.623c-2.031,0-4.13.076-6.16.149-2.056.074-4.181.152-6.265.152a3.677,3.677,0,0,1-3.048-1.142c-.919-1.2-.575-2.832.056-5.187l1.614-6.022a11.155,11.155,0,0,1,1.628-4.023A4.544,4.544,0,0,1,526.232,2452.232ZM567,2455.415H538.5c-2.173,0-4.328-.079-6.412-.156-2.035-.075-3.958-.146-5.851-.146-1.411,0-1.7,0-2.629,3.448l-1.614,6.021c-.19.711-.379,1.447-.468,2.005a3.353,3.353,0,0,0-.054.638,3.406,3.406,0,0,0,.731.06c2.031,0,4.13-.076,6.16-.149,2.056-.074,4.181-.152,6.265-.152H555.2c1.8,0,3.1,0,3.814.93a1.811,1.811,0,0,1,.3,1.586c-.244.908-1.237,1.754-6.253,5.319-.507.361-.986.7-1.4,1l-.049.034-.481.315c-.326.212-.633.413-.766.518l-.062.049-.067.042c-.215.134-.419.264-.616.39a8.918,8.918,0,0,1-5.6,1.835h-1c-1,0-1.051.18-1.147.539-.014.052-.032.2-.046.305a5.539,5.539,0,0,1-.1.625c-.349,2.007-.926,4.58-1.546,6.9l-.458,1.707a5.414,5.414,0,0,1-2.046,3.055,5.715,5.715,0,0,1-3.362,1.023H516.742c-2.282,0-4.6-.077-6.833-.152-2.213-.074-4.5-.15-6.736-.15-1.411,0-1.7,0-2.63,3.449l-1.559,5.821c-.2.735-.392,1.493-.482,2.064a3.281,3.281,0,0,0-.054.667,3.473,3.473,0,0,0,.818.071c2.234,0,4.538-.076,6.767-.15,2.252-.074,4.58-.152,6.862-.152h17.966a3.527,3.527,0,0,1,2.881,1.345,3.742,3.742,0,0,1,.567,3.279l-3.281,12.244c-.694,2.592-1.113,4.156-2.385,5.214-1.295,1.077-3.1,1.274-6.178,1.274-.986,0-2.048-.1-3.075-.2-.4-.038-.77-.074-1.122-.1-.359-.005-.767-.053-1.2-.1a10.927,10.927,0,0,0-1.095-.1c-.783,0-1.152.185-1.65,2.044-.688,2.569-1.6,7.691-1.4,9.261.152.961,1.28,1.27,4.626,1.27,10.322,0,21.262-1.447,24.138-12.18.3-1.11.537-2.286.769-3.423.241-1.182.49-2.4.811-3.6l3.308-12.345a5.456,5.456,0,0,1,4.955-3.878H569.2c2.283,0,4.571.077,6.783.152,2.189.073,4.452.15,6.685.15,1.412,0,1.706,0,2.629-3.448l1.614-6.023a14.09,14.09,0,0,0,.519-2.545,3.757,3.757,0,0,0-.754-.058c-2.234,0-4.539.076-6.767.15-2.252.074-4.581.152-6.863.152H555.382a3.562,3.562,0,0,1-2.861-1.368,3.717,3.717,0,0,1-.589-3.255l.242-.9a7.973,7.973,0,0,1,4.114-5.405l.014-.008c2.329-1.252,9.8-5.521,16.825-10.053,3.882-2.5,7.01-4.688,9.3-6.492,3.66-2.885,4.092-3.953,4.141-4.137.262-.979-1.087-2.788-1.735-3.657-.089-.12-.173-.233-.251-.338l-.025-.035c-1.272-1.852-1.5-2.185-4.082-2.185-2.25,0-4.523.026-6.721.05S569.266,2455.415,567,2455.415Z" transform="translate(-266.804 -2448.955)" fill="#856660"/>
        <path id="パス_9488" data-name="パス 9488" d="M709.346,2461.8a39.277,39.277,0,0,1,14.567,2.511,24.577,24.577,0,0,1,10.95,8.315,27.465,27.465,0,0,1,5.082,12.492,36.41,36.41,0,0,1-1.126,14.525,47.455,47.455,0,0,1-4.272,10.552,53.406,53.406,0,0,1-6.666,9.471,58.733,58.733,0,0,1-18.931,14.224c-1.485.723-4.138,1.879-6.728,2.837a23.984,23.984,0,0,1-7.049,1.821,4.858,4.858,0,0,1-3.774-2.262,18.015,18.015,0,0,1-2.746-5.949c-.3-1.1-.955-3.859-.476-5.646.491-1.831,2.377-2.348,5.414-3.037,8.148-1.973,22.392-7.474,26.326-22.155,2.227-8.31.119-13.41-2.042-16.226a12.124,12.124,0,0,0-3.393-3.059,5.458,5.458,0,0,0-2.338-.881c-.633,0-1.083,1-1.6,2.615l-.01.03a131.417,131.417,0,0,1-10.168,22.367,83.865,83.865,0,0,1-15.843,20.278,41.7,41.7,0,0,1-8.269,6.063,20.138,20.138,0,0,1-9.485,2.643,13.533,13.533,0,0,1-9.169-3.389,16,16,0,0,1-4.711-8.03c-1.086-4.265-.822-10.018.724-15.788a57.557,57.557,0,0,1,8.012-17.355,63.733,63.733,0,0,1,13-14.058C685.033,2466.386,697.364,2461.8,709.346,2461.8Zm-14.172,73.868c2.328,0,9.391-2.845,12.523-4.371l.016-.008c14.083-6.647,24.671-18.757,28.324-32.392,2.576-9.614,1.4-17.88-3.5-24.57-4.62-6.311-12.64-9.647-23.193-9.647-23.354,0-46.615,18.532-52.954,42.189-1.4,5.23-1.669,10.585-.717,14.327,1.5,5.792,5.642,9.253,11.09,9.253,4.739,0,10.058-2.675,15.811-7.952l.007-.006c14.255-12.909,22.384-33.272,25.222-41.443a11.212,11.212,0,0,1,1.239-2.832,3.64,3.64,0,0,1,3.1-1.763,8.105,8.105,0,0,1,3.807,1.284,15.03,15.03,0,0,1,4.21,3.783,17.226,17.226,0,0,1,3.261,7.549,25.745,25.745,0,0,1-.722,11.176,29.969,29.969,0,0,1-10.819,16.041,40.9,40.9,0,0,1-8.317,5,52.135,52.135,0,0,1-9.3,3.175l-.02,0a25.455,25.455,0,0,0-2.563.676,2.67,2.67,0,0,0-.724.334,10.1,10.1,0,0,0,.48,4.1,15.315,15.315,0,0,0,2.253,4.958C694.23,2535.245,694.786,2535.669,695.173,2535.669Zm-2.187-57.007a2.364,2.364,0,0,1,1.934.889,2.744,2.744,0,0,1,.359,2.429,88.308,88.308,0,0,1-5.024,11.757,101.342,101.342,0,0,1-8.423,14.428,65.854,65.854,0,0,1-4.367,5.275,24.694,24.694,0,0,1-2.843,2.665,5.285,5.285,0,0,1-3.106,1.367,3.259,3.259,0,0,1-2.679-1.3c-.874-1.138-1.209-2.927-1.027-5.47a27.586,27.586,0,0,1,.808-4.774,42.793,42.793,0,0,1,12.518-20.146,40.851,40.851,0,0,1,6.946-5.213C689.3,2479.855,691.554,2478.662,692.986,2478.662Zm-21.473,35.93c.056,0,1.052-.115,3.9-3.176a64.412,64.412,0,0,0,4.11-4.975l.005-.007a98.537,98.537,0,0,0,8.142-13.971,96.465,96.465,0,0,0,4.688-10.768,15.8,15.8,0,0,0-2.855,1.376,38.037,38.037,0,0,0-6.443,4.851A39.914,39.914,0,0,0,671.4,2506.67a24.478,24.478,0,0,0-.717,4.235c-.179,2.493.291,3.317.439,3.51A.409.409,0,0,0,671.513,2514.592Z" transform="translate(-301.866 -2451.097)" fill="#856660"/>
        <path id="パス_9489" data-name="パス 9489" d="M875.5,2446.155a3.48,3.48,0,0,1,2.927,1.089,3.206,3.206,0,0,1,.5,2.365,18.215,18.215,0,0,1-.559,2.575l-1.264,4.717a10.514,10.514,0,0,1-1.559,3.844,4.264,4.264,0,0,1-3.571,1.439c-.815,0-1.6-.054-2.356-.106-.7-.049-1.366-.094-2.007-.094H853.864c-2.215,0-2.5.715-3.231,3.448l-15.705,58.613c-.682,2.545-1.32,5.114-1.936,7.6-.62,2.5-1.262,5.084-1.952,7.658-.436,1.629-.856,2.939-1.94,3.744-1.045.776-2.361.836-4.105.836h-5.821c-1.231,0-2.763,0-3.606-1.1-.813-1.059-.513-2.52-.136-3.926.7-2.622,1.459-5.255,2.191-7.8s1.482-5.157,2.178-7.755l16.458-61.422c.476-1.779.882-3.576,1.274-5.314.4-1.766.81-3.591,1.3-5.426a6.141,6.141,0,0,1,2.668-4.015,8.233,8.233,0,0,1,4.262-.866c1.1,0,2.158.053,3.18.1.994.05,1.933.1,2.889.1h16.459c1.478,0,2.818-.084,4.114-.166C873.5,2446.22,874.535,2446.155,875.5,2446.155Zm.588,2.916a3.976,3.976,0,0,0-.588-.035c-.874,0-1.864.063-2.911.128-1.278.081-2.727.172-4.3.172H851.834c-1.028,0-2.047-.051-3.033-.1s-2.006-.1-3.036-.1c-2.643,0-3.508.36-4.148,2.746-.477,1.779-.882,3.576-1.274,5.314-.4,1.765-.81,3.591-1.3,5.425l-16.458,61.423c-.7,2.623-1.46,5.257-2.192,7.8s-1.481,5.156-2.177,7.752a8.345,8.345,0,0,0-.278,1.344,9.8,9.8,0,0,0,1.238.054h5.821a5.888,5.888,0,0,0,2.388-.268,5.343,5.343,0,0,0,.875-2.177c.683-2.548,1.321-5.12,1.938-7.606s1.261-5.078,1.949-7.649l15.705-58.613a9.711,9.711,0,0,1,1.636-3.86,5.26,5.26,0,0,1,4.378-1.724h13.749c.74,0,1.485.052,2.206.1s1.441.1,2.157.1c1.033,0,1.211-.221,1.329-.367a9.375,9.375,0,0,0,1.019-2.781l1.264-4.717A15.187,15.187,0,0,0,876.088,2449.071Z" transform="translate(-338.309 -2447.595)" fill="#856660"/>
        <path id="パス_9490" data-name="パス 9490" d="M964.639,2449.646c.327,0,1.006,0,7.321,1.606,2.127.541,4.633,1.2,7.449,1.951l.016,0a7.53,7.53,0,0,1,1.81.683,2.068,2.068,0,0,1,1.169,2.386c-.293,1.1-1.418,1.75-2.981,2.635a11.751,11.751,0,0,0-1.184,1.894c-.549,1-1.113,2.118-1.525,2.937l-.126.25c-.095.183-.178.327-.244.443-.027.046-.059.1-.077.136-.045.155-.1.3-.157.445.338-.1.688-.205.879-.265l.284-.088.232-.072a6.521,6.521,0,0,1,2-.393,2.388,2.388,0,0,1,1.827.71,2.948,2.948,0,0,1,.612,2.333v.017a99.8,99.8,0,0,1-1.837,10.7,4.6,4.6,0,0,1-3.2,3.37,52.349,52.349,0,0,1-8.284,1.792l-.01,0c-2.868.47-3.011.694-4.768,3.436l-.279.435c-2.6,4.086-5.566,8.443-9.318,13.71-4.1,5.791-8.507,11.934-13.218,17.736l-.015.018c-.4.478-.835.983-1.255,1.472-.813.947-1.654,1.926-2.245,2.7a4.3,4.3,0,0,1-3.753,2.069,16.688,16.688,0,0,1-6.3-1.818c-1.194-.564-4.123-2.077-5.545-3.929a3.257,3.257,0,0,1-.764-2.891c.084-.312.279-1.041,3.493-4.593,1.39-1.626,6.1-7.356,10.62-13.079,6.588-8.347,8.339-11.069,8.8-11.922-.721.037-2.33.194-2.957.28l-.067.008-.184.017c-1.21.108-3.235.29-4.44.29a3.255,3.255,0,0,1-2.678-1.038,5.13,5.13,0,0,1-.813-3.6,48.468,48.468,0,0,1,.884-6.465c.07-.481.379-2.565.671-3.652a3.66,3.66,0,0,1,3.883-2.875c.832,0,1.791.045,2.806.093,1.141.053,2.322.109,3.463.109,9.316,0,9.781-.307,10.988-2.157,2.054-3.158,5.649-12,6.492-15.142a6.183,6.183,0,0,1,.519-1.435A2.24,2.24,0,0,1,964.639,2449.646ZM978.71,2456l-.029-.008-.017,0c-8.166-2.187-12.294-3.169-13.63-3.4-.05.16-.1.346-.136.482a74.779,74.779,0,0,1-2.882,7.849,61.1,61.1,0,0,1-3.979,8.119c-2.179,3.339-4.389,3.466-13.4,3.466-1.209,0-2.423-.057-3.6-.112-.981-.046-1.907-.089-2.671-.089-.824,0-.956.2-1.1.74-.212.791-.481,2.475-.606,3.345l-.009.057a48.215,48.215,0,0,0-.837,5.93,4.431,4.431,0,0,0,.126,1.765,2.276,2.276,0,0,0,.48.036c1.077,0,3.1-.181,4.183-.279l.152-.014c.785-.1,2.871-.31,3.555-.31a2.842,2.842,0,0,1,2.3,1.052,2.554,2.554,0,0,1,.4,2.267c-.153.571-.511,1.909-9.36,13.127-4.59,5.82-9.412,11.683-10.822,13.331l-.026.03a34.916,34.916,0,0,0-2.835,3.421c.147.425,1.193,1.618,3.767,2.986a16.277,16.277,0,0,0,6.035,2.026c.632,0,.8-.07,1.469-.943.639-.832,1.506-1.842,2.345-2.818.412-.479.837-.975,1.225-1.437,4.654-5.732,9.022-11.827,13.1-17.58,3.726-5.23,6.66-9.548,9.238-13.592l0,0,.278-.434a12,12,0,0,1,2.578-3.256,8.811,8.811,0,0,1,4.142-1.468c8.117-1.389,8.829-1.737,9.186-3.068a100.91,100.91,0,0,0,1.738-10.07c-.207.048-.438.12-.7.2l-.247.076-.271.084a9.953,9.953,0,0,1-2.521.582,2.23,2.23,0,0,1-1.78-.879,2.745,2.745,0,0,1-.44-2.338,6.877,6.877,0,0,1,.281-.8c.043-.107.1-.254.117-.309a3.041,3.041,0,0,1,.347-.765c.056-.1.114-.2.177-.32l.115-.228c2.1-4.183,2.95-5.526,3.772-5.991C978.131,2456.333,978.423,2456.168,978.71,2456Zm17.41,9.506a4.8,4.8,0,0,1,2.75,1.206,24.5,24.5,0,0,1,2.534,2.267c1.631,1.638,3.172,3.459,3.833,4.285a62.277,62.277,0,0,1,3.9,5.24c1.934,2.967,2.632,4.9,2.263,6.279-.634,2.366-4.394,5.386-6.579,6.976-1.331.968-5.85,4.127-8.14,4.127a2.948,2.948,0,0,1-2.514-1.471,9.237,9.237,0,0,1-.9-1.948l-.036-.1a41.2,41.2,0,0,0-8.746-12.45l-.081-.076c-.737-.688-1.97-1.839-1.542-3.434.117-.436.446-1.15,1.97-2.813a47.558,47.558,0,0,1,3.511-3.413,37.489,37.489,0,0,1,4.008-3.127A7.436,7.436,0,0,1,996.12,2465.5Zm12.493,18.542c.009-.087.042-1.036-1.98-4.108a59.962,59.962,0,0,0-3.623-4.85l-.016-.019c-.585-.732-1.973-2.376-3.468-3.9-2.366-2.4-3.28-2.744-3.434-2.787a5.8,5.8,0,0,0-2.073,1.014,33.421,33.421,0,0,0-3.579,2.768,31.228,31.228,0,0,0-4.731,4.888,6.471,6.471,0,0,0,.658.676l.16.152a43.951,43.951,0,0,1,9.367,13.385l.026.067.05.137a9.495,9.495,0,0,0,.463,1.12,1.481,1.481,0,0,0,.281.407c.61-.049,3.041-1.119,6.434-3.591C1006.419,2487.027,1008.368,2484.913,1008.613,2484.046Zm-34.316-.778a53.543,53.543,0,0,1,10.105,1.447l.007,0a4.059,4.059,0,0,1,2.65,1.695,3.762,3.762,0,0,1,.219,2.986c-.126.469-.321,1.058-.547,1.739-.292.882-.624,1.881-.891,2.877-1.068,3.983-1.878,7.982-2.662,11.85-.194.958-.395,1.948-.6,2.923l-.006.026c-.255,1.128-.208,1.47-.158,1.573.042.087.253.293,1.192.7a64.608,64.608,0,0,1,7.852,4.4,26.82,26.82,0,0,1,4.077,3.173c.54.539,2.184,2.177,1.706,3.959-.484,1.806-3.513,5.07-5.226,6.714a30.537,30.537,0,0,1-3.9,3.225,7.417,7.417,0,0,1-3.894,1.567c-1.359,0-2.76-1.107-4.722-3.018l-.05-.051a19.668,19.668,0,0,0-1.4-1.406l-.039-.034-.036-.037c-.169-.171-.169-.171-.416-.171-.7,0-1.045.429-1.417.989l-.072.106a27.677,27.677,0,0,1-4.961,5.018l-.014.011a19.083,19.083,0,0,1-7,3.291,28.752,28.752,0,0,1-7.048.822,25.532,25.532,0,0,1-8.532-1.368,13.947,13.947,0,0,1-6.521-4.5,10.932,10.932,0,0,1-2.132-5.016,15.446,15.446,0,0,1,.465-6.388,19.369,19.369,0,0,1,9.122-11.807,27.64,27.64,0,0,1,13.879-3.613h.8a1.631,1.631,0,0,0,1.662-1.341c.42-1.567,1.824-9.943,2.353-13.1l.066-.4a39.959,39.959,0,0,1,.9-4.875C969.852,2484.5,971.45,2483.269,974.3,2483.269Zm9.414,4.243a51.746,51.746,0,0,0-9.414-1.362c-1.532,0-2,.362-2.4,1.843a37.558,37.558,0,0,0-.827,4.536l-.007.046-.07.419c-.911,5.431-2.008,11.859-2.412,13.365a4.475,4.475,0,0,1-4.445,3.476h-.8c-7.685,0-17.592,3.479-20.219,13.285-.973,3.629-.579,6.625,1.17,8.9,2.311,3.011,6.964,4.738,12.767,4.738,3.517,0,8.5-.609,12.282-3.51a24.893,24.893,0,0,0,4.373-4.4l.035-.053a4.473,4.473,0,0,1,3.818-2.278,3.175,3.175,0,0,1,2.433.995c.6.537,1.1,1.072,1.545,1.546a21.122,21.122,0,0,0,1.887,1.681,2.835,2.835,0,0,0,.824.495,5.171,5.171,0,0,0,2.258-1.073,27.679,27.679,0,0,0,3.517-2.916,23,23,0,0,0,4.417-5.315c-.075-.231-.669-1.543-5.023-4.346a61.673,61.673,0,0,0-6.964-3.863,4.817,4.817,0,0,1-2.625-2.081,5.143,5.143,0,0,1-.065-3.456c.2-.966.4-1.949.592-2.9.793-3.91,1.612-7.954,2.7-12.023.289-1.077.634-2.119.939-3.038.212-.639.395-1.192.5-1.579.16-.6.081-.778.08-.78S984.451,2487.7,983.711,2487.512ZM961.118,2518.6c1.2,0,2.677.137,3.494,1.2a3.334,3.334,0,0,1,.263,3.02,6.171,6.171,0,0,1-1.785,3.155,5.276,5.276,0,0,1-3.606,1.225,4.68,4.68,0,0,1-3.743-1.638,3.589,3.589,0,0,1-.556-3.185,4.729,4.729,0,0,1,2.581-3.024A7.643,7.643,0,0,1,961.118,2518.6Zm1.095,2.974a4.924,4.924,0,0,0-1.095-.093c-.937,0-2.8.343-3.15,1.643-.121.452.009.622.058.686a1.962,1.962,0,0,0,1.458.511c1.481,0,2.164-.587,2.609-2.245C962.118,2521.977,962.179,2521.752,962.213,2521.57Z" transform="translate(-362.036 -2448.376)" fill="#856660"/>
        <path id="パス_9491" data-name="パス 9491" d="M1151.5,2453.137a3.506,3.506,0,0,1,2.629.875c.871.9.906,2.2.861,3.813a109.106,109.106,0,0,1-1.647,15.361c-.875,5.154-2.08,10.69-3.392,15.588a101.112,101.112,0,0,1-9.61,24.491,75.753,75.753,0,0,1-18.2,21.313c-5.6,4.6-9.159,6.649-11.539,6.649-1.97,0-3.92-2.04-5.735-4.245l-.182-.222a27.158,27.158,0,0,1-2.454-3.3,4.877,4.877,0,0,1-.749-3.778c.316-1.177,1.266-1.919,2.909-2.878l.025-.014a54.182,54.182,0,0,0,16.5-14.553c5.741-7.827,8.435-16.135,10.141-22.5a125.6,125.6,0,0,0,4.252-29.569l0-.064a9.285,9.285,0,0,1,.348-1.779,3.891,3.891,0,0,1,2.5-2.677,28.41,28.41,0,0,1,5.117-1.278l.029-.005c.56-.1,1.194-.219,1.864-.349A37.627,37.627,0,0,1,1151.5,2453.137Zm.55,2.919a3,3,0,0,0-.55-.038,36.028,36.028,0,0,0-5.786.823c-.679.131-1.32.255-1.9.356-4.224.82-5.178,1.152-5.37,1.867a7.214,7.214,0,0,0-.255,1.2,128.468,128.468,0,0,1-4.349,30.212,85.248,85.248,0,0,1-4.036,11.915,58.273,58.273,0,0,1-6.567,11.547l0,.007a56.334,56.334,0,0,1-7.894,8.563,54.277,54.277,0,0,1-9.5,6.784c-1.334.78-1.536,1.06-1.567,1.128-.258.962,1.22,2.767,2.649,4.511l.178.217a22.743,22.743,0,0,0,1.947,2.15c1.1,1.029,1.559,1.045,1.564,1.045.419,0,1.711-.211,4.653-2.167,1.854-1.233,3.678-2.693,5.06-3.828,16.859-13.8,22.869-29.46,26.852-44.323,2.157-8.051,4.746-20.809,4.942-30.269v-.01A8.816,8.816,0,0,0,1152.054,2456.057Zm-47.611-.712c1.573,0,4.748,1.637,9.79,4.334,1.562.835,3.037,1.625,4.093,2.131a5.142,5.142,0,0,1,1.723,1.165,2.311,2.311,0,0,1,.5,2.212,2.582,2.582,0,0,1-1.9,1.868l-.03.01c-2.4.955-3.945,3.3-5.307,5.366a67.26,67.26,0,0,0-6.219,12.048,4.346,4.346,0,0,1,3.213-1.935c.248,0,1,0,2.587,1.128a11.336,11.336,0,0,1,2.337,2.195,3.468,3.468,0,0,1,.876,3.007,8.419,8.419,0,0,1-1.052,2.133l-.006.009c-3.429,5.052-9.813,14.457-11.309,20.038l-.672,2.51a5.973,5.973,0,0,1-2.579,3.432,14.26,14.26,0,0,1-3.434,1.572,22.412,22.412,0,0,1-6.739,1.383,4.346,4.346,0,0,1-4.148-2.205,9.207,9.207,0,0,1-.842-3.859v-.006c-.475-7.824,1.27-17.759,3.061-24.446a124.511,124.511,0,0,1,8.431-22.358c.562-1.126,1.157-2.292,1.734-3.42.769-1.5,1.564-3.059,2.315-4.593l.007-.015.2-.4a14.3,14.3,0,0,1,1.137-2.02A2.742,2.742,0,0,1,1104.443,2455.345Zm12.833,9.16c-.06-.031-.126-.064-.2-.1-1.11-.532-2.612-1.336-4.2-2.187-1.805-.966-3.672-1.964-5.289-2.746a15.714,15.714,0,0,0-2.994-1.224,12.047,12.047,0,0,0-.942,1.685l-.2.4c-.761,1.553-1.56,3.117-2.333,4.63-.574,1.124-1.168,2.285-1.724,3.4l-.008.016a121.358,121.358,0,0,0-8.215,21.795c-2.177,8.127-3.342,17.359-2.969,23.521.192,2.95.624,3.369,2.115,3.369a18.78,18.78,0,0,0,5.792-1.223l.021-.007c1.91-.64,3.735-1.449,4.156-3.021l.672-2.51c1.5-5.582,6.825-13.717,11.7-20.9a6.2,6.2,0,0,0,.637-1.193,4.442,4.442,0,0,0-1.284-1.564,7.534,7.534,0,0,0-1.762-1.2,1.805,1.805,0,0,0-.524.4,12.018,12.018,0,0,0-1.1,1.379c-.96,1.377-1.871,2.514-3.292,2.514a2,2,0,0,1-1.632-.766,3.131,3.131,0,0,1-.2-2.754c1.222-4.564,4.652-11.188,7.408-15.374C1112.377,2468.61,1114.2,2465.843,1117.275,2464.5Z" transform="translate(-398.782 -2449.158)" fill="#856660"/>
        <path id="パス_9492" data-name="パス 9492" d="M1261.774,2447.707c.334,0,1.029,0,6.059,1.368,2.516.684,5.107,1.438,5.982,1.7a20.921,20.921,0,0,1,3.111,1.1,5.528,5.528,0,0,1,1.438.915,2.132,2.132,0,0,1,.711,2.154,3.27,3.27,0,0,1-2.085,1.949c-1.052.464-1.753,1.7-3.377,4.71l-.137.253c-.457.927-1.065,2.05-1.807,3.341l-.028.054c-.083.161-.2.381-.268.526h.012c.672,0,3.51-.78,8.339-2.524l.024-.009.205-.07a10.163,10.163,0,0,1,2.957-.709,2.316,2.316,0,0,1,1.873.928c.6.778,1.173,2.287.323,7.094-.467,2.644-1.207,5.4-1.562,6.731l0,.007c-.521,1.942-1.514,2.9-3.664,3.519-2.255.674-5.229,1.418-8.193,2.1q.223,0,.447,0a81.147,81.147,0,0,1,22.348,3.06l.053.015a5.074,5.074,0,0,1,2.164,1.1,2.942,2.942,0,0,1,.667,3.055,47.835,47.835,0,0,1-6.266,11.6,4.289,4.289,0,0,1-3.326,1.709,7.387,7.387,0,0,1-2.709-.744l-.2-.082c-4.854-2.154-9.7-2.586-15.953-2.586H1265.3c-1.437,0-2.79-.083-3.559-1.086a3.162,3.162,0,0,1-.278-2.836c1.567-5.847,2.946-9.134,4.611-10.989a6.53,6.53,0,0,1,1.642-1.344c-1.175.249-2.29.476-3.292.67a12.807,12.807,0,0,0-3.924,1.093c-.643.411-1.168,1.177-2.176,2.853l-.007.012c-4.236,6.887-9.829,15.442-14.963,22.884-4.563,6.615-11.1,15.746-16.341,21.677l-.141.16c-1.184,1.344-2.408,2.735-4.694,2.735-1.5,0-4.567-1.605-5.167-1.927a18.46,18.46,0,0,1-5.473-4.157,3.7,3.7,0,0,1-.878-3.256c.335-1.251,1.487-2.483,3.395-4.525l.009-.009c8.315-8.742,16.069-18.862,25.143-32.813l.031-.048.035-.045a9.347,9.347,0,0,0,1.029-1.681c-.084-.008-.188-.013-.317-.013-.933,0-1.986.069-3.1.142-1.193.078-2.426.159-3.6.159a5.973,5.973,0,0,1-3.213-.64,3.6,3.6,0,0,1-1.571-3.3v-.015a76.533,76.533,0,0,1,1.8-11,5.427,5.427,0,0,1,1.048-2.219,3.5,3.5,0,0,1,2.768-1.158c.36,0,.971.046,1.9.116,1.921.145,5.135.386,8.709.386,5.145,0,5.859-.1,6.858-1.8l.007-.012c2.043-3.4,6.412-14.062,7.711-18.133A2.6,2.6,0,0,1,1261.774,2447.707Zm13.751,6.691a20.011,20.011,0,0,0-2.506-.854l-.021-.006c-.837-.251-3.367-.988-5.843-1.662-3.255-.886-4.572-1.164-5.09-1.25l-.018.062c-1.215,3.824-5.681,14.919-7.993,18.767a5.537,5.537,0,0,1-3.6,2.854,24.757,24.757,0,0,1-5.739.36c-3.682,0-6.964-.247-8.925-.395-.766-.058-1.428-.107-1.68-.107-.5,0-.7,0-1.033,1.241a77.026,77.026,0,0,0-1.7,10.266c0,.228.025.748.2.855a4.719,4.719,0,0,0,1.7.213c1.083,0,2.268-.077,3.415-.152,1.164-.076,2.263-.148,3.29-.148a3.421,3.421,0,0,1,2.775,1.084,2.68,2.68,0,0,1,.368,2.435,10.334,10.334,0,0,1-1.535,2.766c-4.214,6.477-8.1,12.063-11.881,17.074a183.321,183.321,0,0,1-13.556,16.1,16.293,16.293,0,0,0-2.713,3.3c-.009.032.018.25.3.65a14.332,14.332,0,0,0,4.42,3.366,15.939,15.939,0,0,0,4.025,1.7c.937,0,1.451-.544,2.52-1.758l.144-.164c9.229-10.448,23.913-32.625,31.005-44.156,1.1-1.835,1.864-3.007,3.09-3.791,1.172-.749,2.582-1.028,4.919-1.492h.005c4.418-.858,11.053-2.344,15.183-3.578l.013,0c1.33-.384,1.464-.666,1.688-1.5l0-.007c.335-1.253,1.034-3.859,1.48-6.334a13.513,13.513,0,0,0,.33-4.749,16.089,16.089,0,0,0-1.684.51l-.2.068c-4.946,1.786-8.077,2.691-9.306,2.691a2.951,2.951,0,0,1-2.423-1.057,2.822,2.822,0,0,1-.392-2.562,6.189,6.189,0,0,1,.512-1.109l.074-.141c.725-1.26,1.313-2.347,1.747-3.229l.025-.049.15-.277C1272.761,2457.115,1273.727,2455.327,1275.525,2454.4Zm18.183,34.272a78.426,78.426,0,0,0-21.575-2.954c-1.957,0-2.933.176-3.912,1.265-1.307,1.455-2.569,4.573-3.972,9.81-.026.1-.046.179-.06.249a10.259,10.259,0,0,0,1.116.046h3.612a63.53,63.53,0,0,1,8.817.5,31.028,31.028,0,0,1,8.29,2.324l.156.065a6.008,6.008,0,0,0,1.593.519c.135,0,.548,0,1.127-.689l.015-.018a46.325,46.325,0,0,0,5.666-10.47,1.387,1.387,0,0,0,.052-.292A4.365,4.365,0,0,0,1293.708,2488.67Zm-41.016,23.271c1.547,0,2.339,1.489,2.678,2.125l.013.025c1.078,1.883,3.1,3.287,6.023,4.173a31.006,31.006,0,0,0,8.866,1.1,52.784,52.784,0,0,0,15.32-2.051,5.458,5.458,0,0,1,1.557-.257,2.407,2.407,0,0,1,1.966.917c.922,1.2.65,3.07-.22,6.316l-.807,3.011a37.288,37.288,0,0,1-1.792,5.747,4.229,4.229,0,0,1-2.981,2.5l-.013,0c-3.5.87-14.612,1.347-17.66,1.347a61.741,61.741,0,0,1-11.857-1.019c-4.625-.917-8.155-2.456-10.493-4.573l-.018-.017a15.391,15.391,0,0,1-2.519-3.047,6.006,6.006,0,0,1-1.01-4.7c.183-.683.737-1.819,3.421-4.561,1.661-1.7,3.462-3.314,3.975-3.77l.014-.012C1249.42,2513.244,1251.228,2511.94,1252.693,2511.94Zm17.58,10.307a33.824,33.824,0,0,1-9.7-1.229c-3.656-1.109-6.247-2.967-7.7-5.521l-.043-.079a5.772,5.772,0,0,0-.314-.538,7,7,0,0,0-1.437.856c-.808.582-1.6,1.266-2.029,1.637-.5.444-2.213,1.983-3.793,3.595-2.427,2.476-2.7,3.244-2.727,3.323-.345,1.286,1.16,3.434,2.708,4.889,1.946,1.758,5.011,3.062,9.111,3.875a58.9,58.9,0,0,0,11.3.964c3.543,0,14.017-.532,16.958-1.26,1.037-.27,1.242-.744,2.7-6.2l.807-3.011c.221-.825.492-1.879.619-2.705a5.747,5.747,0,0,0,.079-.864,3.829,3.829,0,0,0-.4.1l-.039.011A55.422,55.422,0,0,1,1270.272,2522.247Z" transform="translate(-426.83 -2447.942)" fill="#856660"/>
        <path id="パス_9493" data-name="パス 9493" d="M1436.033,2469.817c2.551,0,5.663,3.13,6.883,4.475a30,30,0,0,1,5.954,9.836,47.351,47.351,0,0,1,1.986,21.217l-.005.038c-.232,1.628-.583,4.088-.93,5.388-.723,2.7-1.9,3.909-4.478,4.627a41.735,41.735,0,0,1-10.384,1.761c-1.421,0-3-.15-3.917-1.261-1.053-1.271-.73-2.977-.241-5.559l0-.012c2.385-12.366.293-20.962-6.584-27.052l-.051-.045-.047-.05a2.979,2.979,0,0,1-.884-3.063c.584-2.18,4.445-5.552,5.213-6.206C1430.346,2472.383,1433.707,2469.817,1436.033,2469.817ZM1448,2505a44.5,44.5,0,0,0-1.844-19.913,27.208,27.208,0,0,0-5.371-8.856c-2.33-2.571-4.149-3.529-4.748-3.529-.8,0-2.988,1.17-5.616,3.407a29.888,29.888,0,0,0-3,2.919,6.05,6.05,0,0,0-1.3,1.84.853.853,0,0,0-.019.086,2.41,2.41,0,0,0,.183.217,24.134,24.134,0,0,1,7.677,12.952c1.1,4.783,1.022,10.262-.228,16.749v.007c-.18.951-.335,1.772-.389,2.38a2.158,2.158,0,0,0,.022.8,3.715,3.715,0,0,0,1.7.219,37.911,37.911,0,0,0,9.595-1.651l.012,0c1.578-.438,2.017-.9,2.472-2.6C1447.439,2508.9,1447.787,2506.464,1448,2505Zm-64.414-34.577c1.623,0,13.542,2.3,15.156,2.641a3.709,3.709,0,0,1,2.591,1.425,2.194,2.194,0,0,1,.233,1.763,3.66,3.66,0,0,1-1.957,2.054,8.206,8.206,0,0,0-2.41,3.512l-.135.29a85.622,85.622,0,0,0-4.984,13.814c-1.954,7.295-2.5,13.9-1.53,18.607.458,2.255,1.3,3.768,2.089,3.768.153,0,1.013-.09,2.9-1.863a37.093,37.093,0,0,0,3.038-3.331l.017-.02c1.334-1.566,2.848-3.016,4.88-3.016a8.346,8.346,0,0,1,4.359,1.769,18.077,18.077,0,0,1,3.72,3.564c1.38,1.8,1.909,3.35,1.572,4.61-.222.829-.9,2.317-4.236,5.651-1.406,1.407-3.129,2.99-5.12,4.7a45.192,45.192,0,0,1-7.12,5.247,16.767,16.767,0,0,1-8.3,2.328,14.093,14.093,0,0,1-9.3-3.451,20.968,20.968,0,0,1-5.457-7.542c-2.195-4.948-2.9-11.074-2.142-18.728a125.551,125.551,0,0,1,3.97-19.665c.487-1.816,4.153-14.021,4.67-15.546l.008-.024A3.473,3.473,0,0,1,1383.582,2470.42Zm14.489,5.444c-2.891-.607-13.387-2.551-14.49-2.563-.372,0-.543,0-.775.64-.468,1.387-4.077,13.359-4.612,15.354-3.552,13.253-6.249,26.846-1.977,36.479,1.538,3.466,5.159,9.28,12.127,9.28,5.1,0,9.319-3.254,13.544-6.879,1.935-1.665,3.6-3.2,4.96-4.554,2.927-2.928,3.411-4.069,3.489-4.355a4.987,4.987,0,0,0-1.441-2.571c-1.872-2.21-4.363-3.75-5.427-3.75-.863,0-1.84,1.008-2.682,2a40.176,40.176,0,0,1-3.282,3.59c-1.894,1.779-3.488,2.644-4.873,2.644-2.373,0-4.117-2.156-4.911-6.072-1.352-6.577.108-14.468,1.57-19.929a88.509,88.509,0,0,1,5.155-14.284l0,0,.132-.284c.739-1.59,1.659-3.568,3.487-4.735Z" transform="translate(-462.771 -2452.891)" fill="#856660"/>
        <path id="パス_9494" data-name="パス 9494" d="M1503.594,2544.009a3.481,3.481,0,0,1-2.927-1.089,3.205,3.205,0,0,1-.5-2.364,18.194,18.194,0,0,1,.559-2.574l1.264-4.718a10.527,10.527,0,0,1,1.559-3.844,4.264,4.264,0,0,1,3.571-1.439c.815,0,1.6.054,2.355.107.7.049,1.366.094,2.007.094h13.75c2.122,0,2.458-.565,3.231-3.449l15.706-58.612c.682-2.547,1.32-5.116,1.936-7.6s1.261-5.082,1.95-7.654c.437-1.629.857-2.939,1.941-3.744,1.045-.776,2.361-.836,4.105-.836h5.821c1.231,0,2.763,0,3.606,1.1.813,1.059.513,2.52.136,3.925-.7,2.623-1.459,5.257-2.191,7.805s-1.481,5.155-2.176,7.751l-16.459,61.423c-.476,1.778-.882,3.575-1.274,5.312-.4,1.766-.811,3.592-1.3,5.427a6.14,6.14,0,0,1-2.667,4.016,8.232,8.232,0,0,1-4.263.866c-1.1,0-2.159-.053-3.18-.1-.994-.05-1.933-.1-2.888-.1H1510.8c-1.478,0-2.818.084-4.114.166C1505.592,2543.944,1504.559,2544.009,1503.594,2544.009Zm-.588-2.916a3.978,3.978,0,0,0,.588.035c.874,0,1.864-.062,2.912-.128,1.278-.081,2.727-.172,4.3-.172h16.459c1.027,0,2.046.051,3.032.1s2.006.1,3.036.1c2.644,0,3.509-.36,4.147-2.746.477-1.78.883-3.577,1.275-5.315.4-1.765.81-3.589,1.3-5.423l16.459-61.423c.7-2.621,1.458-5.255,2.19-7.8s1.482-5.158,2.177-7.756a8.328,8.328,0,0,0,.278-1.344,9.793,9.793,0,0,0-1.237-.054H1554.1a5.893,5.893,0,0,0-2.388.268,5.34,5.34,0,0,0-.875,2.177c-.682,2.546-1.32,5.116-1.937,7.6s-1.26,5.081-1.95,7.654l-15.705,58.612a9.708,9.708,0,0,1-1.636,3.861,5.26,5.26,0,0,1-4.378,1.723h-13.75c-.741,0-1.486-.052-2.206-.1s-1.441-.1-2.156-.1c-1.033,0-1.211.221-1.329.367a9.384,9.384,0,0,0-1.019,2.781l-1.264,4.718A15.188,15.188,0,0,0,1503.006,2541.093Z" transform="translate(-491.638 -2447.624)" fill="#856660"/>
        <path id="パス_9495" data-name="パス 9495" d="M1644.689,2456.37c.43,0,.966,0,6.875,2.853,1.929.931,4.313,2.112,6.713,3.324a6.654,6.654,0,0,1,2.022,1.409,2.384,2.384,0,0,1,.592,2.257,2.932,2.932,0,0,1-2.074,1.985l-.016.006c-2.405.839-3.333,2.048-5.182,4.456l-.136.177c-5.986,7.863-11.482,20.8-13.817,29.507l0,.006c-.047.174-.1.368-.152.574a18.543,18.543,0,0,1,1.347-1.723,3.558,3.558,0,0,1,2.522-1.372c1.751,0,4.587,2.239,5.77,3.78a3.313,3.313,0,0,1,.855,2.851c-.215.8-1.045,2.091-2.9,4.926-2.725,4.166-6.844,10.462-7.993,14.746-.2.743-.39,1.85-.559,2.826-.063.362-.122.706-.18,1.023a13.805,13.805,0,0,1-.42,1.973c-.869,3.244-4.509,4.962-7.582,6.1l-.024.009a20.338,20.338,0,0,1-5.942,1.385,3.482,3.482,0,0,1-3.115-1.776,11.062,11.062,0,0,1-1.079-3.154l-.007-.032c-1.9-9.161-1.128-19.61,2.428-32.883a157.435,157.435,0,0,1,13.742-33.531l.005-.01c.685-1.249,1.345-2.4,1.984-3.507,1.028-1.788,2-3.477,3.02-5.478C1641.785,2458.255,1642.718,2456.37,1644.689,2456.37Zm13.026,9.162a8.028,8.028,0,0,0-.735-.413c-7.242-3.658-11.327-5.536-12.324-5.846a3.169,3.169,0,0,0-.69,1.079l-.01.021c-1.056,2.069-2.046,3.791-3.094,5.614-.63,1.1-1.282,2.23-1.953,3.452a154.573,154.573,0,0,0-13.493,32.906c-3.433,12.814-4.194,22.835-2.394,31.536.563,2.428.855,2.682,1.384,2.682a18.852,18.852,0,0,0,4.982-1.22c1.432-.528,5.192-1.921,5.785-4.135a11.232,11.232,0,0,0,.343-1.58l.006-.058.011-.057c.058-.317.12-.671.185-1.045.179-1.036.383-2.21.615-3.079,1.268-4.73,5.539-11.259,8.365-15.578,1.026-1.568,2.178-3.329,2.476-3.971a6.184,6.184,0,0,0-1.618-1.786,7.721,7.721,0,0,0-2.123-1.321,3.711,3.711,0,0,0-.677.681c-.452.542-.991,1.306-1.661,2.285l-.046.063-.073.1a3.615,3.615,0,0,1-2.825,1.772,1.908,1.908,0,0,1-1.53-.74c-.854-1.112-.385-2.861.262-5.281l0-.007a103.71,103.71,0,0,1,5.866-15.912,79.689,79.689,0,0,1,8.443-14.6l0,0,.137-.178C1653.292,2468.354,1654.6,2466.655,1657.715,2465.532Zm24.255-8.961c2.327,0,12.645,1.586,14.681,1.927l.061.011a2.844,2.844,0,0,1,1.912,1.149,2.072,2.072,0,0,1,.217,1.636,5.831,5.831,0,0,1-1.634,2.426c-2.118,2.306-3.018,5.2-3.826,8.213a1.776,1.776,0,0,0-.077.574,1.231,1.231,0,0,0,.248.021,57.091,57.091,0,0,0,7.24-1.59l.284-.071a15.657,15.657,0,0,1,3.13-.647,2.526,2.526,0,0,1,1.9.793c1.016,1.088.9,2.834.807,4.242a42.266,42.266,0,0,1-1.075,8.622,4.69,4.69,0,0,1-3.448,3.62c-1.956.692-5.342,1.219-10.907,1.952-1.981.261-2.54.553-3,2.257-.338,1.261-3.38,14.853-3.657,16.257-.154.838-.07,1.081-.027,1.147a5.452,5.452,0,0,0,1.294.892c.189.111.4.237.627.373l.027.017a40.394,40.394,0,0,1,9.045,7.94l.041.053a5.986,5.986,0,0,1,1.408,5.438c-.517,1.931-2.8,4.551-4.771,6.358-1.6,1.472-4.646,3.942-7.022,3.942-2.346,0-3.95-2.053-5.366-3.865l-.028-.037c-.11-.151-.234-.292-.377-.455-.163-.187-.348-.4-.532-.649a3.245,3.245,0,0,0-.521-.615h0c-.2,0-.33.092-1.212,1.068l-.053.059a20.176,20.176,0,0,1-8.937,5.6,30.957,30.957,0,0,1-9.567,1.5,23.68,23.68,0,0,1-8-1.293,13.116,13.116,0,0,1-6.077-4.228,10.593,10.593,0,0,1-2.067-4.9,15.237,15.237,0,0,1,.467-6.245,19.506,19.506,0,0,1,8.868-11.719,26.368,26.368,0,0,1,13.631-3.7h2.308c.645,0,1.349-.171,1.689-1.441.325-1.211.705-3.189,1.041-4.935.3-1.565.561-2.917.77-3.7a17.154,17.154,0,0,0,.506-2.364,2.658,2.658,0,0,0,0-.807,1.693,1.693,0,0,0-.384-.034c-.685,0-2.241.064-4.042.137-2.867.117-6.436.264-9.013.264h-1.505c-2.971,0-5.126-.289-5.98-1.7l-.04-.07c-.323-.607-.506-1.5.536-6.3.508-2.343,1.152-4.866,1.452-5.989a6.337,6.337,0,0,1,1.115-2.375,3.626,3.626,0,0,1,2.909-1.4c.734,0,3.932.326,4.663.41,3.94.394,7.953.594,11.93.594,1.8,0,2.057-.94,2.165-1.342.263-.98.791-3.969,1.3-6.859.565-3.2,1.1-6.215,1.414-7.392A3.291,3.291,0,0,1,1681.97,2456.571Zm13.608,4.67c-3.367-.542-11.848-1.789-13.608-1.789a.979.979,0,0,0-.429.059,1.324,1.324,0,0,0-.242.58c-.283,1.056-.83,4.153-1.359,7.147-.545,3.086-1.06,6-1.356,7.1-.592,2.209-2.4,3.477-4.947,3.477-4.075,0-8.189-.205-12.227-.61l-.02,0c-1.076-.123-3.886-.392-4.346-.392-.24,0-.8,0-1.242,1.642-.267,1-.848,3.271-1.332,5.453a31.856,31.856,0,0,0-.808,4.66,11.35,11.35,0,0,0,3.39.318h1.505c2.518,0,6.054-.145,8.9-.261,1.908-.078,3.415-.14,4.16-.14a3.161,3.161,0,0,1,2.667,1.122c.942,1.227.709,3.023-.011,5.71-.182.679-.445,2.047-.724,3.5-.345,1.793-.736,3.826-1.087,5.136a4.439,4.439,0,0,1-4.472,3.577h-2.308c-8.043,0-17.259,4.107-19.717,13.284-.95,3.545-.579,6.454,1.1,8.647,2.143,2.792,6.44,4.394,11.791,4.394,2.558,0,11.3-.443,16.355-6.139l.066-.073c1.059-1.171,1.823-2.018,3.349-2.018a3.531,3.531,0,0,1,2.846,1.794c.11.15.233.291.376.454.159.182.34.388.519.632,1.422,1.818,2.29,2.74,3.083,2.74.775,0,2.693-1,5.073-3.183,2.267-2.083,3.7-4.083,3.938-4.983.284-1.059-.041-1.746-.93-2.964a37.886,37.886,0,0,0-8.312-7.281c-.205-.124-.4-.238-.585-.347a6.232,6.232,0,0,1-2.235-1.786,4.3,4.3,0,0,1-.4-3.267l0-.016c.285-1.447,3.34-15.1,3.7-16.454.938-3.5,3.091-4.063,5.4-4.367,5.245-.69,8.615-1.208,10.323-1.812,1.308-.463,1.408-.834,1.626-1.649a39.693,39.693,0,0,0,.981-8.023l0-.031a13.879,13.879,0,0,0,.049-1.433,3.121,3.121,0,0,0-.057-.519c-.3.049-.934.188-2.223.531l-.022.006-.294.073c-4.771,1.19-7.071,1.676-7.938,1.676a3.023,3.023,0,0,1-2.544-1.114,3.416,3.416,0,0,1-.409-3.108c.906-3.38,1.933-6.645,4.505-9.436l.031-.033C1695.315,2461.535,1695.461,2461.376,1695.578,2461.241Zm-32.226,55.448c1.794,0,3.986.173,5.022,1.523a2.7,2.7,0,0,1,.422,2.4c-.78,2.911-3.277,4.58-6.849,4.58-1.868,0-4.252-.649-5.364-2.1a3.078,3.078,0,0,1-.54-2.725c.27-1.009,1.111-2.372,3.582-3.136A13.542,13.542,0,0,1,1663.352,2516.689Zm2.647,3.228a3.005,3.005,0,0,0-.891-.243,12.046,12.046,0,0,0-1.756-.1c-1.986,0-4.279.62-4.526,1.542a.2.2,0,0,0,.043.226,4.553,4.553,0,0,0,3.079.972C1664.186,2522.309,1665.549,2521.5,1666,2519.916Z" transform="translate(-518.288 -2449.882)" fill="#856660"/>
        <path id="パス_9496" data-name="パス 9496" d="M522.934,2618.6a4.275,4.275,0,0,1,3.386,1.193c1.1,1.243.9,2.981.676,4.823-1.126,10.993,2.808,20.47,6.806,28.291l.081.158.027.116.028.058a3.4,3.4,0,0,1,.164.386,5.875,5.875,0,0,1,.794,4.124c-.558,2.087-2.936,3.433-5.69,4.991-.352.205-2.086,1.208-3.965,2.137-2.808,1.389-3.836,1.567-4.418,1.567a3.228,3.228,0,0,1-2.8-1.718,7.188,7.188,0,0,1-.656-1.4l-.067.2-.072.219c-2.933,8.923-6.291,15.67-10.267,20.624a48.893,48.893,0,0,1-15.17,12.543,38.945,38.945,0,0,1-17.918,4.656c-7.818,0-13.907-2.549-17.606-7.37a18.673,18.673,0,0,1-3.623-9.267,30.886,30.886,0,0,1,1.043-11.672c1.969-7.348,5.65-14.652,11.237-22.288a5,5,0,0,1-1.337.214,2.518,2.518,0,0,1-2.031-1.109c-1.226-1.6-1.789-5.03-2.046-7.629a26.614,26.614,0,0,1,.054-7.226,3.5,3.5,0,0,1,2.2-2.51,14.6,14.6,0,0,1,3.728-.659h.01a71.825,71.825,0,0,0,14.841-2.454l.009,0c4.414-1.294,6.3-3.032,9.558-6.689,1.158-1.361,2.9-3.406,5.079-3.406a7.079,7.079,0,0,1,4.04,1.673,18.379,18.379,0,0,1,3.481,3.474c1.084,1.413,2.815,4.11,2.228,6.3-.3,1.11-1.264,2.224-2.956,3.406-11.82,8.745-27.011,24.161-30.947,38.847-1.095,4.088-.951,7.191.417,8.973,1.1,1.434,3.107,2.161,5.963,2.161,5.316,0,11.5-2.786,15.744-7.1l0,0c6.709-6.759,10.693-17.79,12.853-25.854,2.628-9.809,3.175-16.148,2.089-24.226l-.007-.05,0-.05a7.489,7.489,0,0,1,.184-2.473c.5-1.858,2.827-3.362,7.122-4.6A35.522,35.522,0,0,1,522.934,2618.6Zm8.244,35.5a72.9,72.9,0,0,1-5.6-13.846,42.735,42.735,0,0,1-1.445-15.948l0-.024a14.059,14.059,0,0,0,.152-1.978c-.017-.472-.111-.59-.121-.6-.069-.077-.415-.224-1.231-.224a33.327,33.327,0,0,0-6.933,1.273c-3.953,1.138-5.048,2.246-5.137,2.576a4.757,4.757,0,0,0-.094,1.494,54.014,54.014,0,0,1,.315,12.443,76,76,0,0,1-2.483,12.861c-2.251,8.4-6.435,19.926-13.588,27.134h0a27.9,27.9,0,0,1-8.382,5.8,23.333,23.333,0,0,1-9.414,2.159c-3.8,0-6.574-1.106-8.248-3.288-1.961-2.556-2.269-6.416-.914-11.473a46.817,46.817,0,0,1,4.889-11.3,80.131,80.131,0,0,1,7.763-10.914,115.491,115.491,0,0,1,19.38-18.212l.033-.024c1.62-1.129,1.82-1.735,1.838-1.8.124-.461-.235-1.854-1.73-3.8-1.905-2.483-4.2-4.02-5.235-4.02a2.162,2.162,0,0,0-1.245.662,15.442,15.442,0,0,0-1.65,1.741l-.021.024c-3.258,3.663-5.619,6-10.907,7.549a74.174,74.174,0,0,1-15.4,2.562,13.449,13.449,0,0,0-2.941.47c-.27.107-.374.179-.48.576a26.178,26.178,0,0,0,.073,6.611c.4,3.682,1.063,5.251,1.385,5.7a4.712,4.712,0,0,0,1.188-.417l.041-.021.042-.019.187-.084a4.771,4.771,0,0,1,1.932-.539,1.92,1.92,0,0,1,1.537.753,2.156,2.156,0,0,1,.341,1.865,4.951,4.951,0,0,1-.967,1.7v0c-5.856,7.767-9.661,15.121-11.635,22.484-2.014,7.516-1.274,14.065,2.083,18.44,3.134,4.084,8.432,6.243,15.321,6.243,11,0,22.815-6.178,30.843-16.124,3.753-4.677,6.951-11.128,9.775-19.719l.071-.217a8.427,8.427,0,0,1,.824-1.985,2.55,2.55,0,0,1,2.222-1.2,2.137,2.137,0,0,1,1.9,1.215,4.381,4.381,0,0,1,.374,1.075,5.947,5.947,0,0,0,.579,1.46c.134.215.275.36.353.365a11.7,11.7,0,0,0,3.215-1.3c1.384-.687,2.874-1.514,3.728-2.013l.017-.01a32.064,32.064,0,0,0,3.139-1.923c.872-.649,1.131-1.071,1.2-1.311a3.908,3.908,0,0,0-.637-2.186l-.078-.154-.027-.114-.028-.059A3.383,3.383,0,0,1,531.178,2654.1Z" transform="translate(-257.158 -2486.19)" fill="#856660"/>
        <path id="パス_9497" data-name="パス 9497" d="M642,2616.527a3.736,3.736,0,0,1,3.12.964c1.038,1.235.77,3.136-.159,8.452-1.148,6.587-1.5,9.37-1.526,11.909v.014a3.208,3.208,0,0,0,.1,1.14l.056,0c.187-.014,1.326-.209,6.4-2.607,2.991-1.415,6.057-2.98,7.53-3.733l.518-.266c6.494-3.359,8.409-4.033,9.392-4.033,1.433,0,2.345,1.4,2.979,2.62a27.908,27.908,0,0,1,1.549,3.776l.006.017c1.21,3.524,2.373,7.4,1.824,9.451-.508,1.89-2.355,2.473-4.7,3.191a8.551,8.551,0,0,1-.928.309c-.215.062-.418.121-.615.192l-.061.021c-9.173,2.863-23.151,9.045-35.61,15.751a74.05,74.05,0,0,0-8.989,5.434c-3.1,2.3-4.935,4.455-5.461,6.417a2.23,2.23,0,0,0,.3,2.119c.6.777,2.148,1.821,6.157,2.386a56.43,56.43,0,0,0,7.713.405,129.765,129.765,0,0,0,15.285-.791c2.575-.355,9.377-1.413,10.935-1.863l.2-.057h.2c.056,0,.215-.022.32-.037a5.212,5.212,0,0,1,.71-.063,2.085,2.085,0,0,1,1.6.722c.615.71.793,1.8.56,3.431l0,.03c-.54,3.275-1.427,6.85-2.076,9.272a9.971,9.971,0,0,1-1.481,3.685,5.984,5.984,0,0,1-3.507,1.956l-.009,0c-5.373,1.311-23.823,1.748-28.3,1.748a63.709,63.709,0,0,1-11.336-.776,26.132,26.132,0,0,1-10.139-3.986l-.011-.007c-5.832-4.01-8.08-11.01-6.013-18.723a32.817,32.817,0,0,1,8.527-14.127,57.548,57.548,0,0,1,13.49-10.146l.033-.018.118-.061c1.675-.865,2.124-1.133,2.395-2.144a5.7,5.7,0,0,0,.019-1.634q-.011-.152-.021-.308l0-.053c-.08-2.832-.023-5.764.051-8.51v-.024a128.137,128.137,0,0,0-.1-15.18v-.017a5.345,5.345,0,0,1,.067-1.674,3.775,3.775,0,0,1,2.858-2.469,46.557,46.557,0,0,1,7.518-1.3l.215-.027A74.641,74.641,0,0,1,642,2616.527Zm.893,2.909c-.262-.028-.684-.028-.893-.028a73.666,73.666,0,0,0-7.948.765l-.219.027a57.614,57.614,0,0,0-6.4,1.016c-1.31.329-1.523.583-1.535.6l0,.014a5.025,5.025,0,0,0,.017.75,129.086,129.086,0,0,1,.1,15.512c-.073,2.693-.129,5.562-.052,8.312.006.091.012.181.018.27a7.763,7.763,0,0,1-.11,2.579c-.611,2.282-2.115,3.058-3.855,3.958l-.1.052c-10.712,5.9-18.415,14.3-20.607,22.486-1.762,6.577.008,12.262,4.857,15.6,5.843,3.939,12.728,4.266,19.858,4.266,5.723,0,22.878-.512,27.612-1.665,2.021-.508,2.149-.784,2.9-3.591.631-2.356,1.493-5.824,2.014-8.979a6.2,6.2,0,0,0,.067-.774c-.06.006-.121.012-.183.016-2.171.571-9.369,1.653-11.177,1.9l-.023,0a132.584,132.584,0,0,1-15.642.813,58.9,58.9,0,0,1-8.115-.434c-4.049-.571-6.679-1.711-8.041-3.485a5.137,5.137,0,0,1-.8-4.618c.708-2.643,2.844-5.255,6.528-7.986a76.467,76.467,0,0,1,9.341-5.657c5.784-3.113,12.373-6.346,18.553-9.1a168.876,168.876,0,0,1,17.532-6.85c.274-.1.534-.173.764-.24a5.655,5.655,0,0,0,.654-.215l.077-.034.081-.025c1.218-.373,2.735-.837,2.834-1.2.054-.2.179-1.056-.476-3.6-.42-1.632-.986-3.281-1.291-4.167l-.007-.02a15.527,15.527,0,0,0-2.011-4.394,24.641,24.641,0,0,0-3.392,1.421c-1.708.81-3.5,1.739-4.467,2.238l-.531.273c-11.482,5.864-14.141,6.655-15.227,6.655a2.851,2.851,0,0,1-2.105-.826,4.331,4.331,0,0,1-.944-3.242c.024-2.719.391-5.612,1.569-12.373.36-2.061.605-3.549.717-4.6A7.118,7.118,0,0,0,642.888,2619.436Z" transform="translate(-289.679 -2485.726)" fill="#856660"/>
        <path id="パス_9498" data-name="パス 9498" d="M799.251,2631.4a34.05,34.05,0,0,1,11.826,1.885,18.693,18.693,0,0,1,9.082,6.761l0,0c3.6,5.2,4.511,12.474,2.505,19.961a40.025,40.025,0,0,1-5.352,11.768,48.712,48.712,0,0,1-8.495,9.617,69.355,69.355,0,0,1-22.456,12.82c-4.8,1.733-16.909,5.1-22,5.1a4.064,4.064,0,0,1-3.515-1.7,7.965,7.965,0,0,1-1.143-3.068c-.3-1.447-1.279-7.431-.537-10.2a4.357,4.357,0,0,1,2.657-2.92,9.407,9.407,0,0,1,3.132-.653h.008a61.789,61.789,0,0,0,20.152-4.516c7.192-2.907,16.258-8.217,18.611-17,.756-2.821.516-5.063-.714-6.667-1.366-1.781-4-2.761-7.427-2.761-12.769,0-28.562,6.771-42.331,13.4a8.085,8.085,0,0,1-3.923,1.155c-1.107,0-2.783-.464-4.478-2.673a19.622,19.622,0,0,1-3.1-6.835,14.449,14.449,0,0,1-.381-6.758c.643-2.4,2.905-2.943,4.14-3.232,6.614-1.793,13.318-3.9,19.8-5.947,2.908-.916,5.916-1.864,8.866-2.766,3.454-1.069,8.007-2.42,12.564-3.369A61.014,61.014,0,0,1,799.251,2631.4Zm18.545,10.294c-4.277-6.127-12.446-7.413-18.545-7.413-7.631,0-15.2,1.86-24.224,4.652-2.943.9-5.945,1.846-8.847,2.761-6.518,2.053-13.258,4.177-19.937,5.986l-.048.012c-1.408.33-1.884.605-2.038,1.178a12.067,12.067,0,0,0,.39,5.3,16.683,16.683,0,0,0,2.59,5.793,3.245,3.245,0,0,0,2.193,1.546,5.39,5.39,0,0,0,2.618-.842l.037-.019a211.534,211.534,0,0,1,21.518-9.207c8.622-3.018,15.844-4.484,22.08-4.484a15.7,15.7,0,0,1,5.572.923,9.218,9.218,0,0,1,4.14,2.965c1.24,1.616,2.457,4.519,1.212,9.166a23.307,23.307,0,0,1-7.93,11.783,46.088,46.088,0,0,1-12.388,7.145l-.008,0a64.552,64.552,0,0,1-21.054,4.716c-2.84.176-3.1,1.13-3.179,1.443-.477,1.779.112,6.644.575,8.869.461,2.244.892,2.467,1.837,2.467,4.573,0,16.214-3.193,21.028-4.932l.008,0c18.153-6.435,30.723-18.184,34.488-32.236C821.671,2652.6,820.909,2646.192,817.8,2641.691Z" transform="translate(-321.763 -2489.055)" fill="#856660"/>
        <path id="パス_9499" data-name="パス 9499" d="M920.526,2618.985c2.049,0,13.3,2.167,15.905,2.975l.032.01a8.453,8.453,0,0,1,1.793.779,2.1,2.1,0,0,1,1.072,2.365,2.712,2.712,0,0,1-1.7,1.737c-1.464.717-2.01,1.984-2.7,3.586l-.129.3-.014.031a229.274,229.274,0,0,0-13.185,37.3c-1.348,5.03-2.876,10.731-1.123,13.016.634.827,1.765,1.229,3.457,1.229,5.448,0,12.137-3.118,17.456-8.138l.006-.006a43.744,43.744,0,0,0,10.012-14.177,13.156,13.156,0,0,1,1.549-2.878,3.932,3.932,0,0,1,3.174-1.7c2.787,0,5.222,2.792,6.677,4.459l.138.158c1.455,1.7,4.164,4.859,3.287,8.135a27.571,27.571,0,0,1-3.458,6.692,72.573,72.573,0,0,1-4.442,6.192,62.419,62.419,0,0,1-8.045,8.255,55.348,55.348,0,0,1-9.213,6.373,46.9,46.9,0,0,1-10.061,4.112,39.956,39.956,0,0,1-10.581,1.46,26.768,26.768,0,0,1-10.688-2.054,17.427,17.427,0,0,1-4.454-2.789,14.4,14.4,0,0,1-3.3-4.157l-.006-.012c-3.5-6.814-1.307-17.539.992-26.122,2.574-9.607,5.9-19.381,9.111-28.833.666-1.958,1.355-3.984,2.027-5.979l.007-.021c.836-2.358,1.79-5.577,2.365-7.72a11.081,11.081,0,0,1,1.074-2.972A3.284,3.284,0,0,1,920.526,2618.985Zm15.038,5.722a132.594,132.594,0,0,0-15.038-2.841c-.364,0-.412.078-.519.249a9.95,9.95,0,0,0-.737,2.2c-.588,2.2-1.567,5.5-2.428,7.927-.672,2-1.36,4.019-2.026,5.976-3.2,9.408-6.506,19.136-9.056,28.652a81.78,81.78,0,0,0-2.551,12.909c-.449,4.789,0,8.539,1.336,11.146,2.491,4.737,8.28,7.453,15.885,7.453,12.811,0,25.811-6.976,35.667-19.138l.007-.009c2.468-3,6.655-9.232,7.344-11.8.484-1.807-1.577-4.214-2.688-5.51l-.125-.144c-.983-1.127-3.03-3.472-4.507-3.472-.725,0-1.333,1.085-2.078,2.837l-.012.026a46.613,46.613,0,0,1-10.678,15.113,36.651,36.651,0,0,1-9.126,6.32,24.244,24.244,0,0,1-10.3,2.6c-2.611,0-4.543-.793-5.743-2.356-1.237-1.612-1.628-3.883-1.233-7.149a63.752,63.752,0,0,1,1.859-8.366,232.135,232.135,0,0,1,13.346-37.753l.119-.275a9.365,9.365,0,0,1,3.3-4.586Zm30.057-4.719a2.913,2.913,0,0,1,2.253,1.257c.922,1.126,1.844,2.513,2.82,3.981l.091.137c2.715,4.188,3.091,5.659,2.818,6.677a5.2,5.2,0,0,1-1.593,2.252,22.47,22.47,0,0,1-2.426,1.95,26.317,26.317,0,0,1-2.529,1.587,4.767,4.767,0,0,1-2.244.8c-.962,0-1.79-.667-2.462-1.984a57.9,57.9,0,0,0-4.879-7.742l-.041-.047-.037-.05a3.246,3.246,0,0,1-.83-2.731,4.668,4.668,0,0,1,1.712-2.2,22.6,22.6,0,0,1,2.551-1.771,29.453,29.453,0,0,1,2.621-1.42A5.238,5.238,0,0,1,965.621,2619.988Zm2.751,6.948-.077-.115c-.943-1.418-1.833-2.757-2.67-3.775l-.05-.064c-.016-.021-.031-.04-.046-.057a20.644,20.644,0,0,0-3.214,1.645,12.91,12.91,0,0,0-2.863,2.143c.049.082.121.194.23.344a60.748,60.748,0,0,1,5.222,8.258l.008.015c.057.113.109.2.155.278a19.932,19.932,0,0,0,2.947-1.782,11.844,11.844,0,0,0,2.76-2.458A18.02,18.02,0,0,0,968.372,2626.936Zm-16.2,1.282a2.846,2.846,0,0,1,2.218,1.479l.062.088c.531.661,1.988,2.609,3.292,4.658,2.394,3.761,2.511,5.071,2.282,5.926a5.232,5.232,0,0,1-1.625,2.3,21.3,21.3,0,0,1-2.468,1.95,26.034,26.034,0,0,1-2.561,1.563,4.874,4.874,0,0,1-2.239.773,2.776,2.776,0,0,1-2.483-2.176c-1.405-2.7-3.1-5.279-4.73-7.776v0a3.242,3.242,0,0,1-.807-2.7,4.548,4.548,0,0,1,1.7-2.161,23.883,23.883,0,0,1,2.543-1.769c.889-.544,1.821-1.057,2.623-1.442A5.2,5.2,0,0,1,952.176,2628.218Zm5.039,11.466c-.053-.275-.355-1.312-2.089-3.992-1.213-1.874-2.5-3.588-2.934-4.125l-.039-.05c-.036-.049-.077-.107-.122-.171-.024-.035-.057-.082-.093-.132a22.888,22.888,0,0,0-3.054,1.607,13.991,13.991,0,0,0-2.874,2.136c.082.131.193.282.258.372l.065.1a92.788,92.788,0,0,1,4.927,8.123l.052.1.036.109c.021.065.044.124.066.177a19.853,19.853,0,0,0,3-1.764A10.893,10.893,0,0,0,957.215,2639.684Z" transform="translate(-357.357 -2486.277)" fill="#856660"/>
        <path id="パス_9500" data-name="パス 9500" d="M1064.727,2640.708c.594,0,1.806.167,5.468,1.606,2.083.819,4.155,1.737,5,2.135a10.8,10.8,0,0,1,2.479,1.391,3.349,3.349,0,0,1,1.446,3.607c-.082.308-.188.6-.283.853l.262-.029a31,31,0,0,1,3.806-.228,18.875,18.875,0,0,1,6.992,1.212,11.616,11.616,0,0,1,5.026,3.691c2.378,3.1,2.928,7.375,1.591,12.366a23.3,23.3,0,0,1-5.921,10.267,32.8,32.8,0,0,1-8.792,6.315c-6.148,3.11-12.071,4.157-13.828,4.157a3.55,3.55,0,0,1-2.879-1.531,11.7,11.7,0,0,1-1.8-5.4,14.487,14.487,0,0,1,.017-4.42,3.907,3.907,0,0,1,1.7-2.389,6,6,0,0,1,2.335-.768,41.278,41.278,0,0,0,8.014-2.074c3.123-1.243,4.944-2.759,5.412-4.5a2.233,2.233,0,0,0-.146-1.911,2.083,2.083,0,0,0-1.622-.591c-4.266,0-13.387,3.676-18.072,6.321-.8.5-1.1.841-1.263,1.419-.024.219-.059,1.965,2.887,10.829,1.733,5.212,3.579,10.146,4.15,11.543a5.7,5.7,0,0,1,.423,3.347,5.4,5.4,0,0,1-2.355,2.7,27.82,27.82,0,0,1-3.735,2.154c-1.844.9-5.414,2.43-7.1,2.43a3.041,3.041,0,0,1-3.014-2.261l-.014-.041c-.5-1.562-2.324-8.818-3.785-14.648-.643-2.566-1.2-4.782-1.491-5.907l-.072-.281a6.822,6.822,0,0,0-.537-1.634.775.775,0,0,0-.174-.018,8.326,8.326,0,0,0-2.271,1.178c-1.119.705-2.317,1.555-3.279,2.238l-.22.156-.036.022a10.752,10.752,0,0,0-.988.711,5.209,5.209,0,0,1-2.842,1.214,3.589,3.589,0,0,1-2.773-1.68,18.326,18.326,0,0,1-2.484-5.349c-.386-1.294-.98-3.667-.617-5.021.413-1.537,1.9-2.322,2.979-2.9l.2-.108.058-.029c4.851-2.322,8.061-3.952,8.451-5.393.007-.038.127-.816-.756-3.49a31.863,31.863,0,0,0-1.507-3.794l-.016-.029c-.67-1.216-1.2-2.177-.863-3.431a4.321,4.321,0,0,1,2.659-2.57c1.191-.559,2.869-1.135,5.192-1.93l.637-.218c.759-.232,1.64-.546,2.572-.879.648-.231,1.318-.47,2.031-.713a9.576,9.576,0,0,1,2.933-.679,2.747,2.747,0,0,1,2.183,1.027,2.3,2.3,0,0,1,.28.471,42.678,42.678,0,0,1,3.195-4.562l.29-.379C1061.452,2642.211,1062.6,2640.708,1064.727,2640.708Zm13.577,12.516a2.508,2.508,0,0,1-2.121-.9,2.435,2.435,0,0,1-.325-2.216c.068-.254.163-.51.255-.757.082-.221.167-.449.22-.647s-.339-.513-.459-.609a8.674,8.674,0,0,0-1.844-1.007l-.049-.022c-.791-.375-2.8-1.268-4.84-2.068-3.477-1.366-4.328-1.406-4.414-1.406-.648,0-1.161.6-2.58,2.454l-.3.4-.021.026a25.775,25.775,0,0,0-3.524,5.39c0,.017-.008.033-.011.046a10.358,10.358,0,0,0,1.967.708l.045.013.044.016c.5.184,1.114.373,1.824.563l.132.035.123.06a2.91,2.91,0,0,1,1.277,1.058,2.494,2.494,0,0,1,.213,2.016c-.391,1.463-1.715,2.093-2.778,2.6l-.265.127a11.074,11.074,0,0,1-4.226,1.554,3.047,3.047,0,0,1-2.858-1.578,7.006,7.006,0,0,1-.651-2.457c-.048-.344-.1-.7-.165-1.03l0-.025a9.063,9.063,0,0,1-.173-3.648,5.815,5.815,0,0,1,.493-1.2c-.421.1-.918.273-1.376.429-.695.236-1.354.472-1.992.7-.956.341-1.859.663-2.675.913l-.569.195c-2.123.728-3.657,1.253-4.71,1.725-1.115.5-1.279.771-1.293.8a5.233,5.233,0,0,0,.6,1.293l.043.078a34.562,34.562,0,0,1,1.717,4.3c1.053,3.216.95,4.429.78,5.062-.722,2.7-3.913,4.34-9.962,7.236l-.186.1a8.724,8.724,0,0,0-1.175.7c-.322.247-.366.383-.37.4a12.672,12.672,0,0,0,.978,4.615c.9,2.481,1.8,3.589,2.153,3.8a3.555,3.555,0,0,0,1.018-.582,13.574,13.574,0,0,1,1.209-.869l.152-.108c3.691-2.619,5.816-3.949,7.191-3.949a2.949,2.949,0,0,1,2.65,1.38,8.4,8.4,0,0,1,.879,2.438l.07.273c.3,1.135.852,3.357,1.5,5.929,1.368,5.456,3.239,12.919,3.725,14.441a.96.96,0,0,0,.162.316.5.5,0,0,0,.132.013,21.16,21.16,0,0,0,5.628-2.035,26.814,26.814,0,0,0,3.322-1.864,4.979,4.979,0,0,0,1.465-1.277,3.5,3.5,0,0,0-.285-1.429l-.017-.04c-.593-1.447-2.527-6.614-4.31-12-.966-2.917-1.706-5.356-2.2-7.25-.861-3.295-.825-4.328-.657-4.954a5.164,5.164,0,0,1,2.552-3.158l.054-.032a71.012,71.012,0,0,1,9.576-4.338c2.933-1.082,7.039-2.372,9.942-2.372a4.759,4.759,0,0,1,3.907,1.719,4.981,4.981,0,0,1,.643,4.41c-.716,2.672-3.115,4.837-7.129,6.435a44.014,44.014,0,0,1-8.608,2.239l-.033.005c-1.368.2-1.552.533-1.691,1.055a13.272,13.272,0,0,0,.065,3.364,8.826,8.826,0,0,0,1.225,3.965c.3.393.509.393.585.393a36.166,36.166,0,0,0,12.528-3.847c4.9-2.476,11.165-7.047,13.23-14.757,1.1-4.093.719-7.5-1.094-9.866-1.9-2.47-5.26-3.775-9.732-3.775a28,28,0,0,0-3.481.21A10.321,10.321,0,0,1,1078.3,2653.223Zm-18.907,2.137a9.977,9.977,0,0,1-2.754-1.1,2.806,2.806,0,0,1-1.1-1.373,10.318,10.318,0,0,0,.249,2.13c.085.416.14.814.194,1.2a4.79,4.79,0,0,0,.351,1.51.759.759,0,0,0,.3.041,3.4,3.4,0,0,0,1.026-.331c.576-.244,1.256-.587,1.914-.919l.022-.01.292-.14a9.763,9.763,0,0,0,1-.529C1060.338,2655.68,1059.843,2655.521,1059.4,2655.36Z" transform="translate(-386.244 -2491.138)" fill="#856660"/>
        <path id="パス_9501" data-name="パス 9501" d="M1192.773,2611.614c.327,0,1.009,0,7.349,1.613,1.492.379,3.994,1.026,7.438,1.95a4.321,4.321,0,0,1,2.783,1.6,1.915,1.915,0,0,1,.2,1.464c-.293,1.1-1.418,1.75-2.981,2.635a11.815,11.815,0,0,0-1.192,1.908c-.552,1-1.116,2.126-1.528,2.946l-.116.231c-.093.179-.175.32-.24.433-.028.048-.061.106-.081.142-.046.155-.1.3-.158.445.328-.093.669-.2.874-.263l.289-.09.234-.073a6.522,6.522,0,0,1,2-.392,2.388,2.388,0,0,1,1.826.709,2.95,2.95,0,0,1,.612,2.334v.017a99.8,99.8,0,0,1-1.837,10.695,4.594,4.594,0,0,1-3.2,3.37,51.471,51.471,0,0,1-8.283,1.793l-.01,0c-2.867.47-3.011.694-4.766,3.435l-.28.436c-2.6,4.081-5.563,8.437-9.319,13.709-4.1,5.783-8.5,11.92-13.218,17.737l-.015.018c-.4.478-.835.983-1.255,1.472-.813.947-1.653,1.925-2.244,2.694a4.3,4.3,0,0,1-3.753,2.069,16.686,16.686,0,0,1-6.3-1.818c-1.194-.564-4.123-2.077-5.545-3.929a3.257,3.257,0,0,1-.764-2.891c.09-.336.277-1.038,3.493-4.593,1.385-1.619,6.094-7.344,10.62-13.079,6.586-8.344,8.337-11.068,8.8-11.921-.722.037-2.33.194-2.957.279l-.066.008-.177.016c-1.212.109-3.24.291-4.449.291a3.254,3.254,0,0,1-2.678-1.038,5.13,5.13,0,0,1-.813-3.6,48.457,48.457,0,0,1,.884-6.465c.07-.48.379-2.561.67-3.65a3.661,3.661,0,0,1,3.883-2.875c.832,0,1.791.045,2.806.092,1.141.053,2.322.108,3.463.108,9.316,0,9.781-.307,10.987-2.156,2.053-3.158,5.65-12,6.493-15.142a6.174,6.174,0,0,1,.518-1.435A2.239,2.239,0,0,1,1192.773,2611.614Zm14.07,6.353-.027-.007c-8.172-2.192-12.307-3.176-13.647-3.409-.05.16-.1.347-.137.483a74.765,74.765,0,0,1-2.882,7.849,61.1,61.1,0,0,1-3.979,8.12c-2.177,3.338-4.388,3.465-13.4,3.465-1.208,0-2.423-.057-3.6-.111-.981-.046-1.908-.089-2.672-.089-.824,0-.957.2-1.1.739-.212.792-.481,2.476-.606,3.345l-.009.057a48.215,48.215,0,0,0-.837,5.93,4.435,4.435,0,0,0,.126,1.765,2.273,2.273,0,0,0,.48.036c1.08,0,3.1-.182,4.191-.28l.146-.013c.784-.1,2.869-.309,3.554-.309a2.843,2.843,0,0,1,2.3,1.052,2.553,2.553,0,0,1,.4,2.266c-.153.571-.512,1.909-9.359,13.127-4.6,5.831-9.418,11.689-10.823,13.331l-.026.03a34.981,34.981,0,0,0-2.835,3.421c.147.425,1.193,1.618,3.767,2.986a16.28,16.28,0,0,0,6.035,2.025c.632,0,.8-.07,1.469-.943.639-.831,1.505-1.84,2.343-2.816.412-.479.837-.975,1.226-1.438,4.666-5.747,9.029-11.836,13.1-17.581,3.73-5.235,6.666-9.553,9.24-13.592l0,0,.279-.434a11.989,11.989,0,0,1,2.578-3.255,8.811,8.811,0,0,1,4.143-1.469c8.116-1.39,8.828-1.738,9.185-3.068a100.89,100.89,0,0,0,1.738-10.07c-.207.048-.438.12-.7.2l-.249.077-.276.085a9.922,9.922,0,0,1-2.516.58,2.228,2.228,0,0,1-1.78-.88,2.744,2.744,0,0,1-.438-2.339,6.874,6.874,0,0,1,.281-.8c.043-.106.1-.252.117-.308a3.069,3.069,0,0,1,.349-.768c.056-.1.113-.2.175-.315l.1-.2c2.11-4.2,2.959-5.551,3.785-6.017C1206.265,2618.3,1206.556,2618.136,1206.843,2617.967Zm17.41,9.505a4.8,4.8,0,0,1,2.75,1.206,24.47,24.47,0,0,1,2.535,2.267c1.628,1.635,3.171,3.458,3.833,4.285a62.274,62.274,0,0,1,3.9,5.24c1.934,2.967,2.632,4.9,2.263,6.278-.634,2.366-4.394,5.387-6.579,6.977-1.331.968-5.85,4.127-8.14,4.127a2.948,2.948,0,0,1-2.514-1.471,9.211,9.211,0,0,1-.9-1.948l-.037-.1a41.219,41.219,0,0,0-8.746-12.45l-.08-.075c-.737-.688-1.97-1.839-1.543-3.433.117-.436.446-1.151,1.97-2.814a47.577,47.577,0,0,1,3.511-3.414,37.477,37.477,0,0,1,4.008-3.127A7.435,7.435,0,0,1,1224.253,2627.472Zm12.494,18.542c.009-.088.042-1.036-1.981-4.108a60.005,60.005,0,0,0-3.623-4.85l-.015-.019c-.586-.734-1.977-2.38-3.469-3.9-2.366-2.4-3.28-2.744-3.434-2.787a5.8,5.8,0,0,0-2.073,1.014,33.414,33.414,0,0,0-3.579,2.768,31.224,31.224,0,0,0-4.73,4.888,6.453,6.453,0,0,0,.658.677l.159.151a43.962,43.962,0,0,1,9.367,13.385l.026.067.051.139a9.5,9.5,0,0,0,.463,1.12,1.479,1.479,0,0,0,.281.406c.61-.049,3.041-1.119,6.434-3.592C1234.553,2648.995,1236.5,2646.881,1236.747,2646.014Zm-34.315-.778a53.514,53.514,0,0,1,10.1,1.447l.007,0a4.06,4.06,0,0,1,2.651,1.7,3.761,3.761,0,0,1,.219,2.985c-.126.469-.321,1.059-.548,1.742-.292.881-.624,1.88-.89,2.875-1.067,3.982-1.877,7.98-2.661,11.846-.194.959-.4,1.951-.6,2.927l-.006.026c-.255,1.127-.209,1.469-.158,1.572.042.087.254.294,1.193.7a64.7,64.7,0,0,1,7.851,4.4,26.854,26.854,0,0,1,4.077,3.173c.54.539,2.184,2.178,1.707,3.959-.484,1.806-3.513,5.07-5.227,6.714a30.567,30.567,0,0,1-3.9,3.225,7.417,7.417,0,0,1-3.895,1.567c-1.36,0-2.761-1.106-4.722-3.018l-.05-.051a19.734,19.734,0,0,0-1.4-1.407l-.038-.034-.036-.036c-.168-.171-.168-.171-.418-.171-.705,0-1.046.429-1.417.99l-.07.1a27.6,27.6,0,0,1-4.962,5.018l-.014.011a19.079,19.079,0,0,1-7,3.291,28.736,28.736,0,0,1-7.048.822,25.532,25.532,0,0,1-8.532-1.368,13.946,13.946,0,0,1-6.521-4.5,10.931,10.931,0,0,1-2.132-5.016,15.447,15.447,0,0,1,.464-6.388,19.37,19.37,0,0,1,9.123-11.806,27.641,27.641,0,0,1,13.879-3.613h.8a1.631,1.631,0,0,0,1.663-1.341c.419-1.563,1.821-9.924,2.349-13.071l.071-.422a40.463,40.463,0,0,1,.9-4.874C1197.986,2646.463,1199.585,2645.236,1202.432,2645.236Zm9.411,4.243a51.716,51.716,0,0,0-9.411-1.362c-1.532,0-2,.362-2.4,1.843a38.054,38.054,0,0,0-.826,4.537l-.007.046-.074.444c-.909,5.421-2,11.837-2.407,13.34a4.474,4.474,0,0,1-4.446,3.477h-.8c-7.685,0-17.592,3.479-20.219,13.284-.972,3.629-.578,6.625,1.171,8.905,2.311,3.011,6.964,4.738,12.767,4.738,3.517,0,8.5-.609,12.282-3.511a24.8,24.8,0,0,0,4.372-4.394l.034-.051a4.472,4.472,0,0,1,3.819-2.281,3.178,3.178,0,0,1,2.435.995c.606.539,1.1,1.073,1.544,1.547a21.122,21.122,0,0,0,1.887,1.68,2.835,2.835,0,0,0,.824.494,5.169,5.169,0,0,0,2.258-1.073,27.654,27.654,0,0,0,3.517-2.916,23.007,23.007,0,0,0,4.417-5.314c-.075-.231-.669-1.543-5.023-4.346a61.725,61.725,0,0,0-6.964-3.864,4.818,4.818,0,0,1-2.625-2.08,5.14,5.14,0,0,1-.065-3.457c.2-.967.4-1.951.592-2.9.792-3.909,1.612-7.952,2.7-12.02.289-1.076.634-2.118.939-3.036.212-.64.4-1.193.5-1.581.16-.6.081-.778.08-.78S1212.585,2649.666,1211.843,2649.479Zm-22.591,31.085c1.2,0,2.677.137,3.495,1.2a3.334,3.334,0,0,1,.263,3.02,6.166,6.166,0,0,1-1.785,3.155,5.277,5.277,0,0,1-3.606,1.225,4.681,4.681,0,0,1-3.743-1.638,3.589,3.589,0,0,1-.555-3.185,4.726,4.726,0,0,1,2.58-3.024A7.644,7.644,0,0,1,1189.252,2680.564Zm1.095,2.974a4.925,4.925,0,0,0-1.095-.093c-.937,0-2.8.343-3.149,1.642-.121.453.009.623.058.686a1.962,1.962,0,0,0,1.458.511c1.482,0,2.164-.587,2.608-2.244C1190.252,2683.945,1190.313,2683.72,1190.347,2683.538Z" transform="translate(-413.095 -2484.626)" fill="#856660"/>
        <path id="パス_9502" data-name="パス 9502" d="M1366.773,2631.786c2.551,0,5.663,3.13,6.883,4.475a30,30,0,0,1,5.954,9.836,47.34,47.34,0,0,1,1.986,21.217l-.005.039c-.233,1.632-.586,4.1-.931,5.387-.722,2.7-1.894,3.909-4.477,4.627a41.789,41.789,0,0,1-10.384,1.76h0c-1.42,0-3-.15-3.917-1.26-1.053-1.27-.731-2.974-.244-5.553l0-.018c2.385-12.366.293-20.962-6.583-27.052l-.052-.046-.048-.051a2.986,2.986,0,0,1-.883-3.06c.584-2.181,4.446-5.553,5.214-6.207C1361.086,2634.351,1364.447,2631.786,1366.773,2631.786Zm11.964,35.179a44.483,44.483,0,0,0-1.844-19.913,27.213,27.213,0,0,0-5.371-8.856c-2.33-2.571-4.149-3.529-4.749-3.529-.8,0-2.988,1.17-5.616,3.407a29.876,29.876,0,0,0-3,2.918,6.053,6.053,0,0,0-1.3,1.84.849.849,0,0,0-.019.086,2.312,2.312,0,0,0,.184.219,24.134,24.134,0,0,1,7.676,12.951c1.1,4.783,1.022,10.262-.229,16.75l0,.011c-.179.949-.334,1.769-.387,2.376a2.162,2.162,0,0,0,.022.8,3.717,3.717,0,0,0,1.7.219,37.96,37.96,0,0,0,9.6-1.65l.011,0c1.577-.438,2.016-.9,2.471-2.6C1378.176,2670.877,1378.526,2668.436,1378.736,2666.965Zm-64.414-34.577c1.618,0,13.541,2.3,15.155,2.641a3.813,3.813,0,0,1,2.592,1.427,2.193,2.193,0,0,1,.232,1.761,3.655,3.655,0,0,1-1.957,2.054,8.2,8.2,0,0,0-2.411,3.514l-.134.288a85.5,85.5,0,0,0-4.983,13.813c-1.956,7.3-2.5,13.9-1.531,18.607.456,2.255,1.3,3.768,2.088,3.768.153,0,1.012-.09,2.9-1.859a37.142,37.142,0,0,0,3.038-3.33l.021-.025c1.334-1.567,2.848-3.016,4.88-3.016a8.346,8.346,0,0,1,4.359,1.769,18.08,18.08,0,0,1,3.72,3.564c1.38,1.8,1.909,3.35,1.572,4.61-.222.83-.9,2.317-4.236,5.652-1.411,1.412-3.134,2.994-5.121,4.7a45.17,45.17,0,0,1-7.119,5.247,16.767,16.767,0,0,1-8.3,2.328,14.093,14.093,0,0,1-9.3-3.451,20.958,20.958,0,0,1-5.455-7.542c-2.2-4.948-2.9-11.074-2.143-18.728a125.54,125.54,0,0,1,3.97-19.665c.489-1.826,4.156-14.031,4.671-15.547l.008-.023A3.472,3.472,0,0,1,1314.323,2632.388Zm14.489,5.444c-2.887-.606-13.39-2.551-14.49-2.563-.361,0-.543,0-.775.64-.464,1.374-4.075,13.348-4.613,15.354-3.552,13.254-6.249,26.846-1.976,36.479,1.537,3.466,5.157,9.28,12.126,9.28,5.1,0,9.319-3.254,13.544-6.879,5.8-4.991,8.178-7.917,8.45-8.909a4.993,4.993,0,0,0-1.443-2.574c-1.872-2.209-4.361-3.748-5.425-3.748-.863,0-1.839,1.008-2.681,2l0,0a40.219,40.219,0,0,1-3.283,3.59c-1.892,1.776-3.484,2.639-4.869,2.639-2.375,0-4.119-2.157-4.911-6.073-1.354-6.576.107-14.467,1.571-19.928a88.414,88.414,0,0,1,5.154-14.284l.133-.286c.739-1.591,1.659-3.571,3.489-4.739Z" transform="translate(-447.27 -2489.142)" fill="#856660"/>
      </g>
    </g>
  </g>
</svg>
