<?xml version="1.0" encoding="UTF-8"?>
<svg id="_レイヤー_2" data-name="レイヤー 2" xmlns="http://www.w3.org/2000/svg" viewBox="0 0 230.53 15">
  <defs>
    <style>
      .cls-1 {
        fill: #fff;
      }
    </style>
  </defs>
  <g id="_レイヤー_1-2" data-name="レイヤー 1">
    <g>
      <path class="cls-1" d="m222.68,13.91c-.22-3.4-3.83-4.74-5.36-7.4-.66-1.14-1.17-2.66-.33-3.84.69-.96,2.02-1.52,3.14-.99.91.43,1.86,1.64,1.91,2.68.04.75,1.08.67,1.17-.03.22-1.68,1.63-3.28,3.44-2.98,1.54.26,2.81,1.7,2.7,3.28-.11,1.65-1.42,3.03-2.55,4.12-1.66,1.6-3.35,3.17-5.03,4.75-.24.23-.38.6-.19.91.17.27.58.34.82.11,1.62-1.53,3.25-3.04,4.86-4.58,1.17-1.11,2.38-2.35,2.95-3.89.56-1.53.41-3.18-.65-4.45-.96-1.15-2.54-1.84-4.04-1.51-1.85.42-3.22,2.27-3.46,4.1l1.17-.03c-.06-1.19-.87-2.43-1.76-3.17-1.19-.98-2.76-1.04-4.07-.26-1.31.79-2.17,2.24-2.04,3.79.16,1.79,1.17,3.47,2.43,4.71,1.41,1.39,3.55,2.68,3.69,4.88.06.86,1.24.58,1.19-.2h0Z"/>
      <g>
        <path class="cls-1" d="m68.66,11.16c-.28.72-.52,1.35-.8,2.15-.14.37-.22.43-.61.43h-.37c-.4,0-.48-.06-.6-.45-.25-.8-.46-1.43-.71-2.16l-1.86-5.44c-.26-.74-.51-1.44-.86-2.4-.05-.11-.06-.2-.06-.26,0-.14.11-.17.35-.17h1.18c.4,0,.48.06.58.45.25.89.45,1.54.68,2.26l1.46,4.58c.05.14.09.2.15.2.05,0,.11-.06.15-.18l1.74-4.52c.29-.77.54-1.43.84-2.35.14-.37.22-.43.61-.43h.25c.4,0,.48.06.6.45.31.91.57,1.58.84,2.33l1.69,4.5c.05.12.09.18.15.18.05,0,.11-.06.15-.2l1.49-4.56c.23-.72.43-1.37.69-2.26.11-.38.18-.45.58-.45h1.07c.25,0,.35.03.35.17,0,.06-.01.15-.06.26-.37.95-.6,1.64-.86,2.38l-1.87,5.47c-.25.72-.46,1.37-.71,2.15-.12.38-.2.45-.6.45h-.38c-.4,0-.48-.06-.61-.43-.28-.82-.52-1.46-.78-2.15l-1.77-4.64c-.05-.12-.11-.2-.17-.2s-.11.06-.17.2l-1.78,4.64Z"/>
        <path class="cls-1" d="m86.28,12.12c.74,0,2.12-.05,2.23-.05.32,0,.38.09.38.45v.8c0,.35-.06.45-.38.45-.11,0-1.49-.03-2.23-.03h-1.18c-.72,0-1.93.03-2.04.03-.34,0-.43-.12-.43-.49.01-.86.03-1.83.03-2.56v-4.82c0-.75-.01-1.78-.03-2.57,0-.37.09-.49.43-.49.11,0,1.32.03,2.04.03h.86c.74,0,2.12-.03,2.23-.03.32,0,.38.09.38.45v.83c0,.35-.06.45-.38.45-.11,0-1.49-.05-2.23-.05h-1.09c-.38,0-.46.08-.46.46v1.75c0,.38.08.46.46.46h.77c.72,0,2.12-.03,2.23-.03.32,0,.38.09.38.45v.75c0,.35-.06.45-.38.45-.11,0-1.51-.03-2.23-.03h-.77c-.38,0-.46.08-.46.46v2.44c0,.38.08.46.46.46h1.41Z"/>
        <path class="cls-1" d="m95.93,13.74c-.72,0-1.93.03-2.04.03-.32,0-.43-.11-.43-.43,0-.11.03-1.77.03-2.63v-4.82c0-.75-.03-2.3-.03-2.57,0-.37.09-.49.43-.49.17,0,1.32.03,2.04.03h1.18c2.21,0,3.52.58,3.52,2.46,0,.89-.2,1.74-1,2.32-.12.09-.2.15-.2.2,0,.08.08.12.25.18.89.35,1.47,1.12,1.47,2.38,0,2.29-1.52,3.33-3.99,3.33h-1.23Zm-.71-6.9c0,.38.08.46.46.46h1.23c1.14,0,1.95-.43,1.95-1.66,0-1.01-.83-1.27-1.77-1.27h-1.41c-.38,0-.46.08-.46.46v2.01Zm0,4.96c0,.38.08.46.46.46h1.44c1.27,0,2.21-.6,2.21-1.87,0-1.17-.75-1.61-1.93-1.61h-1.72c-.38,0-.46.08-.46.46v2.56Z"/>
        <path class="cls-1" d="m114.53,9.01c0-.31-.12-.43-.43-.43h-1.6s-.05.01-.05.05c0,.01.01.05.03.05.6.15.89.2.89.35,0,.14-.12.2-.23.23-.11.05-.14.09-.15.22-.26,2.12-1.61,3.69-3.42,4.71-.29.17-1.11.6-1.4.6-.38,0-.98-.74-.98-1.07,0-.2.2-.23.37-.28,1.28-.37,2.6-1.31,3.33-2.41.46-.69.55-1.24.63-2.06,0-.26-.08-.38-.34-.38h-1.61c-.65,0-1.28.03-1.9.03-.38,0-.37-.2-.37-.77,0-.6-.02-.78.37-.78.63,0,1.26.03,1.9.03h3.25c.31,0,.43-.12.43-.43v-1.44c0-.31-.12-.43-.43-.43h-1.7c-.31,0-.46.08-.61.35-.25.45-.57.98-.87,1.4-.09.12-.2.26-.38.26-.29,0-1.18-.43-1.18-.72,0-.11.38-.6.48-.72.75-1,1.43-2.53,1.78-3.73.03-.09.06-.2.18-.2.14,0,.83.2,1,.25.48.14.64.18.64.35,0,.12-.12.17-.22.2-.18.06-.21.17-.32.48-.03.06-.06.15-.09.25-.01.05-.03.09-.03.12,0,.18.15.25.31.26h1.03c.31,0,.43-.12.43-.43v-.49c0-.34,0-.71-.05-1.01-.01-.05-.01-.09-.01-.14,0-.18.12-.23.28-.23.17,0,1.34.09,1.52.11.11.01.28.05.28.18,0,.09-.09.14-.2.23-.17.14-.19.37-.19.86v.49c0,.31.12.43.43.43h2.33c.55,0,1.11-.03,1.66-.03.37,0,.34.19.34.75s.03.77-.34.77c-.55,0-1.1-.03-1.66-.03h-2.33c-.31,0-.43.12-.43.43v1.44c0,.31.12.43.43.43h3.33c.63,0,1.26-.03,1.9-.03.38,0,.37.2.37.78s.01.77-.37.77c-.63,0-1.27-.03-1.9-.03h-2.18c-.31,0-.43.11-.43.43v3.36c0,.54.11.64.65.64h1.8c.61,0,.74-.17.91-1.37.05-.31.06-.49.41-.49.28,0,1.07.12,1.07.51,0,.45-.31,1.54-.49,1.97-.32.8-.84.91-1.64.91h-2.49c-1.28,0-1.72-.29-1.72-1.64v-3.89Z"/>
        <path class="cls-1" d="m128.62,7.5c0,.06.05.09.12.11.12.01.35.01.35.2,0,.09-.06.12-.17.21-.18.15-.17.45-.17,1.21v3.52c0,.52.05,1.03.05,1.54,0,.48-.2.46-.78.46s-.8.01-.8-.46c0-.51.05-1.01.05-1.54v-3.44c-.02-.09-.05-.2-.17-.2-.06,0-.09.03-.14.06-.25.23-.88.84-1.2.84-.28,0-.83-.71-.83-1,0-.22.18-.32.34-.43,1.29-.92,3.09-2.92,3.87-4.32.05-.08.11-.14.2-.14.14,0,.68.29.97.46.06.03.11.06.14.08.12.06.32.17.32.32,0,.14-.17.18-.28.2-.22.06-.23.12-.35.31-.43.66-.95,1.31-1.47,1.92-.01.01-.05.05-.05.08Zm1.06-5.48c-.2,0-.22.01-.38.22-.84,1.09-1.83,2.07-2.93,2.89-.14.09-.37.28-.54.28-.25,0-.81-.65-.81-.91,0-.17.14-.26.26-.34,1.01-.69,2.37-2,3.07-2.99.06-.09.12-.2.23-.2.14,0,.58.28.88.46.11.06.18.11.23.14.09.05.28.17.28.31,0,.12-.18.15-.28.15Zm2.86,5.19c-.58,0-1.15.03-1.72.03-.4,0-.38-.2-.38-.77s-.02-.77.38-.77c.57,0,1.14.03,1.72.03h4.16c.57,0,1.14-.03,1.72-.03.38,0,.38.19.38.77s0,.77-.38.77c-.57,0-1.15-.03-1.72-.03h-.05c-.31,0-.43.12-.43.43v4.45c0,.38.03.75.03,1.14,0,1.49-1.55,1.57-2.69,1.57-.22,0-.58.01-.72-.22-.14-.25-.23-.72-.23-1.01,0-.2.05-.43.29-.43.09,0,.22.01.31.03.17.01.38.03.55.03.89,0,.84-.31.84-1.12v-4.44c0-.31-.12-.43-.43-.43h-1.64Zm.57-3.92c-.52,0-1.04.03-1.57.03-.4,0-.38-.22-.38-.77s-.02-.78.38-.78c.52,0,1.05.05,1.57.05h2.73c.51,0,1.03-.05,1.55-.05.42,0,.38.25.38.78s.03.77-.38.77c-.52,0-1.04-.03-1.55-.03h-2.73Z"/>
        <path class="cls-1" d="m145.31,12.2c-.15.05-.17.08-.29.4-.03.08-.06.17-.11.28-.22.54-.46,1.15-.75,1.67-.06.11-.14.23-.28.23-.23,0-1.14-.32-1.14-.57,0-.09.11-.26.15-.35.38-.63.8-1.54,1-2.24.03-.11.06-.17.17-.17.12,0,.66.2.81.25.43.14.61.18.61.34,0,.12-.09.14-.18.17Zm2.5-2.83c0,.35.03.72.03,1.09,0,.49-.08.77-.63.77-.28,0-.54-.01-.81-.01h-1.57c-.28,0-.54.01-.8.01-.49,0-.63-.2-.63-.71,0-.38.01-.77.01-1.15V3.32c0-.38-.01-.77-.01-1.15,0-.46.11-.72.6-.72.28,0,.55.03.83.03h1.57c.28,0,.54-.03.81-.03.52,0,.63.26.63.74,0,.38-.03.75-.03,1.14v6.05Zm-2.55-6.48c-.26,0-.4.15-.43.41v.54c.03.26.17.4.43.43h.74c.28-.03.4-.17.43-.43v-.54c-.03-.26-.15-.41-.43-.41h-.74Zm0,2.69c-.26,0-.4.15-.43.41v.55c.03.26.17.4.43.43h.74c.28-.03.4-.17.43-.43v-.55c-.03-.26-.15-.38-.43-.41h-.74Zm0,2.72c-.26.03-.4.15-.43.43v.68c.03.26.17.42.43.42h.74c.28,0,.4-.15.43-.42v-.68c-.03-.28-.15-.4-.43-.43h-.74Zm1.77,5.7c-.25,0-.45-.52-.55-.77-.09-.22-.49-1.14-.49-1.31,0-.28.89-.48,1.04-.48.2,0,.25.2.31.37.09.25.34.77.46,1,.05.08.09.12.18.12s.15-.08.18-.14c.84-2.06,1.05-4.31,1.05-6.51v-2.57c0-.46-.01-.92-.01-1.38,0-.61.23-.77.81-.77.46,0,.92.03,1.38.03h2.93c.61,0,1.23-.05,1.84-.05.4,0,.37.17.37.77s.03.75-.35.75c-.61,0-1.24-.03-1.86-.03h-3.16c-.31,0-.43.12-.43.43v1.49c0,.31.12.43.43.43h2.87c.29,0,.6-.02.91-.02.37,0,.55.06.78.34.17.2.32.41.32.69,0,.23-.11.77-.17,1.03-.29,1.23-.74,2.44-1.38,3.53-.05.11-.09.2-.09.32,0,.14.05.23.14.34.61.72,1.23,1.34,1.97,1.93.15.12.26.2.26.34,0,.28-.66.95-.97.95-.18,0-.37-.14-.49-.26-.6-.52-1.15-1.11-1.67-1.71-.06-.08-.15-.15-.26-.15s-.18.06-.26.14c-.34.38-2.03,1.97-2.47,1.97-.29,0-.92-.75-.92-.97,0-.15.28-.32.51-.48.78-.54,1.41-1.07,2.04-1.8.08-.11.14-.2.14-.34,0-.12-.03-.2-.09-.32-.64-1.2-1.06-2.47-1.23-3.82-.02-.11-.06-.26-.18-.26s-.17.14-.17.23c0,1.51-.23,3.47-.65,4.9-.12.41-.92,2.72-1.33,2.72-.26,0-.89-.41-1.06-.63-.06-.08-.14-.18-.25-.18-.03,0-.08.01-.11.03-.09.03-.22.08-.31.08Zm5.79-7.2c-.26,0-.42.12-.38.4.11.86.38,1.6.75,2.38.05.08.11.14.2.14s.15-.06.19-.12c.26-.54.86-2.03.86-2.58,0-.23-.2-.22-.6-.22h-1.01Z"/>
        <path class="cls-1" d="m166.25,9.87c-.26,1.86-.86,3.04-2.46,4.07-.45.29-1.61.92-2.12.92-.46,0-.91-.81-.91-1.04s.37-.28.54-.34c1.87-.64,3.27-1.64,3.45-3.75.01-.14.01-.25.01-.34.02-.34.02-.48.29-.48.23,0,.91.12,1.17.17.12.01.49.06.49.23,0,.14-.22.22-.32.28-.11.09-.14.14-.15.28Zm2.5-7.39h3.23c.6,0,1.2-.03,1.81-.03.37,0,.35.15.35.71s.01.71-.35.71c-.61,0-1.21-.03-1.81-.03h-3.23c-.31,0-.43.12-.43.41v.22c0,.31.12.43.43.43h2.24c.51,0,1.03-.03,1.54-.03.34,0,.31.18.31.69,0,.55.01.72-.31.72-.51,0-1.03-.03-1.54-.03h-6.97c-.52,0-1.03.03-1.54.03-.32,0-.32-.14-.32-.72,0-.54,0-.69.32-.69.51,0,1.01.03,1.54.03h2.26c.29,0,.41-.12.41-.43v-.22c0-.29-.12-.41-.41-.41h-3.18c-.6,0-1.21.03-1.81.03-.37,0-.35-.15-.35-.71s-.01-.71.35-.71c.61,0,1.21.03,1.81.03h3.18c.28,0,.4-.11.41-.4,0-.21-.01-.43-.05-.64-.01-.05-.01-.09-.01-.14,0-.17.12-.22.28-.22.2,0,1.12.09,1.37.11.14.02.4.03.4.2,0,.11-.09.15-.2.23-.15.12-.14.28-.15.46.01.29.14.4.43.4Zm3.49,6.45c0-.29-.12-.42-.41-.42h-8.63c-.29,0-.43.12-.43.42v.28c0,.2.05.48.05.66,0,.37-.26.34-.81.34-.63,0-.84.02-.84-.35,0-.18.03-.45.03-.66v-.6c0-.34-.03-.66-.03-.83,0-.54.38-.63,1.12-.63.37,0,.83.03,1.37.03h7.74c.55,0,1.11-.03,1.64-.03.43,0,.84.12.84.63,0,.21-.03.49-.03.83v.61c0,.22.03.43.03.66,0,.35-.18.35-.83.35-.6,0-.83,0-.83-.34,0-.14.03-.46.03-.66v-.29Zm-.68,4.21c.55,0,.88-.06,1.06-1.29.03-.22.03-.41.29-.41.23,0,.66.12.89.2.26.09.37.15.37.35,0,.54-.32,1.55-.63,2.01-.42.63-.97.63-1.64.63h-2.3c-.81,0-1.4-.25-1.4-1.17,0-.29.01-.57.01-.86v-2.04c0-.38.02-.89-.05-1.26,0-.05-.01-.09-.01-.14,0-.17.12-.2.26-.2.23,0,1.04.08,1.31.11.14.01.41.01.41.2,0,.09-.09.14-.15.2-.17.14-.18.41-.18.72v2.26c0,.6.14.69.75.69h1.01Z"/>
        <path class="cls-1" d="m180.55,12.16c0,.75.03,1.51.03,2.26,0,.49-.15.51-.8.51s-.8-.02-.8-.49c0-.77.05-1.52.05-2.27V3.82c0-.48-.03-.95-.03-1.43,0-.61.23-.78.81-.78.4,0,.78.01,1.17.01h1.7c.38,0,.75-.01,1.14-.01.6,0,.84.15.84.77,0,.46-.03.92-.03,1.38v.63c0,.43.03.86.03,1.29,0,.58-.25.77-.81.77-.38,0-.78-.03-1.17-.03h-1.7c-.31,0-.43.12-.43.43v5.31Zm2.57-9.05c0-.18-.11-.29-.29-.29h-1.98c-.18,0-.29.11-.29.29v.11c.02.17.11.29.29.29h1.98c.18,0,.28-.12.29-.29v-.11Zm-2.57,1.78c0,.22.14.37.37.37h1.83c.22,0,.37-.15.37-.37v-.03c0-.22-.15-.37-.37-.37h-1.83c-.23,0-.37.15-.37.37v.03Zm6.94,7.1c0,.63.03,1.24.03,1.87,0,.43-.17.45-.75.45-.63,0-.77-.03-.77-.48,0-.61.05-1.23.05-1.84v-.43c0-.31-.14-.43-.43-.43h-.55c-.31,0-.43.09-.51.38-.29,1.09-.83,1.8-1.69,2.5-.15.12-.4.35-.6.35-.32,0-.97-.66-.97-.92,0-.15.22-.26.34-.34.61-.4,1.12-.89,1.4-1.58.01-.05.03-.09.03-.14,0-.18-.14-.25-.31-.26-.37,0-.74.03-1.11.03s-.34-.23-.34-.64c0-.46,0-.63.35-.63s.83.03,1.2.01c.29,0,.4-.14.4-.41v-.49c0-.28-.11-.41-.4-.41-.23,0-.46.01-.69.01-.37,0-.35-.22-.35-.63s-.02-.63.35-.63c.45,0,.89.03,1.32.03h3.67c.45,0,.89-.03,1.34-.03.37,0,.34.23.34.63s.03.63-.34.63c-.2,0-.4-.01-.6-.01-.29,0-.41.12-.41.41v.49c0,.28.09.41.38.41.31.02.84-.01,1.11-.01.35,0,.35.17.35.63s0,.64-.35.64c-.15,0-.92-.03-1.11-.03-.29.03-.38.14-.38.43v.43Zm-1.87-2.09c.26,0,.4-.17.43-.41v-.49c-.03-.26-.17-.43-.43-.43h-.48c-.28.03-.4.17-.43.43v.49c.03.26.15.41.43.41h.48Zm2.38-3.49c-.38,0-.77.03-1.15.03-.58,0-.83-.17-.83-.77,0-.43.03-.86.03-1.29v-.63c0-.46-.03-.92-.03-1.38,0-.6.25-.77.81-.77.4,0,.78.01,1.17.01h1.7c.38,0,.75-.01,1.14-.01.58,0,.84.15.84.77,0,.48-.03.97-.03,1.44v8.03c0,.41.03.84.03,1.26,0,.54-.11,1.14-.6,1.44-.4.26-1.15.34-1.64.34-.54,0-.87-.01-.87-1.18,0-.22.05-.38.31-.38h.2c.14.01.34.05.48.05.64,0,.58-.38.58-.86v-5.67c0-.31-.12-.43-.43-.43h-1.7Zm2.13-3.3c0-.18-.11-.29-.29-.29h-1.98c-.18,0-.29.11-.29.29v.11c.02.17.11.29.29.29h1.98c.18,0,.28-.12.29-.29v-.11Zm-2.57,1.78c0,.22.14.37.37.37h1.83c.21,0,.37-.15.37-.37v-.03c0-.22-.15-.37-.37-.37h-1.83c-.23,0-.37.15-.37.37v.03Z"/>
        <path class="cls-1" d="m199.95,11.97c-.12,0-.2.08-.28.18-.29.51-1.69,2.53-2.26,2.53-.28,0-1.04-.45-1.04-.75,0-.15.2-.32.34-.46l.08-.08c.77-.77,1.23-1.37,1.78-2.29.05-.06.08-.14.08-.21,0-.12-.08-.22-.17-.28l-.37-.28s-.09-.06-.15-.06c-.12,0-.18.09-.25.18-.06.17-.15.29-.35.29-.25,0-1.09-.28-1.09-.55,0-.09.08-.31.11-.41.41-1.29.78-2.61,1.09-3.93v-.11c0-.2-.14-.28-.32-.29-.14,0-.38.01-.51.01-.35,0-.35-.18-.35-.77,0-.61,0-.78.37-.78.25,0,.51.01.75.03.29-.01.45-.11.49-.38.12-.69.17-1.38.25-2.07.03-.28.03-.49.23-.49.11,0,1.23.22,1.41.25.11.03.23.08.23.2,0,.11-.09.18-.18.22-.22.09-.22.12-.32,1.01-.03.23-.08.52-.12.87v.09c0,.23.17.31.37.31h1.18c.46,0,.74.22.74.71,0,.23-.05.72-.06.97-.15,1.6-.38,2.96-.95,4.47-.03.08-.05.14-.05.23,0,.18.09.28.22.4.23.2,1.26,1.09,1.26,1.35s-.54,1-.83,1c-.11,0-.43-.34-.72-.64-.12-.12-.25-.26-.35-.35-.08-.06-.14-.11-.23-.11Zm-.98-6.13c-.18.84-.4,1.69-.63,2.53-.02.06-.02.11-.02.18,0,.2.09.31.25.43.15.09.29.2.45.31.06.03.12.06.2.06.14,0,.22-.09.26-.22.31-.83.64-2.5.64-3.38,0-.35-.23-.34-.64-.32-.31,0-.43.09-.51.4Zm8.17-.34c.14-.03.26-.09.26-.26,0-.05-.01-.09-.05-.14-.05-.08-.12-.22-.21-.35-.2-.34-.46-.75-.46-.86,0-.31.89-.57,1.03-.57.2,0,.31.15.4.31.48.74.74,1.18,1.14,1.98.14.29.69,1.41.69,1.67,0,.4-.89.6-1.06.6-.28,0-.31-.2-.55-.8-.12-.21-.22-.32-.46-.32h-.11c-1.58.2-3.18.38-4.78.55-.12.03-.15.09-.23.23-.05.08-.12.15-.22.15-.15,0-.21-.18-.32-.54-.06-.2-.28-.89-.28-1.07s.2-.2.78-.2h.12c.29-.03.42-.11.52-.4.51-1.44.89-2.73,1.26-4.22.03-.14.06-.31.22-.31.23,0,1.09.26,1.32.35.17.06.4.15.4.31,0,.14-.11.15-.18.17-.14.03-.23.05-.28.18-.37,1.15-.77,2.27-1.2,3.39-.01.03-.03.08-.03.12,0,.17.14.21.28.21.68-.06,1.34-.12,2-.2Zm.52,8.85c0-.18-.09-.26-.28-.26h-2.95c-.2,0-.28.08-.29.28.01.05.01.08.01.12,0,.34-.18.34-.8.34s-.78-.02-.78-.35c0-.38.03-.78.03-1.17v-3.09c0-.31-.01-.61-.01-.94,0-.52.35-.63.81-.63.37,0,.74.03,1.11.03h2.83c.37,0,.74-.03,1.11-.03.46,0,.81.09.81.65,0,.31-.01.61-.01.92v3.1c0,.4.03.78.03,1.18,0,.34-.18.34-.8.34s-.81.01-.81-.32v-.17Zm-.4-1.64c.26-.03.4-.15.43-.43v-1.75c-.03-.26-.17-.41-.43-.41h-2.7c-.28,0-.4.15-.43.41v1.75c.03.28.15.43.43.43h2.7Z"/>
        <g>
          <path class="cls-1" d="m5.91,7.9s.08.09.23.14c1.25.42,1.8,1.34,1.8,2.47,0,1.74-1.28,3.47-4.69,3.47-1.14,0-2.22-.23-2.92-.56-.23-.11-.33-.2-.33-.36,0-.08.02-.17.06-.28l.27-.77c.08-.22.14-.33.27-.33.06,0,.16.05.3.13.56.34,1.42.61,2.42.61,1.85,0,2.77-.95,2.77-1.94,0-1.08-.91-1.63-2.92-1.63-.34,0-.89.02-1.05.02-.41,0-.47-.06-.47-.45v-.7c0-.41.06-.47.47-.47.17,0,.59.02.89.02,1.89,0,2.6-.67,2.6-1.53s-.77-1.38-1.97-1.38c-.86,0-1.63.25-2.19.61-.14.09-.23.14-.31.14-.11,0-.19-.09-.28-.31l-.34-.72c-.06-.14-.09-.23-.09-.31,0-.14.09-.22.31-.33.83-.44,1.92-.74,3.1-.74,2.56,0,3.61,1.3,3.61,2.71,0,.86-.34,1.81-1.31,2.33-.13.06-.2.13-.2.17Z"/>
          <path class="cls-1" d="m19.81,10.28c0-.31-.13-.44-.44-.44h-4.6c-.3,0-.45.11-.5.41-.22,1.31-.64,2.56-1.34,3.69-.19.3-.61,1-.99,1-.3,0-1.14-.56-1.14-.94,0-.14.12-.27.22-.38,1.53-1.86,1.77-4.32,1.77-6.63v-3.17c0-.5-.03-1-.03-1.5,0-.64.3-.81.89-.81.47,0,.94.03,1.41.03h4.14c.47,0,.94-.03,1.41-.03.61,0,.91.16.91.81,0,.5-.03,1-.03,1.5v7.97c0,.39.03.78.03,1.17,0,.59-.03,1.13-.52,1.52-.61.48-1.53.52-2.28.52-.31,0-.72-.02-.83-.38-.08-.23-.14-.7-.14-.94s.08-.39.34-.39c.23,0,.56.03.83.03.81,0,.89-.19.89-.95v-2.1Zm-.44-5.33c.27-.03.41-.17.44-.44v-.98c-.03-.27-.17-.41-.44-.44h-4.47c-.27.03-.41.17-.44.44v.98c.03.27.17.41.44.44h4.47Zm-4.49,3.41h4.49c.31,0,.44-.13.44-.44v-1.05c0-.3-.13-.42-.44-.42h-4.47c-.3,0-.44.13-.44.42v.05c0,.34.02.69,0,1.02.02.3.11.42.42.42Z"/>
          <path class="cls-1" d="m30.64,12.26c.8,0,2.27-.03,2.38-.03.33,0,.39.09.39.45v.73c0,.36-.06.45-.39.45-.11,0-1.58-.03-2.38-.03h-2.03c-.8,0-2.27.03-2.38.03-.33,0-.39-.09-.39-.45v-.28c0-.41.05-.52.38-.77.28-.2.53-.42.8-.66,2.81-2.47,4.44-4.03,4.44-5.57,0-1.02-.7-1.72-1.99-1.72-.94,0-1.75.45-2.28,1.03-.14.16-.23.22-.33.22-.08,0-.17-.08-.31-.22l-.63-.67c-.13-.14-.19-.23-.19-.33,0-.11.08-.2.22-.34.89-.84,2.19-1.42,3.67-1.42,2.38,0,3.71,1.41,3.71,3.21,0,2.2-1.77,3.97-4.16,6.05-.13.11-.17.17-.17.22,0,.06.09.09.28.09h1.36Z"/>
          <path class="cls-1" d="m42.39,8.01c0,.06.08.12.23.2,1.16.58,2.08,1.38,2.08,2.77,0,1.78-1.45,3.05-4.55,3.05-2.47,0-4.24-1.06-4.24-2.91,0-1.19.7-2.16,2-2.81.16-.08.23-.14.23-.2s-.08-.13-.22-.22c-.89-.53-1.55-1.28-1.55-2.44,0-1.5,1.39-2.8,4.05-2.8,2.42,0,3.83,1.16,3.83,2.66,0,1.03-.61,1.88-1.66,2.49-.14.08-.22.16-.22.22Zm-2.33.86c-.12,0-.27.03-.44.11-1.19.5-1.89,1.13-1.89,2.02,0,.98,1.08,1.52,2.5,1.52,1.56,0,2.63-.56,2.63-1.58,0-.95-.97-1.44-2.38-1.97-.17-.06-.3-.09-.42-.09Zm.31-4.66c-1.22,0-2.14.48-2.14,1.28s.8,1.25,1.88,1.69c.17.06.3.11.42.11s.27-.05.44-.13c.95-.45,1.49-1,1.49-1.7,0-.78-.89-1.25-2.08-1.25Z"/>
          <path class="cls-1" d="m55.16,13.7h-4.77c-.25,0-.36.11-.36.36v.16c0,.44-.16.44-.89.44-.67,0-.89,0-.89-.42,0-.66.05-1.31.05-1.95v-7.86c0-.5-.03-.98-.03-1.48,0-.63.25-.81.86-.81.45,0,.91.03,1.38.03h4.57c.45,0,.91-.03,1.36-.03.59,0,.86.16.86.8,0,.5-.03,1-.03,1.5v7.83c0,.66.05,1.3.05,1.95,0,.44-.19.42-.89.42s-.89,0-.89-.42c0-.05,0-.09.02-.14-.02-.25-.13-.36-.38-.36Zm-.03-6.66c.27-.03.41-.17.44-.44v-2.5c-.03-.27-.17-.41-.44-.44h-4.71c-.27.03-.41.17-.44.44v2.5c.03.27.17.41.44.44h4.71Zm-5.14,4.67c.03.27.17.41.44.44h4.71c.27-.03.41-.17.44-.44v-2.75c-.03-.27-.17-.41-.44-.44h-4.71c-.27.03-.41.17-.44.44v2.75Z"/>
        </g>
      </g>
    </g>
  </g>
</svg>