<svg xmlns="http://www.w3.org/2000/svg" width="526.553" height="34.043" viewBox="0 0 526.553 34.043">
  <g id="グループ_2444" data-name="グループ 2444" transform="translate(-44.202 -20.254)">
    <g id="グループ_2442" data-name="グループ 2442" transform="translate(188.044 20.254)">
      <path id="パス_19965" data-name="パス 19965" d="M300.266,23.888a9.633,9.633,0,0,0-9.213-3.44,10.305,10.305,0,0,0-6.51,5.287,12.292,12.292,0,0,0-2.71-3.233,7.894,7.894,0,0,0-9.286-.583,9.285,9.285,0,0,0-4.645,8.641c.358,4.082,2.674,7.913,5.542,10.746,3.207,3.172,8.1,6.121,8.428,11.127,0,.022.013.035.015.057a1.254,1.254,0,0,0,.09.352,1.317,1.317,0,0,0,.088.249l.011.033c.029.048.081.073.117.114a1.117,1.117,0,0,0,.222.222,1.235,1.235,0,0,0,1.529-.084c3.7-3.482,7.412-6.946,11.085-10.449,2.666-2.54,5.426-5.362,6.728-8.883A10.052,10.052,0,0,0,300.266,23.888Zm-6.277,16.322c-3.251,3.147-6.57,6.226-9.871,9.321-1.858-6.033-8.663-9.05-11.771-14.428-1.5-2.6-2.67-6.077-.746-8.758,1.573-2.186,4.617-3.477,7.168-2.261,2.072.988,4.243,3.743,4.366,6.11.09,1.722,2.474,1.52,2.679-.064.5-3.838,3.713-7.493,7.839-6.8a7.412,7.412,0,0,1,6.156,7.489C299.554,34.59,296.56,37.722,293.989,40.209Z" transform="translate(80.22 -20.254)" fill="#fff"/>
      <path id="パス_19966" data-name="パス 19966" d="M144.468,23.225h-2.452c-.911,0-1.084.139-1.331,1.016-.6,2.032-1.051,3.5-1.575,5.151l-3.4,10.405c-.106.319-.244.457-.35.457-.139,0-.244-.139-.348-.42l-3.856-10.267c-.631-1.718-1.227-3.259-1.927-5.327-.282-.878-.457-1.016-1.37-1.016H127.3c-.911,0-1.086.139-1.4.979-.7,2.1-1.26,3.611-1.929,5.364l-3.959,10.3c-.106.279-.244.418-.35.418-.139,0-.244-.139-.35-.453l-3.33-10.443c-.526-1.647-.981-3.119-1.542-5.151-.246-.878-.42-1.016-1.331-1.016h-2.7c-.561,0-.807.07-.807.387a1.563,1.563,0,0,0,.143.592c.8,2.175,1.364,3.787,1.96,5.468l4.243,12.407c.559,1.68,1.049,3.117,1.608,4.938.282.878.457,1.018,1.37,1.018h.84c.911,0,1.087-.141,1.4-.981.631-1.821,1.19-3.257,1.823-4.907l4.064-10.581c.139-.315.244-.457.383-.457s.282.176.387.457l4.031,10.581c.592,1.577,1.155,3.048,1.786,4.907.315.84.49.981,1.4.981h.878c.908,0,1.084-.141,1.366-1.018.559-1.784,1.049-3.257,1.612-4.9l4.276-12.473c.592-1.685,1.122-3.259,1.962-5.435a1.583,1.583,0,0,0,.139-.592C145.275,23.3,145.031,23.225,144.468,23.225Z" transform="translate(-109.603 -16.69)" fill="#fff"/>
      <path id="パス_19967" data-name="パス 19967" d="M143.585,44.287c-.244,0-3.4.106-5.078.106h-3.224c-.878,0-1.049-.176-1.049-1.051V37.77c0-.875.172-1.051,1.049-1.051h1.751c1.647,0,4.839.07,5.083.07.735,0,.878-.209.878-1.016V34.056c0-.8-.143-1.016-.878-1.016-.244,0-3.435.068-5.083.068h-1.751c-.878,0-1.049-.172-1.049-1.049V28.065c0-.878.172-1.051,1.049-1.051h2.487c1.683,0,4.836.106,5.081.106.735,0,.878-.211.878-1.016V24.209c0-.807-.143-1.016-.878-1.016-.244,0-3.4.07-5.081.07h-1.962c-1.647,0-4.414-.07-4.66-.07-.77,0-.981.282-.981,1.122.035,1.788.068,4.135.068,5.853v11c0,1.68-.033,3.888-.068,5.85,0,.84.211,1.122.981,1.122.246,0,3.013-.07,4.66-.07h2.7c1.68,0,4.834.07,5.078.07.739,0,.878-.211.878-1.016V45.3C144.463,44.5,144.324,44.287,143.585,44.287Z" transform="translate(-84.939 -16.728)" fill="#fff"/>
      <path id="パス_19968" data-name="パス 19968" d="M155.6,35.037c-.387-.141-.559-.244-.559-.42,0-.106.172-.244.453-.455,1.823-1.331,2.276-3.259,2.276-5.292,0-4.273-2.978-5.606-8.021-5.606h-2.7c-1.645,0-4.273-.07-4.661-.07-.77,0-.979.282-.979,1.122,0,.6.068,4.135.068,5.853v11c0,1.962-.068,5.745-.068,5.989,0,.739.244.983.979.983.246,0,3.015-.07,4.661-.07h2.806c5.639,0,9.108-2.382,9.108-7.6C158.959,37.595,157.629,35.842,155.6,35.037ZM145.433,27.75c0-.878.176-1.051,1.053-1.051h3.222c2.138,0,4.031.594,4.031,2.908,0,2.8-1.856,3.783-4.452,3.783h-2.8c-.878,0-1.053-.176-1.053-1.049Zm4.346,16.957h-3.292c-.878,0-1.053-.174-1.053-1.049V37.806c0-.875.176-1.051,1.053-1.051h3.924c2.7,0,4.414,1.016,4.414,3.677C154.824,43.342,152.687,44.707,149.779,44.707Z" transform="translate(-71.459 -16.728)" fill="#fff"/>
      <path id="パス_19969" data-name="パス 19969" d="M176.824,38.553H181.8c1.436,0,2.908.068,4.344.068.878,0,.842-.488.842-1.751,0-1.333.035-1.786-.842-1.786-1.471,0-2.908.068-4.344.068h-7.605c-.7,0-.981-.279-.981-.981V30.877c0-.7.281-.979.981-.979h5.327c1.262,0,2.523.07,3.783.07.845,0,.772-.422.772-1.755,0-1.293.073-1.718-.772-1.718-1.26,0-2.521.073-3.783.073h-5.327c-.7,0-.981-.282-.981-.981V24.468c0-1.122.037-1.65.422-1.966.244-.209.455-.315.455-.523,0-.317-.387-.387-.631-.42-.42-.035-3.084-.244-3.468-.244-.352,0-.631.1-.631.523a.974.974,0,0,0,.035.317,16.47,16.47,0,0,1,.106,2.314v1.119c0,.7-.282.981-.983.981H166.17c-.35-.035-.7-.176-.7-.6a1.2,1.2,0,0,1,.07-.279,5.238,5.238,0,0,1,.211-.561c.246-.7.315-.946.735-1.089.209-.068.49-.172.49-.453,0-.387-.385-.493-1.469-.807a21.292,21.292,0,0,0-2.281-.559c-.277,0-.35.244-.42.453a29.392,29.392,0,0,1-4.064,8.518,8.126,8.126,0,0,0-1.084,1.645c0,.664,2.032,1.647,2.7,1.647a1.142,1.142,0,0,0,.878-.6,29.79,29.79,0,0,0,1.995-3.189,1.347,1.347,0,0,1,1.4-.8h3.889c.7,0,.983.282.983.979v3.295c0,.7-.282.981-.983.981h-7.425c-1.474,0-2.91-.068-4.348-.068-.875,0-.84.42-.84,1.786,0,1.3-.035,1.751.84,1.751,1.438,0,2.875-.068,4.348-.068h3.677c.594,0,.77.282.77.875a8.92,8.92,0,0,1-1.436,4.693,14.476,14.476,0,0,1-7.605,5.5c-.383.1-.84.176-.84.633,0,.768,1.368,2.452,2.243,2.452a11.442,11.442,0,0,0,3.191-1.368c4.133-2.349,7.214-5.923,7.81-10.757a.494.494,0,0,1,.354-.49c.244-.07.523-.211.523-.526,0-.352-.666-.457-2.032-.8-.037,0-.07-.073-.07-.106a.092.092,0,0,1,.106-.106h3.644c.7,0,.983.282.983.979V48.4c0,3.086,1.012,3.75,3.922,3.75h5.679c1.821,0,3.011-.244,3.75-2.065a17.222,17.222,0,0,0,1.117-4.487c0-.878-1.819-1.157-2.452-1.157-.8,0-.84.422-.946,1.124-.385,2.729-.664,3.117-2.065,3.117h-4.1c-1.227,0-1.474-.244-1.474-1.471V39.531C175.841,38.8,176.122,38.553,176.824,38.553Z" transform="translate(-54.367 -18.982)" fill="#fff"/>
      <path id="パス_19970" data-name="パス 19970" d="M176,31.377a2.931,2.931,0,0,0,1.227-.633,34.016,34.016,0,0,0,6.693-6.585c.387-.457.42-.49.878-.49.211,0,.631-.07.631-.35,0-.319-.42-.6-.631-.7-.106-.07-.282-.176-.526-.315a7.928,7.928,0,0,0-2-1.054c-.244,0-.387.246-.526.457a32.484,32.484,0,0,1-7.009,6.833c-.282.172-.6.385-.6.768C174.147,29.9,175.445,31.377,176,31.377Z" transform="translate(-32.19 -19.06)" fill="#fff"/>
      <path id="パス_19971" data-name="パス 19971" d="M187.383,26.511c0-.352-.455-.6-.737-.739-.07-.033-.176-.1-.315-.172a9.9,9.9,0,0,0-2.208-1.053.541.541,0,0,0-.455.315,37.058,37.058,0,0,1-8.831,9.849c-.35.246-.77.49-.77.981,0,.664,1.26,2.276,1.891,2.276.735,0,2.171-1.4,2.734-1.927a.521.521,0,0,1,.314-.139c.282,0,.35.244.387.453v7.85c0,1.192-.106,2.347-.106,3.506,0,1.084.49,1.049,1.823,1.049s1.784.035,1.784-1.049c0-1.159-.1-2.314-.1-3.506V36.182c0-1.753-.035-2.417.385-2.769.244-.211.387-.279.387-.488,0-.424-.526-.424-.807-.457-.176-.035-.281-.106-.281-.244,0-.07.073-.143.106-.176a44.262,44.262,0,0,0,3.365-4.381c.279-.42.315-.561.805-.7C187,26.931,187.383,26.826,187.383,26.511Z" transform="translate(-32.285 -15.104)" fill="#fff"/>
      <path id="パス_19972" data-name="パス 19972" d="M181.4,25.634c1.192,0,2.384-.073,3.574-.073h6.24c1.155,0,2.347.073,3.537.073.948,0,.878-.526.878-1.753s.07-1.788-.878-1.788c-1.19,0-2.382.108-3.537.108h-6.24c-1.19,0-2.382-.108-3.574-.108-.911,0-.875.528-.875,1.788S180.485,25.634,181.4,25.634Z" transform="translate(-24.547 -18.048)" fill="#fff"/>
      <path id="パス_19973" data-name="パス 19973" d="M197.992,26.172c-1.333,0-2.626.07-3.924.07h-9.5c-1.331,0-2.628-.07-3.926-.07-.911,0-.873.457-.873,1.755s-.037,1.751.873,1.751c1.3,0,2.6-.07,3.926-.07h3.748c.7,0,.983.279.983.981V40.714c0,1.856.1,2.558-1.929,2.558-.385,0-.873-.035-1.26-.068a4.435,4.435,0,0,0-.7-.07c-.561,0-.666.526-.666.979a5.7,5.7,0,0,0,.528,2.314c.317.526,1.157.49,1.647.49,2.591,0,6.132-.176,6.132-3.574,0-.878-.073-1.718-.073-2.6V30.588c0-.7.282-.981.983-.981h.106c1.3,0,2.628.07,3.924.07.875,0,.875-.42.875-1.751S198.867,26.172,197.992,26.172Z" transform="translate(-25.444 -13.155)" fill="#fff"/>
      <path id="パス_19974" data-name="パス 19974" d="M219.907,49.271a33.357,33.357,0,0,1-4.484-4.414,1.078,1.078,0,0,1-.317-.77,1.782,1.782,0,0,1,.211-.737,28.87,28.87,0,0,0,3.154-8.061,15.048,15.048,0,0,0,.385-2.347,2.464,2.464,0,0,0-.735-1.575,1.931,1.931,0,0,0-1.788-.774c-.7,0-1.4.037-2.067.037h-6.552c-.7,0-.981-.279-.981-.981v-3.4c0-.7.281-.983.981-.983h7.216c1.4,0,2.839.073,4.243.073.875,0,.8-.354.8-1.718s.07-1.753-.84-1.753c-1.4,0-2.8.106-4.207.106h-6.69c-1.053,0-2.1-.07-3.154-.07-1.331,0-1.856.348-1.856,1.751,0,1.054.035,2.1.035,3.154v5.855c0,5.01-.457,10.159-2.386,14.855a.5.5,0,0,1-.42.315.458.458,0,0,1-.42-.279c-.277-.528-.84-1.716-1.049-2.279-.139-.383-.244-.84-.7-.84-.35,0-2.382.457-2.382,1.086a21.145,21.145,0,0,0,1.122,2.978c.244.559.7,1.753,1.26,1.753a2.587,2.587,0,0,0,.7-.176.649.649,0,0,1,.244-.068c.246,0,.42.244.561.42a5.091,5.091,0,0,0,2.419,1.436c.946,0,2.767-5.259,3.046-6.2a44.2,44.2,0,0,0,1.474-11.179c0-.211.106-.526.385-.526s.385.352.42.6a24.839,24.839,0,0,0,2.8,8.727,1.429,1.429,0,0,1,.211.735,1.242,1.242,0,0,1-.317.77,23.585,23.585,0,0,1-4.656,4.1c-.53.35-1.159.735-1.159,1.084,0,.49,1.436,2.208,2.1,2.208,1.016,0,4.872-3.607,5.641-4.485a.845.845,0,0,1,.6-.317.821.821,0,0,1,.6.35,40.128,40.128,0,0,0,3.818,3.893,1.789,1.789,0,0,0,1.122.592,3.569,3.569,0,0,0,2.208-2.171C220.5,49.728,220.259,49.552,219.907,49.271Zm-6.69-9.075a.477.477,0,0,1-.424.279.536.536,0,0,1-.453-.315,17.519,17.519,0,0,1-1.718-5.43c-.07-.629.282-.911.878-.911h2.309c.913,0,1.37-.035,1.37.49C215.178,35.571,213.808,38.969,213.216,40.2Z" transform="translate(-6.094 -18.314)" fill="#fff"/>
      <path id="パス_19975" data-name="パス 19975" d="M193.228,42.468c0,1.157.315,1.612,1.436,1.612.6,0,1.192-.035,1.823-.035h3.574c.629,0,1.225.035,1.856.035,1.262,0,1.436-.631,1.436-1.753,0-.84-.068-1.68-.068-2.485V26.035c0-.875.068-1.718.068-2.593,0-1.086-.244-1.683-1.436-1.683-.631,0-1.227.07-1.856.07h-3.574c-.631,0-1.26-.07-1.894-.07-1.122,0-1.366.6-1.366,1.645,0,.878.035,1.755.035,2.63V39.842C193.263,40.715,193.228,41.593,193.228,42.468ZM196.487,26a.929.929,0,0,1,.983-.946h1.68c.629,0,.911.35.981.946v1.227a.977.977,0,0,1-.981.979h-1.68a1,1,0,0,1-.983-.979Zm0,6.132a.929.929,0,0,1,.983-.946h1.68a.95.95,0,0,1,.981.946v1.26a.984.984,0,0,1-.981.983h-1.68a1.006,1.006,0,0,1-.983-.983Zm0,6.237a.975.975,0,0,1,.983-.979h1.68a.954.954,0,0,1,.981.979V39.91c-.07.6-.352.948-.981.948h-1.68a.931.931,0,0,1-.983-.948Z" transform="translate(-9.305 -18.448)" fill="#fff"/>
      <path id="パス_19976" data-name="パス 19976" d="M197.415,32.694a15.678,15.678,0,0,0-1.856-.563c-.249,0-.317.139-.387.385a23.2,23.2,0,0,1-2.276,5.116,2.685,2.685,0,0,0-.352.807c0,.559,2.065,1.3,2.6,1.3.314,0,.486-.282.629-.528a33.823,33.823,0,0,0,1.718-3.818c.106-.244.174-.455.244-.631.282-.735.315-.8.666-.911.211-.07.42-.106.42-.387C198.816,33.114,198.4,33.009,197.415,32.694Z" transform="translate(-10.126 -6.008)" fill="#fff"/>
      <path id="パス_19977" data-name="パス 19977" d="M212.223,27.718c1.368,0,2.767-.068,4.135-.068h7.254c.666,0,.946.279.946.946v.49c0,.7-.279.981-.946.981h-5.153c-1.188,0-2.347-.068-3.5-.068-.737,0-.737.347-.737,1.575,0,1.331,0,1.647.737,1.647,1.155,0,2.314-.073,3.5-.073h15.913c1.155,0,2.347.073,3.5.073.737,0,.7-.387.7-1.647,0-1.155.068-1.575-.7-1.575-1.155,0-2.347.068-3.5.068h-5.118c-.7,0-.981-.279-.981-.981V28.6c0-.666.281-.946.981-.946h7.359c1.366,0,2.732.068,4.135.068.84,0,.8-.348.8-1.612s.035-1.61-.8-1.61c-1.4,0-2.769.068-4.135.068h-7.359c-.664,0-.946-.244-.981-.911.035-.42,0-.77.35-1.051.246-.176.457-.279.457-.523,0-.387-.6-.42-.911-.457-.563-.035-2.663-.244-3.121-.244-.35,0-.629.106-.629.49a1.015,1.015,0,0,0,.033.315,10.393,10.393,0,0,1,.106,1.471c-.035.666-.317.911-.946.911h-7.254c-1.368,0-2.734-.068-4.135-.068-.84,0-.807.35-.807,1.61S211.383,27.718,212.223,27.718Z" transform="translate(12.509 -18.906)" fill="#fff"/>
      <path id="パス_19978" data-name="パス 19978" d="M231.8,35.647a8.428,8.428,0,0,0-2.03-.453c-.6,0-.6.453-.666.944-.42,2.8-1.155,2.945-2.419,2.945h-2.309c-1.4,0-1.718-.211-1.718-1.579V32.354c0-.7.033-1.333.42-1.647.139-.141.35-.246.35-.457,0-.42-.631-.42-.946-.453-.6-.07-2.452-.246-2.978-.246-.314,0-.6.07-.6.455,0,.106.033.211.033.317a19.117,19.117,0,0,1,.106,2.872v4.66c0,.664-.033,1.3-.033,1.962,0,2.1,1.331,2.663,3.187,2.663h5.257c1.542,0,2.8,0,3.75-1.436a10.852,10.852,0,0,0,1.436-4.59C232.64,36,232.394,35.856,231.8,35.647Z" transform="translate(21.492 -9.104)" fill="#fff"/>
      <path id="パス_19979" data-name="パス 19979" d="M240.655,29.094c0-1.159-.946-1.441-1.929-1.441-1.225,0-2.485.073-3.75.073H217.318c-1.227,0-2.276-.073-3.121-.073-1.68,0-2.558.211-2.558,1.441,0,.383.073,1.122.073,1.891v1.364c0,.493-.073,1.089-.073,1.509,0,.842.493.8,1.929.8,1.262,0,1.856.073,1.856-.768,0-.42-.106-1.054-.106-1.509v-.629c0-.669.315-.95.983-.95h19.691c.669,0,.946.282.946.95v.664c0,.455-.068,1.192-.068,1.507,0,.772.526.772,1.891.772,1.474,0,1.894,0,1.894-.8,0-.53-.073-1.018-.073-1.509v-1.4C240.583,30.215,240.655,29.582,240.655,29.094Z" transform="translate(12.777 -11.379)" fill="#fff"/>
      <path id="パス_19980" data-name="パス 19980" d="M223.715,29.887a26.224,26.224,0,0,0-2.661-.385c-.631,0-.631.315-.669,1.086a6.925,6.925,0,0,1-.033.772c-.42,4.8-3.609,7.078-7.883,8.547-.387.143-1.227.249-1.227.774s1.016,2.38,2.067,2.38c1.155,0,3.818-1.436,4.834-2.1,3.644-2.347,5.01-5.048,5.606-9.284a.789.789,0,0,1,.352-.633c.244-.141.735-.317.735-.631C224.836,30.028,224,29.922,223.715,29.887Z" transform="translate(12.301 -9.161)" fill="#fff"/>
      <path id="パス_19981" data-name="パス 19981" d="M250.862,35.115c0-1.049,0-1.436-.8-1.436-.6,0-1.823.07-2.525.033-.664,0-.873-.315-.873-.944V31.646c0-.664.277-.946.946-.946.453,0,.911.035,1.364.035.845,0,.774-.493.774-1.438,0-.911.07-1.436-.774-1.436-1.016,0-2.032.073-3.048.073h-8.373c-.981,0-2-.073-3.013-.073-.842,0-.8.493-.8,1.436s-.037,1.438.8,1.438c.526,0,1.051-.035,1.577-.035.666,0,.911.315.911.946v1.122c0,.629-.244.944-.911.944-.84.037-1.962-.033-2.734-.033-.807,0-.807.387-.807,1.436,0,.946-.033,1.471.772,1.471.84,0,1.685-.068,2.525-.068.385.033.7.176.7.6a1.015,1.015,0,0,1-.07.315,7.787,7.787,0,0,1-3.187,3.607c-.281.176-.772.42-.772.774a3.473,3.473,0,0,0,2.208,2.1c.453,0,1.016-.526,1.366-.807a10.411,10.411,0,0,0,3.853-5.712.986.986,0,0,1,1.157-.873h1.262c.664,0,.979.279.979.979v.983c0,1.4-.1,2.8-.1,4.2,0,1.016.315,1.087,1.751,1.087,1.335,0,1.718-.033,1.718-1.016,0-1.436-.068-2.837-.068-4.273V37.5c0-.664.209-.911.873-.979.42,0,2.175.068,2.525.068C250.862,36.586,250.862,36.166,250.862,35.115Zm-7.5-2.347a.944.944,0,0,1-.979.944H241.3c-.631,0-.913-.347-.983-.944V31.646a.984.984,0,0,1,.983-.983h1.087c.6,0,.91.387.979.983Z" transform="translate(37.842 -11.13)" fill="#fff"/>
      <path id="パス_19982" data-name="パス 19982" d="M241.238,32.955c1.3,0,1.856-.42,1.856-1.751,0-.983-.068-1.962-.068-2.945V26.824c0-1.054.068-2.1.068-3.154,0-1.4-.559-1.751-1.927-1.751-.875,0-1.716.033-2.591.033h-3.891c-.875,0-1.751-.033-2.661-.033-1.333,0-1.856.383-1.856,1.786,0,1.086.068,2.175.068,3.259V45.991c0,1.718-.106,3.435-.106,5.186,0,1.084.385,1.122,1.821,1.122,1.474,0,1.823-.037,1.823-1.159,0-1.713-.07-3.431-.07-5.149V33.868c0-.7.282-.983.981-.983h3.891C239.452,32.885,240.365,32.955,241.238,32.955ZM233.7,25.35a.608.608,0,0,1,.666-.664h4.52a.608.608,0,0,1,.666.664V25.6a.646.646,0,0,1-.666.664h-4.52a.645.645,0,0,1-.666-.664Zm.842,4.907a.79.79,0,0,1-.842-.84v-.068a.792.792,0,0,1,.842-.845h4.168a.813.813,0,0,1,.842.845v.068a.81.81,0,0,1-.842.84Z" transform="translate(34.956 -18.256)" fill="#fff"/>
      <path id="パス_19983" data-name="パス 19983" d="M250.356,23.67c0-1.4-.594-1.751-1.924-1.751-.878,0-1.718.033-2.6.033h-3.888c-.878,0-1.751-.033-2.661-.033-1.3,0-1.859.383-1.859,1.751,0,1.051.068,2.1.068,3.154V28.26c0,.983-.068,1.962-.068,2.945,0,1.366.561,1.751,1.891,1.751.878,0,1.751-.07,2.628-.07h3.888c.7,0,.983.282.983.983V46.8c0,1.084.139,1.962-1.331,1.962-.317,0-.772-.073-1.089-.106h-.453c-.6,0-.7.385-.7.878,0,2.661.77,2.7,1.995,2.7a7.916,7.916,0,0,0,3.75-.772,3.656,3.656,0,0,0,1.366-3.295c0-.944-.068-1.927-.068-2.872V26.964C250.288,25.88,250.356,24.758,250.356,23.67Zm-3.537,5.747a.81.81,0,0,1-.84.84h-4.17a.79.79,0,0,1-.842-.84v-.068a.792.792,0,0,1,.842-.845h4.17a.812.812,0,0,1,.84.845Zm0-3.818a.645.645,0,0,1-.666.664h-4.52a.644.644,0,0,1-.666-.664V25.35a.608.608,0,0,1,.666-.664h4.52a.608.608,0,0,1,.666.664Z" transform="translate(43.708 -18.256)" fill="#fff"/>
      <path id="パス_19984" data-name="パス 19984" d="M269.823,32.807c0-.7.033-1.4.033-2.1,0-1.26-.8-1.474-1.856-1.474-.84,0-1.683.07-2.523.07h-6.446c-.84,0-1.685-.07-2.525-.07-1.049,0-1.856.246-1.856,1.438,0,.735.033,1.436.033,2.138V39.85c0,.875-.07,1.786-.07,2.663,0,.77.424.807,1.788.807,1.4,0,1.823,0,1.823-.774a.812.812,0,0,0-.033-.279c.033-.455.209-.631.664-.631h6.726c.42,0,.631.176.631.6v.387c0,.768.458.735,1.856.735s1.823,0,1.823-.772c0-.911-.068-1.786-.068-2.7Zm-3.541,4.7a.977.977,0,0,1-.981.979h-6.167c-.629,0-.911-.35-.981-.979v-4c.07-.594.352-.946.981-.946H265.3a.929.929,0,0,1,.981.946Z" transform="translate(64.318 -9.486)" fill="#fff"/>
      <path id="パス_19985" data-name="パス 19985" d="M258.471,43.478a1.206,1.206,0,0,1-.49-.911,1.312,1.312,0,0,1,.106-.526,37.669,37.669,0,0,0,2.173-10.2c.035-.563.141-1.683.141-2.208a1.466,1.466,0,0,0-1.683-1.612h-2.7c-.453,0-.84-.174-.84-.7v-.211c.106-.8.211-1.469.282-1.995.244-2.032.244-2.1.735-2.314a.557.557,0,0,0,.42-.49c0-.282-.281-.387-.526-.455-.42-.07-2.978-.561-3.224-.561-.453,0-.453.49-.526,1.122-.176,1.577-.281,3.154-.559,4.731-.106.631-.457.84-1.122.875-.561-.035-1.157-.068-1.718-.068-.84,0-.84.383-.84,1.786,0,1.331,0,1.751.805,1.751.279,0,.842-.033,1.157-.033.42.033.735.209.735.666v.244c-.7,3.011-1.54,6.026-2.485,8.969a5.394,5.394,0,0,0-.249.946c0,.631,1.929,1.265,2.492,1.265.453,0,.662-.282.8-.669.141-.209.279-.42.561-.42a.655.655,0,0,1,.35.139l.842.631a.773.773,0,0,1,.385.633.825.825,0,0,1-.174.488,24.516,24.516,0,0,1-4.064,5.224l-.176.172c-.317.319-.77.7-.77,1.054,0,.7,1.751,1.718,2.382,1.718,1.3,0,4.485-4.627,5.149-5.782a.778.778,0,0,1,.633-.42.827.827,0,0,1,.526.244c.244.211.523.526.8.807.664.7,1.4,1.469,1.647,1.469.664,0,1.889-1.68,1.889-2.276S259,43.933,258.471,43.478Zm-3.081-3.609a.636.636,0,0,1-.6.49.97.97,0,0,1-.453-.139c-.352-.249-.666-.493-1.016-.7a1.163,1.163,0,0,1-.563-.983,1.494,1.494,0,0,1,.037-.42c.526-1.927,1.016-3.856,1.436-5.78a.989.989,0,0,1,1.157-.911c.944-.037,1.469-.07,1.469.735A29.179,29.179,0,0,1,255.39,39.869Z" transform="translate(56.464 -19.002)" fill="#fff"/>
      <path id="パス_19986" data-name="パス 19986" d="M268.029,27.348c-.209-.35-.453-.7-.911-.7-.317,0-2.349.6-2.349,1.3a10.115,10.115,0,0,0,1.054,1.96c.211.317.383.631.488.807a.566.566,0,0,1,.106.315c0,.387-.277.526-.594.6-1.507.176-3.015.317-4.555.455-.317,0-.631-.106-.631-.488a.7.7,0,0,1,.068-.282c.983-2.558,1.894-5.116,2.734-7.744.106-.315.315-.35.629-.42.178-.037.422-.07.422-.387,0-.348-.526-.559-.908-.7a16.049,16.049,0,0,0-3.015-.807c-.35,0-.42.387-.493.7-.84,3.4-1.716,6.341-2.872,9.638a1.165,1.165,0,0,1-1.192.911h-.277c-1.333,0-1.788.035-1.788.455a17.046,17.046,0,0,0,.629,2.452c.249.8.387,1.225.735,1.225a.64.64,0,0,0,.493-.348c.176-.317.246-.457.523-.526,3.647-.387,7.291-.807,10.9-1.265h.249c.559,0,.77.249,1.049.737.563,1.368.631,1.821,1.26,1.821.387,0,2.419-.453,2.419-1.364a21.678,21.678,0,0,0-1.575-3.823A41.431,41.431,0,0,0,268.029,27.348Z" transform="translate(63.517 -19.06)" fill="#fff"/>
    </g>
    <g id="グループ_2443" data-name="グループ 2443" transform="translate(44.202 23.571)">
      <path id="パス_19987" data-name="パス 19987" d="M54.579,41.158c0,2.061.108,5.791.108,6.22,0,.746-.213.889-1.029.889h-2.2c-.818,0-1.032-.143-1.032-.889,0-.429.108-4.159.108-6.22V28.718c0-.6-.108-.851-.429-.851a1.424,1.424,0,0,0-.567.141c-1.067.391-2.276.889-3.2,1.315a1.6,1.6,0,0,1-.673.211c-.321,0-.462-.246-.64-.781l-.675-1.777A1.88,1.88,0,0,1,44.2,26.3c0-.321.213-.5.818-.677a55.048,55.048,0,0,0,5.542-2.1,4.708,4.708,0,0,1,2.1-.427h.961c.818,0,1.032.143,1.032.889,0,.532-.073,4.159-.073,6.22Z" transform="translate(-44.202 -20.154)" fill="#fff"/>
      <path id="パス_19988" data-name="パス 19988" d="M74.627,41.7c0-.71-.282-.994-.994-.994H63.183a.973.973,0,0,0-1.135.924,22.755,22.755,0,0,1-3.057,8.386c-.427.675-1.388,2.276-2.241,2.276-.673,0-2.593-1.28-2.593-2.133,0-.321.286-.6.5-.853,3.484-4.229,4.018-9.809,4.018-15.068V27.021c0-1.137-.073-2.274-.073-3.411,0-1.456.675-1.847,2.026-1.847,1.067,0,2.133.07,3.2.07h9.42c1.065,0,2.131-.07,3.2-.07,1.386,0,2.061.356,2.061,1.847,0,1.137-.07,2.274-.07,3.411V45.148c0,.889.07,1.775.07,2.666,0,1.35-.07,2.558-1.172,3.446-1.388,1.1-3.484,1.172-5.188,1.172-.713,0-1.636-.035-1.885-.853a8.817,8.817,0,0,1-.319-2.131c0-.532.178-.891.781-.891.532,0,1.28.073,1.885.073,1.847,0,2.023-.427,2.023-2.169Zm-.994-12.121a1.013,1.013,0,0,0,.994-.994V26.348a1.014,1.014,0,0,0-.994-1H63.469a1.016,1.016,0,0,0-1,1v2.237a1.015,1.015,0,0,0,1,.994Zm-10.2,7.751h10.2c.713,0,.994-.286.994-1v-2.38c0-.677-.282-.961-.994-.961H63.469c-.675,0-1,.284-1,.961v.106c0,.781.037,1.564,0,2.309C62.51,37.043,62.721,37.329,63.434,37.329Z" transform="translate(-32.262 -21.762)" fill="#fff"/>
      <path id="パス_19989" data-name="パス 19989" d="M81.429,44.74c1.814,0,5.153-.07,5.4-.07.748,0,.891.211.891,1.032V47.37c0,.816-.143,1.032-.891,1.032-.249,0-3.587-.07-5.4-.07H76.81c-1.812,0-5.153.07-5.4.07-.748,0-.891-.216-.891-1.032v-.64a1.674,1.674,0,0,1,.853-1.742c.64-.462,1.21-.959,1.812-1.491,6.4-5.615,10.093-9.169,10.093-12.653,0-2.309-1.6-3.91-4.513-3.91a7.135,7.135,0,0,0-5.188,2.347c-.319.356-.532.5-.746.5-.178,0-.391-.178-.71-.5L70.7,27.752c-.284-.319-.427-.532-.427-.746,0-.249.178-.462.5-.783a12.142,12.142,0,0,1,8.351-3.233c5.4,0,8.424,3.2,8.424,7.287,0,5.01-4.018,9.026-9.453,13.753-.286.249-.391.389-.391.5,0,.143.213.213.638.213Z" transform="translate(-12.938 -20.289)" fill="#fff"/>
      <path id="パス_19990" data-name="パス 19990" d="M87.234,33.51a11.63,11.63,0,0,1,5.721-1.529c4.2,0,8,2.417,8,7.605,0,5.58-4.3,9.061-9.809,9.061-6.075,0-9.559-4.049-9.559-9.913a16.41,16.41,0,0,1,4.478-11.8,15.38,15.38,0,0,1,9.987-3.943c.71,0,.851.176.851.994v1.847c0,.926-.141,1.069-1.067,1.174a11.81,11.81,0,0,0-7.463,3.3,8.157,8.157,0,0,0-2.061,3.449.128.128,0,0,0,.141.141A1.879,1.879,0,0,0,87.234,33.51Zm-.675,3.765A1.964,1.964,0,0,0,85.6,39.2c0,3.519,2.237,5.9,5.721,5.9s5.58-2.382,5.58-5.188c0-2.488-1.812-4.408-4.94-4.408A9.267,9.267,0,0,0,86.559,37.275Z" transform="translate(0.633 -20.289)" fill="#fff"/>
      <path id="パス_19991" data-name="パス 19991" d="M110.417,48.727H99.576c-.567,0-.818.249-.818.816V49.9c0,1-.354,1-2.026,1-1.529,0-2.023,0-2.023-.961,0-1.493.1-2.985.1-4.441V27.618c0-1.139-.07-2.241-.07-3.376,0-1.423.57-1.85,1.955-1.85,1.032,0,2.061.07,3.13.07H110.2c1.032,0,2.063-.07,3.095-.07,1.35,0,1.953.356,1.953,1.812,0,1.137-.07,2.274-.07,3.413v17.8c0,1.493.106,2.949.106,4.443,0,.994-.424.959-2.026.959s-2.026,0-2.026-.959a.945.945,0,0,1,.037-.321C111.233,48.976,110.984,48.727,110.417,48.727Zm-.073-15.138a1.019,1.019,0,0,0,1-1V26.905a1.017,1.017,0,0,0-1-.994h-10.7a1.015,1.015,0,0,0-.994.994v5.685a1.017,1.017,0,0,0,.994,1ZM98.655,44.214a1.016,1.016,0,0,0,.994.994h10.7a1.018,1.018,0,0,0,1-.994V37.959a1.015,1.015,0,0,0-1-.994h-10.7a1.013,1.013,0,0,0-.994.994Z" transform="translate(16.375 -21.006)" fill="#fff"/>
    </g>
  </g>
</svg>
