<svg xmlns="http://www.w3.org/2000/svg" width="230.257" height="230.258" viewBox="0 0 230.257 230.258">
  <g id="グループ_1653" data-name="グループ 1653" transform="translate(0 0)">
    <path id="パス_6947" data-name="パス 6947" d="M475.109,1160.822A115.128,115.128,0,1,1,359.98,1045.693a115.128,115.128,0,0,1,115.128,115.129" transform="translate(-244.852 -1045.693)" fill="#fff"/>
    <path id="パス_6948" data-name="パス 6948" d="M327.829,1110.9c10.29,0,18.632,26.1,18.632,58.3s-8.342,58.3-18.632,58.3-21.225-26.1-21.225-58.3S317.538,1110.9,327.829,1110.9Z" transform="translate(-252.939 -1054.232)" fill="none" stroke="#c4798f" stroke-miterlimit="10" stroke-width="4.76"/>
    <path id="パス_6949" data-name="パス 6949" d="M322.735,1227.5c-10.954,0-36.664-19.234-36.664-58.3s25.71-58.3,36.664-58.3" transform="translate(-250.25 -1054.232)" fill="none" stroke="#c4798f" stroke-miterlimit="10" stroke-width="4.76"/>
    <path id="パス_6950" data-name="パス 6950" d="M437.408,1110.9c10.29,0,18.632,26.1,18.632,58.3s-8.342,58.3-18.632,58.3-21.225-26.1-21.225-58.3S427.117,1110.9,437.408,1110.9Z" transform="translate(-267.289 -1054.232)" fill="none" stroke="#c4798f" stroke-miterlimit="10" stroke-width="4.76"/>
    <path id="パス_6951" data-name="パス 6951" d="M432.315,1227.5c-10.954,0-36.664-19.234-36.664-58.3s25.71-58.3,36.664-58.3" transform="translate(-264.6 -1054.232)" fill="none" stroke="#c4798f" stroke-miterlimit="10" stroke-width="4.76"/>
    <path id="パス_6952" data-name="パス 6952" d="M374.5,1216.5a14.581,14.581,0,0,0,1.772-.4v.4c4.527-.4,16.009-15.552,16.192-46.952s-11.665-46.76-16.192-46.765v.4a4.107,4.107,0,0,0-1.226-.406c-7.206.01-16.284,12.969-16.284,47.854,0,34.991,9.078,45.465,15.738,45.863m-.194-62.547c.09,0,.178.054-.792.147v-.145c2.266.007,5.071,5.625,5,17s-2.937,16.963-3.626,16.956v-.146c-.607.092-.7.145-.786.144-1.135-.007-4.361-2.588-4.277-17.185.107-18.247,3.339-16.781,4.475-16.774" transform="translate(-259.77 -1055.788)" fill="#c4798f"/>
    <line id="線_40" data-name="線 40" y1="13.747" x2="3.775" transform="translate(114.611 76.329)" fill="none" stroke="#fff0ed" stroke-miterlimit="10" stroke-width="1.587"/>
    <line id="線_41" data-name="線 41" x1="2.913" y1="13.955" transform="translate(113.746 138.431)" fill="none" stroke="#fff0ed" stroke-miterlimit="10" stroke-width="1.587"/>
    <line id="線_42" data-name="線 42" y1="8.513" x2="3.754" transform="translate(119.76 86.872)" fill="none" stroke="#fff0ed" stroke-miterlimit="10" stroke-width="1.587"/>
    <line id="線_43" data-name="線 43" y1="4.057" x2="5.162" transform="translate(122.558 99.847)" fill="none" stroke="#fff0ed" stroke-miterlimit="10" stroke-width="1.587"/>
    <line id="線_44" data-name="線 44" x2="3.754" y2="8.513" transform="translate(119.76 134.269)" fill="none" stroke="#fff0ed" stroke-miterlimit="10" stroke-width="1.587"/>
    <line id="線_45" data-name="線 45" x2="5.162" y2="4.057" transform="translate(122.558 125.75)" fill="none" stroke="#fff0ed" stroke-miterlimit="10" stroke-width="1.587"/>
    <line id="線_46" data-name="線 46" x1="6.894" transform="translate(122.022 115.818)" fill="none" stroke="#fff" stroke-miterlimit="10" stroke-width="1.587"/>
    <line id="線_47" data-name="線 47" x1="2.25" y2="8.513" transform="translate(105.824 134.269)" fill="none" stroke="#fff0ed" stroke-miterlimit="10" stroke-width="1.587"/>
    <line id="線_48" data-name="線 48" x1="3.094" y2="4.057" transform="translate(103.304 125.75)" fill="none" stroke="#fff0ed" stroke-miterlimit="10" stroke-width="1.587"/>
    <line id="線_49" data-name="線 49" x1="2.25" y1="8.513" transform="translate(105.824 86.872)" fill="none" stroke="#fff0ed" stroke-miterlimit="10" stroke-width="1.587"/>
    <line id="線_50" data-name="線 50" x1="3.094" y1="4.057" transform="translate(103.304 99.847)" fill="none" stroke="#fff0ed" stroke-miterlimit="10" stroke-width="1.587"/>
    <line id="線_51" data-name="線 51" x2="4.137" transform="translate(102.719 115.818)" fill="none" stroke="#fff" stroke-miterlimit="10" stroke-width="1.587"/>
  </g>
</svg>
