<svg xmlns="http://www.w3.org/2000/svg" width="230.257" height="230.258" viewBox="0 0 230.257 230.258">
  <g id="グループ_1650" data-name="グループ 1650" transform="translate(0)">
    <path id="パス_6778" data-name="パス 6778" d="M475.109,466.731A115.128,115.128,0,1,1,359.98,351.6,115.129,115.129,0,0,1,475.109,466.731" transform="translate(-244.852 -351.603)" fill="#fff"/>
    <circle id="楕円形_20" data-name="楕円形 20" cx="19.303" cy="19.303" r="19.303" transform="translate(58.185 104.837) rotate(-45)" fill="none" stroke="#c4798f" stroke-linecap="round" stroke-miterlimit="10" stroke-width="4.76"/>
    <line id="線_18" data-name="線 18" y2="13.788" transform="translate(85.485 64.162)" fill="none" stroke="#c4798f" stroke-linecap="round" stroke-miterlimit="10" stroke-width="4.76"/>
    <line id="線_19" data-name="線 19" x2="10.104" y2="10.104" transform="translate(57.575 75.524)" fill="none" stroke="#c4798f" stroke-linecap="round" stroke-miterlimit="10" stroke-width="4.76"/>
    <line id="線_20" data-name="線 20" x2="13.788" transform="translate(46.189 103.457)" fill="none" stroke="#c4798f" stroke-linecap="round" stroke-miterlimit="10" stroke-width="4.76"/>
    <line id="線_21" data-name="線 21" y1="10.104" x2="10.104" transform="translate(57.15 121.319)" fill="none" stroke="#c4798f" stroke-linecap="round" stroke-miterlimit="10" stroke-width="4.76"/>
    <line id="線_22" data-name="線 22" y1="13.788" transform="translate(85.485 128.964)" fill="none" stroke="#c4798f" stroke-linecap="round" stroke-miterlimit="10" stroke-width="4.76"/>
    <line id="線_23" data-name="線 23" x1="10.104" y1="10.104" transform="translate(102.945 121.745)" fill="none" stroke="#c4798f" stroke-linecap="round" stroke-miterlimit="10" stroke-width="4.76"/>
    <line id="線_24" data-name="線 24" x1="13.788" transform="translate(110.992 103.457)" fill="none" stroke="#c4798f" stroke-linecap="round" stroke-miterlimit="10" stroke-width="4.76"/>
    <line id="線_25" data-name="線 25" x1="10.104" y2="10.104" transform="translate(103.37 75.949)" fill="none" stroke="#c4798f" stroke-linecap="round" stroke-miterlimit="10" stroke-width="4.76"/>
    <path id="パス_6779" data-name="パス 6779" d="M347.928,524.028l15.87,20.2,83.675-76.462" transform="translate(-258.35 -366.815)" fill="none" stroke="#c4798f" stroke-linecap="round" stroke-linejoin="round" stroke-width="4.76"/>
    <path id="パス_6780" data-name="パス 6780" d="M439.317,467.421h19.992v19.992" transform="translate(-270.318 -366.77)" fill="none" stroke="#c4798f" stroke-linecap="round" stroke-linejoin="round" stroke-width="4.76"/>
  </g>
</svg>
