<svg xmlns="http://www.w3.org/2000/svg" width="230.258" height="230.257" viewBox="0 0 230.258 230.257">
  <g id="グループ_1654" data-name="グループ 1654" transform="translate(0 0)">
    <path id="パス_6940" data-name="パス 6940" d="M476.7,1507.867a115.129,115.129,0,1,1-115.128-115.128A115.129,115.129,0,0,1,476.7,1507.867" transform="translate(-246.438 -1392.739)" fill="#fff"/>
    <path id="パス_6941" data-name="パス 6941" d="M414.188,1459.374c10.28,0,18.614,26.236,18.614,58.6s-8.334,58.6-18.614,58.6-18.614-26.236-18.614-58.6S403.908,1459.374,414.188,1459.374Z" transform="translate(-265.968 -1401.465)" fill="none" stroke="#c4798f" stroke-miterlimit="10" stroke-width="4.76"/>
    <path id="パス_6942" data-name="パス 6942" d="M408.587,1576.134c-10.954,0-36.664-19.234-36.664-58.3s25.71-58.3,36.664-58.3" transform="translate(-262.871 -1401.486)" fill="none" stroke="#c4798f" stroke-miterlimit="10" stroke-width="4.76"/>
    <path id="パス_6943" data-name="パス 6943" d="M311.487,1509.511v-19.992h19.992" transform="translate(-254.957 -1405.413)" fill="none" stroke="#c4798f" stroke-linecap="round" stroke-linejoin="round" stroke-width="4.76"/>
    <path id="パス_6944" data-name="パス 6944" d="M312.286,1490.3l38.2,38.2-35.805,35.8" transform="translate(-255.061 -1405.515)" fill="none" stroke="#c4798f" stroke-linecap="round" stroke-linejoin="round" stroke-width="4.76"/>
    <path id="パス_6945" data-name="パス 6945" d="M378.314,1448.192c-10.946,3.105-13.12,5.622-15.8,18.3-2.681-12.679-4.854-15.2-15.8-18.3,10.946-3.105,13.12-5.622,15.8-18.3,2.68,12.679,4.854,15.2,15.8,18.3" transform="translate(-259.57 -1397.604)" fill="#c4798f"/>
    <path id="パス_6946" data-name="パス 6946" d="M472.66,1575c-8.165,2.316-9.785,4.193-11.785,13.65-2-9.457-3.62-11.334-11.784-13.65,8.165-2.316,9.785-4.193,11.784-13.65,2,9.457,3.62,11.334,11.785,13.65" transform="translate(-272.977 -1414.82)" fill="#c4798f"/>
  </g>
</svg>
