<svg xmlns="http://www.w3.org/2000/svg" width="968.846" height="163.4" viewBox="0 0 968.846 163.4">
  <g id="グループ_1039" data-name="グループ 1039" transform="translate(-384.949 -2029.754)">
    <g id="グループ_1030" data-name="グループ 1030" transform="translate(386.017 2030.843)">
      <g id="グループ_1025" data-name="グループ 1025">
        <rect id="長方形_595" data-name="長方形 595" width="196.859" height="68.086" rx="34.043" fill="#fff" stroke="#7f6760" stroke-miterlimit="10" stroke-width="2.136"/>
        <g id="グループ_1024" data-name="グループ 1024" transform="translate(46.894 21.607)">
          <path id="パス_9503" data-name="パス 9503" d="M452.768,2075.842c0,2.2.114,6.177.114,6.632,0,.8-.227.948-1.1.948h-2.349c-.872,0-1.1-.152-1.1-.948,0-.455.114-4.434.114-6.632v-13.262c0-.644-.114-.909-.455-.909a1.543,1.543,0,0,0-.605.152c-1.137.417-2.425.947-3.411,1.4a1.707,1.707,0,0,1-.72.227c-.34,0-.493-.265-.681-.834l-.72-1.895a2.034,2.034,0,0,1-.152-.72c0-.341.227-.531.872-.72a59,59,0,0,0,5.911-2.236,5.033,5.033,0,0,1,2.236-.455h1.023c.872,0,1.1.152,1.1.947,0,.569-.076,4.434-.076,6.632Z" transform="translate(-441.704 -2056.516)" fill="#7f6760"/>
          <path id="パス_9504" data-name="パス 9504" d="M473.454,2083.406c-1.781,0-4.774.076-5.039.076-.834,0-1.061-.3-1.061-1.212.037-2.122.076-4.51.076-6.329v-11.9c0-1.857-.039-4.131-.076-6.329,0-.909.227-1.213,1.061-1.213.265,0,3.258.076,5.039.076h4.661c7.5,0,11.975,4.168,11.975,12.618,0,8.83-4.851,14.211-13.187,14.211Zm-1.629-5.04c0,.948.189,1.137,1.136,1.137h3.827c5.949,0,8.829-4.055,8.829-10.08,0-5.115-2.424-8.753-7.919-8.753h-4.737c-.947,0-1.136.189-1.136,1.137Z" transform="translate(-445.754 -2056.502)" fill="#7f6760"/>
          <path id="パス_9505" data-name="パス 9505" d="M508.637,2077.092c-.985,0-1.25.076-1.592.909-.531,1.25-1.023,2.539-1.667,4.358-.341.91-.531,1.061-1.516,1.061H501.21c-.606,0-.872-.076-.872-.379a1.625,1.625,0,0,1,.227-.644c1.175-2.653,2.008-4.547,2.8-6.4l5.419-12.846c.682-1.629,1.478-3.448,2.274-5.495.341-.909.531-1.061,1.516-1.061h1.629c.985,0,1.175.152,1.515,1.061.8,2.046,1.554,3.865,2.236,5.457l5.457,12.808c.834,1.97,1.667,3.865,2.842,6.48a1.625,1.625,0,0,1,.227.644c0,.3-.265.379-.872.379H522.7c-.985,0-1.175-.152-1.516-1.061-.644-1.819-1.137-3.107-1.667-4.358-.341-.834-.568-.909-1.592-.909Zm.682-4.7a1.7,1.7,0,0,0-.152.644c0,.341.265.417.872.417h6.479c.606,0,.872-.076.872-.417a1.7,1.7,0,0,0-.152-.644l-3.523-8.677c-.152-.379-.265-.606-.417-.606-.114,0-.265.189-.418.606Z" transform="translate(-450.962 -2056.516)" fill="#7f6760"/>
          <path id="パス_9506" data-name="パス 9506" d="M550.372,2075.842c0,2.2.114,6.366.114,6.632,0,.8-.227.948-1.1.948h-2.463c-.872,0-1.1-.152-1.1-.948,0-.265.114-4.434.114-6.632v-2.387a2.979,2.979,0,0,0-.644-2.084l-4.32-6.479c-1.477-2.2-3.107-4.547-5.039-7.314a1.332,1.332,0,0,1-.227-.606c0-.265.3-.379.872-.379h2.955a1.517,1.517,0,0,1,1.705.985c1.288,2.122,2.5,4.017,3.789,6.025l2.577,3.9c.227.379.417.569.606.569s.341-.19.606-.569l2.615-3.978c1.288-1.97,2.5-3.827,3.789-5.949a1.517,1.517,0,0,1,1.705-.985h2.8c.569,0,.872.114.872.379a1.332,1.332,0,0,1-.227.606c-1.932,2.729-3.41,4.888-5,7.276l-4.358,6.555a2.979,2.979,0,0,0-.644,2.084Z" transform="translate(-456.547 -2056.516)" fill="#7f6760"/>
        </g>
      </g>
      <g id="グループ_1027" data-name="グループ 1027" transform="translate(434.588)">
        <rect id="長方形_596" data-name="長方形 596" width="532.1" height="68.086" rx="34.043" fill="#fff" stroke="#7f6760" stroke-miterlimit="10" stroke-width="2.179"/>
        <g id="グループ_1026" data-name="グループ 1026" transform="translate(49.788 21.418)">
          <path id="パス_9507" data-name="パス 9507" d="M967.315,2083.406c-1.781,0-4.775.076-5.039.076-.835,0-1.061-.3-1.061-1.212.038-2.122.076-4.51.076-6.329v-11.9c0-1.857-.038-4.131-.076-6.329,0-.909.227-1.213,1.061-1.213.264,0,3.258.076,5.039.076h4.661c7.5,0,11.974,4.168,11.974,12.618,0,8.83-4.851,14.21-13.186,14.21Zm-1.629-5.039c0,.948.19,1.137,1.137,1.137h3.827c5.949,0,8.829-4.055,8.829-10.08,0-5.116-2.425-8.753-7.919-8.753h-4.737c-.947,0-1.137.189-1.137,1.136Z" transform="translate(-961.215 -2056.313)" fill="#7f6760"/>
          <path id="パス_9508" data-name="パス 9508" d="M997.863,2083.42c-.872,0-1.1-.151-1.1-.947,0-.266.113-4.434.113-6.632v-11.671c0-2.2-.113-6.366-.113-6.632,0-.8.227-.947,1.1-.947h2.425c.872,0,1.1.152,1.1.947,0,.265-.114,4.434-.114,6.632v11.671c0,2.2.114,6.365.114,6.632,0,.8-.227.947-1.1.947Z" transform="translate(-966.828 -2056.327)" fill="#7f6760"/>
          <path id="パス_9509" data-name="パス 9509" d="M1017.887,2077.092c-.985,0-1.25.076-1.591.909-.531,1.25-1.023,2.539-1.667,4.358-.341.909-.531,1.06-1.517,1.06h-2.652c-.606,0-.871-.075-.871-.379a1.635,1.635,0,0,1,.227-.643c1.175-2.653,2.008-4.547,2.8-6.4l5.418-12.846c.683-1.629,1.479-3.448,2.275-5.494.341-.909.53-1.061,1.515-1.061h1.63c.985,0,1.174.152,1.515,1.061.8,2.046,1.554,3.865,2.237,5.457l5.456,12.808c.833,1.97,1.667,3.865,2.841,6.48a1.616,1.616,0,0,1,.228.643c0,.3-.266.379-.871.379h-2.918c-.985,0-1.176-.151-1.517-1.06-.644-1.819-1.137-3.107-1.667-4.358-.341-.834-.568-.909-1.591-.909Zm.683-4.7a1.7,1.7,0,0,0-.152.644c0,.341.265.417.872.417h6.479c.606,0,.872-.076.872-.417a1.7,1.7,0,0,0-.152-.644l-3.523-8.678c-.152-.378-.266-.605-.417-.605-.114,0-.265.189-.418.605Z" transform="translate(-968.853 -2056.327)" fill="#7f6760"/>
          <path id="パス_9510" data-name="パス 9510" d="M1069.7,2075.842c0,2.2.114,6.177.114,6.632,0,.8-.227.947-1.1.947h-2.349c-.872,0-1.1-.151-1.1-.947,0-.455.114-4.434.114-6.632v-13.262c0-.645-.114-.909-.455-.909a1.546,1.546,0,0,0-.606.151c-1.138.418-2.425.948-3.41,1.4a1.721,1.721,0,0,1-.721.227c-.34,0-.493-.265-.681-.834l-.72-1.895a2.035,2.035,0,0,1-.152-.72c0-.341.227-.531.872-.72a58.985,58.985,0,0,0,5.911-2.236,5.037,5.037,0,0,1,2.237-.455h1.023c.872,0,1.1.152,1.1.947,0,.569-.076,4.434-.076,6.632Z" transform="translate(-976.598 -2056.327)" fill="#7f6760"/>
          <path id="パス_9511" data-name="パス 9511" d="M1100.651,2078.684c0,1.289.076,3.523.076,3.79,0,.8-.228.947-1.1.947h-2.121c-.871,0-1.1-.151-1.1-.947,0-.266.076-2.5.076-3.79,0-.871-.152-1.023-1.023-1.023h-5.986c-2.2,0-5.458.076-5.722.076-.8,0-.947-.227-.947-1.1v-.644a3.822,3.822,0,0,1,.531-2.16c.834-1.516,1.629-3.07,2.387-4.547l3.335-6.441c.795-1.554,1.667-3.3,2.576-5.23.379-.871.607-1.023,1.592-1.023h2.842c.568,0,.833.076.833.341a1.89,1.89,0,0,1-.265.644c-1.213,2.236-2.2,4.093-3.145,5.911l-4.85,9.36a1.752,1.752,0,0,0-.227.682c0,.265.264.341.834.341h6.214c.91,0,1.023-.227,1.023-1.1,0-2.577-.076-6.025-.076-6.291,0-.8.227-.948,1.1-.948h2.121c.872,0,1.1.152,1.1.948,0,.265-.076,3.676-.076,6.366,0,.872.152,1.023,1.023,1.023,1.023,0,2.88-.038,3.145-.038.8,0,.947.227.947,1.1v1.705c0,.872-.152,1.1-.947,1.1-.265,0-2.122-.076-3.145-.076C1100.8,2077.661,1100.651,2077.812,1100.651,2078.684Z" transform="translate(-980.413 -2056.327)" fill="#7f6760"/>
          <path id="パス_9512" data-name="パス 9512" d="M1122.049,2084.586a2.882,2.882,0,0,1-2.994,3.069,2.586,2.586,0,0,1-2.728-2.652,2.88,2.88,0,0,1,3.032-3.032A2.568,2.568,0,0,1,1122.049,2084.586Z" transform="translate(-985.707 -2060.334)" fill="#7f6760"/>
          <path id="パス_9513" data-name="パス 9513" d="M1141.816,2079.468c1.933,0,5.494-.076,5.76-.076.8,0,.947.227.947,1.1v1.78c0,.872-.151,1.1-.947,1.1-.266,0-3.827-.075-5.76-.075h-4.926c-1.933,0-5.495.075-5.76.075-.8,0-.947-.227-.947-1.1v-.681a1.781,1.781,0,0,1,.91-1.857c.68-.493,1.288-1.023,1.932-1.592,6.821-5.987,10.762-9.777,10.762-13.49,0-2.462-1.706-4.167-4.813-4.167a7.606,7.606,0,0,0-5.533,2.5c-.341.38-.568.531-.8.531-.189,0-.416-.19-.757-.531l-1.516-1.629c-.3-.341-.455-.568-.455-.8,0-.265.19-.492.531-.833a12.944,12.944,0,0,1,8.9-3.448c5.76,0,8.981,3.41,8.981,7.768,0,5.343-4.282,9.625-10.08,14.665-.3.265-.417.417-.417.53,0,.152.228.228.682.228Z" transform="translate(-987.852 -2056.277)" fill="#7f6760"/>
          <path id="パス_9514" data-name="パス 9514" d="M1165.556,2078.7c0,1.705.077,4.85.077,5.116,0,.8-.227.947-1.1.947h-2.2c-.872,0-1.1-.151-1.1-.947,0-.266.076-3.411.076-5.116v-7.314c0-1.705-.076-4.851-.076-5.116,0-.8.227-.948,1.1-.948h1.857c.872,0,1.023.152,1.061,1.024.038.492.114.719.3.719a1.154,1.154,0,0,0,.568-.265,8.169,8.169,0,0,1,5.039-1.705,6.022,6.022,0,0,1,4.548,1.819c.341.379.531.568.758.568.189,0,.378-.152.758-.455a9.346,9.346,0,0,1,5.684-1.933c3.751,0,6.252,2.577,6.252,6.783v6.821c0,1.705.076,4.85.076,5.116,0,.8-.227.947-1.1.947h-2.2c-.871,0-1.1-.151-1.1-.947,0-.266.075-3.411.075-5.116v-5.646c0-2.311-1.1-3.865-3.448-3.865a5.409,5.409,0,0,0-3.335,1.213,1.427,1.427,0,0,0-.72,1.478v6.821c0,1.705.076,4.85.076,5.116,0,.8-.227.947-1.1.947h-2.2c-.872,0-1.1-.151-1.1-.947,0-.266.077-3.411.077-5.116v-5.646c0-2.311-1.1-3.865-3.448-3.865a5.51,5.51,0,0,0-3.335,1.175,1.822,1.822,0,0,0-.834,1.705Z" transform="translate(-992.797 -2057.67)" fill="#7f6760"/>
          <path id="パス_9515" data-name="パス 9515" d="M1207.766,2078.7c0,1.705.076,4.85.076,5.116,0,.8-.227.947-1.1.947h-2.2c-.872,0-1.1-.151-1.1-.947,0-.266.077-3.411.077-5.116v-7.314c0-1.705-.077-4.851-.077-5.116,0-.8.228-.948,1.1-.948h1.857c.871,0,1.023.152,1.061,1.024.038.492.114.719.3.719a1.159,1.159,0,0,0,.568-.265,8.169,8.169,0,0,1,5.039-1.705,6.02,6.02,0,0,1,4.547,1.819c.341.379.531.568.758.568.189,0,.379-.152.759-.455a9.346,9.346,0,0,1,5.684-1.933c3.751,0,6.251,2.577,6.251,6.783v6.821c0,1.705.076,4.85.076,5.116,0,.8-.226.947-1.1.947h-2.2c-.872,0-1.1-.151-1.1-.947,0-.266.076-3.411.076-5.116v-5.646c0-2.311-1.1-3.865-3.448-3.865a5.406,5.406,0,0,0-3.334,1.213,1.426,1.426,0,0,0-.721,1.478v6.821c0,1.705.076,4.85.076,5.116,0,.8-.227.947-1.1.947h-2.2c-.872,0-1.1-.151-1.1-.947,0-.266.077-3.411.077-5.116v-5.646c0-2.311-1.1-3.865-3.449-3.865a5.507,5.507,0,0,0-3.334,1.175,1.82,1.82,0,0,0-.834,1.705Z" transform="translate(-999.462 -2057.67)" fill="#7f6760"/>
          <path id="パス_9516" data-name="パス 9516" d="M1256.442,2083.42c-.53,0-.8-.075-.8-.3a1.329,1.329,0,0,1,.265-.644c.72-1.137,1.4-2.274,2.121-3.411l10.724-18.113c.682-1.137,1.326-2.236,1.971-3.373a1.452,1.452,0,0,1,1.667-.985h2.311c.531,0,.8.076.8.3a1.329,1.329,0,0,1-.265.644c-.72,1.137-1.441,2.312-2.121,3.448l-10.725,18.037c-.643,1.1-1.326,2.274-1.971,3.41a1.45,1.45,0,0,1-1.667.985Z" transform="translate(-1007.704 -2056.327)" fill="#7f6760"/>
          <path id="パス_9517" data-name="パス 9517" d="M1308.021,2075.842c0,2.2.113,6.177.113,6.632,0,.8-.227.947-1.1.947h-2.35c-.872,0-1.1-.151-1.1-.947,0-.455.114-4.434.114-6.632v-13.262c0-.645-.114-.909-.454-.909a1.549,1.549,0,0,0-.607.151c-1.137.418-2.424.948-3.41,1.4a1.718,1.718,0,0,1-.719.227c-.341,0-.494-.265-.683-.834l-.719-1.895a2.021,2.021,0,0,1-.152-.72c0-.341.228-.531.872-.72a58.943,58.943,0,0,0,5.912-2.236,5.035,5.035,0,0,1,2.236-.455H1307c.872,0,1.1.152,1.1.947,0,.569-.076,4.434-.076,6.632Z" transform="translate(-1014.227 -2056.327)" fill="#7f6760"/>
          <path id="パス_9518" data-name="パス 9518" d="M1338.968,2078.684c0,1.289.076,3.523.076,3.79,0,.8-.227.947-1.1.947h-2.122c-.871,0-1.1-.151-1.1-.947,0-.266.076-2.5.076-3.79,0-.871-.151-1.023-1.023-1.023h-5.986c-2.2,0-5.456.076-5.722.076-.795,0-.947-.227-.947-1.1v-.644a3.821,3.821,0,0,1,.531-2.16c.834-1.516,1.63-3.07,2.387-4.547l3.335-6.441c.8-1.554,1.667-3.3,2.576-5.23.38-.871.606-1.023,1.592-1.023h2.842c.569,0,.834.076.834.341a1.883,1.883,0,0,1-.264.644c-1.214,2.236-2.2,4.093-3.145,5.911l-4.851,9.36a1.735,1.735,0,0,0-.228.682c0,.265.266.341.834.341h6.214c.909,0,1.023-.227,1.023-1.1,0-2.577-.076-6.025-.076-6.291,0-.8.228-.948,1.1-.948h2.122c.872,0,1.1.152,1.1.948,0,.265-.076,3.676-.076,6.366,0,.872.152,1.023,1.023,1.023,1.023,0,2.88-.038,3.145-.038.8,0,.947.227.947,1.1v1.705c0,.872-.152,1.1-.947,1.1-.265,0-2.122-.076-3.145-.076C1339.119,2077.661,1338.968,2077.812,1338.968,2078.684Z" transform="translate(-1018.042 -2056.327)" fill="#7f6760"/>
          <path id="パス_9519" data-name="パス 9519" d="M1360.366,2084.586a2.882,2.882,0,0,1-2.993,3.069,2.586,2.586,0,0,1-2.728-2.652,2.879,2.879,0,0,1,3.031-3.032A2.568,2.568,0,0,1,1360.366,2084.586Z" transform="translate(-1023.336 -2060.334)" fill="#7f6760"/>
          <path id="パス_9520" data-name="パス 9520" d="M1378.421,2066.52c5.229,0,9.246,2.577,9.246,7.768,0,4.434-2.88,9.4-11.179,9.4a16.34,16.34,0,0,1-6.783-1.44c-.53-.265-.795-.455-.795-.8a2.247,2.247,0,0,1,.189-.72l.72-1.819c.227-.531.378-.8.644-.8a1.46,1.46,0,0,1,.719.341,11.162,11.162,0,0,0,5.533,1.44c4.622,0,6.517-2.463,6.517-5.268,0-2.918-2.387-4.509-5.874-4.509a12.242,12.242,0,0,0-4.131.682,3.131,3.131,0,0,1-1.023.265,4.432,4.432,0,0,1-1.1-.265c-.759-.265-.985-.417-.985-.985a2.32,2.32,0,0,1,.038-.493c.151-1.137.264-2.2.379-3.373l.417-4.7c.076-1.023.189-2.577.227-3.562.038-.909.189-1.1.947-1.1.493,0,3.827.076,5.76.076h2.122c1.933,0,5.609-.076,5.873-.076.8,0,.947.227.947,1.1v2.008c0,.872-.151,1.1-.947,1.1-.264,0-3.94-.114-5.873-.114h-3.789c-.985,0-1.175.152-1.25,1.136l-.3,3.335a8.659,8.659,0,0,0-.076,1.023c0,.493.152.644.53.644a2.348,2.348,0,0,0,.494-.038A13.268,13.268,0,0,1,1378.421,2066.52Z" transform="translate(-1025.588 -2056.327)" fill="#7f6760"/>
          <path id="パス_9521" data-name="パス 9521" d="M1404.233,2078.7c0,1.705.077,4.85.077,5.116,0,.8-.228.947-1.1.947h-2.2c-.872,0-1.1-.151-1.1-.947,0-.266.076-3.411.076-5.116v-7.314c0-1.705-.076-4.851-.076-5.116,0-.8.227-.948,1.1-.948h1.857c.872,0,1.023.152,1.061,1.024.038.492.113.719.3.719a1.162,1.162,0,0,0,.569-.265,8.166,8.166,0,0,1,5.039-1.705,6.022,6.022,0,0,1,4.548,1.819c.34.379.529.568.757.568.19,0,.379-.152.757-.455a9.354,9.354,0,0,1,5.684-1.933c3.751,0,6.253,2.577,6.253,6.783v6.821c0,1.705.076,4.85.076,5.116,0,.8-.228.947-1.1.947h-2.2c-.871,0-1.1-.151-1.1-.947,0-.266.076-3.411.076-5.116v-5.646c0-2.311-1.1-3.865-3.448-3.865a5.413,5.413,0,0,0-3.335,1.213,1.429,1.429,0,0,0-.719,1.478v6.821c0,1.705.076,4.85.076,5.116,0,.8-.227.947-1.1.947h-2.2c-.872,0-1.1-.151-1.1-.947,0-.266.076-3.411.076-5.116v-5.646c0-2.311-1.1-3.865-3.448-3.865a5.508,5.508,0,0,0-3.335,1.175,1.822,1.822,0,0,0-.834,1.705Z" transform="translate(-1030.484 -2057.67)" fill="#7f6760"/>
          <path id="パス_9522" data-name="パス 9522" d="M1446.444,2078.7c0,1.705.076,4.85.076,5.116,0,.8-.227.947-1.1.947h-2.2c-.872,0-1.1-.151-1.1-.947,0-.266.077-3.411.077-5.116v-7.314c0-1.705-.077-4.851-.077-5.116,0-.8.228-.948,1.1-.948h1.857c.871,0,1.023.152,1.061,1.024.037.492.113.719.3.719a1.163,1.163,0,0,0,.568-.265,8.169,8.169,0,0,1,5.039-1.705,6.02,6.02,0,0,1,4.547,1.819c.341.379.531.568.758.568.189,0,.379-.152.758-.455a9.35,9.35,0,0,1,5.684-1.933c3.751,0,6.252,2.577,6.252,6.783v6.821c0,1.705.076,4.85.076,5.116,0,.8-.227.947-1.1.947h-2.2c-.872,0-1.1-.151-1.1-.947,0-.266.076-3.411.076-5.116v-5.646c0-2.311-1.1-3.865-3.449-3.865a5.409,5.409,0,0,0-3.334,1.213,1.427,1.427,0,0,0-.72,1.478v6.821c0,1.705.076,4.85.076,5.116,0,.8-.227.947-1.1.947h-2.2c-.872,0-1.1-.151-1.1-.947,0-.266.077-3.411.077-5.116v-5.646c0-2.311-1.1-3.865-3.449-3.865a5.505,5.505,0,0,0-3.334,1.175,1.82,1.82,0,0,0-.834,1.705Z" transform="translate(-1037.148 -2057.67)" fill="#7f6760"/>
        </g>
      </g>
      <g id="グループ_1029" data-name="グループ 1029" transform="translate(217.285)">
        <rect id="長方形_597" data-name="長方形 597" width="196.859" height="68.086" rx="34.043" fill="#fff" stroke="#7f6760" stroke-miterlimit="10" stroke-width="2.136"/>
        <g id="グループ_1028" data-name="グループ 1028" transform="translate(37.211 17.212)">
          <path id="パス_9523" data-name="パス 9523" d="M699.3,2075.842c0,2.2.114,6.177.114,6.632,0,.8-.227.948-1.1.948h-2.349c-.872,0-1.1-.152-1.1-.948,0-.455.114-4.434.114-6.632v-13.262c0-.644-.114-.909-.455-.909a1.549,1.549,0,0,0-.606.152c-1.136.417-2.424.947-3.41,1.4a1.71,1.71,0,0,1-.721.227c-.34,0-.493-.265-.681-.834l-.72-1.895a2.02,2.02,0,0,1-.152-.72c0-.341.228-.531.872-.72a58.928,58.928,0,0,0,5.911-2.236,5.033,5.033,0,0,1,2.236-.455h1.023c.872,0,1.1.152,1.1.947,0,.569-.076,4.434-.076,6.632Z" transform="translate(-688.231 -2052.12)" fill="#7f6760"/>
          <path id="パス_9524" data-name="パス 9524" d="M733.621,2069.32c0,9.018-5.192,14.285-11.519,14.285-6.063,0-10.875-4.585-10.875-13.225,0-7.768,3.978-14.058,11.443-14.058C728.62,2056.322,733.621,2060.68,733.621,2069.32Zm-17.961,1.174c0,5.912,2.615,9.057,6.442,9.057,4.055,0,7.086-3.9,7.086-10.08,0-5.949-2.766-8.9-6.519-8.9C717.859,2060.566,715.66,2065.151,715.66,2070.494Z" transform="translate(-691.862 -2052.078)" fill="#7f6760"/>
          <path id="パス_9525" data-name="パス 9525" d="M750.734,2054.655a17.885,17.885,0,0,0-.114-2.539,1.047,1.047,0,0,1-.038-.341c0-.417.3-.493.644-.493.417,0,2.8.265,3.335.341.378.038.947.076.947.569,0,.265-.265.341-.569.53-.455.265-.493.985-.493,2.274v2.312c0,.758.3,1.061,1.062,1.061.909.038,1.856-.076,2.8-.076.872,0,.834.493.834,1.781,0,1.364.037,1.857-.834,1.857-.947,0-1.895-.114-2.8-.076-.758,0-1.062.3-1.062,1.061v.228a2.13,2.13,0,0,0,.38,1.516,36.232,36.232,0,0,0,4.357,5.57c.228.228.606.569.606.91a3.863,3.863,0,0,1-2.121,2.236c-.606,0-2.312-2.615-2.691-3.183a.384.384,0,0,0-.265-.152c-.189,0-.266.189-.266.341v8.6c0,1.743.077,3.486.077,5.229,0,1.137-.417,1.137-1.895,1.137-1.592,0-2.008-.038-2.008-1.137,0-1.743.114-3.486.114-5.229v-7.92c0-.114-.038-.19-.152-.19a.141.141,0,0,0-.151.114,32.769,32.769,0,0,1-2.615,6.329c-.227.417-.417.871-.947.871-.682,0-2.387-1.4-2.387-2.122a2.74,2.74,0,0,1,.568-1.212,47.532,47.532,0,0,0,4.851-12.012.564.564,0,0,0,.038-.266c0-.53-.379-.72-.834-.72-.947-.038-1.895.076-2.8.076-.872,0-.872-.455-.872-1.857,0-1.288,0-1.781.872-1.781.985,0,2.121.076,3.22.076h.152c.758,0,1.061-.3,1.061-1.061Zm24.176,8.905a40.643,40.643,0,0,1-4.244,10.685,1.61,1.61,0,0,0-.227.72,1.415,1.415,0,0,0,.379.872,30.081,30.081,0,0,0,7.313,5.609c.568.341,1.061.568,1.061.909,0,.758-1.478,2.8-2.273,2.8a2.087,2.087,0,0,1-1.023-.455,36.563,36.563,0,0,1-7.313-5.874.923.923,0,0,0-.683-.341.911.911,0,0,0-.644.341,29.323,29.323,0,0,1-7.617,5.836,5.08,5.08,0,0,1-1.515.606c-.759,0-2.237-2.2-2.237-2.728,0-.417.493-.569.872-.758a24.7,24.7,0,0,0,8.222-6.025,1.178,1.178,0,0,0,.341-.8,1.3,1.3,0,0,0-.265-.758,25.72,25.72,0,0,1-2.956-7.692c-.038-.19-.151-.341-.341-.341s-.264.075-.378.227c-.266.455-.759,1.554-1.4,1.554-.568,0-2.5-1.138-2.5-1.933a1.748,1.748,0,0,1,.264-.606,50.166,50.166,0,0,0,5.381-13.528c.076-.3.115-.569.493-.569a33.076,33.076,0,0,1,3.221.8c.3.076.947.227.947.606,0,.265-.3.455-.531.569-.568.227-.605.455-.909,1.44-.151.492-.341,1.175-.681,2.122a.725.725,0,0,0-.039.3c0,.455.341.606.758.644h7.579c1.363,0,2.69-.076,4.017-.076.872,0,.834.455.834,1.819,0,1.4.038,1.857-.8,1.857s-2.16-.076-3.031-.076c-.114.038-.152.038-.152.151,0,.076.077.114.115.152.568.227,1.175.379,1.175.758,0,.341-.38.455-.644.53C775.1,2062.991,774.985,2063.219,774.91,2063.56Zm-9.436-2.236c-.493,0-.947.189-.947.758v.227a29.79,29.79,0,0,0,2.766,8.563.626.626,0,0,0,.493.3.489.489,0,0,0,.455-.341,38.3,38.3,0,0,0,2.994-8.563v-.189c0-.569-.417-.758-.872-.758Z" transform="translate(-697.113 -2051.282)" fill="#7f6760"/>
          <path id="パス_9526" data-name="パス 9526" d="M807.893,2058.224c0-1.326,0-1.667-1.061-1.667h-2.616c-.909,0-1.818.076-2.728.076-.985,0-.947-.493-.947-1.97,0-1.44-.038-1.895.947-1.895.872,0,1.819.076,2.728.076h4.131c.643,0,1.25-.038,1.857-.038,1.554,0,1.895.8,1.895,2.236v2.539a27.359,27.359,0,0,0,14.058,24.062c.3.19.531.341.531.72,0,.948-1.44,3.07-2.463,3.07-.644,0-3.714-2.463-4.358-2.994a34.469,34.469,0,0,1-9.776-13.756.454.454,0,0,0-.379-.3c-.152,0-.266.153-.341.3a34.883,34.883,0,0,1-12.695,15.461,4.241,4.241,0,0,1-1.819.91c-.985,0-2.046-2.16-2.046-3.031,0-.3.265-.417.643-.644a30.484,30.484,0,0,0,10.648-10.648,28.564,28.564,0,0,0,3.752-11.406A10.663,10.663,0,0,0,807.893,2058.224Z" transform="translate(-704.744 -2051.516)" fill="#7f6760"/>
        </g>
      </g>
    </g>
    <g id="グループ_1038" data-name="グループ 1038" transform="translate(424.979 2123.978)">
      <g id="グループ_1035" data-name="グループ 1035" transform="translate(343.708)">
        <g id="グループ_1032" data-name="グループ 1032">
          <rect id="長方形_598" data-name="長方形 598" width="248.541" height="68.086" rx="34.043" fill="#fff" stroke="#7f6760" stroke-miterlimit="10" stroke-width="2.106"/>
          <g id="グループ_1031" data-name="グループ 1031" transform="translate(54.991 22.014)">
            <path id="パス_9527" data-name="パス 9527" d="M927.794,2185.776c0,5.836-4.661,9.36-11.368,9.36-6.669,0-10.572-3.562-10.572-9.284v-10.42c0-2.2-.114-6.366-.114-6.632,0-.8.227-.947,1.1-.947h2.425c.872,0,1.1.152,1.1.947,0,.265-.113,4.434-.113,6.632v9.662c0,3.676,2.387,5.912,6.365,5.912s6.783-2.2,6.783-5.949v-9.625c0-2.2-.114-6.366-.114-6.632,0-.8.227-.947,1.1-.947h2.425c.871,0,1.1.152,1.1.947,0,.265-.113,4.434-.113,6.632Z" transform="translate(-905.74 -2167.626)" fill="#7f6760"/>
            <path id="パス_9528" data-name="パス 9528" d="M956.607,2188.05c-.681,1.629-1.477,3.486-2.273,5.57-.341.91-.531,1.061-1.516,1.061h-1.592c-.985,0-1.175-.152-1.554-1.061-.8-2.084-1.554-3.9-2.236-5.532l-5.381-12.656c-.872-2.008-1.705-3.941-2.918-6.556a1.933,1.933,0,0,1-.189-.644c0-.3.265-.379.871-.379h2.918c.985,0,1.175.152,1.516,1.061.909,2.463,1.667,4.282,2.349,6.025l5.078,12.315c.114.3.265.455.417.455s.265-.152.417-.455l5.039-12.239c.72-1.819,1.478-3.638,2.349-6.1.341-.909.531-1.061,1.516-1.061h2.8c.606,0,.834.076.834.379a2.193,2.193,0,0,1-.189.644c-1.213,2.615-2.084,4.623-2.879,6.518Z" transform="translate(-910.984 -2167.626)" fill="#7f6760"/>
            <path id="パス_9529" data-name="パス 9529" d="M1008.524,2192.858c0,.341-.266.531-.834.8a16.627,16.627,0,0,1-6.4,1.212c-7.843,0-12.884-5.229-12.884-13,0-7.919,4.813-14.286,14.286-14.286a14.868,14.868,0,0,1,5.457.948c.568.227.834.417.834.758a2.25,2.25,0,0,1-.189.72l-.834,2.274c-.227.568-.341.8-.645.8a2.008,2.008,0,0,1-.757-.227,10.223,10.223,0,0,0-4.054-.872c-6.291,0-9.511,4.434-9.511,9.776s3.373,8.981,8.791,8.981a9.891,9.891,0,0,0,4.4-.948,1.781,1.781,0,0,1,.758-.265c.3,0,.455.227.682.8l.72,1.819A2.253,2.253,0,0,1,1008.524,2192.858Z" transform="translate(-918.792 -2167.583)" fill="#7f6760"/>
            <path id="パス_9530" data-name="パス 9530" d="M1042.361,2185.776c0,5.836-4.66,9.36-11.368,9.36-6.669,0-10.573-3.562-10.573-9.284v-10.42c0-2.2-.113-6.366-.113-6.632,0-.8.227-.947,1.1-.947h2.425c.872,0,1.1.152,1.1.947,0,.265-.114,4.434-.114,6.632v9.662c0,3.676,2.387,5.912,6.366,5.912s6.782-2.2,6.782-5.949v-9.625c0-2.2-.113-6.366-.113-6.632,0-.8.227-.947,1.1-.947h2.425c.872,0,1.1.152,1.1.947,0,.265-.114,4.434-.114,6.632Z" transform="translate(-923.83 -2167.626)" fill="#7f6760"/>
            <path id="パス_9531" data-name="パス 9531" d="M1066.925,2187.088c0,2.2.113,6.366.113,6.632,0,.8-.227.948-1.1.948h-2.387c-.872,0-1.1-.152-1.1-.948,0-.265.114-4.434.114-6.632v-14.02c0-.948-.189-1.137-1.137-1.137h-1.175c-1.592,0-4.851.114-5.116.114-.8,0-.947-.228-.947-1.1v-2.084c0-.872.151-1.1.947-1.1.265,0,3.714.076,5.495.076h8.26c1.782,0,5.229-.076,5.495-.076.8,0,.947.228.947,1.1v2.084c0,.871-.152,1.1-.947,1.1-.265,0-3.524-.114-5.115-.114h-1.214c-.947,0-1.136.189-1.136,1.137Z" transform="translate(-929.18 -2167.611)" fill="#7f6760"/>
          </g>
        </g>
        <g id="グループ_1034" data-name="グループ 1034" transform="translate(279.006)">
          <rect id="長方形_599" data-name="長方形 599" width="266.05" height="68.086" rx="34.043" fill="#fff" stroke="#7f6760" stroke-miterlimit="10" stroke-width="2.179"/>
          <g id="グループ_1033" data-name="グループ 1033" transform="translate(42.026 21.863)">
            <path id="パス_9532" data-name="パス 9532" d="M1227.766,2194.667c-1.781,0-4.775.076-5.039.076-.8,0-1.062-.265-1.062-1.061,0-.265.077-4.358.077-6.48v-11.9c0-1.857-.077-5.684-.077-6.329,0-.909.228-1.213,1.062-1.213.416,0,3.258.076,5.039.076h2.918c5.456,0,8.678,1.44,8.678,6.063,0,2.2-.493,4.282-2.463,5.722-.3.227-.493.379-.493.493,0,.189.189.3.606.455,2.2.872,3.637,2.767,3.637,5.873,0,5.646-3.751,8.223-9.852,8.223Zm-1.743-17.014c0,.948.189,1.137,1.137,1.137h3.032c2.8,0,4.813-1.061,4.813-4.093,0-2.5-2.046-3.145-4.358-3.145h-3.486c-.947,0-1.137.189-1.137,1.137Zm0,12.239c0,.947.189,1.137,1.137,1.137h3.562c3.145,0,5.456-1.478,5.456-4.623,0-2.879-1.857-3.978-4.775-3.978h-4.243c-.947,0-1.137.19-1.137,1.137Z" transform="translate(-1221.665 -2167.46)" fill="#7f6760"/>
            <path id="パス_9533" data-name="パス 9533" d="M1271.441,2192.858c0,.341-.265.531-.833.8a16.632,16.632,0,0,1-6.4,1.212c-7.844,0-12.884-5.229-12.884-13,0-7.92,4.813-14.286,14.286-14.286a14.872,14.872,0,0,1,5.458.948c.568.227.833.417.833.758a2.253,2.253,0,0,1-.189.72l-.834,2.274c-.226.568-.34.8-.644.8a2.012,2.012,0,0,1-.758-.227,10.219,10.219,0,0,0-4.054-.872c-6.291,0-9.512,4.434-9.512,9.777s3.373,8.98,8.792,8.98a9.893,9.893,0,0,0,4.4-.948,1.78,1.78,0,0,1,.757-.265c.3,0,.455.227.683.8l.719,1.819A2.253,2.253,0,0,1,1271.441,2192.858Z" transform="translate(-1226.347 -2167.431)" fill="#7f6760"/>
            <path id="パス_9534" data-name="パス 9534" d="M1310.478,2180.4c0,.152.19.3.569.493,2.8,1.4,5.039,3.335,5.039,6.707,0,4.32-3.523,7.389-11.027,7.389-5.987,0-10.269-2.577-10.269-7.048,0-2.879,1.705-5.229,4.851-6.82.379-.19.568-.341.568-.493s-.189-.3-.531-.531c-2.16-1.288-3.752-3.107-3.752-5.911,0-3.638,3.373-6.783,9.815-6.783,5.874,0,9.283,2.8,9.283,6.442,0,2.5-1.478,4.547-4.017,6.025C1310.668,2180.06,1310.478,2180.249,1310.478,2180.4Zm-5.645,2.083a2.553,2.553,0,0,0-1.061.266c-2.88,1.213-4.585,2.728-4.585,4.888,0,2.387,2.614,3.676,6.063,3.676,3.789,0,6.366-1.364,6.366-3.827,0-2.311-2.35-3.485-5.76-4.775A2.988,2.988,0,0,0,1304.832,2182.484Zm.757-11.292c-2.956,0-5.191,1.175-5.191,3.107,0,1.971,1.933,3.032,4.547,4.093a3.128,3.128,0,0,0,1.022.265,2.678,2.678,0,0,0,1.061-.3c2.312-1.1,3.6-2.425,3.6-4.131C1310.63,2172.329,1308.469,2171.193,1305.589,2171.193Z" transform="translate(-1233.211 -2167.403)" fill="#7f6760"/>
            <path id="パス_9535" data-name="パス 9535" d="M1333.091,2195.847a2.883,2.883,0,0,1-2.994,3.069,2.587,2.587,0,0,1-2.728-2.652,2.88,2.88,0,0,1,3.031-3.032A2.568,2.568,0,0,1,1333.091,2195.847Z" transform="translate(-1238.355 -2171.481)" fill="#7f6760"/>
            <path id="パス_9536" data-name="パス 9536" d="M1347.885,2178.755a12.4,12.4,0,0,1,6.1-1.629c4.471,0,8.526,2.577,8.526,8.109,0,5.949-4.586,9.663-10.459,9.663-6.479,0-10.194-4.32-10.194-10.572a17.484,17.484,0,0,1,4.775-12.581,16.4,16.4,0,0,1,10.648-4.206c.758,0,.909.189.909,1.061v1.97c0,.985-.152,1.137-1.137,1.251a12.592,12.592,0,0,0-7.958,3.524,8.689,8.689,0,0,0-2.2,3.676.138.138,0,0,0,.151.151A2.025,2.025,0,0,0,1347.885,2178.755Zm-.721,4.017a2.092,2.092,0,0,0-1.023,2.046c0,3.751,2.387,6.29,6.1,6.29s5.949-2.539,5.949-5.533c0-2.652-1.933-4.7-5.267-4.7A9.882,9.882,0,0,0,1347.164,2182.772Z" transform="translate(-1240.643 -2167.424)" fill="#7f6760"/>
            <path id="パス_9537" data-name="パス 9537" d="M1378.8,2189.961c0,1.705.076,4.85.076,5.116,0,.8-.226.947-1.1.947h-2.2c-.871,0-1.1-.152-1.1-.947,0-.265.076-3.41.076-5.116v-7.313c0-1.705-.076-4.85-.076-5.116,0-.8.227-.948,1.1-.948h1.857c.872,0,1.023.152,1.061,1.023.038.492.114.72.3.72a1.159,1.159,0,0,0,.568-.265,8.165,8.165,0,0,1,5.039-1.705,6.018,6.018,0,0,1,4.548,1.819c.341.379.531.568.757.568.19,0,.379-.152.759-.455a9.341,9.341,0,0,1,5.684-1.933c3.751,0,6.252,2.577,6.252,6.783v6.82c0,1.705.076,4.85.076,5.116,0,.8-.227.947-1.1.947h-2.2c-.872,0-1.1-.152-1.1-.947,0-.265.075-3.41.075-5.116v-5.646c0-2.312-1.1-3.865-3.448-3.865a5.406,5.406,0,0,0-3.335,1.213,1.427,1.427,0,0,0-.721,1.478v6.82c0,1.705.076,4.85.076,5.116,0,.8-.226.947-1.1.947h-2.2c-.872,0-1.1-.152-1.1-.947,0-.265.077-3.41.077-5.116v-5.646c0-2.312-1.1-3.865-3.449-3.865a5.507,5.507,0,0,0-3.334,1.175,1.82,1.82,0,0,0-.834,1.705Z" transform="translate(-1245.794 -2168.817)" fill="#7f6760"/>
            <path id="パス_9538" data-name="パス 9538" d="M1421.013,2189.961c0,1.705.077,4.85.077,5.116,0,.8-.227.947-1.1.947h-2.2c-.872,0-1.1-.152-1.1-.947,0-.265.077-3.41.077-5.116v-7.313c0-1.705-.077-4.85-.077-5.116,0-.8.228-.948,1.1-.948h1.857c.871,0,1.023.152,1.061,1.023.038.492.114.72.3.72a1.159,1.159,0,0,0,.569-.265,8.161,8.161,0,0,1,5.039-1.705,6.016,6.016,0,0,1,4.547,1.819c.341.379.531.568.758.568.19,0,.379-.152.758-.455a9.345,9.345,0,0,1,5.684-1.933c3.752,0,6.252,2.577,6.252,6.783v6.82c0,1.705.076,4.85.076,5.116,0,.8-.227.947-1.1.947h-2.2c-.871,0-1.1-.152-1.1-.947,0-.265.075-3.41.075-5.116v-5.646c0-2.312-1.1-3.865-3.448-3.865a5.41,5.41,0,0,0-3.335,1.213,1.427,1.427,0,0,0-.72,1.478v6.82c0,1.705.076,4.85.076,5.116,0,.8-.227.947-1.1.947h-2.2c-.872,0-1.1-.152-1.1-.947,0-.265.076-3.41.076-5.116v-5.646c0-2.312-1.1-3.865-3.448-3.865a5.51,5.51,0,0,0-3.335,1.175,1.821,1.821,0,0,0-.834,1.705Z" transform="translate(-1252.459 -2168.817)" fill="#7f6760"/>
          </g>
        </g>
      </g>
      <g id="グループ_1037" data-name="グループ 1037">
        <rect id="長方形_600" data-name="長方形 600" width="308.798" height="68.086" rx="34.043" fill="#fff" stroke="#7f6760" stroke-miterlimit="10" stroke-width="2.136"/>
        <g id="グループ_1036" data-name="グループ 1036" transform="translate(45.599 17.391)">
          <path id="パス_9539" data-name="パス 9539" d="M496.323,2173.31a.551.551,0,0,0-.265.075c-1.175.948-6.1,4.585-7.352,4.585-1.023,0-2.273-2.009-2.273-2.615,0-.455.72-.8,1.136-.985a42.874,42.874,0,0,0,11.558-8.564,20.6,20.6,0,0,0,2.539-3.221.819.819,0,0,1,.72-.493c.379,0,3.069.645,3.638.8.3.075.72.264.72.643,0,.228-.227.379-.417.455a.354.354,0,0,0-.19.265.2.2,0,0,0,.075.152c3.9,4.623,8.223,7.427,13.642,9.967.341.151.872.341.872.8,0,.531-1.175,2.88-1.971,2.88-1.137,0-6.783-3.828-7.958-4.661a.327.327,0,0,0-.227-.114c-.227,0-.3.189-.341.379-.038.568-.114.871-.757.871-.91,0-1.971-.076-3.032-.076h-6.024c-1.023,0-2.16.076-2.994.076-.644,0-.758-.265-.8-.871C496.588,2173.461,496.512,2173.31,496.323,2173.31Zm.189,21.485c-.493,0-.682.227-.682.72v.114c0,.872-.606.834-2.122.834-1.44,0-2.008,0-2.008-.834,0-.492.114-1.591.114-2.349v-5.571c0-.72-.076-1.478-.076-2.2,0-1.478,1.288-1.63,2.463-1.63,1.061,0,2.122.077,3.183.077h7.579a1.563,1.563,0,0,0,1.554-.8,17.59,17.59,0,0,0,1.818-3.07c0-.493-.871-.417-1.213-.417h-9.814c-1.4,0-2.88.114-4.017.114-.909,0-.872-.493-.872-1.743,0-1.061,0-1.554.872-1.554.947,0,2.539.114,4.017.114h10.686c1.1,0,2.16-.076,3.258-.076a2.566,2.566,0,0,1,2.387,1.743c0,.834-2.045,3.979-2.577,4.812a.53.53,0,0,0-.114.341c0,.341.265.455.568.455h1.061c1.137,0,2.387.189,2.387,1.592,0,.758-.076,1.478-.076,2.236v5.571c0,.493.114,1.781.114,2.312,0,.909-.568.872-2.046.872-1.44,0-2.008.038-2.008-.834v-.114c0-.493-.227-.72-.682-.72Zm14.513-6.669a1.084,1.084,0,0,0-1.061-1.061H496.777a1.084,1.084,0,0,0-1.061,1.061v2.5a1.085,1.085,0,0,0,1.061,1.061h13.187a1.084,1.084,0,0,0,1.061-1.061Zm-7.578-21.22a.992.992,0,0,0-.682.341,45.6,45.6,0,0,1-3.6,3.562.564.564,0,0,0-.152.341c0,.265.189.341.417.379h7.957c.19-.038.418-.114.418-.379a.427.427,0,0,0-.115-.3,39.479,39.479,0,0,1-3.561-3.562A1.04,1.04,0,0,0,503.447,2166.906Z" transform="translate(-486.433 -2162.093)" fill="#7f6760"/>
          <path id="パス_9540" data-name="パス 9540" d="M539.931,2175.221c-1.251,0-2.5.076-3.752.076-.871,0-.871-.455-.871-1.933,0-1.516,0-1.97.871-1.97,1.251,0,2.5.075,3.752.075H545.8a1.709,1.709,0,0,1,1.667.72,2.253,2.253,0,0,1,.531,1.44,11.568,11.568,0,0,1-.568,2.463,35.174,35.174,0,0,1-4.813,10.155c-.834,1.175-4.509,5.722-5.873,5.722-.8,0-2.615-1.44-2.615-2.236,0-.379.379-.644.682-.872a26.593,26.593,0,0,0,6.291-7.5c.53-.947,2.273-4.585,2.273-5.532,0-.682-.682-.606-1.667-.606Zm16.483.379a.861.861,0,0,0,.606-.228,40.932,40.932,0,0,0,5.494-5.684c.152-.151.341-.417.568-.417a20.166,20.166,0,0,1,3.183,2.122c.189.151.568.492.568.758a.5.5,0,0,1-.493.492c-.189,0-.341-.038-.531-.038a.771.771,0,0,0-.568.228,67.16,67.16,0,0,1-6.291,5.8,1.077,1.077,0,0,0-.455.8,1.2,1.2,0,0,0,.227.606,34.5,34.5,0,0,0,8.678,8.563c.3.189.72.455.72.834,0,.568-1.667,2.577-2.615,2.577-.72,0-2.994-2.009-3.638-2.577a36.331,36.331,0,0,1-8.3-11.292c-.076-.076-.114-.152-.227-.152-.152,0-.227.114-.227.266V2189.2c0,1.023.076,2.046.076,3.031,0,4.055-3.562,4.282-6.745,4.282-.872,0-1.592,0-1.933-.8a9.34,9.34,0,0,1-.417-2.5c0-.606.19-.947.834-.947.455,0,1.326.114,2.16.114,2.274,0,2.2-.758,2.2-3.07v-21.789c0-1.326-.038-2.691-.152-3.826,0-.114-.038-.342-.038-.493,0-.418.265-.531.644-.531.644,0,2.88.19,3.6.266.3.038.909.075.909.493,0,.265-.265.379-.606.606-.455.34-.531,1.022-.531,2.311v2.122a3.446,3.446,0,0,0,.227,1.364,51.454,51.454,0,0,0,2.387,5.3C555.922,2175.373,556.11,2175.6,556.414,2175.6Z" transform="translate(-493.965 -2162.185)" fill="#7f6760"/>
          <path id="パス_9541" data-name="パス 9541" d="M601.987,2186.423h8.336c1.478,0,2.994-.114,4.472-.114.909,0,.909.379.909,1.781s0,1.781-.909,1.781c-1.478,0-2.994-.076-4.472-.076h-8.375c-.72,0-1.023.3-1.023,1.023v.72c0,1.288.077,2.615.077,3.9,0,1.213-.455,1.25-2.009,1.25-1.591,0-2.045-.038-2.045-1.212,0-1.326.076-2.653.076-3.941v-.72c0-.72-.3-1.023-1.023-1.023h-8.375c-1.478,0-2.956.076-4.472.076-.909,0-.872-.379-.872-1.781,0-1.44,0-1.781.872-1.781,1.516,0,2.994.114,4.472.114H596c.682,0,.985-.3,1.023-1.023-.038-.341-.114-1.137-.114-1.25,0-.379.265-.531.644-.531.455,0,3.107.265,3.675.3.3.037.644.114.644.454,0,.3-.265.417-.493.569a.923.923,0,0,0-.417.758C601.04,2186.271,601.456,2186.423,601.987,2186.423Zm-10.535-7.768c0,.8-.076.909-.568,1.137-1.63.8-3.107,1.44-4.964,2.236-.606.265-.8.3-.947.757-.076.228-.227.418-.455.418-.3,0-.417-.3-.606-.72-.341-.682-.605-1.4-.909-2.122a1.44,1.44,0,0,1-.189-.568c0-.3.227-.3.795-.455a48.546,48.546,0,0,0,6.442-2.577,1.5,1.5,0,0,1,.531-.189C591.3,2176.571,591.452,2178.163,591.452,2178.656Zm.189,5.456c-.114.227-.265.418-.53.418-.341,0-.493-.418-.568-.683a24.545,24.545,0,0,1-.72-2.728c0-.379.265-.417,1.971-.455.909,0,1.554.076,2.236-.682.189-.228.417-.455.606-.682a1.181,1.181,0,0,0,.265-.682.915.915,0,0,0-.379-.72c-1.1-.948-2.236-1.781-3.411-2.615-.227-.152-.682-.417-.682-.758,0-.417.758-1.364,1.023-1.705.417-.493.644-.531.91-.455a1.713,1.713,0,0,0,.606.114.745.745,0,0,0,.644-.341c.417-.644.8-1.289,1.175-1.933a.612.612,0,0,0,.114-.341c0-.417-.3-.531-.644-.569h-5.987c-1.516,0-2.994.076-4.51.076-.909,0-.872-.379-.872-1.706,0-1.364-.037-1.743.91-1.743,1.477,0,2.955.076,4.471.076h7.693c.682,0,1.023-.265,1.061-.985-.038-.568-.076-1.137-.152-1.667a.944.944,0,0,1-.038-.3c0-.416.417-.454.72-.454.682,0,2.652.152,3.41.227.417.038.872.075.872.454,0,.3-.264.418-.492.531-.418.227-.38.605-.38,1.212,0,.72.342.985,1.024.985h7.805c1.478,0,2.994-.076,4.472-.076.909,0,.909.417.909,1.743,0,1.364,0,1.706-.909,1.706-1.478,0-2.994-.076-4.472-.076H598.5c-.076,0-.152.038-.152.114a.082.082,0,0,0,.076.076c.265.152.872.455.872.758s-.379.3-.568.3c-.265.038-.3.038-.493.3-.72,1.023-1.554,2.312-2.349,3.3a.7.7,0,0,0-.19.455c0,.189.152.341.265.492a4.04,4.04,0,0,1,.455.379,1.179,1.179,0,0,0,.681.265.914.914,0,0,0,.72-.379c.8-1.1,1.517-2.122,2.237-3.3.113-.152.227-.341.455-.341.3,0,3.258,1.629,3.258,2.046s-.455.455-.72.455c-.417,0-.379.038-.605.265a62.866,62.866,0,0,1-4.169,5.078.734.734,0,0,0-.113.3.369.369,0,0,0,.417.379c1.061-.114,2.159-.189,3.221-.265.3-.076.568-.228.568-.568,0-.266-.265-.531-.417-.758a3.428,3.428,0,0,1-.531-1.061c0-.569,1.782-1.326,2.236-1.326a1.006,1.006,0,0,1,.834.606c.758,1.061,1.44,2.046,2.084,3.146a17.582,17.582,0,0,1,1.629,3.107c0,.605-1.857,1.4-2.425,1.4-.531,0-.643-.493-.909-.985a1.154,1.154,0,0,0-1.1-.759H603.5c-3.827.418-7.616.759-11.443,1.024C591.831,2183.809,591.756,2183.923,591.642,2184.112Zm-3.865-7.995c-.341,0-1.1-.872-1.326-1.137-.531-.531-1.819-1.63-2.424-2.122-.227-.152-.645-.417-.645-.758,0-.3,1.44-2.047,2.046-2.047.493,0,2.046,1.44,2.5,1.857.341.3,1.895,1.63,1.895,2.046C589.823,2174.525,588.459,2176.117,587.777,2176.117Zm26.563-2.918a.9.9,0,0,1-.341-.076,1.171,1.171,0,0,0-.3-.075.93.93,0,0,0-.417.151c-1.023.493-4.926,2.387-5.874,2.387-.985,0-1.667-1.933-1.667-2.273,0-.493.531-.606,1.213-.834a27.548,27.548,0,0,0,5.267-2.426,1.33,1.33,0,0,1,.531-.227c.455,0,1.933,2.88,1.933,3.031A.318.318,0,0,1,614.34,2173.2Zm-2.16,5.268c.493.265,2.5,1.25,2.5,1.819,0,.455-1.137,2.312-1.743,2.312a1.483,1.483,0,0,1-.8-.417,55.763,55.763,0,0,0-5.305-2.956c-.379-.19-.872-.379-.872-.834,0-.265.72-2.16,1.364-2.16A33.823,33.823,0,0,1,612.18,2178.466Z" transform="translate(-501.567 -2162.171)" fill="#7f6760"/>
          <path id="パス_9542" data-name="パス 9542" d="M655.87,2180.157q0,.171.568.341a5.932,5.932,0,0,1,4.358,5.987c0,4.206-3.107,8.413-11.368,8.413a17.709,17.709,0,0,1-7.086-1.364c-.568-.265-.8-.493-.8-.872a1.721,1.721,0,0,1,.152-.682l.644-1.857c.189-.53.341-.8.644-.8a1.92,1.92,0,0,1,.72.3,11.539,11.539,0,0,0,5.873,1.478c4.472,0,6.707-2.312,6.707-4.7,0-2.615-2.2-3.94-7.086-3.94-.835,0-2.16.037-2.539.037-.985,0-1.138-.151-1.138-1.1V2179.7c0-.985.152-1.137,1.138-1.137.417,0,1.44.038,2.16.038,4.584,0,6.29-1.629,6.29-3.714,0-2.046-1.857-3.335-4.775-3.335a9.947,9.947,0,0,0-5.3,1.478,1.545,1.545,0,0,1-.758.341c-.265,0-.455-.227-.682-.758l-.834-1.743a2.007,2.007,0,0,1-.227-.758c0-.341.227-.53.758-.8a16.359,16.359,0,0,1,7.5-1.781c6.215,0,8.754,3.145,8.754,6.556a6.151,6.151,0,0,1-3.183,5.646C656.06,2179.892,655.87,2180.043,655.87,2180.157Z" transform="translate(-510.925 -2162.953)" fill="#7f6760"/>
          <path id="パス_9543" data-name="パス 9543" d="M687.7,2180.4c0,.152.19.3.568.493,2.8,1.4,5.04,3.335,5.04,6.707,0,4.32-3.524,7.389-11.027,7.389-5.987,0-10.269-2.577-10.269-7.048,0-2.879,1.705-5.229,4.85-6.82.38-.19.569-.341.569-.493s-.19-.3-.531-.531c-2.16-1.288-3.752-3.107-3.752-5.911,0-3.638,3.373-6.783,9.815-6.783,5.873,0,9.283,2.8,9.283,6.442,0,2.5-1.478,4.547-4.017,6.025C687.889,2180.06,687.7,2180.249,687.7,2180.4Zm-5.645,2.083a2.556,2.556,0,0,0-1.061.266c-2.88,1.213-4.585,2.728-4.585,4.888,0,2.387,2.614,3.676,6.063,3.676,3.789,0,6.365-1.364,6.365-3.827,0-2.311-2.349-3.485-5.76-4.775A2.983,2.983,0,0,0,682.054,2182.484Zm.757-11.292c-2.955,0-5.191,1.175-5.191,3.107,0,1.971,1.933,3.032,4.547,4.093a3.131,3.131,0,0,0,1.024.265,2.682,2.682,0,0,0,1.06-.3c2.312-1.1,3.6-2.425,3.6-4.131C687.851,2172.329,685.691,2171.193,682.811,2171.193Z" transform="translate(-515.735 -2162.931)" fill="#7f6760"/>
          <path id="パス_9544" data-name="パス 9544" d="M718.015,2175.124c0,5.229-2.917,8.222-6.972,8.222-3.714,0-6.632-2.765-6.632-7.616,0-4.927,2.653-8.147,7.048-8.147C715.135,2167.583,718.015,2170.274,718.015,2175.124Zm-9.776.682c0,2.653,1.213,4.055,2.842,4.055,1.895,0,3.144-1.63,3.144-4.51,0-2.615-1.174-4.093-2.879-4.093C709.338,2171.259,708.239,2173.116,708.239,2175.806Zm4.358,18.833c-.568,0-.834-.076-.834-.341a1.744,1.744,0,0,1,.227-.682c.644-1.213,1.288-2.5,1.895-3.676l8.639-17.431c.568-1.137,1.175-2.426,1.743-3.676.379-.872.606-1.023,1.591-1.023h2.008c.568,0,.834.076.834.341a1.625,1.625,0,0,1-.227.644c-.682,1.326-1.364,2.653-1.933,3.827l-8.6,17.355c-.569,1.212-1.175,2.425-1.743,3.638-.417.871-.606,1.023-1.592,1.023Zm23.417-8c0,5.229-2.917,8.223-6.972,8.223-3.714,0-6.632-2.766-6.632-7.617,0-4.926,2.653-8.146,7.048-8.146C733.135,2179.1,736.014,2181.793,736.014,2186.643Zm-9.776.682c0,2.653,1.213,4.055,2.842,4.055,1.895,0,3.145-1.63,3.145-4.51,0-2.614-1.175-4.092-2.88-4.092C727.337,2182.779,726.238,2184.635,726.238,2187.325Z" transform="translate(-520.851 -2162.96)" fill="#7f6760"/>
        </g>
      </g>
    </g>
  </g>
</svg>
