<svg xmlns="http://www.w3.org/2000/svg" width="46.62" height="563.514" viewBox="0 0 46.62 563.514">
  <g id="グループ_2411" data-name="グループ 2411" transform="translate(0 -864.013)">
    <path id="パス_6991" data-name="パス 6991" d="M44.82,869.833H7.08v22.08H1.44v-27.9H44.82Z" fill="#c9a1ad"/>
    <path id="パス_6992" data-name="パス 6992" d="M44.82,940.332H39.24v-22.38H26.04v19.98H20.46v-19.98H7.08v23.22H1.44v-29.04H44.82Z" fill="#c9a1ad"/>
    <path id="パス_6993" data-name="パス 6993" d="M44.82,999.913H0v-.18l32.341-31.86-30.9.12v-5.88h44.7v.3l-32.7,31.8,31.38-.12Z" fill="#c9a1ad"/>
    <path id="パス_6994" data-name="パス 6994" d="M39.12,1040.653a17.609,17.609,0,0,0,.78-4.98,8.986,8.986,0,0,0-1.59-5.61,5.4,5.4,0,0,0-8.759.36,31.393,31.393,0,0,0-3.391,6.93,31.024,31.024,0,0,1-2.609,5.67,11.593,11.593,0,0,1-3.9,3.84,11.917,11.917,0,0,1-6.33,1.53,11.757,11.757,0,0,1-6.3-1.74,12.033,12.033,0,0,1-4.44-4.95,16.513,16.513,0,0,1-1.62-7.53,23.473,23.473,0,0,1,1.29-7.74,26.3,26.3,0,0,1,3.27-6.54l4.621,2.58a20.987,20.987,0,0,0-2.851,5.34,16.66,16.66,0,0,0-1.17,5.82,10.464,10.464,0,0,0,1.8,6.09,6.061,6.061,0,0,0,5.34,2.61,5.812,5.812,0,0,0,4.769-2.19,23.72,23.72,0,0,0,3.33-6.15,49.627,49.627,0,0,1,2.7-6.09,12.864,12.864,0,0,1,3.63-4.17,9.343,9.343,0,0,1,5.79-1.74,10.472,10.472,0,0,1,8.25,3.57,14.2,14.2,0,0,1,3.33,9.27,25.513,25.513,0,0,1-3.48,13.02l-4.5-2.22a25.988,25.988,0,0,0,2.04-4.98" fill="#c9a1ad"/>
    <path id="パス_6995" data-name="パス 6995" d="M44.82,1124.411H39.24v-19.92H25.44v17.46H19.86v-17.46H1.44v-5.82H44.82Z" fill="#c9a1ad"/>
    <path id="パス_6996" data-name="パス 6996" d="M44.82,1173.01H39.24v-22.38H26.04v19.98H20.46v-19.98H7.08v23.22H1.44v-29.04H44.82Z" fill="#c9a1ad"/>
    <path id="パス_6997" data-name="パス 6997" d="M12.841,1217.531v-16.68l-11.4-4.62v-5.76l45.179,18.96v.36l-45.179,18.96v-6.72Zm5.04-1.98,15.84-6.18-15.84-6.42Z" fill="#c9a1ad"/>
    <path id="パス_6998" data-name="パス 6998" d="M44.82,1273.269H39.24v-11.64H1.44v-5.82h37.8v-11.34h5.58Z" fill="#c9a1ad"/>
    <path id="パス_6999" data-name="パス 6999" d="M11.61,1300.029a10.123,10.123,0,0,0-3.66,3.75,10.419,10.419,0,0,0-1.35,5.25,11.178,11.178,0,0,0,1.321,5.43,9.713,9.713,0,0,0,3.659,3.81,10.086,10.086,0,0,0,5.22,1.38H44.82v5.7H16.62a15.5,15.5,0,0,1-8.19-2.16,14.736,14.736,0,0,1-5.52-5.88,18.427,18.427,0,0,1,0-16.5,14.524,14.524,0,0,1,5.52-5.85,15.672,15.672,0,0,1,8.19-2.13h28.2v5.82H16.8a9.924,9.924,0,0,0-5.19,1.38" fill="#c9a1ad"/>
    <path id="パス_7000" data-name="パス 7000" d="M1.44,1371.968l16.02-10.2a12.658,12.658,0,0,1-.06-1.44v-6.42H1.44v-5.82H44.82v11.58a19.186,19.186,0,0,1-1.559,7.92,12.448,12.448,0,0,1-4.59,5.46,13.036,13.036,0,0,1-7.29,1.98,15.6,15.6,0,0,1-7.381-1.77,11.524,11.524,0,0,1-5.1-5.43l-17.46,10.92Zm24.06-5.01a8.51,8.51,0,0,0,5.641,2.07,8.859,8.859,0,0,0,3.78-.87,7.426,7.426,0,0,0,3.09-2.76,8.588,8.588,0,0,0,1.229-4.77v-6.72H23.04v6.3q0,4.68,2.46,6.75" fill="#c9a1ad"/>
    <path id="パス_7001" data-name="パス 7001" d="M44.82,1426.687H39.24v-22.38H26.04v19.98H20.46v-19.98H7.08v23.22H1.44v-29.04H44.82Z" fill="#c9a1ad"/>
  </g>
</svg>
