<svg xmlns="http://www.w3.org/2000/svg" width="275.1" height="29.376" viewBox="0 0 275.1 29.376">
  <path id="パス_20434" data-name="パス 20434" d="M6.492,3.372a14.79,14.79,0,0,1-.408,1.764H5.076a9.929,9.929,0,0,1-1.308-.072v.984a10.32,10.32,0,0,1,1.308-.072h.756A20.511,20.511,0,0,1,4.44,9.312l1.02.144c.192-.42.216-.468.456-1.044H9.624a14.152,14.152,0,0,1-.348,2.5c-.168.672-.324.828-.852.828a10.114,10.114,0,0,1-1.716-.2,3.335,3.335,0,0,1,.264.984,13.289,13.289,0,0,0,1.512.1c1.008,0,1.368-.264,1.632-1.248a23.876,23.876,0,0,0,.54-3.84A9.05,9.05,0,0,1,9.5,7.572H6.24c.18-.48.312-.888.54-1.6h3.228a10.734,10.734,0,0,1,1.356.072V5.064a10.218,10.218,0,0,1-1.356.072H7.02c.228-.828.312-1.188.444-1.764H9.612a10.162,10.162,0,0,1,1.272.06v-.96A9.293,9.293,0,0,1,9.6,2.544H5.508a9.127,9.127,0,0,1-1.3-.072v.96A8.635,8.635,0,0,1,5.5,3.372ZM1.128,2.688a10.258,10.258,0,0,1,2.16,1.644l.588-.768A14.733,14.733,0,0,0,1.728,2.016ZM.54,5.616a10.121,10.121,0,0,1,2.292,1.62l.552-.8A14.988,14.988,0,0,0,1.092,4.9Zm2.328,2.7a14.264,14.264,0,0,1-1.7,3.132,3.153,3.153,0,0,1-.444.528l.816.744c.144-.24.252-.408.336-.528A20.344,20.344,0,0,0,3.612,8.88Zm14,2.292a3.124,3.124,0,0,1,.3-.384c.2-.228.36-.408.492-.54.336-.372.336-.372.54-.624a1.984,1.984,0,0,0,.228-.3l.024.012a4.893,4.893,0,0,0-.048.732,16.909,16.909,0,0,1-.084,3.06H19.44c-.036-.372-.048-1.284-.048-3.36,0-.276,0-.6.012-1.212,1.74-1.788,3.2-2.808,4-2.808a.551.551,0,0,1,.612.612,8.672,8.672,0,0,1-.276,1.668,11.86,11.86,0,0,0-.48,2.892,1.558,1.558,0,0,0,.588,1.4,1.575,1.575,0,0,0,.912.264,2.157,2.157,0,0,0,1.668-.864,5.817,5.817,0,0,0,.768-1.188,4.721,4.721,0,0,1-.636-.984,5.217,5.217,0,0,1-.684,1.368,1.356,1.356,0,0,1-.948.648c-.432,0-.66-.276-.66-.768a8.536,8.536,0,0,1,.252-1.644,12.852,12.852,0,0,0,.54-2.952A1.38,1.38,0,0,0,23.58,4.188a4.628,4.628,0,0,0-2.664,1.26A8.19,8.19,0,0,0,19.4,6.816L19.38,6.8a7.086,7.086,0,0,0,.036-.732c0-.036.012-.132.012-.276,0-.06.012-.144.012-.264a3.633,3.633,0,0,1,.624-.744l-.348-.42a.728.728,0,0,1-.216.06,15.367,15.367,0,0,1,.144-2.076l-1.1-.024c.012.228.024.36.024.516,0,.264-.012.816-.036,1.668-.84.06-1.356.084-1.536.084a2.616,2.616,0,0,1-.408-.024l.048.984A15.131,15.131,0,0,1,18.5,5.388c-.024.684-.024.684-.036,1.032-.012.564-.024.936-.024,1.116-.252.264-.924.948-1.38,1.392a4.583,4.583,0,0,1-.744.636ZM32.2,6.372a22.72,22.72,0,0,1,2.328-.42,18.716,18.716,0,0,1-1.272,3.7A12.243,12.243,0,0,1,32,11.844l.984.564.78-1.512a22.579,22.579,0,0,0,1.764-5.028,7.3,7.3,0,0,1,.816-.048c1.068,0,1.4.384,1.4,1.608a9.161,9.161,0,0,1-.492,3.288.722.722,0,0,1-.66.528,4.644,4.644,0,0,1-1.764-.528,3.528,3.528,0,0,1,.06.66c0,.144-.012.216-.024.42a4.785,4.785,0,0,0,1.812.432,1.327,1.327,0,0,0,1.224-.552,8.044,8.044,0,0,0,.84-4.2,2.6,2.6,0,0,0-.576-1.992,2.315,2.315,0,0,0-1.728-.528c-.264,0-.444,0-.732.024.06-.276.192-1.044.252-1.356a8.48,8.48,0,0,1,.216-1.116l-1.128-.132v.168a16.826,16.826,0,0,1-.336,2.52,24.7,24.7,0,0,1-2.64.288Zm7-1.68A10,10,0,0,1,41.6,9.132l.936-.516a10.963,10.963,0,0,0-2.5-4.368Zm2.052-2.736a8.794,8.794,0,0,1,1.236,1.86l.7-.4A8.954,8.954,0,0,0,41.916,1.6ZM39.852,2.6A8.376,8.376,0,0,1,41.1,4.5l.708-.4a9.391,9.391,0,0,0-1.26-1.86ZM56.508,5.64h.528c.4,0,.8.024,1.14.048v-.96a7.316,7.316,0,0,1-1.152.072h-.516V3.516a9.983,9.983,0,0,1,.072-1.44H55.5A11.127,11.127,0,0,1,55.584,3.5V4.8h-3.66a9.293,9.293,0,0,1-1.284-.072v.984a10.32,10.32,0,0,1,1.308-.072h3.636v5.784c0,.252-.108.3-.636.3a9.285,9.285,0,0,1-1.608-.132,3.273,3.273,0,0,1,.276.96,11.808,11.808,0,0,0,1.44.072c1.176,0,1.452-.2,1.452-1.092Zm-6.492-.828c.4-.78.744-1.536.936-2.04a5.636,5.636,0,0,1,.24-.552l-1.008-.3a6.379,6.379,0,0,1-.528,1.524A11.449,11.449,0,0,1,47.3,7.008a2.706,2.706,0,0,1,.564.852,8.82,8.82,0,0,0,1.26-1.7c-.036.516-.036.84-.036,1.416v3.876A12.157,12.157,0,0,1,49.02,12.9h1.056a13.076,13.076,0,0,1-.06-1.428ZM51.36,7.128a12.261,12.261,0,0,1,1.92,2.82l.8-.588A14.858,14.858,0,0,0,52.1,6.624ZM64.2,5.016a5.607,5.607,0,0,1,.768-.024,27.464,27.464,0,0,0,3.24-.2c.348.756.348.756.612,1.248a25.2,25.2,0,0,1-3.672.276,7.227,7.227,0,0,1-1.032-.048l.024.972a5.573,5.573,0,0,1,.876-.048,28.2,28.2,0,0,0,4.212-.348,10.223,10.223,0,0,0,1.176,1.7,7.3,7.3,0,0,0-2.316-.324,5.307,5.307,0,0,0-2.736.576,1.82,1.82,0,0,0-.984,1.548,1.762,1.762,0,0,0,.912,1.536,4.939,4.939,0,0,0,2.6.528,10.921,10.921,0,0,0,3.072-.432c.54-.156.54-.156.744-.2l-.192-1.08a8.456,8.456,0,0,1-3.6.792c-1.584,0-2.46-.408-2.46-1.152,0-.78,1.056-1.272,2.748-1.272a5.835,5.835,0,0,1,2.868.54l.8-.576a13.192,13.192,0,0,1-1.7-2.328c.516-.108.732-.144.912-.192,1.308-.324,1.308-.324,1.572-.372L72.54,5.16a13.394,13.394,0,0,1-2.76.732c-.18-.312-.42-.792-.624-1.236.612-.1,2.076-.408,2.988-.648l-.084-.936a15.762,15.762,0,0,1-3.216.78,9.02,9.02,0,0,1-.588-1.62L67.188,2.4c.1.168.432.936.684,1.572a21.969,21.969,0,0,1-2.736.156c-.444,0-.672-.012-.972-.036Zm16.392,5.412c0-.2-.012-.252-.012-.516-.012-.324-.024-.9-.024-1.14A22.235,22.235,0,0,1,80.832,5.1a14.589,14.589,0,0,1,.6-2.388l-1.14-.156a7.362,7.362,0,0,1-.168,1.02A20.6,20.6,0,0,0,79.6,8.328a18.123,18.123,0,0,0,.312,3.42c.036.24.048.312.072.5l1.044-.072a1.792,1.792,0,0,1-.012-.228A9.745,9.745,0,0,1,82.02,8.568l-.72-.336a10.413,10.413,0,0,0-.7,2.2ZM82.86,4.944c.1.012.12.012.192.024a1.482,1.482,0,0,0,.216.024,14.435,14.435,0,0,0,1.608.084,20.733,20.733,0,0,0,2.556-.156q.774-.108.828-.108l-.06-1.02a13.29,13.29,0,0,1-3.288.324,8.291,8.291,0,0,1-2.028-.18Zm.864,2.244a3.506,3.506,0,0,0-1.068,2.268,1.935,1.935,0,0,0,.36,1.152c.5.648,1.4.948,2.82.948a13.732,13.732,0,0,0,2.472-.228c.252-.048.276-.048.432-.072l-.108-1.092a8.318,8.318,0,0,1-2.8.42c-1.452,0-2.2-.408-2.2-1.224a2.722,2.722,0,0,1,.9-1.764Zm16.932-4.944A19.141,19.141,0,0,1,97.1,5.556a6.841,6.841,0,0,0-1.032.828,1.237,1.237,0,0,0-.36.84c0,.456.2.732.9,1.284a38.657,38.657,0,0,1,3.06,2.532,10.148,10.148,0,0,1,1.548,1.644l.9-.888c-.144-.12-.168-.144-.348-.312a35.936,35.936,0,0,0-3.828-3.228c-1-.768-1.068-.84-1.068-1.044,0-.144.1-.252.5-.564a33.645,33.645,0,0,0,2.8-2.292A19.154,19.154,0,0,1,101.652,3Zm14.76,0a19.141,19.141,0,0,1-3.552,3.312,6.841,6.841,0,0,0-1.032.828,1.237,1.237,0,0,0-.36.84c0,.456.2.732.9,1.284a38.656,38.656,0,0,1,3.06,2.532,10.148,10.148,0,0,1,1.548,1.644l.9-.888c-.144-.12-.168-.144-.348-.312A35.936,35.936,0,0,0,112.7,8.256c-1-.768-1.068-.84-1.068-1.044,0-.144.1-.252.5-.564a33.645,33.645,0,0,0,2.8-2.292A19.154,19.154,0,0,1,116.412,3Zm18.4,5.964a7.459,7.459,0,0,1,1.116.072V7.332a7.766,7.766,0,0,1-1.176.072H127.2V6.54h5.16a7.971,7.971,0,0,1,1.14.06V5.688a8.089,8.089,0,0,1-1.14.06H127.2V4.92h5.16a10.738,10.738,0,0,1,1.14.06v-.9a8.47,8.47,0,0,1-1.14.06H127.2V3.324h5.472a9.548,9.548,0,0,1,1.3.06V2.448a6.972,6.972,0,0,1-1.308.072h-5.2a8.667,8.667,0,0,1-1.26-.06,9.711,9.711,0,0,1,.048,1.188V7.4h-.84a7.75,7.75,0,0,1-1.212-.072V8.28a8.707,8.707,0,0,1,1.2-.072h.852v3.348a11.629,11.629,0,0,1-1.836.312l.252.984a5.237,5.237,0,0,1,.516-.132,40.622,40.622,0,0,0,4.6-1.284l-.012-.852a23.556,23.556,0,0,1-2.568.756V8.208h1.332a7.02,7.02,0,0,0,1.824,2.364,10.577,10.577,0,0,0,4.284,2.148,4.48,4.48,0,0,1,.48-.96,11.461,11.461,0,0,1-3.516-1.392,9.276,9.276,0,0,0,1.656-1.3,1.568,1.568,0,0,1,.192-.168,1.847,1.847,0,0,1,.156-.144l-.852-.492A7.888,7.888,0,0,1,130.944,9.9a4.977,4.977,0,0,1-1.464-1.692Zm12.7-4v1.44H145.02a8.209,8.209,0,0,1-1.236-.072v.936a9.271,9.271,0,0,1,1.236-.072h3.228V7.752H145.02a7.679,7.679,0,0,1-1.236-.072v.96a9.469,9.469,0,0,1,1.224-.072h3.24v3.1c0,.264-.072.312-.54.312a8.631,8.631,0,0,1-1.332-.132,2.683,2.683,0,0,1,.2.924c.78.036.864.036,1.056.036,1.212,0,1.512-.2,1.512-1.056V8.568h.3a7.594,7.594,0,0,1,1.164.072V7.68a6.973,6.973,0,0,1-1.164.072h-.3V6.444h.324a7.594,7.594,0,0,1,1.164.072V5.58a8.1,8.1,0,0,1-1.236.072h-1.98V4.212h1.6a9.974,9.974,0,0,1,1.152.06V3.348A7.593,7.593,0,0,1,149,3.42H147.42V3.048a5.446,5.446,0,0,1,.072-.948h-1.056a5.749,5.749,0,0,1,.072.948V3.42H145.3a7.593,7.593,0,0,1-1.164-.072v.924a11,11,0,0,1,1.188-.06Zm-6.2,6.528a10.126,10.126,0,0,1-.072,1.32h.912v-1h1.44v.612h.888c-.024-.264-.036-.576-.036-1.176V3.84a8.683,8.683,0,0,1,.036-1.176A10.353,10.353,0,0,1,142.4,2.7h-1.056a10.2,10.2,0,0,1-1.092-.036,10.3,10.3,0,0,1,.048,1.164Zm.852-7.236h1.428V6.348h-1.428Zm0,3.624h1.428v3.12h-1.428Zm5.724,3.744A11.991,11.991,0,0,0,145.2,8.94l-.708.5a11.063,11.063,0,0,1,1.632,1.992Zm9.936-4.692H159c.48,0,.852.012,1.188.036-.024-.312-.036-.6-.036-1.092v-1.6c0-.468.012-.78.036-1.14a10.529,10.529,0,0,1-1.224.048h-1.836a11,11,0,0,1-1.248-.048c.036.384.048.732.048,1.332v7.764a9.5,9.5,0,0,1-.072,1.392h1.032a9.09,9.09,0,0,1-.072-1.38Zm0-3.048h2.508v.84h-2.508Zm0,1.524h2.508v.852h-2.508Zm8.892-.948a11.481,11.481,0,0,1,.06-1.32,11.107,11.107,0,0,1-1.26.048h-2.076a10.529,10.529,0,0,1-1.224-.048c.024.36.036.72.036,1.14v1.6c0,.456-.012.756-.036,1.092.312-.024.72-.036,1.188-.036h2.436v5.364c0,.276-.1.336-.576.336-.252,0-.744-.048-1.32-.12a3.348,3.348,0,0,1,.252.924c.24.012.912.036,1.164.036,1.08,0,1.356-.228,1.356-1.092Zm-3.636-.576h2.76v.84h-2.76Zm0,1.524h2.76v.852h-2.76Zm1.008,3.516c0-.456.012-.78.036-1.1a10.3,10.3,0,0,1-1.164.048h-2.328a10.532,10.532,0,0,1-1.176-.048c.024.348.036.684.036,1.1V10.92a7.845,7.845,0,0,1-.06,1.152h.9V11.28h2.592c.5,0,.828.012,1.2.036-.024-.312-.036-.624-.036-1.08Zm-3.756-.336h2.928V8.8h-2.928Zm0,1.68h2.928V10.56h-2.928Zm16.8,1.692a2.354,2.354,0,0,1,.516.972,7.934,7.934,0,0,0,2-.624A4.428,4.428,0,0,0,181.272,7.4c0-2.532-1.812-4.212-4.536-4.212a5.127,5.127,0,0,0-3.948,1.62,5,5,0,0,0-1.284,3.36c0,1.752.888,3.036,2.1,3.036.9,0,1.62-.72,2.3-2.292a17.442,17.442,0,0,0,1.2-4.8,3.167,3.167,0,0,1,1.344.324,3.1,3.1,0,0,1,1.776,2.916,3.524,3.524,0,0,1-1.9,3.2A6.562,6.562,0,0,1,176.124,11.208Zm-.048-7.068a16.385,16.385,0,0,1-1.068,4.32c-.492,1.128-.948,1.68-1.416,1.68-.624,0-1.1-.864-1.1-1.956A4.1,4.1,0,0,1,174.36,4.7,3.394,3.394,0,0,1,176.076,4.14Zm15.888,4.68a5.256,5.256,0,0,0,1.392,1.98,10.019,10.019,0,0,0,3.792,2.088,2.826,2.826,0,0,1,.54-.9,9.227,9.227,0,0,1-3.06-1.284,13.334,13.334,0,0,0,1.68-1.236l-.768-.48A6.87,6.87,0,0,1,194,10.224a4.3,4.3,0,0,1-1.164-1.4h3.192a12.72,12.72,0,0,1,1.3.06V7.956a11.15,11.15,0,0,1-1.284.06h-3.66V7.788a4.187,4.187,0,0,1,.06-.732h-1.02a3.429,3.429,0,0,1,.06.72v.24h-3.492a12.537,12.537,0,0,1-1.32-.06V8.88a12.72,12.72,0,0,1,1.3-.06h2.664a12.037,12.037,0,0,1-4.116,1.8,3.038,3.038,0,0,1,.492.792,14.713,14.713,0,0,0,2.676-1.14v1.536a9.057,9.057,0,0,1-1.488.156h-.144l.2.936a41.537,41.537,0,0,0,4.92-1.044v-.828a25.469,25.469,0,0,1-2.616.636V9.744a10.257,10.257,0,0,0,1.2-.924ZM189.288,6.3a5.786,5.786,0,0,1-.072,1.044h1.008a5.28,5.28,0,0,1-.06-1.044V3.024a5.167,5.167,0,0,1,.06-1h-1.008a5.324,5.324,0,0,1,.072.984V4.956a10.518,10.518,0,0,1-2.748.924l.348.9c.228-.1.3-.132.6-.24a16.811,16.811,0,0,0,1.8-.768Zm3.984-2.04V5.892h-1.236a8.86,8.86,0,0,1-1.128-.048v.888a9.592,9.592,0,0,1,1.164-.06h3.612a6.834,6.834,0,0,1,1.14.06v-.9a7.165,7.165,0,0,1-1.164.06h-1.512V4.26h1.944a7.786,7.786,0,0,1,1.188.06V3.408a7.787,7.787,0,0,1-1.188.06h-1.944v-.48a3.978,3.978,0,0,1,.072-.948H193.2a4.09,4.09,0,0,1,.072.96v.468h-1.416a7.787,7.787,0,0,1-1.188-.06V4.32a9.6,9.6,0,0,1,1.188-.06ZM186.8,2.988a6.925,6.925,0,0,1,1.4,1.668l.66-.552a8.953,8.953,0,0,0-1.4-1.62Zm21.324,6h3.348v2.544c0,.288-.1.348-.648.348a13.908,13.908,0,0,1-1.632-.132,3.56,3.56,0,0,1,.216.912c.468.036,1.02.06,1.4.06,1.272,0,1.56-.192,1.56-1.02v-8a11.067,11.067,0,0,1,.048-1.224,12.234,12.234,0,0,1-1.308.048h-6.528a12.744,12.744,0,0,1-1.332-.048c.036.432.048.792.048,1.428,0,5.58-.2,6.864-1.308,8.352a3.9,3.9,0,0,1,.828.636,7.713,7.713,0,0,0,1.26-3.9h3.156v2.2a9.385,9.385,0,0,1-.06,1.332h1.008a9.267,9.267,0,0,1-.06-1.344Zm0-3.66V3.384h3.348V5.328Zm-.888,0H204.2l.012-.564V3.384h3.024Zm.888.84h3.348V8.136h-3.348Zm-.888,0V8.136h-3.1c.024-.54.024-.54.036-1.188,0-.168,0-.444.012-.78Zm11.04-1.116a33.707,33.707,0,0,1,3.948-.384,26,26,0,0,0,2.64-.264c-2.028.912-3.216,2.472-3.216,4.224a3,3,0,0,0,1.428,2.592,6.587,6.587,0,0,0,2.652.888,2.451,2.451,0,0,1,.384.072l.168-1.164a5.683,5.683,0,0,1-1.8-.312,2.229,2.229,0,0,1-1.812-2.172,3.823,3.823,0,0,1,1.908-3.06,5.782,5.782,0,0,1,3.06-1.02h.144L227.7,3.384a8.714,8.714,0,0,1-1.4.12c-1.98.084-5.268.276-6.948.4-.372.024-.528.036-.7.036l-.432-.012Zm7.368,1.128a8.375,8.375,0,0,1,1.248,1.9l.708-.4a9.392,9.392,0,0,0-1.26-1.86Zm1.392-.648a8.8,8.8,0,0,1,1.236,1.86l.7-.4a8.955,8.955,0,0,0-1.26-1.824ZM234.228,8a2.16,2.16,0,0,1,.4.072,13.36,13.36,0,0,0,1.764.3,8.954,8.954,0,0,0-.06,1.1,2.641,2.641,0,0,0,.8,2.124,3.536,3.536,0,0,0,2.352.732c2.136,0,3.612-1.176,3.612-2.88a3.1,3.1,0,0,0-.564-1.752,5.569,5.569,0,0,0-.564-.684,2.841,2.841,0,0,1-1.044.252,2.752,2.752,0,0,1,1.14,2.076c0,1.236-1.008,2.028-2.592,2.028a2.489,2.489,0,0,1-1.644-.492,1.743,1.743,0,0,1-.516-1.392c0-.192.024-.576.048-.816a2.177,2.177,0,0,0,.012-.24c.54.036.684.036.936.036a16.908,16.908,0,0,0,1.74-.1c.18-.024.216-.024.336-.036l.036-.972a9.991,9.991,0,0,1-2.232.216c-.192,0-.312,0-.744-.024.06-.54.084-.744.276-2.028.612.024.756.024.936.024.312,0,.792-.024,1.14-.048.648-.06.648-.06.876-.084l.036-1a9.6,9.6,0,0,1-2.376.228c-.084,0-.12,0-.468-.012.036-.264.06-.408.108-.7.1-.612.1-.612.12-.72a4.365,4.365,0,0,1,.18-.8l-1.14-.12v.168a20.024,20.024,0,0,1-.276,2.112,7.59,7.59,0,0,1-2.16-.456l-.108.948c.18.036.264.048.384.084a14.98,14.98,0,0,0,1.776.312c-.1.576-.216,1.5-.276,2.028a8.346,8.346,0,0,1-2.136-.468Zm20.736.948a3.51,3.51,0,0,1-2.7,3.156,3.622,3.622,0,0,1,.612.792,4.527,4.527,0,0,0,2.472-2.112,4.586,4.586,0,0,0,.492-1.836h.912V12c0,.612.24.732,1.428.732.876,0,1.272-.084,1.464-.3a3.793,3.793,0,0,0,.384-1.872,2.346,2.346,0,0,1-.84-.36,6.8,6.8,0,0,1-.12,1.428c-.06.216-.18.264-.756.264-.552,0-.672-.036-.672-.24v-2.7h.42A11.3,11.3,0,0,1,259.224,9a11.738,11.738,0,0,1-.048-1.236V3.612a10.93,10.93,0,0,1,.048-1.224,8.811,8.811,0,0,1-1.152.048h-3.288a8.556,8.556,0,0,1-1.164-.048c.024.408.036.624.036,1.224V7.764c0,.492-.012.936-.036,1.224.276-.024.672-.036,1.152-.036Zm-.444-5.724h3.78v1.14h-3.78Zm0,1.908h3.78V6.228h-3.78Zm0,1.86h3.78V8.184h-3.78Zm-3.012.888a12.5,12.5,0,0,0,1.428,1.32,3.488,3.488,0,0,1,.408-.852,9.15,9.15,0,0,1-1.68-1.4,11.938,11.938,0,0,0,1.26-2.064,2.879,2.879,0,0,1,.24-.456l-.408-.5a2.826,2.826,0,0,1-.576.036h-.66V2.88a5.165,5.165,0,0,1,.072-.948H250.56a7.987,7.987,0,0,1,.072.936V3.96h-.648a7.1,7.1,0,0,1-.912-.048v.936a8.8,8.8,0,0,1,.948-.048h2.028a9.128,9.128,0,0,1-1.488,2.244,9.75,9.75,0,0,1-1.908,1.692,3.737,3.737,0,0,1,.456.864,14.3,14.3,0,0,0,1.524-1.416V11.64c0,.5-.024.876-.06,1.272h1.008a7.791,7.791,0,0,1-.072-1.272Zm16.668-.7a6.925,6.925,0,0,1-3.72,2.16,3.049,3.049,0,0,1,.516.84,10.01,10.01,0,0,0,3.012-1.632,2.787,2.787,0,0,1,.036.54c0,1.728-.648,2.412-2.976,3.108a4.174,4.174,0,0,1,.6.816,5.541,5.541,0,0,0,2.448-1.4,3.755,3.755,0,0,0,.852-2.532,3.424,3.424,0,0,1,.048-.528l-1-.012a6.474,6.474,0,0,0,1.272-1.356h1.452a7.07,7.07,0,0,0,1.332,1.344h-.792a4.554,4.554,0,0,1,.06.936v2.208a8.387,8.387,0,0,1-.072,1.248h1.08a9.21,9.21,0,0,1-.072-1.248v-2.3a5.2,5.2,0,0,1,.036-.66,10.117,10.117,0,0,0,2.868,1.452,3.407,3.407,0,0,1,.48-.9,7.273,7.273,0,0,1-3.84-2.076h1.392a11.7,11.7,0,0,1,1.176.048,9.8,9.8,0,0,1-.048-1.152V3.576a10.457,10.457,0,0,1,.048-1.2,8.592,8.592,0,0,1-1.188.06h-6.288a8.486,8.486,0,0,1-1.188-.06,11.013,11.013,0,0,1,.048,1.2V6.084a10.206,10.206,0,0,1-.048,1.152,11.448,11.448,0,0,1,1.164-.048ZM266.64,3.2h2.9V4.452h-2.9Zm0,1.992h2.9V6.468h-2.9ZM270.4,3.2h3.036V4.452H270.4Zm0,1.992h3.036V6.468H270.4ZM4.1,21.816a15.1,15.1,0,0,1-2.58-.144l-.024.984a1.138,1.138,0,0,1,.252-.024,2.067,2.067,0,0,1,.24.012c.252.012,1.44.036,1.68.036.048,0,.18-.012.216-.012-.072.132-.072.132-.108.192a11.946,11.946,0,0,1-2.628,3.312l.792.792a4.294,4.294,0,0,1,.96-1.02,4.392,4.392,0,0,1,2.6-1.26c.54,0,.816.264.888.852a9.45,9.45,0,0,0-1.764.96A2.5,2.5,0,0,0,3.36,28.44a1.6,1.6,0,0,0,.816,1.44,4.969,4.969,0,0,0,2.46.468,20.23,20.23,0,0,0,2.988-.228,2.855,2.855,0,0,1,.492-.06l-.108-1.1a10.086,10.086,0,0,1-3.264.48c-1.692,0-2.376-.312-2.376-1.068a1.435,1.435,0,0,1,.708-1.128,7.363,7.363,0,0,1,1.44-.792v.372a15.1,15.1,0,0,1-.072,1.6l.984-.012a3.3,3.3,0,0,1-.024-.492V27.42c.012-.24.012-.492.012-.624,0-.264,0-.3-.012-.7a18.468,18.468,0,0,1,3.18-1.02l-.432-.984a3.372,3.372,0,0,1-.84.348c-.588.2-1.08.384-2.016.744a1.489,1.489,0,0,0-1.62-1.308,3.1,3.1,0,0,0-1.656.492,2.718,2.718,0,0,0-.408.3,1.643,1.643,0,0,0-.168.12.149.149,0,0,1-.024-.036l.024-.024c0-.012.048-.048.12-.1a3.379,3.379,0,0,0,.384-.444,9.023,9.023,0,0,0,.972-1.524c1.176-.036,2.712-.144,3.54-.252.7-.1.7-.1.924-.12l-.072-.96a15.87,15.87,0,0,1-3.24.42c-.672.036-.672.036-.756.048a7.837,7.837,0,0,0,.36-.8,2.588,2.588,0,0,1,.288-.612L4.836,20.22a5.216,5.216,0,0,1-.54,1.6ZM20.6,20.2a5.08,5.08,0,0,1-.72,1.7,9.139,9.139,0,0,1-3.036,3.348,2.2,2.2,0,0,1,.816.732,12.039,12.039,0,0,0,2.844-3.1l3.924-.06a10.587,10.587,0,0,1-2.052,3.912,10.061,10.061,0,0,1-4.2,2.952,2.417,2.417,0,0,1,.72.876,11.806,11.806,0,0,0,4.2-3.012A12.468,12.468,0,0,0,25.512,23a1.769,1.769,0,0,1,.264-.624l-.588-.576a1.7,1.7,0,0,1-.7.1c-.36.012-1.38.024-3.06.048h-.144a1.149,1.149,0,0,0-.3.036,10.842,10.842,0,0,0,.528-1.044,1.6,1.6,0,0,1,.264-.468Zm13.308.5a6.923,6.923,0,0,1,.06,1.14v2.928a8.34,8.34,0,0,1-.06,1.212H35.1a9.911,9.911,0,0,1-.048-1.212v-2.94A9.1,9.1,0,0,1,35.1,20.7Zm5.352.012a8.074,8.074,0,0,1,.048,1.188v1.284c0,1.356-.012,1.62-.048,2.136a3.616,3.616,0,0,1-1.74,3.192,6.413,6.413,0,0,1-2.568.972,2.691,2.691,0,0,1,.6,1,10.441,10.441,0,0,0,2.232-.864A4.583,4.583,0,0,0,40.08,26.9a13.488,13.488,0,0,0,.312-3.66V21.888a6.8,6.8,0,0,1,.06-1.176Zm17.988.348a2.681,2.681,0,0,1-1.056.084H49.812a9.512,9.512,0,0,1-1.5-.084v1.092a12.067,12.067,0,0,1,1.476-.06H56.46a5.957,5.957,0,0,1-1.284,1.7,5.353,5.353,0,0,1-1.86,1.128,3.032,3.032,0,0,1,.732.8,7.363,7.363,0,0,0,3.48-3.5,2.761,2.761,0,0,1,.3-.5Zm-5.364,2.172a2.643,2.643,0,0,1,.048.66c0,2.328-.444,3.492-1.7,4.512a5.687,5.687,0,0,1-2.16,1.068,2.906,2.906,0,0,1,.66.972,6.812,6.812,0,0,0,3.084-2.1A6.511,6.511,0,0,0,53,24.108a4.569,4.569,0,0,1,.048-.876Zm13.1,5.2c0-.2-.012-.252-.012-.516-.012-.324-.024-.9-.024-1.14a22.235,22.235,0,0,1,.276-3.672,14.589,14.589,0,0,1,.6-2.388l-1.14-.156a7.362,7.362,0,0,1-.168,1.02A20.6,20.6,0,0,0,64,26.328a18.123,18.123,0,0,0,.312,3.42c.036.24.048.312.072.5l1.044-.072a1.792,1.792,0,0,1-.012-.228,9.745,9.745,0,0,1,1.008-3.384l-.72-.336a10.414,10.414,0,0,0-.7,2.2Zm2.268-5.484c.1.012.12.012.192.024a1.481,1.481,0,0,0,.216.024,14.435,14.435,0,0,0,1.608.084,20.733,20.733,0,0,0,2.556-.156q.774-.108.828-.108l-.06-1.02a13.29,13.29,0,0,1-3.288.324,8.291,8.291,0,0,1-2.028-.18Zm.864,2.244a3.506,3.506,0,0,0-1.068,2.268,1.935,1.935,0,0,0,.36,1.152c.5.648,1.4.948,2.82.948a13.732,13.732,0,0,0,2.472-.228c.252-.048.276-.048.432-.072l-.108-1.092a8.318,8.318,0,0,1-2.8.42c-1.452,0-2.2-.408-2.2-1.224a2.722,2.722,0,0,1,.9-1.764Zm16.788.276h-2.2a9.022,9.022,0,0,1-1.236-.072v.972a9.271,9.271,0,0,1,1.236-.072h1.848a6.276,6.276,0,0,1-1.272,1.5,9.683,9.683,0,0,1-2.268,1.536,2.75,2.75,0,0,1,.612.816A9.585,9.585,0,0,0,83.244,29a7.545,7.545,0,0,0,1.716-2.04c-.036.48-.048.828-.048,1.3v1.488a8.915,8.915,0,0,1-.072,1.164h1.02a8.342,8.342,0,0,1-.072-1.152v-1.5c0-.456-.012-.864-.048-1.3A7.637,7.637,0,0,0,87.3,28.8a12.451,12.451,0,0,0,1.8,1.3,5.059,5.059,0,0,1,.624-.888,8.926,8.926,0,0,1-2.112-1.32,8.057,8.057,0,0,1-1.5-1.6h2.064a10.861,10.861,0,0,1,1.2.072v-.972a9.337,9.337,0,0,1-1.224.072H85.788V24.252h1.584c.432,0,1.032.024,1.248.048a8.735,8.735,0,0,1-.048-1.08v-1.6a9.692,9.692,0,0,1,.048-1.1,9.2,9.2,0,0,1-1.32.06H83.688a8.991,8.991,0,0,1-1.32-.06,9.29,9.29,0,0,1,.048,1.068V23.2a9.692,9.692,0,0,1-.048,1.1,11.949,11.949,0,0,1,1.26-.048h1.284ZM83.3,21.4H87.66v2.04H83.3ZM79.9,29.472a12.144,12.144,0,0,1-.072,1.428h1.008a13.026,13.026,0,0,1-.06-1.4V23.064a14.42,14.42,0,0,0,.936-2.208,5.432,5.432,0,0,1,.228-.66l-.972-.312A8.949,8.949,0,0,1,80.5,21.54a9.621,9.621,0,0,1-2.244,3.468,3.206,3.206,0,0,1,.432.708c.012.036.048.108.084.192a7.1,7.1,0,0,0,1.164-1.56c-.024.5-.036.96-.036,1.4Zm15.072-6.36h.1c.072,0,.192,0,.348.012.66.048,1.32.072,1.944.084a27.856,27.856,0,0,1-.972,2.64,7.69,7.69,0,0,1-.624,1.224l1.032.4a2.431,2.431,0,0,1,.96-.744,6.608,6.608,0,0,1,2.724-.624c1.392,0,2.22.5,2.22,1.38,0,1.08-1.212,1.8-3.06,1.8a7.684,7.684,0,0,1-3.024-.6,6.042,6.042,0,0,1,.072.888v.2a9.7,9.7,0,0,0,3,.456c2.472,0,4.092-1.092,4.092-2.76,0-1.368-1.224-2.268-3.108-2.268a5.955,5.955,0,0,0-3.432.948l-.012-.012a14.59,14.59,0,0,0,1.14-2.928c1.356-.036,2.712-.132,3.684-.24,1.044-.132,1.044-.132,1.3-.144l-.06-1.044a20.414,20.414,0,0,1-4.68.516c.12-.48.132-.5.3-1.236a6.419,6.419,0,0,1,.192-.744l-1.14-.108a10.628,10.628,0,0,1-.372,2.1,11.567,11.567,0,0,1-2.592-.192Zm14.748,5.076a11.887,11.887,0,0,1,2.436,2.652l.816-.78a13.028,13.028,0,0,0-2.5-2.568ZM135.072,26.1a9.593,9.593,0,0,1,1.248.072V25.164a6.738,6.738,0,0,1-1.032.072h-.168V22.848a7.988,7.988,0,0,1,.048-1.044,7.757,7.757,0,0,1-1.044.048h-1.836V21.12A6.216,6.216,0,0,1,132.372,20H131.3a6.181,6.181,0,0,1,.084,1.128v.72h-.972a10.9,10.9,0,0,1-1.224-.06v.984a8.259,8.259,0,0,1,1.2-.06h1a21.6,21.6,0,0,1-.12,2.52h-1.476a9.011,9.011,0,0,1-1.3-.072v1.008a9.732,9.732,0,0,1,1.3-.072h1.344A5.6,5.6,0,0,1,130,28.536a6.159,6.159,0,0,1-1.968,1.584,2.754,2.754,0,0,1,.612.8,7.48,7.48,0,0,0,1.7-1.332,6.47,6.47,0,0,0,1.572-2.9,7.484,7.484,0,0,0,1.812,2.724,8.511,8.511,0,0,0,2.04,1.476,4.494,4.494,0,0,1,.564-.948A7.064,7.064,0,0,1,132.5,26.1Zm-.852-.864h-2.04c.06-.612.108-1.644.108-2.448v-.072h1.932Zm-8.352.528a11.24,11.24,0,0,0,.564-3.288l-.744-.168a9.349,9.349,0,0,1-.528,3.108Zm1.956,5.208a8.827,8.827,0,0,1-.084-1.32V21.216a7.8,7.8,0,0,1,.084-1.236h-1.056a8.005,8.005,0,0,1,.084,1.236v8.34a9.762,9.762,0,0,1-.084,1.416Zm1.44-6.852a12.32,12.32,0,0,0-.768-1.98l-.6.3a8.5,8.5,0,0,1,.684,2.016ZM147.456,25v.816H147a5.275,5.275,0,0,1-.888-.048c.024.288.036.492.036.84V27.84c0,.324-.012.576-.036.84h.792V28.1h1.812a7.744,7.744,0,0,1,.8.036,5.4,5.4,0,0,1-.024-.756v-.756c0-.36.012-.6.036-.864a6.1,6.1,0,0,1-.912.048h-.408V25h.828a9.035,9.035,0,0,1,1.032.048v-.756a6.363,6.363,0,0,1-1.032.06h-.828a3.928,3.928,0,0,1,.048-.708H147.4a3.246,3.246,0,0,1,.06.708h-.792a6.051,6.051,0,0,1-1.008-.06v.756A8.737,8.737,0,0,1,146.664,25Zm-.564,1.452h1.86v1.008h-1.86Zm1.368-5.532a5.605,5.605,0,0,1,.072-.972H147.3a4.2,4.2,0,0,1,.072.972h-2.1a8.348,8.348,0,0,1-1.26-.072v.876a8.385,8.385,0,0,1,1.248-.06h.492a7.238,7.238,0,0,1,.432,1.02h-.444c-.7,0-.96-.012-1.32-.036.024.372.036.624.036,1.248v3.792a13.491,13.491,0,0,1-.06,1.38h.96a12.022,12.022,0,0,1-.06-1.38v-4.3h5.136v4.644c0,.24-.072.276-.468.276a6.273,6.273,0,0,1-.972-.072,2.87,2.87,0,0,1,.2.84c.264.012.576.024.72.024a3.117,3.117,0,0,0,.972-.108c.252-.084.384-.36.384-.864v-4.2a12.126,12.126,0,0,1,.048-1.3,11.7,11.7,0,0,1-1.248.048h-.612c.228-.456.324-.66.468-1.02h.552a8.566,8.566,0,0,1,1.2.06v-.876a8.278,8.278,0,0,1-1.248.072Zm-1.2,1.764a7.482,7.482,0,0,0-.42-1.02h2.376a6.325,6.325,0,0,1-.444,1.02ZM141.1,20.8a12.319,12.319,0,0,1,1.9,2.2l.72-.66a14.3,14.3,0,0,0-1.956-2.136Zm-.144,4.824a4.433,4.433,0,0,1,.852-.06h.72v2.808a7.076,7.076,0,0,1-1.824,1.356l.456.96c.312-.264.54-.444.7-.576a12.867,12.867,0,0,0,1.092-.984,3.056,3.056,0,0,0,1.224,1.08c.684.324,1.4.408,3.516.408,1.548,0,2.76-.024,4.044-.084a3.289,3.289,0,0,1,.3-1,44.977,44.977,0,0,1-5.352.228,4.139,4.139,0,0,1-2.712-.624,1.731,1.731,0,0,1-.552-.744V25.968a12.162,12.162,0,0,1,.048-1.284,6.7,6.7,0,0,1-.912.06h-.66a5,5,0,0,1-.936-.06Zm21.24-3.132a29.97,29.97,0,0,1-3.42.24,6.684,6.684,0,0,1-1.056-.06l.072,1.032a2.609,2.609,0,0,1,.48-.036,34.38,34.38,0,0,0,4.26-.312c.072.132.084.156.2.4a18.007,18.007,0,0,0,1.092,1.848c.18.252.18.252.252.348a5.937,5.937,0,0,0-2.436-.4,4.805,4.805,0,0,0-2.4.516A2.27,2.27,0,0,0,157.968,28a2.007,2.007,0,0,0,.54,1.368,4.46,4.46,0,0,0,3.24.948,10.381,10.381,0,0,0,3.588-.648l-.144-1.092a8.013,8.013,0,0,1-3.468.78c-1.728,0-2.712-.516-2.712-1.4a1.286,1.286,0,0,1,.624-1.068,4.1,4.1,0,0,1,2.208-.48,5.971,5.971,0,0,1,2.028.3,2.306,2.306,0,0,1,.84.5l.96-.516a21.759,21.759,0,0,1-2.136-3.468c.852-.168,1.248-.252,1.944-.432.408-.1.528-.12.756-.168L166.1,21.6a15.29,15.29,0,0,1-2.916.744c-.1-.2-.18-.408-.408-1.008a3.966,3.966,0,0,1-.336-1.068l-1.128.156a5.164,5.164,0,0,1,.312.72Zm10.4,1.884a22.72,22.72,0,0,1,2.328-.42,18.716,18.716,0,0,1-1.272,3.7,12.244,12.244,0,0,1-1.248,2.2l.984.564.78-1.512a22.579,22.579,0,0,0,1.764-5.028,7.3,7.3,0,0,1,.816-.048c1.068,0,1.4.384,1.4,1.608a9.161,9.161,0,0,1-.492,3.288.722.722,0,0,1-.66.528,4.644,4.644,0,0,1-1.764-.528,3.527,3.527,0,0,1,.06.66c0,.144-.012.216-.024.42a4.785,4.785,0,0,0,1.812.432,1.327,1.327,0,0,0,1.224-.552,8.044,8.044,0,0,0,.84-4.2,2.6,2.6,0,0,0-.576-1.992,2.315,2.315,0,0,0-1.728-.528c-.264,0-.444,0-.732.024.06-.276.192-1.044.252-1.356a8.479,8.479,0,0,1,.216-1.116l-1.128-.132v.168a16.826,16.826,0,0,1-.336,2.52,24.7,24.7,0,0,1-2.64.288Zm7-1.68A10,10,0,0,1,182,27.132l.936-.516a10.963,10.963,0,0,0-2.5-4.368Zm2.052-2.736a8.794,8.794,0,0,1,1.236,1.86l.7-.4a8.954,8.954,0,0,0-1.26-1.824Zm-1.392.648a8.376,8.376,0,0,1,1.248,1.9l.708-.4a9.391,9.391,0,0,0-1.26-1.86Zm15.912,3.924v1.3h-3.276a9.6,9.6,0,0,1-1.272-.06V26.7a9.4,9.4,0,0,1,1.26-.072h3.288v3.024c0,.264-.108.336-.54.336a7.375,7.375,0,0,1-1.368-.144,3.071,3.071,0,0,1,.252.948c.576.048.876.06,1.176.06,1.044,0,1.38-.24,1.38-.96V26.628h.324a8.043,8.043,0,0,1,1.164.072v-.936a8.124,8.124,0,0,1-1.164.06h-.324v-1.3h.228a11.542,11.542,0,0,1,1.248.06v-.936a8.684,8.684,0,0,1-1.26.072h-1.992V22.26h1.668a8.227,8.227,0,0,1,1.164.06v-.936a7.38,7.38,0,0,1-1.164.072h-1.668v-.444a5.446,5.446,0,0,1,.072-.948h-1.032a5.963,5.963,0,0,1,.072.948v.444h-1.3a7.109,7.109,0,0,1-1.152-.072v.936a7.946,7.946,0,0,1,1.152-.06h1.3v1.464h-1.668a8.683,8.683,0,0,1-1.26-.072v.936a11.621,11.621,0,0,1,1.26-.06Zm-6.66-1.344v2.568a8.929,8.929,0,0,1-1.62.492l.216.96a3.693,3.693,0,0,1,.456-.192c.444-.168.456-.18.948-.372v3.024c0,.276-.1.348-.408.348a10.3,10.3,0,0,1-1.068-.072,2.873,2.873,0,0,1,.192.888c.4.012.576.024.78.024,1.128,0,1.4-.192,1.4-.948V26.268c.432-.18.636-.276,1.224-.564V24.84c-.5.252-.672.324-1.224.552V23.184h.4a4.615,4.615,0,0,1,.756.048V22.32a4.407,4.407,0,0,1-.768.048H190.4V21.252a8.465,8.465,0,0,1,.072-1.2h-1.044a8.529,8.529,0,0,1,.072,1.212v1.1h-.636a5.261,5.261,0,0,1-.9-.072v.936a6.488,6.488,0,0,1,.888-.048Zm2.8,4.356a8.941,8.941,0,0,1,1.6,1.92l.744-.576a12.088,12.088,0,0,0-1.62-1.824Zm11.136-1.452a5.615,5.615,0,0,1,.78-.084c.2-.012.5-.036,1.008-.1v3.864a8.708,8.708,0,0,1-.072,1.2h.972a8.232,8.232,0,0,1-.072-1.2V25.824c.456-.048.564-.06.852-.108a5.094,5.094,0,0,1,.132.54l.648-.276a9.86,9.86,0,0,0-.8-2.184l-.6.24a6.814,6.814,0,0,1,.408.972c-.384.06-.612.072-1.56.144.492-.636,1.248-1.74,1.656-2.412.456-.768.456-.768.6-.972l-.8-.444a8.587,8.587,0,0,1-1.116,2.088c-.216-.264-.348-.42-.636-.744a15.924,15.924,0,0,0,1.116-1.956c.1-.192.156-.288.228-.408l-.852-.36a8.359,8.359,0,0,1-1.008,2.172c-.156-.168-.216-.228-.54-.564l-.456.7a13.147,13.147,0,0,1,1.668,1.884c-.348.5-.348.5-.756,1.068-.144,0-.408.012-.48.012a2.537,2.537,0,0,1-.432-.024Zm6.828-4.188v1.14h-1.2a10.272,10.272,0,0,1-1.2-.06v.876a10.426,10.426,0,0,1,1.2-.06h3.48a10.043,10.043,0,0,1,1.188.06V22.98a10.272,10.272,0,0,1-1.2.06h-1.416V21.9h1.728a8.42,8.42,0,0,1,1.224.06v-.9a8.5,8.5,0,0,1-1.248.072h-1.7v-.2a5.453,5.453,0,0,1,.072-.972h-1a5.257,5.257,0,0,1,.072.948v.228h-1.38a8.5,8.5,0,0,1-1.248-.072v.9a8.6,8.6,0,0,1,1.236-.06Zm-6.348,4.68a9.724,9.724,0,0,1-.576,3.264l.744.4a13.62,13.62,0,0,0,.612-3.528Zm2.544.12a13.69,13.69,0,0,1,.468,2.556l.72-.24a13.436,13.436,0,0,0-.516-2.52Zm2.124.144V25.4h4.548v1.44h.912a4.005,4.005,0,0,1-.048-.756V25.38a7.5,7.5,0,0,1,.036-.792,8.011,8.011,0,0,1-1.236.06h-3.948c-.588,0-.888-.012-1.128-.036a4.5,4.5,0,0,1,.048.816v.612a5.571,5.571,0,0,1-.048.8Zm2.52-.792a6.793,6.793,0,0,1,.06.96v2.82c0,.348.1.552.3.66a2.159,2.159,0,0,0,1.116.144c.9,0,1.2-.108,1.416-.5a4.569,4.569,0,0,0,.348-1.764,2.246,2.246,0,0,1-.84-.336c-.024,1.008-.108,1.512-.276,1.668-.084.084-.288.12-.66.12-.444,0-.552-.06-.552-.276V27.012a4.4,4.4,0,0,1,.072-.96Zm-1.764,0a2.659,2.659,0,0,1,.048.54,3.979,3.979,0,0,1-.564,2.184,3.37,3.37,0,0,1-1.884,1.3,1.947,1.947,0,0,1,.6.768,4.283,4.283,0,0,0,1.956-1.476,4.759,4.759,0,0,0,.756-2.532,7.153,7.153,0,0,1,.072-.78Zm11.76-5.484a6.3,6.3,0,0,1,.036.672c0,.18,0,.456-.012.8-.084,3.768-.1,4.14-.1,4.872A6.127,6.127,0,0,0,221.2,28.5a2.522,2.522,0,0,0,.888,1.284,3.553,3.553,0,0,0,2,.516,4.32,4.32,0,0,0,3.408-1.5,7.465,7.465,0,0,0,1.356-2.82,3.8,3.8,0,0,1-1.02-.684,6.719,6.719,0,0,1-.588,1.92A3.342,3.342,0,0,1,224.16,29.3a2.022,2.022,0,0,1-1.752-.708,3.4,3.4,0,0,1-.336-1.944c0-.8.072-3.708.12-4.584a9.65,9.65,0,0,1,.132-1.488Zm23.5,8.376c-.168-.1-.216-.144-.42-.276a10.771,10.771,0,0,0-3.336-1.74c-.024-.492-.024-.492-.06-1.716.624-.036,1.692-.132,2.16-.2.924-.132.96-.144,1.164-.156l-.048-.972a15.247,15.247,0,0,1-3.288.468c-.012-.66-.024-.84-.024-1.488,1.092-.06,1.692-.12,2.724-.264a6.739,6.739,0,0,1,.864-.108l-.048-.972a15.87,15.87,0,0,1-3.54.48,11.655,11.655,0,0,1,.084-1.62h-1.08a9.076,9.076,0,0,1,.06,1.656c-.36.012-.78.024-1.008.024a15.721,15.721,0,0,1-3.12-.24l-.012.972a.98.98,0,0,1,.168-.012,2.067,2.067,0,0,1,.24.012c.852.06,2.172.12,2.892.12.228,0,.432,0,.84-.012,0,.192.012.312.024,1.5-.408.012-.768.024-1.044.024a15.121,15.121,0,0,1-2.772-.192l-.012.936h.108c.072,0,.168,0,.312.012a20.587,20.587,0,0,0,2.064.1c.3,0,.72-.012,1.356-.024.036,1.236.036,1.236.06,1.524a7.184,7.184,0,0,0-1.056-.072c-1.848,0-2.964.708-2.964,1.884,0,1.056.948,1.716,2.46,1.716,1.14,0,1.944-.3,2.256-.852a2.577,2.577,0,0,0,.288-1.236,3.044,3.044,0,0,0-.012-.312,7.563,7.563,0,0,1,.7.312,8.959,8.959,0,0,1,2.448,1.728Zm-4.68-1.272s.012.312.012.408a1.415,1.415,0,0,1-.24.984,1.729,1.729,0,0,1-1.272.372c-.96,0-1.536-.324-1.536-.876a.729.729,0,0,1,.192-.5,2.425,2.425,0,0,1,1.668-.5A4.715,4.715,0,0,1,239.916,27.672Zm16.26-5.784c-1.344.036-1.872.048-2.892.084-1.812.072-1.884.072-2.208.072-.18,0-.276,0-.516-.012l.036,1.032c.744-.12,3.54-.276,5.592-.312,0,.66.012,1.284.024,1.392v.084a1.807,1.807,0,0,0-1.332-.48,2.07,2.07,0,0,0-2.22,2.04,2.073,2.073,0,0,0,3.552,1.332,1.91,1.91,0,0,0,.324-.528,2.693,2.693,0,0,1-.348,1.212,4.384,4.384,0,0,1-2.988,1.944,3.091,3.091,0,0,1,.612.924,7.743,7.743,0,0,0,1.98-.972,3.774,3.774,0,0,0,1.644-3.168,3.477,3.477,0,0,0-.3-1.488v-2.3c.96-.012,1.164-.012,1.332-.012a20.825,20.825,0,0,1,2.208.06V21.78c-.4.048-1.308.072-3.552.084a10.289,10.289,0,0,1,.06-1.572H256.1a5.378,5.378,0,0,1,.06.7Zm-1.212,2.664a1.357,1.357,0,0,1,.948.348.807.807,0,0,1,.24.636,1.269,1.269,0,0,1-1.332,1.32,1.106,1.106,0,0,1-1.176-1.14A1.222,1.222,0,0,1,254.964,24.552Zm11.52,2.544a1.866,1.866,0,1,0,1.86,1.86A1.872,1.872,0,0,0,266.484,27.1Zm0,.768a1.092,1.092,0,1,1-1.092,1.092A1.086,1.086,0,0,1,266.484,27.864Z" transform="translate(-0.54 -1.596)" fill="#836660"/>
</svg>
