<svg xmlns="http://www.w3.org/2000/svg" xmlns:xlink="http://www.w3.org/1999/xlink" width="230.257" height="230.258" viewBox="0 0 230.257 230.258">
  <defs>
    <clipPath id="clip-path">
      <path id="パス_12813" data-name="パス 12813" d="M339.926,836.943c0,20.3,15.312,36.752,34.2,36.752s34.2-16.455,34.2-36.752c0-19.976-29.481-57.027-34.2-76-3.532,18.971-34.193,55.857-34.193,76" transform="translate(-339.926 -760.945)" fill="none"/>
    </clipPath>
  </defs>
  <g id="グループ_1662" data-name="グループ 1662" transform="translate(0 0)">
    <path id="パス_6937" data-name="パス 6937" d="M475.109,813.776A115.128,115.128,0,1,1,359.98,698.648,115.129,115.129,0,0,1,475.109,813.776" transform="translate(-244.852 -698.648)" fill="#fff"/>
    <path id="パス_12812" data-name="パス 12812" d="M408.323,836.944c0,20.3-15.311,36.751-34.2,36.751s-34.2-16.455-34.2-36.751c0-20.141,30.661-57.028,34.193-76C378.842,779.916,408.323,816.968,408.323,836.944Z" transform="translate(-257.303 -706.806)" fill="none" stroke="#c4798f" stroke-linejoin="round" stroke-width="4.76"/>
    <g id="グループ_1661" data-name="グループ 1661" transform="translate(82.623 54.139)" clip-path="url(#clip-path)">
      <line id="線_310" data-name="線 310" x1="211.296" y2="211.296" transform="translate(-186.652 -144.89)" fill="none" stroke="#c4798f" stroke-linejoin="round" stroke-width="3.173"/>
      <line id="線_311" data-name="線 311" x1="211.296" y2="211.296" transform="translate(-171.762 -130)" fill="none" stroke="#c4798f" stroke-linejoin="round" stroke-width="3.173"/>
      <line id="線_312" data-name="線 312" x1="211.296" y2="211.296" transform="translate(-156.872 -115.11)" fill="none" stroke="#c4798f" stroke-linejoin="round" stroke-width="3.173"/>
      <line id="線_313" data-name="線 313" x1="211.296" y2="211.296" transform="translate(-141.982 -100.22)" fill="none" stroke="#c4798f" stroke-linejoin="round" stroke-width="3.173"/>
      <line id="線_314" data-name="線 314" x1="211.296" y2="211.296" transform="translate(-127.092 -85.33)" fill="none" stroke="#c4798f" stroke-linejoin="round" stroke-width="3.173"/>
      <line id="線_315" data-name="線 315" x1="211.296" y2="211.296" transform="translate(-112.202 -70.44)" fill="none" stroke="#c4798f" stroke-linejoin="round" stroke-width="3.173"/>
      <line id="線_316" data-name="線 316" x1="211.296" y2="211.296" transform="translate(-97.312 -55.55)" fill="none" stroke="#c4798f" stroke-linejoin="round" stroke-width="3.173"/>
      <line id="線_317" data-name="線 317" x1="211.296" y2="211.296" transform="translate(-82.422 -40.66)" fill="none" stroke="#c4798f" stroke-linejoin="round" stroke-width="3.173"/>
      <line id="線_318" data-name="線 318" x1="211.296" y2="211.296" transform="translate(-67.532 -25.77)" fill="none" stroke="#c4798f" stroke-linejoin="round" stroke-width="3.173"/>
      <line id="線_319" data-name="線 319" x1="211.296" y2="211.296" transform="translate(-52.642 -10.88)" fill="none" stroke="#c4798f" stroke-linejoin="round" stroke-width="3.173"/>
      <line id="線_320" data-name="線 320" x1="211.296" y2="211.296" transform="translate(-37.752 4.01)" fill="none" stroke="#c4798f" stroke-linejoin="round" stroke-width="3.173"/>
      <line id="線_321" data-name="線 321" x1="211.296" y2="211.296" transform="translate(-22.862 18.9)" fill="none" stroke="#c4798f" stroke-linejoin="round" stroke-width="3.173"/>
      <line id="線_322" data-name="線 322" x1="211.296" y2="211.296" transform="translate(-7.972 33.79)" fill="none" stroke="#c4798f" stroke-linejoin="round" stroke-width="3.173"/>
      <line id="線_323" data-name="線 323" x1="211.296" y2="211.296" transform="translate(6.918 48.68)" fill="none" stroke="#c4798f" stroke-linejoin="round" stroke-width="3.173"/>
    </g>
  </g>
</svg>
