<svg xmlns="http://www.w3.org/2000/svg" width="283.588" height="83.118" viewBox="0 0 283.588 83.118">
  <g id="グループ_2477" data-name="グループ 2477" transform="translate(-104.8 -16.888)">
    <path id="パス_20430" data-name="パス 20430" d="M3.948,8.94v2.592c0,.288-.072.336-.42.336a6.073,6.073,0,0,1-.96-.108,2.592,2.592,0,0,1,.2.912q.54.036.936.036c.84,0,1.1-.24,1.1-1.044V3.828A13.082,13.082,0,0,1,4.86,2.4a6.274,6.274,0,0,1-1.032.06H2.568a7.253,7.253,0,0,1-1.1-.06,16.686,16.686,0,0,1,.06,1.872,41.842,41.842,0,0,1-.192,5.556,5.256,5.256,0,0,1-.792,2.3,2.561,2.561,0,0,1,.72.72A7.908,7.908,0,0,0,2.28,8.94Zm0-3.684H2.388V3.3h1.56Zm0,.816V8.124H2.328c.036-1.02.036-1.02.048-2.052ZM7,3.4H8.832v8.4c0,.588.324.8,1.2.8,1.092,0,1.368-.192,1.488-1.008.06-.4.12-1.224.156-2.076a2.907,2.907,0,0,1-.852-.372,14.558,14.558,0,0,1-.132,2.328c-.072.24-.18.3-.54.3-.312,0-.408-.06-.408-.24V3.744c0-.54.012-.828.048-1.284A6.539,6.539,0,0,1,8.7,2.52H7.116a6.484,6.484,0,0,1-1.068-.06,8.194,8.194,0,0,1,.048,1.4V5.148a24.405,24.405,0,0,1-.42,5.088,4.808,4.808,0,0,1-.816,1.908,2.8,2.8,0,0,1,.708.744,7.1,7.1,0,0,0,1.1-2.976A36.748,36.748,0,0,0,7,4.68Zm10.848-.324A12.639,12.639,0,0,1,18.7,5.34c-.276.084-.72.228-1.272.42a9.235,9.235,0,0,1-1.068.312l.36,1.032a10.034,10.034,0,0,1,1.536-.612c.588-.2.588-.2.708-.252a42.842,42.842,0,0,1,1.5,6.432l1.152-.252a2.867,2.867,0,0,1-.168-.54c-.756-3.216-.912-3.816-1.536-5.916a14.326,14.326,0,0,1,3.852-.84c1.14,0,1.8.5,1.8,1.38a1.717,1.717,0,0,1-1.932,1.6A4.211,4.211,0,0,1,21.6,7.56a4.793,4.793,0,0,1,.108.912.912.912,0,0,1-.012.168,5.035,5.035,0,0,0,1.9.42,3.784,3.784,0,0,0,1.6-.312A2.508,2.508,0,0,0,26.6,6.5c0-1.38-1.056-2.28-2.676-2.28a5.56,5.56,0,0,0-.852.06,13.773,13.773,0,0,1,.06-1.98h-1.08a13.75,13.75,0,0,1,.06,2.112c-.72.156-1.3.288-1.92.48-.444.132-.444.132-.552.168-.192-.612-.264-.84-.5-1.548a4.239,4.239,0,0,1-.216-.768Zm21.42-.228v-.1a3.764,3.764,0,0,1,.06-.768H38.316a4.989,4.989,0,0,1,.06.768v.1H36.84a8.566,8.566,0,0,1-1.2-.06V3.6a7.253,7.253,0,0,1,1.1-.06,6.322,6.322,0,0,1,.444,1.044H36.4a5.949,5.949,0,0,1-1.092-.06v.852a7.691,7.691,0,0,1,1.188-.06h5a10.743,10.743,0,0,1,1.2.06V4.524a7.294,7.294,0,0,1-1.212.06h-.96A8.875,8.875,0,0,0,41,3.54h.216a7.925,7.925,0,0,1,1.08.06V2.784a11.417,11.417,0,0,1-1.2.06Zm-1.212,1.74a7.906,7.906,0,0,0-.408-1.044h2.472a7.014,7.014,0,0,1-.48,1.044Zm.36,4.944V10.3H36.864a7.333,7.333,0,0,1-1.176-.06v.852a8.2,8.2,0,0,1,1.176-.06h1.548v.864h-2.04a11.621,11.621,0,0,1-1.26-.06v.876a9.723,9.723,0,0,1,1.272-.072h5.16a9.529,9.529,0,0,1,1.26.072v-.876a7.425,7.425,0,0,1-1.176.06h-2.4v-.864H40.98a9.9,9.9,0,0,1,1.176.06v-.852a7.255,7.255,0,0,1-1.164.06H39.228V9.528H40.9c.564,0,.816.012,1.128.036a10.049,10.049,0,0,1-.036-1.116V6.96A9.454,9.454,0,0,1,42.024,5.9c-.324.024-.528.036-1.128.036H36.924c-.588,0-.9-.012-1.128-.036a7.116,7.116,0,0,1,.036,1.032V8.472c0,.576-.012.8-.036,1.092.276-.024.552-.036,1.116-.036Zm0-2.928v.78H36.636V6.6Zm.816,0h1.956v.78H39.228Zm-.816,1.428V8.88H36.636V8.028Zm.816,0h1.956V8.88H39.228ZM32.9,12.444v-1.08h1.272v.576H35c-.024-.288-.036-.54-.036-1.032V3.564A10.117,10.117,0,0,1,35,2.472c-.324.024-.384.024-.96.024h-1.08a8.945,8.945,0,0,1-.924-.024,8.766,8.766,0,0,1,.048,1.116V11.28a9.77,9.77,0,0,1-.048,1.164Zm0-9.12h1.26V5.112H32.9Zm0,2.592h1.26V7.764H32.9Zm0,2.652h1.26v1.956H32.9Zm16.488,1.86c0-.2-.012-.252-.012-.516-.012-.324-.024-.9-.024-1.14A22.235,22.235,0,0,1,49.632,5.1a14.589,14.589,0,0,1,.6-2.388l-1.14-.156a7.362,7.362,0,0,1-.168,1.02A20.6,20.6,0,0,0,48.4,8.328a18.122,18.122,0,0,0,.312,3.42c.036.24.048.312.072.5l1.044-.072a1.792,1.792,0,0,1-.012-.228A9.745,9.745,0,0,1,50.82,8.568l-.72-.336a10.414,10.414,0,0,0-.7,2.2ZM51.66,4.944c.1.012.12.012.192.024a1.482,1.482,0,0,0,.216.024,14.435,14.435,0,0,0,1.608.084,20.733,20.733,0,0,0,2.556-.156q.774-.108.828-.108L57,3.792a13.29,13.29,0,0,1-3.288.324,8.291,8.291,0,0,1-2.028-.18Zm.864,2.244a3.506,3.506,0,0,0-1.068,2.268,1.935,1.935,0,0,0,.36,1.152c.5.648,1.4.948,2.82.948a13.732,13.732,0,0,0,2.472-.228c.252-.048.276-.048.432-.072l-.108-1.092a8.318,8.318,0,0,1-2.8.42c-1.452,0-2.2-.408-2.2-1.224a2.722,2.722,0,0,1,.9-1.764Zm12.912,4.236a12.363,12.363,0,0,1-.072,1.416h1.02a11.586,11.586,0,0,1-.06-1.416V10.236h4.92V11.52c0,.312-.084.36-.588.36a10.143,10.143,0,0,1-1.476-.108,2.678,2.678,0,0,1,.216.912c.492.024.984.036,1.32.036a2.087,2.087,0,0,0,1.068-.168.946.946,0,0,0,.36-.888v-4.8c0-.636.012-1.02.048-1.392a11.733,11.733,0,0,1-1.284.048H66.636a13.8,13.8,0,0,0,.732-1.272h5.04a10.8,10.8,0,0,1,1.344.072V3.336a10.271,10.271,0,0,1-1.344.072H67.752c.108-.24.156-.384.264-.672a4.135,4.135,0,0,1,.252-.66l-1.044-.144a5.8,5.8,0,0,1-.42,1.476H64.44a10.546,10.546,0,0,1-1.368-.072V4.32a10.941,10.941,0,0,1,1.368-.072H66.4A8.4,8.4,0,0,1,65.028,6.2,10.829,10.829,0,0,1,62.76,8.112a2.556,2.556,0,0,1,.612.78,12.087,12.087,0,0,0,2.064-1.86Zm5.808-3.156V9.444h-4.92V8.268Zm0-.792h-4.92V6.336h4.92ZM84.336,4.788a3.922,3.922,0,0,1,.072-.756h-.96a4.277,4.277,0,0,1,.06.756H81.324a5.376,5.376,0,0,1-1.02-.06V5.58a6.118,6.118,0,0,1,1.02-.06h2.184v.8H80.892a5.614,5.614,0,0,1-1.02-.06v.828a6.118,6.118,0,0,1,1.02-.06h2.616v.84H79.992A7.212,7.212,0,0,1,78.84,7.8v.9a7.316,7.316,0,0,1,1.152-.072h8.04A7.486,7.486,0,0,1,89.2,8.7V7.8a7.38,7.38,0,0,1-1.164.072h-3.7v-.84H87.2a5.9,5.9,0,0,1,1,.06V6.264a5.091,5.091,0,0,1-1,.06H84.336v-.8h2.436a5.811,5.811,0,0,1,1,.06V4.728a4.942,4.942,0,0,1-1,.06Zm-.852-1.8H80.232a11.991,11.991,0,0,1-1.248-.048,5.666,5.666,0,0,1,.048.84v.684a6.017,6.017,0,0,1-.048.864h.936V3.768h8.256v1.56H89.1a6.017,6.017,0,0,1-.048-.864V3.78a5.173,5.173,0,0,1,.048-.84,11.888,11.888,0,0,1-1.236.048H84.408V2.724a3.676,3.676,0,0,1,.072-.756H83.412a4.032,4.032,0,0,1,.072.756ZM81.06,12.36h5.964v.576H88a7.424,7.424,0,0,1-.072-1.056V10.332a5.661,5.661,0,0,1,.06-.984A5.75,5.75,0,0,1,87.1,9.4h-6.12a6.088,6.088,0,0,1-.876-.048,6.311,6.311,0,0,1,.06.972v1.548a8.7,8.7,0,0,1-.072,1.068h.972Zm0-2.184h5.964v1.392H81.06ZM97.3,2.52a4.347,4.347,0,0,1,.192.768,26.3,26.3,0,0,0,.852,3.324,7.106,7.106,0,0,0-1.584,1,2.683,2.683,0,0,0-1.068,2.028A2.055,2.055,0,0,0,96.7,11.5a6.418,6.418,0,0,0,3.216.576,22.762,22.762,0,0,0,2.736-.168,6.238,6.238,0,0,1,.912-.072l-.108-1.188a12.4,12.4,0,0,1-3.528.432,9.19,9.19,0,0,1-2-.18c-.768-.2-1.152-.612-1.152-1.236a1.757,1.757,0,0,1,.624-1.284,7.731,7.731,0,0,1,2.22-1.236,28.72,28.72,0,0,1,3.72-1.176l-.408-1.08a4.387,4.387,0,0,1-.792.324c-2.112.72-2.112.72-2.844,1.02a19.941,19.941,0,0,1-.876-3.912Zm13.44.9c.024.228.024.276.036.72a18.968,18.968,0,0,0,.636,5.676c.408,1.212,1.08,1.932,1.812,1.932.912,0,1.476-.828,2.088-3.012a4.138,4.138,0,0,1-.84-.8,8.736,8.736,0,0,1-.624,2.088c-.168.384-.372.576-.576.576-.432,0-.888-.8-1.14-2.04a21.019,21.019,0,0,1-.288-3.612,9.993,9.993,0,0,1,.084-1.512Zm6.072,1.056a10.766,10.766,0,0,1,2.484,6.06l1.032-.408a11.348,11.348,0,0,0-2.64-6.084Zm9.336,5.82a8.336,8.336,0,0,1,1.032-1.116,3.248,3.248,0,0,0,.6-.636h.012c-.012.18-.024.3-.024.768a23.141,23.141,0,0,1-.072,3.228h1.128c-.06-.492-.084-1.548-.084-3.432V7.776c1.476-1.344,2.652-1.968,3.72-1.968a2.138,2.138,0,0,1,2.256,2.268,2.873,2.873,0,0,1-.336,1.416,2.6,2.6,0,0,1-2.328,1.308,5.242,5.242,0,0,1-2.124-.456,3.9,3.9,0,0,1,.12.8v.288a6.505,6.505,0,0,0,1.98.324,3.789,3.789,0,0,0,2.676-.972,3.742,3.742,0,0,0,1.056-2.616,3.189,3.189,0,0,0-.828-2.316,3.235,3.235,0,0,0-2.448-.984,4.943,4.943,0,0,0-3.288,1.356,3.483,3.483,0,0,0-.444.4h-.024a1.449,1.449,0,0,0,.036-.3c.012-.612.012-.612.024-.8a4.631,4.631,0,0,1,.648-.78l-.348-.42a.441.441,0,0,1-.24.06l.036-.9a4.858,4.858,0,0,1,.108-1.128h-1.116a3.461,3.461,0,0,1,.024.5c0,.564-.012.924-.036,1.608-.7.048-1.44.1-1.632.1a2.216,2.216,0,0,1-.36-.024l.072.984a8.964,8.964,0,0,1,1.32-.144l.576-.036c-.036,1.008-.036,1.08-.048,2a22.6,22.6,0,0,1-2.2,1.956Zm15.528.312a3.123,3.123,0,0,1,.3-.384c.2-.228.36-.408.492-.54.336-.372.336-.372.54-.624a1.984,1.984,0,0,0,.228-.3l.024.012a4.894,4.894,0,0,0-.048.732,16.909,16.909,0,0,1-.084,3.06h1.116c-.036-.372-.048-1.284-.048-3.36,0-.276,0-.6.012-1.212,1.74-1.788,3.2-2.808,4-2.808a.551.551,0,0,1,.612.612,8.672,8.672,0,0,1-.276,1.668,11.861,11.861,0,0,0-.48,2.892,1.558,1.558,0,0,0,.588,1.4,1.575,1.575,0,0,0,.912.264,2.157,2.157,0,0,0,1.668-.864,5.817,5.817,0,0,0,.768-1.188,4.721,4.721,0,0,1-.636-.984,5.217,5.217,0,0,1-.684,1.368,1.356,1.356,0,0,1-.948.648c-.432,0-.66-.276-.66-.768a8.536,8.536,0,0,1,.252-1.644,12.851,12.851,0,0,0,.54-2.952,1.38,1.38,0,0,0-1.476-1.452,4.628,4.628,0,0,0-2.664,1.26A8.19,8.19,0,0,0,144.2,6.816L144.18,6.8a7.083,7.083,0,0,0,.036-.732c0-.036.012-.132.012-.276,0-.06.012-.144.012-.264a3.633,3.633,0,0,1,.624-.744l-.348-.42a.728.728,0,0,1-.216.06,15.364,15.364,0,0,1,.144-2.076l-1.1-.024c.012.228.024.36.024.516,0,.264-.012.816-.036,1.668-.84.06-1.356.084-1.536.084a2.616,2.616,0,0,1-.408-.024l.048.984a15.131,15.131,0,0,1,1.872-.168c-.024.684-.024.684-.036,1.032-.012.564-.024.936-.024,1.116-.252.264-.924.948-1.38,1.392a4.584,4.584,0,0,1-.744.636Zm14.844-.42a11.887,11.887,0,0,1,2.436,2.652l.816-.78a13.028,13.028,0,0,0-2.5-2.568Zm18.2-6.54a10.656,10.656,0,0,1-1.356-.06,12.048,12.048,0,0,1,.06,1.488v6.168a11.422,11.422,0,0,1-.072,1.5h1.008V12.06h6.432v.684h1.02a9.184,9.184,0,0,1-.072-1.488V5.076a12.41,12.41,0,0,1,.06-1.488,11.493,11.493,0,0,1-1.4.06h-3.132a10.971,10.971,0,0,0,.672-1.356c.06-.144.06-.144.084-.2l-1.056-.18a6.962,6.962,0,0,1-.72,1.74Zm-.36.888h6.432V7.284H174.36Zm0,3.636h6.432V11.16H174.36ZM197.112,4.56v6.888c0,.288-.084.324-.636.324a9.8,9.8,0,0,1-1.632-.144,3.287,3.287,0,0,1,.24.984c.54.036.924.048,1.344.048,1.368,0,1.632-.168,1.632-1.008V4.74a9.333,9.333,0,0,1,.048-1.092,9.622,9.622,0,0,1-1.26.06H193.62c.012-.228.012-.276.024-.948a4.834,4.834,0,0,1,.1-.876h-1.092a5.194,5.194,0,0,1,.072,1.044c0,.228-.012.444-.024.78h-3.108a9.765,9.765,0,0,1-1.248-.06,9.17,9.17,0,0,1,.048,1.1v6.732a8.864,8.864,0,0,1-.084,1.368H189.4a9.051,9.051,0,0,1-.06-1.356V4.56h3.288A5.441,5.441,0,0,1,191.4,7.692a6.482,6.482,0,0,1-1.944,1.488,3.227,3.227,0,0,1,.636.756,6.889,6.889,0,0,0,2.424-2.22,5.316,5.316,0,0,0,.66-1.392,8.191,8.191,0,0,0,3.18,3.468,3.4,3.4,0,0,1,.624-.84,7.7,7.7,0,0,1-2.3-1.824A7,7,0,0,1,193.464,5.1c.036-.216.048-.3.072-.54ZM210.036,9.7v.78h-2.148a9.562,9.562,0,0,1-1.2-.048v.9a9.79,9.79,0,0,1,1.284-.072h2.064v.5a7.722,7.722,0,0,1-.072,1.188h1a7.682,7.682,0,0,1-.072-1.2v-.492h2.136a9.293,9.293,0,0,1,1.284.072v-.912a7.263,7.263,0,0,1-1.248.06h-2.172V9.7h1.548a10.2,10.2,0,0,1,1.116.048A7.314,7.314,0,0,1,213.5,8.7V7.056a7.336,7.336,0,0,1,.048-1.032c-.264.024-.588.036-1.116.036h-3.78c-.528,0-.9-.012-1.14-.036a8.165,8.165,0,0,1,.048,1.068V8.736c0,.4-.012.54-.048,1.008.348-.036.756-.048,1.116-.048ZM208.38,6.768h4.308v.744H208.38Zm0,1.452h4.308v.768H208.38Zm2.52-5.34V2.724a4.71,4.71,0,0,1,.048-.756h-.984a3.937,3.937,0,0,1,.06.756V2.88h-1.392a9.3,9.3,0,0,1-1.212-.06v.84a6.556,6.556,0,0,1,1-.048,6.933,6.933,0,0,1,.348,1.068h-.924a8.1,8.1,0,0,1-.972-.048V5.5a11.65,11.65,0,0,1,1.176-.06h5.04a11.961,11.961,0,0,1,1.2.06V4.62a8.2,8.2,0,0,1-1.176.06h-.984a7.938,7.938,0,0,0,.456-1.068h.168a10.459,10.459,0,0,1,1.2.048V2.82a8.542,8.542,0,0,1-1.212.06Zm-1.26,1.8a7.844,7.844,0,0,0-.348-1.068h2.388a8.98,8.98,0,0,1-.432,1.068Zm-5.76,6.756a9.618,9.618,0,0,1-.072,1.512h1.02a9.087,9.087,0,0,1-.072-1.5V3.12h1.5a18.211,18.211,0,0,1-1.224,3.012,3.964,3.964,0,0,1,.792,1.2,3.883,3.883,0,0,1,.312,1.476c0,.576-.132.72-.684.72A2.267,2.267,0,0,1,205,9.48a1.973,1.973,0,0,1,.18.84,3.108,3.108,0,0,0,1.02-.108c.528-.168.768-.576.768-1.3a4.826,4.826,0,0,0-.312-1.6,4.2,4.2,0,0,0-.732-1.248c.348-.708.72-1.6,1.008-2.364a4.238,4.238,0,0,1,.372-.9l-.48-.528a5.424,5.424,0,0,1-.912.048h-1.236a6.445,6.445,0,0,1-.84-.036,11.113,11.113,0,0,1,.048,1.14ZM222.288,2.2a13.121,13.121,0,0,1-.4,2.208c-.192.012-.5.012-.828.012a7.867,7.867,0,0,1-1.452-.1V5.3h.42c.36.012.456.012.744.012.5,0,.552,0,.864-.012a16.407,16.407,0,0,1-2.364,4.908l.972.564c.06-.108.132-.24.24-.42.456-.8.564-1.008.852-1.584a22.5,22.5,0,0,0,1.32-3.5,18.8,18.8,0,0,0,1.956-.24,3.589,3.589,0,0,1,.408-.06l-.036-1a10.141,10.141,0,0,1-2.076.372c.144-.564.216-.828.3-1.236a5.709,5.709,0,0,1,.18-.768Zm7.236,3.264a16.173,16.173,0,0,0-3.228-1.6l-.516.816a13.324,13.324,0,0,1,3.252,1.644Zm.012,5.34c-.072-.06-.072-.06-.18-.144a3.286,3.286,0,0,0-.336-.288,8.159,8.159,0,0,0-2.04-1.2,14.908,14.908,0,0,1-.132-1.764,3.483,3.483,0,0,1,.168-1.152l-.984-.084a5.121,5.121,0,0,0-.12,1.116c0,.4.036,1.044.084,1.632a4.661,4.661,0,0,0-1.212-.156c-1.476,0-2.508.78-2.508,1.9a1.641,1.641,0,0,0,1.152,1.572,3.885,3.885,0,0,0,1.308.216,2.386,2.386,0,0,0,1.9-.72,2.081,2.081,0,0,0,.4-1.236,1.656,1.656,0,0,0-.024-.312,6.933,6.933,0,0,1,2.028,1.584Zm-3.492-.96a3.392,3.392,0,0,1,.036.48c0,.828-.456,1.224-1.4,1.224-.9,0-1.44-.348-1.44-.924,0-.612.6-1.008,1.548-1.008A3.421,3.421,0,0,1,226.044,9.84Zm11.58-7.248a4.689,4.689,0,0,1,.192.768,25.765,25.765,0,0,0,.852,3.324,8.1,8.1,0,0,0-1.584,1,2.683,2.683,0,0,0-1.068,2.028,2.029,2.029,0,0,0,1.008,1.86,6.418,6.418,0,0,0,3.216.576,22.761,22.761,0,0,0,2.736-.168l.912-.072-.108-1.176a12.49,12.49,0,0,1-3.54.42,9.206,9.206,0,0,1-1.992-.168c-.78-.2-1.152-.612-1.152-1.248a1.711,1.711,0,0,1,.624-1.272,7.307,7.307,0,0,1,2.22-1.248,30.389,30.389,0,0,1,3.72-1.164l-.408-1.08a4.713,4.713,0,0,1-.792.312c-2.112.732-2.112.732-2.844,1.032A20.129,20.129,0,0,1,238.74,2.4Zm4.392.048a8.376,8.376,0,0,1,1.248,1.9l.708-.4a9.391,9.391,0,0,0-1.26-1.86Zm1.392-.648a8.794,8.794,0,0,1,1.236,1.86l.7-.4a8.954,8.954,0,0,0-1.26-1.824Zm11.556,9.216a2.354,2.354,0,0,1,.516.972,7.934,7.934,0,0,0,2-.624A4.428,4.428,0,0,0,260.112,7.4c0-2.532-1.812-4.212-4.536-4.212a5.127,5.127,0,0,0-3.948,1.62,5,5,0,0,0-1.284,3.36c0,1.752.888,3.036,2.1,3.036.9,0,1.62-.72,2.3-2.292a17.442,17.442,0,0,0,1.2-4.8,3.167,3.167,0,0,1,1.344.324,3.1,3.1,0,0,1,1.776,2.916,3.524,3.524,0,0,1-1.9,3.2A6.562,6.562,0,0,1,254.964,11.208Zm-.048-7.068a16.385,16.385,0,0,1-1.068,4.32c-.492,1.128-.948,1.68-1.416,1.68-.624,0-1.1-.864-1.1-1.956A4.1,4.1,0,0,1,253.2,4.7,3.394,3.394,0,0,1,254.916,4.14Zm17.352,3.384a7.951,7.951,0,0,0,1.428,3.492,7.508,7.508,0,0,0,2.148,2,2.451,2.451,0,0,1,.6-.828,6.719,6.719,0,0,1-2.388-2.124,17.55,17.55,0,0,0,2-1.5l-.66-.648a7.23,7.23,0,0,1-1.74,1.44,7.359,7.359,0,0,1-.576-1.836h1.428a8.987,8.987,0,0,1,1.08.048,10.76,10.76,0,0,1-.036-1.2V3.792c0-.732.012-1.068.036-1.32a6.237,6.237,0,0,1-1.14.06H271.5a10.532,10.532,0,0,1-1.176-.048c.036.444.048.78.048,1.26v7.968a8.665,8.665,0,0,1-.948.18c-.024-.24-.036-.552-.036-1.188V3.744c0-.612.012-1,.036-1.2a6.93,6.93,0,0,1-.9.036h-1.656a7.688,7.688,0,0,1-.9-.024c.036.528.048.8.048,1.32v6.972c0,.672-.024,1.116-.06,1.488h.912v-1h1.692v.624h.732l.192.852c.144-.048.324-.1.528-.156a30.452,30.452,0,0,0,3.24-.948l-.036-.828a18.22,18.22,0,0,1-1.956.624V7.524Zm-5.412-4.116h1.716V5.172h-1.716Zm0,2.556h1.716V7.776h-1.716Zm0,2.6h1.716v1.956h-1.716Zm4.4-5.244h3.432V4.632H271.26Zm0,2.064h3.432V6.756H271.26ZM9.888,26.512v4.02c0,.324-.108.384-.636.384a10.092,10.092,0,0,1-1.236-.1,2.782,2.782,0,0,1,.24.888c.42.024.6.024.84.024a3.181,3.181,0,0,0,1.248-.144c.3-.12.432-.384.432-.828V26.932a10.83,10.83,0,0,1,.048-1.212,9.477,9.477,0,0,1-1.248.048H7.788c.036-.324.036-.456.06-1.224h2.04a11.293,11.293,0,0,1,1.2.048v-.9a6.978,6.978,0,0,1-1.2.072h-4.9A7.883,7.883,0,0,1,3.8,23.7v.888a11.34,11.34,0,0,1,1.188-.048H7.008c-.012.72-.012.84-.036,1.224H5.208A9.711,9.711,0,0,1,4.02,25.72c.012.348.024.66.024,1.032v3.84a9.765,9.765,0,0,1-.06,1.3H4.992a9.334,9.334,0,0,1-.06-1.3V29.3a2.624,2.624,0,0,1,.588.684,4.523,4.523,0,0,0,1.86-2.244A6.545,6.545,0,0,0,9.3,29.872a3.329,3.329,0,0,1,.552-.708,5.7,5.7,0,0,1-2.2-2.376,2.215,2.215,0,0,0,.048-.276Zm-4.956,0H6.876a3.588,3.588,0,0,1-.792,1.848,4.4,4.4,0,0,1-1.152.936ZM6.312,22H3.72a11.8,11.8,0,0,1-1.428-.06A20.807,20.807,0,0,1,2.364,25c0,.612,0,.912-.024,1.392a8.9,8.9,0,0,1-1.992.888l.324.936c.072-.048.216-.132.264-.156.444-.228.9-.492,1.356-.768a5.853,5.853,0,0,1-1.656,3.9,2.589,2.589,0,0,1,.744.708,5.849,5.849,0,0,0,1.236-2.064c.516-1.4.66-2.736.66-6.12v-.9h6.792a10.889,10.889,0,0,1,1.356.06v-.948A9.5,9.5,0,0,1,10.068,22H7.224v-.132a4.442,4.442,0,0,1,.072-.936H6.252a4.863,4.863,0,0,1,.06.924ZM.444,23.464a9.718,9.718,0,0,1,.936,2.22l.684-.48a9.571,9.571,0,0,0-.96-2.172Zm19.26-.648a15.1,15.1,0,0,1-2.58-.144l-.024.984a1.138,1.138,0,0,1,.252-.024,2.067,2.067,0,0,1,.24.012c.252.012,1.44.036,1.68.036.048,0,.18-.012.216-.012-.072.132-.072.132-.108.192a11.946,11.946,0,0,1-2.628,3.312l.792.792a4.294,4.294,0,0,1,.96-1.02,4.392,4.392,0,0,1,2.6-1.26c.54,0,.816.264.888.852a9.45,9.45,0,0,0-1.764.96A2.5,2.5,0,0,0,18.96,29.44a1.6,1.6,0,0,0,.816,1.44,4.969,4.969,0,0,0,2.46.468,20.23,20.23,0,0,0,2.988-.228,2.855,2.855,0,0,1,.492-.06l-.108-1.1a10.086,10.086,0,0,1-3.264.48c-1.692,0-2.376-.312-2.376-1.068a1.435,1.435,0,0,1,.708-1.128,7.363,7.363,0,0,1,1.44-.792v.372a15.1,15.1,0,0,1-.072,1.6l.984-.012A3.3,3.3,0,0,1,23,28.912V28.42c.012-.24.012-.492.012-.624,0-.264,0-.3-.012-.7a18.468,18.468,0,0,1,3.18-1.02l-.432-.984a3.372,3.372,0,0,1-.84.348c-.588.2-1.08.384-2.016.744a1.489,1.489,0,0,0-1.62-1.308,3.1,3.1,0,0,0-1.656.492,2.718,2.718,0,0,0-.408.3,1.643,1.643,0,0,0-.168.12.149.149,0,0,1-.024-.036l.024-.024c0-.012.048-.048.12-.1a3.38,3.38,0,0,0,.384-.444,9.023,9.023,0,0,0,.972-1.524c1.176-.036,2.712-.144,3.54-.252.7-.1.7-.1.924-.12l-.072-.96a15.87,15.87,0,0,1-3.24.42c-.672.036-.672.036-.756.048a7.837,7.837,0,0,0,.36-.8,2.588,2.588,0,0,1,.288-.612l-1.128-.168a5.216,5.216,0,0,1-.54,1.6ZM33.48,26.752c.132-.552.216-1,.336-1.752H36.48c.336,0,.66.012,1.032.036a8.972,8.972,0,0,1-.036-.9v-1.7c0-.36.012-.648.036-.936a10.222,10.222,0,0,1-1.08.048h-2.8a8.585,8.585,0,0,1-1.2-.072v.984a9.159,9.159,0,0,1,1.188-.072H36.54v1.8H33.96a8.175,8.175,0,0,1-1.02-.048,15.056,15.056,0,0,1-.576,3.468c.288-.024.552-.036.9-.036h3.312a8.528,8.528,0,0,1-.54,2.8c-.12.252-.336.348-.8.348a11.355,11.355,0,0,1-2.172-.24,4.558,4.558,0,0,1,.216,1.008,17.985,17.985,0,0,0,1.956.132c.96,0,1.4-.192,1.656-.744a11.231,11.231,0,0,0,.672-3.552,3.773,3.773,0,0,1,.06-.624,6.639,6.639,0,0,1-1.032.06Zm6.768-5.544a6.483,6.483,0,0,1,.084,1.212v7.968a10.7,10.7,0,0,1-.084,1.44h1.128a10.164,10.164,0,0,1-.084-1.428V22.42a7.487,7.487,0,0,1,.084-1.212ZM48.6,24.016a5.607,5.607,0,0,1,.768-.024,27.465,27.465,0,0,0,3.24-.2c.348.756.348.756.612,1.248a25.2,25.2,0,0,1-3.672.276,7.227,7.227,0,0,1-1.032-.048l.024.972a5.574,5.574,0,0,1,.876-.048,28.2,28.2,0,0,0,4.212-.348,10.222,10.222,0,0,0,1.176,1.7,7.3,7.3,0,0,0-2.316-.324,5.307,5.307,0,0,0-2.736.576,1.82,1.82,0,0,0-.984,1.548,1.762,1.762,0,0,0,.912,1.536,4.939,4.939,0,0,0,2.6.528,10.921,10.921,0,0,0,3.072-.432c.54-.156.54-.156.744-.2l-.192-1.08a8.456,8.456,0,0,1-3.6.792c-1.584,0-2.46-.408-2.46-1.152,0-.78,1.056-1.272,2.748-1.272a5.835,5.835,0,0,1,2.868.54l.8-.576a13.192,13.192,0,0,1-1.7-2.328c.516-.108.732-.144.912-.192,1.308-.324,1.308-.324,1.572-.372l-.108-.972a13.4,13.4,0,0,1-2.76.732c-.18-.312-.42-.792-.624-1.236.612-.1,2.076-.408,2.988-.648l-.084-.936a15.762,15.762,0,0,1-3.216.78,9.02,9.02,0,0,1-.588-1.62l-1.068.168c.1.168.432.936.684,1.572a21.969,21.969,0,0,1-2.736.156c-.444,0-.672-.012-.972-.036Zm16.968,5.64a4.377,4.377,0,0,1-1.044-1.368c.06-.408.084-.708.12-1.32a4.051,4.051,0,0,1,.048-.468l-.912-.132c.012.108.024.348.024.588a9.834,9.834,0,0,1-.4,2.64,6.014,6.014,0,0,1-.72,1.608,2.441,2.441,0,0,1,.78.576,9.068,9.068,0,0,0,.888-2.508,3.887,3.887,0,0,0,1.236,1.416c.972.7,2.1.9,4.884.9,1.716,0,2.112-.012,3.384-.06a3.167,3.167,0,0,1,.3-1.008,30.478,30.478,0,0,1-4.224.192,8.144,8.144,0,0,1-3.5-.456V28.144h.9a4.684,4.684,0,0,1,1.008.072v-.924a5.9,5.9,0,0,1-1,.06h-.912v-1.6h.852a7.173,7.173,0,0,1,1.164.072V24.88a7.008,7.008,0,0,1-1.188.072h-.9V23.464h.78a7.158,7.158,0,0,1,1.1.06v-.912a6.184,6.184,0,0,1-1.1.06h-.78v-.456a5.6,5.6,0,0,1,.072-1.152h-1.02a5.737,5.737,0,0,1,.072,1.152v.456H64.6a6.438,6.438,0,0,1-1.1-.06v.912a7.232,7.232,0,0,1,1.116-.06h.876v1.488H64.308a7.477,7.477,0,0,1-1.236-.072v.948a6.56,6.56,0,0,1,1.236-.072h1.26Zm7.56-6.8a9.122,9.122,0,0,1,.048-1.176,7.194,7.194,0,0,1-1.224.06H70a8.031,8.031,0,0,1-1.224-.072v.948a8.62,8.62,0,0,1,1.176-.06H72.24V24.82H70.08a9.662,9.662,0,0,1-1.212-.048,9.7,9.7,0,0,1,.06,1.332V28.72c0,.54.072.744.324.9a3.518,3.518,0,0,0,1.836.252c1.584,0,2.16-.132,2.4-.516a4.611,4.611,0,0,0,.324-1.992,3.619,3.619,0,0,1-.876-.372c0,1.3-.084,1.764-.348,1.884a6.5,6.5,0,0,1-1.728.132c-.576,0-.876-.036-.96-.132-.072-.06-.084-.132-.084-.348v-2.9h2.028a10.7,10.7,0,0,1,1.332.048,9.783,9.783,0,0,1-.048-1.284Zm7.62.408c.156.012.192.012.408.036a21.409,21.409,0,0,0,2.532.156,11.631,11.631,0,0,0,1.788-.132c-.12.06-.144.072-.228.12l-.312.168c-.48.276-.7.408-1.476.924l.732.588a17.787,17.787,0,0,1,3.072-1.872l-.06-.96a14.008,14.008,0,0,1-3.156.24,14.06,14.06,0,0,1-3.216-.288ZM87.9,29.368a11.712,11.712,0,0,1-3.624.468,7.87,7.87,0,0,1-2.172-.228c-.648-.2-.984-.576-.984-1.092,0-.552.348-1.092,1.128-1.728l-.732-.564a3.239,3.239,0,0,0-1.428,2.4,1.938,1.938,0,0,0,1.416,1.86,8.2,8.2,0,0,0,2.844.384,19.336,19.336,0,0,0,3.228-.276c.216-.024.264-.036.432-.048Zm12.276-6.48c-1.344.036-1.872.048-2.892.084-1.812.072-1.884.072-2.208.072-.18,0-.276,0-.516-.012l.036,1.032c.744-.12,3.54-.276,5.592-.312,0,.66.012,1.284.024,1.392v.084a1.807,1.807,0,0,0-1.332-.48,2.07,2.07,0,0,0-2.22,2.04,2.073,2.073,0,0,0,3.552,1.332,1.909,1.909,0,0,0,.324-.528,2.692,2.692,0,0,1-.348,1.212A4.384,4.384,0,0,1,97.2,30.748a3.09,3.09,0,0,1,.612.924,7.743,7.743,0,0,0,1.98-.972,3.774,3.774,0,0,0,1.644-3.168,3.477,3.477,0,0,0-.3-1.488v-2.3c.96-.012,1.164-.012,1.332-.012a20.825,20.825,0,0,1,2.208.06V22.78c-.4.048-1.308.072-3.552.084a10.292,10.292,0,0,1,.06-1.572H100.1a5.38,5.38,0,0,1,.06.7Zm-1.212,2.664a1.357,1.357,0,0,1,.948.348.807.807,0,0,1,.24.636,1.269,1.269,0,0,1-1.332,1.32,1.106,1.106,0,0,1-1.176-1.14A1.222,1.222,0,0,1,98.964,25.552Zm17.424-1.6a9.39,9.39,0,0,0,.78-.9c.228-.3.348-.456.384-.492.12-.156.144-.168.264-.324l-.456-.5a7.028,7.028,0,0,1-1.128.06h-2.388c.1-.144.132-.2.252-.408.108-.168.144-.216.252-.36l-1.056-.24a3.877,3.877,0,0,1-.7,1.26,9.024,9.024,0,0,1-2.8,2.532,3.238,3.238,0,0,1,.576.732,8,8,0,0,0,.96-.72c.012.252.024.516.024.744a14.743,14.743,0,0,1-.4,3.636,5.246,5.246,0,0,1-1.236,2.3,2.65,2.65,0,0,1,.768.66,6.36,6.36,0,0,0,1.212-2.268,13.527,13.527,0,0,0,.552-4.1v-.78h6.9a9.918,9.918,0,0,1,1.332.06V23.9a8.455,8.455,0,0,1-1.368.06Zm-3.876,0h-.444a11.079,11.079,0,0,0,1.236-1.38h3.144a8.564,8.564,0,0,1-1.1,1.38Zm1.992,1.776a7.735,7.735,0,0,1-.864-.036,8.9,8.9,0,0,1,.036.948V30.58c0,.564.12.78.516.9a7.54,7.54,0,0,0,2.352.2,9.2,9.2,0,0,0,2.976-.252c.48-.228.636-.624.8-2.04a3.652,3.652,0,0,1-.912-.372c-.024.888-.1,1.272-.276,1.488-.2.252-.768.336-2.352.336a11.181,11.181,0,0,1-1.848-.1c-.276-.06-.36-.156-.36-.42V26.536h3.36a6.7,6.7,0,0,1-.12,1.4c-.084.324-.216.408-.684.408a7.65,7.65,0,0,1-1.416-.18,3.135,3.135,0,0,1,.252.912,9.71,9.71,0,0,0,1.068.072c.852,0,1.308-.156,1.5-.516a7.283,7.283,0,0,0,.324-2.448,2.844,2.844,0,0,1,.048-.492,8.435,8.435,0,0,1-.912.036Zm17.52-1.188v.972H130.38a8.187,8.187,0,0,1-1.044-.036,5.924,5.924,0,0,1,.036.816v1.6c0,.216-.012.4-.024.612a.8.8,0,0,1-.012.156,9.693,9.693,0,0,1,1.1-.048h1.212a3.084,3.084,0,0,1-1.116,1.512,6.311,6.311,0,0,1-2.292,1.008,2.868,2.868,0,0,1,.576.8c1.932-.648,2.976-1.512,3.516-2.892a6.263,6.263,0,0,0,3.564,2.844,2.867,2.867,0,0,1,.54-.84,7.176,7.176,0,0,1-2.16-.972,4.547,4.547,0,0,1-1.332-1.464h1.536a10.339,10.339,0,0,1,1.152.048,7.047,7.047,0,0,1-.036-.924V26.38c0-.3.012-.516.036-.9-.3.024-.576.036-1.08.036H132.84v-.972h.852a7.9,7.9,0,0,1,1.032.048v-.636a8.508,8.508,0,0,0,1.38.744,2.515,2.515,0,0,1,.564-.852A7.1,7.1,0,0,1,132.84,21h-.948a6.613,6.613,0,0,1-1.848,2.04,7.889,7.889,0,0,1-1.584.924c.18-.4.228-.528.324-.744a11.519,11.519,0,0,1,.588-1.38l-.48-.516a3.694,3.694,0,0,1-.756.048H126.6a7.64,7.64,0,0,1-.852-.036c.024.348.036.624.036.96v8.4a7.723,7.723,0,0,1-.072,1.188h1.02a7.709,7.709,0,0,1-.06-1.176V22.18h1.62a19.005,19.005,0,0,1-1.224,2.964,3.025,3.025,0,0,1,.72,1.02,3.934,3.934,0,0,1,.336,1.608c0,.576-.132.72-.648.72a3.315,3.315,0,0,1-.624-.072,1.979,1.979,0,0,1,.24.888,2.441,2.441,0,0,0,.264.012,2.615,2.615,0,0,0,.984-.132q.648-.234.648-1.224a5.151,5.151,0,0,0-.144-1.272,3.705,3.705,0,0,0-.9-1.668c.228-.432.276-.528.492-.984a1.774,1.774,0,0,1,.54.708,8.165,8.165,0,0,0,1.332-.816v.66a8.435,8.435,0,0,1,1.056-.048Zm-.012,1.74a11.425,11.425,0,0,1-.156,1.548h-1.68V26.284Zm2.748,0v1.548h-2.1a12.653,12.653,0,0,0,.144-1.548Zm-3.4-2.52c-.372,0-.54,0-.816-.024a8.021,8.021,0,0,0,1.848-2,8.743,8.743,0,0,0,2.028,2.016c-.2.012-.456.012-.732.012ZM147.6,24.4v2.388h-1.344a7.486,7.486,0,0,1-1.164-.072v.96a9.034,9.034,0,0,1,1.26-.072H147.6V30.58h-2.076a10.2,10.2,0,0,1-1.332-.072v1a8.995,8.995,0,0,1,1.332-.084h4.908a9,9,0,0,1,1.332.084v-1a10.2,10.2,0,0,1-1.332.072h-1.944V27.6H150a8.614,8.614,0,0,1,1.248.072v-.96a8.209,8.209,0,0,1-1.236.072h-1.524V24.4h1.752a10.932,10.932,0,0,1,1.26.072V23.5a7.718,7.718,0,0,1-1.26.072h-1.752v-1.38a7.542,7.542,0,0,1,.084-1.224h-1.056a7.847,7.847,0,0,1,.084,1.224v1.38h-1.392c.1-.384.228-1.008.276-1.284a2.055,2.055,0,0,1,.072-.312l-.96-.18a5.5,5.5,0,0,1-.12,1.092,7.885,7.885,0,0,1-1.332,3.252,5.022,5.022,0,0,1,.792.456,8.746,8.746,0,0,0,1.032-2.2Zm-6.06,2.328a14.023,14.023,0,0,0,.552-3.312l-.744-.12a10.933,10.933,0,0,1-.54,3.144Zm1.884,5.232a11.142,11.142,0,0,1-.072-1.356V22.18a9.529,9.529,0,0,1,.072-1.236h-1.068a7.9,7.9,0,0,1,.084,1.236v8.364a10.45,10.45,0,0,1-.084,1.416Zm1.344-7.14a9.952,9.952,0,0,0-.576-1.8l-.624.252a6.275,6.275,0,0,1,.516,1.836Zm16.956,5.388a2.354,2.354,0,0,1,.516.972,7.934,7.934,0,0,0,2-.624,4.428,4.428,0,0,0,2.628-4.152c0-2.532-1.812-4.212-4.536-4.212a5.127,5.127,0,0,0-3.948,1.62,5,5,0,0,0-1.284,3.36c0,1.752.888,3.036,2.1,3.036.9,0,1.62-.72,2.3-2.292a17.442,17.442,0,0,0,1.2-4.8,3.167,3.167,0,0,1,1.344.324,3.1,3.1,0,0,1,1.776,2.916,3.524,3.524,0,0,1-1.9,3.2A6.562,6.562,0,0,1,161.724,30.208Zm-.048-7.068a16.385,16.385,0,0,1-1.068,4.32c-.492,1.128-.948,1.68-1.416,1.68-.624,0-1.1-.864-1.1-1.956a4.1,4.1,0,0,1,1.872-3.48A3.394,3.394,0,0,1,161.676,23.14Zm11.52.564a1.629,1.629,0,0,1,.216-.012,1.949,1.949,0,0,1,.216.012c.972.036,1.524.048,1.656.048h.4c-.048.84-.048.84-.06,1.7a4.134,4.134,0,0,0-2.8,3.648,1.707,1.707,0,0,0,1.62,1.9,3.986,3.986,0,0,0,2.712-1.416,10.815,10.815,0,0,0,2.34-3.6c1.176.324,1.812,1.008,1.812,1.968a2.591,2.591,0,0,1-2.04,2.316,5.8,5.8,0,0,1-1.788.3,2.914,2.914,0,0,1,.456.96,6.657,6.657,0,0,0,2.46-.672,3.115,3.115,0,0,0,1.932-2.844,2.916,2.916,0,0,0-2.544-2.82c.228-.564.348-.864.372-.912l-.984-.288a4.739,4.739,0,0,1-.276,1.032c-.3-.024-.444-.036-.672-.036a6.419,6.419,0,0,0-1.692.216c0-.468.012-.564.072-1.476a36.767,36.767,0,0,0,4.248-.456,3.668,3.668,0,0,1,.432-.06l-.06-1a19.235,19.235,0,0,1-4.56.66,7.733,7.733,0,0,1,.24-1.62l-1.092-.072c.012.1.024.156.024.192,0,.108-.024.54-.036.684-.048.588-.048.588-.072.852h-.288a9.225,9.225,0,0,1-2.232-.18Zm2.436,2.688a16.657,16.657,0,0,0,.228,3.1,1.986,1.986,0,0,1-1.284.576c-.492,0-.816-.408-.816-1.032a2.659,2.659,0,0,1,.684-1.692A3.965,3.965,0,0,1,175.632,26.392Zm1.02,2.5v-.072c0-.048-.012-.156-.024-.276a22.031,22.031,0,0,1-.12-2.472,4.73,4.73,0,0,1,1.584-.276,3.546,3.546,0,0,1,.516.024,9.922,9.922,0,0,1-1.644,2.7c-.2.252-.2.252-.288.372Zm13.332-5.88a5.978,5.978,0,0,1,.636-.06c1.752-.072,3.108-.144,3.552-.216a.264.264,0,0,0,.1-.012l.012.024-.132.132-.1.1a39.038,39.038,0,0,1-5.58,4.62l.612.912a7.621,7.621,0,0,1,5.04-2.04c1.572,0,2.52.66,2.52,1.764a1.835,1.835,0,0,1-.816,1.536,2.889,2.889,0,0,1-.984.456,3.365,3.365,0,0,0-.54-1.14,2.462,2.462,0,0,0-2-.984,1.537,1.537,0,0,0-1.476,2.5,3.116,3.116,0,0,0,2.436.78c2.652,0,4.416-1.272,4.416-3.168,0-1.56-1.3-2.568-3.312-2.568a5.872,5.872,0,0,0-2.82.7l-.024-.048a28.823,28.823,0,0,0,3.876-3.276,2.167,2.167,0,0,1,.612-.5l-.576-.78a1.215,1.215,0,0,1-.624.144c-1.068.084-2.652.156-3.66.156a6.351,6.351,0,0,1-1.212-.072Zm3.924,7.452a4.18,4.18,0,0,1-.792.072c-1.044,0-1.7-.36-1.7-.924,0-.42.348-.684.888-.684C193.116,28.924,193.656,29.452,193.908,30.46Zm13.572-2.268c-.36,0-2.124.012-2.34.012a10.681,10.681,0,0,1-1.428-.072l.144.948a5.379,5.379,0,0,1,.66-.048c1.32-.024,2.328-.048,3.72-.108v1.932a6.025,6.025,0,0,1-.072,1.092h1.068a5.643,5.643,0,0,1-.072-1.092V28.888c1.332-.048,1.836-.084,3.624-.2.216.276.312.4.6.78l.684-.552a12.8,12.8,0,0,0-2.088-2.1l-.624.468c.4.336.54.456.8.72-1.284.1-2.28.144-3.42.168a17.22,17.22,0,0,0,2.34-1.872c.1-.084.108-.108.18-.168l-.84-.468a12.117,12.117,0,0,1-2.124,1.956c-.48-.4-.48-.4-.852-.684a11.688,11.688,0,0,0,1.536-1.368l-.744-.492c.252-.06.492-.108.924-.192l-.012-.744c-.72.156-1,.216-1.776.336V23.008h.792a6.918,6.918,0,0,1,.972.048v-.864a5.431,5.431,0,0,1-.972.06h-.792a6.091,6.091,0,0,1,.072-1.164h-.984a6.524,6.524,0,0,1,.072,1.116v2.4c-.3.036-.3.036-1.188.156V23.068a6.03,6.03,0,0,1,.072-1.056h-.984a5.875,5.875,0,0,1,.072,1.08v1.752c-.336.036-.768.06-.9.06a.861.861,0,0,1-.156-.012l.156.948c.192-.036.252-.048.684-.108,1.716-.252,2.616-.4,3.936-.66a5.506,5.506,0,0,1-1.392,1.4c-.336-.24-.456-.324-.9-.612l-.708.564a20.114,20.114,0,0,1,2.412,1.668Zm3.108-4.848a15.63,15.63,0,0,0,3.276-1.1l-.636-.72a7.815,7.815,0,0,1-2.64,1.044v-.6a4.326,4.326,0,0,1,.06-.876h-1a4.7,4.7,0,0,1,.072.9V24.6c0,.672.36.816,2.052.816,1.212,0,1.716-.1,1.98-.384.192-.216.264-.492.36-1.3a2.324,2.324,0,0,1-.852-.348,2.776,2.776,0,0,1-.132.984c-.1.18-.516.252-1.512.252-.876,0-1.032-.06-1.032-.372Zm-4.116,5.9a6.143,6.143,0,0,1-2.676,1.776,2.475,2.475,0,0,1,.672.72,8.407,8.407,0,0,0,2.784-2.076Zm3.732.36a8.47,8.47,0,0,0,3.072,2.1,2.5,2.5,0,0,1,.576-.768,6.9,6.9,0,0,1-2.928-1.776Zm10.9-3.624a8.12,8.12,0,0,1,1.656,1.536,9.768,9.768,0,0,1-3.4,3.552,2.548,2.548,0,0,1,.7.78,11.143,11.143,0,0,0,4.74-7.476,8.981,8.981,0,0,0,1.6,2.268v3.744a10.8,10.8,0,0,1-.084,1.5h1.08a10.346,10.346,0,0,1-.084-1.5V27.5a12.911,12.911,0,0,0,2.352,1.56,4.262,4.262,0,0,1,.564-.912,11.445,11.445,0,0,1-2.916-1.776V22.324a8.332,8.332,0,0,1,.084-1.284h-1.08a8.333,8.333,0,0,1,.084,1.284v3.12A8.758,8.758,0,0,1,225,23.1c.036-.18.036-.228.084-.456-.252.024-.516.036-.96.036H222.3c.132-.4.18-.564.276-.864a4.967,4.967,0,0,1,.24-.684l-1.008-.192a8.929,8.929,0,0,1-.372,1.512,10.316,10.316,0,0,1-2.388,3.972,2.2,2.2,0,0,1,.6.78,11.959,11.959,0,0,0,2.34-3.708H224.1a13.307,13.307,0,0,1-.924,3.18,10.394,10.394,0,0,0-1.536-1.392Zm13.644,1.032a3.984,3.984,0,0,1,.528-.072c1.02-.06,1.02-.06,1.3-.084V30.7a9.207,9.207,0,0,1-.072,1.224h.972a6.814,6.814,0,0,1-.072-1.212V26.788c.36-.036.492-.048.672-.072.228-.036.228-.036.36-.048.036.156.072.276.132.54l.684-.324a12.553,12.553,0,0,0-.816-2.184l-.648.276a7.76,7.76,0,0,1,.42.984c-.564.072-.96.108-1.692.156.7-.924,1.092-1.476,1.476-2.076.516-.816.516-.816.84-1.3l-.816-.42a11.476,11.476,0,0,1-1.176,2.1c-.264-.324-.372-.444-.648-.768a15.851,15.851,0,0,0,1.152-1.944,3.571,3.571,0,0,1,.276-.492l-.864-.336a7.7,7.7,0,0,1-1.092,2.22l-.54-.54-.492.7a14.111,14.111,0,0,1,1.752,1.824c-.336.48-.336.48-.792,1.068-.288.012-.288.012-.492.012a2.851,2.851,0,0,1-.468-.036Zm5.772-5.064a9.076,9.076,0,0,1-1.14-.048c.024.312.048.684.048,1.14v1.992c0,.456-.024.828-.048,1.128a10.339,10.339,0,0,1,1.152-.048h1.1v4.536c0,.2-.084.252-.4.252a8.566,8.566,0,0,1-1.116-.1,2.786,2.786,0,0,1,.252.888c.192.024.648.036.876.036.924,0,1.236-.228,1.236-.912V29.44c-.012-.492-.036-1.116-.12-2.016a8.043,8.043,0,0,0,1.368,2.616,7.606,7.606,0,0,0,1.428,1.416,2.53,2.53,0,0,1,.588-.828,7.459,7.459,0,0,1-2.076-2.04A17.933,17.933,0,0,0,245.316,27l-.624-.576a10.2,10.2,0,0,1-1.428,1.512,6.16,6.16,0,0,1-.744-1.824h1.152a10.013,10.013,0,0,1,1.128.048,9.259,9.259,0,0,1-.048-1.116V23.056A9.8,9.8,0,0,1,244.8,21.9a9.076,9.076,0,0,1-1.14.048h-1.476c.156-.312.264-.564.408-.924l-.972-.168a4.72,4.72,0,0,1-.36,1.092Zm-.264.732h3.66v.972h-3.66Zm0,1.7h3.66V25.4h-3.66Zm-5,3.2a10.877,10.877,0,0,1-.6,3.288l.744.384a12.864,12.864,0,0,0,.624-3.552Zm2.556.144a14.485,14.485,0,0,1,.42,2.364l.708-.228a17.477,17.477,0,0,0-.48-2.328Zm3.228-.612a3.489,3.489,0,0,1-.6.036h-.672a3.582,3.582,0,0,1-.8-.06v.876a4.835,4.835,0,0,1,.78-.048h.708a5.926,5.926,0,0,1-2.244,2.8,2.206,2.206,0,0,1,.6.672,8.394,8.394,0,0,0,1.224-1.224,7.98,7.98,0,0,0,1.068-1.824,6.033,6.033,0,0,1,.324-.792Zm19.559-4.308a15.1,15.1,0,0,1-2.58-.144l-.024.984a1.137,1.137,0,0,1,.252-.024,2.067,2.067,0,0,1,.24.012c.252.012,1.44.036,1.68.036.048,0,.18-.012.216-.012-.072.132-.072.132-.108.192a11.946,11.946,0,0,1-2.628,3.312l.792.792a4.3,4.3,0,0,1,.96-1.02,4.392,4.392,0,0,1,2.6-1.26c.54,0,.816.264.888.852a9.451,9.451,0,0,0-1.764.96,2.5,2.5,0,0,0-1.272,1.944,1.6,1.6,0,0,0,.816,1.44,4.969,4.969,0,0,0,2.46.468,20.23,20.23,0,0,0,2.988-.228,2.855,2.855,0,0,1,.492-.06l-.108-1.1a10.086,10.086,0,0,1-3.264.48c-1.692,0-2.376-.312-2.376-1.068a1.435,1.435,0,0,1,.708-1.128,7.363,7.363,0,0,1,1.44-.792v.372a15.094,15.094,0,0,1-.072,1.6l.984-.012a3.3,3.3,0,0,1-.024-.492V28.42c.012-.24.012-.492.012-.624,0-.264,0-.3-.012-.7a18.468,18.468,0,0,1,3.18-1.02l-.432-.984a3.372,3.372,0,0,1-.84.348c-.588.2-1.08.384-2.016.744a1.489,1.489,0,0,0-1.62-1.308,3.1,3.1,0,0,0-1.656.492,2.719,2.719,0,0,0-.408.3,1.641,1.641,0,0,0-.168.12.149.149,0,0,1-.024-.036l.024-.024c0-.012.048-.048.12-.1a3.379,3.379,0,0,0,.384-.444,9.025,9.025,0,0,0,.972-1.524c1.176-.036,2.712-.144,3.54-.252.7-.1.7-.1.924-.12l-.072-.96a15.87,15.87,0,0,1-3.24.42c-.672.036-.672.036-.756.048a7.841,7.841,0,0,0,.36-.8,2.589,2.589,0,0,1,.288-.612l-1.128-.168a5.217,5.217,0,0,1-.54,1.6ZM2.856,41.692a6.814,6.814,0,0,1-1.308-.084l.024,1.068a8.257,8.257,0,0,1,1.272-.06L4.968,42.6a7.448,7.448,0,0,1-.72,2.748,7,7,0,0,1-3.12,3.12,3.078,3.078,0,0,1,.744.864A8.574,8.574,0,0,0,5.04,46.108,8.745,8.745,0,0,0,6,42.6l3.2-.012a27.507,27.507,0,0,1-.288,4.14c-.216,1.152-.408,1.428-.972,1.428a5.584,5.584,0,0,1-1.56-.3,2.559,2.559,0,0,1,.168,1.08,7.418,7.418,0,0,0,1.5.18c1.176,0,1.56-.456,1.86-2.22a38.016,38.016,0,0,0,.324-4.14,1.768,1.768,0,0,1,.1-.732l-.5-.444a2.282,2.282,0,0,1-.84.084l-2.9.012c.024-.384.036-.528.048-.828a10.856,10.856,0,0,1,.108-1.524L5.088,39.3a4.927,4.927,0,0,1,.036.636c0,.492-.024,1.152-.072,1.74ZM17.7,42.64a10.147,10.147,0,0,1,1.116,2.736l.972-.324A13.814,13.814,0,0,0,18.6,42.34Zm2.5-.5a11.1,11.1,0,0,1,1.1,2.676l.948-.324a12.842,12.842,0,0,0-1.164-2.628Zm4.152-.048a6.732,6.732,0,0,1-.432,1.98,7.413,7.413,0,0,1-4.536,4.668,3.059,3.059,0,0,1,.684.816,9.329,9.329,0,0,0,3.456-2.676,9.928,9.928,0,0,0,1.728-4.008,5.135,5.135,0,0,1,.156-.552ZM35.856,49.42a10.7,10.7,0,0,1-.06-1.392V44.9a7.109,7.109,0,0,0-.048-.984,2.47,2.47,0,0,0,.4.2,25.493,25.493,0,0,1,4.416,2.352l.6-1.044A31.411,31.411,0,0,0,35.8,42.892V40.756a9.562,9.562,0,0,1,.06-1.356H34.644a6.737,6.737,0,0,1,.072,1.32v7.308a8.47,8.47,0,0,1-.072,1.392ZM49.5,39.568a6.3,6.3,0,0,1,.036.672c0,.18,0,.456-.012.8-.084,3.768-.1,4.14-.1,4.872A6.127,6.127,0,0,0,49.6,47.5a2.522,2.522,0,0,0,.888,1.284,3.553,3.553,0,0,0,2,.516A4.32,4.32,0,0,0,55.9,47.8a7.464,7.464,0,0,0,1.356-2.82,3.8,3.8,0,0,1-1.02-.684,6.72,6.72,0,0,1-.588,1.92A3.343,3.343,0,0,1,52.56,48.3a2.022,2.022,0,0,1-1.752-.708,3.4,3.4,0,0,1-.336-1.944c0-.8.072-3.708.12-4.584a9.65,9.65,0,0,1,.132-1.488ZM73,47.944c-.168-.1-.216-.144-.42-.276a10.771,10.771,0,0,0-3.336-1.74c-.024-.492-.024-.492-.06-1.716.624-.036,1.692-.132,2.16-.2.924-.132.96-.144,1.164-.156l-.048-.972a15.246,15.246,0,0,1-3.288.468c-.012-.66-.024-.84-.024-1.488,1.092-.06,1.692-.12,2.724-.264a6.739,6.739,0,0,1,.864-.108l-.048-.972a15.87,15.87,0,0,1-3.54.48,11.657,11.657,0,0,1,.084-1.62h-1.08a9.078,9.078,0,0,1,.06,1.656c-.36.012-.78.024-1.008.024a15.721,15.721,0,0,1-3.12-.24l-.012.972a.98.98,0,0,1,.168-.012,2.066,2.066,0,0,1,.24.012c.852.06,2.172.12,2.892.12.228,0,.432,0,.84-.012,0,.192.012.312.024,1.5-.408.012-.768.024-1.044.024a15.121,15.121,0,0,1-2.772-.192l-.012.936h.108c.072,0,.168,0,.312.012a20.586,20.586,0,0,0,2.064.1c.3,0,.72-.012,1.356-.024.036,1.236.036,1.236.06,1.524a7.184,7.184,0,0,0-1.056-.072c-1.848,0-2.964.708-2.964,1.884,0,1.056.948,1.716,2.46,1.716,1.14,0,1.944-.3,2.256-.852a2.577,2.577,0,0,0,.288-1.236,3.042,3.042,0,0,0-.012-.312,7.563,7.563,0,0,1,.7.312A8.958,8.958,0,0,1,72.42,48.94Zm-4.68-1.272s.012.312.012.408a1.415,1.415,0,0,1-.24.984,1.729,1.729,0,0,1-1.272.372c-.96,0-1.536-.324-1.536-.876a.729.729,0,0,1,.192-.5,2.425,2.425,0,0,1,1.668-.5A4.715,4.715,0,0,1,68.316,46.672Zm16.26-5.784c-1.344.036-1.872.048-2.892.084-1.812.072-1.884.072-2.208.072-.18,0-.276,0-.516-.012L79,42.064c.744-.12,3.54-.276,5.592-.312,0,.66.012,1.284.024,1.392v.084a1.807,1.807,0,0,0-1.332-.48,2.07,2.07,0,0,0-2.22,2.04,2.073,2.073,0,0,0,3.552,1.332,1.909,1.909,0,0,0,.324-.528,2.692,2.692,0,0,1-.348,1.212A4.384,4.384,0,0,1,81.6,48.748a3.09,3.09,0,0,1,.612.924,7.743,7.743,0,0,0,1.98-.972,3.774,3.774,0,0,0,1.644-3.168,3.477,3.477,0,0,0-.3-1.488v-2.3c.96-.012,1.164-.012,1.332-.012a20.824,20.824,0,0,1,2.208.06V40.78c-.4.048-1.308.072-3.552.084a10.292,10.292,0,0,1,.06-1.572H84.5a5.38,5.38,0,0,1,.06.7Zm-1.212,2.664a1.357,1.357,0,0,1,.948.348.807.807,0,0,1,.24.636,1.269,1.269,0,0,1-1.332,1.32,1.106,1.106,0,0,1-1.176-1.14A1.222,1.222,0,0,1,83.364,43.552ZM94.884,46.1a1.866,1.866,0,1,0,1.86,1.86A1.872,1.872,0,0,0,94.884,46.1Zm0,.768a1.092,1.092,0,1,1-1.092,1.092A1.086,1.086,0,0,1,94.884,46.864ZM109.2,38.68V50.2h9.6V38.68Zm8.58.624-3.768,4.644-3.78-4.644Zm.4,9.792-3.768-4.644,3.768-4.644Zm-7.932.48,3.768-4.632,3.756,4.632Zm-.42-.468V39.784l3.78,4.668ZM1.2,56.68V68.2h9.6V56.68Zm8.58.624L6.012,61.948,2.232,57.3Zm.4,9.792L6.408,62.452l3.768-4.644Zm-7.932.48,3.768-4.632,3.756,4.632Zm-.42-.468V57.784L5.6,62.452ZM5,79.85,1.46,76.3l-.33.33L4.68,80.2,1.13,83.75l.33.33L5,80.56l3.55,3.52.32-.33L5.32,80.2l3.55-3.57-.32-.33Zm.01-3.31a.768.768,0,0,0-.77.76.777.777,0,0,0,.77.77.765.765,0,0,0,0-1.53ZM2.14,79.43a.762.762,0,0,0-.77.76.777.777,0,0,0,.77.77.765.765,0,0,0,0-1.53Zm5.72.01a.76.76,0,1,0,.76.76A.76.76,0,0,0,7.86,79.44ZM5,82.34l-.02.01c-.01,0-.01,0-.02-.01H4.93A.772.772,0,0,0,5,83.88a.775.775,0,0,0,.76-.77A.762.762,0,0,0,5,82.34Zm14.05-6.05a6.694,6.694,0,0,1,.08,1.21v3.62a1.973,1.973,0,0,1-2.18,2.2,1.985,1.985,0,0,1-2.19-2.2V77.5a6.352,6.352,0,0,1,.08-1.21h-1.1a6.625,6.625,0,0,1,.08,1.21v3.65c0,1.93,1.11,3,3.11,3a3.239,3.239,0,0,0,2.35-.82,3.005,3.005,0,0,0,.79-2.18V77.48a6.525,6.525,0,0,1,.08-1.19Zm6.46,1.03a6.656,6.656,0,0,1-.28-1.03H24.02a9.925,9.925,0,0,1,.51,1.17l2.14,5.58a7.847,7.847,0,0,1,.32.96h1.18a7.522,7.522,0,0,1,.31-.96l2.14-5.58a7.526,7.526,0,0,1,.51-1.17H29.92a4.779,4.779,0,0,1-.29,1.03l-1.81,5.07c-.08.21-.12.33-.24.72-.11-.36-.19-.6-.23-.72Zm12.109,4.209H34.953V80.9h2.666ZM48.789,84a9.514,9.514,0,0,1-.53-1.16l-2.24-5.6a6.879,6.879,0,0,1-.34-.95h-1.22a5.738,5.738,0,0,1-.32.95l-2.23,5.6a8.55,8.55,0,0,1-.53,1.16h1.21a5.373,5.373,0,0,1,.31-1.03l.48-1.24h3.41l.49,1.24a7.742,7.742,0,0,1,.3,1.03Zm-2.28-3.09h-2.85l1.21-3.2c.02-.05.05-.15.1-.29.02-.07.06-.19.11-.33.18.53.18.53.21.62Zm10.01-.78a6.907,6.907,0,0,0,1.51,2.53,7.244,7.244,0,0,1-2.38,1.39,2.031,2.031,0,0,1,.46.69,8.481,8.481,0,0,0,2.44-1.58,8.808,8.808,0,0,0,2.56,1.55,2.75,2.75,0,0,1,.47-.73,8.384,8.384,0,0,1-2.54-1.32,8.553,8.553,0,0,0,1.5-2.36,2.824,2.824,0,0,1,.21-.45l-.42-.43a3.721,3.721,0,0,1-.8.05h-.96V77.62h1.91a4.5,4.5,0,0,1-.62,1.08,3.072,3.072,0,0,1,.72.27,13.655,13.655,0,0,0,.68-1.3,2.681,2.681,0,0,1,.21-.37l-.42-.41a4.482,4.482,0,0,1-.94.05h-1.54v-.33a4.371,4.371,0,0,1,.06-.98h-.85a5.546,5.546,0,0,1,.06.98v.33h-1.48a6.489,6.489,0,0,1-.99-.05,11.137,11.137,0,0,1,.05,1.38,17.227,17.227,0,0,1-.36,4.21,4.791,4.791,0,0,1-.8,1.74,2.091,2.091,0,0,1,.64.5,5.643,5.643,0,0,0,.82-1.81,11.631,11.631,0,0,0,.4-2.78Zm-.38-.66c.02-.47.02-.76.02-1.14v-.71h1.68v1.85Zm3.68.66a6.734,6.734,0,0,1-1.29,2.05,5.565,5.565,0,0,1-1.28-2.05Zm-4.8-2.94a10.52,10.52,0,0,0-1.62-1.32l-.5.54a8.053,8.053,0,0,1,1.62,1.36Zm-2.6,1.66a8.791,8.791,0,0,1,1.68,1.29l.45-.66a11.286,11.286,0,0,0-1.69-1.21Zm1.43,2.2a8.649,8.649,0,0,1-1.38,3.02l.68.59a15.378,15.378,0,0,0,1.31-3.15Zm13.14-3.95h2.35a7.618,7.618,0,0,1,1.23.08v-.97a7.135,7.135,0,0,1-1.24.08h-2.16a7.031,7.031,0,0,1-1.07-.05c.02.31.02.32.02.35a4.174,4.174,0,0,1-.04.68l-.22,2.32a8.553,8.553,0,0,1-.14,1.04l.89.08a1.09,1.09,0,0,1,.27-.42,1.932,1.932,0,0,1,1.36-.57,1.622,1.622,0,0,1,1.77,1.76,1.719,1.719,0,0,1-1.81,1.84,1.776,1.776,0,0,1-1.36-.56,1.625,1.625,0,0,1-.31-.59l-.98.26a2.907,2.907,0,0,0,.63.98,2.751,2.751,0,0,0,2.01.74,2.563,2.563,0,0,0,2.79-2.71,2.362,2.362,0,0,0-2.52-2.5,2.415,2.415,0,0,0-1.74.68,2.055,2.055,0,0,0,.07-.45Zm11,7.04a2.575,2.575,0,0,0,2.22-1.08,5.333,5.333,0,0,0,.71-2.91,6.644,6.644,0,0,0-.39-2.32,2.586,2.586,0,0,0-2.52-1.68,2.561,2.561,0,0,0-2.33,1.28,5.731,5.731,0,0,0-.59,2.73,6.652,6.652,0,0,0,.39,2.3,2.538,2.538,0,0,0,.61.94A2.585,2.585,0,0,0,77.989,84.14Zm0-7.17a1.613,1.613,0,0,1,1.53.9,5.586,5.586,0,0,1,.43,2.27,6.007,6.007,0,0,1-.29,1.93,1.983,1.983,0,0,1-.47.79,1.621,1.621,0,0,1-1.19.46,1.644,1.644,0,0,1-1.49-.84,5.231,5.231,0,0,1-.46-2.31,6.287,6.287,0,0,1,.29-1.95,1.966,1.966,0,0,1,.44-.74A1.51,1.51,0,0,1,77.989,76.97Zm9.11,3.56a1.7,1.7,0,0,0,1.23-.47,2.3,2.3,0,0,0,.56-1.7c0-1.36-.66-2.15-1.79-2.15a1.723,1.723,0,0,0-1.23.47,2.363,2.363,0,0,0-.56,1.71,2.3,2.3,0,0,0,.56,1.67A1.682,1.682,0,0,0,87.1,80.53Zm0-3.65c.64,0,1.01.54,1.01,1.47,0,.98-.36,1.52-1.01,1.52s-1.01-.54-1.01-1.52C86.089,77.42,86.459,76.88,87.1,76.88Zm-1.01,7.03.44.35,6.13-7.78-.45-.34Zm5.55.28a1.7,1.7,0,0,0,1.23-.47,2.3,2.3,0,0,0,.56-1.7c0-1.36-.65-2.15-1.79-2.15s-1.79.8-1.79,2.15a2.289,2.289,0,0,0,.56,1.7A1.7,1.7,0,0,0,91.639,84.19Zm0-3.65c.64,0,1.01.54,1.01,1.47,0,.98-.36,1.52-1.01,1.52s-1.01-.54-1.01-1.52C90.629,81.08,91,80.54,91.639,80.54Zm13.43-4.6a3.031,3.031,0,0,1,.03.55c0,3.11-.94,5.2-2.94,6.55a8.861,8.861,0,0,1-2,1,2.208,2.208,0,0,1,.5.71,8.144,8.144,0,0,0,3.57-2.59,7.879,7.879,0,0,0,2.31,2.51,3.066,3.066,0,0,1,.53-.78,6.169,6.169,0,0,1-2.38-2.43,7.277,7.277,0,0,0,.71-1.58,14.409,14.409,0,0,0,.5-2.82,10.337,10.337,0,0,1,.09-1.1Zm-6.08,6.43a7.692,7.692,0,0,1-1.07.33l.25.87a5.646,5.646,0,0,1,.62-.27,23.531,23.531,0,0,0,3.92-1.91l-.16-.74a18.354,18.354,0,0,1-2.76,1.41l-.05-4.99v-.14a6.555,6.555,0,0,1,.06-.96h-.94a6.056,6.056,0,0,1,.08,1.09Zm1.96-5.31a10.673,10.673,0,0,1,1.89,2.47l.72-.5a13.915,13.915,0,0,0-1.95-2.41Zm14.61,2.53h2.49a8.488,8.488,0,0,1,1.07.06v-.88a8.267,8.267,0,0,1-1.07.06h-2.49V76.87a7.121,7.121,0,0,1,.07-1.07h-.98a7.591,7.591,0,0,1,.07,1.07v6.67h-2.56a10.566,10.566,0,0,1-1.24-.06v.89a9.644,9.644,0,0,1,1.24-.07h6.57a8.61,8.61,0,0,1,1.18.07v-.89a10.122,10.122,0,0,1-1.19.06h-3.16Zm8.24,2.9a9.906,9.906,0,0,1,2.03,2.21l.68-.65a10.856,10.856,0,0,0-2.08-2.14Zm18.62-6.2a6.7,6.7,0,0,1,.08,1.21v3.62a2.185,2.185,0,1,1-4.37,0V77.5a6.353,6.353,0,0,1,.08-1.21h-1.1a6.625,6.625,0,0,1,.08,1.21v3.65c0,1.93,1.11,3,3.11,3a3.239,3.239,0,0,0,2.35-.82,3.005,3.005,0,0,0,.79-2.18V77.48a6.525,6.525,0,0,1,.08-1.19Zm6.46,1.03a6.657,6.657,0,0,1-.28-1.03h-1.21a9.926,9.926,0,0,1,.51,1.17l2.14,5.58a7.847,7.847,0,0,1,.32.96h1.18a7.523,7.523,0,0,1,.31-.96l2.14-5.58a7.525,7.525,0,0,1,.51-1.17h-1.21a4.779,4.779,0,0,1-.29,1.03l-1.81,5.07c-.08.21-.12.33-.24.72-.11-.36-.19-.6-.23-.72Zm12.109,4.209h-2.666V80.9h2.666Zm5.53-5.239c-.59,0-.85-.01-1.14-.02a6.362,6.362,0,0,1,.08,1.11v5.38a6.32,6.32,0,0,1-.09,1.26c.37-.02.65-.02,1.15-.02h2.31c1.57,0,2.46-.77,2.46-2.13a1.943,1.943,0,0,0-.61-1.51,1.749,1.749,0,0,0-.98-.43,1.83,1.83,0,0,0,.78-.41,1.726,1.726,0,0,0,.54-1.35c0-1.21-.83-1.88-2.3-1.88Zm-.13,3.26V77.1h2.27c.93,0,1.41.4,1.41,1.17,0,.82-.51,1.28-1.4,1.28Zm0,.8h2.31c1.07,0,1.62.49,1.62,1.43,0,.92-.56,1.41-1.59,1.41h-2.34Zm13.05-.22a6.907,6.907,0,0,0,1.51,2.53,7.244,7.244,0,0,1-2.38,1.39,2.031,2.031,0,0,1,.46.69,8.481,8.481,0,0,0,2.44-1.58,8.808,8.808,0,0,0,2.56,1.55,2.75,2.75,0,0,1,.47-.73,8.384,8.384,0,0,1-2.54-1.32,8.553,8.553,0,0,0,1.5-2.36,2.824,2.824,0,0,1,.21-.45l-.42-.43a3.721,3.721,0,0,1-.8.05h-.96V77.62h1.91a4.5,4.5,0,0,1-.62,1.08,3.072,3.072,0,0,1,.72.27,13.654,13.654,0,0,0,.68-1.3,2.682,2.682,0,0,1,.21-.37l-.42-.41a4.482,4.482,0,0,1-.94.05h-1.54v-.33a4.37,4.37,0,0,1,.06-.98h-.85a5.545,5.545,0,0,1,.06.98v.33h-1.48a6.488,6.488,0,0,1-.99-.05,11.139,11.139,0,0,1,.05,1.38,17.227,17.227,0,0,1-.36,4.21,4.791,4.791,0,0,1-.8,1.74,2.091,2.091,0,0,1,.64.5,5.643,5.643,0,0,0,.82-1.81,11.632,11.632,0,0,0,.4-2.78Zm-.38-.66c.02-.47.02-.76.02-1.14v-.71h1.68v1.85Zm3.68.66a6.734,6.734,0,0,1-1.29,2.05,5.565,5.565,0,0,1-1.28-2.05Zm-4.8-2.94a10.52,10.52,0,0,0-1.62-1.32l-.5.54a8.053,8.053,0,0,1,1.62,1.36Zm-2.6,1.66a8.791,8.791,0,0,1,1.68,1.29l.45-.66a11.286,11.286,0,0,0-1.69-1.21Zm1.43,2.2a8.649,8.649,0,0,1-1.38,3.02l.68.59a15.378,15.378,0,0,0,1.31-3.15Zm11.7,1.49a2.446,2.446,0,0,0,2.49,1.58,2.549,2.549,0,0,0,2.09-.88,5.231,5.231,0,0,0,.89-3.34,5.055,5.055,0,0,0-.47-2.44,2.808,2.808,0,1,0-2.58,3.85,2.459,2.459,0,0,0,1.76-.63,1.8,1.8,0,0,0,.44-.56c-.02.46-.05.82-.08,1.04a3.664,3.664,0,0,1-.42,1.26,1.684,1.684,0,0,1-1.57.9,1.639,1.639,0,0,1-1.23-.45,1.606,1.606,0,0,1-.34-.62ZM191,80.53a1.634,1.634,0,0,1-1.72-1.78,1.718,1.718,0,0,1,.5-1.3,1.807,1.807,0,0,1,1.28-.52,1.8,1.8,0,1,1-.06,3.6Zm8.64-3.43h2.35a7.618,7.618,0,0,1,1.23.08v-.97a7.135,7.135,0,0,1-1.24.08h-2.16a7.031,7.031,0,0,1-1.07-.05c.02.31.02.32.02.35a4.173,4.173,0,0,1-.04.68l-.22,2.32a8.553,8.553,0,0,1-.14,1.04l.89.08a1.09,1.09,0,0,1,.27-.42,1.932,1.932,0,0,1,1.36-.57,1.622,1.622,0,0,1,1.77,1.76,1.719,1.719,0,0,1-1.81,1.84,1.776,1.776,0,0,1-1.36-.56,1.625,1.625,0,0,1-.31-.59l-.98.26a2.907,2.907,0,0,0,.63.98,2.751,2.751,0,0,0,2.01.74,2.563,2.563,0,0,0,2.79-2.71,2.362,2.362,0,0,0-2.52-2.5,2.415,2.415,0,0,0-1.74.68,2.057,2.057,0,0,0,.07-.45Zm10.38,3.43a1.7,1.7,0,0,0,1.23-.47,2.3,2.3,0,0,0,.56-1.7c0-1.36-.66-2.15-1.79-2.15a1.723,1.723,0,0,0-1.23.47,2.363,2.363,0,0,0-.56,1.71,2.3,2.3,0,0,0,.56,1.67A1.682,1.682,0,0,0,210.018,80.53Zm0-3.65c.64,0,1.01.54,1.01,1.47,0,.98-.36,1.52-1.01,1.52s-1.01-.54-1.01-1.52C209.008,77.42,209.378,76.88,210.018,76.88Zm-1.01,7.03.44.35,6.13-7.78-.45-.34Zm5.55.28a1.7,1.7,0,0,0,1.23-.47,2.3,2.3,0,0,0,.56-1.7c0-1.36-.65-2.15-1.79-2.15s-1.79.8-1.79,2.15a2.289,2.289,0,0,0,.56,1.7A1.7,1.7,0,0,0,214.558,84.19Zm0-3.65c.64,0,1.01.54,1.01,1.47,0,.98-.36,1.52-1.01,1.52s-1.01-.54-1.01-1.52C213.548,81.08,213.918,80.54,214.558,80.54Zm13.43-4.6a3.031,3.031,0,0,1,.03.55c0,3.11-.94,5.2-2.94,6.55a8.861,8.861,0,0,1-2,1,2.208,2.208,0,0,1,.5.71,8.144,8.144,0,0,0,3.57-2.59,7.879,7.879,0,0,0,2.31,2.51,3.066,3.066,0,0,1,.53-.78,6.169,6.169,0,0,1-2.38-2.43,7.278,7.278,0,0,0,.71-1.58,14.41,14.41,0,0,0,.5-2.82,10.341,10.341,0,0,1,.09-1.1Zm-6.08,6.43a7.692,7.692,0,0,1-1.07.33l.25.87a5.647,5.647,0,0,1,.62-.27,23.531,23.531,0,0,0,3.92-1.91l-.16-.74a18.354,18.354,0,0,1-2.76,1.41l-.05-4.99v-.14a6.556,6.556,0,0,1,.06-.96h-.94a6.057,6.057,0,0,1,.08,1.09Zm1.96-5.31a10.672,10.672,0,0,1,1.89,2.47l.72-.5a13.915,13.915,0,0,0-1.95-2.41Zm14.61,2.53h2.49a8.488,8.488,0,0,1,1.07.06v-.88a8.266,8.266,0,0,1-1.07.06h-2.49V76.87a7.123,7.123,0,0,1,.07-1.07h-.98a7.591,7.591,0,0,1,.07,1.07v6.67h-2.56a10.566,10.566,0,0,1-1.24-.06v.89a9.644,9.644,0,0,1,1.24-.07h6.57a8.61,8.61,0,0,1,1.18.07v-.89a10.122,10.122,0,0,1-1.19.06h-3.16Zm10.19-1.68a5.678,5.678,0,0,1-1.09-.07l.02.89a6.881,6.881,0,0,1,1.06-.05l1.77-.01a6.207,6.207,0,0,1-.6,2.29,5.835,5.835,0,0,1-2.6,2.6,2.565,2.565,0,0,1,.62.72,7.145,7.145,0,0,0,2.64-2.69,7.288,7.288,0,0,0,.8-2.92l2.67-.01a22.92,22.92,0,0,1-.24,3.45c-.18.96-.34,1.19-.81,1.19a4.653,4.653,0,0,1-1.3-.25,2.132,2.132,0,0,1,.14.9,6.182,6.182,0,0,0,1.25.15c.98,0,1.3-.38,1.55-1.85a31.675,31.675,0,0,0,.27-3.45,1.473,1.473,0,0,1,.08-.61l-.42-.37a1.9,1.9,0,0,1-.7.07l-2.42.01c.02-.32.03-.44.04-.69a9.049,9.049,0,0,1,.09-1.27l-.96-.02a4.108,4.108,0,0,1,.03.53c0,.41-.02.96-.06,1.45Zm12.37.79a8.456,8.456,0,0,1,.93,2.28l.81-.27a11.51,11.51,0,0,0-.99-2.26Zm2.08-.42a9.245,9.245,0,0,1,.92,2.23l.79-.27a10.7,10.7,0,0,0-.97-2.19Zm3.46-.04a5.61,5.61,0,0,1-.36,1.65,6.178,6.178,0,0,1-3.78,3.89,2.549,2.549,0,0,1,.57.68,7.774,7.774,0,0,0,2.88-2.23,8.274,8.274,0,0,0,1.44-3.34,4.277,4.277,0,0,1,.13-.46Zm9.59,6.11a8.917,8.917,0,0,1-.05-1.16V80.58a5.925,5.925,0,0,0-.04-.82,2.058,2.058,0,0,0,.33.17,21.242,21.242,0,0,1,3.68,1.96l.5-.87a26.175,26.175,0,0,0-4.47-2.11V77.13a7.967,7.967,0,0,1,.05-1.13h-1.01a5.613,5.613,0,0,1,.06,1.1v6.09a7.056,7.056,0,0,1-.06,1.16Z" transform="translate(107.8 15.256)" fill="#836660"/>
    <path id="パス_20431" data-name="パス 20431" d="M4.5-3.735,1.314-6.93l-.3.3,3.2,3.213-3.2,3.2.3.3L4.5-3.1,7.7.072l.288-.3-3.2-3.2,3.2-3.213L7.7-6.93Zm.009-2.979a.691.691,0,0,0-.693.684.7.7,0,0,0,.693.693.686.686,0,0,0,.684-.693A.684.684,0,0,0,4.509-6.714Zm-2.583,2.6a.686.686,0,0,0-.693.684.7.7,0,0,0,.693.693.686.686,0,0,0,.684-.693A.684.684,0,0,0,1.926-4.113ZM7.074-4.1a.684.684,0,0,0-.684.684.684.684,0,0,0,.684.684.684.684,0,0,0,.684-.684A.684.684,0,0,0,7.074-4.1ZM4.5-1.494l-.018.009c-.009,0-.009,0-.018-.009H4.437a.725.725,0,0,0-.63.693A.724.724,0,0,0,4.5-.108.7.7,0,0,0,5.184-.8.686.686,0,0,0,4.5-1.494Z" transform="translate(354.8 40.958)" fill="#836660"/>
    <rect id="長方形_866" data-name="長方形 866" width="23" height="21" transform="translate(211.8 49.958)" fill="#f1d6da"/>
    <rect id="長方形_661" data-name="長方形 661" width="23" height="21" transform="translate(104.8 65.958)" fill="#f1d6da"/>
  </g>
</svg>
