<svg xmlns="http://www.w3.org/2000/svg" width="230.258" height="230.257" viewBox="0 0 230.258 230.257">
  <g id="グループ_1652" data-name="グループ 1652" transform="translate(0 0)">
    <path id="パス_6953" data-name="パス 6953" d="M476.7,1854.912a115.129,115.129,0,1,1-115.128-115.128A115.129,115.129,0,0,1,476.7,1854.912" transform="translate(-246.438 -1739.784)" fill="#fff"/>
    <path id="パス_6954" data-name="パス 6954" d="M294.04,1872.353c.023-12.943,32.872-23.377,73.372-23.305s73.312,10.622,73.288,23.565-32.872,23.377-73.372,23.305S294.017,1885.3,294.04,1872.353Z" transform="translate(-252.672 -1754.093)" fill="none" stroke="#c4798f" stroke-miterlimit="10" stroke-width="4.76"/>
    <path id="パス_6955" data-name="パス 6955" d="M440.694,1879.6c-.024,13.778-24.273,46.071-73.412,45.984s-73.273-32.467-73.248-46.245" transform="translate(-252.671 -1758.06)" fill="none" stroke="#c4798f" stroke-miterlimit="10" stroke-width="4.76"/>
    <path id="パス_6956" data-name="パス 6956" d="M423.826,1871.247a26.113,26.113,0,0,1,52.217-.995" transform="translate(-269.667 -1753.515)" fill="none" stroke="#c4798f" stroke-linecap="round" stroke-miterlimit="10" stroke-width="4.76" stroke-dasharray="7.933 7.933"/>
    <path id="パス_6957" data-name="パス 6957" d="M431.149,1871.035l-10.456,13.359-9.459-14.083,19.915.724" transform="translate(-268.019 -1756.877)" fill="#c4798f"/>
    <path id="パス_6958" data-name="パス 6958" d="M493.229,1871.023l-10.456,13.359-9.459-14.083,19.915.724" transform="translate(-276.149 -1756.876)" fill="#c4798f"/>
    <line id="線_52" data-name="線 52" x2="7.363" y2="15.214" transform="translate(36.792 74.246)" fill="none" stroke="#c4798f" stroke-linecap="round" stroke-miterlimit="10" stroke-width="4.76"/>
    <line id="線_53" data-name="線 53" x2="15.262" y2="7.263" transform="translate(20.686 91.056)" fill="none" stroke="#c4798f" stroke-linecap="round" stroke-miterlimit="10" stroke-width="4.76"/>
    <line id="線_54" data-name="線 54" x1="2.843" y2="16.661" transform="translate(56.241 71.057)" fill="none" stroke="#c4798f" stroke-linecap="round" stroke-miterlimit="10" stroke-width="4.76"/>
  </g>
</svg>
