<svg xmlns="http://www.w3.org/2000/svg" width="273.504" height="29.112" viewBox="0 0 273.504 29.112">
  <path id="パス_20435" data-name="パス 20435" d="M9.792,3.384a2.4,2.4,0,0,1-.912.1H3.168A8.326,8.326,0,0,1,1.68,3.4v1.14a9.57,9.57,0,0,1,1.464-.072H9.072a8.784,8.784,0,0,1-3.744,5.58A9.37,9.37,0,0,1,2.64,11.3a2.79,2.79,0,0,1,.72,1A11.441,11.441,0,0,0,7.152,10a10.388,10.388,0,0,0,3-5.232,3.115,3.115,0,0,1,.264-.792Zm14.964-.948a4.853,4.853,0,0,1-1.392.576,19.8,19.8,0,0,1-5.064.744c-.18,0-.36-.012-.72-.024a2.826,2.826,0,0,1,.336.948,25,25,0,0,0,3.48-.312c0,.936-.012,1.656-.036,2.112H18.168A7.088,7.088,0,0,1,16.716,6.4V7.464a10.632,10.632,0,0,1,1.44-.06h3.132a4.262,4.262,0,0,1-1.728,3.288,5.9,5.9,0,0,1-1.776.96,2.5,2.5,0,0,1,.768.888,10.269,10.269,0,0,0,1.08-.576,6.271,6.271,0,0,0,1.932-1.92,5.958,5.958,0,0,0,.792-2.64h2.76a10.461,10.461,0,0,1,1.4.06V6.4A6.755,6.755,0,0,1,25.1,6.48H22.416c.024-.384.024-.6.036-2.28a18.965,18.965,0,0,0,2.6-.72,2.883,2.883,0,0,1,.408-.132Zm9.036,7.992c0-.2-.012-.252-.012-.516-.012-.324-.024-.9-.024-1.14A22.235,22.235,0,0,1,34.032,5.1a14.589,14.589,0,0,1,.6-2.388l-1.14-.156a7.362,7.362,0,0,1-.168,1.02A20.6,20.6,0,0,0,32.8,8.328a18.122,18.122,0,0,0,.312,3.42c.036.24.048.312.072.5l1.044-.072a1.792,1.792,0,0,1-.012-.228A9.745,9.745,0,0,1,35.22,8.568l-.72-.336a10.414,10.414,0,0,0-.7,2.2ZM36.06,4.944c.1.012.12.012.192.024a1.481,1.481,0,0,0,.216.024,14.435,14.435,0,0,0,1.608.084,20.733,20.733,0,0,0,2.556-.156q.774-.108.828-.108l-.06-1.02a13.29,13.29,0,0,1-3.288.324,8.291,8.291,0,0,1-2.028-.18Zm.864,2.244a3.506,3.506,0,0,0-1.068,2.268,1.935,1.935,0,0,0,.36,1.152c.5.648,1.4.948,2.82.948a13.732,13.732,0,0,0,2.472-.228c.252-.048.276-.048.432-.072l-.108-1.092a8.318,8.318,0,0,1-2.8.42c-1.452,0-2.2-.408-2.2-1.224a2.722,2.722,0,0,1,.9-1.764ZM48.9,6.948a16.711,16.711,0,0,1,2.016,1.5,6.993,6.993,0,0,1-3.588,3.612,2.909,2.909,0,0,1,.7.828,8.654,8.654,0,0,0,3.612-3.8,19.93,19.93,0,0,1,1.572,1.6l.552-.816a22.937,22.937,0,0,0-1.788-1.68,12.955,12.955,0,0,0,.492-3.06h2.4l-.048,6.528c-.012.648.144.876.636.96a7.238,7.238,0,0,0,1.02.06c.972,0,1.308-.072,1.536-.348A5.134,5.134,0,0,0,58.5,9.7a2.929,2.929,0,0,1-.9-.372,9.092,9.092,0,0,1-.18,2.172c-.084.24-.252.288-.96.288a1.833,1.833,0,0,1-.492-.048c-.18-.036-.228-.108-.228-.312l.048-6.2a10.235,10.235,0,0,1,.06-1.044,11.428,11.428,0,0,1-1.38.06H52.5c.024-.492.024-.78.024-1.188a5.76,5.76,0,0,1,.084-1.008H51.5a7.565,7.565,0,0,1,.084,1.512v.684H49.26a7.541,7.541,0,0,1-1.3-.072V5.2a7.937,7.937,0,0,1,1.32-.072h2.268a13.678,13.678,0,0,1-.336,2.436c-.636-.5-1.02-.792-1.74-1.272ZM64.728,3.936a7.209,7.209,0,0,1,.9-.06c1.368-.06,1.488-.06,2.208-.12-.372,1.272-.528,1.752-.9,2.868a4.276,4.276,0,0,0-2.2.528,2.772,2.772,0,0,0-1.176,3.612,1.666,1.666,0,0,0,1.416.9c.6,0,1.068-.372,1.512-1.176a20.693,20.693,0,0,0,1.14-2.9,9.07,9.07,0,0,1,3.132.948,4.715,4.715,0,0,1-1.092,1.944,5.465,5.465,0,0,1-1.92,1.356,3.043,3.043,0,0,1,.768.756,6.725,6.725,0,0,0,1.884-1.44A5.657,5.657,0,0,0,71.664,9a12.451,12.451,0,0,1,1.8,1.164l.384-1.116c-.156-.072-.24-.12-.324-.168-.672-.4-.888-.516-1.62-.876a15.168,15.168,0,0,0,.216-2.592,4.6,4.6,0,0,1,.06-.756L71.1,4.632a3.039,3.039,0,0,1,.048.6A13.284,13.284,0,0,1,71,7.6a10.135,10.135,0,0,0-3.1-.888c.252-.708.336-.984.552-1.632.468-1.44.492-1.5.66-1.728l-.732-.6a.882.882,0,0,1-.444.144c-.4.048-1.428.1-2.088.1a6.875,6.875,0,0,1-1.164-.072ZM66.66,7.512c-.78,2.3-1.224,3.132-1.692,3.132-.4,0-.72-.468-.72-1.068a1.864,1.864,0,0,1,.54-1.308A2.771,2.771,0,0,1,66.66,7.512ZM82.1,3.816a15.1,15.1,0,0,1-2.58-.144l-.024.984a1.138,1.138,0,0,1,.252-.024,2.067,2.067,0,0,1,.24.012c.252.012,1.44.036,1.68.036.048,0,.18-.012.216-.012-.072.132-.072.132-.108.192a11.946,11.946,0,0,1-2.628,3.312l.792.792a4.294,4.294,0,0,1,.96-1.02,4.392,4.392,0,0,1,2.6-1.26c.54,0,.816.264.888.852a9.45,9.45,0,0,0-1.764.96A2.5,2.5,0,0,0,81.36,10.44a1.6,1.6,0,0,0,.816,1.44,4.969,4.969,0,0,0,2.46.468,20.23,20.23,0,0,0,2.988-.228,2.854,2.854,0,0,1,.492-.06l-.108-1.1a10.086,10.086,0,0,1-3.264.48c-1.692,0-2.376-.312-2.376-1.068a1.435,1.435,0,0,1,.708-1.128,7.362,7.362,0,0,1,1.44-.792V8.82a15.1,15.1,0,0,1-.072,1.6l.984-.012a3.3,3.3,0,0,1-.024-.492V9.42c.012-.24.012-.492.012-.624,0-.264,0-.3-.012-.7a18.469,18.469,0,0,1,3.18-1.02L88.152,6.1a3.372,3.372,0,0,1-.84.348c-.588.2-1.08.384-2.016.744a1.489,1.489,0,0,0-1.62-1.308,3.1,3.1,0,0,0-1.656.492,2.719,2.719,0,0,0-.408.3,1.643,1.643,0,0,0-.168.12.149.149,0,0,1-.024-.036l.024-.024c0-.012.048-.048.12-.1a3.38,3.38,0,0,0,.384-.444,9.023,9.023,0,0,0,.972-1.524c1.176-.036,2.712-.144,3.54-.252.7-.1.7-.1.924-.12l-.072-.96a15.87,15.87,0,0,1-3.24.42c-.672.036-.672.036-.756.048a7.838,7.838,0,0,0,.36-.8,2.587,2.587,0,0,1,.288-.612L82.836,2.22a5.216,5.216,0,0,1-.54,1.6ZM94.836,6.168a5.75,5.75,0,0,1,.9-.3,18.668,18.668,0,0,1,4.872-.852c1.6,0,2.568.792,2.568,2.1,0,1.332-.936,2.4-2.616,2.976a10.983,10.983,0,0,1-3.288.516,3.289,3.289,0,0,1,.432,1.08,10.524,10.524,0,0,0,4.044-.948,4.027,4.027,0,0,0,2.544-3.624c0-1.92-1.428-3.108-3.72-3.108a15.9,15.9,0,0,0-3.444.432,14.272,14.272,0,0,1-2.556.516Zm18.9-.1h.168a1.628,1.628,0,0,1,.216.012c.564.036,1.068.048,1.416.048.54,0,1.284-.036,1.752-.072.012.324.012.672.012.948,0,1.8-.216,2.688-.816,3.444a4.752,4.752,0,0,1-1.836,1.368,3.544,3.544,0,0,1,.8.78,4.645,4.645,0,0,0,2.412-2.532,8.639,8.639,0,0,0,.42-3.24c0-.588,0-.588-.012-.864a10.83,10.83,0,0,0,1.272-.24c.384-.084.432-.1.648-.132l-.06-1.02a6.935,6.935,0,0,1-1.884.492c-.036-1.008-.048-1.644-.06-1.908-.012-.228-.012-.288-.012-.36a2.629,2.629,0,0,1,.024-.4l-1.092.012a23.978,23.978,0,0,1,.156,2.748,13.417,13.417,0,0,1-1.476.072,8.873,8.873,0,0,1-2.052-.168ZM111.48,2.556a3.824,3.824,0,0,1-.1.84,24.976,24.976,0,0,0-.468,4.6,14.632,14.632,0,0,0,.444,3.66,3.688,3.688,0,0,1,.1.42l.984-.06a4.513,4.513,0,0,1,.348-1.548,17.177,17.177,0,0,1,.912-2.148l-.768-.36a11.889,11.889,0,0,0-.912,2.484c-.012-.216-.036-.552-.048-.768-.06-.648-.084-1.212-.084-1.728A20.317,20.317,0,0,1,112.62,2.7ZM129.5,2.268a6.257,6.257,0,0,1,.048,1c.024,1.86.144,5.112.2,5.52a4.975,4.975,0,0,0-1.212-.144c-1.692,0-2.832.792-2.832,1.968s.972,1.86,2.592,1.86a2.6,2.6,0,0,0,2.2-.828,2,2,0,0,0,.324-1.2,1.89,1.89,0,0,0-.048-.492,2.149,2.149,0,0,0,.288.144,8.818,8.818,0,0,1,2.772,1.932l.672-1c-.24-.156-.3-.192-.576-.384a10.6,10.6,0,0,0-3.18-1.692c-.072-.924-.12-1.932-.144-2.976a23.509,23.509,0,0,0,2.856-.24,6.26,6.26,0,0,1,.744-.084L134.1,4.608a12.622,12.622,0,0,1-3.516.444c-.012-.648-.012-.852-.012-1.068a12.591,12.591,0,0,1,.06-1.716Zm.264,7.44a6.186,6.186,0,0,1,.036.66.968.968,0,0,1-.276.78,1.861,1.861,0,0,1-1.26.384c-.924,0-1.524-.36-1.524-.912,0-.636.708-1.056,1.788-1.056A4.3,4.3,0,0,1,129.768,9.708Zm13.548-3.264c.036-.42.06-.684.168-1.44a13.833,13.833,0,0,1,.48-2.688l-1.1-.084a2.265,2.265,0,0,1-.024.384,28.965,28.965,0,0,0-.4,4.44c0,.144.024,1.428.024,1.548a2.122,2.122,0,0,1,.012.228.646.646,0,0,1-.012.132L143.5,8.94V8.652a5.876,5.876,0,0,1,.66-2.676c.66-1.332,1.428-2,2.28-2,1.128,0,1.776,1.068,1.776,2.94a3.994,3.994,0,0,1-2.052,3.9,6.412,6.412,0,0,1-2.5.732,2.982,2.982,0,0,1,.54.984,9.88,9.88,0,0,0,2.2-.7,4.966,4.966,0,0,0,2.868-4.776,4.984,4.984,0,0,0-.756-3,2.316,2.316,0,0,0-1.98-1.068,2.865,2.865,0,0,0-2.364,1.452,5.051,5.051,0,0,0-.72,1.68c-.06.24-.06.24-.084.324ZM165.672,8.1a9.593,9.593,0,0,1,1.248.072V7.164a6.738,6.738,0,0,1-1.032.072h-.168V4.848a7.989,7.989,0,0,1,.048-1.044,7.757,7.757,0,0,1-1.044.048h-1.836V3.12A6.216,6.216,0,0,1,162.972,2H161.9a6.181,6.181,0,0,1,.084,1.128v.72h-.972a10.9,10.9,0,0,1-1.224-.06v.984a8.259,8.259,0,0,1,1.2-.06h1a21.6,21.6,0,0,1-.12,2.52h-1.476a9.011,9.011,0,0,1-1.3-.072V8.172a9.732,9.732,0,0,1,1.3-.072h1.344a5.6,5.6,0,0,1-1.14,2.436,6.159,6.159,0,0,1-1.968,1.584,2.754,2.754,0,0,1,.612.8,7.48,7.48,0,0,0,1.7-1.332,6.47,6.47,0,0,0,1.572-2.9,7.484,7.484,0,0,0,1.812,2.724,8.511,8.511,0,0,0,2.04,1.476,4.494,4.494,0,0,1,.564-.948A7.064,7.064,0,0,1,163.1,8.1Zm-.852-.864h-2.04c.06-.612.108-1.644.108-2.448V4.716h1.932Zm-8.352.528a11.24,11.24,0,0,0,.564-3.288l-.744-.168a9.349,9.349,0,0,1-.528,3.108Zm1.956,5.208a8.828,8.828,0,0,1-.084-1.32V3.216a7.8,7.8,0,0,1,.084-1.236h-1.056a8.005,8.005,0,0,1,.084,1.236v8.34a9.762,9.762,0,0,1-.084,1.416Zm1.44-6.852a12.32,12.32,0,0,0-.768-1.98l-.6.3a8.5,8.5,0,0,1,.684,2.016ZM178.056,7v.816H177.6a5.275,5.275,0,0,1-.888-.048c.024.288.036.492.036.84V9.84c0,.324-.012.576-.036.84h.792V10.1h1.812a7.744,7.744,0,0,1,.8.036,5.4,5.4,0,0,1-.024-.756V8.628c0-.36.012-.6.036-.864a6.1,6.1,0,0,1-.912.048h-.408V7h.828a9.035,9.035,0,0,1,1.032.048V6.288a6.363,6.363,0,0,1-1.032.06h-.828a3.928,3.928,0,0,1,.048-.708H178a3.246,3.246,0,0,1,.06.708h-.792a6.051,6.051,0,0,1-1.008-.06v.756A8.737,8.737,0,0,1,177.264,7Zm-.564,1.452h1.86V9.456h-1.86Zm1.368-5.532a5.605,5.605,0,0,1,.072-.972H177.9a4.2,4.2,0,0,1,.072.972h-2.1a8.348,8.348,0,0,1-1.26-.072V3.72a8.385,8.385,0,0,1,1.248-.06h.492a7.238,7.238,0,0,1,.432,1.02h-.444c-.7,0-.96-.012-1.32-.036.024.372.036.624.036,1.248V9.684a13.491,13.491,0,0,1-.06,1.38h.96a12.022,12.022,0,0,1-.06-1.38v-4.3h5.136v4.644c0,.24-.072.276-.468.276a6.273,6.273,0,0,1-.972-.072,2.87,2.87,0,0,1,.2.84c.264.012.576.024.72.024a3.117,3.117,0,0,0,.972-.108c.252-.084.384-.36.384-.864v-4.2a12.126,12.126,0,0,1,.048-1.3,11.7,11.7,0,0,1-1.248.048h-.612c.228-.456.324-.66.468-1.02h.552a8.566,8.566,0,0,1,1.2.06V2.844a8.278,8.278,0,0,1-1.248.072Zm-1.2,1.764a7.482,7.482,0,0,0-.42-1.02h2.376a6.325,6.325,0,0,1-.444,1.02ZM171.7,2.8a12.319,12.319,0,0,1,1.9,2.2l.72-.66A14.3,14.3,0,0,0,172.356,2.2Zm-.144,4.824a4.433,4.433,0,0,1,.852-.06h.72v2.808a7.076,7.076,0,0,1-1.824,1.356l.456.96c.312-.264.54-.444.7-.576a12.867,12.867,0,0,0,1.092-.984,3.056,3.056,0,0,0,1.224,1.08c.684.324,1.4.408,3.516.408,1.548,0,2.76-.024,4.044-.084a3.289,3.289,0,0,1,.3-1,44.977,44.977,0,0,1-5.352.228,4.139,4.139,0,0,1-2.712-.624,1.731,1.731,0,0,1-.552-.744V7.968a12.162,12.162,0,0,1,.048-1.284,6.7,6.7,0,0,1-.912.06h-.66a5,5,0,0,1-.936-.06ZM190.488,2.2a13.121,13.121,0,0,1-.4,2.208c-.192.012-.5.012-.828.012a7.867,7.867,0,0,1-1.452-.1V5.3h.42c.36.012.456.012.744.012.5,0,.552,0,.864-.012a16.407,16.407,0,0,1-2.364,4.908l.972.564c.06-.108.132-.24.24-.42.456-.8.564-1.008.852-1.584a22.5,22.5,0,0,0,1.32-3.5,18.8,18.8,0,0,0,1.956-.24,3.589,3.589,0,0,1,.408-.06l-.036-1a10.141,10.141,0,0,1-2.076.372c.144-.564.216-.828.3-1.236a5.709,5.709,0,0,1,.18-.768Zm7.236,3.264a16.173,16.173,0,0,0-3.228-1.6l-.516.816a13.324,13.324,0,0,1,3.252,1.644Zm.012,5.34c-.072-.06-.072-.06-.18-.144a3.286,3.286,0,0,0-.336-.288,8.159,8.159,0,0,0-2.04-1.2,14.908,14.908,0,0,1-.132-1.764,3.483,3.483,0,0,1,.168-1.152l-.984-.084a5.121,5.121,0,0,0-.12,1.116c0,.4.036,1.044.084,1.632a4.661,4.661,0,0,0-1.212-.156c-1.476,0-2.508.78-2.508,1.9a1.641,1.641,0,0,0,1.152,1.572,3.885,3.885,0,0,0,1.308.216,2.386,2.386,0,0,0,1.9-.72,2.081,2.081,0,0,0,.4-1.236,1.656,1.656,0,0,0-.024-.312,6.933,6.933,0,0,1,2.028,1.584Zm-3.492-.96a3.392,3.392,0,0,1,.036.48c0,.828-.456,1.224-1.4,1.224-.9,0-1.44-.348-1.44-.924,0-.612.6-1.008,1.548-1.008A3.421,3.421,0,0,1,194.244,9.84ZM207.66,3.876V4.62h-2.616a5.959,5.959,0,0,1-1.08-.06v.816a8.137,8.137,0,0,1,1.08-.048h2.616v.744h-3.552a6.361,6.361,0,0,1-1.2-.072v.864a6.828,6.828,0,0,1,1.2-.072h1.368a8.168,8.168,0,0,1-.984,2.424,7.5,7.5,0,0,1-1.836,2.052,3.08,3.08,0,0,1,.7.768,9.216,9.216,0,0,0,2.16-3.024c-.036.288-.06.828-.06,1.188v1.644a7.462,7.462,0,0,1-.072,1.092h.948V12.4h5.16v.54h.96a7.807,7.807,0,0,1-.072-1.116V8.448a9.155,9.155,0,0,1,.048-1.008c-.4.036-.744.048-1.1.048h-5.172c.108-.288.156-.456.228-.7h5.916a6.682,6.682,0,0,1,1.188.072V6a6.22,6.22,0,0,1-1.188.072h-3.744V5.328H211.4a7.933,7.933,0,0,1,1.068.048V4.56a5.971,5.971,0,0,1-1.068.06h-2.856V3.876h3.276a8.054,8.054,0,0,1,1.188.072V3.1a7.723,7.723,0,0,1-1.188.072h-1.752a9.177,9.177,0,0,0,.948-1.092l-.888-.276a6.554,6.554,0,0,1-1.02,1.368h-1.944A9.6,9.6,0,0,0,206.2,1.8l-.84.264a6.287,6.287,0,0,1,.876,1.1h-1.656a7.723,7.723,0,0,1-1.188-.072v.852a8.4,8.4,0,0,1,1.188-.072Zm3.828,4.332v.7h-5.16v-.7Zm0,1.368v.7h-5.16v-.7Zm0,1.368v.744h-5.16v-.744Zm10.848-4.872h.168a1.628,1.628,0,0,1,.216.012c.564.036,1.068.048,1.416.048.54,0,1.284-.036,1.752-.072.012.324.012.672.012.948,0,1.8-.216,2.688-.816,3.444a4.753,4.753,0,0,1-1.836,1.368,3.544,3.544,0,0,1,.8.78,4.645,4.645,0,0,0,2.412-2.532,8.639,8.639,0,0,0,.42-3.24c0-.588,0-.588-.012-.864a10.829,10.829,0,0,0,1.272-.24c.384-.084.432-.1.648-.132l-.06-1.02a6.935,6.935,0,0,1-1.884.492c-.036-1.008-.048-1.644-.06-1.908-.012-.228-.012-.288-.012-.36a2.629,2.629,0,0,1,.024-.4l-1.092.012a23.983,23.983,0,0,1,.156,2.748,13.417,13.417,0,0,1-1.476.072,8.873,8.873,0,0,1-2.052-.168ZM220.08,2.556a3.824,3.824,0,0,1-.1.84,24.975,24.975,0,0,0-.468,4.6,14.632,14.632,0,0,0,.444,3.66,3.689,3.689,0,0,1,.1.42l.984-.06a4.513,4.513,0,0,1,.348-1.548,17.177,17.177,0,0,1,.912-2.148l-.768-.36a11.889,11.889,0,0,0-.912,2.484c-.012-.216-.036-.552-.048-.768-.06-.648-.084-1.212-.084-1.728A20.317,20.317,0,0,1,221.22,2.7Zm14.652,8.508a10.938,10.938,0,0,0,.912-2.268,22.845,22.845,0,0,0,.612-2.844l-.948-.228a15.784,15.784,0,0,1-.564,2.676,8.24,8.24,0,0,1-.936,2.112Zm7.02-7.236a19.623,19.623,0,0,0-4-1.86l-.552.792a16.028,16.028,0,0,1,3.936,1.932Zm3.336,6.408a21.16,21.16,0,0,0-2.052-4.656l-.876.444a17,17,0,0,1,1.968,4.716ZM238.176,5.7a6.88,6.88,0,0,1,.084-1.14h-1.14a8.422,8.422,0,0,1,.084,1.164v5.724c0,.948.348,1.1,2.424,1.1,1.872,0,2.34-.132,2.64-.7a7.161,7.161,0,0,0,.468-2.652,3.993,3.993,0,0,1-.972-.36,6.311,6.311,0,0,1-.312,2.448c-.144.264-.588.348-1.74.348-1.272,0-1.536-.072-1.536-.42Zm16.692,1.1,1.584-.528V9.192a8.167,8.167,0,0,1-.072,1.188h1.02a6.794,6.794,0,0,1-.072-1.164V5.988l1.824-.6a24.839,24.839,0,0,1-.18,2.772c-.06.372-.12.432-.384.432a3.8,3.8,0,0,1-.876-.108,2.754,2.754,0,0,1,.216.888c.288.024.432.036.6.036a1.137,1.137,0,0,0,1.128-.528A7.987,7.987,0,0,0,259.98,6.2c.036-.816.036-.816.12-2.016a9.583,9.583,0,0,1-.96.36l-1.812.588V3.264A8.525,8.525,0,0,1,257.4,2.1h-1.02a7.921,7.921,0,0,1,.072,1.14V5.424l-1.584.516V4.368a7.073,7.073,0,0,1,.072-1.2H253.9a8.661,8.661,0,0,1,.072,1.236V6.228l-.348.108a4.814,4.814,0,0,1-1.08.252l.252.948a7.037,7.037,0,0,1,1.02-.384l.156-.048v4.332c0,.96.5,1.164,2.976,1.164,3.216,0,3.432-.144,3.576-2.424a2.457,2.457,0,0,1-.912-.336,3.374,3.374,0,0,1-.24,1.572c-.192.264-.66.336-2.28.336a9,9,0,0,1-1.884-.108c-.264-.072-.336-.168-.336-.432ZM251.028,5.2h-.4a4.2,4.2,0,0,1-.984-.072v.948a5.335,5.335,0,0,1,.984-.06h.4V10.02a7.089,7.089,0,0,1-1.56.516l.216.972c.132-.06.192-.084.48-.192a21.677,21.677,0,0,0,3.1-1.452l-.06-.888c-.612.336-.816.444-1.284.66V6.012h.288a7.015,7.015,0,0,1,.936.048V5.136a4.088,4.088,0,0,1-.912.06h-.312V3.48a8.329,8.329,0,0,1,.072-1.356h-1.032a9.774,9.774,0,0,1,.072,1.344ZM268.7,3.816a15.1,15.1,0,0,1-2.58-.144l-.024.984a1.137,1.137,0,0,1,.252-.024,2.067,2.067,0,0,1,.24.012c.252.012,1.44.036,1.68.036.048,0,.18-.012.216-.012-.072.132-.072.132-.108.192a11.946,11.946,0,0,1-2.628,3.312l.792.792a4.3,4.3,0,0,1,.96-1.02,4.392,4.392,0,0,1,2.6-1.26c.54,0,.816.264.888.852a9.451,9.451,0,0,0-1.764.96,2.5,2.5,0,0,0-1.272,1.944,1.6,1.6,0,0,0,.816,1.44,4.969,4.969,0,0,0,2.46.468,20.23,20.23,0,0,0,2.988-.228,2.855,2.855,0,0,1,.492-.06l-.108-1.1a10.086,10.086,0,0,1-3.264.48c-1.692,0-2.376-.312-2.376-1.068a1.435,1.435,0,0,1,.708-1.128,7.363,7.363,0,0,1,1.44-.792V8.82a15.094,15.094,0,0,1-.072,1.6l.984-.012A3.3,3.3,0,0,1,272,9.912V9.42c.012-.24.012-.492.012-.624,0-.264,0-.3-.012-.7a18.468,18.468,0,0,1,3.18-1.02l-.432-.984a3.372,3.372,0,0,1-.84.348c-.588.2-1.08.384-2.016.744a1.489,1.489,0,0,0-1.62-1.308,3.1,3.1,0,0,0-1.656.492,2.719,2.719,0,0,0-.408.3,1.641,1.641,0,0,0-.168.12.149.149,0,0,1-.024-.036l.024-.024c0-.012.048-.048.12-.1a3.379,3.379,0,0,0,.384-.444,9.025,9.025,0,0,0,.972-1.524c1.176-.036,2.712-.144,3.54-.252.7-.1.7-.1.924-.12l-.072-.96a15.87,15.87,0,0,1-3.24.42c-.672.036-.672.036-.756.048a7.841,7.841,0,0,0,.36-.8,2.59,2.59,0,0,1,.288-.612l-1.128-.168a5.217,5.217,0,0,1-.54,1.6ZM3.24,20.58a9.988,9.988,0,0,1-1.3-.06A9.183,9.183,0,0,1,2,21.732v7.824a9.469,9.469,0,0,1-.072,1.272H2.964V30.06H9v.768h1.032A9.946,9.946,0,0,1,9.96,29.5V21.648a8.318,8.318,0,0,1,.06-1.128,8.891,8.891,0,0,1-1.248.06Zm-.276,2.8V21.468H9v1.908Zm0,.876H9V26.22H2.964Zm0,2.844H9v2.076H2.964Zm15.024-4.764h-.7a5.8,5.8,0,0,1-.96-.072v.948a6.347,6.347,0,0,1,.96-.06h.7V25.7a9.053,9.053,0,0,1-1.764.4l.2,1a5.227,5.227,0,0,1,.612-.2c.492-.132.528-.144.948-.276v3.012c0,.252-.084.324-.4.324a7.649,7.649,0,0,1-1.2-.108,2.749,2.749,0,0,1,.192.924c.4.024.576.036.9.036,1.1,0,1.416-.192,1.416-.912V26.316c.684-.24.828-.288,1.368-.516l-.012-.828c-.708.264-.936.336-1.356.468V23.148h.372a6.607,6.607,0,0,1,.972.06v-.936a6.061,6.061,0,0,1-.96.06H18.9v-1.14a8.707,8.707,0,0,1,.072-1.2H17.9a7.346,7.346,0,0,1,.084,1.224Zm3.66-1.176a7.12,7.12,0,0,1,.06-1.128H20.676a7.767,7.767,0,0,1,.072,1.176v2.124c0,.9.444,1.08,2.652,1.08,1.956,0,2.508-.06,2.88-.3s.528-.648.636-1.68a3.45,3.45,0,0,1-.876-.336c-.1,1.464-.132,1.5-2.2,1.5-2,0-2.2-.048-2.2-.516V22.32a21.124,21.124,0,0,0,4.908-1.176l-.708-.792a11.872,11.872,0,0,1-4.2,1.2Zm-.876,8.568a7.411,7.411,0,0,1-.06,1.188h.948v-.636h3.7V30.9H26.3a7.038,7.038,0,0,1-.06-1.2V26.256a6.7,6.7,0,0,1,.048-.972,8.048,8.048,0,0,1-1.068.048H21.792a8.282,8.282,0,0,1-1.068-.048,6.623,6.623,0,0,1,.048.96Zm.888-3.6h3.7v1.224h-3.7Zm0,2.016h3.7v1.344h-3.7ZM33.9,20.568a6.3,6.3,0,0,1,.036.672c0,.18,0,.456-.012.8-.084,3.768-.1,4.14-.1,4.872A6.127,6.127,0,0,0,34,28.5a2.522,2.522,0,0,0,.888,1.284,3.553,3.553,0,0,0,2,.516A4.32,4.32,0,0,0,40.3,28.8a7.464,7.464,0,0,0,1.356-2.82,3.8,3.8,0,0,1-1.02-.684,6.72,6.72,0,0,1-.588,1.92A3.343,3.343,0,0,1,36.96,29.3a2.022,2.022,0,0,1-1.752-.708,3.4,3.4,0,0,1-.336-1.944c0-.8.072-3.708.12-4.584a9.65,9.65,0,0,1,.132-1.488Zm23.5,8.376c-.168-.1-.216-.144-.42-.276a10.771,10.771,0,0,0-3.336-1.74c-.024-.492-.024-.492-.06-1.716.624-.036,1.692-.132,2.16-.2.924-.132.96-.144,1.164-.156l-.048-.972a15.247,15.247,0,0,1-3.288.468c-.012-.66-.024-.84-.024-1.488,1.092-.06,1.692-.12,2.724-.264a6.738,6.738,0,0,1,.864-.108l-.048-.972a15.87,15.87,0,0,1-3.54.48,11.657,11.657,0,0,1,.084-1.62h-1.08a9.077,9.077,0,0,1,.06,1.656c-.36.012-.78.024-1.008.024a15.721,15.721,0,0,1-3.12-.24l-.012.972a.98.98,0,0,1,.168-.012,2.067,2.067,0,0,1,.24.012c.852.06,2.172.12,2.892.12.228,0,.432,0,.84-.012,0,.192.012.312.024,1.5-.408.012-.768.024-1.044.024a15.121,15.121,0,0,1-2.772-.192l-.012.936h.108c.072,0,.168,0,.312.012a20.587,20.587,0,0,0,2.064.1c.3,0,.72-.012,1.356-.024.036,1.236.036,1.236.06,1.524a7.184,7.184,0,0,0-1.056-.072c-1.848,0-2.964.708-2.964,1.884,0,1.056.948,1.716,2.46,1.716,1.14,0,1.944-.3,2.256-.852a2.577,2.577,0,0,0,.288-1.236,3.042,3.042,0,0,0-.012-.312,7.561,7.561,0,0,1,.7.312A8.958,8.958,0,0,1,56.82,29.94Zm-4.68-1.272s.012.312.012.408a1.415,1.415,0,0,1-.24.984,1.729,1.729,0,0,1-1.272.372c-.96,0-1.536-.324-1.536-.876a.729.729,0,0,1,.192-.5,2.425,2.425,0,0,1,1.668-.5A4.715,4.715,0,0,1,52.716,27.672Zm12.384-7.1a6.3,6.3,0,0,1,.036.672c0,.18,0,.456-.012.8-.084,3.768-.1,4.14-.1,4.872A6.127,6.127,0,0,0,65.2,28.5a2.522,2.522,0,0,0,.888,1.284,3.553,3.553,0,0,0,2,.516A4.32,4.32,0,0,0,71.5,28.8a7.464,7.464,0,0,0,1.356-2.82,3.8,3.8,0,0,1-1.02-.684,6.72,6.72,0,0,1-.588,1.92A3.343,3.343,0,0,1,68.16,29.3a2.022,2.022,0,0,1-1.752-.708,3.4,3.4,0,0,1-.336-1.944c0-.8.072-3.708.12-4.584a9.649,9.649,0,0,1,.132-1.488Zm14.16,2.748h.3c.324.012.648.024.744.024.4,0,.84-.012,1-.012A23.931,23.931,0,0,1,79.08,29.9l1.056.444A34.405,34.405,0,0,0,82.32,23.28a17.9,17.9,0,0,0,2-.276c.252-.048.252-.048.348-.06l-.048-.984a10.17,10.17,0,0,1-2.136.4c.06-.312.084-.444.156-.852a11.348,11.348,0,0,1,.216-1.14l-1.128-.12V20.4a14.314,14.314,0,0,1-.264,2.016c-.324.012-.468.012-.66.012a8.627,8.627,0,0,1-1.536-.108Zm9.192.5c-.876-.036-1.044-.036-1.272-.036a14.138,14.138,0,0,0-3.288.4l.1.96a11.112,11.112,0,0,1,3.036-.4,10.119,10.119,0,0,1,1.44.1Zm-4.464,2.568a2.913,2.913,0,0,0-.828,1.824c0,1.224,1.056,1.86,3.06,1.86a12.8,12.8,0,0,0,2.16-.2c.408-.072.408-.072.552-.1l-.1-1.068a8.663,8.663,0,0,1-2.664.432c-1.3,0-2.016-.372-2.016-1.032a1.651,1.651,0,0,1,.156-.648,2.85,2.85,0,0,1,.5-.684Zm12.1.708a1.866,1.866,0,1,0,1.86,1.86A1.872,1.872,0,0,0,96.084,27.1Zm0,.768a1.092,1.092,0,1,1-1.092,1.092A1.086,1.086,0,0,1,96.084,27.864Z" transform="translate(-1.68 -1.8)" fill="#836660"/>
</svg>
