<svg xmlns="http://www.w3.org/2000/svg" width="341.918" height="237.013" viewBox="0 0 341.918 237.013">
  <g id="グループ_1619" data-name="グループ 1619" transform="translate(0 -0.531)">
    <g id="グループ_364" data-name="グループ 364" transform="translate(247.632 0) rotate(18)">
      <path id="パス_1139" data-name="パス 1139" d="M.386.176C.38.138.375.1.366.057L0,0C.013.076.025.155.038.232.156.216.27.2.386.176Z" transform="translate(58.431 43.551)" fill="#b5825f"/>
      <path id="パス_1140" data-name="パス 1140" d="M.134.561C.288.534.448.509.6.485.6.446.588.408.583.372.623.365.661.358.7.353.682.235.663.119.643,0L.058.093C.039.22.02.343,0,.465.039.46.077.452.116.446.123.485.127.522.134.561Z" transform="translate(62.595 42.893)" fill="#b5825f"/>
      <path id="パス_1141" data-name="パス 1141" d="M.288.1.212.024.209,0,0,.033.183.251a.64.64,0,0,0,.234.02A1.184,1.184,0,0,0,.863.133L.737.142A.925.925,0,0,1,.288.1Z" transform="translate(41.68 96.925)" fill="#b5825f"/>
      <path id="パス_1142" data-name="パス 1142" d="M.4.235A1.476,1.476,0,0,1,0,.482L.645.488A3.587,3.587,0,0,1,.874.162L.849,0A1.108,1.108,0,0,0,.4.235Z" transform="translate(67.675 83.761)" fill="#b5825f"/>
      <path id="パス_1143" data-name="パス 1143" d="M.295,0A1.906,1.906,0,0,1,.15.241.69.69,0,0,0,0,.612,1.043,1.043,0,0,0,.38.368,1.446,1.446,0,0,1,.663.157C.459.166.379.142.295,0Z" transform="translate(45.967 87.233)" fill="#b5825f"/>
      <path id="パス_1144" data-name="パス 1144" d="M.195.307.224.294A1.805,1.805,0,0,0,.582.109L.566,0,0,.092C.038.232.051.241.195.307Z" transform="translate(74.133 41.885)" fill="#b5825f"/>
      <path id="パス_1145" data-name="パス 1145" d="M0,0l0,0L0,0Z" transform="translate(42.543 97.054)" fill="#b5825f"/>
      <path id="パス_1146" data-name="パス 1146" d="M98.62,49.83l-.311-.1-.189-.672-.97-.483-.02-.236a6.159,6.159,0,0,1-.469-.578l-.534.084-.109-.147-.1-.06-.111.008-.036-.22-.06.009-.293-.312-.285.045-.117-.05-.112-.152-.231.037-.157-.217-.981.158-.018-.114-.2.034-.172-.336-.094.017-.2-.214-.1-.123a3.479,3.479,0,0,0-1.173-.147H91.5l-.2-.456a1.1,1.1,0,0,1-.487-.191l-.186-.159-.12.02-.137-.1,0-.012-.845.029-.12-.1-.175.028-.221-.2-.441-.333a.678.678,0,0,0-.132.028.815.815,0,0,1-.152.031.325.325,0,0,1-.266-.1l-.033-.069-.058-.351.019.121-.062.008-.281-.3-.142.055c-.061.151-.144.353-.357.37H87.1l-.088-.1-.452.075-.041-.079L86.4,44l-.2-.108a2.652,2.652,0,0,1-.369-.219l-.134-.252-.1.017-.044-.055c-.124-.152-.128-.243-.114-.306a.854.854,0,0,0-.259-.109,1.542,1.542,0,0,0-.436.161c-.094.047-.188.09-.28.125l-.14.055-.082-.511-.728.015-.122-.072-.219-.235-.71.115-.044-.061-.066-.16-.484-.042-.111-.082-.091-.124-.16.025-.142-.093v-.012l-1.026.049-.148-.21-.165.025-.131-.094-.467.077-.139-.1-.238.039-.017-.134-.949.028-.019-.1-.189.032-.164-.223c-.22,0-.441,0-.658-.01l-.113-.111c-.089.023-.127.1-.192.162a.975.975,0,0,1-.274.063,1.746,1.746,0,0,1-.51-.059l-.069-.013-.025-.066c-.048-.131-.1-.246-.151-.358a3.371,3.371,0,0,1-.3-.911l-.02-.118.385-.064.058-.34.641-.324-.044-.287.095-.009a1.858,1.858,0,0,0-.2-.2,1.386,1.386,0,0,1-.345-.4l-.049-.106,1.173-.607.062.058a.824.824,0,0,0,.158.108.852.852,0,0,1,.207.143l.406-.068-.014-.085.083-.039c.394-.18.428-.5.471-.9a2.09,2.09,0,0,1,.183-.749l.266-.246-.076-.465,1.036-1.009-.046-.282-.135.021,0-.138c-.011-.5.1-.6.357-.776l.1-.125-.021-.12.351-.053-.008-.06s.223-.211.311-.292l-.057-.347L81.049,32l-.027-.168.048-.153.117-.022.164-.365.412-.066-.074-.467.12-.019c.189-.031.34-.05.464-.06a1.238,1.238,0,0,1,.754.125c.079.035.171.077.3.12l.032-.047c-.032-.072-.04-.076-.176-.134l-.059-.026-.052-.329.85.033.015.1c.054.343.123.562.145.7a.716.716,0,0,0,.128.009c.054,0,.083.014.09.069l.112-.018.153.021.553-.853.112-.018.066,0a2.018,2.018,0,0,0,.551-.762l.032-.083.674.052.013.091.581-.094.119.081a.943.943,0,0,0,.462-.385l.082-.092.1-.326.8-.13,0-.092.533-.575.34-.418-.03-.193.313-.29-.028-.169.1-.137.031-.006.044-.285.132-.106-.032,0L90.1,26.4l.391-.062.082-.256.358-.053.18-.39.357-.056h.111c.022-.019.026-.028,0-.125a.494.494,0,0,1,.034-.359l.259-.292-.055-.352.115-.027-.01-.183.084-.112a.417.417,0,0,0,.107-.152l.024-.07.183-.027a1.612,1.612,0,0,0-.194-.523l-.054-.094s.39-.281.455-.329l-.043-.274-.118.02-.018-.121a1.152,1.152,0,0,1,.116-.931l.138-.066a.1.1,0,0,0,.006-.061c-.021-.12.029-.187.173-.315.065-.094.1-.142.17-.147l.109.031.038.068a.507.507,0,0,0,.049.073.554.554,0,0,0,.167-.121,1.131,1.131,0,0,1,.116-.1.494.494,0,0,1,.065-.233l-.1-.643.1-.144.04,0a1.833,1.833,0,0,0-.023-.621l-.378-.057-.022-.94.092-.095-.241-.861a1.312,1.312,0,0,1,.068-.247.685.685,0,0,0,.04-.57l-.121.024-.235-1.455-.5-.183a.742.742,0,0,1-.022-.478c.031-.2.065-.43-.023-.518l-.12.023-.05-.292-.386-.176L91.57,13.3l-.251-.077-.014-.073-.007-.158-.259-.1a.9.9,0,0,1-.166-.506.58.58,0,0,0-.1-.349l-.094.015-.1-.236-.111-.207-.119.019-.047-.278-.238-.07-.108-.254-.03-.181-.253-.083-.082-.093-.019-.118-.076.006-.15-.2c-.091.013-.4.065-.4.065l-.038-.241.013.118-.091.007-.214-.575a1.673,1.673,0,0,1-.761-.252,2.591,2.591,0,0,0-.342-.164l-.081-.127-.017-.107a2.669,2.669,0,0,1-1.375-.623c-.091-.065-.182-.132-.308-.226l-.065-.164-.582-.045-.02-.128-.088-.015L84.7,7.8l-.117-.161-.875.012-.019-.1-.229.034-.024-.111-.18.028-.29-.313-.408.065L82.538,7.1l-.369-.057-.111-.68.243-.037-.162-1.647-.089.01-.242-.65.064-.157.026,0-.018-.109.1-.135L81.938,3.4l.1-.135.021,0a.5.5,0,0,0-.1-.254c-.109-.167-.172-.321.051-.624a.938.938,0,0,0-.506-.605c-.1-.061-.2-.126-.216-.187l-.11.016-.138-.075-.019-.122.036-.053-.328-.184L80.35.938,80.215.684l-.237.039-.04-.085a.807.807,0,0,0-.3-.354A1.691,1.691,0,0,1,79.426.1a.927.927,0,0,0-.215.1.507.507,0,0,1-.176.076L78.9.17l0-.011c-.288,0-1.452.011-1.452.011l-.11-.1L76.51.2l-.138-.1-.115.02-.135-.1,0-.023-.032,0c-.215.018-.412.163-.412.216l.015.117-1.4.227-.138-.1-.118.018L73.911.419l-.1-.141-.158.028L73.523.218,72.259.529,72.367.51l.021.118-.35.058.018.1-.1.032a.64.64,0,0,1-.164.034,1.148,1.148,0,0,1-.541-.125,1.05,1.05,0,0,0-.482-.117c-.084.007-.166.032-.17.067l.021.117-.238.043L70.394.9l-.055.044a.425.425,0,0,1-.19.107.04.04,0,0,1-.018,0,.879.879,0,0,0-.068.14l-.026.062s-.207.028-.27.032a1.013,1.013,0,0,1-1.01-.426l-.1.019-.136.015a.558.558,0,0,0-.128.146.725.725,0,0,1-.52.364A.528.528,0,0,1,67.6,1.35l-.138-.15-.055-.125c-.4.022-.793.043-1.141.056a1.568,1.568,0,0,0-.19.147,1.465,1.465,0,0,1-.727.4.5.5,0,0,1-.159-.012l-.107-.094-.028-.039-.026-.07-.182.031-.135-.1-.117.021-.122-.1-.247.042L64.1,1.261c-.3.083-.613.169-.959.259a5.264,5.264,0,0,0-1.111-.048,4.3,4.3,0,0,0-.512.075l-1.1.305-.3-.32-.293.051-.017-.119-.459.076.019.127-1.292.076c-.264.081-.531.162-.8.246l-.151-.073,0-.019-.233.039-.141-.1L56.41,1.9l-.134-.1a1.119,1.119,0,0,0-.129.07.983.983,0,0,1-.436.161.618.618,0,0,1-.15,0l-.094-.1-.828.134-.107-.081-.9.361-.156-.062-.011-.062-.379-.062-.017-.11a.232.232,0,0,0-.043,0,1.081,1.081,0,0,0-.4.149.91.91,0,0,1-.358.127h-.009l-.1-.1-.357.057-.022-.108-1.629.375-.789.048L49,2.609l-.1.049a4.033,4.033,0,0,1-.914.365l-.088,0-.289-.307-.167.029-.136-.1-.587.093-.139-.1L46,2.737l-.14-.1-.231.037L45.5,2.587c-.5.116-1.626.384-1.626.384l-.021-.126L43.5,2.9l-.021-.135a.557.557,0,0,0-.341.244.619.619,0,0,1-.326.236L42.237,3.2l-.012-.067-.989.368-.156-.065,0-.025-.191.032-.157-.216-.277.045-.139-.1-1.162.189-.137-.1-.231.036-.024-.111-.7.109-.135-.1c-.312.052-1.051.167-1.051.167l-.02-.1-.9.254-.147-.084,0-.013-1.515.247-.023-.114L33.8,3.63l-.137-.1-.459.077.02.124L31.37,3.9l-.132-.18.011-.038-.188.032-.138-.1-.347.059.024.108-.6.1-.134-.094,0-.018h-.017A.829.829,0,0,0,29.2,4.2l-.032.07-.076,0c-.431.016-.535-.066-.723-.359l-.431.069-.086.249-1,.163.119-.019.018.12-.585.094-.141-.1-.235.038-.016-.113-.82.131-.015-.116-.232.037-.113-.079-.356.131.028.153-1.073.052.013.1-.649.107-.044-.05a.8.8,0,0,1-.2-.271l-.684.11-.139-.1-.112.018-.129-.1-.356.058-.142-.1,0-.022h-.019a.905.905,0,0,0-.526.292,1.25,1.25,0,0,1-.291.216.921.921,0,0,1-.322.091,1.082,1.082,0,0,1-.59-.154c-.1-.048-.184-.092-.223-.106l-1.55.363-.085.257-.767.125.119-.016-.081.12-.1.03c-.154.012-.23-.076-.168-.1-.419.111-1.345.347-1.345.347l-.157-.222-.509.082.017.109-2.309.5L12.2,6.4l.017.1-.452.191.015.107-.074.04a1.058,1.058,0,0,1-.425.126,2.259,2.259,0,0,1-.614-.064,1.968,1.968,0,0,0-.419-.056c-.226.074-.454.151-.68.229L9.411,7l0-.022-1.02.16c-.031.014-.081.044-.145.078a2.117,2.117,0,0,1-.8.312H7.428l-.087-.1-.133.022-.138-.1V7.341l-.848.031L6.1,7.257l0-.012L5.6,7.2l-.014-.1.044-.027a.752.752,0,0,0-.544-.115l.014.168a.4.4,0,0,1-.3.269c-.039.012-.078.024-.063.29a.549.549,0,0,0,.241-.166.868.868,0,0,1,.5-.282l.134-.038.069.458L5.6,7.7a.613.613,0,0,1-.159.061.028.028,0,0,1-.022,0,.49.49,0,0,1-.092.337l-.153.112.031.192.048.369a3.864,3.864,0,0,1-.57.882h0L4.73,9.9l.111.059.427-.18.131.243.081.1.142.091.019.124-.1.137-.027,0,0,.019c-.02.21-.044.257-.283.366v.7l-.051.038-.168.077c-.033.188.091.311.269.464a.776.776,0,0,1,.214.254l.112.693.025.321-.274.468-.242.378-.258.132.008.049.6.021.3,1.852-.1.133.032.192s-.163.118-.212.156l.044.278,0,.122-.056.01.047.063a2.5,2.5,0,0,1,.166.254l.257-.043.136.106.023.116L6.1,17.575l.12-.01.138,1.657-.11.127-.025,0s-.115.6-.156.789l.711.116,0,.824-.107.131H6.656a1.059,1.059,0,0,0,.155.371.5.5,0,0,1,.08.186l.008.106-.109.023.092.58-.012-.12.082-.008.186.359.179.3.127-.03.059.361.1-.026.037.106a.61.61,0,0,1-.064.5c-.067.146-.12.26-.038.373l.119-.019.083.511.179.057.09.117L8.336,26.2l-.172.029a2.279,2.279,0,0,1-.095.245.9.9,0,0,0-.094.349l.467-.177L8.5,26.7a1.479,1.479,0,0,0,.412.2L9,27.027a1.194,1.194,0,0,1,.314.85l-.134.107a2.008,2.008,0,0,0,.018.592l0,.029h.034c.052,0,.08.013.188.1a.532.532,0,0,1,.144.607.575.575,0,0,0,0,.429l.588.353.266.577.318.105.2,1.239L11.061,32l.039.23.113-.022.086.527.387.176.031.177.1-.011.218.55.167.492.822.49c.011.01.96,1.546.851,1.834l-.158.114c.08.5.175.546.588.548h.086l.027.081a5.24,5.24,0,0,1,.179.681,5.072,5.072,0,0,0,.123.508c.434.038.523.1.622.326a1.98,1.98,0,0,0,.138.265l.32.1.033.19.117-.019.04.236.1-.01.145.386.081.17.141.094.006.037c.094.016.187.03.281.044l.084.1.2-.033.126.171.02.042.242-.038.124.173.045.075.252.176a2.94,2.94,0,0,0,1.264.628l.11.118-.012.121a.34.34,0,0,1-.13.289l.111.173.119-.018.044.278.265.133.1.264.077.25.645.579.7.16.077.485.389.174.038.235c.109.046.39.174.39.174l.177,1.1-.091.035a3.542,3.542,0,0,0-.578.319,3.364,3.364,0,0,1-.325.189l-.4.066-.178.386-.464.075-.111.253-.13.068-.118.1.019.13-1.187.077.012.1-.228.037.015.1-.095.033a2.533,2.533,0,0,1-.461.134h-.026l-.1.317-.657.1.021.121-.821.133-.022-.118-.114.016-.138-.094,0-.028a.615.615,0,0,0-.09,0,1.614,1.614,0,0,0-.707.309,1.377,1.377,0,0,1-.584.264c-.1.009-.2-.013-.213-.051-.549.079-.614.129-.642.486l-.006.1-1.158.075.016.1-.227.036.018.108-1.313.339-.08.249-1.413.345-.12.023a1.561,1.561,0,0,0-.321.356c-.22.287-.47.61-.8.636a.287.287,0,0,1-.216-.045c-.887.115-.9.231-.961.782-.012.109-.026.233-.049.373l-.015.091-.358.037a.767.767,0,0,1-.4-.055l-.054-.1-.134.023-.109,0-.019-.119a.507.507,0,0,0-.243.11.652.652,0,0,1-.311.13.313.313,0,0,1-.271-.088,1.777,1.777,0,0,0-.567.178l.132.817-.08.04a.537.537,0,0,1-.119.049l-.006,0-.074.115-.18.02a.777.777,0,0,1-.851-.444,1.737,1.737,0,0,0-.951.744l-.058.064-.1.32L2.195,55l.006.117-.338.056.016.121-.986.161-.181.387-.185.027-.042-.017a2.376,2.376,0,0,0-.416,1.01c-.138.226-.045.379.061.556a.593.593,0,0,1,.123.463l-.02.07-.074.015.075.465-.013-.119.122.1L.7,58.358l.1.591-.113.014c.1.473.166.474.336.476a1.148,1.148,0,0,1,.58.146l.977,1.1a.792.792,0,0,0,.415-.227,1.218,1.218,0,0,1,.37-.251l.1-.044.277.515s-.7.613-.862.755l.043.268a.449.449,0,0,0,.344-.242l.04-.065.076.007a1.038,1.038,0,0,1,.524.16l.077.044L4,61.715a1.691,1.691,0,0,0,.239.072.964.964,0,0,1,.459.222l.963-.366L5.621,61.4l.017.116-.13.017L5.5,61.4a1.431,1.431,0,0,1,.046-.517l.018-.079.081-.013.623-.064c.015-.046.064-.183.3-.2l.107,0,.02.116c.333.02,1.1.06,1.1.06l.033.212L7.811,60.8l.135.1.037.237-.487.079v.669c.01-.012.072-.1.072-.1l.073.008a.651.651,0,0,1,.578.368,1.5,1.5,0,0,0,.734-.43c.008-.045-.1-.2-.161-.285a1.887,1.887,0,0,1-.226-.376l-.059-.15,2.049-.2.128.1.118-.02.1.028.128.176.09-.014.252-.02a.335.335,0,0,1,.186.318.609.609,0,0,0,.018.106l.1-.016.286.312.994-.16.015.1c.18-.061.362-.121.542-.186l.157.071,0,.024.116-.018.134.1.552-.088c-.119-.27-.209-.286-.521-.348l-.232-.045-.013-.084a2.03,2.03,0,0,1,.006-.762l.016-.084.327-.051c.145-.026.288-.049.421-.06a1.006,1.006,0,0,1,.474.055l.062.028.018.128.1.056a.949.949,0,0,0,.333.139l.057-.361.112.007a1.7,1.7,0,0,1,.475.094l.169.048.1.138.011.079-.1.132.026.124-.358.055.037.217-.1.031a1.562,1.562,0,0,0-.609.319c-.037.028-.075.057-.116.086a1.6,1.6,0,0,0,.419.228,1.7,1.7,0,0,1,.5.282,1.64,1.64,0,0,0,.343-.157,1.644,1.644,0,0,1,.378-.174c-.027-.108-.06-.224-.093-.343-.12-.426-.232-.826-.11-1l.073-.464.1-.006a2.5,2.5,0,0,1,1.486.358l.12-.019.169,1.055-.019-.121.076-.01.042.065a1.511,1.511,0,0,1,.156.317.392.392,0,0,0,.228.269l.188-.031-.021-.113.941-.157-.12.019-.023-.13,1.161-.068a.705.705,0,0,0-.171-.238,1.028,1.028,0,0,1-.254-.365l-.04-.091.591-.424.486.446.047.1,1-.163.58.625.877-.143.017.119.239-.038.016.123a13.577,13.577,0,0,0,1.705-.52l.217-.037.2-.017c.133.048.394.5.505.727.191-.067.372-.13.482-.171l-.027-.125.942-.153-.028-.2.246.088,0-.028.889-.3.043.106a1.139,1.139,0,0,0,.4.51,2.29,2.29,0,0,1,.26.237,1.391,1.391,0,0,0,.339-.163,1.86,1.86,0,0,1,.284-.15l.027-.32a.27.27,0,0,1-.113-.1.276.276,0,0,1-.031-.233l.1-.065-.024-.147.234-.029.143.091.01.063a2.089,2.089,0,0,1,.646.8l.011.114a.752.752,0,0,0,.126.009l.081.012.064.051.06-.008c.3-.042.379-.053.411-.186l-.194.033-.11-.688.091-.035c.122-.046.241-.1.356-.149A2.562,2.562,0,0,1,33.658,60a.852.852,0,0,1,.75.338l.076-.012.063-.371.787-.126.119.049.114.162,1-.052.107.091,1.1-.293.44.435a1.884,1.884,0,0,0,.825.072q.1-.008.194-.021l-.016-.108-.133.018-.007-.13a1.457,1.457,0,0,1,.043-.519l.018-.082,1.016-.162.044.26a2.732,2.732,0,0,1,.44.118c.12.04.233.077.289.1l.361-.135-.063-.4.017-.1.3-.158-.005-.031.021-.116.111-.025a.954.954,0,0,1,.459.161,1.37,1.37,0,0,0,.436.176l.09.011.073.443-.18.145a.8.8,0,0,0,.3-.234l.08-.07h.077c.272,0,.307,0,.444.111l-.007.05.121-.022.131.059.035.2.178.059.089.142a1.033,1.033,0,0,0,.343.018,5.149,5.149,0,0,0,.569-.091l.2-.008.247-.292.427-.481c.021-.123.072-.458.072-.458l.2-.03.054,0c.009-.044.033-.158.281-.178l.029,0,.116.124v.009l.113.019.244.076L47,58.9l.161-.026.139.1.006.036a1.229,1.229,0,0,0,.227,0,2.2,2.2,0,0,0,.336-.06,2.317,2.317,0,0,1,.313-.055.624.624,0,0,1,.572.2l.282-.046.335-.9.537-.086,0-.019.309,0a.745.745,0,0,1,.36.052l.058.095.727-.116.109.1.038.06c.028-.079.054-.165.079-.247l.138-.091.145-.022.044.054a.55.55,0,0,1,0,.607.678.678,0,0,1,.2.127l.293-.091.328-.118-.015-.116,1.745-.284-.023-.111.951-.155.022.158a.647.647,0,0,0,.261.015l.094-.008-.038-.227.359-.039a1.6,1.6,0,0,1,.794.11l.07.025.009.069.113-.02.14.1.694-.113-.034-.214.1-.034a1.864,1.864,0,0,0,.192-.085,1.916,1.916,0,0,1,.659-.224.613.613,0,0,1,.309.056l.192.273q.583-.041,1.171-.079l-.014-.064.945-.6.2.39,1.02.059.084.091.811-.236.15.078,0,.022.167-.019c.092.03.132.1.214.194l-.019-.12.232-.038-.009-.066.049-.044a.9.9,0,0,1,.471-.2l.27-.063.025.124a1.326,1.326,0,0,0,.156.457l1.08-.175-.042-.257h-.033a.484.484,0,0,1-.2-.052l-.14-.094-.043-.239.161-.029.084-.275.1.007a1.633,1.633,0,0,1,1.077.527,2.717,2.717,0,0,0,.259-.128,2.321,2.321,0,0,1,.49-.208.755.755,0,0,1,.088-.29c.017-.041.041-.087.066-.16l.023-.071.385-.06.118.168.069.041.123-.028.021.124-.008.156.245.167.272.008.382.363.308-.049,0-.617.117-.127.036,0a.738.738,0,0,1,.744-.505l.455-.036.015.833c.749-.1.905-.2.933-.777l0-.1.26-.03a1.969,1.969,0,0,1,1.13.213,1.844,1.844,0,0,0,.647.2.673.673,0,0,1,.175-.148.172.172,0,0,1,.06-.028.014.014,0,0,1,.018.011l-.034-.211.069-.13.076-.043.2-.087a.285.285,0,0,1,.221-.14.674.674,0,0,1,.259.053.729.729,0,0,0,.29.055l.029,0-.019-.107.092-.037a.542.542,0,0,1,.167-.04c.123-.01.233.029.229.092l.7-.112.116.046.116.157.42-.067a.335.335,0,0,0,0-.038c0-.056.012-.085.1-.19a.658.658,0,0,1,.478-.244,2.044,2.044,0,0,1,.357.015,1.841,1.841,0,0,0,.34.018c.037,0,.071-.009.094-.011a.056.056,0,0,1,.027,0l.311-.286.186-.043.015.106.21-.036.216.568.48-.079-.01-.087.08-.038a.519.519,0,0,1,.186-.054.478.478,0,0,1,.216.04V54.9l.051-.043a.436.436,0,0,0,.222-.428l0-.072.068-.031a.813.813,0,0,0,.239-.146.993.993,0,0,1,.306-.185l.083-.035.453.537c.27-.077.284-.114.372-.348l.025-.066.657-.107.992-.144a.32.32,0,0,1,.193.322c.006.065.011.111.043.108l.016-.006.1.077.252-.109a1.573,1.573,0,0,1,.031-.552l.018-.086.281-.031a3.383,3.383,0,0,1,.439,0l.318.008.052.318.766-.241.045.093c.048.1.058.138.092.158a.152.152,0,0,0,.068.015c.029,0,.058-.02.1-.069a.519.519,0,0,1,.439-.306.578.578,0,0,1,.33.1.444.444,0,0,0,.242.077.151.151,0,0,0,.092-.032c.015-.084.048-.282.389-.311l.11,0,.021.124c.132.009.486.046.486.046l.014.085.463-.073-.19-.552c-.226.07-.456.144-.68.217l-.15-.039-.019-.144a.613.613,0,0,1,.217-.693l.053-.064.044-.015A.968.968,0,0,0,89.2,52.2l.063-.032.058.041c.039.028.06.046.055.049.024,0,.231.024.231.024l.038.229a.832.832,0,0,1,.281.086,1.023,1.023,0,0,0,.158.068l.069.023.107.659-.095.145h-.011l-.083.129.056.11a.6.6,0,0,0,.189.005,7.835,7.835,0,0,0,1.944-.593l-.016-.1.091-.035a.588.588,0,0,1,.173-.04,1.03,1.03,0,0,1,.482.115,1.333,1.333,0,0,0,.3.1.258.258,0,0,1,.151-.118l-.038-.234.1-.139-.038-.232.1-.136.054-.01.18-.394.394-.066.209.572.994-.156a1.405,1.405,0,0,1,.3.107,1.124,1.124,0,0,0,.413.12l-.01-.081s.429-.164.6-.224a1.423,1.423,0,0,1,.119-.266.617.617,0,0,1,.278-.094.759.759,0,0,1,.512.2.668.668,0,0,1,.125.1l.533-.085.044.05a.2.2,0,0,0,.143.046l-.015-.1.084-.039c.273-.124.294-.19.3-.548l0-.07.316-.17A2.432,2.432,0,0,0,98.62,49.83ZM89.907,47.4l.085-.115.236-.056.09.527-.165-.023a.663.663,0,0,0-.128-.012c-.055,0-.083-.015-.18-.094l-.161-.21ZM79.259,28.068l-.124.019-.056.065-.045.014a.66.66,0,0,0-.119.048l-.151.026-.02-.115-.165.032.113-.7.534.25.076.141.012.061ZM51.389,5.461a.675.675,0,0,0,.125.01c.055,0,.084.013.09.072l.121-.021.136.1.028.2-.073.04c-.108.061-.22.116-.335.172l-.144.072-.111-.669Zm-15,.819.016-.079.754-.122.038.082c.038.077.051.117.041.119h0l.12.077,0,.064a.7.7,0,0,1-.474.835l-.172.091-.154.072-.024-.153-.119.026-.019-.127A2.337,2.337,0,0,1,36.392,6.28Zm-15.57-1.4c.034,0,.226-.042.226-.042l.06.357-.1.139-.239.038L20.7,4.9ZM20.761,7.5l.122-.1.1-.006c.336-.025.385.007.535.351l.062.143-.905.144ZM21.6,40.915l-.036-.237a1.044,1.044,0,0,1-.262-.132l-.12-.265-.818-.492a3.391,3.391,0,0,1-.341-.424c-.237-.328-.443-.612-.845-.656l-.074-.007-.027-.07A3.54,3.54,0,0,0,17.785,37l-.576-.3-.03-.18.03-.036-.319-.272-.019-.12-.113.018-.047-.277-.185-.058-.085-.109-.023-.146-.251-.081-.032-.189-.087.015-.169-.386-.052-.058-.133-.073-.041-.253-.088.019-.12-.279-.1-.172-.12.018-.057-.352-.092.015-.123-.288-.089-.157-.123.024-.041-.263,0-.131-.209-.065-.086-.111-.015-.1-.116.023-.039-.234-.116.028L14.05,32l-.116.018-.056-.353-.126-.063-.037-.087-.135-.279-.128.032-.037-.243-.114.022-.06-.354-.118.028-.046-.292-.038-.012-.213-.1-.082-.153-.017-.1-.268.048-.1-.191-.1-.142-.12.02L12,28.969l-.111.025-.042-.24-.1.019-.3-1.022.022.1-.123.021-.057-.35-.114.015-.04-.228-.1.015-.615-1.579-.14.029-.036-.238-.11.018-.425-1.846.021.111-.119.02-.077-.468-.117.018-.056-.35-.12.021-.113-.7-.118.019-.112-.7L8.79,21.7l-.076-.468-.116.022-.15-.932-.113.016-.558-2.667.092-.144h.005L7.838,17.3l-.117.025-.076-.472-.114.02-.04-.236-.12.02-.39-3.176L6.7,11.725l.1-.138-.018-.115.1-.139.033-.005.059-.368.555-.088.075.464.126-.022.015.12.65-.106.135.188-.016.041c.1.015.193.029.289.045l.332-.587.066-.056,1.072-.172.136.1.008.047a.954.954,0,0,0,.35.044c.078,0,.146-.025.123-.043l-.023-.125.285-.043.076-.239.759-.237-.018-.105.085-.04a.966.966,0,0,1,.312-.073,2.084,2.084,0,0,1,.6.052l.094.121a.692.692,0,0,0,.115,0,1.3,1.3,0,0,0,.961-.858l.025-.066.067-.011c.127-.02.241-.035.347-.045a1.348,1.348,0,0,1,1.062.288c.251-.087.266-.123.3-.2a2.736,2.736,0,0,1,.162-.339l-.012-.07.054-.044a8.454,8.454,0,0,1,.934-.4l.085-.03.207.286-.007.169-.07.014.077.468.069,0,.047.051c.057.062.083.092.079.095a.661.661,0,0,1,.245.039l.055.082.7-.219,1.171-.189-.1-.58.071-.133.5-.077.016.112.12-.019.083.528.022-.028A2.712,2.712,0,0,1,21.479,8.6l.1,0,.089.033.013.066c.422-.073.437-.135.524-.487l.02-.079,1.013-.163.021.118.021.053a.345.345,0,0,0,.165.041A.168.168,0,0,0,23.5,8.17l-.019-.112.355-.082a3.043,3.043,0,0,1,.43-.084c.352-.028.5.168.584.491l.192-.1.162.046.013.067.3.023.073-.229.19-.03-.014-.081.076-.043a.783.783,0,0,1,.311-.1.676.676,0,0,1,.519.192,1.758,1.758,0,0,0,.28-.107c-.057-.3-.057-.3-.245-.385l-.077-.147-.041-.229.457.075a1.682,1.682,0,0,1,.281-.37l.115-.094L27.51,7l.154.251.127-.029.021.128.087.753.13.053.008.014c.036,0,.054,0,.065,0a.077.077,0,0,1,.094.072c.695-.1.862-.193.994-.577l.027-.079.084,0a.961.961,0,0,1,.565.1l.169.076.008.049.8-.221v-.01l.062-.131.045-.044a.952.952,0,0,1,.307-.225l-.041-.259.109-.139.119-.019.135-.011-.023.623.083.006.04.06a.19.19,0,0,1,0,.194l-.1.066-.156.025-.1.327c.032.014.058.028.083.039a.582.582,0,0,0,.283.074l.032.033.024-.046.149-.023-.022-.141.719,0L32.569,7.9l.1-.139.057-.008L32.86,7.5l.183-.274.582-.2,0-.017.087-.146.129-.011.142.081.007.138c.014.242,0,.3-.137.437a.657.657,0,0,0,.191.222,1.438,1.438,0,0,1,.148.139l.959-.265.148.08,0,.013.465-.074.106.033L36,7.834l.775-.012.091.086.294-.1.176-.072-.025-.123.827-.137.1.033.121.165c.316-.088.632-.177.952-.264l.146.066.024.144c.037-.006.229-.033.229-.033l.022.125c.1-.049.141-.278.169-.442l.016-.083s.2-.03.26-.033a1.24,1.24,0,0,1,1.182.531l.936-.047c.044-.1.159-.361.159-.361l.463-.237.062.08a.273.273,0,0,0,.126.1.365.365,0,0,1,.168.155l0,.16c.036.032.067.039.193.029l.074-.006-.049-.308.077-.04.25-.164L43.8,6.969l.064-.044a.328.328,0,0,1,.162-.066.212.212,0,0,1,.187.089l.245-.127.088-.037.062.07c.024.027.143.107.278.208a.254.254,0,0,1-.018.335l.038.053a.664.664,0,0,0,.262-.136.423.423,0,0,1,.233-.115h.006l.047-.568.649.056a.731.731,0,0,1,.205.183c.1.112.211.238.332.229.036,0,.078-.018.048-.04l-.022-.12,2.177-.351.438.518c.279-.084.558-.165.842-.244l.153.075,0,.017.387-.064.078-.251.188-.028-.021-.128.131-.011.131.006.042.048a.182.182,0,0,1,.02.036l.747-.121-.119.019-.016-.1.1-.032A.659.659,0,0,1,52.1,6.3a2.566,2.566,0,0,1,.4.013A3.068,3.068,0,0,0,53,6.321c.144-.01.257-.041.273-.089l.044-.127.174-.03.038-.126.411-.066.055-.122.047-.043c.055-.049.055-.049.072-.253l.037-.1s.224-.033.293-.046l.122-.027.044.271c.024.183.056.411.07.443l.465-.075.135.1c.042-.007.081-.011.12-.016l.134.1L56,6.028l.12.017.017.123c.062.021.264.078.264.078l.033.194.1.069c.054-.018.116-.035.178-.051s.133-.037.186-.058l0-.025.081-.139.051-.01a.765.765,0,0,0-.209-.392l.015-.172.179-.034-.114.017-.022-.138.97.007.014.1.931-.152.128.093-.006-.028.043-.092.885-.143.1.075c.108-.048.223-.095.362-.15l.107-.013a1.823,1.823,0,0,1,.671.1,1.245,1.245,0,0,0,.421.078c.119-.009.278-.064.468-.391L62,4.936l.063-.005a1.516,1.516,0,0,1,1.473.584c.307-.126,1.107-.441,1.107-.441L64.6,5.6l1.017-.165.141.094.108-.018.142.1.345-.056.007-.142.723.008a.075.075,0,0,0,0-.018c0-.057.014-.086.1-.2a.316.316,0,0,1,.205-.093.935.935,0,0,1,.285.04,1.087,1.087,0,0,0,.364.05c.086-.007.165-.031.162-.065l-.016-.116.354-.06-.122.018-.015-.12.228-.033-.018-.116.351-.057-.02-.119,1.246-.2s.116.167.152.217l.16-.025.139.1,0,.012.912-.037.113.164.055.046.255-.045.026.15a.765.765,0,0,0,.093,0,.876.876,0,0,0,.521-.293A1.27,1.27,0,0,1,72.9,4.4l.064-.392.34-.067a6.335,6.335,0,0,1,.725-.121,1.142,1.142,0,0,1,.585.078l.385.07-.089.559,1.019-.161a.515.515,0,0,1,.253-.156l.14-.048.037.252.461-.073L76.8,4.249l.09-.037a.862.862,0,0,1,.262-.062,1.176,1.176,0,0,1,.347.032.64.64,0,0,0,.176.024c.042,0,.142-.012.281-.346l.1-.075.073-.006a.919.919,0,0,1,.633.124,1.443,1.443,0,0,0,.22.106l.073.065.06.384-.085.145c.123.528.387,1.687.387,1.687l-.084.042a.578.578,0,0,1-.11.046c-.007,0-.01,0-.008-.007l-.05.079-.088.037.075.689a4.476,4.476,0,0,1-.577.6c.085.571.168.617.6.621h.092l.023.089c.122.446.415.6.88.714l.092.124-.009.1-.08.474-.15.108.2.782.1.323c.129.009.483.045.483.045l.035.226a.636.636,0,0,1,.263-.093l.175.008.036.071.084.265.415.066.031.041.1.178a2.247,2.247,0,0,0,.565.121c.138.02.276.038.408.071l.077.017.006.035.021-.065.057-.022a2.154,2.154,0,0,1,.59-.13c.091-.007.435-.018.435-.018.206-.017.349-.061.463-.5l.019-.074.432-.072.018.118.137.083.007.138c.014.245,0,.3-.149.445l.069.253.764.5,0,.026.2.007.375.043c.193.168.378.337.534.485.36.055.721.112,1.076.176l.063.009.026.06a1.5,1.5,0,0,0,.7.7l.11.07.05.113.391.065.059.986.341.172a1.523,1.523,0,0,1,.216.938c0,.14.007.285.024.432l.339.054.2.383.007.125-.086.062-.131.065a.428.428,0,0,0,.3.631l.065.025.087.533-.1.143.016.114-.992.161-.038.121-.1.135.087.53-.413.423.039.232-.044.045a2.114,2.114,0,0,1-.278.241,1.528,1.528,0,0,0,.246.9l.052.04-.007.067a.862.862,0,0,1-.1.369,1.234,1.234,0,0,0-.067.164l-.023.069-.541.088.076.464-.115.018.033.2-.228.12-.124.023-.1.326-.189.03.025.121-.24.035.022.131-1.029.04-.519.8-.113.018.018.116-.467.076.009.056-.043.045-.377.325.052.332-.1.031c-.081.024-.17.055-.268.091a4.3,4.3,0,0,1-1.15.285c-.076.006-.153.008-.23.008a.756.756,0,0,1-.2-.031.947.947,0,0,0-.291-.036c-.064,0-.12.022-.093.039l.014.078-.066.045a1.315,1.315,0,0,1-.218.115c-.077.033-.1.044-.263.215l-.13.013a1.013,1.013,0,0,1-.8-.2,1,1,0,0,0-.526-.205,1.032,1.032,0,0,0-.487-.039.791.791,0,0,0-.377.087l.015.093-.087.038a.865.865,0,0,1-.285.069,2.313,2.313,0,0,1-.429-.021,2.787,2.787,0,0,1-.3-.047c-.094.172-.186.341-.274.516l-.1.065-.109.018-.082.135-.136.023-.073.13-.081.041-.176.039a.949.949,0,0,0-.014.191,1.458,1.458,0,0,1-.026.3l-.017.084-.08.013.116.7L77.814,29l.038.229-.1.141.151.93-.1.138.03.182-.18.165-.144.1c-.019.123-.078.458-.078.458l-.718.116a.474.474,0,0,1-.189.13.65.65,0,0,1-.491.623.709.709,0,0,0-.345.219l-.1.036a.665.665,0,0,0,.074.173.777.777,0,0,1,.061.74l-.375.455-.116.017.02.124s-.17.022-.191.023c-.046,0-.079,0-.074-.03-.126.216-.251.436-.435.709l-.225.087-.3.1a.824.824,0,0,0-.148.394,1.2,1.2,0,0,1-.177.482,1.68,1.68,0,0,1-.389.317,2.215,2.215,0,0,0-.426.326l.051.307-.065.045-.165.075-.076.482-.524-.048a2.264,2.264,0,0,1-.237.332l0,.774-.962.155-.083.25-.768.127.016.079-.665.381.021.116L69.2,39.5l.012.09-.446.191.015.08-.513.55.021.121-.026.041-.052.061-.058,0c-.049,0-.138.011-.338-.307a1.239,1.239,0,0,0-.684.5l-.032.19-.074.252a1.734,1.734,0,0,1-.509.151,4.194,4.194,0,0,0-.46.121c.054.3.054.3.318.325l.118.01-.007.117a1.153,1.153,0,0,1-.383.851,1.328,1.328,0,0,0-.279.377l-.026.058-1.808.291.022.13-.134.009c-.34.025-.68.043-1.021.062h-.037l.02.1-1.76.285-.14-.1-1.04.169.016.1-.912.314-.028-.142L58.4,44.6l-.018-.12-.462.077-.142-.1-1.518.242-.016-.109-.233.035-.138-.1,0-.023a.452.452,0,0,0-.06,0,.861.861,0,0,0-.452.21.964.964,0,0,1-.512.234h-.127l-.1-.11-.745.012-.106-.1-.589.095.021.117-1.179.189L52,45.036l-.814.134-.094.138-.125.013-.138-.1-.578.1-.12.013-.019-.114-3.041.494-.017-.12c-.628.068-2.255.248-2.255.248a.972.972,0,0,1-.194-.032,1.024,1.024,0,0,0-.294-.034c-.063.006-.122.021-.091.036l.024.121-.355.059.016.086-.088.04a.84.84,0,0,1-.282.079.311.311,0,0,1-.359-.212l-1.278.344-.019-.133-.7.111-.017-.118-.582.095-.137-.093-.465.073-.138-.1-.115.019-.141-.1v-.005a3.164,3.164,0,0,0-.878.507l-.205.035c-.1.019-.209.038-.306.046a.574.574,0,0,1-.444-.128l-.131-.247-.82.242-.153-.082,0-.015-.114.019-.14-.093-.226.037-.136-.1c-.313.053-1.053.17-1.053.17l-.02-.118-.23.038-.135-.1-.234.037.012.092-.083.037a2.453,2.453,0,0,1-.753.147,6.756,6.756,0,0,1-1.458-.031l-.075-.1-.256.041-.018-.117-.287.047-.244-.234-.128-.186-.289.047-.3-.284-.156-.124-.227.038-.153-.219-.226.036-.119-.157L29.6,45.3l-.646-.025-.033-.031a5.747,5.747,0,0,1-.483-.478,5.184,5.184,0,0,1-.681-.054l-.231-.21-.268-.267a2.81,2.81,0,0,1-.447-.108l-.113-.154L26.54,44l-.138-.1-.112.018-.139-.1-.227.039-.143-.1-.193.032s-.114-.169-.15-.219c-.053.008-.234.04-.234.04s-.118-.166-.154-.215l-.221.038-.29-.316-.233.038L24,42.821l-.477-.29-.512-.363L22.98,42l-.526-.28-.008-.06.023-.146-.263-.139-.319-.22-.028-.159Zm-8.6,11.626c.075-.05.14-.1.2-.147a1.726,1.726,0,0,1,.717-.368l.1-.026.108.282a2.462,2.462,0,0,1,.181.635l.015.091-.084.039c-.149.069-.3.13-.45.194l-.068.028-.056-.046a1.56,1.56,0,0,0-.267-.175,1.337,1.337,0,0,1-.428-.329l-.084-.1Zm6.8,8.6a.731.731,0,0,0-.127-.01c-.055,0-.084-.013-.182-.092l.088-.217a.735.735,0,0,0,.127.009l.081.012.1.078ZM74.745,54.6c-.1.248-.2.406-.384.421a.824.824,0,0,1-.343-.082l-.18-.064-.06-.4.535-.231.114.006.06.065c.063.074.063.074.188.124l.114.044ZM90.41,49.2a.891.891,0,0,0-.2.272l-.028.06-.064.01c-.474.077-.935.126-1.387.174a11.7,11.7,0,0,0-2.475.446c-.508.05-1.016.1-1.526.14l.012.081-.087.038a.955.955,0,0,1-.288.073,1.156,1.156,0,0,1-.493-.091.747.747,0,0,0-.214-.061h0l.021.118-.278.047-.079.249-.776.128-.021-.116-.58.092.02.116-1.406.229-.123-.088-.914.254-.148-.081,0-.014-.114.019-.141-.1-.224.035.018.115-1.986.322.018.117-.353.057.02.132-.948.035.015.1-.817.134.021.124-.233.034.019.094-.1.036-.112.025a.682.682,0,0,1-.371-.106l-.038-.02.01.064-.232.04.018.119-1.4.224.014.092L72.37,53a.57.57,0,0,1-.163.04.42.42,0,0,1-.292-.082l-1.223.2-.028.118-.113.021-.1,0-.04-.046a.165.165,0,0,1-.024-.04l-.631.1.018.112s-.508.087-.7.117l-.107-.009a3.713,3.713,0,0,0-.682-.029c-.146.011-.261.04-.3.044h-.007c-.06.125-.116.252-.227.445a.531.531,0,0,1-.22.069.466.466,0,0,1-.452-.315l-1.382.34L65.551,54l0-.022-.963.051-.112-.1-.249.041-.024-.146a.462.462,0,0,0-.068,0,1.81,1.81,0,0,0-.663.257,1.559,1.559,0,0,1-.634.232l-.117,0-.015-.1-.226.037-.116-.048-.113-.156-.161.028-.141-.1v-.009l-1.536.127-.016-.105-.354.055-.02-.144a1.083,1.083,0,0,0-.154,0,1.639,1.639,0,0,0-.7.273,1.676,1.676,0,0,1-.7.275.988.988,0,0,1-.179,0l-.1-.12-1.1-.063-.013-.092a.873.873,0,0,0-.139.079.878.878,0,0,1-.4.156.7.7,0,0,1-.176-.006l-.079-.1-.25.044L56,54.215l-.579.094.026.132-1.193.072.019.1-.469.078-.087.12-.1.031a.272.272,0,0,1-.226-.081l-1.08.287-.149-.082,0-.012-.353.056-.01-.063-.031.072L50.06,55.3l-.137-.1-.115.018-.121-.085c-.266.08-.535.157-.823.237l-1.407.12.016.106-.931.151-.143-.1-.581.094-.119.008-.018-.105-1.163.189-.139-.1-.667.1c-.039.019-.092.049-.156.084a2.465,2.465,0,0,1-.884.353.7.7,0,0,1-.158-.006l-.084-.013-.017-.083-.119.018-.142-.1v-.005l-2.812.34.019.1-1.138.315-.149-.079,0-.016-.347.057-.021-.12-.59.094-.015-.117-.581.1-.142-.1-3.967.643-.02-.117-1.192.19-.073-.063-.033-.039-.04.129-.759.124-.142-.1-.235.035-.017-.117-.226.039-.14-.1,0-.023-.02,0a.359.359,0,0,0-.268.17.519.519,0,0,1-.368.225.443.443,0,0,1-.238-.061l-.109-.151-.164.028-.138-.1,0-.029a1.014,1.014,0,0,0-.165,0,2.155,2.155,0,0,0-.815.311,1.687,1.687,0,0,1-.611.246.4.4,0,0,1-.227-.056l-.113-.153-.274.045-.029-.152a1.437,1.437,0,0,0-.281,0,5.834,5.834,0,0,0-.75.137,5.713,5.713,0,0,1-.754.138,1.354,1.354,0,0,1-.372-.016l-.082-.017-.014-.079-.186.033-.155-.217-.744.121-.141-.1-.7.113.12-.018.021.13-1.551.114-.132-.109V57.81a.637.637,0,0,0-.087,0,2.266,2.266,0,0,0-.861.318,1.144,1.144,0,0,1-.425.166H18.88l-.091-.105-.258.042-.02-.129q-.479.027-.965.047l-.113-.1-.358.058-.132-.1-.35.058-.14-.1-1.05.169-.137-.1-.581.092-.024-.126-1.194.085-.115-.1-.251.041-.015-.118-.227.036.018.13-1.088.043-.126-.114V58l-.39-.033-.115-.126a.428.428,0,0,0-.058,0,1.21,1.21,0,0,0-.44.157,1.066,1.066,0,0,1-.419.14l-.115,0-.017-.1-.23.038-.137-.1L9.629,58l-.142-.1-.576.09.015.095-.092.036a.718.718,0,0,1-.205.045A.89.89,0,0,1,8.089,58a1.121,1.121,0,0,1-.152-.094L7.354,58l-.022-.118-.126-.032-.08-.508.08-.039c.219-.1.258-.147.236-.173a.541.541,0,0,1-.063-.514l.089-.118a1.024,1.024,0,0,0,.2-.285l.027-.079.081,0a2.1,2.1,0,0,1,.971.126l.129.054.306-.048.2.276.089-.1.062-.109.056-.011c.141-.029.24-.044.31-.056.129-.019.129-.019.2-.12l.084-.122.109-.049a3.277,3.277,0,0,1,.085-.363,2.417,2.417,0,0,1,.55-.245c.12-.045.234-.088.31-.121l.014-.386-.442.074-.057-.353a7.921,7.921,0,0,1-1.5.361l-.161.023.023-.16a.642.642,0,0,0,.011-.125.7.7,0,0,1,.051-.208l-.019-.12.7-.113-.019-.116.231-.039.03-.124.189-.029.133.094.205-.033.04.081c.039.079.054.122.044.122l.115.073.025.165.4.063.08.1,1.358-.22.183-.39.216-.034.077-.251.89-.144-.019-.095.455-.19-.015-.1.071-.041a1.42,1.42,0,0,1,.6-.138l.008,0a.658.658,0,0,0,.454-.164l.021,0,0-.743.9,0,.139.2,1.183-.4-.045-.262.265-.015a.714.714,0,0,1,.409.054l.053.092.252-.042.123,0,.014.086c.359-.136.428-.379.314-.983l-.032-.169s.419.065.541.088l.079.1.485-.076.021.116.027,0c.187-.025.4-.055.435-.069l-.017-.107-.032-.313.065-.087.019-.017a.344.344,0,0,0,.11-.152l.024-.082.085,0a1.046,1.046,0,0,1,.954.425l.279-.117-.029-.192s.594.1.807.134a1.247,1.247,0,0,1,.088-.153.664.664,0,0,0,.123-.361l0-.073.068-.029a2.882,2.882,0,0,0,.694-.412l.039-.122.114-.2,3.212-1.152.037.995.931-.058-.01-.067.069-.041a2.3,2.3,0,0,1,.838-.265l.123-.026.058.359.119-.016.014.089.682-.223.077.486-.081.137-.149.022a1.185,1.185,0,0,0,.1.6c.135.012.27.022.4.031l.117.038.019.089a.811.811,0,0,0,.346-.14.709.709,0,0,1,.283-.119l.107,0,.127.18.014.053a3.525,3.525,0,0,0,.609.161l.343.074-.02.573c.058,0,.113,0,.166,0a2.472,2.472,0,0,0,.263,0,.42.42,0,0,0,.374-.229l.033-.054.063,0a1.136,1.136,0,0,1,1.189.873.537.537,0,0,0,.241-.145c.022-.021.047-.045.078-.07a.744.744,0,0,0-.164-.224l-.1-.035-.072.007-.04-.06a1.37,1.37,0,0,1-.072-.871c.008-.063.015-.115.016-.151l.062-.1.07-.029a1.185,1.185,0,0,0,.3-.155l-.016-.118.931-.151-.019-.119.233-.039.139.1.008.037.369.062.108.665-.086.123a1.049,1.049,0,0,0,.113.245,2.672,2.672,0,0,0,.313,0,1.507,1.507,0,0,0,.415-.108l-.061-.375.476-.069.08.489a.884.884,0,0,1,.6.348c.4-.111.467-.247.558-.607l.022-.087.089-.006a1.484,1.484,0,0,1,.516.043l.082.016.109.672-.121.018-.138.031a.366.366,0,0,1-.154.314,1.059,1.059,0,0,0,.118.269l.358-.1.507-.1.206-.46s.794-.044,1.156-.069c.037-.31.121-.4.452-.54l.142-.062.1.649h.039c.051,0,.083.009.1.073l.578-.093-.017-.114.116-.025-.113-.7.1-.139-.017-.122.376-.038a.783.783,0,0,1,.409.058l.049.089.133-.022.143.1.537-.087.157.217.858-.138.123.085-.032-.07.119-.046a1.07,1.07,0,0,0,.251-.158.991.991,0,0,1,.529-.243.878.878,0,0,1,.176.005l.088.012.016.087.113-.018.139.1.815-.134.056.039.025-.051.266-.044-.116.02-.02-.118.556-.09.2.383a1.025,1.025,0,0,0,.718.431l.066.078.61-.259.051-.108.165-.325c.056-.039.228-.157,1.3-.243.557-.044,1.11-.059,1.244-.055l.073,0,.031.063c.048.1.059.136.11.162a.288.288,0,0,0,.183.035,1.623,1.623,0,0,0,.307-.068,2.113,2.113,0,0,1,.385-.082.673.673,0,0,1,.286.031l.061.1.245-.039-.114.016.073-.1c-.018-.033-.035-.059-.043-.059h0a.482.482,0,0,1-.249-.062.4.4,0,0,1-.126-.1.246.246,0,0,0-.13-.086l-.088-.028,0-.094a2.141,2.141,0,0,1,.164-.729l.085-.243.424-.069.135.095.1-.018.238.7.081,0a6.075,6.075,0,0,0,.741,0c.187-.015.347-.045.449-.054a.4.4,0,0,1,.063,0,.448.448,0,0,1,.43-.256l.031,0,.088.1.127-.021.138.1.119-.02.108.035.12.163,1.1-.177.071.452a4.193,4.193,0,0,0,.607-.263,1.852,1.852,0,0,1,.67-.25.78.78,0,0,1,.672.321,1.066,1.066,0,0,0,.408-.247.429.429,0,0,1,.177-.117h.013a2.03,2.03,0,0,0-.013-.793l.094-.141-.017-.1,1.508-.388.033.244c.033.249.044.38-.04.486l.344-.057.139.1,0,.027.256.022-.029-.812.106-.1-.036-.174,1.343.088.114.692c.168.008.581.021.581.021l.03.074a1.471,1.471,0,0,0,.2.359c.036.052.073.1.026.114a.617.617,0,0,0,.128.007c.057,0,.086.013.086.072.4-.1.419-.125.464-.227a1.08,1.08,0,0,1,.174-.29l-.026-.177.35-.061-.118.02-.023-.142-.015-.088-.037-.079-.066-.055-.014-.048a.99.99,0,0,0-.047-.122l-.043-.094.087-.056a1.269,1.269,0,0,0,.561-.636l.023-.064s.383-.067.537-.089l.135.1.392-.064.112-.355.172-.405a1.469,1.469,0,0,1,.354-.12H69.7l.1-.321.186-.032-.011-.065.2-.159a.972.972,0,0,0,.5-.755l.008-.084-.375.062-.082-.477.477-.071.059.35-.062.126.074-.014a2.274,2.274,0,0,0,.755-.253,3.527,3.527,0,0,1,.352-.157l.113-.043.22.582.112-.021.039.09a.66.66,0,0,0,.16.253c.037.036.079.079.041.105l.682.022.03.07c.114.269.143.321.406.31l-.056-.338.547-.088.044.064.091.165a.774.774,0,0,0,.292.021.761.761,0,0,0,.467-.151l-.011-.074.058-.042a.411.411,0,0,1,.193-.1.06.06,0,0,1,.019,0c.012-.018.05-.11.064-.144l.026-.064.068-.011c.183-.029.359-.053.521-.065a2.22,2.22,0,0,1,.59.017l.083.016.09.548v.123l-.215.034.037.233-.013-.119.131.1V44.4l.711-.024-.02-.1.354-.058-.024-.165.4.071.079.022,1.318-.35-.019.176a.906.906,0,0,1-.137.429.474.474,0,0,0-.078.285,1.7,1.7,0,0,0,.726-.351,2,2,0,0,1,.555-.325l.1,0,.056.065c.067.077.067.077.2.132l.107.044-.04.109a1.249,1.249,0,0,1-.372.547,1.3,1.3,0,0,0,.142.39l.085-.009A1.975,1.975,0,0,0,81.841,45l.176-.029c.088-.016.175-.031.256-.037a.477.477,0,0,1,.387.1.511.511,0,0,1,.1.321c.008.09.018.2-.017.218l.781-.273.165.32v.056c.126.06.25.118.382.17l.065.026.032.2q.594.006,1.193.005l-.017-.1.231-.027a1.5,1.5,0,0,1,1.207.448,2,2,0,0,0,.553.36l.065.026.033.209a.705.705,0,0,1,.629.341.906.906,0,0,0,.178.219l.3-.047.158.214c.109-.016.478-.078.478-.078l.039.078.1.27.143.047.17.077.088.121.01.05a.523.523,0,0,0,.231.032,1.338,1.338,0,0,0,.339-.091,2.353,2.353,0,0,1,.294-.094l.127-.031.1.587-.148.035A.824.824,0,0,1,90.41,49.2Zm1.95,2.439a1.012,1.012,0,0,1-.5.472,1.458,1.458,0,0,0-.435.334c-.118.02-.509.078-.509.078l.132-1.12.24,0a1.889,1.889,0,0,1,.823.086l.34-.068Z" transform="translate(0 37.313)" fill="#b5825f"/>
      <path id="パス_1147" data-name="パス 1147" d="M.309,2.819a1.675,1.675,0,0,1,.221.194l.756-.119.088.564-.084.037a.7.7,0,0,0-.3.229c-.045.052-.094.108-.137.11a.033.033,0,0,1-.019,0l-.019.535a.432.432,0,0,1,.17.417l-.014.09-.085.013.027.179L.6,5.352l.049.288L.5,5.665a1.362,1.362,0,0,0,.061.395.863.863,0,0,1,.022.568l.1.2.5-.082.3,1.868L1.6,8.579l.051.305.389.177.03.179.1-.026L2.5,10.5l.628,0,.116.077.036.052.011.09.484.04.095.1.439-.074.044.063.081.166a.369.369,0,0,0,.117.008.77.77,0,0,0,.387-.2.829.829,0,0,1,.369-.2.747.747,0,0,1,.215.032.908.908,0,0,0,.288.039c.022,0,.042,0,.059-.007s.045,0,.04.026l.1-.308.055-.021.493-.132.044-.146.054-.147.068-.09A1.588,1.588,0,0,1,7.8,9.151l.09-.019.18.336L8.18,9.45l.211-.02a.776.776,0,0,0,.054-.283,1.109,1.109,0,0,1,.048-.282l.141-.084.035-.095a2.563,2.563,0,0,1,.372-.74L9.029,7.9c-.047-.171-.047-.171-.213-.247l-.059-.026-.032-.2-.047-.392a.319.319,0,0,1,.317-.194.4.4,0,0,0,.133-.025l.007-.13.205-.214L9.518,6.3a.407.407,0,0,0,.024-.229.3.3,0,0,1,.109-.333L9.574,5.27l.014.12L9.476,5.4,9.194,3.66l-.134-.09L9.033,3.4l-.239-.073-.226-.567L8.383,2.7l-.094-.108-.106-.2-.122.022-.14-.321-.08-.128-.069.011-.045-.057c-.054-.066-.106-.141-.072-.16l-.3.007-.734-.683-.336.013L6.02.852,5.663.51,5.177.471l-.092-.1L4.97.387l-.354,0L4.424.208,4.24.013A.723.723,0,0,0,4,0,10.936,10.936,0,0,0,2.072.494L1.375.5l.014.1s-.2.04-.228.041-.041,0-.04-.008L.991.905l-.424.175a3.34,3.34,0,0,0-.306.286c-.087.089-.174.175-.261.251l.1.633-.088.127A.691.691,0,0,0,.309,2.819Zm4.823-.064a.717.717,0,0,0,.126.013l.082.012.1.082-.09.216a.823.823,0,0,0-.127-.011c-.048,0-.075-.011-.177-.093ZM3.807,6.085,3.7,6.074l0-.106c-.014-.446.076-.545.215-.646a.708.708,0,0,0,.138-.117L4,4.852l.093-.013-.208-.61.044-.053a3.073,3.073,0,0,0,.27-.369l.026-.068.538-.09.139.1.006.036.116.02-.008-.038.559-.292.073.432.343.052.028.059c.04.078.055.119.045.121h0l.115.073.009.056a1.5,1.5,0,0,1-.21,1.341l-.1.069-.07-.007L5.8,5.945l-.062.417-.167.092-.105.328-.128.253-.469.2.018.121s-.38.055-.439.06a.456.456,0,0,1-.42-.169L4,7.135h-.1L3.62,6.471l.391-.062.08-.125C4.046,6.109,4.041,6.107,3.807,6.085Z" transform="translate(77.578 51.373)" fill="#b5825f"/>
      <path id="パス_1148" data-name="パス 1148" d="M0,.018c.019.12.038.234.058.346L.172.345C.154.231.135.119.115,0Z" transform="translate(71.824 81.16)" fill="#b5825f"/>
      <path id="パス_1149" data-name="パス 1149" d="M.406.3C.264-.01.337.036,0,0,.026.157.051.312.076.466.233.44.385.415.541.393L.523.279C.484.283.446.29.406.3Z" transform="translate(36.29 88.24)" fill="#b5825f"/>
      <path id="パス_1150" data-name="パス 1150" d="M0,.039C.007.077.014.119.019.156.059.151.1.147.138.139c0,.036.012.075.019.113L.276.232C.263.156.251.078.239,0Z" transform="translate(44.929 87.524)" fill="#b5825f"/>
      <path id="パス_1151" data-name="パス 1151" d="M.366.118C.359.078.354.041.347,0,.23.021.117.037,0,.058c.106.222,0,.1.153.214.008.041.015.083.019.12C.288.372.4.354.523.332.413.111.52.23.366.118Z" transform="translate(43.685 87.945)" fill="#b5825f"/>
      <path id="パス_1152" data-name="パス 1152" d="M.353.082C.2-.029.345.031.1,0,.107.042.113.083.119.12L0,.137.076.605C.229.542.376.475.523.411.5.294.486.178.466.061.429.071.39.075.353.082Z" transform="translate(57.755 85.951)" fill="#b5825f"/>
      <path id="パス_1153" data-name="パス 1153" d="M0,.056C.233.24.106.27.373.115.438-.1.092.05,0,.056Z" transform="translate(46.887 96.659)" fill="#b5825f"/>
      <path id="パス_1154" data-name="パス 1154" d="M.116.155,0,.174C.02.287.038.4.058.523c.22-.109.1,0,.213-.155C.347.354.427.342.506.328.449.219.39.111.334,0,.111.107.229,0,.116.155Z" transform="translate(67.168 94.462)" fill="#b5825f"/>
      <path id="パス_1155" data-name="パス 1155" d="M0,0,.145.235C.419.215.152.155,0,0Z" transform="translate(4.902 41.232)" fill="#b5825f"/>
      <path id="パス_1156" data-name="パス 1156" d="M0,0A.286.286,0,0,0,.1.171Z" transform="translate(4.803 41.061)" fill="#b5825f"/>
      <path id="パス_1157" data-name="パス 1157" d="M.778.881C.664.459.291-.036,0,0,.335.283.425.814.778.881Z" transform="translate(4.01 39.645)" fill="#b5825f"/>
      <path id="パス_1158" data-name="パス 1158" d="M0,0A3.226,3.226,0,0,0,.234.229L.382.2C.254.135.12.073,0,0Z" transform="translate(3.953 40.044)" fill="#b5825f"/>
      <path id="パス_1159" data-name="パス 1159" d="M.434.42C.29.282.132.15,0,0,.125.174.282.329.42.492Z" transform="translate(3.806 40.073)" fill="#b5825f"/>
      <path id="パス_1160" data-name="パス 1160" d="M0,.573c.232.478.42,0,.669.6C.782,1.055.219.245.517.226.379-.29.35.27.146.051.2.176.282.292.35.412.341.846.007.282,0,.573Z" transform="translate(3.342 38.293)" fill="#b5825f"/>
      <path id="パス_1161" data-name="パス 1161" d="M0,.018l.069,0C.032,0,0-.01,0,.018Z" transform="translate(14.722 17.293)" fill="#b5825f"/>
      <path id="パス_1162" data-name="パス 1162" d="M0,.036A1.972,1.972,0,0,0,.307.064.4.4,0,0,0,.18,0Z" transform="translate(21.812 15.072)" fill="#b5825f"/>
      <path id="パス_1163" data-name="パス 1163" d="M0,.116A.469.469,0,0,0,.268,0,2.824,2.824,0,0,0,0,.116Z" transform="translate(10.773 20.083)" fill="#b5825f"/>
      <path id="パス_1164" data-name="パス 1164" d="M0,.03A.165.165,0,0,0,.034.114l.014,0V0Z" transform="translate(52.666 5.608)" fill="#b5825f"/>
      <path id="パス_1165" data-name="パス 1165" d="M0,.029A2.1,2.1,0,0,0,.313,0,.738.738,0,0,0,0,.029Z" transform="translate(29.887 14.459)" fill="#b5825f"/>
      <path id="パス_1166" data-name="パス 1166" d="M.069,0a.271.271,0,0,0-.05.29A.472.472,0,0,0,.069,0Z" transform="translate(3.234 31.933)" fill="#b5825f"/>
      <path id="パス_1167" data-name="パス 1167" d="M0,0,0,.012C.037.014.033,0,0,0Z" transform="translate(3.965 29.953)" fill="#b5825f"/>
      <path id="パス_1168" data-name="パス 1168" d="M.007,0,0,.028C.031.023.039.018.007,0Z" transform="translate(4.682 28.595)" fill="#b5825f"/>
      <path id="パス_1169" data-name="パス 1169" d="M.1,1C.256.83.616.873.3.524L.236.559C.364.438.258.173.309,0A.42.42,0,0,0,.193.03C.166.116.127.228.056.4-.078.588.066.776.1,1Z" transform="translate(3.205 30.936)" fill="#b5825f"/>
      <path id="パス_1170" data-name="パス 1170" d="M.1.016C.047-.04-.1.072.1.016Z" transform="translate(14.626 17.374)" fill="#b5825f"/>
      <path id="パス_1171" data-name="パス 1171" d="M0,.036.04.018C.018-.019,0,.008,0,.036Z" transform="translate(6.261 23.887)" fill="#b5825f"/>
      <path id="パス_1172" data-name="パス 1172" d="M.377.3C.245.235.21.107.108,0c-.422.037.57.374.039.307A1.385,1.385,0,0,0,.472.456L.455.132C.178.045.558.312.377.3Z" transform="translate(77.44 21.857)" fill="#b5825f"/>
      <path id="パス_1173" data-name="パス 1173" d="M.028.844,0,.843c.036.129.034.186.112.179C.175.684.014.491.179,0A.368.368,0,0,1,.037.156C.127.278.061.6.028.844Z" transform="translate(53.842 4.232)" fill="#b5825f"/>
      <path id="パス_1174" data-name="パス 1174" d="M.125.061.12.048A.155.155,0,0,0,.084,0,.166.166,0,0,1,0,.061.1.1,0,0,0,.125.061Z" transform="translate(53.754 4.326)" fill="#b5825f"/>
      <path id="パス_1175" data-name="パス 1175" d="M.151.1,0,0C.056.083.106.105.151.1Z" transform="translate(73.155 19.308)" fill="#b5825f"/>
      <path id="パス_1176" data-name="パス 1176" d="M.226,0A2.326,2.326,0,0,0,0,.076.383.383,0,0,0,.226,0Z" transform="translate(29.133 17.61)" fill="#b5825f"/>
      <path id="パス_1177" data-name="パス 1177" d="M.257,0A1.566,1.566,0,0,0,.085.107L0,.2Z" transform="translate(51.263 7.155)" fill="#b5825f"/>
      <path id="パス_1178" data-name="パス 1178" d="M.1,0C-.179.127.2.047.293.336L.575.378A2.314,2.314,0,0,0,.1,0Z" transform="translate(60.255 8.132)" fill="#b5825f"/>
      <path id="パス_1179" data-name="パス 1179" d="M0,.024.018.006,0,0Z" transform="translate(77.913 22.313)" fill="#b5825f"/>
      <path id="パス_1180" data-name="パス 1180" d="M.486.231C.584.166.663.109.649,0,.493.169.229.427,0,.657L.251.5C.249.4.369.316.486.231Z" transform="translate(52.416 5.142)" fill="#b5825f"/>
      <path id="パス_1181" data-name="パス 1181" d="M0,35.976c.018.229.176.66.11.7.066-.014,0-.118-.011-.259.388.071.505.945.864.762l-.046-.292c.18.426.516.645.51,1-.031.291-.316-.083-.471-.206.123.416.532.186.664.665-.029-.271.122-.272.267-.165-.071-.274-.194-.842-.32-.7l0,.108c-.1.008-.2-.125-.266-.186-.095-.38.129-.226.184-.322-.094-.634-.4.051-.531-.534l.056-.093C.848,36.2.792,35.755.533,35.7c.211-.294-.193-.687-.026-1,.288-.036.264.219.248.526s-.026.676.15.82c.073-.328.289.136.432.234l-.37-.925c.057-.088.315-.385.119-.55l-.012.078c-.069-.38-.3-.276-.226-.615.051-.052.144.053.182.078.047-.305-.133-.258-.186-.469.061-.307.221.165.3-.089-.175-.368.12-.553.142-.853-.167.044-.24-.276-.313-.54-.047-.257-.094-.457-.321-.146l-.016-.811c.221-.19.3.629.618.479-.048.193-.119.382-.149.578.389-.012.057-1.278.576-1.538a1.822,1.822,0,0,1,.463-.714l-.369-.037a.529.529,0,0,1,.475-.263,2.309,2.309,0,0,1,.191-.471.359.359,0,0,1,.028.25c.259-.13.229-.215.176-.332a.854.854,0,0,1,.183-.475l.031.212c.032-.115.068-.258.018-.3a.842.842,0,0,0,.086-.214.924.924,0,0,0-.544.227c.493-.56.662-1.128,1.3-1.446.071.079.025.356.082.3.223-.215.272-.587.131-.656a1.422,1.422,0,0,1,.09-.146.375.375,0,0,0,.324-.1.317.317,0,0,0,.17-.113c-.168-.261.3-.645.306-.812a1.268,1.268,0,0,0-.331.361c-.006-.325.005-.618.248-.669-.18.462.559-.175.143.394.6-.129-.02-.356.43-.661l.332-.153c.116.177-.291.47-.18.464l.138-.188c-.024.285-.751.826-.846,1.416a6.29,6.29,0,0,1,.766-.739A9.233,9.233,0,0,1,6.914,24.44a6.29,6.29,0,0,0,1.324-1.592l-.034.039a.306.306,0,0,0-.055-.135l.073,0,.072-.275a7.946,7.946,0,0,0,1.167-.417c-.287.056-.287.058-.4-.048-.087-.193-.107-.288.253-.466.091.115-.1.258.2.175-.161.033-.118-.129.007-.248.233-.058.537-.265.627-.148a.336.336,0,0,1-.22.127c-.056.093.4-.142.237.137l.287-.271c.252-.039-.009.249.108.258.453-.478.578-.888,1.026-1.3a1.522,1.522,0,0,0,.138.279c.439-.137.631-.848,1.1-1.086-.023.123-.221.16-.331.286.733-.3,1.4-.572,2.053-.839a13.378,13.378,0,0,1,2.085-.447l.274-.417.43.118c.387-.041.738-.117,1.081-.183.347-.05.678-.116,1-.192.65-.174,1.315-.291,2.05-.416.461-.064.292.2.515.288,1.02.009,1.248-.41,2.245-.475-.136.1-.364.391.06.4.079-.1.131-.249.4-.188l-.136.1c.247.151.476,0,.994.075a5.852,5.852,0,0,0,2.558-.581c.818.043-.086.361.069.435-.579-.13-.4.056-.529.169.307-.092.678-.146.836.1a2.576,2.576,0,0,0,1.062-.185c-.215.086-.4-.038-.2-.151.356.081,1.26-.042,1.232.248a23.4,23.4,0,0,0,3.345-.5,24.044,24.044,0,0,0,3.26-1.1c.289-.276-.286.045-.136-.129.428-.377.437-.058.771-.38l-.1.223a7.4,7.4,0,0,0,1.6-1.183c-.013.214.526-.08.107.24.26-.154.956.416,1.095.157l-.652-.537c-.019-.077.381-.227.32-.253a2.135,2.135,0,0,0,.842-.058c.171.133-.262.307-.49.419.113.31.863-.206.671.228.465-.3-.148-.111.089-.369l.459-.157-.382.073c.312-.264.3-.558.854-.661l.317-.549c.177.2.371-.159.644-.247l-.068.229a1.824,1.824,0,0,1,.714-.283c-.059.306-.317.138-.281.37l.39-.16c-.079-.124.083-.362-.213-.278a1.953,1.953,0,0,1,1.044-1.232c.5-.033-.264.438.02.544.893-.465.63-1.229,1.118-1.529.659-.341.476-.518,1.058-.976-.083.278.523-.173.733-.132l-.123.32c.149-.178.358-.267.384-.128-.176-.153.611-.791.934-1.205l-.2-.09a5.581,5.581,0,0,1,.934-1.025c.414-.48.189-.51.385-1a.43.43,0,0,1,.529.325c-.191.046-.356.288-.6.438-.466.663-.65,1.407-1.333,1.847.035.584.388-.382.78-.528a.085.085,0,0,1-.023.079.328.328,0,0,1,.081-.055c-.172.242-.484.6-.39.838.345-.351-.039-.584.545-.834.241-.4.771-.362.988-.532.1-.34-.16-.623.415-1.078l-.042.413c.6-.578,0-.552.545-1.09-.209.171-.01-.366-.369-.006a1.386,1.386,0,0,1,.286-.482.944.944,0,0,1,.289-.262c.022-.084-.036-.1-.074-.187-.323.081-.177.465-.649.568l-.014.427c-.369.232-.561.1-.462-.167-.074.094-.119.194-.216.219-.354-.253.464-.248.3-.61l-.182.233c-.288-.109.3-.658.574-.926.375-.218.63-.425.717-.225l-.264.425c.231-.009.33-.51.526-.731a.064.064,0,0,0,.062.024.1.1,0,0,1-.024-.056c.039-.031.076-.039.109,0,.116-.128.281-.459.406-.62.032-.069.05,0,.067.056l.018-.332-.032.146c-.012-.044-.029.009-.043.015-.119.117-.269.157-.166-.162a1.342,1.342,0,0,1,.2-.294c.049-.1.069.1.091.171a2.4,2.4,0,0,1,.04.29c.017.19.015.369.019.5-.04.1-.074.107-.107.056a.5.5,0,0,1-.05-.11c-.017-.048-.034-.113-.059-.068a.494.494,0,0,0-.16.212c.032.134.078.112.142.029.022-.054.042-.014.061.025l.065.117a1.578,1.578,0,0,1,.13.384c-.088.141-.131.061-.173-.027-.045-.068-.083-.219-.123.079.1.2.194.005.307.346-.079.136-.193-.047-.234.237l.026.22c-.067-.106-.084.052-.107.21a1.28,1.28,0,0,1-.08.346c-.032.188.106-.3.062,0,.063-.148.1-.566.214-.587l.033.237c-.068.169-.222.238-.257.419a.191.191,0,0,1,.087-.047c.059-.073.059-.162.152-.242-.023.148.289-.189.53-.072.154.235.267.43.238.574a18.009,18.009,0,0,0,1.8,1.427c-.419-.212-.219.216-.145.513-.361-.363-.577-.181-.69-.033.232.225.581.183.547,0,.254.479.388.126.572.585.143.277-.306.092-.309.238.4.408.354-.135.747.342-.05,0-.1-.027-.1.046.2.275.545.427.688.372.019.505.781.6.494.831.676.439.035-.226.237-.22a1.927,1.927,0,0,1,.837.731c-.156-.117-.355-.155-.466-.319l-.027.3c.668.766.841-.067,1.469.67-.469-.182-.24.057-.541.055.156.037.719.533.464.113a7.059,7.059,0,0,1,.628.588,2.468,2.468,0,0,0,.886.182,2.923,2.923,0,0,1,.757.857c.986.366,1.654,1.132,2.706,1.47l-.063-.053c.716.442-.169-.467.592-.045-.247.211.36.436.537.7.876.627,1.738.645,2.518,1.259-.034.054-.125.094-.3.015a16.614,16.614,0,0,0,1.775.941l-.043.021a10.873,10.873,0,0,0,2.844,1.3c-.095-.007-.167.085-.246.088a3.1,3.1,0,0,0,1.669.7c.411.581.416.132.986.795.014.07-.1,0-.15-.015a10.56,10.56,0,0,0,.882.652c.845.308,1.283.092,1.987.809-.212.359-.542-.29-.751-.035a.776.776,0,0,1,.531.337c-.224.03-.089.059-.267.113.085.205.917.159.894.19.061-.054.031-.13-.131-.24a.791.791,0,0,1,.573.3,3.082,3.082,0,0,0,.556.57c-.1-.111-.376-.515-.115-.527.375.525.835.391,1.268.643.1.311-.037.267-.209.192s-.436-.156-.5-.026c-.01.141-.031.448-.282.354.261.409.617.56.939.884l-.079.032c.2.232.351.483.558.722a2.7,2.7,0,0,1,.253.371,1.044,1.044,0,0,1,.043.4l.036-.284c.068.084.108.383.311.519-.139.011-.171.408-.318.269.489.2.346,1.338.655,1.713-.134.157-.288-.011-.38-.074.091-.381.217-.517.019-.726.036.323-.168.546-.242.484a2.338,2.338,0,0,1,.226.734,1.291,1.291,0,0,0,.139.666c-.2.206-.337.407-.526.244-.3,1.031.873-.249.368.9-.426.428-.051-.628-.428.051l.023-.146c-.743.242.2.53-.137,1.106-.315-.09.022-.5-.389-.236-.229.529.009,1.021-.441,1.445l-.05-.155a13.979,13.979,0,0,1-.984,1.142c-.058-.03-.013-.062.025-.126-.574.412-.088.335-.646.564l-.01.216a1.493,1.493,0,0,0,.909-.794c-.115.406.689-.173.773.142l-.032-.129A6.692,6.692,0,0,0,81.7,31.417a3.678,3.678,0,0,1,.328-1.131,2.08,2.08,0,0,0,.264-1.2c-.364-.2-.01-.179-.052-.982.056.426.284.066.326-.218a1.729,1.729,0,0,1-.182-.548,1.78,1.78,0,0,0-.113-1.592c-.005-.532.142.08.241.174.129-.26-.225-.376-.183-.565a.1.1,0,0,1,.08.038c-.163-.362-.271-.659-.377-.966l-.167-.474-.275-.481c-.344.142-.562-.577-.871-.79.174,0-.19-.414-.3-.618l-.487-.115c-.452-.121-.274-.542-.754-.8l.057.125a3.594,3.594,0,0,1-1.2-1.312,19.137,19.137,0,0,1-3.767-2.211,18.913,18.913,0,0,0-3.782-2.28c-.252,0,.067.24-.165.306a5.575,5.575,0,0,1-.693-.307c.212.213.225.084.148.158l.487.128c.01.034-.044.021-.025.089a1.88,1.88,0,0,1,.554.176c-.316-.051-.512.151-.841-.126.045-.019.1,0,.208.023-.3-.173-.372-.065-.573-.243-.257-.194-.225-.085-.209-.208L68.56,14.9c-.579.069-.985-.47-1.109-.571.2-.165.612.224.933.12l-.236-.314-.106.163-.423-.273.041-.019c-.086.04-.173.078-.258-.039-.007-.034-.026-.1.029-.087l-.365-.068c.274-.084-.25-.2-.1-.377-.979-.625-1.443-.411-2.184-1.166.093.171-.463.171-.707-.028-.126-.139-.138-.206,0-.226l-.408-.1c-.252-.571-.81-.605-1.354-1.116l.087-.065a1.831,1.831,0,0,1-.914-.378l.177-.128c-.339-.385-.558.145-.93-.282-.124.178.093.475.021.677.018-.26-.442-.634-.422-.425-.5-.253-.308-.23-.315-.3l-.343-.085c-.309-.237.075-.3.263-.317-.441-.015-.633-.407-.92-.691l.188.029-.381-.37a1.746,1.746,0,0,1-1.008-.776l.413,0c-.116-.324-.18-.037-.272-.059-.446-.239-.387-.455-.453-.746-.786-.341-.646-1.451-1.416-1.658l.089-.168a1.981,1.981,0,0,1-.492-.476c-.069-.091-.134-.187-.2-.284-.078-.128-.285-.4-.391-.607a6.453,6.453,0,0,0-1.392-2.074c-.459-1.49-.715-1.644-.9-1.62a2.6,2.6,0,0,1-1.022,1.377l.057.067A23.825,23.825,0,0,1,49.055,4.58c-.642.592-1.315,1.158-1.985,1.715-1.352,1.1-2.734,2.113-3.992,3.131l-.06-.1A55.333,55.333,0,0,1,36.2,12.874l-1.779.7a16.14,16.14,0,0,1-1.672.5,17.8,17.8,0,0,1-3.654.315c-.475.12-.181.38-.6.516-.185-.013-.6,0-.6-.149.357-.077.156-.208.279-.264a7.674,7.674,0,0,0-1.9,0l.45.2a2.037,2.037,0,0,1-.732,0c.081-.095-.193-.307-.028-.35-1.146.45-.9-.209-1.883-.026-.19.387-1.427.76-2.215,1.081-.143-.033-.287-.051-.433-.073.568-.047-.029-.3.676-.315a11.092,11.092,0,0,0-1.7.13c.12.089.106.224-.113.29-.347-.018-.4-.232-.8-.181.123-.059.246-.133.372-.183-.283-.119-.483.126-.722.188-.1-.154-.7-.084-.631-.285-.493.32-.711.206-1.245.505.627.021-.1.255,0,.374.212-.076.425-.163.641-.228-.952.11.293-.1.172-.35.467.055-.512.566.216.4a8.967,8.967,0,0,0-1.869.709c.513-.188-.05.207.256.216-.659.183-.193-.053-.449-.176-.364.095-.541,0-.8.319-.6.128.017-.235-.313-.238.077-.127.5-.239.865-.332s.679-.219.513-.5a10.038,10.038,0,0,1,1.115-.53,3.356,3.356,0,0,0-1.521.243l.073.349c-.374.106-.38.351-.648.421.108-.149-.19-.2-.475-.065.1.018.214-.036.2.035-.533.223-.526.478-1.135.772a6.774,6.774,0,0,1,1.235-.077c-.047.282-.325.157-.6.289.03-.046.087-.074-.014-.091l-.257.223c-.683.136-.052-.365-.633-.279-.447-.035-.442.338-.765.359l.079.031a1.235,1.235,0,0,1-.142.051l.012.014c-.315.193-.679.347-.686.558-.075-.058-.277.161-.355.264-.158.14-.442.6-.851.5l.018-.014c-.4.206-.752.312-.723.176l-.665.323-.066-.243c-.544.4-.382.516-.609.984a3.647,3.647,0,0,0-1.249,1.028,1.016,1.016,0,0,0-.209.16l.28-.093c-.416.3-.289.36-.535.588.066-.029.082-.026-.082.071l.082-.071a.845.845,0,0,0-.118.069l.032.007-.15.112c0-.03.053-.078.118-.119l-.1-.021c-.472.082-.369.532-.751.759a.787.787,0,0,1,.1-.123c-.224.117-.72.106-.654.328-.059.019-.095.108-.121.2l-.16.1a1.6,1.6,0,0,1,.159-.094c-.036.127-.055.26-.1.233a5.9,5.9,0,0,0-.485.4.87.87,0,0,0-.26.328l-.145.01c-.147.182-.19.142-.193.1-.79.381-.741,1-1.492,1.523.032.238.307-.007.393.028a4.056,4.056,0,0,1-.252.91c-.419.159-1.276,1.025-1.435.7-.387.63.288-.091.205.291l-.054.065a.916.916,0,0,1,.538-.348c.163.044-.1.614-.235.755L2.056,27.6c-.249.622.155.691.187,1.158-.338.392-.4.034-.662.025a2.742,2.742,0,0,0-.176.523l-.176-.08c-.09.357.045.5-.211.931-.033-.4-.451.635-.493.087-.171.242.157.434-.12.5.149.25.153-.218.283-.321.3-.016-.058.62-.054.968-.154-.011-.117-.265-.315.094a.43.43,0,0,1-.077.556c.174.034-.052.444-.081.67.066-.249.256-.578.4-.387a1.6,1.6,0,0,1-.006.794l.124-.283c.247.4-.3.59-.227,1.116-.128-.222-.087-.358-.212-.562.04.255.18.727.281,1.1l-.275.447c.128.048.013.5.215.478-.054.555-.3-.41-.408-.468-.094.717.375.52.16,1.224ZM2.595,29.26l.025.086a.431.431,0,0,1-.026-.083ZM8.85,20.124a.517.517,0,0,1,.5-.1c-.023.379-1.321.768-1.025.754-.381.431-.323.216-.407.18.494-.277.686-.539,1.136-.761A.394.394,0,0,1,8.85,20.124ZM4.78,23.866l.085-.029C4.78,24,4.744,24.111,4.78,23.866Z" transform="translate(1.72 0)" fill="#b5825f"/>
      <path id="パス_1182" data-name="パス 1182" d="M.093.588A1.389,1.389,0,0,1,0,.441C0,.561,0,.677,0,.8c.313.491.477.453.7.51A3.346,3.346,0,0,1,.131,0C.118.193.087.395.093.588Z" transform="translate(2.218 37.215)" fill="#b5825f"/>
      <path id="パス_1183" data-name="パス 1183" d="M.131.042,0,0,0,.333A.778.778,0,0,0,.131.042Z" transform="translate(3.459 36.839)" fill="#b5825f"/>
      <path id="パス_1184" data-name="パス 1184" d="M.21,0,0,.412C.065.572.368.116.21,0Z" transform="translate(3.851 31.519)" fill="#b5825f"/>
      <path id="パス_1185" data-name="パス 1185" d="M.121,0C.158.344.035.075,0,.357l.1.29C.228.4.254.073.121,0Z" transform="translate(1.657 32.924)" fill="#b5825f"/>
      <path id="パス_1186" data-name="パス 1186" d="M.17,0c.014.137-.306.45-.1.56C-.09.335.334.177.17,0Z" transform="translate(4.439 29.819)" fill="#b5825f"/>
      <path id="パス_1187" data-name="パス 1187" d="M0,.72C.084.443.467.161.361,0,.1.084.153.41,0,.72Z" transform="translate(1.974 29.885)" fill="#b5825f"/>
      <path id="パス_1188" data-name="パス 1188" d="M0,.926C.25.717.535.365.685.516.65.238.645-.109.343.033.465.144.36.314.214.493A.765.765,0,0,1,.195.212,6.042,6.042,0,0,1,0,.926Z" transform="translate(4.756 27.792)" fill="#b5825f"/>
      <path id="パス_1189" data-name="パス 1189" d="M.455.23.578.437C.846.154.288.47.493,0,.326.237.12.339,0,.665.131.65.329.607.455.23Z" transform="translate(2.129 29.112)" fill="#b5825f"/>
      <path id="パス_1190" data-name="パス 1190" d="M.014,1.06A3.086,3.086,0,0,0,.5,0L.345.069C.26.446-.073.766.014,1.06Z" transform="translate(5.791 26.952)" fill="#b5825f"/>
      <path id="パス_1191" data-name="パス 1191" d="M0,.481C.184.076.206.559.317.179L.107,0C-.117.324.2.019.188.173A.5.5,0,0,0,0,.481Z" transform="translate(3.259 27.88)" fill="#b5825f"/>
      <path id="パス_1192" data-name="パス 1192" d="M.367.47.567,0,.09.153C-.175.692.214.269.367.47Z" transform="translate(3.612 26.337)" fill="#b5825f"/>
      <path id="パス_1193" data-name="パス 1193" d="M.2,0A3.031,3.031,0,0,0,0,.856L.074.841Z" transform="translate(4.489 25.559)" fill="#b5825f"/>
      <path id="パス_1194" data-name="パス 1194" d="M.062.053c-.005.125.512-.082.2.013C.256-.076-.152.055.062.053Z" transform="translate(11.604 21.539)" fill="#b5825f"/>
      <path id="パス_1195" data-name="パス 1195" d="M.889,0C.633.266-.124.77.017.86.24.8.692.251.889,0Z" transform="translate(9.16 20.075)" fill="#b5825f"/>
      <path id="パス_1196" data-name="パス 1196" d="M.682.1A.875.875,0,0,0,0,.353C.324.229.612.161.987,0,.841.028.652-.042.682.1Z" transform="translate(21.003 14.587)" fill="#b5825f"/>
      <path id="パス_1197" data-name="パス 1197" d="M.317,0C.165.081-.047.05.009.16.1.207.421.075.317,0Z" transform="translate(24.36 14.535)" fill="#b5825f"/>
      <path id="パス_1198" data-name="パス 1198" d="M0,.321C.278.233.4.109.248,0-.026.162.175.162,0,.321Z" transform="translate(43.967 13.546)" fill="#b5825f"/>
      <path id="パス_1199" data-name="パス 1199" d="M.3.071,0,0,.075.053Z" transform="translate(44.514 13.334)" fill="#b5825f"/>
      <path id="パス_1200" data-name="パス 1200" d="M0,.13C.081.052.147-.019.059,0A.224.224,0,0,1,0,.13Z" transform="translate(46.252 12.512)" fill="#b5825f"/>
      <path id="パス_1201" data-name="パス 1201" d="M0,.025.03.113A1.06,1.06,0,0,1,.138,0,.117.117,0,0,1,0,.025Z" transform="translate(46.072 12.682)" fill="#b5825f"/>
      <path id="パス_1202" data-name="パス 1202" d="M.514.013.058,0C-.2.316.5-.13.329.306Z" transform="translate(46.312 12.212)" fill="#b5825f"/>
      <path id="パス_1203" data-name="パス 1203" d="M1.21,0C.258.53,1.135.808.255,1.247.75,1.129.087,1.549,0,1.7.345,1.56.523.939.861,1.052,1.565.309.374.789,1.21,0Z" transform="translate(47.857 9.721)" fill="#b5825f"/>
      <path id="パス_1204" data-name="パス 1204" d="M0,.255C.04.412.418.164.473,0,.355.064.049.02,0,.255Z" transform="translate(47.421 10.848)" fill="#b5825f"/>
      <path id="パス_1205" data-name="パス 1205" d="M.318.126.321,0,0,.222Z" transform="translate(49.36 9.906)" fill="#b5825f"/>
      <path id="パス_1206" data-name="パス 1206" d="M.119.01,0,.339C.033.222.388-.057.119.01Z" transform="translate(50.191 9.428)" fill="#b5825f"/>
      <path id="パス_1207" data-name="パス 1207" d="M0,.2.112.121c.017.072.354-.04.1.232C.47.207.385-.266,0,.2Z" transform="translate(51.479 8.177)" fill="#b5825f"/>
      <path id="パス_1208" data-name="パス 1208" d="M.039.207.112,0,.053,0A.142.142,0,0,0,.039.207Z" transform="translate(53.592 5.717)" fill="#b5825f"/>
      <path id="パス_1209" data-name="パス 1209" d="M0,.526A2.3,2.3,0,0,0,.562.012C.306-.076.3.341,0,.526Z" transform="translate(52.534 4.839)" fill="#b5825f"/>
      <path id="パス_1210" data-name="パス 1210" d="M.056,0C.072.135.028.086,0,.093.076.219.083.157.056,0Z" transform="translate(53.851 5.952)" fill="#b5825f"/>
      <path id="パス_1211" data-name="パス 1211" d="M.109.979A.457.457,0,0,0,.16.832,6.644,6.644,0,0,1,.271,0C.238,0,.208-.028.177.1c-.1.361-.1.655-.166.332a3.1,3.1,0,0,0,.012.639C.064,1.133,0,.646.057.616c.028.12,0,.209.019.293C.091.967.1.994.109.979Z" transform="translate(53.953 5.081)" fill="#b5825f"/>
      <path id="パス_1212" data-name="パス 1212" d="M0,.5a1.31,1.31,0,0,1,.18.01C.109.386.2.243.264.1.148-.247.051.422,0,.5Z" transform="translate(53.473 4.582)" fill="#b5825f"/>
      <path id="パス_1213" data-name="パス 1213" d="M.415.47.3.274.128.106C.066.045.011-.01,0,0c0-.018.122.131.186.2Z" transform="translate(54.565 5.99)" fill="#b5825f"/>
      <path id="パス_1214" data-name="パス 1214" d="M.064,0,0,.067.443.411Z" transform="translate(54.63 6.354)" fill="#b5825f"/>
      <path id="パス_1215" data-name="パス 1215" d="M.339.371.3.295,0,0Z" transform="translate(54.691 6.651)" fill="#b5825f"/>
      <path id="パス_1216" data-name="パス 1216" d="M0,.031A.812.812,0,0,1,.358.552L.375.369C.231.255.117-.108,0,.031Z" transform="translate(55.555 7.644)" fill="#b5825f"/>
      <path id="パス_1217" data-name="パス 1217" d="M.134,0C0,0,0,.1,0,.207L.276.139C.225.121.136.067.134,0Z" transform="translate(61.349 8.847)" fill="#b5825f"/>
      <path id="パス_1218" data-name="パス 1218" d="M.985.465C.581.122.4.242,0,0,.109.182.444.2.6.4L.46.4Z" transform="translate(61.399 9.184)" fill="#b5825f"/>
      <path id="パス_1219" data-name="パス 1219" d="M0,.093A8.922,8.922,0,0,1,1.364.671c-.039-.136.419-.112.2-.168L.961.313,1.1.253C.759-.058.756.29.375,0,.261.13.369.157,0,.093Z" transform="translate(69.551 14.532)" fill="#b5825f"/>
      <path id="パス_1220" data-name="パス 1220" d="M.257.065C.22-.015.128,0,.033.01-.1.3.2.085.257.065Z" transform="translate(80.764 32.872)" fill="#b5825f"/>
      <path id="パス_1221" data-name="パス 1221" d="M0,0,.008.008C.012,0,.009,0,0,0Z" transform="translate(81.021 32.936)" fill="#b5825f"/>
    </g>
    <g id="グループ_370" data-name="グループ 370" transform="translate(0 21.201)">
      <path id="パス_438" data-name="パス 438" d="M1203.847,1017.506l-5.481-2.021,4.549-12.362,5.481,1.983Zm13.1-17.727c3.344,2.76,5.014,5.987,5.014,9.719,0,4.432-2.253,8.2-6.8,11.313l-3.3-4.781c2.838-1.943,4.276-4.121,4.276-6.531a6.363,6.363,0,0,0-2.215-4.625,27.755,27.755,0,0,0-4.354-3.033l4.043-8.63h-6.842v-5.832h16.017Zm11.157,16.327-5.209-12.012,5.326-2.333,5.208,12.012Z" transform="translate(-1183.05 -986.134)" fill="#b5825f"/>
      <path id="パス_439" data-name="パス 439" d="M1326.259,1016.343l-5.015-2.954a12.668,12.668,0,0,0,1.905-6.569,8.326,8.326,0,0,0-1.827-5.559,6.605,6.605,0,0,0-5.286-2.294,14.133,14.133,0,0,0-8.4,3.149v16.755h-5.831v-10.962c-.894,1.089-1.866,2.333-2.876,3.732l-4.743-3.382a59.9,59.9,0,0,1,7.619-8.863v-3.3h-4.471v-5.83h4.471v-5.793h5.831v10.768a18.153,18.153,0,0,1,8.4-2.1,12.122,12.122,0,0,1,9.369,3.926,13.99,13.99,0,0,1,3.576,9.758A18.2,18.2,0,0,1,1326.259,1016.343Z" transform="translate(-1237.94 -984.466)" fill="#b5825f"/>
      <path id="パス_440" data-name="パス 440" d="M1400.408,1017.506l-5.482-2.021,4.548-12.362,5.482,1.983Zm13.1-17.727c3.343,2.76,5.015,5.987,5.015,9.719,0,4.432-2.255,8.2-6.8,11.313l-3.3-4.781c2.838-1.943,4.276-4.121,4.276-6.531a6.365,6.365,0,0,0-2.216-4.625,27.7,27.7,0,0,0-4.354-3.033l4.043-8.63h-6.842v-5.832h16.016Zm11.157,16.327-5.209-12.012,5.326-2.333,5.209,12.012Z" transform="translate(-1295.645 -986.134)" fill="#b5825f"/>
      <path id="パス_441" data-name="パス 441" d="M1522.82,1016.343l-5.015-2.954a12.657,12.657,0,0,0,1.9-6.569,8.32,8.32,0,0,0-1.827-5.559,6.607,6.607,0,0,0-5.287-2.294,14.137,14.137,0,0,0-8.4,3.149v16.755h-5.831v-10.962c-.894,1.089-1.866,2.333-2.877,3.732l-4.742-3.382a59.94,59.94,0,0,1,7.619-8.863v-3.3h-4.47v-5.83h4.47v-5.793h5.831v10.768a18.155,18.155,0,0,1,8.4-2.1,12.12,12.12,0,0,1,9.368,3.926,13.984,13.984,0,0,1,3.576,9.758A18.192,18.192,0,0,1,1522.82,1016.343Z" transform="translate(-1350.536 -984.466)" fill="#b5825f"/>
      <path id="パス_442" data-name="パス 442" d="M1181.95,1132.934V1113.07h-6.57q-2.274,12.188-8.4,19.671l-4.471-3.732c3.226-3.926,5.559-9.252,6.92-15.938h-6.57v-5.831h7.425a60.235,60.235,0,0,0,.35-6.3h5.831c0,2.061-.117,4.16-.311,6.3h11.623v25.7Z" transform="translate(-1162.513 -1051.186)" fill="#b5825f"/>
      <path id="パス_443" data-name="パス 443" d="M1289.4,1103.2a4.463,4.463,0,0,1-3.265,1.36,4.105,4.105,0,0,1-1.944-.467,53.142,53.142,0,0,1-14.072,26.746l-4.238-4a48.4,48.4,0,0,0,11.974-21.147h-19.243v-5.832h22.936a4.544,4.544,0,0,1,1.4-3.187,4.569,4.569,0,0,1,7.776,3.3A4.343,4.343,0,0,1,1289.4,1103.2Zm-1.671-4.82a2.2,2.2,0,0,0-1.594-.661,2.141,2.141,0,0,0-1.556.622,2.3,2.3,0,0,0-.7,1.516,2.19,2.19,0,0,0,.622,1.672,2.12,2.12,0,0,0,1.633.7,2.255,2.255,0,0,0,1.594-3.849Z" transform="translate(-1217.559 -1048.006)" fill="#b5825f"/>
      <path id="パス_444" data-name="パス 444" d="M1371,1115.9a34.932,34.932,0,0,1-8.2,16.016l-4.393-3.848a29.064,29.064,0,0,0,6.647-12.168h-12.167v-5.831h13.1c.116-1.516.194-3.227.233-5.054l-9.1,1.2-.778-5.792,21.031-2.76.777,5.753-6.1.817c0,2.1-.078,4.043-.195,5.831h8.9v5.831Z" transform="translate(-1271.563 -1049.309)" fill="#b5825f"/>
      <path id="パス_445" data-name="パス 445" d="M1446.432,1135.595v-5.442h31.877v5.442Z" transform="translate(-1325.149 -1067.919)" fill="#b5825f"/>
      <path id="パス_446" data-name="パス 446" d="M1569.321,1119.03a51.892,51.892,0,0,1-12.089,13.567l-3.694-4.51a47.261,47.261,0,0,0,10.768-12.051,48.455,48.455,0,0,0,5.6-15.277l5.714,1.2A55.332,55.332,0,0,1,1569.321,1119.03Z" transform="translate(-1386.502 -1051.082)" fill="#b5825f"/>
    </g>
    <path id="パス_16730" data-name="パス 16730" d="M86.262,5.989a178.9,178.9,0,0,1-9.467,22.777c-1.334,2.674-5.341.325-4.009-2.344q3.607-7.229,6.5-14.762a70.468,70.468,0,0,0-27.9,14.274A64.226,64.226,0,0,0,40.371,37.571c.394.052.788.116,1.182.2A13.168,13.168,0,0,1,51.815,49.5c.626,6.1-4.173,11.539-10.511,10.827-6.311-.708-10.244-7.338-9.782-13.319a18.388,18.388,0,0,1,.708-3.786,28.089,28.089,0,0,0-7.99,5.147,44.949,44.949,0,0,0-9.711,12.683C8.668,72.145,6.441,84.848,4.518,97.116a2.338,2.338,0,0,1-2.856,1.621A2.38,2.38,0,0,1,.041,95.881C2.032,83.176,4.457,70.193,10.52,58.709A47.726,47.726,0,0,1,22.348,43.9a28.46,28.46,0,0,1,12.3-6.143,54.2,54.2,0,0,1,7.391-9.375A75.219,75.219,0,0,1,79.823,6.748a91.556,91.556,0,0,0-16.9-2.1c-2.981-.092-2.994-4.735,0-4.643A97.511,97.511,0,0,1,84.641,3.133,2.344,2.344,0,0,1,86.262,5.989ZM38.4,53.928c3.219,3.371,8.8,1.562,8.836-3.223a8.572,8.572,0,0,0-7.4-8.548,12.427,12.427,0,0,0-2.144-.132C35.875,45.932,35.163,50.535,38.4,53.928Z" transform="matrix(-0.985, 0.174, -0.174, -0.985, 341.918, 222.548)" fill="#b5825f"/>
  </g>
</svg>
