<svg xmlns="http://www.w3.org/2000/svg" width="1438" height="378.357" viewBox="0 0 1438 378.357">
  <g id="グループ_1818" data-name="グループ 1818" transform="translate(-235 -5329.56)">
    <g id="グループ_1082" data-name="グループ 1082" transform="translate(144.612 5151.851)">
      <g id="グループ_1059" data-name="グループ 1059" transform="translate(218.841 181.143)">
        <g id="グループ_1058" data-name="グループ 1058">
          <g id="グループ_1057" data-name="グループ 1057">
            <g id="グループ_1055" data-name="グループ 1055">
              <g id="グループ_1054" data-name="グループ 1054">
                <g id="グループ_1053" data-name="グループ 1053">
                  <path id="パス_9440" data-name="パス 9440" d="M391.038,218.835c-3.819,0-7.811.287-11.631.287-2.2,0-2.227-.956-1.46-3.82l1.612-6.016c.793-2.961,1.265-4.011,3.652-4.011,3.82,0,7.564.286,11.383.286H402.9c3.533,0,4.082-1.337,6-4.584,2.61-4.393,5.4-9.454,7.582-14.038.472-1.051.97-2.2,2.116-2.2a29.1,29.1,0,0,1,4.608,1.337c5.651,1.719,8.744,2.292,8.207,4.3-.23.86-1.1,1.242-2.059,1.624-1.49.573-2.377,2.1-4,4.965-.715,1.242-1.481,2.675-2.636,4.489a7.267,7.267,0,0,0-1.067,2.2c-.511,1.91,1.495,1.91,2.832,1.91h26.833c3.819,0,7.62-.286,11.44-.286,2.483,0,2.393,1.05,1.6,4.011l-1.485,5.538c-.87,3.248-1.343,4.3-3.729,4.3-3.82,0-7.564-.287-11.383-.287h-1.336c-.765,0-1.814,0-1.994.669-.128.477.559.764.986.955,1.044.382,3.225,1.147,2.867,2.484-.23.859-1.6,1.336-2.345,1.623-2.114.764-2.312,1.146-3.3,3.056a80.057,80.057,0,0,1-9.758,14.325A9.008,9.008,0,0,0,430.817,245c-.435,1.623,1.461,2.388,2.454,2.96a118.386,118.386,0,0,1,13.751,9.264c1.2.859,1.7,1.146,1.366,2.387-.972,3.629-6.024,11.077-9.366,11.077-.955,0-1.941-.955-2.552-1.527-2.8-2.388-15.44-12.224-18.592-12.224a5.778,5.778,0,0,0-2.713.86c-10.959,6.686-27.1,10.6-38.728,12.319-1.293.191-4.789.765-5.839.765-4.393,0-3.581-8.023-2.684-11.365.537-2,2.161-2,5.267-2.2,8.149-.477,20.329-2.1,28.526-5.252,2.236-.86,2.93-.955,3.134-1.719.179-.668-.368-.764-2.264-1.528-2.418-.955-4.906-2-7.393-3.056a3.3,3.3,0,0,0-1.426-.381c-1.051,0-1.586.573-2.2,1.432-1.32,1.719-2.142,2.292-3.193,2.292-3.438,0-10.385-2.579-9.669-5.252.255-.955,5.522-7.067,6.523-8.308,3.322-4.2,7.047-9.55,10.351-14.039a2.861,2.861,0,0,0,.568-1.051c.435-1.623-1.475-1.623-2.239-1.623Zm23.491,0c-2.96,0-3.477.86-6.3,4.966-1.1,1.623-2.525,3.724-4.509,6.494a6.139,6.139,0,0,0-1.015,2c-.384,1.433.583,2.1,1.723,2.483,2.991.955,9.149,3.629,12.064,4.871a2.581,2.581,0,0,0,1.495.477c1.623,0,3.849-2.96,6.617-6.876,1.69-2.387,6.844-10.218,7.432-12.414.538-2.006-1.468-2.006-2.9-2.006Z" transform="translate(-243.945 -182.068)" fill="#fff"/>
                  <path id="パス_9441" data-name="パス 9441" d="M576.823,206.5c4.963,6.78,6.079,15.089,3.546,24.543-3.608,13.465-14.134,25.307-27.689,31.705-2.746,1.337-9.841,4.3-12.515,4.3-3.342,0-6.049-8.786-5.332-11.46.229-.86,1.192-1.242,4.14-1.91,11.845-2.865,22.784-9.836,26.059-22.06,4.018-14.993-5.854-20.914-8.719-20.914-1.623,0-2.275,1.719-2.831,3.438-4.607,13.274-12.777,29.509-24.377,40.014-4.684,4.3-10.241,7.927-15.97,7.927-6.4,0-10.473-4.393-11.879-9.836-1.07-4.2-.567-9.645.687-14.325,6.141-22.919,28.695-41.159,51.708-41.159C563.389,196.756,571.789,199.62,576.823,206.5Zm-60.6,31.227c-.614,2.292-1.91,9.264,1.433,9.264,2.291,0,7.227-6.3,8.72-8.308,5.185-6.877,11.645-21.01,12.566-24.447.205-.765,0-1.433-.857-1.433C535.314,212.8,520.545,221.586,516.221,237.724Z" transform="translate(-266.015 -184.054)" fill="#fff"/>
                  <path id="パス_9442" data-name="パス 9442" d="M676.867,221.809a2.016,2.016,0,0,0,1.958,2.673h16.806c4.3,0,8.671-.286,12.968-.286,2.483,0,2.392,1.051,1.547,4.2l-1.535,5.73c-.845,3.152-1.343,4.3-3.825,4.3-4.3,0-8.518-.287-12.814-.287H675.166a3.836,3.836,0,0,0-3.391,2.674l-3.147,11.746c-.588,2.2-.916,4.489-1.5,6.685-3.122,11.651-15.41,12.606-24.291,12.606-2.768,0-5.417-.1-5.757-2.388-.252-1.91.8-7.257,1.361-9.359.435-1.623.984-2.96,2.894-2.96.669,0,1.668.19,2.241.19,1.216.1,2.693.287,3.935.287,5.443,0,5.622-.669,6.824-5.157l3.122-11.651a1.98,1.98,0,0,0-1.958-2.674H638.4c-4.3,0-8.671.287-12.969.287-2.577,0-2.461-1.146-1.592-4.394l1.484-5.539c.845-3.152,1.343-4.3,3.825-4.3,4.3,0,8.614.286,12.91.286h16.712a3.725,3.725,0,0,0,3.823-2.864l.435-1.623c.537-2.006,1.108-4.489,1.454-6.494.076-.286.083-.668.16-.955.358-1.337,1.365-1.527,2.414-1.527h.956c2.483,0,3.356-.765,5.191-1.91.242-.191.7-.477,1.279-.86,2.25-1.623,6.576-4.584,6.756-5.252s-1.062-.668-2.59-.668H659.074c-3.915,0-7.907.286-11.823.286-2.483,0-2.366-1.147-1.522-4.3l1.536-5.73c.844-3.152,1.342-4.3,3.825-4.3,3.724,0,7.658.286,11.669.286h27.119c4.3,0,8.524-.1,12.822-.1,2.96,0,3.571.573,5.012,2.673.84,1.147,2.569,3.248,2.108,4.966-1.152,4.3-24.674,17.954-29.47,20.532a6.247,6.247,0,0,0-3.253,4.3Z" transform="translate(-286.29 -182.654)" fill="#fff"/>
                  <path id="パス_9443" data-name="パス 9443" d="M828.892,206.5c4.964,6.78,6.079,15.089,3.546,24.543-3.608,13.465-14.134,25.307-27.689,31.705-2.745,1.337-9.84,4.3-12.515,4.3-3.342,0-6.049-8.786-5.333-11.46.23-.86,1.193-1.242,4.141-1.91,11.845-2.865,22.784-9.836,26.06-22.06,4.017-14.993-5.855-20.914-8.719-20.914-1.624,0-2.275,1.719-2.831,3.438-4.607,13.274-12.777,29.509-24.377,40.014-4.684,4.3-10.24,7.927-15.97,7.927-6.4,0-10.472-4.393-11.879-9.836-1.07-4.2-.566-9.645.688-14.325,6.141-22.919,28.695-41.159,51.708-41.159C815.459,196.756,823.858,199.62,828.892,206.5Zm-60.6,31.227c-.614,2.292-1.91,9.264,1.433,9.264,2.291,0,7.228-6.3,8.719-8.308,5.186-6.877,11.646-21.01,12.567-24.447.2-.765,0-1.433-.858-1.433C787.384,212.8,772.615,221.586,768.29,237.724Z" transform="translate(-307.697 -184.054)" fill="#fff"/>
                  <path id="パス_9444" data-name="パス 9444" d="M941.163,183.2c2.673,0,4.947-.286,6.857-.286,2.293,0,2.228.955,1.408,4.011l-1.2,4.489c-.819,3.056-1.265,4.01-3.557,4.01-1.432,0-2.814-.191-4.151-.191H927.435c-3.151,0-3.682,1.623-4.4,4.3L908.093,255.3c-1.305,4.871-2.394,9.646-3.7,14.516-.819,3.056-1.278,3.343-4.429,3.343h-5.538c-2.483,0-2.979-.287-2.237-3.056,1.33-4.965,2.826-9.836,4.156-14.8l15.66-58.445c.921-3.438,1.531-6.781,2.452-10.218.844-3.152,2.5-3.629,5.269-3.629,2,0,3.863.19,5.774.19Z" transform="translate(-330.704 -181.765)" fill="#fff"/>
                  <path id="パス_9445" data-name="パス 9445" d="M1012.659,193.176c1.33.382,2.3.669,2.073,1.528-.179.669-1.045,1.05-1.79,1.337-1.829.764-2.9,3.343-4.026,6.111l-.8,1.91c-.249.573-.472,1.05-.523,1.241a1.517,1.517,0,0,0,.469,1.815,4.54,4.54,0,0,0,2.164.477,14.716,14.716,0,0,1,7.483,2.006c5.356,3.534,5.392,9.454,3.55,16.331-2.277,8.5-7.731,22.442-13.974,29.7-6.656,7.735-14.23,10.7-23.014,10.7-2.769,0-3.934-.287-4.25-2.675a34.731,34.731,0,0,1,.484-9.645,2.515,2.515,0,0,1,2.4-2.2c1.337,0,2.648.1,3.986.1,5.824,0,7.194-.477,10.171-4.106,4.126-5.061,8.391-15.279,9.952-21.1,1.2-4.489.892-5.826-2.736-5.826-3.247,0-4.208.382-5.913,3.534-6.145,11.173-14.384,21.964-23.2,31.7-1.9,2.1-7.281,7.927-9.288,9.359a3.239,3.239,0,0,1-1.8.669c-2.1,0-9.911-5.061-9.068-8.213.256-.955,1.588-2.006,2.677-2.865a110.827,110.827,0,0,0,24.258-26.739,6.85,6.85,0,0,0,.938-1.719c.256-.955-.19-1.432-1.144-1.432s-7.584,2.292-8.858,2.769a5.047,5.047,0,0,1-1.969.573c-1.623,0-1.7-3.629-1.569-6.972.111-2.2.179-6.016.436-6.971.384-1.432,1.485-1.623,4.019-1.814a107.633,107.633,0,0,0,15.372-2.483c2.011-.382,3.242-1.051,4.091-3.152,1.425-3.533,3.451-10.027,4.449-13.752l.384-1.432c.255-.956.677-1.815,1.823-1.815C1000.873,190.12,1010.973,192.7,1012.659,193.176Zm23.4,7.831a56.542,56.542,0,0,1,4.863,9.646c.089.381.342.859.545,1.527,1.276,3.438,3.73,10.314,3.3,11.937-.82,3.056-10.961,8.118-13.54,8.118-1.337,0-1.6-1.528-1.791-2.578-1.653-7.735-3.214-15.089-7.516-21.488-.28-.381-.77-1.05-.616-1.623.589-2.2,9.992-7.354,12.379-7.354C1034.92,199.192,1035.523,200.147,1036.058,201.006Z" transform="translate(-341.134 -182.957)" fill="#fff"/>
                  <path id="パス_9446" data-name="パス 9446" d="M1131.045,189.187c.9.191,1.4.477,1.195,1.242a1.744,1.744,0,0,1-.88,1.146c-1.86,1.241-1.937,1.527-3.343,5.348-.351.955-1.028,2.769-1.853,4.775-.1.382-.3.764-.4,1.146-.359,1.337.086,1.814.811,2.674.628.859,2.376,3.247,2.018,4.584-.2.764-2.046,2.292-3.914,3.915-2.378,2.1-3.449,3.247-3.576,3.724-.077.287.038.573.324.573a23.606,23.606,0,0,0,3.237-2.1c.364-.286.7-.477.822-.573,6.7-4.679,13.914-7.735,21.171-7.735,14.133,0,21.018,11.364,17.333,25.116-3.454,12.893-13.448,21.678-25.99,27.5-3.924,1.814-11.592,4.775-15.317,4.775-4.105,0-4.572-8.6-3.933-10.983.589-2.2,2.29-2.483,4.111-2.865,4.266-.955,9.374-2.2,13.47-4.3,5.88-3.056,10.947-7.353,12.61-13.561,1.587-5.92-.482-11.746-6.975-11.746-7.831,0-20.789,7.735-25.061,12.988a7.952,7.952,0,0,0-1.512,3.152l-.23.859c-1.356,5.062-2.617,10.123-3.757,15.089-.365,1.719-2.6,12.892-2.7,13.273-.2.765-.568,1.052-2.051,1.242-2.941.286-5.641.382-8.6.382-4.011,0-5.348,0-4.836-1.91a9.019,9.019,0,0,1,.506-1.528c1.15-2.865,3.234-9.932,4.052-12.988.205-.764.391-1.814-.755-1.814-1.336,0-6.285,5.635-7.382,6.876-.56.669-1.268,1.528-2.127,1.528-2.2,0-7.705-8.309-7.142-10.41.281-1.05,1.587-2,2.773-2.864l.726-.573a147.033,147.033,0,0,0,21.233-20.437,7.239,7.239,0,0,0,1.3-2c.257-.955.226-1.911-.824-1.911a6.715,6.715,0,0,0-1.726.382c-2.063.573-7.795,2.006-9.7,2.006-1.623,0-1.735-1.719-1.76-3.056a83.316,83.316,0,0,1,.733-10.219c.538-2.006,2.021-2.2,3.454-2.2h1.337c2.387,0,10.459-.192,12.465-1.624a4.97,4.97,0,0,0,1.774-3.056c1.093-3.725,2.092-7.449,3.089-11.173l.615-2.292a2.007,2.007,0,0,1,2.249-1.623C1119.823,187.946,1129.429,188.8,1131.045,189.187Z" transform="translate(-361.867 -182.598)" fill="#fff"/>
                  <path id="パス_9447" data-name="パス 9447" d="M1237.462,206.906c.9.191,1.878.477,1.648,1.337-.1.382-.466.669-1.263,1.146-1.5.956-2.269,2.769-2.941,4.2a83.457,83.457,0,0,0-4.823,13.369c-1.612,6.016-2.594,12.893-1.475,18.336.329,1.623,1.229,4.679,3.329,4.679,2.2,0,5.441-3.915,6.711-5.444.975-1.146,2.167-2.388,3.6-2.388,2.865,0,8.473,5.444,7.859,7.735s-6.363,7.353-8.472,9.168c-4.34,3.725-8.528,6.876-13.779,6.876-6.4,0-10.586-4.679-12.79-9.645-4.4-9.931-1.337-23.874,1.81-35.62.487-1.815,3.964-13.37,4.418-14.707a1.965,1.965,0,0,1,2.032-1.528C1224.568,204.423,1235.2,206.428,1237.462,206.906Zm35.769-3.056c2.579,0,8.536,5.921,10.921,12.7a43.9,43.9,0,0,1,1.821,19.577c-.219,1.528-.546,3.82-.853,4.966-.537,2.006-1.245,2.865-3.308,3.438a37.771,37.771,0,0,1-9.507,1.623c-3.533,0-3.3-1.241-2.611-4.87,2.212-11.46.632-20.532-6.7-27.026a1.5,1.5,0,0,1-.52-1.624C1263.063,210.439,1270.367,203.85,1273.231,203.85Z" transform="translate(-383.783 -185.228)" fill="#fff"/>
                  <path id="パス_9448" data-name="パス 9448" d="M1358.217,206.906c.9.191,1.878.477,1.647,1.337-.1.382-.466.669-1.261,1.146-1.5.956-2.27,2.769-2.941,4.2a83.458,83.458,0,0,0-4.823,13.369c-1.612,6.016-2.595,12.893-1.476,18.336.33,1.623,1.229,4.679,3.33,4.679,2.2,0,5.441-3.915,6.711-5.444.975-1.146,2.167-2.388,3.6-2.388,2.864,0,8.472,5.444,7.858,7.735s-6.363,7.353-8.472,9.168c-4.34,3.725-8.528,6.876-13.779,6.876-6.4,0-10.587-4.679-12.79-9.645-4.4-9.931-1.337-23.874,1.811-35.62.486-1.815,3.964-13.37,4.418-14.707a1.964,1.964,0,0,1,2.031-1.528C1345.323,204.423,1355.958,206.428,1358.217,206.906Zm35.77-3.056c2.577,0,8.535,5.921,10.92,12.7a43.9,43.9,0,0,1,1.821,19.577c-.219,1.528-.547,3.82-.854,4.966-.538,2.006-1.245,2.865-3.308,3.438a37.769,37.769,0,0,1-9.506,1.623c-3.533,0-3.3-1.241-2.611-4.87,2.211-11.46.632-20.532-6.7-27.026a1.5,1.5,0,0,1-.519-1.624C1383.818,210.439,1391.122,203.85,1393.987,203.85Z" transform="translate(-403.751 -185.228)" fill="#fff"/>
                  <path id="パス_9449" data-name="パス 9449" d="M1434.145,272.984c-2.673,0-4.947.287-6.857.287-2.291,0-2.227-.955-1.409-4.011l1.2-4.488c.819-3.056,1.265-4.011,3.558-4.011,1.432,0,2.813.191,4.15.191h13.083c3.151,0,3.681-1.623,4.4-4.3l14.943-55.771c1.305-4.87,2.394-9.645,3.7-14.515.82-3.056,1.278-3.343,4.429-3.343h5.539c2.482,0,2.979.286,2.238,3.056-1.331,4.966-2.827,9.836-4.158,14.8l-15.66,58.445c-.921,3.438-1.53,6.781-2.45,10.218-.845,3.152-2.5,3.629-5.27,3.629-2.006,0-3.863-.192-5.774-.192Z" transform="translate(-418.921 -181.784)" fill="#fff"/>
                  <path id="パス_9450" data-name="パス 9450" d="M1570.094,191.279c.256-.955.677-1.815,1.823-1.815.956,0,11.055,2.578,12.742,3.056.713.19,2.33.573,2.074,1.527-.18.669-.925.955-1.887,1.337-1.733.764-2.805,3.343-3.9,6.016l-.549,1.337c-.249.573-.722,1.623-.8,1.91-.589,2.2,1.391,2.292,2.634,2.292a13.715,13.715,0,0,1,7.362,2.1c5.731,3.915,5.462,9.55,3.645,16.33-2.251,8.4-7.8,22.347-13.974,29.7a28.7,28.7,0,0,1-23.014,10.7c-2.769,0-4-.381-4.249-2.674a35.549,35.549,0,0,1,.484-9.645c.332-1.241.995-2.292,2.427-2.292,1.338,0,2.649.1,3.986.1,5.634,0,7.265-.382,10.147-4.011,4.15-5.157,8.417-15.375,9.978-21.2,1.177-4.393.892-5.825-2.832-5.825-3.151,0-4.113.381-5.817,3.533-6.146,11.173-14.48,21.964-23.227,31.8-1.778,2-7.281,7.926-9.261,9.263a2.71,2.71,0,0,1-1.8.669c-2.2,0-9.911-5.061-9.094-8.117.256-.956,1.371-1.911,3.309-3.439a109.254,109.254,0,0,0,23.653-26.262,6.993,6.993,0,0,0,.912-1.623c.255-.955-.19-1.432-1.144-1.432s-7.56,2.2-8.834,2.674a5.8,5.8,0,0,1-2.088.669c-1.528,0-1.676-3.725-1.536-7.449a49.625,49.625,0,0,1,.524-6.589c.332-1.241,1.077-1.528,4.018-1.815a117.4,117.4,0,0,0,15.251-2.387c2.61-.477,3.388-1.242,4.366-3.82,1.527-3.915,3.22-9.168,4.3-13.179Zm36.333,9.454a48.65,48.65,0,0,1,5.176,9.55c.895,2.006,4.785,11.364,4.3,13.179-.844,3.152-10.864,8.117-13.537,8.117-1.051,0-1.3-.859-1.7-2.578-1.607-7.543-3.239-14.993-7.541-21.391a2.27,2.27,0,0,1-.59-1.719c.537-2.006,9.2-6.876,11.392-6.876C1605.169,199.015,1605.8,199.874,1606.427,200.733Zm11.455-7.831c1.818,2.483,3.164,4.584,2.935,5.444-.511,1.91-5.947,5.444-7.093,5.444-.381,0-.8-.573-1.125-1.146a68.477,68.477,0,0,0-4.879-7.449c-.446-.477-.794-.955-.666-1.432.357-1.337,6.1-4.966,7.25-4.966C1614.972,188.8,1616.625,191.184,1617.883,192.9Zm9.556-9.645c1,1.241,5.161,6.4,4.8,7.735-.511,1.91-6.068,5.539-7.118,5.539-.573,0-.94-.764-1.1-1.242a68.5,68.5,0,0,0-5-7.353c-.28-.381-.8-.955-.642-1.527.359-1.337,6.175-4.871,7.225-4.871C1626.276,181.538,1627.229,182.97,1627.439,183.257Z" transform="translate(-435.716 -181.538)" fill="#fff"/>
                  <path id="パス_9451" data-name="パス 9451" d="M642.486,369.419c.643.1,2.285.381,2.055,1.241a5.129,5.129,0,0,1-1.467,1.91c-2.134,1.91-3.439,6.781-4.1,9.263-.307,1.146-.628,3.056,1.187,3.056.86,0,10.627-1.528,11.321-1.623,2.011-.382,2.955-1.051,3.44-2.865a101.247,101.247,0,0,0,2.2-14.993,9.578,9.578,0,0,1,.245-1.623,2.2,2.2,0,0,1,2.319-1.528c1.242,0,10.19,1.528,11.9,1.91.548.1,1.834.286,1.629,1.051a9.728,9.728,0,0,1-.671,1.432A31.178,31.178,0,0,0,670.825,372l-1.177,4.393c-.691,2.579-.91,4.107,1.1,4.107.86,0,5.622-.669,7.01-.86,1.7-.286,6.367-.955,7.705-.955a1.576,1.576,0,0,1,1.607,2.2c-.589,2.2-1.031,4.2-1.849,7.258-1.562,5.825-1.708,6.017-4.859,6.017h-2.1c-1.815,0-10.009.285-11.448.668-1.942.477-2.631,1.623-3.258,3.248-4.568,12.414-10.211,19.576-23.962,19.576-1.528,0-2.648-.1-3.1-1.623-.425-1.623.457-8.118.994-10.122.307-1.147,1.04-2.1,2.186-2.1.955,0,1.859.19,2.814.19,2.482,0,4.259-.573,5.784-3.056a16.707,16.707,0,0,0,1.36-2.578c.052-.192.168-1.337-.883-1.337a82.943,82.943,0,0,0-8.666,1.337c-5.509.955-6.323,1.146-7.193,4.393l-.384,1.432c-.9,3.343-2.822,10.887-2.443,13.752.441,3.343,3.769,4.106,10.644,4.106a109.108,109.108,0,0,0,17.382-1.432c.694-.1,2.775-.381,3.349-.381,1.528,0,1.424,1.814,1.118,2.96-1.51,5.635-3.1,10.5-4.287,11.365-1.524,1.051-11.131,1.623-18.961,1.623-5.251,0-11.955-.286-16.46-2.006a12.217,12.217,0,0,1-7.689-10.5c-.312-5.253,1.627-12.129,3.014-17.668.41-1.527.533-3.056-1.376-3.056-1.147,0-11.577,2.578-13.424,3.056a3.466,3.466,0,0,1-1.318.286c-1.432,0-1.335-1.432-.591-5.634.481-2.865,1.244-6.781,1.7-8.5.64-2.387,1.646-2.578,3.652-2.578h.19c1.815,0,9.709-.955,11.913-1.337,2.49-.382,3.693-.955,4.41-3.629,1.023-3.819,2.272-9.549,2.914-13.369.128-.477.186-1.051.34-1.623a2.146,2.146,0,0,1,2.37-1.719C630.768,367.891,640.488,369.037,642.486,369.419Zm41.355-9.645c.787,1.336,4.49,7.831,4.106,9.263-.512,1.91-6.462,4.871-7.417,4.871-.573,0-.775-.669-1.074-1.337a67.717,67.717,0,0,0-3.771-8.023,2.8,2.8,0,0,1-.519-1.623c.358-1.336,6.4-4.3,7.453-4.3C683.192,358.628,683.517,359.2,683.841,359.774Zm11.88-6.208c.883,1.338,4.586,7.831,4.2,9.264-.512,1.91-6.366,4.87-7.417,4.87-.573,0-.8-.573-1.1-1.241a53.715,53.715,0,0,0-3.955-8.4,2.037,2.037,0,0,1-.336-1.242c.41-1.527,6.62-4.393,7.479-4.393C695.074,352.42,695.537,353.185,695.721,353.566Z" transform="translate(-282.593 -209.795)" fill="#fff"/>
                  <path id="パス_9452" data-name="パス 9452" d="M791.663,398.226c5.634,0,11.848-.381,12.707-.381,2.483,0,2.583,1.05,1.841,3.82l-1.229,4.583c-1.407,5.252-1.938,6.877-4.994,6.877-3.724,0-8.039-.287-12.241-.287H743.823c-4.2,0-8.767.287-12.3.287-3.247,0-2.76-1.815-1.4-6.877l1.177-4.393c.768-2.865,1.36-4.01,3.844-4.01,1.337,0,6.582.381,12.6.381Z" transform="translate(-303.784 -217.306)" fill="#fff"/>
                  <path id="パス_9453" data-name="パス 9453" d="M841.862,422.142c10.7-14.611,21.32-29.318,33.739-42.879,5.674-6.207,11.634-12.414,17.073-18.814a2.013,2.013,0,0,1,1.619-1.05c1.05,0,5.979,4.775,6.963,5.73l.986.955c1.456,1.337,2.276,2.2,2.046,3.056a2.051,2.051,0,0,1-1.721,1.432c-2.611.477-2.738.955-5.287,3.343-4.807,4.393-9.307,9.072-13.642,13.848a4.976,4.976,0,0,0-1.078,1.527,1.026,1.026,0,0,0,.909,1.241,8.386,8.386,0,0,0,1.6-.286,15.856,15.856,0,0,1,3.541-.381c8.307,0,12.408,4.3,10.131,12.8-1.126,4.2-4.215,10.027-6.1,14.23a25.329,25.329,0,0,0-1.451,3.629c-.255.955-.034,1.91,1.112,1.91,3.342,0,15.21-10.791,18.174-13.656,2.186-2.1,3.328-3.151,4.569-3.151,1.91,0,3.685,10.123,3.224,11.841-.486,1.815-8.349,7.64-10.26,9.073-7.233,5.252-15.879,10.791-24.091,10.791-7.735,0-9.241-6.494-7.4-13.369a74.4,74.4,0,0,1,4.3-11.078,63.107,63.107,0,0,0,2.849-7.067c.435-1.623.144-2.673-1.576-2.673-2.387,0-5.464,1.146-7.871,2.292-4.625,2.292-7.3,4.774-10.663,8.785-4.1,4.966-10.637,14.038-13.458,19.577-.766,1.432-1.532,2.865-3.25,2.865-2.2,0-7.21-2.674-9-3.821-1.392-.859-2.315-1.336-2.085-2.2C835.944,429.973,840.981,423.288,841.862,422.142Z" transform="translate(-321.42 -210.949)" fill="#fff"/>
                  <path id="パス_9454" data-name="パス 9454" d="M1000.607,434.838c-2.579,0-12.548-.573-13.417-2.674-.342-.86,1.33-8.881,1.739-10.41a2.529,2.529,0,0,1,2.569-2.1,27.658,27.658,0,0,1,5.562,1.337,13.635,13.635,0,0,0,3.953.573c2,0,3.495-.573,4.084-2.77.537-2-.279-5.73-2.571-5.73-1.049,0-4.929,2.006-6.255,2.674-6.8,3.629-17.015,8.977-23.508,12.893a8.638,8.638,0,0,0-3.173,2.578c-.682.764-1.244,1.432-2.007,1.432-1.051,0-2.108-3.533-2.718-5.54-1.04-3.247-2.143-6.971-1.784-8.308.282-1.05,1.53-1.432,3.619-2.1,4.923-1.623,20.893-9.55,26.983-12.319a3.8,3.8,0,0,0,2.359-2.387,2.221,2.221,0,0,0-.094-1.433,11.453,11.453,0,0,1,.129-5.825c1.023-3.82,5.937-12.892,9.279-12.892,1.528,0,10.138,3.151,9.754,4.583a6,6,0,0,1-1.174,1.528c-1.243,1.433-3.168,3.629-3.834,6.112-.435,1.623.765,3.915,2.484,3.915.382,0,.694-.1,1.077-.1a28.711,28.711,0,0,1,3.992-.286c10.981,0,18.667,4.106,24.233,11.842,1.467,2.006,6.657,10.791,5.992,13.274-.562,2.1-11.761,7.544-14.244,7.544-1.051,0-1.36-1.337-1.645-2.769-1.418-6.112-3.213-11.173-8.136-14.9a5.693,5.693,0,0,0-2.6-1.337,1.658,1.658,0,0,0-1.478,1.242,1.966,1.966,0,0,0,.005,1.05,20.319,20.319,0,0,1-.286,9.264C1016.855,432.641,1009.106,434.838,1000.607,434.838Zm13.22-71.433c1.146,0,7.786,3.724,9.014,4.489,1.489.859,8.626,4.869,8.166,6.589-.513,1.91-5.064,6.781-6.671,8.5-1.071,1.145-2.921,3.056-3.971,3.056-.764,0-1.418-.765-1.768-1.242-3.2-3.724-8.018-6.781-12.345-9.168-1.253-.669-2.01-1.05-1.729-2.1C1004.883,372.19,1011.249,363.4,1013.827,363.4Zm34.591,21.3c-.461,1.719-5.947,5.444-7.093,5.444-.572,0-.94-.764-1.335-1.433a87.448,87.448,0,0,0-4.853-7.543,1.163,1.163,0,0,1-.458-1.147c.384-1.432,6.272-4.87,7.225-4.87S1048.8,383.269,1048.418,384.7Zm12.748-8.022c-.435,1.623-5.85,5.443-7.092,5.443-.478,0-.636-.477-.82-.859a68.747,68.747,0,0,0-5.464-8.118c-.21-.286-.515-.573-.387-1.05.384-1.433,6.105-4.966,7.25-4.966C1055.514,367.129,1061.576,375.151,1061.167,376.679Z" transform="translate(-342.467 -211.611)" fill="#fff"/>
                  <path id="パス_9455" data-name="パス 9455" d="M1104.616,378.179c.743-2.769,1.294-5.539,2.062-8.4.87-3.247,2.794-4.011,5.849-4.011,2.673,0,5.392.191,8.16.191h5.158c2.673,0,5.4-.191,8.167-.191,2.483,0,4.793.286,3.8,4.011-.768,2.864-1.7,5.634-2.443,8.4l-9.033,33.711c-1.024,3.82-1.857,7.639-2.88,11.46-.511,1.91-1.041,2.1-4.1,2.1h-7.066c-1.814,0-2.718-.19-2.207-2.1l.178-.669a1.716,1.716,0,0,0-1.677-2.291h-.382a2.826,2.826,0,0,0-2.543,2c-.332,1.242-.569,2.483-.9,3.724-.537,2.006-1.448,2.2-4.695,2.2h-5.634c-2.387,0-3.386-.191-2.875-2.1,1.024-3.82,2.238-7.64,3.287-11.556Zm5.5,27.217a1.719,1.719,0,0,0,1.678,2.293h.382a3.256,3.256,0,0,0,2.905-2.293l6.525-24.351a1.717,1.717,0,0,0-1.677-2.292h-.382a3.158,3.158,0,0,0-2.906,2.292Zm39.8-19.863a3.944,3.944,0,0,0,3.39-2.674l4.12-15.375a86.441,86.441,0,0,0,2.068-8.786,3.314,3.314,0,0,1,.159-.955c.307-1.146,1.244-1.433,2.294-1.433a20.581,20.581,0,0,1,2.336.191c1.668.191,3.265.287,4.672.382,4.386.382,7.079.669,6.721,2.006-.154.573-.708.86-1.435,1.432a5.259,5.259,0,0,0-1.627,2.865c-.454,1.337-.683,2.2-1.092,3.724l-4.273,15.948a2.016,2.016,0,0,0,1.956,2.674h5.921c3.247,0,6.283-.287,8.385-.287s2.009,1.051,1.267,3.82l-1.586,5.921c-.819,3.056-1.291,4.106-3.391,4.106s-5.01-.191-8.258-.191h-5.921a3.73,3.73,0,0,0-3.389,2.674l-6.551,24.447c-1.3,4.87-2.323,9.741-3.63,14.611-.664,2.483-1.7,2.769-4.656,2.769H1140.9c-2.96,0-4.029-.286-3.415-2.578,1.331-4.966,2.948-9.932,4.253-14.8l6.55-24.447a1.979,1.979,0,0,0-1.956-2.674h-3.915c-3.248,0-6.259.191-8.454.191-2.007,0-1.916-1.05-1.123-4.011l1.638-6.111c.717-2.674,1.189-3.725,3.195-3.725,2.2,0,5.08.287,8.326.287Z" transform="translate(-363.702 -210.438)" fill="#fff"/>
                  <path id="パス_9456" data-name="パス 9456" d="M1289,403.464c-4.3,16.043-20.328,29.89-35.9,37.053-1.758.859-5.848,2.578-7.566,2.578-4.106,0-7.245-10.027-6.784-11.747.256-.955,1.313-1.336,2.129-1.527a58.065,58.065,0,0,0,20.2-9.455c5.709-4.2,10.555-9.454,12.269-15.852,1.688-6.3-1.967-10.123-8.078-10.123-7.352,0-15.207,4.011-22.019,8.4a4.407,4.407,0,0,1-2.262.955c-3.151,0-4.812-9.836-3.968-12.987.41-1.528,2.143-2.293,3.441-2.865,8.664-3.82,20.93-7.544,29.524-7.544C1284.215,380.353,1293.021,388.47,1289,403.464Zm-26.1-43.738c5.318,2.96,16.845,4.489,23.594,4.965,2.239.191,3.048.382,2.716,1.624-.231.86-1.252,3.247-2.274,5.634-1.322,3.152-2.945,7.067-5.715,7.067-4.774,0-17.349-2.961-21.861-4.3-5.581-1.624-7.077-2.1-6.667-3.63.512-1.91,3.974-7.353,5.277-9.358.663-1.051,1.671-2.675,3.1-2.675A3.9,3.9,0,0,1,1262.909,359.725Z" transform="translate(-387.741 -210.892)" fill="#fff"/>
                  <path id="パス_9457" data-name="パス 9457" d="M275.684,532.249c1,.191,2.927.477,2.595,1.719-.307,1.146-.969.764-2.047,2.292-1.052,1.433-2.341,4.106-4.132,10.791-.461,1.719-.125,2.961,1.784,2.961,2.484,0,8.941-2,11.464-2.865a23.933,23.933,0,0,1,4.75-1.337c1.337,0,1.641,1.719,2.038,4.87.251,1.911.667,5.348.13,7.353-.333,1.242-1.772,1.623-5.682,2.674a140.128,140.128,0,0,1-14.926,2.96c-2.395.382-4.121.765-4.863,3.534-.384,1.432-1.946,8.69-2.4,11.077-.481,2.865.137,3.056,3.484,4.106,5.886,1.911,14.088,5.157,18.653,8.785a2.29,2.29,0,0,1,1.079,2.388c-.664,2.483-7.71,10.6-10.1,10.6-.668,0-1.514-.764-1.985-1.145-1.951-1.624-10.348-7.354-12.831-7.354a2.878,2.878,0,0,0-2.542,2.006c-4,10.314-14.163,13.656-23.33,13.656-9.55,0-19.787-4.2-16.767-15.47,3.172-11.842,16.491-17,26.708-17h1.336a3.467,3.467,0,0,0,3.243-2.483c.2-.765,2.414-10.791,2.959-13.179,2.35-9.836,5.322-19.864,6.309-29.6a7.276,7.276,0,0,1,.193-1.432c.358-1.337,1.555-1.527,2.606-1.527C265.424,530.626,273.4,531.867,275.684,532.249Zm-30.807,59.017c-2.769,0-10.658.573-11.655,4.3-.743,2.77,4.025,3.152,6.03,3.152,3.534,0,7.342-.668,8.518-5.06C248.359,591.458,246.5,591.267,244.877,591.267Z" transform="translate(-219.525 -239.263)" fill="#fff"/>
                  <path id="パス_9458" data-name="パス 9458" d="M389.014,532.858c1.163,1.719,2.325,3.438,3.514,5.062l.77,1.05c1.372,2.006,4,5.73,3.722,6.78-.154.573-.752.669-1.9.669a4.611,4.611,0,0,0-2.643.955c-4.925,3.056-9.563,6.111-14.444,9.359q-8.048,5.444-15.886,11.173c-1.089.859-2.3,1.814-2.658,3.151-.436,1.623,1.192,4.106,2.355,5.825a5.819,5.819,0,0,0,.6.955c3.914,5.348,8.192,10.41,12.47,15.471,2.339,2.674,5.937,7.067,5.4,9.073-.794,2.961-11.537,10.982-14.211,10.982-.573,0-1.489-.86-2.321-2.388-3.372-6.3-8.57-13.274-13.394-19.864-2.516-3.438-5.731-7.831-7.5-11.555a12.539,12.539,0,0,1-.886-9.168,15.943,15.943,0,0,1,4.116-7.163c3.576-3.724,11.808-8.785,16.5-12.033,7.614-5.252,16.292-11.268,22.9-17.762.657-.669,1.34-1.433,2.1-1.433A1.782,1.782,0,0,1,389.014,532.858Z" transform="translate(-239.697 -239.49)" fill="#fff"/>
                  <path id="パス_9459" data-name="パス 9459" d="M467.676,540.6c1.941.955,2.169,1.528,2.016,2.1s-.682.764-1.211.955a10.017,10.017,0,0,0-4.773,3.916c-6.064,8.022-11.026,19.768-13.405,28.649-.64,2.388-1.331,4.966-.186,4.966.669,0,1.134-.669,2.187-2.1.294-.382.587-.764.906-1.242.44-.573,1.052-1.432,1.816-1.432,1.241,0,5.414,2.96,4.979,4.584-.384,1.432-8.267,12.319-9.906,18.431-.281,1.05-.678,3.247-.813,4.106a13.231,13.231,0,0,1-.321,1.91c-1,3.725-9.658,6.112-11.664,6.112-1.719,0-2.181-2.2-2.491-3.533-2.418-10.219-.761-21.392,2.233-32.565,2.559-9.55,6.1-17.763,10.488-27.026,1.71-3.534,3.969-6.972,6.005-11.365.4-.764.963-1.814,1.918-1.814S464.387,538.981,467.676,540.6ZM500.8,537.07c3.335.382,3.666.573,3.461,1.337a51.262,51.262,0,0,0-3.444,9.646l-.23.859c-.307,1.146-.552,2.77,1.263,2.77,1.337,0,5.993-1.337,7.649-1.814a13.157,13.157,0,0,1,2.611-.477c1.05,0,1.176.955,1.207,1.91a38.891,38.891,0,0,1-.91,9.454c-.563,2.1-1.984,2.77-12.324,4.3-2.082.287-3.355.764-3.945,2.961-.384,1.432-2.511,12.224-2.928,14.134-.492,2.2-.29,2.865.677,3.534.9.573,2.882,1.719,3.988,2.578,3.982,2.96,8.07,6.589,7.3,9.454-.742,2.769-6.868,8.881-9.828,8.881-1.719,0-3.143-1.814-4.288-3.247-.908-1.241-1.423-1.815-2.282-1.815-.956,0-1.517.669-2.2,1.432-4.317,5.062-11.506,6.59-16.949,6.59-8.689,0-16.037-4.3-13.427-14.038,1.919-7.163,8.26-11.937,15.206-13.275a36.166,36.166,0,0,1,6.335-.477c2.483,0,3.076-1.146,3.409-2.387.307-1.146,1.373-7.258,1.737-8.977.212-1.146.558-3.152-1.542-3.152-.764,0-9.99.573-15.05.573-1.527,0-3.819,0-3.716-1.815.091-1.05,1.756-8.69,2.114-10.027.281-1.051.926-2.388,2.359-2.388,1.337,0,9.25.764,14.405.764h.86c1.433,0,3.394-.19,3.956-2.292.23-.86,1.995-11.365,2.309-12.892a10.981,10.981,0,0,1,.365-1.719,1.741,1.741,0,0,1,2.006-1.432C492.587,536.02,498.85,536.88,500.8,537.07ZM468.356,595.8c-.486,1.814,2.315,2.769,4.319,2.769,2.2,0,4.6-.764,5.288-3.343.512-1.91-2.232-2-3.664-2C472.771,593.224,468.919,593.7,468.356,595.8Zm46.4-63.411c.883,1.337,4.8,7.736,4.419,9.168-.512,1.91-6.417,5.062-7.372,5.062-.573,0-.871-.669-1.372-2.006-.184-.381-.3-.668-.482-1.05-1.079-2.387-2.051-4.106-3.277-6.3-.185-.382-.578-1.051-.45-1.528.358-1.337,6.333-4.393,7.383-4.393C514.085,531.341,514.5,531.914,514.759,532.391Zm16.516,2.865c-.486,1.814-6.227,5.061-7.277,5.061-.573,0-.731-.477-1.029-1.146a75.835,75.835,0,0,0-4.363-8.309c-.324-.573-.533-.859-.432-1.241.41-1.528,6.551-4.489,7.41-4.489C526.635,525.133,531.632,533.919,531.274,535.256Z" transform="translate(-254.932 -238.355)" fill="#fff"/>
                  <path id="パス_9460" data-name="パス 9460" d="M596.558,541.031c1.183.573,1.558.955,1.38,1.623-.154.573-.466.669-.995.86-2.668,1.051-4.263,3.438-5.711,5.635-2.577,3.915-5.742,10.027-6.868,14.229-.154.573-.435,1.623.424,1.623.573,0,1.083-.477,2.015-1.815.759-1.05,1.663-2.291,2.714-2.291.956,0,4.606,2.769,4.2,4.3a6.473,6.473,0,0,1-.817,1.623c-3.629,5.348-9.491,14.039-10.95,19.481l-.639,2.388c-.589,2.2-2.85,3.152-4.844,3.82a19.525,19.525,0,0,1-5.967,1.241c-2.96,0-3.231-2.2-3.381-4.488-.4-6.685.976-15.757,2.87-22.824a116.973,116.973,0,0,1,7.921-21.01c1.239-2.483,2.6-5.061,3.862-7.64.817-1.623,1.314-2.769,2.174-2.769C585.756,535.015,593.173,539.408,596.558,541.031Zm24.594-6.971a53.905,53.905,0,0,1,7.565-1.146c1.814,0,2.017.669,1.95,3.056-.176,8.5-2.368,20.246-4.748,29.127-4.4,16.426-10.958,30.56-26,42.878-2.326,1.91-7.438,6.017-10.111,6.017-1.528,0-3.606-2.578-4.47-3.629-1.8-2.2-3.318-4.011-2.884-5.635.154-.573.664-1.05,2.135-1.91a52.609,52.609,0,0,0,16.132-14.229c5.115-6.972,7.848-14.325,9.87-21.869a120.648,120.648,0,0,0,4.092-28.459,7.654,7.654,0,0,1,.289-1.432C615.376,535.3,616.72,534.92,621.152,534.06Z" transform="translate(-276.99 -239.641)" fill="#fff"/>
                  <path id="パス_9461" data-name="パス 9461" d="M719.584,533.167c1.069.286,2.017.669,1.865,1.242-.129.477-.925.955-2.276,1.719-.675.382-2.335,3.725-3.152,5.348a5.554,5.554,0,0,0-.4.765c-.077.286-.275.669-.376,1.05-.154.573.118,1.337.787,1.337a12.144,12.144,0,0,0,2.254-.573,5.961,5.961,0,0,1,1.726-.382c.86,0,1.017.478.953,1.433a95.26,95.26,0,0,1-1.707,9.932c-.588,2.2-2.027,2.578-9.834,3.915-3.5.573-3.771,1.241-5.736,4.3-2.8,4.393-5.766,8.69-8.827,12.988-3.992,5.634-8.107,11.364-12.525,16.808-1.123,1.336-2.486,2.865-3.367,4.01a2.74,2.74,0,0,1-2.485,1.432c-3.247,0-11.339-4.01-10.674-6.494a23.8,23.8,0,0,1,3.029-3.82c2.779-3.247,18.28-22.251,18.92-24.639.256-.955-.476-1.432-1.239-1.432-.573,0-2.534.19-3.227.286-1.077.1-3.133.286-4.278.286-2.006,0-2.635-.859-1.128-8.977.109-.765.379-2.483.609-3.343a2.138,2.138,0,0,1,2.37-1.719c1.623,0,3.864.191,5.965.191,8.689,0,9.982-.191,11.6-2.674,2.112-3.247,5.56-11.842,6.354-14.8.2-.764.409-1.527,1.078-1.527C707.11,529.825,717.8,532.69,719.584,533.167Zm4.761,29.987c1.522.381,2.2,1.05,1.741,2.769-.255.955-.907,2.674-1.368,4.393-1.28,4.775-2.151,9.454-3.119,14.134-.518,2.291-.195,2.864,1.772,3.724,2.392,1.05,12.914,6.685,12.2,9.359-.563,2.1-8.009,9.932-11.065,9.932-.764,0-1.871-.859-3.536-2.482a20.071,20.071,0,0,0-1.431-1.432,1.669,1.669,0,0,0-1.374-.573,2.976,2.976,0,0,0-2.536,1.623,24.912,24.912,0,0,1-4.449,4.488c-3.728,2.865-8.517,3.629-12.526,3.629-9.073,0-17.349-4.393-14.585-14.706,2.559-9.55,12.062-13.655,20.561-13.655h.764a2.906,2.906,0,0,0,2.906-2.293c.435-1.623,1.853-10.122,2.334-12.988a37.086,37.086,0,0,1,.821-4.488c.538-2.006,1.506-2.769,3.606-2.769A49.883,49.883,0,0,1,724.344,563.154ZM698.2,598.01c-.512,1.91,1.143,2.865,2.765,2.865,2.2,0,3.268-1.146,3.805-3.151.332-1.242.518-2.293-2.25-2.293C700.9,595.431,698.71,596.1,698.2,598.01Zm45.233-46.221c1.659,2.006,6.14,7.735,5.6,9.741-.793,2.96-10.294,9.55-12.682,9.55-1.146,0-1.621-1.432-2.008-2.482a41.108,41.108,0,0,0-8.636-12.32c-.609-.573-1.386-1.241-1.181-2,.41-1.528,8.62-9.359,11.294-9.359C737.636,544.914,742.288,550.356,743.432,551.789Z" transform="translate(-293.317 -239.131)" fill="#fff"/>
                  <path id="パス_9462" data-name="パス 9462" d="M853.28,558.024a58.26,58.26,0,0,0,6.354-.191,18.317,18.317,0,0,1,2.248-.191c1.527,0,3.886,2.961,4.89,4.2.839,1.146,2.122,2.769,1.713,4.3a46.532,46.532,0,0,1-2.807,4.776c-9.046,14.515-20.487,25.5-34.958,34.952-3.383,2.291-15.112,9.358-18.359,9.358-2.864,0-7.3-8.4-6.811-10.218.23-.86,1.625-1.432,2.37-1.719,11.031-4.106,23.7-12.893,32.468-21.392,1.556-1.527,5.763-5.825,6.249-7.64.512-1.91-1.346-2.1-2.492-2.1H811.583c-4.3,0-8.524.1-12.726.1-2.865,0-3.016-.86-2.019-4.583l1.459-5.444c1.023-3.821,1.75-4.393,4.233-4.393,4.392,0,8.733.191,13.126.191Zm-2.538-20.818c2.96,0,6.016,0,9.1-.1,1.241,0,2.534-.191,3.775-.191,2.387,0,2.41,1.337,1.49,4.775l-1.2,4.489c-1.049,3.915-1.477,5.157-4.438,5.157-4.2,0-8.377-.1-12.484-.1h-22.25c-4.106,0-8.333.1-12.535.1-2.864,0-2.723-1.242-1.75-4.871l1.407-5.252c.845-3.152,1.724-4.3,3.92-4.3,2.865,0,8.041.287,12.719.287Z" transform="translate(-314.897 -240.303)" fill="#fff"/>
                  <path id="パス_9463" data-name="パス 9463" d="M952.852,597.514c-.69,2.578-1.286,5.157-1.977,7.735-.461,1.719-.851,3.534-1.337,5.347-.794,2.961-2.443,3.056-7.217,3.056H938.4c-4.488,0-5-.573-4.414-2.769,1.152-4.3,2.493-8.6,3.645-12.893l5.706-21.3c.384-1.433.162-2.388-1.079-2.388-.859,0-2.356.955-3.153,1.433-3.065,1.814-18.6,10.6-20.793,10.6s-8.819-8.786-8.153-11.268c.281-1.051,1.53-1.432,2.466-1.719,5.573-1.91,15.81-6.971,21.282-9.932a168.054,168.054,0,0,0,29.877-20.628,146.208,146.208,0,0,0,11.984-11.937c.319-.477.881-1.146,1.549-1.146,1.432,0,7.892,5.826,10.194,7.926.916.86,1.424,1.815,1.27,2.387-.179.669-.9.86-1.522,1.051a8.111,8.111,0,0,0-3.874,1.623c-2.9,2.292-8.514,7.544-17.621,14.8-1.962,1.623-2.938,2.769-3.5,4.87Z" transform="translate(-333.721 -239.112)" fill="#fff"/>
                  <path id="パス_9464" data-name="パス 9464" d="M1103.935,558.767a9.162,9.162,0,0,0,.291,1.051c.285,1.432.7,3.438.422,4.489-.615,2.292-10.32,9.645-12.837,11.555-19.392,14.993-37.069,23.589-58.625,32.755a6.038,6.038,0,0,0-3.242,2.484,1.17,1.17,0,0,1-.918.573c-.765,0-1.107-.86-1.309-1.527a61.95,61.95,0,0,1-2.519-7.354c-.36-1.146-1.515-4.679-1.233-5.73.23-.86,1.408-1.337,2.223-1.527a132.931,132.931,0,0,0,27.26-10.506c13.613-6.971,31.518-18.909,42.482-29.89.269-.287.511-.478.778-.765,1.193-1.242,2.238-2.292,3.288-2.292C1101.906,552.082,1103.485,557.239,1103.935,558.767Zm-52.266-19.481a73.735,73.735,0,0,1,13.581,12.033,1.613,1.613,0,0,1,.4,1.719c-.742,2.769-9.594,10.5-11.791,10.5-.859,0-1.583-.861-2-1.433a66.819,66.819,0,0,0-13.049-11.173c-.636-.477-1.438-1.051-1.182-2.006.512-1.91,8.673-10.981,11.442-10.981A7.149,7.149,0,0,1,1051.669,539.285Z" transform="translate(-352.539 -240.474)" fill="#fff"/>
                  <path id="パス_9465" data-name="パス 9465" d="M1184.228,556.291a3.954,3.954,0,0,0,3.657-2.961c1.356-5.061,2.521-10.122,3.852-15.089l.282-1.05c.46-1.72.449-2.388.628-3.056a1.038,1.038,0,0,1,1.158-.765c1.528,0,10.466.86,12.49,1.146.739.1,2.6.287,2.316,1.337a2.68,2.68,0,0,1-.88,1.147c-1.09.859-1.34,1.431-1.9,3.533l-1.919,7.162c-.845,3.152-1.637,6.112-1.644,6.494a2.2,2.2,0,0,0,2.3,2.1h9.93c3.248,0,6.494,0,9.765-.1,1.242,0,2.606-.1,3.847-.1,2.2,0,2.494.669,1.342,4.966l-1.125,4.2c-1.305,4.871-2.249,5.539-4.541,5.539-4.393,0-8.76-.1-13.153-.1h-11.077c-2.291,0-3.325,1.719-4.372,4.2a75.37,75.37,0,0,1-36.776,37.818,10.966,10.966,0,0,1-2.4.764c-2.387,0-8.857-7.926-8.321-9.932.281-1.051,2.058-1.623,3.211-2.006,12.287-4.87,23.267-14.134,29.114-25.976.3-.764.869-1.815,1.073-2.578.332-1.241-.245-2.292-1.583-2.292h-21.2c-1.624,0-3.151,0-4.8.1-.885.1-2.127.1-2.985.1-2.769,0-2.423-2.006-1.323-6.112l1.023-3.819c.947-3.534,1.426-4.966,3.91-4.966,1.432,0,2.908.191,4.341.191,2.839.1,5.609.1,8.474.1Z" transform="translate(-373 -239.717)" fill="#fff"/>
                  <path id="パス_9466" data-name="パス 9466" d="M1335.8,562.937c2.61.955,5.148,1.815,4.764,3.247-.128.477-.734.955-1.651,1.528a4.474,4.474,0,0,0-2.167,2.387c-6.113,10.7-10.445,17.954-20.151,26.74-10.071,9.072-19.512,13.656-31.587,17.38a15.653,15.653,0,0,1-3.381.86c-1.528,0-3.063-3.533-3.66-4.87a7.249,7.249,0,0,0-.3-.669c-.457-1.146-1.143-2.865-.861-3.916a2.549,2.549,0,0,1,2.23-1.91,88.254,88.254,0,0,0,17.306-6.494,56.068,56.068,0,0,0,17.646-13.465,75.108,75.108,0,0,0,12.772-21.3c.422-.86,1.041-2.1,1.995-2.1S1334.689,562.459,1335.8,562.937Zm-39.367,14.706a5.324,5.324,0,0,1,.2,2.1c-.639,2.387-10.04,6.112-11.473,6.112-1.05,0-1.315-1.146-1.493-1.91a88,88,0,0,0-4.166-12.606,3.073,3.073,0,0,1-.348-1.91c.537-2.006,9.315-5.539,11.034-5.539.477,0,1.113.477,1.551,1.337C1293.823,568.858,1295.2,573.346,1296.435,577.643Zm15.124-17.953c2.108,3.533,3.662,8.785,4.853,12.892a4.151,4.151,0,0,1,.087,1.815c-.613,2.292-9.921,6.016-11.353,6.016-1.05,0-1.341-1.05-1.589-1.91a72.382,72.382,0,0,0-4.28-12.892,2.048,2.048,0,0,1-.234-1.624c.487-1.815,9.29-5.443,11.1-5.443C1310.625,558.544,1311.165,559.021,1311.558,559.69Z" transform="translate(-394.346 -243.879)" fill="#fff"/>
                  <path id="パス_9467" data-name="パス 9467" d="M1440.743,542.054c2.961,0,7.214-.191,9.123-.191,2.1,0,3.8,2.578,4.819,4.106l.56.765c1.092,1.623,3.023,4.394,2.639,5.825a34.406,34.406,0,0,1-1.7,3.152c-.816,1.623-1.461,2.96-2.279,4.585-9.53,20.245-24.043,33.423-44.466,43.355-3.275,1.528-13.166,6.016-16.032,6.016-2.1,0-3-3.055-3.521-4.679-.475-1.432-1.667-5.539-1.231-7.162.281-1.051,1.313-1.337,2.223-1.528,9.826-2.1,23.6-8.977,31.871-15.948,7.634-6.4,14.765-16.616,16.147-21.773.461-1.719-1.207-1.911-2.734-1.911h-30.366c-4.107,0-8.143.1-12.249.1-3.246,0-3.621-.382-2.623-4.106l1.663-6.207c1.074-4.011,1.706-4.584,4.475-4.584,4.3,0,8.639.191,12.935.191Zm36.39-5.731c-1.484,5.54-7.08,10.027-12.618,10.027s-8.729-4.488-7.244-10.027c1.458-5.443,7.054-9.931,12.592-9.931C1475.3,526.392,1478.592,530.881,1477.133,536.323Zm-14.993,0c-.767,2.865.841,5.062,3.705,5.062a7.035,7.035,0,0,0,6.418-5.062c.741-2.769-.937-5.061-3.706-5.061A7.135,7.135,0,0,0,1462.14,536.323Z" transform="translate(-412.836 -238.563)" fill="#fff"/>
                </g>
              </g>
            </g>
            <g id="グループ_1056" data-name="グループ 1056" transform="translate(1085.941 294.504)">
              <path id="パス_9468" data-name="パス 9468" d="M1537.249,613.593c3.408-11.021-3.422-22.323-9.376-29.925s-9.452-20.456-5.723-31.458c3.682-10.862,17.556-19.525,27.728-17.533s12.348,16.259,10.6,21.642c3.6-7.875,14.635-19.378,26.187-19.637s19.452,10.041,16.509,21.526c-3.375,13.167-17.311,23.3-29.792,31.539l-36.128,23.846" transform="translate(-1520.613 -534.39)" fill="#fff"/>
            </g>
          </g>
        </g>
      </g>
      <g id="グループ_1081" data-name="グループ 1081" transform="translate(215.388 179.149)">
        <g id="グループ_1080" data-name="グループ 1080">
          <g id="グループ_1076" data-name="グループ 1076" style="mix-blend-mode: multiply;isolation: isolate">
            <g id="グループ_1075" data-name="グループ 1075">
              <g id="グループ_1074" data-name="グループ 1074">
                <path id="パス_9493" data-name="パス 9493" d="M386.9,216.446c-3.819,0-7.811.286-11.631.286-2.2,0-2.227-.955-1.46-3.819l1.613-6.017c.793-2.96,1.265-4.01,3.652-4.01,3.82,0,7.564.286,11.383.286h8.308c3.532,0,4.082-1.337,6-4.584,2.61-4.393,5.4-9.455,7.582-14.039.472-1.051.97-2.2,2.116-2.2a29.153,29.153,0,0,1,4.607,1.336c5.651,1.719,8.745,2.293,8.207,4.3-.23.86-1.1,1.242-2.058,1.623-1.49.573-2.377,2.1-4,4.966-.715,1.242-1.481,2.674-2.636,4.489a7.236,7.236,0,0,0-1.066,2.2c-.512,1.91,1.494,1.91,2.83,1.91H447.18c3.819,0,7.62-.286,11.44-.286,2.482,0,2.393,1.05,1.6,4.01l-1.484,5.539c-.87,3.247-1.343,4.3-3.729,4.3-3.82,0-7.564-.286-11.383-.286h-1.337c-.765,0-1.814,0-1.993.669-.128.477.559.764.986.955,1.043.381,3.226,1.146,2.867,2.483-.23.86-1.6,1.337-2.345,1.623-2.114.764-2.312,1.146-3.3,3.056a80.083,80.083,0,0,1-9.758,14.324,9.007,9.007,0,0,0-2.061,3.056c-.435,1.623,1.461,2.387,2.454,2.96a118.562,118.562,0,0,1,13.751,9.264c1.2.86,1.7,1.146,1.366,2.388-.972,3.629-6.024,11.077-9.367,11.077-.954,0-1.94-.955-2.551-1.528-2.8-2.387-15.44-12.223-18.592-12.223a5.768,5.768,0,0,0-2.713.86c-10.959,6.685-27.1,10.6-38.729,12.319-1.292.19-4.788.764-5.839.764-4.392,0-3.58-8.022-2.684-11.364.538-2.006,2.161-2.006,5.268-2.2,8.149-.477,20.329-2.1,28.526-5.252,2.235-.86,2.93-.956,3.134-1.719.179-.669-.368-.764-2.264-1.528-2.418-.955-4.906-2.006-7.393-3.056a3.3,3.3,0,0,0-1.426-.382c-1.05,0-1.586.573-2.2,1.432-1.32,1.719-2.142,2.292-3.193,2.292-3.438,0-10.386-2.578-9.669-5.252.255-.956,5.522-7.067,6.523-8.309,3.322-4.2,7.047-9.549,10.351-14.038a2.869,2.869,0,0,0,.568-1.051c.435-1.623-1.475-1.623-2.239-1.623Zm23.491,0c-2.96,0-3.477.86-6.3,4.966-1.1,1.623-2.525,3.724-4.509,6.493a6.169,6.169,0,0,0-1.015,2.006c-.384,1.433.583,2.1,1.722,2.483,2.991.955,9.149,3.629,12.065,4.87a2.581,2.581,0,0,0,1.495.477c1.623,0,3.849-2.96,6.616-6.876,1.691-2.387,6.845-10.219,7.433-12.415.537-2-1.468-2-2.9-2Z" transform="translate(-239.808 -179.679)" fill="none" stroke="#795d53" stroke-miterlimit="10" stroke-width="2.88"/>
                <path id="パス_9494" data-name="パス 9494" d="M572.685,204.107c4.964,6.781,6.08,15.089,3.546,24.543-3.608,13.464-14.135,25.306-27.689,31.706-2.746,1.337-9.841,4.3-12.516,4.3-3.342,0-6.049-8.785-5.332-11.46.229-.859,1.192-1.241,4.139-1.91,11.846-2.865,22.785-9.836,26.06-22.06,4.017-14.993-5.854-20.914-8.72-20.914-1.623,0-2.274,1.719-2.83,3.438-4.608,13.274-12.778,29.509-24.377,40.013-4.685,4.3-10.241,7.926-15.97,7.926-6.4,0-10.473-4.392-11.879-9.835-1.07-4.2-.567-9.646.687-14.326,6.141-22.919,28.695-41.159,51.708-41.159C559.252,194.366,567.652,197.231,572.685,204.107Zm-60.6,31.228c-.614,2.292-1.91,9.264,1.433,9.264,2.291,0,7.227-6.3,8.719-8.309,5.185-6.876,11.645-21.01,12.566-24.447.2-.765,0-1.432-.858-1.432C531.177,210.41,516.408,219.2,512.084,235.335Z" transform="translate(-261.878 -181.665)" fill="none" stroke="#795d53" stroke-miterlimit="10" stroke-width="2.88"/>
                <path id="パス_9495" data-name="パス 9495" d="M672.73,219.419a2.017,2.017,0,0,0,1.958,2.674h16.806c4.3,0,8.67-.286,12.968-.286,2.482,0,2.391,1.05,1.547,4.2l-1.536,5.73c-.844,3.152-1.342,4.3-3.824,4.3-4.3,0-8.518-.286-12.815-.286H671.029a3.836,3.836,0,0,0-3.391,2.674L664.49,250.17c-.589,2.2-.916,4.489-1.5,6.685-3.122,11.651-15.41,12.606-24.291,12.606-2.769,0-5.418-.1-5.757-2.387-.252-1.91.8-7.258,1.361-9.359.435-1.623.984-2.96,2.894-2.96.669,0,1.669.191,2.241.191,1.216.1,2.693.287,3.935.287,5.443,0,5.622-.669,6.825-5.158l3.122-11.65a1.981,1.981,0,0,0-1.958-2.674H634.264c-4.3,0-8.671.286-12.968.286-2.578,0-2.462-1.146-1.593-4.393l1.485-5.539c.844-3.152,1.342-4.3,3.824-4.3,4.3,0,8.614.286,12.91.286h16.712a3.726,3.726,0,0,0,3.823-2.865l.436-1.623c.537-2.006,1.107-4.489,1.452-6.494.078-.287.084-.669.161-.955.358-1.337,1.365-1.528,2.415-1.528h.955c2.483,0,3.356-.764,5.191-1.91.242-.191.7-.477,1.28-.86,2.25-1.624,6.576-4.584,6.756-5.252s-1.062-.669-2.59-.669H654.937c-3.916,0-7.907.287-11.823.287-2.483,0-2.366-1.147-1.522-4.3l1.536-5.731c.845-3.151,1.342-4.3,3.825-4.3,3.724,0,7.658.287,11.669.287h27.119c4.3,0,8.524-.1,12.822-.1,2.96,0,3.571.573,5.013,2.673.839,1.146,2.567,3.247,2.107,4.966-1.152,4.3-24.674,17.954-29.47,20.532a6.243,6.243,0,0,0-3.253,4.3Z" transform="translate(-282.153 -180.265)" fill="none" stroke="#795d53" stroke-miterlimit="10" stroke-width="2.88"/>
                <path id="パス_9496" data-name="パス 9496" d="M824.755,204.107c4.964,6.781,6.079,15.089,3.546,24.543-3.608,13.464-14.134,25.306-27.689,31.706-2.746,1.337-9.84,4.3-12.515,4.3-3.341,0-6.049-8.785-5.333-11.46.23-.859,1.193-1.241,4.141-1.91,11.845-2.865,22.784-9.836,26.059-22.06,4.018-14.993-5.854-20.914-8.719-20.914-1.624,0-2.275,1.719-2.831,3.438-4.608,13.274-12.778,29.509-24.378,40.013-4.683,4.3-10.24,7.926-15.969,7.926-6.4,0-10.473-4.392-11.879-9.835-1.07-4.2-.566-9.646.687-14.326,6.141-22.919,28.695-41.159,51.709-41.159C811.322,194.366,819.722,197.231,824.755,204.107Zm-60.6,31.228c-.614,2.292-1.91,9.264,1.433,9.264,2.291,0,7.227-6.3,8.719-8.309,5.185-6.876,11.646-21.01,12.567-24.447.2-.765,0-1.432-.858-1.432C783.246,210.41,768.477,219.2,764.153,235.335Z" transform="translate(-303.56 -181.665)" fill="none" stroke="#795d53" stroke-miterlimit="10" stroke-width="2.88"/>
                <path id="パス_9497" data-name="パス 9497" d="M937.026,180.808c2.673,0,4.947-.286,6.857-.286,2.292,0,2.227.955,1.408,4.01l-1.2,4.489c-.819,3.056-1.265,4.011-3.557,4.011-1.432,0-2.814-.191-4.151-.191H923.3c-3.151,0-3.682,1.623-4.4,4.3L903.955,252.91c-1.3,4.87-2.393,9.645-3.7,14.516-.819,3.056-1.278,3.342-4.429,3.342H890.29c-2.483,0-2.979-.286-2.237-3.056,1.33-4.966,2.826-9.837,4.156-14.8l15.66-58.445c.922-3.438,1.531-6.781,2.452-10.219.845-3.152,2.5-3.628,5.269-3.628,2.006,0,3.864.19,5.773.19Z" transform="translate(-326.567 -179.376)" fill="none" stroke="#795d53" stroke-miterlimit="10" stroke-width="2.88"/>
                <path id="パス_9498" data-name="パス 9498" d="M1008.522,190.786c1.329.381,2.3.669,2.073,1.527-.179.669-1.045,1.051-1.79,1.338-1.829.764-2.9,3.342-4.025,6.111l-.8,1.91c-.249.573-.472,1.051-.523,1.242a1.515,1.515,0,0,0,.468,1.814,4.536,4.536,0,0,0,2.163.477,14.709,14.709,0,0,1,7.484,2.006c5.356,3.533,5.393,9.454,3.55,16.33-2.278,8.5-7.732,22.442-13.974,29.7-6.657,7.735-14.23,10.7-23.015,10.7-2.769,0-3.935-.286-4.25-2.674a34.708,34.708,0,0,1,.485-9.645,2.513,2.513,0,0,1,2.4-2.2c1.337,0,2.648.1,3.985.1,5.824,0,7.194-.477,10.171-4.106,4.127-5.061,8.391-15.28,9.952-21.1,1.2-4.489.894-5.826-2.735-5.826-3.248,0-4.208.382-5.913,3.533-6.145,11.174-14.384,21.965-23.2,31.705-1.9,2.1-7.281,7.927-9.288,9.359a3.231,3.231,0,0,1-1.8.669c-2.1,0-9.912-5.061-9.068-8.212.256-.956,1.588-2.006,2.677-2.865a110.837,110.837,0,0,0,24.258-26.74,6.845,6.845,0,0,0,.938-1.719c.256-.955-.189-1.432-1.144-1.432s-7.585,2.292-8.859,2.769a5.049,5.049,0,0,1-1.968.573c-1.623,0-1.7-3.629-1.568-6.972.11-2.2.179-6.016.435-6.972.383-1.432,1.485-1.623,4.019-1.815a107.508,107.508,0,0,0,15.371-2.483c2.013-.381,3.242-1.05,4.091-3.151,1.425-3.533,3.452-10.027,4.449-13.752l.384-1.432c.255-.955.676-1.814,1.822-1.814C996.736,187.73,1006.836,190.309,1008.522,190.786Zm23.4,7.831a56.548,56.548,0,0,1,4.865,9.645c.088.382.343.86.545,1.528,1.275,3.438,3.73,10.314,3.3,11.937-.819,3.056-10.961,8.118-13.54,8.118-1.336,0-1.595-1.528-1.791-2.579-1.652-7.735-3.214-15.089-7.515-21.487-.28-.381-.769-1.05-.615-1.623.589-2.2,9.991-7.353,12.379-7.353C1030.783,196.8,1031.387,197.757,1031.92,198.617Z" transform="translate(-336.997 -180.568)" fill="none" stroke="#795d53" stroke-miterlimit="10" stroke-width="2.88"/>
                <path id="パス_9499" data-name="パス 9499" d="M1126.908,186.8c.9.191,1.4.477,1.2,1.241a1.748,1.748,0,0,1-.88,1.146c-1.86,1.242-1.936,1.528-3.343,5.348-.351.956-1.028,2.77-1.853,4.776-.1.382-.3.764-.4,1.146-.358,1.337.087,1.815.812,2.673.629.86,2.376,3.247,2.018,4.584-.205.765-2.047,2.292-3.914,3.916-2.377,2.1-3.448,3.247-3.576,3.724-.077.286.038.573.325.573a23.714,23.714,0,0,0,3.236-2.1c.363-.286.7-.477.822-.573,6.7-4.68,13.914-7.735,21.171-7.735,14.134,0,21.02,11.364,17.335,25.116-3.455,12.892-13.449,21.678-25.991,27.5-3.923,1.815-11.591,4.775-15.316,4.775-4.106,0-4.573-8.6-3.933-10.982.588-2.2,2.289-2.483,4.11-2.864,4.266-.956,9.374-2.2,13.47-4.3,5.879-3.056,10.946-7.354,12.61-13.561,1.587-5.92-.482-11.746-6.975-11.746-7.831,0-20.79,7.735-25.061,12.988a7.964,7.964,0,0,0-1.513,3.152l-.229.859c-1.356,5.062-2.618,10.123-3.758,15.089-.365,1.719-2.6,12.893-2.7,13.274-.2.764-.568,1.051-2.051,1.242-2.941.286-5.641.382-8.6.382-4.011,0-5.348,0-4.836-1.91a9.032,9.032,0,0,1,.5-1.528c1.15-2.865,3.234-9.931,4.054-12.988.2-.764.39-1.814-.756-1.814-1.336,0-6.284,5.635-7.38,6.876-.562.669-1.269,1.527-2.128,1.527-2.2,0-7.705-8.308-7.142-10.409.281-1.051,1.588-2.006,2.773-2.864l.727-.573a147,147,0,0,0,21.231-20.437,7.276,7.276,0,0,0,1.3-2c.256-.956.225-1.91-.825-1.91a6.7,6.7,0,0,0-1.725.382c-2.064.573-7.8,2.006-9.705,2.006-1.623,0-1.734-1.719-1.759-3.056a83.235,83.235,0,0,1,.733-10.219c.537-2,2.02-2.2,3.453-2.2h1.337c2.387,0,10.46-.191,12.466-1.623a4.973,4.973,0,0,0,1.774-3.056c1.094-3.724,2.091-7.448,3.09-11.173l.613-2.291a2.008,2.008,0,0,1,2.25-1.624C1115.687,185.556,1125.292,186.416,1126.908,186.8Z" transform="translate(-357.73 -180.208)" fill="none" stroke="#795d53" stroke-miterlimit="10" stroke-width="2.88"/>
                <path id="パス_9500" data-name="パス 9500" d="M1233.325,204.516c.9.19,1.878.477,1.648,1.336-.1.382-.467.669-1.263,1.147-1.5.955-2.269,2.769-2.94,4.2a83.489,83.489,0,0,0-4.824,13.37c-1.612,6.016-2.594,12.892-1.475,18.335.328,1.623,1.229,4.679,3.329,4.679,2.2,0,5.442-3.915,6.711-5.444.976-1.145,2.167-2.387,3.6-2.387,2.864,0,8.472,5.444,7.858,7.735s-6.363,7.353-8.473,9.168c-4.339,3.725-8.527,6.876-13.778,6.876-6.4,0-10.587-4.679-12.79-9.645-4.4-9.932-1.337-23.874,1.81-35.621.486-1.815,3.964-13.369,4.417-14.707a1.967,1.967,0,0,1,2.034-1.527C1220.431,202.033,1231.066,204.039,1233.325,204.516Zm35.769-3.056c2.578,0,8.535,5.921,10.921,12.7a43.916,43.916,0,0,1,1.82,19.577c-.218,1.527-.547,3.82-.854,4.966-.537,2-1.244,2.865-3.308,3.437a37.729,37.729,0,0,1-9.507,1.624c-3.532,0-3.3-1.242-2.61-4.871,2.212-11.46.631-20.532-6.7-27.026a1.5,1.5,0,0,1-.519-1.623C1258.926,208.049,1266.229,201.46,1269.095,201.46Z" transform="translate(-379.646 -182.838)" fill="none" stroke="#795d53" stroke-miterlimit="10" stroke-width="2.88"/>
                <path id="パス_9501" data-name="パス 9501" d="M1354.08,204.516c.9.19,1.878.477,1.648,1.336-.1.382-.467.669-1.263,1.147-1.5.955-2.269,2.769-2.94,4.2a83.4,83.4,0,0,0-4.824,13.37c-1.612,6.016-2.595,12.892-1.475,18.335.328,1.623,1.229,4.679,3.329,4.679,2.2,0,5.442-3.915,6.711-5.444.976-1.145,2.167-2.387,3.6-2.387,2.864,0,8.472,5.444,7.858,7.735s-6.363,7.353-8.473,9.168c-4.339,3.725-8.527,6.876-13.778,6.876-6.4,0-10.587-4.679-12.79-9.645-4.4-9.932-1.337-23.874,1.81-35.621.486-1.815,3.964-13.369,4.418-14.707a1.965,1.965,0,0,1,2.033-1.527C1341.186,202.033,1351.82,204.039,1354.08,204.516Zm35.77-3.056c2.577,0,8.535,5.921,10.92,12.7a43.923,43.923,0,0,1,1.82,19.577c-.218,1.527-.547,3.82-.854,4.966-.537,2-1.244,2.865-3.308,3.437a37.723,37.723,0,0,1-9.506,1.624c-3.534,0-3.3-1.242-2.611-4.871,2.212-11.46.631-20.532-6.7-27.026a1.5,1.5,0,0,1-.519-1.623C1379.681,208.049,1386.984,201.46,1389.85,201.46Z" transform="translate(-399.614 -182.838)" fill="none" stroke="#795d53" stroke-miterlimit="10" stroke-width="2.88"/>
                <path id="パス_9502" data-name="パス 9502" d="M1430.008,270.6c-2.673,0-4.948.287-6.857.287-2.291,0-2.227-.956-1.407-4.011l1.2-4.489c.82-3.056,1.267-4.01,3.558-4.01,1.433,0,2.813.191,4.15.191h13.083c3.152,0,3.682-1.623,4.4-4.3l14.944-55.771c1.305-4.87,2.394-9.646,3.7-14.516.819-3.056,1.277-3.342,4.427-3.342h5.539c2.483,0,2.98.286,2.237,3.056-1.33,4.965-2.826,9.836-4.157,14.8l-15.659,58.445c-.921,3.438-1.53,6.78-2.451,10.218-.845,3.152-2.5,3.629-5.269,3.629-2.006,0-3.864-.191-5.774-.191Z" transform="translate(-414.784 -179.395)" fill="none" stroke="#795d53" stroke-miterlimit="10" stroke-width="2.88"/>
                <path id="パス_9503" data-name="パス 9503" d="M1565.958,188.89c.255-.955.676-1.815,1.822-1.815.956,0,11.054,2.578,12.742,3.056.713.191,2.33.573,2.073,1.527-.18.669-.925.956-1.885,1.338-1.734.764-2.806,3.342-3.9,6.016l-.549,1.337c-.249.573-.722,1.623-.8,1.91-.588,2.2,1.392,2.292,2.633,2.292a13.718,13.718,0,0,1,7.363,2.1c5.731,3.916,5.463,9.55,3.646,16.331-2.252,8.4-7.8,22.347-13.974,29.7a28.7,28.7,0,0,1-23.014,10.7c-2.768,0-4-.382-4.249-2.674a35.581,35.581,0,0,1,.484-9.646c.333-1.24,1-2.291,2.428-2.291,1.338,0,2.648.1,3.986.1,5.634,0,7.265-.381,10.147-4.01,4.151-5.157,8.416-15.376,9.977-21.2,1.177-4.393.892-5.825-2.831-5.825-3.152,0-4.113.381-5.817,3.533-6.146,11.173-14.48,21.964-23.227,31.8-1.778,2.006-7.28,7.927-9.262,9.264a2.71,2.71,0,0,1-1.8.668c-2.2,0-9.912-5.061-9.093-8.117.256-.955,1.371-1.91,3.308-3.438a109.235,109.235,0,0,0,23.654-26.262,6.943,6.943,0,0,0,.911-1.623c.255-.955-.189-1.433-1.143-1.433s-7.56,2.2-8.833,2.674a5.8,5.8,0,0,1-2.09.669c-1.527,0-1.675-3.724-1.537-7.448a49.667,49.667,0,0,1,.524-6.589c.332-1.241,1.078-1.528,4.019-1.815a117.542,117.542,0,0,0,15.251-2.386c2.611-.478,3.388-1.242,4.365-3.821,1.527-3.915,3.221-9.167,4.3-13.178Zm36.332,9.454a48.586,48.586,0,0,1,5.175,9.55c.9,2.006,4.786,11.364,4.3,13.179-.845,3.152-10.865,8.117-13.539,8.117-1.051,0-1.3-.86-1.7-2.579-1.608-7.543-3.24-14.993-7.542-21.39a2.271,2.271,0,0,1-.591-1.72c.538-2,9.2-6.875,11.393-6.875C1601.032,196.626,1601.66,197.484,1602.29,198.344Zm11.456-7.831c1.817,2.484,3.164,4.585,2.934,5.444-.512,1.911-5.947,5.444-7.093,5.444-.382,0-.8-.573-1.124-1.146a68.5,68.5,0,0,0-4.88-7.448c-.445-.478-.794-.956-.666-1.433.358-1.336,6.1-4.965,7.251-4.965C1610.835,186.407,1612.488,188.794,1613.746,190.513Zm9.555-9.645c1.005,1.242,5.161,6.4,4.8,7.735-.513,1.91-6.069,5.54-7.12,5.54-.573,0-.941-.764-1.1-1.242a68,68,0,0,0-5-7.353c-.28-.382-.794-.955-.641-1.528.358-1.337,6.175-4.87,7.225-4.87C1622.139,179.149,1623.092,180.581,1623.3,180.868Z" transform="translate(-431.579 -179.149)" fill="none" stroke="#795d53" stroke-miterlimit="10" stroke-width="2.88"/>
                <path id="パス_9504" data-name="パス 9504" d="M638.349,367.03c.644.1,2.285.381,2.055,1.241a5.131,5.131,0,0,1-1.467,1.91c-2.134,1.91-3.44,6.781-4.1,9.264-.307,1.146-.628,3.056,1.186,3.056.86,0,10.627-1.528,11.322-1.623,2.011-.381,2.955-1.051,3.441-2.865a101.43,101.43,0,0,0,2.2-14.993,9.5,9.5,0,0,1,.245-1.623,2.2,2.2,0,0,1,2.319-1.528c1.242,0,10.19,1.528,11.9,1.91.548.1,1.834.287,1.629,1.052a9.735,9.735,0,0,1-.671,1.432,31.227,31.227,0,0,0-1.719,5.348L665.511,374c-.69,2.578-.909,4.106,1.1,4.106.86,0,5.622-.669,7.01-.86,1.7-.286,6.367-.955,7.7-.955a1.577,1.577,0,0,1,1.607,2.2c-.588,2.2-1.031,4.2-1.849,7.258-1.561,5.825-1.708,6.016-4.859,6.016h-2.1c-1.814,0-10.008.286-11.447.668-1.943.477-2.631,1.623-3.258,3.247-4.567,12.414-10.211,19.577-23.962,19.577-1.528,0-2.648-.1-3.1-1.623-.425-1.624.457-8.118.993-10.123.307-1.147,1.041-2.1,2.187-2.1.954,0,1.859.191,2.814.191,2.482,0,4.26-.573,5.784-3.056a16.83,16.83,0,0,0,1.36-2.578c.051-.192.166-1.338-.885-1.338a83.14,83.14,0,0,0-8.665,1.338c-5.508.955-6.323,1.145-7.193,4.392l-.384,1.433c-.9,3.343-2.822,10.887-2.444,13.752.442,3.343,3.77,4.106,10.645,4.106a109.091,109.091,0,0,0,17.381-1.432c.694-.1,2.776-.382,3.349-.382,1.528,0,1.424,1.814,1.117,2.96-1.51,5.635-3.1,10.5-4.286,11.364-1.524,1.05-11.131,1.623-18.961,1.623-5.252,0-11.955-.286-16.46-2.006a12.221,12.221,0,0,1-7.69-10.5c-.311-5.252,1.627-12.128,3.015-17.667.41-1.528.533-3.056-1.376-3.056-1.146,0-11.577,2.579-13.424,3.056a3.467,3.467,0,0,1-1.318.286c-1.432,0-1.336-1.433-.591-5.635.481-2.864,1.244-6.78,1.7-8.5.639-2.388,1.645-2.578,3.652-2.578h.19c1.814,0,9.709-.955,11.913-1.337,2.49-.382,3.693-.955,4.409-3.629,1.023-3.82,2.274-9.55,2.915-13.369.128-.478.186-1.051.34-1.624a2.145,2.145,0,0,1,2.37-1.719C626.63,365.5,636.351,366.648,638.349,367.03Zm41.355-9.645c.787,1.336,4.489,7.83,4.106,9.263-.512,1.91-6.462,4.87-7.417,4.87-.573,0-.776-.669-1.074-1.337a67.793,67.793,0,0,0-3.772-8.022,2.808,2.808,0,0,1-.519-1.623c.359-1.337,6.4-4.3,7.454-4.3C679.055,356.239,679.38,356.812,679.7,357.385Zm11.88-6.208c.883,1.337,4.586,7.831,4.2,9.264-.511,1.91-6.366,4.87-7.416,4.87-.573,0-.8-.573-1.1-1.242a53.682,53.682,0,0,0-3.955-8.4,2.039,2.039,0,0,1-.336-1.242c.409-1.527,6.62-4.393,7.479-4.393C690.936,350.031,691.4,350.8,691.584,351.177Z" transform="translate(-278.457 -207.406)" fill="none" stroke="#795d53" stroke-miterlimit="10" stroke-width="2.88"/>
                <path id="パス_9505" data-name="パス 9505" d="M787.526,395.837c5.634,0,11.848-.382,12.707-.382,2.483,0,2.583,1.051,1.84,3.82l-1.228,4.584c-1.407,5.252-1.938,6.876-4.994,6.876-3.724,0-8.039-.286-12.242-.286H739.685c-4.2,0-8.765.286-12.3.286-3.247,0-2.761-1.815-1.4-6.876l1.178-4.393c.768-2.865,1.361-4.011,3.844-4.011,1.338,0,6.582.382,12.6.382Z" transform="translate(-299.647 -214.917)" fill="none" stroke="#795d53" stroke-miterlimit="10" stroke-width="2.88"/>
                <path id="パス_9506" data-name="パス 9506" d="M837.725,419.753c10.694-14.61,21.32-29.318,33.739-42.878,5.674-6.208,11.634-12.415,17.073-18.814a2.013,2.013,0,0,1,1.619-1.05c1.05,0,5.978,4.775,6.963,5.73l.986.955c1.456,1.337,2.275,2.2,2.045,3.056a2.048,2.048,0,0,1-1.72,1.433c-2.611.477-2.738.955-5.288,3.343-4.806,4.392-9.306,9.072-13.641,13.847a4.992,4.992,0,0,0-1.078,1.528,1.027,1.027,0,0,0,.909,1.241,8.391,8.391,0,0,0,1.6-.286,15.853,15.853,0,0,1,3.541-.382c8.307,0,12.408,4.3,10.131,12.8-1.126,4.2-4.216,10.027-6.105,14.229a25.459,25.459,0,0,0-1.45,3.629c-.256.956-.034,1.911,1.112,1.911,3.342,0,15.211-10.792,18.174-13.656,2.186-2.1,3.327-3.152,4.569-3.152,1.91,0,3.685,10.123,3.224,11.842-.487,1.814-8.35,7.639-10.261,9.073-7.232,5.252-15.878,10.791-24.09,10.791-7.735,0-9.242-6.494-7.4-13.369a74.278,74.278,0,0,1,4.3-11.078,62.936,62.936,0,0,0,2.849-7.067c.435-1.623.144-2.674-1.575-2.674-2.388,0-5.464,1.146-7.872,2.292-4.625,2.293-7.3,4.775-10.663,8.786-4.1,4.966-10.637,14.038-13.458,19.576-.765,1.433-1.531,2.865-3.25,2.865-2.2,0-7.209-2.674-9-3.82-1.392-.859-2.315-1.336-2.085-2.2C831.807,427.584,836.845,420.9,837.725,419.753Z" transform="translate(-317.283 -208.56)" fill="none" stroke="#795d53" stroke-miterlimit="10" stroke-width="2.88"/>
                <path id="パス_9507" data-name="パス 9507" d="M996.47,432.448c-2.579,0-12.547-.573-13.416-2.673-.343-.861,1.329-8.882,1.739-10.41a2.526,2.526,0,0,1,2.567-2.1,27.678,27.678,0,0,1,5.563,1.337,13.625,13.625,0,0,0,3.952.573c2.006,0,3.5-.573,4.085-2.769.537-2.006-.279-5.73-2.571-5.73-1.05,0-4.93,2-6.255,2.673-6.8,3.629-17.016,8.977-23.509,12.893a8.645,8.645,0,0,0-3.173,2.578c-.683.764-1.243,1.433-2.007,1.433-1.051,0-2.11-3.534-2.718-5.539-1.04-3.247-2.143-6.971-1.785-8.308.281-1.051,1.53-1.432,3.619-2.1,4.923-1.624,20.893-9.55,26.982-12.319A3.8,3.8,0,0,0,991.9,399.6a2.213,2.213,0,0,0-.094-1.432,11.48,11.48,0,0,1,.129-5.825c1.024-3.82,5.938-12.893,9.279-12.893,1.529,0,10.138,3.152,9.754,4.584a6.018,6.018,0,0,1-1.173,1.528c-1.244,1.432-3.169,3.628-3.834,6.111-.436,1.624.765,3.916,2.485,3.916.382,0,.693-.1,1.076-.1a28.574,28.574,0,0,1,3.991-.286c10.981,0,18.667,4.106,24.234,11.842,1.467,2.006,6.658,10.791,5.993,13.274-.563,2.1-11.762,7.544-14.245,7.544-1.051,0-1.361-1.337-1.645-2.769-1.419-6.112-3.213-11.173-8.135-14.9a5.7,5.7,0,0,0-2.6-1.337,1.657,1.657,0,0,0-1.478,1.241,1.946,1.946,0,0,0,.006,1.051,20.323,20.323,0,0,1-.287,9.263C1012.719,430.252,1004.97,432.448,996.47,432.448Zm13.219-71.433c1.146,0,7.787,3.724,9.016,4.489,1.488.86,8.626,4.87,8.166,6.59-.512,1.91-5.064,6.78-6.67,8.5-1.072,1.146-2.92,3.056-3.97,3.056-.765,0-1.419-.764-1.769-1.242-3.2-3.724-8.019-6.781-12.344-9.168-1.253-.669-2.011-1.05-1.729-2.1C1000.746,369.8,1007.112,361.015,1009.689,361.015Zm34.592,21.3c-.461,1.719-5.947,5.443-7.093,5.443-.573,0-.941-.764-1.335-1.432a87.418,87.418,0,0,0-4.854-7.544,1.161,1.161,0,0,1-.457-1.146c.384-1.433,6.272-4.87,7.225-4.87S1044.664,380.879,1044.281,382.312Zm12.749-8.022c-.436,1.623-5.852,5.443-7.093,5.443-.478,0-.636-.477-.82-.86a68.724,68.724,0,0,0-5.464-8.117c-.21-.286-.514-.573-.386-1.051.384-1.432,6.105-4.966,7.251-4.966C1051.376,364.739,1057.439,372.762,1057.03,374.29Z" transform="translate(-338.33 -209.222)" fill="none" stroke="#795d53" stroke-miterlimit="10" stroke-width="2.88"/>
                <path id="パス_9508" data-name="パス 9508" d="M1100.48,375.79c.741-2.769,1.294-5.539,2.061-8.4.87-3.247,2.794-4.01,5.849-4.01,2.673,0,5.392.19,8.161.19h5.156c2.673,0,5.4-.19,8.168-.19,2.483,0,4.794.286,3.8,4.01-.768,2.865-1.7,5.635-2.441,8.4L1122.2,409.5c-1.023,3.82-1.856,7.639-2.88,11.46-.512,1.91-1.04,2.1-4.1,2.1h-7.066c-1.815,0-2.719-.19-2.207-2.1l.178-.669a1.717,1.717,0,0,0-1.677-2.292h-.381a2.825,2.825,0,0,0-2.543,2.006c-.333,1.241-.569,2.483-.9,3.724-.537,2.006-1.449,2.2-4.695,2.2h-5.634c-2.388,0-3.387-.191-2.876-2.1,1.024-3.82,2.239-7.64,3.288-11.556Zm5.5,27.217a1.717,1.717,0,0,0,1.678,2.292h.382a3.256,3.256,0,0,0,2.905-2.292l6.525-24.352a1.717,1.717,0,0,0-1.678-2.291h-.382a3.158,3.158,0,0,0-2.905,2.291Zm39.795-19.864a3.944,3.944,0,0,0,3.39-2.674l4.12-15.375a86.314,86.314,0,0,0,2.068-8.785,3.3,3.3,0,0,1,.16-.956c.307-1.146,1.244-1.432,2.294-1.432a20.519,20.519,0,0,1,2.335.191c1.668.191,3.266.286,4.673.382,4.386.381,7.078.668,6.719,2.006-.153.573-.707.86-1.434,1.432a5.255,5.255,0,0,0-1.627,2.864c-.453,1.337-.684,2.2-1.093,3.725l-4.273,15.947a2.017,2.017,0,0,0,1.957,2.674h5.92c3.247,0,6.284-.286,8.385-.286s2.01,1.051,1.269,3.82l-1.587,5.921c-.818,3.056-1.291,4.106-3.391,4.106s-5.01-.19-8.257-.19h-5.92a3.732,3.732,0,0,0-3.39,2.674l-6.551,24.447c-1.3,4.87-2.324,9.74-3.628,14.611-.665,2.483-1.7,2.769-4.657,2.769h-6.494c-2.96,0-4.029-.286-3.414-2.579,1.33-4.965,2.947-9.931,4.252-14.8l6.551-24.447a1.98,1.98,0,0,0-1.957-2.674h-3.915c-3.247,0-6.258.19-8.454.19-2.006,0-1.915-1.05-1.122-4.01l1.638-6.112c.716-2.673,1.189-3.724,3.2-3.724,2.2,0,5.079.286,8.326.286Z" transform="translate(-359.564 -208.049)" fill="none" stroke="#795d53" stroke-miterlimit="10" stroke-width="2.88"/>
                <path id="パス_9509" data-name="パス 9509" d="M1284.867,401.074c-4.3,16.043-20.328,29.89-35.9,37.053-1.757.86-5.847,2.578-7.565,2.578-4.106,0-7.245-10.027-6.784-11.746.256-.955,1.313-1.337,2.129-1.528a58.039,58.039,0,0,0,20.2-9.454c5.711-4.2,10.555-9.454,12.27-15.853,1.689-6.3-1.967-10.123-8.079-10.123-7.352,0-15.207,4.01-22.018,8.4a4.412,4.412,0,0,1-2.262.955c-3.152,0-4.812-9.836-3.968-12.987.409-1.528,2.142-2.293,3.44-2.865,8.664-3.82,20.929-7.544,29.523-7.544C1280.079,377.964,1288.884,386.081,1284.867,401.074Zm-26.1-43.738c5.318,2.96,16.845,4.488,23.593,4.965,2.24.191,3.049.382,2.716,1.624-.23.859-1.252,3.247-2.274,5.634-1.322,3.151-2.944,7.067-5.713,7.067-4.775,0-17.351-2.96-21.862-4.3-5.58-1.623-7.077-2.1-6.667-3.629.512-1.91,3.975-7.353,5.277-9.359.664-1.05,1.672-2.674,3.1-2.674A3.889,3.889,0,0,1,1258.772,357.336Z" transform="translate(-383.604 -208.503)" fill="none" stroke="#795d53" stroke-miterlimit="10" stroke-width="2.88"/>
                <path id="パス_9510" data-name="パス 9510" d="M271.547,529.859c1,.191,2.928.477,2.595,1.719-.307,1.146-.969.764-2.047,2.292-1.052,1.432-2.342,4.106-4.133,10.791-.46,1.719-.124,2.96,1.785,2.96,2.484,0,8.941-2.006,11.463-2.865a23.927,23.927,0,0,1,4.751-1.336c1.337,0,1.641,1.718,2.038,4.869.252,1.911.667,5.349.13,7.354-.333,1.242-1.772,1.623-5.683,2.674a140.329,140.329,0,0,1-14.925,2.961c-2.395.382-4.121.764-4.863,3.533-.384,1.433-1.946,8.69-2.4,11.078-.481,2.864.136,3.056,3.484,4.106,5.886,1.91,14.088,5.156,18.653,8.785a2.293,2.293,0,0,1,1.08,2.387c-.666,2.484-7.711,10.6-10.1,10.6-.669,0-1.514-.764-1.985-1.146-1.951-1.623-10.348-7.353-12.831-7.353a2.878,2.878,0,0,0-2.542,2.006c-4.005,10.314-14.163,13.656-23.33,13.656-9.55,0-19.787-4.2-16.767-15.47,3.172-11.842,16.491-17,26.709-17h1.336a3.467,3.467,0,0,0,3.244-2.483c.2-.764,2.413-10.791,2.957-13.178,2.35-9.836,5.323-19.864,6.31-29.6a7.332,7.332,0,0,1,.192-1.432c.359-1.337,1.556-1.528,2.607-1.528C261.286,528.236,269.262,529.477,271.547,529.859ZM240.74,588.878c-2.769,0-10.658.573-11.656,4.3-.742,2.77,4.026,3.152,6.031,3.152,3.533,0,7.341-.669,8.518-5.061C244.222,589.068,242.364,588.878,240.74,588.878Z" transform="translate(-215.388 -236.874)" fill="none" stroke="#795d53" stroke-miterlimit="10" stroke-width="2.88"/>
                <path id="パス_9511" data-name="パス 9511" d="M384.877,530.469c1.164,1.719,2.325,3.438,3.514,5.061l.77,1.051c1.372,2.006,4,5.73,3.722,6.78-.154.573-.752.669-1.9.669a4.616,4.616,0,0,0-2.642.954c-4.925,3.057-9.564,6.112-14.445,9.359q-8.046,5.444-15.885,11.173c-1.089.86-2.3,1.815-2.658,3.152-.435,1.623,1.191,4.106,2.354,5.825a5.89,5.89,0,0,0,.6.955c3.914,5.348,8.192,10.41,12.47,15.471,2.339,2.673,5.937,7.067,5.4,9.072-.794,2.96-11.537,10.983-14.211,10.983-.573,0-1.489-.86-2.32-2.388-3.373-6.3-8.572-13.274-13.394-19.863-2.516-3.438-5.732-7.831-7.5-11.555a12.541,12.541,0,0,1-.886-9.169,15.938,15.938,0,0,1,4.116-7.162c3.576-3.724,11.807-8.786,16.5-12.033,7.614-5.252,16.292-11.268,22.9-17.763.656-.668,1.339-1.432,2.1-1.432A1.782,1.782,0,0,1,384.877,530.469Z" transform="translate(-235.56 -237.101)" fill="none" stroke="#795d53" stroke-miterlimit="10" stroke-width="2.88"/>
                <path id="パス_9512" data-name="パス 9512" d="M463.539,538.215c1.94.955,2.169,1.528,2.016,2.1s-.682.764-1.211.955a10.013,10.013,0,0,0-4.773,3.916c-6.065,8.021-11.026,19.768-13.406,28.649-.639,2.387-1.33,4.966-.185,4.966.669,0,1.135-.669,2.187-2.1.293-.382.587-.764.906-1.241.44-.573,1.052-1.433,1.816-1.433,1.241,0,5.414,2.96,4.979,4.585-.384,1.432-8.267,12.319-9.9,18.431-.282,1.05-.679,3.247-.814,4.106a13.345,13.345,0,0,1-.321,1.91c-1,3.724-9.658,6.112-11.664,6.112-1.719,0-2.181-2.2-2.491-3.534-2.418-10.219-.76-21.392,2.233-32.565,2.559-9.549,6.1-17.762,10.488-27.026,1.71-3.533,3.968-6.971,6.005-11.365.395-.764.963-1.814,1.918-1.814S460.25,536.591,463.539,538.215Zm33.128-3.534c3.335.382,3.666.573,3.461,1.337a51.246,51.246,0,0,0-3.444,9.645l-.23.86c-.307,1.146-.551,2.769,1.263,2.769,1.337,0,5.993-1.337,7.649-1.814a13.217,13.217,0,0,1,2.61-.477c1.051,0,1.177.955,1.208,1.91a38.806,38.806,0,0,1-.911,9.454c-.563,2.1-1.983,2.769-12.323,4.3-2.082.286-3.356.764-3.945,2.96-.384,1.432-2.511,12.223-2.928,14.134-.492,2.2-.29,2.864.677,3.533.9.573,2.882,1.719,3.989,2.579,3.981,2.96,8.069,6.589,7.3,9.453-.742,2.77-6.869,8.882-9.829,8.882-1.719,0-3.142-1.815-4.287-3.248-.908-1.241-1.423-1.814-2.283-1.814-.955,0-1.517.668-2.2,1.432-4.317,5.061-11.506,6.589-16.949,6.589-8.689,0-16.037-4.3-13.427-14.038,1.919-7.162,8.259-11.937,15.207-13.274a36.077,36.077,0,0,1,6.335-.477c2.482,0,3.076-1.146,3.408-2.388.307-1.146,1.373-7.258,1.737-8.977.212-1.146.558-3.152-1.543-3.152-.764,0-9.989.573-15.049.573-1.527,0-3.819,0-3.715-1.815.09-1.051,1.755-8.69,2.113-10.027.281-1.051.926-2.387,2.359-2.387,1.337,0,9.25.764,14.406.764h.859c1.433,0,3.394-.191,3.956-2.292.231-.86,1.995-11.364,2.309-12.892a11.063,11.063,0,0,1,.366-1.719,1.74,1.74,0,0,1,2.007-1.432C488.449,533.631,494.713,534.49,496.667,534.681ZM464.22,593.413c-.487,1.815,2.313,2.769,4.318,2.769,2.2,0,4.6-.765,5.288-3.343.512-1.91-2.231-2-3.664-2C468.634,590.835,464.782,591.311,464.22,593.413ZM510.621,530c.883,1.337,4.8,7.735,4.418,9.168-.512,1.91-6.417,5.061-7.372,5.061-.573,0-.871-.668-1.372-2.006-.184-.381-.3-.669-.482-1.05-1.079-2.388-2.051-4.107-3.277-6.3-.184-.382-.578-1.051-.451-1.528.359-1.336,6.335-4.393,7.385-4.393C509.948,528.951,510.367,529.524,510.621,530Zm16.516,2.865c-.487,1.814-6.226,5.062-7.277,5.062-.573,0-.731-.477-1.029-1.146a75.719,75.719,0,0,0-4.363-8.309c-.323-.573-.532-.86-.431-1.242.409-1.527,6.55-4.488,7.41-4.488C522.5,522.744,527.5,531.53,527.137,532.867Z" transform="translate(-250.795 -235.966)" fill="none" stroke="#795d53" stroke-miterlimit="10" stroke-width="2.88"/>
                <path id="パス_9513" data-name="パス 9513" d="M592.421,538.642c1.183.573,1.558.955,1.379,1.623-.153.573-.465.668-.994.859-2.668,1.052-4.263,3.439-5.711,5.635-2.577,3.915-5.742,10.027-6.868,14.229-.154.573-.435,1.623.424,1.623.573,0,1.083-.477,2.015-1.815.759-1.051,1.663-2.292,2.714-2.292.956,0,4.606,2.769,4.2,4.3a6.482,6.482,0,0,1-.817,1.623c-3.629,5.348-9.491,14.039-10.95,19.481l-.639,2.388c-.588,2.2-2.849,3.151-4.843,3.819a19.535,19.535,0,0,1-5.968,1.242c-2.959,0-3.231-2.2-3.38-4.489-.4-6.685.976-15.757,2.87-22.824a116.991,116.991,0,0,1,7.921-21.01c1.238-2.483,2.6-5.061,3.861-7.639.817-1.623,1.315-2.769,2.175-2.769C581.619,532.626,589.036,537.018,592.421,538.642Zm24.594-6.971a53.884,53.884,0,0,1,7.564-1.146c1.814,0,2.018.668,1.951,3.056-.177,8.5-2.369,20.245-4.749,29.126-4.4,16.426-10.958,30.56-26,42.879-2.326,1.91-7.437,6.017-10.111,6.017-1.528,0-3.607-2.579-4.471-3.629-1.8-2.2-3.318-4.011-2.883-5.635.154-.573.664-1.051,2.135-1.91A52.62,52.62,0,0,0,596.58,586.2c5.114-6.971,7.848-14.324,9.87-21.868a120.6,120.6,0,0,0,4.092-28.459,7.585,7.585,0,0,1,.289-1.432C611.239,532.912,612.583,532.53,617.015,531.671Z" transform="translate(-272.853 -237.252)" fill="none" stroke="#795d53" stroke-miterlimit="10" stroke-width="2.88"/>
                <path id="パス_9514" data-name="パス 9514" d="M715.447,530.778c1.069.286,2.017.669,1.864,1.241-.128.477-.924.956-2.275,1.719-.675.381-2.334,3.724-3.152,5.347a5.653,5.653,0,0,0-.4.765c-.077.286-.275.669-.376,1.05-.154.573.118,1.337.786,1.337a12.121,12.121,0,0,0,2.255-.572,5.956,5.956,0,0,1,1.726-.382c.859,0,1.017.477.953,1.432a95.222,95.222,0,0,1-1.707,9.931c-.588,2.2-2.028,2.579-9.834,3.916-3.5.573-3.77,1.241-5.735,4.3-2.8,4.394-5.766,8.69-8.827,12.988-3.993,5.635-8.107,11.364-12.526,16.808-1.122,1.337-2.486,2.865-3.366,4.011a2.739,2.739,0,0,1-2.485,1.431c-3.247,0-11.339-4.01-10.674-6.493a23.853,23.853,0,0,1,3.029-3.819c2.78-3.248,18.28-22.251,18.92-24.638.256-.956-.475-1.433-1.239-1.433-.573,0-2.534.191-3.228.287-1.077.1-3.133.286-4.279.286-2,0-2.634-.86-1.128-8.977.109-.765.379-2.483.609-3.343a2.137,2.137,0,0,1,2.37-1.719c1.622,0,3.864.19,5.965.19,8.689,0,9.982-.19,11.6-2.673,2.112-3.247,5.561-11.842,6.354-14.8.2-.765.409-1.528,1.078-1.528C702.973,527.435,713.665,530.3,715.447,530.778Zm4.761,29.986c1.522.382,2.2,1.051,1.74,2.769-.255.955-.906,2.674-1.367,4.393-1.28,4.774-2.151,9.454-3.119,14.133-.518,2.292-.194,2.865,1.772,3.725,2.392,1.05,12.914,6.685,12.2,9.359-.563,2.1-8.009,9.931-11.065,9.931-.764,0-1.871-.859-3.536-2.483-.446-.477-.891-.955-1.431-1.432a1.669,1.669,0,0,0-1.374-.573,2.976,2.976,0,0,0-2.536,1.623,24.951,24.951,0,0,1-4.45,4.489c-3.728,2.865-8.517,3.629-12.527,3.629-9.072,0-17.348-4.393-14.584-14.706,2.558-9.55,12.061-13.656,20.561-13.656h.764a2.906,2.906,0,0,0,2.906-2.292c.435-1.624,1.853-10.123,2.334-12.988a36.965,36.965,0,0,1,.821-4.489c.537-2.006,1.506-2.769,3.606-2.769A49.884,49.884,0,0,1,720.207,560.764Zm-26.146,34.857c-.512,1.91,1.143,2.865,2.765,2.865,2.2,0,3.268-1.146,3.8-3.152.333-1.241.519-2.292-2.249-2.292C696.757,593.042,694.573,593.711,694.062,595.621ZM739.295,549.4c1.659,2.006,6.14,7.735,5.6,9.741-.794,2.961-10.294,9.55-12.682,9.55-1.146,0-1.621-1.433-2.008-2.483a41.115,41.115,0,0,0-8.636-12.319c-.61-.573-1.385-1.242-1.181-2.006.41-1.528,8.619-9.359,11.294-9.359C733.5,542.524,738.151,547.967,739.295,549.4Z" transform="translate(-289.18 -236.741)" fill="none" stroke="#795d53" stroke-miterlimit="10" stroke-width="2.88"/>
                <path id="パス_9515" data-name="パス 9515" d="M849.143,555.635a58.219,58.219,0,0,0,6.353-.191,18.174,18.174,0,0,1,2.248-.191c1.527,0,3.886,2.96,4.891,4.2.838,1.146,2.122,2.77,1.712,4.3a46.414,46.414,0,0,1-2.806,4.775c-9.046,14.516-20.488,25.5-34.958,34.952-3.382,2.292-15.112,9.359-18.359,9.359-2.864,0-7.3-8.4-6.811-10.219.23-.86,1.625-1.432,2.37-1.719,11.031-4.106,23.7-12.893,32.468-21.392,1.556-1.527,5.763-5.825,6.249-7.639.512-1.911-1.346-2.1-2.492-2.1H807.446c-4.3,0-8.524.1-12.727.1-2.864,0-3.016-.86-2.018-4.584l1.459-5.444c1.023-3.82,1.75-4.393,4.232-4.393,4.393,0,8.734.191,13.126.191Zm-2.538-20.819c2.96,0,6.016,0,9.1-.1,1.241,0,2.534-.191,3.775-.191,2.388,0,2.41,1.337,1.49,4.775l-1.2,4.489c-1.049,3.915-1.477,5.156-4.438,5.156-4.2,0-8.376-.1-12.483-.1H820.593c-4.1,0-8.333.1-12.535.1-2.865,0-2.723-1.241-1.75-4.87l1.407-5.252c.844-3.152,1.724-4.3,3.92-4.3,2.865,0,8.04.286,12.719.286Z" transform="translate(-310.76 -237.914)" fill="none" stroke="#795d53" stroke-miterlimit="10" stroke-width="2.88"/>
                <path id="パス_9516" data-name="パス 9516" d="M948.715,595.125c-.691,2.578-1.287,5.157-1.978,7.735-.46,1.719-.851,3.533-1.337,5.347-.794,2.961-2.443,3.056-7.218,3.056h-3.914c-4.488,0-5-.573-4.414-2.769,1.152-4.3,2.494-8.594,3.646-12.892l5.707-21.3c.384-1.433.162-2.388-1.079-2.388-.86,0-2.357.955-3.153,1.432-3.065,1.815-18.6,10.6-20.793,10.6s-8.819-8.786-8.153-11.269c.281-1.051,1.53-1.432,2.466-1.719,5.572-1.911,15.81-6.972,21.282-9.931A168.123,168.123,0,0,0,959.653,540.4a146.344,146.344,0,0,0,11.985-11.937c.318-.478.88-1.146,1.548-1.146,1.432,0,7.892,5.825,10.194,7.926.916.86,1.423,1.815,1.269,2.388-.179.669-.9.859-1.522,1.051a8.106,8.106,0,0,0-3.873,1.623c-2.905,2.292-8.515,7.544-17.622,14.8-1.962,1.624-2.938,2.769-3.5,4.871Z" transform="translate(-329.584 -236.722)" fill="none" stroke="#795d53" stroke-miterlimit="10" stroke-width="2.88"/>
                <path id="パス_9517" data-name="パス 9517" d="M1099.8,556.378a9.443,9.443,0,0,0,.292,1.051c.285,1.432.7,3.438.421,4.488-.614,2.293-10.319,9.646-12.836,11.556-19.391,14.993-37.07,23.588-58.623,32.756a6.042,6.042,0,0,0-3.244,2.483,1.168,1.168,0,0,1-.917.573c-.765,0-1.107-.859-1.309-1.527a61.95,61.95,0,0,1-2.518-7.353c-.361-1.146-1.515-4.68-1.234-5.73.23-.86,1.409-1.337,2.224-1.528a132.9,132.9,0,0,0,27.26-10.5c13.614-6.971,31.518-18.909,42.482-29.891.269-.286.51-.477.777-.764,1.194-1.242,2.239-2.292,3.289-2.292C1097.769,549.693,1099.348,554.85,1099.8,556.378ZM1047.532,536.9a73.837,73.837,0,0,1,13.582,12.033,1.616,1.616,0,0,1,.4,1.719c-.741,2.769-9.594,10.5-11.791,10.5-.859,0-1.584-.86-2-1.432a66.844,66.844,0,0,0-13.049-11.174c-.636-.477-1.438-1.05-1.182-2,.512-1.91,8.673-10.982,11.441-10.982A7.151,7.151,0,0,1,1047.532,536.9Z" transform="translate(-348.402 -238.085)" fill="none" stroke="#795d53" stroke-miterlimit="10" stroke-width="2.88"/>
                <path id="パス_9518" data-name="パス 9518" d="M1180.091,553.9a3.955,3.955,0,0,0,3.658-2.961c1.356-5.061,2.52-10.122,3.851-15.089l.281-1.05c.461-1.719.449-2.387.629-3.056a1.038,1.038,0,0,1,1.159-.765c1.528,0,10.465.86,12.488,1.146.739.1,2.6.287,2.317,1.337a2.675,2.675,0,0,1-.881,1.146c-1.09.86-1.339,1.432-1.9,3.534l-1.919,7.162c-.845,3.152-1.637,6.112-1.645,6.494a2.2,2.2,0,0,0,2.3,2.1h9.93c3.248,0,6.494,0,9.766-.1,1.241,0,2.6-.1,3.845-.1,2.2,0,2.495.668,1.343,4.965l-1.126,4.2c-1.305,4.87-2.248,5.539-4.54,5.539-4.393,0-8.76-.1-13.152-.1H1195.42c-2.291,0-3.324,1.719-4.372,4.2a75.375,75.375,0,0,1-36.776,37.817,10.914,10.914,0,0,1-2.4.765c-2.387,0-8.857-7.927-8.32-9.932.282-1.05,2.057-1.623,3.211-2,12.287-4.87,23.267-14.134,29.114-25.976.3-.764.868-1.815,1.073-2.578.333-1.242-.245-2.292-1.582-2.292h-21.2c-1.623,0-3.151,0-4.8.1-.884.1-2.126.1-2.985.1-2.769,0-2.423-2.006-1.323-6.112l1.024-3.82c.947-3.533,1.426-4.966,3.909-4.966,1.433,0,2.909.191,4.343.191,2.839.1,5.608.1,8.472.1Z" transform="translate(-368.863 -237.328)" fill="none" stroke="#795d53" stroke-miterlimit="10" stroke-width="2.88"/>
                <path id="パス_9519" data-name="パス 9519" d="M1331.665,560.547c2.609.956,5.148,1.815,4.764,3.247-.128.478-.734.956-1.651,1.528a4.479,4.479,0,0,0-2.167,2.387c-6.114,10.7-10.446,17.955-20.152,26.74-10.07,9.073-19.511,13.656-31.586,17.38a15.7,15.7,0,0,1-3.381.859c-1.527,0-3.063-3.533-3.661-4.87a6.945,6.945,0,0,0-.3-.668c-.457-1.146-1.142-2.865-.86-3.916a2.546,2.546,0,0,1,2.23-1.91,88.223,88.223,0,0,0,17.306-6.494,56.055,56.055,0,0,0,17.644-13.465,75.075,75.075,0,0,0,12.773-21.3c.421-.859,1.041-2.1,2-2.1S1330.552,560.069,1331.665,560.547ZM1292.3,575.253a5.315,5.315,0,0,1,.2,2.1c-.639,2.387-10.04,6.112-11.473,6.112-1.049,0-1.316-1.146-1.494-1.91a87.817,87.817,0,0,0-4.165-12.606,3.086,3.086,0,0,1-.349-1.91c.538-2.006,9.315-5.539,11.034-5.539.477,0,1.113.477,1.552,1.336C1289.686,566.469,1291.062,570.956,1292.3,575.253Zm15.125-17.953c2.109,3.534,3.662,8.786,4.854,12.892a4.166,4.166,0,0,1,.087,1.814c-.613,2.292-9.92,6.017-11.352,6.017-1.051,0-1.343-1.051-1.59-1.91a72.312,72.312,0,0,0-4.28-12.893,2.046,2.046,0,0,1-.234-1.623c.486-1.814,9.289-5.444,11.1-5.444C1306.487,556.154,1307.027,556.631,1307.421,557.3Z" transform="translate(-390.209 -241.49)" fill="none" stroke="#795d53" stroke-miterlimit="10" stroke-width="2.88"/>
                <path id="パス_9520" data-name="パス 9520" d="M1436.605,539.664c2.96,0,7.214-.191,9.123-.191,2.1,0,3.8,2.579,4.819,4.106l.56.764c1.093,1.624,3.024,4.394,2.64,5.826a34.618,34.618,0,0,1-1.7,3.152c-.817,1.623-1.461,2.96-2.279,4.584-9.53,20.246-24.043,33.424-44.466,43.356-3.274,1.528-13.167,6.016-16.032,6.016-2.1,0-3-3.056-3.521-4.679-.476-1.433-1.668-5.539-1.233-7.162.282-1.051,1.314-1.337,2.224-1.528,9.825-2.1,23.6-8.977,31.87-15.948,7.635-6.4,14.765-16.617,16.147-21.773.461-1.719-1.207-1.911-2.734-1.911h-30.367c-4.106,0-8.142.1-12.247.1-3.247,0-3.622-.382-2.624-4.106l1.663-6.208c1.075-4.011,1.706-4.584,4.474-4.584,4.3,0,8.639.191,12.936.191Zm36.39-5.73c-1.484,5.539-7.078,10.027-12.617,10.027s-8.73-4.489-7.246-10.027c1.458-5.443,7.055-9.931,12.593-9.931C1471.168,524,1474.455,528.491,1473,533.934Zm-14.992,0c-.768,2.864.84,5.061,3.706,5.061a7.035,7.035,0,0,0,6.417-5.061c.743-2.769-.936-5.061-3.7-5.061A7.134,7.134,0,0,0,1458,533.934Z" transform="translate(-408.698 -236.174)" fill="none" stroke="#795d53" stroke-miterlimit="10" stroke-width="2.88"/>
              </g>
            </g>
          </g>
          <g id="グループ_1079" data-name="グループ 1079" transform="translate(1085.052 293.589)" style="mix-blend-mode: multiply;isolation: isolate">
            <g id="グループ_1079-2" data-name="グループ 1079" style="mix-blend-mode: multiply;isolation: isolate">
              <g id="グループ_1078-2" data-name="グループ 1078" transform="translate(0 0)">
                <g id="グループ_1077-2" data-name="グループ 1077">
                  <path id="パス_9521" data-name="パス 9521" d="M1533.837,611.183c2.934-9.8-1.529-19.63-7.121-27.552-1.233-1.747-2.628-3.384-3.791-5.18a34.571,34.571,0,0,1-2.979-5.76,35.863,35.863,0,0,1-2.685-14.133,25.411,25.411,0,0,1,3.507-13,28.076,28.076,0,0,1,8.666-8.6c5.771-3.708,14.907-6.67,20.771-1.547a17.19,17.19,0,0,1,5.064,9.349,17.618,17.618,0,0,1,.07,8.82c-.4,1.28,1.272,1.3,1.724.32a34.909,34.909,0,0,1,7.232-9.87,32.985,32.985,0,0,1,11.591-7.739,18.027,18.027,0,0,1,12.752-.189,15.579,15.579,0,0,1,8.341,7.707c4.041,8.356-.227,17.605-5.718,24.156-6.445,7.69-14.921,13.423-23.226,18.9L1532.6,610.265c-.988.652-.341,2.233.745,1.516l33.7-22.241c8.933-5.9,18.184-11.907,25.178-20.137,5.863-6.9,10.5-16.368,6.957-25.43a16.949,16.949,0,0,0-8.043-8.881,18.92,18.92,0,0,0-12.971-1.3c-5.312,1.273-10.088,4.435-14.047,8.114a38.24,38.24,0,0,0-8.78,11.685l1.724.32a18.38,18.38,0,0,0,.305-8.238,21.478,21.478,0,0,0-3.718-9.421,12.721,12.721,0,0,0-8.575-5.185,22.338,22.338,0,0,0-11.595,1.86c-7.923,3.362-14.855,10.03-17.05,18.515a36.235,36.235,0,0,0,4.813,28.045c1.4,2.167,3.094,4.131,4.545,6.267a52.42,52.42,0,0,1,4.275,7.453c2.546,5.519,3.829,11.714,2.049,17.659-.371,1.241,1.4,1.4,1.724.32Z" transform="translate(-1515.411 -530.904)" fill="#795d53"/>
                </g>
              </g>
            </g>
          </g>
        </g>
      </g>
    </g>
    <g id="グループ_1633" data-name="グループ 1633" transform="translate(1547.697 5407.937)">
      <path id="パス_13025" data-name="パス 13025" d="M2523.639,449.3h-7.1l-.059-7.646c-.009-1.127-.019-2.258-.026-3.384a1.61,1.61,0,0,0-1.922-1.362,1.9,1.9,0,0,0-1.537,2q.04,5.194.081,10.392h-5.5a2.1,2.1,0,0,0-2,1.564,1.3,1.3,0,0,0,1.273,1.623h6.247q.038,4.97.078,9.941c.007,1.131.015,2.258.026,3.388a1.614,1.614,0,0,0,1.922,1.362,1.91,1.91,0,0,0,1.537-2q-.051-6.347-.1-12.691h6.347a2.1,2.1,0,0,0,2-1.56A1.3,1.3,0,0,0,2523.639,449.3Z" transform="translate(-2494.776 -327.06)" fill="#fff"/>
      <path id="パス_13026" data-name="パス 13026" d="M2508.707,440.187h-4.172a1.873,1.873,0,0,0-1.179.474,2.138,2.138,0,0,0-.675,1.213,1.541,1.541,0,0,0,.247,1.187,1.328,1.328,0,0,0,1.038.519h4.171a1.851,1.851,0,0,0,1.18-.478,2.115,2.115,0,0,0,.674-1.213,1.55,1.55,0,0,0-.246-1.187A1.325,1.325,0,0,0,2508.707,440.187Z" transform="translate(-2502.659 -318.046)" fill="#fff"/>
      <path id="パス_13027" data-name="パス 13027" d="M2517.942,440.178h-4.4a1.923,1.923,0,0,0-1.261.5,1.9,1.9,0,0,0-.6,1.22,1.627,1.627,0,0,0,.422,1.224,1.675,1.675,0,0,0,1.189.508h4.4a1.908,1.908,0,0,0,1.262-.5,1.863,1.863,0,0,0,.593-1.22,1.616,1.616,0,0,0-.419-1.224A1.7,1.7,0,0,0,2517.942,440.178Z" transform="translate(-2478.009 -318.071)" fill="#fff"/>
      <path id="パス_13028" data-name="パス 13028" d="M2509.07,441.134a1.941,1.941,0,0,0,1.22-.563,1.89,1.89,0,0,0,.582-1.213v-3.974a1.557,1.557,0,0,0-.4-1.153,1.492,1.492,0,0,0-1.145-.41,1.93,1.93,0,0,0-1.22.563,1.894,1.894,0,0,0-.586,1.213v3.974a1.559,1.559,0,0,0,.4,1.153A1.491,1.491,0,0,0,2509.07,441.134Z" transform="translate(-2489.369 -335.453)" fill="#fff"/>
      <path id="パス_13029" data-name="パス 13029" d="M2509.372,445.939a1.893,1.893,0,0,0-1.694,1.884v5.008a1.657,1.657,0,0,0,1.787,1.6,1.893,1.893,0,0,0,1.694-1.884v-5.008A1.659,1.659,0,0,0,2509.372,445.939Z" transform="translate(-2488.951 -302.365)" fill="#fff"/>
      <path id="パス_13030" data-name="パス 13030" d="M2559.688,443.528h-15.37q3.046-3.213,6.083-6.422,1.556-1.646,3.112-3.288a1.816,1.816,0,0,0,.294-2.466,1.762,1.762,0,0,0-2.477-.19q-4.618,4.881-9.239,9.762.056-9.913.108-19.822l.045-8c.011-2.272-3.254-1.388-3.265.56q-.072,13.3-.146,26.609-2.529-2.614-5.056-5.228l-2.915-3.015c-1.376-1.425-4.112.892-2.738,2.314l8.88,9.187h-14.492c-1.978,0-2.906,3.284-.63,3.284h14.635q-3.371,3.554-6.74,7.116-1.555,1.646-3.112,3.288a1.817,1.817,0,0,0-.294,2.466,1.77,1.77,0,0,0,2.477.194q4.964-5.25,9.937-10.5l-.108,19.859q-.022,4-.044,8c-.015,2.272,3.254,1.388,3.265-.56q.073-13.965.153-27.934,3.33,3.448,6.668,6.9l2.914,3.015c1.377,1.425,4.112-.9,2.739-2.313q-4.613-4.769-9.216-9.534h13.9C2561.036,446.811,2561.964,443.528,2559.688,443.528Z" transform="translate(-2453.792 -395.711)" fill="#fff"/>
      <path id="パス_13031" data-name="パス 13031" d="M2527.215,418.782a2.1,2.1,0,0,0,1.538-2.019v-7.989a1.344,1.344,0,0,0-1.672-1.276,2.085,2.085,0,0,0-1.538,2.015V417.5A1.344,1.344,0,0,0,2527.215,418.782Z" transform="translate(-2440.154 -407.454)" fill="#fff"/>
      <path id="パス_13032" data-name="パス 13032" d="M2543.167,420.23h-7.988a2.061,2.061,0,0,0-1.952,1.619,1.329,1.329,0,0,0,1.332,1.6h7.992a2.06,2.06,0,0,0,1.949-1.616A1.333,1.333,0,0,0,2543.167,420.23Z" transform="translate(-2419.213 -372.558)" fill="#fff"/>
      <path id="パス_13033" data-name="パス 13033" d="M2527,432.083a1.992,1.992,0,0,0-1.6,1.963v7.642a1.493,1.493,0,0,0,1.743,1.425,1.992,1.992,0,0,0,1.6-1.966v-7.642A1.489,1.489,0,0,0,2527,432.083Z" transform="translate(-2440.561 -340.254)" fill="#fff"/>
      <path id="パス_13034" data-name="パス 13034" d="M2525.262,420.231h-7.668a2.056,2.056,0,0,0-2.033,1.515,1.361,1.361,0,0,0,1.264,1.7h7.669a2.055,2.055,0,0,0,2.034-1.511A1.365,1.365,0,0,0,2525.262,420.231Z" transform="translate(-2467.497 -372.555)" fill="#fff"/>
    </g>
    <g id="グループ_1634" data-name="グループ 1634" transform="translate(235 5407.937)">
      <path id="パス_13035" data-name="パス 13035" d="M2177.664,449.3h7.1l.056-7.646c.011-1.127.019-2.258.029-3.384a1.608,1.608,0,0,1,1.921-1.362,1.907,1.907,0,0,1,1.538,2q-.04,5.194-.082,10.392h5.5a2.1,2.1,0,0,1,2,1.564,1.3,1.3,0,0,1-1.269,1.623h-6.247q-.039,4.97-.079,9.941c-.007,1.131-.018,2.258-.025,3.388a1.616,1.616,0,0,1-1.925,1.362,1.909,1.909,0,0,1-1.534-2q.044-6.347.1-12.691h-6.347a2.1,2.1,0,0,1-2-1.56A1.3,1.3,0,0,1,2177.664,449.3Z" transform="translate(-2081.219 -327.06)" fill="#fff"/>
      <path id="パス_13036" data-name="パス 13036" d="M2183.781,440.187h4.171a1.855,1.855,0,0,1,1.176.474,2.141,2.141,0,0,1,.678,1.213,1.557,1.557,0,0,1-.246,1.187,1.336,1.336,0,0,1-1.042.519h-4.168a1.85,1.85,0,0,1-1.179-.478,2.139,2.139,0,0,1-.678-1.213,1.581,1.581,0,0,1,.246-1.187A1.332,1.332,0,0,1,2183.781,440.187Z" transform="translate(-2064.521 -318.046)" fill="#fff"/>
      <path id="パス_13037" data-name="パス 13037" d="M2174.919,440.178h4.4a1.932,1.932,0,0,1,1.261.5,1.888,1.888,0,0,1,.593,1.22,1.624,1.624,0,0,1-.418,1.224,1.682,1.682,0,0,1-1.189.508h-4.4a1.908,1.908,0,0,1-1.262-.5,1.866,1.866,0,0,1-.6-1.22,1.631,1.631,0,0,1,.421-1.224A1.685,1.685,0,0,1,2174.919,440.178Z" transform="translate(-2089.551 -318.071)" fill="#fff"/>
      <path id="パス_13038" data-name="パス 13038" d="M2180.487,441.134a1.929,1.929,0,0,1-1.22-.563,1.894,1.894,0,0,1-.586-1.213v-3.974a1.561,1.561,0,0,1,.4-1.153,1.488,1.488,0,0,1,1.142-.41,1.941,1.941,0,0,1,1.225.563,1.89,1.89,0,0,1,.582,1.213v3.974a1.558,1.558,0,0,1-.4,1.153A1.492,1.492,0,0,1,2180.487,441.134Z" transform="translate(-2074.881 -335.453)" fill="#fff"/>
      <path id="パス_13039" data-name="パス 13039" d="M2180.28,445.939a1.893,1.893,0,0,1,1.694,1.884v5.008a1.66,1.66,0,0,1-1.788,1.6,1.894,1.894,0,0,1-1.694-1.884v-5.008A1.66,1.66,0,0,1,2180.28,445.939Z" transform="translate(-2075.395 -302.365)" fill="#fff"/>
      <path id="パス_13040" data-name="パス 13040" d="M2157.04,443.528h15.366q-3.04-3.213-6.079-6.422-1.556-1.646-3.116-3.288a1.82,1.82,0,0,1-.291-2.466,1.759,1.759,0,0,1,2.474-.19q4.623,4.881,9.243,9.762-.056-9.913-.108-19.822l-.045-8c-.011-2.272,3.254-1.388,3.265.56q.072,13.3.146,26.609,2.524-2.614,5.056-5.228l2.914-3.015c1.377-1.425,4.109.892,2.735,2.314l-8.88,9.187h14.493c1.981,0,2.909,3.284.634,3.284h-14.638q3.37,3.554,6.739,7.116,1.555,1.646,3.116,3.288a1.817,1.817,0,0,1,.291,2.466,1.766,1.766,0,0,1-2.474.194q-4.971-5.25-9.937-10.5l.109,19.859q.021,4,.044,8c.011,2.272-3.254,1.388-3.264-.56q-.078-13.965-.154-27.934-3.336,3.448-6.668,6.9-1.461,1.511-2.918,3.015c-1.376,1.425-4.107-.9-2.735-2.313q4.607-4.769,9.217-9.534h-13.9C2155.693,446.811,2154.764,443.528,2157.04,443.528Z" transform="translate(-2137.63 -395.711)" fill="#fff"/>
      <path id="パス_13041" data-name="パス 13041" d="M2162.238,418.782a2.092,2.092,0,0,1-1.538-2.019v-7.989a1.343,1.343,0,0,1,1.672-1.276,2.089,2.089,0,0,1,1.538,2.015V417.5A1.344,1.344,0,0,1,2162.238,418.782Z" transform="translate(-2123.992 -407.454)" fill="#fff"/>
      <path id="パス_13042" data-name="パス 13042" d="M2152.213,420.23h7.992a2.064,2.064,0,0,1,1.952,1.619,1.329,1.329,0,0,1-1.332,1.6h-7.992a2.063,2.063,0,0,1-1.952-1.616A1.333,1.333,0,0,1,2152.213,420.23Z" transform="translate(-2150.863 -372.558)" fill="#fff"/>
      <path id="パス_13043" data-name="パス 13043" d="M2162.556,432.083a1.992,1.992,0,0,1,1.6,1.963v7.642a1.493,1.493,0,0,1-1.743,1.425,2,2,0,0,1-1.6-1.966v-7.642A1.491,1.491,0,0,1,2162.556,432.083Z" transform="translate(-2123.686 -340.254)" fill="#fff"/>
      <path id="パス_13044" data-name="パス 13044" d="M2169.913,420.231h7.664a2.061,2.061,0,0,1,2.037,1.515,1.363,1.363,0,0,1-1.268,1.7h-7.669a2.056,2.056,0,0,1-2.033-1.511A1.367,1.367,0,0,1,2169.913,420.231Z" transform="translate(-2102.372 -372.555)" fill="#fff"/>
    </g>
  </g>
</svg>
