<svg xmlns="http://www.w3.org/2000/svg" width="712.342" height="83.645" viewBox="0 0 712.342 83.645">
  <path id="パス_6246" data-name="パス 6246" d="M2458.693,356.353h-.017c-.042-5.088-.144-9.859-.054-12.2l-7.543,3.489a27.188,27.188,0,0,1-21.27,2.118c-6.149-1.956-11.951-6.274-18.358-6.847-.942-.084-13.431-.667-13.431-.667s.041,7.284.14,14.1V366.2a30.249,30.249,0,0,0,59.582,7.4l.135.014a18.923,18.923,0,0,0,.5-3.27,30.31,30.31,0,0,0,.318-4.146Z" transform="translate(-1777.302 -318.038)" fill="#856660"/>
  <path id="パス_6247" data-name="パス 6247" d="M1813.924,318.944H1777.3v80.815h17.856V370.783h18.766c20.36,0,28.094-12.789,28.094-25.92s-7.734-25.919-28.094-25.919m-4.889,38.03h-13.877V332.753h13.877c8.187,0,15.695,1.811,15.695,12.11s-7.508,12.111-15.695,12.111m190.657-38.03h17.857V369.2c0,21.845-12.965,32.485-34.69,32.485-21.95,0-34.576-10.412-34.576-32.485V318.944h17.857V369.2c0,8.829,2.274,17.546,16.719,17.546,12.739,0,16.833-5.433,16.833-17.546Zm91.1,0h17.856V369.2c0,21.845-12.965,32.485-34.689,32.485-21.951,0-34.576-10.412-34.576-32.485V318.944h17.856V369.2c0,8.829,2.275,17.546,16.72,17.546,12.739,0,16.833-5.433,16.833-17.546Zm88.823,0h17.857V369.2c0,21.845-12.965,32.485-34.689,32.485-21.951,0-34.577-10.412-34.577-32.485V318.944h17.857V369.2c0,8.829,2.275,17.546,16.72,17.546,12.739,0,16.832-5.433,16.832-17.546Zm95.763,51.5c7.732,3.961,7.961,4.414,15.24,7.7a41.151,41.151,0,1,1-.682-39.162c-6.939,3.621-7.508,3.961-15.242,7.7a23.674,23.674,0,0,0-20.471-11.658,24,24,0,1,0,0,47.991,23.719,23.719,0,0,0,21.155-12.565m84.272-51.724h17.517v80.815h-17.517v-34.41h-37.645v34.41h-17.4V318.491h17.4v29.316h37.645Zm-433.083.225V369.2c0,21.845-12.966,32.485-34.69,32.485-21.95,0-34.576-10.412-34.576-32.485V318.944h17.857V369.2c0,8.829,2.274,17.546,16.719,17.546,12.739,0,16.833-5.433,16.833-17.546V318.944Zm537.376,6.916v-6.916h-17.857V369.2c0,12.113-4.094,17.546-16.832,17.546-14.446,0-16.72-8.717-16.72-17.546V318.944h-17.857V369.2c0,22.073,12.626,32.485,34.577,32.485,16.731,0,28.236-6.34,32.655-19.221a28.367,28.367,0,0,0,2.034-56.6m0,41.93V340.431a13.953,13.953,0,0,1,0,27.359" transform="translate(-1777.302 -318.038)" fill="#fff"/>
</svg>
