<svg xmlns="http://www.w3.org/2000/svg" width="287.3" height="52.711" viewBox="0 0 287.3 52.711">
  <g id="グループ_2445" data-name="グループ 2445" transform="translate(-651.31 -3959.816)">
    <g id="パス_16696" data-name="パス 16696" transform="translate(549.223 2904.841)" fill="#fff" stroke-miterlimit="10">
      <path d="M 245.6587829589844 1107.185791015625 C 244.9402160644531 1107.185791015625 244.3143157958984 1106.75048828125 244.0642547607422 1106.077026367188 L 239.8621063232422 1094.740966796875 L 122.2190017700195 1094.740966796875 C 119.568962097168 1094.740966796875 116.9979248046875 1094.221801757812 114.5773239135742 1093.197875976562 C 112.239501953125 1092.209106445312 110.1399993896484 1090.793579101562 108.3371810913086 1088.99072265625 C 106.5343551635742 1087.187744140625 105.1188583374023 1085.088256835938 104.1300354003906 1082.750244140625 C 103.1061401367188 1080.329467773438 102.5869979858398 1077.75830078125 102.5869979858398 1075.108032226562 C 102.5869979858398 1072.457763671875 103.1061401367188 1069.886596679688 104.1300354003906 1067.4658203125 C 105.1188583374023 1065.127807617188 106.5343551635742 1063.028198242188 108.3371810913086 1061.225341796875 C 110.1399993896484 1059.422485351562 112.239501953125 1058.006958007812 114.5773239135742 1057.01806640625 C 116.9979248046875 1055.994140625 119.5690002441406 1055.474975585938 122.2190017700195 1055.474975585938 L 369.2539978027344 1055.474975585938 C 371.9042358398438 1055.474975585938 374.4754943847656 1055.994140625 376.8962707519531 1057.01806640625 C 379.2342224121094 1058.0068359375 381.3338317871094 1059.42236328125 383.1366882324219 1061.225341796875 C 384.9395751953125 1063.028198242188 386.3551025390625 1065.127807617188 387.3439636230469 1067.4658203125 C 388.3678588867188 1069.886474609375 388.8869934082031 1072.457763671875 388.8869934082031 1075.108032226562 C 388.8869934082031 1077.75830078125 388.3678588867188 1080.329467773438 387.3439636230469 1082.750244140625 C 386.3551025390625 1085.088256835938 384.9395751953125 1087.187866210938 383.1366882324219 1088.99072265625 C 381.3338317871094 1090.793579101562 379.2342224121094 1092.209106445312 376.8962707519531 1093.197875976562 C 374.4754943847656 1094.221801757812 371.9042358398438 1094.740966796875 369.2539978027344 1094.740966796875 L 251.6074981689453 1094.740966796875 L 247.2447204589844 1106.095336914062 C 246.9908599853516 1106.757568359375 246.3682861328125 1107.185791015625 245.6587829589844 1107.185791015625 Z" stroke="none"/>
      <path d="M 122.218994140625 1055.974975585938 C 111.6529846191406 1055.974975585938 103.0870056152344 1064.541015625 103.0870056152344 1075.108032226562 C 103.0870056152344 1085.675048828125 111.6529846191406 1094.240966796875 122.218994140625 1094.240966796875 L 240.2100067138672 1094.240966796875 L 244.5330047607422 1105.902954101562 C 244.9180145263672 1106.93994140625 246.3820037841797 1106.948974609375 246.7779998779297 1105.916015625 L 251.2639923095703 1094.240966796875 L 369.2539978027344 1094.240966796875 C 379.8209838867188 1094.240966796875 388.3869934082031 1085.675048828125 388.3869934082031 1075.108032226562 C 388.3869934082031 1064.541015625 379.8209838867188 1055.974975585938 369.2539978027344 1055.974975585938 L 122.218994140625 1055.974975585938 M 122.218994140625 1054.974975585938 L 369.2539978027344 1054.974975585938 C 371.9715270996094 1054.974975585938 374.6083068847656 1055.507446289062 377.0910339355469 1056.557495117188 C 379.4885864257812 1057.571655273438 381.6415710449219 1059.023193359375 383.490234375 1060.871704101562 C 385.3388671875 1062.720458984375 386.7903747558594 1064.873413085938 387.804443359375 1067.27099609375 C 388.8545532226562 1069.753662109375 389.3869934082031 1072.390502929688 389.3869934082031 1075.108032226562 C 389.3869934082031 1077.825561523438 388.8545532226562 1080.462280273438 387.804443359375 1082.945068359375 C 386.7903747558594 1085.342651367188 385.3388671875 1087.49560546875 383.490234375 1089.34423828125 C 381.6415710449219 1091.19287109375 379.4885864257812 1092.644409179688 377.0910339355469 1093.658447265625 C 374.6083068847656 1094.70849609375 371.9715270996094 1095.240966796875 369.2539978027344 1095.240966796875 L 251.9510345458984 1095.240966796875 L 247.7114562988281 1106.274658203125 C 247.3829650878906 1107.131591796875 246.5771179199219 1107.685791015625 245.6588134765625 1107.685791015625 C 244.7289581298828 1107.685791015625 243.9190826416016 1107.12255859375 243.5955047607422 1106.2509765625 L 239.5141906738281 1095.240966796875 L 122.218994140625 1095.240966796875 C 119.5016784667969 1095.240966796875 116.8651123046875 1094.70849609375 114.3825378417969 1093.658447265625 C 111.985107421875 1092.644287109375 109.8321838378906 1091.19287109375 107.9836120605469 1089.34423828125 C 106.1350402832031 1087.49560546875 104.6835632324219 1085.342529296875 103.6695251464844 1082.945068359375 C 102.6194152832031 1080.462280273438 102.0870056152344 1077.825561523438 102.0870056152344 1075.108032226562 C 102.0870056152344 1072.390502929688 102.6194152832031 1069.753784179688 103.6695251464844 1067.27099609375 C 104.6835632324219 1064.873413085938 106.1350402832031 1062.720458984375 107.9836120605469 1060.871826171875 C 109.8321838378906 1059.023193359375 111.985107421875 1057.571655273438 114.3825378417969 1056.557495117188 C 116.8651123046875 1055.507446289062 119.5016784667969 1054.974975585938 122.218994140625 1054.974975585938 Z" stroke="none" fill="#7b414d"/>
    </g>
    <g id="グループ_2444" data-name="グループ 2444" transform="translate(633.816 3951.797)">
      <g id="グループ_2442" data-name="グループ 2442" transform="translate(108.094 20.254)">
        <path id="パス_19965" data-name="パス 19965" d="M282.26,21.868a4.279,4.279,0,0,0-4.092-1.528,4.578,4.578,0,0,0-2.892,2.349,5.46,5.46,0,0,0-1.2-1.436,3.506,3.506,0,0,0-4.125-.259,4.124,4.124,0,0,0-2.063,3.838,7.956,7.956,0,0,0,2.462,4.773c1.424,1.409,3.6,2.719,3.744,4.942,0,.01.006.016.007.025a.555.555,0,0,0,.04.156.58.58,0,0,0,.039.11l0,.015c.013.021.036.032.052.051a.5.5,0,0,0,.1.1.548.548,0,0,0,.679-.037c1.641-1.546,3.292-3.085,4.924-4.641a11.09,11.09,0,0,0,2.988-3.946A4.465,4.465,0,0,0,282.26,21.868Zm-2.788,7.25c-1.444,1.4-2.918,2.766-4.384,4.14-.826-2.68-3.848-4.02-5.229-6.409-.666-1.153-1.186-2.7-.331-3.89a2.658,2.658,0,0,1,3.184-1,3.7,3.7,0,0,1,1.939,2.714c.04.765,1.1.675,1.19-.028.222-1.7,1.649-3.328,3.482-3.022a3.292,3.292,0,0,1,2.734,3.326C281.944,26.622,280.614,28.013,279.472,29.118Z" transform="translate(-113.255 -20.254)" fill="#7b414d"/>
        <path id="パス_19966" data-name="パス 19966" d="M125.089,23.225H124c-.4,0-.482.062-.591.451-.265.9-.467,1.556-.7,2.288L121.2,30.586c-.047.142-.108.2-.155.2s-.108-.062-.154-.187l-1.713-4.56c-.28-.763-.545-1.448-.856-2.366-.125-.39-.2-.451-.609-.451h-.248c-.4,0-.483.062-.622.435-.312.935-.56,1.6-.857,2.383l-1.758,4.576c-.047.124-.108.186-.155.186s-.108-.062-.155-.2l-1.479-4.638c-.233-.732-.436-1.385-.685-2.288-.109-.39-.187-.451-.591-.451h-1.2c-.249,0-.359.031-.359.172a.694.694,0,0,0,.064.263c.358.966.606,1.682.87,2.429l1.884,5.511c.248.746.466,1.384.714,2.193.125.39.2.452.609.452h.373c.4,0,.483-.063.622-.436.28-.809.529-1.447.81-2.18l1.805-4.7c.062-.14.108-.2.17-.2s.125.078.172.2l1.791,4.7c.263.7.513,1.354.793,2.18.14.373.218.436.622.436h.39c.4,0,.482-.063.607-.452.248-.792.466-1.447.716-2.179l1.9-5.54c.263-.748.5-1.448.871-2.414a.7.7,0,0,0,.062-.263C125.448,23.256,125.339,23.225,125.089,23.225Z" transform="translate(-109.603 -20.322)" fill="#7b414d"/>
        <path id="パス_19967" data-name="パス 19967" d="M136.127,32.563c-.108,0-1.509.047-2.256.047h-1.432c-.39,0-.466-.078-.466-.467V29.668c0-.389.076-.467.466-.467h.778c.732,0,2.149.031,2.258.031.326,0,.39-.093.39-.451v-.763c0-.358-.064-.451-.39-.451-.108,0-1.526.03-2.258.03h-.778c-.39,0-.466-.076-.466-.466V25.357c0-.39.076-.467.466-.467h1.1c.747,0,2.148.047,2.257.047.326,0,.39-.094.39-.451v-.841c0-.359-.064-.451-.39-.451-.108,0-1.509.031-2.257.031h-.871c-.732,0-1.961-.031-2.07-.031-.342,0-.436.125-.436.5.016.794.03,1.837.03,2.6v4.888c0,.746-.015,1.727-.03,2.6,0,.373.094.5.436.5.109,0,1.338-.031,2.07-.031h1.2c.746,0,2.147.031,2.256.031.328,0,.39-.094.39-.451v-.81C136.517,32.656,136.456,32.563,136.127,32.563Z" transform="translate(-110.078 -20.322)" fill="#7b414d"/>
        <path id="パス_19968" data-name="パス 19968" d="M147.709,28.454c-.172-.063-.248-.108-.248-.187,0-.047.076-.108.2-.2a2.679,2.679,0,0,0,1.011-2.35c0-1.9-1.323-2.49-3.563-2.49h-1.2c-.731,0-1.9-.031-2.07-.031-.342,0-.435.125-.435.5,0,.265.03,1.837.03,2.6v4.888c0,.871-.03,2.552-.03,2.66,0,.328.108.437.435.437.109,0,1.339-.031,2.07-.031h1.247c2.5,0,4.045-1.058,4.045-3.377A2.369,2.369,0,0,0,147.709,28.454Zm-4.514-3.237c0-.39.078-.467.468-.467h1.431c.95,0,1.791.264,1.791,1.291,0,1.246-.825,1.68-1.977,1.68h-1.245c-.39,0-.468-.078-.468-.466Zm1.93,7.532h-1.462c-.39,0-.468-.077-.468-.466v-2.6c0-.389.078-.467.468-.467h1.743c1.2,0,1.961.451,1.961,1.633C147.366,32.143,146.417,32.749,145.125,32.749Z" transform="translate(-110.337 -20.322)" fill="#7b414d"/>
        <path id="パス_19969" data-name="パス 19969" d="M165.059,28.971h2.21c.638,0,1.291.03,1.929.03.39,0,.374-.217.374-.778,0-.592.016-.793-.374-.793-.654,0-1.291.03-1.929.03h-3.378c-.311,0-.436-.124-.436-.436V25.562c0-.31.125-.435.436-.435h2.366c.561,0,1.121.031,1.68.031.375,0,.343-.188.343-.78,0-.574.032-.763-.343-.763-.56,0-1.12.032-1.68.032h-2.366c-.311,0-.436-.125-.436-.436v-.5c0-.5.017-.733.188-.873.108-.093.2-.14.2-.233,0-.141-.172-.172-.28-.187-.187-.016-1.37-.108-1.541-.108s-.28.046-.28.233a.433.433,0,0,0,.016.141,7.32,7.32,0,0,1,.047,1.028v.5c0,.311-.125.436-.437.436h-1.042c-.155-.016-.312-.078-.312-.265a.534.534,0,0,1,.031-.124,2.33,2.33,0,0,1,.094-.249c.109-.312.14-.42.326-.484.093-.03.218-.076.218-.2,0-.172-.171-.219-.653-.359a9.46,9.46,0,0,0-1.013-.248c-.123,0-.155.108-.187.2a13.055,13.055,0,0,1-1.805,3.784,3.61,3.61,0,0,0-.482.731c0,.3.9.732,1.2.732a.507.507,0,0,0,.39-.265,13.228,13.228,0,0,0,.886-1.417.6.6,0,0,1,.623-.358h1.727c.312,0,.437.125.437.435v1.463c0,.312-.125.436-.437.436h-3.3c-.655,0-1.293-.03-1.931-.03-.389,0-.373.187-.373.793,0,.576-.016.778.373.778.639,0,1.277-.03,1.931-.03H159.7c.264,0,.342.125.342.389a3.962,3.962,0,0,1-.638,2.085,6.43,6.43,0,0,1-3.378,2.444c-.17.046-.373.078-.373.281,0,.341.608,1.089,1,1.089a5.082,5.082,0,0,0,1.417-.608,6.414,6.414,0,0,0,3.469-4.778.219.219,0,0,1,.157-.218c.108-.031.233-.094.233-.233,0-.156-.3-.2-.9-.358-.017,0-.031-.032-.031-.047a.041.041,0,0,1,.047-.047h1.619c.312,0,.437.125.437.435v3.938c0,1.371.449,1.666,1.742,1.666h2.522c.809,0,1.337-.108,1.666-.917a7.649,7.649,0,0,0,.5-1.993c0-.39-.808-.514-1.089-.514-.357,0-.373.188-.42.5-.171,1.212-.3,1.384-.917,1.384h-1.821c-.545,0-.655-.108-.655-.654V29.406C164.622,29.08,164.747,28.971,165.059,28.971Z" transform="translate(-110.666 -20.278)" fill="#7b414d"/>
        <path id="パス_19970" data-name="パス 19970" d="M174.972,25.748a1.3,1.3,0,0,0,.545-.281,15.108,15.108,0,0,0,2.973-2.925c.172-.2.187-.218.39-.218.094,0,.28-.031.28-.155,0-.142-.187-.265-.28-.312-.047-.031-.125-.078-.233-.14a3.523,3.523,0,0,0-.887-.468c-.108,0-.172.109-.234.2a14.428,14.428,0,0,1-3.113,3.035c-.125.076-.265.171-.265.341C174.147,25.093,174.723,25.748,174.972,25.748Z" transform="translate(-111.092 -20.277)" fill="#7b414d"/>
        <path id="パス_19971" data-name="パス 19971" d="M179.982,25.419c0-.156-.2-.265-.327-.328-.031-.015-.078-.046-.14-.076a4.4,4.4,0,0,0-.981-.468.24.24,0,0,0-.2.14,16.46,16.46,0,0,1-3.922,4.375c-.155.109-.342.218-.342.436,0,.3.56,1.011.84,1.011.326,0,.964-.622,1.214-.856a.232.232,0,0,1,.14-.062c.125,0,.155.108.172.2v3.487c0,.529-.047,1.042-.047,1.557,0,.482.218.466.81.466s.792.016.792-.466c0-.515-.046-1.028-.046-1.557V29.715c0-.779-.016-1.074.171-1.23.108-.094.172-.124.172-.217,0-.189-.233-.189-.359-.2-.078-.016-.125-.047-.125-.108,0-.031.032-.063.047-.078a19.664,19.664,0,0,0,1.495-1.946c.124-.187.14-.249.358-.311C179.81,25.606,179.982,25.559,179.982,25.419Z" transform="translate(-111.091 -20.353)" fill="#7b414d"/>
        <path id="パス_19972" data-name="パス 19972" d="M180.909,23.666c.529,0,1.059-.032,1.588-.032h2.772c.513,0,1.042.032,1.571.032.421,0,.39-.233.39-.779s.031-.794-.39-.794c-.528,0-1.058.048-1.571.048H182.5c-.529,0-1.058-.048-1.588-.048-.4,0-.389.234-.389.794S180.5,23.666,180.909,23.666Z" transform="translate(-111.239 -20.296)" fill="#7b414d"/>
        <path id="パス_19973" data-name="パス 19973" d="M187.865,26.172c-.592,0-1.166.031-1.743.031H181.9c-.591,0-1.167-.031-1.744-.031-.4,0-.388.2-.388.78s-.017.778.388.778c.576,0,1.153-.031,1.744-.031h1.665c.312,0,.437.124.437.436v4.5c0,.825.046,1.136-.857,1.136-.171,0-.388-.016-.56-.03a1.969,1.969,0,0,0-.312-.031c-.249,0-.3.233-.3.435a2.534,2.534,0,0,0,.234,1.028c.141.233.514.218.732.218,1.151,0,2.724-.078,2.724-1.588,0-.39-.032-.763-.032-1.153V28.134c0-.312.125-.436.437-.436h.047c.576,0,1.167.031,1.743.031.389,0,.389-.187.389-.778S188.254,26.172,187.865,26.172Z" transform="translate(-111.222 -20.39)" fill="#7b414d"/>
        <path id="パス_19974" data-name="パス 19974" d="M206.566,34.042a14.816,14.816,0,0,1-1.992-1.961.479.479,0,0,1-.141-.342.792.792,0,0,1,.094-.327,12.824,12.824,0,0,0,1.4-3.58,6.684,6.684,0,0,0,.171-1.042,1.094,1.094,0,0,0-.326-.7.858.858,0,0,0-.794-.344c-.312,0-.623.017-.918.017h-2.91c-.311,0-.436-.124-.436-.436V23.817c0-.312.125-.437.436-.437h3.205c.623,0,1.261.032,1.884.032.389,0,.358-.157.358-.763s.031-.779-.373-.779c-.622,0-1.246.047-1.869.047h-2.972c-.468,0-.934-.031-1.4-.031-.591,0-.825.154-.825.778,0,.468.016.935.016,1.4v2.6a17.311,17.311,0,0,1-1.06,6.6.222.222,0,0,1-.187.14.2.2,0,0,1-.187-.124c-.123-.234-.373-.762-.466-1.012-.062-.17-.108-.373-.312-.373-.155,0-1.058.2-1.058.483a9.4,9.4,0,0,0,.5,1.323c.108.248.312.779.56.779a1.149,1.149,0,0,0,.312-.078.288.288,0,0,1,.108-.03c.109,0,.187.108.249.187a2.261,2.261,0,0,0,1.075.638c.42,0,1.229-2.336,1.353-2.755a19.634,19.634,0,0,0,.655-4.966c0-.094.047-.233.171-.233s.171.156.187.265a11.033,11.033,0,0,0,1.245,3.876.634.634,0,0,1,.094.326.552.552,0,0,1-.141.342,10.477,10.477,0,0,1-2.068,1.822c-.235.155-.515.326-.515.482,0,.218.638.981.934.981.451,0,2.164-1.6,2.506-1.992a.375.375,0,0,1,.265-.141.365.365,0,0,1,.265.155,17.818,17.818,0,0,0,1.7,1.729.794.794,0,0,0,.5.263,1.585,1.585,0,0,0,.981-.964C206.831,34.245,206.722,34.167,206.566,34.042Zm-2.972-4.031a.212.212,0,0,1-.189.124.238.238,0,0,1-.2-.14,7.781,7.781,0,0,1-.763-2.412c-.031-.279.125-.4.39-.4h1.026c.405,0,.609-.016.609.218A10.012,10.012,0,0,1,203.594,30.011Z" transform="translate(-111.594 -20.291)" fill="#7b414d"/>
        <path id="パス_19975" data-name="パス 19975" d="M193.228,30.958c0,.514.14.716.638.716.265,0,.53-.016.81-.016h1.588c.279,0,.544.016.824.016.561,0,.638-.28.638-.779,0-.373-.03-.746-.03-1.1V23.658c0-.389.03-.763.03-1.152,0-.483-.108-.747-.638-.747-.28,0-.545.031-.824.031h-1.588c-.28,0-.56-.031-.841-.031-.5,0-.607.265-.607.731,0,.39.016.78.016,1.168v6.133C193.244,30.179,193.228,30.569,193.228,30.958Zm1.448-7.315a.413.413,0,0,1,.437-.42h.746c.279,0,.4.155.436.42v.545a.434.434,0,0,1-.436.435h-.746a.444.444,0,0,1-.437-.435Zm0,2.724a.413.413,0,0,1,.437-.42h.746a.422.422,0,0,1,.436.42v.56a.437.437,0,0,1-.436.437h-.746a.447.447,0,0,1-.437-.437Zm0,2.771a.433.433,0,0,1,.437-.435h.746a.424.424,0,0,1,.436.435v.685c-.031.265-.156.421-.436.421h-.746a.413.413,0,0,1-.437-.421Z" transform="translate(-111.533 -20.288)" fill="#7b414d"/>
        <path id="パス_19976" data-name="パス 19976" d="M194.707,32.381a6.962,6.962,0,0,0-.825-.25c-.11,0-.141.062-.172.171a10.3,10.3,0,0,1-1.011,2.272,1.193,1.193,0,0,0-.156.359c0,.248.917.576,1.153.576.14,0,.216-.125.279-.234a15.011,15.011,0,0,0,.763-1.7c.047-.108.077-.2.108-.28.125-.326.14-.358.3-.4.094-.031.187-.047.187-.172C195.329,32.568,195.143,32.521,194.707,32.381Z" transform="translate(-111.517 -20.528)" fill="#7b414d"/>
        <path id="パス_19977" data-name="パス 19977" d="M211.775,24.193c.608,0,1.229-.03,1.837-.03h3.222c.3,0,.42.124.42.42V24.8c0,.312-.124.436-.42.436h-2.289c-.528,0-1.042-.03-1.555-.03-.327,0-.327.154-.327.7,0,.591,0,.732.327.732.513,0,1.028-.032,1.555-.032h7.068c.513,0,1.042.032,1.555.032.327,0,.312-.172.312-.732,0-.513.03-.7-.312-.7-.513,0-1.042.03-1.555.03h-2.273c-.311,0-.436-.124-.436-.436v-.218c0-.3.125-.42.436-.42h3.269c.607,0,1.213.03,1.837.03.373,0,.357-.154.357-.716s.016-.715-.357-.715c-.623,0-1.23.03-1.837.03h-3.269c-.3,0-.42-.108-.436-.4.016-.187,0-.342.155-.467.109-.078.2-.124.2-.233,0-.172-.265-.187-.4-.2-.25-.016-1.183-.108-1.386-.108-.155,0-.279.047-.279.218a.451.451,0,0,0,.015.14,4.618,4.618,0,0,1,.047.654c-.016.3-.141.4-.42.4h-3.222c-.608,0-1.214-.03-1.837-.03-.373,0-.359.155-.359.715S211.4,24.193,211.775,24.193Z" transform="translate(-111.952 -20.28)" fill="#7b414d"/>
        <path id="パス_19978" data-name="パス 19978" d="M224.632,32.258a3.744,3.744,0,0,0-.9-.2c-.265,0-.265.2-.3.419-.187,1.245-.513,1.308-1.075,1.308h-1.026c-.623,0-.763-.094-.763-.7V30.8c0-.312.015-.592.187-.732.062-.063.155-.109.155-.2,0-.187-.28-.187-.42-.2-.265-.031-1.089-.109-1.323-.109-.14,0-.265.031-.265.2,0,.047.015.094.015.141a8.493,8.493,0,0,1,.047,1.276v2.07c0,.3-.015.576-.015.871,0,.934.591,1.183,1.416,1.183H222.7c.685,0,1.245,0,1.666-.638a4.82,4.82,0,0,0,.638-2.039C225.006,32.414,224.9,32.351,224.632,32.258Z" transform="translate(-112.125 -20.468)" fill="#7b414d"/>
        <path id="パス_19979" data-name="パス 19979" d="M224.528,28.293c0-.515-.42-.64-.857-.64-.544,0-1.1.032-1.666.032h-7.844c-.545,0-1.011-.032-1.386-.032-.746,0-1.136.094-1.136.64,0,.17.032.5.032.84v.606c0,.219-.032.484-.032.67,0,.374.219.358.857.358.561,0,.825.032.825-.341,0-.187-.047-.468-.047-.67v-.279c0-.3.14-.422.437-.422h8.746c.3,0,.42.125.42.422v.3c0,.2-.03.529-.03.669,0,.343.233.343.84.343.655,0,.841,0,.841-.358,0-.235-.032-.452-.032-.67v-.622C224.5,28.791,224.528,28.51,224.528,28.293Z" transform="translate(-111.957 -20.424)" fill="#7b414d"/>
        <path id="パス_19980" data-name="パス 19980" d="M216.782,29.673A11.649,11.649,0,0,0,215.6,29.5c-.28,0-.28.14-.3.483a3.074,3.074,0,0,1-.015.343c-.187,2.133-1.6,3.144-3.5,3.8-.172.064-.545.11-.545.344s.451,1.057.918,1.057a6.244,6.244,0,0,0,2.147-.933,5.155,5.155,0,0,0,2.49-4.124.351.351,0,0,1,.156-.281c.108-.063.326-.141.326-.28C217.28,29.735,216.907,29.689,216.782,29.673Z" transform="translate(-111.948 -20.467)" fill="#7b414d"/>
        <path id="パス_19981" data-name="パス 19981" d="M240.677,31.083c0-.466,0-.638-.357-.638-.265,0-.81.031-1.122.015-.3,0-.388-.14-.388-.419v-.5c0-.3.123-.42.42-.42.2,0,.4.016.606.016.375,0,.344-.219.344-.639,0-.4.031-.638-.344-.638-.451,0-.9.032-1.354.032h-3.719c-.436,0-.887-.032-1.338-.032-.374,0-.358.219-.358.638s-.017.639.358.639c.233,0,.467-.016.7-.016.3,0,.4.14.4.42v.5c0,.279-.108.419-.4.419-.373.017-.871-.015-1.214-.015-.359,0-.359.172-.359.638,0,.42-.015.654.343.654.373,0,.748-.03,1.121-.03.171.015.311.078.311.265a.45.45,0,0,1-.031.14,3.459,3.459,0,0,1-1.416,1.6c-.125.078-.343.187-.343.344a1.543,1.543,0,0,0,.981.933c.2,0,.451-.233.607-.359a4.624,4.624,0,0,0,1.712-2.537.438.438,0,0,1,.514-.388h.561c.295,0,.435.124.435.435v.437c0,.622-.046,1.246-.046,1.867,0,.451.14.483.778.483.593,0,.763-.015.763-.451,0-.638-.03-1.26-.03-1.9v-.437c0-.3.093-.4.388-.435.187,0,.966.03,1.122.03C240.677,31.736,240.677,31.55,240.677,31.083Zm-3.331-1.042a.419.419,0,0,1-.435.419h-.483c-.28,0-.405-.154-.437-.419v-.5a.437.437,0,0,1,.437-.437h.483c.265,0,.4.172.435.437Z" transform="translate(-112.44 -20.429)" fill="#7b414d"/>
        <path id="パス_19982" data-name="パス 19982" d="M235.064,26.821c.576,0,.825-.187.825-.778,0-.437-.03-.871-.03-1.308V24.1c0-.468.03-.934.03-1.4,0-.622-.248-.778-.856-.778-.389,0-.762.015-1.151.015h-1.728c-.389,0-.778-.015-1.182-.015-.592,0-.825.17-.825.793,0,.483.03.966.03,1.448v8.451c0,.763-.047,1.526-.047,2.3,0,.482.171.5.809.5.655,0,.81-.017.81-.515,0-.761-.031-1.524-.031-2.287V27.227c0-.312.125-.437.436-.437h1.728C234.271,26.79,234.677,26.821,235.064,26.821Zm-3.346-3.378a.27.27,0,0,1,.3-.3h2.008a.27.27,0,0,1,.3.3v.11a.287.287,0,0,1-.3.3h-2.008a.287.287,0,0,1-.3-.3Zm.374,2.18a.351.351,0,0,1-.374-.373v-.03a.352.352,0,0,1,.374-.375h1.851a.361.361,0,0,1,.374.375v.03a.36.36,0,0,1-.374.373Z" transform="translate(-112.384 -20.292)" fill="#7b414d"/>
        <path id="パス_19983" data-name="パス 19983" d="M243.17,22.7c0-.622-.264-.778-.855-.778-.39,0-.763.015-1.153.015h-1.727c-.39,0-.778-.015-1.182-.015-.576,0-.826.17-.826.778,0,.467.03.933.03,1.4v.638c0,.437-.03.871-.03,1.308,0,.607.249.778.84.778.39,0,.778-.031,1.167-.031h1.727c.312,0,.437.125.437.437V32.97c0,.482.062.871-.591.871-.141,0-.343-.032-.484-.047h-.2c-.265,0-.312.171-.312.39,0,1.182.342,1.2.886,1.2a3.516,3.516,0,0,0,1.666-.343,1.624,1.624,0,0,0,.607-1.463c0-.419-.03-.856-.03-1.276V24.16C243.14,23.678,243.17,23.18,243.17,22.7ZM241.6,25.249a.36.36,0,0,1-.373.373h-1.852a.351.351,0,0,1-.374-.373v-.03a.352.352,0,0,1,.374-.375h1.852a.361.361,0,0,1,.373.375Zm0-1.7a.287.287,0,0,1-.3.3H239.3a.286.286,0,0,1-.3-.3v-.11a.27.27,0,0,1,.3-.3H241.3a.27.27,0,0,1,.3.3Z" transform="translate(-112.552 -20.292)" fill="#7b414d"/>
        <path id="パス_19984" data-name="パス 19984" d="M261.368,30.819c0-.312.015-.623.015-.934,0-.56-.358-.655-.825-.655-.373,0-.747.031-1.121.031h-2.863c-.373,0-.748-.031-1.122-.031-.466,0-.825.109-.825.639,0,.326.015.638.015.95v3.128c0,.389-.031.793-.031,1.183,0,.342.189.359.794.359.623,0,.81,0,.81-.344a.36.36,0,0,0-.015-.124c.015-.2.093-.28.295-.28h2.987c.187,0,.28.078.28.265v.172c0,.341.2.326.825.326s.81,0,.81-.343c0-.4-.03-.793-.03-1.2ZM259.8,32.905a.434.434,0,0,1-.436.435h-2.739c-.279,0-.4-.155-.436-.435V31.13c.031-.264.156-.42.436-.42h2.739a.413.413,0,0,1,.436.42Z" transform="translate(-112.949 -20.461)" fill="#7b414d"/>
        <path id="パス_19985" data-name="パス 19985" d="M252.687,31.149a.536.536,0,0,1-.218-.4.583.583,0,0,1,.047-.233,16.73,16.73,0,0,0,.965-4.529c.016-.25.063-.747.063-.981a.651.651,0,0,0-.747-.716h-1.2c-.2,0-.373-.077-.373-.312V23.88c.047-.358.094-.653.125-.886.108-.9.108-.934.326-1.028a.248.248,0,0,0,.187-.218c0-.125-.125-.172-.234-.2-.187-.031-1.323-.249-1.432-.249-.2,0-.2.218-.233.5-.078.7-.125,1.4-.248,2.1-.047.28-.2.373-.5.389-.249-.016-.514-.03-.763-.03-.373,0-.373.17-.373.793,0,.591,0,.778.358.778.124,0,.374-.015.514-.015.187.015.326.093.326.3v.108c-.311,1.337-.684,2.677-1.1,3.984a2.4,2.4,0,0,0-.11.42c0,.28.857.562,1.107.562.2,0,.294-.125.357-.3.063-.093.124-.187.249-.187a.291.291,0,0,1,.155.062l.374.28a.343.343,0,0,1,.171.281.367.367,0,0,1-.077.217,10.89,10.89,0,0,1-1.805,2.32l-.078.076c-.141.142-.342.312-.342.468,0,.312.778.763,1.058.763.576,0,1.992-2.055,2.287-2.568a.346.346,0,0,1,.281-.187.368.368,0,0,1,.233.108c.108.094.232.233.358.359.3.311.623.653.732.653.3,0,.839-.746.839-1.011S252.92,31.352,252.687,31.149Zm-1.369-1.6a.282.282,0,0,1-.266.218.431.431,0,0,1-.2-.062c-.156-.11-.3-.219-.451-.312a.516.516,0,0,1-.25-.437.663.663,0,0,1,.017-.187c.233-.856.451-1.713.638-2.567a.439.439,0,0,1,.514-.4c.419-.017.653-.031.653.326A12.962,12.962,0,0,1,251.318,29.546Z" transform="translate(-112.798 -20.278)" fill="#7b414d"/>
        <path id="パス_19986" data-name="パス 19986" d="M260.2,23.958c-.093-.155-.2-.312-.4-.312-.141,0-1.043.265-1.043.576a4.491,4.491,0,0,0,.468.87c.094.141.17.28.217.359a.251.251,0,0,1,.047.14c0,.172-.123.233-.264.265-.669.078-1.339.141-2.023.2-.141,0-.28-.047-.28-.217a.309.309,0,0,1,.03-.125c.437-1.136.841-2.272,1.214-3.44.047-.14.14-.155.279-.187.079-.017.188-.031.188-.172s-.234-.248-.4-.311a7.128,7.128,0,0,0-1.339-.359c-.155,0-.187.172-.219.312-.373,1.509-.762,2.816-1.276,4.281a.517.517,0,0,1-.529.4h-.123c-.592,0-.794.016-.794.2a7.569,7.569,0,0,0,.279,1.089c.11.358.172.544.326.544a.284.284,0,0,0,.219-.154c.078-.141.109-.2.233-.233,1.62-.172,3.238-.359,4.841-.562h.11c.248,0,.342.11.466.327.25.608.28.809.56.809.172,0,1.075-.2,1.075-.606a9.628,9.628,0,0,0-.7-1.7A18.394,18.394,0,0,0,260.2,23.958Z" transform="translate(-112.934 -20.277)" fill="#7b414d"/>
      </g>
      <g id="グループ_2443" data-name="グループ 2443" transform="translate(44.202 21.727)">
        <path id="パス_19987" data-name="パス 19987" d="M48.811,31.123c0,.915.048,2.572.048,2.763,0,.331-.095.395-.457.395h-.979c-.363,0-.458-.064-.458-.395,0-.19.048-1.847.048-2.763V25.6c0-.268-.048-.378-.191-.378a.632.632,0,0,0-.252.063c-.474.174-1.011.395-1.421.584a.71.71,0,0,1-.3.094c-.143,0-.205-.109-.284-.347l-.3-.789a.835.835,0,0,1-.064-.3c0-.143.095-.222.363-.3a24.45,24.45,0,0,0,2.462-.931,2.091,2.091,0,0,1,.931-.19h.427c.363,0,.458.064.458.395,0,.236-.032,1.847-.032,2.763Z" transform="translate(-44.202 -21.793)" fill="#7b414d"/>
        <path id="パス_19988" data-name="パス 19988" d="M63.249,30.618c0-.316-.125-.442-.442-.442H58.166a.432.432,0,0,0-.5.41A10.107,10.107,0,0,1,56.3,34.312c-.19.3-.616,1.011-1,1.011-.3,0-1.152-.569-1.152-.948,0-.143.127-.268.221-.379,1.547-1.879,1.785-4.357,1.785-6.693V24.1c0-.505-.032-1.01-.032-1.515,0-.647.3-.821.9-.821.474,0,.948.031,1.42.031h4.184c.473,0,.947-.031,1.42-.031.615,0,.915.158.915.821,0,.505-.031,1.01-.031,1.515V32.15c0,.395.031.788.031,1.184a1.745,1.745,0,0,1-.521,1.531,3.755,3.755,0,0,1-2.3.521c-.317,0-.727-.016-.837-.379a3.916,3.916,0,0,1-.142-.947c0-.236.079-.4.347-.4.236,0,.569.032.837.032.821,0,.9-.19.9-.963Zm-.442-5.384a.45.45,0,0,0,.442-.442V23.8a.45.45,0,0,0-.442-.443H58.293a.451.451,0,0,0-.443.443v.994a.451.451,0,0,0,.443.442Zm-4.53,3.443h4.53c.317,0,.442-.127.442-.443V27.177c0-.3-.125-.427-.442-.427H58.293c-.3,0-.443.126-.443.427v.047c0,.347.017.695,0,1.026C57.867,28.55,57.961,28.677,58.278,28.677Z" transform="translate(-44.432 -21.762)" fill="#7b414d"/>
        <path id="パス_19989" data-name="パス 19989" d="M75.226,32.651c.806,0,2.289-.031,2.4-.031.332,0,.4.094.4.458v.741c0,.362-.064.458-.4.458-.11,0-1.593-.031-2.4-.031H73.174c-.8,0-2.289.031-2.4.031-.332,0-.4-.1-.4-.458v-.284a.744.744,0,0,1,.379-.774c.284-.205.537-.426.8-.662,2.842-2.494,4.483-4.073,4.483-5.62,0-1.026-.709-1.737-2-1.737a3.169,3.169,0,0,0-2.3,1.042c-.142.158-.236.221-.331.221-.079,0-.174-.079-.316-.221l-.632-.679c-.126-.142-.19-.236-.19-.331,0-.11.079-.205.222-.348A5.394,5.394,0,0,1,74.2,22.99c2.4,0,3.742,1.42,3.742,3.237,0,2.225-1.785,4.009-4.2,6.109-.127.11-.174.173-.174.221,0,.064.095.095.283.095Z" transform="translate(-44.803 -21.79)" fill="#7b414d"/>
        <path id="パス_19990" data-name="パス 19990" d="M84.094,27.663a5.166,5.166,0,0,1,2.541-.679,3.263,3.263,0,0,1,3.552,3.378c0,2.478-1.91,4.025-4.357,4.025-2.7,0-4.246-1.8-4.246-4.4a7.289,7.289,0,0,1,1.989-5.242,6.832,6.832,0,0,1,4.436-1.752c.316,0,.378.078.378.442v.821c0,.411-.063.475-.474.522A5.246,5.246,0,0,0,84.6,26.241a3.623,3.623,0,0,0-.915,1.532.057.057,0,0,0,.063.063A.835.835,0,0,0,84.094,27.663Zm-.3,1.672a.872.872,0,0,0-.426.853,2.432,2.432,0,0,0,2.541,2.621,2.3,2.3,0,0,0,2.478-2.3,1.969,1.969,0,0,0-2.194-1.958A4.116,4.116,0,0,0,83.794,29.335Z" transform="translate(-45.065 -21.79)" fill="#7b414d"/>
        <path id="パス_19991" data-name="パス 19991" d="M101.686,34.09H96.871c-.252,0-.363.11-.363.362v.158c0,.443-.157.443-.9.443-.679,0-.9,0-.9-.427,0-.663.046-1.326.046-1.972v-7.94c0-.506-.031-1-.031-1.5,0-.632.253-.822.868-.822.458,0,.915.031,1.39.031h4.608c.458,0,.916-.031,1.375-.031.6,0,.868.158.868.8,0,.505-.031,1.01-.031,1.516v7.908c0,.663.047,1.31.047,1.973,0,.442-.189.426-.9.426s-.9,0-.9-.426a.42.42,0,0,1,.017-.143C102.049,34.2,101.938,34.09,101.686,34.09Zm-.032-6.724a.453.453,0,0,0,.443-.444V24.4a.452.452,0,0,0-.443-.442H96.9a.451.451,0,0,0-.442.442v2.525a.452.452,0,0,0,.442.444Zm-5.192,4.72a.451.451,0,0,0,.442.442h4.751a.452.452,0,0,0,.443-.442V29.307a.451.451,0,0,0-.443-.442H96.9a.45.45,0,0,0-.442.442Z" transform="translate(-45.367 -21.777)" fill="#7b414d"/>
      </g>
    </g>
  </g>
</svg>
