<svg xmlns="http://www.w3.org/2000/svg" width="387.702" height="70.557" viewBox="0 0 387.702 70.557">
  <g id="グループ_1817" data-name="グループ 1817" transform="translate(1 1)">
    <g id="パス_16696" data-name="パス 16696" transform="translate(-103.087 -1055.975)" fill="#fff" stroke-miterlimit="10">
      <path d="M 295.8320007324219 1125.031616210938 C 294.9349060058594 1125.031616210938 294.153564453125 1124.48828125 293.8413696289062 1123.647583007812 L 288.1178588867188 1108.207275390625 L 128.9518585205078 1108.207275390625 C 125.3929061889648 1108.207275390625 121.9401550292969 1107.510131835938 118.6895065307617 1106.135131835938 C 115.5499038696289 1104.80712890625 112.7304077148438 1102.90625 110.3092575073242 1100.484985351562 C 107.888053894043 1098.063720703125 105.9871063232422 1095.244140625 104.6591567993164 1092.1044921875 C 103.2841567993164 1088.853515625 102.5870056152344 1085.400512695312 102.5870056152344 1081.84130859375 C 102.5870056152344 1078.282104492188 103.2841567993164 1074.828979492188 104.6591567993164 1071.578002929688 C 105.9871063232422 1068.438354492188 107.888053894043 1065.61865234375 110.3092575073242 1063.197387695312 C 112.7304077148438 1060.776123046875 115.5499038696289 1058.875122070312 118.689453125 1057.547119140625 C 121.9401550292969 1056.172119140625 125.3929061889648 1055.474975585938 128.9518585205078 1055.474975585938 L 462.9223937988281 1055.474975585938 C 466.4816589355469 1055.474975585938 469.9346618652344 1056.172119140625 473.185546875 1057.547119140625 C 476.3252563476562 1058.875122070312 479.1448974609375 1060.776123046875 481.566162109375 1063.197387695312 C 483.9874572753906 1065.61865234375 485.8884582519531 1068.438354492188 487.2164611816406 1071.578002929688 C 488.5914001464844 1074.828979492188 489.2886047363281 1078.281982421875 489.2886047363281 1081.84130859375 C 489.2886047363281 1085.400512695312 488.5914001464844 1088.853515625 487.2164611816406 1092.1044921875 C 485.8884582519531 1095.244140625 483.9874572753906 1098.063720703125 481.566162109375 1100.484985351562 C 479.1448974609375 1102.90625 476.3252563476562 1104.807250976562 473.1855163574219 1106.135131835938 C 469.9346618652344 1107.510131835938 466.4816589355469 1108.207275390625 462.9223937988281 1108.207275390625 L 303.7533569335938 1108.207275390625 L 297.8119201660156 1123.670288085938 C 297.4949035644531 1124.4970703125 296.7177124023438 1125.031616210938 295.8320007324219 1125.031616210938 Z" stroke="none"/>
      <path d="M 128.9518432617188 1055.974975585938 C 114.6675109863281 1055.974975585938 103.0870056152344 1067.555419921875 103.0870056152344 1081.84130859375 C 103.0870056152344 1096.127075195312 114.6675109863281 1107.707275390625 128.9518432617188 1107.707275390625 L 288.4658203125 1107.707275390625 L 294.3101196289062 1123.473510742188 C 294.8305053710938 1124.875366210938 296.809814453125 1124.887573242188 297.3451538085938 1123.490966796875 L 303.4097900390625 1107.707275390625 L 462.9224243164062 1107.707275390625 C 477.2080688476562 1107.707275390625 488.78857421875 1096.127075195312 488.78857421875 1081.84130859375 C 488.78857421875 1067.555419921875 477.2080688476562 1055.974975585938 462.9224243164062 1055.974975585938 L 128.9518432617188 1055.974975585938 M 128.9518432617188 1054.974975585938 L 462.9224243164062 1054.974975585938 C 466.5488891601562 1054.974975585938 470.0674438476562 1055.685424804688 473.3803100585938 1057.086547851562 C 476.5796508789062 1058.439819335938 479.4526977539062 1060.376831054688 481.9197082519531 1062.84375 C 484.38671875 1065.310791015625 486.3236999511719 1068.183959960938 487.6769104003906 1071.38330078125 C 489.0780944824219 1074.696166992188 489.78857421875 1078.214721679688 489.78857421875 1081.84130859375 C 489.78857421875 1085.467895507812 489.0780944824219 1088.986450195312 487.6769104003906 1092.299194335938 C 486.3236999511719 1095.49853515625 484.38671875 1098.37158203125 481.9197082519531 1100.838500976562 C 479.4526977539062 1103.305541992188 476.57958984375 1105.242553710938 473.3803100585938 1106.595703125 C 470.0674438476562 1107.996826171875 466.5488891601562 1108.707275390625 462.9224243164062 1108.707275390625 L 304.0968322753906 1108.707275390625 L 298.2785949707031 1123.849609375 C 297.8870544433594 1124.87109375 296.9266052246094 1125.531616210938 295.8320007324219 1125.531616210938 C 294.7236938476562 1125.531616210938 293.7583618164062 1124.8603515625 293.3726501464844 1123.821655273438 L 287.77001953125 1108.707275390625 L 128.9518432617188 1108.707275390625 C 125.3256530761719 1108.707275390625 121.8073425292969 1107.996826171875 118.4946899414062 1106.595703125 C 115.2955627441406 1105.242431640625 112.422607421875 1103.305541992188 109.9557189941406 1100.838500976562 C 107.48876953125 1098.37158203125 105.5518188476562 1095.49853515625 104.1986694335938 1092.299194335938 C 102.7974548339844 1088.986328125 102.0870056152344 1085.4677734375 102.0870056152344 1081.84130859375 C 102.0870056152344 1078.214721679688 102.7974548339844 1074.696166992188 104.1986694335938 1071.38330078125 C 105.5518188476562 1068.183959960938 107.48876953125 1065.310913085938 109.9556579589844 1062.84375 C 112.422607421875 1060.376831054688 115.2955017089844 1058.439819335938 118.4946899414062 1057.086547851562 C 121.8073425292969 1055.685424804688 125.3256530761719 1054.974975585938 128.9518432617188 1054.974975585938 Z" stroke="none" fill="#7b414d"/>
    </g>
    <g id="グループ_2444" data-name="グループ 2444" transform="translate(30.146 14.86)">
      <g id="グループ_2442" data-name="グループ 2442" transform="translate(88.416 0)">
        <path id="パス_19965" data-name="パス 19965" d="M287.784,22.487a5.921,5.921,0,0,0-5.663-2.114,6.334,6.334,0,0,0-4,3.25,7.555,7.555,0,0,0-1.665-1.987,4.852,4.852,0,0,0-5.708-.358,5.707,5.707,0,0,0-2.855,5.312,11.01,11.01,0,0,0,3.407,6.605c1.971,1.949,4.978,3.762,5.181,6.839,0,.014.008.022.009.035a.773.773,0,0,0,.055.216.811.811,0,0,0,.054.153l.007.02c.018.03.05.045.072.07a.687.687,0,0,0,.137.137.759.759,0,0,0,.94-.051c2.271-2.14,4.556-4.269,6.814-6.423a15.344,15.344,0,0,0,4.135-5.46A6.178,6.178,0,0,0,287.784,22.487ZM283.925,32.52c-2,1.935-4.038,3.827-6.067,5.729-1.142-3.708-5.325-5.563-7.235-8.868-.922-1.6-1.641-3.735-.458-5.383a3.678,3.678,0,0,1,4.406-1.39,5.115,5.115,0,0,1,2.684,3.756c.055,1.059,1.521.934,1.647-.039.307-2.359,2.282-4.606,4.818-4.181a4.556,4.556,0,0,1,3.784,4.6C287.345,29.066,285.505,30.991,283.925,32.52Z" transform="translate(-53.908 -20.254)" fill="#7b414d"/>
        <path id="パス_19966" data-name="パス 19966" d="M131.033,23.225h-1.507c-.56,0-.666.085-.818.625-.366,1.249-.646,2.154-.968,3.166l-2.091,6.4c-.065.2-.15.281-.215.281-.085,0-.15-.085-.214-.258l-2.37-6.311c-.388-1.056-.754-2-1.184-3.274-.173-.539-.281-.625-.842-.625h-.343c-.56,0-.668.085-.861.6-.431,1.294-.775,2.22-1.186,3.3L116,33.456c-.065.172-.15.257-.215.257-.085,0-.15-.085-.215-.278l-2.047-6.419c-.323-1.013-.6-1.917-.948-3.166-.151-.539-.258-.625-.818-.625H110.1c-.345,0-.5.043-.5.238a.961.961,0,0,0,.088.364c.495,1.337.838,2.328,1.2,3.361l2.608,7.626c.343,1.033.645,1.916.988,3.035.173.539.281.626.842.626h.516c.56,0,.668-.087.861-.6.388-1.119.731-2,1.121-3.016l2.5-6.5c.085-.193.15-.281.235-.281s.173.108.238.281l2.478,6.5c.364.969.71,1.874,1.1,3.016.193.516.3.6.861.6h.539c.558,0,.666-.087.84-.626.343-1.1.645-2,.991-3.015l2.628-7.667c.364-1.036.689-2,1.206-3.341a.973.973,0,0,0,.085-.364C131.53,23.268,131.379,23.225,131.033,23.225Z" transform="translate(-109.603 -19.208)" fill="#7b414d"/>
        <path id="パス_19967" data-name="パス 19967" d="M138.415,36.159c-.15,0-2.089.065-3.122.065h-1.982c-.539,0-.645-.108-.645-.646V32.153c0-.538.105-.646.645-.646h1.076c1.013,0,2.974.043,3.124.043.452,0,.539-.128.539-.625V29.87c0-.495-.088-.625-.539-.625-.15,0-2.112.042-3.124.042h-1.076c-.539,0-.645-.105-.645-.645V26.187c0-.539.105-.646.645-.646h1.529c1.034,0,2.973.065,3.123.065.452,0,.539-.13.539-.625V23.818c0-.5-.088-.625-.539-.625-.15,0-2.089.043-3.123.043h-1.206c-1.013,0-2.713-.043-2.865-.043-.473,0-.6.173-.6.689.022,1.1.042,2.542.042,3.6v6.764c0,1.033-.02,2.39-.042,3.6,0,.516.13.689.6.689.151,0,1.852-.043,2.865-.043h1.659c1.033,0,2.971.043,3.122.043.454,0,.539-.13.539-.625V36.784C138.954,36.289,138.869,36.159,138.415,36.159Z" transform="translate(-102.366 -19.219)" fill="#7b414d"/>
        <path id="パス_19968" data-name="パス 19968" d="M150.129,30.473c-.238-.087-.343-.15-.343-.258,0-.065.105-.15.278-.28a3.707,3.707,0,0,0,1.4-3.253c0-2.627-1.83-3.446-4.93-3.446h-1.66c-1.011,0-2.627-.043-2.865-.043-.473,0-.6.173-.6.689,0,.366.042,2.542.042,3.6v6.764c0,1.206-.042,3.531-.042,3.681,0,.454.15.6.6.6.151,0,1.853-.043,2.865-.043H146.6c3.466,0,5.6-1.464,5.6-4.674A3.278,3.278,0,0,0,150.129,30.473Zm-6.247-4.479c0-.539.108-.646.648-.646h1.981c1.314,0,2.478.365,2.478,1.787,0,1.724-1.141,2.325-2.736,2.325h-1.722c-.539,0-.648-.108-.648-.645Zm2.671,10.423h-2.024c-.539,0-.648-.107-.648-.645v-3.6c0-.538.108-.646.648-.646h2.412c1.659,0,2.713.625,2.713,2.26C149.654,35.578,148.34,36.417,146.553,36.417Z" transform="translate(-98.411 -19.219)" fill="#7b414d"/>
        <path id="パス_19969" data-name="パス 19969" d="M168.668,31.91h3.058c.883,0,1.787.042,2.67.042.539,0,.518-.3.518-1.076,0-.819.022-1.1-.518-1.1-.9,0-1.787.042-2.67.042h-4.675c-.43,0-.6-.172-.6-.6V27.192c0-.429.173-.6.6-.6h3.274c.776,0,1.551.043,2.325.043.519,0,.475-.26.475-1.079,0-.795.045-1.056-.475-1.056-.775,0-1.549.045-2.325.045h-3.274c-.43,0-.6-.173-.6-.6v-.688c0-.689.023-1.014.26-1.209.15-.128.28-.193.28-.322,0-.195-.238-.238-.388-.258-.258-.022-1.9-.15-2.132-.15-.216,0-.388.064-.388.322a.6.6,0,0,0,.022.195,10.124,10.124,0,0,1,.065,1.422v.688c0,.43-.173.6-.6.6h-1.442c-.215-.022-.431-.108-.431-.366a.737.737,0,0,1,.043-.172,3.214,3.214,0,0,1,.13-.345c.151-.431.193-.581.452-.669.128-.042.3-.105.3-.278,0-.238-.237-.3-.9-.5a13.09,13.09,0,0,0-1.4-.343c-.17,0-.215.15-.258.278a18.066,18.066,0,0,1-2.5,5.236,5,5,0,0,0-.667,1.011c0,.408,1.249,1.013,1.657,1.013a.7.7,0,0,0,.539-.366,18.312,18.312,0,0,0,1.226-1.96.828.828,0,0,1,.862-.495h2.39c.431,0,.6.173.6.6v2.025c0,.431-.173.6-.6.6H159c-.906,0-1.789-.042-2.673-.042-.538,0-.516.258-.516,1.1,0,.8-.022,1.076.516,1.076.884,0,1.767-.042,2.673-.042h2.26c.365,0,.473.173.473.538a5.483,5.483,0,0,1-.883,2.885,8.9,8.9,0,0,1-4.675,3.382c-.235.064-.516.108-.516.389,0,.472.841,1.507,1.379,1.507A7.033,7.033,0,0,0,159,39.772a8.875,8.875,0,0,0,4.8-6.612.3.3,0,0,1,.218-.3c.15-.043.322-.13.322-.323,0-.216-.41-.281-1.249-.495-.023,0-.043-.045-.043-.065a.057.057,0,0,1,.065-.065h2.24c.431,0,.6.173.6.6v5.45c0,1.9.622,2.305,2.41,2.305h3.491c1.119,0,1.851-.15,2.3-1.269a10.585,10.585,0,0,0,.687-2.758c0-.539-1.118-.711-1.507-.711-.493,0-.516.26-.581.691-.237,1.678-.408,1.916-1.269,1.916h-2.52c-.754,0-.906-.15-.906-.9V32.512C168.063,32.06,168.236,31.91,168.668,31.91Z" transform="translate(-93.396 -19.881)" fill="#7b414d"/>
        <path id="パス_19970" data-name="パス 19970" d="M175.288,27.475a1.8,1.8,0,0,0,.754-.389,20.909,20.909,0,0,0,4.114-4.048c.238-.281.258-.3.539-.3.13,0,.388-.043.388-.215,0-.2-.258-.366-.388-.431-.065-.043-.173-.108-.323-.193a4.874,4.874,0,0,0-1.228-.648c-.15,0-.238.151-.323.281a19.966,19.966,0,0,1-4.309,4.2c-.173.105-.366.237-.366.472C174.147,26.569,174.945,27.475,175.288,27.475Z" transform="translate(-86.89 -19.903)" fill="#7b414d"/>
        <path id="パス_19971" data-name="パス 19971" d="M182.252,25.754c0-.216-.28-.366-.453-.454-.043-.02-.108-.064-.193-.105a6.085,6.085,0,0,0-1.357-.648.333.333,0,0,0-.28.193,22.778,22.778,0,0,1-5.428,6.054c-.215.151-.473.3-.473.6,0,.408.775,1.4,1.163,1.4.452,0,1.334-.861,1.68-1.184a.32.32,0,0,1,.193-.085c.173,0,.215.15.238.278V36.63c0,.733-.065,1.442-.065,2.155,0,.666.3.645,1.121.645s1.1.022,1.1-.645c0-.712-.064-1.422-.064-2.155V31.7c0-1.077-.022-1.486.237-1.7.15-.13.238-.172.238-.3,0-.261-.323-.261-.5-.281-.108-.022-.173-.065-.173-.15,0-.043.045-.088.065-.108a27.209,27.209,0,0,0,2.068-2.693c.172-.258.193-.345.495-.43C182.015,26.012,182.252,25.948,182.252,25.754Z" transform="translate(-86.917 -18.743)" fill="#7b414d"/>
        <path id="パス_19972" data-name="パス 19972" d="M181.058,24.27c.733,0,1.465-.045,2.2-.045h3.835c.71,0,1.442.045,2.174.045.583,0,.539-.323.539-1.077s.043-1.1-.539-1.1c-.731,0-1.464.066-2.174.066h-3.835c-.731,0-1.464-.066-2.2-.066-.56,0-.538.324-.538,1.1S180.5,24.27,181.058,24.27Z" transform="translate(-84.647 -19.606)" fill="#7b414d"/>
        <path id="パス_19973" data-name="パス 19973" d="M190.971,26.172c-.819,0-1.614.043-2.412.043h-5.838c-.818,0-1.616-.043-2.413-.043-.56,0-.537.281-.537,1.079s-.023,1.076.537,1.076c.8,0,1.6-.043,2.413-.043h2.3c.431,0,.6.172.6.6v6.224c0,1.141.064,1.572-1.186,1.572-.237,0-.537-.022-.775-.042a2.725,2.725,0,0,0-.431-.043c-.345,0-.41.323-.41.6a3.506,3.506,0,0,0,.324,1.422c.195.323.711.3,1.013.3,1.593,0,3.769-.108,3.769-2.2,0-.539-.045-1.056-.045-1.6V28.887c0-.431.173-.6.6-.6h.065c.8,0,1.616.043,2.412.043.538,0,.538-.258.538-1.076S191.509,26.172,190.971,26.172Z" transform="translate(-84.91 -18.171)" fill="#7b414d"/>
        <path id="パス_19974" data-name="パス 19974" d="M210.658,38.713A20.5,20.5,0,0,1,207.9,36a.663.663,0,0,1-.195-.473,1.1,1.1,0,0,1,.13-.453,17.745,17.745,0,0,0,1.939-4.955,9.249,9.249,0,0,0,.237-1.442,1.514,1.514,0,0,0-.452-.968,1.187,1.187,0,0,0-1.1-.476c-.431,0-.863.023-1.271.023h-4.027c-.43,0-.6-.172-.6-.6V24.564c0-.431.173-.6.6-.6H207.6c.863,0,1.745.045,2.608.045.538,0,.495-.218.495-1.056s.043-1.077-.516-1.077c-.861,0-1.724.065-2.586.065h-4.112c-.648,0-1.292-.043-1.939-.043-.818,0-1.141.214-1.141,1.076,0,.648.022,1.294.022,1.939v3.6a23.956,23.956,0,0,1-1.467,9.131.307.307,0,0,1-.258.193.281.281,0,0,1-.258-.172c-.17-.324-.516-1.054-.645-1.4-.085-.235-.15-.516-.431-.516-.215,0-1.464.281-1.464.668a13,13,0,0,0,.689,1.83c.15.343.431,1.077.775,1.077a1.59,1.59,0,0,0,.431-.108.4.4,0,0,1,.15-.042c.151,0,.258.15.345.258a3.129,3.129,0,0,0,1.487.883c.581,0,1.7-3.232,1.872-3.812a27.17,27.17,0,0,0,.906-6.872c0-.13.065-.323.237-.323s.237.216.258.366a15.269,15.269,0,0,0,1.722,5.364.878.878,0,0,1,.13.452.763.763,0,0,1-.195.473,14.5,14.5,0,0,1-2.862,2.521c-.326.215-.712.452-.712.666,0,.3.883,1.357,1.292,1.357.625,0,2.994-2.217,3.468-2.757a.519.519,0,0,1,.366-.195.5.5,0,0,1,.366.215,24.662,24.662,0,0,0,2.347,2.393,1.1,1.1,0,0,0,.689.364,2.194,2.194,0,0,0,1.357-1.334C211.025,38.994,210.875,38.886,210.658,38.713Zm-4.112-5.578a.293.293,0,0,1-.261.172.33.33,0,0,1-.279-.193,10.768,10.768,0,0,1-1.056-3.338c-.043-.387.173-.56.539-.56h1.42c.561,0,.842-.022.842.3A13.855,13.855,0,0,1,206.546,33.135Z" transform="translate(-79.233 -19.685)" fill="#7b414d"/>
        <path id="パス_19975" data-name="パス 19975" d="M193.228,34.489c0,.711.193.991.883.991.366,0,.733-.022,1.121-.022h2.2c.387,0,.753.022,1.141.022.776,0,.883-.388.883-1.077,0-.516-.042-1.033-.042-1.528V24.387c0-.538.042-1.056.042-1.594,0-.668-.15-1.034-.883-1.034-.388,0-.754.043-1.141.043h-2.2c-.388,0-.775-.043-1.164-.043-.689,0-.84.366-.84,1.011,0,.539.022,1.079.022,1.617v8.487C193.25,33.411,193.228,33.95,193.228,34.489Zm2-10.123a.571.571,0,0,1,.6-.581h1.033c.387,0,.56.215.6.581v.754a.6.6,0,0,1-.6.6h-1.033a.614.614,0,0,1-.6-.6Zm0,3.769a.571.571,0,0,1,.6-.581h1.033a.584.584,0,0,1,.6.581v.775a.6.6,0,0,1-.6.6h-1.033a.618.618,0,0,1-.6-.6Zm0,3.834a.6.6,0,0,1,.6-.6h1.033a.587.587,0,0,1,.6.6v.948c-.043.366-.216.583-.6.583h-1.033a.572.572,0,0,1-.6-.583Z" transform="translate(-80.175 -19.724)" fill="#7b414d"/>
        <path id="パス_19976" data-name="パス 19976" d="M195.537,32.477a9.635,9.635,0,0,0-1.141-.346c-.153,0-.195.085-.238.237a14.257,14.257,0,0,1-1.4,3.145,1.651,1.651,0,0,0-.216.5c0,.343,1.269.8,1.6.8.193,0,.3-.173.387-.324a20.785,20.785,0,0,0,1.056-2.347c.065-.15.107-.28.15-.388.173-.452.193-.495.41-.56.13-.043.258-.065.258-.238C196.4,32.735,196.14,32.67,195.537,32.477Z" transform="translate(-80.416 -16.074)" fill="#7b414d"/>
        <path id="パス_19977" data-name="パス 19977" d="M211.912,25.275c.841,0,1.7-.042,2.542-.042h4.459c.41,0,.581.172.581.581v.3c0,.431-.172.6-.581.6h-3.167c-.73,0-1.442-.042-2.152-.042-.453,0-.453.214-.453.968,0,.818,0,1.013.453,1.013.71,0,1.422-.045,2.152-.045h9.781c.71,0,1.442.045,2.152.045.453,0,.431-.238.431-1.013,0-.71.042-.968-.431-.968-.71,0-1.442.042-2.152.042H222.38c-.43,0-.6-.172-.6-.6v-.3c0-.41.173-.581.6-.581H226.9c.84,0,1.679.042,2.542.042.516,0,.495-.214.495-.991s.022-.99-.495-.99c-.863,0-1.7.042-2.542.042H222.38c-.408,0-.581-.15-.6-.56.022-.258,0-.473.215-.646.151-.108.281-.172.281-.322,0-.238-.366-.258-.56-.281-.346-.022-1.637-.15-1.918-.15-.215,0-.387.065-.387.3a.625.625,0,0,0,.02.193,6.382,6.382,0,0,1,.065.9c-.022.41-.195.56-.581.56h-4.459c-.841,0-1.68-.042-2.542-.042-.516,0-.5.215-.5.99S211.4,25.275,211.912,25.275Z" transform="translate(-73.775 -19.858)" fill="#7b414d"/>
        <path id="パス_19978" data-name="パス 19978" d="M226.83,33.3a5.181,5.181,0,0,0-1.248-.278c-.366,0-.366.278-.41.58-.258,1.722-.71,1.81-1.487,1.81h-1.419c-.863,0-1.056-.13-1.056-.971V31.274c0-.431.02-.819.258-1.013.085-.087.215-.151.215-.281,0-.258-.388-.258-.581-.278-.366-.043-1.507-.151-1.83-.151-.193,0-.366.043-.366.28,0,.065.02.13.02.195a11.75,11.75,0,0,1,.065,1.766v2.865c0,.408-.02.8-.02,1.206,0,1.292.818,1.637,1.959,1.637h3.231c.948,0,1.722,0,2.3-.883a6.67,6.67,0,0,0,.883-2.821C227.348,33.514,227.2,33.426,226.83,33.3Z" transform="translate(-71.139 -16.982)" fill="#7b414d"/>
        <path id="パス_19979" data-name="パス 19979" d="M229.475,28.539c0-.712-.581-.885-1.186-.885-.753,0-1.528.045-2.305.045H215.13c-.754,0-1.4-.045-1.918-.045-1.033,0-1.572.13-1.572.885,0,.235.045.689.045,1.163v.838c0,.3-.045.669-.045.927,0,.518.3.495,1.186.495.776,0,1.141.045,1.141-.472,0-.258-.065-.648-.065-.927v-.387c0-.411.193-.584.6-.584h12.1c.411,0,.581.173.581.584v.408c0,.28-.042.733-.042.926,0,.475.323.475,1.163.475.906,0,1.164,0,1.164-.495,0-.326-.045-.626-.045-.927V29.7C229.43,29.228,229.475,28.839,229.475,28.539Z" transform="translate(-73.696 -17.65)" fill="#7b414d"/>
        <path id="パス_19980" data-name="パス 19980" d="M218.909,29.739a16.118,16.118,0,0,0-1.636-.237c-.388,0-.388.193-.411.668a4.256,4.256,0,0,1-.02.475c-.258,2.951-2.218,4.35-4.845,5.253-.238.088-.754.153-.754.476s.625,1.463,1.271,1.463a8.641,8.641,0,0,0,2.971-1.291,7.133,7.133,0,0,0,3.446-5.706.485.485,0,0,1,.216-.389c.15-.087.452-.195.452-.388C219.6,29.825,219.082,29.76,218.909,29.739Z" transform="translate(-73.836 -16.999)" fill="#7b414d"/>
        <path id="パス_19981" data-name="パス 19981" d="M243.8,32.32c0-.645,0-.883-.495-.883-.366,0-1.121.043-1.552.02-.408,0-.537-.193-.537-.58v-.689c0-.408.17-.581.581-.581.278,0,.56.022.838.022.519,0,.476-.3.476-.884,0-.56.043-.883-.476-.883-.625,0-1.249.045-1.874.045h-5.147c-.6,0-1.227-.045-1.852-.045-.518,0-.495.3-.495.883s-.023.884.495.884c.323,0,.646-.022.969-.022.41,0,.56.193.56.581v.689c0,.387-.15.58-.56.58-.516.023-1.206-.02-1.68-.02-.5,0-.5.238-.5.883,0,.581-.02.9.474.9.516,0,1.036-.042,1.552-.042.237.02.43.108.43.366a.624.624,0,0,1-.043.193,4.786,4.786,0,0,1-1.959,2.217c-.173.108-.475.258-.475.476a2.135,2.135,0,0,0,1.357,1.291c.279,0,.625-.323.84-.5a6.4,6.4,0,0,0,2.369-3.511.606.606,0,0,1,.711-.537h.776c.408,0,.6.172.6.6v.6c0,.861-.064,1.724-.064,2.583,0,.625.193.668,1.076.668.821,0,1.056-.02,1.056-.625,0-.883-.042-1.744-.042-2.627v-.6c0-.408.128-.56.537-.6.258,0,1.337.042,1.552.042C243.8,33.224,243.8,32.966,243.8,32.32Zm-4.61-1.442a.58.58,0,0,1-.6.58h-.668c-.388,0-.561-.214-.6-.58v-.689a.6.6,0,0,1,.6-.6h.668c.366,0,.56.238.6.6Z" transform="translate(-66.342 -17.577)" fill="#7b414d"/>
        <path id="パス_19982" data-name="パス 19982" d="M236.958,28.7c.8,0,1.141-.258,1.141-1.076,0-.6-.042-1.206-.042-1.81v-.883c0-.648.042-1.292.042-1.939,0-.861-.343-1.076-1.184-1.076-.538,0-1.054.02-1.593.02h-2.392c-.538,0-1.076-.02-1.636-.02-.819,0-1.141.235-1.141,1.1,0,.668.042,1.337.042,2v11.7c0,1.056-.065,2.112-.065,3.188,0,.666.237.689,1.119.689.906,0,1.121-.023,1.121-.712,0-1.053-.043-2.109-.043-3.165V29.264c0-.431.173-.6.6-.6h2.392C235.86,28.66,236.421,28.7,236.958,28.7Zm-4.63-4.675a.374.374,0,0,1,.41-.408h2.778a.374.374,0,0,1,.41.408v.153a.4.4,0,0,1-.41.408h-2.778a.4.4,0,0,1-.41-.408Zm.518,3.016a.486.486,0,0,1-.518-.516v-.042a.487.487,0,0,1,.518-.519h2.562a.5.5,0,0,1,.518.519v.042a.5.5,0,0,1-.518.516Z" transform="translate(-67.189 -19.668)" fill="#7b414d"/>
        <path id="パス_19983" data-name="パス 19983" d="M245.374,23c0-.861-.365-1.076-1.183-1.076-.539,0-1.056.02-1.6.02h-2.39c-.539,0-1.076-.02-1.636-.02-.8,0-1.142.235-1.142,1.076,0,.646.042,1.291.042,1.939v.883c0,.6-.042,1.206-.042,1.81,0,.84.345,1.076,1.163,1.076.539,0,1.076-.043,1.616-.043h2.39c.431,0,.6.173.6.6v7.948c0,.666.085,1.206-.818,1.206-.195,0-.475-.045-.669-.065h-.279c-.366,0-.431.237-.431.539,0,1.636.473,1.657,1.226,1.657a4.866,4.866,0,0,0,2.3-.475,2.247,2.247,0,0,0,.84-2.025c0-.58-.042-1.184-.042-1.766V25.02C245.333,24.354,245.374,23.664,245.374,23ZM243.2,26.528a.5.5,0,0,1-.516.516h-2.563a.486.486,0,0,1-.518-.516v-.042a.487.487,0,0,1,.518-.519h2.563a.5.5,0,0,1,.516.519Zm0-2.347a.4.4,0,0,1-.41.408h-2.778a.4.4,0,0,1-.41-.408v-.153a.374.374,0,0,1,.41-.408h2.778a.374.374,0,0,1,.41.408Z" transform="translate(-64.621 -19.668)" fill="#7b414d"/>
        <path id="パス_19984" data-name="パス 19984" d="M263.962,31.429c0-.431.02-.863.02-1.292,0-.775-.495-.906-1.141-.906-.516,0-1.034.043-1.551.043h-3.962c-.516,0-1.036-.043-1.552-.043-.645,0-1.141.151-1.141.884,0,.452.02.883.02,1.314v4.329c0,.538-.043,1.1-.043,1.637,0,.473.261.5,1.1.5.863,0,1.121,0,1.121-.476a.5.5,0,0,0-.02-.172c.02-.28.128-.388.408-.388h4.134c.258,0,.388.108.388.366v.238c0,.472.281.452,1.141.452s1.121,0,1.121-.475c0-.56-.042-1.1-.042-1.657Zm-2.177,2.886a.6.6,0,0,1-.6.6h-3.791c-.387,0-.56-.215-.6-.6V31.859c.043-.365.216-.581.6-.581h3.791a.571.571,0,0,1,.6.581Z" transform="translate(-58.574 -17.095)" fill="#7b414d"/>
        <path id="パス_19985" data-name="パス 19985" d="M254.461,34.931a.741.741,0,0,1-.3-.56.806.806,0,0,1,.065-.323,23.155,23.155,0,0,0,1.336-6.267c.022-.346.087-1.034.087-1.357a.9.9,0,0,0-1.034-.991h-1.659c-.278,0-.516-.107-.516-.431v-.13c.065-.495.13-.9.173-1.226.15-1.249.15-1.292.452-1.422a.343.343,0,0,0,.258-.3c0-.173-.173-.238-.323-.28-.258-.043-1.83-.345-1.982-.345-.278,0-.278.3-.323.689-.108.969-.173,1.939-.343,2.908-.065.388-.281.516-.689.538-.345-.022-.711-.042-1.056-.042-.516,0-.516.235-.516,1.1,0,.818,0,1.076.495,1.076.172,0,.518-.02.711-.02.258.02.452.128.452.41v.15c-.43,1.851-.946,3.7-1.528,5.513a3.314,3.314,0,0,0-.153.581c0,.388,1.186.777,1.532.777.278,0,.407-.173.493-.411.087-.128.172-.258.345-.258a.4.4,0,0,1,.215.085l.518.388a.475.475,0,0,1,.237.389.507.507,0,0,1-.107.3,15.069,15.069,0,0,1-2.5,3.211l-.108.105c-.195.2-.473.431-.473.648,0,.431,1.076,1.056,1.464,1.056.8,0,2.757-2.844,3.165-3.554a.478.478,0,0,1,.389-.258.509.509,0,0,1,.323.15c.15.13.322.323.495.5.408.43.862.9,1.013.9.408,0,1.161-1.033,1.161-1.4S254.784,35.211,254.461,34.931Zm-1.894-2.218a.391.391,0,0,1-.368.3.6.6,0,0,1-.279-.085c-.216-.153-.41-.3-.625-.431a.715.715,0,0,1-.346-.6.918.918,0,0,1,.023-.258c.323-1.184.625-2.37.883-3.553a.608.608,0,0,1,.711-.56c.58-.023.9-.043.9.452A17.936,17.936,0,0,1,252.567,32.712Z" transform="translate(-60.878 -19.887)" fill="#7b414d"/>
        <path id="パス_19986" data-name="パス 19986" d="M262.6,25c-.128-.215-.279-.431-.56-.431-.195,0-1.444.366-1.444.8a6.216,6.216,0,0,0,.648,1.2c.13.195.235.388.3.5a.348.348,0,0,1,.065.193c0,.238-.17.323-.365.366-.926.108-1.853.195-2.8.28-.195,0-.388-.065-.388-.3a.428.428,0,0,1,.042-.173c.6-1.572,1.164-3.145,1.68-4.76.065-.193.193-.215.387-.258.11-.023.26-.043.26-.238,0-.214-.323-.343-.558-.43a9.863,9.863,0,0,0-1.853-.5c-.215,0-.258.238-.3.431-.516,2.089-1.054,3.9-1.766,5.924a.716.716,0,0,1-.733.56h-.17c-.819,0-1.1.022-1.1.28a10.482,10.482,0,0,0,.387,1.507c.153.495.238.753.452.753a.393.393,0,0,0,.3-.214c.108-.195.151-.281.322-.323,2.241-.238,4.482-.5,6.7-.777h.153c.343,0,.473.153.645.453.346.841.388,1.119.775,1.119.238,0,1.487-.278,1.487-.838a13.322,13.322,0,0,0-.968-2.35A25.467,25.467,0,0,0,262.6,25Z" transform="translate(-58.809 -19.903)" fill="#7b414d"/>
      </g>
      <g id="グループ_2443" data-name="グループ 2443" transform="translate(0 2.039)">
        <path id="パス_19987" data-name="パス 19987" d="M50.58,34.2c0,1.267.066,3.56.066,3.823,0,.458-.131.546-.633.546H48.659c-.5,0-.634-.088-.634-.546,0-.264.066-2.556.066-3.823V26.554c0-.37-.066-.523-.264-.523a.875.875,0,0,0-.349.087c-.656.241-1.4.546-1.967.808a.982.982,0,0,1-.414.13c-.2,0-.284-.151-.393-.48l-.415-1.092a1.156,1.156,0,0,1-.088-.414c0-.2.131-.307.5-.416a33.837,33.837,0,0,0,3.407-1.288A2.894,2.894,0,0,1,49.4,23.1h.591c.5,0,.634.088.634.546,0,.327-.045,2.556-.045,3.823Z" transform="translate(-44.202 -21.29)" fill="#7b414d"/>
        <path id="パス_19988" data-name="パス 19988" d="M66.739,34.017c0-.437-.173-.611-.611-.611H59.705a.6.6,0,0,0-.7.568,13.987,13.987,0,0,1-1.879,5.155c-.262.415-.853,1.4-1.378,1.4-.414,0-1.594-.787-1.594-1.311,0-.2.176-.37.306-.525,2.141-2.6,2.47-6.029,2.47-9.262V24.994c0-.7-.045-1.4-.045-2.1,0-.895.415-1.136,1.245-1.136.656,0,1.311.043,1.966.043h5.79c.654,0,1.31-.043,1.966-.043.852,0,1.267.219,1.267,1.136,0,.7-.043,1.4-.043,2.1V36.137c0,.546.043,1.091.043,1.639a2.415,2.415,0,0,1-.721,2.118,5.2,5.2,0,0,1-3.189.721c-.438,0-1.006-.022-1.159-.525a5.419,5.419,0,0,1-.2-1.31c0-.327.11-.548.48-.548.327,0,.787.045,1.159.045,1.136,0,1.244-.262,1.244-1.333Zm-.611-7.45a.623.623,0,0,0,.611-.611V24.581a.623.623,0,0,0-.611-.612H59.881a.624.624,0,0,0-.612.612v1.375a.624.624,0,0,0,.612.611Zm-6.269,4.764h6.269c.438,0,.611-.176.611-.612V29.256c0-.416-.173-.591-.611-.591H59.881c-.415,0-.612.174-.612.591v.065c0,.48.023.961,0,1.419C59.292,31.155,59.421,31.331,59.859,31.331Z" transform="translate(-40.699 -21.762)" fill="#7b414d"/>
        <path id="パス_19989" data-name="パス 19989" d="M77.129,36.359c1.115,0,3.168-.043,3.32-.043.46,0,.548.13.548.634v1.026c0,.5-.088.634-.548.634-.153,0-2.2-.043-3.32-.043H74.29c-1.114,0-3.168.043-3.32.043-.46,0-.548-.132-.548-.634v-.393a1.029,1.029,0,0,1,.525-1.071c.393-.284.744-.589,1.114-.917,3.933-3.451,6.2-5.636,6.2-7.778,0-1.42-.981-2.4-2.774-2.4A4.386,4.386,0,0,0,72.3,26.856c-.2.219-.327.306-.458.306-.11,0-.241-.11-.437-.306l-.875-.94c-.174-.2-.262-.327-.262-.458,0-.153.11-.284.307-.481a7.464,7.464,0,0,1,5.133-1.987c3.322,0,5.178,1.966,5.178,4.479,0,3.08-2.47,5.548-5.81,8.453-.176.153-.241.239-.241.306,0,.088.131.131.392.131Z" transform="translate(-35.029 -21.33)" fill="#7b414d"/>
        <path id="パス_19990" data-name="パス 19990" d="M85.057,29.456a7.149,7.149,0,0,1,3.516-.94c2.579,0,4.916,1.486,4.916,4.675,0,3.43-2.643,5.57-6.03,5.57-3.734,0-5.875-2.489-5.875-6.093a10.087,10.087,0,0,1,2.752-7.254,9.454,9.454,0,0,1,6.139-2.424c.437,0,.523.108.523.611v1.136c0,.569-.087.657-.656.722a7.26,7.26,0,0,0-4.587,2.031,5.014,5.014,0,0,0-1.267,2.12.079.079,0,0,0,.087.087A1.155,1.155,0,0,0,85.057,29.456Zm-.415,2.314a1.207,1.207,0,0,0-.589,1.18,3.366,3.366,0,0,0,3.516,3.627A3.19,3.19,0,0,0,91,33.389a2.725,2.725,0,0,0-3.036-2.709A5.7,5.7,0,0,0,84.642,31.771Z" transform="translate(-31.047 -21.33)" fill="#7b414d"/>
        <path id="パス_19991" data-name="パス 19991" d="M104.364,38.58H97.7c-.349,0-.5.153-.5.5V39.3c0,.612-.218.612-1.245.612-.94,0-1.244,0-1.244-.591,0-.918.064-1.835.064-2.729V25.6c0-.7-.043-1.378-.043-2.075,0-.875.35-1.137,1.2-1.137.634,0,1.267.043,1.924.043h6.377c.634,0,1.268-.043,1.9-.043.83,0,1.2.219,1.2,1.114,0,.7-.043,1.4-.043,2.1V36.548c0,.918.065,1.813.065,2.731,0,.611-.261.589-1.245.589s-1.245,0-1.245-.589a.581.581,0,0,1,.023-.2C104.866,38.732,104.713,38.58,104.364,38.58Zm-.045-9.305a.626.626,0,0,0,.612-.614V25.166a.625.625,0,0,0-.612-.611H97.745a.624.624,0,0,0-.611.611v3.495a.625.625,0,0,0,.611.614Zm-7.185,6.531a.625.625,0,0,0,.611.611h6.574a.626.626,0,0,0,.612-.611V31.961a.624.624,0,0,0-.612-.611H97.745a.623.623,0,0,0-.611.611Z" transform="translate(-26.428 -21.54)" fill="#7b414d"/>
      </g>
    </g>
  </g>
</svg>
