<svg xmlns="http://www.w3.org/2000/svg" width="91.331" height="763.655" viewBox="0 0 91.331 763.655">
  <g id="グループ_2308" data-name="グループ 2308" transform="translate(-1579.385 -2602.637)">
    <path id="パス_7776" data-name="パス 7776" d="M1656.839,3274.445c.623-9.135,1.869-14.429,12.249-15.363-10.173-1.245-11.9-5.328-12.252-15.571-.412,11.592-3.215,14.741-13.076,15.467C1654.659,3258.978,1656.424,3265.414,1656.839,3274.445Z" transform="translate(1)" fill="none" stroke="#fff" stroke-linejoin="round" stroke-width="1.257"/>
    <path id="パス_7780" data-name="パス 7780" d="M1603.167,3365.619c1.147-16.837,3.443-26.595,22.576-28.317-18.75-2.3-21.939-9.821-22.583-28.7-.759,21.365-5.925,27.169-24.1,28.508C1599.149,3337.111,1602.4,3348.973,1603.167,3365.619Z" transform="translate(1)" fill="none" stroke="#fff" stroke-linejoin="round" stroke-width="1.347"/>
    <path id="パス_7781" data-name="パス 7781" d="M1624.978,2660.327c-1.148-16.837-3.444-26.595-22.577-28.317,18.75-2.3,21.939-9.821,22.584-28.7.758,21.365,5.924,27.169,24.1,28.508C1629,2631.819,1625.743,2643.681,1624.978,2660.327Z" transform="translate(1)" fill="none" stroke="#fff" stroke-linejoin="round" stroke-width="1.347"/>
  </g>
</svg>
