<svg xmlns="http://www.w3.org/2000/svg" width="76.583" height="62.201" viewBox="0 0 76.583 62.201">
  <path id="Icon_awesome-twitter" data-name="Icon awesome-twitter" d="M68.711,18.882c.049.68.049,1.361.049,2.041,0,20.75-15.793,44.658-44.658,44.658A44.354,44.354,0,0,1,0,58.535a32.47,32.47,0,0,0,3.79.194,31.434,31.434,0,0,0,19.486-6.706A15.723,15.723,0,0,1,8.6,41.138a19.793,19.793,0,0,0,2.964.243,16.6,16.6,0,0,0,4.13-.534A15.7,15.7,0,0,1,3.11,25.442v-.194A15.807,15.807,0,0,0,10.2,27.24,15.719,15.719,0,0,1,5.345,6.248,44.614,44.614,0,0,0,37.708,22.673a17.719,17.719,0,0,1-.389-3.6A15.711,15.711,0,0,1,64.484,8.337a30.9,30.9,0,0,0,9.962-3.79,15.653,15.653,0,0,1-6.9,8.65,31.465,31.465,0,0,0,9.038-2.43,33.74,33.74,0,0,1-7.872,8.115Z" transform="translate(0 -3.381)" fill="#c9a1ad"/>
</svg>
