<svg xmlns="http://www.w3.org/2000/svg" width="69.005" height="48.52" viewBox="0 0 69.005 48.52">
  <path id="Icon_awesome-youtube" data-name="Icon awesome-youtube" d="M68.613,12.092a8.671,8.671,0,0,0-6.1-6.14C57.131,4.5,35.553,4.5,35.553,4.5s-21.578,0-26.96,1.451a8.671,8.671,0,0,0-6.1,6.14C1.05,17.508,1.05,28.809,1.05,28.809s0,11.3,1.442,16.717a8.541,8.541,0,0,0,6.1,6.042c5.381,1.451,26.96,1.451,26.96,1.451s21.578,0,26.96-1.451a8.541,8.541,0,0,0,6.1-6.042c1.442-5.416,1.442-16.717,1.442-16.717s0-11.3-1.442-16.717ZM28.5,39.069V18.548L46.53,28.809,28.5,39.069Z" transform="translate(-1.05 -4.5)" fill="#c9a1ad"/>
</svg>
