<svg xmlns="http://www.w3.org/2000/svg" width="89.577" height="851.83" viewBox="0 0 89.577 851.83">
  <g id="グループ_2307" data-name="グループ 2307" transform="translate(-216.391 -2554.007)">
    <path id="パス_7777" data-name="パス 7777" d="M229.186,2677.893c-.667-9.786-2-15.458-13.122-16.458,10.9-1.335,12.751-5.709,13.126-16.681.441,12.418,3.443,15.791,14.007,16.57C231.521,2661.324,229.631,2668.218,229.186,2677.893Z" transform="translate(1)" fill="none" stroke="#fff" stroke-linejoin="round" stroke-width="1.347"/>
    <path id="パス_7778" data-name="パス 7778" d="M270.373,3405.163c-.667-9.786-2-15.458-13.122-16.458,10.9-1.335,12.751-5.709,13.126-16.681.441,12.418,3.443,15.791,14.007,16.57C272.708,3388.594,270.818,3395.488,270.373,3405.163Z" transform="translate(1)" fill="none" stroke="#fff" stroke-linejoin="round" stroke-width="1.347"/>
    <path id="パス_7779" data-name="パス 7779" d="M283.731,2603.311c-.979-14.361-2.937-22.683-19.256-24.152,15.993-1.958,18.712-8.377,19.263-24.479.646,18.223,5.052,23.173,20.556,24.316C287.158,2579,284.384,2589.114,283.731,2603.311Z" transform="translate(1)" fill="none" stroke="#fff" stroke-linejoin="round" stroke-width="1.347"/>
  </g>
</svg>
