<svg xmlns="http://www.w3.org/2000/svg" width="44.34" height="402.957" viewBox="0 0 44.34 402.957">
  <g id="グループ_873" data-name="グループ 873" transform="translate(0.58 -2793.737)">
    <g id="グループ_872" data-name="グループ 872">
      <path id="パス_7782" data-name="パス 7782" d="M39.74,2816.447q-3.542,3.99-9.9,3.99a16.1,16.1,0,0,1-6.84-1.47,11.746,11.746,0,0,1-5.16-4.74,15.7,15.7,0,0,1-1.98-8.25v-6.42H-.1v-5.82H43.28v11.64Q43.28,2812.455,39.74,2816.447Zm-16.92-5.4a7.615,7.615,0,0,0,3.21,2.79,9.049,9.049,0,0,0,3.69.84,8.4,8.4,0,0,0,5.55-2.04q2.43-2.04,2.43-6.36v-6.72H21.5v6.42A8.874,8.874,0,0,0,22.82,2811.047Z" fill="#c9a1ad"/>
      <path id="パス_7783" data-name="パス 7783" d="M-.1,2864.117l16.02-10.2a12.417,12.417,0,0,1-.06-1.44v-6.42H-.1v-5.82H43.28v11.58a19.171,19.171,0,0,1-1.56,7.92,12.448,12.448,0,0,1-4.59,5.46,13.034,13.034,0,0,1-7.29,1.98,15.6,15.6,0,0,1-7.38-1.77,11.518,11.518,0,0,1-5.1-5.43L-.1,2870.9Zm24.06-5.011a8.507,8.507,0,0,0,5.64,2.07,8.842,8.842,0,0,0,3.78-.87,7.425,7.425,0,0,0,3.09-2.76,8.588,8.588,0,0,0,1.23-4.77v-6.72H21.5v6.3Q21.5,2857.036,23.96,2859.106Z" fill="#c9a1ad"/>
      <path id="パス_7784" data-name="パス 7784" d="M32.6,2890.936a22.77,22.77,0,0,1,8.13,8.07,21.682,21.682,0,0,1,0,22.11,22.959,22.959,0,0,1-8.13,8.129,21.237,21.237,0,0,1-11.04,3.031,21.512,21.512,0,0,1-11.1-3,22.165,22.165,0,0,1-8.07-8.13,22.061,22.061,0,0,1,19.17-33.21A21.386,21.386,0,0,1,32.6,2890.936Zm-19.32,5.16a16.176,16.176,0,0,0-6,5.91,15.781,15.781,0,0,0-2.22,8.19,15.618,15.618,0,0,0,2.19,8.129,15.819,15.819,0,0,0,6,5.821,16.756,16.756,0,0,0,8.31,2.13,16.741,16.741,0,0,0,8.34-2.16,16.162,16.162,0,0,0,6.06-5.88,15.646,15.646,0,0,0,2.22-8.161,15.471,15.471,0,0,0-2.25-8.16,16.14,16.14,0,0,0-6.09-5.849,16.9,16.9,0,0,0-8.34-2.13A16.283,16.283,0,0,0,13.28,2896.1Z" fill="#c9a1ad"/>
      <path id="パス_7785" data-name="パス 7785" d="M43.28,2952.855v11.88q0,8.1-3.21,13.41a19.452,19.452,0,0,1-8.28,7.74,24.482,24.482,0,0,1-10.71,2.43,20.983,20.983,0,0,1-11.13-2.94,20.068,20.068,0,0,1-7.44-7.86,22.438,22.438,0,0,1-2.61-10.68v-13.98ZM5.54,2965.7a18.925,18.925,0,0,0,1.89,8.58,13.992,13.992,0,0,0,5.49,5.91,16.557,16.557,0,0,0,8.58,2.13,16.577,16.577,0,0,0,8.76-2.22,14.6,14.6,0,0,0,5.55-5.91,17.188,17.188,0,0,0,1.89-7.95v-7.56H5.54Z" fill="#c9a1ad"/>
      <path id="パス_7786" data-name="パス 7786" d="M10.07,3015.555a10.12,10.12,0,0,0-3.66,3.75,10.42,10.42,0,0,0-1.35,5.25,11.192,11.192,0,0,0,1.32,5.43,9.721,9.721,0,0,0,3.66,3.81,10.091,10.091,0,0,0,5.22,1.38H43.28v5.7H15.08a15.5,15.5,0,0,1-8.19-2.159,14.738,14.738,0,0,1-5.52-5.88,18.427,18.427,0,0,1,0-16.5,14.517,14.517,0,0,1,5.52-5.85,15.671,15.671,0,0,1,8.19-2.13h28.2v5.82H15.26A9.913,9.913,0,0,0,10.07,3015.555Z" fill="#c9a1ad"/>
      <path id="パス_7787" data-name="パス 7787" d="M.59,3090.164a20.256,20.256,0,0,1-1.17-6.989,22.948,22.948,0,0,1,2.94-11.73,20.3,20.3,0,0,1,7.92-7.8,22.453,22.453,0,0,1,10.98-2.731,23.974,23.974,0,0,1,11.55,2.761,20.412,20.412,0,0,1,8.04,7.65,21.227,21.227,0,0,1,2.91,11.07,23.6,23.6,0,0,1-.96,6.84,23.914,23.914,0,0,1-2.52,5.7l-5.46-2.34a17.791,17.791,0,0,0,3.36-10.02,14.45,14.45,0,0,0-2.22-7.771,16.36,16.36,0,0,0-6.03-5.7,16.857,16.857,0,0,0-8.37-2.13,18.165,18.165,0,0,0-8.46,1.95,14.311,14.311,0,0,0-5.91,5.579,17.354,17.354,0,0,0,1.17,18.511l-5.22,2.46A25.822,25.822,0,0,1,.59,3090.164Z" fill="#c9a1ad"/>
      <path id="パス_7788" data-name="パス 7788" d="M43.28,3144.253H37.7v-22.379H24.5v19.98H18.92v-19.98H5.54v23.22H-.1v-29.04H43.28Z" fill="#c9a1ad"/>
      <path id="パス_7789" data-name="パス 7789" d="M-.1,3189.913l16.02-10.2a12.442,12.442,0,0,1-.06-1.44v-6.42H-.1v-5.821H43.28v11.581a19.165,19.165,0,0,1-1.56,7.919,12.44,12.44,0,0,1-4.59,5.46,13.026,13.026,0,0,1-7.29,1.981,15.588,15.588,0,0,1-7.38-1.771,11.511,11.511,0,0,1-5.1-5.429L-.1,3196.694Zm24.06-5.009a8.513,8.513,0,0,0,5.64,2.07,8.856,8.856,0,0,0,3.78-.87,7.427,7.427,0,0,0,3.09-2.76,8.593,8.593,0,0,0,1.23-4.77v-6.72H21.5v6.3Q21.5,3182.834,23.96,3184.9Z" fill="#c9a1ad"/>
    </g>
  </g>
</svg>
