<svg xmlns="http://www.w3.org/2000/svg" width="55.936" height="64.379" viewBox="0 0 55.936 64.379">
  <path id="tiktok_logo_icon_144802" d="M31.486.054C35,0,38.488.032,41.975,0a16.709,16.709,0,0,0,4.694,11.193c3,2.976,7.243,4.338,11.372,4.8v10.8a28.5,28.5,0,0,1-11.267-2.6A32.6,32.6,0,0,1,42.425,21.7c-.018,7.839.032,15.667-.05,23.474a20.421,20.421,0,0,1-3.628,10.573,19.973,19.973,0,0,1-15.854,8.6A19.52,19.52,0,0,1,11.954,61.6,20.215,20.215,0,0,1,2.168,46.276c-.064-1.342-.087-2.682-.032-3.992A20.215,20.215,0,0,1,25.555,24.353c.054,3.974-.1,7.943-.1,11.917a9.229,9.229,0,0,0-11.758,5.69,10.663,10.663,0,0,0-.364,4.316c.638,4.4,4.871,8.1,9.39,7.7a9.045,9.045,0,0,0,7.428-4.316,6.326,6.326,0,0,0,1.1-2.851c.264-4.8.159-9.577.191-14.376.022-10.814-.032-21.6.05-32.379Z" transform="translate(-2.105)" fill="#c9a1ad"/>
</svg>
