<svg xmlns="http://www.w3.org/2000/svg" width="67.048" height="67.033" viewBox="0 0 67.048 67.033">
  <path id="Icon_awesome-instagram" data-name="Icon awesome-instagram" d="M33.526,18.568A17.187,17.187,0,1,0,50.713,35.755,17.159,17.159,0,0,0,33.526,18.568Zm0,28.36A11.174,11.174,0,1,1,44.7,35.755,11.194,11.194,0,0,1,33.526,46.928Zm21.9-29.063a4.009,4.009,0,1,1-4.009-4.009A4,4,0,0,1,55.424,17.865Zm11.383,4.069c-.254-5.37-1.481-10.127-5.415-14.045S52.717,2.743,47.347,2.473c-5.534-.314-22.122-.314-27.657,0-5.355.254-10.111,1.481-14.045,5.4S.5,16.549.23,21.919c-.314,5.534-.314,22.123,0,27.657C.485,54.946,1.711,59.7,5.645,63.621s8.675,5.146,14.045,5.415c5.534.314,22.122.314,27.657,0,5.37-.254,10.126-1.481,14.045-5.415s5.145-8.676,5.415-14.045c.314-5.534.314-22.108,0-27.642Zm-7.15,33.581a11.312,11.312,0,0,1-6.372,6.372c-4.413,1.75-14.883,1.346-19.759,1.346s-15.362.389-19.759-1.346A11.312,11.312,0,0,1,7.4,55.514C5.645,51.1,6.049,40.631,6.049,35.755S5.66,20.393,7.4,16a11.312,11.312,0,0,1,6.372-6.372C18.18,7.873,28.65,8.277,33.526,8.277s15.362-.389,19.759,1.346A11.312,11.312,0,0,1,59.657,16C61.407,20.408,61,30.878,61,35.755S61.407,51.116,59.657,55.514Z" transform="translate(0.005 -2.238)" fill="#c9a1ad"/>
</svg>
