<?xml version="1.0" encoding="UTF-8"?>
<svg id="_レイヤー_2" data-name="レイヤー 2" xmlns="http://www.w3.org/2000/svg" viewBox="0 0 287.3 52.71">
  <defs>
    <style>
      .cls-1 {
        fill: #fff;
      }

      .cls-2 {
        fill: #7b414d;
      }
    </style>
  </defs>
  <g id="_レイヤー_1-2" data-name="レイヤー 1">
    <g id="_グループ_2445" data-name="グループ 2445">
      <g id="_パス_16696" data-name="パス 16696">
        <path class="cls-1" d="m143.57,52.21c-.72,0-1.34-.44-1.59-1.11l-4.2-11.34H20.13c-2.65,0-5.22-.52-7.64-1.54-2.34-.99-4.44-2.4-6.24-4.21-1.8-1.8-3.22-3.9-4.21-6.24-1.02-2.42-1.54-4.99-1.54-7.64s.52-5.22,1.54-7.64c.99-2.34,2.4-4.44,4.21-6.24,1.8-1.8,3.9-3.22,6.24-4.21,2.42-1.02,4.99-1.54,7.64-1.54h247.03c2.65,0,5.22.52,7.64,1.54,2.34.99,4.44,2.4,6.24,4.21,1.8,1.8,3.22,3.9,4.21,6.24,1.02,2.42,1.54,4.99,1.54,7.64s-.52,5.22-1.54,7.64c-.99,2.34-2.4,4.44-4.21,6.24-1.8,1.8-3.9,3.22-6.24,4.21-2.42,1.02-4.99,1.54-7.64,1.54h-117.65l-4.36,11.35c-.25.66-.88,1.09-1.59,1.09Z"/>
        <path class="cls-2" d="m20.13,1C9.57,1,1,9.57,1,20.13s8.57,19.13,19.13,19.13h117.99l4.32,11.66c.39,1.04,1.85,1.05,2.24.01l4.49-11.68h117.99c10.57,0,19.13-8.57,19.13-19.13s-8.57-19.13-19.13-19.13H20.13m0-1h247.04c2.72,0,5.35.53,7.84,1.58,2.4,1.01,4.55,2.47,6.4,4.31,1.85,1.85,3.3,4,4.31,6.4,1.05,2.48,1.58,5.12,1.58,7.84s-.53,5.35-1.58,7.84c-1.01,2.4-2.47,4.55-4.31,6.4-1.85,1.85-4,3.3-6.4,4.31-2.48,1.05-5.12,1.58-7.84,1.58h-117.3l-4.24,11.03c-.33.86-1.13,1.41-2.05,1.41s-1.74-.56-2.06-1.43l-4.08-11.01H20.13c-2.72,0-5.35-.53-7.84-1.58-2.4-1.01-4.55-2.47-6.4-4.31s-3.3-4-4.31-6.4c-1.05-2.48-1.58-5.12-1.58-7.84s.53-5.35,1.58-7.84c1.01-2.4,2.47-4.55,4.31-6.4s4-3.3,6.4-4.31c2.48-1.05,5.12-1.58,7.84-1.58Z"/>
      </g>
    </g>
    <g>
      <path class="cls-2" d="m252.82,26.13c-.23-3.47-3.9-4.83-5.46-7.53-.67-1.16-1.19-2.71-.33-3.91.7-.98,2.06-1.55,3.2-1.01.92.44,1.89,1.67,1.95,2.73.04.77,1.1.68,1.2-.03.22-1.71,1.66-3.34,3.5-3.04,1.57.26,2.86,1.74,2.75,3.34-.11,1.68-1.45,3.08-2.6,4.19-1.69,1.63-3.42,3.22-5.12,4.83-.25.23-.39.61-.19.93.17.28.59.34.83.11,1.65-1.55,3.31-3.1,4.95-4.66,1.19-1.13,2.42-2.39,3-3.96.58-1.55.42-3.24-.67-4.53-.98-1.17-2.59-1.88-4.11-1.53-1.88.43-3.28,2.32-3.52,4.18l1.2-.03c-.06-1.21-.88-2.48-1.79-3.23-1.21-1-2.81-1.06-4.14-.26-1.34.8-2.21,2.28-2.07,3.86.16,1.82,1.19,3.53,2.47,4.8,1.43,1.41,3.61,2.73,3.76,4.96.06.88,1.26.59,1.21-.2h0Z"/>
      <g>
        <path class="cls-2" d="m96.01,23.33c-.28.74-.53,1.38-.81,2.19-.14.37-.22.44-.63.44h-.37c-.41,0-.49-.06-.61-.45-.25-.81-.47-1.45-.72-2.2l-1.89-5.54c-.27-.75-.52-1.47-.88-2.44-.05-.11-.06-.2-.06-.26,0-.14.11-.17.36-.17h1.2c.41,0,.48.06.59.45.25.91.45,1.56.69,2.3l1.49,4.66c.05.14.09.2.16.2.05,0,.11-.06.16-.19l1.77-4.6c.3-.78.55-1.45.86-2.39.14-.37.22-.44.63-.44h.25c.41,0,.49.06.61.45.31.92.58,1.61.86,2.38l1.72,4.58c.05.13.09.19.16.19.05,0,.11-.06.16-.2l1.52-4.64c.23-.73.44-1.39.7-2.3.11-.39.19-.45.59-.45h1.09c.25,0,.36.03.36.17,0,.06-.02.16-.06.26-.37.97-.61,1.67-.88,2.42l-1.91,5.57c-.25.73-.47,1.39-.72,2.19-.13.39-.2.45-.61.45h-.39c-.41,0-.49-.06-.63-.44-.28-.83-.53-1.49-.8-2.19l-1.8-4.72c-.05-.13-.11-.2-.17-.2s-.11.06-.17.2l-1.81,4.72Z"/>
        <path class="cls-2" d="m113.94,24.31c.75,0,2.16-.05,2.27-.05.33,0,.39.09.39.45v.81c0,.36-.06.45-.39.45-.11,0-1.52-.03-2.27-.03h-1.2c-.73,0-1.97.03-2.08.03-.34,0-.44-.13-.44-.5.02-.88.03-1.86.03-2.61v-4.91c0-.77-.02-1.81-.03-2.61,0-.37.09-.5.44-.5.11,0,1.35.03,2.08.03h.88c.75,0,2.16-.03,2.27-.03.33,0,.39.09.39.45v.84c0,.36-.06.45-.39.45-.11,0-1.52-.05-2.27-.05h-1.11c-.39,0-.47.08-.47.47v1.78c0,.39.08.47.47.47h.78c.73,0,2.16-.03,2.27-.03.33,0,.39.09.39.45v.77c0,.36-.06.45-.39.45-.11,0-1.53-.03-2.27-.03h-.78c-.39,0-.47.08-.47.47v2.49c0,.39.08.47.47.47h1.44Z"/>
        <path class="cls-2" d="m123.77,25.95c-.73,0-1.97.03-2.08.03-.33,0-.44-.11-.44-.44,0-.11.03-1.8.03-2.67v-4.91c0-.77-.03-2.35-.03-2.61,0-.37.09-.5.44-.5.17,0,1.35.03,2.08.03h1.2c2.25,0,3.58.59,3.58,2.5,0,.91-.2,1.77-1.02,2.36-.13.09-.2.16-.2.2,0,.08.08.13.25.19.91.36,1.5,1.14,1.5,2.42,0,2.33-1.55,3.39-4.06,3.39h-1.25Zm-.72-7.02c0,.39.08.47.47.47h1.25c1.16,0,1.99-.44,1.99-1.69,0-1.03-.84-1.3-1.8-1.3h-1.44c-.39,0-.47.08-.47.47v2.05Zm0,5.05c0,.39.08.47.47.47h1.47c1.3,0,2.25-.61,2.25-1.91,0-1.19-.77-1.64-1.97-1.64h-1.75c-.39,0-.47.08-.47.47v2.61Z"/>
        <path class="cls-2" d="m142.71,21.14c0-.31-.13-.44-.44-.44h-1.63s-.05.02-.05.05c0,.02.02.05.03.05.61.16.91.2.91.36,0,.14-.13.2-.23.23-.11.05-.14.09-.16.22-.27,2.16-1.64,3.75-3.49,4.8-.3.17-1.13.61-1.42.61-.39,0-1-.75-1-1.09,0-.2.2-.24.37-.28,1.3-.37,2.64-1.33,3.39-2.45.47-.7.56-1.27.64-2.1,0-.26-.08-.39-.34-.39h-1.64c-.66,0-1.3.03-1.94.03-.39,0-.37-.2-.37-.78,0-.61-.02-.8.37-.8.64,0,1.28.03,1.94.03h3.31c.31,0,.44-.12.44-.44v-1.47c0-.31-.13-.44-.44-.44h-1.74c-.31,0-.47.08-.63.36-.25.45-.58,1-.89,1.42-.09.13-.2.27-.39.27-.3,0-1.2-.44-1.2-.73,0-.11.39-.61.48-.73.77-1.02,1.45-2.58,1.81-3.8.03-.09.06-.2.19-.2.14,0,.84.2,1.02.25.48.14.66.19.66.36,0,.13-.13.17-.22.2-.19.06-.22.17-.33.49-.03.06-.06.16-.09.25-.02.05-.03.09-.03.12,0,.19.16.25.31.27h1.05c.31,0,.44-.13.44-.44v-.5c0-.34,0-.72-.05-1.03-.02-.05-.02-.09-.02-.14,0-.19.12-.23.28-.23.17,0,1.36.09,1.55.11.11.02.28.05.28.19,0,.09-.09.14-.2.23-.17.14-.19.38-.19.88v.5c0,.31.13.44.44.44h2.38c.56,0,1.13-.03,1.69-.03.38,0,.34.19.34.77s.03.78-.34.78c-.56,0-1.12-.03-1.69-.03h-2.38c-.31,0-.44.13-.44.44v1.47c0,.31.13.44.44.44h3.39c.64,0,1.28-.03,1.94-.03.39,0,.38.2.38.8s.02.78-.38.78c-.64,0-1.3-.03-1.94-.03h-2.22c-.31,0-.44.11-.44.44v3.43c0,.55.11.66.66.66h1.83c.63,0,.75-.17.92-1.39.05-.31.06-.5.42-.5.28,0,1.09.13,1.09.52,0,.45-.31,1.56-.5,2-.33.81-.86.92-1.67.92h-2.53c-1.3,0-1.75-.3-1.75-1.67v-3.96Z"/>
        <path class="cls-2" d="m157.06,19.6c0,.06.05.09.13.11.13.02.36.02.36.2,0,.09-.06.12-.17.22-.19.16-.17.45-.17,1.24v3.58c0,.53.05,1.05.05,1.56,0,.48-.2.47-.8.47s-.81.02-.81-.47c0-.52.05-1.03.05-1.56v-3.5c-.02-.09-.05-.2-.17-.2-.06,0-.09.03-.14.06-.25.23-.89.86-1.22.86-.28,0-.84-.72-.84-1.02,0-.22.19-.33.34-.44,1.31-.94,3.14-2.97,3.94-4.39.05-.08.11-.14.2-.14.14,0,.69.3.99.47.06.03.11.06.14.08.13.06.33.17.33.33,0,.14-.17.19-.28.2-.22.06-.23.13-.36.31-.44.67-.97,1.33-1.5,1.95-.02.02-.05.05-.05.08Zm1.08-5.58c-.2,0-.22.02-.39.22-.86,1.11-1.86,2.11-2.99,2.94-.14.09-.37.28-.55.28-.25,0-.83-.66-.83-.92,0-.17.14-.27.27-.34,1.03-.7,2.41-2.03,3.13-3.05.06-.09.13-.2.23-.2.14,0,.59.28.89.47.11.06.19.11.23.14.09.05.28.17.28.31,0,.12-.19.16-.28.16Zm2.91,5.28c-.59,0-1.17.03-1.75.03-.41,0-.39-.2-.39-.78s-.02-.78.39-.78c.58,0,1.16.03,1.75.03h4.24c.58,0,1.16-.03,1.75-.03.39,0,.39.19.39.78s0,.78-.39.78c-.58,0-1.17-.03-1.75-.03h-.05c-.31,0-.44.13-.44.44v4.53c0,.39.03.77.03,1.16,0,1.52-1.58,1.59-2.74,1.59-.22,0-.59.02-.73-.22-.14-.25-.24-.73-.24-1.03,0-.2.05-.44.3-.44.09,0,.22.02.31.03.17.02.39.03.56.03.91,0,.86-.31.86-1.14v-4.52c0-.31-.13-.44-.44-.44h-1.67Zm.58-3.99c-.53,0-1.06.03-1.59.03-.41,0-.39-.22-.39-.78s-.02-.8.39-.8c.53,0,1.06.05,1.59.05h2.78c.52,0,1.05-.05,1.58-.05.42,0,.39.25.39.8s.03.78-.39.78c-.53,0-1.06-.03-1.58-.03h-2.78Z"/>
        <path class="cls-2" d="m174.05,24.39c-.16.05-.17.08-.3.41-.03.08-.06.17-.11.28-.22.55-.47,1.17-.77,1.7-.06.11-.14.24-.28.24-.24,0-1.16-.33-1.16-.58,0-.09.11-.27.16-.36.39-.64.81-1.56,1.02-2.28.03-.11.06-.17.17-.17.12,0,.67.2.83.25.44.14.63.19.63.34,0,.13-.09.14-.19.17Zm2.55-2.88c0,.36.03.73.03,1.11,0,.5-.08.78-.64.78-.28,0-.55-.02-.83-.02h-1.59c-.28,0-.55.02-.81.02-.5,0-.64-.2-.64-.72,0-.39.02-.78.02-1.17v-6.16c0-.39-.02-.78-.02-1.17,0-.47.11-.73.61-.73.28,0,.56.03.84.03h1.59c.28,0,.55-.03.83-.03.53,0,.64.27.64.75,0,.39-.03.77-.03,1.16v6.16Zm-2.6-6.6c-.27,0-.41.16-.44.42v.55c.03.27.17.41.44.44h.75c.28-.03.41-.17.44-.44v-.55c-.03-.27-.16-.42-.44-.42h-.75Zm0,2.74c-.27,0-.41.16-.44.42v.56c.03.27.17.41.44.44h.75c.28-.03.41-.17.44-.44v-.56c-.03-.27-.16-.39-.44-.42h-.75Zm0,2.77c-.27.03-.41.16-.44.44v.69c.03.27.17.42.44.42h.75c.28,0,.41-.16.44-.42v-.69c-.03-.28-.16-.41-.44-.44h-.75Zm1.8,5.8c-.25,0-.45-.53-.56-.78-.09-.22-.5-1.16-.5-1.33,0-.28.91-.49,1.06-.49.2,0,.25.2.31.37.09.25.34.78.47,1.02.05.08.09.12.19.12s.16-.08.19-.14c.86-2.1,1.06-4.39,1.06-6.63v-2.61c0-.47-.02-.94-.02-1.41,0-.63.23-.78.83-.78.47,0,.94.03,1.41.03h2.99c.63,0,1.25-.05,1.88-.05.41,0,.37.17.37.78s.03.77-.36.77c-.63,0-1.27-.03-1.89-.03h-3.22c-.31,0-.44.13-.44.44v1.52c0,.31.13.44.44.44h2.92c.3,0,.61-.02.92-.02.37,0,.56.06.8.34.17.2.33.42.33.7,0,.23-.11.78-.17,1.05-.3,1.25-.75,2.49-1.41,3.6-.05.11-.09.2-.09.33,0,.14.05.23.14.34.63.73,1.25,1.36,2,1.97.16.13.27.2.27.34,0,.28-.67.97-.99.97-.19,0-.37-.14-.5-.26-.61-.53-1.17-1.13-1.7-1.74-.06-.08-.16-.16-.27-.16s-.19.06-.27.14c-.34.39-2.06,2-2.52,2-.3,0-.94-.77-.94-.99,0-.16.28-.33.52-.48.8-.55,1.44-1.09,2.08-1.83.08-.11.14-.2.14-.34,0-.13-.03-.2-.09-.33-.66-1.22-1.08-2.52-1.25-3.89-.02-.11-.06-.27-.19-.27s-.17.14-.17.23c0,1.53-.23,3.53-.66,4.99-.12.42-.94,2.77-1.36,2.77-.27,0-.91-.42-1.08-.64-.06-.08-.14-.19-.25-.19-.03,0-.08.02-.11.03-.09.03-.22.08-.31.08Zm5.9-7.33c-.27,0-.42.13-.39.41.11.88.39,1.63.77,2.42.05.08.11.14.2.14s.16-.06.19-.13c.26-.55.88-2.06.88-2.63,0-.23-.2-.22-.61-.22h-1.03Z"/>
        <path class="cls-2" d="m195.37,22.01c-.27,1.89-.88,3.1-2.5,4.14-.45.3-1.64.94-2.16.94-.47,0-.92-.83-.92-1.06s.37-.28.55-.34c1.91-.66,3.33-1.67,3.52-3.81.02-.14.02-.25.02-.34.02-.34.02-.49.3-.49.23,0,.92.13,1.19.17.13.02.5.06.5.23,0,.14-.22.22-.33.28-.11.1-.14.14-.16.28Zm2.55-7.52h3.28c.61,0,1.22-.03,1.84-.03.37,0,.36.16.36.72s.02.72-.36.72c-.63,0-1.24-.03-1.84-.03h-3.28c-.31,0-.44.12-.44.42v.22c0,.31.13.44.44.44h2.28c.52,0,1.05-.03,1.56-.03.34,0,.31.19.31.7,0,.56.02.73-.31.73-.52,0-1.05-.03-1.56-.03h-7.1c-.53,0-1.05.03-1.56.03-.33,0-.33-.14-.33-.73,0-.55,0-.7.33-.7.52,0,1.03.03,1.56.03h2.3c.3,0,.42-.12.42-.44v-.22c0-.3-.12-.42-.42-.42h-3.24c-.61,0-1.24.03-1.85.03-.37,0-.36-.16-.36-.72s-.02-.72.36-.72c.63,0,1.24.03,1.85.03h3.24c.28,0,.41-.11.42-.41,0-.22-.02-.44-.05-.66-.02-.05-.02-.09-.02-.14,0-.17.13-.22.28-.22.2,0,1.14.09,1.39.11.14.02.41.03.41.2,0,.11-.09.16-.2.23-.16.13-.14.28-.16.47.02.3.14.41.44.41Zm3.55,6.57c0-.3-.12-.42-.42-.42h-8.79c-.3,0-.44.13-.44.42v.28c0,.2.05.49.05.67,0,.37-.26.34-.83.34-.64,0-.86.02-.86-.36,0-.19.03-.45.03-.67v-.61c0-.34-.03-.67-.03-.84,0-.55.39-.64,1.14-.64.38,0,.84.03,1.39.03h7.88c.56,0,1.13-.03,1.67-.03.44,0,.86.13.86.64,0,.22-.03.5-.03.84v.63c0,.22.03.44.03.67,0,.36-.19.36-.84.36-.61,0-.84,0-.84-.34,0-.14.03-.47.03-.67v-.3Zm-.69,4.28c.56,0,.89-.06,1.08-1.31.03-.22.03-.42.3-.42.23,0,.67.12.91.2.27.09.38.16.38.36,0,.55-.33,1.58-.64,2.05-.42.64-.99.64-1.67.64h-2.35c-.83,0-1.42-.25-1.42-1.19,0-.3.02-.58.02-.88v-2.08c0-.39.02-.91-.05-1.28,0-.05-.02-.09-.02-.14,0-.17.13-.2.27-.2.23,0,1.06.08,1.33.11.14.02.42.02.42.2,0,.09-.09.14-.16.2-.17.14-.19.42-.19.73v2.3c0,.61.14.7.77.7h1.03Z"/>
        <path class="cls-2" d="m209.92,24.34c0,.77.03,1.53.03,2.3,0,.5-.16.52-.81.52s-.81-.02-.81-.5c0-.78.05-1.55.05-2.31v-8.49c0-.48-.03-.97-.03-1.45,0-.63.23-.8.83-.8.41,0,.8.02,1.19.02h1.74c.39,0,.77-.02,1.16-.02.61,0,.86.16.86.78,0,.47-.03.94-.03,1.41v.64c0,.44.03.88.03,1.31,0,.59-.25.78-.83.78-.39,0-.8-.03-1.19-.03h-1.74c-.31,0-.44.13-.44.44v5.41Zm2.61-9.21c0-.19-.11-.3-.3-.3h-2.02c-.19,0-.3.11-.3.3v.11c.02.17.11.3.3.3h2.02c.19,0,.28-.12.3-.3v-.11Zm-2.61,1.81c0,.22.14.37.38.37h1.86c.22,0,.38-.16.38-.37v-.03c0-.22-.16-.38-.38-.38h-1.86c-.24,0-.38.16-.38.38v.03Zm7.07,7.22c0,.64.03,1.27.03,1.91,0,.44-.17.45-.77.45-.64,0-.78-.03-.78-.49,0-.62.05-1.25.05-1.88v-.44c0-.31-.14-.44-.44-.44h-.56c-.31,0-.44.09-.52.39-.3,1.11-.84,1.83-1.72,2.55-.16.13-.41.36-.61.36-.33,0-.99-.67-.99-.94,0-.16.22-.27.34-.34.62-.41,1.14-.91,1.42-1.61.02-.05.03-.09.03-.14,0-.19-.14-.25-.31-.27-.37,0-.75.03-1.13.03s-.34-.23-.34-.66c0-.47,0-.64.36-.64s.84.03,1.22.02c.3,0,.41-.14.41-.42v-.5c0-.28-.11-.42-.41-.42-.23,0-.47.02-.7.02-.38,0-.36-.22-.36-.64s-.02-.64.36-.64c.45,0,.91.03,1.34.03h3.74c.45,0,.91-.03,1.36-.03.38,0,.34.23.34.64s.03.64-.34.64c-.2,0-.41-.02-.61-.02-.3,0-.42.13-.42.42v.5c0,.28.09.42.39.42.31.02.86-.02,1.13-.02.36,0,.36.17.36.64s0,.66-.36.66c-.16,0-.94-.03-1.13-.03-.3.03-.39.14-.39.44v.44Zm-1.91-2.13c.27,0,.41-.17.44-.42v-.5c-.03-.27-.17-.44-.44-.44h-.49c-.28.03-.41.17-.44.44v.5c.03.27.16.42.44.42h.49Zm2.42-3.55c-.39,0-.78.03-1.17.03-.59,0-.84-.17-.84-.78,0-.44.03-.88.03-1.31v-.64c0-.47-.03-.94-.03-1.41,0-.61.25-.78.83-.78.41,0,.8.02,1.19.02h1.74c.39,0,.77-.02,1.16-.02.59,0,.86.16.86.78,0,.49-.03.99-.03,1.47v8.18c0,.42.03.86.03,1.28,0,.55-.11,1.16-.61,1.47-.41.27-1.17.34-1.67.34-.55,0-.89-.02-.89-1.2,0-.22.05-.39.31-.39h.2c.14.02.34.05.49.05.66,0,.59-.39.59-.88v-5.77c0-.31-.13-.44-.44-.44h-1.74Zm2.17-3.36c0-.19-.11-.3-.3-.3h-2.02c-.19,0-.3.11-.3.3v.11c.02.17.11.3.3.3h2.02c.19,0,.28-.12.3-.3v-.11Zm-2.61,1.81c0,.22.14.37.38.37h1.86c.22,0,.37-.16.37-.37v-.03c0-.22-.16-.38-.37-.38h-1.86c-.24,0-.38.16-.38.38v.03Z"/>
        <path class="cls-2" d="m229.68,24.16c-.13,0-.2.08-.28.19-.3.52-1.72,2.58-2.3,2.58-.28,0-1.06-.45-1.06-.77,0-.16.2-.33.34-.47l.08-.08c.78-.78,1.25-1.39,1.81-2.33.05-.06.08-.14.08-.22,0-.13-.08-.22-.17-.28l-.38-.28s-.09-.06-.16-.06c-.13,0-.19.09-.25.19-.06.17-.16.3-.36.3-.25,0-1.11-.28-1.11-.56,0-.09.08-.31.11-.42.42-1.31.8-2.66,1.11-4v-.11c0-.2-.14-.28-.33-.3-.14,0-.39.02-.52.02-.36,0-.36-.19-.36-.78,0-.63,0-.8.37-.8.25,0,.52.02.77.03.3-.02.45-.11.5-.39.12-.7.17-1.41.25-2.11.03-.28.03-.5.23-.5.11,0,1.25.22,1.44.25.11.03.23.08.23.2,0,.11-.09.19-.19.22-.22.09-.22.13-.33,1.03-.03.23-.08.53-.13.89v.09c0,.24.17.31.37.31h1.2c.47,0,.75.22.75.72,0,.23-.05.73-.06.99-.16,1.63-.39,3.02-.97,4.55-.03.08-.05.14-.05.23,0,.19.1.28.22.41.23.2,1.28,1.11,1.28,1.38s-.55,1.02-.84,1.02c-.11,0-.44-.34-.73-.66-.13-.13-.25-.27-.36-.36-.08-.06-.14-.11-.23-.11Zm-1-6.24c-.19.86-.41,1.72-.64,2.58-.02.06-.02.11-.02.19,0,.2.09.31.25.44.16.09.3.2.45.31.06.03.12.06.2.06.14,0,.22-.09.27-.22.31-.84.66-2.55.66-3.44,0-.36-.23-.34-.66-.33-.31,0-.44.09-.52.41Zm8.32-.34c.14-.03.26-.09.26-.27,0-.05-.02-.09-.05-.14-.05-.08-.12-.22-.22-.36-.2-.34-.47-.77-.47-.88,0-.31.91-.58,1.05-.58.2,0,.31.16.41.31.49.75.75,1.2,1.16,2.02.14.3.7,1.44.7,1.71,0,.41-.91.61-1.08.61-.28,0-.31-.2-.56-.81-.13-.22-.22-.33-.47-.33h-.11c-1.61.2-3.24.39-4.86.56-.12.03-.16.09-.23.23-.05.08-.13.16-.22.16-.16,0-.22-.19-.33-.55-.06-.2-.28-.91-.28-1.09s.2-.2.8-.2h.12c.3-.03.42-.11.53-.41.52-1.47.91-2.78,1.28-4.3.03-.14.06-.31.22-.31.23,0,1.11.27,1.35.36.17.06.41.16.41.31,0,.14-.11.16-.19.17-.14.03-.23.05-.28.19-.37,1.17-.78,2.31-1.22,3.46-.02.03-.03.08-.03.13,0,.17.14.22.28.22.69-.06,1.36-.12,2.03-.2Zm.53,9.01c0-.19-.09-.27-.28-.27h-3c-.2,0-.28.08-.3.28.02.05.02.08.02.13,0,.34-.19.34-.81.34s-.8-.02-.8-.36c0-.39.03-.8.03-1.19v-3.14c0-.31-.02-.63-.02-.95,0-.53.36-.64.83-.64.37,0,.75.03,1.13.03h2.88c.37,0,.75-.03,1.13-.03.47,0,.83.1.83.66,0,.31-.02.63-.02.94v3.16c0,.41.03.8.03,1.2,0,.34-.19.34-.81.34s-.83.02-.83-.33v-.17Zm-.41-1.67c.27-.03.41-.16.44-.44v-1.78c-.03-.26-.17-.42-.44-.42h-2.75c-.28,0-.41.16-.44.42v1.78c.03.28.16.44.44.44h2.75Z"/>
        <g>
          <path class="cls-2" d="m32.12,20.01s.08.1.24.14c1.27.43,1.83,1.37,1.83,2.51,0,1.77-1.31,3.53-4.78,3.53-1.16,0-2.26-.24-2.98-.57-.24-.11-.33-.21-.33-.37,0-.08.02-.17.06-.29l.27-.78c.08-.22.14-.33.27-.33.06,0,.16.05.3.13.57.35,1.45.62,2.47.62,1.88,0,2.82-.97,2.82-1.97,0-1.1-.92-1.66-2.98-1.66-.35,0-.91.02-1.07.02-.41,0-.48-.06-.48-.46v-.72c0-.41.06-.48.48-.48.17,0,.6.02.91.02,1.93,0,2.64-.68,2.64-1.56s-.78-1.4-2.01-1.4c-.88,0-1.66.25-2.23.62-.14.09-.24.14-.32.14-.11,0-.19-.09-.29-.32l-.35-.73c-.06-.14-.1-.24-.1-.32,0-.14.1-.22.32-.33.84-.45,1.96-.75,3.15-.75,2.61,0,3.68,1.32,3.68,2.75,0,.88-.35,1.85-1.34,2.37-.13.06-.21.13-.21.17Z"/>
          <path class="cls-2" d="m46.27,22.43c0-.32-.13-.45-.45-.45h-4.68c-.3,0-.46.11-.51.41-.22,1.34-.65,2.61-1.37,3.76-.19.3-.62,1.02-1,1.02-.3,0-1.16-.57-1.16-.96,0-.14.13-.27.22-.38,1.56-1.89,1.8-4.39,1.8-6.75v-3.23c0-.51-.03-1.02-.03-1.53,0-.65.3-.83.91-.83.48,0,.96.03,1.43.03h4.22c.48,0,.96-.03,1.43-.03.62,0,.92.16.92.83,0,.51-.03,1.02-.03,1.53v8.12c0,.4.03.8.03,1.19,0,.6-.03,1.15-.53,1.54-.62.49-1.56.53-2.32.53-.32,0-.73-.02-.84-.38-.08-.24-.14-.72-.14-.95s.08-.4.35-.4c.24,0,.57.03.84.03.83,0,.91-.19.91-.97v-2.13Zm-.45-5.43c.27-.03.41-.18.45-.45v-1c-.03-.27-.18-.41-.45-.45h-4.55c-.27.03-.41.17-.45.45v1c.03.27.17.41.45.45h4.55Zm-4.57,3.47h4.57c.32,0,.45-.13.45-.45v-1.07c0-.3-.13-.43-.45-.43h-4.55c-.3,0-.45.13-.45.43v.05c0,.35.02.7,0,1.04.02.3.11.43.43.43Z"/>
          <path class="cls-2" d="m57.3,24.45c.81,0,2.31-.03,2.42-.03.33,0,.4.1.4.46v.75c0,.37-.06.46-.4.46-.11,0-1.61-.03-2.42-.03h-2.07c-.81,0-2.31.03-2.42.03-.33,0-.4-.1-.4-.46v-.29c0-.41.05-.53.38-.78.29-.21.54-.43.81-.67,2.87-2.51,4.52-4.11,4.52-5.67,0-1.04-.72-1.75-2.02-1.75-.96,0-1.78.46-2.32,1.05-.14.16-.24.22-.33.22-.08,0-.18-.08-.32-.22l-.64-.68c-.13-.14-.19-.24-.19-.33,0-.11.08-.21.22-.35.91-.86,2.23-1.45,3.74-1.45,2.42,0,3.77,1.43,3.77,3.26,0,2.24-1.8,4.04-4.23,6.16-.13.11-.17.18-.17.22,0,.06.1.09.29.09h1.38Z"/>
          <path class="cls-2" d="m69.25,20.12c0,.06.08.13.24.21,1.18.59,2.12,1.4,2.12,2.82,0,1.82-1.48,3.1-4.63,3.1-2.52,0-4.31-1.08-4.31-2.96,0-1.21.72-2.2,2.04-2.87.16-.08.24-.14.24-.21s-.08-.13-.22-.22c-.91-.54-1.58-1.31-1.58-2.48,0-1.53,1.42-2.85,4.12-2.85,2.47,0,3.9,1.18,3.9,2.71,0,1.05-.62,1.91-1.69,2.53-.14.08-.22.16-.22.22Zm-2.37.88c-.13,0-.27.03-.45.11-1.21.51-1.93,1.15-1.93,2.05,0,1,1.1,1.54,2.55,1.54,1.59,0,2.67-.57,2.67-1.61,0-.97-.99-1.46-2.42-2.01-.17-.06-.3-.1-.43-.1Zm.32-4.74c-1.24,0-2.18.49-2.18,1.31s.81,1.27,1.91,1.72c.18.06.3.11.43.11s.27-.05.45-.13c.97-.46,1.51-1.02,1.51-1.74,0-.8-.91-1.27-2.12-1.27Z"/>
          <path class="cls-2" d="m82.26,25.92h-4.86c-.25,0-.37.11-.37.37v.16c0,.45-.16.45-.91.45-.68,0-.91,0-.91-.43,0-.67.05-1.34.05-1.99v-8.01c0-.51-.03-1-.03-1.51,0-.64.25-.83.88-.83.46,0,.92.03,1.4.03h4.65c.46,0,.92-.03,1.38-.03.61,0,.88.16.88.81,0,.51-.03,1.02-.03,1.53v7.98c0,.67.05,1.32.05,1.99,0,.45-.19.43-.91.43s-.91,0-.91-.43c0-.05,0-.1.02-.14-.02-.25-.13-.37-.38-.37Zm-.03-6.78c.27-.03.41-.18.45-.45v-2.55c-.03-.27-.17-.41-.45-.45h-4.79c-.27.03-.41.18-.45.45v2.55c.03.27.18.41.45.45h4.79Zm-5.24,4.76c.03.27.18.41.45.45h4.79c.27-.03.41-.18.45-.45v-2.8c-.03-.27-.17-.41-.45-.45h-4.79c-.27.03-.41.17-.45.45v2.8Z"/>
        </g>
      </g>
    </g>
  </g>
</svg>