<?xml version="1.0" encoding="UTF-8"?>
<svg id="_レイヤー_2" data-name="レイヤー 2" xmlns="http://www.w3.org/2000/svg" viewBox="0 0 387.7 70.56">
  <defs>
    <style>
      .cls-1 {
        fill: #fff;
      }

      .cls-2 {
        fill: #7b414d;
      }
    </style>
  </defs>
  <g id="_レイヤー_1-2" data-name="レイヤー 1">
    <g id="_グループ_1817" data-name="グループ 1817">
      <g id="_パス_16696" data-name="パス 16696">
        <path class="cls-1" d="m193.74,70.06c-.9,0-1.68-.54-1.99-1.38l-5.72-15.44H26.86c-3.56,0-7.01-.7-10.26-2.07-3.14-1.33-5.96-3.23-8.38-5.65-2.42-2.42-4.32-5.24-5.65-8.38-1.38-3.25-2.07-6.7-2.07-10.26s.7-7.01,2.07-10.26c1.33-3.14,3.23-5.96,5.65-8.38,2.42-2.42,5.24-4.32,8.38-5.65,3.25-1.38,6.7-2.07,10.26-2.07h333.97c3.56,0,7.01.7,10.26,2.07,3.14,1.33,5.96,3.23,8.38,5.65,2.42,2.42,4.32,5.24,5.65,8.38,1.37,3.25,2.07,6.7,2.07,10.26s-.7,7.01-2.07,10.26c-1.33,3.14-3.23,5.96-5.65,8.38-2.42,2.42-5.24,4.32-8.38,5.65-3.25,1.38-6.7,2.07-10.26,2.07h-159.17l-5.94,15.46c-.32.83-1.09,1.36-1.98,1.36Z"/>
        <path class="cls-2" d="m26.86,1C12.58,1,1,12.58,1,26.87s11.58,25.87,25.86,25.87h159.51l5.84,15.77c.52,1.4,2.5,1.41,3.04.02l6.06-15.78h159.51c14.29,0,25.87-11.58,25.87-25.87s-11.58-25.87-25.87-25.87H26.86m0-1h333.97c3.63,0,7.15.71,10.46,2.11,3.2,1.35,6.07,3.29,8.54,5.76,2.47,2.47,4.4,5.34,5.76,8.54,1.4,3.31,2.11,6.83,2.11,10.46s-.71,7.15-2.11,10.46c-1.35,3.2-3.29,6.07-5.76,8.54-2.47,2.47-5.34,4.4-8.54,5.76-3.31,1.4-6.83,2.11-10.46,2.11h-158.83l-5.82,15.14c-.39,1.02-1.35,1.68-2.45,1.68s-2.07-.67-2.46-1.71l-5.6-15.11H26.86c-3.63,0-7.14-.71-10.46-2.11-3.2-1.35-6.07-3.29-8.54-5.76-2.47-2.47-4.4-5.34-5.76-8.54-1.4-3.31-2.11-6.83-2.11-10.46s.71-7.15,2.11-10.46c1.35-3.2,3.29-6.07,5.76-8.54,2.47-2.47,5.34-4.4,8.54-5.76,3.31-1.4,6.83-2.11,10.46-2.11Z"/>
      </g>
      <g id="_グループ_2444" data-name="グループ 2444">
        <g>
          <path class="cls-2" d="m343.78,35.83c-.32-4.79-5.38-6.67-7.54-10.41-.93-1.6-1.65-3.75-.46-5.4.97-1.35,2.85-2.14,4.42-1.39,1.28.61,2.62,2.31,2.69,3.77.06,1.06,1.52.94,1.65-.04.31-2.37,2.29-4.62,4.83-4.19,2.16.36,3.95,2.4,3.8,4.62-.16,2.33-2,4.26-3.59,5.79-2.33,2.26-4.72,4.45-7.08,6.68-.34.32-.53.85-.26,1.28.24.38.82.47,1.15.16,2.28-2.15,4.57-4.28,6.83-6.44,1.64-1.57,3.34-3.31,4.15-5.48.79-2.15.57-4.47-.92-6.26-1.35-1.61-3.58-2.6-5.68-2.12-2.6.59-4.53,3.2-4.86,5.77l1.65-.04c-.09-1.67-1.22-3.43-2.47-4.47-1.67-1.38-3.88-1.46-5.72-.36-1.85,1.11-3.05,3.15-2.86,5.33.22,2.52,1.65,4.88,3.42,6.63,1.98,1.95,4.99,3.77,5.2,6.86.08,1.21,1.74.81,1.67-.28h0Z"/>
          <g>
            <path class="cls-2" d="m127.13,31.96c-.39,1.02-.74,1.9-1.12,3.03-.19.52-.3.6-.86.6h-.52c-.56,0-.67-.09-.84-.63-.34-1.12-.65-2.01-.99-3.05l-2.61-7.65c-.37-1.04-.71-2.03-1.21-3.37-.06-.15-.09-.28-.09-.37,0-.19.15-.24.5-.24h1.66c.56,0,.67.09.82.63.34,1.25.63,2.16.95,3.17l2.05,6.44c.06.19.13.28.22.28.06,0,.15-.09.22-.26l2.44-6.35c.41-1.08.76-2.01,1.19-3.31.19-.52.3-.6.86-.6h.34c.56,0,.67.09.84.63.43,1.27.8,2.22,1.19,3.28l2.38,6.33c.06.17.13.26.22.26.06,0,.15-.09.22-.28l2.1-6.42c.32-1.02.6-1.92.97-3.17.15-.54.26-.63.82-.63h1.51c.35,0,.5.04.5.24,0,.09-.02.22-.09.37-.52,1.34-.84,2.31-1.21,3.35l-2.64,7.69c-.35,1.02-.65,1.92-.99,3.02-.17.54-.28.63-.84.63h-.54c-.56,0-.67-.09-.86-.6-.39-1.15-.74-2.05-1.1-3.03l-2.49-6.52c-.06-.17-.15-.28-.24-.28s-.15.09-.24.28l-2.51,6.52Z"/>
            <path class="cls-2" d="m151.9,33.32c1.04,0,2.98-.06,3.13-.06.46,0,.54.13.54.63v1.12c0,.5-.09.63-.54.63-.15,0-2.09-.04-3.13-.04h-1.66c-1.02,0-2.72.04-2.87.04-.47,0-.6-.17-.6-.69.02-1.21.04-2.57.04-3.61v-6.78c0-1.06-.02-2.51-.04-3.61,0-.52.13-.69.6-.69.15,0,1.86.04,2.87.04h1.21c1.04,0,2.98-.04,3.13-.04.45,0,.54.13.54.63v1.17c0,.5-.09.63-.54.63-.15,0-2.09-.06-3.13-.06h-1.53c-.54,0-.65.11-.65.65v2.46c0,.54.11.65.65.65h1.08c1.02,0,2.98-.04,3.13-.04.45,0,.54.13.54.63v1.06c0,.5-.09.63-.54.63-.15,0-2.12-.04-3.13-.04h-1.08c-.54,0-.65.11-.65.65v3.44c0,.54.11.65.65.65h1.99Z"/>
            <path class="cls-2" d="m165.47,35.59c-1.02,0-2.72.04-2.87.04-.45,0-.6-.15-.6-.61,0-.15.04-2.48.04-3.69v-6.78c0-1.06-.04-3.24-.04-3.61,0-.52.13-.69.6-.69.24,0,1.86.04,2.87.04h1.66c3.11,0,4.95.82,4.95,3.46,0,1.25-.28,2.44-1.4,3.26-.17.13-.28.22-.28.28,0,.11.11.17.34.26,1.25.5,2.07,1.58,2.07,3.35,0,3.22-2.14,4.69-5.62,4.69h-1.73Zm-.99-9.7c0,.54.11.65.65.65h1.73c1.6,0,2.74-.6,2.74-2.33,0-1.43-1.17-1.79-2.49-1.79h-1.99c-.54,0-.65.11-.65.65v2.83Zm0,6.98c0,.54.11.65.65.65h2.03c1.79,0,3.11-.84,3.11-2.64,0-1.64-1.06-2.27-2.72-2.27h-2.42c-.54,0-.65.11-.65.65v3.61Z"/>
            <path class="cls-2" d="m191.65,28.93c0-.43-.17-.6-.61-.6h-2.25s-.06.02-.06.06c0,.02.02.06.04.06.84.22,1.25.28,1.25.5,0,.19-.17.28-.32.32-.15.06-.2.13-.22.3-.37,2.98-2.27,5.18-4.82,6.63-.41.24-1.56.84-1.97.84-.54,0-1.38-1.04-1.38-1.51,0-.28.28-.33.52-.39,1.79-.52,3.65-1.84,4.69-3.39.65-.97.78-1.75.89-2.89,0-.37-.11-.54-.47-.54h-2.27c-.91,0-1.79.04-2.68.04-.54,0-.52-.28-.52-1.08,0-.84-.02-1.1.52-1.1.89,0,1.77.04,2.68.04h4.58c.43,0,.61-.17.61-.6v-2.03c0-.43-.17-.6-.61-.6h-2.4c-.43,0-.65.11-.86.5-.34.63-.8,1.38-1.23,1.97-.13.17-.28.37-.54.37-.41,0-1.66-.61-1.66-1.02,0-.15.54-.84.67-1.02,1.06-1.41,2.01-3.57,2.51-5.25.04-.13.09-.28.26-.28.2,0,1.17.28,1.41.34.67.19.91.26.91.5,0,.17-.17.24-.3.28-.26.09-.3.24-.45.67-.04.09-.09.22-.13.35-.02.06-.04.13-.04.17,0,.26.22.35.43.37h1.45c.43,0,.61-.17.61-.6v-.69c0-.48,0-.99-.06-1.43-.02-.06-.02-.13-.02-.19,0-.26.17-.32.39-.32.24,0,1.88.13,2.14.15.15.02.39.06.39.26,0,.13-.13.19-.28.32-.24.19-.26.52-.26,1.21v.69c0,.43.17.6.61.6h3.28c.78,0,1.56-.04,2.33-.04.52,0,.48.26.48,1.06s.04,1.08-.48,1.08c-.78,0-1.55-.04-2.33-.04h-3.28c-.43,0-.61.17-.61.6v2.03c0,.43.17.6.61.6h4.69c.89,0,1.77-.04,2.68-.04.54,0,.52.28.52,1.1s.02,1.08-.52,1.08c-.89,0-1.79-.04-2.68-.04h-3.07c-.43,0-.61.15-.61.6v4.73c0,.76.15.91.91.91h2.53c.86,0,1.04-.24,1.27-1.92.06-.43.09-.69.58-.69.39,0,1.51.17,1.51.71,0,.63-.43,2.16-.69,2.77-.46,1.12-1.19,1.27-2.31,1.27h-3.5c-1.79,0-2.42-.41-2.42-2.31v-5.47Z"/>
            <path class="cls-2" d="m211.47,26.82c0,.09.06.13.17.15.17.02.5.02.5.28,0,.13-.09.17-.24.3-.26.22-.24.63-.24,1.71v4.95c0,.74.06,1.45.06,2.16,0,.67-.28.65-1.1.65s-1.12.02-1.12-.65c0-.71.06-1.43.06-2.16v-4.84c-.02-.13-.06-.28-.24-.28-.09,0-.13.04-.19.09-.35.32-1.23,1.19-1.69,1.19-.39,0-1.17-.99-1.17-1.4,0-.3.26-.45.47-.61,1.81-1.3,4.34-4.1,5.44-6.07.06-.11.15-.19.28-.19.19,0,.95.41,1.36.65.09.04.15.09.19.11.17.09.45.24.45.46,0,.19-.24.26-.39.28-.3.09-.32.17-.5.43-.61.93-1.34,1.84-2.07,2.7-.02.02-.06.06-.06.11Zm1.49-7.71c-.28,0-.3.02-.54.3-1.19,1.53-2.57,2.92-4.13,4.06-.19.13-.52.39-.76.39-.34,0-1.14-.91-1.14-1.28,0-.24.19-.37.37-.47,1.43-.97,3.33-2.81,4.32-4.21.09-.13.17-.28.32-.28.19,0,.82.39,1.23.65.15.09.26.15.32.19.13.06.39.24.39.43,0,.17-.26.22-.39.22Zm4.02,7.3c-.82,0-1.62.04-2.42.04-.56,0-.54-.28-.54-1.08s-.02-1.08.54-1.08c.8,0,1.6.04,2.42.04h5.85c.8,0,1.6-.04,2.42-.04.54,0,.54.26.54,1.08s0,1.08-.54,1.08c-.8,0-1.62-.04-2.42-.04h-.06c-.43,0-.61.17-.61.61v6.26c0,.54.04,1.06.04,1.6,0,2.09-2.18,2.2-3.78,2.2-.3,0-.82.02-1.02-.3-.2-.34-.33-1.02-.33-1.43,0-.28.06-.6.41-.6.13,0,.3.02.43.04.24.02.54.04.78.04,1.25,0,1.19-.43,1.19-1.58v-6.24c0-.43-.17-.61-.61-.61h-2.31Zm.8-5.51c-.73,0-1.47.04-2.2.04-.56,0-.54-.3-.54-1.08s-.02-1.1.54-1.1c.74,0,1.47.07,2.2.07h3.85c.71,0,1.45-.07,2.18-.07.58,0,.54.35.54,1.1s.04,1.08-.54,1.08c-.73,0-1.47-.04-2.18-.04h-3.85Z"/>
            <path class="cls-2" d="m234.94,33.43c-.22.06-.24.11-.41.56-.04.11-.09.24-.15.39-.3.76-.65,1.62-1.06,2.35-.09.15-.19.33-.39.33-.33,0-1.6-.46-1.6-.8,0-.13.15-.37.22-.5.54-.89,1.12-2.16,1.4-3.15.04-.15.09-.24.24-.24.17,0,.93.28,1.14.35.61.19.86.26.86.47,0,.17-.13.19-.26.24Zm3.52-3.97c0,.5.04,1.02.04,1.53,0,.69-.11,1.08-.89,1.08-.39,0-.76-.02-1.14-.02h-2.2c-.39,0-.76.02-1.12.02-.69,0-.89-.28-.89-.99,0-.54.02-1.08.02-1.62v-8.51c0-.54-.02-1.08-.02-1.62,0-.65.15-1.02.84-1.02.39,0,.78.04,1.17.04h2.2c.39,0,.76-.04,1.14-.04.74,0,.89.37.89,1.04,0,.54-.04,1.06-.04,1.6v8.51Zm-3.59-9.12c-.37,0-.56.22-.61.58v.76c.04.37.24.56.61.6h1.04c.39-.04.56-.24.61-.6v-.76c-.04-.37-.22-.58-.61-.58h-1.04Zm0,3.78c-.37,0-.56.22-.61.58v.78c.04.37.24.56.61.61h1.04c.39-.04.56-.24.61-.61v-.78c-.04-.37-.22-.54-.61-.58h-1.04Zm0,3.82c-.37.04-.56.22-.61.6v.95c.04.37.24.58.61.58h1.04c.39,0,.56-.22.61-.58v-.95c-.04-.39-.22-.56-.61-.6h-1.04Zm2.48,8.01c-.34,0-.63-.74-.78-1.08-.13-.3-.69-1.6-.69-1.84,0-.39,1.25-.67,1.47-.67.28,0,.35.28.43.52.13.35.48,1.08.65,1.41.06.11.13.17.26.17s.22-.11.26-.19c1.19-2.89,1.47-6.07,1.47-9.16v-3.61c0-.65-.02-1.3-.02-1.94,0-.86.32-1.08,1.14-1.08.65,0,1.3.04,1.94.04h4.12c.86,0,1.73-.06,2.59-.06.56,0,.52.24.52,1.08s.04,1.06-.5,1.06c-.86,0-1.75-.04-2.61-.04h-4.45c-.43,0-.61.17-.61.61v2.09c0,.43.17.61.61.61h4.04c.41,0,.84-.02,1.27-.02.52,0,.78.09,1.1.48.24.28.45.58.45.97,0,.32-.15,1.08-.24,1.45-.41,1.73-1.04,3.44-1.94,4.97-.06.15-.13.28-.13.46,0,.19.06.32.19.47.86,1.02,1.73,1.88,2.77,2.72.22.17.37.28.37.48,0,.39-.93,1.34-1.36,1.34-.26,0-.52-.19-.69-.37-.84-.74-1.62-1.56-2.35-2.4-.09-.11-.22-.22-.37-.22s-.26.09-.37.19c-.47.54-2.85,2.77-3.48,2.77-.41,0-1.3-1.06-1.3-1.36,0-.22.39-.45.71-.67,1.1-.76,1.99-1.51,2.87-2.53.11-.15.19-.28.19-.47,0-.17-.04-.28-.13-.45-.91-1.69-1.49-3.48-1.73-5.38-.02-.15-.09-.37-.26-.37s-.24.19-.24.32c0,2.12-.32,4.88-.91,6.89-.17.58-1.3,3.82-1.88,3.82-.37,0-1.25-.58-1.49-.89-.09-.11-.19-.26-.35-.26-.04,0-.11.02-.15.04-.13.04-.3.11-.43.11Zm8.15-10.13c-.37,0-.58.17-.54.56.15,1.21.54,2.25,1.06,3.35.06.11.15.19.28.19s.22-.09.26-.17c.37-.76,1.21-2.85,1.21-3.63,0-.32-.28-.3-.84-.3h-1.42Z"/>
            <path class="cls-2" d="m264.4,30.14c-.37,2.61-1.21,4.28-3.46,5.72-.63.41-2.27,1.3-2.98,1.3-.65,0-1.27-1.14-1.27-1.47s.52-.39.76-.48c2.64-.91,4.6-2.31,4.86-5.27.02-.2.02-.35.02-.48.02-.48.02-.67.41-.67.32,0,1.27.17,1.64.24.17.02.69.09.69.32,0,.19-.3.3-.45.39-.15.13-.19.2-.22.39Zm3.52-10.39h4.54c.84,0,1.68-.04,2.55-.04.52,0,.5.22.5.99s.02.99-.5.99c-.86,0-1.71-.04-2.55-.04h-4.54c-.43,0-.6.17-.6.58v.3c0,.43.17.6.6.6h3.16c.71,0,1.45-.04,2.16-.04.47,0,.43.26.43.97,0,.78.02,1.02-.43,1.02-.71,0-1.45-.04-2.16-.04h-9.81c-.73,0-1.45.04-2.16.04-.45,0-.45-.19-.45-1.02,0-.76,0-.97.45-.97.71,0,1.43.04,2.16.04h3.18c.41,0,.58-.17.58-.6v-.3c0-.41-.17-.58-.58-.58h-4.47c-.84,0-1.71.04-2.55.04-.52,0-.5-.22-.5-.99s-.02-.99.5-.99c.86,0,1.71.04,2.55.04h4.47c.39,0,.56-.15.58-.56,0-.3-.02-.6-.06-.91-.02-.06-.02-.13-.02-.19,0-.24.17-.3.39-.3.28,0,1.58.13,1.92.15.19.02.56.04.56.28,0,.15-.13.22-.28.32-.22.17-.19.39-.22.65.02.41.19.56.6.56Zm4.9,9.07c0-.41-.17-.58-.58-.58h-12.14c-.41,0-.61.17-.61.58v.39c0,.28.06.67.06.93,0,.52-.37.47-1.14.47-.89,0-1.19.02-1.19-.5,0-.26.04-.63.04-.93v-.84c0-.47-.04-.93-.04-1.17,0-.76.54-.89,1.58-.89.52,0,1.17.04,1.92.04h10.89c.78,0,1.56-.04,2.31-.04.61,0,1.19.17,1.19.89,0,.3-.04.69-.04,1.17v.86c0,.3.04.6.04.93,0,.5-.26.5-1.17.5-.84,0-1.17,0-1.17-.48,0-.19.04-.65.04-.93v-.41Zm-.95,5.92c.78,0,1.23-.09,1.49-1.81.04-.3.04-.58.41-.58.32,0,.93.17,1.25.28.37.13.52.22.52.5,0,.76-.46,2.18-.89,2.83-.58.89-1.36.89-2.31.89h-3.24c-1.14,0-1.97-.34-1.97-1.64,0-.41.02-.8.02-1.21v-2.87c0-.54.02-1.25-.06-1.77,0-.06-.02-.13-.02-.19,0-.24.17-.28.37-.28.32,0,1.47.11,1.84.15.19.02.58.02.58.28,0,.13-.13.19-.22.28-.24.19-.26.58-.26,1.02v3.17c0,.84.19.97,1.06.97h1.42Z"/>
            <path class="cls-2" d="m284.51,33.36c0,1.06.04,2.12.04,3.17,0,.69-.22.71-1.12.71s-1.12-.02-1.12-.69c0-1.08.06-2.14.06-3.2v-11.73c0-.67-.04-1.34-.04-2.01,0-.86.32-1.1,1.14-1.1.56,0,1.1.02,1.64.02h2.4c.54,0,1.06-.02,1.6-.02.84,0,1.19.22,1.19,1.08,0,.65-.04,1.3-.04,1.94v.89c0,.61.04,1.21.04,1.81,0,.82-.34,1.08-1.14,1.08-.54,0-1.1-.04-1.64-.04h-2.4c-.43,0-.61.17-.61.61v7.47Zm3.61-12.73c0-.26-.15-.41-.41-.41h-2.79c-.26,0-.41.15-.41.41v.15c.02.24.15.41.41.41h2.79c.26,0,.39-.17.41-.41v-.15Zm-3.61,2.51c0,.3.19.52.52.52h2.57c.3,0,.52-.22.52-.52v-.04c0-.3-.22-.52-.52-.52h-2.57c-.33,0-.52.22-.52.52v.04Zm9.77,9.98c0,.89.04,1.75.04,2.64,0,.61-.24.63-1.06.63-.89,0-1.08-.04-1.08-.67,0-.86.06-1.73.06-2.59v-.61c0-.43-.19-.6-.6-.6h-.78c-.43,0-.6.13-.71.54-.41,1.53-1.17,2.53-2.38,3.52-.22.17-.56.5-.84.5-.45,0-1.36-.93-1.36-1.3,0-.22.3-.37.48-.48.86-.56,1.58-1.25,1.97-2.22.02-.06.04-.13.04-.19,0-.26-.19-.35-.43-.37-.52,0-1.04.04-1.56.04s-.48-.32-.48-.91c0-.65,0-.89.5-.89s1.17.04,1.69.02c.41,0,.56-.19.56-.58v-.69c0-.39-.15-.58-.56-.58-.32,0-.65.02-.97.02-.52,0-.5-.3-.5-.89s-.02-.89.5-.89c.63,0,1.25.04,1.86.04h5.16c.63,0,1.25-.04,1.88-.04.52,0,.48.32.48.89s.04.89-.48.89c-.28,0-.56-.02-.84-.02-.41,0-.58.17-.58.58v.69c0,.39.13.58.54.58.43.02,1.19-.02,1.56-.02.5,0,.5.24.5.89s0,.91-.5.91c-.22,0-1.3-.04-1.56-.04-.41.04-.54.19-.54.6v.61Zm-2.64-2.94c.37,0,.56-.24.6-.58v-.69c-.04-.37-.24-.61-.6-.61h-.67c-.39.04-.56.24-.61.61v.69c.04.37.22.58.61.58h.67Zm3.35-4.9c-.54,0-1.08.04-1.62.04-.82,0-1.17-.24-1.17-1.08,0-.61.04-1.21.04-1.81v-.89c0-.65-.04-1.3-.04-1.94,0-.84.34-1.08,1.14-1.08.56,0,1.1.02,1.64.02h2.4c.54,0,1.06-.02,1.6-.02.82,0,1.19.22,1.19,1.08,0,.67-.04,1.36-.04,2.03v11.3c0,.58.04,1.19.04,1.77,0,.76-.15,1.6-.84,2.03-.56.37-1.62.48-2.31.48-.76,0-1.23-.02-1.23-1.66,0-.3.06-.54.43-.54h.28c.19.02.48.06.67.06.91,0,.82-.54.82-1.21v-7.97c0-.43-.17-.61-.61-.61h-2.4Zm3-4.64c0-.26-.15-.41-.41-.41h-2.79c-.26,0-.41.15-.41.41v.15c.02.24.15.41.41.41h2.79c.26,0,.39-.17.41-.41v-.15Zm-3.61,2.51c0,.3.19.52.52.52h2.57c.3,0,.52-.22.52-.52v-.04c0-.3-.22-.52-.52-.52h-2.57c-.33,0-.52.22-.52.52v.04Z"/>
            <path class="cls-2" d="m311.81,33.1c-.17,0-.28.11-.39.26-.41.71-2.37,3.57-3.17,3.57-.39,0-1.47-.63-1.47-1.06,0-.22.28-.45.47-.65l.11-.11c1.08-1.08,1.73-1.92,2.51-3.22.06-.09.11-.19.11-.3,0-.17-.11-.3-.24-.39l-.52-.39c-.06-.04-.13-.09-.22-.09-.17,0-.26.13-.35.26-.09.24-.22.41-.5.41-.35,0-1.53-.39-1.53-.78,0-.13.11-.43.15-.58.58-1.81,1.1-3.67,1.53-5.53v-.15c0-.28-.19-.39-.45-.41-.19,0-.54.02-.71.02-.5,0-.5-.26-.5-1.08,0-.86,0-1.1.52-1.1.34,0,.71.02,1.06.04.41-.02.63-.15.69-.54.17-.97.24-1.94.34-2.92.04-.39.04-.69.32-.69.15,0,1.73.3,1.99.35.15.04.32.11.32.28,0,.15-.13.26-.26.3-.3.13-.3.17-.45,1.43-.04.32-.11.73-.17,1.23v.13c0,.33.24.43.52.43h1.66c.65,0,1.04.3,1.04.99,0,.32-.06,1.02-.09,1.36-.22,2.25-.54,4.17-1.34,6.29-.04.11-.06.19-.06.32,0,.26.13.39.3.56.32.28,1.77,1.53,1.77,1.9s-.76,1.4-1.17,1.4c-.15,0-.61-.47-1.02-.91-.17-.17-.35-.37-.5-.5-.11-.09-.19-.15-.32-.15Zm-1.38-8.62c-.26,1.19-.56,2.37-.89,3.56-.02.09-.02.15-.02.26,0,.28.13.43.35.61.22.13.41.28.63.43.09.04.17.09.28.09.19,0,.3-.13.37-.3.43-1.17.91-3.52.91-4.75,0-.5-.32-.48-.91-.45-.43,0-.61.13-.71.56Zm11.49-.48c.19-.04.37-.13.37-.37,0-.06-.02-.13-.06-.19-.06-.11-.17-.3-.3-.5-.28-.47-.65-1.06-.65-1.21,0-.43,1.25-.8,1.45-.8.28,0,.43.22.56.43.67,1.04,1.04,1.66,1.6,2.79.19.41.97,1.99.97,2.36,0,.56-1.25.84-1.49.84-.39,0-.43-.28-.78-1.12-.17-.3-.3-.45-.65-.45h-.15c-2.22.28-4.47.54-6.72.78-.17.04-.22.13-.32.32-.06.11-.17.22-.3.22-.22,0-.3-.26-.45-.76-.09-.28-.39-1.25-.39-1.51s.28-.28,1.1-.28h.17c.41-.04.58-.15.74-.56.71-2.03,1.25-3.85,1.77-5.94.04-.19.09-.43.3-.43.32,0,1.53.37,1.86.5.24.09.56.22.56.43,0,.19-.15.22-.26.24-.19.04-.32.06-.39.26-.52,1.62-1.08,3.2-1.69,4.77-.02.04-.04.11-.04.17,0,.24.19.3.39.3.95-.09,1.88-.17,2.81-.28Zm.73,12.44c0-.26-.13-.37-.39-.37h-4.15c-.28,0-.39.11-.41.39.02.06.02.11.02.17,0,.48-.26.48-1.12.48s-1.1-.02-1.1-.5c0-.54.04-1.1.04-1.64v-4.34c0-.43-.02-.86-.02-1.32,0-.74.5-.89,1.14-.89.52,0,1.04.04,1.56.04h3.97c.52,0,1.04-.04,1.56-.04.65,0,1.14.13,1.14.91,0,.43-.02.86-.02,1.3v4.36c0,.56.04,1.1.04,1.66,0,.48-.26.48-1.12.48s-1.14.02-1.14-.45v-.24Zm-.56-2.31c.37-.04.56-.22.61-.6v-2.46c-.04-.37-.24-.58-.61-.58h-3.8c-.39,0-.56.22-.61.58v2.46c.04.39.22.6.61.6h3.8Z"/>
            <g>
              <path class="cls-2" d="m38.85,27.38c0,.07.11.13.33.2,1.76.59,2.53,1.89,2.53,3.47,0,2.44-1.8,4.88-6.6,4.88-1.61,0-3.12-.33-4.11-.79-.33-.15-.46-.28-.46-.51,0-.11.02-.24.09-.4l.37-1.08c.11-.31.2-.46.37-.46.09,0,.22.07.42.18.79.48,2,.86,3.41.86,2.6,0,3.89-1.34,3.89-2.73,0-1.52-1.28-2.29-4.11-2.29-.48,0-1.25.02-1.47.02-.57,0-.66-.09-.66-.64v-.99c0-.57.09-.66.66-.66.24,0,.84.02,1.25.02,2.66,0,3.65-.95,3.65-2.15s-1.08-1.94-2.77-1.94c-1.21,0-2.29.35-3.08.86-.2.13-.33.2-.44.2-.15,0-.26-.13-.4-.44l-.48-1.01c-.09-.2-.13-.33-.13-.44,0-.2.13-.31.44-.46,1.17-.62,2.71-1.03,4.36-1.03,3.61,0,5.08,1.83,5.08,3.81,0,1.21-.48,2.55-1.85,3.28-.18.09-.29.18-.29.24Z"/>
              <path class="cls-2" d="m58.4,30.72c0-.44-.18-.62-.62-.62h-6.47c-.42,0-.64.15-.7.57-.31,1.85-.9,3.61-1.89,5.19-.26.42-.86,1.41-1.39,1.41-.42,0-1.6-.79-1.6-1.32,0-.2.18-.37.31-.53,2.16-2.62,2.48-6.07,2.48-9.32v-4.47c0-.7-.04-1.41-.04-2.11,0-.9.42-1.14,1.25-1.14.66,0,1.32.04,1.98.04h5.83c.66,0,1.32-.04,1.98-.04.86,0,1.28.22,1.28,1.14,0,.7-.04,1.41-.04,2.11v11.22c0,.55.04,1.1.04,1.65,0,.84-.04,1.58-.73,2.13-.86.68-2.16.73-3.21.73-.44,0-1.01-.02-1.17-.53-.11-.33-.2-.99-.2-1.32s.11-.55.48-.55c.33,0,.79.04,1.17.04,1.14,0,1.25-.26,1.25-1.34v-2.95Zm-.62-7.5c.37-.04.57-.24.62-.62v-1.39c-.04-.37-.24-.57-.62-.62h-6.29c-.37.04-.57.24-.62.62v1.39c.04.37.24.57.62.62h6.29Zm-6.31,4.79h6.31c.44,0,.62-.18.62-.62v-1.47c0-.42-.18-.59-.62-.59h-6.29c-.42,0-.62.18-.62.59v.07c0,.48.02.97,0,1.43.02.42.15.59.59.59Z"/>
              <path class="cls-2" d="m73.64,33.52c1.12,0,3.19-.04,3.34-.04.46,0,.55.13.55.64v1.03c0,.51-.09.64-.55.64-.15,0-2.22-.04-3.34-.04h-2.86c-1.12,0-3.19.04-3.34.04-.46,0-.55-.13-.55-.64v-.4c0-.57.07-.73.53-1.08.4-.29.75-.59,1.12-.92,3.96-3.47,6.25-5.67,6.25-7.83,0-1.43-.99-2.42-2.79-2.42-1.32,0-2.46.64-3.21,1.45-.2.22-.33.31-.46.31-.11,0-.24-.11-.44-.31l-.88-.95c-.18-.2-.26-.33-.26-.46,0-.15.11-.29.31-.48,1.25-1.19,3.08-2,5.17-2,3.34,0,5.21,1.98,5.21,4.51,0,3.1-2.48,5.59-5.85,8.51-.18.15-.24.24-.24.31,0,.09.13.13.4.13h1.91Z"/>
              <path class="cls-2" d="m90.16,27.53c0,.09.11.17.33.29,1.63.81,2.93,1.93,2.93,3.89,0,2.51-2.05,4.29-6.4,4.29-3.48,0-5.96-1.5-5.96-4.09,0-1.67.99-3.04,2.82-3.96.22-.11.33-.2.33-.29s-.11-.18-.31-.31c-1.25-.75-2.18-1.8-2.18-3.43,0-2.11,1.96-3.94,5.7-3.94,3.41,0,5.39,1.63,5.39,3.74,0,1.45-.86,2.64-2.33,3.5-.2.11-.31.22-.31.31Zm-3.28,1.21c-.18,0-.37.04-.62.15-1.67.7-2.66,1.58-2.66,2.84,0,1.39,1.52,2.13,3.52,2.13,2.2,0,3.7-.79,3.7-2.22,0-1.34-1.36-2.02-3.34-2.77-.24-.09-.42-.13-.59-.13Zm.44-6.55c-1.72,0-3.01.68-3.01,1.8s1.12,1.76,2.64,2.37c.24.09.42.15.59.15s.37-.07.62-.18c1.34-.64,2.09-1.41,2.09-2.4,0-1.1-1.25-1.76-2.93-1.76Z"/>
              <path class="cls-2" d="m108.13,35.54h-6.71c-.35,0-.51.15-.51.51v.22c0,.62-.22.62-1.25.62-.95,0-1.25,0-1.25-.59,0-.92.07-1.85.07-2.75v-11.06c0-.7-.04-1.39-.04-2.09,0-.88.35-1.14,1.21-1.14.64,0,1.28.04,1.94.04h6.42c.64,0,1.28-.04,1.91-.04.84,0,1.21.22,1.21,1.12,0,.7-.04,1.41-.04,2.11v11.02c0,.92.07,1.82.07,2.75,0,.62-.26.59-1.25.59s-1.25,0-1.25-.59c0-.07,0-.13.02-.2-.02-.35-.18-.51-.53-.51Zm-.04-9.37c.37-.04.57-.24.62-.62v-3.52c-.04-.37-.24-.57-.62-.62h-6.62c-.37.04-.57.24-.62.62v3.52c.04.37.24.57.62.62h6.62Zm-7.24,6.58c.04.37.24.57.62.62h6.62c.37-.04.57-.24.62-.62v-3.87c-.04-.37-.24-.57-.62-.62h-6.62c-.37.04-.57.24-.62.62v3.87Z"/>
            </g>
          </g>
        </g>
      </g>
    </g>
  </g>
</svg>