<svg id="グループ_794" data-name="グループ 794" xmlns="http://www.w3.org/2000/svg" width="26.009" height="12.264" viewBox="0 0 26.009 12.264">
  <path id="パス_7689" data-name="パス 7689" d="M229.311,455.556a.393.393,0,0,0-.444.4v.081a22.264,22.264,0,0,1-.269,3.792,9.488,9.488,0,0,1-1.1,2.986.347.347,0,0,1-.282.161c-.336,0-1.385-.565-1.385-.941a1.086,1.086,0,0,1,.108-.336,14.716,14.716,0,0,0,.995-6.509v-1.465c0-.471-.04-.9-.04-1.237,0-.511.336-.592.78-.592.471,0,.941.027,1.412.027h1.533c.242,0,.444-.121.444-.39,0-.081-.027-.363-.027-.444a.377.377,0,0,1-.013-.121c0-.175.134-.2.282-.2.175,0,1.479.081,1.721.108.148.013.457.013.457.228,0,.094-.081.134-.2.215a.282.282,0,0,0-.134.242.38.38,0,0,0,.43.363h2.219c.551,0,1.1-.04,1.654-.04.337,0,.363.108.363.471v.686c0,.376-.027.484-.363.484-.443,0-.887-.04-1.318-.04-.108,0-.108.067-.108.108s-.108.121-.148.148a.272.272,0,0,0-.121.2.218.218,0,0,0,.242.2h.067c.551,0,1.089-.027,1.64-.027.282,0,.309.121.309.471v.538c0,.336-.027.471-.3.471-.5,0-1-.04-1.493-.04-.282,0-.5.094-.5.417v.3c0,.269.027.525.027.794,0,.363-.282.417-.592.417-.444,0-.888-.027-1.331-.027H232.35c-.5,0-1,.027-1.493.027-.309,0-.551-.067-.551-.43,0-.256.013-.511.013-.78v-.282a.392.392,0,0,0-.417-.43Zm5.191,2.273c.39,0,.78-.027,1.17-.027a1.035,1.035,0,0,1,.78.229c.134.121.4.363.4.537,0,.431-1.385,1.668-1.748,1.95a.289.289,0,0,0-.134.215c0,.162.229.175.524.229a10.943,10.943,0,0,0,2.205.215c.215,0,.3.027.3.377,0,.471-.3,1.385-.753,1.385-.215,0-1.3-.188-1.573-.242a13.3,13.3,0,0,1-2.367-.713.965.965,0,0,0-.39-.081,1.042,1.042,0,0,0-.457.108,17.776,17.776,0,0,1-3.214.9c-.363,0-.471-.255-.632-.78a3.346,3.346,0,0,1-.189-.767c0-.242.256-.242.74-.3a16.475,16.475,0,0,0,1.668-.269c.094-.027.188-.067.188-.175a.205.205,0,0,0-.081-.148c-.175-.161-.834-.834-.834-1.049a.22.22,0,0,1,.108-.161.114.114,0,0,0,.04-.067c0-.067-.067-.081-.188-.081s-.35.027-.632.027c-.256,0-.282-.134-.282-.417v-.511c0-.309.027-.417.282-.417.444,0,.888.027,1.331.027Zm-5.366-4.344a.267.267,0,0,0-.269.255v.134a.27.27,0,0,0,.269.269h.874a.272.272,0,0,0,.3-.283c0-.215-.067-.376-.309-.376Zm3.187,5.635c-.094,0-.162.04-.162.121s.094.134.175.215c.134.134.538.5.713.5s.982-.551.982-.74c0-.08-.134-.094-.336-.094Zm.2-3.564a.281.281,0,0,0-.282.269v.094a.258.258,0,0,0,.269.256h1.156a.247.247,0,0,0,.256-.256v-.094a.258.258,0,0,0-.256-.269Zm.148-2.071c-.108,0-.121.013-.134.08s-.094.094-.148.135a.215.215,0,0,0-.108.188.255.255,0,0,0,.282.256h1.049a.277.277,0,0,0,.3-.269.718.718,0,0,0-.013-.161.261.261,0,0,0-.3-.228Z" transform="translate(-225.828 -450.769)" fill="#856660"/>
  <path id="パス_7690" data-name="パス 7690" d="M265.462,452.853a.318.318,0,0,0,.323-.323v-.524c0-.619-.04-1.022-.04-1.062,0-.148.108-.175.242-.175.282,0,1.211.053,1.533.081.094.013.269.013.269.148,0,.094-.108.148-.188.175-.108.054-.121.108-.121.444v.982a.247.247,0,0,0,.256.255H268c.054,0,.094-.027.094-.054,0-.054-.108-.108-.161-.134s-.188-.134-.188-.242a4.8,4.8,0,0,1,.255-.551c.054-.107.094-.189.215-.444.04-.094.081-.215.121-.309s.054-.148.188-.148c.094,0,1.13.4,1.3.47.108.04.242.081.242.189s-.148.148-.256.175c-.135.04-.148.081-.242.269l-.175.336a1.369,1.369,0,0,0-.121.3c0,.121.081.121.2.148s.121.2.121.39v.672c0,.309-.027.417-.282.417-.283,0-.565-.027-.834-.027-.121,0-.256,0-.256.094,0,.134.753.619.9.713.108.067.189.108.189.2,0,.242-.632,1.022-.914,1.022-.189,0-.5-.35-.646-.5-.04-.04-.121-.134-.188-.134s-.081.107-.081.175c0,.134.013.269.013.4,0,.282-.121.309-.417.309h-.444c-.04,0-.148,0-.148.067s.511.2.605.228c.134.027.349.081.349.256,0,.067-.067.161-.229.161-.215,0-.256.242-.256.269,0,.094.121.108.189.108h.861c.444,0,.888-.027,1.331-.027.349,0,.376.094.376.457v.538c0,.443-.027.484-.39.511a.11.11,0,0,0-.121.108.2.2,0,0,0,.026.081.279.279,0,0,1,.041.094c0,.094-.121.108-.2.134-.255.08-.242.309-.376.551a.467.467,0,0,0-.081.228c0,.161.175.242.309.309.309.161.39.229.39.349,0,.363-.538,1.386-.955,1.386a.308.308,0,0,1-.161-.081,2.286,2.286,0,0,0-.78-.4.428.428,0,0,0-.256.094,5.285,5.285,0,0,1-1.022.551,6.456,6.456,0,0,1-1.788.444c-.457,0-.673-1.089-.673-1.156,0-.3.336-.309.565-.336s1.439-.215,1.439-.444c0-.094-.229-.161-.323-.161a.4.4,0,0,0-.256.134.307.307,0,0,1-.188.054c-.323,0-1.291-.256-1.291-.672a4.8,4.8,0,0,1,.376-.74c.041-.067.081-.134.094-.162a.791.791,0,0,0,.121-.269c0-.094-.094-.094-.175-.094h-.161c-.35,0-.377-.108-.377-.538v-.511c0-.336.027-.457.377-.457.282,0,.551.013.834.013.4,0,.457-.255.659-.928.094-.336.081-.256.256-.283.094-.013.121-.054.121-.524,0-.054,0-.188-.081-.188s-.134.081-.175.134c-.188.242-.955,1.13-1.251,1.13a.473.473,0,0,1-.282-.121c-.081-.053-.713-.605-.713-.861,0-.094.081-.148.148-.2.283-.188,1.385-1.1,1.385-1.412,0-.108-.148-.108-.242-.108-.242,0-.484.027-.74.027s-.3-.108-.3-.39V453.3c0-.39.027-.444.3-.471.094,0,.2-.027.2-.134a5.62,5.62,0,0,0-.511-1.089.316.316,0,0,1-.04-.121c0-.121.094-.161.3-.268a2.737,2.737,0,0,1,.807-.309.249.249,0,0,1,.229.134,7.252,7.252,0,0,1,.4.7.772.772,0,0,0,.054.108,3.532,3.532,0,0,1,.229.578c0,.134-.175.215-.282.283-.027.013-.108.053-.108.094s.067.054.108.054Zm.914,6.28a.361.361,0,0,0-.349.336c0,.108.108.134.3.188.081.027.188.054.269.081a1.264,1.264,0,0,0,.323.081c.229,0,.337-.511.337-.538,0-.134-.094-.148-.2-.148Zm7.289-5.931c.471,0,.928-.04,1.3-.04.35,0,.376.134.376.551v.753c0,.431-.027.551-.376.551-.041,0-.081-.013-.108-.013s-.121.013-.121.067.094.081.134.094a.187.187,0,0,1,.134.162c0,.108-.121.161-.2.2-.256.121-.242.148-.309.565a10.646,10.646,0,0,1-.807,2.73,1.385,1.385,0,0,0-.175.565c0,.551,1.358,1.6,1.8,1.95.067.053.161.121.161.215,0,.363-.874,1.3-1.3,1.3-.134,0-.336-.229-.511-.377a.759.759,0,0,1-.108-.094c-.256-.256-.5-.524-.753-.794a.69.69,0,0,0-.457-.282c-.229,0-.484.309-.632.471-.242.269-1.251,1.251-1.573,1.251-.282,0-1.022-.928-1.022-1.183,0-.135.121-.215.215-.283.457-.323,1.815-1.493,1.815-2.044a1.331,1.331,0,0,0-.188-.578,1.3,1.3,0,0,0-.054-.134c-.121-.309-.3-.686-.39-1-.027-.081-.081-.256-.189-.256-.067,0-.121.054-.175.094a.223.223,0,0,1-.161.067c-.336,0-1.251-.632-1.251-.888a.743.743,0,0,1,.094-.215,13.394,13.394,0,0,0,1.506-3.349,22.82,22.82,0,0,0,.524-2.259c.027-.134.013-.229.175-.229a11.687,11.687,0,0,1,1.439.35c.121.027.35.108.35.269,0,.094-.108.148-.175.175-.188.081-.2.121-.3.551-.04.162-.067.377-.134.659a1.186,1.186,0,0,0-.027.2c0,.175.081.215.255.215Zm-1.843,1.775a.331.331,0,0,0-.363.377,4.755,4.755,0,0,0,.269,1.13c.067.228.3.982.471.982s.255-.43.349-.807a8.938,8.938,0,0,0,.242-1.439c0-.2-.108-.242-.283-.242Z" transform="translate(-249.472 -450.769)" fill="#856660"/>
</svg>
