<svg id="グループ_779" data-name="グループ 779" xmlns="http://www.w3.org/2000/svg" width="29.064" height="9.79" viewBox="0 0 29.064 9.79">
  <path id="パス_7564" data-name="パス 7564" d="M1389.777,605.492c0,.04.068.081.2.121a2.106,2.106,0,0,1,1.547,2.125c0,1.492-1.1,2.985-4.034,2.985a6.289,6.289,0,0,1-2.515-.484c-.2-.094-.282-.175-.282-.309a.607.607,0,0,1,.054-.242l.229-.659c.068-.188.121-.283.229-.283a.676.676,0,0,1,.255.108,4.1,4.1,0,0,0,2.085.525c1.587,0,2.38-.821,2.38-1.668,0-.928-.78-1.4-2.515-1.4-.3,0-.767.014-.9.014-.35,0-.4-.054-.4-.39v-.605c0-.35.054-.4.4-.4.148,0,.511.014.766.014,1.627,0,2.233-.578,2.233-1.318s-.659-1.183-1.695-1.183a3.527,3.527,0,0,0-1.882.525.55.55,0,0,1-.269.121c-.094,0-.161-.081-.242-.269l-.3-.618a.718.718,0,0,1-.08-.269c0-.121.08-.188.269-.282a5.806,5.806,0,0,1,2.663-.632c2.205,0,3.106,1.116,3.106,2.326a2.183,2.183,0,0,1-1.129,2C1389.845,605.4,1389.777,605.452,1389.777,605.492Z" transform="translate(-1384.694 -600.974)" fill="#836660"/>
  <path id="パス_7565" data-name="パス 7565" d="M1413.921,605.517c0,.054.067.108.2.175a2.658,2.658,0,0,1,1.788,2.38c0,1.533-1.25,2.623-3.913,2.623-2.125,0-3.644-.915-3.644-2.5a2.713,2.713,0,0,1,1.721-2.421c.135-.067.2-.121.2-.175s-.067-.108-.189-.189a2.375,2.375,0,0,1-1.331-2.1c0-1.291,1.2-2.407,3.483-2.407,2.084,0,3.295,1,3.295,2.286a2.486,2.486,0,0,1-1.426,2.138C1413.988,605.4,1413.921,605.463,1413.921,605.517Zm-2,.74a.9.9,0,0,0-.376.094c-1.022.43-1.627.968-1.627,1.735,0,.847.928,1.3,2.152,1.3,1.345,0,2.259-.484,2.259-1.359,0-.82-.833-1.237-2.044-1.694A1.06,1.06,0,0,0,1411.917,606.256Zm.269-4.008c-1.049,0-1.842.417-1.842,1.1s.685,1.076,1.613,1.453a1.112,1.112,0,0,0,.363.094.948.948,0,0,0,.376-.107c.821-.39,1.278-.861,1.278-1.465C1413.975,602.652,1413.209,602.249,1412.187,602.249Z" transform="translate(-1399.64 -600.904)" fill="#836660"/>
  <path id="パス_7566" data-name="パス 7566" d="M1437.984,603.726c0,1.856-1.036,2.918-2.475,2.918a2.4,2.4,0,0,1-2.353-2.7c0-1.748.941-2.891,2.5-2.891A2.368,2.368,0,0,1,1437.984,603.726Zm-3.47.242c0,.941.431,1.439,1.009,1.439.672,0,1.116-.578,1.116-1.6,0-.928-.417-1.452-1.022-1.452C1434.9,602.354,1434.514,603.013,1434.514,603.968Zm1.547,6.683c-.2,0-.3-.027-.3-.121a.622.622,0,0,1,.081-.242c.229-.43.457-.887.673-1.3l3.066-6.186c.2-.4.417-.861.619-1.3.134-.309.215-.363.565-.363h.713c.2,0,.3.027.3.121a.582.582,0,0,1-.081.228c-.242.471-.484.942-.686,1.358L1437.957,609c-.2.43-.417.861-.618,1.291-.148.309-.215.363-.565.363Zm8.311-2.838c0,1.856-1.035,2.918-2.474,2.918a2.4,2.4,0,0,1-2.354-2.7c0-1.748.942-2.891,2.5-2.891A2.367,2.367,0,0,1,1444.372,607.814Zm-3.47.242c0,.942.43,1.439,1.009,1.439.672,0,1.116-.579,1.116-1.6,0-.928-.417-1.452-1.022-1.452C1441.292,606.443,1440.9,607.1,1440.9,608.056Z" transform="translate(-1415.308 -600.996)" fill="#836660"/>
</svg>
