<svg id="グループ_789" data-name="グループ 789" xmlns="http://www.w3.org/2000/svg" width="53.013" height="12.412" viewBox="0 0 53.013 12.412">
  <path id="パス_7671" data-name="パス 7671" d="M190.406,308.729c.282,0,.551-.013.834-.013a1.071,1.071,0,0,1,.888.363.841.841,0,0,1,.336.605,16.17,16.17,0,0,1-.767,3.268,10.494,10.494,0,0,1-1.613,2.918c-.094.121-.189.256-.35.256a2.528,2.528,0,0,1-1.493-1.062c0-.081.094-.188.148-.256a9.3,9.3,0,0,0,1.762-3.093,7,7,0,0,0,.282-1.1c0-.122-.094-.135-.323-.135h-.175c-.309,0-.605.027-.914.027-.242,0-.269-.108-.269-.5v-.888c0-.309.027-.417.256-.417.309,0,.618.027.928.027Zm2.1-1.546c-.5,0-1,.04-1.493.04-.336,0-.363-.134-.363-.524V306c0-.376.027-.511.35-.511.5,0,1.008.027,1.506.027h2.851c.538,0,1.063-.014,1.6-.014.457,0,.538.134.794.471a1.8,1.8,0,0,1,.444.793c0,.444-2.071,1.762-2.488,1.991-.175.094-.363.2-.363.4a.194.194,0,0,0,.215.2h.134c.377,0,.417.134.417.5v.551c0,.417-.04.524-.444.524H195.5a.17.17,0,0,0-.175.175c0,.121.081.148.189.148.175,0,.336-.014.511-.014.363,0,.4.135.4.511v.632c0,.376-.054.484-.431.484-.175,0-.336-.026-.511-.026-.08,0-.161.026-.161.134v.067a.149.149,0,0,0,.148.148h.2c.39,0,.753-.027,1.035-.027.35,0,.39.148.39.524v.605c0,.35-.027.538-.35.538s-.659-.027-.982-.027c-.269,0-.444.108-.444.39,0,.255.027.5.027.74a1.556,1.556,0,0,1-.282.941,2.775,2.775,0,0,1-1.923.605c-.713,0-.888-.04-1-.323a3.945,3.945,0,0,1-.134-1.13c0-.175,0-.471.242-.471.188,0,.5.04.753.04.4,0,.444-.108.444-.363,0-.3-.135-.43-.431-.43-.323,0-.659.041-.955.041-.363,0-.39-.162-.39-.538v-.579c0-.417.027-.565.39-.565.283,0,.645.027,1.035.027h.2a.149.149,0,0,0,.148-.148v-.054c0-.108-.094-.148-.189-.148-.175,0-.35.026-.511.026-.39,0-.43-.134-.43-.538v-.605c0-.377.067-.484.43-.484.161,0,.323.014.484.014.108,0,.215-.041.215-.161s-.067-.161-.175-.161h-.215c-.39,0-.43-.121-.43-.484v-.673c0-.349.08-.4.443-.417.242-.013.377-.053.377-.376,0-.188-.054-.592-.054-.7,0-.188.134-.175.309-.215a2.71,2.71,0,0,0,1.264-.82c0-.067-.081-.067-.336-.067Zm6.7,1.681a.217.217,0,0,1,.148.067c.108.108.914.914,1.13,1.183.081.108.108.162.108.215a.178.178,0,0,1-.175.175c-.041,0-.108-.014-.175-.014a.243.243,0,0,0-.2.094c-.35.35-.632.592-.82.753-.35.309-.43.39-.43.551a1.693,1.693,0,0,0,.175.565,12.518,12.518,0,0,0,1.358,2.3c.067.08.188.215.188.323,0,.39-1.278,1.062-1.573,1.062-.121,0-.2-.108-.256-.188a12.165,12.165,0,0,1-1.708-3.322,17.238,17.238,0,0,1-.74-3.4,2.367,2.367,0,0,1-.027-.309c0-.5,1.156-.605,1.52-.605.309,0,.309.135.35.511.04.417.054.807.229.807.134,0,.565-.457.659-.579C199.026,308.971,199.107,308.864,199.2,308.864Z" transform="translate(-188.241 -305.071)" fill="#856660"/>
  <path id="パス_7672" data-name="パス 7672" d="M228.721,307.627c.511,0,.833-.027,1.062-.027.363,0,.417.081.417.5v.43c0,.471-.054.551-.43.551-.215,0-.551-.027-1.049-.027h-1.412c-.511,0-.834.027-1.063.027-.39,0-.417-.094-.417-.551v-.417c0-.35.027-.511.35-.511.377,0,.753.027,1.13.027Zm-2.609,7.276c0-.363-.027-.713-.027-1.036,0-.592.269-.767.82-.767.336,0,.672.027,1,.027h.282c.336,0,.659-.027.982-.027.565,0,.847.175.847.78,0,.336-.027.672-.027,1.022v.363c0,.067,0,.242.067.242.108,0,.162-.5.175-.6a11.765,11.765,0,0,0,.134-1.184c.014-.188,0-.3.229-.3.108,0,.982.134,1.13.161s.417.067.417.256c0,.108-.094.148-.175.2a.317.317,0,0,0-.121.3,14.142,14.142,0,0,1-.349,2.259c-.041.188-.108.35-.377.35a3.662,3.662,0,0,1-.673-.121,1.75,1.75,0,0,0-.255-.053c-.148,0-.175.161-.175.269v.134c0,.323-.148.35-.524.35h-.417c-.605,0-.7,0-.713-.363-.014-.161-.121-.215-.269-.215-.188,0-.255.108-.269.282-.013.269-.175.3-.538.3h-.659c-.4,0-.551-.027-.551-.35,0-.376.041-.834.041-1.251Zm2.38-9.131c.336,0,.673-.027,1.008-.027.3,0,.323.161.323.5v.5c0,.336-.027.511-.309.511-.35,0-.686-.027-1.022-.027h-.834c-.336,0-.659.027-1,.027-.309,0-.336-.148-.336-.511v-.5c0-.323.027-.5.309-.5.35,0,.686.027,1.022.027Zm-.134,3.684c.5,0,.82-.027,1.035-.027.4,0,.444.081.444.538v.39c0,.47-.027.551-.417.551-.229,0-.551-.027-1.063-.027h-.551c-.511,0-.834.027-1.049.027-.4,0-.417-.094-.417-.632v-.35c0-.336.027-.5.336-.5.377,0,.605.027.982.027Zm-.027,1.856c.376,0,.766-.027,1.143-.027s.376.161.376.538v.323c0,.4-.014.565-.376.565-.39,0-.767-.027-1.143-.027h-.471c-.39,0-.78.027-1.17.027-.323,0-.35-.161-.35-.484v-.444c0-.35.027-.5.363-.5.39,0,.766.027,1.156.027Zm-.538,3.967a.271.271,0,0,0,.256.282h.094a.267.267,0,0,0,.256-.269v-.39a.255.255,0,0,0-.256-.256h-.094a.256.256,0,0,0-.256.256Zm7.531-9.454c.39,0,.834-.027,1.251-.027.74,0,.888.256.888.955a19.778,19.778,0,0,1-.471,4.115c-.3.928-.981,1.144-1.883,1.144-.4,0-.659-.094-.766-.511a2.669,2.669,0,0,1-.081-.431c0-.08,0-.188-.094-.188a.255.255,0,0,0-.134.067.257.257,0,0,1-.188.094.781.781,0,0,1-.35-.175,1.047,1.047,0,0,0-.363-.188c-.094,0-.2.148-.3.269-.242.283-1.291,1.372-1.641,1.372-.39,0-1.223-1.009-1.223-1.184,0-.121.35-.323.578-.47.175-.122.807-.646.807-.861,0-.162-.47-.323-.605-.377s-.269-.094-.269-.269.578-1.372.847-1.372a2.174,2.174,0,0,1,.524.215.5.5,0,0,0,.189.054c.148,0,.175-.189.175-.3,0-.215-.175-.269-.363-.269-.309,0-.618.041-.928.041-.349,0-.377-.134-.377-.525v-.7c0-.4.027-.524.377-.524.43,0,.847.04,1.278.04Zm-1.358,9.279c0,.444.027.485.2.485h.081c.2,0,.229-.215.256-.78.013-.148.027-.256.282-.256a3.965,3.965,0,0,1,.78.148c.04,0,.108.013.148.013.081,0,.121-.027.121-.108a2.2,2.2,0,0,0-.242-.592,1.033,1.033,0,0,1-.134-.309c0-.269,1.184-.7,1.291-.7.189,0,.256.188.323.336a16.146,16.146,0,0,1,1.035,2.609c0,.283-1.156.726-1.318.726-.228,0-.282-.269-.376-.565-.027-.054-.081-.256-.161-.256s-.121.189-.162.377c-.215.955-.538,1.2-1.506,1.2H233.7c-1.251,0-1.546-.242-1.546-1.479,0-.3.027-.578.027-.874v-.726c0-.3,0-.7-.027-.982a.365.365,0,0,1-.014-.121c0-.161.121-.175.256-.175.242,0,.484.027.726.027h.081c.054,0,.094,0,.094-.054s-.431-.4-.5-.457-.175-.148-.175-.255c0-.269.807-.968,1.062-.968.189,0,.982.753,1.157.928.134.121.645.6.645.766a2.154,2.154,0,0,1-1.076,1.022c-.081,0-.148-.081-.188-.134s-.094-.121-.148-.121c-.108,0-.108.148-.108.336Zm.471-7.611c-.309,0-.35.242-.417.673-.027.148-.054.309-.094.484a1.466,1.466,0,0,0-.027.242c0,.2.215.3.471.444.161.094.309.162.309.35a.578.578,0,0,1-.027.148.566.566,0,0,0-.027.148c0,.121.094.148.189.148.39,0,.511-.162.565-.524.054-.336.148-1.466.148-1.816,0-.282-.094-.3-.417-.3Z" transform="translate(-211.986 -305.233)" fill="#856660"/>
  <path id="パス_7673" data-name="パス 7673" d="M271.94,307.665c0,.148.2.148.377.148.551,0,1.1-.04,1.668-.04.3,0,.323.121.323.471v.713c0,.35-.027.471-.323.471-.565,0-1.143-.027-1.708-.027h-.686c-.081,0-.242.014-.242.121a8.7,8.7,0,0,0,2.824,1.869c.121.054.242.108.242.256,0,.309-.793,1.318-1.1,1.318a1.3,1.3,0,0,1-.4-.134.3.3,0,0,0-.148-.041c-.134,0-.2.148-.2.269v2.219c0,.457.04.9.04,1.063,0,.282-.2.309-.524.309h-1.009c-.444,0-.5-.081-.511-.323a.275.275,0,0,0-.256-.256h-3.994c-.148,0-.242.108-.256.35s-.336.229-.5.229h-.888c-.39,0-.645,0-.645-.3,0-.162.04-.632.04-1.076v-2.34c0-.122-.067-.269-.215-.269a.311.311,0,0,0-.148.04,1.329,1.329,0,0,1-.417.162c-.417,0-1.022-1-1.022-1.372,0-.134.134-.175.376-.269a7.179,7.179,0,0,0,2.7-1.708c0-.107-.148-.121-.229-.121h-.7c-.565,0-1.13.027-1.695.027-.309,0-.336-.134-.336-.538v-.578c0-.39.027-.538.336-.538.524,0,1.049.04,1.573.04.269,0,.444-.013.444-.148a1.838,1.838,0,0,0-.269-.538.533.533,0,0,1-.108-.215.278.278,0,0,1,.134-.188c.094-.054.121-.067.121-.121s-.134-.08-.336-.08h-.444a.436.436,0,0,1-.484-.3,3.716,3.716,0,0,1-.148-.941c0-.215.108-.282.323-.282.659,0,1.547.067,2.367.067a24.488,24.488,0,0,0,5.863-.632.669.669,0,0,1,.256-.08c.121,0,.282.188.551.5l.39.431c.121.121.417.444.417.605a.133.133,0,0,1-.121.134.565.565,0,0,1-.215-.054.393.393,0,0,0-.215-.054c-.054,0-.35.067-.471.094-.081.027-.161.067-.161.161,0,.121.121.148.3.2s.417.134.417.256-.121.148-.2.161c-.175.027-.2.067-.3.2-.041.054-.094.108-.134.161C272.1,307.356,271.94,307.544,271.94,307.665Zm-1.546,3.819c.188,0,.323,0,.323-.108,0-.081-.094-.148-.189-.215a9.343,9.343,0,0,1-.82-.807c-.054-.067-.108-.148-.2-.148s-.121.094-.121.175v.538c0,.323-.162.35-.619.35h-.82c-.457,0-.619-.027-.619-.376,0-.189.014-.377.014-.579,0-.081-.027-.2-.135-.2a.138.138,0,0,0-.108.067,7.87,7.87,0,0,1-.968.928c-.067.053-.229.188-.229.269,0,.108.108.108.282.108Zm-3.2,1.789a.162.162,0,0,0,.175-.175v-.054a.178.178,0,0,0-.175-.175h-1a.17.17,0,0,0-.175.175v.054a.17.17,0,0,0,.175.175Zm-1,1.062a.17.17,0,0,0-.175.175v.067a.17.17,0,0,0,.175.175h1a.178.178,0,0,0,.175-.175v-.067a.169.169,0,0,0-.175-.175Zm1.17-7.477a.371.371,0,0,0-.39-.377c-.377,0-.632,0-.632.215a1.522,1.522,0,0,0,.175.444,3.868,3.868,0,0,1,.188.417.308.308,0,0,0,.323.255.314.314,0,0,0,.336-.323Zm3.053,6.415a.178.178,0,0,0,.175-.175v-.054a.178.178,0,0,0-.175-.175h-1.008a.178.178,0,0,0-.175.175v.054a.17.17,0,0,0,.175.175Zm-1.008,1.062a.178.178,0,0,0-.175.175v.067a.178.178,0,0,0,.175.175h1.008a.178.178,0,0,0,.175-.175v-.067a.178.178,0,0,0-.175-.175Zm-.054-6.7a.166.166,0,0,0,.161.175c.229,0,.363-.188.471-.363a4.726,4.726,0,0,0,.551-1.062c0-.081-.054-.094-.161-.094-.067,0-.713.054-.753.067a.338.338,0,0,0-.269.363Z" transform="translate(-234.998 -304.357)" fill="#856660"/>
  <path id="パス_7674" data-name="パス 7674" d="M308.128,312.585c.376,0,.753-.027,1.13-.027.766,0,.874.175.874.686a8.185,8.185,0,0,1-.847,3.214c-.5.9-1.278.914-2.568.928-.471,0-.928-.027-1.049-.417a4.564,4.564,0,0,1-.148-1.13c0-.229.067-.323.376-.323.215,0,.538.054.767.081.094,0,.336.013.444.013.336,0,.511-.027.645-.3a2.567,2.567,0,0,0,.242-.955c0-.229-.148-.256-.524-.256h-3.362c-.3,0-.376.134-.5.363-.148.282-.349.309-.646.309s-1.412-.094-1.412-.484a1.239,1.239,0,0,1,.148-.4,1.273,1.273,0,0,0,.067-.148c.189-.39.363-.793.552-1.183a1.064,1.064,0,0,0,.148-.39c0-.188-.215-.215-.363-.215h-.35c-.565,0-1.13.04-1.694.04-.309,0-.336-.134-.336-.511v-.565c0-.39.027-.511.336-.511.565,0,1.13.027,1.694.027h7.894c.565,0,1.13-.027,1.695-.027.309,0,.336.135.336.511v.565c0,.377-.027.511-.323.511-.565,0-1.143-.04-1.708-.04h-4.653a.444.444,0,0,0-.457.417c0,.2.229.2.337.215Zm-4.263-2.985c-.081,0-.121.067-.148.134-.081.175-.229.188-.578.188h-.861c-.5,0-.646-.027-.646-.3,0-.215.041-.793.041-1.237V307c0-.323-.027-.632-.027-.941,0-.524.524-.538.928-.538.444,0,.9.027,1.345.027h3.523c.457,0,.9-.027,1.358-.027.4,0,.928.014.928.538,0,.3-.041.591-.041.941v1.385c0,.4.054,1.063.054,1.237,0,.269-.162.3-.672.3h-.592c-.686,0-.74,0-.847-.242,0-.013-.041-.067-.134-.081Zm-.188-1.883a.376.376,0,0,0,.376.376h3.268a.384.384,0,0,0,.376-.376V307.5a.376.376,0,0,0-.376-.377h-3.268a.368.368,0,0,0-.376.377Z" transform="translate(-258.665 -305.095)" fill="#856660"/>
</svg>
