<svg id="グループ_781" data-name="グループ 781" xmlns="http://www.w3.org/2000/svg" width="143.778" height="11.726" viewBox="0 0 143.778 11.726">
  <path id="パス_7576" data-name="パス 7576" d="M1236.311,893.585a5.827,5.827,0,0,0,.726-.027c.081,0,.175-.014.256-.014.215,0,.4.2.551.349.2.189.336.3.336.458s-.108.323-.2.914c-.5,2.972-1.237,5.11-3.631,7.114a5.992,5.992,0,0,1-1.627,1.076c-.3,0-.942-.78-.942-1,0-.148.256-.255.377-.323a8.253,8.253,0,0,0,2.205-1.775,8.061,8.061,0,0,0,1.641-2.945,9.452,9.452,0,0,0,.39-2.1c0-.309-.269-.336-.524-.336h-4.882a.4.4,0,0,0-.4.4V897.2c0,.323.027.659.027.995s-.134.35-.793.35c-.591,0-.712-.027-.712-.323,0-.349.027-.686.027-1.035v-2.353c0-.188-.014-.363-.014-.551,0-.511.054-.713.74-.713.5,0,.981.013,1.466.013Z" transform="translate(-1229.103 -891.972)" fill="#836660"/>
  <path id="パス_7577" data-name="パス 7577" d="M1272.485,895.909c0,.229-.538.753-.713.928a23.363,23.363,0,0,1-7.3,5.07c-.444.215-.457.229-.565.457a.136.136,0,0,1-.135.081c-.148,0-.431-.538-.525-.7a3.784,3.784,0,0,1-.4-.807c0-.148.242-.175.417-.229a18.4,18.4,0,0,0,8.243-5.85.331.331,0,0,1,.229-.148C1272,894.712,1272.485,895.707,1272.485,895.909Zm-6.939-2.219c.174.121.82.565.82.766,0,.309-.632,1.036-.888,1.036a1.437,1.437,0,0,1-.538-.364,16.875,16.875,0,0,0-1.788-1.25c-.108-.067-.215-.134-.215-.255,0-.2.538-1.063.847-1.063A10.675,10.675,0,0,1,1265.546,893.69Z" transform="translate(-1250.417 -891.35)" fill="#836660"/>
  <path id="パス_7578" data-name="パス 7578" d="M1303.935,894.007c.565,0,1.13-.04,1.695-.04.39,0,.417.067.417.713,0,.551-.027.74-.377.74-.578,0-1.157-.027-1.735-.027h-1.762c-.376,0-.376.336-.43.619a6.8,6.8,0,0,1-.887,2.434,5.929,5.929,0,0,1-2.8,2.192,2.339,2.339,0,0,1-.633.215c-.3,0-1.022-.888-1.022-1.1,0-.162.2-.189.363-.242a6.452,6.452,0,0,0,1.694-.7,4.021,4.021,0,0,0,1.694-2.448,6.323,6.323,0,0,0,.108-.645.308.308,0,0,0-.309-.323h-2.731c-.565,0-1.17.04-1.694.04-.363,0-.349-.255-.349-.766s.013-.7.336-.7c.47,0,1.116.04,1.707.04Zm-2.071-3.523c.592,0,1.237-.04,1.694-.04.4,0,.377.269.377.807,0,.457,0,.646-.363.646-.565,0-1.143-.027-1.708-.027H1299c-.565,0-1.13.027-1.708.027-.376,0-.349-.215-.349-.7s-.027-.753.376-.753c.431,0,1.076.04,1.681.04Zm4.4,1.358c0,.2-.5.592-.673.592-.067,0-.161-.121-.282-.269-.255-.35-.538-.672-.821-1a.265.265,0,0,1-.121-.175c0-.148.524-.525.672-.525A5.006,5.006,0,0,1,1306.262,891.842Zm.565-1.923c.108.121.538.578.538.713,0,.188-.484.592-.659.592-.094,0-.188-.148-.336-.337-.215-.282-.552-.645-.794-.9a.274.274,0,0,1-.108-.175c0-.162.511-.538.659-.538C1306.248,889.274,1306.719,889.8,1306.827,889.919Z" transform="translate(-1270.845 -889.274)" fill="#836660"/>
  <path id="パス_7579" data-name="パス 7579" d="M1339.966,902.97c.619,0,1.493-.04,1.668-.04.363,0,.377.108.377.847,0,.431-.013.686-.363.686-.565,0-1.13-.027-1.681-.027h-6.186c-.551,0-1.116.027-1.68.027-.35,0-.364-.255-.364-.672,0-.753.027-.861.377-.861.175,0,1.1.04,1.667.04Z" transform="translate(-1293.937 -897.901)" fill="#836660"/>
  <path id="パス_7580" data-name="パス 7580" d="M1366.763,894.625c.188.229.565.834.74,1.1a7.489,7.489,0,0,1,.739,1.345c0,.282-.887.686-1.076.686-.161,0-.229-.161-.3-.3a16.728,16.728,0,0,0-1.224-2.071.638.638,0,0,1-.148-.282c0-.228.82-.632,1.021-.632A.331.331,0,0,1,1366.763,894.625Zm8.445-.39c.161.054.511.161.511.309,0,.094-.094.148-.147.188a.563.563,0,0,0-.256.35,11.485,11.485,0,0,1-3.47,6.038,10.361,10.361,0,0,1-3.886,2.031,1.062,1.062,0,0,1-.3.067c-.269,0-.887-.9-.887-1.116s.4-.268.564-.309a8.125,8.125,0,0,0,6-5.339,10.431,10.431,0,0,0,.619-2.394c.014-.094.027-.215.135-.215A9.258,9.258,0,0,1,1375.208,894.235Zm-5.016-.524c.256.336.484.686.7,1.035a7.331,7.331,0,0,1,.753,1.372c0,.268-.9.672-1.089.672-.148,0-.2-.148-.309-.336a17.392,17.392,0,0,0-1.211-2.044.642.642,0,0,1-.148-.282c0-.215.821-.619,1.022-.619C1370.045,893.509,1370.125,893.617,1370.192,893.711Z" transform="translate(-1315.266 -891.949)" fill="#836660"/>
  <path id="パス_7581" data-name="パス 7581" d="M1401.863,899.86c.148.174.457.659.592.874a4.908,4.908,0,0,1,.579,1.062c0,.282-.807.619-.968.619-.135,0-.2-.121-.256-.229a13.224,13.224,0,0,0-.968-1.627.5.5,0,0,1-.108-.242c0-.242.726-.579.9-.579A.3.3,0,0,1,1401.863,899.86Zm6.657-.215c.108.04.242.108.242.242,0,.094-.094.148-.161.2-.107.08-.121.121-.175.282a10.045,10.045,0,0,1-1.842,3.765,7.676,7.676,0,0,1-3.658,2.34,2.346,2.346,0,0,1-.417.108c-.256,0-.753-.739-.753-.928,0-.148.081-.2.215-.242a6.565,6.565,0,0,0,4.168-2.837,7.8,7.8,0,0,0,1.1-3.053c.013-.121.027-.269.175-.269A9.09,9.09,0,0,1,1408.52,899.645Zm-3.362.3a5.316,5.316,0,0,1,.606,1.1c0,.269-.781.619-.968.619-.135,0-.215-.148-.269-.255a14.446,14.446,0,0,0-.941-1.587.452.452,0,0,1-.121-.269c0-.229.726-.565.9-.565s.444.376.673.753Z" transform="translate(-1337.523 -895.409)" fill="#836660"/>
  <path id="パス_7582" data-name="パス 7582" d="M1439.38,896.037c.564,0,1.13-.04,1.707-.04.417,0,.4.108.4.74,0,.457,0,.713-.363.713-.592,0-1.17-.027-1.748-.027h-1.762c-.376,0-.39.349-.431.632a5.488,5.488,0,0,1-2.9,4.236,6.238,6.238,0,0,1-1.4.591c-.3,0-1.036-.888-1.036-1.116,0-.148.255-.2.377-.228a6.369,6.369,0,0,0,1.681-.7,3.97,3.97,0,0,0,1.694-2.448,6.234,6.234,0,0,0,.121-.659.316.316,0,0,0-.323-.309h-2.73c-.551,0-1.116.027-1.681.027-.349,0-.363-.2-.363-.686,0-.619.04-.766.336-.766.578,0,1.143.04,1.708.04Zm-1.991-3.523c.579,0,1.157-.027,1.748-.027.363,0,.35.174.35.833,0,.417.013.605-.364.605-.565,0-1.143-.027-1.722-.027h-2.932c-.578,0-1.156.027-1.721.027-.4,0-.363-.215-.363-.726,0-.565.013-.713.363-.713.578,0,1.156.027,1.748.027Z" transform="translate(-1356.406 -891.304)" fill="#836660"/>
  <path id="パス_7583" data-name="パス 7583" d="M1471.744,904.053c0,.457.027.9.027,1.358,0,.336-.282.363-.538.363-.753,0-.793-.067-.793-.43,0-.417.027-.847.027-1.264V901.3c0-.067-.027-.2-.161-.2s-.255.122-.35.189a12.786,12.786,0,0,1-2.205,1.3,1.594,1.594,0,0,1-.861-.888c0-.148.161-.215.309-.283a12.647,12.647,0,0,0,5.285-4.344c.067-.107.121-.242.229-.242a2.873,2.873,0,0,1,.793.471c.135.08.377.229.377.4,0,.107-.094.148-.188.161a.654.654,0,0,0-.39.3,16.447,16.447,0,0,1-1.21,1.345.772.772,0,0,0-.35.74Z" transform="translate(-1379.314 -894.048)" fill="#836660"/>
  <path id="パス_7584" data-name="パス 7584" d="M1503.647,894.575a9.628,9.628,0,0,0,1.4-.067.7.7,0,0,1,.175-.014c.2,0,.336.175.5.35s.5.537.5.78c0,.148-.189.282-.3.363-.08.067-1.089,1.116-1.25,1.291-.471.484-1.17,1.17-1.668,1.614-.094.081-.188.188-.323.188-.229,0-.982-.592-.982-.82,0-.134.242-.323.336-.4a13.129,13.129,0,0,0,1.735-1.721c0-.188-.3-.161-.417-.161h-5.769c-.619,0-1.224.041-1.829.041-.35,0-.363-.148-.363-.686v-.269c0-.35.027-.511.336-.511.619,0,1.237.027,1.856.027Zm-2.354,2.152c.094.014.283.014.283.161a.206.206,0,0,1-.081.135,2.306,2.306,0,0,0-.269.968,8.091,8.091,0,0,1-3.227,5.716c-.107.081-.3.242-.444.242-.229,0-1.1-.7-1.1-.941,0-.122.135-.175.323-.3a6.368,6.368,0,0,0,2.811-3.913,7.2,7.2,0,0,0,.215-2c0-.108,0-.175.134-.175C1500.11,896.619,1501.092,896.7,1501.294,896.727Z" transform="translate(-1397.319 -892.572)" fill="#836660"/>
  <path id="パス_7585" data-name="パス 7585" d="M1531.238,893.926c.161.027.336.027.336.161,0,.068-.081.135-.135.188-.081.081-.067.309-.067.43v.3c0,2.784-.189,5.151-2.327,7.195-.108.094-.269.282-.417.282-.2,0-1.2-.5-1.2-.739,0-.094.108-.189.175-.242,2.044-1.694,2.3-3.577,2.3-6.078,0-.4-.013-.941-.053-1.331,0-.04-.013-.108-.013-.148,0-.121.081-.148.175-.148C1530.27,893.792,1530.956,893.885,1531.238,893.926Zm3.187,5.621c0,.417.014.618.215.618.444,0,3.093-2.367,3.523-2.81.068-.067.162-.175.269-.175.228,0,.686.861.686,1.076s-.525.632-.7.78c-.807.7-1.614,1.385-2.461,2.017-.363.282-.941.713-1.264,1-.121.094-.255.242-.417.242a3.477,3.477,0,0,1-.928-.4c-.188-.107-.43-.242-.43-.484,0-.094.054-.968.054-1.614v-4.707a11.733,11.733,0,0,0-.054-1.371v-.067a.12.12,0,0,1,.134-.135c.081,0,.417.054.525.068.7.094,1.089.134,1.089.282,0,.094-.053.121-.108.188a.528.528,0,0,0-.121.35c-.014.309-.014.981-.014,1.318Z" transform="translate(-1417.56 -891.949)" fill="#836660"/>
  <path id="パス_7586" data-name="パス 7586" d="M1569.836,894.366c.282,0,.941,0,1.21-.027.053,0,.2-.027.242-.027.322,0,.9.726.9.861s-.121.282-.229.861a8.272,8.272,0,0,1-3.59,5.917,12.509,12.509,0,0,1-2.582,1.372,1.371,1.371,0,0,1-.444.121c-.323,0-.807-.9-.807-1.117,0-.148.121-.188.242-.215a9.445,9.445,0,0,0,3.348-1.775,6.248,6.248,0,0,0,2.205-3.927,2.5,2.5,0,0,0,.027-.323c0-.255-.229-.282-.471-.282h-4.774c-.565,0-1.116.027-1.681.027-.417,0-.4-.121-.4-.726s-.013-.767.364-.767c.578,0,1.156.027,1.734.027Z" transform="translate(-1440.048 -892.457)" fill="#836660"/>
  <path id="パス_7587" data-name="パス 7587" d="M1603,899.625a8.715,8.715,0,0,0,1.022-.04.659.659,0,0,1,.161-.013c.336,0,.847.712.847.928,0,.148-.148.242-.256.336s-.928.955-1.1,1.13c-.269.269-.915.9-1.17,1.129a.4.4,0,0,1-.269.108c-.2,0-.82-.5-.82-.7,0-.108.134-.2.242-.3.175-.148.955-.861,1.1-1.009a.3.3,0,0,0,.108-.2c0-.148-.161-.162-.269-.162h-4.249c-.471,0-.942.027-1.412.027-.336,0-.336-.2-.336-.565,0-.43-.027-.686.336-.686.47,0,.941.013,1.412.013Zm-1.735,1.856c.094.014.215.04.215.162,0,.053-.067.121-.108.188a2.148,2.148,0,0,0-.175.672,6.734,6.734,0,0,1-.726,2.219,6.355,6.355,0,0,1-1.762,2.017.729.729,0,0,1-.39.2c-.215,0-.9-.551-.9-.78,0-.148.162-.229.269-.3a4.9,4.9,0,0,0,2.3-4.129c0-.229-.04-.35.188-.35C1600.312,901.386,1601.132,901.453,1601.266,901.48Z" transform="translate(-1461.254 -895.779)" fill="#836660"/>
</svg>
