<svg id="グループ_783" data-name="グループ 783" xmlns="http://www.w3.org/2000/svg" width="45.092" height="9.79" viewBox="0 0 45.092 9.79">
  <path id="パス_7588" data-name="パス 7588" d="M565.153,605.517c0,.054.067.108.2.175a2.659,2.659,0,0,1,1.789,2.38c0,1.533-1.251,2.623-3.913,2.623-2.125,0-3.644-.915-3.644-2.5a2.713,2.713,0,0,1,1.721-2.421c.134-.067.2-.121.2-.175s-.067-.108-.188-.189a2.375,2.375,0,0,1-1.331-2.1c0-1.291,1.2-2.407,3.483-2.407,2.084,0,3.295,1,3.295,2.286a2.486,2.486,0,0,1-1.425,2.138C565.221,605.4,565.153,605.463,565.153,605.517Zm-2,.74a.9.9,0,0,0-.376.094c-1.022.43-1.628.968-1.628,1.735,0,.847.928,1.3,2.152,1.3,1.345,0,2.259-.484,2.259-1.359,0-.82-.834-1.237-2.044-1.694A1.06,1.06,0,0,0,563.15,606.256Zm.269-4.008c-1.049,0-1.842.417-1.842,1.1s.686,1.076,1.614,1.453a1.108,1.108,0,0,0,.363.094.951.951,0,0,0,.377-.107c.82-.39,1.278-.861,1.278-1.465C565.207,602.652,564.441,602.249,563.418,602.249Z" transform="translate(-559.586 -600.904)" fill="#836660"/>
  <path id="パス_7589" data-name="パス 7589" d="M587.434,622.791a1.023,1.023,0,0,1-1.062,1.089.918.918,0,0,1-.968-.941,1.022,1.022,0,0,1,1.076-1.076A.912.912,0,0,1,587.434,622.791Z" transform="translate(-575.895 -614.144)" fill="#836660"/>
  <path id="パス_7590" data-name="パス 7590" d="M598.056,604.994a4.408,4.408,0,0,1,2.165-.578,2.78,2.78,0,0,1,3.026,2.878,3.669,3.669,0,0,1-7.329-.323,6.2,6.2,0,0,1,1.694-4.465,5.82,5.82,0,0,1,3.779-1.493c.269,0,.323.067.323.376v.7c0,.349-.054.4-.4.444a4.468,4.468,0,0,0-2.824,1.25,3.085,3.085,0,0,0-.781,1.3.049.049,0,0,0,.054.054A.716.716,0,0,0,598.056,604.994Zm-.256,1.426a.742.742,0,0,0-.363.726,2.073,2.073,0,0,0,2.165,2.233,1.964,1.964,0,0,0,2.111-1.963,1.678,1.678,0,0,0-1.869-1.668A3.507,3.507,0,0,0,597.8,606.42Z" transform="translate(-582.537 -600.974)" fill="#836660"/>
  <path id="パス_7591" data-name="パス 7591" d="M623.082,613c0,.605.027,1.721.027,1.815,0,.282-.081.336-.39.336h-.78c-.309,0-.39-.054-.39-.336,0-.094.027-1.21.027-1.815v-2.6c0-.605-.027-1.721-.027-1.816,0-.282.081-.336.39-.336h.659c.309,0,.363.054.377.363.014.175.04.256.108.256a.415.415,0,0,0,.2-.094,2.9,2.9,0,0,1,1.788-.606,2.135,2.135,0,0,1,1.614.646c.121.134.188.2.269.2s.135-.054.269-.162a3.32,3.32,0,0,1,2.018-.686,2.166,2.166,0,0,1,2.219,2.407V613c0,.605.027,1.721.027,1.815,0,.282-.081.336-.39.336h-.78c-.309,0-.39-.054-.39-.336,0-.094.027-1.21.027-1.815v-2c0-.82-.39-1.372-1.224-1.372a1.923,1.923,0,0,0-1.184.431.507.507,0,0,0-.255.524V613c0,.605.027,1.721.027,1.815,0,.282-.081.336-.39.336h-.78c-.309,0-.39-.054-.39-.336,0-.094.027-1.21.027-1.815v-2c0-.82-.39-1.372-1.223-1.372a1.958,1.958,0,0,0-1.184.417.647.647,0,0,0-.3.605Z" transform="translate(-598.729 -605.494)" fill="#836660"/>
  <path id="パス_7592" data-name="パス 7592" d="M656.571,613c0,.605.027,1.721.027,1.815,0,.282-.081.336-.39.336h-.78c-.309,0-.39-.054-.39-.336,0-.094.027-1.21.027-1.815v-2.6c0-.605-.027-1.721-.027-1.816,0-.282.081-.336.39-.336h.659c.309,0,.363.054.376.363.014.175.041.256.108.256a.413.413,0,0,0,.2-.094,2.9,2.9,0,0,1,1.788-.606,2.135,2.135,0,0,1,1.614.646c.121.134.188.2.269.2s.135-.054.269-.162a3.318,3.318,0,0,1,2.017-.686,2.166,2.166,0,0,1,2.219,2.407V613c0,.605.027,1.721.027,1.815,0,.282-.08.336-.39.336h-.78c-.309,0-.39-.054-.39-.336,0-.094.027-1.21.027-1.815v-2c0-.82-.39-1.372-1.224-1.372a1.921,1.921,0,0,0-1.183.431.507.507,0,0,0-.256.524V613c0,.605.027,1.721.027,1.815,0,.282-.081.336-.39.336h-.78c-.309,0-.39-.054-.39-.336,0-.094.027-1.21.027-1.815v-2c0-.82-.39-1.372-1.224-1.372a1.959,1.959,0,0,0-1.184.417.647.647,0,0,0-.3.605Z" transform="translate(-619.884 -605.494)" fill="#836660"/>
</svg>
