<svg xmlns="http://www.w3.org/2000/svg" width="46.991" height="12.265" viewBox="0 0 46.991 12.265">
  <g id="グループ_793" data-name="グループ 793" transform="translate(0)">
    <path id="パス_7685" data-name="パス 7685" d="M921.89,315.887c0,.712.041,2.259.041,2.353,0,.282-.081.336-.39.336h-1.56c-.309,0-.39-.054-.39-.336,0-.094.04-1.641.04-2.353v-4.3c0-.242-.04-.336-.161-.336a.607.607,0,0,0-.215.053c-.457.162-.861.323-1.224.484a.605.605,0,0,1-.256.081c-.121,0-.175-.094-.242-.3l-.471-1.331a.728.728,0,0,1-.054-.256c0-.121.081-.175.309-.242a24.046,24.046,0,0,0,2.542-.914,1.783,1.783,0,0,1,.793-.162h.887c.309,0,.39.054.39.336,0,.094-.041,1.64-.041,2.353Z" transform="translate(-917.008 -307.213)" fill="#856660"/>
    <path id="パス_7686" data-name="パス 7686" d="M941.42,305.609c.4,0,.794-.027,1.157-.027.309,0,.35.121.35.4v.686c0,.067.027.121.094.121a7.1,7.1,0,0,0,1.009-1.936c.04-.094.054-.121.148-.121.067,0,1.56.215,1.734.242.094.013.215.054.215.175s-.094.148-.188.189c-.054.027-.215.108-.215.228,0,.04.067.081.148.081h1.721c.39,0,.78-.027,1.17-.027.309,0,.336.134.336.444v.726c0,.376-.027.5-.35.5-.256,0-.524-.027-.78-.027-.148,0-.309.054-.309.215a.766.766,0,0,0,.094.3.774.774,0,0,1,.067.215c0,.323-1.372.47-1.641.47-.134,0-.148-.067-.215-.282-.3-.888-.336-.915-.82-.915-.3,0-.377.135-.525.364-.04.067-.417.605-.484.7a.3.3,0,0,1-.242.162c-.2,0-1.426-.5-1.426-.74a.577.577,0,0,1,.108-.2.406.406,0,0,0,.08-.189c0-.081-.067-.081-.188-.081-.067,0-.148-.014-.215-.014-.161,0-.309.054-.309.242a.5.5,0,0,0,.054.2.511.511,0,0,1,.067.2c0,.2-.767.349-.861.349-.054,0-.135.014-.135.081s.04.054.04.108c0,.094-.081.121-.175.175-.135.08-.135.188-.135.524,0,.188.175.35.444.35.3,0,.632-.041.847-.041.242,0,.269.135.269.457v.793c0,.336-.027.471-.269.471-.175,0-.5-.027-.9-.027h-.242a.153.153,0,0,0-.148.161c0,.242.363.579.538.753a12.059,12.059,0,0,0,1.063.968.216.216,0,0,1,.108.189c0,.282-.78,1.264-1.063,1.264-.121,0-.3-.188-.363-.269-.04-.04-.094-.108-.161-.108s-.121.094-.121.162v1.008c0,.471.04.942.04,1.412,0,.256-.134.283-.511.283H939.5c-.363,0-.5-.027-.5-.283,0-.47.04-.941.04-1.412v-.444c0-.04-.013-.134-.081-.134s-.108.108-.134.161c-.081.189-.43.928-.632.928s-.565-.336-.793-.538-.471-.4-.471-.646a.468.468,0,0,1,.134-.269,12.925,12.925,0,0,0,1.533-3c0-.189-.2-.189-.349-.189-.309,0-.659.027-.821.027-.255,0-.282-.121-.282-.5v-.74c0-.35.027-.484.282-.484.189,0,.5.041.888.041h.363c.242,0,.363-.2.363-.43,0-.162-.04-.659-.04-.74,0-.121.135-.148.228-.148.054,0,.592.04.7.054a.793.793,0,0,0,.134.013.131.131,0,0,0,.148-.134,1.6,1.6,0,0,0-.134-.43c-.094-.269-.175-.444-.431-.444a.415.415,0,0,0-.4.255c-.107.2-.5.928-.713.928-.3,0-1.546-.457-1.546-.78a1.228,1.228,0,0,1,.2-.363,11.719,11.719,0,0,0,1.211-2.34c.04-.121.067-.215.2-.215.2,0,1.453.188,1.721.228.094.014.282.054.282.175s-.121.175-.215.215c-.053.04-.121.067-.121.148,0,.108.107.121.175.121Zm1.237,4.626c0-.417-.026-.794-.026-1.157,0-.457.282-.524.672-.524s.807.027,1.224.027h2.367c.4,0,.807-.027,1.2-.027s.7.041.7.524c0,.39-.027.78-.027,1.157v5.07c0,.457.027.915.027,1.372,0,.282-.148.309-.4.309h-.753c-.551,0-.659,0-.659-.377a.3.3,0,0,0-.309-.309h-1.842a.312.312,0,0,0-.323.283v.094c0,.309-.188.309-.672.309h-.834c-.242,0-.363-.041-.363-.309,0-.35.026-.888.026-1.372Zm1.816.2a.247.247,0,0,0,.256.256h2.017a.247.247,0,0,0,.255-.256v-.027a.247.247,0,0,0-.255-.256h-2.017a.247.247,0,0,0-.256.256Zm0,1.963a.247.247,0,0,0,.256.256h2.017A.247.247,0,0,0,947,312.4v-.054a.255.255,0,0,0-.255-.255h-2.017a.247.247,0,0,0-.256.255Zm0,2.044a.318.318,0,0,0,.323.323h1.882a.318.318,0,0,0,.323-.323v-.067a.318.318,0,0,0-.323-.323H944.8a.311.311,0,0,0-.323.323Z" transform="translate(-929.592 -304.722)" fill="#856660"/>
    <path id="パス_7687" data-name="パス 7687" d="M978.431,307.667c-.444,0-.888.041-1.13.041-.336,0-.363-.161-.363-.592v-.78c0-.431.027-.592.363-.592.228,0,.659.041,1.13.041h1.6c.256,0,.511-.027.766-.027.605,0,.766.269.766.9,0,.4-.013.793-.013,1.2a8.773,8.773,0,0,0,4.788,7.907.308.308,0,0,1,.2.3c0,.4-.82,1.546-1.264,1.546a.772.772,0,0,1-.309-.134,12.677,12.677,0,0,1-3.052-2.757,10.843,10.843,0,0,1-1.2-1.816c-.067-.121-.175-.336-.336-.336s-.256.215-.323.336A11.8,11.8,0,0,1,976,317.175a2.126,2.126,0,0,1-.686.323c-.484,0-1.036-1.183-1.036-1.613,0-.135.108-.175.309-.283a8.988,8.988,0,0,0,4.613-6,7.247,7.247,0,0,0,.161-1.3c0-.619-.053-.632-.282-.632Z" transform="translate(-953.185 -305.368)" fill="#856660"/>
    <path id="パス_7688" data-name="パス 7688" d="M1013.614,306.806a.318.318,0,0,0,.323-.323v-.524c0-.618-.04-1.022-.04-1.063,0-.148.108-.175.242-.175.282,0,1.21.053,1.533.081.094.013.269.013.269.148,0,.094-.108.148-.188.175-.108.054-.121.108-.121.444v.982a.247.247,0,0,0,.255.255h.269c.054,0,.094-.027.094-.053,0-.054-.108-.108-.162-.135s-.188-.134-.188-.242a4.817,4.817,0,0,1,.256-.551c.054-.108.094-.189.215-.444.04-.094.081-.215.121-.309s.054-.148.188-.148c.094,0,1.129.4,1.3.47.108.04.242.081.242.189s-.148.148-.256.175c-.135.041-.148.081-.242.269l-.175.336a1.356,1.356,0,0,0-.121.3c0,.121.08.121.2.148s.122.2.122.39v.672c0,.309-.027.417-.283.417-.282,0-.565-.027-.834-.027-.121,0-.256,0-.256.094,0,.135.753.619.9.713.108.067.188.108.188.2,0,.242-.632,1.022-.914,1.022-.188,0-.5-.349-.646-.5-.041-.041-.121-.135-.188-.135s-.081.108-.081.175c0,.134.013.269.013.4,0,.282-.121.309-.417.309h-.444c-.04,0-.148,0-.148.067s.511.2.605.228c.135.027.349.081.349.256,0,.067-.067.161-.228.161-.215,0-.256.242-.256.269,0,.094.121.108.189.108h.861c.444,0,.887-.027,1.331-.027.349,0,.376.094.376.457v.538c0,.443-.027.484-.39.511a.11.11,0,0,0-.121.108.2.2,0,0,0,.026.081.279.279,0,0,1,.041.094c0,.094-.122.108-.2.134-.256.081-.242.309-.377.551a.47.47,0,0,0-.081.228c0,.162.175.242.309.309.309.161.39.229.39.35,0,.363-.538,1.385-.955,1.385a.308.308,0,0,1-.161-.081,2.287,2.287,0,0,0-.78-.4.43.43,0,0,0-.256.094,5.3,5.3,0,0,1-1.022.551,6.457,6.457,0,0,1-1.789.444c-.457,0-.672-1.089-.672-1.156,0-.3.336-.309.565-.336s1.439-.215,1.439-.444c0-.094-.229-.162-.323-.162a.4.4,0,0,0-.256.134.306.306,0,0,1-.188.054c-.323,0-1.291-.256-1.291-.672a4.8,4.8,0,0,1,.376-.74c.041-.067.081-.134.094-.162a.794.794,0,0,0,.121-.269c0-.094-.094-.094-.175-.094h-.161c-.349,0-.376-.108-.376-.538v-.511c0-.336.027-.457.376-.457.283,0,.551.013.834.013.4,0,.457-.255.659-.928.094-.336.081-.256.256-.283.094-.013.121-.054.121-.524,0-.054,0-.188-.081-.188s-.134.081-.175.134c-.189.242-.955,1.13-1.251,1.13a.473.473,0,0,1-.282-.121c-.081-.053-.713-.6-.713-.861,0-.094.081-.148.148-.2.282-.188,1.385-1.1,1.385-1.412,0-.108-.148-.108-.242-.108-.242,0-.484.027-.74.027s-.3-.108-.3-.39v-.646c0-.39.027-.444.3-.471.094,0,.2-.027.2-.134a5.6,5.6,0,0,0-.511-1.089.321.321,0,0,1-.041-.121c0-.121.094-.161.3-.269a2.744,2.744,0,0,1,.807-.309.249.249,0,0,1,.229.134,7.256,7.256,0,0,1,.4.7.829.829,0,0,0,.053.108,3.515,3.515,0,0,1,.229.578c0,.134-.175.215-.283.283-.027.013-.108.053-.108.094s.068.053.108.053Zm.915,6.28a.361.361,0,0,0-.35.336c0,.108.108.134.3.189.081.027.188.053.269.08a1.253,1.253,0,0,0,.323.081c.228,0,.336-.511.336-.538,0-.134-.094-.148-.2-.148Zm7.289-5.931c.471,0,.928-.04,1.3-.04.349,0,.376.134.376.551v.753c0,.431-.027.551-.376.551-.04,0-.081-.013-.107-.013s-.121.013-.121.067.094.081.134.094a.187.187,0,0,1,.134.162c0,.108-.121.161-.2.2-.255.121-.242.148-.309.565a10.642,10.642,0,0,1-.807,2.73,1.38,1.38,0,0,0-.175.565c0,.551,1.358,1.6,1.8,1.95.068.054.162.121.162.215,0,.363-.874,1.3-1.3,1.3-.135,0-.336-.229-.511-.376a.809.809,0,0,1-.108-.094c-.256-.256-.5-.524-.753-.794a.689.689,0,0,0-.457-.282c-.229,0-.484.309-.632.471-.242.269-1.251,1.251-1.573,1.251-.282,0-1.022-.928-1.022-1.183,0-.134.121-.215.215-.283.457-.323,1.816-1.493,1.816-2.044a1.331,1.331,0,0,0-.188-.578,1.422,1.422,0,0,0-.053-.134c-.122-.309-.3-.686-.391-1-.026-.081-.081-.256-.188-.256-.067,0-.121.054-.175.094a.223.223,0,0,1-.162.067c-.336,0-1.25-.632-1.25-.888a.738.738,0,0,1,.094-.215,13.372,13.372,0,0,0,1.506-3.349,22.825,22.825,0,0,0,.525-2.259c.026-.134.013-.229.175-.229a11.7,11.7,0,0,1,1.439.349c.121.027.349.108.349.269,0,.094-.107.148-.175.175-.189.081-.2.121-.3.551-.04.162-.067.377-.134.659a1.22,1.22,0,0,0-.027.2c0,.175.081.215.256.215Zm-1.843,1.776a.33.33,0,0,0-.363.376,4.756,4.756,0,0,0,.269,1.13c.067.229.3.981.47.981s.256-.43.35-.807a8.948,8.948,0,0,0,.242-1.439c0-.2-.108-.242-.283-.242Z" transform="translate(-976.642 -304.722)" fill="#856660"/>
  </g>
</svg>
