<svg id="グループ_1075" data-name="グループ 1075" xmlns="http://www.w3.org/2000/svg" width="113.334" height="25.913" viewBox="0 0 113.334 25.913">
  <path id="パス_11190" data-name="パス 11190" d="M916.8,754.363c0-.85-.057-1.671-.057-2.493,0-1.1.538-1.359,1.53-1.359.849,0,1.7.056,2.521.056h1.529a.563.563,0,0,0,.566-.537v-.283a.569.569,0,0,0-.566-.567h-1.812c-1.161,0-2.294.085-3.455.085-.708,0-.765-.368-.765-.991v-.057c0-.113-.029-.255-.17-.255s-.226.255-.283.368c-.312.595-.595,1.19-.906,1.756a1.344,1.344,0,0,0-.2.595c0,.283.226.368.482.425.2.056.453.112.453.368,0,.17-.113.226-.283.4a1.136,1.136,0,0,0-.284.907v11.044c0,1.3.085,2.606.085,3.936,0,.708-.312.766-1.274.766h-1.727c-.935,0-1.246-.057-1.246-.766,0-1.33.085-2.633.085-3.936v-6.571c0-.254,0-.537-.254-.537-.113,0-.17.057-.255.142a.639.639,0,0,1-.453.227c-.679,0-2.265-2.719-2.265-3.4,0-.4.453-.878.679-1.161a28.429,28.429,0,0,0,4.758-8.892c.113-.368.226-.879.707-.879.283,0,2.86.879,3.37,1.049.312.084.879.254.879.651,0,.2-.255.283-.4.368-.255.114-.567.255-.567.567,0,.226.255.226.51.226.935.028,1.841.057,2.776.057h1.416c.51,0,.934-.2.934-.793,0-.424-.057-.963-.057-1.331,0-.453.255-.566.651-.566.368,0,3.37.17,3.682.226.226.028.482.113.482.425,0,.227-.142.311-.312.424a.724.724,0,0,0-.425.793c0,.6.4.822.963.822h1.643c1.161,0,2.294-.057,3.455-.057.707,0,.765.283.765,1.076v1.473c0,.821-.057,1.1-.793,1.1-1.132,0-2.293-.085-3.427-.085h-2.068a.545.545,0,0,0-.538.567v.283a.538.538,0,0,0,.538.537h1.643c.821,0,1.643-.056,2.464-.056.935,0,1.585.17,1.585,1.331,0,.85-.056,1.671-.056,2.521v1.047c0,1.133.085,2.266.085,3.427,0,.651-.255.708-1.5.708h-.963c-.935,0-1.274,0-1.444-.34-.113-.226-.17-.339-.424-.339h-1.076c-.878,0-.878.311-.991,1.076a10.058,10.058,0,0,1-.538,2.067,1.66,1.66,0,0,0-.113.539c0,.368.4.594.708.707a24.539,24.539,0,0,0,6.06,1.586c.679.085,1.048.085,1.048.594,0,.567-.51,3.229-1.841,3.229a4.66,4.66,0,0,1-.906-.141,29.361,29.361,0,0,1-6.57-2.181,2.529,2.529,0,0,0-1.02-.311,2.209,2.209,0,0,0-1.076.51,15.338,15.338,0,0,1-3.738,1.84,3.564,3.564,0,0,1-.736.2c-1.077,0-2.521-2.152-2.521-3.058,0-.482.537-.567.906-.651a12.162,12.162,0,0,0,2.8-.963c.2-.113.34-.2.34-.425,0-.254-.312-.481-.51-.651-.283-.227-1.19-1.1-1.19-1.415s.907-1.049,1.133-1.246c.085-.085.312-.255.312-.4,0-.169-.2-.254-1.19-.254h-.623c-.538,0-.765-.113-.765-.68,0-1.132.085-2.293.085-3.427Zm4.446-.651a.81.81,0,0,0-.793.793v.368a.792.792,0,0,0,.793.793h.849a.792.792,0,0,0,.793-.793V754.5a.792.792,0,0,0-.793-.793Zm-.227,5.155c-.141,0-.368,0-.368.2a.327.327,0,0,0,.169.256c.171.141.284.255.454.4.17.2.679.737.935.737.368,0,.481-.821.481-1.076,0-.51-.368-.51-.679-.51Zm6.655-5.155a.774.774,0,0,0-.793.793v.368a.792.792,0,0,0,.793.793h.793a.792.792,0,0,0,.793-.793V754.5a.811.811,0,0,0-.793-.793Z" transform="translate(-907.796 -742.751)" fill="#856660"/>
  <path id="パス_11191" data-name="パス 11191" d="M953.464,760.451c-.962,0-1.218.482-1.359,1.331a17.183,17.183,0,0,1-2.181,6c-.255.4-.623.964-1.161.964-.623,0-2.86-1.474-2.86-2.238a1.149,1.149,0,0,1,.283-.624,15.606,15.606,0,0,0,1.615-3.88,36.461,36.461,0,0,0,.736-8.808v-4.729c0-1.019-.085-2.011-.085-3.03,0-1.1.425-1.557,1.558-1.557.935,0,1.868.056,2.8.056h13.169c.907,0,1.841-.056,2.747-.056,1.133,0,1.586.4,1.586,1.557,0,.991-.057,2.011-.057,3.03V762.83c0,.764.029,1.557.029,2.322a3.026,3.026,0,0,1-1.445,3.03,6.937,6.937,0,0,1-3.313.623,1.5,1.5,0,0,1-1.728-1.189,5.838,5.838,0,0,1-.339-1.982c0-.51.085-.907.68-.907a2.8,2.8,0,0,1,.482.028,5.384,5.384,0,0,0,.679.029c.821,0,.878-.255.878-1.019v-2.521a.792.792,0,0,0-.793-.793h-3.511a.792.792,0,0,0-.793.793v1.7c0,1.5.084,2.974.084,4.447,0,.708-.34.764-1.3.764h-1.755c-.991,0-1.3-.056-1.3-.793,0-1.473.085-2.945.085-4.419v-1.7a.759.759,0,0,0-.794-.793Zm.057-6.287c-.879,0-.992.454-.992,1.218V756a.833.833,0,0,0,.935.793H956.1a.792.792,0,0,0,.794-.793v-1.049a.774.774,0,0,0-.794-.793Zm2.576-3.738a.759.759,0,0,0,.794-.793v-1.019a.775.775,0,0,0-.794-.793H953.38a.792.792,0,0,0-.793.793v1.019a.792.792,0,0,0,.793.793Zm9.289,0a.775.775,0,0,0,.793-.793v-1.019a.775.775,0,0,0-.793-.793h-3.511a.775.775,0,0,0-.793.793v1.019a.758.758,0,0,0,.793.793Zm-3.511,3.738a.774.774,0,0,0-.793.793V756a.791.791,0,0,0,.793.793h3.511a.792.792,0,0,0,.793-.793v-1.049a.792.792,0,0,0-.793-.793Z" transform="translate(-916.348 -743.005)" fill="#856660"/>
  <path id="パス_11192" data-name="パス 11192" d="M995.484,757.8c0,.623.538.679,1.048.708.566.028.595.368.595,1.076v1.161c0,.849-.113,1.048-.821,1.048-.538,0-1.048-.057-1.557-.057-.227,0-.453.085-.453.34a.863.863,0,0,0,.142.312,19.137,19.137,0,0,0,1.5,1.982c.171.2.255.227.313.227.169,0,.254-.169.4-.51.935-2.379,1.218-6.089,1.218-9.742V748.4c0-1.1-.057-2.209-.057-3.342,0-.99.425-1.331,1.388-1.331.85,0,1.728.057,2.578.057h2.237c.849,0,1.671-.057,2.52-.057.992,0,1.445.311,1.445,1.331,0,1.133-.057,2.238-.057,3.342v14.358c0,.737.057,1.474.057,2.21,0,3.087-1.132,3.71-4.248,3.71-1.332,0-1.785-.283-2.068-1.472a12.6,12.6,0,0,1-.254-2.068c0-.4.142-.821.623-.821.34,0,.907.084,1.3.084.85,0,.85-.566.85-1.1v-3.088a.774.774,0,0,0-.793-.793h-1.3c-.566,0-.765.4-.821.878a24.2,24.2,0,0,1-.765,4.106,20.758,20.758,0,0,1-1.614,3.966.518.518,0,0,1-.51.311c-.708,0-3.03-.935-3.03-1.727,0-.255.34-.679.34-.849,0-.029,0-.086-.085-.086a.461.461,0,0,0-.284.114,3.675,3.675,0,0,1-1.615.765c-.622,0-1.388-1.246-1.7-1.727a9.856,9.856,0,0,1-1.1-2.068c0-.4.51-.765.935-.963.113-.057.2-.113.2-.2,0-.142-.2-.2-.311-.2H988.6c-.2,0-.482,0-.482.171,0,.057.085.141.255.226.538.284,1.1.567,1.416.737a.531.531,0,0,1,.312.4c0,.2-.171.312-.368.34-.283.057-.368.085-.566.482a31.555,31.555,0,0,1-2.38,3.993c-.254.34-.4.595-.708.595-.651,0-2.86-1.1-2.86-1.84,0-.142.085-.255.254-.482.51-.651,2.464-3.455,2.464-4.162,0-.313-.312-.454-.566-.454-.283,0-.651.057-1.048.057-.765,0-.85-.226-.85-1.048V759.5c0-.765.085-1.02.821-1.02.085,0,.2.029.312.029a.788.788,0,0,0,.736-.821v-7.9c0-.482-.4-.624-.821-.68-.51-.057-.594-.34-.594-1.02V746.7c0-.878.112-.963.793-1.019a.659.659,0,0,0,.623-.679c0-.369-.085-1.191-.085-1.558,0-.341.2-.4.51-.4.34,0,2.322.142,2.775.2.651.085,1.133.085,1.133.482,0,.17-.114.254-.283.425a.961.961,0,0,0-.284.764.817.817,0,0,0,.793.822h1.048a.837.837,0,0,0,.793-.822c0-.254-.085-1.047-.085-1.472,0-.341.2-.4.51-.4.34,0,2.521.17,2.946.226.679.085.963.113.963.453,0,.17-.142.254-.283.425a1.2,1.2,0,0,0-.284.935c0,.453.313.567.708.595.51.028.595.368.595,1.019v1.331c0,.907-.112,1.019-.793,1.076a.538.538,0,0,0-.538.538Zm-5.919-8.752a.448.448,0,0,0-.453.454v.254a.466.466,0,0,0,.453.453h1.728a.465.465,0,0,0,.453-.453V749.5a.431.431,0,0,0-.453-.454Zm0,4.164a.447.447,0,0,0-.453.453v.255a.466.466,0,0,0,.453.453h1.728a.465.465,0,0,0,.453-.453v-.255a.431.431,0,0,0-.453-.453Zm1.643,5.324a.521.521,0,0,0,.537-.538v-.085a.544.544,0,0,0-.537-.566h-1.557a.544.544,0,0,0-.539.566V758a.521.521,0,0,0,.539.538Zm11.158-5.041c-.679,0-.821.51-.821,1.019v.425a.76.76,0,0,0,.764.764h1.077a.774.774,0,0,0,.793-.793v-.623a.757.757,0,0,0-.793-.793Zm1.02-3.767a.791.791,0,0,0,.793-.793v-.624a.791.791,0,0,0-.793-.793h-1.02a.81.81,0,0,0-.793.793v.624a.758.758,0,0,0,.793.793Z" transform="translate(-924.722 -742.817)" fill="#856660"/>
  <path id="パス_11193" data-name="パス 11193" d="M1025.872,763.619c0,1.444.084,2.889.084,4.333,0,.736-.283.822-1.132.822h-1.785c-.821,0-1.1-.086-1.1-.793,0-1.444.085-2.918.085-4.362V748.609c0-1.02-.057-2.039-.057-3.03,0-1.161.453-1.586,1.586-1.586.877,0,1.784.085,2.662.085h1.727c.849,0,1.416-.085,2.04-.085a2.207,2.207,0,0,1,2.039,1.926c0,.963-1.841,4.758-2.38,5.777a2.233,2.233,0,0,0-.255.68,1.3,1.3,0,0,0,.283.6,9.924,9.924,0,0,1,2.125,5.607c0,1.671-.368,3.03-1.841,3.936a6.639,6.639,0,0,1-2.889.822.84.84,0,0,1-.849-.425c-.029-.057-.113-.142-.171-.142-.141,0-.169.057-.169.368Zm0-13.395c0,.169,0,.453.169.453a7.117,7.117,0,0,0,1.105-2.69c0-.341-.17-.368-.4-.368h-.51a.357.357,0,0,0-.368.368Zm0,8.779c0,.4.226.4.708.4a1,1,0,0,0,1.132-1.1c0-1.614-1.132-3.936-1.586-3.936-.254,0-.254.283-.254.538Zm17.983,2.577a.722.722,0,0,0-.34.567c0,.255.2.424.481.736a1.8,1.8,0,0,1,.255.226,26.74,26.74,0,0,0,2.21,1.7c.141.085.283.17.283.368,0,.793-1.643,3.03-2.521,3.03-.708,0-3.257-2.719-3.795-3.371-.085-.085-.17-.2-.312-.2-.2,0-.254.226-.254.4,0,.538-.028.963-.4,1.133-.51.226-5.38,1.189-6.344,1.388a9.973,9.973,0,0,0-1.671.4c-.226.113-.283.255-.482.538-.113.17-.2.254-.368.254-.311,0-.453-.481-.736-1.388-.085-.283-.2-.594-.311-.935a9.909,9.909,0,0,1-.482-1.671c0-.368.2-.4,1.133-.538.4-.057.849-.114,1.3-.2.793-.142.991-.368.991-1.219V748.581c0-.991-.057-2.01-.057-3.03,0-1.1.424-1.557,1.557-1.557.935,0,1.841.057,2.775.057h3.739c.906,0,1.813-.057,2.747-.057.849,0,1.586.17,1.586,1.557,0,1.02-.085,2.039-.085,3.03v3.4c0,1.02.085,2.039.085,3.059a1.431,1.431,0,0,1-.737,1.444c-.113.057-.17.113-.17.226,0,.171.594.708,1.161,1.246.311.284,1.388,1.247,1.388,1.615,0,.4-.425.4-.736.4a.349.349,0,0,0-.284.142C1045.073,760.5,1044.308,761.212,1043.855,761.58Zm-3.625-12.574a.671.671,0,0,0,.68-.679v-.113a.671.671,0,0,0-.68-.68h-3.2a.689.689,0,0,0-.679.68v.113a.689.689,0,0,0,.679.679Zm-3.2,2.775a.672.672,0,0,0-.679.68v.057a.672.672,0,0,0,.679.68h3.2a.655.655,0,0,0,.68-.68v-.057a.672.672,0,0,0-.68-.68Zm-.679,10.253c0,.227,0,.906.566.906a6.408,6.408,0,0,0,.736-.142c.369-.084.822-.169.822-.594a1.645,1.645,0,0,0-.255-.708,13.975,13.975,0,0,1-1.473-4.616c-.028-.171-.085-.34-.226-.34s-.17.226-.17.34Zm6.458-5.126c0-.312-.284-.4-1.615-.4-.284,0-.794,0-.794.454a6.363,6.363,0,0,0,.341,1.132c.2.538.255.765.537.765C1041.617,758.861,1042.808,757.106,1042.808,756.907Z" transform="translate(-933.41 -743.03)" fill="#856660"/>
</svg>
