<svg id="グループ_791" data-name="グループ 791" xmlns="http://www.w3.org/2000/svg" width="24.886" height="9.965" viewBox="0 0 24.886 9.965">
  <path id="パス_7677" data-name="パス 7677" d="M229.777,756.67c-.618,0-1.8.027-1.9.027-.282,0-.377-.094-.377-.376,0-.094.041-1.587.041-2.3v-4.613c0-.713-.041-2.205-.041-2.3,0-.282.094-.376.377-.376.094,0,1.278.027,1.9.027h2.259c2.474,0,4.222,1.506,4.222,4.693,0,3.577-2.192,5.218-4.761,5.218Zm.054-2.407c0,.336.067.4.4.4h1.21c1.493,0,2.488-1.022,2.488-3.08,0-1.587-.7-2.716-2.111-2.716h-1.587c-.336,0-.4.067-.4.4Z" transform="translate(-227.504 -746.732)" fill="#856660"/>
  <path id="パス_7678" data-name="パス 7678" d="M257.206,756.716c-.309,0-.39-.054-.39-.336,0-.094.04-1.641.04-2.353v-4.532c0-.713-.04-2.259-.04-2.353,0-.283.081-.336.39-.336h1.587c.309,0,.39.053.39.336,0,.094-.041,1.64-.041,2.353v4.532c0,.713.041,2.259.041,2.353,0,.283-.081.336-.39.336Z" transform="translate(-246.021 -746.778)" fill="#856660"/>
  <path id="パス_7679" data-name="パス 7679" d="M270.877,754.941a.352.352,0,0,0-.39.282c-.094.256-.2.511-.4,1.117-.121.323-.188.376-.538.376h-1.695c-.215,0-.309-.027-.309-.134a.578.578,0,0,1,.081-.229c.5-1.116.766-1.721,1-2.259l1.977-4.64c.255-.618.578-1.358.928-2.273.134-.323.2-.376.551-.376h1.062c.35,0,.417.053.551.376.35.914.672,1.681.914,2.233l1.977,4.626c.256.592.524,1.2,1.022,2.313a.576.576,0,0,1,.081.229c0,.108-.094.134-.309.134h-1.829c-.35,0-.417-.054-.538-.376-.2-.605-.309-.861-.4-1.117-.08-.228-.148-.282-.39-.282Zm.605-2.206a.608.608,0,0,0-.054.229c0,.121.094.148.309.148h1.614c.215,0,.309-.027.309-.148a.609.609,0,0,0-.054-.229l-.915-2.286c-.04-.108-.094-.161-.148-.161s-.108.054-.148.161Z" transform="translate(-252.796 -746.778)" fill="#856660"/>
</svg>
