<svg xmlns="http://www.w3.org/2000/svg" width="285.033" height="29.038" viewBox="0 0 285.033 29.038">
  <g id="グループ_786" data-name="グループ 786" transform="translate(-10.335 -0.001)">
    <g id="グループ_1533" data-name="グループ 1533">
      <path id="パス_7609" data-name="パス 7609" d="M659.121,434.679c0,2.841-1.636,4.5-3.63,4.5-1.91,0-3.427-1.445-3.427-4.167,0-2.447,1.254-4.429,3.606-4.429C657.545,430.584,659.121,431.957,659.121,434.679Zm-5.659.37c0,1.862.823,2.853,2.03,2.853,1.277,0,2.233-1.23,2.233-3.176,0-1.875-.872-2.806-2.054-2.806C654.154,431.921,653.462,433.366,653.462,435.049Z" transform="translate(-641.73 -428.864)" fill="#836660"/>
      <path id="パス_7610" data-name="パス 7610" d="M680.735,451.387a.908.908,0,0,1-.943.967.815.815,0,0,1-.86-.836.907.907,0,0,1,.955-.955A.809.809,0,0,1,680.735,451.387Z" transform="translate(-659.445 -442.038)" fill="#836660"/>
      <path id="パス_7611" data-name="パス 7611" d="M697.618,434.679c0,2.841-1.636,4.5-3.629,4.5-1.91,0-3.426-1.445-3.426-4.167,0-2.447,1.253-4.429,3.605-4.429C696.042,430.584,697.618,431.957,697.618,434.679Zm-5.659.37c0,1.862.824,2.853,2.03,2.853,1.277,0,2.233-1.23,2.233-3.176,0-1.875-.872-2.806-2.054-2.806C692.651,431.921,691.959,433.366,691.959,435.049Z" transform="translate(-667.114 -428.864)" fill="#836660"/>
      <path id="パス_7612" data-name="パス 7612" d="M725.427,434.679c0,2.841-1.635,4.5-3.629,4.5-1.91,0-3.427-1.445-3.427-4.167,0-2.447,1.254-4.429,3.606-4.429C723.851,430.584,725.427,431.957,725.427,434.679Zm-5.659.37c0,1.862.824,2.853,2.03,2.853,1.278,0,2.233-1.23,2.233-3.176,0-1.875-.871-2.806-2.053-2.806C720.46,431.921,719.768,433.366,719.768,435.049Z" transform="translate(-685.45 -428.864)" fill="#836660"/>
      <path id="パス_7613" data-name="パス 7613" d="M749,439.2c-.561,0-1.5.024-1.588.024-.263,0-.334-.1-.334-.382.012-.669.023-1.421.023-1.994V433.1c0-.585-.012-1.3-.023-1.994,0-.286.072-.382.334-.382.083,0,1.027.024,1.588.024h1.469c2.364,0,3.772,1.313,3.772,3.976,0,2.782-1.528,4.477-4.155,4.477Zm-.514-1.588c0,.3.06.358.358.358h1.206c1.874,0,2.782-1.277,2.782-3.176,0-1.611-.764-2.758-2.5-2.758h-1.492c-.3,0-.358.06-.358.358Z" transform="translate(-704.379 -428.958)" fill="#836660"/>
      <path id="パス_7614" data-name="パス 7614" d="M779.323,431.339a8.082,8.082,0,0,1,2.269-5.516c.131-.143.275-.286.394-.286.239,0,.669.382.669.573a.451.451,0,0,1-.167.287,6.891,6.891,0,0,0,0,9.885.447.447,0,0,1,.167.275c0,.227-.453.585-.657.585-.119,0-.2-.083-.382-.263A8.073,8.073,0,0,1,779.323,431.339Z" transform="translate(-725.64 -425.536)" fill="#836660"/>
      <path id="パス_7615" data-name="パス 7615" d="M801.27,427.769c.227,0,.322-.083.334-.322-.012-.179-.024-.37-.048-.549,0-.036-.012-.072-.012-.108,0-.143.107-.167.227-.167.143,0,.955.06,1.135.072.107.012.275.036.275.167,0,.1-.06.12-.167.191-.143.1-.143.215-.143.406,0,.227.108.31.322.31h2.4c.466,0,.943-.024,1.409-.024.3,0,.286.108.286.525s.012.537-.286.537c-.466,0-.943-.023-1.409-.023h-6.208c-.239,0-.334.1-.334.334v.275c0,.227.084.322.311.335.322.012.633.024.955.024h.167c.179,0,.323-.072.323-.275a2.588,2.588,0,0,0-.024-.31c0-.036-.012-.072-.012-.107,0-.131.119-.131.215-.131.155,0,.967.036,1.11.048.072.012.179.035.179.119s-.071.1-.143.143a.28.28,0,0,0-.119.263c0,.179.167.251.322.251h1.254c.179,0,.322-.072.322-.275a1.386,1.386,0,0,0-.023-.31c0-.024-.012-.072-.012-.1,0-.143.131-.143.239-.143.275,0,.645.036.931.048.084,0,.286.012.286.119,0,.072-.072.108-.155.155a.278.278,0,0,0-.108.251c0,.179.155.251.31.251h.406c.478,0,.943-.036,1.421-.036.251,0,.239.143.239.49s.012.477-.239.477c-.478,0-.943-.024-1.421-.024h-.406c-.238,0-.334.1-.334.334v.227c0,.227.012.454.012.693,0,.31-.1.442-.537.442-.334,0-.669-.024-1-.024h-1.1c-.358,0-.716.024-1.063.024-.37,0-.549-.072-.549-.43,0-.239.012-.466.012-.7v-.227c0-.239-.1-.334-.334-.334h-.167c-.311,0-.633,0-.943.012-.239.012-.323.12-.323.346v.155a15.844,15.844,0,0,1-.513,4.382,8.732,8.732,0,0,1-.693,1.612.262.262,0,0,1-.215.131c-.239,0-.883-.334-.883-.609a.756.756,0,0,1,.108-.251,12.368,12.368,0,0,0,.99-5.587v-1.54c0-.346-.024-.681-.024-1.027,0-.454.263-.537.657-.537s.776.024,1.17.024Zm1.659,8.441a.717.717,0,0,0-.263.072,12.71,12.71,0,0,1-3.355.943c-.239,0-.31-.107-.394-.3a1.88,1.88,0,0,1-.179-.609c0-.239.239-.239.418-.251a11.029,11.029,0,0,0,2.436-.49.191.191,0,0,0,.131-.167.2.2,0,0,0-.083-.155,8.761,8.761,0,0,1-1-1.206c-.108-.143-.191-.262-.382-.262-.167,0-.346.012-.513.012-.239,0-.239-.131-.239-.466,0-.358,0-.466.251-.466.418,0,.836.024,1.253.024h3.26c.334,0,.657-.012.991-.012a.747.747,0,0,1,.765.6c0,.43-1.361,1.576-1.72,1.851a.185.185,0,0,0-.083.155.165.165,0,0,0,.119.155,9,9,0,0,0,2.567.5c.406.024.525,0,.525.31,0,.263-.155.836-.478.836-.083,0-.286-.036-.37-.036a10.085,10.085,0,0,1-3.379-.967A.521.521,0,0,0,802.929,436.21Zm-.776-2.435c-.1.012-.179.036-.179.143a.217.217,0,0,0,.048.108,5.922,5.922,0,0,0,.7.74.431.431,0,0,0,.263.107.485.485,0,0,0,.251-.083c.179-.12,1-.717,1-.907,0-.1-.155-.108-.346-.108Zm.179-3.116a.341.341,0,0,0-.334.334v.143a.334.334,0,0,0,.334.334h1.254a.327.327,0,0,0,.334-.334v-.143a.334.334,0,0,0-.334-.334Z" transform="translate(-737.127 -426.253)" fill="#836660"/>
      <path id="パス_7616" data-name="パス 7616" d="M842.612,427.67c.06.024.191.06.191.143s-.083.131-.191.215a2.079,2.079,0,0,0-.215.633,3.9,3.9,0,0,0-.131.537.139.139,0,0,0,.131.155,5.718,5.718,0,0,0,.68-.179.428.428,0,0,1,.119-.024c.143,0,.155.215.179.358a5.763,5.763,0,0,1,.06.633c0,.263-.143.287-1.242.49-.43.072-.418.155-.561.549a30.425,30.425,0,0,1-1.946,4.25c-.072.12-.108.167-.239.167-.263,0-1.062-.346-1.062-.6a1.319,1.319,0,0,1,.215-.43,22.272,22.272,0,0,0,1.42-2.758,4.646,4.646,0,0,0,.275-.728.161.161,0,0,0-.167-.155c-.1,0-1.015.12-1.289.12-.2,0-.251-.107-.3-.382-.024-.143-.084-.573-.084-.692,0-.155.084-.191.215-.191h.549a10.545,10.545,0,0,0,1.23-.06c.155-.024.263-.036.358-.191a7.286,7.286,0,0,0,.382-2.006c0-.083,0-.2.107-.2C841.431,427.324,842.421,427.611,842.612,427.67Zm1.719,3.558c.131.036.239.108.239.251,0,.024-.024.382-.024.633,0,.346.059,2.066.119,2.316.036.179.191.227.37.3.036.012.083.036.119.048.274.107,1.683.764,1.683,1.05,0,.191-.442.872-.74.872-.12,0-.227-.107-.31-.167a3.389,3.389,0,0,0-.956-.549c-.131,0-.179.167-.191.274-.143.872-.848,1.17-1.66,1.17-.967,0-2.1-.514-2.1-1.624s1.039-1.48,1.982-1.48h.311c.143,0,.251-.059.251-.2,0-.382-.179-2.113-.215-2.579,0-.06-.012-.107-.012-.167,0-.191.107-.263.287-.263A5.041,5.041,0,0,1,844.331,431.228Zm-2.233,4.549c0,.37.478.561.788.561.43,0,.621-.227.621-.645,0-.238-.012-.37-.609-.37C842.612,435.323,842.1,435.395,842.1,435.777Zm5.217-4.561c0,.287-.681.824-.9.824-.119,0-.2-.132-.263-.215a6.758,6.758,0,0,0-1.492-1.54c-.048-.036-.155-.108-.155-.191,0-.167.549-.824.8-.824A6.128,6.128,0,0,1,847.316,431.216Z" transform="translate(-764.584 -426.716)" fill="#836660"/>
      <path id="パス_7617" data-name="パス 7617" d="M880.368,429.644c.083.012.239.06.239.168,0,.083-.072.119-.143.179-.418.31-.525,4.1-.525,4.776,0,.931-.024,2.376,1.266,2.376a3.023,3.023,0,0,0,2.244-1.158,3.8,3.8,0,0,0,.729-1.767c.036-.191.06-.394.238-.394.263,0,.991.609.991.967a4.445,4.445,0,0,1-.49,1.4,4.18,4.18,0,0,1-3.629,2.281,2.639,2.639,0,0,1-2.1-.919,4.824,4.824,0,0,1-.6-2.746q0-1.415.108-2.83c.036-.549.143-1.7.143-2.185v-.131c0-.179.012-.3.179-.3A10.143,10.143,0,0,1,880.368,429.644Z" transform="translate(-791.093 -428.056)" fill="#836660"/>
      <path id="パス_7618" data-name="パス 7618" d="M909.191,431.339a8.082,8.082,0,0,1-2.268,5.516c-.131.143-.275.286-.394.286-.239,0-.669-.382-.669-.573a.451.451,0,0,1,.167-.287,6.891,6.891,0,0,0,0-9.885.447.447,0,0,1-.167-.275c0-.227.454-.585.657-.585.119,0,.2.083.382.263A8.073,8.073,0,0,1,909.191,431.339Z" transform="translate(-809.074 -425.536)" fill="#836660"/>
      <path id="パス_7619" data-name="パス 7619" d="M929.455,448.32a7.651,7.651,0,0,1,2.328,1.946c0,.263-.6.919-.872.919-.1,0-.179-.108-.239-.179a7.344,7.344,0,0,0-1.815-1.623c-.083-.048-.215-.12-.215-.227A1.63,1.63,0,0,1,929.455,448.32Z" transform="translate(-824.097 -440.56)" fill="#836660"/>
      <path id="パス_7620" data-name="パス 7620" d="M955.049,445.636c-.382,0-.931.012-1.086.012-.251,0-.287-.072-.287-.346v-.561c0-.275.036-.346.287-.346.155,0,.7.012,1.086.012h1.015c.37,0,.872-.012,1.027-.012.251,0,.287.072.287.346v.561c0,.274-.036.346-.287.346-.155,0-.657-.012-1.027-.012Z" transform="translate(-840.602 -437.971)" fill="#836660"/>
      <path id="パス_7621" data-name="パス 7621" d="M979.562,434.679c0,2.841-1.636,4.5-3.63,4.5-1.91,0-3.426-1.445-3.426-4.167,0-2.447,1.254-4.429,3.606-4.429C977.986,430.584,979.562,431.957,979.562,434.679Zm-5.659.37c0,1.862.824,2.853,2.03,2.853,1.277,0,2.233-1.23,2.233-3.176,0-1.875-.871-2.806-2.053-2.806C974.6,431.921,973.9,433.366,973.9,435.049Z" transform="translate(-853.018 -428.864)" fill="#836660"/>
      <path id="パス_7622" data-name="パス 7622" d="M1001.175,451.387a.908.908,0,0,1-.943.967.816.816,0,0,1-.86-.836.907.907,0,0,1,.955-.955A.809.809,0,0,1,1001.175,451.387Z" transform="translate(-870.733 -442.038)" fill="#836660"/>
      <path id="パス_7623" data-name="パス 7623" d="M1015.159,433.922c1.648,0,2.913.812,2.913,2.447,0,1.4-.907,2.961-3.522,2.961a5.148,5.148,0,0,1-2.137-.454c-.167-.083-.251-.143-.251-.251a.706.706,0,0,1,.06-.227l.227-.573c.072-.168.119-.251.2-.251a.465.465,0,0,1,.227.108,3.513,3.513,0,0,0,1.743.454c1.456,0,2.053-.776,2.053-1.66,0-.919-.752-1.421-1.85-1.421a3.859,3.859,0,0,0-1.3.215.994.994,0,0,1-.322.084,1.4,1.4,0,0,1-.346-.084c-.239-.083-.31-.131-.31-.31a.734.734,0,0,1,.012-.155c.048-.358.083-.693.12-1.063l.131-1.48c.024-.323.06-.812.072-1.122.012-.286.059-.346.3-.346.155,0,1.206.024,1.815.024h.669c.609,0,1.767-.024,1.85-.024.251,0,.3.072.3.346v.633c0,.275-.048.346-.3.346-.083,0-1.241-.036-1.85-.036h-1.194c-.31,0-.37.048-.394.358l-.1,1.051a2.717,2.717,0,0,0-.024.322c0,.155.048.2.167.2a.738.738,0,0,0,.155-.012A4.173,4.173,0,0,1,1015.159,433.922Z" transform="translate(-879.166 -429.003)" fill="#836660"/>
      <path id="パス_7624" data-name="パス 7624" d="M1043.442,434.679c0,2.841-1.636,4.5-3.63,4.5-1.91,0-3.426-1.445-3.426-4.167,0-2.447,1.253-4.429,3.606-4.429C1041.866,430.584,1043.442,431.957,1043.442,434.679Zm-5.659.37c0,1.862.824,2.853,2.03,2.853,1.277,0,2.233-1.23,2.233-3.176,0-1.875-.872-2.806-2.053-2.806C1038.475,431.921,1037.783,433.366,1037.783,435.049Z" transform="translate(-895.139 -428.864)" fill="#836660"/>
      <path id="パス_7625" data-name="パス 7625" d="M1067.014,439.2c-.561,0-1.5.024-1.588.024-.262,0-.334-.1-.334-.382.012-.669.024-1.421.024-1.994V433.1c0-.585-.012-1.3-.024-1.994,0-.286.072-.382.334-.382.084,0,1.027.024,1.588.024h1.469c2.364,0,3.773,1.313,3.773,3.976,0,2.782-1.528,4.477-4.155,4.477Zm-.513-1.588c0,.3.059.358.358.358h1.206c1.875,0,2.782-1.277,2.782-3.176,0-1.611-.764-2.758-2.5-2.758h-1.492c-.3,0-.358.06-.358.358Z" transform="translate(-914.066 -428.958)" fill="#836660"/>
      <path id="パス_7626" data-name="パス 7626" d="M1103.315,440.014a.458.458,0,0,1-.12.25,2.64,2.64,0,0,1-2.065,1.122,3.82,3.82,0,0,1-1.982-.681,3.213,3.213,0,0,0-1.564-.573,1.455,1.455,0,0,0-1.146.621c-.1.132-.155.2-.227.2s-.143-.048-.251-.143l-.334-.286c-.12-.108-.179-.191-.179-.275a.459.459,0,0,1,.12-.25,2.563,2.563,0,0,1,2.065-1.146,3.9,3.9,0,0,1,2.018.7,3.149,3.149,0,0,0,1.516.561,1.416,1.416,0,0,0,1.147-.633c.107-.131.167-.191.239-.191s.131.048.239.143l.346.3C1103.255,439.847,1103.315,439.93,1103.315,440.014Z" transform="translate(-934.082 -434.319)" fill="#836660"/>
      <path id="パス_7627" data-name="パス 7627" d="M1128.215,445.636c-.382,0-.931.012-1.086.012-.251,0-.287-.072-.287-.346v-.561c0-.275.036-.346.287-.346.155,0,.7.012,1.086.012h1.015c.37,0,.871-.012,1.026-.012.251,0,.287.072.287.346v.561c0,.274-.036.346-.287.346-.155,0-.657-.012-1.026-.012Z" transform="translate(-954.782 -437.971)" fill="#836660"/>
      <path id="パス_7628" data-name="パス 7628" d="M1147.674,434.083a3.91,3.91,0,0,1,1.922-.514,2.468,2.468,0,0,1,2.686,2.555,3.257,3.257,0,0,1-6.507-.286,5.508,5.508,0,0,1,1.5-3.964,5.166,5.166,0,0,1,3.355-1.325c.239,0,.287.06.287.334v.621c0,.31-.048.358-.358.394a3.964,3.964,0,0,0-2.507,1.11,2.736,2.736,0,0,0-.693,1.158.044.044,0,0,0,.048.048A.638.638,0,0,0,1147.674,434.083Zm-.227,1.265a.659.659,0,0,0-.323.644,1.84,1.84,0,0,0,1.923,1.982,1.744,1.744,0,0,0,1.874-1.743,1.489,1.489,0,0,0-1.66-1.48A3.115,3.115,0,0,0,1147.448,435.349Z" transform="translate(-967.267 -428.842)" fill="#836660"/>
      <path id="パス_7629" data-name="パス 7629" d="M1173.327,451.387a.908.908,0,0,1-.943.967.815.815,0,0,1-.86-.836.907.907,0,0,1,.955-.955A.809.809,0,0,1,1173.327,451.387Z" transform="translate(-984.244 -442.038)" fill="#836660"/>
      <path id="パス_7630" data-name="パス 7630" d="M1190.21,434.679c0,2.841-1.636,4.5-3.63,4.5-1.91,0-3.426-1.445-3.426-4.167,0-2.447,1.254-4.429,3.606-4.429C1188.634,430.584,1190.21,431.957,1190.21,434.679Zm-5.659.37c0,1.862.824,2.853,2.029,2.853,1.277,0,2.233-1.23,2.233-3.176,0-1.875-.872-2.806-2.054-2.806C1185.243,431.921,1184.551,433.366,1184.551,435.049Z" transform="translate(-991.913 -428.864)" fill="#836660"/>
      <path id="パス_7631" data-name="パス 7631" d="M1218.021,434.679c0,2.841-1.636,4.5-3.63,4.5-1.91,0-3.426-1.445-3.426-4.167,0-2.447,1.254-4.429,3.606-4.429C1216.445,430.584,1218.021,431.957,1218.021,434.679Zm-5.659.37c0,1.862.824,2.853,2.03,2.853,1.277,0,2.233-1.23,2.233-3.176,0-1.875-.871-2.806-2.053-2.806C1213.054,431.921,1212.362,433.366,1212.362,435.049Z" transform="translate(-1010.25 -428.864)" fill="#836660"/>
      <path id="パス_7632" data-name="パス 7632" d="M1241.593,439.2c-.561,0-1.5.024-1.588.024-.262,0-.334-.1-.334-.382.012-.669.024-1.421.024-1.994V433.1c0-.585-.012-1.3-.024-1.994,0-.286.072-.382.334-.382.084,0,1.027.024,1.588.024h1.469c2.364,0,3.773,1.313,3.773,3.976,0,2.782-1.528,4.477-4.155,4.477Zm-.513-1.588c0,.3.059.358.358.358h1.206c1.874,0,2.782-1.277,2.782-3.176,0-1.611-.764-2.758-2.5-2.758h-1.493c-.3,0-.358.06-.358.358Z" transform="translate(-1029.178 -428.958)" fill="#836660"/>
      <path id="パス_7633" data-name="パス 7633" d="M1278.237,431.339a8.083,8.083,0,0,1,2.268-5.516c.132-.143.275-.286.394-.286.239,0,.669.382.669.573a.451.451,0,0,1-.167.287,6.892,6.892,0,0,0,0,9.885.448.448,0,0,1,.167.275c0,.227-.454.585-.657.585-.12,0-.2-.083-.382-.263A8.072,8.072,0,0,1,1278.237,431.339Z" transform="translate(-1054.607 -425.536)" fill="#836660"/>
      <path id="パス_7634" data-name="パス 7634" d="M1299.619,434.679c0,2.841-1.635,4.5-3.63,4.5-1.91,0-3.426-1.445-3.426-4.167,0-2.447,1.254-4.429,3.606-4.429C1298.043,430.584,1299.619,431.957,1299.619,434.679Zm-5.659.37c0,1.862.824,2.853,2.03,2.853,1.277,0,2.233-1.23,2.233-3.176,0-1.875-.872-2.806-2.054-2.806C1294.652,431.921,1293.96,433.366,1293.96,435.049Z" transform="translate(-1064.053 -428.864)" fill="#836660"/>
      <path id="パス_7635" data-name="パス 7635" d="M1321.234,451.387a.908.908,0,0,1-.943.967.815.815,0,0,1-.859-.836.907.907,0,0,1,.955-.955A.809.809,0,0,1,1321.234,451.387Z" transform="translate(-1081.769 -442.038)" fill="#836660"/>
      <path id="パス_7636" data-name="パス 7636" d="M1335.577,437.856c.609,0,1.731-.024,1.815-.024.251,0,.3.072.3.346v.561c0,.275-.048.346-.3.346-.083,0-1.206-.024-1.815-.024h-1.552c-.609,0-1.731.024-1.815.024-.25,0-.3-.072-.3-.346v-.215a.562.562,0,0,1,.287-.585c.215-.155.405-.322.608-.5,2.149-1.886,3.391-3.08,3.391-4.25,0-.776-.537-1.313-1.516-1.313a2.4,2.4,0,0,0-1.743.788c-.108.12-.179.167-.251.167s-.132-.059-.239-.167l-.477-.514c-.1-.107-.143-.179-.143-.25s.06-.155.167-.263a4.082,4.082,0,0,1,2.806-1.086c1.815,0,2.829,1.074,2.829,2.448,0,1.683-1.349,3.032-3.176,4.62-.1.084-.132.131-.132.167s.072.072.215.072Z" transform="translate(-1089.943 -428.842)" fill="#836660"/>
      <path id="パス_7637" data-name="パス 7637" d="M1359.136,433.922c1.647,0,2.913.812,2.913,2.447,0,1.4-.907,2.961-3.522,2.961a5.144,5.144,0,0,1-2.137-.454c-.167-.083-.251-.143-.251-.251a.715.715,0,0,1,.059-.227l.227-.573c.072-.168.12-.251.2-.251a.462.462,0,0,1,.227.108,3.515,3.515,0,0,0,1.743.454c1.456,0,2.054-.776,2.054-1.66,0-.919-.752-1.421-1.851-1.421a3.858,3.858,0,0,0-1.3.215.993.993,0,0,1-.323.084,1.4,1.4,0,0,1-.346-.084c-.239-.083-.31-.131-.31-.31a.734.734,0,0,1,.012-.155c.047-.358.083-.693.119-1.063l.131-1.48c.024-.323.06-.812.072-1.122.012-.286.06-.346.3-.346.155,0,1.206.024,1.815.024h.669c.609,0,1.767-.024,1.851-.024.251,0,.3.072.3.346v.633c0,.275-.048.346-.3.346-.084,0-1.242-.036-1.851-.036h-1.194c-.31,0-.37.048-.394.358l-.1,1.051a2.74,2.74,0,0,0-.024.322c0,.155.048.2.167.2a.741.741,0,0,0,.156-.012A4.167,4.167,0,0,1,1359.136,433.922Z" transform="translate(-1105.973 -429.003)" fill="#836660"/>
      <path id="パス_7638" data-name="パス 7638" d="M1383.287,439.2c-.562,0-1.5.024-1.588.024-.263,0-.335-.1-.335-.382.012-.669.024-1.421.024-1.994V433.1c0-.585-.012-1.3-.024-1.994,0-.286.072-.382.335-.382.084,0,1.026.024,1.588.024h1.468c2.365,0,3.773,1.313,3.773,3.976,0,2.782-1.529,4.477-4.155,4.477Zm-.513-1.588c0,.3.06.358.358.358h1.206c1.874,0,2.782-1.277,2.782-3.176,0-1.611-.764-2.758-2.5-2.758h-1.493c-.3,0-.358.06-.358.358Z" transform="translate(-1122.606 -428.958)" fill="#836660"/>
      <path id="パス_7639" data-name="パス 7639" d="M1410.32,430.478a.356.356,0,0,0,.227-.12c.262-.31.394-.478.633-.812a.23.23,0,0,0,.036-.119c0-.108-.1-.143-.191-.155h-.561c-.406,0-.8.035-1.206.035-.263,0-.251-.143-.251-.561s-.012-.549.251-.549c.406,0,.8.024,1.206.024h.836c.227,0,.322-.1.322-.335V427.6a4.59,4.59,0,0,0-.036-.585c0-.036-.012-.072-.012-.108,0-.143.12-.167.239-.167.263,0,.823.048,1.086.072.1.012.275.024.275.143,0,.083-.072.119-.143.179-.143.12-.143.31-.132.752,0,.239.1.335.334.335h.752c.406,0,.8-.024,1.206-.024.263,0,.263.119.263.549s0,.561-.263.561c-.406,0-.8-.035-1.206-.035h-1.54c-.036.012-.06.012-.06.059,0,.024,0,.036.024.048.167.12.286.191.286.275a.119.119,0,0,1-.119.119h-.083a.232.232,0,0,0-.191.1,10.772,10.772,0,0,1-1,1.206.3.3,0,0,0-.1.215.314.314,0,0,0,.108.227c.083.1.167.168.25.263a.37.37,0,0,0,.227.107.339.339,0,0,0,.227-.107,9.6,9.6,0,0,0,1.254-1.528c.048-.072.119-.155.2-.155a2.91,2.91,0,0,1,1.038.7c0,.107-.119.155-.2.167-.167.048-.215.12-.358.287a13.432,13.432,0,0,1-1.827,1.946,15.731,15.731,0,0,1-1.8,1.385c-.024.012-.06.036-.1.06a1.765,1.765,0,0,1-.573.275c-.215,0-.681-.525-.681-.728,0-.132.263-.275.358-.334a13.882,13.882,0,0,0,1.373-.932.25.25,0,0,0,.119-.215.31.31,0,0,0-.083-.2c-.656-.621-.883-.836-1.564-1.433a.271.271,0,0,1-.131-.2c0-.167.466-.728.669-.728.119,0,.31.167.394.25A.342.342,0,0,0,1410.32,430.478Zm2.471,5.038a.374.374,0,0,0-.227.083c-.454.358-.919.68-1.4.991a12.02,12.02,0,0,1-1.218.657.865.865,0,0,1-.31.1c-.239,0-.633-.657-.633-.812s.31-.3.442-.358a12.547,12.547,0,0,0,4.609-3.617c.06-.072.131-.155.226-.155a3.256,3.256,0,0,1,.86.549c.059.048.179.131.179.215,0,.143-.215.143-.31.155-.06.012-.132.108-.179.155-.263.311-.657.7-.943.991a.312.312,0,0,0-.107.215.289.289,0,0,0,.107.215,10.344,10.344,0,0,1,1.54,1.8c0,.2-.573.693-.776.693-.107,0-.167-.108-.227-.179q-.663-.824-1.4-1.576A.382.382,0,0,0,1412.792,435.516Zm3.092-6.34a6.564,6.564,0,0,0-.036-.848.334.334,0,0,1-.012-.107c0-.12.1-.143.191-.143.143,0,.931.059,1.087.072.083.012.191.036.191.143,0,.083-.1.131-.168.179-.119.083-.131.191-.131.621v4c0,.478.036.955.036,1.433,0,.323-.12.335-.6.335s-.585-.012-.585-.335c0-.478.024-.955.024-1.433Zm2.149-1.182a9.01,9.01,0,0,0-.047-1.015c0-.024-.012-.072-.012-.1,0-.143.108-.155.215-.155.191,0,.776.048,1,.06.131.012.3.024.3.191,0,.083-.072.12-.168.179-.131.084-.143.191-.143.693v7.307c0,.286.024.585.024.884,0,1.194-.931,1.349-1.922,1.349-.406,0-.656.024-.656-.931,0-.143,0-.382.2-.382.036,0,.179.024.227.024.108.012.275.012.394.012.585,0,.585-.179.585-.86Z" transform="translate(-1140.809 -426.323)" fill="#836660"/>
      <path id="パス_7640" data-name="パス 7640" d="M1453.636,430.313a.3.3,0,0,1-.119.2,11.086,11.086,0,0,0-1.385,2.352.464.464,0,0,0-.072.2c0,.215.239.227.657.334a7.391,7.391,0,0,1,.823.275.568.568,0,0,0,.2.06c.18,0,.239-.119.275-.262a7.535,7.535,0,0,0,.167-1.254c0-.06-.012-.12-.012-.179,0-.12.036-.227.179-.227.1,0,1.063.2,1.206.239.083.012.215.047.215.155,0,.084-.1.167-.191.263a1.062,1.062,0,0,0-.084.311c-.072.382-.167.764-.263,1.134a.849.849,0,0,0-.048.239c0,.191.12.286.275.37.239.119.943.5,1.11.585.107.048.262.12.262.263,0,.227-.6,1.158-.836,1.158-.083,0-.263-.155-.358-.251a3.235,3.235,0,0,0-.967-.621c-.131,0-.191.107-.251.2a7.917,7.917,0,0,1-1.552,2.006c-.143.119-.74.633-.907.633s-.991-.514-.991-.74c0-.108.155-.18.227-.227a5.14,5.14,0,0,0,2.173-2.376c0-.215-.191-.3-.633-.453a6,6,0,0,0-1.146-.3.375.375,0,0,0-.347.251,19.145,19.145,0,0,1-.955,1.779,1.6,1.6,0,0,1-1.349.812,1.457,1.457,0,0,1-1.421-1.528,2.822,2.822,0,0,1,2.328-2.471,6.431,6.431,0,0,1,.693-.108c.227-.012.286-.143.37-.3.263-.537.514-1.086.788-1.624a.317.317,0,0,0,.06-.168.122.122,0,0,0-.131-.119c-.036,0-1,.37-1.4.525a1.726,1.726,0,0,1-.465.143c-.37,0-.716-.955-.716-1.11s.179-.155.394-.191a11.248,11.248,0,0,0,2.746-.836.778.778,0,0,1,.37-.143C1452.8,429.322,1453.636,430.05,1453.636,430.313Zm-3.737,4.071c-.334,0-1.313.549-1.313,1.3,0,.2.1.382.31.382.358,0,.693-.633.847-.907a3.318,3.318,0,0,0,.286-.645A.124.124,0,0,0,1449.9,434.384Z" transform="translate(-1166.229 -428.032)" fill="#836660"/>
      <path id="パス_7641" data-name="パス 7641" d="M1482.391,431.339a8.082,8.082,0,0,1-2.268,5.516c-.131.143-.275.286-.395.286-.238,0-.668-.382-.668-.573a.453.453,0,0,1,.167-.287,6.891,6.891,0,0,0,0-9.885.448.448,0,0,1-.167-.275c0-.227.453-.585.656-.585.12,0,.2.083.382.263A8.073,8.073,0,0,1,1482.391,431.339Z" transform="translate(-1187.023 -425.536)" fill="#836660"/>
      <path id="パス_7642" data-name="パス 7642" d="M776.827,496.819c-.382,0-.931.012-1.086.012-.251,0-.286-.072-.286-.346v-.561c0-.275.036-.346.286-.346.155,0,.7.012,1.086.012h1.015c.37,0,.872-.012,1.027-.012.251,0,.286.072.286.346v.561c0,.275-.036.346-.286.346-.155,0-.657-.012-1.027-.012Z" transform="translate(-723.089 -471.719)" fill="#836660"/>
      <path id="パス_7643" data-name="パス 7643" d="M796.286,485.267a3.9,3.9,0,0,1,1.922-.514,2.468,2.468,0,0,1,2.686,2.555,3.257,3.257,0,0,1-6.507-.286,5.508,5.508,0,0,1,1.5-3.964,5.167,5.167,0,0,1,3.355-1.325c.239,0,.286.06.286.334v.621c0,.31-.048.358-.358.394a3.965,3.965,0,0,0-2.507,1.11,2.737,2.737,0,0,0-.693,1.158.044.044,0,0,0,.048.047A.637.637,0,0,0,796.286,485.267Zm-.227,1.265a.659.659,0,0,0-.322.645,1.84,1.84,0,0,0,1.922,1.982,1.743,1.743,0,0,0,1.874-1.743,1.489,1.489,0,0,0-1.659-1.48A3.113,3.113,0,0,0,796.06,486.532Z" transform="translate(-735.573 -462.591)" fill="#836660"/>
      <path id="パス_7644" data-name="パス 7644" d="M821.939,502.57a.908.908,0,0,1-.943.967.815.815,0,0,1-.859-.836.907.907,0,0,1,.955-.955A.809.809,0,0,1,821.939,502.57Z" transform="translate(-752.551 -475.786)" fill="#836660"/>
      <path id="パス_7645" data-name="パス 7645" d="M835.923,485.106c1.648,0,2.913.812,2.913,2.447,0,1.4-.907,2.961-3.522,2.961a5.142,5.142,0,0,1-2.137-.454c-.167-.083-.251-.143-.251-.25a.7.7,0,0,1,.06-.227l.227-.573c.072-.167.12-.251.2-.251a.46.46,0,0,1,.227.107,3.515,3.515,0,0,0,1.743.454c1.457,0,2.054-.776,2.054-1.66,0-.919-.752-1.421-1.851-1.421a3.868,3.868,0,0,0-1.3.215.985.985,0,0,1-.322.084,1.38,1.38,0,0,1-.346-.084c-.239-.083-.31-.131-.31-.31a.728.728,0,0,1,.012-.155c.048-.358.083-.693.119-1.063l.132-1.48c.024-.322.06-.812.072-1.122.012-.286.06-.346.3-.346.155,0,1.206.024,1.815.024h.669c.609,0,1.767-.024,1.85-.024.251,0,.3.072.3.346v.633c0,.275-.048.346-.3.346-.083,0-1.242-.035-1.85-.035H835.23c-.31,0-.37.048-.394.358l-.1,1.051a2.78,2.78,0,0,0-.023.322c0,.155.048.2.167.2a.717.717,0,0,0,.155-.012A4.193,4.193,0,0,1,835.923,485.106Z" transform="translate(-760.984 -462.752)" fill="#836660"/>
      <path id="パス_7646" data-name="パス 7646" d="M864.205,485.863c0,2.842-1.636,4.5-3.63,4.5-1.91,0-3.426-1.445-3.426-4.167,0-2.447,1.254-4.429,3.606-4.429C862.629,481.768,864.205,483.141,864.205,485.863Zm-5.659.37c0,1.863.824,2.854,2.029,2.854,1.278,0,2.233-1.23,2.233-3.176,0-1.875-.872-2.805-2.054-2.805C859.238,483.105,858.546,484.55,858.546,486.233Z" transform="translate(-776.956 -462.614)" fill="#836660"/>
      <path id="パス_7647" data-name="パス 7647" d="M887.778,490.385c-.561,0-1.5.024-1.588.024-.263,0-.334-.1-.334-.382.012-.668.024-1.42.024-1.994v-3.749c0-.585-.012-1.3-.024-1.994,0-.286.072-.382.334-.382.084,0,1.027.024,1.588.024h1.469c2.364,0,3.773,1.313,3.773,3.976,0,2.782-1.528,4.477-4.155,4.477Zm-.513-1.588c0,.3.06.358.358.358h1.206c1.875,0,2.782-1.277,2.782-3.176,0-1.612-.764-2.758-2.5-2.758h-1.492c-.3,0-.358.06-.358.358Z" transform="translate(-795.884 -462.706)" fill="#836660"/>
      <path id="パス_7648" data-name="パス 7648" d="M924.078,491.2a.459.459,0,0,1-.12.25,2.641,2.641,0,0,1-2.065,1.122,3.823,3.823,0,0,1-1.982-.681,3.215,3.215,0,0,0-1.564-.573,1.456,1.456,0,0,0-1.146.621c-.1.131-.155.2-.227.2s-.143-.048-.251-.143l-.334-.287c-.119-.107-.179-.191-.179-.275a.458.458,0,0,1,.119-.251,2.562,2.562,0,0,1,2.065-1.146,3.9,3.9,0,0,1,2.018.7,3.154,3.154,0,0,0,1.516.561,1.415,1.415,0,0,0,1.146-.633c.108-.131.167-.191.239-.191s.132.048.239.143l.346.3C924.018,491.03,924.078,491.114,924.078,491.2Z" transform="translate(-815.899 -468.067)" fill="#836660"/>
      <path id="パス_7649" data-name="パス 7649" d="M948.978,496.819c-.382,0-.931.012-1.086.012-.251,0-.287-.072-.287-.346v-.561c0-.275.036-.346.287-.346.155,0,.7.012,1.086.012h1.015c.37,0,.872-.012,1.027-.012.251,0,.287.072.287.346v.561c0,.275-.036.346-.287.346-.155,0-.656-.012-1.027-.012Z" transform="translate(-836.599 -471.719)" fill="#836660"/>
      <path id="パス_7650" data-name="パス 7650" d="M966.416,488.043c0,.693.036,1.946.036,2.089,0,.251-.072.3-.346.3h-.741c-.275,0-.346-.048-.346-.3,0-.143.036-1.4.036-2.089v-4.179c0-.2-.036-.286-.143-.286a.487.487,0,0,0-.191.048c-.358.131-.765.3-1.075.442a.535.535,0,0,1-.227.072c-.107,0-.155-.084-.215-.263l-.227-.6a.644.644,0,0,1-.047-.227c0-.107.072-.167.274-.227a18.539,18.539,0,0,0,1.863-.7,1.583,1.583,0,0,1,.7-.143h.323c.274,0,.346.048.346.3,0,.179-.024,1.4-.024,2.089Z" transform="translate(-846.704 -462.752)" fill="#836660"/>
      <path id="パス_7651" data-name="パス 7651" d="M989.292,485.863c0,2.842-1.636,4.5-3.63,4.5-1.91,0-3.426-1.445-3.426-4.167,0-2.447,1.253-4.429,3.606-4.429C987.716,481.768,989.292,483.141,989.292,485.863Zm-5.659.37c0,1.863.824,2.854,2.029,2.854,1.277,0,2.233-1.23,2.233-3.176,0-1.875-.872-2.805-2.054-2.805C984.325,483.105,983.633,484.55,983.633,486.233Z" transform="translate(-859.434 -462.614)" fill="#836660"/>
      <path id="パス_7652" data-name="パス 7652" d="M1010.906,502.57a.908.908,0,0,1-.943.967.815.815,0,0,1-.859-.836.907.907,0,0,1,.955-.955A.809.809,0,0,1,1010.906,502.57Z" transform="translate(-877.149 -475.786)" fill="#836660"/>
      <path id="パス_7653" data-name="パス 7653" d="M1027.788,485.863c0,2.842-1.635,4.5-3.63,4.5-1.91,0-3.426-1.445-3.426-4.167,0-2.447,1.253-4.429,3.605-4.429C1026.212,481.768,1027.788,483.141,1027.788,485.863Zm-5.659.37c0,1.863.824,2.854,2.03,2.854,1.277,0,2.233-1.23,2.233-3.176,0-1.875-.872-2.805-2.054-2.805C1022.821,483.105,1022.129,484.55,1022.129,486.233Z" transform="translate(-884.817 -462.614)" fill="#836660"/>
      <path id="パス_7654" data-name="パス 7654" d="M1055.6,485.863c0,2.842-1.636,4.5-3.629,4.5-1.91,0-3.426-1.445-3.426-4.167,0-2.447,1.253-4.429,3.605-4.429C1054.023,481.768,1055.6,483.141,1055.6,485.863Zm-5.659.37c0,1.863.824,2.854,2.03,2.854,1.277,0,2.233-1.23,2.233-3.176,0-1.875-.871-2.805-2.053-2.805C1050.632,483.105,1049.94,484.55,1049.94,486.233Z" transform="translate(-903.155 -462.614)" fill="#836660"/>
      <path id="パス_7655" data-name="パス 7655" d="M1079.172,490.385c-.562,0-1.5.024-1.589.024-.262,0-.334-.1-.334-.382.012-.668.024-1.42.024-1.994v-3.749c0-.585-.012-1.3-.024-1.994,0-.286.072-.382.334-.382.084,0,1.027.024,1.589.024h1.468c2.364,0,3.773,1.313,3.773,3.976,0,2.782-1.528,4.477-4.155,4.477Zm-.513-1.588c0,.3.06.358.358.358h1.206c1.874,0,2.782-1.277,2.782-3.176,0-1.612-.764-2.758-2.5-2.758h-1.492c-.3,0-.358.06-.358.358Z" transform="translate(-922.082 -462.706)" fill="#836660"/>
      <path id="パス_7656" data-name="パス 7656" d="M1115.815,482.523a8.08,8.08,0,0,1,2.269-5.516c.131-.143.274-.286.394-.286.239,0,.669.382.669.573a.451.451,0,0,1-.167.286,6.891,6.891,0,0,0,0,9.885.448.448,0,0,1,.167.275c0,.227-.454.585-.657.585-.12,0-.2-.083-.382-.262A8.073,8.073,0,0,1,1115.815,482.523Z" transform="translate(-947.511 -459.286)" fill="#836660"/>
      <path id="パス_7657" data-name="パス 7657" d="M1137.2,485.863c0,2.842-1.635,4.5-3.629,4.5-1.91,0-3.426-1.445-3.426-4.167,0-2.447,1.253-4.429,3.606-4.429C1135.622,481.768,1137.2,483.141,1137.2,485.863Zm-5.659.37c0,1.863.824,2.854,2.03,2.854,1.277,0,2.233-1.23,2.233-3.176,0-1.875-.872-2.805-2.053-2.805C1132.231,483.105,1131.539,484.55,1131.539,486.233Z" transform="translate(-956.958 -462.614)" fill="#836660"/>
      <path id="パス_7658" data-name="パス 7658" d="M1158.812,502.57a.908.908,0,0,1-.943.967.815.815,0,0,1-.86-.836.907.907,0,0,1,.955-.955A.809.809,0,0,1,1158.812,502.57Z" transform="translate(-974.673 -475.786)" fill="#836660"/>
      <path id="パス_7659" data-name="パス 7659" d="M1172.795,485.106c1.648,0,2.913.812,2.913,2.447,0,1.4-.908,2.961-3.522,2.961a5.142,5.142,0,0,1-2.137-.454c-.167-.083-.251-.143-.251-.25a.7.7,0,0,1,.06-.227l.227-.573c.072-.167.119-.251.2-.251a.461.461,0,0,1,.227.107,3.516,3.516,0,0,0,1.743.454c1.456,0,2.053-.776,2.053-1.66,0-.919-.752-1.421-1.85-1.421a3.87,3.87,0,0,0-1.3.215.984.984,0,0,1-.322.084,1.386,1.386,0,0,1-.346-.084c-.239-.083-.31-.131-.31-.31a.732.732,0,0,1,.012-.155c.048-.358.083-.693.12-1.063l.131-1.48c.024-.322.06-.812.072-1.122.012-.286.06-.346.3-.346.156,0,1.206.024,1.815.024h.669c.609,0,1.767-.024,1.851-.024.25,0,.3.072.3.346v.633c0,.275-.048.346-.3.346-.083,0-1.242-.035-1.851-.035H1172.1c-.31,0-.37.048-.394.358l-.1,1.051a2.712,2.712,0,0,0-.024.322c0,.155.047.2.167.2a.718.718,0,0,0,.156-.012A4.194,4.194,0,0,1,1172.795,485.106Z" transform="translate(-983.106 -462.752)" fill="#836660"/>
      <path id="パス_7660" data-name="パス 7660" d="M1201.078,485.863c0,2.842-1.635,4.5-3.629,4.5-1.91,0-3.426-1.445-3.426-4.167,0-2.447,1.253-4.429,3.606-4.429C1199.5,481.768,1201.078,483.141,1201.078,485.863Zm-5.659.37c0,1.863.824,2.854,2.029,2.854,1.277,0,2.233-1.23,2.233-3.176,0-1.875-.872-2.805-2.054-2.805C1196.111,483.105,1195.419,484.55,1195.419,486.233Z" transform="translate(-999.079 -462.614)" fill="#836660"/>
      <path id="パス_7661" data-name="パス 7661" d="M1224.651,490.385c-.561,0-1.5.024-1.588.024-.263,0-.334-.1-.334-.382.012-.668.024-1.42.024-1.994v-3.749c0-.585-.012-1.3-.024-1.994,0-.286.072-.382.334-.382.084,0,1.027.024,1.588.024h1.468c2.364,0,3.773,1.313,3.773,3.976,0,2.782-1.528,4.477-4.155,4.477Zm-.513-1.588c0,.3.059.358.358.358h1.206c1.875,0,2.782-1.277,2.782-3.176,0-1.612-.764-2.758-2.5-2.758H1224.5c-.3,0-.358.06-.358.358Z" transform="translate(-1018.007 -462.706)" fill="#836660"/>
      <path id="パス_7662" data-name="パス 7662" d="M1251.685,481.661a.357.357,0,0,0,.227-.119c.262-.311.394-.478.633-.812a.228.228,0,0,0,.036-.12c0-.107-.1-.143-.192-.155h-.561c-.406,0-.8.036-1.206.036-.263,0-.251-.143-.251-.561s-.012-.549.251-.549c.406,0,.8.023,1.206.023h.836c.227,0,.322-.1.322-.334v-.286a4.664,4.664,0,0,0-.036-.585c0-.035-.012-.072-.012-.107,0-.143.119-.167.239-.167.263,0,.824.048,1.086.072.1.012.275.024.275.143,0,.083-.072.12-.144.179-.143.119-.143.31-.131.752,0,.239.1.334.334.334h.752c.406,0,.8-.023,1.206-.023.263,0,.263.119.263.549s0,.561-.263.561c-.406,0-.8-.036-1.206-.036h-1.54c-.035.012-.06.012-.06.06,0,.024,0,.036.024.048.167.119.286.191.286.274a.119.119,0,0,1-.119.12h-.083a.232.232,0,0,0-.191.1,10.76,10.76,0,0,1-1,1.206.3.3,0,0,0-.1.215.316.316,0,0,0,.107.227c.083.1.167.167.25.263a.371.371,0,0,0,.227.108.339.339,0,0,0,.227-.108,9.591,9.591,0,0,0,1.254-1.528c.048-.072.12-.155.2-.155a2.913,2.913,0,0,1,1.038.7c0,.108-.119.155-.2.167-.167.048-.215.119-.359.286a13.381,13.381,0,0,1-1.826,1.946,15.717,15.717,0,0,1-1.8,1.385,1.043,1.043,0,0,0-.1.06,1.769,1.769,0,0,1-.573.275c-.215,0-.681-.525-.681-.728,0-.132.263-.275.358-.335a13.927,13.927,0,0,0,1.373-.931.251.251,0,0,0,.12-.215.313.313,0,0,0-.084-.2c-.656-.621-.883-.836-1.564-1.433a.27.27,0,0,1-.131-.2c0-.167.466-.728.669-.728.119,0,.31.167.394.25A.342.342,0,0,0,1251.685,481.661Zm2.471,5.038a.377.377,0,0,0-.227.083c-.454.358-.92.68-1.4.991a11.905,11.905,0,0,1-1.218.657.859.859,0,0,1-.31.1c-.239,0-.633-.656-.633-.812s.311-.3.442-.358a12.547,12.547,0,0,0,4.609-3.617c.059-.072.131-.155.227-.155a3.252,3.252,0,0,1,.86.549c.06.048.179.131.179.215,0,.143-.215.143-.31.155-.06.012-.131.107-.179.155-.263.31-.657.7-.943.991a.315.315,0,0,0-.107.215.292.292,0,0,0,.107.215,10.325,10.325,0,0,1,1.54,1.8c0,.2-.573.692-.776.692-.108,0-.167-.107-.227-.179q-.663-.824-1.4-1.576A.383.383,0,0,0,1254.156,486.7Zm3.092-6.34a6.56,6.56,0,0,0-.036-.848.33.33,0,0,1-.012-.108c0-.119.1-.143.191-.143.143,0,.931.06,1.086.072.083.012.191.036.191.143,0,.083-.1.131-.167.179-.12.084-.132.191-.132.621v4c0,.477.036.955.036,1.433,0,.322-.119.334-.6.334s-.585-.012-.585-.334c0-.478.024-.956.024-1.433Zm2.149-1.182a9,9,0,0,0-.047-1.014c0-.024-.012-.072-.012-.1,0-.143.107-.155.215-.155.191,0,.776.048,1,.06.131.012.3.024.3.191,0,.083-.072.119-.167.179-.131.083-.143.191-.143.693v7.307c0,.286.024.585.024.884,0,1.194-.931,1.349-1.922,1.349-.406,0-.656.024-.656-.931,0-.143,0-.382.2-.382.036,0,.179.024.227.024.108.012.275.012.394.012.585,0,.585-.179.585-.859Z" transform="translate(-1036.21 -460.071)" fill="#836660"/>
      <path id="パス_7663" data-name="パス 7663" d="M1295,481.5a.3.3,0,0,1-.119.2,11.106,11.106,0,0,0-1.385,2.352.465.465,0,0,0-.071.2c0,.215.239.227.657.334a7.485,7.485,0,0,1,.824.275.572.572,0,0,0,.2.06c.179,0,.239-.119.275-.263a7.543,7.543,0,0,0,.167-1.254c0-.06-.012-.12-.012-.179,0-.119.036-.227.179-.227.1,0,1.063.2,1.206.239.083.012.214.048.214.155,0,.084-.1.167-.191.263a1.06,1.06,0,0,0-.084.31c-.072.382-.167.764-.263,1.134a.844.844,0,0,0-.048.239c0,.191.119.286.275.37.239.12.943.5,1.11.585.107.048.263.12.263.263,0,.227-.6,1.158-.836,1.158-.083,0-.262-.155-.358-.251a3.24,3.24,0,0,0-.967-.621c-.132,0-.191.108-.251.2a7.921,7.921,0,0,1-1.552,2.006c-.143.119-.74.633-.907.633s-.991-.514-.991-.74c0-.107.155-.179.227-.227a5.14,5.14,0,0,0,2.172-2.376c0-.215-.191-.3-.633-.453a6,6,0,0,0-1.146-.3.374.374,0,0,0-.346.251,19.465,19.465,0,0,1-.955,1.779,1.6,1.6,0,0,1-1.349.812,1.457,1.457,0,0,1-1.421-1.528,2.823,2.823,0,0,1,2.328-2.471,6.447,6.447,0,0,1,.693-.107c.227-.012.286-.143.37-.3.263-.537.514-1.087.788-1.624a.315.315,0,0,0,.06-.167.122.122,0,0,0-.132-.119c-.036,0-1,.37-1.4.525a1.733,1.733,0,0,1-.465.143c-.37,0-.717-.955-.717-1.11s.179-.155.394-.191a11.262,11.262,0,0,0,2.746-.836.776.776,0,0,1,.37-.143C1294.165,480.506,1295,481.234,1295,481.5Zm-3.737,4.071c-.334,0-1.313.549-1.313,1.3,0,.2.1.382.31.382.358,0,.693-.633.848-.907a3.337,3.337,0,0,0,.286-.645A.124.124,0,0,0,1291.264,485.568Z" transform="translate(-1061.63 -461.782)" fill="#836660"/>
      <path id="パス_7664" data-name="パス 7664" d="M1323.755,482.523a8.081,8.081,0,0,1-2.268,5.516c-.131.143-.275.286-.394.286-.239,0-.668-.382-.668-.573a.451.451,0,0,1,.167-.287,6.891,6.891,0,0,0,0-9.885.448.448,0,0,1-.167-.275c0-.227.453-.585.657-.585.119,0,.2.083.382.262A8.075,8.075,0,0,1,1323.755,482.523Z" transform="translate(-1082.424 -459.286)" fill="#836660"/>
    </g>
  </g>
</svg>
