<svg id="グループ_792" data-name="グループ 792" xmlns="http://www.w3.org/2000/svg" width="52.892" height="10.18" viewBox="0 0 52.892 10.18">
  <path id="パス_7680" data-name="パス 7680" d="M197.555,899.468c0,2.178-1.8,3.483-4.411,3.483s-4.115-1.318-4.115-3.456v-3.954c0-.713-.04-2.259-.04-2.353,0-.283.081-.336.39-.336h1.587c.309,0,.39.053.39.336,0,.094-.04,1.64-.04,2.353v3.537c0,1.116.713,1.748,1.923,1.748s2.071-.618,2.071-1.762v-3.523c0-.713-.04-2.259-.04-2.353,0-.283.081-.336.39-.336h1.546c.309,0,.39.053.39.336,0,.094-.04,1.64-.04,2.353Z" transform="translate(-188.989 -892.771)" fill="#856660"/>
  <path id="パス_7681" data-name="パス 7681" d="M223.628,900.087c-.256.619-.578,1.385-.941,2.3-.135.323-.2.377-.552.377H221.1c-.35,0-.417-.054-.551-.377-.363-.914-.672-1.681-.928-2.272l-1.936-4.519c-.269-.619-.551-1.264-1.049-2.381a.576.576,0,0,1-.081-.228c0-.108.094-.134.309-.134h1.829c.35,0,.417.053.538.376.39,1.063.646,1.694.861,2.233l1.426,3.483c.054.134.108.215.148.215s.094-.081.148-.215L223.2,895.5c.229-.578.484-1.21.861-2.273.121-.323.188-.376.538-.376h1.789c.215,0,.309.027.309.134a.674.674,0,0,1-.067.228c-.524,1.116-.807,1.775-1.049,2.34Z" transform="translate(-206.403 -892.771)" fill="#856660"/>
  <path id="パス_7682" data-name="パス 7682" d="M265.182,901.925c0,.122-.094.189-.283.283a6.365,6.365,0,0,1-2.515.5,4.514,4.514,0,0,1-4.828-4.76c0-3.013,1.8-5.312,5.272-5.312a5.892,5.892,0,0,1,2.232.43c.2.094.3.161.3.283a.806.806,0,0,1-.067.256l-.538,1.479c-.081.2-.121.282-.215.282a.576.576,0,0,1-.269-.094,3.2,3.2,0,0,0-1.439-.336,2.745,2.745,0,0,0-2.905,2.958,2.536,2.536,0,0,0,2.717,2.676,3.4,3.4,0,0,0,1.506-.323.58.58,0,0,1,.269-.094c.094,0,.148.081.229.282l.471,1.237A.8.8,0,0,1,265.182,901.925Z" transform="translate(-232.304 -892.633)" fill="#856660"/>
  <path id="パス_7683" data-name="パス 7683" d="M291.655,899.468c0,2.178-1.8,3.483-4.411,3.483s-4.115-1.318-4.115-3.456v-3.954c0-.713-.04-2.259-.04-2.353,0-.283.081-.336.39-.336h1.587c.309,0,.39.053.39.336,0,.094-.041,1.64-.041,2.353v3.537c0,1.116.713,1.748,1.923,1.748s2.071-.618,2.071-1.762v-3.523c0-.713-.04-2.259-.04-2.353,0-.283.081-.336.39-.336h1.546c.309,0,.39.053.39.336,0,.094-.04,1.64-.04,2.353Z" transform="translate(-248.433 -892.771)" fill="#856660"/>
  <path id="パス_7684" data-name="パス 7684" d="M316.112,900.027c0,.713.04,2.259.04,2.353,0,.282-.081.336-.39.336h-1.587c-.309,0-.39-.054-.39-.336,0-.094.04-1.641.04-2.353v-4.693c0-.336-.067-.4-.4-.4h-.282c-.484,0-1.721.027-1.815.027-.282,0-.336-.081-.336-.39v-1.4c0-.309.054-.39.336-.39.094,0,1.452.027,2.085.027h3.12c.632,0,1.99-.027,2.084-.027.282,0,.336.08.336.39v1.4c0,.309-.054.39-.336.39-.094,0-1.331-.027-1.815-.027h-.283c-.336,0-.4.067-.4.4Z" transform="translate(-266.057 -892.725)" fill="#856660"/>
</svg>
