<svg xmlns="http://www.w3.org/2000/svg" width="108.04" height="20.249" viewBox="0 0 108.04 20.249">
  <g id="グループ_2425" data-name="グループ 2425" transform="translate(-138.438 -3.171)">
    <path id="パス_11096" data-name="パス 11096" d="M648.505,761.7c0,1.643.085,4.616.085,4.956,0,.595-.17.708-.821.708h-1.756c-.651,0-.821-.113-.821-.708,0-.34.085-3.313.085-4.956V751.79c0-.482-.085-.679-.341-.679a1.151,1.151,0,0,0-.453.113c-.849.312-1.813.708-2.549,1.048a1.273,1.273,0,0,1-.538.17c-.255,0-.368-.2-.51-.624l-.538-1.415a1.513,1.513,0,0,1-.113-.538c0-.254.17-.4.651-.538a43.815,43.815,0,0,0,4.418-1.671,3.757,3.757,0,0,1,1.671-.34h.765c.651,0,.821.113.821.708,0,.425-.057,3.313-.057,4.955Z" transform="translate(-501.798 -744.145)" fill="#836660"/>
    <path id="パス_11097" data-name="パス 11097" d="M670.553,763.827c0,.962.057,2.633.057,2.832,0,.595-.17.708-.821.708H668.2c-.651,0-.821-.113-.821-.708,0-.2.057-1.869.057-2.832,0-.651-.113-.766-.765-.766H662.2c-1.643,0-4.079.057-4.277.057-.595,0-.708-.17-.708-.821v-.482a2.853,2.853,0,0,1,.4-1.614c.623-1.133,1.218-2.294,1.784-3.4l2.493-4.814c.594-1.161,1.246-2.464,1.926-3.908.283-.652.453-.765,1.189-.765h2.124c.425,0,.623.057.623.255a1.431,1.431,0,0,1-.2.481c-.907,1.671-1.643,3.059-2.351,4.418l-3.625,7a1.3,1.3,0,0,0-.17.51c0,.2.2.254.623.254h4.645c.679,0,.765-.17.765-.821,0-1.925-.057-4.5-.057-4.7,0-.595.17-.707.821-.707h1.586c.651,0,.821.112.821.707,0,.2-.057,2.747-.057,4.758,0,.651.113.764.765.764.765,0,2.152-.028,2.351-.028.594,0,.708.17.708.821V762.3c0,.651-.114.821-.708.821-.2,0-1.586-.057-2.351-.057C670.666,763.061,670.553,763.175,670.553,763.827Z" transform="translate(-505.608 -744.145)" fill="#836660"/>
    <path id="パス_11098" data-name="パス 11098" d="M688.009,769.864a2.155,2.155,0,0,1-2.237,2.294,1.934,1.934,0,0,1-2.039-1.982A2.152,2.152,0,0,1,686,767.91,1.92,1.92,0,0,1,688.009,769.864Z" transform="translate(-511.559 -748.766)" fill="#836660"/>
    <path id="パス_11099" data-name="パス 11099" d="M702.14,754.736c3.908,0,6.91,1.925,6.91,5.805,0,3.313-2.151,7.024-8.354,7.024a12.209,12.209,0,0,1-5.069-1.077c-.4-.2-.595-.34-.595-.594a1.675,1.675,0,0,1,.142-.539l.537-1.36c.17-.4.283-.594.482-.594a1.086,1.086,0,0,1,.538.255,8.344,8.344,0,0,0,4.135,1.077c3.455,0,4.871-1.841,4.871-3.938,0-2.18-1.784-3.369-4.389-3.369a9.155,9.155,0,0,0-3.087.51,2.372,2.372,0,0,1-.765.2,3.346,3.346,0,0,1-.821-.2c-.567-.2-.736-.311-.736-.736a1.768,1.768,0,0,1,.028-.368c.113-.85.2-1.643.283-2.521l.312-3.512c.057-.765.142-1.926.17-2.662.028-.68.141-.821.708-.821.368,0,2.86.057,4.3.057h1.586c1.444,0,4.191-.057,4.39-.057.594,0,.707.17.707.821v1.5c0,.651-.113.821-.707.821-.2,0-2.946-.085-4.39-.085H700.5c-.736,0-.878.112-.934.849l-.227,2.493a6.549,6.549,0,0,0-.057.764c0,.368.113.482.4.482a1.713,1.713,0,0,0,.368-.029A9.92,9.92,0,0,1,702.14,754.736Z" transform="translate(-514.095 -744.145)" fill="#836660"/>
    <path id="パス_11100" data-name="パス 11100" d="M722.292,764.383c0,1.275.057,3.625.057,3.824,0,.595-.17.708-.821.708h-1.642c-.651,0-.822-.113-.822-.708,0-.2.057-2.549.057-3.824v-5.465c0-1.275-.057-3.625-.057-3.824,0-.595.171-.708.822-.708h1.388c.651,0,.764.113.793.765.029.368.085.538.226.538a.868.868,0,0,0,.425-.2,6.1,6.1,0,0,1,3.766-1.275,4.5,4.5,0,0,1,3.4,1.36c.255.283.4.425.566.425.142,0,.283-.114.567-.341a6.983,6.983,0,0,1,4.248-1.444c2.8,0,4.673,1.926,4.673,5.069v5.1c0,1.275.056,3.625.056,3.824,0,.595-.169.708-.82.708h-1.643c-.651,0-.821-.113-.821-.708,0-.2.057-2.549.057-3.824v-4.219c0-1.728-.821-2.889-2.577-2.889a4.042,4.042,0,0,0-2.492.907,1.068,1.068,0,0,0-.538,1.1v5.1c0,1.275.057,3.625.057,3.824,0,.595-.17.708-.821.708h-1.643c-.651,0-.821-.113-.821-.708,0-.2.056-2.549.056-3.824v-4.219c0-1.728-.821-2.889-2.577-2.889a4.12,4.12,0,0,0-2.493.878,1.363,1.363,0,0,0-.623,1.275Z" transform="translate(-519.487 -745.693)" fill="#836660"/>
    <path id="パス_11101" data-name="パス 11101" d="M755.78,764.383c0,1.275.057,3.625.057,3.824,0,.595-.171.708-.821.708h-1.643c-.651,0-.821-.113-.821-.708,0-.2.057-2.549.057-3.824v-5.465c0-1.275-.057-3.625-.057-3.824,0-.595.17-.708.821-.708h1.388c.651,0,.765.113.793.765.029.368.085.538.227.538a.865.865,0,0,0,.425-.2,6.1,6.1,0,0,1,3.767-1.275,4.5,4.5,0,0,1,3.4,1.36c.255.283.4.425.566.425.142,0,.284-.114.567-.341a6.983,6.983,0,0,1,4.248-1.444c2.8,0,4.673,1.926,4.673,5.069v5.1c0,1.275.057,3.625.057,3.824,0,.595-.17.708-.821.708h-1.643c-.652,0-.821-.113-.821-.708,0-.2.057-2.549.057-3.824v-4.219c0-1.728-.821-2.889-2.577-2.889a4.044,4.044,0,0,0-2.492.907,1.067,1.067,0,0,0-.537,1.1v5.1c0,1.275.056,3.625.056,3.824,0,.595-.17.708-.821.708h-1.643c-.651,0-.821-.113-.821-.708,0-.2.057-2.549.057-3.824v-4.219c0-1.728-.821-2.889-2.577-2.889a4.117,4.117,0,0,0-2.492.878,1.362,1.362,0,0,0-.624,1.275Z" transform="translate(-527.002 -745.693)" fill="#836660"/>
  </g>
</svg>
