<svg id="グループ_790" data-name="グループ 790" xmlns="http://www.w3.org/2000/svg" width="16.847" height="10.072" viewBox="0 0 16.847 10.072">
  <path id="パス_7675" data-name="パス 7675" d="M239.151,610.623c-.618,0-1.8.027-1.9.027-.283,0-.377-.094-.377-.376,0-.094.04-1.587.04-2.3v-4.613c0-.713-.04-2.205-.04-2.3,0-.282.094-.376.377-.376.094,0,1.278.027,1.9.027h1.372c2.1,0,3.349.551,3.349,2.326a2.476,2.476,0,0,1-.821,2.044c-.108.094-.161.148-.161.2s.067.094.215.161a2.094,2.094,0,0,1,1.211,2.071c0,2.178-1.331,3.106-3.806,3.106Zm.014-6.455c0,.336.067.4.4.4h.767c.9,0,1.291-.377,1.291-1.13,0-.565-.376-.861-1.157-.861h-.9c-.336,0-.4.067-.4.4Zm0,4.209c0,.336.067.4.4.4h.874c1,0,1.587-.457,1.587-1.278,0-.7-.363-1.116-1.358-1.116h-1.1c-.336,0-.4.067-.4.4Z" transform="translate(-236.878 -600.631)" fill="#856660"/>
  <path id="パス_7676" data-name="パス 7676" d="M269.068,609.831c0,.121-.094.188-.283.282a6.363,6.363,0,0,1-2.515.5,4.513,4.513,0,0,1-4.828-4.76c0-3.013,1.8-5.312,5.271-5.312a5.9,5.9,0,0,1,2.233.43c.2.094.3.162.3.283a.8.8,0,0,1-.067.256l-.538,1.479c-.081.2-.121.282-.215.282a.58.58,0,0,1-.269-.094,3.2,3.2,0,0,0-1.439-.337,2.745,2.745,0,0,0-2.9,2.959,2.535,2.535,0,0,0,2.717,2.676,3.4,3.4,0,0,0,1.506-.323.583.583,0,0,1,.269-.094c.094,0,.148.081.229.283l.471,1.237A.8.8,0,0,1,269.068,609.831Z" transform="translate(-252.396 -600.539)" fill="#856660"/>
</svg>
