<svg xmlns="http://www.w3.org/2000/svg" width="39.221" height="12.318" viewBox="0 0 39.221 12.318">
  <g id="グループ_797" data-name="グループ 797" transform="translate(0)">
    <path id="パス_7698" data-name="パス 7698" d="M932.29,891.867c0-.471-.027-.955-.027-1.426,0-.525.188-.74.713-.74.43,0,.861.027,1.291.027h2.609c.565,0,1.13-.027,1.695-.027.336,0,.376.094.376.5v.834c0,.417-.026.538-.363.538-.565,0-1.143-.027-1.708-.027h-2.34a.376.376,0,0,0-.377.377v.82a.385.385,0,0,0,.377.377h2.273c.242,0,.484-.014.713-.014a.87.87,0,0,1,.74.3c.242.283.511.538.511.861a9.74,9.74,0,0,1-.444,2,9.385,9.385,0,0,1-.78,1.762.5.5,0,0,0-.081.282c0,.175.081.256.215.43a10.72,10.72,0,0,0,1.224,1.3c.094.094.283.229.283.363a2.339,2.339,0,0,1-1.224,1.21.684.684,0,0,1-.457-.256c-.175-.188-.78-.833-.915-1-.094-.108-.242-.268-.39-.268a.606.606,0,0,0-.39.242c-.229.242-1.278,1.2-1.56,1.2-.242,0-.672-.5-.834-.686-.054-.067-.121-.148-.215-.148-.134,0-.188.135-.242.242-.188.35-.269.538-.457.538a3.88,3.88,0,0,1-1.156-.659.441.441,0,0,0-.215-.094.6.6,0,0,0-.2.067,2.066,2.066,0,0,1-.565.148c-.161,0-.269-.256-.39-.551a6.781,6.781,0,0,1-.43-1.345c0-.215.565-.363.726-.4.067-.013.108-.027.108-.067,0-.067-.081-.067-.242-.067h-1.453c-.215,0-.309.014-.309.094s.121.121.188.134.565.2.646.229.229.081.229.215-.067.135-.188.189a.269.269,0,0,0-.135.161,10.191,10.191,0,0,1-.591,1.775c-.054.121-.121.3-.269.3a4.215,4.215,0,0,1-1.264-.457c-.121-.053-.2-.094-.2-.2a1.43,1.43,0,0,1,.161-.363,9.6,9.6,0,0,0,.726-1.963v-.027c0-.067-.054-.081-.121-.107-.2-.081-.242-.39-.242-.578,0-.364.027-.74.027-1.1V891.41c0-.363-.027-.726-.027-1.089,0-.431.135-.646.565-.646.336,0,.659.027,1,.027h1.076c.323,0,.645-.027.968-.027.444,0,.591.2.591.646,0,.363-.027.726-.027,1.089V896.8c0,.363.027.726.027,1.089a.611.611,0,0,1-.282.6.2.2,0,0,0-.134.175,6.311,6.311,0,0,0,.2.605c.027.067.067.175.161.175s.135-.135.175-.242c.067-.215.134-.431.188-.646a16.6,16.6,0,0,0,.471-4.384Zm-2.461-.094a.319.319,0,0,0-.323-.323h-.135a.319.319,0,0,0-.323.323v.054a.328.328,0,0,0,.323.323h.135a.319.319,0,0,0,.323-.323Zm0,2.273a.319.319,0,0,0-.323-.323h-.135a.319.319,0,0,0-.323.323v.054a.319.319,0,0,0,.323.323h.135a.319.319,0,0,0,.323-.323Zm0,2.3a.319.319,0,0,0-.323-.323h-.135a.328.328,0,0,0-.323.323v.135a.327.327,0,0,0,.323.323h.135a.327.327,0,0,0,.323-.323Zm4.29-.43a17.258,17.258,0,0,1-.309,2.609,8.168,8.168,0,0,1-.269.982.38.38,0,0,0-.027.148.1.1,0,0,0,.107.094c.134,0,.659-.484.78-.605a8.219,8.219,0,0,0,.578-.605.382.382,0,0,0,.134-.3.631.631,0,0,0-.081-.269,8.725,8.725,0,0,1-.7-2.179c-.013-.081-.027-.161-.094-.161C934.119,895.633,934.119,895.834,934.119,895.915Zm2.151-1.076c-.2,0-.376.04-.376.269,0,.121.2,1.25.4,1.25.148,0,.336-.645.376-.793a2.941,2.941,0,0,0,.121-.578c0-.148-.067-.148-.39-.148Z" transform="translate(-926.79 -889.339)" fill="#856660"/>
    <path id="パス_7699" data-name="パス 7699" d="M969.385,898.665a4.631,4.631,0,0,1-1.789,1.775,4.452,4.452,0,0,1-1.681.686c-.551,0-1.1-1.062-1.1-1.318,0-.134.135-.189.323-.256l.121-.04a3.847,3.847,0,0,0,2.891-2.81c.027-.161.027-.2.041-.309.04-.309.054-.4.309-.4.188,0,1.157.175,1.412.215.162.027.592.094.592.269,0,.108-.134.188-.349.282-.081.04-.121.134-.148.269A6.359,6.359,0,0,1,969.385,898.665Zm5.54-8.943c.538,0,1.063-.027,1.6-.027.323,0,.364.107.364.43v.807c0,.35-.041.444-.35.444-.538,0-1.076-.027-1.614-.027h-2.743a.255.255,0,0,0-.255.256v.054a.259.259,0,0,0,.255.269h2c.444,0,.888-.04,1.224-.04.269,0,.3.134.3.524v.672c0,.4-.027.511-.283.511-.417,0-.834-.027-1.237-.027h-6.562c-.417,0-.82.027-1.237.027-.255,0-.283-.121-.283-.511v-.672c0-.39.027-.524.3-.524.336,0,.78.04,1.224.04h2a.268.268,0,0,0,.255-.269v-.054a.264.264,0,0,0-.255-.256h-2.7c-.538,0-1.076.027-1.614.027-.336,0-.363-.108-.363-.5v-.7c0-.377.027-.484.376-.484.524,0,1.063.027,1.6.027h2.488c.336,0,.444-.2.444-.35,0-.081-.027-.3-.027-.363,0-.162.148-.175.269-.175.255,0,1.372.094,1.735.134.229.027.35.041.35.188a.146.146,0,0,1-.053.121c-.094.094-.162.134-.162.228s.081.215.282.215Zm-7.4,6a.394.394,0,0,0-.444.377c0,.108.027.417.027.524,0,.309-.2.336-.632.336h-.821c-.444,0-.618-.027-.618-.349,0-.189.027-.444.027-.74v-.417c0-.376-.027-.78-.027-.9,0-.484.524-.5.874-.5.5,0,.982.027,1.479.027h7.034c.5,0,.982-.027,1.479-.027.35,0,.874.014.874.484,0,.148-.027.524-.027.914v.417c0,.269.027.551.027.74,0,.323-.175.349-.619.349h-.82c-.43,0-.632-.027-.632-.336,0-.121.027-.43.027-.538,0-.175-.121-.363-.43-.363Zm5.716,2.609c0,.578.054.7.646.7h.282c.645,0,.793-.242.86-.955.014-.188.014-.39.242-.39a5.623,5.623,0,0,1,1.2.309c.39.135.471.2.471.377a4.59,4.59,0,0,1-.619,2.017,1.911,1.911,0,0,1-1.641.511h-2.165c-.807,0-1.264-.336-1.264-1.2,0-.242.027-.618.027-.887V897.6a13.008,13.008,0,0,0-.054-1.385c0-.175.134-.188.269-.188.188,0,1.3.094,1.573.121.35.041.444.081.444.2,0,.094-.054.135-.134.2-.121.107-.134.377-.134.7Z" transform="translate(-950.809 -888.808)" fill="#856660"/>
    <path id="パス_7700" data-name="パス 7700" d="M1005.359,897.8c0-.229-.013-.376-.215-.376a.381.381,0,0,0-.175.053,9.781,9.781,0,0,1-1.721.606c-.457,0-1.035-1.2-1.035-1.493,0-.242.228-.3.43-.323a16.6,16.6,0,0,0,3.093-1.157c.444-.215.659-.336.659-.47s-.215-.309-.5-.565c-.067-.054-.134-.121-.215-.188s-.242-.215-.242-.323c0-.3,1.008-1.076,1.291-1.076.122,0,.229.121.323.2.269.229.552.457.807.686.067.067.188.175.282.175a5.72,5.72,0,0,0,1.776-1.681c0-.134-.2-.148-.551-.148h-2.112a.77.77,0,0,0-.686.255c-.417.444-2.5,2.367-3,2.367a1.959,1.959,0,0,1-1.156-1.2c0-.161.2-.282.51-.5a10.43,10.43,0,0,0,3.389-3.51c.094-.215.148-.376.363-.376.148,0,1.439.323,1.721.376.121.027.39.094.39.256,0,.094-.121.134-.2.148s-.2.04-.256.134a1.016,1.016,0,0,0-.121.242c0,.094.081.108.309.108h1.546c.511,0,1.022-.014,1.533-.014a1.065,1.065,0,0,1,.955.43c.134.148.457.511.457.726,0,.242-.565.861-.74,1.062a18.9,18.9,0,0,1-1.856,1.883c-.215.188-.739.632-.941.766-.054.04-.121.094-.121.162s.134.08.175.08h1.8c.444,0,.9-.014,1.345-.014.524,0,.982.041.982.457,0,.2-.04.457-.04.834v3.254c0,.417.04.955.04,1.089,0,.229-.175.256-.484.256h-.807c-.591,0-.7-.027-.7-.282,0-.054.014-.107.014-.148,0-.188-.135-.255-.3-.255h-3.725c-.161,0-.283.068-.283.242,0,.041.014.121.014.188,0,.256-.148.256-.726.256h-.672c-.511,0-.673-.027-.673-.256,0-.094.04-.74.04-1.089Zm5.971.78a.385.385,0,0,0,.376-.376v-.968a.376.376,0,0,0-.376-.377h-3.6a.376.376,0,0,0-.377.377v.968a.375.375,0,0,0,.377.376Z" transform="translate(-974.435 -888.762)" fill="#856660"/>
  </g>
</svg>
