<svg id="グループ_785" data-name="グループ 785" xmlns="http://www.w3.org/2000/svg" width="20.768" height="11.296" viewBox="0 0 20.768 11.296">
  <path id="パス_7606" data-name="パス 7606" d="M596.148,890.843c.363.107.578.148.578.282,0,.081-.081.134-.134.175-.175.107-.215.175-.3.5-.013.081-.081.363-.081.417a.2.2,0,0,0,.188.2,1.093,1.093,0,0,0,.2-.04,10.725,10.725,0,0,0,1.587-.444.642.642,0,0,1,.228-.067c.323,0,.431,1.022.431,1.076,0,.255-.323.309-.659.376-.524.121-1.358.282-1.9.363-.309.054-.363.39-.363.538,0,.121.121.175.216.175.027,0,.067-.013.108-.013.269-.027.605-.067.874-.067,2.085,0,3.954,1.063,3.954,3.362,0,3.053-3.806,4.21-4.249,4.21-.3,0-.619-.821-.619-1.076,0-.148.148-.161.3-.2,1.412-.376,3.147-1.184,3.147-2.878a1.85,1.85,0,0,0-1.345-1.923c-.2,0-.282.175-.363.336a12.125,12.125,0,0,1-1.8,2.569.35.35,0,0,0-.135.269c0,.041.067.431.081.5v.067c0,.256-.726.713-1.022.713a.242.242,0,0,1-.228-.188c-.027-.067-.054-.134-.148-.134a.328.328,0,0,0-.148.054,3.861,3.861,0,0,1-1.99.726,1.5,1.5,0,0,1-1.519-1.614c0-1.788,1.708-3.429,3.228-4.155.081-.04.39-.108.39-.753a.212.212,0,0,0-.228-.228c-.054,0-.242.026-.3.026-.5.041-1,.108-1.493.108-.592,0-.672,0-.672-.632,0-.672.081-.713.323-.713s.457.013.7.013c.457,0,.914-.013,1.372-.054a.517.517,0,0,0,.363-.121.53.53,0,0,0,.135-.363c.067-.47.121-.941.188-1.425.014-.121.067-.215.215-.215C595.355,890.588,596,890.8,596.148,890.843Zm-3.752,8.1c0,.256.121.4.377.4a3.567,3.567,0,0,0,1.613-.753.488.488,0,0,0,.161-.417c0-.121-.04-.686-.04-1.1,0-.135.013-.269.013-.39s-.027-.229-.161-.229C594.078,896.451,592.4,897.85,592.4,898.939Zm3.536-3.254c-.148.094-.134.363-.134.659v.161c0,.215.013.538.134.538.229,0,.726-.968.834-1.183a.6.6,0,0,0,.081-.215c0-.094-.094-.121-.175-.121A1.918,1.918,0,0,0,595.933,895.685Z" transform="translate(-591.038 -890.588)" fill="#836660"/>
  <path id="パス_7607" data-name="パス 7607" d="M629.809,892.123c0,.081-.094.148-.161.175a.618.618,0,0,0-.256.268,5.365,5.365,0,0,0-.39,1.13,7.09,7.09,0,0,0-.175,1.506c0,.107-.014.686.135.686.107,0,.188-.215.242-.35s.309-.726.471-.726c.121,0,.524.242.524.417,0,.04-.2.511-.323.833l-.121.323a5.3,5.3,0,0,0-.444,1.668c0,.188.027.336.027.43,0,.376-.713.538-.968.538-.3,0-.39-.242-.471-.5a11.169,11.169,0,0,1-.443-3.133,12.665,12.665,0,0,1,.309-2.757c.081-.336.175-.659.229-1,.014-.094.054-.336.175-.336.04,0,.632.242.726.282C629.191,891.719,629.809,891.975,629.809,892.123Zm4.25-1.17c.256,0,.282.161.336.363a17.81,17.81,0,0,1,.417,3.873c0,2.327-.39,4.3-2.084,6.025-.215.215-.767.753-1.076.753-.215,0-1-.659-1-.941,0-.107.121-.188.2-.229a5.108,5.108,0,0,0,1.829-2.1,7.947,7.947,0,0,0,.619-3.389,13.053,13.053,0,0,0-.471-3.752.772.772,0,0,1-.027-.175C632.808,891.087,633.911,890.953,634.059,890.953Z" transform="translate(-614.044 -890.819)" fill="#836660"/>
</svg>
