<svg xmlns="http://www.w3.org/2000/svg" width="230.55" height="14.211" viewBox="0 0 230.55 14.211">
  <g id="グループ_2534" data-name="グループ 2534" transform="translate(-415.031 -520.694)">
    <g id="グループ_2533" data-name="グループ 2533" transform="translate(415.031 520.694)">
      <path id="パス_20599" data-name="パス 20599" d="M421.22,532.756c1,0,2.858-.04,3-.04.414,0,.493.119.493.572v.927c0,.453-.079.571-.493.571-.138,0-1.991-.039-3-.039h-2.563c-1,0-2.858.039-3,.039-.414,0-.493-.118-.493-.571v-.355a.928.928,0,0,1,.473-.966,12.911,12.911,0,0,0,1-.828c3.548-3.114,5.6-5.085,5.6-7.016,0-1.282-.887-2.168-2.5-2.168a3.954,3.954,0,0,0-2.878,1.3c-.177.2-.3.276-.414.276-.1,0-.217-.1-.394-.276l-.788-.848c-.158-.178-.237-.3-.237-.414,0-.138.1-.256.276-.434a6.733,6.733,0,0,1,4.631-1.793c3,0,4.671,1.774,4.671,4.04,0,2.779-2.227,5.006-5.243,7.628-.157.138-.217.216-.217.276,0,.078.119.118.355.118Z" transform="translate(-415.031 -520.694)" fill="#836660"/>
      <path id="パス_20600" data-name="パス 20600" d="M445.051,532.756c1,0,2.858-.04,3-.04.414,0,.493.119.493.572v.927c0,.453-.079.571-.493.571-.138,0-1.991-.039-3-.039h-2.562c-1.005,0-2.858.039-3,.039-.414,0-.493-.118-.493-.571v-.355a.928.928,0,0,1,.474-.966,12.916,12.916,0,0,0,1-.828c3.548-3.114,5.6-5.085,5.6-7.016,0-1.282-.887-2.168-2.5-2.168a3.954,3.954,0,0,0-2.878,1.3c-.177.2-.3.276-.414.276-.1,0-.217-.1-.394-.276l-.788-.848c-.158-.178-.237-.3-.237-.414,0-.138.1-.256.276-.434a6.733,6.733,0,0,1,4.631-1.793c3,0,4.671,1.774,4.671,4.04,0,2.779-2.227,5.006-5.243,7.628-.157.138-.217.216-.217.276,0,.078.119.118.355.118Z" transform="translate(-425.461 -520.694)" fill="#836660"/>
      <path id="パス_20601" data-name="パス 20601" d="M471.415,532.43c0,.67.039,1.833.039,1.971,0,.413-.118.493-.571.493h-1.1c-.453,0-.571-.079-.571-.493,0-.138.039-1.3.039-1.971,0-.453-.079-.533-.533-.533H465.6c-1.143,0-2.839.039-2.976.039-.414,0-.493-.118-.493-.571v-.335a1.983,1.983,0,0,1,.276-1.123c.434-.788.847-1.6,1.242-2.365l1.734-3.351c.414-.808.867-1.715,1.34-2.72.2-.453.315-.532.828-.532h1.478c.3,0,.434.039.434.177a.978.978,0,0,1-.138.335c-.631,1.163-1.143,2.129-1.636,3.075l-2.523,4.868a.911.911,0,0,0-.118.355c0,.138.138.177.434.177h3.232c.474,0,.533-.118.533-.571,0-1.34-.039-3.134-.039-3.272,0-.414.118-.493.571-.493h1.1c.453,0,.571.079.571.493,0,.138-.039,1.912-.039,3.311,0,.453.079.532.532.532.533,0,1.5-.019,1.636-.019.413,0,.493.118.493.571v.887c0,.453-.079.571-.493.571-.138,0-1.1-.039-1.636-.039C471.494,531.9,471.415,531.977,471.415,532.43Z" transform="translate(-435.645 -520.801)" fill="#836660"/>
      <path id="パス_20602" data-name="パス 20602" d="M501.222,527.489c0,4.691-2.7,7.431-5.992,7.431-3.154,0-5.657-2.385-5.657-6.879,0-4.04,2.069-7.312,5.952-7.312C498.62,520.729,501.222,523,501.222,527.489Zm-9.343.611c0,3.075,1.36,4.711,3.35,4.711,2.109,0,3.686-2.03,3.686-5.243,0-3.095-1.439-4.632-3.39-4.632C493.022,522.936,491.879,525.321,491.879,528.1Z" transform="translate(-447.655 -520.709)" fill="#836660"/>
      <path id="パス_20603" data-name="パス 20603" d="M529.031,527.489c0,4.691-2.7,7.431-5.992,7.431-3.154,0-5.657-2.385-5.657-6.879,0-4.04,2.069-7.312,5.952-7.312C526.429,520.729,529.031,523,529.031,527.489Zm-9.343.611c0,3.075,1.36,4.711,3.35,4.711,2.109,0,3.686-2.03,3.686-5.243,0-3.095-1.439-4.632-3.39-4.632C520.831,522.936,519.688,525.321,519.688,528.1Z" transform="translate(-459.826 -520.709)" fill="#836660"/>
      <path id="パス_20604" data-name="パス 20604" d="M549.262,534.863c-.926,0-2.483.039-2.621.039-.414,0-.552-.138-.552-.552,0-.138.039-2.267.039-3.371v-6.189c0-.966-.039-2.957-.039-3.292,0-.472.119-.63.552-.63.216,0,1.695.039,2.621.039h1.518c2.838,0,4.514.749,4.514,3.154a3.4,3.4,0,0,1-1.282,2.976c-.157.119-.256.2-.256.256,0,.1.1.157.315.237a3,3,0,0,1,1.892,3.055c0,2.936-1.951,4.277-5.125,4.277Zm-.906-8.85c0,.493.1.592.591.592h1.577c1.458,0,2.5-.552,2.5-2.129,0-1.3-1.065-1.636-2.267-1.636h-1.814c-.493,0-.591.1-.591.591Zm0,6.366c0,.493.1.591.591.591H550.8c1.636,0,2.838-.768,2.838-2.4,0-1.5-.966-2.069-2.483-2.069h-2.208c-.493,0-.591.1-.591.592Z" transform="translate(-472.39 -520.771)" fill="#836660"/>
      <path id="パス_20605" data-name="パス 20605" d="M576.744,532.813c.946,0,2.72-.059,2.858-.059.414,0,.493.118.493.571v1.005c0,.453-.079.571-.493.571-.138,0-1.931-.039-2.858-.039h-3.9c-.947,0-2.582.039-2.72.039-.414,0-.493-.119-.493-.571V533.8a1.489,1.489,0,0,1,.355-1.065c.414-.552.828-1.1,1.223-1.676l5.3-7.529a.791.791,0,0,0,.157-.335c0-.119-.138-.157-.414-.157h-3.173c-.926,0-2.72.058-2.858.058-.414,0-.493-.118-.493-.571V521.44c0-.453.079-.571.493-.571.138,0,1.932.039,2.858.039h3.745c.927,0,2.563-.039,2.7-.039.414,0,.493.118.493.571v.513a1.489,1.489,0,0,1-.355,1.065c-.394.532-.788,1.044-1.223,1.675l-5.38,7.628a.793.793,0,0,0-.157.335c0,.118.138.158.414.158Z" transform="translate(-482.692 -520.771)" fill="#836660"/>
      <path id="パス_20606" data-name="パス 20606" d="M598.976,531.74c-.591.868-1.143,1.695-1.774,2.661a.848.848,0,0,1-.907.493h-1.478c-.315,0-.453-.059-.453-.2a.7.7,0,0,1,.158-.335c.729-.986,1.577-2.128,2.286-3.134l2.109-2.976a.851.851,0,0,0,.217-.513,1.042,1.042,0,0,0-.217-.473L597.3,524.96c-.769-1.084-1.557-2.148-2.563-3.489a.7.7,0,0,1-.157-.335c0-.138.138-.2.453-.2h1.577a.847.847,0,0,1,.906.493c.69,1.044,1.321,1.951,1.972,2.9l.808,1.163c.138.2.236.3.335.3s.2-.1.335-.3l.808-1.163c.67-.966,1.261-1.833,1.932-2.9a.847.847,0,0,1,.906-.493h1.518c.315,0,.453.059.453.2a.7.7,0,0,1-.157.335c-1.005,1.36-1.833,2.484-2.543,3.489l-1.656,2.346a1.041,1.041,0,0,0-.217.473.851.851,0,0,0,.217.513l2.069,2.937c.69,1.005,1.478,2.03,2.286,3.134a.693.693,0,0,1,.157.335c0,.138-.138.2-.453.2h-1.576a.848.848,0,0,1-.907-.493c-.611-.986-1.2-1.833-1.774-2.661l-1.2-1.715c-.138-.2-.237-.3-.335-.3s-.2.1-.335.3Z" transform="translate(-493.518 -520.801)" fill="#836660"/>
      <path id="パス_20607" data-name="パス 20607" d="M633,527.489c0,4.691-2.7,7.431-5.992,7.431-3.154,0-5.657-2.385-5.657-6.879,0-4.04,2.069-7.312,5.952-7.312C630.4,520.729,633,523,633,527.489Zm-9.343.611c0,3.075,1.36,4.711,3.351,4.711,2.109,0,3.686-2.03,3.686-5.243,0-3.095-1.439-4.632-3.39-4.632C624.8,522.936,623.656,525.321,623.656,528.1Z" transform="translate(-505.328 -520.709)" fill="#836660"/>
      <path id="パス_20608" data-name="パス 20608" d="M660.808,527.489c0,4.691-2.7,7.431-5.992,7.431-3.154,0-5.657-2.385-5.657-6.879,0-4.04,2.069-7.312,5.952-7.312C658.206,520.729,660.808,523,660.808,527.489Zm-9.343.611c0,3.075,1.36,4.711,3.35,4.711,2.109,0,3.686-2.03,3.686-5.243,0-3.095-1.438-4.632-3.39-4.632C652.608,522.936,651.465,525.321,651.465,528.1Z" transform="translate(-517.499 -520.709)" fill="#836660"/>
      <path id="パス_20609" data-name="パス 20609" d="M685.512,532.43c0,.67.04,1.833.04,1.971,0,.413-.119.493-.572.493h-1.1c-.453,0-.571-.079-.571-.493,0-.138.039-1.3.039-1.971,0-.453-.079-.533-.532-.533H679.7c-1.143,0-2.838.039-2.977.039-.414,0-.493-.118-.493-.571v-.335a1.983,1.983,0,0,1,.276-1.123c.434-.788.847-1.6,1.242-2.365l1.734-3.351c.414-.808.867-1.715,1.341-2.72.2-.453.315-.532.828-.532h1.478c.3,0,.434.039.434.177a.983.983,0,0,1-.138.335c-.631,1.163-1.143,2.129-1.636,3.075l-2.523,4.868a.908.908,0,0,0-.117.355c0,.138.138.177.433.177h3.233c.473,0,.532-.118.532-.571,0-1.34-.039-3.134-.039-3.272,0-.414.118-.493.571-.493h1.1c.453,0,.572.079.572.493,0,.138-.04,1.912-.04,3.311,0,.453.079.532.533.532.532,0,1.5-.019,1.636-.019.414,0,.493.118.493.571v.887c0,.453-.079.571-.493.571-.138,0-1.1-.039-1.636-.039C685.591,531.9,685.512,531.977,685.512,532.43Z" transform="translate(-529.346 -520.801)" fill="#836660"/>
      <path id="パス_20610" data-name="パス 20610" d="M708.32,532.756c1,0,2.858-.04,3-.04.414,0,.493.119.493.572v.927c0,.453-.079.571-.493.571-.138,0-1.991-.039-3-.039h-2.562c-1.005,0-2.858.039-3,.039-.414,0-.493-.118-.493-.571v-.355a.928.928,0,0,1,.474-.966,12.922,12.922,0,0,0,1-.828c3.548-3.114,5.6-5.085,5.6-7.016,0-1.282-.887-2.168-2.5-2.168a3.955,3.955,0,0,0-2.878,1.3c-.177.2-.3.276-.414.276-.1,0-.216-.1-.394-.276l-.788-.848c-.158-.178-.237-.3-.237-.414,0-.138.1-.256.276-.434a6.733,6.733,0,0,1,4.631-1.793c3,0,4.672,1.774,4.672,4.04,0,2.779-2.227,5.006-5.243,7.628-.157.138-.216.216-.216.276,0,.078.118.118.354.118Z" transform="translate(-540.683 -520.694)" fill="#836660"/>
      <path id="パス_20611" data-name="パス 20611" d="M732.352,530.755c-.434,1.124-.789,2.148-1.282,3.587-.177.472-.276.552-.788.552h-1.4c-.315,0-.454-.039-.454-.217a.889.889,0,0,1,.079-.335c.591-1.419,1-2.483,1.419-3.548l2.7-7.155a.882.882,0,0,0,.079-.335c0-.178-.138-.217-.453-.217H729.1c-1,0-2.917.059-3.055.059-.414,0-.493-.118-.493-.571V521.51c0-.453.079-.571.493-.571.138,0,2.05.039,3.055.039h2.858c1.025,0,2.937-.039,3.075-.039.414,0,.493.119.493.571v.414a2.675,2.675,0,0,1-.236,1.162c-.355.887-.71,1.814-1.025,2.641Z" transform="translate(-550.933 -520.801)" fill="#836660"/>
      <path id="パス_20612" data-name="パス 20612" d="M760.327,527.489c0,4.691-2.7,7.431-5.992,7.431-3.154,0-5.656-2.385-5.656-6.879,0-4.04,2.069-7.312,5.952-7.312C757.726,520.729,760.327,523,760.327,527.489Zm-9.343.611c0,3.075,1.36,4.711,3.351,4.711,2.109,0,3.686-2.03,3.686-5.243,0-3.095-1.439-4.632-3.39-4.632C752.128,522.936,750.985,525.321,750.985,528.1Z" transform="translate(-561.055 -520.709)" fill="#836660"/>
      <path id="パス_20613" data-name="パス 20613" d="M788.136,527.489c0,4.691-2.7,7.431-5.992,7.431-3.154,0-5.657-2.385-5.657-6.879,0-4.04,2.069-7.312,5.952-7.312C785.535,520.729,788.136,523,788.136,527.489Zm-9.342.611c0,3.075,1.36,4.711,3.35,4.711,2.109,0,3.686-2.03,3.686-5.243,0-3.095-1.439-4.632-3.39-4.632C779.937,522.936,778.794,525.321,778.794,528.1Z" transform="translate(-573.226 -520.709)" fill="#836660"/>
      <path id="パス_20614" data-name="パス 20614" d="M815.946,527.489c0,4.691-2.7,7.431-5.992,7.431-3.153,0-5.657-2.385-5.657-6.879,0-4.04,2.07-7.312,5.952-7.312C813.344,520.729,815.946,523,815.946,527.489Zm-9.343.611c0,3.075,1.36,4.711,3.35,4.711,2.109,0,3.686-2.03,3.686-5.243,0-3.095-1.439-4.632-3.39-4.632C807.746,522.936,806.6,525.321,806.6,528.1Z" transform="translate(-585.396 -520.709)" fill="#836660"/>
    </g>
  </g>
</svg>
