<svg id="グループ_780" data-name="グループ 780" xmlns="http://www.w3.org/2000/svg" width="106.291" height="12.157" viewBox="0 0 106.291 12.157">
  <path id="パス_7567" data-name="パス 7567" d="M1281.917,750.8c.068.014.188.067.188.162s-.067.121-.135.148c-.161.067-.161.108-.242.524-.027.121-.04.256-.081.43-.067.35-.336,1.654-.443,1.91a.275.275,0,0,1-.256.2c-.134,0-.807-.175-.807-.363a.9.9,0,0,1,.067-.256,19.319,19.319,0,0,0,.565-2.649c.027-.161.027-.309.189-.309C1281.03,750.594,1281.782,750.769,1281.917,750.8Zm2.367-1.13h-.094l-.323.04c-.269.041-.363.162-.363.431v2.528c0,.618.041,1.251.041,1.869,0,.4-.162.4-.659.4-.551,0-.672-.014-.672-.444,0-.618.04-1.224.04-1.829V750.3c0-.189-.08-.336-.3-.336a.579.579,0,0,0-.067.013l-.821.081a.2.2,0,0,0-.188.121c-.053.067-.093.134-.188.134-.162,0-.189-.134-.283-.578-.027-.148-.067-.35-.121-.592a1.094,1.094,0,0,1-.04-.2c0-.135.135-.148.376-.148.363,0,.659.04.888-.3.134-.2.256-.4.39-.6a.463.463,0,0,0,.094-.256.389.389,0,0,0-.162-.3,15.193,15.193,0,0,0-1.425-1.2.29.29,0,0,1-.161-.242c0-.148.35-.888.6-.888.094,0,.2.108.269.162a.322.322,0,0,0,.188.067c.094,0,.148-.067.2-.134a19.817,19.817,0,0,0,.887-2.058c.027-.067.067-.188.162-.188s1.2.417,1.2.618c0,.121-.094.148-.188.161a.309.309,0,0,0-.269.148c-.431.861-.565,1.156-1.062,2a.236.236,0,0,0-.054.162.277.277,0,0,0,.107.2c.054.054.108.094.162.148a.317.317,0,0,0,.215.094.263.263,0,0,0,.229-.161c.269-.471.525-.942.766-1.439.054-.094.094-.215.229-.215a7.1,7.1,0,0,1,1.022.5c.174.094.269.161.269.283,0,.148-.148.148-.2.161a.316.316,0,0,0-.282.148c-.592.928-1.183,1.843-1.829,2.73a.325.325,0,0,0-.027.108.145.145,0,0,0,.162.148c.269-.013.538-.041.807-.067.135-.013.242-.081.242-.229a.809.809,0,0,0-.081-.255,2.093,2.093,0,0,1-.175-.471c0-.242.551-.43.74-.43.229,0,.3.2.551.821a11.862,11.862,0,0,1,.431,1.156c.054.121.121.215.269.215a.317.317,0,0,0,.161-.041,12.227,12.227,0,0,0,1.654-1.1.318.318,0,0,0,.148-.255.418.418,0,0,0-.094-.242,8.42,8.42,0,0,1-.552-.955c-.054-.067-.107-.134-.2-.134a.285.285,0,0,0-.2.094c-.175.2-.766.9-1.022.9-.229,0-.847-.471-.847-.713a.372.372,0,0,1,.175-.268,8.787,8.787,0,0,0,2.407-3.658c.027-.081.067-.148.161-.148a11.732,11.732,0,0,1,1.278.363c.094.04.188.081.188.2s-.108.175-.215.2c-.188.04-.188.067-.336.39a.328.328,0,0,0-.026.121c0,.148.121.188.242.2h1.116c.363,0,.726-.013,1.089-.013a.837.837,0,0,1,.793.793c0,.619-1.318,2.233-1.762,2.717a.4.4,0,0,0-.108.242.341.341,0,0,0,.134.242,9.328,9.328,0,0,0,2.125,1.278c.188.094.336.148.336.309,0,.188-.364.941-.659.941a11.3,11.3,0,0,1-2.744-1.641.36.36,0,0,0-.538,0,10.977,10.977,0,0,1-2.77,1.681c-.242,0-.484-.349-.605-.537a.465.465,0,0,0-.309-.189c-.108-.04-.121-.094-.175-.242A.338.338,0,0,0,1284.284,749.666Zm.471,3.631c-.229,0-.269-.188-.309-.363a14.1,14.1,0,0,0-.538-1.815.935.935,0,0,1-.081-.256c0-.282.659-.417.739-.417.2,0,.283.229.458.726s.323,1.022.457,1.547a.493.493,0,0,1,.027.148C1285.508,753.176,1284.916,753.3,1284.754,753.3Zm5.931,1.573a.49.49,0,0,1-.188-.054,19.962,19.962,0,0,0-3.994-1.345c-.148-.04-.269-.094-.269-.269,0-.107.121-.928.444-.928a14.786,14.786,0,0,1,2.179.605c.5.175,1.721.618,2.165.847.107.054.215.108.215.256S1290.967,754.871,1290.685,754.871Zm-.955-2.528a.615.615,0,0,1-.323-.162,12.3,12.3,0,0,0-1.52-.914c-.107-.054-.215-.108-.215-.242,0-.229.39-.834.632-.834a4.684,4.684,0,0,1,1,.511,10.775,10.775,0,0,1,.914.605c.081.054.148.107.148.215C1290.362,751.67,1290.012,752.343,1289.73,752.343Zm-.914-5.312a.366.366,0,0,0,.228-.108,6.322,6.322,0,0,0,.874-1.237c0-.094-.161-.107-.39-.107H1288.2c-.135.013-.256.053-.256.215a.388.388,0,0,0,.027.121,5.866,5.866,0,0,0,.618,1A.281.281,0,0,0,1288.816,747.031Z" transform="translate(-1280.142 -742.862)" fill="#836660"/>
  <path id="パス_7568" data-name="パス 7568" d="M1326.877,755.674h-4.1c-.215,0-.309.094-.309.309v.134c0,.376-.135.376-.767.376-.578,0-.766,0-.766-.363,0-.565.04-1.13.04-1.681v-6.764c0-.431-.027-.847-.027-1.278,0-.538.215-.7.74-.7.39,0,.78.027,1.183.027h3.927c.39,0,.78-.027,1.17-.027.511,0,.74.135.74.686,0,.431-.027.861-.027,1.291v6.737c0,.565.04,1.117.04,1.681,0,.376-.161.363-.766.363s-.766,0-.766-.363a.374.374,0,0,1,.013-.121C1327.186,755.768,1327.092,755.674,1326.877,755.674Zm-.027-5.729a.385.385,0,0,0,.376-.376v-2.151a.385.385,0,0,0-.376-.377H1322.8a.386.386,0,0,0-.377.377v2.151a.386.386,0,0,0,.377.376Zm-4.425,4.021a.386.386,0,0,0,.377.377h4.048a.385.385,0,0,0,.376-.377V751.6a.385.385,0,0,0-.376-.376H1322.8a.386.386,0,0,0-.377.376Z" transform="translate(-1305.91 -744.66)" fill="#836660"/>
  <path id="パス_7569" data-name="パス 7569" d="M1354.841,752.052v.861c0,.188.081.336.3.336h.053c.269-.041,2.165-.323,2.192-.323.242,0,.256.268.256.565,0,.457-.067.511-.39.578-1.412.282-3.469.524-4.935.686-.242.027-.229.027-.323.188a.191.191,0,0,1-.175.121c-.161,0-.174-.134-.255-.457-.04-.134-.188-.767-.188-.847,0-.148.121-.161.753-.215.256-.014.592-.041,1.022-.081.269-.054.35-.148.35-.417v-.363a.229.229,0,0,0-.228-.256c-.041,0-.067.014-.108.014a17.815,17.815,0,0,1-2.313.7c-.323,0-.591-.7-.591-.955,0-.215.229-.242.4-.282a14.142,14.142,0,0,0,3.725-1.318.1.1,0,0,0,.054-.094c0-.054-.067-.08-.121-.08h-2.071c-.538,0-1.089.027-1.627.027-.309,0-.3-.161-.3-.605s-.013-.618.3-.618c.551,0,1.089.04,1.627.04h2.986a.317.317,0,0,0,.363-.35c-.013-.107-.054-.444-.054-.471,0-.175.135-.188.269-.188.256,0,.969.067,1.251.094.094.014.256.041.256.161,0,.094-.094.121-.188.189a.35.35,0,0,0-.148.282c0,.215.2.283.363.283h2.918c.538,0,1.076-.04,1.627-.04.31,0,.31.148.31.6s0,.619-.3.619c-.551,0-1.089-.027-1.64-.027h-2.434c-.107,0-.215.04-.215.161a.226.226,0,0,0,.04.134,8.418,8.418,0,0,0,.605.766.392.392,0,0,0,.282.148.439.439,0,0,0,.255-.108,9.694,9.694,0,0,0,.915-.753c.04-.054.161-.2.242-.2.135,0,1.116.807,1.116,1a.152.152,0,0,1-.162.148c-.026,0-.067-.013-.107-.013a.381.381,0,0,0-.121-.027.282.282,0,0,0-.135.054c-.282.2-.578.39-.874.578a.232.232,0,0,0-.121.2.228.228,0,0,0,.121.188,9.128,9.128,0,0,0,2.219,1.076c.121.041.3.081.3.242,0,.188-.35.955-.7.955a8.4,8.4,0,0,1-2.138-1.022,9.464,9.464,0,0,1-2.891-2.9.3.3,0,0,0-.255-.174.378.378,0,0,0-.2.08,10.02,10.02,0,0,1-.874.592A.505.505,0,0,0,1354.841,752.052Zm-1.789-7.437c0-.3-.027-1.224-.027-1.452,0-.2.121-.229.3-.229s.766.041.968.067c.161.014.363.041.363.2,0,.094-.094.134-.174.2-.148.094-.162.336-.162.78v2.542c0,.538.027,1.076.027,1.627,0,.363-.161.43-.659.43-.538,0-.659-.107-.659-.43,0-.256.013-.511.013-.78,0-.121-.054-.228-.188-.228a.214.214,0,0,0-.121.04c-.35.175-.874.444-1.237.591-.121.054-.121.121-.148.229s-.054.188-.175.188-.242-.215-.417-.538a3.325,3.325,0,0,1-.336-.7c0-.121.121-.215.485-.323a19.682,19.682,0,0,0,1.842-.753.446.446,0,0,0,.309-.511Zm-1.358,1.184a.248.248,0,0,1-.242-.215,9.97,9.97,0,0,0-.713-1.479.425.425,0,0,1-.08-.215c0-.3.7-.5.807-.5.229,0,.376.283.767,1.1.013.04.054.107.081.188a2.913,2.913,0,0,1,.242.605C1352.555,745.624,1351.775,745.8,1351.694,745.8Zm5.85.148a.329.329,0,0,0-.377-.376h-.471c-.524,0-1.035.04-1.56.04-.336,0-.336-.094-.336-.591s0-.591.336-.591c.524,0,1.035.027,1.56.027h.471c.269,0,.35-.108.377-.377-.014-.269-.027-.551-.054-.82,0-.041-.013-.081-.013-.121,0-.161.107-.188.242-.188.188,0,.927.067,1.143.094.121.013.323.026.323.188,0,.08-.067.121-.175.2-.147.121-.161.309-.147.673,0,.256.134.35.376.35h.875c.511,0,1.035-.027,1.56-.027.323,0,.336.107.336.591s-.013.591-.336.591c-.524,0-1.036-.04-1.56-.04h-.875c-.269,0-.376.121-.376.376v.713c0,.269.107.376.376.376h.364c.511,0,1.022-.027,1.533-.027.323,0,.336.108.336.551s-.014.565-.336.565c-.511,0-1.022-.04-1.533-.04h-2.6c-.511,0-1.022.04-1.52.04-.323,0-.336-.108-.336-.565s.013-.551.336-.551c.5,0,1.008.027,1.52.027h.161c.256,0,.377-.108.377-.376Z" transform="translate(-1324.433 -742.908)" fill="#836660"/>
  <path id="パス_7570" data-name="パス 7570" d="M1390.644,751.608c-.255,0-.376.081-.417.349a8.052,8.052,0,0,1-1.21,3.483c-.108.148-.242.336-.444.336-.242,0-.941-.5-.941-.766a.44.44,0,0,1,.094-.215c1.21-1.843,1.291-3.644,1.291-5.769v-2.837c0-.431-.027-.847-.027-1.278,0-.538.215-.7.753-.7.39,0,.767.027,1.157.027h6.145c.39,0,.781-.027,1.157-.027.538,0,.753.148.753.7,0,.43-.014.847-.014,1.278v6.952c0,.336.027.686.027,1.022a1.494,1.494,0,0,1-.457,1.277,3.094,3.094,0,0,1-1.775.363c-.242,0-.78.04-.78-1.076,0-.215.054-.35.3-.35.215,0,.417.027.632.027.645,0,.672-.134.672-.807v-1.627c0-.256-.107-.363-.363-.363h-2.367c-.269,0-.376.108-.376.363v1.17c0,.659.04,1.318.04,1.977,0,.417-.148.43-.726.43s-.726-.013-.726-.43c0-.659.027-1.318.027-1.977v-1.17c0-.256-.107-.363-.377-.363Zm.121-3.039c-.269,0-.377.108-.377.377v.161c0,.3,0,.605-.013.9.013.256.108.363.363.363h1.95c.269,0,.377-.108.377-.377v-1.048c0-.269-.107-.377-.377-.377Zm2.3-2.649a.368.368,0,0,0-.377-.377h-1.923a.376.376,0,0,0-.377.377v1.022a.385.385,0,0,0,.377.377h1.923a.376.376,0,0,0,.377-.377Zm4.129,1.4a.356.356,0,0,0,.363-.377V745.92c0-.242-.134-.349-.363-.377h-2.367a.376.376,0,0,0-.376.377v1.022a.385.385,0,0,0,.376.377Zm-2.743,2.676a.385.385,0,0,0,.376.377h2.367a.356.356,0,0,0,.363-.377v-1.048a.356.356,0,0,0-.363-.377h-2.367a.384.384,0,0,0-.376.377Z" transform="translate(-1348.045 -743.715)" fill="#836660"/>
  <path id="パス_7571" data-name="パス 7571" d="M1434.033,756.87a1.549,1.549,0,0,1-1.613,1.628,1.392,1.392,0,0,1-1.466-1.412,1.555,1.555,0,0,1,1.64-1.628A1.377,1.377,0,0,1,1434.033,756.87Z" transform="translate(-1375.411 -750.819)" fill="#836660"/>
  <path id="パス_7572" data-name="パス 7572" d="M1452.076,754.147c0,.78.04,2.192.04,2.353,0,.282-.081.336-.39.336h-.833c-.309,0-.39-.054-.39-.336,0-.161.04-1.573.04-2.353v-4.707c0-.229-.04-.323-.161-.323a.547.547,0,0,0-.215.054c-.4.148-.861.336-1.21.5a.6.6,0,0,1-.256.081c-.121,0-.175-.094-.242-.3l-.255-.672a.726.726,0,0,1-.054-.256c0-.121.081-.188.309-.256a20.819,20.819,0,0,0,2.1-.793,1.783,1.783,0,0,1,.793-.161h.363c.309,0,.39.054.39.336,0,.2-.027,1.573-.027,2.353Z" transform="translate(-1386.273 -745.676)" fill="#836660"/>
  <path id="パス_7573" data-name="パス 7573" d="M1475.4,755.674h-4.1c-.216,0-.309.094-.309.309v.134c0,.376-.135.376-.767.376-.578,0-.766,0-.766-.363,0-.565.04-1.13.04-1.681v-6.764c0-.431-.027-.847-.027-1.278,0-.538.215-.7.74-.7.39,0,.78.027,1.183.027h3.927c.39,0,.78-.027,1.17-.027.511,0,.74.135.74.686,0,.431-.027.861-.027,1.291v6.737c0,.565.041,1.117.041,1.681,0,.376-.161.363-.767.363s-.766,0-.766-.363a.374.374,0,0,1,.013-.121C1475.708,755.768,1475.613,755.674,1475.4,755.674Zm-.027-5.729a.385.385,0,0,0,.376-.376v-2.151a.385.385,0,0,0-.376-.377h-4.048a.385.385,0,0,0-.377.377v2.151a.385.385,0,0,0,.377.376Zm-4.425,4.021a.385.385,0,0,0,.377.377h4.048a.385.385,0,0,0,.376-.377V751.6a.385.385,0,0,0-.376-.376h-4.048a.385.385,0,0,0-.377.376Z" transform="translate(-1399.732 -744.66)" fill="#836660"/>
  <path id="パス_7574" data-name="パス 7574" d="M1504.381,752.225a.478.478,0,0,0-.269.108,13.955,13.955,0,0,1-4.519,2.568,2.126,2.126,0,0,1-.591.148c-.323,0-.686-.78-.686-1s.215-.269.538-.363a12.028,12.028,0,0,0,4.33-2.259.34.34,0,0,0,.148-.256.44.44,0,0,0-.108-.256,12.055,12.055,0,0,1-1.533-2.219.525.525,0,0,1-.067-.188c0-.215.861-.7,1.049-.7.121,0,.188.108.283.282a11.362,11.362,0,0,0,1.21,1.829.316.316,0,0,0,.242.148.287.287,0,0,0,.215-.135,8.08,8.08,0,0,0,1.17-1.9c.054-.081.094-.188.2-.188a4.155,4.155,0,0,1,.861.349c.43.229.538.283.538.39s-.148.148-.229.175c-.229.04-.256.094-.4.363a11.335,11.335,0,0,1-1.21,1.761.336.336,0,0,0-.108.242.326.326,0,0,0,.134.256,12.638,12.638,0,0,0,4.451,2.434c.134.04.3.108.3.269,0,.188-.377,1.022-.793,1.022a10.06,10.06,0,0,1-1.681-.686,14.394,14.394,0,0,1-3.2-2.085A.416.416,0,0,0,1504.381,752.225Zm-1.937-6.266c-.081.013-.175.04-.175.134a.158.158,0,0,0,.108.134c.148.081.646.336.646.5,0,.134-.2.121-.3.134-.121,0-.188.094-.269.175a11.7,11.7,0,0,1-2.663,2.286.869.869,0,0,1-.417.174c-.3,0-.807-.565-.807-.807,0-.175.2-.256.323-.323a10.081,10.081,0,0,0,2.568-2.139.2.2,0,0,0,.054-.121c0-.108-.094-.135-.189-.148h-.847c-.551,0-1.1.026-1.654.026-.363,0-.349-.134-.349-.645s-.014-.646.349-.646c.551,0,1.1.027,1.654.027h2.77c.269,0,.376-.108.376-.376a5.788,5.788,0,0,0-.053-.955c0-.04-.014-.081-.014-.121,0-.161.134-.188.269-.188.255,0,.928.067,1.2.094.135.013.4.013.4.175,0,.094-.081.121-.175.188-.174.122-.174.337-.161.807,0,.269.108.376.376.376h2.824c.551,0,1.1-.027,1.654-.027.363,0,.35.148.35.646s0,.645-.35.645c-.551,0-1.1-.026-1.654-.026h-.888c-.094.013-.175.04-.175.148a.24.24,0,0,0,.054.134,11.08,11.08,0,0,0,2.717,2.151c.081.054.175.108.175.216,0,.269-.51.874-.82.874a10.967,10.967,0,0,1-3.4-2.891c0-.135.242-.3.336-.35a.169.169,0,0,0,.094-.134c0-.094-.067-.135-.161-.148Z" transform="translate(-1417.964 -743)" fill="#836660"/>
  <path id="パス_7575" data-name="パス 7575" d="M1539.785,750.538c.215,0,.309-.094.309-.309v-2.864a.135.135,0,0,0-.135-.134,1.594,1.594,0,0,1-.484-.282.886.886,0,0,0-.632-.215,1.243,1.243,0,0,0-.229-.013c-.255.013-.349.108-.349.363v1.412c.013.135.054.256.215.256a.25.25,0,0,0,.108-.027c.041-.014.108-.054.175-.081a1.808,1.808,0,0,1,.5-.189c.323,0,.323.525.323.753,0,.5-.053.444-1.008.887a.455.455,0,0,0-.309.511v2.205c0,.283.027.565.027.847a1.29,1.29,0,0,1-.323,1.035,2.214,2.214,0,0,1-1.4.363c-.524,0-.82.027-.82-1.008,0-.215.067-.364.309-.364.081,0,.229.014.43.014.484,0,.471-.2.471-.847v-1.735c-.013-.135-.053-.269-.228-.269a.409.409,0,0,0-.108.027c-.081.027-.134.054-.188.067-.174.067-.2.094-.242.242-.027.094-.081.161-.175.161-.148,0-.188-.175-.3-.524-.041-.134-.242-.793-.242-.888,0-.148.081-.161.471-.269.174-.054.39-.108.686-.2a.43.43,0,0,0,.323-.484v-1.9c0-.242-.094-.35-.349-.363-.175,0-.457.027-.606.027-.336,0-.309-.188-.309-.673s-.013-.645.309-.645c.2,0,.4.027.606.027.255-.014.349-.121.349-.363v-.686c0-.336-.013-.659-.04-1.008,0-.041-.013-.094-.013-.135,0-.161.121-.2.268-.2.188,0,.39.027.592.04.107.013.2.013.3.027.35.027.565.04.565.2,0,.108-.121.161-.2.2-.148.081-.162.2-.162.659v.9c0,.242.094.349.349.363.162-.014.336-.027.511-.027.269,0,.3.121.309.377a.123.123,0,0,0,.121.134.18.18,0,0,0,.108-.04,10.267,10.267,0,0,0,1.99-2.7c.041-.094.081-.189.2-.189.041,0,.982.242,1.116.282.094.027.336.081.336.2,0,.094-.108.121-.188.148a.262.262,0,0,0-.229.148.144.144,0,0,0-.027.081c0,.094.081.121.161.121h1.21c.3,0,.525-.014.605-.014a.873.873,0,0,1,.766.713,3.416,3.416,0,0,1-.578,1.022.187.187,0,0,0-.041.121c0,.121.108.161.2.175.336-.014.659-.027,1-.027.444,0,.672.121.672.605,0,.323-.014.646-.014.968v2.676c0,.215.081.309.3.309.471.013.457.081.457.605,0,.457.014.592-.377.592-.524,0-1.049-.027-1.573-.027h-.955c-.108,0-.215.04-.215.162,0,.053.027.08.054.135a6,6,0,0,0,2.891,1.775c.175.054.309.068.309.229,0,.2-.336,1.022-.7,1.022a6.427,6.427,0,0,1-3.4-2.273.236.236,0,0,0-.2-.108.3.3,0,0,0-.2.108,6.345,6.345,0,0,1-3.174,2.152,2.617,2.617,0,0,1-.511.135c-.377,0-.74-.834-.74-1.049s.2-.215.39-.242a5.169,5.169,0,0,0,3.012-1.735.258.258,0,0,0,.041-.135c0-.135-.121-.175-.229-.175h-.821c-.511,0-1.036.027-1.56.027-.39,0-.39-.121-.39-.592,0-.5,0-.605.4-.605Zm4.263-.148c.027.148.175.175.3.175h.887c.269,0,.377-.108.377-.377v-.39c0-.228-.121-.322-.363-.322a.754.754,0,0,1-.175.014h-.391c-.591,0-1.143-.014-1.143-.74v-1.237c0-.269-.107-.376-.363-.376h-1.479c-.256,0-.377.108-.377.376v2.676c0,.269.121.377.377.377h.659c.255,0,.376-.081.417-.35v-.188c0-.242,0-.337.188-.337.094,0,.78.081.9.094.3.027.471.041.471.189,0,.094-.081.148-.148.188A.218.218,0,0,0,1544.047,750.39Zm-1.062-2.434c-.121.766-.524,1.815-.766,1.815-.175,0-.793-.256-.793-.457,0-.053.08-.148.108-.188a2.656,2.656,0,0,0,.511-1.492c.027-.242.04-.39.161-.39a3.552,3.552,0,0,1,.632.148c.242.067.43.094.43.215,0,.068-.081.108-.161.148A.233.233,0,0,0,1542.985,747.956Zm-.08-1.95a.594.594,0,0,0,.578-.283,2.31,2.31,0,0,0,.336-.578c0-.121-.148-.108-.228-.108h-1.143a.584.584,0,0,0-.578.269c-.108.135-.215.283-.323.417a.19.19,0,0,0-.04.121c0,.108.081.148.175.161Zm2.7,1.641v-.135c0-.269-.108-.376-.377-.376h-.323c-.255,0-.363.108-.363.376v.646c0,.256.067.323.363.323h.081c.376,0,.431-.067.525-.538.013-.067.027-.108.04-.175A.483.483,0,0,0,1545.608,747.647Z" transform="translate(-1441.442 -742.954)" fill="#836660"/>
</svg>
