<svg id="グループ_795" data-name="グループ 795" xmlns="http://www.w3.org/2000/svg" width="39.651" height="12.345" viewBox="0 0 39.651 12.345">
  <path id="パス_7691" data-name="パス 7691" d="M931.077,608.4a.2.2,0,0,0-.215.229c0,.282-.188.309-.578.309h-.874c-.444,0-.632-.027-.632-.309,0-.094.04-.619.04-.982v-1.91c0-.336-.026-.619-.026-.914,0-.578.632-.592,1.062-.592s.888.04,1.345.04H933.4c.471,0,.551-.121.78-.457a1.652,1.652,0,0,0,.256-.511c0-.148-.148-.148-.4-.148H930.9c-.511,0-1.022.04-1.546.04-.336,0-.35-.148-.35-.619,0-.229-.027-.35-.161-.35s-.363.2-.619.2a.641.641,0,0,1-.471-.269,2.6,2.6,0,0,1-.673-1.1c0-.134.121-.188.417-.323a11.736,11.736,0,0,0,4.734-3.981.314.314,0,0,1,.282-.161c.161,0,1.708.256,1.99.309.134.027.242.094.242.229a.206.206,0,0,1-.148.188c-.027.014-.04.027-.04.094a3.764,3.764,0,0,0,.619.794,11.545,11.545,0,0,0,3.9,2.528c.161.067.3.121.3.283,0,.188-.619,1.52-1.022,1.52a12.183,12.183,0,0,1-2.528-1.506c-.067-.054-.094-.081-.161-.081s-.081.027-.108.081-.067.108-.255.108c-.4,0-.794-.027-1.2-.027H932.26c-.39,0-.753.027-1.156.027-.188,0-.242-.041-.283-.108s-.054-.067-.121-.067a.216.216,0,0,0-.134.054c-.148.121-.39.3-.538.417-.067.054-.081.094-.081.121,0,.108.121.121.471.121h4.129c.538,0,1.076-.013,1.614-.013a.509.509,0,0,1,.484.188,2.911,2.911,0,0,0,.215.215c.175.148.3.3.3.417a7.811,7.811,0,0,1-.794,1.452c-.054.081-.054.094-.054.148,0,.121.094.148.2.148h.108c.4,0,.928.081.928.592,0,.229-.04.524-.04.914v1.91c0,.444.054.874.054.968,0,.3-.188.323-.686.323h-.794c-.417,0-.578-.027-.578-.336a.205.205,0,0,0-.229-.2Zm-.256-1.882a.368.368,0,0,0,.377.377h3.967a.385.385,0,0,0,.377-.377v-.376a.385.385,0,0,0-.377-.377H931.2a.376.376,0,0,0-.377.377Zm3.039-6.778c.067,0,.2-.014.2-.121,0-.067-.054-.108-.094-.148a8.211,8.211,0,0,1-.565-.618.3.3,0,0,0-.242-.135c-.121,0-.242.135-.444.35a5.859,5.859,0,0,1-.417.431.14.14,0,0,0-.067.121c0,.121.189.121.269.121Z" transform="translate(-927.083 -596.595)" fill="#856660"/>
  <path id="パス_7692" data-name="パス 7692" d="M966.86,599.905c.5,0,1-.014,1.493-.014a.681.681,0,0,1,.686.323.881.881,0,0,1,.229.592,3.222,3.222,0,0,1-.081.632,13.626,13.626,0,0,1-1.466,3.873,11.708,11.708,0,0,1-1.52,1.923.681.681,0,0,1-.484.268c-.309,0-1.385-.766-1.385-1.143a.231.231,0,0,1,.094-.175,10.146,10.146,0,0,0,1.99-2.649,6.644,6.644,0,0,0,.551-1.6c0-.162-.134-.175-.336-.175h-.376c-.4,0-.807.041-1.183.041-.323,0-.349-.148-.349-.565v-.807c0-.4.027-.565.323-.565.4,0,.807.04,1.21.04Zm6.724,2.878a.329.329,0,0,0-.148.242,10,10,0,0,0,2.717,2.743c.134.081.363.2.363.377,0,.255-.887,1.345-1.385,1.345-.323,0-1.17-.847-1.425-1.089a11.211,11.211,0,0,1-1.883-2.393c-.054-.094-.175-.283-.3-.283s-.108.135-.108.269v2.178c0,.4.027.807.027,1.21,0,1.533-1.358,1.667-2.555,1.667-.524,0-.74-.067-.874-.43a4.726,4.726,0,0,1-.2-1.3c0-.242.067-.39.336-.39.027,0,.108,0,.309.013.161.013.363.027.525.027.4,0,.5-.067.5-.484v-8.123c0-.821-.054-.955-.054-1.17,0-.175.094-.229.255-.229.269,0,1.52.107,1.842.134.108.014.323.027.323.189,0,.081-.081.148-.215.255-.2.148-.215.417-.215.955v.4a2.948,2.948,0,0,0,.444,1.533l.135.269c.175.363.256.511.376.511.148,0,.323-.2.551-.471a16.461,16.461,0,0,0,1.1-1.412c.041-.054.134-.175.215-.175a8.682,8.682,0,0,1,1.386.834c.161.108.282.189.349.229.094.067.228.148.228.269a.257.257,0,0,1-.228.228h-.067c-.04,0-.081-.013-.121-.013a.381.381,0,0,0-.242.121A20.806,20.806,0,0,1,973.584,602.783Z" transform="translate(-950.614 -596.826)" fill="#856660"/>
  <path id="パス_7693" data-name="パス 7693" d="M1005.553,604.7a.235.235,0,0,1-.2.134c-.228,0-.269-.336-.349-.659s-.108-.538-.323-.538a4.75,4.75,0,0,0-.793.3c-.054.027-.094.04-.121.054-.551.242-.579.215-.632.363a.239.239,0,0,1-.2.148c-.108,0-.161-.174-.336-.618-.054-.108-.094-.242-.162-.4-.013-.04-.04-.094-.067-.162a2.052,2.052,0,0,1-.134-.417c0-.094.04-.081.323-.148a16.477,16.477,0,0,0,2.192-.793.508.508,0,0,1,.2-.067c.242,0,.282.619.3.794.013.229.121.39.377.39.3,0,.7-.215.7-.47,0-.121-.108-.2-.2-.283a9.741,9.741,0,0,0-.981-.672c-.148-.094-.3-.161-.3-.282,0-.161.632-1.13.834-1.13a.191.191,0,0,1,.081.027.147.147,0,0,0,.067.013c.08,0,.134-.108.242-.3a.99.99,0,0,0,.161-.336c0-.121-.108-.162-.215-.162h-1.654c-.551,0-1.089.027-1.64.027-.323,0-.35-.121-.35-.5v-.686c0-.377.027-.484.376-.484.538,0,1.076.027,1.614.027h2.367a.379.379,0,0,0,.376-.39c0-.067-.027-.364-.04-.43,0-.027-.014-.067-.014-.094,0-.134.148-.134.323-.134.255,0,1.1.04,1.493.067.336.027.524.04.524.188,0,.121-.108.148-.161.175-.121.067-.121.175-.121.282a.356.356,0,0,0,.363.336h2.448c.538,0,1.076-.027,1.614-.027.336,0,.377.094.377.551v.511c0,.5,0,.605-.391.605-.108,0-.242.014-.242.148,0,.067.484,1.035.551,1.17a.39.39,0,0,1,.054.188c0,.067-.054.121-.148.121a.607.607,0,0,1-.148-.04.311.311,0,0,0-.108-.027c-.04,0-.4.121-.672.215-.148.054-.269.094-.309.108a8.627,8.627,0,0,1-1.144.309c-.47,0-.78-1.076-.78-1.143,0-.228.269-.269.471-.323.511-.148,1.009-.35,1.506-.538.054-.027.162-.053.162-.121s-.054-.094-.444-.094h-3.86c-.067,0-.108.027-.108.081,0,.027.04.054.04.107,0,.121-.121.121-.2.121s-.094.013-.188.148c-.229.309-.431.605-.672.928-.094.121-.135.161-.135.242a.21.21,0,0,0,.2.215c.121,0,.188-.094.255-.189a11.758,11.758,0,0,0,.767-1.062c.053-.067.108-.135.188-.135a8.913,8.913,0,0,1,1.277.659c.216.135.3.175.3.269,0,.175-.2.189-.309.189s-.134.04-.2.107c-.309.323-.753.888-1.183,1.358-.122.135-.2.189-.2.269s.067.121.148.121c.606,0,.74-.094.74-.242a.476.476,0,0,0-.108-.269.447.447,0,0,1-.094-.215c0-.161.269-.269.511-.39l.08-.04a1.616,1.616,0,0,1,.538-.188c.2,0,.3.188.39.35.081.121.215.376.376.376.135,0,.2-.134.256-.229s.161-.255.3-.255a12.928,12.928,0,0,1,1.775.686,6.338,6.338,0,0,1,.672.336.2.2,0,0,1,.135.189c0,.188-.605,1.2-.834,1.2a.685.685,0,0,1-.309-.161,7.753,7.753,0,0,0-1.331-.672.115.115,0,0,0-.108.108,2.022,2.022,0,0,0,.215.457.425.425,0,0,1,.08.215c0,.256-1.008.672-1.237.672-.175,0-.2-.148-.255-.269a.474.474,0,0,0-.43-.323c-.122,0-.753.04-.753.189,0,.067.107.094.175.094.121.014.309.014.309.2,0,.108-.081.162-.161.215-.041.027-.121.081-.121.135s.094.067.148.067h2.837c.538,0,1.076-.026,1.628-.026.323,0,.349.134.349.524v.672c0,.4-.027.525-.349.525-.552,0-1.089-.027-1.628-.027h-2.663a.383.383,0,0,0-.376.4c0,.484.04,1,.04,1.412,0,.336-.121.417-.713.417h-.645c-.578,0-.686-.081-.686-.4,0-.255.04-1.143.04-1.506a.369.369,0,0,0-.376-.323h-2.676c-.538,0-1.089.027-1.627.027-.323,0-.349-.121-.349-.525v-.39c0-.726,0-.806.363-.806.538,0,1.076.026,1.614.026h2.784c.2,0,.256-.175.256-.336,0-.2-.108-.3-.309-.3-.027,0-1.036.081-1.13.081C1005.647,604.587,1005.607,604.6,1005.553,604.7Zm-.686-3.887c0,.2-.726,1.1-1,1.1-.067,0-.121-.067-.161-.108a12.5,12.5,0,0,0-1.2-1.009.244.244,0,0,1-.134-.2,3.274,3.274,0,0,1,.511-.645c.067-.081.135-.148.161-.188a.53.53,0,0,1,.336-.215A4.856,4.856,0,0,1,1004.867,600.809Z" transform="translate(-974.495 -596.734)" fill="#856660"/>
</svg>
