<svg xmlns="http://www.w3.org/2000/svg" width="25.148" height="10.64" viewBox="0 0 25.148 10.64">
  <g id="グループ_778" data-name="グループ 778" transform="translate(0)">
    <path id="パス_7561" data-name="パス 7561" d="M1393.623,314.466c0,.686.035,1.929.035,2.071,0,.248-.071.3-.343.3h-.734c-.272,0-.343-.047-.343-.3,0-.142.036-1.385.036-2.071v-4.143c0-.2-.036-.284-.142-.284a.479.479,0,0,0-.19.047c-.355.13-.757.3-1.065.438a.536.536,0,0,1-.225.071c-.107,0-.154-.083-.213-.26l-.225-.592a.631.631,0,0,1-.048-.225c0-.106.071-.166.272-.225a18.429,18.429,0,0,0,1.847-.7,1.57,1.57,0,0,1,.7-.142h.32c.272,0,.343.048.343.3,0,.177-.024,1.385-.024,2.071Z" transform="translate(-1390.167 -307.057)" fill="#836660"/>
    <path id="パス_7562" data-name="パス 7562" d="M1413.127,312.321c0,2.817-1.621,4.462-3.6,4.462-1.893,0-3.4-1.432-3.4-4.13,0-2.426,1.243-4.391,3.574-4.391C1411.564,308.262,1413.127,309.623,1413.127,312.321Zm-5.609.367c0,1.846.816,2.828,2.012,2.828,1.266,0,2.213-1.219,2.213-3.148,0-1.858-.864-2.781-2.035-2.781C1408.2,309.587,1407.517,311.019,1407.517,312.688Z" transform="translate(-1400.252 -306.936)" fill="#836660"/>
    <path id="パス_7563" data-name="パス 7563" d="M1430.968,305.716a5.6,5.6,0,0,0-.035-.793.32.32,0,0,1-.012-.106c0-.13.095-.154.2-.154.13,0,.876.083,1.042.106.118.012.3.024.3.178,0,.083-.083.106-.177.166-.142.083-.154.308-.154.71v.722c0,.236.095.331.331.331.284.012.58-.024.876-.024.272,0,.26.154.26.556,0,.426.012.58-.26.58-.3,0-.592-.036-.876-.024-.237,0-.331.095-.331.331v.071a.666.666,0,0,0,.118.473,11.311,11.311,0,0,0,1.361,1.74c.071.071.189.177.189.284a1.209,1.209,0,0,1-.662.7c-.189,0-.722-.817-.84-.995a.121.121,0,0,0-.083-.047c-.059,0-.083.059-.083.106v2.687c0,.544.023,1.089.023,1.633,0,.355-.13.355-.591.355-.5,0-.627-.012-.627-.355,0-.544.035-1.089.035-1.633V310.84c0-.035-.012-.059-.047-.059a.044.044,0,0,0-.047.035,10.26,10.26,0,0,1-.817,1.977c-.071.13-.13.273-.3.273-.213,0-.745-.438-.745-.663a.852.852,0,0,1,.178-.379,14.852,14.852,0,0,0,1.515-3.752.17.17,0,0,0,.012-.083c0-.165-.119-.225-.26-.225-.3-.012-.592.024-.876.024s-.272-.142-.272-.58c0-.4,0-.556.272-.556.308,0,.663.024,1.006.024h.047c.237,0,.331-.1.331-.331Zm7.551,2.781a12.678,12.678,0,0,1-1.326,3.337.507.507,0,0,0-.071.225.44.44,0,0,0,.119.272,9.4,9.4,0,0,0,2.284,1.752c.177.106.331.177.331.284,0,.236-.462.876-.71.876a.654.654,0,0,1-.319-.142,11.444,11.444,0,0,1-2.284-1.835.286.286,0,0,0-.213-.106.282.282,0,0,0-.2.106,9.173,9.173,0,0,1-2.379,1.823,1.59,1.59,0,0,1-.473.189c-.237,0-.7-.687-.7-.852,0-.13.154-.178.272-.237a7.716,7.716,0,0,0,2.568-1.882.369.369,0,0,0,.106-.249.408.408,0,0,0-.083-.237,8.011,8.011,0,0,1-.923-2.4c-.012-.059-.047-.106-.107-.106a.13.13,0,0,0-.118.071c-.083.142-.237.485-.438.485-.177,0-.781-.355-.781-.6a.546.546,0,0,1,.083-.189,15.689,15.689,0,0,0,1.681-4.225c.024-.1.036-.177.154-.177a10.28,10.28,0,0,1,1.006.248c.094.024.3.071.3.19,0,.083-.095.142-.166.177-.177.072-.19.142-.284.45-.047.154-.106.367-.213.663a.227.227,0,0,0-.012.1c0,.142.106.189.237.2h2.367c.426,0,.84-.024,1.255-.024.272,0,.26.142.26.568s.012.58-.249.58-.674-.024-.947-.024c-.036.012-.047.012-.047.047s.023.036.036.048c.177.071.367.118.367.236s-.119.142-.2.166C1438.578,308.319,1438.542,308.39,1438.518,308.5Zm-2.947-.7c-.154,0-.3.059-.3.237v.071a9.3,9.3,0,0,0,.864,2.675.2.2,0,0,0,.154.094.152.152,0,0,0,.142-.106,11.948,11.948,0,0,0,.935-2.675v-.059c0-.178-.13-.237-.272-.237Z" transform="translate(-1414.708 -304.662)" fill="#836660"/>
  </g>
</svg>
