<svg xmlns="http://www.w3.org/2000/svg" width="51.249" height="9.696" viewBox="0 0 51.249 9.696">
  <g id="グループ_2297" data-name="グループ 2297" transform="translate(0 -1.411)">
    <path id="パス_7593" data-name="パス 7593" d="M465.67,754.147c0,.78.04,2.192.04,2.353,0,.282-.081.336-.39.336h-.834c-.309,0-.39-.054-.39-.336,0-.161.04-1.573.04-2.353v-4.707c0-.229-.04-.323-.162-.323a.546.546,0,0,0-.215.054c-.4.148-.861.336-1.21.5a.6.6,0,0,1-.256.081c-.121,0-.175-.094-.242-.3l-.256-.672a.719.719,0,0,1-.054-.256c0-.121.081-.188.309-.256a20.84,20.84,0,0,0,2.1-.793,1.784,1.784,0,0,1,.793-.161h.363c.309,0,.39.054.39.336,0,.2-.027,1.573-.027,2.353Z" transform="translate(-461.743 -745.81)" fill="#836660"/>
    <path id="パス_7594" data-name="パス 7594" d="M485.055,755.156c0,.457.027,1.25.027,1.345,0,.282-.081.336-.39.336h-.753c-.309,0-.39-.054-.39-.336,0-.094.027-.888.027-1.345,0-.309-.054-.364-.363-.364h-2.125c-.78,0-1.936.027-2.03.027-.283,0-.336-.081-.336-.39V754.2a1.354,1.354,0,0,1,.188-.766c.3-.538.578-1.09.847-1.614l1.184-2.286c.282-.551.591-1.17.914-1.856.134-.309.215-.363.565-.363h1.009c.2,0,.3.027.3.121a.675.675,0,0,1-.094.228c-.43.794-.78,1.453-1.116,2.1l-1.721,3.322a.618.618,0,0,0-.081.242c0,.094.094.121.3.121h2.206c.323,0,.363-.081.363-.39,0-.914-.027-2.138-.027-2.232,0-.283.08-.336.39-.336h.753c.309,0,.39.053.39.336,0,.094-.027,1.3-.027,2.259,0,.309.054.363.363.363.363,0,1.022-.013,1.116-.013.282,0,.336.081.336.39v.606c0,.309-.054.39-.336.39-.094,0-.753-.027-1.116-.027C485.109,754.793,485.055,754.847,485.055,755.156Z" transform="translate(-472.468 -745.81)" fill="#836660"/>
    <path id="パス_7595" data-name="パス 7595" d="M507.269,768.838a1.023,1.023,0,0,1-1.062,1.089.918.918,0,0,1-.968-.941,1.022,1.022,0,0,1,1.076-1.076A.912.912,0,0,1,507.269,768.838Z" transform="translate(-489.22 -758.819)" fill="#836660"/>
    <path id="パス_7596" data-name="パス 7596" d="M520.36,755.291c.686,0,1.95-.027,2.044-.027.282,0,.336.081.336.39v.632c0,.309-.054.39-.336.39-.094,0-1.358-.027-2.044-.027h-1.748c-.686,0-1.95.027-2.044.027-.283,0-.336-.081-.336-.39v-.242a.633.633,0,0,1,.323-.659,8.847,8.847,0,0,0,.686-.565c2.421-2.125,3.819-3.47,3.819-4.787,0-.874-.605-1.479-1.708-1.479a2.7,2.7,0,0,0-1.963.888c-.121.135-.2.188-.283.188s-.148-.067-.269-.188l-.538-.579c-.108-.121-.161-.2-.161-.282s.067-.175.188-.3a4.594,4.594,0,0,1,3.16-1.224c2.044,0,3.187,1.21,3.187,2.757,0,1.9-1.52,3.416-3.577,5.2-.108.094-.148.148-.148.188s.081.081.242.081Z" transform="translate(-496.104 -745.649)" fill="#836660"/>
    <path id="パス_7597" data-name="パス 7597" d="M541.957,759.045c0,.606.027,1.721.027,1.816,0,.282-.081.336-.39.336h-.78c-.309,0-.39-.054-.39-.336,0-.094.027-1.21.027-1.816V756.45c0-.605-.027-1.721-.027-1.816,0-.282.081-.336.39-.336h.659c.309,0,.363.054.377.363.014.175.04.255.108.255a.412.412,0,0,0,.2-.094,2.9,2.9,0,0,1,1.788-.605,2.135,2.135,0,0,1,1.614.646c.121.134.188.2.269.2s.134-.054.269-.162a3.317,3.317,0,0,1,2.017-.686,2.165,2.165,0,0,1,2.219,2.407v2.42c0,.606.027,1.721.027,1.816,0,.282-.081.336-.39.336h-.78c-.309,0-.39-.054-.39-.336,0-.094.027-1.21.027-1.816v-2c0-.821-.39-1.372-1.224-1.372a1.921,1.921,0,0,0-1.184.431.507.507,0,0,0-.255.524v2.42c0,.606.027,1.721.027,1.816,0,.282-.081.336-.39.336h-.78c-.309,0-.39-.054-.39-.336,0-.094.027-1.21.027-1.816v-2c0-.821-.39-1.372-1.223-1.372a1.956,1.956,0,0,0-1.184.417.647.647,0,0,0-.3.605Z" transform="translate(-511.447 -750.169)" fill="#836660"/>
    <path id="パス_7598" data-name="パス 7598" d="M575.446,759.045c0,.606.027,1.721.027,1.816,0,.282-.081.336-.39.336h-.78c-.309,0-.39-.054-.39-.336,0-.094.027-1.21.027-1.816V756.45c0-.605-.027-1.721-.027-1.816,0-.282.081-.336.39-.336h.659c.309,0,.363.054.376.363.014.175.041.255.108.255a.411.411,0,0,0,.2-.094,2.9,2.9,0,0,1,1.788-.605,2.135,2.135,0,0,1,1.614.646c.121.134.188.2.269.2s.135-.054.269-.162a3.315,3.315,0,0,1,2.017-.686,2.166,2.166,0,0,1,2.219,2.407v2.42c0,.606.026,1.721.026,1.816,0,.282-.08.336-.39.336h-.78c-.309,0-.39-.054-.39-.336,0-.094.027-1.21.027-1.816v-2c0-.821-.39-1.372-1.224-1.372a1.92,1.92,0,0,0-1.183.431.507.507,0,0,0-.256.524v2.42c0,.606.027,1.721.027,1.816,0,.282-.081.336-.39.336h-.78c-.309,0-.39-.054-.39-.336,0-.094.027-1.21.027-1.816v-2c0-.821-.39-1.372-1.224-1.372a1.957,1.957,0,0,0-1.184.417.647.647,0,0,0-.3.605Z" transform="translate(-532.602 -750.169)" fill="#836660"/>
  </g>
</svg>
