<svg xmlns="http://www.w3.org/2000/svg" width="227.5" height="247.97" viewBox="0 0 227.5 247.97">
  <g id="グループ_932" data-name="グループ 932" transform="translate(-1597.701 -10902.655)">
    <path id="パス_3208" data-name="パス 3208" d="M2066.48,0V247.97l-113.75-26.1-113.75,26.1V0Z" transform="translate(-241.279 10902.655)" fill="#b5825f"/>
    <path id="パス_3209" data-name="パス 3209" d="M1942.85,159.26c-5.52,10.26-13.75,15.44-24.46,15.44s-18.94-5.19-24.46-15.44c-4.4-8.23-6.65-18.26-6.65-29.98s2.25-21.75,6.65-29.98c5.52-10.26,13.75-15.44,24.46-15.44s18.94,5.19,24.46,15.44c4.51,8.34,6.76,18.37,6.76,29.98S1947.36,150.92,1942.85,159.26Zm-12.4-47.9c-2.59-7.33-6.65-11.05-12.06-11.05s-9.36,3.72-11.95,11.05a56.264,56.264,0,0,0,0,35.84c2.59,7.33,6.65,11.05,11.95,11.05s9.47-3.72,12.06-11.05a56.264,56.264,0,0,0,0-35.84Z" transform="translate(-241.279 10902.655)" fill="#fff"/>
    <path id="パス_3210" data-name="パス 3210" d="M1963.25,173.12a201.8,201.8,0,0,0,20.18-25.47c7.89-12.06,11.83-21.64,11.83-28.97a19.009,19.009,0,0,0-5.18-13.53,22.783,22.783,0,0,0-13.19-6.88l2.71-15.78c9.81,1.58,17.58,5.52,23.22,11.83s8.45,14.43,8.45,24.35c0,11.5-5.52,24.23-16.46,38.32h17.81v16.12h-49.37Z" transform="translate(-241.279 10902.655)" fill="#fff"/>
  </g>
</svg>
