<svg xmlns="http://www.w3.org/2000/svg" width="227.501" height="247.97" viewBox="0 0 227.501 247.97">
  <g id="グループ_782" data-name="グループ 782" transform="translate(-1596.599)">
    <path id="パス_3952" data-name="パス 3952" d="M1824.1,0V247.97l-113.75-26.1-113.75,26.1V0Z" fill="#705772"/>
    <g id="グループ_493" data-name="グループ 493">
      <g id="グループ_492" data-name="グループ 492">
        <path id="パス_3953" data-name="パス 3953" d="M1705.652,159.257c-5.523,10.258-13.751,15.443-24.459,15.443s-18.936-5.185-24.46-15.443c-4.4-8.228-6.65-18.259-6.65-29.982s2.255-21.754,6.65-29.983c5.524-10.257,13.752-15.442,24.46-15.442s18.936,5.185,24.459,15.442c4.509,8.341,6.763,18.373,6.763,29.983S1710.161,150.917,1705.652,159.257Zm-12.4-47.9c-2.593-7.326-6.65-11.046-12.061-11.046-5.3,0-9.355,3.72-11.948,11.046a56.258,56.258,0,0,0,0,35.844c2.593,7.327,6.651,11.046,11.948,11.046,5.411,0,9.468-3.719,12.061-11.046a56.258,56.258,0,0,0,0-35.844Z" fill="#fff"/>
        <path id="パス_3954" data-name="パス 3954" d="M1752.2,114.4c10.483,6.651,15.78,15.781,15.78,27.39a32.541,32.541,0,0,1-8.678,22.657c-5.3,5.861-12.4,9.918-21.192,12.286l-4.17-15.555a27.761,27.761,0,0,0,12.512-6.65,16.889,16.889,0,0,0,5.41-12.625c0-11.046-7.1-18.26-21.416-21.529,2.592-4.509,6.651-11.158,11.947-20.063h-21.19V85.428h48.581Z" fill="#fff"/>
      </g>
    </g>
  </g>
</svg>
