<svg xmlns="http://www.w3.org/2000/svg" width="227.501" height="247.97" viewBox="0 0 227.501 247.97">
  <g id="グループ_945" data-name="グループ 945" transform="translate(-1577.089 -16265.655)">
    <path id="パス_91" data-name="パス 91" d="M1804.59,0v247.97l-113.75-26.1-113.751,26.1V0Z" transform="translate(0 16265.659)" fill="#5c8291"/>
    <path id="パス_92" data-name="パス 92" d="M1678.195,159.253c-5.523,10.258-13.751,15.444-24.459,15.444s-18.936-5.186-24.46-15.444c-4.4-8.228-6.65-18.259-6.65-29.982s2.255-21.754,6.65-29.982c5.524-10.258,13.752-15.443,24.46-15.443s18.936,5.185,24.459,15.443c4.509,8.34,6.763,18.372,6.763,29.982s-2.254,21.642-6.763,29.982m-12.4-47.9c-2.593-7.327-6.65-11.046-12.061-11.046-5.3,0-9.355,3.719-11.948,11.046a56.281,56.281,0,0,0,0,35.845c2.593,7.326,6.651,11.046,11.948,11.046,5.411,0,9.468-3.72,12.061-11.046a56.261,56.261,0,0,0,0-35.845" transform="translate(0 16265.659)" fill="#fff"/>
    <path id="パス_93" data-name="パス 93" d="M1752.591,155.647v17.471h-15.442V155.647H1697.7L1734.444,83.4l14.2,7.439c-5.3,10.934-13.527,27.39-24.46,49.257h12.963V119.014h15.442v21.078h6.425v15.555Z" transform="translate(0 16265.659)" fill="#fff"/>
  </g>
</svg>
