<svg xmlns="http://www.w3.org/2000/svg" width="27.987" height="22.731" viewBox="0 0 27.987 22.731">
  <path id="Icon_awesome-twitter" data-name="Icon awesome-twitter" d="M25.11,9.046c.018.249.018.5.018.746,0,7.583-5.771,16.32-16.32,16.32A16.209,16.209,0,0,1,0,23.536a11.866,11.866,0,0,0,1.385.071,11.487,11.487,0,0,0,7.121-2.451,5.746,5.746,0,0,1-5.363-3.978,7.233,7.233,0,0,0,1.083.089,6.067,6.067,0,0,0,1.509-.2,5.737,5.737,0,0,1-4.6-5.629v-.071a5.777,5.777,0,0,0,2.593.728A5.744,5.744,0,0,1,1.953,4.428a16.3,16.3,0,0,0,11.827,6,6.475,6.475,0,0,1-.142-1.314,5.741,5.741,0,0,1,9.927-3.925,11.293,11.293,0,0,0,3.64-1.385,5.72,5.72,0,0,1-2.522,3.161,11.5,11.5,0,0,0,3.3-.888A12.33,12.33,0,0,1,25.11,9.046Z" transform="translate(0 -3.381)" fill="#fff"/>
</svg>