<svg xmlns="http://www.w3.org/2000/svg" width="308.732" height="66.609" viewBox="0 0 308.732 66.609">
  <g id="グループ_1535" data-name="グループ 1535" transform="translate(-60.634 -658.179)">
    <g id="グループ_515" data-name="グループ 515" transform="translate(-166.814 -1414.201)">
      <rect id="長方形_175" data-name="長方形 175" width="126.793" height="27.609" rx="13.805" transform="translate(258.376 2110.881)" fill="none" stroke="#705772" stroke-miterlimit="10" stroke-width="1"/>
      <g id="グループ_508" data-name="グループ 508" transform="translate(276.97 2117.935)">
        <g id="グループ_507" data-name="グループ 507" transform="translate(0 0)">
          <path id="パス_4002" data-name="パス 4002" d="M1109.375,2096.058a.221.221,0,0,0-.108.031,12.064,12.064,0,0,1-2.981,1.859c-.415,0-.922-.814-.922-1.06,0-.184.292-.322.461-.4a17.378,17.378,0,0,0,4.686-3.472,8.369,8.369,0,0,0,1.029-1.306.331.331,0,0,1,.292-.2c.154,0,1.244.261,1.475.323.123.031.292.107.292.261,0,.092-.092.154-.169.185a.142.142,0,0,0-.077.107.081.081,0,0,0,.031.062,15.166,15.166,0,0,0,5.531,4.04c.139.062.353.138.353.323,0,.216-.476,1.168-.8,1.168a16.46,16.46,0,0,1-3.227-1.89.133.133,0,0,0-.092-.046c-.092,0-.123.077-.138.153-.016.23-.046.354-.307.354-.369,0-.8-.031-1.229-.031h-2.443c-.415,0-.876.031-1.214.031-.261,0-.307-.108-.323-.354C1109.483,2096.119,1109.452,2096.058,1109.375,2096.058Zm.077,8.711c-.2,0-.276.092-.276.292v.046c0,.354-.246.338-.861.338-.583,0-.814,0-.814-.338,0-.2.046-.646.046-.952V2101.9c0-.292-.031-.6-.031-.891,0-.6.523-.66,1-.66.43,0,.86.031,1.291.031h3.073a.633.633,0,0,0,.63-.323,7.126,7.126,0,0,0,.737-1.245c0-.2-.353-.169-.491-.169h-3.979c-.568,0-1.167.046-1.629.046-.369,0-.353-.2-.353-.707,0-.43,0-.63.353-.63.384,0,1.03.046,1.629.046h4.333c.445,0,.876-.031,1.321-.031a1.04,1.04,0,0,1,.968.707,8.637,8.637,0,0,1-1.045,1.951.215.215,0,0,0-.046.138c0,.138.108.185.23.185h.43c.461,0,.968.076.968.645,0,.307-.031.6-.031.906v2.259c0,.2.046.722.046.937,0,.369-.231.353-.83.353-.584,0-.814.015-.814-.338v-.046c0-.2-.092-.292-.276-.292Zm5.884-2.7a.439.439,0,0,0-.43-.43h-5.347a.439.439,0,0,0-.43.43v1.014a.439.439,0,0,0,.43.43h5.347a.439.439,0,0,0,.43-.43Zm-3.073-8.6a.4.4,0,0,0-.276.138,18.469,18.469,0,0,1-1.46,1.444.231.231,0,0,0-.061.138c0,.107.077.138.169.153h3.227c.077-.015.169-.046.169-.153a.176.176,0,0,0-.046-.123,16.041,16.041,0,0,1-1.444-1.444A.419.419,0,0,0,1112.264,2093.461Z" transform="translate(-1105.365 -2091.51)" fill="#705772"/>
          <path id="パス_4003" data-name="パス 4003" d="M1150.731,2097.122c-.507,0-1.014.031-1.521.031-.353,0-.353-.184-.353-.784s0-.8.353-.8c.507,0,1.014.031,1.521.031h2.381a.693.693,0,0,1,.676.292.915.915,0,0,1,.215.584,4.682,4.682,0,0,1-.231,1,14.271,14.271,0,0,1-1.951,4.118c-.338.476-1.828,2.32-2.381,2.32-.323,0-1.06-.584-1.06-.907,0-.154.154-.261.277-.354a10.765,10.765,0,0,0,2.551-3.042,9.875,9.875,0,0,0,.922-2.243c0-.277-.276-.246-.676-.246Zm6.683.154a.35.35,0,0,0,.246-.092,16.635,16.635,0,0,0,2.228-2.3c.061-.062.138-.169.23-.169a8.161,8.161,0,0,1,1.291.86c.077.062.23.2.23.308a.2.2,0,0,1-.2.2c-.077,0-.138-.015-.215-.015a.315.315,0,0,0-.231.092,27.2,27.2,0,0,1-2.55,2.351.436.436,0,0,0-.184.323.487.487,0,0,0,.092.246,13.983,13.983,0,0,0,3.519,3.472c.123.077.292.185.292.338,0,.231-.676,1.045-1.06,1.045-.292,0-1.214-.814-1.475-1.045a14.733,14.733,0,0,1-3.365-4.578c-.031-.031-.046-.062-.092-.062-.062,0-.093.046-.093.108v4.44c0,.415.031.83.031,1.229,0,1.644-1.444,1.736-2.735,1.736-.353,0-.645,0-.784-.323a3.8,3.8,0,0,1-.169-1.014c0-.246.077-.384.338-.384.185,0,.538.046.876.046.922,0,.891-.308.891-1.245V2094c0-.538-.015-1.091-.061-1.552,0-.046-.016-.138-.016-.2,0-.169.108-.215.262-.215.261,0,1.168.077,1.459.108.123.016.369.031.369.2,0,.108-.108.154-.246.246-.184.138-.215.415-.215.937v.861a1.4,1.4,0,0,0,.093.553,20.81,20.81,0,0,0,.968,2.151C1157.214,2097.184,1157.291,2097.276,1157.414,2097.276Z" transform="translate(-1132.091 -2091.837)" fill="#705772"/>
          <path id="パス_4004" data-name="パス 4004" d="M1199.79,2101.62h3.38c.6,0,1.214-.046,1.813-.046.369,0,.369.154.369.722s0,.722-.369.722c-.6,0-1.214-.031-1.813-.031h-3.4c-.292,0-.415.123-.415.414v.292c0,.522.031,1.06.031,1.582,0,.491-.185.507-.815.507-.646,0-.83-.016-.83-.492,0-.537.031-1.075.031-1.6v-.292c0-.292-.123-.414-.415-.414h-3.4c-.6,0-1.2.031-1.813.031-.369,0-.353-.154-.353-.722,0-.584,0-.722.353-.722.615,0,1.214.046,1.813.046h3.4c.277,0,.4-.124.415-.415-.016-.138-.046-.461-.046-.507,0-.154.108-.215.261-.215.185,0,1.26.108,1.491.123.123.016.261.046.261.184,0,.123-.107.169-.2.23a.375.375,0,0,0-.169.307C1199.406,2101.558,1199.575,2101.62,1199.79,2101.62Zm-4.271-3.15c0,.323-.031.369-.23.461-.661.323-1.26.584-2.013.906-.245.108-.322.124-.383.308-.031.092-.092.169-.185.169-.123,0-.169-.123-.246-.292-.138-.276-.246-.568-.369-.86a.589.589,0,0,1-.077-.231c0-.123.092-.123.323-.184a19.689,19.689,0,0,0,2.612-1.045.6.6,0,0,1,.216-.077C1195.457,2097.625,1195.519,2098.271,1195.519,2098.47Zm.077,2.213c-.046.092-.108.169-.215.169-.138,0-.2-.169-.23-.277a9.927,9.927,0,0,1-.292-1.105c0-.154.107-.169.8-.185.369,0,.63.031.907-.277.077-.092.169-.185.246-.276a.482.482,0,0,0,.108-.277.371.371,0,0,0-.154-.292c-.445-.384-.906-.722-1.383-1.06-.092-.062-.277-.169-.277-.308,0-.169.308-.553.415-.691.169-.2.261-.215.369-.184a.7.7,0,0,0,.246.046.3.3,0,0,0,.261-.138c.169-.261.323-.523.476-.784a.245.245,0,0,0,.047-.138c0-.169-.123-.215-.261-.23h-2.428c-.615,0-1.214.031-1.828.031-.369,0-.353-.154-.353-.691,0-.553-.016-.707.369-.707.6,0,1.2.031,1.813.031h3.119c.277,0,.415-.108.43-.4-.016-.231-.031-.461-.062-.676a.385.385,0,0,1-.015-.123c0-.169.169-.185.292-.185.277,0,1.075.061,1.383.092.169.016.353.031.353.185,0,.123-.107.169-.2.215-.169.092-.154.245-.154.491,0,.292.138.4.414.4h3.165c.6,0,1.214-.031,1.813-.031.369,0,.369.168.369.707,0,.553,0,.691-.369.691-.6,0-1.214-.031-1.813-.031h-4.578c-.031,0-.061.015-.061.046a.033.033,0,0,0,.031.031c.108.062.353.184.353.307s-.154.123-.231.123c-.108.015-.123.015-.2.123-.292.415-.63.937-.953,1.337a.282.282,0,0,0-.077.184c0,.077.062.138.108.2a1.756,1.756,0,0,1,.185.154.477.477,0,0,0,.276.108.374.374,0,0,0,.292-.153c.323-.446.615-.861.906-1.337.046-.061.092-.138.184-.138.123,0,1.322.661,1.322.83s-.185.185-.292.185c-.169,0-.154.015-.246.107a25.588,25.588,0,0,1-1.69,2.059.288.288,0,0,0-.046.123.149.149,0,0,0,.169.153c.43-.046.876-.077,1.306-.107.124-.031.231-.092.231-.23,0-.108-.108-.216-.169-.308a1.37,1.37,0,0,1-.215-.43c0-.23.722-.538.907-.538a.407.407,0,0,1,.338.245c.307.43.584.83.845,1.276a7.111,7.111,0,0,1,.661,1.26c0,.246-.753.568-.983.568-.215,0-.261-.2-.369-.4a.467.467,0,0,0-.445-.307h-.108c-1.551.169-3.088.307-4.639.414C1195.672,2100.56,1195.642,2100.606,1195.6,2100.683Zm-1.567-3.242c-.139,0-.446-.354-.538-.461-.216-.216-.738-.661-.983-.861-.092-.062-.261-.169-.261-.307,0-.123.583-.83.829-.83.2,0,.83.584,1.014.753.138.123.768.661.768.83C1194.858,2096.8,1194.3,2097.441,1194.029,2097.441Zm10.77-1.183a.374.374,0,0,1-.138-.031.472.472,0,0,0-.123-.031.38.38,0,0,0-.169.062,12.729,12.729,0,0,1-2.382.968c-.4,0-.676-.784-.676-.922,0-.2.215-.246.492-.338a11.186,11.186,0,0,0,2.136-.983.537.537,0,0,1,.215-.092c.184,0,.783,1.167.783,1.229A.129.129,0,0,1,1204.8,2096.258Zm-.875,2.135c.2.107,1.014.507,1.014.738,0,.185-.461.937-.706.937a.6.6,0,0,1-.323-.169,22.656,22.656,0,0,0-2.151-1.2c-.153-.077-.353-.154-.353-.338,0-.107.292-.876.553-.876A13.72,13.72,0,0,1,1203.923,2098.393Z" transform="translate(-1159.07 -2091.787)" fill="#705772"/>
          <path id="パス_4005" data-name="パス 4005" d="M1251.053,2101.535q0,.069.23.138a2.406,2.406,0,0,1,1.767,2.428c0,1.706-1.26,3.411-4.609,3.411a7.191,7.191,0,0,1-2.873-.553c-.231-.108-.323-.2-.323-.354a.693.693,0,0,1,.061-.276l.261-.753c.077-.215.138-.323.261-.323a.78.78,0,0,1,.292.123,4.678,4.678,0,0,0,2.381.6c1.813,0,2.719-.937,2.719-1.905,0-1.06-.891-1.6-2.873-1.6-.338,0-.875.016-1.029.016-.4,0-.461-.062-.461-.446v-.691c0-.4.061-.461.461-.461.169,0,.583.016.875.016,1.859,0,2.551-.661,2.551-1.506,0-.83-.753-1.352-1.936-1.352a4.034,4.034,0,0,0-2.151.6.627.627,0,0,1-.308.139c-.108,0-.184-.092-.276-.307l-.338-.707a.811.811,0,0,1-.092-.307c0-.138.092-.215.307-.323a6.636,6.636,0,0,1,3.042-.722c2.52,0,3.549,1.275,3.549,2.658a2.493,2.493,0,0,1-1.291,2.289C1251.129,2101.427,1251.053,2101.489,1251.053,2101.535Z" transform="translate(-1192.276 -2094.56)" fill="#705772"/>
          <path id="パス_4006" data-name="パス 4006" d="M1279.078,2101.568c0,.061.076.123.23.2a3.038,3.038,0,0,1,2.044,2.72c0,1.751-1.429,3-4.471,3-2.427,0-4.163-1.045-4.163-2.858a3.1,3.1,0,0,1,1.967-2.766c.154-.077.23-.138.23-.2s-.077-.123-.215-.215a2.713,2.713,0,0,1-1.521-2.4c0-1.475,1.367-2.75,3.979-2.75,2.381,0,3.764,1.137,3.764,2.612a2.84,2.84,0,0,1-1.629,2.443C1279.154,2101.43,1279.078,2101.506,1279.078,2101.568Zm-2.29.845a1.037,1.037,0,0,0-.43.108c-1.168.491-1.859,1.106-1.859,1.982,0,.968,1.06,1.49,2.458,1.49,1.537,0,2.581-.553,2.581-1.552,0-.937-.953-1.413-2.335-1.936A1.208,1.208,0,0,0,1276.788,2102.413Zm.307-4.579c-1.2,0-2.1.476-2.1,1.26,0,.8.784,1.229,1.844,1.659a1.268,1.268,0,0,0,.415.108,1.084,1.084,0,0,0,.43-.123c.937-.446,1.46-.983,1.46-1.674C1279.139,2098.3,1278.263,2097.834,1277.1,2097.834Z" transform="translate(-1209.345 -2094.485)" fill="#705772"/>
          <path id="パス_4007" data-name="パス 4007" d="M1307.45,2099.517c0,2.12-1.183,3.334-2.827,3.334-1.506,0-2.689-1.122-2.689-3.088,0-2,1.075-3.3,2.857-3.3C1306.283,2096.46,1307.45,2097.551,1307.45,2099.517Zm-3.964.276c0,1.076.492,1.644,1.152,1.644.768,0,1.276-.661,1.276-1.829,0-1.06-.476-1.659-1.168-1.659C1303.932,2097.95,1303.486,2098.7,1303.486,2099.794Zm1.767,7.636c-.23,0-.338-.031-.338-.138a.7.7,0,0,1,.092-.277c.261-.492.522-1.014.768-1.491l3.5-7.068c.231-.46.476-.983.706-1.49.154-.353.246-.415.645-.415h.815c.23,0,.338.031.338.139a.66.66,0,0,1-.092.261c-.276.538-.553,1.076-.784,1.552l-3.488,7.037c-.23.492-.476.983-.707,1.475-.169.353-.246.414-.645.414Zm9.495-3.242c0,2.121-1.183,3.334-2.827,3.334-1.506,0-2.689-1.121-2.689-3.088,0-2,1.075-3.3,2.857-3.3C1313.58,2101.131,1314.748,2102.221,1314.748,2104.188Zm-3.964.277c0,1.076.491,1.644,1.152,1.644.768,0,1.275-.661,1.275-1.829,0-1.06-.476-1.659-1.167-1.659C1311.23,2102.621,1310.785,2103.373,1310.785,2104.464Z" transform="translate(-1227.499 -2094.585)" fill="#705772"/>
        </g>
      </g>
      <path id="パス_9153" data-name="パス 9153" d="M13.8,0H94.081a13.8,13.8,0,1,1,0,27.609H13.8A13.8,13.8,0,0,1,13.8,0Z" transform="translate(397.367 2110.881)" fill="none" stroke="#705772" stroke-width="1"/>
      <g id="グループ_510" data-name="グループ 510" transform="translate(414.409 2119.748)">
        <g id="グループ_509" data-name="グループ 509" transform="translate(0 0)">
          <path id="パス_4008" data-name="パス 4008" d="M1460.575,2107.531c-.722,0-1.936.031-2.044.031-.323,0-.43-.107-.43-.43,0-.108.031-1.767.031-2.627v-4.824c0-.753-.031-2.3-.031-2.565,0-.369.092-.492.43-.492.169,0,1.322.031,2.044.031h1.183c2.213,0,3.518.584,3.518,2.458a2.646,2.646,0,0,1-1,2.32c-.123.092-.2.154-.2.2,0,.077.077.123.246.185a2.339,2.339,0,0,1,1.475,2.382c0,2.289-1.522,3.334-4,3.334Zm-.707-6.9c0,.384.077.461.461.461h1.229c1.137,0,1.951-.43,1.951-1.659,0-1.014-.83-1.276-1.767-1.276h-1.414c-.384,0-.461.077-.461.461Zm0,4.962c0,.384.077.461.461.461h1.444c1.276,0,2.213-.6,2.213-1.875,0-1.167-.753-1.613-1.936-1.613h-1.721c-.384,0-.461.077-.461.461Z" transform="translate(-1458.101 -2096.5)" fill="#705772"/>
          <path id="パス_4009" data-name="パス 4009" d="M1493,2106.708c0,.138-.107.215-.338.323a6.745,6.745,0,0,1-2.6.492,4.94,4.94,0,0,1-5.224-5.27,5.415,5.415,0,0,1,5.792-5.792,6.022,6.022,0,0,1,2.212.384c.23.092.338.169.338.307a.912.912,0,0,1-.077.292l-.338.922c-.092.23-.138.323-.261.323a.82.82,0,0,1-.308-.092,4.137,4.137,0,0,0-1.643-.354,3.678,3.678,0,0,0-3.857,3.964,3.383,3.383,0,0,0,3.564,3.641,4.015,4.015,0,0,0,1.782-.384.719.719,0,0,1,.307-.108c.123,0,.184.092.276.323l.292.737A.914.914,0,0,1,1493,2106.708Z" transform="translate(-1474.716 -2096.398)" fill="#705772"/>
          <path id="パス_4010" data-name="パス 4010" d="M1530.4,2101.568c0,.061.076.123.23.2a3.038,3.038,0,0,1,2.044,2.72c0,1.751-1.429,3-4.471,3-2.427,0-4.163-1.045-4.163-2.858a3.1,3.1,0,0,1,1.966-2.766c.154-.077.231-.138.231-.2s-.077-.123-.215-.215a2.713,2.713,0,0,1-1.521-2.4c0-1.475,1.367-2.75,3.979-2.75,2.381,0,3.764,1.137,3.764,2.612a2.84,2.84,0,0,1-1.629,2.443C1530.479,2101.43,1530.4,2101.506,1530.4,2101.568Zm-2.289.845a1.038,1.038,0,0,0-.43.108c-1.168.491-1.859,1.106-1.859,1.982,0,.968,1.06,1.49,2.458,1.49,1.537,0,2.581-.553,2.581-1.552,0-.937-.953-1.413-2.335-1.936A1.212,1.212,0,0,0,1528.113,2102.413Zm.307-4.579c-1.2,0-2.1.476-2.1,1.26,0,.8.783,1.229,1.844,1.659a1.27,1.27,0,0,0,.415.108,1.085,1.085,0,0,0,.43-.123c.937-.446,1.46-.983,1.46-1.674C1530.464,2098.3,1529.588,2097.834,1528.421,2097.834Z" transform="translate(-1499.072 -2096.298)" fill="#705772"/>
          <path id="パス_4011" data-name="パス 4011" d="M1555.742,2120.647a1.169,1.169,0,0,1-1.214,1.245,1.05,1.05,0,0,1-1.106-1.076,1.167,1.167,0,0,1,1.229-1.229A1.041,1.041,0,0,1,1555.742,2120.647Z" transform="translate(-1517.326 -2110.768)" fill="#705772"/>
          <path id="パス_4012" data-name="パス 4012" d="M1568.931,2100.967a5.034,5.034,0,0,1,2.474-.661,3.176,3.176,0,0,1,3.457,3.288,3.914,3.914,0,0,1-4.241,3.918c-2.627,0-4.133-1.751-4.133-4.287a7.088,7.088,0,0,1,1.936-5.1,6.647,6.647,0,0,1,4.317-1.706c.307,0,.369.077.369.43v.8c0,.4-.062.461-.461.507a5.11,5.11,0,0,0-3.227,1.429,3.526,3.526,0,0,0-.891,1.49.056.056,0,0,0,.061.062A.819.819,0,0,0,1568.931,2100.967Zm-.291,1.629a.848.848,0,0,0-.415.829,2.368,2.368,0,0,0,2.474,2.551,2.243,2.243,0,0,0,2.412-2.243,1.917,1.917,0,0,0-2.135-1.905A4.005,4.005,0,0,0,1568.639,2102.6Z" transform="translate(-1525.444 -2096.373)" fill="#705772"/>
          <path id="パス_4013" data-name="パス 4013" d="M1597.659,2109.887c0,.691.031,1.967.031,2.074,0,.323-.092.384-.445.384h-.891c-.354,0-.446-.061-.446-.384,0-.107.031-1.383.031-2.074v-2.965c0-.692-.031-1.967-.031-2.074,0-.323.092-.384.446-.384h.753c.353,0,.415.062.43.415.015.2.046.292.123.292a.472.472,0,0,0,.231-.107,3.31,3.31,0,0,1,2.043-.691,2.439,2.439,0,0,1,1.844.737c.138.154.215.23.307.23.077,0,.153-.061.307-.184a3.788,3.788,0,0,1,2.3-.783,2.474,2.474,0,0,1,2.535,2.75v2.765c0,.691.031,1.967.031,2.074,0,.323-.092.384-.446.384h-.891c-.353,0-.445-.061-.445-.384,0-.107.031-1.383.031-2.074V2107.6c0-.937-.446-1.567-1.4-1.567a2.194,2.194,0,0,0-1.352.491.578.578,0,0,0-.292.6v2.765c0,.691.031,1.967.031,2.074,0,.323-.092.384-.445.384h-.891c-.353,0-.446-.061-.446-.384,0-.107.031-1.383.031-2.074V2107.6c0-.937-.445-1.567-1.4-1.567a2.237,2.237,0,0,0-1.352.476.738.738,0,0,0-.338.692Z" transform="translate(-1543.724 -2101.314)" fill="#705772"/>
          <path id="パス_4014" data-name="パス 4014" d="M1635.724,2109.887c0,.691.031,1.967.031,2.074,0,.323-.092.384-.446.384h-.891c-.353,0-.445-.061-.445-.384,0-.107.031-1.383.031-2.074v-2.965c0-.692-.031-1.967-.031-2.074,0-.323.092-.384.445-.384h.753c.353,0,.414.062.43.415.015.2.047.292.123.292a.469.469,0,0,0,.23-.107,3.311,3.311,0,0,1,2.044-.691,2.44,2.44,0,0,1,1.844.737c.138.154.215.23.307.23.077,0,.153-.061.307-.184a3.788,3.788,0,0,1,2.3-.783,2.474,2.474,0,0,1,2.535,2.75v2.765c0,.691.031,1.967.031,2.074,0,.323-.092.384-.446.384h-.891c-.353,0-.445-.061-.445-.384,0-.107.031-1.383.031-2.074V2107.6c0-.937-.446-1.567-1.4-1.567a2.2,2.2,0,0,0-1.352.491.579.579,0,0,0-.292.6v2.765c0,.691.031,1.967.031,2.074,0,.323-.092.384-.446.384h-.891c-.354,0-.446-.061-.446-.384,0-.107.031-1.383.031-2.074V2107.6c0-.937-.446-1.567-1.4-1.567a2.238,2.238,0,0,0-1.352.476.739.739,0,0,0-.338.692Z" transform="translate(-1567.374 -2101.314)" fill="#705772"/>
        </g>
      </g>
      <path id="パス_9151" data-name="パス 9151" d="M13.8,0H122.479a13.8,13.8,0,1,1,0,27.609H13.8A13.8,13.8,0,0,1,13.8,0Z" transform="translate(227.948 2072.881)" fill="none" stroke="#705772" stroke-width="1"/>
      <g id="グループ_512" data-name="グループ 512" transform="translate(249.084 2081.644)">
        <g id="グループ_511" data-name="グループ 511" transform="translate(0 0)">
          <path id="パス_4015" data-name="パス 4015" d="M280.1,2106.931c-.722,0-1.936.031-2.043.031-.338,0-.43-.123-.43-.492.015-.86.031-1.828.031-2.566v-4.824c0-.753-.015-1.675-.031-2.566,0-.368.092-.491.43-.491.108,0,1.321.031,2.043.031h1.89c3.042,0,4.855,1.69,4.855,5.116,0,3.58-1.966,5.761-5.347,5.761Zm-.661-2.043c0,.384.077.461.461.461h1.552c2.412,0,3.58-1.644,3.58-4.087,0-2.074-.983-3.55-3.211-3.55H279.9c-.384,0-.461.077-.461.461Z" transform="translate(-277.63 -2096.023)" fill="#705772"/>
          <path id="パス_4016" data-name="パス 4016" d="M310.133,2106.982c-.353,0-.446-.061-.446-.384,0-.108.047-1.8.047-2.689v-4.732c0-.892-.047-2.582-.047-2.689,0-.323.092-.384.446-.384h.983c.353,0,.446.061.446.384,0,.107-.046,1.8-.046,2.689v4.732c0,.892.046,2.581.046,2.689,0,.323-.092.384-.446.384Z" transform="translate(-297.548 -2096.073)" fill="#705772"/>
          <path id="パス_4017" data-name="パス 4017" d="M324.618,2104.416c-.4,0-.507.031-.645.369-.215.507-.415,1.029-.676,1.767-.138.369-.215.43-.615.43h-1.075c-.246,0-.354-.031-.354-.154a.655.655,0,0,1,.092-.261c.476-1.076.814-1.844,1.137-2.6l2.2-5.209c.277-.66.6-1.4.922-2.228.138-.369.215-.43.614-.43h.661c.4,0,.476.061.615.43.323.829.63,1.567.907,2.212l2.212,5.193c.338.8.676,1.567,1.152,2.627a.655.655,0,0,1,.092.261c0,.123-.108.154-.353.154h-1.183c-.4,0-.476-.061-.614-.43-.261-.738-.461-1.26-.676-1.767-.139-.339-.231-.369-.645-.369Zm.276-1.905a.693.693,0,0,0-.061.261c0,.138.108.169.353.169h2.627c.246,0,.353-.031.353-.169a.685.685,0,0,0-.061-.261l-1.429-3.518c-.061-.154-.108-.246-.169-.246-.046,0-.107.076-.169.246Z" transform="translate(-304.734 -2096.073)" fill="#705772"/>
          <path id="パス_4018" data-name="パス 4018" d="M369.971,2103.909c0,.892.046,2.5.046,2.689,0,.323-.092.384-.446.384h-.952c-.353,0-.446-.061-.446-.384,0-.184.046-1.8.046-2.689v-5.377c0-.261-.046-.369-.184-.369a.633.633,0,0,0-.246.061c-.461.169-.983.384-1.383.568a.69.69,0,0,1-.292.092c-.138,0-.2-.108-.276-.338l-.292-.768a.822.822,0,0,1-.061-.292c0-.139.092-.215.353-.292a24.007,24.007,0,0,0,2.4-.906,2.039,2.039,0,0,1,.907-.185h.415c.354,0,.446.061.446.384,0,.231-.031,1.8-.031,2.689Z" transform="translate(-332.216 -2096.073)" fill="#705772"/>
          <path id="パス_4019" data-name="パス 4019" d="M394.511,2105.061c0,.523.031,1.429.031,1.537,0,.323-.092.384-.446.384h-.86c-.354,0-.446-.061-.446-.384,0-.108.031-1.014.031-1.537,0-.354-.061-.415-.415-.415h-2.427c-.891,0-2.213.031-2.32.031-.323,0-.384-.092-.384-.446v-.261a1.548,1.548,0,0,1,.215-.876c.338-.615.66-1.245.968-1.844l1.352-2.612c.323-.63.676-1.336,1.045-2.12.154-.354.246-.415.645-.415h1.152c.23,0,.338.031.338.138a.759.759,0,0,1-.108.261c-.492.906-.891,1.659-1.275,2.4l-1.966,3.795a.706.706,0,0,0-.092.276c0,.108.108.139.338.139h2.52c.369,0,.415-.093.415-.446,0-1.045-.031-2.443-.031-2.55,0-.323.092-.384.446-.384h.86c.353,0,.446.062.446.384,0,.107-.031,1.49-.031,2.581,0,.353.062.415.415.415.415,0,1.167-.016,1.275-.016.323,0,.384.092.384.445v.691c0,.354-.061.446-.384.446-.108,0-.861-.031-1.275-.031C394.573,2104.646,394.511,2104.708,394.511,2105.061Z" transform="translate(-345.755 -2096.073)" fill="#705772"/>
          <path id="パス_4020" data-name="パス 4020" d="M419.827,2120.047a1.169,1.169,0,0,1-1.214,1.244,1.049,1.049,0,0,1-1.106-1.075,1.168,1.168,0,0,1,1.229-1.229A1.042,1.042,0,0,1,419.827,2120.047Z" transform="translate(-364.539 -2110.291)" fill="#705772"/>
          <path id="パス_4021" data-name="パス 4021" d="M434.226,2100.129c2.12,0,3.749,1.045,3.749,3.15,0,1.8-1.168,3.811-4.532,3.811a6.623,6.623,0,0,1-2.75-.584c-.215-.108-.323-.185-.323-.323a.913.913,0,0,1,.077-.292l.292-.737c.092-.215.154-.322.261-.322a.591.591,0,0,1,.292.138,4.519,4.519,0,0,0,2.243.584c1.874,0,2.643-1,2.643-2.136,0-1.183-.968-1.828-2.382-1.828a4.966,4.966,0,0,0-1.674.276,1.274,1.274,0,0,1-.415.108,1.793,1.793,0,0,1-.446-.108c-.307-.107-.4-.169-.4-.4a.941.941,0,0,1,.016-.2c.061-.46.108-.891.154-1.367l.169-1.906c.031-.415.077-1.045.092-1.444.015-.369.076-.446.384-.446.2,0,1.552.031,2.335.031h.86c.783,0,2.274-.031,2.382-.031.323,0,.384.092.384.446v.814c0,.354-.061.446-.384.446-.108,0-1.6-.046-2.382-.046h-1.536c-.4,0-.476.061-.507.461l-.123,1.352a3.554,3.554,0,0,0-.031.415c0,.2.061.261.215.261a.94.94,0,0,0,.2-.015A5.405,5.405,0,0,1,434.226,2100.129Z" transform="translate(-372.531 -2096.073)" fill="#705772"/>
          <path id="パス_4022" data-name="パス 4022" d="M460.081,2109.288c0,.692.031,1.967.031,2.074,0,.323-.092.384-.446.384h-.891c-.354,0-.446-.062-.446-.384,0-.108.031-1.383.031-2.074v-2.965c0-.691-.031-1.966-.031-2.074,0-.323.092-.384.446-.384h.753c.353,0,.415.061.43.415.015.2.046.292.123.292a.472.472,0,0,0,.23-.108,3.31,3.31,0,0,1,2.043-.691,2.439,2.439,0,0,1,1.844.737c.138.154.215.231.307.231.076,0,.153-.062.307-.185a3.79,3.79,0,0,1,2.3-.783,2.474,2.474,0,0,1,2.535,2.75v2.765c0,.692.031,1.967.031,2.074,0,.323-.092.384-.445.384h-.891c-.353,0-.446-.062-.446-.384,0-.108.031-1.383.031-2.074V2107c0-.937-.445-1.567-1.4-1.567a2.2,2.2,0,0,0-1.352.492.578.578,0,0,0-.292.6v2.765c0,.692.031,1.967.031,2.074,0,.323-.092.384-.446.384h-.891c-.353,0-.446-.062-.446-.384,0-.108.031-1.383.031-2.074V2107c0-.937-.445-1.567-1.4-1.567a2.237,2.237,0,0,0-1.352.476.738.738,0,0,0-.338.691Z" transform="translate(-389.903 -2100.838)" fill="#705772"/>
          <path id="パス_4023" data-name="パス 4023" d="M498.144,2109.288c0,.692.031,1.967.031,2.074,0,.323-.092.384-.446.384h-.891c-.353,0-.445-.062-.445-.384,0-.108.031-1.383.031-2.074v-2.965c0-.691-.031-1.966-.031-2.074,0-.323.092-.384.445-.384h.753c.353,0,.415.061.43.415.016.2.046.292.123.292a.47.47,0,0,0,.23-.108,3.311,3.311,0,0,1,2.043-.691,2.44,2.44,0,0,1,1.844.737c.138.154.215.231.307.231.077,0,.153-.062.307-.185a3.791,3.791,0,0,1,2.3-.783,2.474,2.474,0,0,1,2.535,2.75v2.765c0,.692.031,1.967.031,2.074,0,.323-.092.384-.446.384h-.891c-.353,0-.446-.062-.446-.384,0-.108.031-1.383.031-2.074V2107c0-.937-.445-1.567-1.4-1.567a2.2,2.2,0,0,0-1.352.492.579.579,0,0,0-.292.6v2.765c0,.692.031,1.967.031,2.074,0,.323-.092.384-.445.384h-.891c-.354,0-.446-.062-.446-.384,0-.108.031-1.383.031-2.074V2107c0-.937-.445-1.567-1.4-1.567a2.235,2.235,0,0,0-1.352.476.738.738,0,0,0-.338.691Z" transform="translate(-413.553 -2100.838)" fill="#705772"/>
        </g>
      </g>
      <path id="パス_9152" data-name="パス 9152" d="M13.8,0H149.378a13.8,13.8,0,1,1,0,27.609H13.8A13.8,13.8,0,0,1,13.8,0Z" transform="translate(372.497 2072.881)" fill="none" stroke="#705772" stroke-width="1"/>
      <g id="グループ_514" data-name="グループ 514" transform="translate(388.852 2079.935)">
        <g id="グループ_513" data-name="グループ 513" transform="translate(0 0)">
          <path id="パス_4024" data-name="パス 4024" d="M656.618,2104.861h-4.763c-.123,0-.215.031-.231.231-.016.323-.123.353-.8.353-.661,0-.83-.015-.83-.369,0-.4.031-.814.031-1.214v-2.105c-.016-.092-.046-.185-.154-.185a.156.156,0,0,0-.123.077c-.276.308-1.628,1.69-1.966,1.69-.353,0-1.06-.538-1.06-.906,0-.139.123-.23.23-.308a11.109,11.109,0,0,0,3.165-3.6.455.455,0,0,0,.031-.138c0-.169-.138-.215-.276-.23h-.891c-.584,0-1.183.031-1.782.031-.307,0-.307-.138-.307-.568,0-.446,0-.584.307-.584.6,0,1.2.031,1.782.031h3.488c.246,0,.353-.107.353-.368v-.046c0-.262-.107-.369-.353-.369h-2.044c-.553,0-1.106.031-1.675.031-.307,0-.292-.185-.292-.553s0-.553.292-.553c.568,0,1.122.031,1.675.031h2.105c.215,0,.292-.077.292-.292v-.138c0-.215-.077-.292-.276-.292h-3.119c-.6,0-1.183.031-1.782.031-.323,0-.307-.2-.307-.583,0-.415,0-.584.307-.584.6,0,1.183.031,1.782.031h.983c.123,0,.246-.046.246-.2a.25.25,0,0,0-.046-.138c-.2-.292-.353-.476-.584-.768a.346.346,0,0,1-.123-.216c0-.276.922-.568,1.122-.568.23,0,.446.277.584.461a3.855,3.855,0,0,1,.615.952c0,.169-.277.292-.415.353-.015.016-.046.031-.046.062,0,.046.031.062.077.062h2.689a.589.589,0,0,0,.615-.323,9.358,9.358,0,0,0,.691-1.352c.031-.123.077-.23.215-.23a6.5,6.5,0,0,1,.968.323c.231.077.691.246.691.384s-.2.169-.307.185a.27.27,0,0,0-.2.138c-.123.169-.216.353-.323.522a.3.3,0,0,0-.046.154c0,.154.123.185.246.2h.83c.584,0,1.168-.031,1.767-.031.323,0,.323.153.323.584,0,.4,0,.583-.307.583-.6,0-1.2-.031-1.782-.031h-3.165c-.2,0-.292.077-.292.277v.154c0,.215.076.292.292.292h2.12c.569,0,1.122-.031,1.675-.031.307,0,.307.154.307.553,0,.384,0,.553-.292.553-.569,0-1.122-.031-1.69-.031H654.82c-.261,0-.368.107-.368.369v.046c0,.261.108.368.368.368h3.534c.584,0,1.183-.031,1.782-.031.323,0,.307.154.307.584,0,.415.016.568-.307.568-.6,0-1.2-.031-1.782-.031h-6.115a.425.425,0,0,0-.415.292.444.444,0,0,0-.031.138c0,.169.138.23.292.23h4.394c.431,0,.86-.016,1.291-.016.491,0,.707.154.707.677,0,.4-.016.8-.016,1.2v3.211c0,.415.031.814.031,1.229,0,.354-.184.354-.814.354-.753,0-.815-.031-.83-.4C656.849,2104.876,656.726,2104.861,656.618,2104.861Zm-.031-4.333a.267.267,0,0,0,.292-.292v-.061a.278.278,0,0,0-.292-.307h-4.7a.279.279,0,0,0-.292.307v.061a.267.267,0,0,0,.292.292Zm-4.7.937a.282.282,0,0,0-.292.292v.092a.267.267,0,0,0,.292.292h4.7a.267.267,0,0,0,.292-.292v-.092a.274.274,0,0,0-.292-.292Zm0,1.659a.282.282,0,0,0-.292.292v.092a.282.282,0,0,0,.292.292h4.7a.274.274,0,0,0,.292-.292v-.092a.274.274,0,0,0-.292-.292Z" transform="translate(-646.724 -2091.51)" fill="#705772"/>
          <path id="パス_4025" data-name="パス 4025" d="M699.243,2095.749c0,.138.108.169.215.169h.4c.507,0,1.014-.015,1.521-.015.568,0,.891.138.891.768,0,.4-.031.784-.031,1.183v1.69c0,.491.031.968.031,1.306,0,.323-.154.354-.707.354-.523,0-.815,0-.953-.216a.437.437,0,0,0-.415-.154h-6.653c-.307,0-.43.123-.43.43v1.183c0,1.122.138,1.245,1.352,1.245h5.7c1.214,0,1.459-.154,1.674-1.552.061-.354.061-.507.384-.507.415,0,1.275.169,1.275.691a5.037,5.037,0,0,1-.569,1.92c-.476.86-1.183.922-2.089.922H694c-2.8,0-2.5-.845-2.5-2.95v-4.225c-.015-.123-.046-.23-.184-.23a.229.229,0,0,0-.139.062,1.129,1.129,0,0,1-.538.276c-.384,0-.983-.676-.983-1,0-.184.215-.292.354-.384a15.813,15.813,0,0,0,3.426-3.441,10.061,10.061,0,0,0,.891-1.444.3.3,0,0,1,.276-.2c.123,0,1.014.246,1.214.292.246.062.553.123.553.338,0,.154-.231.2-.353.246-.123.031-.2.154-.261.261a.3.3,0,0,0-.046.154c0,.153.123.184.246.2h2.412c.338,0,.676-.031,1-.031a1.025,1.025,0,0,1,1.06.783,6.721,6.721,0,0,1-1.122,1.721C699.274,2095.657,699.243,2095.688,699.243,2095.749Zm-5.7,1.583a.44.44,0,0,0-.43.43v1.214a.44.44,0,0,0,.43.43h2.136a.408.408,0,0,0,.415-.43v-1.214a.407.407,0,0,0-.415-.43Zm-.092-1.567c0,.107.108.153.2.153h3a.687.687,0,0,0,.661-.277,4.634,4.634,0,0,0,.753-1.091c0-.184-.2-.154-.384-.154H695a.7.7,0,0,0-.661.292,11.731,11.731,0,0,1-.83.922A.274.274,0,0,0,693.451,2095.765Zm4.256,3.211a.407.407,0,0,0,.415.43h2.12a.44.44,0,0,0,.43-.43v-1.214a.44.44,0,0,0-.43-.43h-2.12a.407.407,0,0,0-.415.43Z" transform="translate(-673.399 -2091.585)" fill="#705772"/>
          <path id="パス_4026" data-name="パス 4026" d="M739.392,2095.547c.307,0,.43-.123.43-.43v-.154c0-.307-.123-.43-.43-.43h-3.656c-.615,0-1.245.031-1.874.031-.338,0-.338-.168-.338-.66,0-.522,0-.692.338-.692.63,0,1.26.031,1.874.031h3.656c.292,0,.415-.108.43-.4-.015-.2-.031-.4-.061-.6v-.154c0-.169.123-.215.276-.215.185,0,1.029.077,1.306.108.046,0,.092.015.138.015.215.015.415.031.415.2,0,.123-.077.154-.23.231a.4.4,0,0,0-.184.415c-.015.292.138.4.415.4h2.75c.63,0,1.245-.031,1.874-.031.338,0,.338.154.338.676s0,.676-.338.676c-.63,0-1.244-.031-1.874-.031h-2.766c-.292,0-.415.123-.415.43v.154c0,.307.123.43.415.43h1.183c.323,0,.645-.016.983-.016.461,0,.707.108.707.615,0,.368-.015.738-.015,1.106v4.24c0,.369.031.737.031,1.091,0,.461-.338.476-.83.476a1.4,1.4,0,0,1-.661-.107.5.5,0,0,0-.246-.108h-3.918a.573.573,0,0,0-.246.108,1.34,1.34,0,0,1-.661.107c-.491,0-.814-.031-.814-.476,0-.323.031-.737.031-1.091v-4.24c0-.369-.016-.738-.016-1.106,0-.491.246-.615.707-.615.338,0,.661.016,1,.016Zm-4.348,10.14c-.645,0-.83,0-.83-.507,0-.584.031-1.183.031-1.782v-5.332a7.51,7.51,0,0,0-.046-1.029.569.569,0,0,1-.016-.154c0-.184.138-.215.276-.215.292,0,1.106.077,1.444.108.138,0,.369.015.369.215,0,.107-.092.138-.231.23-.184.108-.2.292-.2.753v5.454c0,.307.123.43.43.43h8.419c.615,0,1.229-.031,1.859-.031.353,0,.353.154.353.692s0,.691-.353.691c-.63,0-1.244-.031-1.859-.031h-8.435c-.215,0-.292.139-.446.369C735.674,2105.687,735.444,2105.687,735.044,2105.687Zm7.774-8a.347.347,0,0,0,.368-.369v-.154a.355.355,0,0,0-.368-.368h-3.473a.355.355,0,0,0-.368.368v.154a.355.355,0,0,0,.368.369Zm-3.473,1.045a.355.355,0,0,0-.368.369v.184a.343.343,0,0,0,.368.354h3.473a.343.343,0,0,0,.368-.354v-.184a.355.355,0,0,0-.368-.369Zm0,1.951c-.261,0-.368.108-.368.369v.215c0,.261.107.369.368.369h3.473c.246,0,.368-.107.368-.369v-.215a.326.326,0,0,0-.368-.369Z" transform="translate(-700.654 -2091.737)" fill="#705772"/>
          <path id="パス_4027" data-name="パス 4027" d="M779.334,2098.709c0,.108-.092.154-.185.215-.123.092-.138.23-.138.753v3.78c0,.645.031,1.275.031,1.92,0,.415-.169.507-.8.507-.66,0-.8-.123-.8-.538,0-.63.031-1.26.031-1.89v-3.165c0-.092-.046-.185-.153-.185a.215.215,0,0,0-.138.046c-.154.154-.615.63-.814.63a1.891,1.891,0,0,1-.968-.983c0-.138.123-.23.231-.307a18.229,18.229,0,0,0,3.5-4.1c.061-.122.107-.215.246-.215a7.074,7.074,0,0,1,1.152.553c.108.046.276.138.276.276,0,.108-.154.139-.246.154-.139.015-.169.015-.292.2-.446.66-.922,1.291-1.414,1.92a.168.168,0,0,0-.031.092c0,.092.061.123.154.138C779.1,2098.525,779.334,2098.54,779.334,2098.709Zm.061-6.268c.061.031.138.077.2.108.23.123.461.245.461.368,0,.031-.016.138-.215.154-.123,0-.154.015-.215.092a21.024,21.024,0,0,1-2.489,2.75c-.123.108-.538.492-.676.492-.261,0-.968-.63-.968-.922,0-.169.169-.277.4-.461a14.73,14.73,0,0,0,2.55-2.72c.061-.092.123-.184.23-.184A2.483,2.483,0,0,1,779.4,2092.44Zm6.361,8.082h.645c.583,0,1.152-.031,1.736-.031.4,0,.384.2.384.737,0,.584,0,.753-.4.753-.584,0-1.152-.046-1.721-.046h-.645a.376.376,0,0,0-.43.43v1.122c0,.307.139.43.43.43h1.4c.584,0,1.152-.031,1.736-.031.4,0,.384.2.384.753,0,.569.015.753-.384.753-.584,0-1.152-.031-1.736-.031h-5.377c-.568,0-1.152.031-1.736.031-.4,0-.384-.215-.384-.753,0-.584,0-.753.4-.753.584,0,1.152.031,1.721.031h1.567c.307,0,.431-.122.431-.43v-1.122c0-.292-.123-.43-.431-.43h-.553c-.584,0-1.152.046-1.736.046-.4,0-.384-.2-.384-.753,0-.569,0-.737.4-.737.568,0,1.152.031,1.721.031h.553c.307,0,.431-.123.431-.43a4.5,4.5,0,0,0-.062-1.014v-.138c0-.2.123-.231.277-.231.077,0,1.306.077,1.429.093.092,0,.276.046.276.169s-.092.138-.2.215c-.169.108-.184.323-.169.937C785.326,2100.415,785.48,2100.522,785.757,2100.522Zm-4.41-1a2.523,2.523,0,0,1-.707.23c-.338,0-.784-.86-.784-1.091,0-.215.354-.307.768-.461a12.859,12.859,0,0,0,2.458-1.167c.108-.077.184-.138.184-.261a.335.335,0,0,0-.107-.246,9.009,9.009,0,0,1-1.506-2.351c-.077-.138-.154-.276-.323-.276-.153,0-.323.015-.492.015-.338,0-.323-.169-.323-.691s-.015-.676.323-.676c.553,0,1.091.031,1.644.031h3.626c.353,0,.706-.016,1.06-.016a.767.767,0,0,1,.722.369,1.2,1.2,0,0,1,.353.722c0,.753-1.6,2.366-2.151,2.888a.382.382,0,0,0-.123.246c0,.123.077.184.169.246a14.089,14.089,0,0,0,3.057,1.306c.123.031.215.077.215.215,0,.307-.461,1.167-.8,1.167a1.289,1.289,0,0,1-.4-.108,15.952,15.952,0,0,1-3.288-1.629.678.678,0,0,0-.338-.107.623.623,0,0,0-.323.107A15.587,15.587,0,0,1,781.347,2099.523Zm4.824-5.423c0-.246-.2-.23-.737-.23h-1.906c-.138.015-.276.061-.276.23a.246.246,0,0,0,.046.138,7.131,7.131,0,0,0,1.029,1.4.4.4,0,0,0,.307.154.545.545,0,0,0,.307-.123C785.219,2095.406,786.171,2094.453,786.171,2094.1Z" transform="translate(-726.674 -2091.887)" fill="#705772"/>
          <path id="パス_4028" data-name="パス 4028" d="M834.183,2104.508c0,.891.046,2.5.046,2.689,0,.323-.092.384-.446.384h-.952c-.353,0-.446-.061-.446-.384,0-.185.046-1.8.046-2.689v-5.377c0-.261-.046-.369-.184-.369a.63.63,0,0,0-.246.062c-.461.169-.984.384-1.383.568a.686.686,0,0,1-.292.092c-.138,0-.2-.107-.276-.338l-.292-.768a.822.822,0,0,1-.061-.292c0-.138.092-.215.353-.292a23.893,23.893,0,0,0,2.4-.907,2.048,2.048,0,0,1,.906-.184h.415c.354,0,.446.061.446.384,0,.23-.031,1.8-.031,2.689Z" transform="translate(-760.409 -2094.736)" fill="#705772"/>
          <path id="パス_4029" data-name="パス 4029" d="M857.012,2101.535c0,.046.076.092.23.138a2.406,2.406,0,0,1,1.767,2.428c0,1.706-1.26,3.411-4.609,3.411a7.188,7.188,0,0,1-2.873-.553c-.231-.108-.323-.2-.323-.354a.7.7,0,0,1,.061-.276l.261-.753c.077-.215.138-.323.261-.323a.778.778,0,0,1,.292.123,4.675,4.675,0,0,0,2.381.6c1.813,0,2.72-.937,2.72-1.905,0-1.06-.891-1.6-2.873-1.6-.338,0-.875.016-1.029.016-.4,0-.461-.062-.461-.446v-.691c0-.4.061-.461.461-.461.169,0,.584.016.876.016,1.859,0,2.55-.661,2.55-1.506,0-.83-.753-1.352-1.936-1.352a4.034,4.034,0,0,0-2.151.6.627.627,0,0,1-.307.139c-.108,0-.184-.092-.276-.307l-.338-.707a.811.811,0,0,1-.092-.307c0-.138.092-.215.307-.323a6.637,6.637,0,0,1,3.042-.722c2.52,0,3.549,1.275,3.549,2.658a2.494,2.494,0,0,1-1.29,2.289C857.088,2101.427,857.012,2101.489,857.012,2101.535Z" transform="translate(-773.772 -2094.56)" fill="#705772"/>
          <path id="パス_4030" data-name="パス 4030" d="M881.28,2120.647a1.169,1.169,0,0,1-1.214,1.245,1.05,1.05,0,0,1-1.106-1.076,1.167,1.167,0,0,1,1.229-1.229A1.041,1.041,0,0,1,881.28,2120.647Z" transform="translate(-791.018 -2108.955)" fill="#705772"/>
          <path id="パス_4031" data-name="パス 4031" d="M898.022,2101.568c0,.061.077.123.231.2a3.037,3.037,0,0,1,2.043,2.72c0,1.751-1.429,3-4.471,3-2.428,0-4.164-1.045-4.164-2.858a3.1,3.1,0,0,1,1.966-2.766c.154-.077.231-.138.231-.2s-.077-.123-.215-.215a2.713,2.713,0,0,1-1.521-2.4c0-1.475,1.368-2.75,3.979-2.75,2.382,0,3.765,1.137,3.765,2.612a2.841,2.841,0,0,1-1.629,2.443C898.1,2101.43,898.022,2101.506,898.022,2101.568Zm-2.289.845a1.04,1.04,0,0,0-.43.108c-1.167.491-1.859,1.106-1.859,1.982,0,.968,1.06,1.49,2.458,1.49,1.537,0,2.582-.553,2.582-1.552,0-.937-.953-1.413-2.335-1.936A1.211,1.211,0,0,0,895.733,2102.413Zm.307-4.579c-1.2,0-2.105.476-2.105,1.26,0,.8.784,1.229,1.844,1.659a1.271,1.271,0,0,0,.415.108,1.087,1.087,0,0,0,.431-.123c.937-.446,1.459-.983,1.459-1.674C898.083,2098.3,897.207,2097.834,896.04,2097.834Z" transform="translate(-798.909 -2094.485)" fill="#705772"/>
          <path id="パス_4032" data-name="パス 4032" d="M923.522,2109.887c0,.691.031,1.967.031,2.074,0,.323-.092.384-.446.384h-.891c-.354,0-.446-.061-.446-.384,0-.107.031-1.383.031-2.074v-2.965c0-.692-.031-1.967-.031-2.074,0-.323.092-.384.446-.384h.753c.353,0,.415.062.43.415.015.2.046.292.123.292a.471.471,0,0,0,.231-.107,3.31,3.31,0,0,1,2.043-.691,2.439,2.439,0,0,1,1.844.737c.138.154.215.23.307.23.077,0,.153-.061.307-.184a3.788,3.788,0,0,1,2.3-.783,2.474,2.474,0,0,1,2.535,2.75v2.765c0,.691.031,1.967.031,2.074,0,.323-.092.384-.445.384h-.891c-.353,0-.446-.061-.446-.384,0-.107.031-1.383.031-2.074V2107.6c0-.937-.445-1.567-1.4-1.567a2.194,2.194,0,0,0-1.352.491.578.578,0,0,0-.292.6v2.765c0,.691.031,1.967.031,2.074,0,.323-.092.384-.446.384h-.891c-.353,0-.446-.061-.446-.384,0-.107.031-1.383.031-2.074V2107.6c0-.937-.445-1.567-1.4-1.567a2.236,2.236,0,0,0-1.352.476.738.738,0,0,0-.338.692Z" transform="translate(-817.617 -2099.501)" fill="#705772"/>
          <path id="パス_4033" data-name="パス 4033" d="M961.586,2109.887c0,.691.031,1.967.031,2.074,0,.323-.092.384-.445.384h-.891c-.354,0-.446-.061-.446-.384,0-.107.031-1.383.031-2.074v-2.965c0-.692-.031-1.967-.031-2.074,0-.323.092-.384.446-.384h.753c.353,0,.415.062.43.415.015.2.046.292.123.292a.469.469,0,0,0,.23-.107,3.312,3.312,0,0,1,2.044-.691,2.439,2.439,0,0,1,1.844.737c.138.154.215.23.307.23.076,0,.153-.061.307-.184a3.788,3.788,0,0,1,2.3-.783,2.474,2.474,0,0,1,2.535,2.75v2.765c0,.691.031,1.967.031,2.074,0,.323-.092.384-.445.384h-.891c-.353,0-.445-.061-.445-.384,0-.107.031-1.383.031-2.074V2107.6c0-.937-.445-1.567-1.4-1.567a2.194,2.194,0,0,0-1.352.491.578.578,0,0,0-.292.6v2.765c0,.691.031,1.967.031,2.074,0,.323-.092.384-.446.384h-.891c-.354,0-.446-.061-.446-.384,0-.107.031-1.383.031-2.074V2107.6c0-.937-.446-1.567-1.4-1.567a2.236,2.236,0,0,0-1.352.476.738.738,0,0,0-.338.692Z" transform="translate(-841.267 -2099.501)" fill="#705772"/>
        </g>
      </g>
    </g>
  </g>
</svg>
