<svg xmlns="http://www.w3.org/2000/svg" width="1147.331" height="174.818" viewBox="0 0 1147.331 174.818">
  <g id="グループ_2427" data-name="グループ 2427" transform="translate(-386.334 -1737.488)">
    <g id="グループ_819" data-name="グループ 819" transform="translate(-266.266 -42.744)">
      <path id="パス_4736" data-name="パス 4736" d="M847.93,1833.1c0,.56-.78.5-1.18.5a2.524,2.524,0,0,0-1.51.67q-2.1,1.515-4.2,3.19c-3.14,2.58-6.33,5.15-9.24,7.95-1.06,1.01-2.3,2.13-2.3,3.19,0,1.4,1.85,3.42,2.8,4.42,3.19,3.42,6.66,6.55,10.14,9.63.95.84,4.82,3.98,4.82,5.1,0,1.34-3.42,4.54-4.76,4.54-.62,0-1.4-1.01-1.74-1.46-2.13-2.52-4.48-4.87-6.78-7.22-3.02-3.02-6.1-6.05-8.85-9.3-1.57-1.79-2.69-3.42-2.69-5.94a6.345,6.345,0,0,1,1.23-3.86c1.4-1.85,5.26-4.98,7.22-6.55,3.3-2.74,7.84-6.55,10.47-9.91.22-.28.5-.67.84-.67.73,0,2.35,1.9,2.97,2.52.5.5,2.74,2.58,2.74,3.19Z" fill="#877877"/>
      <path id="パス_4737" data-name="パス 4737" d="M885.05,1847.55a42.977,42.977,0,0,0,5.15-1.68c4.98-1.79,10.86-4.03,16.13-4.03,6.55,0,11.65,4.2,11.65,10.98s-5.1,11.2-10.98,13.72c-1.96.84-6.55,2.35-8.62,2.35-1.85,0-2.63-3.81-2.63-4.26,0-.95,1.06-1.06,1.79-1.12a25.381,25.381,0,0,0,9.58-2.8c2.97-1.68,5.49-4.42,5.49-8.01s-2.86-5.66-6.27-5.66c-5.43,0-12.71,3.08-17.47,5.66a2.944,2.944,0,0,1-1.57.56c-1.46,0-3.47-3.36-3.47-4.54,0-.73.62-1.01,1.23-1.18Z" fill="#877877"/>
      <path id="パス_4738" data-name="パス 4738" d="M965.81,1829.29c.45,1.29.78,2.46,1.9,2.46.78,0,3.47-1.46,4.31-1.9a4.825,4.825,0,0,1,1.4-.56c1.01,0,2.46,3.42,2.46,4.37,0,.67-.67,1.01-1.18,1.34a37.4,37.4,0,0,1-4.03,1.85c-.56.22-1.29.39-1.29,1.12a2.14,2.14,0,0,0,.28.84c.62,1.57,1.01,2.3,1.68,2.3,1.18,0,5.49-2.52,6.66-3.25a3.333,3.333,0,0,1,1.34-.62c.95,0,2.86,3.47,2.86,4.31s-1.23,1.34-2.35,1.96c-1.46.73-2.97,1.4-4.48,2.02-.67.28-1.57.56-1.57,1.51,0,1.23,4.65,8.46,5.66,9.74.45.62,1.34,1.68,1.34,2.41,0,1.29-3.3,3.64-4.54,3.64a1.182,1.182,0,0,1-.9-.45,14.973,14.973,0,0,0-10.3-3.98c-2.35,0-5.54.9-5.54,3.81,0,4.03,5.71,4.93,8.74,4.93a23.19,23.19,0,0,0,3.42-.28,13.888,13.888,0,0,1,1.62-.11c1.12,0,1.34.95,1.34,2.58,0,3.47-.56,3.58-3.19,3.58-3.64,0-7.39-.11-10.81-1.46-3.92-1.51-6.72-4.65-6.72-9.02,0-6.1,4.98-9.13,10.64-9.13a17.061,17.061,0,0,1,5.54.95,1.853,1.853,0,0,0,.56.11.5.5,0,0,0,.5-.5,41,41,0,0,0-2.13-4.09c-.34-.67-.67-1.34-1.51-1.34a1.788,1.788,0,0,0-.78.17c-2.91.9-12.04,2.8-14.9,2.8-.95,0-1.18-.56-1.46-1.4a14.192,14.192,0,0,1-.67-3.42c0-1.06,1.01-.95,2.46-1.06a57.6,57.6,0,0,0,11.93-1.9c.56-.17,1.23-.45,1.23-1.06,0-.11-1.01-3.25-2.13-3.25-.28,0-1.34.28-1.74.34a52.094,52.094,0,0,1-6.38,1.01c-.73,0-.95-.34-1.23-.95a13.455,13.455,0,0,1-.95-3.58c0-1.18,1.46-1.12,2.24-1.18a34.229,34.229,0,0,0,4.31-.56c.73-.11,1.46-.39,1.46-1.29a15.322,15.322,0,0,0-1.57-3.42,4.247,4.247,0,0,1-.67-1.46c0-1.18,3.92-1.96,4.87-1.96,1.34,0,1.46.9,2.24,3.02Z" fill="#877877"/>
      <path id="パス_4739" data-name="パス 4739" d="M1026.34,1832.26c0,.34-.39.62-.67.73a2.5,2.5,0,0,0-1.06,1.12,21.934,21.934,0,0,0-1.62,4.7,29.419,29.419,0,0,0-.73,6.27c0,.45-.06,2.86.56,2.86.45,0,.78-.9,1.01-1.46.28-.62,1.29-3.02,1.96-3.02.5,0,2.18,1.01,2.18,1.74,0,.17-.84,2.13-1.34,3.47l-.5,1.34c-.78,2.13-1.85,4.7-1.85,6.94,0,.78.11,1.4.11,1.79,0,1.57-2.97,2.24-4.03,2.24-1.23,0-1.62-1.01-1.96-2.07a46.558,46.558,0,0,1-1.85-13.05,51.457,51.457,0,0,1,1.29-11.48c.34-1.4.73-2.74.95-4.14.06-.39.22-1.4.73-1.4.17,0,2.63,1.01,3.02,1.18,1.23.56,3.81,1.62,3.81,2.24Zm17.7-4.87c1.06,0,1.18.67,1.4,1.51a73.858,73.858,0,0,1,1.74,16.13c0,9.69-1.62,17.92-8.68,25.09-.9.9-3.19,3.14-4.48,3.14-.9,0-4.14-2.74-4.14-3.92,0-.45.5-.78.84-.95a21.333,21.333,0,0,0,7.62-8.74c2.07-4.42,2.58-9.35,2.58-14.11a54.388,54.388,0,0,0-1.96-15.62,3,3,0,0,1-.11-.73c0-1.23,4.59-1.79,5.21-1.79Z" fill="#877877"/>
      <path id="パス_4740" data-name="パス 4740" d="M1083.74,1863.62c0-.9-.45-1.23-1.29-1.23h-2.24c-1.06,0-1.51.39-1.51,1.46v1.46c0,1.23-.45,1.23-2.63,1.23-2.02,0-2.52,0-2.52-1.23,0-1.85.06-3.7.06-5.54v-23.74c0-1.46-.06-2.91-.06-4.37,0-1.62.5-2.35,2.18-2.35,1.01,0,2.02.06,2.97.06h5.1c.95,0,1.9-.06,2.91-.06,1.74,0,2.24.62,2.24,2.35,0,1.46-.06,2.91-.06,4.37v22.62c0,1.85.06,3.7.06,5.54,0,1.29-.5,1.23-2.63,1.23-1.74,0-2.58.06-2.58-1.06v-.73Zm-1.46-20.78a1.606,1.606,0,0,0,1.57-1.57v-5.15a1.486,1.486,0,0,0-1.57-1.51h-2.07a1.429,1.429,0,0,0-1.57,1.51v5.15c0,.95.62,1.46,1.57,1.57Zm-3.64,12.77c0,.95.62,1.46,1.57,1.57h2.07a1.606,1.606,0,0,0,1.57-1.57v-6.05a1.606,1.606,0,0,0-1.57-1.57h-2.07c-.95.11-1.57.62-1.57,1.57Zm31.42-19.6c0-.67-.5-.9-1.12-.95h-9.63c-1.96,0-3.92.11-5.94.11-1.4,0-1.34-.67-1.34-2.52s-.06-2.52,1.34-2.52c2.02,0,3.98.11,5.94.11h1.85c1.06,0,1.51-.39,1.57-1.46a27.652,27.652,0,0,0-.17-3.02,1.782,1.782,0,0,1-.06-.56c0-.67.45-.78,1.01-.78a46,46,0,0,1,4.76.39c.62.06,1.68.06,1.68.73,0,.39-.28.5-.73.84-.62.39-.67,1.06-.67,1.85v.62c0,1.06.56,1.4,1.57,1.4h2.8c1.96,0,3.92-.11,5.88-.11,1.46,0,1.4.67,1.4,2.52s.06,2.52-1.34,2.52c-1.79,0-3.64-.11-5.43-.11-.22.06-.28.17-.28.22a.321.321,0,0,0,.17.28c.39.11.78.22,1.12.34,1.51.5,2.46.78,2.46,1.4,0,.5-.39.56-.78.62-.45.06-.9.11-1.12.56-.06.11-1.23,2.91-2.07,4.54a1.269,1.269,0,0,0-.11.5c0,.56.45.78.95.78h.67c2.02,0,3.98-.11,5.94-.11,1.4,0,1.4.67,1.4,2.46s.06,2.46-1.4,2.46c-1.96,0-3.92-.11-5.94-.11H1097.7c-1.96,0-3.92.11-5.94.11-1.4,0-1.34-.73-1.34-2.41,0-1.85-.06-2.52,1.34-2.52,2.02,0,3.98.11,5.94.11h7.73c1.18,0,1.68-.17,2.18-1.29a45.265,45.265,0,0,0,2.35-6.55,1.237,1.237,0,0,0,.11-.45Zm.06,35.84h-8.96a1.132,1.132,0,0,0-1.29,1.29v.39c0,1.23-.67,1.23-2.91,1.23s-2.8,0-2.8-1.23c0-1.46.11-2.91.11-4.37v-11.48c0-1.18-.11-2.3-.11-3.47,0-1.96,1.29-2.3,2.97-2.3,1.34,0,2.63.06,3.98.06h9.07c1.29,0,2.63-.06,3.98-.06,1.62,0,2.91.39,2.91,2.3,0,1.18-.06,2.3-.06,3.47v11.54c0,1.46.11,2.91.11,4.37,0,1.23-.73,1.23-2.91,1.23-1.68,0-2.86.06-2.86-1.06,0-.22.06-.45.06-.62-.06-.9-.45-1.29-1.29-1.29Zm-8.85-28.5a9.415,9.415,0,0,1-2.41.5c-.78,0-.9-.39-1.57-2.18-.28-.78-.73-1.9-1.34-3.42a3.76,3.76,0,0,1-.28-1.12c0-1.06,3.25-1.62,3.92-1.62.95,0,1.12.67,2.13,3.14a16.843,16.843,0,0,1,1.18,3.3c0,.84-.67,1.06-1.62,1.4Zm8.9,16.46a1.252,1.252,0,0,0,1.29-1.34v-.67a1.247,1.247,0,0,0-1.29-1.34h-9.07a1.292,1.292,0,0,0-1.34,1.34v.67a1.292,1.292,0,0,0,1.34,1.34Zm-10.42,6.05a1.606,1.606,0,0,0,1.57,1.57h8.62a1.486,1.486,0,0,0,1.51-1.57v-.5a1.486,1.486,0,0,0-1.51-1.57h-8.62a1.606,1.606,0,0,0-1.57,1.57Z" fill="#877877"/>
      <path id="パス_4741" data-name="パス 4741" d="M1168.81,1828.9c.39.17.95.39.95.95a1.985,1.985,0,0,1-.39.95,7.568,7.568,0,0,0-.95,3.64c0,.11-.06.39-.06.5,0,1.12,1.06,1.23,1.85,1.46,7.67,1.96,12.88,7.45,12.88,15.57,0,9.46-6.44,15.23-14.45,19.04a8.223,8.223,0,0,1-2.8.95c-1.29,0-3.53-3.42-3.53-4.54,0-.67.84-.84,1.74-1.12,6.5-2.13,13.16-6.89,13.16-14.45s-7.34-10.25-8.9-10.25c-.78,0-1.12.73-1.23,1.34a41.618,41.618,0,0,1-7.17,17.02c-2.86,3.81-7.39,7.67-12.38,7.67s-6.94-5.43-6.94-9.74a20.253,20.253,0,0,1,5.21-13.83,1.686,1.686,0,0,0,.62-1.29,3.841,3.841,0,0,0-.34-1.34c-.78-2.35-1.4-4.76-2.18-7.17a3.468,3.468,0,0,1-.17-.84c0-.5.45-.78.9-.9a28.656,28.656,0,0,1,4.42-1.12c.9,0,.95.9,1.06,1.62.22,1.34.67,3.47,1.01,4.76.17.5.39.9,1.01.9a1.849,1.849,0,0,0,.95-.28,23.093,23.093,0,0,1,7.45-2.46c1.9-.28,2.02-.62,2.02-4.87,0-.84-.06-1.68-.06-2.46,0-.56.11-1.01.78-1.01a34.007,34.007,0,0,1,5.54,1.29Zm-15.96,28.9c-1.12-2.3-2.18-4.54-3.19-6.89-.11-.28-.39-.78-.78-.78-.9,0-2.63,4.14-2.63,7.73,0,1.46.22,4.09,2.13,4.09,1.62,0,4.7-2.02,4.7-3.3a2.088,2.088,0,0,0-.22-.84Zm.62-12.6c0,.73,1.9,5.21,2.3,6.1.5,1.12.73,1.79,1.29,1.79,1.46,0,4.31-9.24,4.31-10.81a.706.706,0,0,0-.78-.78c-1.34,0-7.11,1.85-7.11,3.7Z" fill="#877877"/>
      <path id="パス_4742" data-name="パス 4742" d="M1222.01,1837.8a1.739,1.739,0,0,0,1.68-1.46c.11-1.12.39-7.11.45-8.46,0-.56-.06-1.29.73-1.29.34,0,5.26.95,5.82,1.12.34.06.84.22.84.62,0,.34-.39.73-.62.95-.67.62-.62.67-.78,2.41-.11.78-.45,4.14-.45,4.7a1.252,1.252,0,0,0,1.34,1.29l5.38-.06c1.62,0,6.1-.22,6.16-.22,1.23,0,3.19,2.13,3.19,3.25,0,.56-.78,6.78-.9,7.84-.56,4.31-1.4,12.1-3.14,15.9-1.51,3.3-3.81,4.37-7.28,4.87a21.3,21.3,0,0,1-3.25.22,1.763,1.763,0,0,1-1.96-1.12,12.086,12.086,0,0,1-1.46-3.92.916.916,0,0,1,1.01-1.01c.56,0,1.85.22,3.19.22,3.3,0,4.48-1.51,5.32-5.49a99.855,99.855,0,0,0,1.68-13.38c0-1.51-.78-1.4-3.3-1.4l-5.66.06c-1.4,0-1.62,1.18-1.79,2.02a46.481,46.481,0,0,1-10.98,21.78c-.78.84-4.14,4.37-5.15,4.37-1.06,0-4.26-2.63-4.26-3.64,0-.45.45-.73.78-1.01a38.72,38.72,0,0,0,12.15-16.91,29.625,29.625,0,0,0,1.46-5.38,1.151,1.151,0,0,0-1.18-1.18l-7.9.06c-1.51,0-4.87.22-5.6.22-1.23,0-1.4-.9-1.4-3.08,0-2.41.11-2.91,1.34-2.91,1.85,0,3.75.06,5.6.06l8.9-.06Z" fill="#877877"/>
      <path id="パス_4743" data-name="パス 4743" d="M1301.92,1841.33c1.29,0,3.86,0,5.04-.11a5.774,5.774,0,0,1,1.01-.11c1.18,0,3.98,2.69,3.98,3.7a14.492,14.492,0,0,1-.73,2.3,38.923,38.923,0,0,1-3.25,7.56,46.846,46.846,0,0,1-11.59,13.22c-1.57,1.29-7.62,5.6-9.35,5.6-1.29,0-3.86-3.19-3.86-4.14,0-.67,1.4-1.18,1.96-1.46a40.236,40.236,0,0,0,17.19-15.9,14.426,14.426,0,0,0,1.51-3.64c0-1.34-1.51-1.23-2.41-1.23h-20.83c-2.35,0-4.7.11-7.11.11-1.57,0-1.57-.56-1.57-2.74,0-2.86.06-3.25,1.62-3.25,2.35,0,4.76.11,7.17.11h21.22Zm-3.75-12.1c2.3,0,5.15-.17,6.61-.17s1.51.62,1.51,3.42c0,1.9,0,2.63-1.51,2.63-2.24,0-4.42-.11-6.61-.11h-13.72c-2.18,0-4.37.11-6.55.11-1.57,0-1.57-.67-1.57-2.74,0-2.63.11-3.3,1.51-3.3,1.57,0,4.42.17,6.61.17h13.72Z" fill="#877877"/>
      <path id="パス_4744" data-name="パス 4744" d="M1369.57,1845.92c2.58,0,6.22-.17,6.94-.17,1.51,0,1.57.45,1.57,3.53,0,1.79-.06,2.86-1.51,2.86-2.35,0-4.7-.11-7-.11h-25.76c-2.3,0-4.65.11-7,.11-1.46,0-1.51-1.06-1.51-2.8,0-3.14.11-3.58,1.57-3.58.73,0,4.59.17,6.94.17h25.76Z" fill="#877877"/>
      <path id="パス_4745" data-name="パス 4745" d="M1413.53,1859.03c0,1.4.11,2.3,1.12,2.3a24.553,24.553,0,0,0,4.59-1.79,77.477,77.477,0,0,0,21.5-14.73c.34-.34.84-.9,1.34-.9.9,0,2.8,3.7,2.8,4.82a1.635,1.635,0,0,1-.62,1.01c-1.23,1.23-2.58,2.35-3.92,3.47a100.331,100.331,0,0,1-24.64,14.56,20.589,20.589,0,0,0-1.96.9,3.387,3.387,0,0,1-1.4.56,19.547,19.547,0,0,1-4.42-2.07c-.67-.5-.73-1.01-.73-1.96,0-1.9.11-3.98.11-6.05v-22.79c0-1.23,0-2.46-.06-3.42-.06-.39-.17-1.57-.17-1.85a.6.6,0,0,1,.62-.67,11.134,11.134,0,0,1,1.18.17c.9.11,3.7.56,4.54.78.5.11,1.18.17,1.18.73,0,.34-.28.5-.5.73a2.17,2.17,0,0,0-.5,1.74c-.06.84-.06,1.74-.06,2.63v21.84Z" fill="#877877"/>
      <path id="パス_4746" data-name="パス 4746" d="M1509.9,1843.79c0,.95-2.24,3.14-2.97,3.86-9.07,9.35-18.59,15.62-30.41,21.11-1.85.9-1.9.95-2.35,1.9a.569.569,0,0,1-.56.34c-.62,0-1.79-2.24-2.18-2.91a15.516,15.516,0,0,1-1.68-3.36c0-.62,1.01-.73,1.74-.95,12.38-3.64,26.38-14.22,34.33-24.36a1.372,1.372,0,0,1,.95-.62c1.12,0,3.14,4.14,3.14,4.98Zm-28.9-9.24c.73.5,3.42,2.35,3.42,3.19,0,1.29-2.63,4.31-3.7,4.31a6,6,0,0,1-2.24-1.51,69.394,69.394,0,0,0-7.45-5.21c-.45-.28-.9-.56-.9-1.06,0-.84,2.24-4.42,3.53-4.42.9,0,6.27,3.92,7.34,4.7Z" fill="#877877"/>
      <path id="パス_4747" data-name="パス 4747" d="M1558.12,1833.49c.95,0,3.19,0,4.03-.11a8.636,8.636,0,0,1,1.23-.11c1.18,0,3.58,3.02,3.58,3.75,0,.45-.67,1.23-.9,1.62-.78,1.12-1.68,2.74-2.41,3.98a83.224,83.224,0,0,1-6.1,8.68,1.622,1.622,0,0,0-.5,1.12,1.488,1.488,0,0,0,.84,1.29,85,85,0,0,1,9.46,7.22c1.4,1.23,2.74,2.46,4.03,3.75a1.255,1.255,0,0,1,.45.84c0,1.23-3.08,4.54-4.31,4.54a1.823,1.823,0,0,1-1.34-.9c-4.03-4.76-7.45-7.45-12.43-11.09a2.135,2.135,0,0,0-1.23-.5c-.84,0-1.51.78-2.07,1.34a58.478,58.478,0,0,1-13.94,9.63,9.051,9.051,0,0,1-2.18.84c-1.12,0-3.7-3.7-3.7-4.7,0-.73.73-1.01,1.29-1.23,9.74-3.75,19.54-12.6,25.03-21.45a3.559,3.559,0,0,0,.73-1.62c0-.84-.95-.95-1.79-.95h-11.42c-2.41,0-4.82.11-7.17.11-1.51,0-1.4-1.01-1.4-3.19,0-2.02-.11-3.02,1.29-3.02,2.41,0,4.87.17,7.28.17h13.66Zm14.9,0c0,.84-1.96,2.58-2.69,2.58-.34,0-.67-.5-1.23-1.12-1.12-1.34-2.35-2.63-3.58-3.86-.22-.22-.5-.45-.5-.78,0-.62,2.07-2.3,2.74-2.3.56,0,5.26,4.76,5.26,5.49Zm5.54-3.81c0,.78-1.9,2.52-2.69,2.52-.28,0-.56-.34-.73-.56a59.061,59.061,0,0,0-4.03-4.37c-.22-.22-.5-.5-.5-.78,0-.67,2.07-2.35,2.69-2.35C1573.86,1824.14,1578.56,1828.9,1578.56,1829.68Z" fill="#877877"/>
      <path id="パス_4748" data-name="パス 4748" d="M1597.65,1834.67c8.18-.5,16.35-1.34,24.47-2.3,4.26-.5,8.51-1.06,12.71-1.74a2.958,2.958,0,0,1,.73-.06c.84,0,.95.73,1.06,1.4a25.959,25.959,0,0,1,.5,4.09c0,1.23-1.18,1.12-2.52,1.18-3.25.06-6.1.06-9.3,1.18a17.02,17.02,0,0,0-9.52,8.34,21.024,21.024,0,0,0-2.69,9.86c0,6.5,4.14,8.06,9.86,8.06.95,0,2.18-.06,2.8-.06.84,0,1.29.06,1.29.95a15.782,15.782,0,0,1-.84,4.59c-.39.84-.84.95-1.79.95-9.52,0-17.7-3.02-17.7-13.94a24.86,24.86,0,0,1,6.16-16.07c.62-.67.95-1.06.95-1.34,0-.5-.45-.67-.84-.67s-2.97.45-3.53.5a125.161,125.161,0,0,0-12.38,2.3,4.029,4.029,0,0,1-.84.11c-.78,0-1.06-1.23-1.23-1.85a25.528,25.528,0,0,1-.62-4.03c0-1.46.78-1.29,3.25-1.46Zm37.18,13.66c0,.84-2.24,2.35-2.86,2.35-.39,0-.56-.39-.78-.67-1.12-1.62-2.35-3.19-3.58-4.7-.17-.17-.5-.5-.5-.78,0-.67,2.24-2.07,2.86-2.07s4.87,5.21,4.87,5.88Zm6.78-3.08c0,.78-2.18,2.35-2.86,2.35-.39,0-.62-.45-.84-.73a48.275,48.275,0,0,0-3.64-4.65,1.314,1.314,0,0,1-.39-.73c0-.67,2.18-2.13,2.86-2.13.56,0,4.87,5.21,4.87,5.88Z" fill="#877877"/>
      <path id="パス_4749" data-name="パス 4749" d="M665.09,1939.88c-.67,0-7.34,5.38-8.29,6.22a1.731,1.731,0,0,1-.84.45c-1.12,0-3.36-4.2-3.36-5.32,0-.62.62-.78,1.29-1.18,3.14-1.79,6.1-3.81,9.18-5.71,2.13-1.29,2.35-1.34,2.35-3.08v-1.9c0-.84.06-1.68.06-2.52v-.56a1.22,1.22,0,0,0-1.23-1.29c-.11,0-.22.06-.34.06-1.06.22-4.87.9-5.71.9-.73,0-1.62-.06-1.62-4.14,0-1.51.11-1.74,1.18-1.79,1.74-.06,3.7-.17,5.43-.39a2.988,2.988,0,0,0,2.07-.67,2.252,2.252,0,0,0,.45-1.68c.06-1.57.11-3.14.11-4.7,0-1.12-.11-2.41-.11-2.63,0-.45.17-.84.73-.84.84,0,4.59.78,5.71,1.01.34.06,1.12.22,1.12.73,0,.34-.34.67-.56.9-.84.67-.9,1.34-1.06,3.08-.06.34-.11.78-.17,1.29,0,.22-.06.56-.06.78a.983.983,0,0,0,.95.95c.39,0,2.97-.78,3.53-.95a3.117,3.117,0,0,1,.95-.28c1.29,0,1.46,3.64,1.46,4.59,0,1.46-.95,1.46-5.21,2.18-2.07.39-2.18.78-2.18,3.36v.78c0,.95.11,2.18.84,2.18a5.651,5.651,0,0,0,1.4-.5,26.207,26.207,0,0,1,9.3-1.85c6.22,0,12.21,3.86,12.21,10.58a9.844,9.844,0,0,1-4.48,8.34c-2.86,1.96-7.9,2.52-11.26,2.52h-.67c-.9,0-2.07-.06-2.35-.62a10.923,10.923,0,0,1-.9-4.03c0-.73.17-1.46,1.01-1.46a44.507,44.507,0,0,0,4.59.5c3.25,0,8.01-1.06,8.01-5.15,0-3.53-3.58-5.26-6.72-5.26a21.459,21.459,0,0,0-9.86,2.69,1.878,1.878,0,0,0-.9,1.74c0,.67.11,2.91.17,3.7.11,1.18.5,6.22.5,6.78,0,2.74-3.42,4.09-4.93,4.09-1.23,0-1.62-1.18-2.07-2.13a11.329,11.329,0,0,0-3.42-4.37c-.28-.28-.67-.62-.67-1.06a1.261,1.261,0,0,1,1.23-1.12,13.36,13.36,0,0,1,2.86,1.74,1.111,1.111,0,0,0,.67.34c.34,0,.39-.22.39-.45,0-.06-.11-2.35-.11-2.46,0-.28-.06-.56-.06-.78-.06-1.01-.06-1.57-.62-1.57Zm28.28-19.54c1.51,1.18,4.31,3.53,4.31,4.14,0,1.06-2.41,3.81-3.53,3.81a2.212,2.212,0,0,1-1.23-.67,80.175,80.175,0,0,0-7.45-6.27c-.39-.28-1.01-.73-1.01-1.34,0-.84,2.46-3.64,3.36-3.64.67,0,2.97,1.9,4.2,2.91.45.34.9.73,1.34,1.06Z" fill="#877877"/>
      <path id="パス_4750" data-name="パス 4750" d="M739.85,1928.79a.55.55,0,0,0-.45.39c-2.91,9.97-9.69,18.14-18.14,23.91-.73.5-2.02,1.46-2.91,1.46-1.4,0-3.75-2.86-3.75-4.2,0-.62.73-.95,1.4-1.34,13.72-8.34,20.66-21.28,20.66-37.3,0-1.62-.11-3.25-.11-4.93,0-1.01.22-1.68,1.34-1.68.84,0,3.86.34,4.82.5.56.06,1.57.11,1.57.78,0,.56-.62.78-1.01.95a1.085,1.085,0,0,0-.56.95c0,1.74-.06,3.53-.11,5.32,0,.39.06.84.06,1.23a49.645,49.645,0,0,0,2.74,12.66,43.453,43.453,0,0,0,17.98,21.67c.56.34,1.34.78,1.34,1.34,0,1.46-2.35,4.26-3.7,4.26-1.06,0-5.21-3.25-6.16-4.09a46.576,46.576,0,0,1-14.56-21.5c-.11-.22-.22-.39-.45-.39Z" fill="#877877"/>
      <path id="パス_4751" data-name="パス 4751" d="M802.29,1931.87v13.1c0,2.74.11,5.54.11,8.29,0,1.74-.62,1.79-2.97,1.79s-2.97-.11-2.97-1.9c0-2.69.11-5.43.11-8.18v-13.1c0-1.12-.45-1.57-1.51-1.57h-2.02c-1.12,0-1.51.45-1.68,1.51a43.651,43.651,0,0,1-5.15,18.7c-.5.9-2.24,3.92-3.3,3.92-1.12,0-3.81-2.07-3.81-3.08a3.945,3.945,0,0,1,.95-1.62c3.58-4.76,5.38-12.1,5.77-17.92.06-1.06-.39-1.4-1.4-1.46-1.01,0-2.02.11-3.02.11-1.57,0-1.51-.73-1.51-2.91,0-2.35-.06-2.86,1.85-2.86.67,0,1.51.06,2.74.11,1.06-.06,1.51-.5,1.51-1.57v-9.13a1.313,1.313,0,0,0-1.51-1.51c-.5,0-1.01.06-1.51.06-1.62,0-1.57-.78-1.57-2.86,0-2.18,0-2.86,1.57-2.86,2.02,0,4.03.11,6.1.11h10.3c2.07,0,4.09-.11,6.16-.11,1.62,0,1.51.73,1.51,2.86s.11,2.86-1.57,2.86c-.62,0-1.18-.06-1.74-.06-1.06.06-1.46.45-1.46,1.51v9.13c0,1.06.39,1.51,1.46,1.51.56,0,2.07-.06,2.58-.06,1.57,0,1.51.78,1.51,2.86s.06,2.91-1.57,2.91c-.73,0-1.74-.06-2.52-.11-1.06.06-1.46.45-1.46,1.51Zm-7.22-7.06a1.383,1.383,0,0,0,1.51-1.51v-9.24a1.486,1.486,0,0,0-1.51-1.57h-1.96a1.566,1.566,0,0,0-1.57,1.57v9.24c.11.95.56,1.51,1.57,1.51Zm33.77,14.34c-.5,0-.62.11-1.29.73a97.958,97.958,0,0,1-18.03,13.05,6.727,6.727,0,0,1-2.63,1.06c-1.29,0-2.97-2.91-2.97-3.86,0-.62.62-.9,1.06-1.12a69.071,69.071,0,0,0,19.38-13.89c.22-.28.56-.67.95-.67.45,0,2.13,1.46,2.58,1.85,1.23,1.01,2.13,1.62,2.13,2.24,0,.56-.73.62-1.18.62Zm-.28-15.06a1.034,1.034,0,0,0-.84.34,98.225,98.225,0,0,1-17.47,12.77,6.172,6.172,0,0,1-2.52,1.01c-1.34,0-3.14-2.74-3.14-3.64,0-.67.56-.84,1.01-1.06,5.6-2.58,14.39-8.62,18.54-13.22.28-.22.62-.67,1.01-.67.45,0,2.07,1.4,2.46,1.74,1.29,1.01,2.07,1.51,2.07,2.13,0,.56-.73.62-1.12.62Zm-.56-13.83h-.5c-.45,0-.56.17-1.12.67a59.17,59.17,0,0,1-14.67,10.86l-.34.17a5.517,5.517,0,0,1-2.02.84c-1.12,0-3.14-2.91-3.14-3.81,0-.62.73-.9,1.51-1.29,5.15-2.69,11.87-6.83,15.57-11.26.22-.28.56-.62.9-.62a13.139,13.139,0,0,1,2.63,1.9c1.01.78,1.85,1.4,1.85,1.96,0,.39-.34.56-.67.56Z" fill="#877877"/>
      <path id="パス_4752" data-name="パス 4752" d="M868.76,1907.79c1.23,2.13,2.3,4.31,3.47,6.5a1.635,1.635,0,0,0,1.51,1.06c1.06,0,5.04-2.35,6.1-3.02a3.3,3.3,0,0,1,1.51-.67c1.12,0,3.58,3.36,3.58,4.37,0,.62-.95,1.06-1.68,1.46a43.881,43.881,0,0,1-5.15,2.41c-.73.28-1.85.5-1.85,1.51a4.342,4.342,0,0,0,.95,2.13c2.41,4.31,4.87,8.79,8.12,12.32a2.66,2.66,0,0,1,.9,1.57c0,1.23-2.8,3.7-3.98,3.7-.62,0-1.46-.73-2.13-1.18-2.74-1.9-8.46-4.7-13.27-4.7-2.91,0-5.99,1.74-5.99,4.98,0,5.77,8.57,6.94,12.88,6.94,1.29,0,2.41-.11,3.14-.11,1.12,0,1.29.78,1.29,1.79a10.515,10.515,0,0,1-.56,3.42c-.28.73-.73.95-1.9.95a42.77,42.77,0,0,1-9.63-1.29c-5.82-1.46-11.09-4.82-11.09-11.42s5.54-10.7,11.82-10.7a17.83,17.83,0,0,1,7,1.62,1.877,1.877,0,0,0,.62.17c.28,0,.62-.17.62-.5a2.07,2.07,0,0,0-.34-.84c-1.23-1.9-2.13-3.42-3.25-5.43-.5-.9-.9-1.96-2.13-1.96a3.211,3.211,0,0,0-.73.17,78.318,78.318,0,0,1-13.27,2.13c-1.23,0-1.51-.45-2.02-2.02a10.927,10.927,0,0,1-.67-2.97c0-.9.62-.95,1.34-1.01a62.538,62.538,0,0,0,11.2-1.23c.62-.17,1.34-.34,1.34-1.12,0-.84-3.47-5.88-4.2-6.83a1.817,1.817,0,0,1-.39-.9c0-1.12,4.65-2.3,5.43-2.3s1.06.39,1.4,1.01Z" fill="#877877"/>
      <path id="パス_4753" data-name="パス 4753" d="M919.72,1931.48a173.94,173.94,0,0,1,11.7-19.77c.84-1.34,1.57-2.52,2.3-3.86.17-.28.45-.84.84-.84.5,0,2.58,1.68,3.14,2.13.56.39,2.58,1.79,2.58,2.41s-.5.84-1.01.9a2.408,2.408,0,0,0-1.46.73,55.422,55.422,0,0,0-3.53,4.59c-.78,1.06-5.66,8.18-5.66,8.96a.6.6,0,0,0,.56.56,2.2,2.2,0,0,0,1.01-.39,12.575,12.575,0,0,1,5.94-1.9c2.24,0,4.98,1.18,5.94,3.3a9.315,9.315,0,0,1,.62,3.53,29.074,29.074,0,0,1-.73,5.43,31.561,31.561,0,0,0-.9,5.49c0,.95.34,2.13,1.46,2.13,3.14,0,8.46-6.78,10.19-9.24.28-.34.67-.78,1.12-.78,1.01,0,2.91,4.42,2.91,5.21a2.137,2.137,0,0,1-.62,1.23c-1.29,1.29-2.58,2.58-3.92,3.81-3.08,2.8-6.89,5.88-11.26,5.88-3.98,0-5.6-3.42-5.6-6.94a36.352,36.352,0,0,1,.73-6.5,25.154,25.154,0,0,0,.62-4.54c0-1.52-.5-2.58-2.13-2.58a10.381,10.381,0,0,0-4.82,1.57,16.632,16.632,0,0,0-5.71,5.1c-2.24,3.02-4.2,8.12-5.15,11.76-.17.73-.28,1.74-1.23,1.74-.9,0-5.38-1.62-5.38-2.58,0-.06.95-2.35,1.01-2.46,2.07-4.7,4.14-9.41,6.44-14.06Z" fill="#877877"/>
      <path id="パス_4754" data-name="パス 4754" d="M1007.02,1913.78a1.419,1.419,0,0,1-.56.95c-2.24,2.13-4.98,8.06-6.5,11.03a2.19,2.19,0,0,0-.34.95c0,1.01,1.12,1.06,3.08,1.57a33.6,33.6,0,0,1,3.86,1.29,2.755,2.755,0,0,0,.95.28c.84,0,1.12-.56,1.29-1.23a34.855,34.855,0,0,0,.78-5.88c0-.28-.06-.56-.06-.84,0-.56.17-1.06.84-1.06.45,0,4.98.95,5.66,1.12.39.06,1.01.22,1.01.73,0,.39-.45.78-.9,1.23a4.773,4.773,0,0,0-.39,1.46c-.34,1.79-.78,3.58-1.23,5.32a4.043,4.043,0,0,0-.22,1.12c0,.9.56,1.34,1.29,1.74,1.12.56,4.42,2.35,5.21,2.74.5.22,1.23.56,1.23,1.23,0,1.06-2.8,5.43-3.92,5.43-.39,0-1.23-.73-1.68-1.18-.73-.73-3.75-2.91-4.54-2.91-.62,0-.9.5-1.18.95a37.214,37.214,0,0,1-7.28,9.41c-.67.56-3.47,2.97-4.26,2.97-.84,0-4.65-2.41-4.65-3.47,0-.5.73-.84,1.06-1.06,5.82-3.02,10.19-10.02,10.19-11.14,0-1.01-.9-1.4-2.97-2.13a28.292,28.292,0,0,0-5.38-1.4,1.735,1.735,0,0,0-1.62,1.18,89.2,89.2,0,0,1-4.48,8.34c-1.57,2.24-3.47,3.81-6.33,3.81-3.98,0-6.66-3.36-6.66-7.17,0-5.88,5.54-10.36,10.92-11.59a30.607,30.607,0,0,1,3.25-.5c1.06-.06,1.34-.67,1.74-1.4,1.23-2.52,2.41-5.1,3.7-7.62a1.457,1.457,0,0,0,.28-.78.576.576,0,0,0-.62-.56c-.17,0-4.7,1.74-6.55,2.46a8.281,8.281,0,0,1-2.18.67c-1.74,0-3.36-4.48-3.36-5.21s.84-.73,1.85-.9c3.08-.5,10.25-2.35,12.88-3.92a3.613,3.613,0,0,1,1.74-.67c1.12,0,5.04,3.42,5.04,4.65Zm-17.53,19.1c-1.57,0-6.16,2.58-6.16,6.1,0,.95.45,1.79,1.46,1.79,1.68,0,3.25-2.97,3.98-4.26a15.728,15.728,0,0,0,1.34-3.02.59.59,0,0,0-.62-.62Z" fill="#877877"/>
      <path id="パス_4755" data-name="パス 4755" d="M1064.81,1906.73c.5.17,2.07.56,2.07,1.18,0,.28-.34.45-.5.56-.84.5-.9.73-1.29,1.96-.17.62-1.34,4.7-1.34,4.98a.826.826,0,0,0,.84.84c1.01,0,5.38-1.62,6.5-2.07a2.953,2.953,0,0,1,1.18-.28c1.12,0,1.12,3.42,1.12,4.26,0,.95-.11,1.74-1.06,2.02a83.376,83.376,0,0,1-9.18,2.18c-1.62.34-1.79.62-2.3,2.18a173.9,173.9,0,0,1-10.42,24.7c-.73,1.34-1.18,2.13-2.02,2.13-.9,0-4.76-1.79-4.76-3.02a4.256,4.256,0,0,1,.95-1.85c3.53-5.04,7.73-14.78,9.91-20.72a8.9,8.9,0,0,0,.45-1.46c0-.56-.45-.84-1.01-.84-.78,0-3.25.28-4.98.28-1.12,0-2.02.06-2.35-1.01a24.5,24.5,0,0,1-.45-4.09c0-.62.17-1.01.84-1.01.5,0,2.86.22,5.26.22,3.58,0,4.42-.06,4.93-.9.67-1.12,2.02-8.57,2.07-10.19.06-.84.06-1.4.62-1.4.5,0,4.2,1.12,4.93,1.34Zm-.78,36.12c2.46,2.74,6.72,3.25,10.14,3.25a25.275,25.275,0,0,0,7.95-1.12,1.853,1.853,0,0,1,.56-.11c.95,0,.95,1.29.95,3.53,0,1.12.06,2.41-.62,2.8-1.01.45-7.34.73-8.74.73-3.7,0-8.85-.45-11.98-2.52-.9-.62-2.74-2.02-2.74-3.19,0-.84,2.58-4.14,3.47-4.14.39,0,.78.5,1.01.78Zm6.83-18.09c2.97,0,8.46.5,11.26,1.57a1.054,1.054,0,0,1,.78,1.12,14.09,14.09,0,0,1-1.06,3.92.97.97,0,0,1-1.01.73,3.033,3.033,0,0,1-1.18-.28,25.223,25.223,0,0,0-8.9-1.4c-.73,0-1.4.06-2.13.06-1.12,0-1.4-.28-1.4-1.23,0-4.82,1.01-4.48,3.64-4.48Z" fill="#877877"/>
      <path id="パス_4756" data-name="パス 4756" d="M1116.84,1916.36c.45.11,1.23.22,1.23.78,0,.34-.22.45-.56.73-.78.62-.84,1.74-1.01,2.69a41.737,41.737,0,0,0-.45,5.94c0,3.75.34,8.18,1.79,11.7.67,1.57,2.52,4.87,4.48,4.87,1.57,0,3.19-2.46,3.86-3.7.34-.56.78-1.4,1.51-1.4,1.18,0,4.03,2.3,4.03,3.3,0,1.06-2.52,3.98-3.3,4.87-1.62,1.85-3.36,3.53-5.99,3.53-4.14,0-7.39-3.75-9.24-7.17-2.8-5.26-3.25-12.32-3.25-18.26,0-.9.17-8.01.28-8.51a.7.7,0,0,1,.78-.62c.73,0,4.87,1.06,5.82,1.23Zm22.79-1.12c1.23,0,5.94,3.53,8.62,8.68,1.57,2.97,3.3,8.29,3.3,11.65,0,1.06-.56,1.34-1.51,1.62a11.838,11.838,0,0,1-3.14.5c-1.79,0-1.74-.78-1.85-2.13-.67-6.55-2.97-11.87-8.29-15.96a.911.911,0,0,1-.5-.84c0-1.06,2.24-3.53,3.36-3.53Z" fill="#877877"/>
      <path id="パス_4757" data-name="パス 4757" d="M1185.33,1911.99c.45.17,1.12.39,1.12.95,0,.34-.22.39-.78.73-.95.5-1.18,1.01-1.74,2.41a44.4,44.4,0,0,0-3.14,15.9c0,1.06.22,7.84,1.51,7.84.5,0,1.29-1.62,1.51-2.18.34-.73.67-1.34,1.18-1.34.56,0,2.02,1.18,2.02,1.79,0,.5-2.24,5.6-2.24,8.12,0,.56.17,1.85.22,2.35a4.616,4.616,0,0,1,.11.84c0,1.4-3.19,2.74-4.37,2.74-.95,0-1.62-1.23-2.35-2.74-2.63-5.32-3.42-11.31-3.42-17.19a66.949,66.949,0,0,1,2.86-18.54,26.207,26.207,0,0,0,.73-2.8c.11-.5.22-1.23.84-1.23.45,0,5.15,2.02,5.94,2.35Zm6.94,26.77c2.41,2.97,4.76,3.92,8.51,3.92a45.817,45.817,0,0,0,12.32-1.79,4.052,4.052,0,0,1,1.18-.22c.9,0,1.01,1.34,1.01,4.2,0,.67.06,1.68-.67,2.07-1.57.84-11.03,1.68-13.27,1.68-9.07,0-12.82-4.7-12.82-5.6,0-.78,1.96-4.76,3.02-4.76a.992.992,0,0,1,.73.5Zm2.02-24.47a36.223,36.223,0,0,0,7.34.84,36.663,36.663,0,0,0,8.51-1.12,5.061,5.061,0,0,1,1.01-.17c.78,0,1.01.67,1.12,1.34a28.068,28.068,0,0,1,.22,3.02c0,1.18,0,1.62-1.06,1.85a65.043,65.043,0,0,1-9.41.78c-1.74,0-8.62-.34-9.8-1.12-.62-.39-.56-1.57-.56-2.18,0-2.69.28-3.53,1.18-3.53a7.622,7.622,0,0,1,1.46.28Z" fill="#877877"/>
      <path id="パス_4758" data-name="パス 4758" d="M1270.17,1913.5c0,.56-.78.5-1.18.5a2.524,2.524,0,0,0-1.51.67q-2.1,1.515-4.2,3.19c-3.14,2.58-6.33,5.15-9.24,7.95-1.06,1.01-2.3,2.13-2.3,3.19,0,1.4,1.85,3.42,2.8,4.42,3.19,3.42,6.66,6.55,10.14,9.63.95.84,4.82,3.98,4.82,5.1,0,1.34-3.42,4.54-4.76,4.54-.62,0-1.4-1.01-1.74-1.46-2.13-2.52-4.48-4.87-6.78-7.22-3.02-3.02-6.1-6.05-8.85-9.3-1.57-1.79-2.69-3.42-2.69-5.94a6.345,6.345,0,0,1,1.23-3.86c1.4-1.85,5.26-4.98,7.22-6.55,3.3-2.74,7.84-6.55,10.47-9.91.22-.28.5-.67.84-.67.73,0,2.35,1.9,2.97,2.52.5.5,2.74,2.58,2.74,3.19Z" fill="#877877"/>
      <path id="パス_4759" data-name="パス 4759" d="M1307.29,1927.95a42.977,42.977,0,0,0,5.15-1.68c4.98-1.79,10.86-4.03,16.13-4.03,6.55,0,11.65,4.2,11.65,10.98s-5.1,11.2-10.98,13.72c-1.96.84-6.55,2.35-8.62,2.35-1.85,0-2.63-3.81-2.63-4.26,0-.95,1.06-1.06,1.79-1.12a25.38,25.38,0,0,0,9.58-2.8c2.97-1.68,5.49-4.42,5.49-8.01s-2.86-5.66-6.27-5.66c-5.43,0-12.71,3.08-17.47,5.66a2.944,2.944,0,0,1-1.57.56c-1.46,0-3.47-3.36-3.47-4.54,0-.73.62-1.01,1.23-1.18Z" fill="#877877"/>
      <path id="パス_4760" data-name="パス 4760" d="M1388.05,1909.7c.45,1.29.78,2.46,1.9,2.46.78,0,3.47-1.46,4.31-1.9a4.825,4.825,0,0,1,1.4-.56c1.01,0,2.46,3.42,2.46,4.37,0,.67-.67,1.01-1.18,1.34a37.4,37.4,0,0,1-4.03,1.85c-.56.22-1.29.39-1.29,1.12a2.141,2.141,0,0,0,.28.84c.62,1.57,1.01,2.3,1.68,2.3,1.18,0,5.49-2.52,6.66-3.25a3.333,3.333,0,0,1,1.34-.62c.95,0,2.86,3.47,2.86,4.31s-1.23,1.34-2.35,1.96c-1.46.73-2.97,1.4-4.48,2.02-.67.28-1.57.56-1.57,1.51,0,1.23,4.65,8.46,5.66,9.74.45.62,1.34,1.68,1.34,2.41,0,1.29-3.3,3.64-4.54,3.64a1.182,1.182,0,0,1-.9-.45,14.972,14.972,0,0,0-10.3-3.98c-2.35,0-5.54.9-5.54,3.81,0,4.03,5.71,4.93,8.74,4.93a23.191,23.191,0,0,0,3.42-.28,13.887,13.887,0,0,1,1.62-.11c1.12,0,1.34.95,1.34,2.58,0,3.47-.56,3.58-3.19,3.58-3.64,0-7.39-.11-10.81-1.46-3.92-1.51-6.72-4.65-6.72-9.02,0-6.1,4.98-9.13,10.64-9.13a17.062,17.062,0,0,1,5.54.95,1.853,1.853,0,0,0,.56.11.5.5,0,0,0,.5-.5,41.008,41.008,0,0,0-2.13-4.09c-.34-.67-.67-1.34-1.51-1.34a1.788,1.788,0,0,0-.78.17c-2.91.9-12.04,2.8-14.9,2.8-.95,0-1.18-.56-1.46-1.4a14.192,14.192,0,0,1-.67-3.42c0-1.06,1.01-.95,2.46-1.06a57.6,57.6,0,0,0,11.93-1.9c.56-.17,1.23-.45,1.23-1.06,0-.11-1.01-3.25-2.13-3.25-.28,0-1.34.28-1.74.34a52.1,52.1,0,0,1-6.38,1.01c-.73,0-.95-.34-1.23-.95a13.458,13.458,0,0,1-.95-3.58c0-1.18,1.46-1.12,2.24-1.18a34.233,34.233,0,0,0,4.31-.56c.73-.11,1.46-.39,1.46-1.29a15.324,15.324,0,0,0-1.57-3.42,4.248,4.248,0,0,1-.67-1.46c0-1.18,3.92-1.96,4.87-1.96,1.34,0,1.46.9,2.24,3.02Z" fill="#877877"/>
      <path id="パス_4761" data-name="パス 4761" d="M1448.58,1912.66c0,.34-.39.62-.67.73a2.5,2.5,0,0,0-1.06,1.12,21.927,21.927,0,0,0-1.62,4.7,29.423,29.423,0,0,0-.73,6.27c0,.45-.06,2.86.56,2.86.45,0,.78-.9,1.01-1.46.28-.62,1.29-3.02,1.96-3.02.5,0,2.18,1.01,2.18,1.74,0,.17-.84,2.13-1.34,3.47l-.5,1.34c-.78,2.13-1.85,4.7-1.85,6.94,0,.78.11,1.4.11,1.79,0,1.57-2.97,2.24-4.03,2.24-1.23,0-1.62-1.01-1.96-2.07a46.558,46.558,0,0,1-1.85-13.05,51.45,51.45,0,0,1,1.29-11.48c.34-1.4.73-2.74.95-4.14.06-.39.22-1.4.73-1.4.17,0,2.63,1.01,3.02,1.18,1.23.56,3.81,1.62,3.81,2.24Zm17.7-4.87c1.06,0,1.18.67,1.4,1.51a73.858,73.858,0,0,1,1.74,16.13c0,9.69-1.62,17.92-8.68,25.09-.9.9-3.19,3.14-4.48,3.14-.9,0-4.14-2.74-4.14-3.92,0-.45.5-.78.84-.95a21.333,21.333,0,0,0,7.62-8.74c2.07-4.42,2.58-9.35,2.58-14.11a54.388,54.388,0,0,0-1.96-15.62,3,3,0,0,1-.11-.73c0-1.23,4.59-1.79,5.21-1.79Z" fill="#877877"/>
      <path id="パス_4762" data-name="パス 4762" d="M1511.69,1908.46a21.108,21.108,0,0,1,2.69-.28c1.57,0,1.46.84,1.57,2.13a76.075,76.075,0,0,0,1.74,10.02c.17.73.34,1.68,1.29,1.68,1.01,0,9.97-5.26,11.42-6.22a3.634,3.634,0,0,1,1.46-.56c.73,0,1.68,1.68,2.02,2.24.45.73,1.62,2.63,1.62,3.42,0,.56-.62.73-1.06.9a102.94,102.94,0,0,0-13.83,6.44c-2.97,1.62-7.73,4.37-10.08,6.61-1.46,1.4-2.74,2.91-2.74,5.04,0,2.02,1.96,3.42,3.7,4.03a22.364,22.364,0,0,0,7.45,1.01,84.647,84.647,0,0,0,14.62-1.46,1.457,1.457,0,0,1,.5-.06c.78,0,.84,2.3.84,3.47v.67c0,1.46-.06,2.07-1.18,2.35-2.13.56-12.71.9-15.4.9-4.14,0-7.78-.22-11.48-2.41a9.846,9.846,0,0,1-5.15-8.62c0-6.1,5.04-10.08,9.69-13.1a1.728,1.728,0,0,0,.95-1.46,2.011,2.011,0,0,0-.22-1.01c-.67-2.02-2.24-7.95-2.8-10.25-.34-1.29-.62-2.52-1.06-3.7a2.745,2.745,0,0,1-.17-.67c0-.84,1.85-.84,3.64-1.12Z" fill="#877877"/>
      <path id="パス_4763" data-name="パス 4763" d="M1579.17,1910.54c.39.06,1.12.28,1.12.78,0,.39-.34.56-.67.84-1.96,1.46-2.46,19.21-2.46,22.4,0,4.37-.11,11.14,5.94,11.14a14.2,14.2,0,0,0,10.53-5.43,17.8,17.8,0,0,0,3.42-8.29c.17-.9.28-1.85,1.12-1.85,1.23,0,4.65,2.86,4.65,4.54,0,1.57-1.51,5.1-2.3,6.55-3.36,6.27-9.74,10.7-17.02,10.7-3.7,0-7.56-1.34-9.86-4.31-2.52-3.36-2.8-8.79-2.8-12.88q0-6.63.5-13.27c.17-2.58.67-7.95.67-10.25v-.62c0-.84.06-1.4.84-1.4a48.541,48.541,0,0,1,6.33,1.34Z" fill="#877877"/>
      <path id="パス_4764" data-name="パス 4764" d="M1649.45,1906.73c.5.17,2.07.56,2.07,1.18,0,.28-.34.45-.5.56-.84.5-.9.73-1.29,1.96-.17.62-1.34,4.7-1.34,4.98a.826.826,0,0,0,.84.84c1.01,0,5.38-1.62,6.5-2.07a2.953,2.953,0,0,1,1.18-.28c1.12,0,1.12,3.42,1.12,4.26,0,.95-.11,1.74-1.06,2.02a83.376,83.376,0,0,1-9.18,2.18c-1.62.34-1.79.62-2.3,2.18a173.9,173.9,0,0,1-10.42,24.7c-.73,1.34-1.18,2.13-2.02,2.13-.9,0-4.76-1.79-4.76-3.02a4.256,4.256,0,0,1,.95-1.85c3.53-5.04,7.73-14.78,9.91-20.72a8.9,8.9,0,0,0,.45-1.46c0-.56-.45-.84-1.01-.84-.78,0-3.25.28-4.98.28-1.12,0-2.02.06-2.35-1.01a24.5,24.5,0,0,1-.45-4.09c0-.62.17-1.01.84-1.01.5,0,2.86.22,5.26.22,3.58,0,4.42-.06,4.93-.9.67-1.12,2.02-8.57,2.07-10.19.06-.84.06-1.4.62-1.4.5,0,4.2,1.12,4.93,1.34Zm-.78,36.12c2.46,2.74,6.72,3.25,10.14,3.25a25.275,25.275,0,0,0,7.95-1.12,1.853,1.853,0,0,1,.56-.11c.95,0,.95,1.29.95,3.53,0,1.12.06,2.41-.62,2.8-1.01.45-7.34.73-8.74.73-3.7,0-8.85-.45-11.98-2.52-.9-.62-2.74-2.02-2.74-3.19,0-.84,2.58-4.14,3.47-4.14.39,0,.78.5,1.01.78Zm6.83-18.09c2.97,0,8.46.5,11.26,1.57a1.054,1.054,0,0,1,.78,1.12,14.09,14.09,0,0,1-1.06,3.92.97.97,0,0,1-1.01.73,3.033,3.033,0,0,1-1.18-.28,25.223,25.223,0,0,0-8.9-1.4c-.73,0-1.4.06-2.13.06-1.12,0-1.4-.28-1.4-1.23,0-4.82,1.01-4.48,3.64-4.48Z" fill="#877877"/>
      <path id="パス_4765" data-name="パス 4765" d="M1697.67,1946.15c-1.01,0-1.46.45-1.51,1.51,0,.62.06,1.23.06,1.85,0,1.46-.84,1.34-2.74,1.34-2.13,0-2.74.06-2.74-1.51,0-2.02.11-4.09.11-6.1v-27.66c0-1.57-.06-3.19-.06-4.76,0-1.79.34-2.69,2.24-2.69,1.01,0,2.02.11,3.02.11h3.92c1.01,0,1.96-.11,2.97-.11,2.02,0,2.3.95,2.3,2.74,0,1.57-.06,3.14-.06,4.7v25.7c0,1.9.06,3.81.06,5.71,0,1.51-.67,1.46-2.58,1.46-2.24,0-2.41-.11-2.58-1.29-.11-.67-.34-1.01-1.01-1.01h-1.4Zm2.52-31.14c0-.95-.62-1.46-1.57-1.57h-.95c-.95.11-1.57.62-1.57,1.57v2.52c0,.95.62,1.46,1.57,1.57h.95a1.606,1.606,0,0,0,1.57-1.57Zm-1.57,14.45a1.606,1.606,0,0,0,1.57-1.57v-2.35a1.566,1.566,0,0,0-1.57-1.57h-.95a1.475,1.475,0,0,0-1.57,1.57v2.35c0,.95.62,1.46,1.57,1.57Zm0,11.54a1.486,1.486,0,0,0,1.57-1.51v-3.47a1.486,1.486,0,0,0-1.57-1.51h-.95a1.429,1.429,0,0,0-1.57,1.51v3.47a1.429,1.429,0,0,0,1.57,1.51Zm26.71,1.23c0,.78.34,1.06,1.06,1.06h3.7c1.9,0,3.81-.11,5.77-.11,1.23,0,1.18.78,1.18,2.18s.06,2.18-1.18,2.18c-1.96,0-3.86-.11-5.77-.11h-3.64c-.78,0-1.12.28-1.12,1.06v.39a.923.923,0,0,0,1.06,1.06h5.15c1.96,0,3.98-.11,5.99-.11,1.34,0,1.29.62,1.29,2.24,0,1.51.06,2.18-1.23,2.18-2.02,0-4.03-.11-6.05-.11h-19.15c-2.02,0-4.03.11-6.05.11-1.29,0-1.29-.56-1.29-2.18s0-2.24,1.29-2.24c2.02,0,4.03.11,6.05.11h6.33a.923.923,0,0,0,1.06-1.06v-.39c0-.78-.28-1.06-1.06-1.06h-3.81c-1.9,0-3.86.11-5.77.11-1.23,0-1.18-.67-1.18-2.18s-.06-2.18,1.18-2.18c1.96,0,3.86.11,5.77.11h3.81c.73,0,1.06-.28,1.06-1.01V1942c0-.73-.28-1.06-1.06-1.06h-2.46c-1.23,0-2.46.11-3.7.11-1.57,0-2.41-.5-2.41-2.18,0-.95.06-1.85.06-2.8v-6.78c0-.95-.06-1.85-.06-2.74,0-1.74.84-2.18,2.46-2.18,1.23,0,2.46.06,3.64.06h12.66c1.23,0,2.46-.06,3.7-.06,1.57,0,2.46.39,2.46,2.13,0,.95-.06,1.85-.06,2.8v6.78c0,.95.06,1.9.06,2.8,0,1.68-.9,2.18-2.41,2.18-1.23,0-2.52-.11-3.75-.11h-2.46c-.78,0-1.12.28-1.12,1.06Zm.17-34.27c0,.9.73,1.18,1.46,1.18h3.3c1.74,0,3.53-.11,5.26-.11,1.29,0,1.23.73,1.23,2.24,0,1.62,0,2.3-1.23,2.3s-2.35-.06-3.47-.11a.118.118,0,0,0-.11.11c0,.05,0,.11.06.11.5.11,1.29.28,1.29.84,0,.39-.22.5-.56.56a1.206,1.206,0,0,0-.9.67,3.683,3.683,0,0,0-.45,1.23c0,.62.45.84,1.01.84,1.68,0,3.42-.11,5.1-.11,1.29,0,1.23.78,1.23,2.3s.06,2.24-1.23,2.24c-2.02,0-4.03-.11-6.05-.11h-17.36c-1.96,0-3.98.11-5.99.11-1.29,0-1.29-.56-1.29-2.24s0-2.3,1.29-2.3c1.68,0,3.3.11,4.93.11.56,0,1.06-.22,1.06-.9a1.8,1.8,0,0,0-.11-.5c-.22-.73-.5-1.4-.78-2.13-.17-.39-.34-.78-.78-.78-.84,0-1.74.06-2.52.06-1.29,0-1.23-.73-1.23-2.3s0-2.24,1.29-2.24c1.74,0,3.47.11,5.21.11h3.14c1.01,0,1.57-.45,1.51-1.51,0-.45-.06-1.06-.11-1.51a1.605,1.605,0,0,1-.06-.5c0-.67.5-.78,1.01-.78,1.06,0,3.42.22,4.54.34.62.06,1.62.06,1.62.73,0,.39-.28.5-.73.78a1.2,1.2,0,0,0-.56.95v.34Zm-5.43,21.28a1.252,1.252,0,0,0-1.34-1.29h-2.07a1.247,1.247,0,0,0-1.34,1.29v.28a1.292,1.292,0,0,0,1.34,1.34h2.07a1.292,1.292,0,0,0,1.34-1.34Zm-3.42,4.87a1.292,1.292,0,0,0-1.34,1.34v.45a1.26,1.26,0,0,0,1.34,1.34h2.07a1.26,1.26,0,0,0,1.34-1.34v-.45a1.292,1.292,0,0,0-1.34-1.34Zm3.58-16.3h3.81c1.18,0,1.62-.22,2.07-1.34a9.183,9.183,0,0,0,.62-2.02c0-.73-.56-.95-1.18-1.01h-5.6c-.28.06-1.12.06-1.12.95a1.482,1.482,0,0,0,.11.45c.17.62.5,1.51.62,2.13.11.39.22.84.67.84Zm8.29,13.05a1.292,1.292,0,0,0,1.34-1.34v-.28a1.252,1.252,0,0,0-1.34-1.29h-2.07a1.217,1.217,0,0,0-1.34,1.29v.28a1.26,1.26,0,0,0,1.34,1.34Zm-3.42,5.04a1.23,1.23,0,0,0,1.34,1.34h2.07a1.26,1.26,0,0,0,1.34-1.34v-.45a1.292,1.292,0,0,0-1.34-1.34h-2.07a1.26,1.26,0,0,0-1.34,1.34Z" fill="#877877"/>
      <path id="パス_4766" data-name="パス 4766" d="M1769.97,1911.99c.45.17,1.12.39,1.12.95,0,.34-.22.39-.78.73-.95.5-1.18,1.01-1.74,2.41a44.4,44.4,0,0,0-3.14,15.9c0,1.06.22,7.84,1.51,7.84.5,0,1.29-1.62,1.51-2.18.34-.73.67-1.34,1.18-1.34.56,0,2.02,1.18,2.02,1.79,0,.5-2.24,5.6-2.24,8.12,0,.56.17,1.85.22,2.35a4.616,4.616,0,0,1,.11.84c0,1.4-3.19,2.74-4.37,2.74-.95,0-1.62-1.23-2.35-2.74-2.63-5.32-3.42-11.31-3.42-17.19a66.949,66.949,0,0,1,2.86-18.54,26.207,26.207,0,0,0,.73-2.8c.11-.5.22-1.23.84-1.23.45,0,5.15,2.02,5.94,2.35Zm6.94,26.77c2.41,2.97,4.76,3.92,8.51,3.92a45.817,45.817,0,0,0,12.32-1.79,4.052,4.052,0,0,1,1.18-.22c.9,0,1.01,1.34,1.01,4.2,0,.67.06,1.68-.67,2.07-1.57.84-11.03,1.68-13.27,1.68-9.07,0-12.82-4.7-12.82-5.6,0-.78,1.96-4.76,3.02-4.76a.992.992,0,0,1,.73.5Zm2.02-24.47a36.223,36.223,0,0,0,7.34.84,36.663,36.663,0,0,0,8.51-1.12,5.061,5.061,0,0,1,1.01-.17c.78,0,1.01.67,1.12,1.34a28.068,28.068,0,0,1,.22,3.02c0,1.18,0,1.62-1.06,1.85a65.043,65.043,0,0,1-9.41.78c-1.74,0-8.62-.34-9.8-1.12-.62-.39-.56-1.57-.56-2.18,0-2.69.28-3.53,1.18-3.53a7.622,7.622,0,0,1,1.46.28Z" fill="#877877"/>
    </g>
    <g id="グループ_1767" data-name="グループ 1767" transform="translate(-76.228 -249.75)" opacity="0.3" style="mix-blend-mode: multiply;isolation: isolate">
      <path id="パス_15735" data-name="パス 15735" d="M1479.263,2044.939c1.832-6.224-2.181-14.082-5.654-19.561s-5.6-13.806-3.585-19.973c1.992-6.088,9.823-9.384,15.645-6.717s8.489,10.535,5.653,16.277a12.817,12.817,0,1,1,25,5.661c-1.791,7.536-9.643,11.717-16.683,14.952q-10.186,4.682-20.374,9.362" transform="translate(0 17.978)" fill="#833e4d"/>
      <path id="パス_15736" data-name="パス 15736" d="M1490.81,2012.157c-.816-5.91-3.417-10.646-3.962-14.676s.715-9.1,4.658-10.094a6.324,6.324,0,0,1,6.295,2.5,10.9,10.9,0,0,1,1.959,6.761,17.182,17.182,0,0,1,3.981-4.877c5.547-3.528,11.413,4.078,10.354,8.5-1.257,5.254-5.27,7.435-9.508,9.459s-9.083,2.246-13.776,2.431" transform="translate(29.898)" fill="#833e4d"/>
    </g>
  </g>
</svg>
