<svg xmlns="http://www.w3.org/2000/svg" width="838.573" height="111.489" viewBox="0 0 838.573 111.489">
  <g id="グループ_2428" data-name="グループ 2428" transform="translate(-218.714 -1180.464)">
    <g id="グループ_2289" data-name="グループ 2289" transform="translate(58.716 901.686)">
      <path id="パス_19274" data-name="パス 19274" d="M364.44,304.224a98.53,98.53,0,0,1-5.495,11.128,3.112,3.112,0,0,0-.488,1.2c0,.18.089.488.089.8a.564.564,0,0,1-.532.621,11.966,11.966,0,0,1-2.793-1.909,3.092,3.092,0,0,0-.532-.44c-.222-.18-.576-.488-.576-.8a1.331,1.331,0,0,1,.355-.754,87.3,87.3,0,0,0,6.34-12.547c.177-.4.4-1.108.887-1.108.621,0,3.148,1.6,3.148,2.53A8.025,8.025,0,0,1,364.44,304.224Zm-3.81-6.825c-.4,0-.887-.532-1.153-.8a39.687,39.687,0,0,0-4.345-3.411c-.355-.266-.931-.621-.931-1.064,0-.576,1.862-2.929,2.66-2.929.621,0,2.926,1.909,3.5,2.353s3.015,2.261,3.015,2.926C363.379,295.049,361.517,297.4,360.63,297.4Zm1.729-10.242c-.355,0-.665-.4-1.064-.754a54.793,54.793,0,0,0-4.389-3.372c-.532-.352-.887-.529-.887-.928,0-.443,1.685-2.838,2.66-2.838.665,0,2.926,1.685,3.547,2.172.576.443,2.926,2.128,2.926,2.793C365.153,284.985,363.2,287.157,362.359,287.157Zm27.973,20c-.488,0-.662.31-.706.751v6.476c0,1.061.086,2.169.086,3.237,0,.975-.529.975-2.217.975-1.729,0-2.217,0-2.217-1.023V317.3c0-.573-.266-.8-.8-.8h-9.934c-.529,0-.8.222-.8.8v.266c0,.975-.576.931-2.217.931-1.685,0-2.217.044-2.217-.931,0-1.02.089-2.17.089-3.278v-6.783c-.044-.4-.222-.754-.665-.754a1.057,1.057,0,0,0-.4.086,2.979,2.979,0,0,1-1.2.443c-.887,0-2.483-2.084-2.483-2.926,0-.44.576-.706.931-.887a41.089,41.089,0,0,0,12.458-10.106c.222-.266.355-.443.709-.443a8,8,0,0,1,2.081.754c.222.086.355.177.488.222.712.31,1.555.576,1.555,1.153a.485.485,0,0,1-.177.4.29.29,0,0,0-.177.222.174.174,0,0,0,.041.133,43.94,43.94,0,0,0,10.644,7.714c.307.133.842.44.842.839,0,.89-1.685,3.059-2.793,3.059a1.3,1.3,0,0,1-.579-.174A.979.979,0,0,0,390.332,307.153ZM377.123,291.1a1.007,1.007,0,0,0-.931.443c-1.2,1.327-6.34,6.207-7.936,6.207-.8,0-2.439-1.909-2.439-2.663,0-.4.31-.529.754-.8a28.72,28.72,0,0,0,6.736-5.675c.225-.266.313-.4.579-.4a7.759,7.759,0,0,1,2.217,1.108c.4.219.709.443.887.532.263.133.8.44.8.8S377.434,291.1,377.123,291.1Zm5.852-8.113h3.544c1.244,0,2.53-.092,3.813-.092,1.067,0,2.4.225,2.4,1.6,0,.488-.047,1.153-.047,2V288c0,.532.089,1.419.089,1.64,0,.975-.8.887-2.217.887s-2.217.089-2.217-.845c0-.44.092-1.061.092-1.6-.044-.839-.4-1.241-1.241-1.241h-15.3c-.842,0-1.153.4-1.2,1.241-.044.535.089,1.2.089,1.6,0,.934-.8.845-2.261.845-1.419,0-2.172.089-2.172-.887,0-.4.089-1.108.089-1.64v-1.507c0-.842-.089-1.552-.089-2,0-1.286,1.2-1.552,2.217-1.552,1.33,0,2.7.044,4.035.044h3.37c.842,0,1.2-.355,1.241-1.2-.044-.706-.089-1.416-.177-2.125,0-.092-.044-.222-.044-.355,0-.443.443-.532.8-.532.931,0,3.056.177,4.032.266.313,0,1.023.089,1.023.529,0,.269-.222.358-.576.624-.532.4-.488.931-.532,1.593C381.779,282.635,382.133,282.99,382.976,282.99Zm1.153,29.7a1.243,1.243,0,0,0,1.241-1.241v-2.571c-.092-.754-.443-1.2-1.241-1.2h-9.222a1.178,1.178,0,0,0-1.241,1.2v2.571a1.271,1.271,0,0,0,1.241,1.241Zm-4.7-13.921a1.209,1.209,0,0,0-.8.355,42.164,42.164,0,0,1-4.433,3.987.453.453,0,0,0-.222.355c0,.266.222.358.4.4h9.887c.222,0,.488-.086.488-.4,0-.13-.092-.222-.177-.355a45.891,45.891,0,0,1-4.348-3.946A1.264,1.264,0,0,0,379.429,298.773Zm10.862-.887c-1.067,0-8.38-6.384-8.38-7.36,0-.665,2.306-2.087,2.971-2.087.4,0,.665.358.931.668a30.9,30.9,0,0,0,6.47,5.273c.488.313.712.4.712.8C393,295.977,391.086,297.887,390.291,297.887Z" transform="translate(27.636 0)" fill="#6a534e"/>
      <path id="パス_19275" data-name="パス 19275" d="M381.325,282.931c0,.269-.219.358-.44.488a2.557,2.557,0,0,0-1.422,1.6,36.165,36.165,0,0,0-2.391,12.458c0,.842.307,5.988,1.15,5.988.358,0,.8-1.555.975-1.951.446-1.108.754-2.087,1.241-2.087.4,0,1.862.8,1.862,1.333,0,.576-1.637,4.83-1.637,7.759,0,.662.041,1.374.041,2.084,0,1.729-2.971,2.35-3.367,2.35-.712,0-.975-.4-1.555-1.374-2.35-4.126-3.145-9.313-3.145-14.01a52.458,52.458,0,0,1,2.258-14.542,10.16,10.16,0,0,0,.313-1.241c.086-.4.133-1.067.662-1.067.225,0,3.458,1.156,3.946,1.333C380.7,282.31,381.325,282.446,381.325,282.931Zm12.414-2.968c.225,0,.532.089.754.089,1.374.133,2.749.089,4.079.31.222.044.621.133.621.443,0,.576-.662.488-.662,2.172,0,1.374.174,2.749.222,4.123.041.665.266,1.286,1.017,1.286.358,0,2.793-.535,3.281-.665a3.418,3.418,0,0,1,.665-.089c.975,0,1.02,2.7,1.02,3.458,0,1.108-.488,1.153-2.793,1.46-1.593.18-2.882.136-2.882,1.688,0,1.2.044,2.394.044,3.547a21.756,21.756,0,0,1-4.877,14.495c-.529.709-2.217,2.7-3.148,2.7-.8,0-3.236-2.128-3.236-2.923a.738.738,0,0,1,.355-.668c4.88-4.079,6.34-8.113,6.34-14.409v-.928c0-1.374-.086-2.261-1.108-2.261-.352,0-5.539.8-6.34.931a9.181,9.181,0,0,1-1.552.177c-.573,0-1.286-.089-1.286-2.882,0-1.729.177-1.729,2.128-1.821,1.241-.086,5.764-.44,6.783-.662a1.194,1.194,0,0,0,.934-1.2,53.557,53.557,0,0,0-1.108-7.268,2,2,0,0,1-.044-.532C392.944,280.093,393.343,279.963,393.739,279.963Z" transform="translate(63.866 2.317)" fill="#6a534e"/>
      <path id="パス_19276" data-name="パス 19276" d="M392.633,298.585c-.8,0-1.641.133-2.438.133-1.02,0-.975-.621-.975-2.131,0-1.682-.044-2.217,1.02-2.217.8,0,1.6.092,2.394.092h1.818c.975,0,1.995-.092,3.015-.092,1.463,0,2.483.355,2.483,2.042,0,1.241-.089,2.483-.089,3.721v6.254c0,2.7.842,4.434,3.5,5.409,2.838,1.061,9.444.975,12.68.975,3.414,0,6.825-.133,10.2-.222.31,0,.972-.047,1.241-.047.839,0,.839.576.839,1.244a5.631,5.631,0,0,1-.573,2.7c-.4.488-1.241.443-1.776.443-1.771.044-3.591.044-5.406.044h-5.456c-3.633,0-8.421.089-11.923-.665a8.127,8.127,0,0,1-4.966-3.192,1.068,1.068,0,0,0-.887-.529.978.978,0,0,0-.665.266c-1.153.842-3.148,2.217-4.389,3.059a1.193,1.193,0,0,0-.532.754c-.133.307-.266.751-.662.751s-.535-.263-.89-1.017c-.177-.313-.355-.668-.576-1.108a7.758,7.758,0,0,1-1.02-2.438c0-.446.576-.712,1.108-.934l.355-.133a2.487,2.487,0,0,1,.532-.174,29.573,29.573,0,0,0,3.813-2.128,1.694,1.694,0,0,0,.975-1.818v-7.8a1.086,1.086,0,0,0-1.241-1.241Zm5.054-9.355c-.355,0-.709-.355-.931-.621a64.785,64.785,0,0,0-6.34-6.21c-.31-.263-.621-.529-.621-.928,0-.8,1.906-2.439,2.7-2.439.621,0,3.724,2.971,4.389,3.591.576.576,3.591,3.458,3.591,4.079C400.48,287.545,398.441,289.23,397.687,289.23Zm7.493,19.242c-.31.307-1.064,1.061-1.507,1.061-.842,0-2.793-2.258-2.793-3.1,0-.488.665-.975,1.064-1.33a30.608,30.608,0,0,0,7.135-9.219,32.416,32.416,0,0,0,3.372-10.644c0-.174.044-.4.044-.573,0-.621-.443-.576-.887-.576h-3.281c-1.2,0-2.394.089-3.591.089-1.241,0-1.241-.443-1.241-2.217,0-1.862,0-2.261,1.286-2.261,1.241,0,2.438.089,3.677.089h4.259c4.7,0,4.345,0,4.567,5.143a27.307,27.307,0,0,0,2.657,11.35,25.575,25.575,0,0,0,6.964,9c.355.266,1.15.842,1.15,1.283,0,1.289-2.169,3.059-3.411,3.059-.8,0-2.926-2.48-3.505-3.145a37.058,37.058,0,0,1-6.337-10.643c-.089-.133-.222-.307-.4-.307s-.31.174-.4.307A34.438,34.438,0,0,1,405.18,308.472Z" transform="translate(95.079 0.499)" fill="#6a534e"/>
      <path id="パス_19277" data-name="パス 19277" d="M428.848,283.565a1.123,1.123,0,0,1-.443.757c-1.773,1.685-3.946,6.381-5.143,8.731a1.718,1.718,0,0,0-.266.754c0,.8.887.842,2.439,1.244a27.09,27.09,0,0,1,3.059,1.02,2.17,2.17,0,0,0,.754.222c.665,0,.887-.443,1.02-.975a27.933,27.933,0,0,0,.621-4.655c0-.222-.044-.446-.044-.665,0-.443.133-.842.665-.842.355,0,3.946.754,4.475.887.313.044.8.174.8.576,0,.31-.355.621-.709.972a4,4,0,0,0-.31,1.156c-.269,1.416-.621,2.837-.975,4.212a3.154,3.154,0,0,0-.18.887c0,.709.446,1.064,1.023,1.371.887.446,3.5,1.862,4.123,2.175.4.174.975.44.975.975,0,.842-2.217,4.3-3.1,4.3-.313,0-.975-.576-1.33-.934-.579-.576-2.97-2.305-3.591-2.305-.488,0-.709.4-.934.757a29.353,29.353,0,0,1-5.761,7.448c-.532.443-2.749,2.347-3.37,2.347-.665,0-3.683-1.9-3.683-2.746,0-.4.579-.668.845-.842,4.611-2.4,8.069-7.936,8.069-8.826,0-.8-.709-1.108-2.35-1.682a22.177,22.177,0,0,0-4.256-1.108,1.389,1.389,0,0,0-1.286.928,71.86,71.86,0,0,1-3.547,6.609c-1.241,1.77-2.749,3.012-5.01,3.012a5.407,5.407,0,0,1-5.276-5.675c0-4.655,4.389-8.2,8.645-9.174a22.474,22.474,0,0,1,2.568-.4c.845-.047,1.067-.535,1.377-1.108.975-2,1.906-4.035,2.926-6.03a1.212,1.212,0,0,0,.222-.621.453.453,0,0,0-.488-.443c-.133,0-3.724,1.374-5.187,1.951a6.574,6.574,0,0,1-1.729.532c-1.374,0-2.66-3.55-2.66-4.123s.665-.576,1.463-.709c2.438-.4,8.114-1.862,10.2-3.1a2.889,2.889,0,0,1,1.374-.532C425.741,279.888,428.848,282.593,428.848,283.565Zm-13.877,15.121c-1.241,0-4.877,2.039-4.877,4.83,0,.754.355,1.422,1.153,1.422,1.33,0,2.572-2.35,3.148-3.372a12.312,12.312,0,0,0,1.064-2.391A.463.463,0,0,0,414.971,298.686Z" transform="translate(129.402 2.171)" fill="#6a534e"/>
      <path id="パス_19278" data-name="パス 19278" d="M446.979,287.307a7.577,7.577,0,0,0,1.77-.136,2.06,2.06,0,0,1,.488-.086c.975,0,3.239,2.7,3.239,3.411a4.255,4.255,0,0,1-.535,1.067c-.263.488-.709,1.15-1.15,2.039-4.392,8.465-8.646,14.894-16.848,20.17-.975.621-5.1,3.151-6.03,3.151-1.02,0-3.769-2.175-3.769-2.97,0-.443.576-.709.887-.842a39.147,39.147,0,0,0,17.158-14.187c.709-1.064,3.414-5.365,3.414-6.473,0-.576-.754-.621-1.374-.621H435.8c-.884.089-1.061.089-1.859,1.2-.8,1.2-5.941,7.312-7.094,7.312-.576,0-3.813-1.682-3.813-2.657a.812.812,0,0,1,.4-.621c4.567-3.5,9.887-10.419,11.838-15.828.177-.443.355-1.064.709-1.064a23.16,23.16,0,0,1,3.145,1.374,5.484,5.484,0,0,0,.579.266c.529.222,1.33.488,1.33.887,0,.266-.443.443-.668.576-.529.31-.706.665-1.15,1.463-.177.31-.355.621-.621,1.064a1.771,1.771,0,0,0-.31.8c0,.44.352.665.754.709Zm8.956-.887c0,.665-1.729,1.859-2.264,1.859-.263,0-.4-.263-.573-.488-.89-1.327-1.865-2.657-2.885-3.9-.13-.18-.307-.355-.307-.576,0-.532,1.815-1.64,2.3-1.64S455.935,285.93,455.935,286.421Zm4.567-2.749c0,.662-1.729,1.818-2.264,1.818-.307,0-.44-.222-.573-.443a43.724,43.724,0,0,0-2.926-3.9.961.961,0,0,1-.313-.532c0-.576,1.821-1.685,2.308-1.685C457.177,278.928,460.5,283.1,460.5,283.672Z" transform="translate(162.434 0.293)" fill="#6a534e"/>
      <path id="パス_19279" data-name="パス 19279" d="M463.841,289.685c1.02,0,3.059,0,3.99-.086a4.578,4.578,0,0,1,.8-.089c.931,0,3.148,2.125,3.148,2.926a11.046,11.046,0,0,1-.576,1.815,30.794,30.794,0,0,1-2.571,5.988,37.091,37.091,0,0,1-9.175,10.463c-1.244,1.017-6.03,4.434-7.407,4.434-1.02,0-3.056-2.53-3.056-3.284,0-.529,1.108-.928,1.549-1.15a31.928,31.928,0,0,0,13.614-12.591,11.441,11.441,0,0,0,1.194-2.885c0-1.061-1.194-.975-1.906-.975H446.949c-1.859,0-3.721.092-5.628.092-1.244,0-1.244-.443-1.244-2.173,0-2.261.047-2.571,1.289-2.571,1.862,0,3.766.086,5.675.086Zm-2.971-9.574c1.821,0,4.079-.133,5.232-.133,1.108,0,1.2.488,1.2,2.7,0,1.507,0,2.084-1.2,2.084-1.773,0-3.5-.089-5.232-.089H450.011c-1.729,0-3.458.089-5.187.089-1.241,0-1.241-.532-1.241-2.172,0-2.084.089-2.616,1.2-2.616,1.241,0,3.5.133,5.232.133Z" transform="translate(195.757 2.347)" fill="#6a534e"/>
      <path id="パス_19280" data-name="パス 19280" d="M484.931,294.444c1.862,0,3.724-.133,5.586-.133,1.286,0,1.374.222,1.374,2.35,0,1.818-.089,2.438-1.241,2.438-1.906,0-3.813-.089-5.719-.089h-5.808c-1.241,0-1.241,1.108-1.419,2.036a22.378,22.378,0,0,1-2.926,8.028c-2.128,3.411-5.586,5.675-9.222,7.224a7.641,7.641,0,0,1-2.084.712c-.975,0-3.367-2.929-3.367-3.638,0-.532.662-.621,1.194-.8a21.356,21.356,0,0,0,5.589-2.308,13.24,13.24,0,0,0,5.583-8.066,21.257,21.257,0,0,0,.355-2.128,1.014,1.014,0,0,0-1.017-1.064h-9c-1.862,0-3.86.133-5.589.133-1.194,0-1.153-.845-1.153-2.527,0-1.643.044-2.305,1.108-2.305,1.555,0,3.683.133,5.634.133ZM478.1,282.828c1.951,0,4.079-.133,5.586-.133,1.33,0,1.241.887,1.241,2.66,0,1.5,0,2.128-1.2,2.128-1.862,0-3.769-.089-5.631-.089H468.66c-1.862,0-3.724.089-5.631.089-1.241,0-1.153-.709-1.153-2.305s-.089-2.483,1.241-2.483c1.422,0,3.547.133,5.542.133Zm14.5,4.478c0,.662-1.641,1.951-2.217,1.951-.222,0-.532-.4-.931-.887-.842-1.156-1.773-2.217-2.7-3.281a.865.865,0,0,1-.4-.579c0-.488,1.726-1.729,2.214-1.729S492.6,286.727,492.6,287.306Zm1.862-6.34c.355.4,1.773,1.906,1.773,2.35,0,.621-1.6,1.951-2.172,1.951-.31,0-.621-.488-1.108-1.108-.709-.931-1.818-2.128-2.616-2.973a.893.893,0,0,1-.355-.573c0-.532,1.685-1.773,2.172-1.773C492.557,278.838,494.108,280.564,494.463,280.966Z" transform="translate(227.031 0.117)" fill="#6a534e"/>
      <path id="パス_19281" data-name="パス 19281" d="M476.535,283.622c6.473-.4,12.946-1.064,19.375-1.818,3.367-.4,6.736-.842,10.061-1.374a2.383,2.383,0,0,1,.576-.047c.665,0,.754.579.845,1.108a20.594,20.594,0,0,1,.4,3.24c0,.975-.931.887-2,.931a21.976,21.976,0,0,0-7.36.931,13.469,13.469,0,0,0-7.537,6.6A16.642,16.642,0,0,0,488.771,301c0,5.14,3.278,6.381,7.8,6.381.754,0,1.729-.041,2.217-.041.665,0,1.02.041,1.02.751a12.486,12.486,0,0,1-.665,3.639c-.31.665-.665.754-1.419.754-7.537,0-14.007-2.4-14.007-11.043a19.7,19.7,0,0,1,4.874-12.721c.488-.532.754-.842.754-1.067,0-.4-.352-.529-.665-.529s-2.347.355-2.793.4c-2.97.446-6.958,1.067-9.8,1.821a3.737,3.737,0,0,1-.665.089c-.621,0-.842-.975-.975-1.463a19.536,19.536,0,0,1-.488-3.192C473.963,283.622,474.584,283.755,476.535,283.622Zm29.436,10.815c0,.668-1.773,1.862-2.261,1.862-.31,0-.443-.307-.621-.529-.884-1.286-1.859-2.527-2.838-3.724-.13-.133-.4-.4-.4-.621,0-.532,1.77-1.641,2.258-1.641S505.97,293.907,505.97,294.436ZM511.335,292c0,.621-1.726,1.862-2.261,1.862-.31,0-.488-.355-.665-.576a37.581,37.581,0,0,0-2.879-3.68,1.064,1.064,0,0,1-.313-.576c0-.532,1.729-1.685,2.261-1.685C507.921,287.346,511.335,291.466,511.335,292Z" transform="translate(262.029 3.137)" fill="#6a534e"/>
      <path id="パス_19282" data-name="パス 19282" d="M352.706,305.872c.355,1.017.624,1.951,1.51,1.951a15.1,15.1,0,0,0,3.411-1.507,3.936,3.936,0,0,1,1.108-.443c.8,0,1.951,2.7,1.951,3.458,0,.532-.529.8-.928,1.064a30.045,30.045,0,0,1-3.192,1.463c-.446.177-1.02.31-1.02.887a1.733,1.733,0,0,0,.219.665c.488,1.238.8,1.818,1.333,1.818.931,0,4.342-2,5.276-2.571a2.579,2.579,0,0,1,1.061-.488c.757,0,2.264,2.749,2.264,3.414s-.975,1.064-1.862,1.549c-1.156.579-2.35,1.108-3.547,1.6-.532.225-1.241.446-1.241,1.2,0,.975,3.68,6.692,4.475,7.714.355.488,1.067,1.327,1.067,1.9,0,1.02-2.616,2.882-3.591,2.882a.928.928,0,0,1-.709-.352,11.84,11.84,0,0,0-8.158-3.148c-1.862,0-4.392.709-4.392,3.015,0,3.189,4.525,3.9,6.916,3.9a18.467,18.467,0,0,0,2.7-.222,12.531,12.531,0,0,1,1.289-.086c.887,0,1.061.754,1.061,2.036,0,2.749-.44,2.837-2.524,2.837a23.317,23.317,0,0,1-8.56-1.15c-3.1-1.2-5.32-3.68-5.32-7.138,0-4.833,3.946-7.23,8.427-7.23a13.478,13.478,0,0,1,4.386.754,1.5,1.5,0,0,0,.446.089.4.4,0,0,0,.4-.4,31.923,31.923,0,0,0-1.688-3.236c-.266-.535-.529-1.064-1.194-1.064a1.359,1.359,0,0,0-.621.133c-2.305.709-9.535,2.217-11.793,2.217-.754,0-.934-.443-1.153-1.108a11.3,11.3,0,0,1-.535-2.707c0-.842.8-.751,1.954-.842a45.374,45.374,0,0,0,9.443-1.5c.44-.133.975-.358.975-.845,0-.086-.8-2.569-1.685-2.569-.222,0-1.067.219-1.374.266a41.863,41.863,0,0,1-5.054.8c-.576,0-.754-.266-.975-.754a10.781,10.781,0,0,1-.754-2.837c0-.934,1.153-.887,1.773-.934a27.041,27.041,0,0,0,3.414-.44c.576-.089,1.15-.313,1.15-1.02a12.362,12.362,0,0,0-1.238-2.7,3.361,3.361,0,0,1-.532-1.153c0-.931,3.1-1.552,3.857-1.552C352,303.478,352.086,304.187,352.706,305.872Z" transform="translate(0 48.306)" fill="#6a534e"/>
      <path id="パス_19283" data-name="パス 19283" d="M359.49,310.818l.668.266c.842.355,1.416.488,1.416.975,0,.307-.177.44-.4.621a1.609,1.609,0,0,0-.662.975,28.845,28.845,0,0,0-.579,3.813c0,.222.044.488.313.488.219,0,.352-.266.44-.443a17.5,17.5,0,0,1,3.771-4.3,10.274,10.274,0,0,1,3.588-1.859c.443-.133.978-.266.978-1.02a17.9,17.9,0,0,0-.712-2.749,2.325,2.325,0,0,1-.174-.757c0-.621.839-.662,1.283-.662,3.1,0,3.635.177,3.635.754a1.257,1.257,0,0,1-.266.665,1.1,1.1,0,0,0-.177.621,11.525,11.525,0,0,0,.266,1.64,1.226,1.226,0,0,0,1.108,1.02c.709.177,1.374.31,2.042.532a8.925,8.925,0,0,1,5.938,8.864c0,5.323-3.68,10.156-9.311,10.2-.842,0-1.061.358-1.374,1.067-.443.928-2,3.987-3.145,3.987-.624,0-2.663-1.552-2.663-2.258a1.006,1.006,0,0,1,.355-.668c.443-.532,1.729-2.169,1.729-2.79,0-.488-.4-.709-.751-.934a9.1,9.1,0,0,1-3.683-7.224c0-1.552,2.039-1.729,2.394-1.729.8,0,.842.573.842.931.18,3.367,1.776,4.564,2.35,4.564a.624.624,0,0,0,.535-.443,32.8,32.8,0,0,0,.662-6.3c0-2.923-.177-3.766-.884-3.766a9.141,9.141,0,0,0-3.062,1.549c-2.97,2.217-5.409,6.476-5.409,10.2a8.206,8.206,0,0,0,.266,2.042,3.178,3.178,0,0,1,.089.662c0,1.02-2.305,1.466-2.879,1.466-.842,0-1.067-.978-1.33-2.261a37.813,37.813,0,0,1-.712-7.759,47.744,47.744,0,0,1,.754-8.335c.092-.532.18-.975.266-1.552.047-.31.222-.665.576-.665A8.253,8.253,0,0,1,359.49,310.818Zm14.054,4.567c0,.44.133,2.524.133,3.68a39.3,39.3,0,0,1-.532,6.074,3.867,3.867,0,0,0-.133.621.662.662,0,0,0,.709.662c1.685,0,4.389-2.169,4.389-6.163,0-4.12-3.015-5.495-3.946-5.495A.543.543,0,0,0,373.544,315.385Z" transform="translate(31.301 53.557)" fill="#6a534e"/>
      <path id="パス_19284" data-name="パス 19284" d="M395.019,308.261c0,.31-.488.576-.975.931a42.912,42.912,0,0,0-6.426,5.941,1.326,1.326,0,0,0-.443.754c0,.355.355.573.754.573a2.541,2.541,0,0,0,.573-.086,8.47,8.47,0,0,1,1.821-.18,12.994,12.994,0,0,1,5.45,1.333,9.163,9.163,0,0,1,5.276,8.6c0,7.844-6.958,11.926-14.1,11.926-3.68,0-8.911-1.51-8.911-6.03a5.57,5.57,0,0,1,5.675-5.368,7.226,7.226,0,0,1,5.894,3.151,4.389,4.389,0,0,1,.8,2.837c.041.307.174.573.532.573,1.153,0,5.365-2.35,5.365-6.825,0-4.3-3.639-6.074-7.493-6.074a13.448,13.448,0,0,0-9.931,4.345c-1.732,1.685-3.325,3.5-4.921,5.317a.6.6,0,0,1-.488.313c-.931,0-3.192-2.486-3.192-3.192,0-.535.665-1.023,1.064-1.33a178.19,178.19,0,0,0,13.788-13.922c.355-.355,1.153-1.153,1.153-1.6,0-.4-.4-.532-.757-.532a10.719,10.719,0,0,0-1.061.177c-1.064.263-7.318,1.552-8.025,1.552-.975,0-1.108-3.325-1.108-4.079,0-1.02.044-1.108,1.374-1.108h1.064c2.838,0,8.646-.621,11.214-1.64a6.067,6.067,0,0,1,1.688-.488C392.448,304.138,395.019,307.508,395.019,308.261ZM383.8,330.249a1.836,1.836,0,0,0-1.9,1.776c0,1.6,2.128,2.35,3.458,2.35.842,0,1.2-.8,1.2-1.51A2.71,2.71,0,0,0,383.8,330.249Z" transform="translate(59.26 49.597)" fill="#6a534e"/>
      <path id="パス_19285" data-name="パス 19285" d="M391.344,322.943a137.976,137.976,0,0,1,9.266-15.65c.668-1.067,1.241-2,1.818-3.059.133-.222.358-.665.665-.665a11.2,11.2,0,0,1,2.486,1.685c.44.31,2.036,1.419,2.036,1.906s-.4.662-.8.709a1.937,1.937,0,0,0-1.156.573,43.951,43.951,0,0,0-2.79,3.638c-.621.842-4.481,6.47-4.481,7.091a.48.48,0,0,0,.446.446,1.762,1.762,0,0,0,.8-.31,9.98,9.98,0,0,1,4.7-1.51c1.776,0,3.946.934,4.7,2.619a7.466,7.466,0,0,1,.488,2.793,23.588,23.588,0,0,1-.576,4.3,25.365,25.365,0,0,0-.712,4.342c0,.754.266,1.688,1.153,1.688,2.486,0,6.7-5.368,8.069-7.315.225-.269.532-.621.887-.621.8,0,2.305,3.5,2.305,4.123a1.693,1.693,0,0,1-.488.975c-1.017,1.017-2.039,2.037-3.1,3.012-2.441,2.217-5.456,4.655-8.914,4.655-3.145,0-4.434-2.7-4.434-5.5a28.745,28.745,0,0,1,.576-5.14,19.747,19.747,0,0,0,.488-3.591c0-1.156-.4-2.039-1.685-2.039a8.254,8.254,0,0,0-3.813,1.238,13.165,13.165,0,0,0-4.519,4.037,30.584,30.584,0,0,0-4.079,9.308c-.133.576-.222,1.377-.975,1.377-.709,0-4.259-1.289-4.259-2.042,0-.041.754-1.859.8-1.951C387.888,330.347,389.526,326.623,391.344,322.943Z" transform="translate(88.916 48.482)" fill="#6a534e"/>
      <path id="パス_19286" data-name="パス 19286" d="M411.156,304.107a16.567,16.567,0,0,1,2.128-.225c1.244,0,1.156.668,1.244,1.688A60.511,60.511,0,0,0,415.9,313.5c.133.579.266,1.333,1.017,1.333.8,0,7.892-4.171,9.044-4.924a2.869,2.869,0,0,1,1.156-.44c.573,0,1.327,1.33,1.6,1.773a8.924,8.924,0,0,1,1.283,2.7c0,.443-.488.576-.842.709a81.327,81.327,0,0,0-10.951,5.1,44.88,44.88,0,0,0-7.977,5.232c-1.156,1.108-2.175,2.3-2.175,3.99,0,1.6,1.555,2.7,2.929,3.192a17.791,17.791,0,0,0,5.9.8,67.165,67.165,0,0,0,11.569-1.15,1.244,1.244,0,0,1,.4-.044c.621,0,.662,1.815.662,2.749v.529c0,1.153-.041,1.64-.931,1.862-1.685.446-10.061.709-12.189.709-3.284,0-6.163-.174-9.089-1.9a7.809,7.809,0,0,1-4.079-6.831c0-4.83,3.987-7.98,7.667-10.372a1.369,1.369,0,0,0,.754-1.153,1.528,1.528,0,0,0-.174-.8c-.535-1.6-1.776-6.293-2.217-8.11a28.194,28.194,0,0,0-.842-2.926,2.324,2.324,0,0,1-.133-.535C408.277,304.328,409.74,304.328,411.156,304.107Z" transform="translate(123.681 49.096)" fill="#6a534e"/>
      <path id="パス_19287" data-name="パス 19287" d="M424.559,335.7c-.8,0-1.153.355-1.2,1.2,0,.488.044.975.044,1.463,0,1.15-.665,1.061-2.172,1.061-1.682,0-2.17.047-2.17-1.194,0-1.6.086-3.239.086-4.836V311.5c0-1.241-.044-2.53-.044-3.769,0-1.419.266-2.128,1.773-2.128.8,0,1.6.089,2.394.089h3.1c.8,0,1.552-.089,2.35-.089,1.6,0,1.818.754,1.818,2.172,0,1.241-.044,2.483-.044,3.724v20.35c0,1.5.044,3.012.044,4.522,0,1.194-.532,1.153-2.039,1.153-1.773,0-1.906-.092-2.039-1.02-.089-.535-.266-.8-.8-.8Zm1.995-24.648c0-.754-.488-1.153-1.241-1.241h-.754c-.754.089-1.241.488-1.241,1.241v1.992c0,.757.488,1.156,1.241,1.244h.754a1.269,1.269,0,0,0,1.241-1.244Zm-1.241,11.439a1.271,1.271,0,0,0,1.241-1.241v-1.862a1.237,1.237,0,0,0-1.241-1.241h-.754a1.164,1.164,0,0,0-1.241,1.241v1.862c0,.754.488,1.15,1.241,1.241Zm0,9.13a1.175,1.175,0,0,0,1.241-1.2v-2.746a1.178,1.178,0,0,0-1.241-1.2h-.754a1.132,1.132,0,0,0-1.241,1.2v2.746a1.13,1.13,0,0,0,1.241,1.2Zm21.148.978c0,.621.266.842.839.842h2.926c1.507,0,3.018-.092,4.567-.092.975,0,.934.621.934,1.729,0,1.153.041,1.729-.934,1.729-1.549,0-3.059-.089-4.567-.089h-2.879c-.621,0-.887.222-.887.842v.313a.733.733,0,0,0,.839.842h4.082c1.552,0,3.148-.089,4.744-.089,1.064,0,1.017.488,1.017,1.77,0,1.2.047,1.729-.975,1.729-1.6,0-3.192-.086-4.785-.086H436.219c-1.6,0-3.192.086-4.788.086-1.02,0-1.02-.44-1.02-1.729,0-1.33,0-1.77,1.02-1.77,1.6,0,3.192.089,4.788.089h5.01a.734.734,0,0,0,.842-.842v-.313c0-.621-.222-.842-.842-.842h-3.015c-1.507,0-3.059.089-4.567.089-.975,0-.931-.529-.931-1.729,0-1.15-.044-1.729.931-1.729,1.552,0,3.059.092,4.567.092h3.015c.576,0,.842-.222.842-.8v-.219c0-.576-.222-.842-.842-.842h-1.954c-.972,0-1.948.086-2.923.086-1.241,0-1.906-.4-1.906-1.729,0-.754.044-1.46.044-2.217v-5.362c0-.754-.044-1.463-.044-2.175,0-1.371.665-1.729,1.951-1.729.975,0,1.951.047,2.879.047H449.3c.975,0,1.948-.047,2.923-.047,1.241,0,1.951.313,1.951,1.688,0,.754-.041,1.463-.041,2.217v5.362c0,.757.041,1.51.041,2.217,0,1.33-.709,1.729-1.9,1.729-.975,0-2-.086-2.971-.086h-1.951c-.621,0-.887.222-.887.842Zm.133-27.133c0,.709.573.931,1.153.931h2.613c1.374,0,2.8-.089,4.17-.089,1.017,0,.975.576.975,1.773,0,1.286,0,1.818-.975,1.818-.931,0-1.862-.044-2.749-.089a.093.093,0,0,0-.089.089c0,.044,0,.089.041.089.4.086,1.023.222,1.023.665,0,.31-.18.4-.443.443a.951.951,0,0,0-.712.532,2.9,2.9,0,0,0-.355.975c0,.488.355.665.8.665,1.33,0,2.7-.089,4.035-.089,1.02,0,.975.621.975,1.815,0,1.241.044,1.776-.975,1.776-1.6,0-3.192-.089-4.788-.089H437.546c-1.549,0-3.145.089-4.741.089-1.02,0-1.02-.443-1.02-1.776,0-1.371,0-1.815,1.02-1.815,1.33,0,2.616.089,3.9.089.443,0,.839-.177.839-.709a1.286,1.286,0,0,0-.086-.4c-.177-.576-.4-1.108-.621-1.685-.133-.31-.266-.621-.621-.621-.665,0-1.377.044-2,.044-1.017,0-.972-.576-.972-1.818,0-1.286,0-1.773,1.02-1.773,1.374,0,2.749.089,4.123.089h2.48c.8,0,1.241-.355,1.2-1.2a10.182,10.182,0,0,0-.092-1.2,1.462,1.462,0,0,1-.041-.4c0-.532.4-.621.8-.621.842,0,2.7.177,3.594.266.488.044,1.286.044,1.286.576,0,.31-.222.4-.579.621a.964.964,0,0,0-.44.754Zm-4.3,16.848a.992.992,0,0,0-1.064-1.023h-1.64a.992.992,0,0,0-1.064,1.023v.219a1.027,1.027,0,0,0,1.064,1.067h1.64a1.027,1.027,0,0,0,1.064-1.067Zm-2.7,3.857a1.023,1.023,0,0,0-1.064,1.064v.352a1,1,0,0,0,1.064,1.067h1.64a1,1,0,0,0,1.064-1.067v-.352a1.023,1.023,0,0,0-1.064-1.064Zm2.837-12.9h3.012c.934,0,1.289-.177,1.643-1.064a7.318,7.318,0,0,0,.488-1.6c0-.576-.443-.754-.931-.8H442.2c-.225.044-.887.044-.887.751a.993.993,0,0,0,.089.358c.133.488.4,1.2.488,1.685C441.98,312.911,442.071,313.269,442.426,313.269Zm6.562,10.33a1.027,1.027,0,0,0,1.064-1.067v-.219a.992.992,0,0,0-1.064-1.023h-1.64a.968.968,0,0,0-1.064,1.023v.219a1,1,0,0,0,1.064,1.067Zm-2.7,3.987a.978.978,0,0,0,1.064,1.067h1.64a1,1,0,0,0,1.064-1.067v-.352a1.023,1.023,0,0,0-1.064-1.064h-1.64a1,1,0,0,0-1.064,1.064Z" transform="translate(154.662 47.338)" fill="#6a534e"/>
      <path id="パス_19288" data-name="パス 19288" d="M445.412,306.135c.355.133.887.307.887.754,0,.266-.174.31-.621.576-.754.4-.928.8-1.374,1.906a35.238,35.238,0,0,0-2.48,12.588c0,.845.177,6.21,1.2,6.21.4,0,1.02-1.289,1.194-1.729.269-.576.535-1.064.934-1.064.443,0,1.6.928,1.6,1.416,0,.4-1.773,4.434-1.773,6.429,0,.443.133,1.463.177,1.865a4.229,4.229,0,0,1,.089.662c0,1.108-2.53,2.175-3.458,2.175-.754,0-1.289-.975-1.862-2.175a30.521,30.521,0,0,1-2.7-13.608,53.051,53.051,0,0,1,2.261-14.675,20.4,20.4,0,0,0,.576-2.217c.086-.4.174-.975.665-.975C441.07,304.273,444.792,305.869,445.412,306.135Zm5.5,21.192a7.589,7.589,0,0,0,6.736,3.1,36.156,36.156,0,0,0,9.754-1.422,3.253,3.253,0,0,1,.931-.174c.709,0,.8,1.064.8,3.325,0,.529.044,1.33-.532,1.637-1.241.668-8.734,1.333-10.508,1.333-7.179,0-10.15-3.724-10.15-4.434,0-.621,1.549-3.771,2.391-3.771A.782.782,0,0,1,450.913,327.328Zm1.6-19.375a28.425,28.425,0,0,0,5.808.665,28.935,28.935,0,0,0,6.736-.887,4.324,4.324,0,0,1,.8-.133c.621,0,.8.532.887,1.061a21.778,21.778,0,0,1,.177,2.4c0,.928,0,1.286-.839,1.463a51.742,51.742,0,0,1-7.451.621c-1.374,0-6.825-.266-7.759-.887-.488-.31-.44-1.244-.44-1.732,0-2.125.222-2.79.928-2.79A5.828,5.828,0,0,1,452.509,307.953Z" transform="translate(190.156 49.861)" fill="#6a534e"/>
      <path id="パス_19289" data-name="パス 19289" d="M455.973,330.975a.792.792,0,0,0-.355.754,53.78,53.78,0,0,1-.529,6.6c-.092.443-.18.975-.757.975-.266,0-1.685-.174-1.685-.975a1.861,1.861,0,0,1,.092-.573,38.456,38.456,0,0,0,.621-7.138c0-.355,0-.842.488-.842.44,0,2.569.174,2.569.709C456.417,330.794,456.239,330.886,455.973,330.975Zm9.754-15.831v.535c0,.709.31,1.02,1.02,1.02,1.153,0,2.35-.092,3.059-.092.887,0,.842.535.842,1.776,0,1.194,0,1.682-.842,1.682-.754,0-1.818-.133-2.879-.086-.845,0-1.2.4-1.2,1.241v.532c0,.8.31,1.2,1.153,1.2.709,0,1.419-.047,2.128-.047,2.128,0,2.128.975,2.128,2.441,0,3.325-.8,11.04-2.084,14.01-1.241,2.923-3.458,3.234-6.384,3.234-.975,0-2.172.133-2.172-2.793,0-.573,0-1.549.8-1.549.31,0,1.067.133,1.821.133,2.084,0,2.613-.934,3.012-2.752a44.687,44.687,0,0,0,.887-7.67c0-1.327-.709-1.194-2-1.194h-5.542c-.355,0-.488.133-.709.488-.31.4-.621.44-2,.44-1.773,0-2.17-.041-2.17-1.371,0-1.729.086-3.417.086-5.1V309.915c0-1.153-.044-2.261-.044-3.37,0-1.818.842-2.261,2.527-2.261,1.064,0,2.128.089,3.237.089h7.448c.887,0,1.773-.089,2.66-.089.975,0,.931.488.931,2,0,1.46.044,1.906-.931,1.906-.8,0-1.729-.044-2.66-.044h-1.108c-.709,0-1.02.31-1.02,1.02v.576c0,.754.31,1.064,1.02,1.064,1.108,0,2.217-.089,3.059-.089s.842.485.842,1.773c0,1.2,0,1.685-.842,1.685-.662,0-1.906-.136-3.059-.089C466.037,314.083,465.727,314.39,465.727,315.144Zm-7.714,23.143c-.842,0-.842-.263-.887-2.66-.044-1.46-.307-3.99-.44-4.833a1.687,1.687,0,0,1-.047-.488c0-.621.887-.754,1.33-.754.712,0,.8.535,1.067,2.175a48.354,48.354,0,0,1,.529,5.542C459.564,338.113,458.633,338.287,458.013,338.287Zm4.123-29.126a.954.954,0,0,0-1.02-1.02h-1.241a.99.99,0,0,0-1.064,1.02v.576a1,1,0,0,0,1.064,1.064h1.241a.967.967,0,0,0,1.02-1.064Zm0,5.982a.987.987,0,0,0-1.02-1.061h-1.241a1.022,1.022,0,0,0-1.064,1.061v.535a.989.989,0,0,0,1.064,1.02h1.241a.954.954,0,0,0,1.02-1.02Zm0,6.077c0-.842-.355-1.241-1.2-1.241h-.887c-.884,0-1.241.4-1.241,1.241v.532c0,.842.4,1.2,1.241,1.2h.887c.842,0,1.2-.355,1.2-1.2Zm-.488,14.894c-.621,0-.709-.307-.884-1.593-.225-1.51-.535-3.018-.89-4.522a1.981,1.981,0,0,1-.086-.446c0-.662,1.194-.8,1.463-.8.621,0,.754.573,1.241,2.879.13.621.621,3.018.621,3.505C463.114,335.937,462.006,336.115,461.648,336.115Zm3.062-2.081c-.488,0-.668-.535-.934-1.776-.222-1.017-.488-2.036-.754-2.971a2.358,2.358,0,0,1-.089-.529c0-.535,1.064-.842,1.507-.842.621,0,.709.307,1.241,2.258a24.136,24.136,0,0,1,.665,2.752C466.348,333.765,465.018,334.034,464.71,334.034Zm12.544-14.722c0,6.343-.089,12.813-1.773,18.976-.665,2.441-1.153,4.17-2.084,4.17-.842,0-3.236-.934-3.236-1.909a4.361,4.361,0,0,1,.4-1.286c2.66-6.293,2.66-13.253,2.66-19.992v-12.1c0-1.064-.044-2.039-.133-2.97,0-.133-.044-.355-.044-.488,0-.576.355-.665.842-.665.621,0,3.148.177,3.813.266.266.044.665.133.665.532,0,.31-.222.4-.532.576-.532.31-.576.754-.576,2.172Zm2.926-7.844c0-1.241,0-1.862-.089-2.926,0-.18-.089-.754-.089-1.108,0-.488.31-.532.709-.532.709,0,2.66.133,3.458.177.355,0,1.02.041,1.02.576,0,.266-.222.355-.488.573-.488.4-.532,1.2-.532,2.929v19.15c0,1.909.13,3.86.13,5.808,0,1.244-.4,1.289-2.125,1.289-1.685,0-2.128-.044-2.128-1.289,0-1.948.133-3.9.133-5.808Zm7.271-3.24c0-1.416-.089-2.923-.18-4.076,0-.177-.041-.358-.041-.532,0-.488.355-.532.754-.532.709,0,2.7.133,3.458.177.355.044,1.064.044,1.064.529,0,.313-.266.446-.532.624-.443.355-.488,1.33-.488,2.749v27.488c0,2.261.086,4.567.086,6.869,0,1.241-.4,1.289-2.125,1.289-1.688,0-2.128-.047-2.128-1.289,0-2.3.133-4.608.133-6.869Z" transform="translate(220.342 47.455)" fill="#6a534e"/>
      <path id="パス_19290" data-name="パス 19290" d="M488.67,333.146c0-.266-.133-.576-.446-.576a.674.674,0,0,0-.4.174,44.484,44.484,0,0,1-12.636,8.072,5.286,5.286,0,0,1-1.6.529c-.975,0-2.483-2.571-2.483-3.366,0-.488.488-.712.975-.887l.358-.133a42.994,42.994,0,0,0,11.923-6.606c.133-.133.222-.177.222-.358,0-.13-.133-.355-.488-.4h-6.384c-1.773,0-3.5.133-5.273.133-1.108,0-1.067-.532-1.067-2.128s0-2.084,1.067-2.084c1.726,0,3.5.089,5.273.089h9.709c.842,0,1.2-.31,1.241-1.156-.044-.529-.177-2.125-.177-2.217,0-.529.4-.621.839-.621.8,0,2.8.133,3.638.225.662.041,1.283.041,1.283.621,0,.31-.174.4-.488.662a1.389,1.389,0,0,0-.488,1.33c-.041.845.4,1.156,1.2,1.156h9.8c1.773,0,3.5-.089,5.273-.089,1.067,0,1.067.488,1.067,2.084,0,1.64,0,2.128-1.067,2.128-1.77,0-3.5-.133-5.273-.133h-6.517c-.266.041-.488.133-.488.4a.364.364,0,0,0,.177.358,50.516,50.516,0,0,0,12.059,6.825c.621.222,1.33.446,1.33,1.023,0,.754-1.6,3.189-2.571,3.189-.8,0-3.018-1.153-3.813-1.549a48.475,48.475,0,0,1-10.33-7.1.482.482,0,0,0-.4-.174c-.355,0-.446.263-.488.576v3.544c0,1.552.133,3.106.133,4.655,0,1.463-.532,1.463-2.394,1.463-1.818,0-2.394,0-2.394-1.463s.089-3.012.089-4.655Zm-5.719-16.493a94.23,94.23,0,0,1-7.626,5.716c-.576.4-.662.4-.709.8-.044.355-.133.842-.576.842-.485,0-2.749-3.192-2.749-3.547,0-.4.443-.532.709-.668a61.584,61.584,0,0,0,8.779-6.2c.177-.177.532-.532.8-.532.709,0,1.995,2.036,1.995,2.7C483.571,316.121,483.172,316.476,482.951,316.653Zm-6.606-2.483c-.355,0-.709-.4-.975-.621a32.242,32.242,0,0,0-3.281-2.749c-.263-.222-.576-.443-.576-.8,0-.579,1.507-2.438,2.172-2.438.532,0,2.35,1.6,2.838,1.992.532.446,2.084,1.6,2.084,2.308A4.417,4.417,0,0,1,476.345,314.171Zm3.99-4.655c-.266,0-.665-.443-.887-.621a39.614,39.614,0,0,0-3.281-2.8c-.355-.263-.621-.44-.621-.8,0-.532,1.507-2.306,2.217-2.306.532,0,2.172,1.419,2.616,1.818.532.443,2.261,1.773,2.261,2.391C482.64,307.786,481.044,309.515,480.335,309.515Zm4.744,2.35c-1.02,0-.975-.579-.975-2.084s-.044-2.084.975-2.084c1.153,0,2.524.089,3.946.089h.754c.887,0,1.283-.31,1.374-1.2v-1.108c0-.532-.044-1.108-.044-1.6,0-.662.177-.8.621-.8.576,0,2.7.177,3.278.266.757.089,1.6.089,1.6.576,0,.31-.4.532-.621.665a.844.844,0,0,0-.441.8c0,.4-.047.8-.047,1.2,0,.842.313,1.2,1.108,1.2h.845c1.017,0,1.992-.089,2.968-.089,1.375,0,2.175.4,2.175,1.859,0,.712-.044,1.377-.044,2.084l-.136,5.013c-.041,1.507-.041,2,1.067,2h1.286c.706,0,1.552.177,1.906-4.038.041-.839.089-1.241,1.017-1.241a6.243,6.243,0,0,1,2.35.535,1.141,1.141,0,0,1,.842,1.153,16.2,16.2,0,0,1-1.416,5.583c-.975,1.909-2.53,1.954-4.434,1.954h-2.264c-2.879,0-4.7-.225-4.7-3.635,0-.535.047-1.108.047-1.643l.086-4.342c0-.842-.4-1.2-1.241-1.2H495.9a1.4,1.4,0,0,0-1.6,1.108c-2.131,6.21-8.069,10.688-9.4,10.688-.931,0-2.882-2.084-2.882-2.838,0-.4.488-.579.8-.712a16.409,16.409,0,0,0,6.872-7.138,1.044,1.044,0,0,0,.089-.4c0-.532-.4-.665-.887-.712C487.6,311.774,486.187,311.865,485.079,311.865Z" transform="translate(256.455 47.367)" fill="#6a534e"/>
      <path id="パス_19291" data-name="パス 19291" d="M503.764,304.262c.266.044.712.177.712.488a.991.991,0,0,1-.358.665,3.985,3.985,0,0,0-.709,2.66.686.686,0,0,0,.709.754,25.189,25.189,0,0,0,3.591-.978,1.773,1.773,0,0,1,.535-.086c.839,0,1.061,2.882,1.061,3.544,0,1.108-.706,1.108-4.83,1.954-1.153.222-1.507.488-1.6,1.685-.044.975-.31,5.453-.31,6.163a5.52,5.52,0,0,0,.133,1.2,10,10,0,0,1,.133,1.6,15.972,15.972,0,0,1-.709,4.3,22.706,22.706,0,0,0-.887,4.522c0,2.35,3.987,2.128,5.586,2.128,1.951,0,5.9-.086,7.36-1.549,1.017-1.023,1.283-3.192,1.416-4.614.092-1.374.092-2.084,1.156-2.084.975,0,3.724.842,3.724,2.084a16.026,16.026,0,0,1-2.264,7.049c-1.416,1.865-3.37,2.572-5.586,3.018a36.078,36.078,0,0,1-6.913.576c-4.123,0-8.823-.535-8.823-5.764a8.93,8.93,0,0,1,.266-1.862c0-.092.044-.18.044-.266a.456.456,0,0,0-.488-.443,2.132,2.132,0,0,0-.488.13,2.284,2.284,0,0,1-.8.18c-3.281,0-4.345-3.727-4.345-6.432,0-3.145,1.593-7.357,5.406-7.357.621,0,1.067.177,1.466.177.488,0,.532-.576.532-2.087,0-.573,0-1.15-.621-1.15-.177,0-1.419.174-1.685.222-.842.089-3.281.44-4.035.44-.665,0-.887-.307-1.064-.884a21.643,21.643,0,0,1-.4-2.929c0-.839.355-.839,1.064-.839a36.189,36.189,0,0,0,5.9-.443c.975-.266.975-1.33.975-2.175a16.867,16.867,0,0,0-.269-3.325c0-.13-.041-.352-.041-.485,0-.355.222-.488.576-.488S503.276,304.174,503.764,304.262Zm-8.776,20.527c0,.795.222,2.35,1.286,2.35,1.419,0,2.217-2.438,2.217-3.591,0-.89-.621-2.039-1.64-2.039C495.385,321.509,494.989,323.681,494.989,324.79Zm28.86-7.049c0,.754-2.438,2.79-3.145,2.79-.535,0-.89-.618-1.241-1.108a27.973,27.973,0,0,0-5.368-5.14c-.263-.177-.576-.443-.576-.757,0-.662,1.818-2.79,2.619-2.79C517.464,310.735,523.848,316.676,523.848,317.74Z" transform="translate(294.738 48.453)" fill="#6a534e"/>
    </g>
    <g id="グループ_2281" data-name="グループ 2281" transform="translate(250.461 293.371)">
      <path id="パス_15439" data-name="パス 15439" d="M2480.284,1750.1h.008a.685.685,0,0,1,.676.653c.344,7.485,1.16,15.146,4.765,20.467,3.624,5.346,9.673,7.838,19.038,7.838a.684.684,0,0,1,.051,1.366c-9.674.714-15.006,2.629-18.4,6.613-3.418,4.007-5.045,10.492-5.442,21.685a.685.685,0,0,1-.684.66h0a.684.684,0,0,1-.683-.66c-.308-9-1.182-15.929-4.446-20.519-3.16-4.442-8.511-6.828-17.891-7.978a.684.684,0,0,1,.022-1.36c9.09-.818,14.581-3.382,17.8-8.316,2.947-4.509,3.883-10.679,4.506-19.811A.684.684,0,0,1,2480.284,1750.1Zm17.612,29.789a24.8,24.8,0,0,1-5.724-1.668,17.149,17.149,0,0,1-7.572-6.234c-2.5-3.693-3.725-8.38-4.369-13.349-.7,5.3-1.835,9.36-3.989,12.659a16.841,16.841,0,0,1-6.972,6.038,28.4,28.4,0,0,1-7.2,2.263c7.013,1.4,11.379,3.835,14.208,7.811,2.239,3.147,3.415,7.251,4.052,12.256.872-6.278,2.485-10.513,5.049-13.518a17.157,17.157,0,0,1,7.663-5.005A32.679,32.679,0,0,1,2497.9,1779.891Z" transform="translate(-1722.34 -850.139)" fill="#452f27"/>
      <path id="パス_15440" data-name="パス 15440" d="M2486.23,1768.738h.007a.685.685,0,0,1,.676.653c.443,9.629,2.554,14.848,12.423,14.848a.684.684,0,0,1,.05,1.366c-5.085.374-7.875,1.367-9.633,3.428-1.778,2.085-2.627,5.5-2.838,11.412a.684.684,0,0,1-.683.66h0a.684.684,0,0,1-.683-.661c-.163-4.757-.619-8.416-2.322-10.808-1.635-2.3-4.433-3.536-9.358-4.139a.684.684,0,0,1,.022-1.36c9.657-.87,11.015-5.383,11.656-14.762A.684.684,0,0,1,2486.23,1768.738Zm7.96,16.258a10,10,0,0,1-5.913-4.046,14.634,14.634,0,0,1-2.076-5.356c-.922,4.6-2.958,7.843-8.312,9.257,5.19,1.374,7.411,4.118,8.372,8.836a12.135,12.135,0,0,1,2.453-5.542A10.042,10.042,0,0,1,2494.19,1785Z" transform="translate(-1693.195 -817.42)" fill="#452f27"/>
      <path id="パス_15439-2" data-name="パス 15439" d="M2481.841,1750.1a.683.683,0,0,1,.682.637c.623,9.132,1.56,15.3,4.506,19.811,3.223,4.934,8.713,7.5,17.8,8.316a.684.684,0,0,1,.022,1.36c-9.38,1.15-14.731,3.536-17.891,7.978-3.265,4.59-4.139,11.522-4.447,20.519a.684.684,0,0,1-.683.66h0a.684.684,0,0,1-.684-.66c-.4-11.193-2.024-17.679-5.442-21.685-3.4-3.984-8.73-5.9-18.4-6.613a.684.684,0,0,1,.051-1.366c9.365,0,15.414-2.491,19.038-7.838,3.606-5.321,4.422-12.981,4.766-20.467a.684.684,0,0,1,.676-.653Zm18.215,29.5a28.409,28.409,0,0,1-7.2-2.263,16.843,16.843,0,0,1-6.972-6.038c-2.154-3.3-3.285-7.361-3.988-12.659-.645,4.968-1.867,9.655-4.37,13.349a17.148,17.148,0,0,1-7.571,6.234,24.8,24.8,0,0,1-5.724,1.668,32.676,32.676,0,0,1,4.855,1.253,17.156,17.156,0,0,1,7.664,5.005c2.563,3.005,4.177,7.239,5.049,13.518.637-5.006,1.813-9.109,4.052-12.256C2488.677,1783.435,2493.043,1781,2500.056,1779.6Z" transform="translate(-2464.708 -850.139)" fill="#452f27"/>
      <path id="パス_15440-2" data-name="パス 15440" d="M2487.06,1768.738a.684.684,0,0,1,.682.637c.64,9.379,2,13.892,11.655,14.762a.684.684,0,0,1,.022,1.36c-4.924.6-7.723,1.841-9.358,4.139-1.7,2.392-2.159,6.051-2.321,10.808a.684.684,0,0,1-.683.661h0a.684.684,0,0,1-.684-.66c-.21-5.914-1.059-9.327-2.838-11.412-1.757-2.06-4.548-3.054-9.632-3.428a.684.684,0,0,1,.05-1.366c9.869,0,11.98-5.219,12.423-14.848a.684.684,0,0,1,.676-.653Zm8.342,16.113c-5.354-1.414-7.391-4.656-8.312-9.257a14.659,14.659,0,0,1-2.075,5.356A10.006,10.006,0,0,1,2479.1,1785a10.043,10.043,0,0,1,5.476,3.149,12.135,12.135,0,0,1,2.454,5.542C2487.99,1788.969,2490.212,1786.225,2495.4,1784.851Z" transform="translate(-2505.017 -817.42)" fill="#452f27"/>
    </g>
  </g>
</svg>
