<svg xmlns="http://www.w3.org/2000/svg" width="285.253" height="142.626" viewBox="0 0 285.253 142.626">
  <g id="グループ_1750" data-name="グループ 1750" transform="translate(-1313.87 -1567.24)">
    <path id="パス_15709" data-name="パス 15709" d="M1599.123,1567.24a142.627,142.627,0,0,1-285.253,0" transform="translate(0 0)" fill="#705772"/>
    <g id="グループ_493" data-name="グループ 493" transform="translate(1418.754 1605.062)">
      <g id="グループ_492" data-name="グループ 492" transform="translate(0 0)">
        <path id="パス_3953" data-name="パス 3953" d="M1685.124,131.4c-3.483,6.469-8.672,9.738-15.423,9.738s-11.941-3.27-15.424-9.738c-2.772-5.188-4.194-11.514-4.194-18.906s1.422-13.718,4.194-18.907c3.483-6.468,8.672-9.737,15.424-9.737s11.941,3.27,15.423,9.737c2.844,5.26,4.264,11.586,4.264,18.907S1687.968,126.141,1685.124,131.4Zm-7.818-30.208c-1.635-4.62-4.193-6.965-7.605-6.965-3.34,0-5.9,2.346-7.534,6.965a35.476,35.476,0,0,0,0,22.6c1.635,4.62,4.194,6.965,7.534,6.965,3.412,0,5.97-2.345,7.605-6.965a35.473,35.473,0,0,0,0-22.6Z" transform="translate(-1650.083 -83.85)" fill="#fff"/>
        <path id="パス_3954" data-name="パス 3954" d="M1740.754,103.695c6.61,4.194,9.951,9.951,9.951,17.272a20.518,20.518,0,0,1-5.472,14.287A26.945,26.945,0,0,1,1731.869,143l-2.63-9.809a17.507,17.507,0,0,0,7.89-4.193,10.65,10.65,0,0,0,3.411-7.961c0-6.965-4.478-11.515-13.5-13.576,1.634-2.843,4.194-7.036,7.534-12.651h-13.362V85.428h30.634Z" transform="translate(-1676.358 -84.433)" fill="#fff"/>
      </g>
    </g>
  </g>
</svg>
