<svg xmlns="http://www.w3.org/2000/svg" width="938.538" height="297.78" viewBox="0 0 938.538 297.78">
  <g id="グループ_1633" data-name="グループ 1633" transform="translate(-10.762 -4926.45)">
    <g id="グループ_2433" data-name="グループ 2433">
      <g id="グループ_1635" data-name="グループ 1635">
        <path id="パス_1808" data-name="パス 1808" d="M315.99,2906.05c1.46.54,2.6,1.51,2.6,2.05,0,.65-.94,1.18-1.46,1.51-1.77,1.08-2.18,2.48-2.81,4.31-1.87,5.92-6.03,16.58-8.94,21.85a4.418,4.418,0,0,0-.73,2.26,3.347,3.347,0,0,0,1.66,2.8,69.323,69.323,0,0,1,5.61,4.63c1.14,1.08,1.87,2.05,1.87,2.58,0,1.83-6.97,12.7-9.67,12.7-.94,0-1.98-1.08-2.6-1.72a59.8,59.8,0,0,0-4.68-4.09,4.164,4.164,0,0,0-2.08-1.08,2.972,2.972,0,0,0-2.29,1.4,87.447,87.447,0,0,1-17.26,16.36c-2.7,1.94-14.24,9.37-17.05,9.37-1.98,0-5.61-4.41-7.07-6.14-1.14-1.29-3.64-4.31-3.64-5.6,0-1.51,2.18-2.37,3.64-2.91a6.784,6.784,0,0,0,.73-.32c10.71-4.31,18.51-10.12,26.41-18.73.83-.86,1.56-1.61,1.56-2.58a2.44,2.44,0,0,0-1.25-2.05,105.908,105.908,0,0,0-10.09-4.2c-1.14-.43-2.18-.97-2.18-2.37,0-1.29,1.56-5.06,2.18-6.35,1.04-2.15,3.02-6.35,5.41-6.35,1.98,0,10.92,4.2,13,5.27a5.569,5.569,0,0,0,1.87.65c1.77,0,2.5-1.51,3.22-2.91,3.33-6.78,6.45-15.82,7.28-23.36.1-.75.31-2.8,1.25-2.8,1.66,0,9.77,3.55,15.49,5.81Z" transform="translate(-107.2 2128)" fill="#fff"/>
        <path id="パス_1809" data-name="パス 1809" d="M416.23,2968.16c0,2.91.1,5.81.1,8.72,0,1.94.1,3.98.1,6.03,0,3.34-1.77,3.44-6.97,3.44H405.2c-4.89,0-5.61-.65-5.61-3.12,0-4.84.21-9.69.21-14.53v-24.01c0-1.61-.52-2.69-1.87-2.69-.94,0-2.29,1.08-3.02,1.61-2.81,2.05-17.16,11.95-19.55,11.95s-12.17-9.9-12.17-12.7c0-1.18,1.25-1.61,2.18-1.94,5.51-2.15,15.18-7.86,20.27-11.2a125.784,125.784,0,0,0,26.51-23.25,111.288,111.288,0,0,0,9.57-13.46c.21-.54.62-1.29,1.35-1.29,1.56,0,10.29,6.57,13.41,8.94,1.25.97,2.08,2.05,2.08,2.69,0,.75-.73.97-1.35,1.18a6.5,6.5,0,0,0-3.74,1.83c-2.5,2.58-7.07,8.5-14.87,16.69-1.66,1.83-2.39,3.12-2.39,5.49v39.62Z" transform="translate(-107.2 2128)" fill="#fff"/>
        <path id="パス_1810" data-name="パス 1810" d="M545.79,2910.03a21.527,21.527,0,0,0,5.82-.75,4.044,4.044,0,0,1,1.14-.11c3.12,0,8.53,7.86,8.53,9.37,0,.75-1.35,2.91-1.87,3.77-1.04,1.72-1.98,3.55-2.91,5.38-12.89,25.19-23.6,40.26-48.14,54.36-1.56.86-5.41,3.01-6.76,3.01-1.87,0-6.34-4.09-8.01-5.6-1.25-1.18-3.64-3.44-3.64-4.95,0-1.18,1.46-1.94,2.81-2.69.31-.11.62-.32.94-.43,16.74-8.18,30.05-19.48,40.13-35.52,1.14-1.83,4.16-6.89,4.16-8.94,0-1.4-1.46-1.51-2.7-1.51H520.42c-1.77,0-2.6,1.29-3.54,2.58a130.281,130.281,0,0,1-9.15,11.2c-1.35,1.51-6.24,6.89-7.9,6.89-2.08,0-9.57-5.27-11.33-6.78a3.941,3.941,0,0,1-1.35-2.48,2.32,2.32,0,0,1,1.04-1.72,88.155,88.155,0,0,0,16.53-17.87c4.26-6.03,9.46-14.75,11.96-21.75.52-1.4,1.04-3.01,1.87-3.01.94,0,11.75,5.6,13.52,6.57,1.25.54,2.5,1.08,2.5,1.94,0,.54-.52.75-.94.97-2.5,1.4-4.16,5.38-4.16,6.14,0,1.18.94,1.72,1.98,1.94H545.8Z" transform="translate(-107.2 2128)" fill="#fff"/>
        <path id="パス_1811" data-name="パス 1811" d="M632.4,2944.15c1.14.65,1.98,1.51,1.98,2.15,0,.54-.62.86-1.04,1.08a8.233,8.233,0,0,0-2.91,2.8c-2.6,3.23-16.12,19.27-19.34,19.27-2.08,0-10.4-7.86-10.4-10.55,0-1.08,1.77-2.37,2.6-3.01a54.27,54.27,0,0,0,14.35-16.26c.42-.75.94-1.83,1.98-1.83,1.46,0,8.94,4.2,12.79,6.35Zm3.43-27.34c2.7,0,2.91-2.37,2.91-4.09v-.97a103.709,103.709,0,0,0-.52-11.41c0-.43-.1-.97-.1-1.51,0-1.29,1.04-1.51,2.5-1.51,1.56,0,12.37,1.29,14.24,1.61.62.11,1.77.32,1.77,1.18a2.662,2.662,0,0,1-1.04,1.72,4.424,4.424,0,0,0-1.25,3.55v1.4c0,1.61-.1,3.23-.1,4.95v.97c0,1.72.31,4.09,2.81,4.09h13.41c4.78,0,10.81-.32,14.76-.32,2.5,0,2.91,1.29,2.91,5.27v5.49c0,3.98-.42,5.38-3.33,5.38-4.78,0-9.57-.11-14.35-.11h-13a3.2,3.2,0,0,0-3.22,3.23v22.07c0,2.15.1,4.41.1,6.67,0,5.6-.52,10.98-4.16,13.89-3.43,2.69-11.85,5.06-16.22,5.06-1.87,0-2.39-.65-3.95-3.66-.94-1.94-3.54-7.97-3.54-9.9,0-1.61,2.29-1.72,3.43-1.83,8.11-.43,8.84-1.51,8.84-9.47v-22.82a3.207,3.207,0,0,0-3.22-3.23H621.68c-4.58,0-9.05.22-13.62.22-2.81,0-3.22-1.94-3.22-5.6v-5.27c0-4.52.52-5.38,2.91-5.38,1.35,0,9.36.32,13.93.32h14.14Zm45.75,29.28c1.98,1.94,9.57,9.47,9.57,11.95,0,2.8-8.01,10.77-10.29,10.77-1.14,0-2.7-2.05-4.89-4.95a96.609,96.609,0,0,0-13.2-13.89c-.73-.65-1.66-1.4-1.66-2.37,0-1.83,2.7-4.84,3.95-6.14,2.29-2.58,3.54-3.98,5.2-3.98,3.02,0,9.15,6.35,11.33,8.61Zm13.2-44.14a10.817,10.817,0,1,1-10.81-11.2A11.025,11.025,0,0,1,694.78,2901.95Zm-16.32,0a5.585,5.585,0,0,0,5.51,5.71,5.714,5.714,0,1,0-5.51-5.71Z" transform="translate(-107.2 2128)" fill="#fff"/>
        <path id="パス_1812" data-name="パス 1812" d="M784.32,2968.16c0,2.91.1,5.81.1,8.72,0,1.94.1,3.98.1,6.03,0,3.34-1.77,3.44-6.97,3.44h-4.26c-4.89,0-5.61-.65-5.61-3.12,0-4.84.21-9.69.21-14.53v-24.01c0-1.61-.52-2.69-1.87-2.69-.94,0-2.29,1.08-3.02,1.61-2.81,2.05-17.16,11.95-19.55,11.95s-12.17-9.9-12.17-12.7c0-1.18,1.25-1.61,2.18-1.94,5.51-2.15,15.18-7.86,20.27-11.2a125.783,125.783,0,0,0,26.51-23.25,111.288,111.288,0,0,0,9.57-13.46c.21-.54.62-1.29,1.35-1.29,1.56,0,10.29,6.57,13.41,8.94,1.25.97,2.08,2.05,2.08,2.69,0,.75-.73.97-1.35,1.18a6.5,6.5,0,0,0-3.74,1.83c-2.5,2.58-7.07,8.5-14.87,16.69-1.66,1.83-2.39,3.12-2.39,5.49v39.62Z" transform="translate(-107.2 2128)" fill="#fff"/>
        <path id="パス_1813" data-name="パス 1813" d="M934.46,2922.95c.21.32.31.75.62,1.18.73,1.61,1.77,3.88,1.77,5.06,0,2.58-8.42,10.87-10.61,13.03-16.74,16.9-33.48,26.59-54.27,36.92-2.08,1.08-1.98,1.29-2.81,2.8a.918.918,0,0,1-.83.65c-.83,0-1.46-.97-1.87-1.72a95.674,95.674,0,0,1-4.89-8.29c-.73-1.29-3.02-5.27-3.02-6.46,0-.97,1.14-1.51,1.98-1.72a107.509,107.509,0,0,0,26.62-11.84c12.79-7.86,28.8-21.31,37.53-33.69.21-.32.42-.54.62-.86.94-1.4,1.77-2.58,2.91-2.58,2.08,0,5.3,5.81,6.24,7.54Zm-62.59-21.96a119.192,119.192,0,0,1,18.3,13.56,2.352,2.352,0,0,1,.94,1.94c0,3.12-7.38,11.84-9.77,11.84-.94,0-1.98-.97-2.6-1.61a107.484,107.484,0,0,0-17.47-12.6c-.83-.54-1.87-1.18-1.87-2.26,0-2.15,6.24-12.38,9.25-12.38A10.353,10.353,0,0,1,871.87,2900.99Z" transform="translate(-107.2 2128)" fill="#fff"/>
        <path id="パス_1814" data-name="パス 1814" d="M1008.39,2970.64c0,3.55.1,7.1.1,10.77,0,5.17-.31,5.6-7.07,5.6h-4.68c-4.16,0-5.41-.54-5.41-3.34,0-4.31.21-8.5.21-12.81v-62.11c0-4.41-.21-10.01-.21-13.35,0-1.4.21-2.05,1.66-2.05,1.25,0,13.52,1.4,16.01,2.15a1.467,1.467,0,0,1,1.14,1.29,1.891,1.891,0,0,1-.62,1.29,5.725,5.725,0,0,0-1.14,3.88v20.88c0,.54.1,1.51,1.25,1.51.62,0,1.25-.43,1.77-.43.83,0,2.18.75,3.85,1.72,3.33,2.15,7.59,5.6,8.94,6.67a123.477,123.477,0,0,1,9.57,8.72,2.811,2.811,0,0,1,.73,1.72c0,2.15-7.59,10.87-9.98,10.87-.94,0-1.98-1.08-2.6-1.72-1.77-1.72-10.29-9.69-11.96-9.69-1.46,0-1.56,1.51-1.56,2.58v25.84Z" transform="translate(-107.2 2128)" fill="#fff"/>
      </g>
      <g id="グループ_1639" data-name="グループ 1639">
        <path id="パス_1595" data-name="パス 1595" d="M1042.82,2837.69c.27.19.55.4,1.07.77.79-.22,1.79-.5,2.64-.74.76.55,1.31.95,1.82,1.31a2.484,2.484,0,0,1,2.03.18c.34.24.97.06,1.69.08a32.943,32.943,0,0,1,3.21,2.22c.42.67.15,1.71,1.12,2.14.13.06.09.53.1.66-1.21.27-2.39.53-3.43.76-.44-.28-.73-.46-1.02-.64-.86.14-1.72.28-2.74.44-.46-.3-1.02-.67-1.64-1.07a11.362,11.362,0,0,0-2.98.31c-.29-.18-.58-.35-.92-.56-.97.13-1.99.27-2.98.41-.86-.62-1.71-1.23-2.54-1.83a14.477,14.477,0,0,0-.64-3.02c-.57-.6-1.64-.72-1.65-1.86.68-.08,1.36-.17,2.1-.26a2.352,2.352,0,0,0,2.33.32c.29.19.58.37.89.57.48-.06.99-.13,1.52-.2Z" transform="translate(-107.2 2128)" fill="#705772"/>
        <path id="パス_1596" data-name="パス 1596" d="M1050.87,2827.4c-.24.29-.42.74-.68.79-1.88.36-3.78.64-5.68.95-.22.26-.43.53-.64.79-.53.25-.93.01-1.41-.2a5.287,5.287,0,0,0-1.73-.09,32.613,32.613,0,0,1-3.19-2.21,3.981,3.981,0,0,1-.37-2.35c.87-.14,1.73-.28,2.59-.42,1.12-1.07,1.2-1.08,2.28-.51,1.4-.15,2.6-.29,3.74-.41.48-.66.88-1.22,1.2-1.67,1.31-.25,2.51-.47,3.63-.68,1.2.87,2.33,1.68,3.45,2.49.12.71.23,1.4.34,2.09-.18.29-.36.58-.57.89-.99.19-2,.37-2.99.56Z" transform="translate(-107.2 2128)" fill="#705772"/>
        <path id="パス_1597" data-name="パス 1597" d="M990.08,2806.41a1.615,1.615,0,0,0,1.64-1.01c-.04-.41-.1-.92-.15-1.42,1.39-.08,1.44-.06,1.77,1.81.49.35,1.04.75,1.49,1.07a13.854,13.854,0,0,1,.7,3.16c.26.19.54.39.81.58.11.53.21,1.03.31,1.55.27.19.55.4.85.61a2.286,2.286,0,0,0,1.08,2.15c-.31,1.35,1.51,1.86,1.27,3.18.5.46.99.91,1.65,1.51a5.488,5.488,0,0,1,.38,2.26c-.22.26-.44.51-.66.77-.69.11-1.37.22-2.07.33-.56-.4-1.12-.81-1.69-1.22-.1-.5-.2-1-.3-1.52-.55-.4-1.11-.8-1.63-1.18-.12-.54-.22-1.04-.33-1.57-.56-.4-1.11-.8-1.63-1.18-.15-.92-.29-1.78-.45-2.75-.48-.34-1.02-.74-1.21-.87-.88-.94-.3-2.17-1.69-2.4-.04-1.22-.08-2.43-.12-3.87Z" transform="translate(-107.2 2128)" fill="#705772"/>
        <path id="パス_1598" data-name="パス 1598" d="M1013.37,2799.64q.42,2.565.83,5.12-.315.435-.6.84c.07.52.13,1.03.2,1.52-.2.31-.39.6-.57.89.14.86.28,1.71.42,2.59-.03.63-.65,1.07-.48,1.85.37,1.68.58,3.4.86,5.11-.71.11-1.39.23-2.14.35-.52-.37-1.07-.77-1.71-1.23-.09-.4-.19-.89-.31-1.44-.24-.17-.51-.37-.73-.52-.47-.8.26-1.28.36-1.89-.22-1.39-.45-2.76-.67-4.15.19-.26.39-.54.59-.81-.14-1.03-.29-2.05-.42-3.02.21-.33.39-.62.57-.9-.05-.66-.39-1.31.17-1.95.39-.44.06-.98.02-1.62.19-.32.45-.74.71-1.16a1.349,1.349,0,0,1,1.22-.77c.56.4,1.12.81,1.68,1.21Z" transform="translate(-107.2 2128)" fill="#705772"/>
        <path id="パス_1599" data-name="パス 1599" d="M1030.28,2811.36a28.755,28.755,0,0,1,2.29-3.39c.64-.55,1.87,0,2.12-1.67,0-.02-.06-.53-.11-1.04.46-.1.95-.21,1.41-.32-.06-.51-.11-1.02-.16-1.5.25-.29.48-.54.7-.8,1.03-.24,1.47.75,2.35,1.14.04.62.09,1.31.16,2.26-.23.31-.62.86-1.02,1.42.04.55.08,1.05.13,1.66-1.57,2.17-3.19,4.43-4.82,6.69.06.54.11,1.05.18,1.6-.17.24-.38.52-.58.8-.73.42-1.22-.44-1.85-.39-.69.06-1.36.28-2.02-.47-.1-.52-.23-1.19-.35-1.81a1.233,1.233,0,0,1,.1-.52,14.91,14.91,0,0,1,1.23-1.69,1.97,1.97,0,0,0,.26-1.97Z" transform="translate(-107.2 2128)" fill="#705772"/>
      </g>
      <g id="グループ_1640" data-name="グループ 1640">
        <path id="パス_1795" data-name="パス 1795" d="M444.22,3064.71h-3.4v-11.09H427.56v11.09h-3.39v-25.3h3.39v10.96h13.26v-10.96h3.4Z" transform="translate(-107.2 2128)" fill="#705772"/>
        <path id="パス_1796" data-name="パス 1796" d="M461.19,3039.4v25.3h-3.4v-25.3Z" transform="translate(-107.2 2128)" fill="#705772"/>
        <path id="パス_1797" data-name="パス 1797" d="M496.82,3039.4v26.14h-.11l-18.58-18.87.07,18.03h-3.43v-26.08h.17l18.55,19.08-.07-18.3h3.4Z" transform="translate(-107.2 2128)" fill="#705772"/>
        <path id="パス_1798" data-name="パス 1798" d="M523.67,3058.06h-9.73l-2.69,6.65h-3.36l11.06-26.36h.21l11.06,26.36H526.3l-2.62-6.65Zm-1.16-2.94-3.6-9.24-3.75,9.24Z" transform="translate(-107.2 2128)" fill="#705772"/>
        <path id="パス_1799" data-name="パス 1799" d="M538.82,3044.13a4.91,4.91,0,0,0,1.03-1.59,5.04,5.04,0,0,0,.4-1.98,6.565,6.565,0,0,0-.07-.8l2.62-.25a5.274,5.274,0,0,1,.07.77,6.154,6.154,0,0,1-2.41,4.69l-1.64-.84Z" transform="translate(-107.2 2128)" fill="#705772"/>
        <path id="パス_1800" data-name="パス 1800" d="M581.7,3042.73a10.424,10.424,0,0,0-2.91-.45,5.21,5.21,0,0,0-3.27.93,3.013,3.013,0,0,0-1.21,2.54,2.97,2.97,0,0,0,1.42,2.57,18.946,18.946,0,0,0,4.04,1.98,18.092,18.092,0,0,1,3.31,1.52,6.7,6.7,0,0,1,2.24,2.28,7,7,0,0,1,.89,3.69,6.887,6.887,0,0,1-1.01,3.67,7.007,7.007,0,0,1-2.89,2.59,9.629,9.629,0,0,1-4.39.95,13.783,13.783,0,0,1-4.52-.75,15.092,15.092,0,0,1-3.81-1.91l1.5-2.7a12.084,12.084,0,0,0,3.12,1.66,9.551,9.551,0,0,0,3.39.68,6.091,6.091,0,0,0,3.55-1.05,3.546,3.546,0,0,0,1.52-3.11,3.391,3.391,0,0,0-1.28-2.78,13.852,13.852,0,0,0-3.59-1.94,28.276,28.276,0,0,1-3.55-1.58,7.34,7.34,0,0,1-2.43-2.12,5.434,5.434,0,0,1-1.02-3.38,6.1,6.1,0,0,1,2.08-4.81,8.315,8.315,0,0,1,5.41-1.94,14.882,14.882,0,0,1,7.59,2.03l-1.29,2.62a15.1,15.1,0,0,0-2.9-1.19Z" transform="translate(-107.2 2128)" fill="#705772"/>
        <path id="パス_1801" data-name="パス 1801" d="M631.03,3064.3a11.726,11.726,0,0,1-4.08.68,13.411,13.411,0,0,1-6.84-1.71,11.81,11.81,0,0,1-4.55-4.62,13.131,13.131,0,0,1-1.59-6.41,14.044,14.044,0,0,1,1.61-6.74,11.85,11.85,0,0,1,4.46-4.69,12.39,12.39,0,0,1,6.46-1.7,13.925,13.925,0,0,1,7.32,2.03l-1.37,3.18a10.344,10.344,0,0,0-5.84-1.96,8.449,8.449,0,0,0-4.53,1.29,9.553,9.553,0,0,0-3.33,3.52,9.811,9.811,0,0,0-1.24,4.88,10.711,10.711,0,0,0,1.14,4.93,8.381,8.381,0,0,0,3.25,3.45,10.147,10.147,0,0,0,10.8-.68l1.43,3.04a15.216,15.216,0,0,1-3.1,1.49Z" transform="translate(-107.2 2128)" fill="#705772"/>
        <path id="パス_1802" data-name="パス 1802" d="M646.3,3045.63a13.367,13.367,0,0,1,4.71-4.74,12.637,12.637,0,0,1,12.9,0,13.451,13.451,0,0,1,4.74,4.74,12.365,12.365,0,0,1,1.77,6.44,12.547,12.547,0,0,1-1.75,6.47,13.052,13.052,0,0,1-4.74,4.71,12.866,12.866,0,0,1-19.38-11.18,12.261,12.261,0,0,1,1.75-6.44Zm3.01,11.27a9.42,9.42,0,0,0,3.45,3.5,9.24,9.24,0,0,0,4.78,1.29,9.209,9.209,0,0,0,8.13-4.78,10.073,10.073,0,0,0-.02-9.72,9.4,9.4,0,0,0-3.43-3.54,9.364,9.364,0,0,0-9.52.02,9.449,9.449,0,0,0-3.41,3.55,9.856,9.856,0,0,0-1.24,4.87,9.419,9.419,0,0,0,1.26,4.79Z" transform="translate(-107.2 2128)" fill="#705772"/>
        <path id="パス_1803" data-name="パス 1803" d="M707.59,3038.6v26.11h-3.36v-16.38l-9.31,13.2h-.07l-9.13-12.74v15.92h-3.29V3038.6h.03l12.46,17.64,12.64-17.64h.04Z" transform="translate(-107.2 2128)" fill="#705772"/>
        <path id="パス_1804" data-name="パス 1804" d="M746.33,3038.6v26.11h-3.36v-16.38l-9.31,13.2h-.07l-9.13-12.74v15.92h-3.29V3038.6h.03l12.46,17.64,12.64-17.64h.04Z" transform="translate(-107.2 2128)" fill="#705772"/>
        <path id="パス_1805" data-name="パス 1805" d="M776.36,3039.4v3.25H763.31v7.7h11.66v3.25H763.31v7.8h13.54v3.29H759.91v-25.3h16.45Z" transform="translate(-107.2 2128)" fill="#705772"/>
        <path id="パス_1806" data-name="パス 1806" d="M811.12,3039.4v26.14h-.11l-18.58-18.87.07,18.03h-3.43v-26.08h.17l18.55,19.08-.07-18.3h3.4Z" transform="translate(-107.2 2128)" fill="#705772"/>
        <path id="パス_1807" data-name="パス 1807" d="M839.64,3039.4v3.25h-6.79v22.05h-3.39v-22.05h-6.62v-3.25Z" transform="translate(-107.2 2128)" fill="#705772"/>
      </g>
      <g id="グループ_184" data-name="グループ 184" transform="translate(-107.2 2128)">
        <path id="パス_1815" data-name="パス 1815" d="M309.87,2904.82c1.46.54,2.6,1.51,2.6,2.05,0,.65-.94,1.18-1.46,1.51-1.77,1.08-2.18,2.48-2.81,4.31-1.87,5.92-6.03,16.58-8.94,21.85a4.418,4.418,0,0,0-.73,2.26,3.347,3.347,0,0,0,1.66,2.8,69.323,69.323,0,0,1,5.61,4.63c1.14,1.08,1.87,2.05,1.87,2.58,0,1.83-6.97,12.7-9.67,12.7-.94,0-1.98-1.08-2.6-1.72a59.8,59.8,0,0,0-4.68-4.09,4.164,4.164,0,0,0-2.08-1.08,2.972,2.972,0,0,0-2.29,1.4,87.447,87.447,0,0,1-17.26,16.36c-2.7,1.94-14.24,9.37-17.05,9.37-1.98,0-5.61-4.41-7.07-6.14-1.14-1.29-3.64-4.31-3.64-5.6,0-1.51,2.18-2.37,3.64-2.91a6.784,6.784,0,0,0,.73-.32c10.71-4.31,18.51-10.12,26.41-18.73.83-.86,1.56-1.61,1.56-2.58a2.44,2.44,0,0,0-1.25-2.05,105.908,105.908,0,0,0-10.09-4.2c-1.14-.43-2.18-.97-2.18-2.37,0-1.29,1.56-5.06,2.18-6.35,1.04-2.15,3.02-6.35,5.41-6.35,1.98,0,10.92,4.2,13,5.27a5.569,5.569,0,0,0,1.87.65c1.77,0,2.5-1.51,3.22-2.91,3.33-6.78,6.45-15.82,7.28-23.36.1-.75.31-2.8,1.25-2.8,1.66,0,9.77,3.55,15.49,5.81Z" fill="none" stroke="#705772" stroke-miterlimit="10" stroke-width="3.15"/>
        <path id="パス_1816" data-name="パス 1816" d="M410.11,2966.94c0,2.91.1,5.81.1,8.72,0,1.94.1,3.98.1,6.03,0,3.34-1.77,3.44-6.97,3.44h-4.26c-4.89,0-5.61-.65-5.61-3.12,0-4.84.21-9.69.21-14.53v-24.01c0-1.61-.52-2.69-1.87-2.69-.94,0-2.29,1.08-3.02,1.61-2.81,2.05-17.16,11.95-19.55,11.95s-12.17-9.9-12.17-12.7c0-1.18,1.25-1.61,2.18-1.94,5.51-2.15,15.18-7.86,20.27-11.2a125.784,125.784,0,0,0,26.51-23.25,111.288,111.288,0,0,0,9.57-13.46c.21-.54.62-1.29,1.35-1.29,1.56,0,10.29,6.57,13.41,8.94,1.25.97,2.08,2.05,2.08,2.69,0,.75-.73.97-1.35,1.18a6.5,6.5,0,0,0-3.74,1.83c-2.5,2.58-7.07,8.5-14.87,16.69-1.66,1.83-2.39,3.12-2.39,5.49v39.62Z" fill="none" stroke="#705772" stroke-miterlimit="10" stroke-width="3.15"/>
        <path id="パス_1817" data-name="パス 1817" d="M539.67,2908.8a21.527,21.527,0,0,0,5.82-.75,4.044,4.044,0,0,1,1.14-.11c3.12,0,8.53,7.86,8.53,9.37,0,.75-1.35,2.91-1.87,3.77-1.04,1.72-1.98,3.55-2.91,5.38-12.89,25.19-23.6,40.26-48.14,54.36-1.56.86-5.41,3.01-6.76,3.01-1.87,0-6.34-4.09-8.01-5.6-1.25-1.18-3.64-3.44-3.64-4.95,0-1.18,1.46-1.94,2.81-2.69.31-.11.62-.32.94-.43,16.74-8.18,30.05-19.48,40.13-35.52,1.14-1.83,4.16-6.89,4.16-8.94,0-1.4-1.46-1.51-2.7-1.51H514.3c-1.77,0-2.6,1.29-3.54,2.58a130.276,130.276,0,0,1-9.15,11.2c-1.35,1.51-6.24,6.89-7.9,6.89-2.08,0-9.57-5.27-11.33-6.78a3.941,3.941,0,0,1-1.35-2.48,2.32,2.32,0,0,1,1.04-1.72,88.155,88.155,0,0,0,16.53-17.87c4.26-6.03,9.46-14.75,11.96-21.75.52-1.4,1.04-3.01,1.87-3.01.94,0,11.75,5.6,13.52,6.57,1.25.54,2.5,1.08,2.5,1.94,0,.54-.52.75-.94.97-2.5,1.4-4.16,5.38-4.16,6.14,0,1.18.94,1.72,1.98,1.94h14.35Z" fill="none" stroke="#705772" stroke-miterlimit="10" stroke-width="3.15"/>
        <path id="パス_1818" data-name="パス 1818" d="M626.28,2942.93c1.14.65,1.98,1.51,1.98,2.15,0,.54-.62.86-1.04,1.08a8.233,8.233,0,0,0-2.91,2.8c-2.6,3.23-16.12,19.27-19.34,19.27-2.08,0-10.4-7.86-10.4-10.55,0-1.08,1.77-2.37,2.6-3.01a54.27,54.27,0,0,0,14.35-16.26c.42-.75.94-1.83,1.98-1.83,1.46,0,8.94,4.2,12.79,6.35Zm3.43-27.34c2.7,0,2.91-2.37,2.91-4.09v-.97a103.709,103.709,0,0,0-.52-11.41c0-.43-.1-.97-.1-1.51,0-1.29,1.04-1.51,2.5-1.51,1.56,0,12.37,1.29,14.24,1.61.62.11,1.77.32,1.77,1.18a2.662,2.662,0,0,1-1.04,1.72,4.424,4.424,0,0,0-1.25,3.55v1.4c0,1.61-.1,3.23-.1,4.95v.97c0,1.72.31,4.09,2.81,4.09h13.41c4.78,0,10.81-.32,14.76-.32,2.5,0,2.91,1.29,2.91,5.27v5.49c0,3.98-.42,5.38-3.33,5.38-4.78,0-9.57-.11-14.35-.11h-13a3.2,3.2,0,0,0-3.22,3.23v22.07c0,2.15.1,4.41.1,6.67,0,5.6-.52,10.98-4.16,13.89-3.43,2.69-11.85,5.06-16.22,5.06-1.87,0-2.39-.65-3.95-3.66-.94-1.94-3.54-7.97-3.54-9.9,0-1.61,2.29-1.72,3.43-1.83,8.11-.43,8.84-1.51,8.84-9.47v-22.82a3.207,3.207,0,0,0-3.22-3.23H615.56c-4.58,0-9.05.22-13.62.22-2.81,0-3.22-1.94-3.22-5.6v-5.27c0-4.52.52-5.38,2.91-5.38,1.35,0,9.36.32,13.93.32H629.7Zm45.75,29.28c1.98,1.94,9.57,9.47,9.57,11.95,0,2.8-8.01,10.77-10.29,10.77-1.14,0-2.7-2.05-4.89-4.95a96.609,96.609,0,0,0-13.2-13.89c-.73-.65-1.66-1.4-1.66-2.37,0-1.83,2.7-4.84,3.95-6.14,2.29-2.58,3.54-3.98,5.2-3.98,3.02,0,9.15,6.35,11.33,8.61Zm13.2-44.14a10.817,10.817,0,1,1-10.81-11.2A11.025,11.025,0,0,1,688.66,2900.73Zm-16.32,0a5.585,5.585,0,0,0,5.51,5.71,5.714,5.714,0,1,0-5.51-5.71Z" fill="none" stroke="#705772" stroke-miterlimit="10" stroke-width="3.15"/>
        <path id="パス_1819" data-name="パス 1819" d="M778.2,2966.94c0,2.91.1,5.81.1,8.72,0,1.94.1,3.98.1,6.03,0,3.34-1.77,3.44-6.97,3.44h-4.26c-4.89,0-5.61-.65-5.61-3.12,0-4.84.21-9.69.21-14.53v-24.01c0-1.61-.52-2.69-1.87-2.69-.94,0-2.29,1.08-3.02,1.61-2.81,2.05-17.16,11.95-19.55,11.95s-12.17-9.9-12.17-12.7c0-1.18,1.25-1.61,2.18-1.94,5.51-2.15,15.18-7.86,20.27-11.2a125.783,125.783,0,0,0,26.51-23.25,111.288,111.288,0,0,0,9.57-13.46c.21-.54.62-1.29,1.35-1.29,1.56,0,10.29,6.57,13.41,8.94,1.25.97,2.08,2.05,2.08,2.69,0,.75-.73.97-1.35,1.18a6.5,6.5,0,0,0-3.74,1.83c-2.5,2.58-7.07,8.5-14.87,16.69-1.66,1.83-2.39,3.12-2.39,5.49v39.62Z" fill="none" stroke="#705772" stroke-miterlimit="10" stroke-width="3.15"/>
        <path id="パス_1820" data-name="パス 1820" d="M928.34,2921.72c.21.32.31.75.62,1.18.73,1.61,1.77,3.88,1.77,5.06,0,2.58-8.42,10.87-10.61,13.03-16.74,16.9-33.48,26.59-54.27,36.92-2.08,1.08-1.98,1.29-2.81,2.8a.918.918,0,0,1-.83.65c-.83,0-1.46-.97-1.87-1.72a95.674,95.674,0,0,1-4.89-8.29c-.73-1.29-3.02-5.27-3.02-6.46,0-.97,1.14-1.51,1.98-1.72a107.509,107.509,0,0,0,26.62-11.84c12.79-7.86,28.8-21.31,37.53-33.69.21-.32.42-.54.62-.86.94-1.4,1.77-2.58,2.91-2.58,2.08,0,5.3,5.81,6.24,7.54Zm-62.59-21.96a119.192,119.192,0,0,1,18.3,13.56,2.352,2.352,0,0,1,.94,1.94c0,3.12-7.38,11.84-9.77,11.84-.94,0-1.98-.97-2.6-1.61a107.484,107.484,0,0,0-17.47-12.6c-.83-.54-1.87-1.18-1.87-2.26,0-2.15,6.24-12.38,9.25-12.38A10.353,10.353,0,0,1,865.75,2899.76Z" fill="none" stroke="#705772" stroke-miterlimit="10" stroke-width="3.15"/>
        <path id="パス_1821" data-name="パス 1821" d="M1002.27,2969.41c0,3.55.1,7.1.1,10.77,0,5.17-.31,5.6-7.07,5.6h-4.68c-4.16,0-5.41-.54-5.41-3.34,0-4.31.21-8.5.21-12.81v-62.11c0-4.41-.21-10.01-.21-13.35,0-1.4.21-2.05,1.66-2.05,1.25,0,13.52,1.4,16.01,2.15a1.467,1.467,0,0,1,1.14,1.29,1.891,1.891,0,0,1-.62,1.29,5.725,5.725,0,0,0-1.14,3.88v20.88c0,.54.1,1.51,1.25,1.51.62,0,1.25-.43,1.77-.43.83,0,2.18.75,3.85,1.72,3.33,2.15,7.59,5.6,8.94,6.67a123.5,123.5,0,0,1,9.57,8.72,2.811,2.811,0,0,1,.73,1.72c0,2.15-7.59,10.87-9.98,10.87-.94,0-1.98-1.08-2.6-1.72-1.77-1.72-10.29-9.69-11.96-9.69-1.46,0-1.56,1.51-1.56,2.58v25.84Z" fill="none" stroke="#705772" stroke-miterlimit="10" stroke-width="3.15"/>
      </g>
    </g>
    <path id="パス_1943" data-name="パス 1943" d="M202.62,3096.23c-3.13-8.46,1.68-19.74,5.98-27.67s6.46-19.68,3.07-28.05c-3.34-8.26-14.51-12.08-22.34-7.83s-10.77,15.42-6.29,23.12c-2.6-9.03-13.24-14.84-22.24-12.14s-14.69,13.4-11.9,22.37c3.2,10.28,14.49,15.34,24.56,19.15q14.58,5.52,29.15,11.05" transform="translate(-107.2 2128)" fill="#705772" opacity="0.3"/>
    <path id="パス_1944" data-name="パス 1944" d="M151.68,3021.31c.57-8.28,3.73-15.09,4.1-20.73s-1.86-12.56-7.42-13.56c-3.27-.59-6.66,1.29-8.49,4.06a15.19,15.19,0,0,0-2.07,9.56c-1.04-1.75-4.2-5.41-5.99-6.39-8.03-4.37-15.44,6.74-13.55,12.77,2.24,7.17,8.02,9.81,14.09,12.22s12.81,2.25,19.34,2.06" transform="translate(-107.2 2128)" fill="#705772" opacity="0.3"/>
  </g>
</svg>
