<svg xmlns="http://www.w3.org/2000/svg" width="807.619" height="184.453" viewBox="0 0 807.619 184.453">
  <g id="グループ_2282" data-name="グループ 2282" transform="translate(-209.72 -2466.693)">
    <g id="グループ_1693" data-name="グループ 1693" transform="translate(968.359 2467.332)">
      <line id="線_325" data-name="線 325" y1="119.534" x2="42.67" transform="translate(0 0)" fill="none" stroke="#674646" stroke-linecap="round" stroke-linejoin="round" stroke-width="1"/>
      <line id="線_326" data-name="線 326" y1="63.04" x2="30.978" transform="translate(17.333 55.819)" fill="none" stroke="#674646" stroke-linecap="round" stroke-linejoin="round" stroke-width="1"/>
    </g>
    <g id="グループ_1694" data-name="グループ 1694" transform="translate(210.405 2538.537)">
      <line id="線_327" data-name="線 327" x1="64.536" y1="109.289" transform="translate(0 0)" fill="none" stroke="#674646" stroke-linecap="round" stroke-linejoin="round" stroke-width="1"/>
      <line id="線_328" data-name="線 328" x1="42.356" y1="56.032" transform="translate(5.032 55.877)" fill="none" stroke="#674646" stroke-linecap="round" stroke-linejoin="round" stroke-width="1"/>
    </g>
    <g id="グループ_1656" data-name="グループ 1656" transform="matrix(0.998, -0.07, 0.07, 0.998, -3926.235, 2346.791)">
      <path id="パス_14169" data-name="パス 14169" d="M4268.712,484.877H4268c-1.615,0-3.23.142-4.845.142-1.09,0-1-.615-1-2.28,0-1.614-.047-2.184,1-2.184,1.614,0,3.229.1,4.845.1h.666c.949,0,1.33-.38,1.33-1.33v-2.8c0-.95-.381-1.33-1.33-1.33-1.237-.049-2.516.1-3.8.1-1,0-1-.475-1-2.138,0-1.711,0-2.233,1-2.233,1.283,0,2.562.189,3.8.142.949,0,1.33-.426,1.33-1.33a24.369,24.369,0,0,0-.192-3.754c0-.142-.046-.333-.046-.475,0-.57.428-.664.9-.664a37.118,37.118,0,0,1,3.9.331c.426.049,1.233.1,1.233.666,0,.333-.284.428-.664.713-.569.333-.619.95-.619,2.042v1.141c0,.95.38,1.234,1.283,1.33,1.142-.047,2.283-.142,3.375-.142s1.046.57,1.046,2.233c0,1.567.046,2.138-1.046,2.138s-2.234-.144-3.375-.1c-.9,0-1.283.379-1.283,1.33v2.8c0,.95.38,1.33,1.332,1.33,1.52.047,3.039-.1,4.559-.1,1.045,0,1,.57,1,2.184,0,1.711.047,2.28-1,2.28-1.612,0-3.23-.142-4.846-.142h-1.283a.1.1,0,0,0-.1.1c0,.047.049.047.1.1.477.049,1.426.049,1.426.666,0,.333-.236.426-.665.712-.666.426-.666,1.092-.618,2.708,0,.855.475,1.186,1.33,1.186h1.092c1.19,0,2.284-.093,3.044-.093,1.044,0,1,.617,1,2.231,0,1.521.049,2.187-1,2.187-.571,0-1.761-.1-3.044-.1h-1.092c-.949,0-1.33.381-1.33,1.332v3.468a1.443,1.443,0,0,0,1.188,1.663,20.413,20.413,0,0,0,2.946.664,117.5,117.5,0,0,0,13.062.475c3.042,0,6.036-.093,9.076-.189.807-.049,1.616-.142,2.425-.142,1,0,1.093.759,1.093,1.614,0,.9-.1,2.187-.9,2.8a5.954,5.954,0,0,1-2.614.426c-2.281.049-4.561.1-6.843.1-3.039,0-6.079-.047-9.12-.047-6.412,0-13.064-.524-17.343-5.938-.141-.144-.231-.287-.472-.287-.283,0-.38.238-.473.475-1.092,5.465-1.522,5.892-2.281,5.892-.81,0-3.09-.617-3.09-1.663a3.613,3.613,0,0,1,.238-.9,52.793,52.793,0,0,0,2.564-14.918v-.806c0-.524.145-.808.713-.808.524,0,2.708.38,3.373.475.379.047,1.044.191,1.044.666,0,.331-.285.426-.52.568-.666.286-.714.524-.763,1.9-.046.524-.046,1.236-.143,2.233,0,.142-.042.286-.042.428a2.548,2.548,0,0,0,.472,1.567,8.532,8.532,0,0,0,1.139,1.472.437.437,0,0,0,.379.191c.383,0,.478-.284.525-.57v-6.318a27.146,27.146,0,0,0-.191-4.418C4269.712,485.068,4269.285,484.877,4268.712,484.877Zm19.909-13.207c0-.712-.523-.95-1.139-.95-1.142-.047-2.234.1-3.375.1-1.092,0-1.044-.428-1.044-2.138,0-1.616-.048-2,1.092-2,1.282,0,2.568.1,3.848.1h8.075c1.282,0,2.615-.1,3.944-.1,1.948,0,2.566.57,2.566,2.471,0,2.8-.521,9.122-1.52,11.593s-3.754,2.613-6.083,2.613c-1.661,0-2.661.093-2.661-2.995,0-.615.049-1.472.62-1.472.236,0,.521.047.713.047.333,0,1.185.1,1.517.1,1.38,0,1.949-.238,2.232-1.663a35.82,35.82,0,0,0,.573-5.559c0-1-.427-1.092-1.425-1.092h-2.136a1.264,1.264,0,0,0-1.474,1.234,17.542,17.542,0,0,1-6.554,11.213c-.38.284-.858.761-1.332.761-.76,0-2.852-1.758-2.852-2.757,0-.426.428-.713.713-.9,2.993-2.282,4.846-4.609,5.654-8.316C4288.573,471.908,4288.621,471.766,4288.621,471.671Zm8.219,26.415h-7.793a.674.674,0,0,0-.713.713c-.093.9-.472.9-2.375.9-1.758,0-2.329.047-2.329-1.047,0-1.186.1-2.327.1-3.514v-5.512c0-.95-.1-1.9-.1-2.849,0-1.569,1.093-1.9,2.425-1.9,1.093,0,2.186.049,3.278.049h7.077c1.046,0,2.14-.049,3.23-.049,1.377,0,2.473.286,2.473,1.9,0,.95-.047,1.9-.047,2.849v5.512c0,1.188.047,2.329.047,3.514,0,1.094-.571,1.047-2.329,1.047-2,0-2.329,0-2.379-1.047A.5.5,0,0,0,4296.839,498.086Zm-.666-3.945a1.259,1.259,0,0,0,1.329-1.281v-2.566a1.361,1.361,0,0,0-1.329-1.33h-6.6a1.356,1.356,0,0,0-1.329,1.33v2.566a1.255,1.255,0,0,0,1.329,1.281Z" transform="translate(12.437 0.145)" fill="#674646"/>
      <path id="パス_14170" data-name="パス 14170" d="M4289.449,472.93a.679.679,0,0,0,.619-.428,74.527,74.527,0,0,0,2.9-6.982c.093-.286.189-.666.569-.666a17.762,17.762,0,0,1,2.421,1,2.488,2.488,0,0,1,.331.142c.428.191,1.288.524,1.288,1s-.429.522-.575.57c-.428.1-.615.142-.808.568a65.972,65.972,0,0,1-3.324,6.984,1.156,1.156,0,0,0-.143.571,1,1,0,0,0,.333.713,5.476,5.476,0,0,0,.523.524,1.011,1.011,0,0,0,.712.331c.43,0,.619-.284.808-.569.8-1.521,1.613-3.09,2.327-4.608.19-.38.284-.808.713-.808a18.019,18.019,0,0,1,3.135,1.425c.522.238,1.092.57,1.092.95,0,.428-.523.475-.62.475a1.154,1.154,0,0,0-.852.524c-1.853,3.324-3.751,6.6-5.89,9.69a.713.713,0,0,0-.094.428c0,.38.333.522.661.522.763-.047,1.573-.142,2.329-.237.476-.049.9-.284.9-.855,0-.191-.048-.284-.048-.429a6.627,6.627,0,0,1-.666-1.758c0-.855,1.948-1.423,2.615-1.423.759,0,1.092.664,2.281,4.085a33.546,33.546,0,0,1,1.279,4.7c0,.619-.33.808-.854,1.047a5.2,5.2,0,0,1-1.852.522c-.76,0-.855-.713-1.045-1.425a.855.855,0,0,0-1-.666l-.759.1-.092.049c-.9.189-1.237.568-1.237,1.472V499.3c0,2.138.1,4.276.1,6.462,0,1.472-.38,1.521-2.139,1.521-1.663,0-2.186,0-2.186-1.474,0-2.185.1-4.371.1-6.509v-8.314c0-.666-.287-1.188-1.046-1.188a.28.28,0,0,0-.19.049l-3.138.284a.832.832,0,0,0-.616.428c-.143.284-.333.522-.667.522-.523,0-.666-.713-.906-2.043-.139-.524-.233-1.188-.423-1.949a3.592,3.592,0,0,1-.1-.664c0-.617.476-.617,1.281-.617.241,0,.477-.049.761-.049h.289c.946,0,1.28-.333,1.849-1.092.383-.666.809-1.33,1.236-2a1.8,1.8,0,0,0,.286-.9,1.59,1.59,0,0,0-.519-1.043,58.269,58.269,0,0,0-4.424-3.991c-.664-.522-.853-.713-.853-1.092,0-.761,1.232-3.372,2.042-3.372a1.735,1.735,0,0,1,.856.473A.844.844,0,0,0,4289.449,472.93Zm1.285,19.573c.141.047.283.047.427.1.759.142,1.328.237,1.328.664a.616.616,0,0,1-.379.571c-.523.237-.57.333-.616.95a79.45,79.45,0,0,1-1.81,9.6.862.862,0,0,1-.852.713c-.621,0-2.708-.428-2.708-1.188a6.263,6.263,0,0,1,.235-1,50.08,50.08,0,0,0,1.759-9.5c.047-.713-.049-1.237.663-1.237C4289.069,492.171,4290.355,492.455,4290.734,492.5Zm11.016,8.931c-.947,0-.947-.759-1.042-1.188a29.137,29.137,0,0,0-1.663-5.938,4.564,4.564,0,0,1-.287-1.092c0-.855,2.375-1.188,2.565-1.188.809,0,1.38,1.758,1.949,3.8a29.209,29.209,0,0,1,.949,4.18C4304.222,501.055,4302.132,501.434,4301.75,501.434Zm9.837-8.409c-.947,0-1.33.382-1.33,1.332v3.658c0,3.419.238,4.18,3.752,4.18h6.558c2.372,0,3.041-.571,3.471-4.087.138-1.139.1-1.472,1.136-1.472a7.6,7.6,0,0,1,2.519.475c.808.284,1.143.617,1.143,1.33a14.744,14.744,0,0,1-2,6.318c-1.237,1.758-3.038,1.854-4.987,1.854h-9.5a11.286,11.286,0,0,1-4.561-.666c-2.045-1.044-2.236-2.85-2.236-4.939,0-1.141.047-2.282.047-3.421V481.861a.509.509,0,0,0-.57-.522.877.877,0,0,0-.379.1c-.1,0-.145.047-.19.047-.806,0-3.138-1.9-3.138-2.613,0-.379.573-.9.856-1.139a37.638,37.638,0,0,0,8.507-12.116c.139-.333.283-.664.663-.664.287,0,2.9.664,3.421.806.143.049.333.049.473.1.81.19,1.285.428,1.285.761,0,.38-.476.571-.759.664a1.216,1.216,0,0,0-.713.571.629.629,0,0,0-.142.38c0,.428.38.524.759.57h3.8c.809,0,1.618-.047,2.424-.047,2.089,0,2.988,2.422,2.988,2.755,0,.9-2.47,4.418-3.081,5.275a.716.716,0,0,0-.15.426.566.566,0,0,0,.623.57c.9,0,1.8-.047,2.659-.047,1.662,0,2.281.522,2.281,2.184,0,1.092-.048,2.233-.048,3.326v6.176c0,1.33.1,2.662.1,3.61,0,1.189-.57,1.141-2.421,1.141h-.619c-.8,0-1.329-.049-1.612-.333-.289-.38-.523-.759-1.046-.808Zm-2.325-16.295a.9.9,0,0,0-.144.475c0,.38.285.524.618.57h4.466a2.029,2.029,0,0,0,1.995-.95c.427-.571,2.329-3.232,2.329-3.754,0-.475-.57-.428-1-.428h-3.945a1.958,1.958,0,0,0-1.948.95C4310.875,474.688,4310.115,475.732,4309.262,476.731Zm1,10.88a1.327,1.327,0,0,0,1.33,1.33h1.189a1.259,1.259,0,0,0,1.283-1.33V483.1a1.26,1.26,0,0,0-1.283-1.332h-1.189a1.328,1.328,0,0,0-1.33,1.332Zm10.929,1.33a1.361,1.361,0,0,0,1.328-1.33V483.1a1.362,1.362,0,0,0-1.328-1.332H4319.9a1.362,1.362,0,0,0-1.329,1.332v4.513a1.361,1.361,0,0,0,1.329,1.33Z" transform="translate(38.252 0.169)" fill="#674646"/>
      <path id="パス_14171" data-name="パス 14171" d="M4327.361,474.177c0,.759.523,1.045,1.184,1.045h11.833c1.615,0,3.181-.1,4.8-.1,1.045,0,.949.57.949,2.184,0,1.569.048,2.14-.949,2.14-1.617,0-3.183-.1-4.8-.1h-12.494c-.9,0-1.382.284-1.519,1.234-.05.144-.147,1-.192,1.33,0,.1-.145.524-.145.619,0,.713.474,1,1.14,1h11.167c1.232,0,2.519-.1,3.8-.1,1.948,0,2.281.808,2.281,2.613a39.864,39.864,0,0,1-.429,4.8v.238c0,.759.476,1,1.142,1h1.187c1.9,0,3.849-.093,5.8-.093,1.042,0,1.042.569,1.042,2.184,0,1.663,0,2.231-1.042,2.231-1.949,0-3.9-.093-5.8-.093h-2c-.95,0-1.33.238-1.615,1.141-.805,2.8-1.761,6.176-4.231,7.932-1.8,1.283-4.94,1.379-7.077,1.379-3.323,0-4.037-.142-4.467-1.046a6.062,6.062,0,0,1-.429-2.233c0-1.092.1-1.661,1-1.661,1.091,0,3.18.189,4.51.189,3.8,0,4.61-1,5.655-4.467a1.058,1.058,0,0,0,.047-.38c0-.617-.474-.855-1-.855H4317.9c-1.9,0-3.85.093-5.795.093-1.044,0-1.044-.569-1.044-2.231,0-1.616,0-2.184,1.044-2.184,1.945,0,3.895.093,5.795.093h19.671c1,0,1.377-.284,1.518-1.234a11.215,11.215,0,0,0,.19-2.186c0-.855-.476-.95-1.425-.95h-11.831c-.664,0-.853.286-1.377.95a.9.9,0,0,1-.807.333c-.667,0-3.8-.191-3.8-1a6.671,6.671,0,0,1,.142-.95,134.841,134.841,0,0,0,2.52-14.634c.093-.948-.048-1.377.712-1.377.665,0,3.038.284,3.8.38.333.049,1.38.1,1.38.617,0,.237-.334.475-.521.571-.57.286-.57.38-.668,1.379C4327.406,474.035,4327.361,474.131,4327.361,474.177Zm-8.553-4.085c-.949,0-1.331.38-1.331,1.33v1.092c0,.712.1,1.474.1,2.186,0,1.188-.762,1.139-2.568,1.139-1.851,0-2.563.049-2.563-1.139,0-.712.1-1.474.1-2.186v-2.091c0-1.044-.046-1.852-.046-2.564,0-1.9,1.04-2.233,3.463-2.233,1.094,0,2.472.1,4.184.1h24.085c1.711,0,3.423-.1,5.132-.1,1.52,0,2.517.524,2.517,2.186,0,.806-.045,1.663-.045,2.611v2.282c0,.713.1,1.425.1,2.138,0,1.234-.666,1.188-2.566,1.188s-2.613.047-2.613-1.141c0-.713.093-1.472.093-2.185v-1.283c0-.95-.379-1.33-1.282-1.33Z" transform="translate(63.947 0.964)" fill="#674646"/>
      <path id="パス_14172" data-name="パス 14172" d="M4352.493,498.752c-.429.047-.8.191-.8.666s.947,1.519,1.327,1.9a1.747,1.747,0,0,1,.523.855.586.586,0,0,1-.618.475c-.145,0-.285-.047-.428-.047a1.63,1.63,0,0,0-.473-.1,2.764,2.764,0,0,0-.81.284,71.137,71.137,0,0,1-11.449,4.085,12.565,12.565,0,0,1-1.758.335c-1.046,0-2.184-2.757-2.184-3.374,0-.713.95-.808,1.85-.95a45.67,45.67,0,0,0,10.692-3.23.566.566,0,0,0,.38-.475c0-.286-.239-.382-.524-.428h-5.464c-1.853,0-3.706.1-5.558.1-1,0-1-.475-1-1.9s0-1.9,1-1.9c1.852,0,3.705.1,5.558.1h28.79c1.855,0,3.708-.1,5.56-.1,1,0,1,.522,1,1.9s0,1.9-.954,1.9c-1.851,0-3.7-.1-5.6-.1h-5.318c-.24.047-.477.142-.477.428,0,.331.287.475.519.617a65.029,65.029,0,0,0,10.123,3.372c1.38.333,1.807.428,1.807,1.094,0,.615-.807,3.23-2.187,3.23-1.139,0-6.511-1.949-7.793-2.471a41.183,41.183,0,0,1-5.795-2.85c-.284-.191-.617-.428-.617-.808a3.691,3.691,0,0,1,.712-1.425.6.6,0,0,0,.19-.475c0-.475-.38-.666-.809-.713Zm2.232-25.987c0-.808-.333-1.139-1.14-1.139h-8.738c-1.81,0-3.615.093-5.418.093-1.045,0-1-.522-1-1.854,0-1.281,0-1.756,1-1.756,1.8,0,3.609.093,5.418.093h8.548c.9,0,1.283-.38,1.236-1.33,0-.333-.143-1.234-.143-1.423,0-.571.429-.666.9-.666.759,0,3.611.238,4.468.331.333.049,1.094.1,1.094.57,0,.333-.286.477-.619.761a1.192,1.192,0,0,0-.475.855c.047.713.663.9,1.234.9h8.457c1.805,0,3.611-.093,5.415-.093,1.046,0,1,.522,1,1.8s.046,1.8-1,1.8c-1.8,0-3.61-.093-5.415-.093H4360.9c-.807,0-1.14.331-1.14,1.139V473c0,.808.333,1.141,1.14,1.141h3.757c1.138,0,2.28-.1,3.465-.1,1.473,0,2.329.331,2.329,2,0,1-.094,1.994-.094,2.993V488.2c0,1,.094,1.949.094,2.946,0,1.616-.761,2.043-2.281,2.043-1.189,0-2.329-.1-3.513-.1h-14.871c-1.14,0-2.329.1-3.517.1-1.475,0-2.28-.38-2.28-2,0-1,.094-1.994.094-2.993v-9.169c0-1-.094-2-.094-2.993,0-1.569.762-2,2.232-2,1.188,0,2.376.1,3.564.1h3.8c.806,0,1.14-.333,1.14-1.141Zm9.933,6.746a.9.9,0,0,0,.9-.9v-.38a.934.934,0,0,0-.9-.9h-14.823a.849.849,0,0,0-.9.9v.38a.848.848,0,0,0,.9.9Zm-14.823,2.9a.826.826,0,0,0-.9.9v.333a.863.863,0,0,0,.9.95h14.823a.914.914,0,0,0,.9-.95v-.333a.847.847,0,0,0-.9-.9Zm.19,5.037a1.06,1.06,0,0,0-1.094,1.139v.142a1.024,1.024,0,0,0,1.094,1.094h14.391a1.06,1.06,0,0,0,1.14-1.094v-.142a1.1,1.1,0,0,0-1.14-1.139Z" transform="translate(89.448 0.097)" fill="#674646"/>
      <path id="パス_14173" data-name="パス 14173" d="M4396.823,468.989c0,.333.236.428.476.428,1.427,0,2.85-.1,4.276-.1,1.139,0,1.093.426,1.093,2.089,0,1.567.045,2.091-1.093,2.091-1.9,0-3.752-.142-5.654-.142h-7.174c-.619,0-1.092.284-1.092.95v.333a25.907,25.907,0,0,0,1.044,3.61c.142.286.287.522.667.522a.847.847,0,0,0,.616-.284,26.619,26.619,0,0,0,2.612-3.516c.189-.284.333-.571.714-.571a7.732,7.732,0,0,1,2.284,1.236c1.135.76,2.088,1.379,2.088,1.852,0,.524-.713.524-1.092.571-.285.049-.9.712-1.854,1.807-.618.759-1.426,1.709-2.423,2.755a1.455,1.455,0,0,0-.426.95,1.376,1.376,0,0,0,.379.9c.949,1,2.849,2.706,4.276,2.706,1.569,0,1.9-1.663,2.324-3.752.143-.713.241-1.092,1.047-1.092,1.138,0,3.23.9,3.23,2.043a13.506,13.506,0,0,1-1.616,4.94,4.612,4.612,0,0,1-4.37,2.471c-3.183,0-6.128-2.091-8.268-4.276a1.322,1.322,0,0,0-.949-.475,1.461,1.461,0,0,0-.855.333c-1,.806-4.37,3.325-5.558,3.325-1.379,0-2.947-2.091-2.947-2.708,0-.666.809-1,1.285-1.234a44.244,44.244,0,0,0,4.656-3.137,1.337,1.337,0,0,0,.615-1.139,1.529,1.529,0,0,0-.187-.761,33.335,33.335,0,0,1-2.187-7.126c-.192-.9-.571-1.139-1.522-1.234h-10.688c-.764,0-1.1.331-1.1,1.139v.712c0,.761.333,1.094,1.1,1.094h6.6a1.817,1.817,0,0,1,2,1.756c0,2.138-.284,8.029-1.379,9.692-1.139,1.758-4.417,1.9-6.319,1.9-1.327,0-1.756-.142-2.041-.95a6.768,6.768,0,0,1-.429-2.375c0-.522.05-1.046.666-1.046.759,0,1.614.191,2.374.191,1.761,0,2.474-.191,2.474-4.751,0-.759-.381-.713-1.092-.713h-2.853c-.855,0-1.328.284-1.476,1.188a27.2,27.2,0,0,1-3.134,9.5c-.759,1.283-1.28,2.138-1.992,2.138-1.093,0-3.422-1.521-3.422-2.471a1.4,1.4,0,0,1,.333-.713,23.956,23.956,0,0,0,3.8-13.682V474.31c0-1.235-.1-2.043-.1-2.9,0-1.8,1.093-2.089,2.614-2.089,1.47,0,2.9.1,4.371.1h9.263c.855,0,1.235-.382,1.235-1.283,0-.286-.238-2.233-.238-2.471,0-.666.38-.713,1.046-.713.759,0,2.849.189,3.75.284.667.049,1.616,0,1.616.666,0,.428-.428.617-.809.808-.473.284-.473.664-.473,1.472a1.187,1.187,0,0,0,1.375,1.236h4.946c.188,0,.379-.1.379-.286s-.094-.238-.191-.333c-.38-.189-.759-.331-1.093-.475-1.282-.569-2.137-.9-2.137-1.376,0-.428,1-2.187,1.711-2.187.523,0,5.369,2.138,5.369,2.995a1.843,1.843,0,0,1-.379.95A.662.662,0,0,0,4396.823,468.989Zm-30.169,28.171c0-1-.046-1.947-.046-2.946,0-1.8.617-2.231,2.375-2.231,1.184,0,2.376.047,3.514.047h18.53c1.14,0,2.28-.047,3.42-.047,1.616,0,2.472.284,2.472,2.089,0,1.046-.048,2.044-.048,3.088v3.516c0,.808.284,1.236,1.185,1.283,1.19.047,2.376-.1,3.564-.1,1.141,0,1.092.57,1.092,2.282,0,1.852.049,2.185-1.472,2.185-.856,0-2.188-.1-4.322-.1H4366.56c-1.613,0-3.182.1-4.751.1-1.093,0-1.093-.571-1.093-2.185,0-1.76,0-2.282,1.139-2.282,1.191,0,2.426.1,3.613.1.9,0,1.187-.475,1.187-1.283Zm8.694.333a1.361,1.361,0,0,0-1.33-1.33h-1.236a1.333,1.333,0,0,0-1.33,1.33v3.183a1.33,1.33,0,0,0,1.33,1.33h1.236a1.358,1.358,0,0,0,1.33-1.33Zm4.326,3.183a1.353,1.353,0,0,0,1.33,1.33h1.281a1.325,1.325,0,0,0,1.33-1.33v-3.183a1.328,1.328,0,0,0-1.33-1.33H4381a1.356,1.356,0,0,0-1.33,1.33Zm11.164,1.33a1.328,1.328,0,0,0,1.33-1.33v-3.183a1.33,1.33,0,0,0-1.33-1.33h-1.426a1.36,1.36,0,0,0-1.329,1.33v3.183a1.357,1.357,0,0,0,1.329,1.33Z" transform="translate(114.904 0.072)" fill="#674646"/>
      <path id="パス_14174" data-name="パス 14174" d="M4402.337,466.127c.237.1.523.237.523.522a1.058,1.058,0,0,1-.38.713c-.619.524-.572.666-.856,2.615-.1.806-.429,3.135-.429,3.8,0,.524.333.666.763.808a3.416,3.416,0,0,1,1.615,2.184c0,.191-.19.382-.284.524-.239.333-1.142,2-1.285,2.329a3.784,3.784,0,0,0-.1.759c0,.238.1.475.383.475.141,0,.283-.142.379-.238,1-1.046,2.9-2.755,4.042-3.705,1.9-1.663,4.273-3.374,6.885-3.374a5.125,5.125,0,0,1,4.086,2.091,8.657,8.657,0,0,1,.854,4.513c0,2.471-.095,4.942-.235,7.364-.1,2.042-.239,4.18-.239,6.176,0,1.141-.049,2.8,1.047,2.8,1.282,0,3.324-2.042,4.176-2.995a1.382,1.382,0,0,1,.909-.522c.8,0,2.183,3.563,2.183,4.323,0,.666-1.758,1.9-2.281,2.282-1.9,1.376-4.322,2.755-6.7,2.755-3.992,0-4.371-4.609-4.371-7.6,0-4.276.619-8.6.619-12.875,0-1.044,0-2.706-1.428-2.706-1.33,0-2.708,1.139-3.7,1.9a48.021,48.021,0,0,0-5.18,4.607,15.938,15.938,0,0,0-2.66,3.041c-.189.617,0,6.414,0,7.506,0,.286.095,1.711.142,2.519.1,1.947.239,4.513.239,5.035,0,.333.047.808-3.467.808-1.144,0-2,0-2-.95,0-.428.283-5.7.283-7.839,0-.237-.093-.617-.423-.617s-.667.713-1.142,1.423c-.523.857-2,3.421-2.469,4.324-.145.286-.335.57-.62.57-.807,0-3.563-2.328-3.563-3.135a5.1,5.1,0,0,1,.95-1.712c2.565-3.752,4.8-7.65,6.985-11.593a4.459,4.459,0,0,0,.569-2.233c0-.426.093-.855.093-1.234s-.189-.713-.616-.713a2.853,2.853,0,0,0-.854.237c-1,.428-4.849,1.949-5.751,1.949-.76,0-1.139-.713-1.376-1.332a14.092,14.092,0,0,1-1-3.23c0-.759,1-.759,1.567-.855,1.426-.191,7.458-1.237,8.027-2.375a3.086,3.086,0,0,0,.24-1.425c0-1.283.19-4.133.19-6.225,0-.568-.05-1.139-.05-1.472,0-.522.24-.664.761-.664S4401.862,465.985,4402.337,466.127Z" transform="translate(141.828 0.796)" fill="#674646"/>
      <path id="パス_14175" data-name="パス 14175" d="M4420.039,491.586c0,1.189.094,1.949.948,1.949a20.452,20.452,0,0,0,3.9-1.52,65.857,65.857,0,0,0,18.244-12.494c.283-.286.713-.759,1.141-.759.759,0,2.374,3.135,2.374,4.085a1.367,1.367,0,0,1-.523.855c-1.044,1.046-2.184,2-3.325,2.946a85.1,85.1,0,0,1-20.9,12.352,18.208,18.208,0,0,0-1.664.759,2.84,2.84,0,0,1-1.19.477,16.749,16.749,0,0,1-3.752-1.758c-.571-.428-.618-.857-.618-1.663,0-1.616.1-3.374.1-5.13V472.346c0-1.044,0-2.089-.05-2.9-.046-.333-.14-1.33-.14-1.567a.508.508,0,0,1,.521-.57c.191,0,.712.1,1,.142.757.1,3.135.475,3.848.666.426.1,1,.142,1,.617,0,.286-.238.428-.428.617a1.83,1.83,0,0,0-.427,1.474c-.047.713-.047,1.472-.047,2.231Z" transform="translate(170.584 2.7)" fill="#674646"/>
      <path id="パス_14176" data-name="パス 14176" d="M4472.48,478.905c0,.808-1.9,2.661-2.521,3.279-7.693,7.934-15.769,13.255-25.794,17.911-1.57.762-1.617.808-2,1.616a.477.477,0,0,1-.477.284c-.517,0-1.521-1.9-1.851-2.469a13.281,13.281,0,0,1-1.425-2.85c0-.524.853-.619,1.471-.808,10.5-3.088,22.378-12.068,29.123-20.665a1.166,1.166,0,0,1,.809-.524C4470.766,474.678,4472.48,478.193,4472.48,478.905Zm-24.516-7.837c.616.426,2.9,2,2.9,2.708,0,1.092-2.232,3.658-3.134,3.658a5.076,5.076,0,0,1-1.9-1.283,58.936,58.936,0,0,0-6.319-4.42c-.38-.238-.763-.475-.763-.9,0-.713,1.9-3.754,2.994-3.754C4442.5,467.077,4447.061,470.4,4447.965,471.068Z" transform="translate(195.147 2.459)" fill="#674646"/>
      <path id="パス_14177" data-name="パス 14177" d="M4484.835,472.624c.807,0,2.705,0,3.418-.1a7.892,7.892,0,0,1,1.047-.093c1,0,3.038,2.564,3.038,3.181,0,.38-.569,1.046-.76,1.379-.664.95-1.425,2.329-2.043,3.372a70.272,70.272,0,0,1-5.178,7.364,1.37,1.37,0,0,0-.426.95,1.253,1.253,0,0,0,.712,1.092,71.645,71.645,0,0,1,8.028,6.129c1.19,1.046,2.329,2.091,3.423,3.183a1.067,1.067,0,0,1,.379.713c0,1.045-2.612,3.849-3.657,3.849a1.562,1.562,0,0,1-1.142-.761,53.581,53.581,0,0,0-10.547-9.406,1.826,1.826,0,0,0-1.044-.428c-.712,0-1.286.666-1.758,1.141a49.544,49.544,0,0,1-11.83,8.172,7.515,7.515,0,0,1-1.854.712c-.949,0-3.133-3.137-3.133-3.991,0-.617.617-.855,1.092-1.046,8.266-3.184,16.578-10.689,21.236-18.195a3.022,3.022,0,0,0,.619-1.379c0-.713-.81-.806-1.521-.806h-9.692c-2.045,0-4.089.093-6.083.093-1.282,0-1.187-.855-1.187-2.708,0-1.709-.1-2.564,1.092-2.564,2.043,0,4.132.142,6.177.142Zm12.636,0c0,.712-1.664,2.187-2.28,2.187-.286,0-.571-.428-1.046-.95-.949-1.141-1.992-2.233-3.038-3.279-.192-.191-.429-.38-.429-.666,0-.522,1.758-1.947,2.326-1.947C4493.479,467.969,4497.471,472.007,4497.471,472.624Zm4.706-3.23c0,.666-1.615,2.138-2.285,2.138-.234,0-.472-.286-.617-.475a49.572,49.572,0,0,0-3.42-3.7c-.189-.191-.427-.428-.427-.666,0-.571,1.759-2,2.279-2C4498.183,464.69,4502.177,468.728,4502.177,469.394Z" transform="translate(218.936)" fill="#674646"/>
      <path id="パス_14178" data-name="パス 14178" d="M4500.338,498.716a3.5,3.5,0,0,1-3.7,3.659,3.084,3.084,0,0,1-3.28-3.137,3.553,3.553,0,0,1,3.659-3.8A3.182,3.182,0,0,1,4500.338,498.716Zm-4.275-6.984c-1.187,0-1.427-.238-1.472-1.425l-.333-12.019c-.095-2.85-.428-9.217-.428-10.167,0-.808.286-1,1.33-1h3.326c1.047,0,1.328.189,1.328,1,0,.95-.332,7.317-.427,10.452l-.286,11.735c-.047,1.188-.281,1.425-1.47,1.425Z" transform="translate(251.743 2.508)" fill="#674646"/>
      <path id="パス_14179" data-name="パス 14179" d="M4250.417,518.925c-1,0-.949-.759-.949-2.375,0-1.756-.046-2.422.949-2.422.475,0,2.376.047,3,.1.853-.049,1.185-.524,1.185-1.332v-4.56a31.926,31.926,0,0,0-.142-3.754,2.285,2.285,0,0,1-.048-.569c0-.57.333-.666.811-.666.566,0,3.942.238,4.606.284.382.049,1.046.1,1.046.619,0,.38-.38.522-.856.806-.521.333-.569.761-.569,2.424v5.414c0,.855.332,1.236,1.235,1.283.852,0,1.708-.047,2.615-.047,1,0,.947.57.947,2.422,0,1.712.048,2.375-.947,2.375-.288,0-2.045-.1-2.568-.1-.949.049-1.281.429-1.281,1.283v10.643c.048.475.19.9.761.9a4.169,4.169,0,0,0,1-.287,25.239,25.239,0,0,1,2.466-.95c1.047,0,1,2.138,1,2.85,0,1.046-.143,1.332-1.042,1.712-3.521,1.614-7.081,3.039-10.739,4.322-1,.333-1.048.426-1.286,1.139-.093.239-.189.619-.569.619-.472,0-.806-1.188-.951-1.567a23.833,23.833,0,0,1-1.09-3.563c0-.666.712-.712,1.187-.808a19.87,19.87,0,0,0,3.28-1,1.468,1.468,0,0,0,1.139-1.663V520.113c0-.855-.333-1.234-1.185-1.283C4252.746,518.83,4250.8,518.925,4250.417,518.925Zm29.124,1.379v6.888c0,2.138.141,4.276.141,6.365,0,1.427-.474,1.474-2.422,1.474-1.805,0-2.374,0-2.374-1.378,0-2.185.139-4.323.139-6.46v-4.939c-.047-.191-.047-.9-.759-.9a1.426,1.426,0,0,0-.426.093l-1.709.761a1.6,1.6,0,0,0-1.141,1.758v12.827c0,1.947.19,2.422,2.378,2.422h9.785c2.184,0,3.041-.333,3.707-4.276.139-.855.189-1.187,1-1.187a9.217,9.217,0,0,1,2.517.521c.949.335,1.329.619,1.329,1.521a15.739,15.739,0,0,1-2.138,6.129c-1.183,1.663-3.134,1.9-5.033,1.9h-12.543c-6.318,0-5.654-2.755-5.654-7.839v-9.93c-.048-.189-.048-.855-.714-.855a1.646,1.646,0,0,0-.473.1,5.88,5.88,0,0,1-1.518.571c-.907,0-2.1-3.326-2.1-3.659,0-.761,1.287-1.188,3.614-2.042a1.66,1.66,0,0,0,1.187-1.807v-5.13a21.6,21.6,0,0,0-.143-3.563c0-.142-.046-.333-.046-.475,0-.522.38-.568.805-.568.758,0,3.137.142,4.04.189.38.047,1.236.047,1.236.617,0,.333-.381.475-.666.666-.522.333-.57,1.33-.57,2.8v3.421c.048.237.048.9.761.9.142,0,.285-.047.426-.047l1.664-.761a1.657,1.657,0,0,0,1.186-1.8v-7.363c0-1.33-.094-2.662-.185-3.9,0-.144-.048-.333-.048-.475,0-.524.427-.617.852-.617.572,0,3.563.189,4.183.238.332.047.806.142.806.617,0,.285-.238.38-.571.617-.475.382-.521,1.379-.521,2.85v6.034c.047.237.047.9.759.9a.9.9,0,0,0,.38-.049l2.187-.95c1.141-.475,2.469-1.283,3.7-1.283a2.732,2.732,0,0,1,2.283,1.236,3.065,3.065,0,0,1,.286,1.616c0,3.419-.093,9.928-.378,13.253-.286,3.8-1.9,4.7-5.559,4.7-1.139,0-2.329.142-2.329-3.659,0-.475.1-1.092.665-1.092.191,0,.475.047.856.047,1.426,0,1.521-.475,1.662-1.947a67.727,67.727,0,0,0,.334-6.984c0-.38.045-1.092-.523-1.092a8.86,8.86,0,0,0-1.71.571c-.524.189-1,.38-1.521.617A1.606,1.606,0,0,0,4279.541,520.3Z" transform="translate(0 38.696)" fill="#674646"/>
      <path id="パス_14180" data-name="パス 14180" d="M4297.019,507.705c0,.808.331,1.141,1.091,1.141h10.266c1.424,0,2.8-.1,4.227-.1,1.567,0,2.328.284,2.328,2.042,0,.759-.048,1.521-.048,2.28v2.233c0,.666.094,1.379.094,2.042,0,1.141-.523,1.141-2.279,1.141-1.519,0-2.279,0-2.279-1.046,0-.713.1-1.425.1-2.138v-1.567c0-.9-.38-1.332-1.332-1.332H4298.3c-.9,0-1.284.428-1.284,1.332v3.705c0,1.616.1,3.183.1,4.8,0,1.379-.623,1.379-2.519,1.379s-2.517,0-2.517-1.425c0-1.568.141-3.184.141-4.751v-3.705a1.164,1.164,0,0,0-1.329-1.332h-10.831c-.952,0-1.333.428-1.333,1.332v1.472c0,.666.093,1.378.093,2.091,0,1.092-.616,1.046-2.281,1.046-1.709,0-2.277,0-2.277-1.046,0-.713.093-1.379.093-2.091v-2.138c0-.855-.048-1.663-.048-2.471,0-1.614.951-1.852,2.328-1.852,1.425,0,2.8.1,4.23.1h10.211c.811,0,1.142-.333,1.142-1.141v-.142c0-.761-.382-1.092-1.142-1.092h-6.223c-1.756,0-3.514.1-5.273.1-1.043,0-1.043-.428-1.043-1.854,0-1.521,0-1.854,1.092-1.854,1.757,0,3.468.1,5.224.1h19.623c1.758,0,3.518-.1,5.276-.1,1.09,0,1.043.428,1.043,1.854,0,1.376.047,1.854-1.043,1.854-1.758,0-3.518-.1-5.276-.1h-6.369c-.76,0-1.091.331-1.091,1.092Zm-12.494,34.254c-.712,0-.808.284-.9.855-.047,1.092-.426,1.092-2.469,1.092-1.9,0-2.517.049-2.517-1.092,0-1,.14-2.187.14-3.279v-9.406c0-1-.1-1.947-.1-2.9,0-1.758,1.19-2,2.662-2,1.377,0,2.8.047,4.226.047h17.864c1.427,0,2.852-.047,4.23-.047,1.425,0,2.657.238,2.657,1.947,0,1-.091,1.947-.091,2.946v9.406c0,1.045.142,2.424.142,3.279,0,1.141-.666,1.092-2.519,1.092-2.091,0-2.424,0-2.471-1.092-.095-.617-.283-.855-.9-.855Zm-.855-24.468c-1.044,0-1.853.1-2.472.1-.9,0-.854-.522-.854-1.521s-.049-1.567.854-1.567c.476,0,1.474.1,2.472.1h3.229c1.046,0,1.995-.1,2.471-.1.856,0,.856.475.856,1.567,0,1.045,0,1.521-.856,1.521-.759,0-1.425-.1-2.471-.1Zm.286,5.084c-1.092,0-2.043.049-2.709.049-.9,0-.9-.428-.9-1.521s0-1.521.9-1.521c.523,0,1.663.049,2.709.049h2.7c1,0,2.141-.049,2.71-.049.9,0,.856.475.856,1.521,0,1.092,0,1.521-.856,1.521s-1.663-.049-2.71-.049Zm7.169,9.171a1.1,1.1,0,0,0,1.143-1.141v-.761a1.063,1.063,0,0,0-1.143-1.092h-6.457a1.065,1.065,0,0,0-1.145,1.092v.761a1.1,1.1,0,0,0,1.145,1.141Zm-7.6,5.272a1.264,1.264,0,0,0,1.332,1.283h6.083a1.261,1.261,0,0,0,1.331-1.283v-.57a1.361,1.361,0,0,0-1.331-1.33h-6.083a1.365,1.365,0,0,0-1.332,1.33Zm13.261-6.413a1.1,1.1,0,0,0,1.135,1.141h6.417a1.1,1.1,0,0,0,1.141-1.141v-.761a1.062,1.062,0,0,0-1.141-1.092h-6.417a1.058,1.058,0,0,0-1.135,1.092Zm1.325,4.513a1.355,1.355,0,0,0-1.325,1.33v.57a1.256,1.256,0,0,0,1.325,1.283h6.036a1.262,1.262,0,0,0,1.332-1.283v-.57a1.363,1.363,0,0,0-1.332-1.33Zm4.421-17.531c-1.092,0-2,.049-2.71.049-.9,0-.851-.524-.851-1.521s-.051-1.521.851-1.521c.571,0,1.664.047,2.71.047h2.66c1.141,0,2.139-.047,2.708-.047.857,0,.9.428.9,1.521s-.045,1.521-.9,1.521c-.807,0-1.615-.049-2.708-.049Zm0,5.037c-1.046,0-2,.1-2.71.1-.9,0-.851-.477-.851-1.569,0-1.043-.051-1.519.851-1.519.523,0,1.618.093,2.71.093h2.66c1.141,0,2.139-.093,2.708-.093.9,0,.857.475.857,1.519,0,1.092.045,1.569-.857,1.569-.807,0-1.709-.1-2.708-.1Z" transform="translate(26.033 39.322)" fill="#674646"/>
      <path id="パス_14181" data-name="パス 14181" d="M4320.819,516.372c1.52-2.9,3.468-7.554,3.848-10.736.047-.382.094-1.046.521-1.046a22.2,22.2,0,0,1,3.327,1.092c.9.333,2.519.9,2.519,1.425,0,.284-.284.475-.521.617a2.551,2.551,0,0,0-1.1,1.663,73.927,73.927,0,0,1-4.564,10.356,1.875,1.875,0,0,0-.282.855c0,.619.429.952.9,1.332.619.475,3.518,2.755,3.518,3.374,0,.855-2.186,3.847-3.092,3.847a1.939,1.939,0,0,1-1.186-.713c-.62-.666-2.519-2.613-3.325-2.613-.571,0-.856.38-1.19.759a39.856,39.856,0,0,1-8.457,7.792c-1.139.808-6.509,4.085-7.648,4.085-1.042,0-3.371-2.9-3.371-3.563,0-.568.759-.855,1.375-1.092a3.061,3.061,0,0,0,.38-.142,34.421,34.421,0,0,0,13.158-9.5,2.5,2.5,0,0,0,.764-1.332,1.043,1.043,0,0,0-.618-.951,39.017,39.017,0,0,0-5.652-2.231c-.477-.144-1-.38-1-.95,0-.524,1.187-3.8,2.421-3.8,1.141,0,5.747,2.089,6.985,2.708a2.014,2.014,0,0,0,.713.189C4320.2,517.8,4320.44,517.038,4320.819,516.372Z" transform="translate(53.296 41.107)" fill="#674646"/>
      <path id="パス_14182" data-name="パス 14182" d="M4346.84,535.617c0,2.091.093,4.18.093,6.225,0,1.283-.616,1.425-2.374,1.425-2.616,0-3.09-.142-3.09-1.378,0-2.042.094-4.085.094-6.129V522.839c0-.286.146-1.332-.756-1.332-.48,0-1.475.808-1.855,1.094-1.426,1.044-8.98,6.081-10.214,6.081-.807,0-3.7-2.9-3.7-3.8,0-.475.424-.666.757-.808a68.4,68.4,0,0,0,18.672-12.59,40.441,40.441,0,0,0,6.462-8.029c.138-.238.424-.713.759-.713a17.664,17.664,0,0,1,3.228,1.947c.523.335,1.854,1.141,1.854,1.711,0,.286-.236.38-.473.475a2.567,2.567,0,0,0-1.854,1.139,91.206,91.206,0,0,1-6.51,7.128,2.526,2.526,0,0,0-1.091,2.138Z" transform="translate(78.338 39.202)" fill="#674646"/>
      <path id="パス_14183" data-name="パス 14183" d="M4376.471,510.555a11.305,11.305,0,0,0,2.662-.284c.142,0,.333-.049.523-.049.949,0,3.04,2.613,3.04,3.232a3.016,3.016,0,0,1-.571,1.186,27.8,27.8,0,0,0-1.472,2.566c-4.654,9.026-9.311,15.964-18.056,21.616-1.042.666-5.509,3.47-6.506,3.47-1.045,0-4.038-2.328-4.038-3.232,0-.475.567-.711.951-.855a42.12,42.12,0,0,0,18.338-15.2c.807-1.188,3.657-5.8,3.657-6.984,0-.617-.76-.666-1.425-.666h-9.026c-1.1,0-1.38.477-2,1.332-.9,1.283-6.364,7.789-7.647,7.789-.57,0-4.038-1.8-4.038-2.8a.746.746,0,0,1,.426-.666c4.991-3.943,10.5-11.022,12.686-17.007.188-.475.332-1.141.761-1.141a15.924,15.924,0,0,1,2.518,1.046c.428.238,2.85,1.141,2.85,1.663,0,.237-.236.428-.428.522-.663.237-.807.477-1.614,1.949a7.135,7.135,0,0,0-.858,1.71c0,.524.333.761.812.808Z" transform="translate(104.95 39.322)" fill="#674646"/>
      <path id="パス_14184" data-name="パス 14184" d="M4384.687,503.751a17.817,17.817,0,0,1,2.278-.236c1.33,0,1.234.713,1.33,1.8a64.917,64.917,0,0,0,1.473,8.5c.143.617.285,1.425,1.094,1.425.854,0,8.455-4.464,9.691-5.272a3.015,3.015,0,0,1,1.235-.475c.619,0,1.426,1.425,1.71,1.9a9.523,9.523,0,0,1,1.376,2.9c0,.475-.521.619-.9.761a87.194,87.194,0,0,0-11.734,5.463c-2.519,1.376-6.558,3.705-8.552,5.605-1.233,1.188-2.328,2.471-2.328,4.275,0,1.71,1.664,2.9,3.135,3.421a18.986,18.986,0,0,0,6.318.855,71.679,71.679,0,0,0,12.4-1.235,1.272,1.272,0,0,1,.426-.049c.667,0,.713,1.947.713,2.946v.57c0,1.234-.046,1.758-1,2-1.806.475-10.784.759-13.065.759-3.518,0-6.6-.189-9.739-2.043a8.366,8.366,0,0,1-4.373-7.317c0-5.177,4.278-8.551,8.22-11.118a1.465,1.465,0,0,0,.808-1.234,1.62,1.62,0,0,0-.19-.855c-.568-1.711-1.9-6.746-2.374-8.693a30.744,30.744,0,0,0-.9-3.137,2.487,2.487,0,0,1-.141-.571C4381.6,503.988,4383.164,503.988,4384.687,503.751Z" transform="translate(131.029 39.998)" fill="#674646"/>
      <path id="パス_14185" data-name="パス 14185" d="M4410.513,524.961c-.236,0-.332.237-.332.428v11.26c0,2.233.143,4.464.143,6.7,0,1.425-.523,1.474-2.471,1.474-1.9,0-2.42-.049-2.42-1.425,0-2.233.094-4.466.094-6.746V526.292c0-.1-.047-.24-.191-.24a.213.213,0,0,0-.189.144,42.633,42.633,0,0,1-3.942,8.6c-.286.428-.476.855-1.046.855-.9,0-2.9-1.661-2.9-2.611a3.036,3.036,0,0,1,.711-1.474c2.705-3.991,4.94-9.739,6.367-14.347,0-.142.047-.286.047-.38,0-.666-.477-.9-1.044-.9h-.1c-1.378,0-2.756.142-3.708.142-1.091,0-1.043-.712-1.043-2.375,0-1.756-.048-2.375,1.093-2.375,1,0,2.28.1,3.659.1h.949c.95,0,1.331-.38,1.331-1.33v-3.61a24.137,24.137,0,0,0-.141-3.232,1.239,1.239,0,0,1-.05-.426c0-.571.378-.666.81-.666.615,0,3.323.284,4.036.38.381.049,1.045.1,1.045.617,0,.286-.19.382-.523.666-.474.382-.522,1.283-.522,2.662v3.61c0,.95.428,1.33,1.329,1.33h.477c1.377,0,2.66-.1,3.659-.1,1.139,0,1.092.619,1.092,2.375,0,1.663.047,2.375-1.045,2.375-.952,0-2.328-.142-3.706-.142h-.477c-.9,0-1.281.382-1.329,1.283a1.4,1.4,0,0,0,.332,1.045,65.03,65.03,0,0,0,5.8,7.175c.283.284.712.664.712,1.043,0,.9-1.854,2.708-2.664,2.708a1.245,1.245,0,0,1-.948-.664,29.971,29.971,0,0,1-2.566-3.374A.478.478,0,0,0,4410.513,524.961Zm23.184,17.2c0-.762-.328-1.095-1.092-1.095h-8.121c-.76,0-1.093.333-1.093,1.095v.615c0,1.332-.476,1.332-2.377,1.332s-2.467,0-2.467-1.332c0-1.851.093-3.656.093-5.51v-25.8c0-1.425-.047-2.85-.047-4.322,0-1.709.476-2.28,2.231-2.28,1.1,0,2.188.049,3.28.049h8.932c1.046,0,2.138-.049,3.183-.049,1.756,0,2.329.475,2.329,2.28,0,1.425-.1,2.9-.1,4.322v25.8c0,1.853.1,3.7.1,5.558,0,1.283-.572,1.283-2.424,1.283-1.661,0-2.425.047-2.425-1.187Zm-1.231-26.986a1.3,1.3,0,0,0,1.328-1.332v-3.181a1.33,1.33,0,0,0-1.328-1.332h-7.841a1.36,1.36,0,0,0-1.33,1.332v3.181a1.328,1.328,0,0,0,1.33,1.332Zm-9.17,9.122a1.359,1.359,0,0,0,1.33,1.33h7.841a1.33,1.33,0,0,0,1.328-1.33v-3.707c-.1-.806-.476-1.281-1.328-1.281h-7.841a1.258,1.258,0,0,0-1.33,1.281Zm0,11.117a1.356,1.356,0,0,0,1.33,1.328h7.841a1.326,1.326,0,0,0,1.328-1.328V531.09a1.327,1.327,0,0,0-1.328-1.33h-7.841a1.357,1.357,0,0,0-1.33,1.33Z" transform="translate(152.748 38.599)" fill="#674646"/>
      <path id="パス_14186" data-name="パス 14186" d="M4428.473,512.466c-.476.24-.476.333-.571,1.332a61.175,61.175,0,0,1-1.664,9.739c-.19.76-.329,1.283-1.235,1.283-.712,0-2.8-.428-2.8-1.283a4.251,4.251,0,0,1,.236-1.045,40.159,40.159,0,0,0,1.663-10.072v-.569c0-.524.1-.952.713-.952.238,0,2,.24,2.377.286.092,0,.19.047.284.047.521.1,1.38.191,1.38.761C4428.856,512.231,4428.613,512.373,4428.473,512.466Zm.711-3.847c0-2.329-.1-5.131-.1-5.606,0-.761.476-.808,1.092-.808.808,0,2.756.142,3.611.237.43.047,1.237.142,1.237.759,0,.382-.382.619-.666.808-.523.475-.571,1.521-.571,3.279v29.692c0,2.14.1,4.276.1,6.414,0,1.283-.666,1.52-2.376,1.52-2.089,0-2.422-.475-2.422-1.709,0-2.091.1-4.133.1-6.225ZM4449,531.091c0-.9-.383-1.332-1.33-1.332h-1.711c-1.709,0-3.373.142-5.081.142-1.236,0-1.189-.664-1.189-2.327s-.047-2.329,1.232-2.329c1.666,0,3.329.142,5.038.142h1.711c.946,0,1.33-.38,1.33-1.33V518.5c0-.9-.383-1.33-1.33-1.33h-2.47c-.95.1-1.376.286-1.662,1.188a31.052,31.052,0,0,1-2.139,5.368.971.971,0,0,1-.95.666c-.808,0-3.278-.666-3.278-1.71a16.3,16.3,0,0,1,1-2.518,3.974,3.974,0,0,0,.38-.952c0-.331-.285-.473-.667-.426-.237,0-.475.047-.711.047-.9,0-1.044-.38-1.191-1.188a41.613,41.613,0,0,0-1.47-6.414,2.874,2.874,0,0,1-.142-.617c0-.9,2.042-1.33,2.375-1.33.856,0,1.044.759,1.521,2.471.381,1.234.664,2.517.947,3.8a.362.362,0,0,0,.333.286c.146,0,.242-.1.333-.238a46.8,46.8,0,0,0,1.713-9.264c.047-.522.047-1.188.759-1.188.426,0,2.708.475,3.278.571.43.1,1.379.238,1.379.808,0,.284-.24.473-.478.617-.569.38-.616.664-.852,2.043-.1.617-.241,1.378-.431,2.422v.286c0,.666.477.95,1.092.95h1.332c.946,0,1.33-.382,1.33-1.332v-4.085c0-1.425-.093-3.039-.188-4.18,0-.142-.048-.333-.048-.475,0-.571.379-.666.856-.666.616,0,3.61.286,4.369.38.38,0,1.092.049,1.092.57,0,.333-.239.428-.665.761-.523.333-.568,1.092-.568,2.755v4.94c0,.95.378,1.332,1.328,1.332h2.564c1.808,0,3.563-.142,5.324-.142,1.14,0,1.092.57,1.092,2.327,0,1.663.048,2.282-1.092,2.282-1.76,0-3.516-.144-5.324-.144h-2.564c-.949,0-1.328.428-1.328,1.33v5.559c0,.95.378,1.33,1.328,1.33h1.332c1.71,0,3.371-.142,5.036-.142,1.28,0,1.234.666,1.234,2.329,0,1.614.046,2.327-1.139,2.327-1.71,0-3.421-.142-5.131-.142h-1.332c-.949,0-1.328.382-1.328,1.332V537.5c0,.905.378,1.283,1.328,1.283h3.471c1.756,0,3.514-.093,5.224-.093,1.237,0,1.187.617,1.187,2.327s.05,2.282-1.187,2.282c-1.759,0-3.468-.1-5.224-.1h-15.2c-1.762,0-3.47.1-5.229.1-1.234,0-1.188-.619-1.188-2.329s-.046-2.28,1.188-2.28c1.759,0,3.467.093,5.229.093h4.226c.946,0,1.33-.378,1.33-1.283Z" transform="translate(178.443 38.551)" fill="#674646"/>
      <path id="パス_14187" data-name="パス 14187" d="M4453.532,530.282c-.047-.524-.24-1-.856-1-.142,0-.239.049-.38.049a8.5,8.5,0,0,0-.854.284c-1.332.428-1.427.428-1.663,1.046a.661.661,0,0,1-.619.521c-.475,0-.618-.426-.808-1.046a36.778,36.778,0,0,1-1.044-3.656c0-.523.474-.666,1.9-1,.761-.191,1.8-.428,3.136-.854.9-.333,1.1-.713,1.189-1.663v-6.6c0-.9-.427-1.283-1.332-1.33-1,.047-2.231.142-3.135.142-1.14,0-1.094-.666-1.094-2.28,0-1.662-.046-2.328,1.094-2.328,1.044,0,2.09.191,3.135.142a1.163,1.163,0,0,0,1.332-1.33v-2.042a26.678,26.678,0,0,0-.193-3.99v-.428c0-.617.382-.713.905-.713.713,0,2.992.189,3.849.238.38.047,1.187.047,1.187.617,0,.429-.333.571-.669.76-.471.335-.518,1.048-.518,2.566v2.992c0,.857.285,1.283,1.187,1.33.948-.047,1.995-.142,2.85-.142,1.187,0,1.092.712,1.092,2.328,0,1.568.095,2.28-1.092,2.28-.38,0-2.281-.1-2.85-.142-.9.1-1.187.475-1.187,1.33V521.4c.047.475.189.95.76.95a1.217,1.217,0,0,0,.427-.047,35.265,35.265,0,0,1,3.563-1.379c1,0,1.14,1.852,1.14,2.613,0,1.709-.286,1.663-4.7,3.372a1.534,1.534,0,0,0-1.187,1.758v8.314c0,1.046.047,2.138.047,3.184a4.153,4.153,0,0,1-1.141,3.372c-1.329,1.141-3.755,1.236-5.51,1.236-1.19,0-2.708.333-2.708-3.516,0-.808.14-1.425,1.092-1.425.331,0,1.136.1,1.806.1,2.042,0,1.852-.854,1.852-3.088Zm14.726-15.868c-1,.047-2.041.094-3.088.094-1.093,0-1-.569-1-2.28,0-1.756-.1-2.327,1-2.327,1.047,0,2.28.093,3.374.093.809,0,1.235-.38,1.235-1.186.05-1.853-.1-3.707-.1-5.512,0-.713.1-1.092.9-1.092a8.3,8.3,0,0,1,1.1.1l1.563.142c1.334.142,2.331.1,2.331.759,0,.333-.38.571-.665.761-.286.237-.381.284-.381.9v.142c0,1.281-.047,2.517-.095,3.752.048.9.428,1.234,1.283,1.234h8.025c1.716,0,3.425-.093,5.135-.093,1.091,0,1.045.617,1.045,2.327s.046,2.28-1.045,2.28c-1.71,0-3.419-.094-5.135-.094h-8.214a1.189,1.189,0,0,0-1.379,1.234c-.094.808-.14,1.57-.238,2.375v.191c0,.759.478,1.045,1.19,1.045h6.175c1.046,0,2.087-.049,3.134-.049a2.164,2.164,0,0,1,2.091,1.045,3.47,3.47,0,0,1,.9,2.091c0,2.755-3.039,8.931-4.605,11.353a1.816,1.816,0,0,0-.286.9,1.635,1.635,0,0,0,.473,1,36.991,36.991,0,0,0,6.416,4.8c.284.191.712.428.712.808,0,.95-2.092,3.421-3.089,3.421-1.184,0-6.032-4.278-7.028-5.275a1.366,1.366,0,0,0-.906-.428,1.423,1.423,0,0,0-.9.475c-1.092,1.045-5.654,5.086-7.081,5.086-.994,0-2.944-2.14-2.944-3.186,0-.568.761-1,1.475-1.423a32.361,32.361,0,0,0,5.557-4.229,1.336,1.336,0,0,0,.476-1,1.6,1.6,0,0,0-.335-.9,37.682,37.682,0,0,1-2.8-5.273.507.507,0,0,0-.426-.335.415.415,0,0,0-.426.335,49.788,49.788,0,0,1-7.412,13.919c-.429.571-1.1,1.567-1.855,1.567-.9,0-3.279-1.9-3.279-2.85,0-.38.571-1.045.859-1.332,6.08-7.743,8.454-14.441,9.455-24.133C4469.448,514.842,4469.115,514.507,4468.258,514.414Zm8.457,9.168c-.523.047-1,.189-1,.808a1.066,1.066,0,0,0,.1.38,25.4,25.4,0,0,0,2.517,5.084c.191.237.379.475.713.475a.782.782,0,0,0,.663-.475c.62-1.046,2.233-4.562,2.233-5.654,0-.571-.474-.617-1.233-.617Z" transform="translate(204.306 38.648)" fill="#674646"/>
      <path id="パス_14188" data-name="パス 14188" d="M4486.784,526.674c.713,0,1.474-.049,2.188-.049,1.379,0,2.092.428,2.092,1.9,0,1.092-.049,2.138-.049,3.232v6.7c0,1.377.049,2.755.049,4.18,0,1.046-.429,1-2.184,1-1.716,0-2.282.049-2.282-.95v-.568c0-.57-.285-.808-.854-.808h-2.709c-.9,0-1.237.333-1.283,1.234,0,.428.046.9.046,1.332,0,1-.519.95-2.234.95-1.8,0-2.276,0-2.276-1,0-1.376.094-2.8.094-4.18V535.13c0-.191-.094-.428-.334-.428a.486.486,0,0,0-.331.191c-.334.57-1.046,1.851-1.755,1.851-.81,0-2.852-2.042-2.852-3.039a1.963,1.963,0,0,1,.521-1.092,30.111,30.111,0,0,0,3.992-8.791c0-.093.045-.236.045-.331,0-.617-.471-.855-1-.855-.38,0-.709.047-1.09.047-1.045,0-1.093-.475-1.093-2.138s0-2.138,1.093-2.138c.616,0,1.283,0,1.9.047.9-.047,1.327-.331,1.47-1.234,0-.191.048-.38.048-.617,0-.808-.286-1.237-1.14-1.237-.9,0-2.375.049-3.23.049-1.141,0-1.092-.57-1.092-1.949,0-1.472-.048-2,1.142-2s2.324.048,3.464.1c.9-.047,1.094-.522,1.19-1.283v-.617c0-.9-.382-1.234-1.286-1.283-.851,0-1.757.1-2.612.1-.806,0-.806-.475-.806-2,0-1.568-.046-2.089.806-2.089s1.947.1,3.136.1h7.886c1.046,0,2.091-.1,3.134-.1,1.665,0,2.092.569,2.092,2.327,0,1.236-.094,2.424-.048,3.659,0,.761.333,1.092,1.092,1.092,1.235.048,1.284.286,1.284,1.949,0,1.472.046,2-1.141,2h-.378c-.62,0-.856.333-.856.9v2.042c0,1.428.1,2.853.1,4.278,0,1.281-.428,1.281-2.184,1.281-1.287,0-1.711,0-2-.38-.333-.57-.571-1-1.14-1h-2.659a1.338,1.338,0,0,0-1.571,1.188l-.426,1.71a.918.918,0,0,0-.048.379c0,.619.428.857,1,.857Zm-.091,5.319a1.329,1.329,0,0,0-1.331-1.33h-2.328a1.328,1.328,0,0,0-1.332,1.33v4.087a1.328,1.328,0,0,0,1.332,1.33h2.328a1.329,1.329,0,0,0,1.331-1.33Zm-.19-15.344c0-.9-.379-1.33-1.33-1.33H4483.7c-.9,0-1.284.38-1.425,1.283,0,.237-.049.426-.049.664v.191c0,.759.478,1.046,1.187,1.046h1.76c.951,0,1.33-.38,1.33-1.332Zm0-6.935c0-.952-.379-1.332-1.33-1.332h-1.236c-.9,0-1.233.379-1.33,1.332v.568a1.116,1.116,0,0,0,1.284,1.283h1.282c.951,0,1.33-.38,1.33-1.33Zm22.042-7.555a26.276,26.276,0,0,1,3.518,1.234c.712.286,1.426.475,1.426.952s-.431.569-.81.615c-.333.049-.427.144-.665.524-.713,1.663-1.377,3.277-2.139,4.846a.924.924,0,0,0-.142.475c0,.475.38.664.809.664.713,0,1.425-.047,2.138-.047,1.188,0,1.139.617,1.139,2.138,0,1.567.049,2.138-1.139,2.138-1.474,0-2.9-.1-4.371-.1h-.949c-.9,0-1.333.38-1.333,1.283v1.9c0,.95.429,1.33,1.333,1.33,1.424.047,2.85-.1,4.324-.1,1.328,0,1.235.619,1.235,2.282s.093,2.28-1.235,2.28c-1.475,0-2.9-.142-4.324-.1-.9,0-1.333.382-1.333,1.283v2.138c0,.95.429,1.33,1.333,1.33h1.043c1.664,0,3.328-.1,4.989-.1,1.285,0,1.234.666,1.234,2.28,0,1.663,0,2.282-1.234,2.282-1.662,0-3.326-.142-4.989-.142h-1.043c-.9,0-1.333.38-1.333,1.33v1.758c0,2.231.145,4.464.145,6.7,0,1.474-.475,1.521-2.423,1.521s-2.422-.047-2.422-1.472c0-2.282.095-4.515.095-6.746v-1.758c0-.9-.38-1.33-1.283-1.33h-1.188c-1.661,0-3.326.142-4.988.142-1.285,0-1.233-.619-1.233-2.282,0-1.567-.052-2.28,1.187-2.28,1.661,0,3.325.1,5.035.1h1.188c.9,0,1.283-.38,1.283-1.33v-2.138c0-.9-.38-1.283-1.283-1.283-1.331-.047-2.614.1-3.943.1-1.285,0-1.235-.666-1.235-2.28,0-1.663-.05-2.282,1.235-2.282,1.329,0,2.612.142,3.943.1.9,0,1.283-.38,1.283-1.33v-1.9c0-.9-.38-1.283-1.283-1.283h-.618c-1.476,0-2.9.1-4.37.1-1.189,0-1.141-.664-1.141-2.138s-.048-2.138,1.141-2.138c1.472,0,2.945.1,4.37.1h3.7a1.593,1.593,0,0,0,1.806-1.092,49.531,49.531,0,0,0,2.85-7.508C4507.975,502.539,4508.069,502.159,4508.545,502.159Zm-10.07,9.026c-.523,0-.808-.475-.952-.9a49.715,49.715,0,0,0-2.614-5.605,1.664,1.664,0,0,1-.283-.808c0-.855,2.8-1.852,3.325-1.852.713,0,1.142.855,2.424,3.468.048.142.144.333.237.571a16.134,16.134,0,0,1,1.283,3.277C4501.9,510.473,4498.854,511.185,4498.476,511.185Z" transform="translate(229.856 38.455)" fill="#674646"/>
      <path id="パス_14189" data-name="パス 14189" d="M4523.92,518.4h16.63v.189l-13.446,9.739,5.273,16.059-.142.047-13.636-9.881-13.633,9.881-.143-.047,5.274-16.059-13.448-9.739V518.4h16.629l5.226-15.964h.19Z" transform="translate(255.143 38.889)" fill="#674646"/>
    </g>
  </g>
</svg>
