<svg xmlns="http://www.w3.org/2000/svg" width="594.61" height="50.41" viewBox="0 0 594.61 50.41">
  <g id="グループ_347" data-name="グループ 347" transform="translate(-930.84 -181.59)">
    <path id="パス_4701" data-name="パス 4701" d="M937.22,222.65a.549.549,0,0,0-.56.5c-.39,1.57-1.23,5.15-1.79,6.5-.28.62-.5,1.01-1.23,1.01-.78,0-2.8-.5-2.8-1.51a7.458,7.458,0,0,1,.39-1.51c1.62-4.54,3.3-12.43,3.3-17.25v-.62c0-.56.22-.9.84-.9.5,0,2.63.39,3.3.45.45.06,1.06.22,1.06.73,0,.28-.34.5-.56.62-.67.39-.73.56-.9,2.3-.06.62-.11,1.4-.28,2.74a3.421,3.421,0,0,0-.06.78,2.887,2.887,0,0,0,.39,1.51,11.037,11.037,0,0,0,2.18,2.91.846.846,0,0,0,.5.22c.45,0,.56-.39.56-.78v-9.91a28.439,28.439,0,0,0-.17-3.86,1.783,1.783,0,0,1-.06-.56c0-.67.39-.78.95-.78.78,0,2.3.22,3.19.28.73.06,1.79.11,1.79.78,0,.39-.28.5-.78.78-.67.45-.73,1.18-.73,2.63v1.01c.11,1.12.5,1.57,1.57,1.57h1.46c1.46,0,2.86-.11,3.64-.11,1.12,0,1.12.67,1.12,2.13s0,2.13-1.12,2.13c-.73,0-2.13-.11-3.64-.11h-1.46c-1.06,0-1.57.45-1.57,1.57v4.98c0,1.18.28,1.68,1.4,2.07a21.058,21.058,0,0,0,4.14.95c3.64.62,11.03.62,15.01.62,3.58,0,7.17-.11,10.81-.22.95,0,1.96-.17,2.97-.17,1.06,0,1.29.67,1.29,1.62s-.22,2.35-1.29,2.69c-.78.28-6.94.34-12.6.34-4.2,0-8.18-.06-9.46-.06-7.5,0-15.57-1.12-20.33-7.73a.64.64,0,0,0-.5-.34Zm4.42-27.5c0-1.06-.5-1.46-1.57-1.57-1.51,0-3.08.11-4.59.11-1.06,0-1.18-.5-1.18-2.07s.11-2.07,1.18-2.07c1.51,0,3.08.17,4.59.11a1.373,1.373,0,0,0,1.57-1.57v-.78a29.422,29.422,0,0,0-.22-4.37,1.3,1.3,0,0,1-.06-.5c0-.62.39-.73.95-.73.9,0,2.3.11,3.25.22.78.06,1.85.11,1.85.78,0,.39-.34.5-.78.84-.78.5-.73,1.29-.73,3.75v.78c0,1.12.45,1.46,1.57,1.57,1.23-.06,3.08-.11,4.2-.11,1.18,0,1.18.62,1.18,2.07s0,2.07-1.12,2.07-3.08-.06-4.31-.11c-1.12.11-1.51.45-1.51,1.57v4.03c0,1.12.45,1.57,1.57,1.57,1.9.06,3.81-.11,5.71-.11,1.12,0,1.12.62,1.12,2.13s0,2.13-1.12,2.13c-1.9,0-3.75-.11-5.6-.11h-8.74c-1.9,0-3.81.11-5.6.11-1.12,0-1.18-.56-1.18-2.13s.06-2.13,1.18-2.13c1.79,0,3.7.11,5.6.11h1.23c1.06,0,1.57-.45,1.57-1.57v-4.03Zm21.95-5.88c0-.84-.62-1.18-1.4-1.18-1.46-.06-2.97.11-4.48.11-1.18,0-1.23-.5-1.23-2.02s.06-2.07,1.23-2.07c1.51,0,3.02.11,4.54.11h9.35c1.46,0,2.91-.06,4.37-.06,2.3,0,3.25.39,3.25,2.8,0,3.25-.62,10.25-1.68,13.22-1.12,3.25-4.03,3.53-7.06,3.53-1.9,0-2.97.06-2.97-2.97,0-.62,0-1.46.78-1.46.5,0,1.9.17,2.63.17,1.9,0,2.63-.28,3.08-2.24a50.348,50.348,0,0,0,.78-7.67c0-1.34-.73-1.46-2.02-1.46H969.4c-1.06,0-1.51.39-1.68,1.46a20.219,20.219,0,0,1-8.01,13.89,2.9,2.9,0,0,1-1.51.84c-.84,0-2.63-1.62-2.63-2.58,0-.5.45-.78.84-1.01,3.98-2.86,6.38-6.22,7.17-11.14v-.28Zm9.8,31.92h-10.7a.929.929,0,0,0-.9.84c-.17.73-.56.84-2.24.84s-2.18-.06-2.18-1.23.06-2.46.06-3.7v-6.83c0-.95-.06-1.96-.06-2.91,0-1.9.95-2.41,2.69-2.41,1.06,0,2.13.06,3.19.06h9.63c1.06,0,2.07-.06,3.14-.06,1.68,0,2.69.45,2.69,2.3,0,1.01-.06,2.02-.06,3.02v6.83c0,1.23.11,2.46.11,3.7s-.62,1.23-2.24,1.23-2.07-.11-2.18-.78C974.17,221.53,974,221.25,973.39,221.19Zm-.56-3.81a1.486,1.486,0,0,0,1.51-1.57v-4.48c0-1.01-.56-1.46-1.51-1.57h-9.52a1.566,1.566,0,0,0-1.57,1.57v4.48a1.606,1.606,0,0,0,1.57,1.57Z" fill="#705772"/>
    <path id="パス_4702" data-name="パス 4702" d="M998.71,213.97c.34.06.78.22.78.62a.679.679,0,0,1-.45.62c-.45.17-.62.22-.73.73-.45,2.52-.9,4.98-1.46,7.45-.95,4.09-1.18,5.21-2.24,5.21-.67,0-2.63-.39-2.63-1.23a8.428,8.428,0,0,1,.45-1.57,56.009,56.009,0,0,0,2.35-11.31c.06-.56,0-1.12.78-1.12.39,0,2.63.5,3.14.62Zm-2.41-22.23a.725.725,0,0,0,.67-.45,72.636,72.636,0,0,0,4.03-8.85c.11-.34.22-.78.62-.78.17,0,4.09,1.51,4.09,2.35,0,.5-.45.5-.9.62-.39.06-.62.17-.73.56a89.965,89.965,0,0,1-4.31,8.62,1.572,1.572,0,0,0-.17.73,1.266,1.266,0,0,0,.45.9l1.12,1.12a1.313,1.313,0,0,0,.84.39,1.122,1.122,0,0,0,.95-.62c1.12-2.02,2.24-3.98,3.25-6.05.11-.39.28-.84.73-.84.28,0,4.14,1.74,4.14,2.52,0,.5-.56.5-.73.56a1.129,1.129,0,0,0-1.01.56,120.961,120.961,0,0,1-7.34,11.76.8.8,0,0,0-.17.5.706.706,0,0,0,.78.62c1.4-.11,2.8-.28,4.26-.39.5-.11.9-.34.9-.9a1.144,1.144,0,0,0-.11-.45,9.584,9.584,0,0,1-.84-2.13c0-.9,1.74-1.57,2.46-1.57.78,0,1.01.62,1.29,1.18.67,1.46,1.23,2.86,1.79,4.31a23.183,23.183,0,0,1,1.29,4.31c0,1.06-1.96,1.51-2.52,1.51-.84,0-1.12-.84-1.4-1.9a1.082,1.082,0,0,0-1.29-.84c-.67.11-1.34.17-2.02.28-1.06.22-1.34.56-1.46,1.74v11.31c0,2.3.17,4.65.17,7,0,1.79-.39,2.02-2.18,2.02-1.68,0-2.13-.22-2.13-2.02,0-2.35.11-4.7.11-7V211.56c0-1.01-.45-1.4-1.46-1.4-1.46.17-2.91.28-4.37.45a.89.89,0,0,0-.67.5c-.17.28-.34.62-.73.62-.56,0-.67-.56-1.01-1.9-.11-.5-.22-1.12-.45-1.9a3.492,3.492,0,0,1-.11-.78c0-.78.84-.73,2.63-.73h.73a2.129,2.129,0,0,0,1.79-1.06c.67-.95,1.34-1.96,1.96-2.91a2.181,2.181,0,0,0,.34-1.06,1.781,1.781,0,0,0-.56-1.23c-1.9-1.96-3.92-3.7-5.99-5.49-.34-.28-.84-.67-.84-1.12,0-.84,1.12-2.97,2.02-2.97.45,0,1.12.67,1.46.95a1.048,1.048,0,0,0,.62.22ZM1010.97,224a1.18,1.18,0,0,1-1.23-1.23,36.031,36.031,0,0,0-2.35-6.78,4.774,4.774,0,0,1-.34-1.18c0-.84,1.96-1.34,2.46-1.34.95,0,1.68,2.24,2.41,4.31a34.255,34.255,0,0,1,1.4,4.7c0,1.12-1.85,1.51-2.35,1.51Zm23.58-9.74h-13.16c-1.12,0-1.57.45-1.57,1.57v5.32c0,4.31.06,5.32,4.48,5.32h8.62c2.91,0,3.98-.56,4.48-5.15.11-1.18.11-1.57,1.23-1.57s3.3.34,3.3,1.79a16.086,16.086,0,0,1-2.24,7.11c-1.4,1.85-3.47,1.96-5.6,1.96h-11.26c-4.42,0-7.45-.45-7.45-5.71,0-1.51.06-3.02.06-4.54V203.34c0-.9-.06-1.85-.06-2.74-.06-.28-.17-.5-.5-.5a.507.507,0,0,0-.39.17,2.707,2.707,0,0,1-1.23.67c-.9,0-2.86-1.62-2.86-2.35,0-.5.62-.95.95-1.29a42.2,42.2,0,0,0,10.3-14.56c.17-.34.28-.73.73-.73a9.455,9.455,0,0,1,1.57.39c2.18.56,3.3.84,3.3,1.34,0,.39-.45.62-.78.73-.56.17-.78.39-1.18,1.12a.664.664,0,0,0-.06.34c0,.45.34.62.73.62h5.38c.95,0,1.9-.06,2.91-.06a3.2,3.2,0,0,1,2.97,2.63c0,1.29-3.3,5.77-4.2,7a.8.8,0,0,0-.17.5c0,.5.39.62.84.62h3.64c1.9,0,2.69.45,2.69,2.46,0,1.23-.06,2.41-.06,3.64v7.06c0,1.57.11,2.97.11,3.98,0,1.18-.56,1.23-2.3,1.23-.62,0-1.62.06-2.07-.39-.28-.39-.62-.9-1.18-.95Zm-16.13-18.14a1.009,1.009,0,0,0-.17.45c0,.56.56.62.73.62.9.06,1.79.06,2.63.06h3.86a2.346,2.346,0,0,0,2.35-1.12c.62-.78,3.42-4.65,3.42-5.38,0-.62-.84-.5-1.23-.5h-5.71a2.293,2.293,0,0,0-2.35,1.23,51.79,51.79,0,0,1-3.53,4.65Zm1.4,12.71a1.5,1.5,0,0,0,1.51,1.51h2.63a1.5,1.5,0,0,0,1.51-1.51v-6.16a1.6,1.6,0,0,0-1.51-1.57h-2.63a1.517,1.517,0,0,0-1.51,1.57Zm14.22,1.51a1.517,1.517,0,0,0,1.57-1.51v-6.16a1.6,1.6,0,0,0-1.51-1.57h-2.8a1.517,1.517,0,0,0-1.51,1.57v6.16a1.5,1.5,0,0,0,1.51,1.51h2.74Z" fill="#705772"/>
    <path id="パス_4703" data-name="パス 4703" d="M1072.41,195.21h14.34c1.85,0,3.75-.11,5.66-.11,1.06,0,1.12.45,1.12,2.07s-.06,2.13-1.12,2.13c-1.9,0-3.81-.11-5.66-.11H1071.8c-1.06,0-1.57.28-1.79,1.34-.17,1.01-.34,2.07-.56,3.08v.34c0,.78.62,1.06,1.34,1.06h14c1.4,0,2.74-.06,4.14-.06,2.02,0,2.52.9,2.52,2.74a45.033,45.033,0,0,1-.62,6.1v.28c0,.84.56,1.18,1.34,1.18h2.02c2.24,0,4.42-.11,6.66-.11,1.18,0,1.18.62,1.18,2.07,0,1.62,0,2.13-1.18,2.13-2.24,0-4.42-.11-6.66-.11h-2.8c-1.12,0-1.57.34-1.9,1.46-.9,3.19-2.18,7.45-4.93,9.52-2.13,1.57-5.66,1.79-8.23,1.79-4.09,0-4.7-.34-5.04-1.01a4.968,4.968,0,0,1-.45-2.24c0-.78.06-1.46,1.01-1.46,1.18,0,3.75.22,5.38.22,5.43,0,6.27-2.07,7.62-6.78a1.165,1.165,0,0,0,.06-.45c0-.78-.56-1.06-1.23-1.06h-23.13c-2.24,0-4.48.11-6.72.11-1.12,0-1.18-.62-1.18-2.07s0-2.13,1.18-2.13c2.24,0,4.48.11,6.72.11h24.02c1.06,0,1.57-.34,1.74-1.4a18.7,18.7,0,0,0,.34-3.53c0-1.4-.45-1.29-2.74-1.29h-14.45c-.62,0-.84.17-1.46.95a1.185,1.185,0,0,1-1.01.5c-.67,0-3.3-.17-3.3-1.12a7.641,7.641,0,0,1,.22-1.01,152.028,152.028,0,0,0,2.97-17.36c.11-.9,0-1.46.84-1.46.62,0,2.74.34,3.42.45.9.11,1.46.28,1.46.67,0,.28-.34.5-.56.62-.45.22-.62.34-.78,1.46a9.489,9.489,0,0,0-.17,1.29c0,.84.56,1.18,1.34,1.18Zm-11.7-6.94c-1.06,0-1.57.45-1.57,1.57v2.02c0,.73.11,1.51.11,2.24,0,1.18-.78,1.18-2.41,1.18-1.79,0-2.35-.06-2.35-1.29,0-.73.11-1.4.11-2.13v-2.58c0-.9-.06-1.85-.06-2.74,0-2.18,1.4-2.46,3.25-2.46s3.64.06,5.49.06h28.39c1.79,0,3.58-.06,5.38-.06s3.36.17,3.36,2.46c0,.9-.06,1.85-.06,2.74v2.91c0,.67.11,1.4.11,2.07,0,1.23-.5,1.34-2.41,1.34-1.57,0-2.41,0-2.41-1.18,0-.73.11-1.51.11-2.24v-2.35c0-1.12-.45-1.57-1.57-1.57h-33.49Z" fill="#705772"/>
    <path id="パス_4704" data-name="パス 4704" d="M1133.11,225.62c-.22,0-.67-.17-.95-.17a3.349,3.349,0,0,0-1.01.34,82.569,82.569,0,0,1-13.72,5.21,14.7,14.7,0,0,1-2.13.45c-1.23,0-2.18-2.52-2.18-3.08,0-.84.95-.95,2.07-1.18,4.54-.9,10.81-2.86,14.73-5.26a1.023,1.023,0,0,1,.56-.22c.5,0,1.46,1.12,2.13,1.85.73.78,1.12,1.23,1.12,1.51a.614.614,0,0,1-.62.56Zm-11.87-4.37c-2.18,0-4.31.11-6.5.11-1.12,0-1.12-.62-1.12-1.9s0-1.96,1.12-1.96c2.18,0,4.31.17,6.5.17h33.88c2.13,0,4.31-.17,6.5-.17,1.12,0,1.12.62,1.12,1.96s0,1.9-1.12,1.9c-2.18,0-4.37-.11-6.5-.11Zm14.67-30.8c0-.84-.34-1.18-1.12-1.18h-10.92c-2.18,0-4.31.11-6.44.11-1.12,0-1.12-.62-1.12-1.85s0-1.79,1.12-1.79c2.13,0,4.26.11,6.44.11h10.7c.95,0,1.34-.39,1.29-1.34a14.582,14.582,0,0,0-.11-1.46,1.782,1.782,0,0,1-.06-.56c0-.62.45-.78.95-.78.67,0,3.47.28,4.31.34.39.06,1.06.17,1.06.67,0,.39-.28.5-.73.84a1.207,1.207,0,0,0-.62,1.06c-.11.95.45,1.23,1.29,1.23h10.58c2.13,0,4.26-.11,6.44-.11,1.06,0,1.06.62,1.06,1.85s0,1.79-1.12,1.79c-2.13,0-4.26-.11-6.38-.11h-10.81c-.84,0-1.18.34-1.18,1.18v1.18c0,.78.34,1.12,1.18,1.12h5.04c1.29,0,2.52-.06,3.75-.06,1.74,0,2.63.34,2.63,2.24,0,1.01-.06,2.02-.06,3.02V209.6c0,.95.06,1.96.06,2.91,0,1.9-.78,2.35-2.52,2.35-1.29,0-2.58-.06-3.86-.06h-17.14c-1.23,0-2.52.06-3.75.06-1.68,0-2.63-.39-2.63-2.24,0-1.01.06-2.02.06-3.02V197.95c0-1.01-.06-2.02-.06-3.02,0-1.79.9-2.24,2.58-2.24,1.23,0,2.52.06,3.81.06h5.15c.78,0,1.12-.34,1.12-1.12v-1.18Zm11.59,8.68a1.1,1.1,0,0,0,1.12-1.18v-.73a1.06,1.06,0,0,0-1.12-1.12h-18.54a1.109,1.109,0,0,0-1.18,1.12v.73a1.151,1.151,0,0,0,1.18,1.18Zm-18.54,2.97a1.109,1.109,0,0,0-1.18,1.12V204a1.1,1.1,0,0,0,1.18,1.12h18.54a1.06,1.06,0,0,0,1.12-1.12v-.78a1.06,1.06,0,0,0-1.12-1.12Zm0,5.99a1.151,1.151,0,0,0-1.18,1.18v1.01a1.1,1.1,0,0,0,1.18,1.12h18.54a1.06,1.06,0,0,0,1.12-1.12v-1.01a1.109,1.109,0,0,0-1.12-1.18Zm31.86,23.69c-1.46,0-7.84-2.41-9.46-3.08a45.514,45.514,0,0,1-6.78-3.36c-.34-.22-.67-.45-.67-.9,0-.62,1.23-2.52,2.07-2.52a5.465,5.465,0,0,1,1.62.78c3.02,1.9,9.63,3.98,13.22,4.82,1.23.28,2.02.39,2.02,1.23,0,.73-.73,3.02-2.02,3.02Z" fill="#705772"/>
    <path id="パス_4705" data-name="パス 4705" d="M1214.87,186.87c0,.28.22.39.5.45,2.18,0,4.31-.11,6.22-.11,1.23,0,1.23.5,1.23,2.02s0,2.07-1.23,2.07c-2.18,0-4.37-.17-6.5-.17h-9.74a1.139,1.139,0,0,0-1.29,1.12c0,.11.06.28.06.34a34.288,34.288,0,0,0,1.57,5.32c.17.39.39.67.84.67a1.27,1.27,0,0,0,.78-.39,46.029,46.029,0,0,0,3.42-4.48c.22-.34.45-.73.9-.73a8.471,8.471,0,0,1,2.41,1.23c1.18.73,1.79,1.06,1.79,1.62,0,.5-.78.56-1.12.62a2.111,2.111,0,0,0-1.18,1.01,52.546,52.546,0,0,1-4.09,4.59,1.951,1.951,0,0,0-.56,1.18,1.758,1.758,0,0,0,.45,1.06c1.46,1.74,4.42,4.59,6.78,4.59,2.13,0,2.63-2.3,3.08-4.7.17-.73.22-1.34,1.12-1.34.95,0,2.91.67,2.91,1.85a14.661,14.661,0,0,1-1.4,4.98c-1.12,2.35-2.58,3.47-5.21,3.47-3.92,0-7.95-3.14-10.42-5.99a1.683,1.683,0,0,0-1.12-.56,1.352,1.352,0,0,0-.9.39c-1.4,1.06-5.94,4.65-7.5,4.65a3.291,3.291,0,0,1-2.63-2.52c0-.62.56-.9,1.06-1.18a48.824,48.824,0,0,0,6.66-4.54,1.645,1.645,0,0,0,.73-1.34,2.7,2.7,0,0,0-.22-.9,38.4,38.4,0,0,1-2.74-8.57,1.533,1.533,0,0,0-1.79-1.46h-13.22c-.95,0-1.34.45-1.34,1.34v1.4c0,.95.39,1.34,1.34,1.34h4.76c.95,0,1.96-.06,2.91-.06,1.68,0,2.24.95,2.24,2.46,0,2.3-.39,8.74-1.57,10.53-1.29,2.02-4.7,2.13-6.83,2.13-1.34,0-2.97.28-2.97-3.19,0-.62.11-1.01.78-1.01.95,0,1.96.17,2.86.17,2.41,0,3.25-.45,3.25-6.33,0-1.01-.22-1.06-1.4-1.06h-4.03c-1.12,0-1.46.39-1.74,1.46a31.214,31.214,0,0,1-3.98,11.59c-.45.73-1.4,2.46-2.3,2.46-1.06,0-3.14-1.46-3.14-2.41a1.347,1.347,0,0,1,.39-.73c3.47-4.54,4.93-11.09,4.93-16.69V192.9c0-1.06-.06-2.13-.06-3.25,0-2.13,1.18-2.46,3.02-2.46,1.57,0,3.19.11,4.76.11h10.81c1.06,0,1.46-.5,1.46-1.46,0-.34-.28-3.3-.28-3.47,0-.62.39-.67.95-.67.62,0,2.24.17,2.97.22.22,0,.45.06.67.06.9.06,1.62.11,1.62.73,0,.45-.39.56-.84.84-.56.34-.56.67-.56,1.23v1.01c.11,1.06.56,1.51,1.62,1.51h6.78c.28-.06.56-.11.56-.45a.557.557,0,0,0-.22-.39c-.67-.39-1.4-.73-1.96-1.01-1.29-.62-2.18-1.12-2.18-1.62,0-.62,1.01-2.24,1.79-2.24a14,14,0,0,1,3.14,1.51c.17.11.39.22.5.28.9.5,2.24,1.18,2.24,1.9a2.406,2.406,0,0,1-.5,1.23.471.471,0,0,0-.11.34Zm-33.82,31.81c0-1.01-.11-2.02-.11-3.08,0-2.07.84-2.58,2.8-2.58,1.4,0,2.8.11,4.2.11h20.55c1.34,0,2.74-.11,4.09-.11,2.02,0,2.86.45,2.86,2.58,0,1.06-.06,2.07-.06,3.08v5.54c0,1.01.39,1.46,1.46,1.57,1.12-.06,3.92-.17,4.7-.17,1.18,0,1.23.5,1.23,2.18,0,1.57-.06,2.13-1.18,2.13-2.02,0-3.98-.17-5.99-.17h-34.94c-2.02,0-3.98.17-5.99.17-1.18,0-1.18-.62-1.18-2.13s0-2.18,1.18-2.18c1.62,0,3.25.17,4.87.17,1.06-.11,1.51-.56,1.51-1.57v-5.54Zm10.02-.06c0-1.01-.5-1.46-1.51-1.57h-2.52a1.53,1.53,0,0,0-1.57,1.57v5.6a1.605,1.605,0,0,0,1.57,1.57h2.52a1.517,1.517,0,0,0,1.51-1.57Zm4.14,5.6c0,.95.5,1.4,1.51,1.57h2.63a1.517,1.517,0,0,0,1.51-1.57v-5.6a1.517,1.517,0,0,0-1.51-1.57h-2.63a1.517,1.517,0,0,0-1.51,1.57Zm14.22,1.57a1.53,1.53,0,0,0,1.57-1.57v-5.6a1.53,1.53,0,0,0-1.57-1.57h-2.86a1.517,1.517,0,0,0-1.51,1.57v5.6a1.6,1.6,0,0,0,1.51,1.57Z" fill="#705772"/>
    <path id="パス_4706" data-name="パス 4706" d="M1254.58,184.07c.28.11.67.28.67.67a1.219,1.219,0,0,1-.45.78c-.62.62-.73.73-1.01,2.97-.17,1.06-.56,3.92-.56,4.87,0,.62.5.73,1.06.73.9.06,1.96,2.02,1.96,2.41,0,.34-.39.67-.73,1.12l-1.9,3.42a3.12,3.12,0,0,0-.22,1.4c0,.34.06.67.5.67a.563.563,0,0,0,.45-.28c1.23-1.29,3.86-3.75,5.26-4.93,2.46-2.18,5.6-4.76,9.07-4.76a5.427,5.427,0,0,1,4.37,2.18c.84,1.34.9,3.36.9,4.93,0,5.54-.62,11.09-.62,16.63,0,1.68-.11,3.86,1.4,3.86,1.79,0,4.37-2.41,5.54-3.7a1.372,1.372,0,0,1,.95-.62c.84,0,2.02,3.36,2.02,4.14s-1.85,2.07-2.52,2.46c-2.07,1.51-4.76,3.08-7.39,3.08-4.26,0-4.7-4.54-4.7-7.78,0-5.38.67-10.75.67-16.13,0-1.46.06-3.86-1.9-3.86-2.18,0-4.98,2.52-6.61,3.86a70.209,70.209,0,0,0-7.22,7,2.682,2.682,0,0,0-1.12,2.24v.95c0,2.86.06,5.66.17,8.51.06,1.51.34,6.05.34,7.06,0,.45-.06.95-3.14.95-1.01,0-2.02,0-2.02-1.12,0-.11.11-2.8.11-3.36.11-2.46.22-4.98.22-7.5,0-.28-.11-.67-.45-.67-.28,0-.56.39-.67.62-1.68,2.52-3.19,5.1-4.65,7.78a.682.682,0,0,1-.62.45c-.84,0-3.36-2.13-3.36-3.02a2.192,2.192,0,0,1,.56-1.06,137.807,137.807,0,0,0,8.9-15.01,3.349,3.349,0,0,0,.56-1.79c0-.9.17-2.91.17-3.19,0-.45-.22-.78-.67-.78a3.635,3.635,0,0,0-1.06.34c-1.18.5-6.38,2.46-7.39,2.46-1.51,0-2.3-4.09-2.3-4.31,0-.78,1.01-.78,1.68-.84,1.68-.22,8.74-1.57,9.63-2.74.45-.5.34-1.34.39-2.02.17-2.24.34-5.1.34-7.34,0-.78-.06-1.46-.06-1.74,0-.5.17-.78.73-.78.5,0,4.2.62,4.7.78Z" fill="#705772"/>
    <path id="パス_4707" data-name="パス 4707" d="M1296.02,201.09c-1.06,0-1.06-.73-1.06-2.24s0-2.24,1.06-2.24c.78,0,2.91.11,3.98.11,1.12,0,1.51-.5,1.51-1.57v-6.78a20.952,20.952,0,0,0-.22-3.7v-.62c0-.62.39-.73.9-.73.67,0,3.42.22,4.26.28.39.06,1.18.11,1.18.67,0,.45-.34.56-.9.9-.62.45-.67.9-.67,3.25v6.72c0,1.06.39,1.57,1.46,1.57,1.29,0,2.63-.11,3.92-.11,1.06,0,1.06.67,1.06,2.24,0,1.46.06,2.24-1.01,2.24-1.29,0-2.58-.17-3.92-.11-1.06,0-1.51.5-1.51,1.57v13.78c0,.56.22,1.06.9,1.06a3.58,3.58,0,0,0,1.46-.5,27.7,27.7,0,0,1,3.36-1.4c1.06,0,1.18,1.9,1.18,2.63,0,1.01-.22,1.29-1.12,1.68-3.98,1.9-8.9,4.03-13.05,5.49-1.34.45-1.29.56-1.51,1.29-.11.34-.22.67-.62.67-.45,0-.67-.5-1.06-1.46a18.572,18.572,0,0,1-1.18-3.36c0-.5.34-.62.78-.73,1.68-.45,3.36-1.01,4.98-1.62a1.822,1.822,0,0,0,1.34-2.07V202.54c0-1.06-.45-1.57-1.57-1.57-1.29-.06-2.58.11-3.92.11Zm35-.56a1.864,1.864,0,0,0-1.29,2.07v8.9c0,2.46.11,4.93.11,7.45,0,1.62-.45,1.85-2.3,1.85s-2.3-.22-2.3-1.9c0-2.46.17-4.93.17-7.39v-7c0-.22-.06-1.06-.9-1.06a1.723,1.723,0,0,0-.5.11l-3.08,1.29a1.851,1.851,0,0,0-1.29,2.07v16.46c0,2.46.34,2.91,2.91,2.91h12.54c2.74,0,3.92-.22,4.82-5.71.17-.95.28-1.4,1.23-1.4a6.474,6.474,0,0,1,2.24.5c.78.28,1.12.56,1.12,1.46a20.539,20.539,0,0,1-2.52,7.34c-1.4,1.96-3.53,2.07-5.77,2.07h-14.9c-3.86,0-6.1-.84-6.1-5.1,0-1.23.06-2.46.06-3.64V208.87c0-.56-.22-1.01-.9-1.01a3.454,3.454,0,0,0-1.06.39,9.932,9.932,0,0,1-2.13.78c-1.01,0-1.96-2.86-1.96-3.3,0-.78,1.12-1.23,2.91-1.85.56-.22,1.12-.39,1.79-.67a1.912,1.912,0,0,0,1.34-2.13v-5.82c0-1.51-.11-3.14-.22-4.48,0-.17-.06-.39-.06-.56,0-.56.45-.67.9-.67.73,0,3.14.22,3.98.28.45.06,1.23.06,1.23.62,0,.39-.34.56-.73.78-.67.45-.73,1.4-.73,3.64v4.31c0,.22.06,1.06.9,1.06a1.723,1.723,0,0,0,.5-.11l3.02-1.29c1.12-.45,1.34-.95,1.34-2.13v-9.02c0-1.51-.11-3.08-.22-4.54,0-.17-.06-.34-.06-.56,0-.62.5-.67.95-.67.62,0,3.58.22,4.2.28.34.06.78.17.78.62,0,.39-.28.5-.67.78-.62.45-.67,1.23-.67,3.08v8.12c0,.22,0,1.06.84,1.06a1.42,1.42,0,0,0,.5-.11l2.46-1.06c.39-.17.78-.34,1.23-.56a9.644,9.644,0,0,1,3.58-1.18,2.573,2.573,0,0,1,2.63,2.8c0,3.64-.22,12.1-.56,15.57-.45,4.14-1.74,5.38-6.27,5.38-1.51,0-2.58.06-2.58-3.3,0-.56.11-1.18.78-1.18.39,0,.84.11,1.29.11,2.13,0,2.13-.95,2.35-2.86.28-2.69.5-6.89.5-9.63,0-.39.06-1.29-.56-1.29a10.65,10.65,0,0,0-2.69.95l-2.24,1.01Z" fill="#705772"/>
    <path id="パス_4708" data-name="パス 4708" d="M1382.09,189.5c0,.84.34,1.18,1.18,1.18h12.38c1.68,0,3.36-.11,5.04-.11,1.79,0,2.91.22,2.91,2.3v5.15c0,.5.06,1.51.06,2.07,0,1.06-.56,1.18-2.13,1.18s-2.18-.06-2.18-1.12c0-.67.11-1.46.11-2.13v-2.3c0-1.12-.45-1.57-1.57-1.57h-14.22c-1.12,0-1.57.45-1.57,1.57v4.7c0,1.79.11,3.58.11,5.38,0,1.68-.45,1.85-2.35,1.85s-2.35-.17-2.35-1.79c0-1.85.11-3.64.11-5.43v-4.7c0-1.12-.45-1.57-1.57-1.57h-14.11c-1.06,0-1.57.45-1.57,1.57v2.13c0,.67.11,1.4.11,2.13,0,1.06-.67,1.12-2.18,1.12s-2.13-.11-2.13-1.18c0-.73.11-1.4.11-2.07v-2.41c0-.84-.06-1.74-.06-2.58,0-2.07,1.12-2.3,2.91-2.3,1.68,0,3.36.11,5.1.11h12.26c.78,0,1.12-.39,1.12-1.18v-1.12c0-.84-.34-1.18-1.12-1.18h-8.12c-2.07,0-4.14.17-6.22.17-1.12,0-1.18-.5-1.18-1.9s.06-1.9,1.18-1.9c2.07,0,4.14.11,6.22.11h23.18c2.13,0,4.2-.11,6.27-.11,1.18,0,1.18.56,1.18,1.9s0,1.9-1.18,1.9c-2.07,0-4.14-.17-6.27-.17h-8.29c-.84,0-1.18.34-1.18,1.18v1.12Zm-15.01,39.82c-.78,0-1.06.34-1.12,1.12-.06,1.01-.39,1.18-2.35,1.18-1.74,0-2.35-.11-2.35-1.29s.11-2.35.11-3.47V215.49c0-1.12-.06-2.18-.06-3.25,0-2.02,1.18-2.41,2.97-2.41,1.57,0,3.14.06,4.7.06h21.45c1.57,0,3.14-.06,4.7-.06,1.74,0,2.97.34,2.97,2.35,0,1.12-.06,2.18-.06,3.3v11.37c0,1.18.11,2.3.11,3.47s-.67,1.29-2.35,1.29c-1.96,0-2.3-.17-2.35-1.23-.06-.73-.39-1.06-1.12-1.06h-25.26Zm-.62-29.12c-1.06,0-2.02.06-2.8.06-.95,0-.95-.62-.95-1.62,0-.95,0-1.62.95-1.62.56,0,1.68.11,2.8.11h4.82c1.12,0,2.24-.11,2.8-.11,1.01,0,.95.73.95,1.68,0,.9.06,1.57-.95,1.57-.9,0-1.79-.06-2.8-.06h-4.82Zm.5,6.05c-1.23,0-2.58.06-3.25.06-1.01,0-1.01-.67-1.01-1.62s0-1.62,1.01-1.62c.5,0,1.96.11,3.25.11h3.81c1.29,0,2.74-.11,3.25-.11.95,0,1.01.56,1.01,1.62s-.06,1.62-1.01,1.62c-.73,0-1.96-.06-3.25-.06Zm9.24,11.37a1.26,1.26,0,0,0,1.34-1.34v-1.51a1.26,1.26,0,0,0-1.34-1.34h-9.02a1.292,1.292,0,0,0-1.34,1.34v1.51a1.292,1.292,0,0,0,1.34,1.34Zm-10.36,6.72a1.26,1.26,0,0,0,1.34,1.34h9.02a1.23,1.23,0,0,0,1.34-1.34v-1.9a1.26,1.26,0,0,0-1.34-1.34h-9.02a1.292,1.292,0,0,0-1.34,1.34Zm16.02-8.06a1.292,1.292,0,0,0,1.34,1.34h9.02a1.292,1.292,0,0,0,1.34-1.34v-1.51a1.292,1.292,0,0,0-1.34-1.34h-9.02a1.292,1.292,0,0,0-1.34,1.34Zm1.34,4.82a1.292,1.292,0,0,0-1.34,1.34v1.9a1.26,1.26,0,0,0,1.34,1.34h9.02a1.26,1.26,0,0,0,1.34-1.34v-1.9a1.292,1.292,0,0,0-1.34-1.34Zm5.71-14.73c-1.23,0-2.58.06-3.25.06-1.01,0-1.01-.56-1.01-1.62,0-1.01,0-1.62,1.01-1.62.5,0,1.96.11,3.25.11h3.81c1.23,0,2.69-.11,3.25-.11.95,0,.95.67.95,1.62,0,1.06,0,1.62-.95,1.62-.78,0-2.02-.06-3.25-.06Zm0-6.05c-1.23,0-2.52.06-3.25.06-1.01,0-.95-.67-.95-1.62,0-.9-.06-1.62.95-1.62.62,0,2.02.11,3.25.11h3.81c1.23,0,2.69-.11,3.25-.11,1.01,0,1.01.62,1.01,1.62,0,1.06,0,1.62-1.01,1.62-.73,0-1.96-.06-3.25-.06Z" fill="#705772"/>
    <path id="パス_4709" data-name="パス 4709" d="M1457.13,195.44c2.18,0,4.37-.11,6.55-.11,1.18,0,1.18.56,1.18,2.24s0,2.3-1.18,2.3c-2.18,0-4.37-.17-6.55-.17h-1.57c-.39,0-.56.17-.45.5.06.5-.5.73-.84.9-.78.34-.95.5-1.18,1.29a44.342,44.342,0,0,1-5.66,13.55,2.088,2.088,0,0,0-.22.84,1.142,1.142,0,0,0,.73,1.06,114.332,114.332,0,0,1,14,8.34c.45.34,1.01.67,1.01,1.29,0,1.06-1.01,3.25-2.18,3.25a3.507,3.507,0,0,1-1.68-.9,92.067,92.067,0,0,0-14-8.57,3.039,3.039,0,0,0-.95-.22,2.129,2.129,0,0,0-1.4.62c-6.16,5.38-12.26,7.11-20.05,8.9-.56.11-2.24.5-2.69.5-1.46,0-1.96-2.18-1.96-3.3s.95-1.12,2.46-1.34c5.99-.9,13.22-2.97,17.98-6.78a.958.958,0,0,0,.39-.73.885.885,0,0,0-.62-.78c-2.69-1.18-5.38-2.18-8.12-3.14a2.2,2.2,0,0,0-.56-.11,1.38,1.38,0,0,0-1.23.78c-.34.67-.73,1.62-1.57,1.62-1.12,0-3.3-.9-3.3-1.85a6.754,6.754,0,0,1,.84-1.96,124.263,124.263,0,0,0,5.6-12.38.994.994,0,0,0,.11-.45c0-.67-.56-.9-1.12-.95h-5.32c-2.18,0-4.37.17-6.55.17-1.23,0-1.23-.56-1.23-2.3s.06-2.24,1.23-2.24c2.18,0,4.37.11,6.55.11h6.89a1.762,1.762,0,0,0,2.02-1.4,113.758,113.758,0,0,0,2.97-11.14c.11-.5.17-1.29.84-1.29a23.99,23.99,0,0,1,2.91.78l.56.17c.9.28,1.62.5,1.62,1.12,0,.5-.5.73-.84.95-.78.39-.9.95-1.12,1.74-.73,2.58-1.46,5.15-2.24,7.67a1.026,1.026,0,0,0-.06.39c0,.73.5.95,1.12,1.01h18.87Zm-8.34,5.21c0-.67-.45-.9-1.01-.95h-11.03a1.808,1.808,0,0,0-2.07,1.4c-1.18,2.74-2.18,5.54-3.42,8.29a2.234,2.234,0,0,0-.11.67c0,.62.45.95,1.01,1.18,3.02,1.06,6.1,2.18,9.07,3.47a2.38,2.38,0,0,0,.84.22,1.493,1.493,0,0,0,1.34-.84,38.546,38.546,0,0,0,5.32-12.94,1.457,1.457,0,0,0,.06-.5Z" fill="#705772"/>
    <path id="パス_4710" data-name="パス 4710" d="M1503.33,201.48v2.8c0,1.12.45,1.57,1.57,1.57h12.43c2.24,0,4.54-.11,6.78-.11,1.29,0,1.34.56,1.34,2.35s-.06,2.35-1.34,2.35c-2.24,0-4.54-.11-6.78-.11H1504.9c-1.12,0-1.57.45-1.57,1.57v9.97c0,1.51.11,3.02.11,4.54,0,5.21-6.05,5.32-9.91,5.32-1.06,0-2.35.06-2.74-.73a7.96,7.96,0,0,1-.67-3.02c0-.73.22-1.12,1.01-1.12.67,0,2.07.17,3.3.17,4.31,0,4.31-.84,4.31-4.2V211.91c0-1.12-.45-1.57-1.57-1.57h-12.66c-2.24,0-4.54.11-6.78.11-1.23,0-1.34-.5-1.34-2.35s.11-2.35,1.34-2.35c2.24,0,4.54.11,6.78.11h12.66c1.12,0,1.57-.45,1.57-1.57v-2.02a27.651,27.651,0,0,0-.22-4.26v-.45c0-.62.39-.78.9-.78.28,0,.56.06.84.06a2.581,2.581,0,0,0,1.74-.5c1.12-.84,7.78-5.82,7.78-6.89,0-.62-.78-.5-1.46-.5h-16.97c-2.18,0-4.37.11-6.61.11-1.18,0-1.23-.56-1.23-2.3,0-1.9.11-2.35,1.29-2.35,2.18,0,4.37.17,6.55.17h18.26c1.68,0,3.36-.06,5.1-.06,2.24,0,3.36,2.46,3.36,2.97,0,2.24-11.37,10.25-13.61,11.76a2.186,2.186,0,0,0-1.12,2.24Z" fill="#705772"/>
  </g>
</svg>
