<svg xmlns="http://www.w3.org/2000/svg" width="1177.626" height="123.56" viewBox="0 0 1177.626 123.56">
  <g id="グループ_2254" data-name="グループ 2254" transform="translate(-379.267 -291.048)">
    <g id="グループ_488" data-name="グループ 488" transform="translate(-3)">
      <g id="グループ_487" data-name="グループ 487">
        <path id="パス_3899" data-name="パス 3899" d="M436.642,345.982l3.25,21.375c-7.75.625-13.375,1.625-16.875,3.125-5.875,2.625-8.875,7-8.875,13.125,0,5.875,3.375,10.875,10.25,14.875l-9.625,16.125c-12.875-7.75-19.375-18.125-19.375-31a31.982,31.982,0,0,1,6.375-19.5,36.011,36.011,0,0,1,16.75-12.25l-.875-5.875H389.767v-17.5h25.25l-.875-5.875H389.767v-17.5h21.625l-.75-5.875,18.5-2.5,1.25,8.375h15.375v17.5H433.142l.875,5.875h11.75v17.5Z" fill="#fff"/>
        <path id="パス_3900" data-name="パス 3900" d="M558.767,394.607l-13.625-8.75a31.017,31.017,0,0,0,5.375-17.125,20.97,20.97,0,0,0-3.25-11.5,15.648,15.648,0,0,0-9.25-6.5c-1.375,25.375-6.875,45.5-16.5,60.625l-13.75-8.75q11.813-18.75,13.875-51a69.782,69.782,0,0,0-18.25,9.25v20.375h-16.25V336.857h16.25v5a67.737,67.737,0,0,1,18.375-7.125,76.5,76.5,0,0,0-1.375-12.25l15.875-3.5a111.607,111.607,0,0,1,1.75,15.125q13.125,2.063,21,11.625a35.766,35.766,0,0,1,7.75,23A46.624,46.624,0,0,1,558.767,394.607Z" fill="#fff"/>
        <path id="パス_3901" data-name="パス 3901" d="M656.767,400.982c-6.875,7-15.75,10.5-26.5,10.5-7.875,0-14.25-2.5-19.25-7.375s-7.5-11.25-7.5-19a20.591,20.591,0,0,1,7.625-16.25,25,25,0,0,1,17-6.375c8.25,0,15,3.5,20.125,10.5a28.82,28.82,0,0,0-8.375-18.125c-3.5-3.625-9.125-7.5-16.75-11.5l11.125-22.375H609.142v-18.75h55.375l-16.875,34a53.927,53.927,0,0,1,13.875,17,44.224,44.224,0,0,1,5.625,21.125C667.142,385.107,663.642,393.982,656.767,400.982Zm-20.375-13.875a10.883,10.883,0,0,0-3.25-4.5,7.534,7.534,0,0,0-5-2,7.307,7.307,0,0,0-3.875,1.375,3.756,3.756,0,0,0-2,3.125c0,5.125,2.625,7.625,8,7.625,7.75,0,13.125-3.25,16.125-9.875Z" fill="#fff"/>
        <path id="パス_3902" data-name="パス 3902" d="M759.142,345.982l3.25,21.375c-7.75.625-13.375,1.625-16.875,3.125-5.875,2.625-8.875,7-8.875,13.125,0,5.875,3.375,10.875,10.25,14.875l-9.625,16.125c-12.875-7.75-19.375-18.125-19.375-31a31.982,31.982,0,0,1,6.375-19.5,36.011,36.011,0,0,1,16.75-12.25l-.875-5.875H712.267v-17.5h25.25l-.875-5.875H712.267v-17.5h21.625l-.75-5.875,18.5-2.5,1.25,8.375h15.375v17.5H755.642l.875,5.875h11.75v17.5Z" fill="#fff"/>
        <path id="パス_3903" data-name="パス 3903" d="M881.267,394.607l-13.625-8.75a31.017,31.017,0,0,0,5.375-17.125,20.97,20.97,0,0,0-3.25-11.5,15.648,15.648,0,0,0-9.25-6.5c-1.375,25.375-6.875,45.5-16.5,60.625l-13.75-8.75q11.813-18.75,13.875-51a69.782,69.782,0,0,0-18.25,9.25v20.375h-16.25V336.857h16.25v5a67.736,67.736,0,0,1,18.375-7.125,76.5,76.5,0,0,0-1.375-12.25l15.875-3.5a111.607,111.607,0,0,1,1.75,15.125q13.125,2.063,21,11.625a35.766,35.766,0,0,1,7.75,23A46.624,46.624,0,0,1,881.267,394.607Z" fill="#fff"/>
        <path id="パス_3904" data-name="パス 3904" d="M979.268,400.982c-6.875,7-15.75,10.5-26.5,10.5-7.875,0-14.25-2.5-19.25-7.375s-7.5-11.25-7.5-19a20.591,20.591,0,0,1,7.625-16.25,25,25,0,0,1,17-6.375c8.25,0,15,3.5,20.126,10.5a28.82,28.82,0,0,0-8.375-18.125c-3.5-3.625-9.126-7.5-16.751-11.5l11.125-22.375H931.642v-18.75h55.376l-16.875,34a53.927,53.927,0,0,1,13.875,17,44.224,44.224,0,0,1,5.625,21.125C989.643,385.107,986.143,393.982,979.268,400.982Zm-20.376-13.875a10.883,10.883,0,0,0-3.25-4.5,7.534,7.534,0,0,0-5-2,7.307,7.307,0,0,0-3.875,1.375,3.756,3.756,0,0,0-2,3.125c0,5.125,2.625,7.625,8,7.625,7.75,0,13.126-3.25,16.126-9.875Z" fill="#fff"/>
        <path id="パス_3905" data-name="パス 3905" d="M1043.268,413.107l-12-14.5c10.25-8.375,19.875-19,29-31.625l-17.25-12.75,11-15.125,16.5,12.125c3.375-5.625,6.625-11.5,9.5-17.5l-22.75-11.75-26.375,33.375-14.75-11.5,36.125-45.75,52.125,27.25Q1079.08,383.294,1043.268,413.107Zm61.875-97-8.875-8.625-8.75,9-8.875-8.625,8.625-9,9,8.625,8.75-8.875,8.875,8.625Z" fill="#fff"/>
        <path id="パス_3906" data-name="パス 3906" d="M1126.143,362.482v-17.5h102.5v17.5Z" fill="#fff"/>
        <path id="パス_3907" data-name="パス 3907" d="M1278.268,414.107l-12-14.375q28.875-23.812,48.75-64.875l-22.75-11.875-26.375,33.5-14.75-11.625,36.125-45.75,52.125,27.25Q1314.455,384.107,1278.268,414.107Z" fill="#fff"/>
        <path id="パス_3908" data-name="パス 3908" d="M1403.893,353.232c1.375,10.25,4.25,18.625,8.625,25.25s11.125,12.25,20,17l-8.875,16.5q-18.187-9.75-27.375-24c-5.875-9.125-9.625-20.75-11.25-34.75h-15.5v-18.75h14.5c0-4,.125-8.125.375-12.25h-14.875v-18.75h69v18.75h-35.375c-.25,4.375-.375,8.375-.375,12.25h35.75v18.75Z" fill="#fff"/>
        <path id="パス_3909" data-name="パス 3909" d="M1541.143,407.732V343.857h-21.125q-7.312,39.188-27,63.25l-14.375-12c10.375-12.625,17.875-29.75,22.25-51.25h-21.125v-18.75h23.875a193.832,193.832,0,0,0,1.125-20.25h18.75c0,6.625-.375,13.375-1,20.25h37.375v82.625Z" fill="#fff"/>
      </g>
    </g>
    <g id="グループ_490" data-name="グループ 490" transform="translate(-3)">
      <g id="グループ_489" data-name="グループ 489">
        <path id="パス_3910" data-name="パス 3910" d="M430.642,341.982l3.25,21.375c-7.75.625-13.375,1.625-16.875,3.125-5.875,2.625-8.875,7-8.875,13.125,0,5.875,3.375,10.875,10.25,14.875l-9.625,16.125c-12.875-7.75-19.375-18.125-19.375-31a31.982,31.982,0,0,1,6.375-19.5,36.011,36.011,0,0,1,16.75-12.25l-.875-5.875H383.767v-17.5h25.25l-.875-5.875H383.767v-17.5h21.625l-.75-5.875,18.5-2.5,1.25,8.375h15.375v17.5H427.142l.875,5.875h11.75v17.5Z" fill="none" stroke="#877877" stroke-miterlimit="10" stroke-width="3"/>
        <path id="パス_3911" data-name="パス 3911" d="M552.767,390.607l-13.625-8.75a31.017,31.017,0,0,0,5.375-17.125,20.97,20.97,0,0,0-3.25-11.5,15.648,15.648,0,0,0-9.25-6.5c-1.375,25.375-6.875,45.5-16.5,60.625l-13.75-8.75q11.813-18.75,13.875-51a69.781,69.781,0,0,0-18.25,9.25v20.375h-16.25V332.857h16.25v5a67.736,67.736,0,0,1,18.375-7.125,76.5,76.5,0,0,0-1.375-12.25l15.875-3.5a111.607,111.607,0,0,1,1.75,15.125q13.125,2.063,21,11.625a35.766,35.766,0,0,1,7.75,23A46.624,46.624,0,0,1,552.767,390.607Z" fill="none" stroke="#877877" stroke-miterlimit="10" stroke-width="3"/>
        <path id="パス_3912" data-name="パス 3912" d="M650.767,396.982c-6.875,7-15.75,10.5-26.5,10.5-7.875,0-14.25-2.5-19.25-7.375s-7.5-11.25-7.5-19a20.591,20.591,0,0,1,7.625-16.25,25,25,0,0,1,17-6.375c8.25,0,15,3.5,20.125,10.5a28.82,28.82,0,0,0-8.375-18.125c-3.5-3.625-9.125-7.5-16.75-11.5l11.125-22.375H603.142v-18.75h55.375l-16.875,34a53.927,53.927,0,0,1,13.875,17,44.224,44.224,0,0,1,5.625,21.125C661.142,381.107,657.642,389.982,650.767,396.982Zm-20.375-13.875a10.883,10.883,0,0,0-3.25-4.5,7.534,7.534,0,0,0-5-2,7.307,7.307,0,0,0-3.875,1.375,3.756,3.756,0,0,0-2,3.125c0,5.125,2.625,7.625,8,7.625,7.75,0,13.125-3.25,16.125-9.875Z" fill="none" stroke="#877877" stroke-miterlimit="10" stroke-width="3"/>
        <path id="パス_3913" data-name="パス 3913" d="M753.142,341.982l3.25,21.375c-7.75.625-13.375,1.625-16.875,3.125-5.875,2.625-8.875,7-8.875,13.125,0,5.875,3.375,10.875,10.25,14.875l-9.625,16.125c-12.875-7.75-19.375-18.125-19.375-31a31.982,31.982,0,0,1,6.375-19.5,36.011,36.011,0,0,1,16.75-12.25l-.875-5.875H706.267v-17.5h25.25l-.875-5.875H706.267v-17.5h21.625l-.75-5.875,18.5-2.5,1.25,8.375h15.375v17.5H749.642l.875,5.875h11.75v17.5Z" fill="none" stroke="#877877" stroke-miterlimit="10" stroke-width="3"/>
        <path id="パス_3914" data-name="パス 3914" d="M875.267,390.607l-13.625-8.75a31.017,31.017,0,0,0,5.375-17.125,20.97,20.97,0,0,0-3.25-11.5,15.648,15.648,0,0,0-9.25-6.5c-1.375,25.375-6.875,45.5-16.5,60.625l-13.75-8.75q11.813-18.75,13.875-51a69.782,69.782,0,0,0-18.25,9.25v20.375h-16.25V332.857h16.25v5a67.736,67.736,0,0,1,18.375-7.125,76.5,76.5,0,0,0-1.375-12.25l15.875-3.5a111.607,111.607,0,0,1,1.75,15.125q13.125,2.063,21,11.625a35.766,35.766,0,0,1,7.75,23A46.624,46.624,0,0,1,875.267,390.607Z" fill="none" stroke="#877877" stroke-miterlimit="10" stroke-width="3"/>
        <path id="パス_3915" data-name="パス 3915" d="M973.268,396.982c-6.875,7-15.751,10.5-26.5,10.5-7.875,0-14.25-2.5-19.25-7.375s-7.5-11.25-7.5-19a20.591,20.591,0,0,1,7.625-16.25,25,25,0,0,1,17-6.375c8.25,0,15,3.5,20.126,10.5a28.816,28.816,0,0,0-8.376-18.125c-3.5-3.625-9.125-7.5-16.75-11.5l11.125-22.375H925.642v-18.75h55.376l-16.875,34a53.927,53.927,0,0,1,13.875,17,44.224,44.224,0,0,1,5.625,21.125C983.643,381.107,980.143,389.982,973.268,396.982Zm-20.376-13.875a10.883,10.883,0,0,0-3.25-4.5,7.534,7.534,0,0,0-5-2,7.307,7.307,0,0,0-3.875,1.375,3.756,3.756,0,0,0-2,3.125c0,5.125,2.625,7.625,8,7.625,7.75,0,13.125-3.25,16.126-9.875Z" fill="none" stroke="#877877" stroke-miterlimit="10" stroke-width="3"/>
        <path id="パス_3916" data-name="パス 3916" d="M1037.268,409.107l-12-14.5c10.25-8.375,19.875-19,29-31.625l-17.25-12.75,11-15.125,16.5,12.125c3.375-5.625,6.625-11.5,9.5-17.5l-22.75-11.75-26.375,33.375-14.75-11.5,36.125-45.75,52.125,27.25Q1073.08,379.294,1037.268,409.107Zm61.875-97-8.875-8.625-8.75,9-8.875-8.625,8.625-9,9,8.625,8.75-8.875,8.875,8.625Z" fill="none" stroke="#877877" stroke-miterlimit="10" stroke-width="3"/>
        <path id="パス_3917" data-name="パス 3917" d="M1120.143,358.482v-17.5h102.5v17.5Z" fill="none" stroke="#877877" stroke-miterlimit="10" stroke-width="3"/>
        <path id="パス_3918" data-name="パス 3918" d="M1272.268,410.107l-12-14.375q28.875-23.812,48.75-64.875l-22.75-11.875-26.375,33.5-14.75-11.625,36.125-45.75,52.125,27.25Q1308.455,380.107,1272.268,410.107Z" fill="none" stroke="#877877" stroke-miterlimit="10" stroke-width="3"/>
        <path id="パス_3919" data-name="パス 3919" d="M1397.893,349.232c1.375,10.25,4.25,18.625,8.625,25.25s11.125,12.25,20,17l-8.875,16.5q-18.187-9.75-27.375-24c-5.875-9.125-9.625-20.75-11.25-34.75h-15.5v-18.75h14.5c0-4,.125-8.125.375-12.25h-14.875v-18.75h69v18.75h-35.375c-.25,4.375-.375,8.375-.375,12.25h35.75v18.75Z" fill="none" stroke="#877877" stroke-miterlimit="10" stroke-width="3"/>
        <path id="パス_3920" data-name="パス 3920" d="M1535.143,403.732V339.857h-21.125q-7.312,39.188-27,63.25l-14.375-12c10.375-12.625,17.875-29.75,22.25-51.25h-21.125v-18.75h23.875a193.832,193.832,0,0,0,1.125-20.25h18.75c0,6.625-.375,13.375-1,20.25h37.375v82.625Z" fill="none" stroke="#877877" stroke-miterlimit="10" stroke-width="3"/>
      </g>
    </g>
  </g>
</svg>
