<svg xmlns="http://www.w3.org/2000/svg" width="59.24" height="731.73" viewBox="0 0 59.24 731.73">
  <g id="グループ_941" data-name="グループ 941" transform="translate(-1704.549 -14286.815)">
    <g id="グループ_346" data-name="グループ 346" transform="translate(-273.801 13515.655)">
      <path id="パス_4682" data-name="パス 4682" d="M2010.18,774.36l.63.4,10.23,9.83v4.15l-10.29-9.93-13.72,10.49v-4.08l11.66-8.77-1.96-2.03-9.7.03v-3.29h24.01v3.29h-9.66l-1.2-.1Z" fill="#756c67"/>
      <path id="パス_4683" data-name="パス 4683" d="M2021.04,818.33l-16.01-9h-8v-3.22h8l16.01-8.9v3.99l-12.35,6.61,12.35,6.58v3.95Z" fill="#756c67"/>
      <path id="パス_4684" data-name="パス 4684" d="M2002.66,832.38a5.629,5.629,0,0,0-2.03,2.08,5.761,5.761,0,0,0-.75,2.91,6.29,6.29,0,0,0,.73,3.01,5.353,5.353,0,0,0,2.03,2.11,5.6,5.6,0,0,0,2.89.76h15.51v3.15h-15.61a8.517,8.517,0,0,1-4.53-1.2,8.182,8.182,0,0,1-3.06-3.25,9.7,9.7,0,0,1-1.08-4.58,9.582,9.582,0,0,1,1.08-4.55,8.09,8.09,0,0,1,3.06-3.24,8.646,8.646,0,0,1,4.53-1.18h15.61v3.22h-15.51A5.474,5.474,0,0,0,2002.66,832.38Z" fill="#756c67"/>
      <path id="パス_4685" data-name="パス 4685" d="M1997.03,872.2l8.87-5.65a7.764,7.764,0,0,1-.03-.8V862.2h-8.83v-3.22h24.01v6.41a10.665,10.665,0,0,1-.86,4.38,6.908,6.908,0,0,1-2.54,3.02,7.223,7.223,0,0,1-4.04,1.1,8.657,8.657,0,0,1-4.08-.98,6.357,6.357,0,0,1-2.82-3.01l-9.66,6.04v-3.75Zm13.32-2.77a4.74,4.74,0,0,0,3.12,1.15,4.87,4.87,0,0,0,2.09-.48,4.1,4.1,0,0,0,1.71-1.53,4.794,4.794,0,0,0,.68-2.64v-3.72h-8.97v3.49a4.633,4.633,0,0,0,1.36,3.74Z" fill="#756c67"/>
      <path id="パス_4686" data-name="パス 4686" d="M2002.66,890.56a5.629,5.629,0,0,0-2.03,2.08,5.761,5.761,0,0,0-.75,2.91,6.29,6.29,0,0,0,.73,3.01,5.353,5.353,0,0,0,2.03,2.11,5.6,5.6,0,0,0,2.89.76h15.51v3.15h-15.61a8.517,8.517,0,0,1-4.53-1.2,8.182,8.182,0,0,1-3.06-3.25,9.7,9.7,0,0,1-1.08-4.58,9.582,9.582,0,0,1,1.08-4.55,8.09,8.09,0,0,1,3.06-3.24,8.646,8.646,0,0,1,4.53-1.18h15.61v3.22h-15.51A5.474,5.474,0,0,0,2002.66,890.56Z" fill="#756c67"/>
      <path id="パス_4687" data-name="パス 4687" d="M2010.18,920.35l.63.4,10.23,9.83v4.15l-10.29-9.93-13.72,10.49v-4.08l11.66-8.77-1.96-2.03-9.7.03v-3.29h24.01v3.29h-9.66l-1.2-.1Z" fill="#756c67"/>
      <path id="パス_4688" data-name="パス 4688" d="M2021.04,964.32l-16.01-9h-8V952.1h8l16.01-8.9v3.99l-12.35,6.61,12.35,6.58v3.95Z" fill="#756c67"/>
      <path id="パス_4689" data-name="パス 4689" d="M2002.66,978.37a5.629,5.629,0,0,0-2.03,2.08,5.761,5.761,0,0,0-.75,2.91,6.29,6.29,0,0,0,.73,3.01,5.353,5.353,0,0,0,2.03,2.11,5.6,5.6,0,0,0,2.89.76h15.51v3.15h-15.61a8.517,8.517,0,0,1-4.53-1.2,8.182,8.182,0,0,1-3.06-3.25,9.7,9.7,0,0,1-1.08-4.58,9.582,9.582,0,0,1,1.08-4.55,8.09,8.09,0,0,1,3.06-3.24,8.646,8.646,0,0,1,4.53-1.18h15.61v3.22h-15.51A5.474,5.474,0,0,0,2002.66,978.37Z" fill="#756c67"/>
      <path id="パス_4690" data-name="パス 4690" d="M1997.03,1018.18l8.87-5.65a7.764,7.764,0,0,1-.03-.8v-3.55h-8.83v-3.22h24.01v6.41a10.665,10.665,0,0,1-.86,4.38,6.908,6.908,0,0,1-2.54,3.02,7.223,7.223,0,0,1-4.04,1.1,8.657,8.657,0,0,1-4.08-.98,6.357,6.357,0,0,1-2.82-3.01l-9.66,6.04v-3.75Zm13.32-2.77a4.74,4.74,0,0,0,3.12,1.15,4.87,4.87,0,0,0,2.09-.48,4.1,4.1,0,0,0,1.71-1.53,4.794,4.794,0,0,0,.68-2.64v-3.72h-8.97v3.49a4.633,4.633,0,0,0,1.36,3.74Z" fill="#756c67"/>
      <path id="パス_4691" data-name="パス 4691" d="M2002.66,1036.55a5.628,5.628,0,0,0-2.03,2.08,5.761,5.761,0,0,0-.75,2.91,6.29,6.29,0,0,0,.73,3.01,5.353,5.353,0,0,0,2.03,2.11,5.6,5.6,0,0,0,2.89.76h15.51v3.15h-15.61a8.517,8.517,0,0,1-4.53-1.2,8.183,8.183,0,0,1-3.06-3.25,9.7,9.7,0,0,1-1.08-4.58,9.582,9.582,0,0,1,1.08-4.55,8.09,8.09,0,0,1,3.06-3.24,8.646,8.646,0,0,1,4.53-1.18h15.61v3.22h-15.51A5.474,5.474,0,0,0,2002.66,1036.55Z" fill="#756c67"/>
      <path id="パス_4692" data-name="パス 4692" d="M2021.04,1079.62v6.58a14.083,14.083,0,0,1-1.78,7.42,10.683,10.683,0,0,1-4.58,4.28,13.654,13.654,0,0,1-5.93,1.35,11.571,11.571,0,0,1-6.16-1.63,11.109,11.109,0,0,1-4.12-4.35,12.447,12.447,0,0,1-1.44-5.91v-7.74Zm-20.89,7.11a10.465,10.465,0,0,0,1.05,4.75,7.8,7.8,0,0,0,3.04,3.27,9.123,9.123,0,0,0,4.75,1.18,9.275,9.275,0,0,0,4.85-1.23,8.04,8.04,0,0,0,3.07-3.27,9.485,9.485,0,0,0,1.05-4.4v-4.18h-17.8v3.89Z" fill="#756c67"/>
      <path id="パス_4693" data-name="パス 4693" d="M2003.34,1123.22v-9.23l-6.31-2.56v-3.19l25.01,10.49v.2l-25.01,10.49v-3.72l6.31-2.49Zm2.79-1.1,8.77-3.42-8.77-3.55v6.97Z" fill="#756c67"/>
      <path id="パス_4694" data-name="パス 4694" d="M1997.03,1153.11l8.87-5.65a7.765,7.765,0,0,1-.03-.8v-3.55h-8.83v-3.22h24.01v6.41a10.665,10.665,0,0,1-.86,4.38,6.907,6.907,0,0,1-2.54,3.02,7.223,7.223,0,0,1-4.04,1.1,8.656,8.656,0,0,1-4.08-.98,6.357,6.357,0,0,1-2.82-3.01l-9.66,6.04v-3.75Zm13.32-2.77a4.74,4.74,0,0,0,3.12,1.15,4.87,4.87,0,0,0,2.09-.48,4.1,4.1,0,0,0,1.71-1.53,4.793,4.793,0,0,0,.68-2.64v-3.72h-8.97v3.49a4.633,4.633,0,0,0,1.36,3.74Z" fill="#756c67"/>
      <path id="パス_4695" data-name="パス 4695" d="M2010.18,1170.98l.63.4,10.23,9.83v4.15l-10.29-9.93-13.72,10.49v-4.08l11.66-8.77-1.96-2.03-9.7.03v-3.29h24.01v3.29h-9.66l-1.2-.1Z" fill="#756c67"/>
      <path id="パス_4696" data-name="パス 4696" d="M2021.81,1220.23h-24.77v-3.19h15.54l-12.52-8.83v-.07l12.09-8.67h-15.11v-3.12h24.77v.03l-16.74,11.82,16.74,11.99v.03Z" fill="#756c67"/>
      <path id="パス_4697" data-name="パス 4697" d="M2015.13,1233.28a12.678,12.678,0,0,1,4.5,4.47,11.987,11.987,0,0,1,0,12.24,12.762,12.762,0,0,1-4.5,4.5,11.736,11.736,0,0,1-6.11,1.68,11.918,11.918,0,0,1-6.14-1.66,12.363,12.363,0,0,1-4.47-4.5,12.208,12.208,0,0,1,10.61-18.38,11.657,11.657,0,0,1,6.11,1.66Zm-10.69,2.86a9.053,9.053,0,0,0-3.32,3.27,8.818,8.818,0,0,0,3.3,12.25,9.525,9.525,0,0,0,9.22-.02,8.863,8.863,0,0,0,3.35-3.25,8.858,8.858,0,0,0-.02-9.04,8.963,8.963,0,0,0-3.37-3.24,9.343,9.343,0,0,0-4.62-1.18,8.946,8.946,0,0,0-4.55,1.2Z" fill="#756c67"/>
      <path id="パス_4698" data-name="パス 4698" d="M1997.41,1282.24a11.224,11.224,0,0,1-.65-3.87,12.64,12.64,0,0,1,1.63-6.49,11.288,11.288,0,0,1,4.38-4.32,12.378,12.378,0,0,1,6.08-1.51,13.237,13.237,0,0,1,6.39,1.53,11.328,11.328,0,0,1,4.45,4.23,11.786,11.786,0,0,1,1.61,6.13,13.183,13.183,0,0,1-1.92,6.94l-3.02-1.3a9.862,9.862,0,0,0,1.86-5.55,7.99,7.99,0,0,0-1.23-4.3,9.063,9.063,0,0,0-3.34-3.16,9.3,9.3,0,0,0-4.63-1.18,10.169,10.169,0,0,0-4.68,1.08,7.922,7.922,0,0,0-3.27,3.09,9.584,9.584,0,0,0,.65,10.24l-2.89,1.36a14.175,14.175,0,0,1-1.41-2.94Z" fill="#756c67"/>
      <path id="パス_4699" data-name="パス 4699" d="M1997.03,1315.6v-3.22h10.53v-12.59h-10.53v-3.22h24.01v3.22h-10.39v12.59h10.39v3.22Z" fill="#756c67"/>
      <path id="パス_4700" data-name="パス 4700" d="M2003.34,1341.07v-9.23l-6.31-2.56v-3.19l25.01,10.49v.2l-25.01,10.49v-3.72l6.31-2.49Zm2.79-1.1,8.77-3.42-8.77-3.55v6.97Z" fill="#756c67"/>
    </g>
    <g id="グループ_348" data-name="グループ 348" transform="translate(-273.801 13515.655)">
      <circle id="楕円形_12" data-name="楕円形 12" cx="29.62" cy="29.62" r="29.62" transform="translate(1978.35 1367.64)" fill="#8b5a4b"/>
      <circle id="楕円形_13" data-name="楕円形 13" cx="29.62" cy="29.62" r="29.62" transform="translate(1978.35 1443.65)" fill="#472e2a"/>
    </g>
  </g>
</svg>
