<svg width="14" height="8" viewBox="0 0 14 8" fill="none" xmlns="http://www.w3.org/2000/svg">
<mask id="path-1-inside-1_304_9686" fill="white">
<path d="M13.8135 1.08689L7.45021 7.4502C7.39111 7.50937 7.32093 7.5563 7.24368 7.58833C7.16643 7.62035 7.08362 7.63683 7 7.63683C6.91638 7.63683 6.83357 7.62035 6.75632 7.58833C6.67907 7.5563 6.60889 7.50937 6.5498 7.4502L0.186481 1.08689C0.0670798 0.967489 0 0.805545 0 0.636685C0 0.467826 0.0670798 0.305882 0.186481 0.186481C0.305883 0.0670789 0.467826 0 0.636685 0C0.805545 0 0.967488 0.0670789 1.08689 0.186481L7 6.10039L12.9131 0.186481C12.9722 0.127359 13.0424 0.0804612 13.1197 0.0484648C13.1969 0.0164683 13.2797 0 13.3633 0C13.4469 0 13.5297 0.0164683 13.607 0.0484648C13.6842 0.0804612 13.7544 0.127359 13.8135 0.186481C13.8726 0.245602 13.9195 0.31579 13.9515 0.393036C13.9835 0.470282 14 0.553075 14 0.636685C14 0.720296 13.9835 0.803088 13.9515 0.880334C13.9195 0.957581 13.8726 1.02777 13.8135 1.08689Z"/>
</mask>
<path d="M7.45021 7.4502L6.03599 6.03599L6.03521 6.03678L7.45021 7.4502ZM6.5498 7.4502L7.9648 6.03678L7.96401 6.03599L6.5498 7.4502ZM0.186481 1.08689L-1.22773 2.5011L0.186481 1.08689ZM0.636685 0L0.636685 -2L0.636685 0ZM1.08689 0.186481L2.5012 -1.22764L2.5011 -1.22773L1.08689 0.186481ZM7 6.10039L5.58569 7.5145L7 8.929L8.41431 7.5145L7 6.10039ZM12.9131 0.186481L11.4989 -1.22773L11.4988 -1.22764L12.9131 0.186481ZM14 0.636685L16 0.636685L14 0.636685ZM12.3993 -0.327323L6.03599 6.03599L8.86442 8.86442L15.2277 2.5011L12.3993 -0.327323ZM6.03521 6.03678C6.16186 5.90998 6.31226 5.8094 6.4778 5.74078L8.00956 9.43587C8.3296 9.3032 8.62036 9.10875 8.86521 8.86363L6.03521 6.03678ZM6.4778 5.74078C6.64335 5.67215 6.8208 5.63683 7 5.63683V9.63683C7.34645 9.63683 7.6895 9.56855 8.00956 9.43587L6.4778 5.74078ZM7 5.63683C7.17919 5.63683 7.35665 5.67215 7.5222 5.74078L5.99044 9.43587C6.3105 9.56855 6.65356 9.63683 7 9.63683V5.63683ZM7.5222 5.74078C7.68775 5.80941 7.83815 5.90999 7.9648 6.03678L5.1348 8.86363C5.37964 9.10875 5.6704 9.3032 5.99044 9.43587L7.5222 5.74078ZM7.96401 6.03599L1.6007 -0.327323L-1.22773 2.5011L5.13558 8.86442L7.96401 6.03599ZM1.6007 -0.327323C1.85636 -0.0716551 2 0.275108 2 0.636685H-2C-2 1.33598 -1.7222 2.00663 -1.22773 2.5011L1.6007 -0.327323ZM2 0.636685C2 0.998263 1.85636 1.34503 1.6007 1.60069L-1.22773 -1.22773C-1.7222 -0.733262 -2 -0.0626111 -2 0.636685H2ZM1.6007 1.60069C1.34502 1.85637 0.998259 2 0.636685 2L0.636685 -2C-0.0626069 -2 -0.733258 -1.72221 -1.22773 -1.22773L1.6007 1.60069ZM0.636685 2C0.275115 2 -0.07165 1.85637 -0.327323 1.60069L2.5011 -1.22773C2.00663 -1.72221 1.33597 -2 0.636685 -2V2ZM-0.327419 1.6006L5.58569 7.5145L8.41431 4.68627L2.5012 -1.22764L-0.327419 1.6006ZM8.41431 7.5145L14.3274 1.6006L11.4988 -1.22764L5.58569 4.68627L8.41431 7.5145ZM14.3273 1.60069C14.2007 1.7273 14.0504 1.82771 13.885 1.89622L12.3543 -1.79929C12.0344 -1.66679 11.7437 -1.47258 11.4989 -1.22773L14.3273 1.60069ZM13.885 1.89622C13.7196 1.96474 13.5423 2 13.3633 2V-2C13.0171 -2 12.6742 -1.9318 12.3543 -1.79929L13.885 1.89622ZM13.3633 2C13.1843 2 13.007 1.96474 12.8416 1.89622L14.3723 -1.79929C14.0524 -1.9318 13.7096 -2 13.3633 -2V2ZM12.8416 1.89622C12.6762 1.82771 12.5259 1.7273 12.3993 1.60069L15.2277 -1.22773C14.9829 -1.47258 14.6922 -1.66679 14.3723 -1.79929L12.8416 1.89622ZM12.3993 1.60069C12.2727 1.4741 12.1723 1.32381 12.1038 1.1584L15.7993 -0.372331C15.6668 -0.692227 15.4726 -0.982893 15.2277 -1.22773L12.3993 1.60069ZM12.1038 1.1584C12.0353 0.99301 12 0.815732 12 0.636685L16 0.636685C16 0.290418 15.9318 -0.0524459 15.7993 -0.372331L12.1038 1.1584ZM12 0.636685C12 0.457637 12.0353 0.280359 12.1038 0.114968L15.7993 1.6457C15.9318 1.32582 16 0.982955 16 0.636685L12 0.636685ZM12.1038 0.114968C12.1723 -0.0504318 12.2727 -0.200724 12.3993 -0.327323L15.2277 2.5011C15.4726 2.25626 15.6668 1.96559 15.7993 1.6457L12.1038 0.114968Z" fill="white" mask="url(#path-1-inside-1_304_9686)"/>
</svg>
