<svg width="150" height="23" viewBox="0 0 150 23" fill="none" xmlns="http://www.w3.org/2000/svg">
<path d="M20.6673 20.9554L29.4047 0H30.1968L39.4383 20.9554H41.9587V21.7235H32.0931V20.9554H34.8776L31.6611 13.6822H24.6039L21.5554 20.9554H23.7158V21.7235H18.1709V20.9554H20.6433H20.6673ZM24.94 12.9621H31.373L28.2525 5.06481L24.964 12.9621H24.94ZM55.7849 0.840134V1.60826H53.0965V20.9794H57.9453C58.5934 20.9794 59.2415 20.8833 59.8896 20.6673C60.5377 20.4513 61.1618 20.0912 61.7379 19.5871C62.314 19.0831 62.8421 18.4349 63.2981 17.6428C63.7542 16.8507 64.1143 15.8905 64.3783 14.7624H64.7624V21.7475H46.1594V20.9794H48.8478V1.60826H46.1594V0.840134H55.8089H55.7849ZM70.9073 6.81709C71.5795 5.47288 72.4436 4.32069 73.4998 3.36054C74.5559 2.40038 75.7321 1.65626 77.0523 1.15218C78.3725 0.6241 79.6447 0.384061 80.8929 0.384061C82.2372 0.384061 83.5814 0.648104 84.9016 1.15218C86.2218 1.65626 87.398 2.37638 88.4301 3.31253C89.4623 4.24868 90.2784 5.40086 90.9265 6.72108C91.5506 8.06529 91.8867 9.57753 91.8867 11.2578C91.8867 12.722 91.5987 14.1143 90.9986 15.4345C90.3985 16.7547 89.6063 17.9069 88.5982 18.915C87.59 19.9232 86.4378 20.6913 85.1176 21.2674C83.7974 21.8435 82.4052 22.1315 80.9409 22.1315C79.4767 22.1315 78.1085 21.8435 76.7643 21.2914C75.4441 20.7393 74.2679 19.9712 73.2597 19.011C72.2516 18.0509 71.4354 16.8987 70.8353 15.6025C70.2352 14.2823 69.9232 12.8661 69.9232 11.3538C69.9232 9.69755 70.2592 8.18531 70.9313 6.84109L70.9073 6.81709ZM75.228 16.2266C75.4441 17.5228 75.8041 18.555 76.2842 19.3231C76.7643 20.0912 77.3884 20.6193 78.1565 20.9313C78.9246 21.2434 79.8368 21.3874 80.8929 21.3874C82.2852 21.3874 83.3893 21.1234 84.1815 20.6193C84.9736 20.0912 85.5737 19.3711 85.9578 18.459C86.3658 17.5468 86.6059 16.4666 86.7019 15.1944C86.7979 13.9462 86.8459 12.578 86.8459 11.0898C86.8459 9.76956 86.7979 8.49736 86.7259 7.29717C86.6299 6.09698 86.3898 5.04081 86.0058 4.12866C85.5977 3.21652 84.9976 2.4724 84.2055 1.94431C83.4133 1.41623 82.2852 1.12818 80.8689 1.12818C79.5487 1.12818 78.4926 1.36822 77.7004 1.8723C76.9083 2.37638 76.3082 3.07249 75.8761 3.98464C75.4681 4.89678 75.18 5.97696 75.06 7.22516C74.916 8.47336 74.868 9.84157 74.868 11.3298C74.868 13.2981 74.988 14.9304 75.204 16.2266H75.228ZM98.8238 6.81709C99.4959 5.47288 100.36 4.32069 101.416 3.36054C102.472 2.40038 103.649 1.65626 104.969 1.15218C106.289 0.6241 107.561 0.384061 108.809 0.384061C110.154 0.384061 111.498 0.648104 112.818 1.15218C114.138 1.65626 115.314 2.37638 116.347 3.31253C117.379 4.24868 118.195 5.40086 118.843 6.72108C119.467 8.06529 119.803 9.57753 119.803 11.2578C119.803 12.722 119.515 14.1143 118.915 15.4345C118.315 16.7547 117.523 17.9069 116.515 18.915C115.506 19.9232 114.354 20.6913 113.034 21.2674C111.714 21.8435 110.322 22.1315 108.857 22.1315C107.393 22.1315 106.025 21.8435 104.681 21.2914C103.361 20.7393 102.184 19.9712 101.176 19.011C100.168 18.0509 99.3519 16.8987 98.7518 15.6025C98.1517 14.2823 97.8396 12.8661 97.8396 11.3538C97.8396 9.69755 98.1757 8.18531 98.8478 6.84109L98.8238 6.81709ZM103.145 16.2266C103.361 17.5228 103.721 18.555 104.201 19.3231C104.681 20.0912 105.305 20.6193 106.073 20.9313C106.841 21.2434 107.753 21.3874 108.809 21.3874C110.202 21.3874 111.306 21.1234 112.098 20.6193C112.89 20.0912 113.49 19.3711 113.874 18.459C114.282 17.5468 114.522 16.4666 114.618 15.1944C114.714 13.9462 114.762 12.578 114.762 11.0898C114.762 9.76956 114.714 8.49736 114.642 7.29717C114.546 6.09698 114.306 5.04081 113.922 4.12866C113.514 3.21652 112.914 2.4724 112.122 1.94431C111.33 1.41623 110.202 1.12818 108.785 1.12818C107.465 1.12818 106.409 1.36822 105.617 1.8723C104.825 2.37638 104.225 3.07249 103.793 3.98464C103.385 4.89678 103.096 5.97696 102.976 7.22516C102.832 8.47336 102.784 9.84157 102.784 11.3298C102.784 13.2981 102.904 14.9304 103.12 16.2266H103.145ZM132.645 0.840134L137.35 15.5545L142.439 0.840134H150V1.58425H147.336V20.9794H150V21.7235H140.542V20.9794H143.159V1.58425H143.111L136.006 21.7235H135.19L128.06 1.58425H128.012V20.9794H130.677V21.7235H124.916V20.9794H127.22V1.58425H124.916V0.840134H132.669H132.645ZM0 1.60826V0.840134H17.0427V6.12098H16.6587C16.3946 5.42487 16.1066 4.80077 15.7705 4.24868C15.4585 3.69659 15.0744 3.21651 14.6663 2.83245C14.2343 2.44839 13.7542 2.13634 13.1781 1.92031C12.602 1.70427 11.9539 1.60826 11.1858 1.60826H6.84109V10.7057H8.44935C9.16947 10.7057 9.76956 10.6097 10.2496 10.3937C10.7297 10.2016 11.1378 9.91359 11.4738 9.52952C11.8099 9.14546 12.0739 8.71339 12.29 8.18531C12.506 7.65722 12.674 7.08113 12.8181 6.40903H13.2021V15.7225H12.8181C12.674 15.1704 12.53 14.6183 12.338 14.1143C12.1459 13.5862 11.9059 13.1301 11.5939 12.746C11.2818 12.362 10.8977 12.0499 10.4657 11.8099C10.0096 11.5698 9.45751 11.4738 8.78541 11.4738H6.8651V20.9794H9.55353V21.7475H0V20.9794H2.64042V1.60826H0Z" fill="white"/>
</svg>
