<svg width="29" height="28" viewBox="0 0 29 28" fill="none" xmlns="http://www.w3.org/2000/svg">
<path d="M14.0112 6.81838C12.353 6.8209 10.7469 7.39814 9.46649 8.4518C8.18606 9.50546 7.31046 10.9704 6.9888 12.5971C6.66713 14.2238 6.9193 15.9118 7.70235 17.3734C8.4854 18.8351 9.75091 19.9802 11.2834 20.6136C12.8158 21.2471 14.5205 21.3297 16.107 20.8475C17.6936 20.3652 19.0639 19.348 19.9847 17.9689C20.9055 16.5898 21.3197 14.9342 21.1569 13.284C20.9941 11.6338 20.2643 10.091 19.0918 8.91843C18.4244 8.25183 17.6322 7.72327 16.7605 7.36294C15.8887 7.0026 14.9545 6.81756 14.0112 6.81838ZM14.0112 18.667C13.0878 18.667 12.1851 18.3932 11.4173 17.8801C10.6495 17.3671 10.0511 16.6379 9.69775 15.7848C9.34438 14.9317 9.25192 13.993 9.43207 13.0873C9.61222 12.1816 10.0569 11.3497 10.7098 10.6968C11.3628 10.0438 12.1947 9.59915 13.1004 9.419C14.006 9.23885 14.9448 9.33131 15.7979 9.68468C16.651 10.0381 17.3802 10.6365 17.8932 11.4043C18.4062 12.172 18.68 13.0747 18.68 13.9981C18.68 15.2364 18.1882 16.4239 17.3126 17.2995C16.437 18.1751 15.2495 18.667 14.0112 18.667ZM23.1621 6.52798C23.1617 6.91478 23.0271 7.28947 22.7815 7.58822C22.5358 7.88698 22.1941 8.09134 21.8147 8.16649C21.4353 8.24164 21.0415 8.18295 20.7005 8.0004C20.3595 7.81785 20.0923 7.52273 19.9444 7.16531C19.7965 6.80789 19.7771 6.41026 19.8895 6.04013C20.0019 5.67001 20.2391 5.35029 20.5607 5.1354C20.8823 4.92052 21.2685 4.82377 21.6534 4.86163C22.0384 4.89948 22.3983 5.06961 22.6719 5.34303C22.9853 5.65667 23.1616 6.08178 23.1621 6.52518V6.52798ZM27.9178 8.22837C27.964 6.05112 27.1512 3.9432 25.6553 2.36057C24.0682 0.871104 21.9628 0.0594073 19.7866 0.0980458C17.4746 -0.0326819 10.5423 -0.0326819 8.23117 0.0980458C6.05522 0.0530632 3.94808 0.861467 2.36057 2.3503C0.86725 3.93496 0.0549237 6.04204 0.0980458 8.21904C-0.0326819 10.531 -0.0326819 17.4633 0.0980458 19.7744C0.0530942 21.9506 0.865748 24.0572 2.36057 25.6394C3.94683 27.1296 6.0523 27.9414 8.22837 27.902C10.5404 28.0327 17.4727 28.0327 19.7838 27.902C21.961 27.948 24.0689 27.1353 25.6516 25.6394C27.1411 24.0528 27.9529 21.9476 27.9141 19.7716C28.0448 17.4596 28.0448 10.5348 27.9141 8.22277L27.9178 8.22837ZM24.9298 22.2592C24.6921 22.8617 24.3332 23.4089 23.8752 23.8668C23.4173 24.3248 22.8701 24.6837 22.2676 24.9214C20.4234 25.6525 16.0496 25.4816 14.0121 25.4816C11.9747 25.4816 7.59341 25.6441 5.75669 24.9214C5.15429 24.6835 4.60721 24.3244 4.14942 23.8663C3.69162 23.4081 3.33287 22.8608 3.09544 22.2583C2.36244 20.4141 2.53518 16.0403 2.53518 14.0028C2.53518 11.9653 2.37271 7.58407 3.09544 5.74922C3.33245 5.14623 3.69091 4.59841 4.14855 4.1398C4.6062 3.68119 5.15326 3.32158 5.75575 3.08331C7.59715 2.3503 11.9719 2.52304 14.0093 2.52304C16.0468 2.52304 20.4281 2.36057 22.2648 3.08331C22.8677 3.32147 23.4152 3.68112 23.8732 4.13991C24.3312 4.5987 24.6899 5.14681 24.927 5.75015C25.6581 7.59154 25.4872 11.9663 25.4872 14.0037C25.4872 16.0412 25.6572 20.4215 24.927 22.2592H24.9298Z" fill="white"/>
</svg>
