<svg width="9" height="8" viewBox="0 0 9 8" fill="none" xmlns="http://www.w3.org/2000/svg">
<path id="Union" fill-rule="evenodd" clip-rule="evenodd" d="M0.700536 0.0420477C0.447546 -0.0686354 0.152731 0.0467271 0.0420477 0.299717C-0.0686354 0.552707 0.0467271 0.847522 0.299717 0.958205L7.25295 4.00024L0.299717 7.04228C0.0467271 7.15297 -0.0686354 7.44778 0.0420477 7.70077C0.152731 7.95376 0.447546 8.06912 0.700536 7.95844L8.70054 4.45844C8.84934 4.39334 8.95053 4.26453 8.98612 4.118C8.99565 4.07889 9.00026 4.03938 9.00025 4.00024C9.00026 3.96111 8.99565 3.9216 8.98612 3.88249C8.95053 3.73596 8.84934 3.60715 8.70054 3.54205L0.700536 0.0420477Z" fill="#895737"/>
</svg>
