<svg width="25" height="25" viewBox="0 0 25 25" fill="none" xmlns="http://www.w3.org/2000/svg">
<path d="M17.708 8.85413C18.571 8.85413 19.2705 8.15457 19.2705 7.29163C19.2705 6.42868 18.571 5.72913 17.708 5.72913C16.8451 5.72913 16.1455 6.42868 16.1455 7.29163C16.1455 8.15457 16.8451 8.85413 17.708 8.85413Z" fill="#F890AD"/>
<path d="M17.5417 3C20.4167 3 22.75 5.33333 22.75 8.20833V16.5417C22.75 19.4167 20.4167 21.75 17.5417 21.75H9.20833C6.33333 21.75 4 19.4167 4 16.5417V8.20833C4 5.33333 6.33333 3 9.20833 3H13.375H17.5417Z" stroke="#F890AD" stroke-width="2" stroke-linecap="round" stroke-linejoin="round"/>
<path d="M13.3747 8.20837C15.6768 8.20837 17.5413 10.073 17.5413 12.375C17.5413 14.6771 15.6768 16.5417 13.3747 16.5417C11.0726 16.5417 9.20801 14.6771 9.20801 12.375C9.20801 10.073 11.0726 8.20837 13.3747 8.20837Z" stroke="#F890AD" stroke-width="2" stroke-linecap="round" stroke-linejoin="round"/>
</svg>
