<svg xmlns="http://www.w3.org/2000/svg" xmlns:xlink="http://www.w3.org/1999/xlink" width="328.7" height="93.356" viewBox="0 0 328.7 93.356">
  <defs>
    <filter id="パス_10316" x="0" y="0" width="328.7" height="93.356" filterUnits="userSpaceOnUse">
      <feOffset input="SourceAlpha"/>
      <feGaussianBlur stdDeviation="4" result="blur"/>
      <feFlood flood-color="#ac8754"/>
      <feComposite operator="in" in2="blur"/>
      <feComposite in="SourceGraphic"/>
    </filter>
    <filter id="パス_10315" x="0" y="0" width="328.7" height="93.356" filterUnits="userSpaceOnUse">
      <feOffset input="SourceAlpha"/>
      <feGaussianBlur stdDeviation="4" result="blur-2"/>
      <feFlood flood-color="#c7ab7c"/>
      <feComposite operator="in" in2="blur-2"/>
      <feComposite in="SourceGraphic"/>
    </filter>
  </defs>
  <g id="グループ_3897" data-name="グループ 3897" transform="translate(-865.013 -323.83)">
    <g transform="matrix(1, 0, 0, 1, 865.01, 323.83)" filter="url(#パス_10316)">
      <path id="パス_10316-2" data-name="パス 10316" d="M3.01.21C7.84.07,11.97,0,15.33,0c2.59,0,6.72.07,12.32.21v-2.8C22.33-2.8,21-4.34,21-9.45V-37.87c0-4.48,1.47-6.23,5.88-6.23h.77v-2.87c-4.34.14-8.47.21-12.32.21-3.64,0-7.77-.07-12.32-.21v2.87h.7c5.11,0,5.95,1.47,5.95,6.23V-9.45c0,5.39-.84,6.72-6.65,6.86Zm55.58.7A75.565,75.565,0,0,1,71.96-1.82V-4.27c-3.29-.07-4.69-.77-4.69-2.94V-49.77a68.679,68.679,0,0,1-14.98,1.89v2.52c4.34.21,5.39.7,5.39,3.71v14.14a12.914,12.914,0,0,0-9.94-4.13c-8.33,0-14.84,6.79-14.84,16.31C32.9-5.39,38.5.91,47.32.91a11.5,11.5,0,0,0,10.5-5.67ZM57.47-19.95v7.49c0,5.46-2.66,8.33-7.28,8.33-4.41,0-6.65-3.78-6.65-11.2,0-7.77,2.66-11.76,7.28-11.76C55.02-27.09,57.47-24.57,57.47-19.95Zm17.57,4.76C75.04-5.81,82.18.98,92.19.98c10.57,0,17.64-6.72,17.64-16.73,0-9.17-7-15.82-17.01-15.82C82.18-31.57,75.04-24.64,75.04-15.19Zm10.57.14c0-9.24,2.03-13.58,7-13.58,4.69,0,6.72,4.2,6.72,12.81,0,9.45-1.75,13.86-6.79,13.86C87.15-1.96,85.61-6.09,85.61-15.05ZM113.54.21A45.09,45.09,0,0,1,119,0h6.79c2.38,0,4.62,0,6.79.21V-2.38c-3.43-.14-4.69-.98-4.69-3.78V-49.77a55.143,55.143,0,0,1-14,2.73v2.52c3.01.21,4.34.77,4.34,2.59V-6.16c0,2.87-.56,3.5-4.69,3.78Zm42.21,0c3.5-.21,6.58-.21,9.24-.21q3.885,0,15.54.21V-2.73h-.35c-4.97,0-6.51-1.47-6.51-6.37V-21.14c.28,0,.49-.07.7-.07,2.66,0,4.06,1.89,6.37,5.25L192.01.21c1.75-.14,3.57-.14,5.39-.14,4.34,0,7.35.07,8.96.21V-2.31q-3.57-.42-6.51-4.62l-6.79-9.52c-2.59-3.57-4.27-6.09-6.23-6.93,7.56-1.26,11.69-5.6,11.69-11.83,0-8.26-6.3-11.9-19.25-11.9-5.18,0-9.94.21-14.42.21-2.45,0-5.46,0-9.1-.14v2.8c6.02.07,7.21,1.12,7.21,5.74V-9.52c0,5.39-1.33,6.79-7.21,6.79Zm17.92-24.57v-16.8c0-2.31.56-2.73,3.15-2.73,6.72,0,9.87,2.94,9.87,9.87,0,6.72-3.36,9.73-10.64,9.73C175.35-24.29,174.51-24.29,173.67-24.36ZM206.92.21C210,.07,213.36,0,216.93,0c1.4,0,4.27.07,8.75.21V-2.45c-3.71-.21-4.41-.77-4.41-3.71V-31.78h-1.05a63.964,63.964,0,0,1-13.3,2.45v2.45c3.57.14,4.41.84,4.41,4.2V-6.16c0,2.87-.63,3.5-4.41,3.71Zm3.64-44.45a5.318,5.318,0,0,0,5.32,5.32,5.318,5.318,0,0,0,5.32-5.32,5.273,5.273,0,0,0-5.32-5.32A5.273,5.273,0,0,0,210.56-44.24ZM229.53.21C232.54.07,235.34,0,238,0c2.38,0,5.6.07,9.73.21V-2.31c-3.36-.07-4.13-1.12-4.13-4.34V-17.57c0-5.53,2.8-8.89,6.79-8.89,2.8,0,4.2,2.03,4.2,6.02V-6.3c0,3.15-.7,3.99-3.99,3.99V.21c3.36-.14,6.3-.21,8.75-.21,2.87,0,5.88.07,9.1.21V-2.31c-3.85-.28-4.13-.91-4.13-3.99V-20.44c0-7.42-3.36-11.13-9.87-11.13-4.41,0-8.19,2.03-11.41,6.16l-.42-6.16h-1.19a48.722,48.722,0,0,1-11.9,2.45v2.59c3.5,0,4.34.91,4.34,4.62V-6.3c0,3.01-.35,3.64-4.34,3.99Zm50.75-10.78c-4.2,1.19-6.51,3.99-6.51,7.63a6.848,6.848,0,0,0,4.69,6.65c2.8.98,6.79,1.05,12.18,1.05,4.97,0,7.42,1.61,7.42,4.76,0,3.85-4.13,6.79-10.5,6.79-6.02,0-9.31-2.17-9.31-5.46a2.9,2.9,0,0,1,2.17-2.8,3.8,3.8,0,0,0-3.64-2.17c-2.38,0-4.48,2.17-4.48,5.18,0,4.9,5.18,8.26,14.77,8.26,11.48,0,17.57-4.41,17.57-12.25,0-8.19-5.18-10.64-16.45-10.92-5.11-.14-7.42.21-7.42-2.52,0-2.1,2.03-2.73,5.53-3.01,9.94-.7,14.56-3.64,14.56-10.99a10.006,10.006,0,0,0-2.52-6.86,3.133,3.133,0,0,1,1.61-.7c1.82,0,2.73,2.59,4.62,2.59A2.78,2.78,0,0,0,307.65-28c0-2.8-1.47-4.27-4.48-4.27-2.31,0-4.41,1.05-6.79,3.08a16.976,16.976,0,0,0-9.1-2.38c-8.47,0-13.79,4.76-13.79,11.2A9.867,9.867,0,0,0,280.28-10.57Zm2.66-10.01c0-5.6,1.19-8.47,4.34-8.47,3.29,0,4.13,2.94,4.13,8.61,0,5.6-.56,8.19-4.34,8.19C283.78-12.25,282.94-14.98,282.94-20.58Z" transform="translate(9.01 61.77) rotate(0.05)" fill="#fff"/>
    </g>
    <g transform="matrix(1, 0, 0, 1, 865.01, 323.83)" filter="url(#パス_10315)">
      <path id="パス_10315-2" data-name="パス 10315" d="M3.01.21C7.84.07,11.97,0,15.33,0c2.59,0,6.72.07,12.32.21v-2.8C22.33-2.8,21-4.34,21-9.45V-37.87c0-4.48,1.47-6.23,5.88-6.23h.77v-2.87c-4.34.14-8.47.21-12.32.21-3.64,0-7.77-.07-12.32-.21v2.87h.7c5.11,0,5.95,1.47,5.95,6.23V-9.45c0,5.39-.84,6.72-6.65,6.86Zm55.58.7A75.565,75.565,0,0,1,71.96-1.82V-4.27c-3.29-.07-4.69-.77-4.69-2.94V-49.77a68.679,68.679,0,0,1-14.98,1.89v2.52c4.34.21,5.39.7,5.39,3.71v14.14a12.914,12.914,0,0,0-9.94-4.13c-8.33,0-14.84,6.79-14.84,16.31C32.9-5.39,38.5.91,47.32.91a11.5,11.5,0,0,0,10.5-5.67ZM57.47-19.95v7.49c0,5.46-2.66,8.33-7.28,8.33-4.41,0-6.65-3.78-6.65-11.2,0-7.77,2.66-11.76,7.28-11.76C55.02-27.09,57.47-24.57,57.47-19.95Zm17.57,4.76C75.04-5.81,82.18.98,92.19.98c10.57,0,17.64-6.72,17.64-16.73,0-9.17-7-15.82-17.01-15.82C82.18-31.57,75.04-24.64,75.04-15.19Zm10.57.14c0-9.24,2.03-13.58,7-13.58,4.69,0,6.72,4.2,6.72,12.81,0,9.45-1.75,13.86-6.79,13.86C87.15-1.96,85.61-6.09,85.61-15.05ZM113.54.21A45.09,45.09,0,0,1,119,0h6.79c2.38,0,4.62,0,6.79.21V-2.38c-3.43-.14-4.69-.98-4.69-3.78V-49.77a55.143,55.143,0,0,1-14,2.73v2.52c3.01.21,4.34.77,4.34,2.59V-6.16c0,2.87-.56,3.5-4.69,3.78Zm42.21,0c3.5-.21,6.58-.21,9.24-.21q3.885,0,15.54.21V-2.73h-.35c-4.97,0-6.51-1.47-6.51-6.37V-21.14c.28,0,.49-.07.7-.07,2.66,0,4.06,1.89,6.37,5.25L192.01.21c1.75-.14,3.57-.14,5.39-.14,4.34,0,7.35.07,8.96.21V-2.31q-3.57-.42-6.51-4.62l-6.79-9.52c-2.59-3.57-4.27-6.09-6.23-6.93,7.56-1.26,11.69-5.6,11.69-11.83,0-8.26-6.3-11.9-19.25-11.9-5.18,0-9.94.21-14.42.21-2.45,0-5.46,0-9.1-.14v2.8c6.02.07,7.21,1.12,7.21,5.74V-9.52c0,5.39-1.33,6.79-7.21,6.79Zm17.92-24.57v-16.8c0-2.31.56-2.73,3.15-2.73,6.72,0,9.87,2.94,9.87,9.87,0,6.72-3.36,9.73-10.64,9.73C175.35-24.29,174.51-24.29,173.67-24.36ZM206.92.21C210,.07,213.36,0,216.93,0c1.4,0,4.27.07,8.75.21V-2.45c-3.71-.21-4.41-.77-4.41-3.71V-31.78h-1.05a63.964,63.964,0,0,1-13.3,2.45v2.45c3.57.14,4.41.84,4.41,4.2V-6.16c0,2.87-.63,3.5-4.41,3.71Zm3.64-44.45a5.318,5.318,0,0,0,5.32,5.32,5.318,5.318,0,0,0,5.32-5.32,5.273,5.273,0,0,0-5.32-5.32A5.273,5.273,0,0,0,210.56-44.24ZM229.53.21C232.54.07,235.34,0,238,0c2.38,0,5.6.07,9.73.21V-2.31c-3.36-.07-4.13-1.12-4.13-4.34V-17.57c0-5.53,2.8-8.89,6.79-8.89,2.8,0,4.2,2.03,4.2,6.02V-6.3c0,3.15-.7,3.99-3.99,3.99V.21c3.36-.14,6.3-.21,8.75-.21,2.87,0,5.88.07,9.1.21V-2.31c-3.85-.28-4.13-.91-4.13-3.99V-20.44c0-7.42-3.36-11.13-9.87-11.13-4.41,0-8.19,2.03-11.41,6.16l-.42-6.16h-1.19a48.722,48.722,0,0,1-11.9,2.45v2.59c3.5,0,4.34.91,4.34,4.62V-6.3c0,3.01-.35,3.64-4.34,3.99Zm50.75-10.78c-4.2,1.19-6.51,3.99-6.51,7.63a6.848,6.848,0,0,0,4.69,6.65c2.8.98,6.79,1.05,12.18,1.05,4.97,0,7.42,1.61,7.42,4.76,0,3.85-4.13,6.79-10.5,6.79-6.02,0-9.31-2.17-9.31-5.46a2.9,2.9,0,0,1,2.17-2.8,3.8,3.8,0,0,0-3.64-2.17c-2.38,0-4.48,2.17-4.48,5.18,0,4.9,5.18,8.26,14.77,8.26,11.48,0,17.57-4.41,17.57-12.25,0-8.19-5.18-10.64-16.45-10.92-5.11-.14-7.42.21-7.42-2.52,0-2.1,2.03-2.73,5.53-3.01,9.94-.7,14.56-3.64,14.56-10.99a10.006,10.006,0,0,0-2.52-6.86,3.133,3.133,0,0,1,1.61-.7c1.82,0,2.73,2.59,4.62,2.59A2.78,2.78,0,0,0,307.65-28c0-2.8-1.47-4.27-4.48-4.27-2.31,0-4.41,1.05-6.79,3.08a16.976,16.976,0,0,0-9.1-2.38c-8.47,0-13.79,4.76-13.79,11.2A9.867,9.867,0,0,0,280.28-10.57Zm2.66-10.01c0-5.6,1.19-8.47,4.34-8.47,3.29,0,4.13,2.94,4.13,8.61,0,5.6-.56,8.19-4.34,8.19C283.78-12.25,282.94-14.98,282.94-20.58Z" transform="translate(9.01 61.77) rotate(0.05)" fill="#fff"/>
    </g>
  </g>
</svg>
