<svg xmlns="http://www.w3.org/2000/svg" width="178.467" height="40.623" viewBox="0 0 178.467 40.623">
  <path id="パス_10317" data-name="パス 10317" d="M1.763.123C4.592.041,7.011,0,8.979,0c1.517,0,3.936.041,7.216.123v-1.64C13.079-1.64,12.3-2.542,12.3-5.535V-22.181c0-2.624.861-3.649,3.444-3.649h.451v-1.681c-2.542.082-4.961.123-7.216.123-2.132,0-4.551-.041-7.216-.123v1.681h.41c2.993,0,3.485.861,3.485,3.649V-5.535c0,3.157-.492,3.936-3.9,4.018Zm32.554.41a44.26,44.26,0,0,1,7.831-1.6V-2.5C40.221-2.542,39.4-2.952,39.4-4.223V-29.151a40.226,40.226,0,0,1-8.774,1.107v1.476c2.542.123,3.157.41,3.157,2.173v8.282a7.564,7.564,0,0,0-5.822-2.419c-4.879,0-8.692,3.977-8.692,9.553,0,5.822,3.28,9.512,8.446,9.512a6.733,6.733,0,0,0,6.15-3.321Zm-.656-12.218V-7.3c0,3.2-1.558,4.879-4.264,4.879-2.583,0-3.9-2.214-3.9-6.56,0-4.551,1.558-6.888,4.264-6.888C32.226-15.867,33.661-14.391,33.661-11.685ZM43.952-8.9C43.952-3.4,48.134.574,54,.574c6.191,0,10.332-3.936,10.332-9.8,0-5.371-4.1-9.266-9.963-9.266C48.134-18.491,43.952-14.432,43.952-8.9Zm6.191.082c0-5.412,1.189-7.954,4.1-7.954,2.747,0,3.936,2.46,3.936,7.5,0,5.535-1.025,8.118-3.977,8.118C51.045-1.148,50.143-3.567,50.143-8.815ZM66.5.123A26.41,26.41,0,0,1,69.7,0h3.977c1.394,0,2.706,0,3.977.123V-1.394c-2.009-.082-2.747-.574-2.747-2.214V-29.151a32.3,32.3,0,0,1-8.2,1.6v1.476c1.763.123,2.542.451,2.542,1.517V-3.608c0,1.681-.328,2.05-2.747,2.214Zm24.723,0C93.275,0,95.079,0,96.637,0q2.276,0,9.1.123V-1.6h-.205c-2.911,0-3.813-.861-3.813-3.731v-7.052c.164,0,.287-.041.41-.041,1.558,0,2.378,1.107,3.731,3.075l6.6,9.471c1.025-.082,2.091-.082,3.157-.082,2.542,0,4.305.041,5.248.123V-1.353a5.612,5.612,0,0,1-3.813-2.706l-3.977-5.576c-1.517-2.091-2.5-3.567-3.649-4.059,4.428-.738,6.847-3.28,6.847-6.929,0-4.838-3.69-6.97-11.275-6.97-3.034,0-5.822.123-8.446.123-1.435,0-3.2,0-5.33-.082v1.64c3.526.041,4.223.656,4.223,3.362V-5.576c0,3.157-.779,3.977-4.223,3.977Zm10.5-14.391v-9.84c0-1.353.328-1.6,1.845-1.6,3.936,0,5.781,1.722,5.781,5.781,0,3.936-1.968,5.7-6.232,5.7C102.705-14.227,102.213-14.227,101.721-14.268ZM121.2.123C123,.041,124.968,0,127.059,0c.82,0,2.5.041,5.125.123V-1.435c-2.173-.123-2.583-.451-2.583-2.173V-18.614h-.615a37.465,37.465,0,0,1-7.79,1.435v1.435c2.091.082,2.583.492,2.583,2.46v9.676c0,1.681-.369,2.05-2.583,2.173Zm2.132-26.035a3.115,3.115,0,0,0,3.116,3.116,3.115,3.115,0,0,0,3.116-3.116,3.089,3.089,0,0,0-3.116-3.116A3.089,3.089,0,0,0,123.328-25.912ZM134.439.123C136.2.041,137.842,0,139.4,0c1.394,0,3.28.041,5.7.123V-1.353c-1.968-.041-2.419-.656-2.419-2.542v-6.4c0-3.239,1.64-5.207,3.977-5.207,1.64,0,2.46,1.189,2.46,3.526V-3.69c0,1.845-.41,2.337-2.337,2.337V.123C148.748.041,150.47,0,151.9,0c1.681,0,3.444.041,5.33.123V-1.353c-2.255-.164-2.419-.533-2.419-2.337v-8.282c0-4.346-1.968-6.519-5.781-6.519a8.258,8.258,0,0,0-6.683,3.608l-.246-3.608h-.7a28.537,28.537,0,0,1-6.97,1.435v1.517c2.05,0,2.542.533,2.542,2.706V-3.69c0,1.763-.205,2.132-2.542,2.337Zm29.725-6.314c-2.46.7-3.813,2.337-3.813,4.469a4.011,4.011,0,0,0,2.747,3.9c1.64.574,3.977.615,7.134.615,2.911,0,4.346.943,4.346,2.788,0,2.255-2.419,3.977-6.15,3.977-3.526,0-5.453-1.271-5.453-3.2a1.7,1.7,0,0,1,1.271-1.64,2.228,2.228,0,0,0-2.132-1.271,2.833,2.833,0,0,0-2.624,3.034c0,2.87,3.034,4.838,8.651,4.838,6.724,0,10.291-2.583,10.291-7.175,0-4.8-3.034-6.232-9.635-6.4-2.993-.082-4.346.123-4.346-1.476,0-1.23,1.189-1.6,3.239-1.763,5.822-.41,8.528-2.132,8.528-6.437a5.861,5.861,0,0,0-1.476-4.018,1.835,1.835,0,0,1,.943-.41c1.066,0,1.6,1.517,2.706,1.517a1.628,1.628,0,0,0,1.8-1.558c0-1.64-.861-2.5-2.624-2.5a6.118,6.118,0,0,0-3.977,1.8,9.943,9.943,0,0,0-5.33-1.394c-4.961,0-8.077,2.788-8.077,6.56A5.779,5.779,0,0,0,164.164-6.191Zm1.558-5.863c0-3.28.7-4.961,2.542-4.961,1.927,0,2.419,1.722,2.419,5.043,0,3.28-.328,4.8-2.542,4.8C166.214-7.175,165.722-8.774,165.722-12.054Z" transform="translate(-1.753 29.149) rotate(0.05)" fill="#b49778"/>
</svg>
