<svg xmlns="http://www.w3.org/2000/svg" xmlns:xlink="http://www.w3.org/1999/xlink" width="231" height="64" viewBox="0 0 231 64">
  <defs>
    <clipPath id="clip-path">
      <rect id="長方形_1260" data-name="長方形 1260" width="231" height="64" transform="translate(146 2600.68)" fill="#fff" stroke="#707070" stroke-width="1"/>
    </clipPath>
    <filter id="パス_10120" x="-2.877" y="-1.548" width="235.643" height="67.54" filterUnits="userSpaceOnUse">
      <feOffset input="SourceAlpha"/>
      <feGaussianBlur stdDeviation="3" result="blur"/>
      <feFlood flood-color="#b19981"/>
      <feComposite operator="in" in2="blur"/>
      <feComposite in="SourceGraphic"/>
    </filter>
  </defs>
  <g id="マスクグループ_2682" data-name="マスクグループ 2682" transform="translate(-146 -2600.68)" clip-path="url(#clip-path)">
    <g transform="matrix(1, 0, 0, 1, 146, 2600.68)" filter="url(#パス_10120)">
      <path id="パス_10120-2" data-name="パス 10120" d="M2.15.15C5.6.05,8.55,0,10.95,0c1.85,0,4.8.05,8.8.15v-2C15.95-2,15-3.1,15-6.75v-20.3c0-3.2,1.05-4.45,4.2-4.45h.55v-2.05c-3.1.1-6.05.15-8.8.15-2.6,0-5.55-.05-8.8-.15v2.05h.5c3.65,0,4.25,1.05,4.25,4.45v20.3c0,3.85-.6,4.8-4.75,4.9Zm39.7.5A53.975,53.975,0,0,1,51.4-1.3V-3.05c-2.35-.05-3.35-.55-3.35-2.1v-30.4a49.056,49.056,0,0,1-10.7,1.35v1.8c3.1.15,3.85.5,3.85,2.65v10.1a9.224,9.224,0,0,0-7.1-2.95c-5.95,0-10.6,4.85-10.6,11.65,0,7.1,4,11.6,10.3,11.6A8.211,8.211,0,0,0,41.3-3.4Zm-.8-14.9V-8.9c0,3.9-1.9,5.95-5.2,5.95-3.15,0-4.75-2.7-4.75-8,0-5.55,1.9-8.4,5.2-8.4C39.3-19.35,41.05-17.55,41.05-14.25Zm12.55,3.4C53.6-4.15,58.7.7,65.85.7c7.55,0,12.6-4.8,12.6-11.95,0-6.55-5-11.3-12.15-11.3C58.7-22.55,53.6-17.6,53.6-10.85Zm7.55.1c0-6.6,1.45-9.7,5-9.7,3.35,0,4.8,3,4.8,9.15,0,6.75-1.25,9.9-4.85,9.9C62.25-1.4,61.15-4.35,61.15-10.75ZM81.1.15A32.207,32.207,0,0,1,85,0h4.85c1.7,0,3.3,0,4.85.15V-1.7c-2.45-.1-3.35-.7-3.35-2.7V-35.55a39.388,39.388,0,0,1-10,1.95v1.8c2.15.15,3.1.55,3.1,1.85V-4.4c0,2.05-.4,2.5-3.35,2.7Zm30.15,0c2.5-.15,4.7-.15,6.6-.15q2.775,0,11.1.15v-2.1h-.25c-3.55,0-4.65-1.05-4.65-4.55v-8.6c.2,0,.35-.05.5-.05,1.9,0,2.9,1.35,4.55,3.75L137.15.15c1.25-.1,2.55-.1,3.85-.1,3.1,0,5.25.05,6.4.15V-1.65q-2.55-.3-4.65-3.3l-4.85-6.8c-1.85-2.55-3.05-4.35-4.45-4.95,5.4-.9,8.35-4,8.35-8.45,0-5.9-4.5-8.5-13.75-8.5-3.7,0-7.1.15-10.3.15-1.75,0-3.9,0-6.5-.1v2c4.3.05,5.15.8,5.15,4.1V-6.8c0,3.85-.95,4.85-5.15,4.85Zm12.8-17.55v-12c0-1.65.4-1.95,2.25-1.95,4.8,0,7.05,2.1,7.05,7.05,0,4.8-2.4,6.95-7.6,6.95C125.25-17.35,124.65-17.35,124.05-17.4ZM147.8.15c2.2-.1,4.6-.15,7.15-.15,1,0,3.05.05,6.25.15v-1.9c-2.65-.15-3.15-.55-3.15-2.65V-22.7h-.75a45.688,45.688,0,0,1-9.5,1.75v1.75c2.55.1,3.15.6,3.15,3V-4.4c0,2.05-.45,2.5-3.15,2.65Zm2.6-31.75a3.8,3.8,0,0,0,3.8,3.8,3.8,3.8,0,0,0,3.8-3.8,3.767,3.767,0,0,0-3.8-3.8A3.767,3.767,0,0,0,150.4-31.6ZM163.95.15C166.1.05,168.1,0,170,0c1.7,0,4,.05,6.95.15v-1.8c-2.4-.05-2.95-.8-2.95-3.1v-7.8c0-3.95,2-6.35,4.85-6.35,2,0,3,1.45,3,4.3V-4.5c0,2.25-.5,2.85-2.85,2.85V.15c2.4-.1,4.5-.15,6.25-.15,2.05,0,4.2.05,6.5.15v-1.8c-2.75-.2-2.95-.65-2.95-2.85V-14.6c0-5.3-2.4-7.95-7.05-7.95-3.15,0-5.85,1.45-8.15,4.4l-.3-4.4h-.85a34.8,34.8,0,0,1-8.5,1.75v1.85c2.5,0,3.1.65,3.1,3.3V-4.5c0,2.15-.25,2.6-3.1,2.85Zm36.25-7.7c-3,.85-4.65,2.85-4.65,5.45a4.892,4.892,0,0,0,3.35,4.75c2,.7,4.85.75,8.7.75,3.55,0,5.3,1.15,5.3,3.4,0,2.75-2.95,4.85-7.5,4.85-4.3,0-6.65-1.55-6.65-3.9a2.072,2.072,0,0,1,1.55-2,2.717,2.717,0,0,0-2.6-1.55,3.455,3.455,0,0,0-3.2,3.7c0,3.5,3.7,5.9,10.55,5.9,8.2,0,12.55-3.15,12.55-8.75,0-5.85-3.7-7.6-11.75-7.8-3.65-.1-5.3.15-5.3-1.8,0-1.5,1.45-1.95,3.95-2.15,7.1-.5,10.4-2.6,10.4-7.85a7.147,7.147,0,0,0-1.8-4.9,2.238,2.238,0,0,1,1.15-.5c1.3,0,1.95,1.85,3.3,1.85a1.986,1.986,0,0,0,2.2-1.9c0-2-1.05-3.05-3.2-3.05a7.461,7.461,0,0,0-4.85,2.2,12.125,12.125,0,0,0-6.5-1.7c-6.05,0-9.85,3.4-9.85,8A7.048,7.048,0,0,0,200.2-7.55Zm1.9-7.15c0-4,.85-6.05,3.1-6.05,2.35,0,2.95,2.1,2.95,6.15,0,4-.4,5.85-3.1,5.85C202.7-8.75,202.1-10.7,202.1-14.7Z" transform="translate(3.99 43) rotate(0.05)" fill="#fff"/>
    </g>
  </g>
</svg>
