<svg xmlns="http://www.w3.org/2000/svg" width="345" height="42.26" viewBox="0 0 345 42.26">
  <g id="グループ_3743" data-name="グループ 3743" transform="translate(2.938 -615.055)">
    <path id="パス_10321" data-name="パス 10321" d="M-134.272,1.184a9.233,9.233,0,0,1-3.792-.6,4.021,4.021,0,0,1-2.024-1.712,3.756,3.756,0,0,1-.392-2.392,3.059,3.059,0,0,1,1.52-2.28,5.639,5.639,0,0,1,3.376-.616,14.087,14.087,0,0,1-1.424-2.032q-1.824.272-3.536.368a1.2,1.2,0,0,1-.856-.3,1.121,1.121,0,0,1-.392-.808,1.077,1.077,0,0,1,.32-.832,1.187,1.187,0,0,1,.832-.352q.64-.032,1.3-.088t1.352-.136q-.112-.32-.192-.632t-.16-.632a1.178,1.178,0,0,1,.16-.888,1.147,1.147,0,0,1,.752-.52,1.14,1.14,0,0,1,.888.176,1.2,1.2,0,0,1,.52.752q.08.336.176.68t.224.68q.72-.144,1.392-.3t1.264-.352a1.173,1.173,0,0,1,.912.048,1.121,1.121,0,0,1,.592.672,1.1,1.1,0,0,1-.08.88,1.133,1.133,0,0,1-.7.56q-.512.16-1.1.312t-1.248.28a11.079,11.079,0,0,0,1.288,1.7,7.8,7.8,0,0,0,1.56,1.32,1.044,1.044,0,0,1,.48.656,1.231,1.231,0,0,1-.08.848,1.116,1.116,0,0,1-.6.568,1.186,1.186,0,0,1-.824.04,13.7,13.7,0,0,0-2.968-.64,3.32,3.32,0,0,0-1.744.232,1.275,1.275,0,0,0-.7.936,1.379,1.379,0,0,0,.744,1.512,6.377,6.377,0,0,0,3.128.5,1.115,1.115,0,0,1,.848.328,1.13,1.13,0,0,1,.352.84,1.115,1.115,0,0,1-.328.848A1.186,1.186,0,0,1-134.272,1.184Zm13.52-.224a1.219,1.219,0,0,1-.384-.832,1.077,1.077,0,0,1,.3-.848A9.308,9.308,0,0,0-118.9-3.88a11.159,11.159,0,0,0,.656-3.88,2.682,2.682,0,0,0-.392-1.664,1.284,1.284,0,0,0-1.048-.48,1.636,1.636,0,0,0-1.1.416,2.537,2.537,0,0,0-.7,1.376,8.743,8.743,0,0,0-.1,2.576,1.142,1.142,0,0,1-.24.848,1.07,1.07,0,0,1-.768.416,1.091,1.091,0,0,1-.832-.24,1.137,1.137,0,0,1-.416-.752,17.456,17.456,0,0,1-.16-1.92q-.032-1.024-.008-2.016t.088-1.832q.064-.84.128-1.368a1.2,1.2,0,0,1,.432-.8,1.082,1.082,0,0,1,.864-.24,1.162,1.162,0,0,1,.784.416,1.127,1.127,0,0,1,.208.912q-.016.16-.072.544t-.088.656a2.322,2.322,0,0,1,.5-.68,2.734,2.734,0,0,1,.744-.5,1.971,1.971,0,0,1,.832-.192,3.253,3.253,0,0,1,2.792,1.192A5.489,5.489,0,0,1-115.9-7.76a14.611,14.611,0,0,1-.784,4.8A10.051,10.051,0,0,1-119.04.9a1.246,1.246,0,0,1-.848.376A1.152,1.152,0,0,1-120.752.96ZM-102.8.544a1.194,1.194,0,0,1-.872.3,1.254,1.254,0,0,1-.856-.376,1.09,1.09,0,0,1-.32-.856,1.184,1.184,0,0,1,.4-.824,5.959,5.959,0,0,0,1.224-1.48,5.8,5.8,0,0,0,.632-1.856,16.517,16.517,0,0,0,.208-2.664q-.72.064-1.384.136t-1.192.152a1.328,1.328,0,0,1-.9-.184,1.072,1.072,0,0,1-.5-.744,1.194,1.194,0,0,1,.192-.888,1.041,1.041,0,0,1,.768-.472q.56-.08,1.352-.144t1.656-.128V-11.5a1.157,1.157,0,0,1,.336-.84,1.117,1.117,0,0,1,.832-.344,1.117,1.117,0,0,1,.832.344,1.157,1.157,0,0,1,.336.84v1.872q.48-.032.912-.04t.768.008a1.068,1.068,0,0,1,.824.36,1.114,1.114,0,0,1,.3.856,1.058,1.058,0,0,1-.384.808,1.229,1.229,0,0,1-.864.3q-.688-.032-1.552,0a20.4,20.4,0,0,1-.216,3.056,9.065,9.065,0,0,1-.8,2.624A7.041,7.041,0,0,1-102.8.544Zm-5.472-.3a1.116,1.116,0,0,1-.88-.176,1.148,1.148,0,0,1-.5-.752,15,15,0,0,1-.256-1.776q-.1-1.04-.136-2.24t-.016-2.432q.024-1.232.136-2.384a19.771,19.771,0,0,1,.3-2.08,1.21,1.21,0,0,1,.512-.752,1.116,1.116,0,0,1,.88-.176,1.134,1.134,0,0,1,.736.528,1.2,1.2,0,0,1,.16.9,20.7,20.7,0,0,0-.352,2.488q-.112,1.336-.1,2.7t.12,2.584a20.23,20.23,0,0,0,.3,2.168,1.178,1.178,0,0,1-.16.888A1.147,1.147,0,0,1-108.272.24ZM-97.056-11.6q-.16-.176-.512-.512t-.592-.576a.643.643,0,0,1-.168-.456.765.765,0,0,1,.2-.536.739.739,0,0,1,.456-.232.828.828,0,0,1,.536.1,7.92,7.92,0,0,1,.64.472,4.728,4.728,0,0,1,.592.552.842.842,0,0,1,.224.568.9.9,0,0,1-.224.584.751.751,0,0,1-.56.256A.753.753,0,0,1-97.056-11.6Zm-.464,1.52a.769.769,0,0,1-.584.208.753.753,0,0,1-.568-.288q-.144-.192-.448-.56t-.528-.624a.663.663,0,0,1-.128-.472.75.75,0,0,1,.256-.52.714.714,0,0,1,.48-.184.77.77,0,0,1,.512.168,5.653,5.653,0,0,1,.584.52,5.172,5.172,0,0,1,.536.616.844.844,0,0,1,.184.592A.76.76,0,0,1-97.52-10.08Zm9.1,11.3A3.286,3.286,0,0,1-90.6.512a2.445,2.445,0,0,1-.84-1.984,2.368,2.368,0,0,1,.848-1.912A3.343,3.343,0,0,1-88.368-4.1a5.2,5.2,0,0,1,.7.048v-2.7a1.157,1.157,0,0,1,.336-.84,1.117,1.117,0,0,1,.832-.344,1.091,1.091,0,0,1,.824.344,1.172,1.172,0,0,1,.328.84v3.216a12.719,12.719,0,0,1,1.6.664,9.8,9.8,0,0,1,1.312.776,1.106,1.106,0,0,1,.488.776,1.173,1.173,0,0,1-.216.888,1.18,1.18,0,0,1-.776.488,1.09,1.09,0,0,1-.888-.216q-.336-.256-.728-.5a8.162,8.162,0,0,0-.824-.456A2.557,2.557,0,0,1-86.32.6,3.3,3.3,0,0,1-88.416,1.216ZM-94.192-3.2a1.209,1.209,0,0,1-.352-.864,1.081,1.081,0,0,1,.368-.832,10.05,10.05,0,0,0,1.464-1.648,11.071,11.071,0,0,0,1.1-1.92l-.656.064q-.32.032-.592.048a1.144,1.144,0,0,1-.856-.28,1.153,1.153,0,0,1-.392-.84,1.126,1.126,0,0,1,.28-.824,1.287,1.287,0,0,1,.84-.392q.48-.048,1.008-.112t1.072-.144a8.3,8.3,0,0,0,.1-1.264,1.233,1.233,0,0,1,.344-.84,1.091,1.091,0,0,1,.824-.344,1.2,1.2,0,0,1,.856.344,1.067,1.067,0,0,1,.344.84q-.016.208-.024.424a3.681,3.681,0,0,1-.04.424l.08-.016a1.13,1.13,0,0,1,.9.152,1.1,1.1,0,0,1,.512.744,1.069,1.069,0,0,1-.16.88,1.21,1.21,0,0,1-.752.512l-.5.1-.592.12a14.26,14.26,0,0,1-1.408,3.136A10.625,10.625,0,0,1-92.512-3.2a1.253,1.253,0,0,1-.848.344A1.11,1.11,0,0,1-94.192-3.2Zm10.656-4.176A12.9,12.9,0,0,0-84.672-8a9.91,9.91,0,0,0-1.1-.464,1.514,1.514,0,0,1-.712-.56,1.043,1.043,0,0,1-.152-.864,1.217,1.217,0,0,1,.552-.744,1.031,1.031,0,0,1,.888-.12,9.693,9.693,0,0,1,1.048.376q.552.232,1.072.488a8.565,8.565,0,0,1,.888.5,1.04,1.04,0,0,1,.5.76,1.263,1.263,0,0,1-.192.92,1.148,1.148,0,0,1-.752.5A1.2,1.2,0,0,1-83.536-7.376ZM-88.448-.928a.7.7,0,0,0,.784-.8v-.208q-.208-.032-.4-.048T-88.448-2q-.736,0-.736.528Q-89.184-.928-88.448-.928Zm11.056-1.744a7.858,7.858,0,0,1-.792-1.9,13.172,13.172,0,0,1-.432-2.392,18.868,18.868,0,0,1-.056-2.64,1.094,1.094,0,0,1,.376-.816,1.129,1.129,0,0,1,.856-.288,1.058,1.058,0,0,1,.808.384,1.171,1.171,0,0,1,.28.864,13.275,13.275,0,0,0,.008,2.112,11.436,11.436,0,0,0,.3,1.864A7.083,7.083,0,0,0-75.552-4.1q.368.688.872.56t.856-1.2a1.238,1.238,0,0,1,.6-.7,1.078,1.078,0,0,1,.9-.08,1.092,1.092,0,0,1,.664.592,1.306,1.306,0,0,1,.072.912,4.712,4.712,0,0,1-1.12,2.08,2.939,2.939,0,0,1-1.6.88,2.683,2.683,0,0,1-1.688-.272A3.541,3.541,0,0,1-77.392-2.672ZM-65.808-3.9a1.162,1.162,0,0,1-.9-.048,1.237,1.237,0,0,1-.648-.656,5.467,5.467,0,0,0-.616-1.112,10.478,10.478,0,0,0-.9-1.112,6.388,6.388,0,0,0-.984-.88,1.308,1.308,0,0,1-.52-.76,1.057,1.057,0,0,1,.184-.9,1.2,1.2,0,0,1,.768-.472,1.107,1.107,0,0,1,.88.2,10.458,10.458,0,0,1,1.432,1.256,11.7,11.7,0,0,1,1.2,1.472,7.24,7.24,0,0,1,.792,1.464,1.155,1.155,0,0,1-.024.912A1.138,1.138,0,0,1-65.808-3.9Zm5.76,5.344a1.076,1.076,0,0,1-.744-.28A.989.989,0,0,1-61.1.384V-3.472q-.048.3-.168.768t-.24.92q-.12.456-.216.744a.949.949,0,0,1-.48.6.992.992,0,0,1-.768.088A.849.849,0,0,1-63.5-.8a.885.885,0,0,1-.056-.688q.1-.288.224-.728t.248-.9q.12-.456.184-.76a.9.9,0,0,1,.392-.576.824.824,0,0,1,.664-.128.929.929,0,0,1,.5.28.865.865,0,0,1,.232.5V-5.12q-.368.064-.7.112t-.608.08a1.147,1.147,0,0,1-.776-.176.838.838,0,0,1-.376-.688,1.034,1.034,0,0,1,.224-.768.868.868,0,0,1,.656-.32h.192q.144-.176.424-.56t.632-.848q-.256-.192-.584-.424l-.608-.432q-.28-.2-.408-.28a.941.941,0,0,1-.416-.616.968.968,0,0,1,.128-.728.948.948,0,0,1,.552-.416,1.062,1.062,0,0,1,.68.032l.336-.6q.192-.344.376-.664t.264-.48a.922.922,0,0,1,.544-.5,1.019,1.019,0,0,1,.768.048.84.84,0,0,1,.488.52.79.79,0,0,1-.088.7l-.352.576q-.224.368-.464.744t-.416.648l.384.272q.416-.56.728-.992t.408-.576a.956.956,0,0,1,.616-.44.95.95,0,0,1,.744.136.883.883,0,0,1,.448.568.773.773,0,0,1-.128.712l-.368.488q-.272.36-.656.856T-59.272-8.1q-.424.536-.808,1.016.3-.032.592-.056t.56-.056l-.064-.112a.884.884,0,0,1-.016-.68.889.889,0,0,1,.448-.5.876.876,0,0,1,.712-.048.94.94,0,0,1,.536.464q.064.112.152.3t.2.416V-9.824a2.966,2.966,0,0,1,.736-2.208,3.293,3.293,0,0,1,2.368-.72h1.728a3.293,3.293,0,0,1,2.368.72,2.966,2.966,0,0,1,.736,2.208v7.632A2.966,2.966,0,0,1-49.76.016a3.293,3.293,0,0,1-2.368.72h-1.728a3.47,3.47,0,0,1-2.224-.6A2.54,2.54,0,0,1-56.928-1.7a.969.969,0,0,1-.48.384.859.859,0,0,1-.7-.048A.817.817,0,0,1-58.56-1.9q-.048-.208-.136-.544t-.176-.68q-.088-.344-.136-.552V.384a1,1,0,0,1-.3.776A1.047,1.047,0,0,1-60.048,1.44Zm8.016-2.752q.576-.016.736-.224a1.52,1.52,0,0,0,.16-.848V-5.248h-.9Zm-1.936,0V-5.248h-.88v2.864a1.479,1.479,0,0,0,.16.832A.977.977,0,0,0-53.968-1.312Zm1.936-5.952h.9V-9.632a1.524,1.524,0,0,0-.16-.84q-.16-.216-.736-.232Zm-2.816,0h.88V-10.7a.916.916,0,0,0-.72.232,1.524,1.524,0,0,0-.16.84ZM-56.96-3.12V-4.992a1.076,1.076,0,0,1-.72.008.792.792,0,0,1-.512-.472l-.032-.112q-.176.032-.376.064l-.408.064v1.376a.866.866,0,0,1,.232-.448.9.9,0,0,1,.44-.256.828.828,0,0,1,.664.088.927.927,0,0,1,.424.536q.032.16.12.456T-56.96-3.12ZM-42.928.336a1.182,1.182,0,0,1-.952.016,1.221,1.221,0,0,1-.7-.656,1.223,1.223,0,0,1-.024-.96,1.191,1.191,0,0,1,.648-.7,15.273,15.273,0,0,0,4.1-2.592,10.107,10.107,0,0,0,2.456-3.248q.32-.72.088-1.064t-1.08-.344H-44.32a1.175,1.175,0,0,1-.872-.368,1.214,1.214,0,0,1-.36-.88,1.188,1.188,0,0,1,.36-.872,1.188,1.188,0,0,1,.872-.36h6.112q2.432,0,3.232,1.264a3.569,3.569,0,0,1-.1,3.376A12.937,12.937,0,0,1-38.04-2.848,16.566,16.566,0,0,1-42.928.336Zm16.752.176a1.214,1.214,0,0,1-.92.232A1.169,1.169,0,0,1-27.9.256a1.214,1.214,0,0,1-.232-.92,1.169,1.169,0,0,1,.488-.808A6.918,6.918,0,0,0-26-3.192a7.908,7.908,0,0,0,1.024-2.2H-30.16a1.156,1.156,0,0,1-.848-.352,1.156,1.156,0,0,1-.352-.848,1.156,1.156,0,0,1,.352-.848,1.156,1.156,0,0,1,.848-.352h5.52a9.832,9.832,0,0,0-.1-1.36q-.9.128-1.776.232t-1.648.152a1.192,1.192,0,0,1-.872-.328,1.149,1.149,0,0,1-.392-.84,1.147,1.147,0,0,1,.336-.872,1.218,1.218,0,0,1,.864-.376q.768-.048,1.664-.152t1.832-.264q.936-.16,1.8-.352t1.552-.4a1.4,1.4,0,0,1,.944.04,1.082,1.082,0,0,1,.64.664,1.209,1.209,0,0,1-.032.944,1.11,1.11,0,0,1-.7.624q-.368.112-.84.232l-.984.248q.064.448.088.9t.024.912h4.368a1.156,1.156,0,0,1,.848.352,1.156,1.156,0,0,1,.352.848,1.156,1.156,0,0,1-.352.848,1.156,1.156,0,0,1-.848.352h-4.656a11.205,11.205,0,0,1-1.336,3.368A8.281,8.281,0,0,1-26.176.512ZM-3.984.72q-4.288.592-6.5-.488a3.612,3.612,0,0,1-2.208-3.464,4.3,4.3,0,0,1,.7-2.456,6.029,6.029,0,0,1,1.968-1.8q-.112-.592-.32-1.352t-.432-1.52q-.224-.76-.4-1.3a1.153,1.153,0,0,1,.12-.9,1.143,1.143,0,0,1,.712-.568,1.219,1.219,0,0,1,.936.12,1.143,1.143,0,0,1,.568.712q.24.848.488,1.864t.44,1.96q.7-.272,1.5-.5t1.664-.416a1.149,1.149,0,0,1,.9.144,1.134,1.134,0,0,1,.528.736,1.108,1.108,0,0,1-.152.888,1.112,1.112,0,0,1-.744.5A20.423,20.423,0,0,0-7.4-6.248a7.521,7.521,0,0,0-1.864.968,2.827,2.827,0,0,0-.872,1,2.376,2.376,0,0,0-.232,1,1.568,1.568,0,0,0,.288.912A1.984,1.984,0,0,0-9.1-1.7a5.965,5.965,0,0,0,1.864.288,17.084,17.084,0,0,0,2.952-.24,1.067,1.067,0,0,1,.88.232,1.191,1.191,0,0,1,.448.792,1.081,1.081,0,0,1-.224.88A1.235,1.235,0,0,1-3.984.72ZM7.3,1.3A1.169,1.169,0,0,1,6.44.984,1.12,1.12,0,0,1,6.064.16,1.154,1.154,0,0,1,6.384-.7a1.146,1.146,0,0,1,.832-.376A6.319,6.319,0,0,0,10.3-1.76,2.051,2.051,0,0,0,11.3-3.616a1.368,1.368,0,0,0-.464-1.08,2.131,2.131,0,0,0-1.216-.488,3.707,3.707,0,0,0-1.632.232,5.02,5.02,0,0,0-1.712,1.08,1.068,1.068,0,0,1-.688.272,1.2,1.2,0,0,1-.72-.192,1.229,1.229,0,0,1-.456-.584,1.174,1.174,0,0,1-.04-.728q.208-.736.376-1.68t.28-1.92q-.736.016-1.368-.008t-1.08-.056a1.124,1.124,0,0,1-.784-.416,1.108,1.108,0,0,1-.256-.848,1.124,1.124,0,0,1,.416-.784,1.108,1.108,0,0,1,.848-.256q.432.032,1.072.048t1.376,0q.032-.368.04-.672T5.28-12.24a1.135,1.135,0,0,1,.328-.864,1.186,1.186,0,0,1,.84-.368,1.1,1.1,0,0,1,.84.32,1.173,1.173,0,0,1,.36.832q0,.256-.008.552t-.024.632q.7-.048,1.336-.128t1.128-.176a1.128,1.128,0,0,1,.872.168,1.1,1.1,0,0,1,.5.728,1.105,1.105,0,0,1-.168.864,1.112,1.112,0,0,1-.728.5q-.64.128-1.464.224t-1.72.16q-.064.5-.144.992t-.176.976a6.148,6.148,0,0,1,2.408-.56,4.874,4.874,0,0,1,2.12.416,3.537,3.537,0,0,1,1.5,1.272,3.507,3.507,0,0,1,.56,1.992A4.351,4.351,0,0,1,12.016-.128,7.857,7.857,0,0,1,7.3,1.3Zm15.2.272a.915.915,0,0,1-.3-.736,1.069,1.069,0,0,1,.312-.768q.16-.176.312-.368A3.332,3.332,0,0,0,23.1-.72a3.744,3.744,0,0,1-1.488-1.84,1,1,0,0,1,.024-.776.946.946,0,0,1,.568-.52.986.986,0,0,1,.768.024.944.944,0,0,1,.528.552,1.887,1.887,0,0,0,.336.608,10.889,10.889,0,0,0,.24-2.992,4.709,4.709,0,0,0-1.448.736A4.194,4.194,0,0,0,21.472-3.6a4.4,4.4,0,0,0-.528,1.952.815.815,0,0,1-.272.608,1.025,1.025,0,0,1-.656.24.877.877,0,0,1-.664-.232,1.074,1.074,0,0,1-.312-.7q-.064-.56-.112-1.28t-.072-1.464q-.024-.744-.024-1.408t.016-1.144a1.034,1.034,0,0,1,.3-.72A.878.878,0,0,1,19.872-8a.9.9,0,0,1,.7.336,1.038,1.038,0,0,1,.224.752q-.016.272-.016.672v.864a5.882,5.882,0,0,1,1.392-1.4,5.681,5.681,0,0,1,1.632-.808q-.128-.56-.288-1.04a1.087,1.087,0,0,1,.056-.808,1,1,0,0,1,.584-.536,1.042,1.042,0,0,1,.8.064.971.971,0,0,1,.512.608,11.547,11.547,0,0,1,.384,1.536,4.169,4.169,0,0,1,1.744.624,3.585,3.585,0,0,1,1.208,1.288,3.71,3.71,0,0,1,.44,1.832,3.741,3.741,0,0,1-.576,2.1A3.894,3.894,0,0,1,27.184-.568,4.186,4.186,0,0,1,25.232-.1h-.144a7.954,7.954,0,0,1-.5.856A6.429,6.429,0,0,1,24,1.52a1.042,1.042,0,0,1-.744.336A1.009,1.009,0,0,1,22.5,1.568Zm3.28-3.7a1.968,1.968,0,0,0,1.032-.616,1.833,1.833,0,0,0,.424-1.272,1.853,1.853,0,0,0-.3-1.072A1.567,1.567,0,0,0,26.1-5.7a15.853,15.853,0,0,1-.04,1.816A11.013,11.013,0,0,1,25.776-2.128ZM39.808.992A4.446,4.446,0,0,1,38.072.584a2.693,2.693,0,0,1-1.144-1A2.474,2.474,0,0,1,36.576-1.9a2.426,2.426,0,0,1,.432-1.264,2.492,2.492,0,0,1,1.048-.84,2.974,2.974,0,0,1,1.512-.216,2.607,2.607,0,0,1,1.92.816,2.153,2.153,0,0,1,.448,1.744,1.752,1.752,0,0,0,.648-.776,2.747,2.747,0,0,0,.2-1.08,1.773,1.773,0,0,0-.312-.976,2.4,2.4,0,0,0-.88-.792,2.812,2.812,0,0,0-1.344-.32,3.868,3.868,0,0,0-1.7.44,7.38,7.38,0,0,0-1.968,1.5,1.267,1.267,0,0,1-.936.392,1.125,1.125,0,0,1-.92-.408,1.205,1.205,0,0,1-.28-.856.985.985,0,0,1,.408-.776q.96-.72,1.952-1.552T38.688-8.5q.9-.808,1.568-1.464.256-.24.176-.448t-.5-.144q-.56.08-1.152.16l-1.2.16a1.145,1.145,0,0,1-.872-.232,1.194,1.194,0,0,1-.472-.792,1.145,1.145,0,0,1,.232-.872,1.135,1.135,0,0,1,.792-.456q.4-.064.968-.112l1.144-.1q.576-.048.976-.064a3.051,3.051,0,0,1,1.76.312,2.059,2.059,0,0,1,.944,1.048,2.217,2.217,0,0,1,.056,1.408,2.95,2.95,0,0,1-.92,1.408q-.208.208-.568.528t-.808.7a4.739,4.739,0,0,1,2.152.424,3.821,3.821,0,0,1,1.592,1.36,3.91,3.91,0,0,1,.608,2.232A4.423,4.423,0,0,1,44.48-.9a4.018,4.018,0,0,1-1.9,1.5A6.555,6.555,0,0,1,39.808.992ZM39.392-1.2a5.359,5.359,0,0,0,.592,0,.868.868,0,0,0,.08-.7.6.6,0,0,0-.528-.376.765.765,0,0,0-.544.064.481.481,0,0,0-.256.368.447.447,0,0,0,.152.432A1.188,1.188,0,0,0,39.392-1.2ZM50.08.464a1.142,1.142,0,0,1-.632-.656,1.11,1.11,0,0,1,.024-.912q.288-.608.7-1.5t.912-1.936L52.112-6.68q.528-1.1,1.032-2.128t.944-1.9q.44-.872.76-1.464a1.07,1.07,0,0,1,.712-.56,1.117,1.117,0,0,1,.9.128,1.151,1.151,0,0,1,.568.72,1.079,1.079,0,0,1-.12.9q-.352.608-.912,1.68T54.816-6.976a3.22,3.22,0,0,1,.784-.1,2.344,2.344,0,0,1,2.192,1.04,3.51,3.51,0,0,1,.128,2.8,1.464,1.464,0,0,0-.056.952.561.561,0,0,0,.552.264,1.424,1.424,0,0,0,.6-.136,1.669,1.669,0,0,0,.616-.616,8,8,0,0,0,.7-1.472,1.136,1.136,0,0,1,.648-.664,1.175,1.175,0,0,1,.92-.024,1.166,1.166,0,0,1,.672.64,1.221,1.221,0,0,1,.048.928,6.5,6.5,0,0,1-1.7,2.784,3.893,3.893,0,0,1-2.648.9,3.457,3.457,0,0,1-1.816-.44,2.159,2.159,0,0,1-.976-1.312A4.016,4.016,0,0,1,55.6-3.6a1.2,1.2,0,0,0,.024-.92.752.752,0,0,0-.664-.248,1.7,1.7,0,0,0-1.1.448,4.172,4.172,0,0,0-1,1.424q-.064.144-.24.528t-.368.824q-.192.44-.352.8T51.7-.272a1.451,1.451,0,0,1-.656.7A1.081,1.081,0,0,1,50.08.464ZM68.768.384A1.182,1.182,0,0,1,67.816.4a1.221,1.221,0,0,1-.7-.656,1.223,1.223,0,0,1-.024-.96,1.191,1.191,0,0,1,.648-.7,15.39,15.39,0,0,0,4.1-2.584A10.023,10.023,0,0,0,74.3-7.744q.336-.736.1-1.08t-1.1-.344H67.5a1.183,1.183,0,0,1-.864-.368,1.183,1.183,0,0,1-.368-.864,1.2,1.2,0,0,1,.368-.88,1.183,1.183,0,0,1,.864-.368h5.984q2.432,0,3.232,1.264a3.569,3.569,0,0,1-.1,3.376A12.936,12.936,0,0,1,73.656-2.8,16.566,16.566,0,0,1,68.768.384ZM79.04-9.776a.77.77,0,0,1-.568.224.771.771,0,0,1-.584-.256q-.16-.176-.488-.528t-.552-.608a.647.647,0,0,1-.152-.472.743.743,0,0,1,.232-.52.735.735,0,0,1,.472-.216.791.791,0,0,1,.52.136,7.416,7.416,0,0,1,.624.5,4.275,4.275,0,0,1,.56.584.854.854,0,0,1,.2.576A.827.827,0,0,1,79.04-9.776Zm.384-1.552q-.176-.176-.536-.488l-.616-.536a.734.734,0,0,1-.192-.456.726.726,0,0,1,.176-.552.737.737,0,0,1,.448-.256.775.775,0,0,1,.528.1,6.8,6.8,0,0,1,.664.432,4.3,4.3,0,0,1,.616.528.864.864,0,0,1,.264.56.811.811,0,0,1-.2.592.8.8,0,0,1-.552.272A.767.767,0,0,1,79.424-11.328ZM85.7.736A1.171,1.171,0,0,1,84.76.664a1.2,1.2,0,0,1-.616-.728A1.171,1.171,0,0,1,84.216-1a1.2,1.2,0,0,1,.712-.616A10.985,10.985,0,0,0,88.32-3.368,7.222,7.222,0,0,0,90.464-5.92a.62.62,0,0,0,.016-.624q-.16-.24-.72-.24H83.9a1.229,1.229,0,0,1-.88-.352,1.131,1.131,0,0,1-.368-.848,1.149,1.149,0,0,1,.368-.864A1.229,1.229,0,0,1,83.9-9.2h6.032a3.9,3.9,0,0,1,2.248.552,2.076,2.076,0,0,1,.912,1.5,3.962,3.962,0,0,1-.44,2.152,9.962,9.962,0,0,1-2.744,3.44A13.131,13.131,0,0,1,85.7.736ZM84.912-10.08a1.156,1.156,0,0,1-.848-.352,1.156,1.156,0,0,1-.352-.848,1.156,1.156,0,0,1,.352-.848,1.156,1.156,0,0,1,.848-.352h6.272a1.13,1.13,0,0,1,.84.352,1.169,1.169,0,0,1,.344.848,1.169,1.169,0,0,1-.344.848,1.13,1.13,0,0,1-.84.352Zm18.368,11.1a1.449,1.449,0,0,1-.936.1A1.087,1.087,0,0,1,101.6.576a1.234,1.234,0,0,1-.136-.944,1.046,1.046,0,0,1,.568-.736,12.418,12.418,0,0,0,3.232-2.208,6.617,6.617,0,0,0,1.728-3.008,4.748,4.748,0,0,0,.16-.728.937.937,0,0,0-.1-.536.747.747,0,0,0-.336-.248,3.079,3.079,0,0,0-.84-.16q-.6-.056-1.816-.056-1.136,0-1.736.04a3.207,3.207,0,0,0-.848.136.87.87,0,0,0-.376.256.941.941,0,0,0-.1.592q.024.416.168,1.312a1.215,1.215,0,0,1-.216.92,1.167,1.167,0,0,1-.808.5,1.2,1.2,0,0,1-.928-.224,1.194,1.194,0,0,1-.5-.8q-.176-1.12-.224-1.856a4.043,4.043,0,0,1,.08-1.24,2.312,2.312,0,0,1,.5-.936,2.436,2.436,0,0,1,.76-.616,3.742,3.742,0,0,1,1.144-.32,15.636,15.636,0,0,1,1.936-.12v-1.712a1.175,1.175,0,0,1,.368-.872,1.2,1.2,0,0,1,.864-.36,1.214,1.214,0,0,1,.88.36,1.175,1.175,0,0,1,.368.872V-10.4a15.427,15.427,0,0,1,1.872.144,3.647,3.647,0,0,1,1.176.36,2.363,2.363,0,0,1,.776.68,2.3,2.3,0,0,1,.456,1.488,9.4,9.4,0,0,1-.344,2.064,10.674,10.674,0,0,1-1.088,2.536,9.317,9.317,0,0,1-1.928,2.28A12.057,12.057,0,0,1,103.28,1.024Zm12.976-1.44a1.207,1.207,0,0,1-.952-.04,1.19,1.19,0,0,1-.648-.7,1.227,1.227,0,0,1,.04-.96,1.131,1.131,0,0,1,.7-.64,20.044,20.044,0,0,0,2.536-1.088,28.231,28.231,0,0,0,2.48-1.424,20.961,20.961,0,0,0,2.16-1.584,12.723,12.723,0,0,0,1.592-1.568,1.13,1.13,0,0,1,.824-.44,1.242,1.242,0,0,1,.9.28,1.07,1.07,0,0,1,.456.816,1.254,1.254,0,0,1-.28.912A13.374,13.374,0,0,1,124.3-5.12a27.6,27.6,0,0,1-2.44,1.8,32.245,32.245,0,0,1-2.792,1.648A23.077,23.077,0,0,1,116.256-.416Zm1.136-6.512q-.64-.528-1.36-1.064A14.029,14.029,0,0,0,114.7-8.88a1.167,1.167,0,0,1-.56-.76,1.211,1.211,0,0,1,.144-.92,1.174,1.174,0,0,1,.76-.576,1.112,1.112,0,0,1,.92.144q.48.3,1.032.68t1.056.76q.5.384.856.688a1.3,1.3,0,0,1,.464.816,1.143,1.143,0,0,1-.24.912,1.2,1.2,0,0,1-.824.472A1.13,1.13,0,0,1,117.392-6.928ZM133.52.608a1.225,1.225,0,0,1-.784-.464,1.13,1.13,0,0,1-.24-.88,1.2,1.2,0,0,1,.464-.792,1.146,1.146,0,0,1,.88-.232,3.588,3.588,0,0,0,.848.024.919.919,0,0,0,.6-.32,2.407,2.407,0,0,0,.432-.888,11.25,11.25,0,0,0,.328-1.68A4.328,4.328,0,0,0,136.08-6.1a.872.872,0,0,0-.512-.664,2.593,2.593,0,0,0-1.136-.12,28.107,28.107,0,0,1-1.472,3.936A15.024,15.024,0,0,1,130.992.288,1.191,1.191,0,0,1,130.2.72a1.166,1.166,0,0,1-.888-.24,1.173,1.173,0,0,1-.448-.8,1.054,1.054,0,0,1,.256-.864,13.651,13.651,0,0,0,1.6-2.464A22.355,22.355,0,0,0,132-6.656q-.416.032-.832.08t-.784.08a1.183,1.183,0,0,1-.88-.256,1.117,1.117,0,0,1-.432-.8,1.183,1.183,0,0,1,.256-.88,1.117,1.117,0,0,1,.8-.432q.608-.064,1.256-.112l1.272-.1q.144-.656.232-1.288t.12-1.256a1.164,1.164,0,0,1,.4-.824,1.139,1.139,0,0,1,.864-.3,1.22,1.22,0,0,1,.84.4,1.018,1.018,0,0,1,.28.864,19.1,19.1,0,0,1-.384,2.32A3.453,3.453,0,0,1,137.9-7.9a5.254,5.254,0,0,1,.464,3.592,10.053,10.053,0,0,1-.856,3.2,2.977,2.977,0,0,1-1.56,1.512A5.086,5.086,0,0,1,133.52.608Zm9.136-4.7a1.184,1.184,0,0,1-.9.088,1.15,1.15,0,0,1-.712-.568,11.757,11.757,0,0,0-.68-1.048q-.408-.568-.856-1.1t-.816-.912a1.353,1.353,0,0,1-.368-.84,1.045,1.045,0,0,1,.3-.824,1.09,1.09,0,0,1,.84-.368,1.194,1.194,0,0,1,.856.336,16.236,16.236,0,0,1,1.568,1.752,14.565,14.565,0,0,1,1.248,1.864,1.093,1.093,0,0,1,.1.9A1.181,1.181,0,0,1,142.656-4.1Zm.016-6.72q-.176-.16-.544-.472t-.64-.52a.7.7,0,0,1-.2-.44.7.7,0,0,1,.168-.552.682.682,0,0,1,.432-.28.793.793,0,0,1,.528.072q.288.16.672.424a5.48,5.48,0,0,1,.64.5.836.836,0,0,1,.272.544.832.832,0,0,1-.192.608.74.74,0,0,1-.528.3A.778.778,0,0,1,142.672-10.816Zm-1.488,1.568q-.16-.176-.5-.52t-.568-.584a.663.663,0,0,1-.16-.464.789.789,0,0,1,.208-.528.746.746,0,0,1,.464-.232.739.739,0,0,1,.528.12,6.418,6.418,0,0,1,.632.48,3.8,3.8,0,0,1,.568.576.842.842,0,0,1,.224.568.869.869,0,0,1-.24.584.778.778,0,0,1-.56.24A.73.73,0,0,1,141.184-9.248ZM-83.648,20.7a1.191,1.191,0,0,1-.928.04,1.193,1.193,0,0,1-.7-.632,1.233,1.233,0,0,1-.04-.944,1.136,1.136,0,0,1,.632-.688A6.562,6.562,0,0,0-82.256,16.7a6.081,6.081,0,0,0,1.2-2.744h-4.528a1.13,1.13,0,0,1-.84-.352,1.169,1.169,0,0,1-.344-.848,1.169,1.169,0,0,1,.344-.848,1.13,1.13,0,0,1,.84-.352h4.7q0-.7-.04-1.424t-.072-1.264a1.261,1.261,0,0,1,.256-.912,1.153,1.153,0,0,1,.8-.464,1.161,1.161,0,0,1,.92.232,1.183,1.183,0,0,1,.472.824q.064.64.072,1.44t.008,1.568h3.936a1.148,1.148,0,0,1,.856.352,1.169,1.169,0,0,1,.344.848,1.169,1.169,0,0,1-.344.848,1.148,1.148,0,0,1-.856.352h-4.08a8.737,8.737,0,0,1-1.56,4.1A8.566,8.566,0,0,1-83.648,20.7Zm17.472-.192a1.214,1.214,0,0,1-.92.232,1.169,1.169,0,0,1-.808-.488,1.214,1.214,0,0,1-.232-.92,1.169,1.169,0,0,1,.488-.808A6.917,6.917,0,0,0-66,16.808a7.908,7.908,0,0,0,1.024-2.2H-70.16a1.156,1.156,0,0,1-.848-.352,1.156,1.156,0,0,1-.352-.848,1.156,1.156,0,0,1,.352-.848,1.156,1.156,0,0,1,.848-.352h5.52a9.832,9.832,0,0,0-.1-1.36q-.9.128-1.776.232t-1.648.152a1.192,1.192,0,0,1-.872-.328,1.149,1.149,0,0,1-.392-.84,1.147,1.147,0,0,1,.336-.872,1.218,1.218,0,0,1,.864-.376q.768-.048,1.664-.152t1.832-.264q.936-.16,1.8-.352t1.552-.4a1.4,1.4,0,0,1,.944.04,1.082,1.082,0,0,1,.64.664,1.209,1.209,0,0,1-.032.944,1.11,1.11,0,0,1-.7.624q-.368.112-.84.232l-.984.248q.064.448.088.9t.024.912h4.368a1.156,1.156,0,0,1,.848.352,1.156,1.156,0,0,1,.352.848,1.156,1.156,0,0,1-.352.848,1.156,1.156,0,0,1-.848.352h-4.656a11.205,11.205,0,0,1-1.336,3.368A8.281,8.281,0,0,1-66.176,20.512ZM-52.688,19.3a1.021,1.021,0,0,1-.76-.32,1.061,1.061,0,0,1-.312-.768,1.053,1.053,0,0,1,.312-.776,1.034,1.034,0,0,1,.76-.312h5.5a9.761,9.761,0,0,0,.44-1.576q.072-.5-.184-.656a1.749,1.749,0,0,0-.848-.152h-3.1a1.047,1.047,0,0,1-.768-.32,1.047,1.047,0,0,1-.32-.768,1.021,1.021,0,0,1,.32-.76,1.061,1.061,0,0,1,.768-.312h3.1a5.406,5.406,0,0,1,2.344.408,1.7,1.7,0,0,1,.952,1.4,6.62,6.62,0,0,1-.448,2.736h1.6a1.034,1.034,0,0,1,.76.312,1.053,1.053,0,0,1,.312.776,1.061,1.061,0,0,1-.312.768,1.021,1.021,0,0,1-.76.32Zm18.384,1.44a1.171,1.171,0,0,1-.936-.072,1.2,1.2,0,0,1-.616-.728A1.171,1.171,0,0,1-35.784,19a1.2,1.2,0,0,1,.712-.616,10.985,10.985,0,0,0,3.392-1.752,7.222,7.222,0,0,0,2.144-2.552.62.62,0,0,0,.016-.624q-.16-.24-.72-.24H-36.1a1.229,1.229,0,0,1-.88-.352,1.131,1.131,0,0,1-.368-.848,1.149,1.149,0,0,1,.368-.864,1.229,1.229,0,0,1,.88-.352h6.032a3.9,3.9,0,0,1,2.248.552,2.076,2.076,0,0,1,.912,1.5,3.962,3.962,0,0,1-.44,2.152,9.962,9.962,0,0,1-2.744,3.44A13.131,13.131,0,0,1-34.3,20.736ZM-35.088,9.92a1.156,1.156,0,0,1-.848-.352,1.156,1.156,0,0,1-.352-.848,1.156,1.156,0,0,1,.352-.848,1.156,1.156,0,0,1,.848-.352h6.272a1.13,1.13,0,0,1,.84.352,1.169,1.169,0,0,1,.344.848,1.169,1.169,0,0,1-.344.848,1.13,1.13,0,0,1-.84.352Zm23.44,8.176a4.847,4.847,0,0,1-3.672.288,2.613,2.613,0,0,1-1.352-2.672V10.448a1.188,1.188,0,0,1,.36-.872,1.188,1.188,0,0,1,.872-.36,1.188,1.188,0,0,1,.872.36,1.188,1.188,0,0,1,.36.872v4.64q0,.688.36.856a1.411,1.411,0,0,0,1.048-.088q.4-.144.912-.352t1.056-.448q.544-.24,1.008-.448a1.286,1.286,0,0,1,.944-.056,1.191,1.191,0,0,1,.72.616,1.257,1.257,0,0,1,.08.944,1.11,1.11,0,0,1-.608.72q-.7.336-1.5.68T-11.648,18.1ZM-22.24,19.152a1.21,1.21,0,0,1-.936.04,1.192,1.192,0,0,1-.712-.632,1.209,1.209,0,0,1-.032-.944,1.171,1.171,0,0,1,.624-.688,5.283,5.283,0,0,0,2.5-2.272,7.46,7.46,0,0,0,.728-3.456,1.2,1.2,0,0,1,.352-.872,1.161,1.161,0,0,1,.864-.36,1.161,1.161,0,0,1,.864.36,1.2,1.2,0,0,1,.352.872,9.779,9.779,0,0,1-1.2,4.936A7.511,7.511,0,0,1-22.24,19.152Zm17.824,1.376a1.175,1.175,0,0,1-.888-.2,1.11,1.11,0,0,1-.488-.76,15.79,15.79,0,0,1-.232-1.92q-.072-1.088-.08-2.3t.056-2.44q.064-1.232.2-2.352t.328-2.016a1.168,1.168,0,0,1,.528-.76,1.13,1.13,0,0,1,.9-.152,1.2,1.2,0,0,1,.752.52,1.12,1.12,0,0,1,.16.9,24.208,24.208,0,0,0-.384,2.44q-.144,1.32-.184,2.68t.032,2.64a18.6,18.6,0,0,0,.264,2.32,1.2,1.2,0,0,1-.192.9A1.156,1.156,0,0,1-4.416,20.528Zm6.528-.816a5.573,5.573,0,0,1-3.152-.728,3.4,3.4,0,0,1-1.344-2.328,1.2,1.2,0,0,1,.2-.9,1.119,1.119,0,0,1,.776-.488,1.15,1.15,0,0,1,.88.2,1.185,1.185,0,0,1,.5.776,1.231,1.231,0,0,0,.576.832,3.4,3.4,0,0,0,1.664.288,9.063,9.063,0,0,0,1.28-.1q.672-.1,1.52-.272a1.091,1.091,0,0,1,.888.16,1.207,1.207,0,0,1,.52.768,1.116,1.116,0,0,1-.176.88,1.277,1.277,0,0,1-.752.528,14.059,14.059,0,0,1-1.768.3A16.1,16.1,0,0,1,2.112,19.712Zm-2.816-8a1.194,1.194,0,0,1-.888-.192,1.14,1.14,0,0,1-.5-.752,1.163,1.163,0,0,1,.176-.9,1.077,1.077,0,0,1,.752-.5A15.4,15.4,0,0,1,.912,9.12,21.2,21.2,0,0,1,3.088,9.1,16.279,16.279,0,0,1,5.024,9.3a1.025,1.025,0,0,1,.752.48,1.219,1.219,0,0,1,.192.9,1.076,1.076,0,0,1-.488.776,1.214,1.214,0,0,1-.888.184,14.742,14.742,0,0,0-2.624-.192A14.448,14.448,0,0,0-.7,11.712ZM13.92,21.168a.81.81,0,0,1-.632-.256.923.923,0,0,1,0-1.224.823.823,0,0,1,.632-.248h3.472v-.368H14.544a.722.722,0,0,1-.568-.224.767.767,0,0,1-.2-.528.788.788,0,0,1,.2-.544.722.722,0,0,1,.568-.224h2.848v-.368h-.8a4,4,0,0,1-1.4-.2,1.279,1.279,0,0,1-.744-.744,4.227,4.227,0,0,1-.224-1.552,4.161,4.161,0,0,1,.224-1.544,1.31,1.31,0,0,1,.744-.744,3.855,3.855,0,0,1,1.4-.208h3.6a3.855,3.855,0,0,1,1.4.208,1.338,1.338,0,0,1,.752.744,4.03,4.03,0,0,1,.232,1.544,4.094,4.094,0,0,1-.232,1.552,1.307,1.307,0,0,1-.752.744,4,4,0,0,1-1.4.2h-.8v.368h2.8a.722.722,0,0,1,.568.224.788.788,0,0,1,.2.544.767.767,0,0,1-.2.528.722.722,0,0,1-.568.224h-2.8v.368H22.8a.818.818,0,0,1,.64.248.948.948,0,0,1,0,1.224.8.8,0,0,1-.64.256Zm-2.784-1.936a4.079,4.079,0,0,1-1.464-.208,1.212,1.212,0,0,1-.712-.68,3.5,3.5,0,0,1-.192-1.288v-7.6a3.571,3.571,0,0,1,.192-1.3,1.183,1.183,0,0,1,.712-.68,4.229,4.229,0,0,1,1.464-.2,4.218,4.218,0,0,1,1.472.2,1.183,1.183,0,0,1,.7.68,3.571,3.571,0,0,1,.192,1.3v7.6a3.5,3.5,0,0,1-.192,1.288,1.213,1.213,0,0,1-.7.68A4.068,4.068,0,0,1,11.136,19.232Zm3.344-7.408a.773.773,0,0,1-.616-.248.882.882,0,0,1-.216-.6.853.853,0,0,1,.216-.592.786.786,0,0,1,.616-.24H15.7a.831.831,0,0,0-.032-.1.2.2,0,0,1-.016-.072.748.748,0,0,1,.016-.656h-.9a.773.773,0,0,1-.616-.248.882.882,0,0,1-.216-.6.853.853,0,0,1,.216-.592.786.786,0,0,1,.616-.24h2.576V7.264a.925.925,0,0,1,.3-.728,1.076,1.076,0,0,1,.744-.264,1.1,1.1,0,0,1,.76.264.925.925,0,0,1,.3.728v.368h2.624a.786.786,0,0,1,.616.24.853.853,0,0,1,.216.592.882.882,0,0,1-.216.6.773.773,0,0,1-.616.248h-.928a.748.748,0,0,1,.016.656.2.2,0,0,1-.016.072.83.83,0,0,0-.032.1h1.552a.786.786,0,0,1,.616.24.853.853,0,0,1,.216.592.882.882,0,0,1-.216.6.773.773,0,0,1-.616.248Zm3.28-1.68h1.28q.064-.208.136-.424a2.367,2.367,0,0,0,.088-.312.129.129,0,0,0,.016-.056.054.054,0,0,1,.016-.04H17.5a.246.246,0,0,1,.032.1q.032.1.1.312T17.76,10.144ZM11.136,17.3a.469.469,0,0,0,.32-.088.523.523,0,0,0,.1-.376v-.976h-.816v.976a.523.523,0,0,0,.1.376A.44.44,0,0,0,11.136,17.3Zm-.4-3.44h.816V12.5h-.816Zm0-3.36h.816V9.68a.523.523,0,0,0-.1-.376.469.469,0,0,0-.32-.088.44.44,0,0,0-.3.088.523.523,0,0,0-.1.376Zm8.656,3.6H20.48a.514.514,0,0,0-.192-.416,1.214,1.214,0,0,0-.576-.1h-.32Zm-3.088,0h1.088v-.512h-.32a1.167,1.167,0,0,0-.56.1A.552.552,0,0,0,16.3,14.1Zm.768,1.7h.32v-.5H16.3a.523.523,0,0,0,.208.408A1.26,1.26,0,0,0,17.072,15.792Zm2.32,0h.32a1.26,1.26,0,0,0,.56-.088.523.523,0,0,0,.208-.408H19.392ZM35.52,20.976q-4.048.576-5.984-.216A2.716,2.716,0,0,1,27.6,18.128a3.448,3.448,0,0,1,.92-2.3,7.544,7.544,0,0,1,2.808-1.864.812.812,0,0,0-.512-.272,1.993,1.993,0,0,0-1.392.288,7.056,7.056,0,0,0-1.36,1.168,1.27,1.27,0,0,1-.88.384,1.061,1.061,0,0,1-1.168-1.184,1.222,1.222,0,0,1,.4-.816,10.572,10.572,0,0,0,1.248-1.3,10.072,10.072,0,0,0,.944-1.4q-.576.016-1.072.016h-.864a1.2,1.2,0,0,1-.84-.36,1.09,1.09,0,0,1-.328-.84A1.162,1.162,0,0,1,26.72,8.512q.576.016,1.3.008T29.536,8.5q.048-.224.1-.456t.08-.44a1.261,1.261,0,0,1,.448-.8,1.133,1.133,0,0,1,.864-.256,1.2,1.2,0,0,1,.808.448,1.09,1.09,0,0,1,.248.864l-.1.528q.464-.032.88-.072l.752-.072a1.164,1.164,0,0,1,.88.224,1.188,1.188,0,0,1,.216,1.656,1.1,1.1,0,0,1-.792.424q-.544.064-1.256.112t-1.464.08q-.24.512-.512,1.024a2.781,2.781,0,0,1,.472.008,4.274,4.274,0,0,1,.456.072,3.021,3.021,0,0,1,1.08.44,2.9,2.9,0,0,1,.872.92q.752-.208,1.584-.384t1.76-.32a1.1,1.1,0,0,1,.888.224,1.163,1.163,0,0,1,.456.8,1.1,1.1,0,0,1-.224.888,1.152,1.152,0,0,1-.784.456q-.848.112-1.576.24t-1.352.256q.064.4.1.864t.032.976a1.175,1.175,0,0,1-1.184,1.184,1.169,1.169,0,0,1-.848-.344,1.13,1.13,0,0,1-.352-.84q0-.624-.048-1.12a4.454,4.454,0,0,0-1.584.976,1.5,1.5,0,0,0-.464.976.623.623,0,0,0,.224.464,1.566,1.566,0,0,0,.792.3,8.526,8.526,0,0,0,1.592.064q1.024-.032,2.624-.24a1.1,1.1,0,0,1,.888.224,1.188,1.188,0,0,1,.224,1.664A1.2,1.2,0,0,1,35.52,20.976Zm19.568.144a1.2,1.2,0,0,1-.872.176.96.96,0,0,1-.712-.528,2.222,2.222,0,0,1-.1-.2,1.464,1.464,0,0,0-.136-.232q-.592.1-1.416.2l-1.72.216q-.9.112-1.72.192t-1.416.128a1.222,1.222,0,0,1-.84-.216,1.068,1.068,0,0,1-.392-.76.956.956,0,0,1,.248-.784,1.1,1.1,0,0,1,.76-.352q.464-.032,1.112-.088l1.368-.12V17.008h-.4a4.386,4.386,0,0,1-1.552-.224,1.452,1.452,0,0,1-.824-.752,3.442,3.442,0,0,1-.248-1.44,2.5,2.5,0,0,1,.584-1.9,3.052,3.052,0,0,1,2.04-.528h.4v-.816l-1.3.152q-.616.072-1.032.1a1.041,1.041,0,0,1-.784-.232,1,1,0,0,1-.336-.712.972.972,0,0,1,.96-1.056l.328-.032.36-.032q.08-.224.2-.584t.256-.744q.136-.384.24-.688t.136-.416a1.072,1.072,0,0,1,.616-.736,1.248,1.248,0,0,1,.92-.032,1.071,1.071,0,0,1,.656.576,1.023,1.023,0,0,1,.016.848q-.08.192-.3.648t-.424.9q.512-.064,1.024-.12l.96-.1q-.064-.1-.128-.184a1.276,1.276,0,0,0-.128-.152.908.908,0,0,1-.192-.736,1.031,1.031,0,0,1,.384-.672,1.1,1.1,0,0,1,.728-.232,1,1,0,0,1,.728.328q.176.208.448.536t.568.7q.3.376.552.72t.416.568a.97.97,0,0,1,.16.824,1.183,1.183,0,0,1-.528.7,1.027,1.027,0,0,1-.816.168,1.007,1.007,0,0,1-.688-.472q-.048-.08-.1-.152t-.112-.152q-.336.048-.744.1t-.856.112V12.16H51.9a3.048,3.048,0,0,1,2.048.528,2.522,2.522,0,0,1,.576,1.9,3.216,3.216,0,0,1-.3,1.52,1.584,1.584,0,0,1-1,.752,1.311,1.311,0,0,1,.352.12.839.839,0,0,1,.3.264q.224.272.536.736t.616.92q.3.456.448.712a1,1,0,0,1,.136.832A1.156,1.156,0,0,1,55.088,21.12Zm-12.8.192a1.369,1.369,0,0,1-.9-.288,1.14,1.14,0,0,1,.64-2,3.473,3.473,0,0,0,.68-.12.5.5,0,0,0,.3-.248,2.041,2.041,0,0,0,.152-.5q.064-.352.128-.856t.08-.968a1.343,1.343,0,0,0-.12-.824q-.152-.184-.776-.184a2.231,2.231,0,0,1-.984-.192,1.119,1.119,0,0,1-.56-.688,3.388,3.388,0,0,1-.072-1.392q.032-.272.056-.512t.04-.464a2.208,2.208,0,0,1,.512-1.416,1.735,1.735,0,0,1,1.232-.392,1.152,1.152,0,0,0,.552-.1.427.427,0,0,0,.184-.408V9.5a.536.536,0,0,0-.128-.424.833.833,0,0,0-.5-.1H41.472a.94.94,0,0,1-.752-.3,1.03,1.03,0,0,1-.256-.7A1,1,0,0,1,40.72,7.3a.954.954,0,0,1,.752-.288h1.984a2.5,2.5,0,0,1,1.7.464,2.061,2.061,0,0,1,.512,1.584v.992a2.129,2.129,0,0,1-.456,1.56,2,2,0,0,1-1.432.44,1.254,1.254,0,0,0-.568.088.446.446,0,0,0-.184.36,1.7,1.7,0,0,0-.016.24.534.534,0,0,0,.12.44.919.919,0,0,0,.568.12,2.063,2.063,0,0,1,1.552.48,2.216,2.216,0,0,1,.416,1.6q-.016.96-.1,1.84T45.36,18.8a3.581,3.581,0,0,1-.56,1.528,2.082,2.082,0,0,1-1.024.768A4.564,4.564,0,0,1,42.288,21.312Zm9.152-6.16h.368a.683.683,0,0,0,.456-.112.617.617,0,0,0,.12-.448.468.468,0,0,0-.576-.576H51.44Zm-2.528,0h.336V14.016h-.336a.617.617,0,0,0-.448.12.683.683,0,0,0-.112.456.649.649,0,0,0,.112.448A.649.649,0,0,0,48.912,15.152Zm2.528,3.392.688-.08-.048-.048a.955.955,0,0,1-.128-.76.934.934,0,0,1,.448-.616.125.125,0,0,1,.032-.024.125.125,0,0,0,.032-.024,2.2,2.2,0,0,1-.272.016H51.44Zm17.472,2.768a1.228,1.228,0,0,1-.872-.256,1.214,1.214,0,0,1-.392-.736,1.126,1.126,0,0,1,.136-.8.937.937,0,0,1,.7-.448.867.867,0,0,0,.456-.176.686.686,0,0,0,.1-.448v-4.8a.811.811,0,0,1-.64.272H65.056a.824.824,0,0,1-.608-.24q-.016,2.112-.176,3.856a13.545,13.545,0,0,1-.56,2.96.992.992,0,0,1-.528.616,1.063,1.063,0,0,1-.816.072,1.015,1.015,0,0,1-.584-.488.891.891,0,0,1-.072-.744,15.136,15.136,0,0,0,.616-3.1,38.069,38.069,0,0,0,.184-3.9V9.52a3.777,3.777,0,0,1,.256-1.528,1.544,1.544,0,0,1,.888-.816,4.947,4.947,0,0,1,1.752-.248h2.72a5.016,5.016,0,0,1,1.76.248,1.575,1.575,0,0,1,.9.816,3.675,3.675,0,0,1,.264,1.528v9.472a2.322,2.322,0,0,1-.552,1.7A2.373,2.373,0,0,1,68.912,21.312Zm-9.488-.4a3.593,3.593,0,0,1-1.408-.224,1.286,1.286,0,0,1-.712-.752,4.182,4.182,0,0,1-.2-1.44,4.3,4.3,0,0,1,.2-1.472,1.229,1.229,0,0,1,.712-.736,3.843,3.843,0,0,1,1.408-.208,3.777,3.777,0,0,1,1.4.208,1.231,1.231,0,0,1,.7.736,4.3,4.3,0,0,1,.2,1.472,4.182,4.182,0,0,1-.2,1.44,1.288,1.288,0,0,1-.7.752A3.532,3.532,0,0,1,59.424,20.912Zm7.232-2.144a3.5,3.5,0,0,1-1.192-.16.963.963,0,0,1-.584-.632,4.626,4.626,0,0,1-.16-1.4,4.544,4.544,0,0,1,.16-1.392.962.962,0,0,1,.584-.624,3.5,3.5,0,0,1,1.192-.16,3.431,3.431,0,0,1,1.184.16.987.987,0,0,1,.584.624,4.34,4.34,0,0,1,.168,1.392,4.419,4.419,0,0,1-.168,1.4.988.988,0,0,1-.584.632A3.431,3.431,0,0,1,66.656,18.768Zm-9.568-7.792a.836.836,0,0,1-.64-.256.931.931,0,0,1,0-1.248.836.836,0,0,1,.64-.256H61.6a.83.83,0,0,1,.648.256.955.955,0,0,1,0,1.248.83.83,0,0,1-.648.256ZM57.9,8.7a.868.868,0,0,1-.664-.264.96.96,0,0,1,0-1.288A.855.855,0,0,1,57.9,6.88h3.024a.849.849,0,0,1,.672.272.984.984,0,0,1,0,1.288.862.862,0,0,1-.672.264Zm-.032,4.576a.842.842,0,0,1-.656-.264.952.952,0,0,1,0-1.264.842.842,0,0,1,.656-.264H60.96a.817.817,0,0,1,.648.264.977.977,0,0,1,0,1.264.817.817,0,0,1-.648.264Zm0,2.288a.842.842,0,0,1-.656-.264.907.907,0,0,1-.24-.632.879.879,0,0,1,.24-.624.856.856,0,0,1,.656-.256H60.96a.83.83,0,0,1,.648.256.9.9,0,0,1,.232.624.925.925,0,0,1-.232.632.817.817,0,0,1-.648.264ZM69.04,12.5V9.632a.967.967,0,0,0-.216-.744,1.291,1.291,0,0,0-.808-.184H65.44a1.216,1.216,0,0,0-.792.184,1.018,1.018,0,0,0-.2.744V12.48a.791.791,0,0,1,.608-.24h.736v-.608h-.4a.786.786,0,0,1-.616-.24.919.919,0,0,1,0-1.184.786.786,0,0,1,.616-.24h.4v-.3A.868.868,0,0,1,66.056,9a.96.96,0,0,1,1.288,0,.855.855,0,0,1,.272.664v.3h.5a.786.786,0,0,1,.616.24.919.919,0,0,1,0,1.184.786.786,0,0,1-.616.24h-.5v.608H68.4A.8.8,0,0,1,69.04,12.5Zm-9.616,6.64a.381.381,0,0,0,.336-.12,1.083,1.083,0,0,0,.08-.52,1.079,1.079,0,0,0-.08-.528.4.4,0,0,0-.336-.112.421.421,0,0,0-.344.112.993.993,0,0,0-.088.528,1,1,0,0,0,.088.52A.405.405,0,0,0,59.424,19.136ZM66.656,17.1a.351.351,0,0,0,.28-.088.823.823,0,0,0,.072-.44.775.775,0,0,0-.072-.432.53.53,0,0,0-.56,0,.775.775,0,0,0-.072.432.823.823,0,0,0,.072.44A.351.351,0,0,0,66.656,17.1ZM80,21.12a.638.638,0,0,1-.448-.2,3.956,3.956,0,0,1-.432-.5,2.036,2.036,0,0,0-.224-.3q-.16-.184-.384-.424-.544-.64-1.4-1.672a24.1,24.1,0,0,1-1.656-2.264,10.472,10.472,0,0,1-1.936-5.408A3.251,3.251,0,0,1,74.592,7.92a3.431,3.431,0,0,1,2.448-.992,3.24,3.24,0,0,1,1.776.488A3.139,3.139,0,0,1,80,8.848a3.139,3.139,0,0,1,1.184-1.432,3.24,3.24,0,0,1,1.776-.488,3.431,3.431,0,0,1,2.512,1.056,3.241,3.241,0,0,1,1.008,2.368,10.472,10.472,0,0,1-1.936,5.408,22.26,22.26,0,0,1-1.64,2.264q-.856,1.032-1.416,1.672l-.368.424q-.16.184-.24.3a3.956,3.956,0,0,1-.432.5A.638.638,0,0,1,80,21.12Zm0-.688q.032-.032.112-.128t.224-.288q.1-.128.256-.312l.384-.44q.432-.5,1.048-1.232t1.272-1.64A19.81,19.81,0,0,0,84.52,14.48a12.372,12.372,0,0,0,.928-2.056,6.349,6.349,0,0,0,.36-2.072,2.653,2.653,0,0,0-.8-1.888A2.8,2.8,0,0,0,82.96,7.6a2.542,2.542,0,0,0-1.416.4,2.578,2.578,0,0,0-.952,1.168A1.414,1.414,0,0,1,80.4,9.5a.471.471,0,0,1-.4.168.448.448,0,0,1-.392-.168,2.462,2.462,0,0,1-.2-.328A2.578,2.578,0,0,0,78.456,8a2.542,2.542,0,0,0-1.416-.4,2.8,2.8,0,0,0-2.048.864,2.653,2.653,0,0,0-.8,1.888,6.349,6.349,0,0,0,.36,2.072,12.372,12.372,0,0,0,.928,2.056A19.81,19.81,0,0,0,76.7,16.392q.656.9,1.272,1.64t1.048,1.232l.384.44q.16.184.256.312.144.192.224.288T80,20.432Z" transform="translate(169.563 636)" fill="#b49778"/>
    <path id="パス_9827" data-name="パス 9827" d="M60.034,22.651a4.448,4.448,0,0,0-4.183-4.674A3.938,3.938,0,0,0,53.035,19.2a3.941,3.941,0,0,0-2.818-1.218,4.448,4.448,0,0,0-4.181,4.674,4.947,4.947,0,0,0,1.935,3.942l.018.012c.142.1.142.1,5.046,3.677,4.9-3.577,4.9-3.577,5.045-3.677l.011-.006.008-.006h0l.579-.453a4.825,4.825,0,0,0,1.357-3.489" transform="translate(-48.974 599.023)" fill="#b49778"/>
    <path id="パス_9828" data-name="パス 9828" d="M55.064,20.991a2.869,2.869,0,0,0-2.7-3.014,2.54,2.54,0,0,0-1.816.786,2.542,2.542,0,0,0-1.817-.786,2.869,2.869,0,0,0-2.7,3.014,3.19,3.19,0,0,0,1.248,2.542l.012.008c.092.064.092.064,3.255,2.371,3.162-2.307,3.162-2.307,3.254-2.371l.007,0,0,0h0l.373-.292a3.112,3.112,0,0,0,.875-2.25" transform="translate(273.044 608.553)" fill="#b49778"/>
    <path id="パス_9781" data-name="パス 9781" d="M25.076-.646A4.116,4.116,0,0,1,27.7.31a4.116,4.116,0,0,1,2.623-.956A4.157,4.157,0,0,1,33.419.76a4.932,4.932,0,0,1,1.258,3.332A4.828,4.828,0,0,1,33.236,7.65l-.227.175-.051.039.009.026-.318.209c-.122.085-.284.2-4.679,3.358l-.271.195-.271-.195C23.033,8.3,22.871,8.184,22.749,8.1l-.508-.3.069-.067a5.04,5.04,0,0,1-1.04-1.368,4.891,4.891,0,0,1-.548-2.272A4.932,4.932,0,0,1,21.981.76a4.157,4.157,0,0,1,3.1-1.406ZM27.7,1.571l-.328-.329a3.237,3.237,0,0,0-2.3-.983,3.655,3.655,0,0,0-3.436,3.833,4.047,4.047,0,0,0,1.613,3.249l.013.009c.133.092.135.094,4.435,3.181C32,7.445,32,7.443,32.135,7.35l.017-.012,0,0,.516-.4a3.979,3.979,0,0,0,1.089-2.845A3.655,3.655,0,0,0,30.325.259a3.237,3.237,0,0,0-2.3.983Z" transform="translate(307.385 615.701)" fill="#b49778"/>
    <path id="パス_9781-2" data-name="パス 9781" d="M23.784-.646a2.894,2.894,0,0,1,1.844.672,2.894,2.894,0,0,1,1.844-.672A2.923,2.923,0,0,1,29.65.343a3.468,3.468,0,0,1,.884,2.343,3.4,3.4,0,0,1-1.013,2.5l-.16.123-.036.028.007.018-.224.147c-.086.06-.2.142-3.29,2.361L25.628,8l-.19-.137c-3.09-2.22-3.2-2.3-3.29-2.361l-.357-.211.048-.047a3.544,3.544,0,0,1-.731-.962,3.439,3.439,0,0,1-.385-1.6A3.468,3.468,0,0,1,21.607.343,2.923,2.923,0,0,1,23.784-.646ZM25.628.913,25.4.682A2.276,2.276,0,0,0,23.784-.01a2.57,2.57,0,0,0-2.416,2.7A2.846,2.846,0,0,0,22.5,4.971l.009.006c.093.065.095.066,3.118,2.237,3.022-2.171,3.024-2.172,3.118-2.237l.012-.008,0,0,.363-.28a2.8,2.8,0,0,0,.766-2,2.57,2.57,0,0,0-2.416-2.7,2.276,2.276,0,0,0-1.614.691Z" transform="translate(-12.339 630.673)" fill="#b49778"/>
  </g>
</svg>
