<svg xmlns="http://www.w3.org/2000/svg" width="573.446" height="61.806" viewBox="0 0 573.446 61.806">
  <g id="グループ_3748" data-name="グループ 3748" transform="translate(22.826 -628.378)">
    <path id="パス_10320" data-name="パス 10320" d="M-209.8,1.85a14.427,14.427,0,0,1-5.925-.937,6.283,6.283,0,0,1-3.162-2.675A5.868,5.868,0,0,1-219.5-5.5a4.78,4.78,0,0,1,2.375-3.562,8.811,8.811,0,0,1,5.275-.963,22.01,22.01,0,0,1-2.225-3.175q-2.85.425-5.525.575a1.877,1.877,0,0,1-1.337-.463,1.752,1.752,0,0,1-.613-1.262,1.684,1.684,0,0,1,.5-1.3,1.855,1.855,0,0,1,1.3-.55q1-.05,2.038-.137t2.112-.213q-.175-.5-.3-.988t-.25-.987a1.841,1.841,0,0,1,.25-1.387,1.793,1.793,0,0,1,1.175-.813,1.781,1.781,0,0,1,1.388.275,1.876,1.876,0,0,1,.813,1.175q.125.525.275,1.063t.35,1.062q1.125-.225,2.175-.475t1.975-.55a1.833,1.833,0,0,1,1.425.075,1.751,1.751,0,0,1,.925,1.05,1.717,1.717,0,0,1-.125,1.375,1.771,1.771,0,0,1-1.1.875q-.8.25-1.725.487t-1.95.438a17.311,17.311,0,0,0,2.012,2.662A12.188,12.188,0,0,0-205.85-9.15a1.631,1.631,0,0,1,.75,1.025,1.923,1.923,0,0,1-.125,1.325,1.744,1.744,0,0,1-.937.887,1.854,1.854,0,0,1-1.287.063,21.4,21.4,0,0,0-4.637-1,5.187,5.187,0,0,0-2.725.362A1.991,1.991,0,0,0-215.9-5.025a2.155,2.155,0,0,0,1.162,2.362,9.964,9.964,0,0,0,4.887.788,1.742,1.742,0,0,1,1.325.513,1.765,1.765,0,0,1,.55,1.313,1.741,1.741,0,0,1-.512,1.325A1.854,1.854,0,0,1-209.8,1.85Zm21.125-.35a1.9,1.9,0,0,1-.6-1.3,1.682,1.682,0,0,1,.475-1.325,14.543,14.543,0,0,0,3.025-4.937,17.437,17.437,0,0,0,1.025-6.062,4.19,4.19,0,0,0-.613-2.6,2.006,2.006,0,0,0-1.637-.75,2.557,2.557,0,0,0-1.725.65,3.964,3.964,0,0,0-1.1,2.15,13.661,13.661,0,0,0-.15,4.025,1.784,1.784,0,0,1-.375,1.325,1.671,1.671,0,0,1-1.2.65,1.7,1.7,0,0,1-1.3-.375,1.777,1.777,0,0,1-.65-1.175,27.279,27.279,0,0,1-.25-3q-.05-1.6-.012-3.15t.137-2.863q.1-1.312.2-2.137a1.87,1.87,0,0,1,.675-1.25A1.691,1.691,0,0,1-191.4-21a1.816,1.816,0,0,1,1.225.65,1.76,1.76,0,0,1,.325,1.425q-.025.25-.112.85t-.138,1.025a3.628,3.628,0,0,1,.788-1.062,4.272,4.272,0,0,1,1.163-.788,3.079,3.079,0,0,1,1.3-.3,5.082,5.082,0,0,1,4.363,1.862,8.576,8.576,0,0,1,1.387,5.213,22.83,22.83,0,0,1-1.225,7.5A15.7,15.7,0,0,1-186,1.4a1.947,1.947,0,0,1-1.325.587A1.8,1.8,0,0,1-188.675,1.5Zm28.05-.65a1.865,1.865,0,0,1-1.363.462,1.96,1.96,0,0,1-1.337-.587,1.7,1.7,0,0,1-.5-1.338A1.85,1.85,0,0,1-163.2-1.9a9.311,9.311,0,0,0,1.912-2.312,9.065,9.065,0,0,0,.988-2.9,25.807,25.807,0,0,0,.325-4.163q-1.125.1-2.162.212t-1.863.238a2.075,2.075,0,0,1-1.4-.288,1.675,1.675,0,0,1-.775-1.162,1.865,1.865,0,0,1,.3-1.387,1.627,1.627,0,0,1,1.2-.738q.875-.125,2.113-.225t2.587-.2v-3.15a1.807,1.807,0,0,1,.525-1.312,1.745,1.745,0,0,1,1.3-.538,1.745,1.745,0,0,1,1.3.538,1.807,1.807,0,0,1,.525,1.313v2.925q.75-.05,1.425-.062t1.2.013a1.668,1.668,0,0,1,1.287.562,1.741,1.741,0,0,1,.463,1.338,1.653,1.653,0,0,1-.6,1.262,1.921,1.921,0,0,1-1.35.463q-1.075-.05-2.425,0a31.876,31.876,0,0,1-.338,4.775,14.164,14.164,0,0,1-1.25,4.1A11,11,0,0,1-160.625.85Zm-8.55-.475A1.745,1.745,0,0,1-170.55.1a1.793,1.793,0,0,1-.775-1.175,23.436,23.436,0,0,1-.4-2.775q-.15-1.625-.212-3.5t-.025-3.8q.037-1.925.212-3.725a30.893,30.893,0,0,1,.475-3.25,1.89,1.89,0,0,1,.8-1.175,1.745,1.745,0,0,1,1.375-.275,1.771,1.771,0,0,1,1.15.825,1.879,1.879,0,0,1,.25,1.4,32.339,32.339,0,0,0-.55,3.887q-.175,2.088-.163,4.213t.188,4.037a31.61,31.61,0,0,0,.475,3.387A1.841,1.841,0,0,1-168-.437,1.793,1.793,0,0,1-169.175.375Zm17.525-18.5q-.25-.275-.8-.8t-.925-.9a1,1,0,0,1-.262-.713,1.2,1.2,0,0,1,.313-.837,1.155,1.155,0,0,1,.712-.363,1.294,1.294,0,0,1,.838.163,12.38,12.38,0,0,1,1,.737,7.387,7.387,0,0,1,.925.863,1.316,1.316,0,0,1,.35.887,1.41,1.41,0,0,1-.35.913,1.174,1.174,0,0,1-.875.4A1.176,1.176,0,0,1-151.65-18.125Zm-.725,2.375a1.2,1.2,0,0,1-.913.325,1.176,1.176,0,0,1-.887-.45q-.225-.3-.7-.875t-.825-.975a1.036,1.036,0,0,1-.2-.738,1.172,1.172,0,0,1,.4-.812,1.116,1.116,0,0,1,.75-.287,1.2,1.2,0,0,1,.8.262,8.832,8.832,0,0,1,.912.813,8.08,8.08,0,0,1,.838.962,1.319,1.319,0,0,1,.287.925A1.187,1.187,0,0,1-152.375-15.75ZM-138.15,1.9A5.134,5.134,0,0,1-141.562.8a3.821,3.821,0,0,1-1.312-3.1,3.7,3.7,0,0,1,1.325-2.987A5.223,5.223,0,0,1-138.075-6.4a8.132,8.132,0,0,1,1.1.075V-10.55a1.807,1.807,0,0,1,.525-1.313,1.745,1.745,0,0,1,1.3-.537,1.7,1.7,0,0,1,1.287.537,1.831,1.831,0,0,1,.512,1.313v5.025a19.872,19.872,0,0,1,2.5,1.038,15.315,15.315,0,0,1,2.05,1.212,1.728,1.728,0,0,1,.762,1.213,1.833,1.833,0,0,1-.337,1.387,1.844,1.844,0,0,1-1.212.763,1.7,1.7,0,0,1-1.388-.338q-.525-.4-1.137-.787A12.756,12.756,0,0,0-133.4-1.75,4,4,0,0,1-134.875.938,5.156,5.156,0,0,1-138.15,1.9ZM-147.175-5a1.89,1.89,0,0,1-.55-1.35,1.69,1.69,0,0,1,.575-1.3,15.7,15.7,0,0,0,2.287-2.575,17.3,17.3,0,0,0,1.713-3l-1.025.1q-.5.05-.925.075a1.788,1.788,0,0,1-1.337-.437,1.8,1.8,0,0,1-.613-1.312,1.76,1.76,0,0,1,.438-1.288A2.011,2.011,0,0,1-145.3-16.7q.75-.075,1.575-.175t1.675-.225a12.969,12.969,0,0,0,.15-1.975,1.926,1.926,0,0,1,.537-1.312,1.7,1.7,0,0,1,1.288-.538,1.87,1.87,0,0,1,1.337.538,1.666,1.666,0,0,1,.538,1.313q-.025.325-.038.663a5.752,5.752,0,0,1-.062.663l.125-.025a1.766,1.766,0,0,1,1.4.237,1.726,1.726,0,0,1,.8,1.163,1.67,1.67,0,0,1-.25,1.375,1.89,1.89,0,0,1-1.175.8q-.35.075-.775.163l-.925.188a22.281,22.281,0,0,1-2.2,4.9A16.6,16.6,0,0,1-144.55-5a1.958,1.958,0,0,1-1.325.537A1.734,1.734,0,0,1-147.175-5Zm16.65-6.525A20.147,20.147,0,0,0-132.3-12.5a15.485,15.485,0,0,0-1.725-.725,2.366,2.366,0,0,1-1.113-.875,1.629,1.629,0,0,1-.238-1.35,1.9,1.9,0,0,1,.863-1.163,1.611,1.611,0,0,1,1.387-.187,15.144,15.144,0,0,1,1.637.587q.862.363,1.675.763a13.384,13.384,0,0,1,1.387.775,1.625,1.625,0,0,1,.775,1.188,1.974,1.974,0,0,1-.3,1.438,1.793,1.793,0,0,1-1.175.775A1.879,1.879,0,0,1-130.525-11.525ZM-138.2-1.45a1.094,1.094,0,0,0,1.225-1.25v-.325q-.325-.05-.625-.075t-.6-.025q-1.15,0-1.15.825Q-139.35-1.45-138.2-1.45Zm17.275-2.725a12.278,12.278,0,0,1-1.237-2.963,20.582,20.582,0,0,1-.675-3.738A29.484,29.484,0,0,1-122.925-15a1.709,1.709,0,0,1,.588-1.275,1.764,1.764,0,0,1,1.338-.45,1.653,1.653,0,0,1,1.262.6,1.829,1.829,0,0,1,.438,1.35,20.741,20.741,0,0,0,.013,3.3,17.867,17.867,0,0,0,.475,2.912A11.067,11.067,0,0,0-118.05-6.4q.575,1.075,1.363.875T-115.35-7.4a1.935,1.935,0,0,1,.938-1.1A1.685,1.685,0,0,1-113-8.625a1.706,1.706,0,0,1,1.037.925,2.041,2.041,0,0,1,.113,1.425,7.363,7.363,0,0,1-1.75,3.25,4.592,4.592,0,0,1-2.5,1.375,4.192,4.192,0,0,1-2.638-.425A5.533,5.533,0,0,1-120.925-4.175Zm18.1-1.925a1.816,1.816,0,0,1-1.413-.075A1.933,1.933,0,0,1-105.25-7.2a8.542,8.542,0,0,0-.963-1.737,16.371,16.371,0,0,0-1.4-1.738,9.981,9.981,0,0,0-1.537-1.375,2.043,2.043,0,0,1-.812-1.187,1.652,1.652,0,0,1,.287-1.413,1.869,1.869,0,0,1,1.2-.738,1.73,1.73,0,0,1,1.375.313,16.342,16.342,0,0,1,2.237,1.963,18.281,18.281,0,0,1,1.875,2.3,11.313,11.313,0,0,1,1.238,2.288,1.8,1.8,0,0,1-.037,1.425A1.777,1.777,0,0,1-102.825-6.1Zm9,8.35a1.682,1.682,0,0,1-1.163-.437A1.546,1.546,0,0,1-95.475.6V-5.425q-.075.475-.263,1.2t-.375,1.438q-.187.713-.337,1.163a1.483,1.483,0,0,1-.75.938,1.55,1.55,0,0,1-1.2.137,1.327,1.327,0,0,1-.812-.7A1.382,1.382,0,0,1-99.3-2.325q.15-.45.35-1.138t.387-1.4q.188-.712.287-1.187a1.4,1.4,0,0,1,.613-.9,1.287,1.287,0,0,1,1.037-.2,1.452,1.452,0,0,1,.787.438,1.352,1.352,0,0,1,.363.787V-8q-.575.1-1.1.175t-.95.125a1.792,1.792,0,0,1-1.213-.275,1.309,1.309,0,0,1-.587-1.075,1.616,1.616,0,0,1,.35-1.2,1.356,1.356,0,0,1,1.025-.5h.3q.225-.275.662-.875T-96-12.95q-.4-.3-.912-.663t-.95-.675q-.437-.312-.637-.438a1.47,1.47,0,0,1-.65-.963,1.512,1.512,0,0,1,.2-1.137,1.482,1.482,0,0,1,.862-.65,1.659,1.659,0,0,1,1.063.05q.225-.4.525-.937t.588-1.038q.287-.5.412-.75a1.44,1.44,0,0,1,.85-.775,1.592,1.592,0,0,1,1.2.075,1.312,1.312,0,0,1,.762.813,1.235,1.235,0,0,1-.137,1.087q-.2.325-.55.9t-.725,1.163q-.375.588-.65,1.012l.6.425q.65-.875,1.138-1.55t.637-.9a1.494,1.494,0,0,1,.963-.688,1.484,1.484,0,0,1,1.162.213,1.38,1.38,0,0,1,.7.887,1.208,1.208,0,0,1-.2,1.113l-.575.762q-.425.563-1.025,1.338t-1.263,1.613q-.662.838-1.262,1.587.475-.05.925-.087t.875-.087l-.1-.175a1.381,1.381,0,0,1-.025-1.063,1.389,1.389,0,0,1,.7-.787,1.369,1.369,0,0,1,1.113-.075,1.468,1.468,0,0,1,.837.725q.1.175.238.475t.313.65v-3.85a4.634,4.634,0,0,1,1.15-3.45,5.146,5.146,0,0,1,3.7-1.125h2.7a5.146,5.146,0,0,1,3.7,1.125,4.634,4.634,0,0,1,1.15,3.45V-3.425A4.634,4.634,0,0,1-77.75.025a5.146,5.146,0,0,1-3.7,1.125h-2.7A5.422,5.422,0,0,1-87.625.213,3.969,3.969,0,0,1-88.95-2.65a1.514,1.514,0,0,1-.75.6,1.342,1.342,0,0,1-1.1-.075,1.276,1.276,0,0,1-.7-.85q-.075-.325-.213-.85t-.275-1.062q-.138-.537-.212-.862V.6a1.566,1.566,0,0,1-.475,1.213A1.637,1.637,0,0,1-93.825,2.25ZM-81.3-2.05q.9-.025,1.15-.35a2.375,2.375,0,0,0,.25-1.325V-8.2h-1.4Zm-3.025,0V-8.2H-85.7v4.475a2.312,2.312,0,0,0,.25,1.3A1.526,1.526,0,0,0-84.325-2.05Zm3.025-9.3h1.4v-3.7a2.381,2.381,0,0,0-.25-1.312q-.25-.338-1.15-.363Zm-4.4,0h1.375v-5.375a1.431,1.431,0,0,0-1.125.363,2.381,2.381,0,0,0-.25,1.312ZM-89-4.875V-7.8a1.681,1.681,0,0,1-1.125.012,1.238,1.238,0,0,1-.8-.738l-.05-.175q-.275.05-.588.1l-.637.1v2.15a1.353,1.353,0,0,1,.362-.7,1.407,1.407,0,0,1,.688-.4,1.294,1.294,0,0,1,1.037.137,1.449,1.449,0,0,1,.663.838q.05.25.188.712T-89-4.875Zm21.925,5.4A1.847,1.847,0,0,1-68.562.55,1.909,1.909,0,0,1-69.65-.475a1.911,1.911,0,0,1-.037-1.5,1.862,1.862,0,0,1,1.012-1.1,23.864,23.864,0,0,0,6.413-4.05A15.791,15.791,0,0,0-58.425-12.2q.5-1.125.138-1.663t-1.687-.537H-69.25a1.836,1.836,0,0,1-1.363-.575,1.9,1.9,0,0,1-.562-1.375,1.856,1.856,0,0,1,.563-1.363,1.856,1.856,0,0,1,1.363-.562h9.55q3.8,0,5.05,1.975t-.15,5.275A20.213,20.213,0,0,1-59.437-4.45,25.884,25.884,0,0,1-67.075.525ZM-40.9.8a1.9,1.9,0,0,1-1.437.363A1.827,1.827,0,0,1-43.6.4a1.9,1.9,0,0,1-.363-1.438A1.827,1.827,0,0,1-43.2-2.3a10.809,10.809,0,0,0,2.575-2.688,12.356,12.356,0,0,0,1.6-3.437h-8.1a1.806,1.806,0,0,1-1.325-.55A1.806,1.806,0,0,1-49-10.3a1.806,1.806,0,0,1,.55-1.325,1.806,1.806,0,0,1,1.325-.55H-38.5a15.362,15.362,0,0,0-.15-2.125q-1.4.2-2.775.363T-44-13.7a1.862,1.862,0,0,1-1.362-.513,1.8,1.8,0,0,1-.612-1.312,1.792,1.792,0,0,1,.525-1.362,1.9,1.9,0,0,1,1.35-.588q1.2-.075,2.6-.237t2.862-.412q1.463-.25,2.813-.55T-33.4-19.3a2.188,2.188,0,0,1,1.475.063,1.69,1.69,0,0,1,1,1.038,1.889,1.889,0,0,1-.05,1.475,1.734,1.734,0,0,1-1.1.975q-.575.175-1.312.363T-34.925-15q.1.7.138,1.4t.037,1.425h6.825a1.806,1.806,0,0,1,1.325.55,1.806,1.806,0,0,1,.55,1.325,1.806,1.806,0,0,1-.55,1.325,1.806,1.806,0,0,1-1.325.55H-35.2a17.508,17.508,0,0,1-2.087,5.262A12.939,12.939,0,0,1-40.9.8Zm34.675.325q-6.7.925-10.15-.762a5.644,5.644,0,0,1-3.45-5.413,6.718,6.718,0,0,1,1.1-3.838A9.42,9.42,0,0,1-15.65-11.7q-.175-.925-.5-2.112t-.675-2.375q-.35-1.187-.625-2.038a1.8,1.8,0,0,1,.188-1.413,1.785,1.785,0,0,1,1.113-.888,1.9,1.9,0,0,1,1.463.188,1.785,1.785,0,0,1,.887,1.112q.375,1.325.762,2.913t.688,3.062q1.1-.425,2.35-.775t2.6-.65A1.8,1.8,0,0,1-6-14.45a1.771,1.771,0,0,1,.825,1.15,1.731,1.731,0,0,1-.238,1.387,1.737,1.737,0,0,1-1.162.787,31.91,31.91,0,0,0-4.988,1.363A11.752,11.752,0,0,0-14.475-8.25a4.417,4.417,0,0,0-1.363,1.562A3.713,3.713,0,0,0-16.2-5.125,2.45,2.45,0,0,0-15.75-3.7a3.1,3.1,0,0,0,1.525,1.05,9.32,9.32,0,0,0,2.912.45A26.693,26.693,0,0,0-6.7-2.575a1.667,1.667,0,0,1,1.375.363,1.861,1.861,0,0,1,.7,1.238A1.689,1.689,0,0,1-4.975.4,1.93,1.93,0,0,1-6.225,1.125Zm17.625.9a1.826,1.826,0,0,1-1.337-.488A1.749,1.749,0,0,1,9.475.25a1.8,1.8,0,0,1,.5-1.338,1.791,1.791,0,0,1,1.3-.587A9.874,9.874,0,0,0,16.1-2.75a3.205,3.205,0,0,0,1.55-2.9,2.137,2.137,0,0,0-.725-1.687,3.329,3.329,0,0,0-1.9-.763,5.791,5.791,0,0,0-2.55.363A7.844,7.844,0,0,0,9.8-6.05a1.669,1.669,0,0,1-1.075.425,1.876,1.876,0,0,1-1.125-.3,1.92,1.92,0,0,1-.713-.912,1.835,1.835,0,0,1-.062-1.137q.325-1.15.588-2.625t.437-3q-1.15.025-2.138-.013T4.025-13.7A1.757,1.757,0,0,1,2.8-14.35a1.732,1.732,0,0,1-.4-1.325A1.757,1.757,0,0,1,3.05-16.9a1.732,1.732,0,0,1,1.325-.4q.675.05,1.675.075t2.15,0q.05-.575.063-1.05t-.012-.85a1.773,1.773,0,0,1,.513-1.35,1.854,1.854,0,0,1,1.312-.575,1.723,1.723,0,0,1,1.313.5,1.832,1.832,0,0,1,.563,1.3q0,.4-.012.863T11.9-17.4q1.1-.075,2.088-.2t1.762-.275a1.763,1.763,0,0,1,1.363.262,1.726,1.726,0,0,1,.787,1.138,1.727,1.727,0,0,1-.262,1.35,1.737,1.737,0,0,1-1.138.775q-1,.2-2.287.35t-2.688.25q-.1.775-.225,1.55t-.275,1.525a9.606,9.606,0,0,1,3.763-.875,7.616,7.616,0,0,1,3.312.65,5.527,5.527,0,0,1,2.35,1.988A5.48,5.48,0,0,1,21.325-5.8a6.8,6.8,0,0,1-2.55,5.6Q16.225,1.85,11.4,2.025Zm23.75.425a1.43,1.43,0,0,1-.463-1.15A1.67,1.67,0,0,1,35.175.1q.25-.275.487-.575a5.206,5.206,0,0,0,.438-.65A5.85,5.85,0,0,1,33.775-4a1.567,1.567,0,0,1,.037-1.212,1.477,1.477,0,0,1,.888-.812,1.54,1.54,0,0,1,1.2.037,1.475,1.475,0,0,1,.825.862,2.948,2.948,0,0,0,.525.95,17.014,17.014,0,0,0,.375-4.675A7.357,7.357,0,0,0,35.363-7.7,6.553,6.553,0,0,0,33.55-5.625a6.877,6.877,0,0,0-.825,3.05,1.273,1.273,0,0,1-.425.95,1.6,1.6,0,0,1-1.025.375,1.371,1.371,0,0,1-1.038-.363A1.678,1.678,0,0,1,29.75-2.7q-.1-.875-.175-2t-.113-2.287q-.037-1.162-.038-2.2t.025-1.788a1.616,1.616,0,0,1,.475-1.125,1.372,1.372,0,0,1,1.125-.4,1.4,1.4,0,0,1,1.1.525A1.622,1.622,0,0,1,32.5-10.8q-.025.425-.025,1.05V-8.4a9.191,9.191,0,0,1,2.175-2.187A8.876,8.876,0,0,1,37.2-11.85q-.2-.875-.45-1.625a1.7,1.7,0,0,1,.088-1.262,1.557,1.557,0,0,1,.912-.838,1.628,1.628,0,0,1,1.25.1,1.518,1.518,0,0,1,.8.95,18.043,18.043,0,0,1,.6,2.4,6.514,6.514,0,0,1,2.725.975,5.6,5.6,0,0,1,1.888,2.013A5.8,5.8,0,0,1,45.7-6.275,5.845,5.845,0,0,1,44.8-3,6.085,6.085,0,0,1,42.475-.888a6.541,6.541,0,0,1-3.05.738H39.2a12.428,12.428,0,0,1-.775,1.338A10.045,10.045,0,0,1,37.5,2.375a1.628,1.628,0,0,1-1.162.525A1.577,1.577,0,0,1,35.15,2.45Zm5.125-5.775a3.075,3.075,0,0,0,1.612-.963,2.863,2.863,0,0,0,.663-1.988,2.9,2.9,0,0,0-.463-1.675,2.449,2.449,0,0,0-1.312-.95,24.77,24.77,0,0,1-.062,2.838A17.209,17.209,0,0,1,40.275-3.325ZM62.2,1.55A6.948,6.948,0,0,1,59.488.913,4.208,4.208,0,0,1,57.7-.65a3.866,3.866,0,0,1-.55-2.325,3.79,3.79,0,0,1,.675-1.975,3.893,3.893,0,0,1,1.638-1.313A4.646,4.646,0,0,1,61.825-6.6a4.073,4.073,0,0,1,3,1.275,3.364,3.364,0,0,1,.7,2.725,2.737,2.737,0,0,0,1.012-1.212A4.292,4.292,0,0,0,66.85-5.5a2.771,2.771,0,0,0-.487-1.525,3.752,3.752,0,0,0-1.375-1.237,4.394,4.394,0,0,0-2.1-.5,6.043,6.043,0,0,0-2.663.688,11.531,11.531,0,0,0-3.075,2.35,1.979,1.979,0,0,1-1.463.613A1.758,1.758,0,0,1,54.25-5.75a1.884,1.884,0,0,1-.437-1.338A1.539,1.539,0,0,1,54.45-8.3q1.5-1.125,3.05-2.425t2.95-2.563q1.4-1.262,2.45-2.287.4-.375.275-.7T62.4-16.5q-.875.125-1.8.25T58.725-16a1.789,1.789,0,0,1-1.362-.362,1.865,1.865,0,0,1-.737-1.238,1.789,1.789,0,0,1,.362-1.362,1.774,1.774,0,0,1,1.237-.712q.625-.1,1.513-.175L61.525-20q.9-.075,1.525-.1a4.767,4.767,0,0,1,2.75.487,3.217,3.217,0,0,1,1.475,1.638,3.464,3.464,0,0,1,.088,2.2,4.61,4.61,0,0,1-1.437,2.2q-.325.325-.888.825t-1.262,1.1a7.4,7.4,0,0,1,3.362.662,5.97,5.97,0,0,1,2.488,2.125,6.109,6.109,0,0,1,.95,3.488A6.911,6.911,0,0,1,69.5-1.413,6.278,6.278,0,0,1,66.537.925,10.242,10.242,0,0,1,62.2,1.55Zm-.65-3.425a8.374,8.374,0,0,0,.925,0A1.356,1.356,0,0,0,62.6-2.963a.937.937,0,0,0-.825-.587,1.2,1.2,0,0,0-.85.1.752.752,0,0,0-.4.575.7.7,0,0,0,.237.675A1.857,1.857,0,0,0,61.55-1.875Zm16.7,2.6A1.785,1.785,0,0,1,77.262-.3,1.734,1.734,0,0,1,77.3-1.725q.45-.95,1.087-2.337t1.425-3.025l1.613-3.35q.825-1.712,1.612-3.325t1.475-2.975Q85.2-18.1,85.7-19.025a1.672,1.672,0,0,1,1.113-.875,1.745,1.745,0,0,1,1.412.2,1.8,1.8,0,0,1,.888,1.125,1.686,1.686,0,0,1-.187,1.4q-.55.95-1.425,2.625T85.65-10.9a5.032,5.032,0,0,1,1.225-.15A3.663,3.663,0,0,1,90.3-9.425a5.485,5.485,0,0,1,.2,4.375,2.288,2.288,0,0,0-.088,1.487.876.876,0,0,0,.863.413,2.226,2.226,0,0,0,.938-.213,2.608,2.608,0,0,0,.963-.963,12.494,12.494,0,0,0,1.1-2.3,1.775,1.775,0,0,1,1.012-1.037A1.836,1.836,0,0,1,96.725-7.7a1.822,1.822,0,0,1,1.05,1,1.907,1.907,0,0,1,.075,1.45A10.152,10.152,0,0,1,95.188-.9,6.083,6.083,0,0,1,91.05.5a5.4,5.4,0,0,1-2.838-.688,3.374,3.374,0,0,1-1.525-2.05,6.275,6.275,0,0,1,.188-3.388,1.868,1.868,0,0,0,.037-1.437,1.174,1.174,0,0,0-1.037-.388,2.658,2.658,0,0,0-1.713.7A6.518,6.518,0,0,0,82.6-4.525q-.1.225-.375.825T81.65-2.413q-.3.688-.55,1.25t-.325.738A2.268,2.268,0,0,1,79.75.675,1.689,1.689,0,0,1,78.25.725ZM107.45.6a1.847,1.847,0,0,1-1.487.025A1.909,1.909,0,0,1,104.875-.4a1.911,1.911,0,0,1-.037-1.5A1.862,1.862,0,0,1,105.85-3a24.047,24.047,0,0,0,6.412-4.038A15.661,15.661,0,0,0,116.1-12.1q.525-1.15.162-1.687t-1.712-.538h-9.075a1.848,1.848,0,0,1-1.35-.575,1.848,1.848,0,0,1-.575-1.35,1.876,1.876,0,0,1,.575-1.375,1.848,1.848,0,0,1,1.35-.575h9.35q3.8,0,5.05,1.975t-.15,5.275a20.213,20.213,0,0,1-4.637,6.575A25.884,25.884,0,0,1,107.45.6ZM123.5-15.275a1.2,1.2,0,0,1-.887.35,1.2,1.2,0,0,1-.913-.4q-.25-.275-.762-.825t-.863-.95a1.011,1.011,0,0,1-.237-.738,1.162,1.162,0,0,1,.362-.812,1.148,1.148,0,0,1,.738-.337,1.236,1.236,0,0,1,.813.212,11.588,11.588,0,0,1,.975.788,6.68,6.68,0,0,1,.875.912,1.335,1.335,0,0,1,.313.9A1.292,1.292,0,0,1,123.5-15.275Zm.6-2.425q-.275-.275-.838-.763T122.3-19.3a1.147,1.147,0,0,1-.3-.712,1.135,1.135,0,0,1,.275-.862,1.151,1.151,0,0,1,.7-.4,1.21,1.21,0,0,1,.825.15,10.616,10.616,0,0,1,1.037.675,6.717,6.717,0,0,1,.963.825,1.349,1.349,0,0,1,.412.875,1.267,1.267,0,0,1-.312.925,1.247,1.247,0,0,1-.863.425A1.2,1.2,0,0,1,124.1-17.7Zm9.8,18.85a1.83,1.83,0,0,1-1.462-.113A1.869,1.869,0,0,1,131.475-.1a1.83,1.83,0,0,1,.112-1.462,1.869,1.869,0,0,1,1.113-.963A17.164,17.164,0,0,0,138-5.263a11.284,11.284,0,0,0,3.35-3.987.969.969,0,0,0,.025-.975q-.25-.375-1.125-.375H131.1a1.92,1.92,0,0,1-1.375-.55,1.768,1.768,0,0,1-.575-1.325,1.8,1.8,0,0,1,.575-1.35,1.92,1.92,0,0,1,1.375-.55h9.425a6.093,6.093,0,0,1,3.513.863,3.243,3.243,0,0,1,1.425,2.35,6.19,6.19,0,0,1-.687,3.363,15.566,15.566,0,0,1-4.287,5.375A20.517,20.517,0,0,1,133.9,1.15Zm-1.225-16.9a1.806,1.806,0,0,1-1.325-.55,1.806,1.806,0,0,1-.55-1.325,1.806,1.806,0,0,1,.55-1.325,1.806,1.806,0,0,1,1.325-.55h9.8a1.765,1.765,0,0,1,1.313.55,1.827,1.827,0,0,1,.537,1.325,1.827,1.827,0,0,1-.537,1.325,1.765,1.765,0,0,1-1.312.55Zm28.7,17.35a2.265,2.265,0,0,1-1.462.163A1.7,1.7,0,0,1,158.75.9a1.927,1.927,0,0,1-.212-1.475,1.635,1.635,0,0,1,.887-1.15,19.4,19.4,0,0,0,5.05-3.45,10.34,10.34,0,0,0,2.7-4.7,7.42,7.42,0,0,0,.25-1.138,1.464,1.464,0,0,0-.15-.838,1.167,1.167,0,0,0-.525-.387,4.81,4.81,0,0,0-1.312-.25q-.937-.087-2.837-.087-1.775,0-2.713.063a5.012,5.012,0,0,0-1.325.213,1.359,1.359,0,0,0-.587.4,1.47,1.47,0,0,0-.163.925q.038.65.262,2.05a1.9,1.9,0,0,1-.337,1.437,1.824,1.824,0,0,1-1.262.788,1.876,1.876,0,0,1-1.45-.35,1.865,1.865,0,0,1-.775-1.25q-.275-1.75-.35-2.9a6.318,6.318,0,0,1,.125-1.937A3.613,3.613,0,0,1,154.8-14.6a3.806,3.806,0,0,1,1.188-.962,5.847,5.847,0,0,1,1.787-.5,24.431,24.431,0,0,1,3.025-.187v-2.675a1.836,1.836,0,0,1,.575-1.362,1.868,1.868,0,0,1,1.35-.562,1.9,1.9,0,0,1,1.375.563,1.836,1.836,0,0,1,.575,1.362v2.675a24.1,24.1,0,0,1,2.925.225,5.7,5.7,0,0,1,1.837.563A3.692,3.692,0,0,1,170.65-14.4a3.591,3.591,0,0,1,.713,2.325,14.682,14.682,0,0,1-.538,3.225,16.678,16.678,0,0,1-1.7,3.963,14.558,14.558,0,0,1-3.012,3.563A18.839,18.839,0,0,1,161.375,1.6ZM181.65-.65a1.886,1.886,0,0,1-1.487-.062A1.859,1.859,0,0,1,179.15-1.8a1.918,1.918,0,0,1,.063-1.5,1.767,1.767,0,0,1,1.088-1A31.318,31.318,0,0,0,184.262-6a44.113,44.113,0,0,0,3.875-2.225,32.752,32.752,0,0,0,3.375-2.475A19.879,19.879,0,0,0,194-13.15a1.765,1.765,0,0,1,1.288-.687,1.941,1.941,0,0,1,1.412.437,1.673,1.673,0,0,1,.713,1.275,1.96,1.96,0,0,1-.437,1.425A20.9,20.9,0,0,1,194.212-8,43.118,43.118,0,0,1,190.4-5.188a50.38,50.38,0,0,1-4.362,2.575A36.058,36.058,0,0,1,181.65-.65Zm1.775-10.175q-1-.825-2.125-1.663a21.919,21.919,0,0,0-2.075-1.387,1.824,1.824,0,0,1-.875-1.188,1.893,1.893,0,0,1,.225-1.437,1.834,1.834,0,0,1,1.188-.9,1.737,1.737,0,0,1,1.438.225q.75.475,1.613,1.063t1.65,1.188q.788.6,1.338,1.075a2.028,2.028,0,0,1,.725,1.275,1.786,1.786,0,0,1-.375,1.425,1.874,1.874,0,0,1-1.287.738A1.766,1.766,0,0,1,183.425-10.825ZM208.625.95A1.915,1.915,0,0,1,207.4.225a1.766,1.766,0,0,1-.375-1.375,1.882,1.882,0,0,1,.725-1.238,1.791,1.791,0,0,1,1.375-.362,5.607,5.607,0,0,0,1.325.038,1.436,1.436,0,0,0,.938-.5,3.761,3.761,0,0,0,.675-1.388,17.579,17.579,0,0,0,.512-2.625,6.761,6.761,0,0,0,.05-2.3,1.363,1.363,0,0,0-.8-1.037,4.051,4.051,0,0,0-1.775-.187,43.915,43.915,0,0,1-2.3,6.15A23.475,23.475,0,0,1,204.675.45a1.86,1.86,0,0,1-1.238.675A1.822,1.822,0,0,1,202.05.75a1.834,1.834,0,0,1-.7-1.25,1.647,1.647,0,0,1,.4-1.35,21.329,21.329,0,0,0,2.5-3.85,34.929,34.929,0,0,0,2-4.7q-.65.05-1.3.125t-1.225.125a1.849,1.849,0,0,1-1.375-.4,1.745,1.745,0,0,1-.675-1.25,1.849,1.849,0,0,1,.4-1.375,1.745,1.745,0,0,1,1.25-.675q.95-.1,1.963-.175l1.987-.15q.225-1.025.363-2.012t.188-1.962a1.818,1.818,0,0,1,.625-1.288,1.78,1.78,0,0,1,1.35-.463,1.906,1.906,0,0,1,1.313.625,1.591,1.591,0,0,1,.438,1.35,29.85,29.85,0,0,1-.6,3.625q3.3.15,4.525,1.963t.725,5.613a15.709,15.709,0,0,1-1.337,5A4.651,4.651,0,0,1,212.425.638,7.947,7.947,0,0,1,208.625.95ZM222.9-6.4a1.85,1.85,0,0,1-1.412.137,1.8,1.8,0,0,1-1.113-.887,18.371,18.371,0,0,0-1.062-1.637q-.638-.887-1.337-1.712T216.7-11.925a2.114,2.114,0,0,1-.575-1.312,1.633,1.633,0,0,1,.475-1.288,1.7,1.7,0,0,1,1.313-.575,1.866,1.866,0,0,1,1.337.525,25.37,25.37,0,0,1,2.45,2.737,22.754,22.754,0,0,1,1.95,2.913,1.708,1.708,0,0,1,.15,1.4A1.845,1.845,0,0,1,222.9-6.4Zm.025-10.5q-.275-.25-.85-.737t-1-.812a1.085,1.085,0,0,1-.312-.687,1.093,1.093,0,0,1,.262-.862,1.065,1.065,0,0,1,.675-.438,1.239,1.239,0,0,1,.825.113q.45.25,1.05.663a8.56,8.56,0,0,1,1,.787,1.307,1.307,0,0,1,.425.85,1.3,1.3,0,0,1-.3.95,1.156,1.156,0,0,1-.825.462A1.215,1.215,0,0,1,222.925-16.9ZM220.6-14.45q-.25-.275-.788-.813t-.887-.913a1.036,1.036,0,0,1-.25-.725,1.232,1.232,0,0,1,.325-.825,1.165,1.165,0,0,1,.725-.362,1.154,1.154,0,0,1,.825.188,10.023,10.023,0,0,1,.988.75,5.94,5.94,0,0,1,.887.9,1.316,1.316,0,0,1,.35.887,1.357,1.357,0,0,1-.375.913,1.216,1.216,0,0,1-.875.375A1.141,1.141,0,0,1,220.6-14.45ZM-130.7,39.1a1.861,1.861,0,0,1-1.45.063,1.864,1.864,0,0,1-1.1-.987,1.927,1.927,0,0,1-.062-1.475,1.775,1.775,0,0,1,.988-1.075,10.253,10.253,0,0,0,3.8-2.787,9.5,9.5,0,0,0,1.875-4.288h-7.075a1.765,1.765,0,0,1-1.312-.55,1.827,1.827,0,0,1-.537-1.325,1.827,1.827,0,0,1,.537-1.325,1.765,1.765,0,0,1,1.313-.55h7.35q0-1.1-.062-2.225t-.113-1.975a1.971,1.971,0,0,1,.4-1.425,1.8,1.8,0,0,1,1.25-.725,1.813,1.813,0,0,1,1.438.362,1.848,1.848,0,0,1,.738,1.288q.1,1,.113,2.25t.012,2.45h6.15a1.794,1.794,0,0,1,1.337.55,1.827,1.827,0,0,1,.538,1.325A1.827,1.827,0,0,1-115.113,28a1.794,1.794,0,0,1-1.337.55h-6.375a13.652,13.652,0,0,1-2.437,6.4A13.384,13.384,0,0,1-130.7,39.1Zm27.3-.3a1.9,1.9,0,0,1-1.437.362A1.827,1.827,0,0,1-106.1,38.4a1.9,1.9,0,0,1-.363-1.437A1.827,1.827,0,0,1-105.7,35.7a10.809,10.809,0,0,0,2.575-2.687,12.356,12.356,0,0,0,1.6-3.438h-8.1a1.806,1.806,0,0,1-1.325-.55,1.806,1.806,0,0,1-.55-1.325,1.806,1.806,0,0,1,.55-1.325,1.806,1.806,0,0,1,1.325-.55H-101a15.363,15.363,0,0,0-.15-2.125q-1.4.2-2.775.363t-2.575.237a1.862,1.862,0,0,1-1.363-.513,1.8,1.8,0,0,1-.612-1.312,1.792,1.792,0,0,1,.525-1.362,1.9,1.9,0,0,1,1.35-.588q1.2-.075,2.6-.237t2.863-.412q1.462-.25,2.813-.55T-95.9,18.7a2.188,2.188,0,0,1,1.475.063,1.69,1.69,0,0,1,1,1.038,1.889,1.889,0,0,1-.05,1.475,1.734,1.734,0,0,1-1.1.975q-.575.175-1.312.362T-97.425,23q.1.7.138,1.4t.037,1.425h6.825a1.806,1.806,0,0,1,1.325.55,1.806,1.806,0,0,1,.55,1.325,1.806,1.806,0,0,1-.55,1.325,1.806,1.806,0,0,1-1.325.55H-97.7a17.508,17.508,0,0,1-2.088,5.263A12.939,12.939,0,0,1-103.4,38.8Zm21.075-1.9a1.6,1.6,0,0,1-1.187-.5A1.658,1.658,0,0,1-84,35.2a1.646,1.646,0,0,1,.488-1.213,1.616,1.616,0,0,1,1.188-.487h8.6a15.252,15.252,0,0,0,.688-2.463q.112-.787-.287-1.025a2.733,2.733,0,0,0-1.325-.237H-79.5a1.637,1.637,0,0,1-1.2-.5,1.637,1.637,0,0,1-.5-1.2,1.6,1.6,0,0,1,.5-1.188,1.658,1.658,0,0,1,1.2-.487h4.85a8.447,8.447,0,0,1,3.662.637A2.652,2.652,0,0,1-69.5,29.225a10.344,10.344,0,0,1-.7,4.275h2.5a1.616,1.616,0,0,1,1.188.487,1.646,1.646,0,0,1,.487,1.213,1.658,1.658,0,0,1-.487,1.2,1.6,1.6,0,0,1-1.187.5ZM-53.6,39.15a1.83,1.83,0,0,1-1.463-.113,1.869,1.869,0,0,1-.963-1.137,1.83,1.83,0,0,1,.113-1.463,1.869,1.869,0,0,1,1.112-.963,17.164,17.164,0,0,0,5.3-2.737,11.284,11.284,0,0,0,3.35-3.987.969.969,0,0,0,.025-.975q-.25-.375-1.125-.375H-56.4a1.92,1.92,0,0,1-1.375-.55,1.768,1.768,0,0,1-.575-1.325,1.8,1.8,0,0,1,.575-1.35,1.92,1.92,0,0,1,1.375-.55h9.425a6.093,6.093,0,0,1,3.513.862,3.243,3.243,0,0,1,1.425,2.35,6.19,6.19,0,0,1-.687,3.363,15.566,15.566,0,0,1-4.287,5.375A20.518,20.518,0,0,1-53.6,39.15Zm-1.225-16.9a1.806,1.806,0,0,1-1.325-.55,1.806,1.806,0,0,1-.55-1.325,1.806,1.806,0,0,1,.55-1.325,1.806,1.806,0,0,1,1.325-.55h9.8a1.765,1.765,0,0,1,1.312.55,1.827,1.827,0,0,1,.538,1.325,1.827,1.827,0,0,1-.538,1.325,1.765,1.765,0,0,1-1.312.55ZM-18.2,35.025q-3.625,1.4-5.738.45T-26.05,31.3V23.075a1.856,1.856,0,0,1,.563-1.363,1.856,1.856,0,0,1,1.362-.562,1.856,1.856,0,0,1,1.362.563,1.856,1.856,0,0,1,.563,1.363v7.25q0,1.075.563,1.337A2.2,2.2,0,0,0-20,31.525q.625-.225,1.425-.55t1.65-.7q.85-.375,1.575-.7a2.009,2.009,0,0,1,1.475-.088,1.861,1.861,0,0,1,1.125.963,1.964,1.964,0,0,1,.125,1.475,1.734,1.734,0,0,1-.95,1.125q-1.1.525-2.35,1.063T-18.2,35.025Zm-16.55,1.65a1.891,1.891,0,0,1-1.463.063,1.863,1.863,0,0,1-1.112-.987,1.889,1.889,0,0,1-.05-1.475A1.829,1.829,0,0,1-36.4,33.2a8.255,8.255,0,0,0,3.913-3.55,11.657,11.657,0,0,0,1.137-5.4,1.877,1.877,0,0,1,.55-1.363,1.815,1.815,0,0,1,1.35-.562,1.815,1.815,0,0,1,1.35.563,1.877,1.877,0,0,1,.55,1.363,15.28,15.28,0,0,1-1.875,7.712A11.735,11.735,0,0,1-34.75,36.675Zm27.85,2.15a1.835,1.835,0,0,1-1.388-.312,1.734,1.734,0,0,1-.762-1.187,24.672,24.672,0,0,1-.363-3q-.112-1.7-.125-3.588t.087-3.812q.1-1.925.313-3.675t.512-3.15A1.826,1.826,0,0,1-7.8,18.912a1.766,1.766,0,0,1,1.4-.237,1.876,1.876,0,0,1,1.175.813,1.75,1.75,0,0,1,.25,1.413,37.824,37.824,0,0,0-.6,3.812Q-5.8,26.775-5.862,28.9t.05,4.125A29.063,29.063,0,0,0-5.4,36.65a1.872,1.872,0,0,1-.3,1.4A1.806,1.806,0,0,1-6.9,38.825ZM3.3,37.55a8.708,8.708,0,0,1-4.925-1.138,5.319,5.319,0,0,1-2.1-3.637,1.88,1.88,0,0,1,.313-1.413A1.749,1.749,0,0,1-2.2,30.6a1.8,1.8,0,0,1,1.375.312A1.852,1.852,0,0,1-.05,32.125a1.923,1.923,0,0,0,.9,1.3,5.312,5.312,0,0,0,2.6.45,14.16,14.16,0,0,0,2-.15q1.05-.15,2.375-.425a1.7,1.7,0,0,1,1.388.25,1.885,1.885,0,0,1,.813,1.2,1.745,1.745,0,0,1-.275,1.375,2,2,0,0,1-1.175.825,21.965,21.965,0,0,1-2.763.462A25.156,25.156,0,0,1,3.3,37.55Zm-4.4-12.5a1.865,1.865,0,0,1-1.387-.3,1.781,1.781,0,0,1-.788-1.175A1.817,1.817,0,0,1-3,22.175,1.682,1.682,0,0,1-1.825,21.4a24.059,24.059,0,0,1,3.25-.4,33.121,33.121,0,0,1,3.4-.025,25.436,25.436,0,0,1,3.025.3,1.6,1.6,0,0,1,1.175.75,1.9,1.9,0,0,1,.3,1.4,1.682,1.682,0,0,1-.763,1.213,1.9,1.9,0,0,1-1.387.287,23.034,23.034,0,0,0-4.1-.3A22.575,22.575,0,0,0-1.1,25.05ZM21.75,39.825a1.266,1.266,0,0,1-.987-.4,1.442,1.442,0,0,1,0-1.912,1.287,1.287,0,0,1,.987-.388h5.425V36.55h-4.45a1.128,1.128,0,0,1-.887-.35,1.2,1.2,0,0,1-.312-.825,1.231,1.231,0,0,1,.313-.85,1.128,1.128,0,0,1,.887-.35h4.45V33.6h-1.25a6.243,6.243,0,0,1-2.187-.312,2,2,0,0,1-1.162-1.162,6.605,6.605,0,0,1-.35-2.425,6.5,6.5,0,0,1,.35-2.413,2.046,2.046,0,0,1,1.162-1.162,6.023,6.023,0,0,1,2.188-.325H31.55a6.023,6.023,0,0,1,2.188.325,2.091,2.091,0,0,1,1.175,1.162,6.3,6.3,0,0,1,.363,2.413,6.4,6.4,0,0,1-.363,2.425,2.042,2.042,0,0,1-1.175,1.162,6.243,6.243,0,0,1-2.188.313H30.3v.575h4.375a1.128,1.128,0,0,1,.887.35,1.231,1.231,0,0,1,.313.85,1.2,1.2,0,0,1-.312.825,1.128,1.128,0,0,1-.887.35H30.3v.575h5.325a1.278,1.278,0,0,1,1,.388,1.481,1.481,0,0,1,0,1.912,1.258,1.258,0,0,1-1,.4ZM17.4,36.8a6.374,6.374,0,0,1-2.287-.325A1.894,1.894,0,0,1,14,35.412a5.475,5.475,0,0,1-.3-2.012V21.525A5.579,5.579,0,0,1,14,19.5a1.848,1.848,0,0,1,1.113-1.062,6.608,6.608,0,0,1,2.287-.312,6.591,6.591,0,0,1,2.3.313A1.849,1.849,0,0,1,20.8,19.5a5.579,5.579,0,0,1,.3,2.025V33.4a5.475,5.475,0,0,1-.3,2.012,1.9,1.9,0,0,1-1.1,1.063A6.357,6.357,0,0,1,17.4,36.8Zm5.225-11.575a1.208,1.208,0,0,1-.962-.388,1.378,1.378,0,0,1-.337-.937,1.332,1.332,0,0,1,.337-.925,1.228,1.228,0,0,1,.962-.375h1.9a1.3,1.3,0,0,0-.05-.162.307.307,0,0,1-.025-.113,1.169,1.169,0,0,1,.025-1.025h-1.4a1.208,1.208,0,0,1-.962-.388,1.378,1.378,0,0,1-.337-.937,1.332,1.332,0,0,1,.337-.925,1.228,1.228,0,0,1,.962-.375H27.1V18.1a1.446,1.446,0,0,1,.462-1.137,1.682,1.682,0,0,1,1.163-.413,1.717,1.717,0,0,1,1.188.413,1.446,1.446,0,0,1,.462,1.137v.575h4.1a1.228,1.228,0,0,1,.962.375,1.332,1.332,0,0,1,.338.925,1.378,1.378,0,0,1-.338.937,1.208,1.208,0,0,1-.962.388h-1.45a1.169,1.169,0,0,1,.025,1.025.307.307,0,0,1-.025.113,1.3,1.3,0,0,0-.05.162H35.4a1.228,1.228,0,0,1,.963.375,1.332,1.332,0,0,1,.337.925,1.378,1.378,0,0,1-.337.937,1.208,1.208,0,0,1-.963.388ZM27.75,22.6h2q.1-.325.212-.663a3.7,3.7,0,0,0,.138-.487.2.2,0,0,0,.025-.087.085.085,0,0,1,.025-.062h-2.8a.384.384,0,0,1,.05.15q.05.15.15.487T27.75,22.6ZM17.4,33.775a.732.732,0,0,0,.5-.138.817.817,0,0,0,.15-.588V31.525H16.775V33.05a.817.817,0,0,0,.15.588A.688.688,0,0,0,17.4,33.775ZM16.775,28.4H18.05V26.275H16.775Zm0-5.25H18.05V21.875a.817.817,0,0,0-.15-.587.732.732,0,0,0-.5-.138.688.688,0,0,0-.475.138.817.817,0,0,0-.15.587ZM30.3,28.775H32a.8.8,0,0,0-.3-.65,1.9,1.9,0,0,0-.9-.15h-.5Zm-4.825,0h1.7v-.8h-.5a1.824,1.824,0,0,0-.875.15A.863.863,0,0,0,25.475,28.775Zm1.2,2.65h.5V30.65h-1.7a.818.818,0,0,0,.325.638A1.969,1.969,0,0,0,26.675,31.425Zm3.625,0h.5a1.969,1.969,0,0,0,.875-.137A.818.818,0,0,0,32,30.65H30.3Zm25.2,8.1q-6.325.9-9.35-.338a4.244,4.244,0,0,1-3.025-4.112,5.387,5.387,0,0,1,1.438-3.588,11.787,11.787,0,0,1,4.388-2.912,1.269,1.269,0,0,0-.8-.425,3.115,3.115,0,0,0-2.175.45,11.025,11.025,0,0,0-2.125,1.825,1.985,1.985,0,0,1-1.375.6,1.658,1.658,0,0,1-1.825-1.85,1.909,1.909,0,0,1,.625-1.275,16.518,16.518,0,0,0,1.95-2.038A15.737,15.737,0,0,0,44.7,23.675q-.9.025-1.675.025h-1.35a1.876,1.876,0,0,1-1.312-.562,1.7,1.7,0,0,1-.513-1.313,1.815,1.815,0,0,1,1.9-1.775q.9.025,2.037.013t2.363-.038q.075-.35.15-.713t.125-.687a1.97,1.97,0,0,1,.7-1.25,1.77,1.77,0,0,1,1.35-.4,1.879,1.879,0,0,1,1.263.7,1.7,1.7,0,0,1,.388,1.35l-.15.825q.725-.05,1.375-.113l1.175-.112a1.819,1.819,0,0,1,1.375.35,1.857,1.857,0,0,1,.338,2.587A1.718,1.718,0,0,1,53,23.225q-.85.1-1.963.175t-2.287.125q-.375.8-.8,1.6a4.346,4.346,0,0,1,.737.013,6.677,6.677,0,0,1,.713.112,4.721,4.721,0,0,1,1.688.688,4.526,4.526,0,0,1,1.362,1.438q1.175-.325,2.475-.6t2.75-.5a1.725,1.725,0,0,1,1.387.35,1.817,1.817,0,0,1,.713,1.25,1.725,1.725,0,0,1-.35,1.387,1.8,1.8,0,0,1-1.225.712q-1.325.175-2.462.375t-2.113.4q.1.625.15,1.35t.05,1.525a1.835,1.835,0,0,1-1.85,1.85,1.827,1.827,0,0,1-1.325-.537,1.765,1.765,0,0,1-.55-1.312q0-.975-.075-1.75A6.959,6.959,0,0,0,47.55,33.4a2.341,2.341,0,0,0-.725,1.525.973.973,0,0,0,.35.725,2.447,2.447,0,0,0,1.237.475,13.322,13.322,0,0,0,2.488.1q1.6-.05,4.1-.375a1.725,1.725,0,0,1,1.388.35,1.857,1.857,0,0,1,.35,2.6A1.882,1.882,0,0,1,55.5,39.525Zm30.575.225a1.866,1.866,0,0,1-1.362.275A1.5,1.5,0,0,1,83.6,39.2a3.473,3.473,0,0,1-.162-.312,2.288,2.288,0,0,0-.212-.362q-.925.15-2.213.313l-2.687.337q-1.4.175-2.687.3t-2.212.2a1.909,1.909,0,0,1-1.312-.337A1.669,1.669,0,0,1,71.5,38.15a1.494,1.494,0,0,1,.387-1.225,1.715,1.715,0,0,1,1.188-.55q.725-.05,1.738-.138l2.137-.187V33.325h-.625a6.852,6.852,0,0,1-2.425-.35A2.268,2.268,0,0,1,72.613,31.8a5.379,5.379,0,0,1-.388-2.25,3.906,3.906,0,0,1,.912-2.975,4.769,4.769,0,0,1,3.188-.825h.625V24.475l-2.037.237q-.963.113-1.612.163a1.626,1.626,0,0,1-1.225-.362A1.554,1.554,0,0,1,71.55,23.4a1.518,1.518,0,0,1,1.5-1.65l.512-.05q.262-.025.563-.05.125-.35.313-.913t.4-1.163q.213-.6.375-1.075t.213-.65a1.675,1.675,0,0,1,.962-1.15,1.949,1.949,0,0,1,1.438-.05,1.673,1.673,0,0,1,1.025.9,1.6,1.6,0,0,1,.025,1.325q-.125.3-.463,1.013T77.75,21.3q.8-.1,1.6-.187l1.5-.163q-.1-.15-.2-.288a1.994,1.994,0,0,0-.2-.237,1.419,1.419,0,0,1-.3-1.15,1.61,1.61,0,0,1,.6-1.05,1.725,1.725,0,0,1,1.137-.363,1.557,1.557,0,0,1,1.138.513q.275.325.7.837t.888,1.1q.462.588.862,1.125t.65.887a1.516,1.516,0,0,1,.25,1.288A1.848,1.848,0,0,1,85.55,24.7a1.6,1.6,0,0,1-1.275.262,1.574,1.574,0,0,1-1.075-.737q-.075-.125-.15-.238t-.175-.237q-.525.075-1.162.15t-1.338.175V25.75H81.1a4.763,4.763,0,0,1,3.2.825,3.941,3.941,0,0,1,.9,2.975,5.025,5.025,0,0,1-.462,2.375A2.476,2.476,0,0,1,83.175,33.1a2.048,2.048,0,0,1,.55.188,1.312,1.312,0,0,1,.475.413q.35.425.838,1.15T86,36.287q.475.713.7,1.113a1.567,1.567,0,0,1,.213,1.3A1.806,1.806,0,0,1,86.075,39.75Zm-20,.3a2.139,2.139,0,0,1-1.4-.45,1.781,1.781,0,0,1,1-3.125,5.427,5.427,0,0,0,1.063-.187.775.775,0,0,0,.475-.387,3.19,3.19,0,0,0,.237-.775q.1-.55.2-1.338t.125-1.512a2.1,2.1,0,0,0-.187-1.288q-.237-.287-1.213-.288a3.486,3.486,0,0,1-1.537-.3,1.748,1.748,0,0,1-.875-1.075,5.294,5.294,0,0,1-.113-2.175q.05-.425.088-.8T64,25.625a3.45,3.45,0,0,1,.8-2.213,2.71,2.71,0,0,1,1.925-.612,1.8,1.8,0,0,0,.863-.163A.667.667,0,0,0,67.875,22v-.4a.837.837,0,0,0-.2-.663,1.3,1.3,0,0,0-.775-.163H64.8a1.469,1.469,0,0,1-1.175-.463,1.61,1.61,0,0,1-.4-1.087,1.563,1.563,0,0,1,.4-1.075A1.49,1.49,0,0,1,64.8,17.7h3.1a3.906,3.906,0,0,1,2.65.725,3.22,3.22,0,0,1,.8,2.475v1.55a3.327,3.327,0,0,1-.713,2.438,3.127,3.127,0,0,1-2.237.688,1.96,1.96,0,0,0-.888.137.7.7,0,0,0-.287.563,2.655,2.655,0,0,0-.025.375.834.834,0,0,0,.188.688,1.436,1.436,0,0,0,.888.188,3.223,3.223,0,0,1,2.425.75,3.463,3.463,0,0,1,.65,2.5q-.025,1.5-.15,2.875t-.325,2.475A5.6,5.6,0,0,1,70,38.513a3.253,3.253,0,0,1-1.6,1.2A7.131,7.131,0,0,1,66.075,40.05Zm14.3-9.625h.575a1.068,1.068,0,0,0,.713-.175.965.965,0,0,0,.187-.7.731.731,0,0,0-.9-.9h-.575Zm-3.95,0h.525V28.65h-.525a.965.965,0,0,0-.7.188,1.068,1.068,0,0,0-.175.712.7.7,0,0,0,.875.875Zm3.95,5.3L81.45,35.6l-.075-.075a1.492,1.492,0,0,1-.2-1.187,1.459,1.459,0,0,1,.7-.963.2.2,0,0,1,.05-.037.2.2,0,0,0,.05-.038,3.43,3.43,0,0,1-.425.025H80.375Zm27.3,4.325a1.919,1.919,0,0,1-1.363-.4,1.9,1.9,0,0,1-.613-1.15,1.759,1.759,0,0,1,.213-1.25,1.463,1.463,0,0,1,1.088-.7,1.354,1.354,0,0,0,.713-.275,1.071,1.071,0,0,0,.162-.7v-7.5a1.268,1.268,0,0,1-1,.425H101.65a1.287,1.287,0,0,1-.95-.375q-.025,3.3-.275,6.025a21.164,21.164,0,0,1-.875,4.625,1.549,1.549,0,0,1-.825.962,1.662,1.662,0,0,1-1.275.112,1.586,1.586,0,0,1-.912-.762,1.392,1.392,0,0,1-.112-1.163,23.65,23.65,0,0,0,.962-4.85,59.481,59.481,0,0,0,.288-6.1v-5.35a5.9,5.9,0,0,1,.4-2.388,2.413,2.413,0,0,1,1.388-1.275,7.73,7.73,0,0,1,2.737-.388h4.25a7.838,7.838,0,0,1,2.75.388,2.461,2.461,0,0,1,1.413,1.275,5.742,5.742,0,0,1,.412,2.388v14.8a3.628,3.628,0,0,1-.863,2.663A3.707,3.707,0,0,1,107.675,40.05ZM92.85,39.425a5.615,5.615,0,0,1-2.2-.35A2.009,2.009,0,0,1,89.537,37.9a6.534,6.534,0,0,1-.312-2.25,6.72,6.72,0,0,1,.313-2.3A1.921,1.921,0,0,1,90.65,32.2a6,6,0,0,1,2.2-.325,5.9,5.9,0,0,1,2.188.325,1.924,1.924,0,0,1,1.1,1.15,6.72,6.72,0,0,1,.313,2.3,6.534,6.534,0,0,1-.312,2.25,2.013,2.013,0,0,1-1.1,1.175A5.519,5.519,0,0,1,92.85,39.425Zm11.3-3.35a5.474,5.474,0,0,1-1.863-.25,1.5,1.5,0,0,1-.912-.987,7.229,7.229,0,0,1-.25-2.187,7.1,7.1,0,0,1,.25-2.175,1.5,1.5,0,0,1,.912-.975,5.474,5.474,0,0,1,1.863-.25,5.361,5.361,0,0,1,1.85.25,1.542,1.542,0,0,1,.912.975,6.781,6.781,0,0,1,.263,2.175,6.9,6.9,0,0,1-.263,2.188,1.544,1.544,0,0,1-.912.987A5.361,5.361,0,0,1,104.15,36.075ZM89.2,23.9a1.306,1.306,0,0,1-1-.4,1.455,1.455,0,0,1,0-1.95,1.306,1.306,0,0,1,1-.4h7.05a1.3,1.3,0,0,1,1.012.4,1.492,1.492,0,0,1,0,1.95,1.3,1.3,0,0,1-1.012.4Zm1.275-3.55a1.356,1.356,0,0,1-1.037-.412,1.5,1.5,0,0,1,0-2.013,1.335,1.335,0,0,1,1.037-.425H95.2a1.327,1.327,0,0,1,1.05.425,1.538,1.538,0,0,1,0,2.013,1.347,1.347,0,0,1-1.05.412Zm-.05,7.15a1.316,1.316,0,0,1-1.025-.413,1.488,1.488,0,0,1,0-1.975,1.316,1.316,0,0,1,1.025-.412H95.25a1.277,1.277,0,0,1,1.012.412,1.526,1.526,0,0,1,0,1.975,1.277,1.277,0,0,1-1.012.413Zm0,3.575a1.316,1.316,0,0,1-1.025-.413,1.417,1.417,0,0,1-.375-.988A1.373,1.373,0,0,1,89.4,28.7a1.337,1.337,0,0,1,1.025-.4H95.25a1.3,1.3,0,0,1,1.012.4,1.4,1.4,0,0,1,.363.975,1.445,1.445,0,0,1-.363.988,1.277,1.277,0,0,1-1.012.413Zm17.45-4.8V21.8a1.511,1.511,0,0,0-.338-1.163,2.017,2.017,0,0,0-1.262-.288H102.25a1.9,1.9,0,0,0-1.238.288A1.591,1.591,0,0,0,100.7,21.8v4.45a1.237,1.237,0,0,1,.95-.375h1.15v-.95h-.625a1.228,1.228,0,0,1-.963-.375,1.436,1.436,0,0,1,0-1.85,1.228,1.228,0,0,1,.963-.375h.625V21.85a1.356,1.356,0,0,1,.412-1.038,1.5,1.5,0,0,1,2.012,0,1.335,1.335,0,0,1,.425,1.038v.475h.775a1.228,1.228,0,0,1,.962.375,1.436,1.436,0,0,1,0,1.85,1.228,1.228,0,0,1-.962.375h-.775v.95h1.225A1.258,1.258,0,0,1,107.875,26.275ZM92.85,36.65a.6.6,0,0,0,.525-.187,2.744,2.744,0,0,0,0-1.638.618.618,0,0,0-.525-.175.659.659,0,0,0-.537.175,2.506,2.506,0,0,0,0,1.638A.633.633,0,0,0,92.85,36.65Zm11.3-3.175a.549.549,0,0,0,.438-.137,1.286,1.286,0,0,0,.112-.687,1.211,1.211,0,0,0-.112-.675.828.828,0,0,0-.875,0,1.21,1.21,0,0,0-.112.675,1.286,1.286,0,0,0,.112.688A.549.549,0,0,0,104.15,33.475ZM125,39.75a1,1,0,0,1-.7-.312,6.181,6.181,0,0,1-.675-.787,3.18,3.18,0,0,0-.35-.463q-.25-.287-.6-.662-.85-1-2.187-2.613a37.66,37.66,0,0,1-2.588-3.537q-3.025-4.775-3.025-8.45a5.08,5.08,0,0,1,1.675-3.8,5.36,5.36,0,0,1,3.825-1.55,5.062,5.062,0,0,1,2.775.763A4.905,4.905,0,0,1,125,20.575a4.905,4.905,0,0,1,1.85-2.237,5.062,5.062,0,0,1,2.775-.763,5.361,5.361,0,0,1,3.925,1.65,5.064,5.064,0,0,1,1.575,3.7q0,3.675-3.025,8.45a34.782,34.782,0,0,1-2.562,3.537q-1.338,1.613-2.213,2.613l-.575.662q-.25.287-.375.463a6.181,6.181,0,0,1-.675.787A1,1,0,0,1,125,39.75Zm0-1.075q.05-.05.175-.2t.35-.45q.15-.2.4-.488l.6-.687q.675-.775,1.638-1.925t1.987-2.562a30.95,30.95,0,0,0,1.913-2.987,19.332,19.332,0,0,0,1.45-3.213,9.92,9.92,0,0,0,.563-3.237,4.145,4.145,0,0,0-1.25-2.95,4.373,4.373,0,0,0-3.2-1.35,3.972,3.972,0,0,0-2.213.625,4.029,4.029,0,0,0-1.487,1.825,2.209,2.209,0,0,1-.3.513.735.735,0,0,1-.625.262.7.7,0,0,1-.613-.262,3.846,3.846,0,0,1-.312-.513,4.029,4.029,0,0,0-1.487-1.825,3.972,3.972,0,0,0-2.213-.625,4.373,4.373,0,0,0-3.2,1.35,4.145,4.145,0,0,0-1.25,2.95,9.92,9.92,0,0,0,.563,3.237,19.332,19.332,0,0,0,1.45,3.213,30.951,30.951,0,0,0,1.912,2.987q1.025,1.413,1.988,2.563t1.637,1.925l.6.688q.25.288.4.488.225.3.35.45T125,38.675Z" transform="translate(261.879 650.129)" fill="#b49778"/>
    <path id="パス_9827" data-name="パス 9827" d="M70.524,26.153c0-4.516-3.276-8.176-7.317-8.176a6.889,6.889,0,0,0-4.927,2.131,6.9,6.9,0,0,0-4.929-2.131c-4.039,0-7.315,3.66-7.315,8.176a8.654,8.654,0,0,0,3.384,6.9l.032.021c.249.175.249.175,8.828,6.432,8.576-6.257,8.576-6.257,8.825-6.432l.019-.011.013-.011h0l1.012-.792a8.441,8.441,0,0,0,2.375-6.1" transform="translate(-68.862 614.052)" fill="#b49778"/>
    <path id="パス_9828" data-name="パス 9828" d="M62.145,23.355a5.119,5.119,0,0,0-4.814-5.378,4.532,4.532,0,0,0-3.241,1.4,4.536,4.536,0,0,0-3.243-1.4,5.119,5.119,0,0,0-4.812,5.378,5.693,5.693,0,0,0,2.226,4.536l.021.014c.164.115.164.115,5.807,4.231,5.642-4.116,5.642-4.116,5.805-4.231l.012-.007.009-.007h0l.666-.521a5.553,5.553,0,0,0,1.562-4.015" transform="translate(463.576 637.808)" fill="#b49778"/>
    <path id="パス_9781" data-name="パス 9781" d="M28.491-.646a7.344,7.344,0,0,1,4.68,1.706,7.344,7.344,0,0,1,4.68-1.706,7.417,7.417,0,0,1,5.526,2.509,8.8,8.8,0,0,1,2.244,5.946,8.616,8.616,0,0,1-2.571,6.348l-.405.313-.091.07.017.046L42,14.958c-.218.152-.507.36-8.349,5.992l-.483.347-.483-.347c-7.843-5.633-8.131-5.84-8.349-5.992l-.906-.536.123-.119a8.993,8.993,0,0,1-1.855-2.44,8.727,8.727,0,0,1-.977-4.055,8.8,8.8,0,0,1,2.244-5.946A7.417,7.417,0,0,1,28.491-.646Zm4.68,3.957-.585-.587a5.775,5.775,0,0,0-4.1-1.754c-3.38,0-6.13,3.067-6.13,6.84a7.221,7.221,0,0,0,2.878,5.8l.023.016c.237.165.241.168,7.913,5.677,7.668-5.508,7.674-5.512,7.913-5.677l.031-.021.006,0,.92-.711a7.1,7.1,0,0,0,1.943-5.077c0-3.772-2.75-6.84-6.13-6.84a5.775,5.775,0,0,0-4.1,1.754Z" transform="translate(504.998 635.955)" fill="#b49778"/>
    <path id="パス_9781-2" data-name="パス 9781" d="M26.078-.646A5.063,5.063,0,0,1,29.3.53,5.063,5.063,0,0,1,32.531-.646a5.113,5.113,0,0,1,3.809,1.73,6.067,6.067,0,0,1,1.547,4.1,5.939,5.939,0,0,1-1.773,4.376l-.28.216-.063.048.011.032-.391.257c-.15.1-.35.248-5.756,4.131l-.333.239-.333-.239c-5.406-3.883-5.606-4.026-5.756-4.131l-.625-.369.085-.082A6.2,6.2,0,0,1,21.4,7.978a6.016,6.016,0,0,1-.674-2.8,6.067,6.067,0,0,1,1.547-4.1A5.113,5.113,0,0,1,26.078-.646ZM29.3,2.082l-.4-.4A3.981,3.981,0,0,0,26.078.467a4.5,4.5,0,0,0-4.226,4.715,4.978,4.978,0,0,0,1.984,4l.016.011c.163.114.166.116,5.455,3.913,5.286-3.8,5.29-3.8,5.455-3.913l.021-.014,0,0,.634-.49a4.895,4.895,0,0,0,1.34-3.5A4.5,4.5,0,0,0,32.534.467a3.981,3.981,0,0,0-2.823,1.209Z" transform="translate(-23.743 655.464)" fill="#b49778"/>
  </g>
</svg>
