<svg xmlns="http://www.w3.org/2000/svg" xmlns:xlink="http://www.w3.org/1999/xlink" width="400" height="125" viewBox="0 0 400 125">
  <defs>
    <clipPath id="clip-path">
      <rect id="長方形_1215" data-name="長方形 1215" width="400" height="125" transform="translate(484 1633)" fill="#fff"/>
    </clipPath>
  </defs>
  <g id="マスクグループ_2689" data-name="マスクグループ 2689" transform="translate(-484 -1633)" clip-path="url(#clip-path)">
    <g id="グループ_3739" data-name="グループ 3739" transform="translate(429 1633)">
      <ellipse id="楕円形_64" data-name="楕円形 64" cx="254.5" cy="125" rx="254.5" ry="125" fill="#e9e0d6"/>
      <g id="レイヤー_1" data-name="レイヤー 1" transform="translate(33.01 -513.764)">
        <path id="パス_10322" data-name="パス 10322" d="M97,577.223l-9.7,2.562a4.278,4.278,0,0,1-5.326-3.253l-4.52-17.014a4.211,4.211,0,0,1,2.936-5.124,4.257,4.257,0,0,1,5.1,3.023l3.8,14.394c2.936-.777,8.9-3.714,10.191,1.094A3.593,3.593,0,0,1,97,577.223Z" transform="translate(21.273 9.238)" fill="#966948"/>
        <path id="パス_10323" data-name="パス 10323" d="M101.325,578.332c-7.14,1.3-14.567-3.455-15.862-10.738-1.324-7.312,3.973-14.279,11.141-15.574,7.2-1.3,14.538,3.426,15.862,10.709s-3.944,14.308-11.112,15.6Zm-3.455-19.173c-3.311.6-4.923,3.829-4.347,6.967.547,3.109,3.2,5.643,6.477,5.067a5.773,5.773,0,0,0,4.4-6.967c-.547-3.109-3.282-5.643-6.535-5.038Z" transform="translate(36.204 4.618)" fill="#966948"/>
        <path id="パス_10324" data-name="パス 10324" d="M111.409,576.823c-7.226.72-14.221-4.606-14.97-11.976-.72-7.37,5.1-13.934,12.35-14.625,7.255-.72,14.221,4.578,14.941,11.947a13.741,13.741,0,0,1-12.321,14.682Zm-1.9-19.375c-3.339.317-5.211,3.426-4.894,6.592.317,3.138,2.735,5.873,6.046,5.556s5.268-3.426,4.952-6.592c-.317-3.138-2.821-5.873-6.132-5.556Z" transform="translate(57.096 1.52)" fill="#966948"/>
        <path id="パス_10325" data-name="パス 10325" d="M127.809,575.723a4.032,4.032,0,0,1-3.109-1.209l-8.435-9.385c.144,3.2,2.044,11.112-3.6,11.372a4.24,4.24,0,0,1-4.318-4.059l-.835-18.223a4.211,4.211,0,0,1,4-4.318c5.067-.23,4.347,5.959,4.491,9.155,1.871-2.246,6.161-9.529,9.817-9.7a4.1,4.1,0,0,1,4.347,4.059c.144,3.253-4.462,6.391-6.3,8.349,1.871,1.871,7.83,6.391,7.974,9.673a4.142,4.142,0,0,1-4.03,4.318Z" transform="translate(78.006 0)" fill="#966948"/>
        <path id="パス_10326" data-name="パス 10326" d="M142.854,576.33c-2.648-.086-3.483-2.1-4.117-4.289l-8.694-.317c-.835,2.073-1.842,4.088-4.433,4a4.128,4.128,0,0,1-4.088-4.117c.144-3.829,5.614-14.02,7.255-17.878a6.555,6.555,0,0,1,12.465.432c1.353,3.944,6.1,14.509,5.959,18.338a4.134,4.134,0,0,1-4.347,3.829Zm-7.974-18.6-2.188,6.88,3.858.144-1.67-7Z" transform="translate(104.33 0.113)" fill="#966948"/>
        <path id="パス_10327" data-name="パス 10327" d="M145.243,557.837l-1.152,14.97a4.089,4.089,0,1,1-8.147-.72l1.152-14.97c-2.764-.2-6.333-.2-6.046-4.088a3.562,3.562,0,0,1,3.8-3.253l13.962,1.065a3.639,3.639,0,0,1,3.253,3.944c-.288,3.858-4.174,3.224-6.794,3.023Z" transform="translate(122.207 0.786)" fill="#966948"/>
        <path id="パス_10328" data-name="パス 10328" d="M154.608,578.784c-7.283-1.209-11.8-6.449-10.565-13.9L145.77,554.6a4.185,4.185,0,0,1,4.808-3.512c9.212,1.555-4.606,19,5.268,20.67,9.73,1.641,2.418-19.375,11.659-17.82a4.256,4.256,0,0,1,3.4,4.894l-1.727,10.277c-1.238,7.456-7.312,10.911-14.538,9.7Z" transform="translate(146.266 3.158)" fill="#966948"/>
        <path id="パス_10329" data-name="パス 10329" d="M162.505,579.6c-3.311-.864-9.7-3.2-8.521-7.744a3.43,3.43,0,0,1,3.944-2.591c2.447.662,4.433,2.735,6.909,3.4a3.972,3.972,0,0,0,1.929-.029l.461-.518-.2-.691c-4.2-2.994-11.544-4.836-9.73-11.659,1.526-5.758,7.946-6.967,12.984-5.643,3.052.806,7.8,3.138,6.765,7.024a3.337,3.337,0,0,1-4.146,2.447c-2.1-.547-3.656-2.39-5.729-2.936a3.664,3.664,0,0,0-1.382-.087l-.461.518.115.432c3.915,3.656,12.091,4.577,10.047,12.206-1.526,5.758-7.946,7.168-13.012,5.815Z" transform="translate(165.055 8.046)" fill="#966948"/>
        <path id="パス_10330" data-name="パス 10330" d="M83.321,563.5c0-3.2-2.332-5.786-5.182-5.786a4.9,4.9,0,0,0-3.483,1.5,4.788,4.788,0,0,0-3.483-1.5c-2.85,0-5.182,2.591-5.182,5.786a6.04,6.04,0,0,0,2.389,4.865h0c.173.144,6.247,4.578,6.247,4.578s6.074-4.433,6.247-4.549h0a6.082,6.082,0,0,0,2.389-4.865" transform="translate(0 15.71)" fill="#966948"/>
        <path id="パス_10331" data-name="パス 10331" d="M185.331,563.5c0-3.2-2.332-5.786-5.182-5.786a4.9,4.9,0,0,0-3.483,1.5,4.788,4.788,0,0,0-3.483-1.5c-2.85,0-5.182,2.591-5.182,5.786a6.04,6.04,0,0,0,2.389,4.865h0c.173.144,6.247,4.578,6.247,4.578s6.074-4.433,6.247-4.549h0a6.082,6.082,0,0,0,2.389-4.865" transform="translate(191.659 15.71)" fill="#966948"/>
      </g>
    </g>
  </g>
</svg>
