<svg xmlns="http://www.w3.org/2000/svg" width="212.901" height="42.595" viewBox="0 0 212.901 42.595">
  <g id="グループ_3881" data-name="グループ 3881" transform="translate(74.043 -39.454)">
    <path id="パス_10333" data-name="パス 10333" d="M13.5-27.885,10.7-20.1H5.02L3.62-16.42H9.377L7.7-11.742H2.258L.858-8.061H6.343L3.542-.277H7.627l2.84-7.784H15.29l-2.8,7.784h4.085l2.8-7.784H24.9l1.362-3.681H20.7L22.37-16.42h5.29l1.4-3.681H23.692l2.8-7.784H22.448L19.608-20.1H14.784l2.8-7.784ZM13.384-16.42h4.979L16.69-11.742H11.672ZM33.923-.353C36.607-.43,38.9-.468,40.77-.468c1.439,0,3.734.038,6.846.115V-1.887c-2.956-.115-3.7-.959-3.7-3.758V-21.213c0-2.454.817-3.413,3.268-3.413h.428V-26.2c-2.412.077-4.707.115-6.846.115-2.023,0-4.318-.038-6.846-.115v1.572h.389c2.84,0,3.307.805,3.307,3.413V-5.645c0,2.953-.467,3.681-3.7,3.758ZM67.144.03a42.527,42.527,0,0,1,7.43-1.5V-2.807c-1.828-.038-2.606-.422-2.606-1.61V-27.732A38.686,38.686,0,0,1,63.643-26.7v1.38c2.412.115,3,.383,3,2.032v7.746A7.227,7.227,0,0,0,61.115-17.8c-4.629,0-8.247,3.719-8.247,8.934,0,5.445,3.112,8.9,8.013,8.9a6.411,6.411,0,0,0,5.835-3.106ZM66.522-11.4v4.1c0,2.991-1.478,4.563-4.046,4.563-2.451,0-3.7-2.071-3.7-6.135,0-4.256,1.478-6.442,4.046-6.442C65.16-15.308,66.522-13.927,66.522-11.4Zm12.1,2.607c0,5.138,3.968,8.858,9.531,8.858,5.874,0,9.8-3.681,9.8-9.164,0-5.023-3.89-8.666-9.453-8.666C82.588-17.762,78.62-13.966,78.62-8.789Zm5.874.077c0-5.062,1.128-7.439,3.89-7.439,2.606,0,3.734,2.3,3.734,7.017,0,5.177-.973,7.592-3.773,7.592C85.349-1.542,84.494-3.8,84.494-8.712ZM102.349-.353a25.418,25.418,0,0,1,3.034-.115h3.773c1.323,0,2.567,0,3.773.115V-1.772c-1.906-.077-2.606-.537-2.606-2.071V-27.732a31.036,31.036,0,0,1-7.78,1.5v1.38c1.673.115,2.412.422,2.412,1.419V-3.843c0,1.572-.311,1.917-2.606,2.071Zm15.093,0c1.945-.115,3.657-.115,5.135-.115q2.159,0,8.636.115v-1.61h-.195c-2.762,0-3.618-.805-3.618-3.489v-6.6c.156,0,.272-.038.389-.038,1.478,0,2.256,1.035,3.54,2.876l6.263,8.858c.973-.077,1.984-.077,3-.077,2.412,0,4.085.038,4.979.115V-1.734a5.325,5.325,0,0,1-3.618-2.531l-3.773-5.215c-1.439-1.956-2.373-3.336-3.462-3.8,4.2-.69,6.5-3.068,6.5-6.48,0-4.525-3.5-6.519-10.7-6.519-2.879,0-5.524.115-8.013.115-1.362,0-3.034,0-5.057-.077V-24.7c3.345.038,4.007.614,4.007,3.144V-5.683c0,2.953-.739,3.719-4.007,3.719ZM127.4-13.812v-9.2c0-1.265.311-1.5,1.751-1.5,3.734,0,5.485,1.61,5.485,5.407,0,3.681-1.867,5.33-5.913,5.33C128.334-13.774,127.868-13.774,127.4-13.812ZM148.212-.353c1.712-.077,3.579-.115,5.563-.115.778,0,2.373.038,4.863.115V-1.81c-2.062-.115-2.451-.422-2.451-2.032V-17.877H155.6a36,36,0,0,1-7.391,1.342v1.342c1.984.077,2.451.46,2.451,2.3v9.049c0,1.572-.35,1.917-2.451,2.032ZM150.235-24.7a2.934,2.934,0,0,0,2.956,2.914,2.934,2.934,0,0,0,2.956-2.914,2.91,2.91,0,0,0-2.956-2.914A2.91,2.91,0,0,0,150.235-24.7ZM163.111-.353c1.673-.077,3.229-.115,4.707-.115,1.323,0,3.112.038,5.407.115v-1.38c-1.867-.038-2.3-.614-2.3-2.377v-5.982c0-3.029,1.556-4.87,3.773-4.87,1.556,0,2.334,1.112,2.334,3.3v7.746c0,1.726-.389,2.186-2.217,2.186v1.38c1.867-.077,3.5-.115,4.863-.115,1.595,0,3.268.038,5.057.115v-1.38c-2.14-.153-2.3-.5-2.3-2.186v-7.746c0-4.065-1.867-6.1-5.485-6.1a7.868,7.868,0,0,0-6.341,3.374l-.233-3.374h-.661a27.418,27.418,0,0,1-6.613,1.342V-15c1.945,0,2.412.5,2.412,2.531v8.551c0,1.649-.194,1.994-2.412,2.186Zm30.537-5.905c-2.334.652-3.618,2.186-3.618,4.18a3.755,3.755,0,0,0,2.606,3.643c1.556.537,3.773.575,6.769.575,2.762,0,4.123.882,4.123,2.607,0,2.109-2.3,3.719-5.835,3.719-3.345,0-5.174-1.189-5.174-2.991a1.593,1.593,0,0,1,1.206-1.534A2.117,2.117,0,0,0,191.7,2.753a2.664,2.664,0,0,0-2.49,2.838c0,2.684,2.879,4.525,8.208,4.525,6.38,0,9.764-2.416,9.764-6.71,0-4.486-2.879-5.828-9.142-5.982-2.84-.077-4.123.115-4.123-1.38,0-1.15,1.128-1.5,3.073-1.649,5.524-.383,8.091-1.994,8.091-6.02a5.436,5.436,0,0,0-1.4-3.758,1.754,1.754,0,0,1,.895-.383c1.011,0,1.517,1.419,2.567,1.419a1.537,1.537,0,0,0,1.712-1.457c0-1.534-.817-2.339-2.49-2.339a5.844,5.844,0,0,0-3.773,1.687,9.539,9.539,0,0,0-5.057-1.3c-4.707,0-7.663,2.607-7.663,6.135A5.41,5.41,0,0,0,193.648-6.258Zm1.478-5.483c0-3.068.661-4.64,2.412-4.64,1.828,0,2.3,1.61,2.3,4.716,0,3.068-.311,4.486-2.412,4.486C195.593-7.179,195.126-8.674,195.126-11.742Z" transform="translate(-72 69.934)" fill="#fff" stroke="#e8aeb8" stroke-width="4"/>
    <path id="パス_10332" data-name="パス 10332" d="M13.5-27.885,10.7-20.1H5.02L3.62-16.42H9.377L7.7-11.742H2.258L.858-8.061H6.343L3.542-.277H7.627l2.84-7.784H15.29l-2.8,7.784h4.085l2.8-7.784H24.9l1.362-3.681H20.7L22.37-16.42h5.29l1.4-3.681H23.692l2.8-7.784H22.448L19.608-20.1H14.784l2.8-7.784ZM13.384-16.42h4.979L16.69-11.742H11.672ZM33.923-.353C36.607-.43,38.9-.468,40.77-.468c1.439,0,3.734.038,6.846.115V-1.887c-2.956-.115-3.7-.959-3.7-3.758V-21.213c0-2.454.817-3.413,3.268-3.413h.428V-26.2c-2.412.077-4.707.115-6.846.115-2.023,0-4.318-.038-6.846-.115v1.572h.389c2.84,0,3.307.805,3.307,3.413V-5.645c0,2.953-.467,3.681-3.7,3.758ZM67.144.03a42.527,42.527,0,0,1,7.43-1.5V-2.807c-1.828-.038-2.606-.422-2.606-1.61V-27.732A38.686,38.686,0,0,1,63.643-26.7v1.38c2.412.115,3,.383,3,2.032v7.746A7.227,7.227,0,0,0,61.115-17.8c-4.629,0-8.247,3.719-8.247,8.934,0,5.445,3.112,8.9,8.013,8.9a6.411,6.411,0,0,0,5.835-3.106ZM66.522-11.4v4.1c0,2.991-1.478,4.563-4.046,4.563-2.451,0-3.7-2.071-3.7-6.135,0-4.256,1.478-6.442,4.046-6.442C65.16-15.308,66.522-13.927,66.522-11.4Zm12.1,2.607c0,5.138,3.968,8.858,9.531,8.858,5.874,0,9.8-3.681,9.8-9.164,0-5.023-3.89-8.666-9.453-8.666C82.588-17.762,78.62-13.966,78.62-8.789Zm5.874.077c0-5.062,1.128-7.439,3.89-7.439,2.606,0,3.734,2.3,3.734,7.017,0,5.177-.973,7.592-3.773,7.592C85.349-1.542,84.494-3.8,84.494-8.712ZM102.349-.353a25.418,25.418,0,0,1,3.034-.115h3.773c1.323,0,2.567,0,3.773.115V-1.772c-1.906-.077-2.606-.537-2.606-2.071V-27.732a31.036,31.036,0,0,1-7.78,1.5v1.38c1.673.115,2.412.422,2.412,1.419V-3.843c0,1.572-.311,1.917-2.606,2.071Zm15.093,0c1.945-.115,3.657-.115,5.135-.115q2.159,0,8.636.115v-1.61h-.195c-2.762,0-3.618-.805-3.618-3.489v-6.6c.156,0,.272-.038.389-.038,1.478,0,2.256,1.035,3.54,2.876l6.263,8.858c.973-.077,1.984-.077,3-.077,2.412,0,4.085.038,4.979.115V-1.734a5.325,5.325,0,0,1-3.618-2.531l-3.773-5.215c-1.439-1.956-2.373-3.336-3.462-3.8,4.2-.69,6.5-3.068,6.5-6.48,0-4.525-3.5-6.519-10.7-6.519-2.879,0-5.524.115-8.013.115-1.362,0-3.034,0-5.057-.077V-24.7c3.345.038,4.007.614,4.007,3.144V-5.683c0,2.953-.739,3.719-4.007,3.719ZM127.4-13.812v-9.2c0-1.265.311-1.5,1.751-1.5,3.734,0,5.485,1.61,5.485,5.407,0,3.681-1.867,5.33-5.913,5.33C128.334-13.774,127.868-13.774,127.4-13.812ZM148.212-.353c1.712-.077,3.579-.115,5.563-.115.778,0,2.373.038,4.863.115V-1.81c-2.062-.115-2.451-.422-2.451-2.032V-17.877H155.6a36,36,0,0,1-7.391,1.342v1.342c1.984.077,2.451.46,2.451,2.3v9.049c0,1.572-.35,1.917-2.451,2.032ZM150.235-24.7a2.934,2.934,0,0,0,2.956,2.914,2.934,2.934,0,0,0,2.956-2.914,2.91,2.91,0,0,0-2.956-2.914A2.91,2.91,0,0,0,150.235-24.7ZM163.111-.353c1.673-.077,3.229-.115,4.707-.115,1.323,0,3.112.038,5.407.115v-1.38c-1.867-.038-2.3-.614-2.3-2.377v-5.982c0-3.029,1.556-4.87,3.773-4.87,1.556,0,2.334,1.112,2.334,3.3v7.746c0,1.726-.389,2.186-2.217,2.186v1.38c1.867-.077,3.5-.115,4.863-.115,1.595,0,3.268.038,5.057.115v-1.38c-2.14-.153-2.3-.5-2.3-2.186v-7.746c0-4.065-1.867-6.1-5.485-6.1a7.868,7.868,0,0,0-6.341,3.374l-.233-3.374h-.661a27.418,27.418,0,0,1-6.613,1.342V-15c1.945,0,2.412.5,2.412,2.531v8.551c0,1.649-.194,1.994-2.412,2.186Zm30.537-5.905c-2.334.652-3.618,2.186-3.618,4.18a3.755,3.755,0,0,0,2.606,3.643c1.556.537,3.773.575,6.769.575,2.762,0,4.123.882,4.123,2.607,0,2.109-2.3,3.719-5.835,3.719-3.345,0-5.174-1.189-5.174-2.991a1.593,1.593,0,0,1,1.206-1.534A2.117,2.117,0,0,0,191.7,2.753a2.664,2.664,0,0,0-2.49,2.838c0,2.684,2.879,4.525,8.208,4.525,6.38,0,9.764-2.416,9.764-6.71,0-4.486-2.879-5.828-9.142-5.982-2.84-.077-4.123.115-4.123-1.38,0-1.15,1.128-1.5,3.073-1.649,5.524-.383,8.091-1.994,8.091-6.02a5.436,5.436,0,0,0-1.4-3.758,1.754,1.754,0,0,1,.895-.383c1.011,0,1.517,1.419,2.567,1.419a1.537,1.537,0,0,0,1.712-1.457c0-1.534-.817-2.339-2.49-2.339a5.844,5.844,0,0,0-3.773,1.687,9.539,9.539,0,0,0-5.057-1.3c-4.707,0-7.663,2.607-7.663,6.135A5.41,5.41,0,0,0,193.648-6.258Zm1.478-5.483c0-3.068.661-4.64,2.412-4.64,1.828,0,2.3,1.61,2.3,4.716,0,3.068-.311,4.486-2.412,4.486C195.593-7.179,195.126-8.674,195.126-11.742Z" transform="translate(-72 69.934)" fill="#fff"/>
  </g>
</svg>
