<svg id="グループ_3894" data-name="グループ 3894" xmlns="http://www.w3.org/2000/svg" width="203.379" height="77.679" viewBox="0 0 203.379 77.679">
  <path id="パス_10025" data-name="パス 10025" d="M148.744,439.865a1.984,1.984,0,0,1-1.377-.558,1.978,1.978,0,0,1-1.211.181l-1.681-.28a1.984,1.984,0,0,1-1.658-1.994,39.553,39.553,0,0,0-.55-6.6l0-.012-.257-1.424a1.987,1.987,0,0,1-.028-.232l-.01-.027-1.214-3.478a1.984,1.984,0,0,1,1.513-2.6l1.015-.186.07-.2a32.425,32.425,0,0,0-3.463-3.947,1.984,1.984,0,0,1-.443-2.27l.887-1.937a1.984,1.984,0,0,1,1.181-1.058l.054-.017c.024-.566.039-1.192.032-1.836a1.984,1.984,0,0,1,2.3-1.98l4.5.724a1.984,1.984,0,0,1,1.658,2.171l.509.109-.164-.935a1.984,1.984,0,0,1,1.609-2.3l14.122-2.5a1.984,1.984,0,0,1,2.3,1.61l4.458,25.325a1.984,1.984,0,0,1-1.614,2.3l-4.435.77a1.985,1.985,0,0,1-2.168-1.184l-1.488.262a1.984,1.984,0,0,1-1.64,1.856l-4.411.77a1.986,1.986,0,0,1-2.05-.945,1.984,1.984,0,0,1-1.613,1.622l-4.388.77A1.991,1.991,0,0,1,148.744,439.865Zm-.135-9.593a1.983,1.983,0,0,1,1.064,1.43l.683,3.882.477-.084-1.286-7.239q-.015-.085-.023-.17a1.982,1.982,0,0,1-.049-.215l-.4-2.311c-.007-.042-.013-.083-.017-.124l-.841.214-.041.01a1.985,1.985,0,0,1,.632,1.143l.3,1.774a1.984,1.984,0,0,1-.458,1.636Zm8.75.159a1.983,1.983,0,0,1,.576,1.079l.47,2.629.544-.1a1.283,1.283,0,0,0-.229-1.489l-1.634-9.22a1.985,1.985,0,0,0-.35-1.984l-1.541-8.683,0-.022-.531.094,1.641,9.345a1.977,1.977,0,0,0,.559,2.981l.724,4.038A1.982,1.982,0,0,1,157.36,430.43Zm10.459,1.594a1.973,1.973,0,0,1,.241.422l.585-.1-3.769-21.411-.484.086c0,.015.006.031.009.046l1.541,8.683a1.986,1.986,0,0,0,.35,1.984l1.634,9.22A1.975,1.975,0,0,1,167.819,432.025ZM146.69,420.281q.251.333.48.644l.006.009c.21-.333.409-.653.583-.934a1.985,1.985,0,0,1-1.069.281Zm2.678-4.072c-.166.649-.336,1.278-.481,1.8.287-.477.652-1.089,1-1.685Z" transform="translate(-139.27 -379.317)" fill="#b89779"/>
  <path id="パス_10026" data-name="パス 10026" d="M152.258,432.942a33.864,33.864,0,0,0-1.891-6.162l1.634,9.2-4.388.77-1.027-5.835a24.888,24.888,0,0,1-1.237,5.485l-1.681-.28a41.355,41.355,0,0,0-.584-7l-.257-1.424,3.2.093-.3-1.774c-.98.373-2.124.887-3.011,1.12l-1.214-3.478c1.517-.28,1.681-.3,2.124-.4.14-.373.35-.887.817-2.287a37.02,37.02,0,0,0-4.318-5.042l.887-1.937c.467.257.63.35,1.237.724.023-.327.233-2.287.21-4.482l4.5.724a47.727,47.727,0,0,1-2.427,5.392,7.431,7.431,0,0,1,1.074.817c.3-1.027.84-2.988,1.144-4.435l5.018,1.074c-.187.584-2.638,4.645-2.871,5l1.517-.957c1.33,1.564,1.984,2.381,2.8,3.455L151.23,410l14.121-2.5,4.458,25.325-4.435.77-.28-1.517-5.3.934.28,1.517-4.411.77-.817-4.575-2.661,2.194Zm-5.672-10.34c.537-.14,2.964-.747,3.455-.887a24.1,24.1,0,0,0-1.19-2.684C148.383,419.8,147.379,421.435,146.586,422.6Zm4.738,3.081c-.14-.63-.42-1.447-.584-1.984-.49.257-.63.3-.84.4l.4,2.311Zm.537,0c.864.91,2.264,2.287,2.638,2.638l-.724-4.038Zm6.629-5.975-1.541-8.683-.934.163,1.541,8.683Zm1.984,11.2-1.634-9.22-.934.163,1.634,9.22Zm2.381-11.951-1.541-8.683-.91.163,1.541,8.683Zm1.984,11.2-1.634-9.22-.91.163,1.634,9.22Z" transform="translate(-138.136 -378.183)" fill="#fff"/>
  <path id="パス_10027" data-name="パス 10027" d="M174.881,405.52a1.983,1.983,0,0,1,.829.181l2.031.934a1.984,1.984,0,0,1,1.129,2.125c-.085,6.61-1.424,11.534-4.2,15.479-2.742,3.89-6.985,6.935-13.354,9.582a1.984,1.984,0,0,1-2.291-.568l-1.447-1.751a1.984,1.984,0,0,1,.7-3.065c6.308-2.911,10.619-6.8,11.015-15.833L156.32,414.9a1.984,1.984,0,0,1-2.3-1.617l-.35-2.031a1.984,1.984,0,0,1,1.609-2.291l19.257-3.408A1.987,1.987,0,0,1,174.881,405.52Zm0,4.167-.263-.121-1.391.246a1.985,1.985,0,0,1,.045.372c.133,5.141-.731,9.341-2.638,12.774C173.419,419.6,174.684,415.389,174.879,409.687Z" transform="translate(-120.099 -380.825)" fill="#b89779"/>
  <path id="パス_10028" data-name="パス 10028" d="M175.754,407.327c-.093,12.488-4.715,18.7-16.339,23.528l-1.447-1.751c7.282-3.361,12.488-8.286,12.184-20l-15.312,2.708-.35-2.031,19.257-3.408,2.031.934Z" transform="translate(-118.964 -379.691)" fill="#fff"/>
  <path id="パス_10029" data-name="パス 10029" d="M173.156,434.1a1.984,1.984,0,0,1-1.6-.811l-1.284-1.751a1.984,1.984,0,0,1,.8-2.988c3.933-1.737,5.774-3.485,5.325-8.431l-7.69,1.356a1.984,1.984,0,0,1-2.063-.466l-.023-.023a1.984,1.984,0,0,1-.582-1.341l-.3-1.734a1.984,1.984,0,0,1,1.611-2.291l8.1-1.429-.12-.673c-1.687.4-3.262.738-5.416,1.129a1.985,1.985,0,0,1-2.039-.9l-1.307-2.1a1.984,1.984,0,0,1,1.321-3c6.507-1.214,12.385-3.364,16.126-5.9a1.984,1.984,0,0,1,2.505.228l3.034,2.988a1.984,1.984,0,0,1-.47,3.17,31.762,31.762,0,0,1-4.741,1.9l.272,1.557,6.584-1.169a1.984,1.984,0,0,1,2.3,1.616l.35,2.031a1.984,1.984,0,0,1-1.613,2.291l-6.723,1.176a13.972,13.972,0,0,1-2.1,9.012c-1.879,2.771-4.932,4.819-9.61,6.445A1.981,1.981,0,0,1,173.156,434.1Zm6.443-17.57a1.985,1.985,0,0,1,.436.935c.613,3.5.516,6.256-.4,8.5,1.8-2.171,2.294-4.965,1.759-8.794a1.866,1.866,0,0,0-.34-1.941l-.91-5.205a1.979,1.979,0,0,1,.025-.807q-.819.338-1.68.656a1.983,1.983,0,0,1,.38.861l.84,4.715A1.984,1.984,0,0,1,179.6,416.528Z" transform="translate(-103.996 -384.987)" fill="#b89779"/>
  <path id="パス_10030" data-name="パス 10030" d="M166.91,418.469l-.35-2.031,10.06-1.774-.84-4.715c-2.4.607-4.271,1.05-7.353,1.611l-1.307-2.1c7.633-1.424,13.4-3.851,16.876-6.209l3.034,2.988a37.45,37.45,0,0,1-6.069,2.311l.91,5.205,8.543-1.517.35,2.031-8.543,1.494c1.12,8.006-1.937,12.348-10.2,15.219l-1.284-1.751c5.392-2.381,7.469-5.369,6.209-12.558l-10.06,1.774Z" transform="translate(-102.862 -383.853)" fill="#fff"/>
  <path id="パス_10031" data-name="パス 10031" d="M185.749,401.15h.036l5.182.093A1.984,1.984,0,0,1,192.9,403.5c-.024.17-.045.332-.068.5-.025.19-.052.392-.085.63,3.91-.877,4.847-1.154,6.152-1.54l.063-.019a1.984,1.984,0,0,1,2.525,1.61l.327,2.194a1.984,1.984,0,0,1-1.451,2.209c-2.925.78-6.289,1.527-8.632,2.044-.029.17-.06.348-.093.533a15.182,15.182,0,0,1,2.687-.729,14.227,14.227,0,0,1,2.481-.224c4.819,0,8.282,2.652,9.038,6.92a8.418,8.418,0,0,1-2.687,7.875l-.015.015c-2.813,2.62-7.756,3.444-13.479,4.4l-.034.006a1.984,1.984,0,0,1-2.14-1.153l-1-2.264a1.984,1.984,0,0,1,1.621-2.779l.491-.046c.782-.071,1.522-.139,2.855-.376,2.493-.43,4.325-1.255,5.036-2.265a1.874,1.874,0,0,0,.29-1.509c-.155-.882-.549-1.785-2.3-1.785a5.343,5.343,0,0,0-.915.083c-2.058.358-3.435,1.758-4.211,4.278a1.984,1.984,0,0,1-2.307,1.357l-4.412-.934a1.984,1.984,0,0,1-1.512-2.429c.329-1.3.732-3.02,1.4-7.018-.907.178-1.33.252-1.834.336A1.984,1.984,0,0,1,178.4,411.8l-.373-2.171a1.99,1.99,0,0,1-.029-.34v-.023a1.984,1.984,0,0,1,1.6-1.942c.824-.163,1.388-.27,1.933-.373s1.106-.209,1.948-.376a34.246,34.246,0,0,0,.285-3.473,1.984,1.984,0,0,1,1.984-1.954Zm2.906,4.021-1.033-.019c-.085.982-.219,2.11-.4,3.374a2.025,2.025,0,0,0-.331,2.36c-.649,4.15-1.1,6.554-1.455,8.186l.768.163a10.468,10.468,0,0,1,1.4-2.26,1.979,1.979,0,0,1-.644-1.894c.391-1.9.764-4.066.986-5.361.038-.223.072-.417.1-.577a1.944,1.944,0,0,0,.346-2.262C188.5,406.178,188.587,405.624,188.656,405.171Zm11.769,17.456a4.5,4.5,0,0,0,1.508-4.294,4.167,4.167,0,0,0-3.783-3.549,6.283,6.283,0,0,1,1.776,8.244A4.781,4.781,0,0,0,200.425,422.626Z" transform="translate(-87.599 -386.655)" fill="#b89779"/>
  <path id="パス_10032" data-name="パス 10032" d="M178.85,408.139c2.007-.4,2.381-.444,5.275-1.027a45.167,45.167,0,0,0,.49-5.112l5.182.093c-.117.84-.187,1.494-.584,3.968,6.512-1.424,7.516-1.727,9.173-2.217l.327,2.194c-3.5.934-7.749,1.844-9.85,2.311-.187,1.074-.63,3.735-1.1,6a12.424,12.424,0,0,1,5.765-2.591c4.2-.747,8.426.607,9.22,5.088a6.507,6.507,0,0,1-2.1,6.092c-2.381,2.217-7.166,3.011-12.488,3.9l-1-2.264c.957-.093,1.8-.14,3.5-.443,1.354-.233,7.749-1.4,6.932-6.069-.537-3.058-3.1-3.735-5.509-3.314-4.155.724-5.392,4.435-5.765,5.649l-4.411-.934c.42-1.657.934-3.9,1.891-10.013-3.1.63-3.735.747-4.575.887l-.373-2.171Z" transform="translate(-86.465 -385.521)" fill="#fff"/>
  <path id="パス_10033" data-name="パス 10033" d="M199.571,426.642a1.984,1.984,0,0,1-1.563-.761l-1.1-1.4a1.984,1.984,0,0,1-.389-1.587l-1.408.455a1.984,1.984,0,0,1-2.538-1.424c-.537-2.23-.947-4.329-1.122-5.226-.026-.131-.046-.236-.061-.311l-.008-.045a99.324,99.324,0,0,1-1.239-10.29,1.984,1.984,0,0,1,1.825-2.116l3.9-.3a1.984,1.984,0,0,1,2.138,1.978q0,.063,0,.13.117-.075.239-.148c-.135-.543-.27-1.06-.426-1.551a1.984,1.984,0,0,1,1.6-2.565l4.155-.607a1.984,1.984,0,0,1,2.221,1.52c.1.427.208.921.31,1.385,5.422.452,6.959,4.46,7.39,6.907.738,4.209-.926,6.731-2.451,8.1a10.811,10.811,0,0,1-3.711,2.1c-1.017,2.127-2.674,3.746-6.983,5.6A1.979,1.979,0,0,1,199.571,426.642Zm2.906-19.528a1.983,1.983,0,0,1,.361.775c.331,1.49.548,2.594.927,4.728.245,1.349.4,2.307.494,3.083a23.984,23.984,0,0,0-.342-2.568c-.155-.9-.334-1.827-.508-2.72-.16-.82-.31-1.6-.426-2.275a1.943,1.943,0,0,0-.439-2.054c-.018-.1-.1-.5-.215-1.02l-.122.018.011.045c.082.335.167.681.253,1.012A1.977,1.977,0,0,1,202.477,407.114Zm-7.807,4.432q.158,1.234.345,2.438a9.619,9.619,0,0,1,.333-1.781A1.987,1.987,0,0,1,194.67,411.547Zm4.784,2.211a1.984,1.984,0,0,1,.423.046l.072.017q-.043-.24-.09-.5c-.076-.429-.146-.815-.211-1.171a5.173,5.173,0,0,0-.613,1.654A1.983,1.983,0,0,1,199.453,413.758Z" transform="translate(-71.403 -387.055)" fill="#b89779"/>
  <path id="パス_10034" data-name="パス 10034" d="M197.339,422.124c2.638-1.354,3.314-2.147,3.758-3.595a5.762,5.762,0,0,1-4.575-2.661l1.8-1.26a3.719,3.719,0,0,0,2.988,2.054,31.646,31.646,0,0,0-.63-4.832c-.373-2.1-.584-3.174-.91-4.645a7.239,7.239,0,0,0-3.875,7.329,39.6,39.6,0,0,0,1.167,4.622l-3.688,1.19c-.607-2.521-1.05-4.878-1.167-5.462a97.421,97.421,0,0,1-1.214-10.083l3.9-.3c0,1.4.187,3.5.327,4.878a7.776,7.776,0,0,1,4.2-3.851c-.28-1.074-.514-2.171-.84-3.2l4.155-.607c.257,1.12.584,2.638.63,2.894,1.681-.047,6.092-.14,7.049,5.3,1.1,6.255-4.085,7.773-5.672,8.239-.747,1.937-1.681,3.408-6.3,5.392l-1.1-1.4Zm9.2-11.414c-.56-3.2-2.1-3.781-2.731-4.038.233,1.377.63,3.221.934,5a20.31,20.31,0,0,1,.4,4.061c.654-.514,2.007-1.564,1.4-5.042Z" transform="translate(-70.269 -385.921)" fill="#fff"/>
  <path id="パス_10035" data-name="パス 10035" d="M218.836,396.55a1.984,1.984,0,0,1,1.467.649l1.657,1.821a1.984,1.984,0,0,1,.04,2.625c-.853,1-1.957,2.318-3.08,3.689a9.684,9.684,0,0,1,6.35,2.083,9.207,9.207,0,0,1,3.174,5.614,9.616,9.616,0,0,1-2.849,9.032,16.368,16.368,0,0,1-8.3,3.819,15.3,15.3,0,0,1-2.617.239c-4.809,0-7.01-2.559-7.472-4.969a1.983,1.983,0,0,1-1.334-.27l-4.225-2.591a1.984,1.984,0,0,1-.6-2.806c2.473-3.642,5.127-7.374,7.187-10.227-1.031.238-2.008.448-2.854.614a1.984,1.984,0,0,1-2.323-1.54l-.514-2.451a1.984,1.984,0,0,1,1.924-2.391c3.546-.629,9.19-1.739,13.9-2.885A1.987,1.987,0,0,1,218.836,396.55Zm-6.82,12.754a1.984,1.984,0,0,1,.25-1.986c1.429-1.864,3.464-4.371,5.168-6.413-.808.186-1.63.37-2.453.549a1.984,1.984,0,0,1-.314,1.714c-1.234,1.672-5.274,7.177-9.168,12.832l.731.448C208.35,412.917,209.949,410.613,212.017,409.3Zm11.171,9.55a5.765,5.765,0,0,0,1.351-5.132,4.961,4.961,0,0,0-3.654-4.19,7.994,7.994,0,0,1,2.614,4.837A8.329,8.329,0,0,1,223.187,418.854Zm-3.617-3.9c-.189-.979-.839-2.982-2.979-2.982a4.626,4.626,0,0,0-.8.074,4.984,4.984,0,0,0-3.107,1.929q.336-.079.691-.141a9.744,9.744,0,0,1,1.719-.152,8.188,8.188,0,0,1,2.921.506A7.659,7.659,0,0,1,219.571,414.95Z" transform="translate(-57.314 -392.792)" fill="#b89779"/>
  <path id="パス_10036" data-name="パス 10036" d="M203.371,400.364c3.454-.607,9.337-1.751,14.332-2.964l1.657,1.821c-1.8,2.1-4.738,5.672-6.652,8.169a10.977,10.977,0,0,1,3.244-1.027c5-.887,8.636,1.564,9.407,5.882,1.1,6.255-3.945,9.547-9.547,10.55-4.552.794-7.352-.77-7.8-3.174-.35-1.937.607-4.271,4.575-4.972a6.933,6.933,0,0,1,3.595.257,5.207,5.207,0,0,1,3.268,3.525,6.021,6.021,0,0,0,.957-4.855c-.443-2.544-2.241-5.3-6.092-4.622-3.268.584-4.832,2.8-8.543,9.1l-4.225-2.591c3.851-5.672,8.216-11.671,10.387-14.612-2.614.724-5.812,1.494-8.076,1.937l-.514-2.451Zm9.78,16.456a1.787,1.787,0,0,0-1.4,2.264,2.842,2.842,0,0,0,3.408,2.007,6.791,6.791,0,0,0,1.214-.327c-.35-1.54-1.027-4.341-3.221-3.945Z" transform="translate(-56.18 -391.658)" fill="#fff"/>
  <path id="パス_10037" data-name="パス 10037" d="M220.548,424.7q-.086,0-.174-.008l-5.112-.443a1.984,1.984,0,0,1-1.8-2.225c.652-5.168,1.667-10.574,3.4-19.683l.006-.03c.133-.645.633-3.693.859-5.618a1.984,1.984,0,0,1,2.2-1.738l5.509.653a1.984,1.984,0,0,1,1.689,2.461c-.509,2-1.011,4.158-1.483,6.389.283-.075.582-.141.9-.2a9.445,9.445,0,0,1,1.651-.155c1.835,0,5.032.684,5.83,5.263.078.435.161,1.325.29,2.738.039.429.084.925.128,1.382a15.046,15.046,0,0,0,.859-3.108,1.984,1.984,0,0,1,2.632-1.5l2.171.794a1.984,1.984,0,0,1,1.269,2.229,20,20,0,0,1-1.828,5.664,9.325,9.325,0,0,1-6.66,5.143,7.319,7.319,0,0,1-1.263.114c-3.557,0-5.345-2.789-5.8-5.178l0-.013c-.116-.639-.28-2.263-.5-4.487-.068-.688-.148-1.506-.2-1.941a4.1,4.1,0,0,0-1.118,2.113,90.014,90.014,0,0,0-1.5,9.594A1.984,1.984,0,0,1,220.548,424.7Zm-2.87-4.224,1.116.1a81.709,81.709,0,0,1,1.405-8.334,9.953,9.953,0,0,1,1.242-2.816,1.984,1.984,0,0,1-.487-1.71c.546-2.888,1.159-5.761,1.8-8.429l-1.337-.159c-.247,1.7-.54,3.444-.648,3.974C219.274,410.917,218.32,415.979,217.678,420.476Zm12.055-3.56c.138.727.568,1.94,1.9,1.94a3.333,3.333,0,0,0,.572-.054,4.946,4.946,0,0,0,.819-.218,2.728,2.728,0,0,1-1.561-1.021,4.291,4.291,0,0,1-.751-1.94c-.1-.515-.192-1.54-.339-3.156-.081-.893-.193-2.117-.244-2.4l0-.016c-.318-1.832-1.058-1.981-1.922-1.981q-.105,0-.217.006a4.058,4.058,0,0,1,1.026,2.169l0,.015c.046.266.11.9.267,2.5C229.422,414.2,229.636,416.375,229.732,416.916Z" transform="translate(-40.304 -394.94)" fill="#b89779"/>
  <path id="パス_10038" data-name="パス 10038" d="M214.3,421.139c.63-5,1.564-10.013,3.384-19.56.14-.677.654-3.8.887-5.789l5.509.653c-1.167,4.575-1.984,8.776-2.311,10.5a8.038,8.038,0,0,1,3.991-1.867c3.525-.63,4.785,1.214,5.182,3.5.14.77.42,4.692.584,5.555.21,1.214.584,1.517,1.377,1.377.91-.163,2.334-1.12,3.221-5.905l2.171.794c-.42,2.241-1.634,8.286-6.886,9.22-3.454.607-4.528-2.241-4.762-3.478-.187-1.027-.63-6.139-.724-6.676-.187-1.027-.677-1.7-1.937-1.494-1.774.3-2.591,2.194-3.011,3.665a91.1,91.1,0,0,0-1.564,9.943l-5.112-.444Z" transform="translate(-39.17 -393.806)" fill="#fff"/>
  <g id="グループ_3895" data-name="グループ 3895" transform="translate(92.181 35.221)">
    <path id="パス_10039" data-name="パス 10039" d="M166.5,419.9a1.98,1.98,0,0,1,.922.228,23.022,23.022,0,0,1,3.716,2.394,1.984,1.984,0,0,1,.211,2.92l-1.634,1.727a2.234,2.234,0,0,0-.5.544l-1.426,1.445c-.552,13.977-6.886,19.35-17.609,23.871a1.984,1.984,0,0,1-2.345-.621l-1.307-1.7a1.984,1.984,0,0,1,.713-3c5.627-2.71,10.784-6.534,10.952-15.837l-12.9,2.282a1.984,1.984,0,0,1-2.3-1.617l-.35-2.031a1.984,1.984,0,0,1,1.611-2.291l16.579-2.923c-.011-.058-.02-.117-.026-.176a1.984,1.984,0,0,1,.545-1.575l1.237-1.284a1.983,1.983,0,0,1,1.305-.6l1.208-1.186A1.983,1.983,0,0,1,166.5,419.9Zm-2.7,9.746-.841-.7-.889.157a1.984,1.984,0,0,1,.039.29c.314,5.134-.521,9.383-2.548,12.915C162.075,439.32,163.484,435.393,163.8,429.646Z" transform="translate(-142.62 -410.727)" fill="#b89779"/>
    <path id="パス_10040" data-name="パス 10040" d="M162.376,425.7l2.311,1.914c-.42,12.978-5.835,18-16.409,22.454l-1.307-1.7c6.349-3.058,12.768-7.773,12.021-19.98l-15.172,2.684-.35-2.031L162.4,425.7Zm2.568,1.237a14.064,14.064,0,0,0-3.291-3.151l1.237-1.284a24.057,24.057,0,0,1,3.781,2.684l-1.727,1.751Zm2.194-2.264a15.122,15.122,0,0,0-3.081-2.638l1.307-1.284a20.973,20.973,0,0,1,3.408,2.194Z" transform="translate(-141.485 -409.593)" fill="#fff"/>
    <path id="パス_10041" data-name="パス 10041" d="M175.464,419.45a1.984,1.984,0,0,1,1.955,1.647l.35,2.031a1.985,1.985,0,0,1-.975,2.063l.216-.038a1.985,1.985,0,0,1,1.438.3l1.724.744a1.984,1.984,0,0,1,1.2,1.742,18.45,18.45,0,0,1-2.6,11.3c-3.778,5.865-10.573,7.806-13.474,8.635a1.983,1.983,0,0,1-2.159-.754l-1.284-1.8a1.984,1.984,0,0,1,.948-3.022c6.447-2.3,8.989-4.994,9.14-10.134l-14.01,2.472a1.984,1.984,0,0,1-2.3-1.617l-.35-2.031a1.984,1.984,0,0,1,1.611-2.291l2.047-.361a1.984,1.984,0,0,1-1.627-1.62l-.35-2.031a1.984,1.984,0,0,1,1.611-2.291l16.549-2.918A1.988,1.988,0,0,1,175.464,419.45Zm1.977,9.888-.382-.165-1.266.223a1.982,1.982,0,0,1,.038.261,16.061,16.061,0,0,1-1.426,8.8,12.028,12.028,0,0,0,1.025-1.365A13.474,13.474,0,0,0,177.44,429.338Z" transform="translate(-125.769 -411.327)" fill="#b89779"/>
    <path id="パス_10042" data-name="パス 10042" d="M176.2,426l2.054.887a16.478,16.478,0,0,1-2.287,10.153c-3.338,5.182-9.407,6.956-12.348,7.8l-1.284-1.8c7.259-2.591,11.04-6.092,10.387-14.355l-16.269,2.871-.35-2.031,20.12-3.548Zm-1.867-5.7.35,2.031-16.549,2.918-.35-2.031Z" transform="translate(-124.635 -410.193)" fill="#fff"/>
    <path id="パス_10043" data-name="パス 10043" d="M181.35,417.21a1.984,1.984,0,0,1,1.953,1.645l.43,2.476,4.951-.87a1.985,1.985,0,0,1,1.321.228l2.1,1.19a1.984,1.984,0,0,1,.991,1.487c.3,2.5,1.016,8.364-1.841,13.894-3.461,6.658-10,8.6-13.149,9.534a1.984,1.984,0,0,1-2.157-.718l-1.354-1.821a1.984,1.984,0,0,1,.913-3.048c6.935-2.525,9.424-5.12,8.291-13.778l-7.016,1.239.75,4.23a1.984,1.984,0,0,1-1.61,2.3l-5.042.887a1.983,1.983,0,0,1-2.3-1.609l-1.447-8.193a1.984,1.984,0,0,1,1.606-2.3l6.052-1.076-.492-2.761a1.984,1.984,0,0,1,1.718-2.318l5.088-.607A2.009,2.009,0,0,1,181.35,417.21Zm-1.173,6.83q-.008-.036-.014-.072l-.448-2.582-1.134.135.472,2.646q.006.035.011.069Zm9.095.794-.6-.342-1.271.223q.007.035.013.07c.864,5.007.812,8.676-.2,11.556q.273-.434.519-.906C189.725,431.581,189.529,427.3,189.273,424.834Zm-15.99,6.8-.75-4.229c0-.02-.007-.041-.01-.061l-1.13.2.758,4.289Z" transform="translate(-109.947 -414.316)" fill="#b89779"/>
    <path id="パス_10044" data-name="パス 10044" d="M175.126,418.667l5.088-.607.77,4.435,6.909-1.214,2.1,1.19c.3,2.5.91,7.819-1.634,12.744-3.058,5.882-8.963,7.656-11.951,8.543l-1.354-1.821c8.333-3.034,11.2-6.722,9.267-17.949l-10.97,1.937,1.1,6.185-5.042.887-1.447-8.193,8.006-1.424Z" transform="translate(-108.813 -413.182)" fill="#fff"/>
    <path id="パス_10045" data-name="パス 10045" d="M181.257,415.97h.046a25.188,25.188,0,0,1,11.578,2.8,1.984,1.984,0,0,1,.8,2.818l-2.8,4.528a1.984,1.984,0,0,1-3.09.359,19.749,19.749,0,0,0-7.842-4.852,1.984,1.984,0,0,1-1.21-2.551l.654-1.8A1.984,1.984,0,0,1,181.257,415.97Zm7.863,5.45a19.549,19.549,0,0,0-2.1-.707q.9.6,1.741,1.292Zm12.841-2.089a1.985,1.985,0,0,1,.878.205l1.844.91a1.984,1.984,0,0,1,1.017,2.367,31.136,31.136,0,0,1-6.914,12.574c-3.036,3.235-6.947,5.857-12.683,8.5a1.984,1.984,0,0,1-2.494-.72l-3.128-4.808a1.984,1.984,0,0,1-.321-1.082v-.023a1.984,1.984,0,0,1,1.46-1.913c10.942-3,15.089-7.731,18.555-14.893a1.984,1.984,0,0,1,1.786-1.12Zm-15.973,20.22a34.358,34.358,0,0,0,9.433-6.368A32.164,32.164,0,0,1,185.24,438.4Z" transform="translate(-94.591 -415.97)" fill="#b89779"/>
    <path id="パス_10046" data-name="パス 10046" d="M188.06,423.939a21.824,21.824,0,0,0-8.59-5.322l.654-1.8a23.238,23.238,0,0,1,10.737,2.591l-2.8,4.528Zm-7.049,12.184c11.157-3.058,15.942-7.936,19.817-15.942l1.844.91c-3.058,9.85-8.006,15.008-18.533,19.863l-3.128-4.808Z" transform="translate(-93.457 -414.836)" fill="#fff"/>
  </g>
</svg>
