<svg xmlns="http://www.w3.org/2000/svg" xmlns:xlink="http://www.w3.org/1999/xlink" width="235" height="117" viewBox="0 0 235 117">
  <defs>
    <filter id="合体_7" x="0" y="0" width="235" height="117" filterUnits="userSpaceOnUse">
      <feOffset input="SourceAlpha"/>
      <feGaussianBlur stdDeviation="3" result="blur"/>
      <feFlood flood-color="#bc936e"/>
      <feComposite operator="in" in2="blur"/>
      <feComposite in="SourceGraphic"/>
    </filter>
    <filter id="合体_8" x="0" y="0" width="235" height="117" filterUnits="userSpaceOnUse">
      <feOffset input="SourceAlpha"/>
      <feGaussianBlur stdDeviation="3" result="blur-2"/>
      <feFlood flood-color="#977456"/>
      <feComposite operator="in" in2="blur-2"/>
      <feComposite in="SourceGraphic"/>
    </filter>
  </defs>
  <g id="グループ_3894" data-name="グループ 3894" transform="translate(6.809 6.81)">
    <g transform="matrix(1, 0, 0, 1, -6.81, -6.81)" filter="url(#合体_7)">
      <path id="合体_7-2" data-name="合体 7" d="M14.306,97.122c6.989-3.37,14.055-8.567,13.232-22.022l-16.7,2.958-.385-2.238,20.814-3.675,0,0h.026l-.021,0,2.54,2.1C33.345,88.555,27.384,94.086,15.746,99Zm35.456-6.534c7.99-2.857,12.152-6.716,11.433-15.824L43.288,77.929,42.9,75.691l22.147-3.91-.026.025,2.261.977a18.193,18.193,0,0,1-2.519,11.191c-3.673,5.712-10.353,7.667-13.591,8.593Zm31.422-4.5c9.173-3.344,12.333-7.41,10.2-19.784L79.309,68.436l1.208,6.817-5.549.978L73.374,67.2l8.813-1.569-.925-5.2,5.6-.667.847,4.888,7.6-1.338,2.313,1.313c.333,2.753,1,8.619-1.8,14.046-3.366,6.483-9.866,8.439-13.155,9.417Zm23.458-8.206v-.027c12.281-3.37,17.547-8.747,21.812-17.57l2.03,1c-3.366,10.856-8.812,16.543-20.4,21.895ZM30.468,70.031l1.361-1.415a26.57,26.57,0,0,1,4.163,2.959l-1.9,1.93A15.485,15.485,0,0,0,30.468,70.031Zm2.646-1.93,1.439-1.414A23.024,23.024,0,0,1,38.3,69.1l-1.8,1.9A16.736,16.736,0,0,0,33.114,68.1Zm11.638.643,18.216-3.215.385,2.237L45.137,70.984Zm58.193-10.186.719-1.982a25.551,25.551,0,0,1,11.818,2.856L112.4,64.423A23.989,23.989,0,0,0,102.946,58.558ZM7.117,55.931a27.433,27.433,0,0,1-1.361,6.046l-1.849-.309a45.69,45.69,0,0,0-.643-7.718l-.283-1.57,3.521.1-.334-1.956c-1.079.411-2.338.978-3.314,1.235L1.516,47.93c1.67-.309,1.85-.335,2.338-.437.154-.413.385-.978.9-2.522A40.64,40.64,0,0,0,0,39.415l.976-2.136c.514.283.693.386,1.361.8.026-.361.257-2.521.231-4.939l4.96.8a52.871,52.871,0,0,1-2.672,5.944,8.191,8.191,0,0,1,1.182.9c.333-1.132.925-3.294,1.258-4.889l5.524,1.183c-.205.643-2.9,5.12-3.159,5.506l1.67-1.054c1.464,1.723,2.183,2.623,3.083,3.807L12.23,32.88l15.544-2.753,4.907,27.915L27.8,58.89l-.309-1.672-5.833,1.03.309,1.672-4.856.849-.9-5.042-2.865,2.366a37.634,37.634,0,0,0-2.067-6.713l1.8,10.136-4.831.85Zm12.461-9.982,1.8,10.163,1.027-.181-1.8-10.162Zm4.831-.823,1.8,10.162,1-.18-1.8-10.163ZM12.923,50.168c.951,1,2.492,2.522,2.9,2.907l-.8-4.45Zm-2.158-1.749.437,2.547,1.13-.8c-.154-.694-.462-1.595-.642-2.186C11.15,48.264,11,48.316,10.765,48.419ZM7.117,46.773c.591-.155,3.264-.824,3.8-.978a26.527,26.527,0,0,0-1.31-2.959C9.1,43.685,7.991,45.486,7.117,46.773ZM17.5,34.192l1.7,9.57,1.027-.18-1.7-9.57Zm4.83-.823,1.695,9.57,1-.181-1.7-9.569ZM13.283,58.144l.064-.053c0,.026.009.052.014.079Zm27.465-5.865c8.017-3.706,13.746-9.134,13.412-22.048L37.306,33.215l-.386-2.239,21.2-3.756,2.234,1.03-.026.026c-.1,13.764-5.19,20.606-17.984,25.932ZM72.53,47.827c5.936-2.624,8.222-5.917,6.835-13.841L68.312,35.938l-.38-2.209L79,31.773l-.925-5.2c-2.646.668-4.7,1.157-8.093,1.775l-1.439-2.316c8.4-1.569,14.747-4.245,18.575-6.843l3.34,3.293a41.1,41.1,0,0,1-6.68,2.546l1,5.737,9.4-1.672.385,2.239-9.4,1.646c1.232,8.824-2.133,13.61-11.228,16.774Zm36.124-6.971c1.054-.1,1.979-.155,3.854-.489,1.49-.257,8.53-1.544,7.631-6.689-.59-3.37-3.417-4.116-6.064-3.653-4.572.8-5.935,4.888-6.346,6.226l-4.856-1.029c.462-1.827,1.028-4.3,2.082-11.038-3.417.695-4.111.824-5.036.978l-.412-2.393v-.026c2.21-.437,2.622-.489,5.807-1.132a49.916,49.916,0,0,0,.54-5.634l5.7.1c-.128.926-.205,1.646-.642,4.374,7.168-1.57,8.273-1.9,10.1-2.444l.36,2.418c-3.854,1.03-8.53,2.033-10.843,2.547-.205,1.183-.694,4.117-1.208,6.613a13.667,13.667,0,0,1,6.347-2.857c4.624-.823,9.275.67,10.148,5.609a7.177,7.177,0,0,1-2.312,6.715c-2.621,2.445-7.888,3.319-13.745,4.3Zm29.033-3.14c2.9-1.492,3.648-2.365,4.136-3.961a6.339,6.339,0,0,1-5.036-2.933l1.979-1.389a4.1,4.1,0,0,0,3.288,2.264,34.783,34.783,0,0,0-.694-5.326c-.411-2.315-.642-3.5-1-5.12a7.987,7.987,0,0,0-4.265,8.08,43.766,43.766,0,0,0,1.285,5.094l-4.059,1.312c-.668-2.779-1.156-5.378-1.285-6.021A107.671,107.671,0,0,1,130.7,18.6l4.291-.335c0,1.542.205,3.859.359,5.377a8.563,8.563,0,0,1,4.625-4.246c-.309-1.184-.566-2.393-.925-3.524l4.573-.668c.282,1.235.642,2.907.694,3.189,1.85-.05,6.706-.153,7.759,5.841,1.208,6.894-4.5,8.567-6.242,9.082-.823,2.135-1.851,3.755-6.937,5.943Zm8.145-11.525a22.477,22.477,0,0,1,.437,4.476c.719-.566,2.209-1.724,1.541-5.557v.026c-.616-3.524-2.312-4.168-3.006-4.451C145.061,22.2,145.5,24.236,145.832,26.191Zm-77.541,9.75.021,0,.005.03Zm96.656-7.306c-.386-2.136.668-4.709,5.035-5.479a7.616,7.616,0,0,1,3.957.282c2.184.8,2.9,2.161,3.6,3.885a6.645,6.645,0,0,0,1.053-5.351c-.488-2.805-2.466-5.841-6.706-5.094-3.6.643-5.318,3.087-9.4,10.033l-4.651-2.855c4.24-6.251,9.044-12.863,11.433-16.106-2.878.8-6.4,1.647-8.889,2.136l-.566-2.7.026.026c3.8-.668,10.277-1.928,15.775-3.267l1.824,2.007c-1.979,2.315-5.215,6.252-7.322,9a12.055,12.055,0,0,1,3.571-1.132c5.5-.978,9.506,1.724,10.353,6.482,1.209,6.9-4.341,10.523-10.507,11.629a14.6,14.6,0,0,1-2.5.229C167.5,32.363,165.347,30.813,164.947,28.635Zm5.652-3.088a1.971,1.971,0,0,0-1.542,2.5,3.128,3.128,0,0,0,3.751,2.213,7.513,7.513,0,0,0,1.337-.361c-.36-1.587-1.035-4.39-3.1-4.39A2.531,2.531,0,0,0,170.6,25.547Zm19.989,2.394c.694-5.507,1.722-11.037,3.725-21.561.155-.745.719-4.193.976-6.379l6.064.72c-1.285,5.043-2.184,9.674-2.543,11.578a8.85,8.85,0,0,1,4.393-2.059c3.88-.694,5.267,1.339,5.7,3.859.155.849.462,5.17.643,6.123.231,1.338.642,1.673,1.515,1.519,1-.18,2.569-1.235,3.547-6.509l2.389.875c-.463,2.469-1.8,9.132-7.58,10.162-3.8.669-4.984-2.469-5.241-3.833-.205-1.132-.693-6.766-.8-7.358-.205-1.132-.744-1.878-2.132-1.646-1.952.335-2.852,2.419-3.314,4.04a100.587,100.587,0,0,0-1.722,10.959Z" transform="translate(9 9)" fill="#fff"/>
    </g>
    <g transform="matrix(1, 0, 0, 1, -6.81, -6.81)" filter="url(#合体_8)">
      <path id="合体_8-2" data-name="合体 8" d="M14.306,97.122c6.989-3.37,14.055-8.567,13.232-22.022l-16.7,2.958-.385-2.238,20.814-3.675,0,0h.026l-.021,0,2.54,2.1C33.345,88.555,27.384,94.086,15.746,99Zm35.456-6.534c7.99-2.857,12.152-6.716,11.433-15.824L43.288,77.929,42.9,75.691l22.147-3.91-.026.025,2.261.977a18.193,18.193,0,0,1-2.519,11.191c-3.673,5.712-10.353,7.667-13.591,8.593Zm31.422-4.5c9.173-3.344,12.333-7.41,10.2-19.784L79.309,68.436l1.208,6.817-5.549.978L73.374,67.2l8.813-1.569-.925-5.2,5.6-.667.847,4.888,7.6-1.338,2.313,1.313c.333,2.753,1,8.619-1.8,14.046-3.366,6.483-9.866,8.439-13.155,9.417Zm23.458-8.206v-.027c12.281-3.37,17.547-8.747,21.812-17.57l2.03,1c-3.366,10.856-8.812,16.543-20.4,21.895ZM30.468,70.031l1.361-1.415a26.57,26.57,0,0,1,4.163,2.959l-1.9,1.93A15.485,15.485,0,0,0,30.468,70.031Zm2.646-1.93,1.439-1.414A23.024,23.024,0,0,1,38.3,69.1l-1.8,1.9A16.736,16.736,0,0,0,33.114,68.1Zm11.638.643,18.216-3.215.385,2.237L45.137,70.984Zm58.193-10.186.719-1.982a25.551,25.551,0,0,1,11.818,2.856L112.4,64.423A23.989,23.989,0,0,0,102.946,58.558ZM7.117,55.931a27.433,27.433,0,0,1-1.361,6.046l-1.849-.309a45.69,45.69,0,0,0-.643-7.718l-.283-1.57,3.521.1-.334-1.956c-1.079.411-2.338.978-3.314,1.235L1.516,47.93c1.67-.309,1.85-.335,2.338-.437.154-.413.385-.978.9-2.522A40.64,40.64,0,0,0,0,39.415l.976-2.136c.514.283.693.386,1.361.8.026-.361.257-2.521.231-4.939l4.96.8a52.871,52.871,0,0,1-2.672,5.944,8.191,8.191,0,0,1,1.182.9c.333-1.132.925-3.294,1.258-4.889l5.524,1.183c-.205.643-2.9,5.12-3.159,5.506l1.67-1.054c1.464,1.723,2.183,2.623,3.083,3.807L12.23,32.88l15.544-2.753,4.907,27.915L27.8,58.89l-.309-1.672-5.833,1.03.309,1.672-4.856.849-.9-5.042-2.865,2.366a37.634,37.634,0,0,0-2.067-6.713l1.8,10.136-4.831.85Zm12.461-9.982,1.8,10.163,1.027-.181-1.8-10.162Zm4.831-.823,1.8,10.162,1-.18-1.8-10.163ZM12.923,50.168c.951,1,2.492,2.522,2.9,2.907l-.8-4.45Zm-2.158-1.749.437,2.547,1.13-.8c-.154-.694-.462-1.595-.642-2.186C11.15,48.264,11,48.316,10.765,48.419ZM7.117,46.773c.591-.155,3.264-.824,3.8-.978a26.527,26.527,0,0,0-1.31-2.959C9.1,43.685,7.991,45.486,7.117,46.773ZM17.5,34.192l1.7,9.57,1.027-.18-1.7-9.57Zm4.83-.823,1.695,9.57,1-.181-1.7-9.569ZM13.283,58.144l.064-.053c0,.026.009.052.014.079Zm27.465-5.865c8.017-3.706,13.746-9.134,13.412-22.048L37.306,33.215l-.386-2.239,21.2-3.756,2.234,1.03-.026.026c-.1,13.764-5.19,20.606-17.984,25.932ZM72.53,47.827c5.936-2.624,8.222-5.917,6.835-13.841L68.312,35.938l-.38-2.209L79,31.773l-.925-5.2c-2.646.668-4.7,1.157-8.093,1.775l-1.439-2.316c8.4-1.569,14.747-4.245,18.575-6.843l3.34,3.293a41.1,41.1,0,0,1-6.68,2.546l1,5.737,9.4-1.672.385,2.239-9.4,1.646c1.232,8.824-2.133,13.61-11.228,16.774Zm36.124-6.971c1.054-.1,1.979-.155,3.854-.489,1.49-.257,8.53-1.544,7.631-6.689-.59-3.37-3.417-4.116-6.064-3.653-4.572.8-5.935,4.888-6.346,6.226l-4.856-1.029c.462-1.827,1.028-4.3,2.082-11.038-3.417.695-4.111.824-5.036.978l-.412-2.393v-.026c2.21-.437,2.622-.489,5.807-1.132a49.916,49.916,0,0,0,.54-5.634l5.7.1c-.128.926-.205,1.646-.642,4.374,7.168-1.57,8.273-1.9,10.1-2.444l.36,2.418c-3.854,1.03-8.53,2.033-10.843,2.547-.205,1.183-.694,4.117-1.208,6.613a13.667,13.667,0,0,1,6.347-2.857c4.624-.823,9.275.67,10.148,5.609a7.177,7.177,0,0,1-2.312,6.715c-2.621,2.445-7.888,3.319-13.745,4.3Zm29.033-3.14c2.9-1.492,3.648-2.365,4.136-3.961a6.339,6.339,0,0,1-5.036-2.933l1.979-1.389a4.1,4.1,0,0,0,3.288,2.264,34.783,34.783,0,0,0-.694-5.326c-.411-2.315-.642-3.5-1-5.12a7.987,7.987,0,0,0-4.265,8.08,43.766,43.766,0,0,0,1.285,5.094l-4.059,1.312c-.668-2.779-1.156-5.378-1.285-6.021A107.671,107.671,0,0,1,130.7,18.6l4.291-.335c0,1.542.205,3.859.359,5.377a8.563,8.563,0,0,1,4.625-4.246c-.309-1.184-.566-2.393-.925-3.524l4.573-.668c.282,1.235.642,2.907.694,3.189,1.85-.05,6.706-.153,7.759,5.841,1.208,6.894-4.5,8.567-6.242,9.082-.823,2.135-1.851,3.755-6.937,5.943Zm8.145-11.525a22.477,22.477,0,0,1,.437,4.476c.719-.566,2.209-1.724,1.541-5.557v.026c-.616-3.524-2.312-4.168-3.006-4.451C145.061,22.2,145.5,24.236,145.832,26.191Zm-77.541,9.75.021,0,.005.03Zm96.656-7.306c-.386-2.136.668-4.709,5.035-5.479a7.616,7.616,0,0,1,3.957.282c2.184.8,2.9,2.161,3.6,3.885a6.645,6.645,0,0,0,1.053-5.351c-.488-2.805-2.466-5.841-6.706-5.094-3.6.643-5.318,3.087-9.4,10.033l-4.651-2.855c4.24-6.251,9.044-12.863,11.433-16.106-2.878.8-6.4,1.647-8.889,2.136l-.566-2.7.026.026c3.8-.668,10.277-1.928,15.775-3.267l1.824,2.007c-1.979,2.315-5.215,6.252-7.322,9a12.055,12.055,0,0,1,3.571-1.132c5.5-.978,9.506,1.724,10.353,6.482,1.209,6.9-4.341,10.523-10.507,11.629a14.6,14.6,0,0,1-2.5.229C167.5,32.363,165.347,30.813,164.947,28.635Zm5.652-3.088a1.971,1.971,0,0,0-1.542,2.5,3.128,3.128,0,0,0,3.751,2.213,7.513,7.513,0,0,0,1.337-.361c-.36-1.587-1.035-4.39-3.1-4.39A2.531,2.531,0,0,0,170.6,25.547Zm19.989,2.394c.694-5.507,1.722-11.037,3.725-21.561.155-.745.719-4.193.976-6.379l6.064.72c-1.285,5.043-2.184,9.674-2.543,11.578a8.85,8.85,0,0,1,4.393-2.059c3.88-.694,5.267,1.339,5.7,3.859.155.849.462,5.17.643,6.123.231,1.338.642,1.673,1.515,1.519,1-.18,2.569-1.235,3.547-6.509l2.389.875c-.463,2.469-1.8,9.132-7.58,10.162-3.8.669-4.984-2.469-5.241-3.833-.205-1.132-.693-6.766-.8-7.358-.205-1.132-.744-1.878-2.132-1.646-1.952.335-2.852,2.419-3.314,4.04a100.587,100.587,0,0,0-1.722,10.959Z" transform="translate(9 9)" fill="#fff"/>
    </g>
  </g>
</svg>
