<svg xmlns="http://www.w3.org/2000/svg" width="53.571" height="10.089" viewBox="0 0 53.571 10.089">
  <g id="グループ_2669" data-name="グループ 2669" transform="translate(1 0)">
    <path id="パス_7729" data-name="パス 7729" d="M151.256,359.108a3.7,3.7,0,0,0-3.556-3.832,3.408,3.408,0,0,0-2.4,1,3.414,3.414,0,0,0-2.4-1,3.7,3.7,0,0,0-3.558,3.832A4,4,0,0,0,141,362.339l0,0,.017.01c.121.082,4.291,3.014,4.291,3.014s4.169-2.932,4.291-3.014l.016-.01,0,0a4,4,0,0,0,1.647-3.231" transform="translate(-98.685 -355.276)" fill="#fff"/>
    <line id="線_227" data-name="線 227" x1="35.033" transform="translate(0 5.044)" fill="none" stroke="#fff" stroke-linecap="round" stroke-width="2" stroke-dasharray="0.2 4"/>
  </g>
</svg>
