<svg xmlns="http://www.w3.org/2000/svg" width="301.666" height="43.403" viewBox="0 0 301.666 43.403">
  <g id="グループ_3933" data-name="グループ 3933" transform="translate(72.518 -39.563)">
    <path id="パス_10095" data-name="パス 10095" d="M1.482.156c1.911-.117,3.666-.2,5.265-.2,2.652,0,5.07.2,7.215.2,7.644,0,11.544-2.5,11.544-7.1,0-4.134-3.12-6.357-8.814-7.059,4.719-.663,7.137-2.769,7.137-5.967,0-4.212-3.549-6.279-10.764-6.279-2.067,0-4.329.234-6.747.234-1.209,0-2.808-.078-4.836-.234v1.6c3.042.039,3.666.741,3.666,3.354V-5.109c0,2.73-.7,3.549-3.666,3.588ZM11.193-12.87c.468-.039.9-.039,1.287-.039,4.212,0,6.123,1.677,6.123,5.5,0,3.705-1.443,5.538-4.368,5.538-2.34,0-3.042-1.248-3.042-4.446Zm0-1.872V-23.6c0-.585.117-.741,1.4-.741,3.237,0,4.8,1.443,4.8,4.485,0,3.666-1.443,5.148-5.3,5.148C11.817-14.7,11.505-14.742,11.193-14.742ZM31.278.078C33.579,0,35.256,0,36.426,0,38.3,0,40.17.039,41.964.078V-1.365c-2.028,0-2.73-.312-2.73-1.911v-7.332c0-1.911,1.248-3.7,2.262-3.7.936,0,1.287,2.028,3.081,2.028A2.242,2.242,0,0,0,47-14.664c0-1.755-1.17-2.769-3.2-2.769-1.716,0-3.471,1.053-4.914,3.2l-.312-3.393h-.663a27.522,27.522,0,0,1-6.591,1.365V-14.9c2.028.039,2.418,1.014,2.418,3.549v7.956c0,1.482-.546,1.833-2.457,2.028ZM60.684-1.95a3.259,3.259,0,0,0,3.588,2.5,5.824,5.824,0,0,0,4.524-2.3l-.819-1.053a2.831,2.831,0,0,1-1.287.585c-.507,0-.7-.312-.7-1.092v-9.2c0-3.393-2.5-5.07-7.41-5.07-4.68,0-7.293,1.56-7.293,3.744a2.11,2.11,0,0,0,2.184,2.184c1.833,0,2.145-1.482,2.769-2.847a2.6,2.6,0,0,1,2.418-1.56c1.4,0,2.184.819,2.184,2.418v1.326A1.238,1.238,0,0,1,59.865-11L57.1-9.984c-4.446,1.677-6.474,3.042-6.474,6.123A4.149,4.149,0,0,0,55.146.546,8.13,8.13,0,0,0,60.684-1.95Zm-.039-3.315a2.651,2.651,0,0,1-2.691,2.613c-1.092,0-1.872-.9-1.872-2.379,0-2.223,1.443-3.549,4.563-4.524ZM72.306.117C73.983.039,75.543,0,77.025,0c1.326,0,3.12.039,5.421.117v-1.4c-1.872-.039-2.3-.624-2.3-2.418V-9.789c0-3.081,1.56-4.953,3.783-4.953,1.56,0,2.34,1.131,2.34,3.354V-3.51c0,1.755-.39,2.223-2.223,2.223v1.4C85.917.039,87.555,0,88.92,0c1.6,0,3.276.039,5.07.117v-1.4c-2.145-.156-2.3-.507-2.3-2.223v-7.878c0-4.134-1.872-6.2-5.5-6.2a7.856,7.856,0,0,0-6.357,3.432L79.6-17.589h-.663a27.145,27.145,0,0,1-6.63,1.365v1.443c1.95,0,2.418.507,2.418,2.574v8.7c0,1.677-.195,2.028-2.418,2.223Zm40.365.39a42.1,42.1,0,0,1,7.449-1.521V-2.379c-1.833-.039-2.613-.429-2.613-1.638V-27.729a38.264,38.264,0,0,1-8.346,1.053v1.4c2.418.117,3,.39,3,2.067v7.878a7.2,7.2,0,0,0-5.538-2.3c-4.641,0-8.268,3.783-8.268,9.087,0,5.538,3.12,9.048,8.034,9.048a6.4,6.4,0,0,0,5.85-3.159Zm-.624-11.622v4.173c0,3.042-1.482,4.641-4.056,4.641-2.457,0-3.705-2.106-3.705-6.24,0-4.329,1.482-6.552,4.056-6.552C110.682-15.093,112.047-13.689,112.047-11.115Zm48.282,1.989c-1.092,4.914-3.783,7.488-7.722,7.488-4.875,0-7.956-4.056-7.956-11.388,0-7.371,3.276-11.7,8.034-11.7,3.432,0,6.162,2.418,7.332,6.747h1.638l-.234-8.424h-1.716l-.663,2.184a12.126,12.126,0,0,0-7.644-2.457,13.26,13.26,0,0,0-11.115,5.538,14.093,14.093,0,0,0-2.613,8.58C137.67-4.719,143.091.7,151.008.7a13.632,13.632,0,0,0,8.5-2.925L160.368,0h1.6V-9.126Zm6.981.663c0,5.226,3.978,9.009,9.555,9.009,5.889,0,9.828-3.744,9.828-9.321,0-5.109-3.9-8.814-9.477-8.814C171.288-17.589,167.31-13.728,167.31-8.463Zm5.889.078c0-5.148,1.131-7.566,3.9-7.566,2.613,0,3.744,2.34,3.744,7.137,0,5.265-.975,7.722-3.783,7.722C174.057-1.092,173.2-3.393,173.2-8.385Zm17.862,8.5C192.738.039,194.3,0,195.78,0c1.326,0,3.12.039,5.421.117v-1.4c-1.872-.039-2.3-.624-2.3-2.418V-9.789c0-3.081,1.56-4.953,3.783-4.953,1.56,0,2.34,1.131,2.34,3.354V-3.51c0,1.755-.39,2.223-2.223,2.223v1.4C204.672.039,206.31,0,207.675,0c1.6,0,3.276.039,5.07.117v-1.4c-2.145-.156-2.3-.507-2.3-2.223v-7.878c0-4.134-1.872-6.2-5.5-6.2a7.856,7.856,0,0,0-6.357,3.432l-.234-3.432h-.663a27.145,27.145,0,0,1-6.63,1.365v1.443c1.95,0,2.418.507,2.418,2.574v8.7c0,1.677-.195,2.028-2.418,2.223Zm41.3-4.6a5.853,5.853,0,0,1-4.68,2.613c-3.081,0-4.68-2.379-4.68-7.059,0-4.563,1.326-7.02,3.432-7.02,1.755,0,2.028,1.326,2.613,2.613a2.526,2.526,0,0,0,2.3,1.716,1.967,1.967,0,0,0,2.145-2.067c0-2.3-2.418-3.9-6.552-3.9-5.811,0-9.789,3.861-9.789,9.36,0,5.265,3.51,8.775,8.658,8.775a9.039,9.039,0,0,0,7.8-3.822Zm22.074,0a10.533,10.533,0,0,1-1.872,1.794,5.164,5.164,0,0,1-2.847.819c-3.276,0-5.148-2.3-5.148-6.669,0-.234.039-.507.039-.78h11.466v-.312c0-5.109-2.886-7.995-7.761-7.995-5.811,0-9.672,3.861-9.672,9.243,0,5.226,3.822,8.931,9.321,8.931a8.8,8.8,0,0,0,7.8-3.861Zm-9.828-6.669c.273-3.237,1.365-4.836,3.432-4.836,1.911,0,2.964,1.521,2.964,4.368v.468ZM260.013,10.92c2.808-.117,4.641-.195,5.46-.195,1.638,0,3.549.078,5.694.195V9.555c-2.574-.156-3-.663-3-3V-1.677a8,8,0,0,0,5.5,2.262c4.641,0,8.151-3.744,8.151-9.087s-3.432-9.087-7.995-9.087c-2.34,0-4.173,1.053-5.967,3.315v-3.315h-.741a31.326,31.326,0,0,1-6.864,1.209v1.521c2.457,0,2.652,1.17,2.652,4.173V6.864c0,2.067-.507,2.5-2.886,2.691Zm8.151-17v-3.978c0-2.925,1.6-4.719,3.822-4.719,2.574,0,4.017,2.106,4.017,6.2,0,4.485-1.326,6.63-4.29,6.63C269.451-1.95,268.164-3.354,268.164-6.084Zm20.2,1.287c0,3.7,1.014,5.343,4.485,5.343a6.309,6.309,0,0,0,5.655-3.081L297.18-3.627a2.593,2.593,0,0,1-2.145,1.482c-1.092,0-1.287-.663-1.287-1.989V-15.366h4.017V-17.16h-4.017v-5.46h-1.521c-1.17,3.159-2.925,5.187-5.811,5.694v1.56h1.95Z" transform="translate(-72 69.934)" fill="#fff" stroke="#e8aeb8" stroke-width="4"/>
    <path id="パス_10094" data-name="パス 10094" d="M1.482.156c1.911-.117,3.666-.2,5.265-.2,2.652,0,5.07.2,7.215.2,7.644,0,11.544-2.5,11.544-7.1,0-4.134-3.12-6.357-8.814-7.059,4.719-.663,7.137-2.769,7.137-5.967,0-4.212-3.549-6.279-10.764-6.279-2.067,0-4.329.234-6.747.234-1.209,0-2.808-.078-4.836-.234v1.6c3.042.039,3.666.741,3.666,3.354V-5.109c0,2.73-.7,3.549-3.666,3.588ZM11.193-12.87c.468-.039.9-.039,1.287-.039,4.212,0,6.123,1.677,6.123,5.5,0,3.705-1.443,5.538-4.368,5.538-2.34,0-3.042-1.248-3.042-4.446Zm0-1.872V-23.6c0-.585.117-.741,1.4-.741,3.237,0,4.8,1.443,4.8,4.485,0,3.666-1.443,5.148-5.3,5.148C11.817-14.7,11.505-14.742,11.193-14.742ZM31.278.078C33.579,0,35.256,0,36.426,0,38.3,0,40.17.039,41.964.078V-1.365c-2.028,0-2.73-.312-2.73-1.911v-7.332c0-1.911,1.248-3.7,2.262-3.7.936,0,1.287,2.028,3.081,2.028A2.242,2.242,0,0,0,47-14.664c0-1.755-1.17-2.769-3.2-2.769-1.716,0-3.471,1.053-4.914,3.2l-.312-3.393h-.663a27.522,27.522,0,0,1-6.591,1.365V-14.9c2.028.039,2.418,1.014,2.418,3.549v7.956c0,1.482-.546,1.833-2.457,2.028ZM60.684-1.95a3.259,3.259,0,0,0,3.588,2.5,5.824,5.824,0,0,0,4.524-2.3l-.819-1.053a2.831,2.831,0,0,1-1.287.585c-.507,0-.7-.312-.7-1.092v-9.2c0-3.393-2.5-5.07-7.41-5.07-4.68,0-7.293,1.56-7.293,3.744a2.11,2.11,0,0,0,2.184,2.184c1.833,0,2.145-1.482,2.769-2.847a2.6,2.6,0,0,1,2.418-1.56c1.4,0,2.184.819,2.184,2.418v1.326A1.238,1.238,0,0,1,59.865-11L57.1-9.984c-4.446,1.677-6.474,3.042-6.474,6.123A4.149,4.149,0,0,0,55.146.546,8.13,8.13,0,0,0,60.684-1.95Zm-.039-3.315a2.651,2.651,0,0,1-2.691,2.613c-1.092,0-1.872-.9-1.872-2.379,0-2.223,1.443-3.549,4.563-4.524ZM72.306.117C73.983.039,75.543,0,77.025,0c1.326,0,3.12.039,5.421.117v-1.4c-1.872-.039-2.3-.624-2.3-2.418V-9.789c0-3.081,1.56-4.953,3.783-4.953,1.56,0,2.34,1.131,2.34,3.354V-3.51c0,1.755-.39,2.223-2.223,2.223v1.4C85.917.039,87.555,0,88.92,0c1.6,0,3.276.039,5.07.117v-1.4c-2.145-.156-2.3-.507-2.3-2.223v-7.878c0-4.134-1.872-6.2-5.5-6.2a7.856,7.856,0,0,0-6.357,3.432L79.6-17.589h-.663a27.145,27.145,0,0,1-6.63,1.365v1.443c1.95,0,2.418.507,2.418,2.574v8.7c0,1.677-.195,2.028-2.418,2.223Zm40.365.39a42.1,42.1,0,0,1,7.449-1.521V-2.379c-1.833-.039-2.613-.429-2.613-1.638V-27.729a38.264,38.264,0,0,1-8.346,1.053v1.4c2.418.117,3,.39,3,2.067v7.878a7.2,7.2,0,0,0-5.538-2.3c-4.641,0-8.268,3.783-8.268,9.087,0,5.538,3.12,9.048,8.034,9.048a6.4,6.4,0,0,0,5.85-3.159Zm-.624-11.622v4.173c0,3.042-1.482,4.641-4.056,4.641-2.457,0-3.705-2.106-3.705-6.24,0-4.329,1.482-6.552,4.056-6.552C110.682-15.093,112.047-13.689,112.047-11.115Zm48.282,1.989c-1.092,4.914-3.783,7.488-7.722,7.488-4.875,0-7.956-4.056-7.956-11.388,0-7.371,3.276-11.7,8.034-11.7,3.432,0,6.162,2.418,7.332,6.747h1.638l-.234-8.424h-1.716l-.663,2.184a12.126,12.126,0,0,0-7.644-2.457,13.26,13.26,0,0,0-11.115,5.538,14.093,14.093,0,0,0-2.613,8.58C137.67-4.719,143.091.7,151.008.7a13.632,13.632,0,0,0,8.5-2.925L160.368,0h1.6V-9.126Zm6.981.663c0,5.226,3.978,9.009,9.555,9.009,5.889,0,9.828-3.744,9.828-9.321,0-5.109-3.9-8.814-9.477-8.814C171.288-17.589,167.31-13.728,167.31-8.463Zm5.889.078c0-5.148,1.131-7.566,3.9-7.566,2.613,0,3.744,2.34,3.744,7.137,0,5.265-.975,7.722-3.783,7.722C174.057-1.092,173.2-3.393,173.2-8.385Zm17.862,8.5C192.738.039,194.3,0,195.78,0c1.326,0,3.12.039,5.421.117v-1.4c-1.872-.039-2.3-.624-2.3-2.418V-9.789c0-3.081,1.56-4.953,3.783-4.953,1.56,0,2.34,1.131,2.34,3.354V-3.51c0,1.755-.39,2.223-2.223,2.223v1.4C204.672.039,206.31,0,207.675,0c1.6,0,3.276.039,5.07.117v-1.4c-2.145-.156-2.3-.507-2.3-2.223v-7.878c0-4.134-1.872-6.2-5.5-6.2a7.856,7.856,0,0,0-6.357,3.432l-.234-3.432h-.663a27.145,27.145,0,0,1-6.63,1.365v1.443c1.95,0,2.418.507,2.418,2.574v8.7c0,1.677-.195,2.028-2.418,2.223Zm41.3-4.6a5.853,5.853,0,0,1-4.68,2.613c-3.081,0-4.68-2.379-4.68-7.059,0-4.563,1.326-7.02,3.432-7.02,1.755,0,2.028,1.326,2.613,2.613a2.526,2.526,0,0,0,2.3,1.716,1.967,1.967,0,0,0,2.145-2.067c0-2.3-2.418-3.9-6.552-3.9-5.811,0-9.789,3.861-9.789,9.36,0,5.265,3.51,8.775,8.658,8.775a9.039,9.039,0,0,0,7.8-3.822Zm22.074,0a10.533,10.533,0,0,1-1.872,1.794,5.164,5.164,0,0,1-2.847.819c-3.276,0-5.148-2.3-5.148-6.669,0-.234.039-.507.039-.78h11.466v-.312c0-5.109-2.886-7.995-7.761-7.995-5.811,0-9.672,3.861-9.672,9.243,0,5.226,3.822,8.931,9.321,8.931a8.8,8.8,0,0,0,7.8-3.861Zm-9.828-6.669c.273-3.237,1.365-4.836,3.432-4.836,1.911,0,2.964,1.521,2.964,4.368v.468ZM260.013,10.92c2.808-.117,4.641-.195,5.46-.195,1.638,0,3.549.078,5.694.195V9.555c-2.574-.156-3-.663-3-3V-1.677a8,8,0,0,0,5.5,2.262c4.641,0,8.151-3.744,8.151-9.087s-3.432-9.087-7.995-9.087c-2.34,0-4.173,1.053-5.967,3.315v-3.315h-.741a31.326,31.326,0,0,1-6.864,1.209v1.521c2.457,0,2.652,1.17,2.652,4.173V6.864c0,2.067-.507,2.5-2.886,2.691Zm8.151-17v-3.978c0-2.925,1.6-4.719,3.822-4.719,2.574,0,4.017,2.106,4.017,6.2,0,4.485-1.326,6.63-4.29,6.63C269.451-1.95,268.164-3.354,268.164-6.084Zm20.2,1.287c0,3.7,1.014,5.343,4.485,5.343a6.309,6.309,0,0,0,5.655-3.081L297.18-3.627a2.593,2.593,0,0,1-2.145,1.482c-1.092,0-1.287-.663-1.287-1.989V-15.366h4.017V-17.16h-4.017v-5.46h-1.521c-1.17,3.159-2.925,5.187-5.811,5.694v1.56h1.95Z" transform="translate(-72 69.934)" fill="#fff"/>
  </g>
</svg>
