<svg xmlns="http://www.w3.org/2000/svg" width="345" height="81" viewBox="0 0 345 81">
  <g id="_01" data-name="01" transform="translate(-15 -6237)">
    <rect id="長方形_884" data-name="長方形 884" width="344" height="77" rx="38.5" transform="translate(16 6241)" fill="#de8ca0"/>
    <g id="パス_9932" data-name="パス 9932" transform="translate(15 6237)" fill="#fff">
      <path d="M 305.5 76 L 38.5 76 C 33.43709182739258 76 28.52618217468262 75.00863647460938 23.90363693237305 73.05345153808594 C 19.43827247619629 71.16477203369141 15.42777252197266 68.46076965332031 11.98349952697754 65.01650238037109 C 8.539227485656738 61.57222747802734 5.835227489471436 57.56172561645508 3.946545362472534 53.09636306762695 C 1.991363644599915 48.47381973266602 1 43.56290817260742 1 38.5 C 1 33.43709182739258 1.991363644599915 28.52618217468262 3.946545362472534 23.90363693237305 C 5.835227489471436 19.43827247619629 8.539227485656738 15.42777252197266 11.98349952697754 11.98349952697754 C 15.42777252197266 8.539227485656738 19.43827247619629 5.835227489471436 23.90363693237305 3.946545362472534 C 28.52618217468262 1.991363644599915 33.43709182739258 1 38.5 1 L 305.5 1 C 310.5628967285156 1 315.4738159179688 1.991363644599915 320.0963745117188 3.946545362472534 C 324.5617370605469 5.835227489471436 328.5722351074219 8.539227485656738 332.0165100097656 11.98349952697754 C 335.4607849121094 15.42777252197266 338.1647644042969 19.43827247619629 340.053466796875 23.90363693237305 C 342.0086364746094 28.52618217468262 343 33.43709182739258 343 38.5 C 343 43.56290817260742 342.0086364746094 48.47381973266602 340.053466796875 53.09636306762695 C 338.1647644042969 57.56172561645508 335.4607849121094 61.57222747802734 332.0165100097656 65.01650238037109 C 328.5722351074219 68.46076965332031 324.5617370605469 71.16477203369141 320.0963745117188 73.05345153808594 C 315.4738159179688 75.00863647460938 310.5628967285156 76 305.5 76 Z" stroke="none"/>
      <path d="M 38.5 2 C 33.57162475585938 2 28.79177856445312 2.964775085449219 24.29318237304688 4.867546081542969 C 19.94699096679688 6.705818176269531 16.04336547851562 9.337860107421875 12.69058227539062 12.69058990478516 C 9.337860107421875 16.04336547851562 6.705810546875 19.94699859619141 4.8675537109375 24.29318237304688 C 2.96478271484375 28.79177093505859 2 33.57163619995117 2 38.5 C 2 43.42836380004883 2.96478271484375 48.20822906494141 4.8675537109375 52.70681762695312 C 6.705810546875 57.05300140380859 9.337860107421875 60.95663452148438 12.69058227539062 64.30941009521484 C 16.04336547851562 67.66213989257812 19.94699096679688 70.29418182373047 24.29318237304688 72.13245391845703 C 28.79177856445312 74.03522491455078 33.57162475585938 75 38.5 75 L 305.5 75 C 310.4283752441406 75 315.2082214355469 74.03522491455078 319.7068176269531 72.13245391845703 C 324.0530090332031 70.29418182373047 327.9566345214844 67.66213989257812 331.3094177246094 64.30941009521484 C 334.6621398925781 60.95663452148438 337.294189453125 57.05300140380859 339.1324462890625 52.70681762695312 C 341.0352172851562 48.20822906494141 342 43.42836380004883 342 38.5 C 342 33.57163619995117 341.0352172851562 28.79177093505859 339.1324462890625 24.29318237304688 C 337.294189453125 19.94699859619141 334.6621398925781 16.04336547851562 331.3094177246094 12.69058990478516 C 327.9566345214844 9.337860107421875 324.0530090332031 6.705818176269531 319.7068176269531 4.867546081542969 C 315.2082214355469 2.964775085449219 310.4283752441406 2 305.5 2 L 38.5 2 M 38.5 0 L 305.5 0 C 326.762939453125 0 344 17.23704528808594 344 38.5 C 344 59.76295471191406 326.762939453125 77 305.5 77 L 38.5 77 C 17.237060546875 77 0 59.76295471191406 0 38.5 C 0 17.23704528808594 17.237060546875 0 38.5 0 Z" stroke="none" fill="#de8ca0"/>
    </g>
    <path id="パス_9934" data-name="パス 9934" d="M1.11.09C3.15.03,4.86,0,6.27,0c1.08,0,2.82.03,5.19.09v-1.2C9.27-1.2,8.67-1.89,8.67-4.05V-9.51h8.88v5.46c0,2.31-.33,2.88-2.79,2.94V.09C16.86.03,18.57,0,19.92,0c1.2,0,2.94.03,5.19.09v-1.2c-2.22-.03-2.79-.78-2.79-2.94V-16.23c0-1.95.54-2.67,2.67-2.67h.12v-1.23c-1.08.09-2.37.09-3.84.09-1.68,0-3.84,0-6.51-.09v1.23c2.58.03,2.79.63,2.79,2.67v5.19H8.67v-5.19c0-1.92.63-2.67,2.46-2.67h.33v-1.23c-2.04.06-3.78.09-5.19.09-1.44,0-3.15-.03-5.16-.09v1.23h.18c2.37,0,2.61.66,2.61,2.67V-4.05c0,2.31-.33,2.88-2.79,2.94ZM39.3-3.45a8.1,8.1,0,0,1-1.44,1.38,3.972,3.972,0,0,1-2.19.63c-2.52,0-3.96-1.77-3.96-5.13,0-.18.03-.39.03-.6h8.82v-.24c0-3.93-2.22-6.15-5.97-6.15-4.47,0-7.44,2.97-7.44,7.11,0,4.02,2.94,6.87,7.17,6.87a6.768,6.768,0,0,0,6-2.97ZM31.74-8.58c.21-2.49,1.05-3.72,2.64-3.72,1.47,0,2.28,1.17,2.28,3.36v.36ZM42.18.06C43.95,0,45.24,0,46.14,0c1.44,0,2.88.03,4.26.06V-1.05c-1.56,0-2.1-.24-2.1-1.47V-8.16c0-1.47.96-2.85,1.74-2.85.72,0,.99,1.56,2.37,1.56a1.725,1.725,0,0,0,1.86-1.83c0-1.35-.9-2.13-2.46-2.13a4.751,4.751,0,0,0-3.78,2.46l-.24-2.61h-.51a21.171,21.171,0,0,1-5.07,1.05v1.05c1.56.03,1.86.78,1.86,2.73v6.12c0,1.14-.42,1.41-1.89,1.56ZM55.2-6.51c0,4.02,3.06,6.93,7.35,6.93,4.53,0,7.56-2.88,7.56-7.17,0-3.93-3-6.78-7.29-6.78C58.26-13.53,55.2-10.56,55.2-6.51Zm4.53.06c0-3.96.87-5.82,3-5.82,2.01,0,2.88,1.8,2.88,5.49,0,4.05-.75,5.94-2.91,5.94C60.39-.84,59.73-2.61,59.73-6.45ZM71.79.09C73.11.03,74.55,0,76.08,0c.6,0,1.83.03,3.75.09V-1.05c-1.59-.09-1.89-.33-1.89-1.59V-13.62h-.45a27.413,27.413,0,0,1-5.7,1.05v1.05c1.53.06,1.89.36,1.89,1.8v7.08c0,1.23-.27,1.5-1.89,1.59Zm1.56-19.05a2.279,2.279,0,0,0,2.28,2.28,2.279,2.279,0,0,0,2.28-2.28,2.26,2.26,0,0,0-2.28-2.28A2.26,2.26,0,0,0,73.35-18.96ZM81.48.09C82.77.03,83.97,0,85.11,0c1.02,0,2.4.03,4.17.09V-.99c-1.44-.03-1.77-.48-1.77-1.86V-7.53c0-2.37,1.2-3.81,2.91-3.81,1.2,0,1.8.87,1.8,2.58V-2.7c0,1.35-.3,1.71-1.71,1.71V.09C91.95.03,93.21,0,94.26,0c1.23,0,2.52.03,3.9.09V-.99c-1.65-.12-1.77-.39-1.77-1.71V-8.76c0-3.18-1.44-4.77-4.23-4.77a6.043,6.043,0,0,0-4.89,2.64l-.18-2.64h-.51a20.881,20.881,0,0,1-5.1,1.05v1.11c1.5,0,1.86.39,1.86,1.98V-2.7c0,1.29-.15,1.56-1.86,1.71Zm30.33-3.54a8.1,8.1,0,0,1-1.44,1.38,3.972,3.972,0,0,1-2.19.63c-2.52,0-3.96-1.77-3.96-5.13,0-.18.03-.39.03-.6h8.82v-.24c0-3.93-2.22-6.15-5.97-6.15-4.47,0-7.44,2.97-7.44,7.11,0,4.02,2.94,6.87,7.17,6.87a6.768,6.768,0,0,0,6-2.97Zm-7.56-5.13c.21-2.49,1.05-3.72,2.64-3.72,1.47,0,2.28,1.17,2.28,3.36v.36ZM123.18.12c1.47-.09,2.82-.15,4.05-.15,2.04,0,3.9.15,5.55.15,5.88,0,8.88-1.92,8.88-5.46,0-3.18-2.4-4.89-6.78-5.43,3.63-.51,5.49-2.13,5.49-4.59,0-3.24-2.73-4.83-8.28-4.83-1.59,0-3.33.18-5.19.18-.93,0-2.16-.06-3.72-.18v1.23c2.34.03,2.82.57,2.82,2.58V-3.93c0,2.1-.54,2.73-2.82,2.76ZM130.65-9.9c.36-.03.69-.03.99-.03,3.24,0,4.71,1.29,4.71,4.23,0,2.85-1.11,4.26-3.36,4.26-1.8,0-2.34-.96-2.34-3.42Zm0-1.44v-6.81c0-.45.09-.57,1.08-.57,2.49,0,3.69,1.11,3.69,3.45,0,2.82-1.11,3.96-4.08,3.96C131.13-11.31,130.89-11.34,130.65-11.34ZM144.3.06C146.07,0,147.36,0,148.26,0c1.44,0,2.88.03,4.26.06V-1.05c-1.56,0-2.1-.24-2.1-1.47V-8.16c0-1.47.96-2.85,1.74-2.85.72,0,.99,1.56,2.37,1.56a1.725,1.725,0,0,0,1.86-1.83c0-1.35-.9-2.13-2.46-2.13a4.751,4.751,0,0,0-3.78,2.46l-.24-2.61h-.51a21.171,21.171,0,0,1-5.07,1.05v1.05c1.56.03,1.86.78,1.86,2.73v6.12c0,1.14-.42,1.41-1.89,1.56Zm13.02-6.57c0,4.02,3.06,6.93,7.35,6.93,4.53,0,7.56-2.88,7.56-7.17,0-3.93-3-6.78-7.29-6.78C160.38-13.53,157.32-10.56,157.32-6.51Zm4.53.06c0-3.96.87-5.82,3-5.82,2.01,0,2.88,1.8,2.88,5.49,0,4.05-.75,5.94-2.91,5.94C162.51-.84,161.85-2.61,161.85-6.45ZM179.01.18h1.35l3.15-7.83L186.78.18h1.26l3.78-9.12c.78-1.86,1.02-3.12,2.58-3.3v-1.05c-.96.03-1.83.09-2.67.09-.72,0-1.59-.03-2.64-.09v.99c1.32.15,1.86.42,1.86,1.17a6.719,6.719,0,0,1-.54,2.1L188.7-4.74l-3.12-8.52h-1.17l-3.36,8.04-1.89-4.98a3.359,3.359,0,0,1-.18-1.05c0-.78.54-.96,1.83-.99v-1.02c-2.37.03-3.78.06-4.17.06-1.26,0-2.46-.03-3.66-.06v1.02c1.11.09,1.53.78,2.1,2.25Zm16.2-.09C196.5.03,197.7,0,198.84,0c1.02,0,2.4.03,4.17.09V-.99c-1.44-.03-1.77-.48-1.77-1.86V-7.53c0-2.37,1.2-3.81,2.91-3.81,1.2,0,1.8.87,1.8,2.58V-2.7c0,1.35-.3,1.71-1.71,1.71V.09c1.44-.06,2.7-.09,3.75-.09,1.23,0,2.52.03,3.9.09V-.99c-1.65-.12-1.77-.39-1.77-1.71V-8.76c0-3.18-1.44-4.77-4.23-4.77A6.043,6.043,0,0,0,201-10.89l-.18-2.64h-.51a20.881,20.881,0,0,1-5.1,1.05v1.11c1.5,0,1.86.39,1.86,1.98V-2.7c0,1.29-.15,1.56-1.86,1.71Z" transform="translate(81.491 6294.949) rotate(0.05)" fill="#de8ca0"/>
    <path id="パス_9933" data-name="パス 9933" d="M4.844-11.032H2.772a11.825,11.825,0,0,1,.112,1.456v7.63A2.011,2.011,0,0,0,4.8.154,15.584,15.584,0,0,0,7.154.308a42.994,42.994,0,0,0,5-.28V-2.03a23.858,23.858,0,0,1-4.886.49,12.7,12.7,0,0,1-1.61-.084c-.63-.126-.91-.28-.91-.882V-5.1a55.572,55.572,0,0,0,5.53-1.722c.476-.182,1.106-.448,1.638-.672l-.756-1.764A11.828,11.828,0,0,1,9.632-8.5,39.525,39.525,0,0,1,4.746-6.93V-9.576A10.6,10.6,0,0,1,4.844-11.032Zm10.92,1.106c.028.392.028.966.028,1.358v6.846c0,.672-.042,1.89-.042,1.96h1.932c0-.042,0-.364-.014-.756h6.748c0,.406-.014.728-.014.756h1.932c0-.056-.028-1.4-.028-1.946v-6.86c0-.42,0-.938.028-1.358-.5.028-1.036.028-1.386.028h-7.7C16.87-9.9,16.338-9.912,15.764-9.926Zm1.9,1.806H24.43v5.81H17.668Zm11.2,2.674.882,1.764A28.053,28.053,0,0,0,34.692-5.7v4.48a15.679,15.679,0,0,1-.1,1.834h2.212a9.625,9.625,0,0,1-.126-1.834V-6.874a25.679,25.679,0,0,0,3.766-3.038l-1.512-1.442a17.948,17.948,0,0,1-3.948,3.4A22.512,22.512,0,0,1,28.868-5.446ZM45.374-10.64l-1.316,1.4a29.109,29.109,0,0,1,3.5,3.024l1.428-1.456A28.276,28.276,0,0,0,45.374-10.64Zm-1.75,9.324L44.8.532a15.162,15.162,0,0,0,5.194-1.974,14.887,14.887,0,0,0,5.18-5.18L54.082-8.6a13.182,13.182,0,0,1-5.1,5.446A14.43,14.43,0,0,1,43.624-1.316ZM66.206-11.8l-1.148.476c.266.406.546.9.784,1.358a5.874,5.874,0,0,1-.658.028H58.7a15.588,15.588,0,0,1-1.666-.112v1.974c.364-.028,1.022-.056,1.666-.056h6.51a8.8,8.8,0,0,1-1.638,3.948A9.178,9.178,0,0,1,58.086-.9L59.612.784A11.183,11.183,0,0,0,65.24-3.094a14.438,14.438,0,0,0,2.114-5.1,4.571,4.571,0,0,1,.308-.966l-.9-.588.518-.21A18.465,18.465,0,0,0,66.206-11.8Zm1.96-.35L67-11.69a18.14,18.14,0,0,1,1.12,1.89l1.162-.5C69.02-10.794,68.516-11.648,68.166-12.152ZM72.7-10.738v1.806c.406-.028,1.008-.042,1.456-.042H79.52c.5,0,1.162.014,1.54.042v-1.806a13.2,13.2,0,0,1-1.512.07h-5.39A11.8,11.8,0,0,1,72.7-10.738Zm9.534,4.06-1.246-.77a2.953,2.953,0,0,1-1.022.14h-6.93c-.434,0-1.036-.042-1.624-.084v1.82c.588-.056,1.288-.07,1.624-.07H79.8A6.074,6.074,0,0,1,78.358-3.22,9.443,9.443,0,0,1,73.514-.77L74.9.812a10.483,10.483,0,0,0,5-3.024A10.061,10.061,0,0,0,81.97-6.09,5.187,5.187,0,0,1,82.236-6.678Zm9.352-4.76H89.432a6.917,6.917,0,0,1,.112,1.288v1.078h-3a11.614,11.614,0,0,1-1.428-.07,8.939,8.939,0,0,1,.07,1.2v2.422a10.619,10.619,0,0,1-.07,1.176h1.932c-.028-.28-.042-.714-.042-1.036V-7.42h6.944a8.312,8.312,0,0,1-1.246,3.6A6.853,6.853,0,0,1,89.53-1.428a11.4,11.4,0,0,1-1.974.546L89.012.8a8.9,8.9,0,0,0,5.712-4.2,13.038,13.038,0,0,0,1.3-3.962,9.348,9.348,0,0,1,.28-1.12l-1.218-.742a3.406,3.406,0,0,1-1.162.154H91.49V-10.15A10.175,10.175,0,0,1,91.588-11.438Zm9.366.8-1.316,1.4a29.109,29.109,0,0,1,3.5,3.024l1.428-1.456A28.275,28.275,0,0,0,100.954-10.64ZM99.2-1.316,100.38.532a15.162,15.162,0,0,0,5.194-1.974,14.887,14.887,0,0,0,5.18-5.18L109.662-8.6a13.183,13.183,0,0,1-5.1,5.446A14.43,14.43,0,0,1,99.2-1.316Z" transform="translate(131.495 6264.844) rotate(0.05)" fill="#de8ca0"/>
    <path id="パス_7782" data-name="パス 7782" d="M150.562,358.885a3.486,3.486,0,0,0-3.349-3.609,3.209,3.209,0,0,0-2.256.941,3.215,3.215,0,0,0-2.256-.941,3.486,3.486,0,0,0-3.351,3.609,3.771,3.771,0,0,0,1.551,3.043l0,0,.016.009c.114.077,4.041,2.838,4.041,2.838s3.925-2.761,4.041-2.838l.015-.009,0,0a3.77,3.77,0,0,0,1.551-3.043" transform="translate(-28.857 5898.37)" fill="#de8ca0"/>
    <path id="パス_7783" data-name="パス 7783" d="M150.562,358.885a3.486,3.486,0,0,0-3.349-3.609,3.209,3.209,0,0,0-2.256.941,3.215,3.215,0,0,0-2.256-.941,3.486,3.486,0,0,0-3.351,3.609,3.771,3.771,0,0,0,1.551,3.043l0,0,.016.009c.114.077,4.041,2.838,4.041,2.838s3.925-2.761,4.041-2.838l.015-.009,0,0a3.77,3.77,0,0,0,1.551-3.043" transform="translate(112.934 5898.37)" fill="#de8ca0"/>
  </g>
</svg>
