<svg xmlns="http://www.w3.org/2000/svg" width="345" height="81" viewBox="0 0 345 81">
  <g id="_02" data-name="02" transform="translate(-15 -6237)">
    <rect id="長方形_884" data-name="長方形 884" width="344" height="77" rx="38.5" transform="translate(16 6241)" fill="#b49778"/>
    <g id="長方形_872" data-name="長方形 872" transform="translate(15 6237)" fill="#fff" stroke="#b49778" stroke-width="2">
      <rect width="344" height="77" rx="38.5" stroke="none"/>
      <rect x="1" y="1" width="342" height="75" rx="37.5" fill="none"/>
    </g>
    <path id="パス_9937" data-name="パス 9937" d="M1.29.09C3.36.03,5.13,0,6.57,0c1.11,0,2.88.03,5.28.09v-1.2C9.57-1.2,9-1.86,9-4.05V-16.23c0-1.92.63-2.67,2.52-2.67h.33v-1.23c-1.86.06-3.63.09-5.28.09-1.56,0-3.33-.03-5.28-.09v1.23h.3c2.19,0,2.55.63,2.55,2.67V-4.05c0,2.31-.36,2.88-2.85,2.94Zm24.12.3A32.385,32.385,0,0,1,31.14-.78V-1.83c-1.41-.03-2.01-.33-2.01-1.26V-21.33a29.434,29.434,0,0,1-6.42.81v1.08c1.86.09,2.31.3,2.31,1.59v6.06a5.535,5.535,0,0,0-4.26-1.77c-3.57,0-6.36,2.91-6.36,6.99,0,4.26,2.4,6.96,6.18,6.96a4.927,4.927,0,0,0,4.5-2.43Zm-.48-8.94v3.21c0,2.34-1.14,3.57-3.12,3.57-1.89,0-2.85-1.62-2.85-4.8,0-3.33,1.14-5.04,3.12-5.04C23.88-11.61,24.93-10.53,24.93-8.55Zm7.83,2.04c0,4.02,3.06,6.93,7.35,6.93,4.53,0,7.56-2.88,7.56-7.17,0-3.93-3-6.78-7.29-6.78C35.82-13.53,32.76-10.56,32.76-6.51Zm4.53.06c0-3.96.87-5.82,3-5.82,2.01,0,2.88,1.8,2.88,5.49,0,4.05-.75,5.94-2.91,5.94C37.95-.84,37.29-2.61,37.29-6.45ZM49.56.09A19.324,19.324,0,0,1,51.9,0h2.91c1.02,0,1.98,0,2.91.09V-1.02c-1.47-.06-2.01-.42-2.01-1.62V-21.33a23.633,23.633,0,0,1-6,1.17v1.08c1.29.09,1.86.33,1.86,1.11V-2.64c0,1.23-.24,1.5-2.01,1.62Zm18.69,0C69.75,0,71.07,0,72.21,0q1.665,0,6.66.09V-1.17h-.15c-2.13,0-2.79-.63-2.79-2.73V-9.06c.12,0,.21-.03.3-.03,1.14,0,1.74.81,2.73,2.25L83.79.09C84.54.03,85.32.03,86.1.03c1.86,0,3.15.03,3.84.09V-.99a4.106,4.106,0,0,1-2.79-1.98L84.24-7.05c-1.11-1.53-1.83-2.61-2.67-2.97,3.24-.54,5.01-2.4,5.01-5.07,0-3.54-2.7-5.1-8.25-5.1-2.22,0-4.26.09-6.18.09-1.05,0-2.34,0-3.9-.06v1.2c2.58.03,3.09.48,3.09,2.46V-4.08c0,2.31-.57,2.91-3.09,2.91Zm7.68-10.53v-7.2c0-.99.24-1.17,1.35-1.17,2.88,0,4.23,1.26,4.23,4.23,0,2.88-1.44,4.17-4.56,4.17C76.65-10.41,76.29-10.41,75.93-10.44ZM90.48.09C91.8.03,93.24,0,94.77,0c.6,0,1.83.03,3.75.09V-1.05c-1.59-.09-1.89-.33-1.89-1.59V-13.62h-.45a27.413,27.413,0,0,1-5.7,1.05v1.05c1.53.06,1.89.36,1.89,1.8v7.08c0,1.23-.27,1.5-1.89,1.59Zm1.56-19.05a2.279,2.279,0,0,0,2.28,2.28,2.279,2.279,0,0,0,2.28-2.28,2.26,2.26,0,0,0-2.28-2.28A2.26,2.26,0,0,0,92.04-18.96ZM100.47.09C101.76.03,102.96,0,104.1,0c1.02,0,2.4.03,4.17.09V-.99c-1.44-.03-1.77-.48-1.77-1.86V-7.53c0-2.37,1.2-3.81,2.91-3.81,1.2,0,1.8.87,1.8,2.58V-2.7c0,1.35-.3,1.71-1.71,1.71V.09c1.44-.06,2.7-.09,3.75-.09,1.23,0,2.52.03,3.9.09V-.99c-1.65-.12-1.77-.39-1.77-1.71V-8.76c0-3.18-1.44-4.77-4.23-4.77a6.043,6.043,0,0,0-4.89,2.64l-.18-2.64h-.51a20.881,20.881,0,0,1-5.1,1.05v1.11c1.5,0,1.86.39,1.86,1.98V-2.7c0,1.29-.15,1.56-1.86,1.71Zm22.05-4.62a3.378,3.378,0,0,0-2.79,3.27,2.935,2.935,0,0,0,2.01,2.85,17.493,17.493,0,0,0,5.22.45c2.13,0,3.18.69,3.18,2.04,0,1.65-1.77,2.91-4.5,2.91-2.58,0-3.99-.93-3.99-2.34a1.243,1.243,0,0,1,.93-1.2,1.63,1.63,0,0,0-1.56-.93,2.073,2.073,0,0,0-1.92,2.22c0,2.1,2.22,3.54,6.33,3.54,4.92,0,7.53-1.89,7.53-5.25,0-3.51-2.22-4.56-7.05-4.68-2.19-.06-3.18.09-3.18-1.08,0-.9.87-1.17,2.37-1.29,4.26-.3,6.24-1.56,6.24-4.71a4.288,4.288,0,0,0-1.08-2.94,1.343,1.343,0,0,1,.69-.3c.78,0,1.17,1.11,1.98,1.11A1.191,1.191,0,0,0,134.25-12c0-1.2-.63-1.83-1.92-1.83a4.477,4.477,0,0,0-2.91,1.32,7.275,7.275,0,0,0-3.9-1.02c-3.63,0-5.91,2.04-5.91,4.8A4.229,4.229,0,0,0,122.52-4.53Zm1.14-4.29c0-2.4.51-3.63,1.86-3.63,1.41,0,1.77,1.26,1.77,3.69,0,2.4-.24,3.51-1.86,3.51C124.02-5.25,123.66-6.42,123.66-8.82Z" transform="translate(120.491 6294.949) rotate(0.05)" fill="#b49778"/>
    <path id="パス_9936" data-name="パス 9936" d="M13.37-9.478l-1.106-1.036a7.22,7.22,0,0,1-1.428.126H3.29a11.1,11.1,0,0,1-1.708-.14v1.946c.658-.056,1.12-.1,1.708-.1h7.294a8.326,8.326,0,0,1-2.576,2.6L9.464-4.914a14.259,14.259,0,0,0,3.36-3.836A7.049,7.049,0,0,1,13.37-9.478ZM7.658-7.588H5.628a7.761,7.761,0,0,1,.1,1.26c0,2.3-.336,3.78-2.114,5.012a5.532,5.532,0,0,1-1.47.77L3.78.784C7.588-1.26,7.658-4.116,7.658-7.588Zm6.51,2.142.882,1.764A28.053,28.053,0,0,0,19.992-5.7v4.48a15.679,15.679,0,0,1-.1,1.834h2.212a9.625,9.625,0,0,1-.126-1.834V-6.874a25.679,25.679,0,0,0,3.766-3.038l-1.512-1.442a17.948,17.948,0,0,1-3.948,3.4A22.512,22.512,0,0,1,14.168-5.446Zm22.68-4.97-1.176.49A11.994,11.994,0,0,1,36.9-7.756L38.122-8.3C37.8-8.932,37.24-9.828,36.848-10.416Zm1.834-.77-1.162.546a13.108,13.108,0,0,1,1.3,2.1L40-9.114A18.54,18.54,0,0,0,38.682-11.186ZM31.262-1.134a15.16,15.16,0,0,1-.14,1.946h2.2c-.07-.574-.14-1.554-.14-1.946V-5.1A37.505,37.505,0,0,1,38.248-3.01l.784-1.946A48.705,48.705,0,0,0,33.18-7.14V-9.184a15.225,15.225,0,0,1,.126-1.694H31.122a9.879,9.879,0,0,1,.14,1.694Zm17.08.826,1.176.966a2.991,2.991,0,0,1,.6-.42,15.415,15.415,0,0,0,4.746-3.822l-1.078-1.54A8.865,8.865,0,0,1,50.33-2.17V-9.492a7.109,7.109,0,0,1,.1-1.218H48.342a6.207,6.207,0,0,1,.112,1.2v8.162A5.327,5.327,0,0,1,48.342-.308ZM41.86-.518,43.568.616A8.209,8.209,0,0,0,46.06-3.4a30.89,30.89,0,0,0,.42-6.02,9.221,9.221,0,0,1,.1-1.274H44.52a5.313,5.313,0,0,1,.126,1.288,24.125,24.125,0,0,1-.406,5.544A6.6,6.6,0,0,1,41.86-.518ZM66.542-10.864H64.428a9.876,9.876,0,0,1,.084,1.4V-6.8c0,2.184-.182,3.234-1.148,4.284A6.334,6.334,0,0,1,60-.756L61.46.784a8.243,8.243,0,0,0,3.4-2.016c1.036-1.148,1.624-2.45,1.624-5.46V-9.464C66.486-10.024,66.514-10.472,66.542-10.864Zm-6.5.112H58.03a9.941,9.941,0,0,1,.056,1.078v4.718c0,.42-.056.966-.07,1.232h2.03C60.018-4.046,60-4.592,60-4.942V-9.674C60-10.122,60.018-10.43,60.046-10.752Zm12.628.112-1.316,1.4a29.109,29.109,0,0,1,3.5,3.024l1.428-1.456A28.275,28.275,0,0,0,72.674-10.64Zm-1.75,9.324L72.1.532a15.162,15.162,0,0,0,5.194-1.974,14.887,14.887,0,0,0,5.18-5.18L81.382-8.6a13.183,13.183,0,0,1-5.1,5.446A14.43,14.43,0,0,1,70.924-1.316Zm23.282-10.15-1.106.448a16.235,16.235,0,0,1,1.022,1.806l-.1-.056a4.41,4.41,0,0,1-1.218.168h-2.8c.014-.028.028-.042.042-.07A14.524,14.524,0,0,1,90.9-10.6l-2.058-.672a6.335,6.335,0,0,1-.63,1.456,12.108,12.108,0,0,1-4.368,4.508L85.414-4.13a15.73,15.73,0,0,0,3.542-3.388H92.89A9.9,9.9,0,0,1,90.9-3.71,11.2,11.2,0,0,1,85.26-.238l1.652,1.484a13.039,13.039,0,0,0,5.642-3.962A14.214,14.214,0,0,0,95-7.378a5.605,5.605,0,0,1,.462-1.008l-1.19-.728,1.036-.434A17.8,17.8,0,0,0,94.206-11.466Zm1.652-.63-1.106.448a14.843,14.843,0,0,1,1.134,1.932l1.106-.476A19.989,19.989,0,0,0,95.858-12.1Z" transform="translate(138.995 6263.844) rotate(0.05)" fill="#b49778"/>
    <path id="パス_7782" data-name="パス 7782" d="M150.562,358.885a3.486,3.486,0,0,0-3.349-3.609,3.209,3.209,0,0,0-2.256.941,3.215,3.215,0,0,0-2.256-.941,3.486,3.486,0,0,0-3.351,3.609,3.771,3.771,0,0,0,1.551,3.043l0,0,.016.009c.114.077,4.041,2.838,4.041,2.838s3.925-2.761,4.041-2.838l.015-.009,0,0a3.77,3.77,0,0,0,1.551-3.043" transform="translate(-23.857 5898.37)" fill="#b49778"/>
    <path id="パス_7783" data-name="パス 7783" d="M150.562,358.885a3.486,3.486,0,0,0-3.349-3.609,3.209,3.209,0,0,0-2.256.941,3.215,3.215,0,0,0-2.256-.941,3.486,3.486,0,0,0-3.351,3.609,3.771,3.771,0,0,0,1.551,3.043l0,0,.016.009c.114.077,4.041,2.838,4.041,2.838s3.925-2.761,4.041-2.838l.015-.009,0,0a3.77,3.77,0,0,0,1.551-3.043" transform="translate(107.944 5898.37)" fill="#b49778"/>
  </g>
</svg>
