<svg xmlns="http://www.w3.org/2000/svg" width="345" height="81" viewBox="0 0 345 81">
  <g id="_03" data-name="03" transform="translate(-15 -6237)">
    <path id="パス_9935" data-name="パス 9935" d="M38.5,0h267a38.505,38.505,0,0,1,18.218,72.425A38.041,38.041,0,0,1,305.5,77H38.5a38.5,38.5,0,0,1,0-77Z" transform="translate(16 6241)" fill="#7fa083"/>
    <g id="長方形_872" data-name="長方形 872" transform="translate(15 6237)" fill="#fff" stroke="#7fa083" stroke-width="2">
      <rect width="344" height="77" rx="38.5" stroke="none"/>
      <rect x="1" y="1" width="342" height="75" rx="37.5" fill="none"/>
    </g>
    <path id="パス_9941" data-name="パス 9941" d="M1.02.12C4.53.06,7.53,0,10.02,0c3.12,0,6.18.03,9.18.06l.12-6H18.09c-.6,3.12-2.4,4.5-5.76,4.5C9.3-1.44,8.55-2.4,8.55-5.4V-16.38c0-1.98.54-2.55,2.7-2.55h.18v-1.2c-2.34.06-4.11.09-5.22.09-1.5,0-3.24-.03-5.19-.09v1.2h.15c1.98,0,2.61.57,2.61,2.37V-4.14c0,2.25-.51,3-2.52,3H1.02ZM29.79-1.5A2.507,2.507,0,0,0,32.55.42a4.48,4.48,0,0,0,3.48-1.77l-.63-.81a2.178,2.178,0,0,1-.99.45c-.39,0-.54-.24-.54-.84V-9.63c0-2.61-1.92-3.9-5.7-3.9-3.6,0-5.61,1.2-5.61,2.88a1.623,1.623,0,0,0,1.68,1.68c1.41,0,1.65-1.14,2.13-2.19a2,2,0,0,1,1.86-1.2c1.08,0,1.68.63,1.68,1.86v1.02a.953.953,0,0,1-.75,1.02l-2.13.78c-3.42,1.29-4.98,2.34-4.98,4.71A3.191,3.191,0,0,0,25.53.42,6.254,6.254,0,0,0,29.79-1.5Zm-.03-2.55a2.039,2.039,0,0,1-2.07,2.01c-.84,0-1.44-.69-1.44-1.83,0-1.71,1.11-2.73,3.51-3.48ZM48.42.39A32.385,32.385,0,0,1,54.15-.78V-1.83c-1.41-.03-2.01-.33-2.01-1.26V-21.33a29.434,29.434,0,0,1-6.42.81v1.08c1.86.09,2.31.3,2.31,1.59v6.06a5.535,5.535,0,0,0-4.26-1.77c-3.57,0-6.36,2.91-6.36,6.99,0,4.26,2.4,6.96,6.18,6.96a4.927,4.927,0,0,0,4.5-2.43Zm-.48-8.94v3.21c0,2.34-1.14,3.57-3.12,3.57-1.89,0-2.85-1.62-2.85-4.8,0-3.33,1.14-5.04,3.12-5.04C46.89-11.61,47.94-10.53,47.94-8.55ZM62.37.12l-1.29,2.7c-.57,1.17-1.17,1.71-1.65,1.71-1.74,0-3.03.84-3.03,2.16a1.64,1.64,0,0,0,1.8,1.68c1.68,0,2.73-1.77,4.23-5.04L67.29-7.29c1.35-2.94,1.8-4.86,3.39-4.92v-1.08c-1.47.06-2.31.09-2.55.09-.39,0-1.29-.06-2.7-.09v1.08c1.2,0,1.65.27,1.65,1.14a7.835,7.835,0,0,1-.78,2.64L64.53-4.5l-2.31-5.91a2.95,2.95,0,0,1-.24-1.02c0-.66.48-.78,1.59-.78v-1.08c-1.11.06-2.28.09-3.45.09-1.77,0-3.18-.03-4.26-.09v1.08c1.26.03,1.44.63,2.01,1.95Zm18.99,0c1.47-.09,2.82-.15,4.05-.15,2.04,0,3.9.15,5.55.15,5.88,0,8.88-1.92,8.88-5.46,0-3.18-2.4-4.89-6.78-5.43,3.63-.51,5.49-2.13,5.49-4.59,0-3.24-2.73-4.83-8.28-4.83-1.59,0-3.33.18-5.19.18-.93,0-2.16-.06-3.72-.18v1.23c2.34.03,2.82.57,2.82,2.58V-3.93c0,2.1-.54,2.73-2.82,2.76ZM88.83-9.9c.36-.03.69-.03.99-.03,3.24,0,4.71,1.29,4.71,4.23,0,2.85-1.11,4.26-3.36,4.26-1.8,0-2.34-.96-2.34-3.42Zm0-1.44v-6.81c0-.45.09-.57,1.08-.57,2.49,0,3.69,1.11,3.69,3.45,0,2.82-1.11,3.96-4.08,3.96C89.31-11.31,89.07-11.34,88.83-11.34ZM102.72.09A19.325,19.325,0,0,1,105.06,0h2.91c1.02,0,1.98,0,2.91.09V-1.02c-1.47-.06-2.01-.42-2.01-1.62V-21.33a23.633,23.633,0,0,1-6,1.17v1.08c1.29.09,1.86.33,1.86,1.11V-2.64c0,1.23-.24,1.5-2.01,1.62ZM120.6-1.5A2.507,2.507,0,0,0,123.36.42a4.48,4.48,0,0,0,3.48-1.77l-.63-.81a2.178,2.178,0,0,1-.99.45c-.39,0-.54-.24-.54-.84V-9.63c0-2.61-1.92-3.9-5.7-3.9-3.6,0-5.61,1.2-5.61,2.88a1.623,1.623,0,0,0,1.68,1.68c1.41,0,1.65-1.14,2.13-2.19a2,2,0,0,1,1.86-1.2c1.08,0,1.68.63,1.68,1.86v1.02a.953.953,0,0,1-.75,1.02l-2.13.78c-3.42,1.29-4.98,2.34-4.98,4.71A3.191,3.191,0,0,0,116.34.42,6.254,6.254,0,0,0,120.6-1.5Zm-.03-2.55a2.039,2.039,0,0,1-2.07,2.01c-.84,0-1.44-.69-1.44-1.83,0-1.71,1.11-2.73,3.51-3.48Zm19.38.6a4.5,4.5,0,0,1-3.6,2.01c-2.37,0-3.6-1.83-3.6-5.43,0-3.51,1.02-5.4,2.64-5.4,1.35,0,1.56,1.02,2.01,2.01a1.943,1.943,0,0,0,1.77,1.32,1.513,1.513,0,0,0,1.65-1.59c0-1.77-1.86-3-5.04-3-4.47,0-7.53,2.97-7.53,7.2A6.354,6.354,0,0,0,134.91.42a6.953,6.953,0,0,0,6-2.94ZM143.07.09c.72-.06,2.55-.09,5.46-.09.99,0,1.74.03,2.34.09V-.99c-1.5-.18-1.83-.45-1.83-1.65V-4.86l1.02-.96,4.2,5.91a11.284,11.284,0,0,1,1.8-.09c.72,0,1.65.03,2.82.09V-1.05h-.06a1.441,1.441,0,0,1-1.08-.57l-5.13-6.75,2.22-2.28a5.573,5.573,0,0,1,3.3-1.62v-.99c-.96.06-1.98.09-2.97.09-1.2,0-2.43-.03-3.66-.09v.99c1.2.03,1.77.3,1.77.87s-.6,1.11-1.53,2.04l-2.7,2.7V-21.33a19.747,19.747,0,0,1-5.97,1.2v1.11h.15c1.32,0,1.71.42,1.71,1.74V-2.64c0,1.2-.3,1.5-1.86,1.65Z" transform="translate(107.991 6294.949) rotate(0.05)" fill="#7fa083"/>
    <path id="パス_9940" data-name="パス 9940" d="M2.73-.56,4.06.588A3.613,3.613,0,0,1,4.886.21a17.544,17.544,0,0,0,8.12-5.04l-.994-1.582a16.042,16.042,0,0,1-7.2,4.634v-7.28a10.24,10.24,0,0,1,.14-1.6h-2.2a8.945,8.945,0,0,1,.154,1.6V-1.47A1.828,1.828,0,0,1,2.73-.56Zm13.9-10.01v1.806c.42-.028,1.022-.042,1.5-.042h4.578c.49,0,1.036.014,1.512.042V-10.57a10.989,10.989,0,0,1-1.512.112H18.13A10.475,10.475,0,0,1,16.632-10.57ZM15.008-6.986v1.834c.392-.028.938-.056,1.344-.056H20.2a6.016,6.016,0,0,1-.868,3.094,5.717,5.717,0,0,1-2.534,2l1.638,1.19A6.635,6.635,0,0,0,21.252-1.61a8.882,8.882,0,0,0,.9-3.6h3.374c.392,0,.924.014,1.274.042v-1.82a10.588,10.588,0,0,1-1.274.084h-9.17A10.659,10.659,0,0,1,15.008-6.986Zm10.052-4.55-1.12.462a17.826,17.826,0,0,1,1.106,1.946l1.12-.49C25.9-10.136,25.41-11.018,25.06-11.536Zm1.652-.63-1.106.462a16.517,16.517,0,0,1,1.12,1.932l1.12-.49A21.9,21.9,0,0,0,26.712-12.166ZM28.518-3.99l.826,1.652a29.207,29.207,0,0,0,4.018-1.638v3.7c0,.49-.042,1.232-.07,1.512h2.072a7.8,7.8,0,0,1-.1-1.512v-4.8A18.351,18.351,0,0,0,38.4-7.63L37.016-8.988a14.586,14.586,0,0,1-3.486,3A18.486,18.486,0,0,1,28.518-3.99ZM51.646-11.8l-1.148.476c.266.406.546.9.784,1.358a5.874,5.874,0,0,1-.658.028H44.142a15.588,15.588,0,0,1-1.666-.112v1.974c.364-.028,1.022-.056,1.666-.056h6.51a8.8,8.8,0,0,1-1.638,3.948A9.178,9.178,0,0,1,43.526-.9L45.052.784A11.183,11.183,0,0,0,50.68-3.094a14.438,14.438,0,0,0,2.114-5.1,4.571,4.571,0,0,1,.308-.966l-.9-.588.518-.21A18.464,18.464,0,0,0,51.646-11.8Zm1.96-.35-1.162.462a18.14,18.14,0,0,1,1.12,1.89l1.162-.5C54.46-10.794,53.956-11.648,53.606-12.152Zm4.536,1.414v1.806c.406-.028,1.008-.042,1.456-.042H64.96c.5,0,1.162.014,1.54.042v-1.806a13.2,13.2,0,0,1-1.512.07H59.6A11.8,11.8,0,0,1,58.142-10.738Zm9.534,4.06-1.246-.77a2.953,2.953,0,0,1-1.022.14h-6.93c-.434,0-1.036-.042-1.624-.084v1.82c.588-.056,1.288-.07,1.624-.07H65.24A6.074,6.074,0,0,1,63.8-3.22,9.443,9.443,0,0,1,58.954-.77L60.34.812a10.483,10.483,0,0,0,5-3.024A10.061,10.061,0,0,0,67.41-6.09,5.187,5.187,0,0,1,67.676-6.678ZM76.09-8.316l-1.666.546a23.319,23.319,0,0,1,1.134,3.108l1.68-.588C77.042-5.894,76.356-7.714,76.09-8.316Zm5.166,1.022-1.96-.63a9.575,9.575,0,0,1-1.792,4.8A9.42,9.42,0,0,1,72.856-.2l1.47,1.5a10.933,10.933,0,0,0,4.69-3.472,11.289,11.289,0,0,0,1.9-4.1C81-6.552,81.088-6.846,81.256-7.294Zm-8.414-.28-1.68.6a28.278,28.278,0,0,1,1.274,3.234l1.708-.644C73.864-5.166,73.192-6.86,72.842-7.574Zm18.2-3.346L89-11.592a6.735,6.735,0,0,1-.63,1.47A12.327,12.327,0,0,1,84-5.614l1.568,1.162A15.958,15.958,0,0,0,89.1-7.84H93.03a9.952,9.952,0,0,1-1.988,3.822A11.157,11.157,0,0,1,85.4-.56L87.052.924a13.072,13.072,0,0,0,5.656-3.948A14.607,14.607,0,0,0,95.144-7.7a5.605,5.605,0,0,1,.462-1.008L94.178-9.59a4.489,4.489,0,0,1-1.218.168H90.146c.014-.028.028-.042.042-.07C90.356-9.8,90.72-10.43,91.042-10.92Z" transform="translate(138.995 6263.844) rotate(0.05)" fill="#7fa083"/>
    <path id="パス_7782" data-name="パス 7782" d="M150.562,358.885a3.486,3.486,0,0,0-3.349-3.609,3.209,3.209,0,0,0-2.256.941,3.215,3.215,0,0,0-2.256-.941,3.486,3.486,0,0,0-3.351,3.609,3.771,3.771,0,0,0,1.551,3.043l0,0,.016.009c.114.077,4.041,2.838,4.041,2.838s3.925-2.761,4.041-2.838l.015-.009,0,0a3.77,3.77,0,0,0,1.551-3.043" transform="translate(-23.857 5898.37)" fill="#7fa083"/>
    <path id="パス_7783" data-name="パス 7783" d="M150.562,358.885a3.486,3.486,0,0,0-3.349-3.609,3.209,3.209,0,0,0-2.256.941,3.215,3.215,0,0,0-2.256-.941,3.486,3.486,0,0,0-3.351,3.609,3.771,3.771,0,0,0,1.551,3.043l0,0,.016.009c.114.077,4.041,2.838,4.041,2.838s3.925-2.761,4.041-2.838l.015-.009,0,0a3.77,3.77,0,0,0,1.551-3.043" transform="translate(107.944 5898.37)" fill="#7fa083"/>
  </g>
</svg>
