<svg xmlns="http://www.w3.org/2000/svg" width="345" height="81" viewBox="0 0 345 81">
  <g id="_03" data-name="03" transform="translate(-15 -6237)">
    <rect id="長方形_884" data-name="長方形 884" width="344" height="77" rx="38.5" transform="translate(16 6241)" fill="#d77298"/>
    <g id="長方形_872" data-name="長方形 872" transform="translate(15 6237)" fill="#fff" stroke="#d77298" stroke-width="2">
      <rect width="344" height="77" rx="38.5" stroke="none"/>
      <rect x="1" y="1" width="342" height="75" rx="37.5" fill="none"/>
    </g>
    <path id="パス_9939" data-name="パス 9939" d="M1.02.12C4.53.06,7.53,0,10.02,0c3.12,0,6.18.03,9.18.06l.12-6H18.09c-.6,3.12-2.4,4.5-5.76,4.5C9.3-1.44,8.55-2.4,8.55-5.4V-16.38c0-1.98.54-2.55,2.7-2.55h.18v-1.2c-2.34.06-4.11.09-5.22.09-1.5,0-3.24-.03-5.19-.09v1.2h.15c1.98,0,2.61.57,2.61,2.37V-4.14c0,2.25-.51,3-2.52,3H1.02ZM21.06.09C22.38.03,23.82,0,25.35,0c.6,0,1.83.03,3.75.09V-1.05c-1.59-.09-1.89-.33-1.89-1.59V-13.62h-.45a27.413,27.413,0,0,1-5.7,1.05v1.05c1.53.06,1.89.36,1.89,1.8v7.08c0,1.23-.27,1.5-1.89,1.59Zm1.56-19.05a2.279,2.279,0,0,0,2.28,2.28,2.279,2.279,0,0,0,2.28-2.28,2.26,2.26,0,0,0-2.28-2.28A2.26,2.26,0,0,0,22.62-18.96ZM38.79-1.5A2.507,2.507,0,0,0,41.55.42a4.48,4.48,0,0,0,3.48-1.77l-.63-.81a2.178,2.178,0,0,1-.99.45c-.39,0-.54-.24-.54-.84V-9.63c0-2.61-1.92-3.9-5.7-3.9-3.6,0-5.61,1.2-5.61,2.88a1.623,1.623,0,0,0,1.68,1.68c1.41,0,1.65-1.14,2.13-2.19a2,2,0,0,1,1.86-1.2c1.08,0,1.68.63,1.68,1.86v1.02a.953.953,0,0,1-.75,1.02l-2.13.78c-3.42,1.29-4.98,2.34-4.98,4.71A3.191,3.191,0,0,0,34.53.42,6.254,6.254,0,0,0,38.79-1.5Zm-.03-2.55a2.039,2.039,0,0,1-2.07,2.01c-.84,0-1.44-.69-1.44-1.83,0-1.71,1.11-2.73,3.51-3.48ZM46.32.06C48.09,0,49.38,0,50.28,0c1.44,0,2.88.03,4.26.06V-1.05c-1.56,0-2.1-.24-2.1-1.47V-8.16c0-1.47.96-2.85,1.74-2.85.72,0,.99,1.56,2.37,1.56a1.725,1.725,0,0,0,1.86-1.83c0-1.35-.9-2.13-2.46-2.13a4.751,4.751,0,0,0-3.78,2.46l-.24-2.61h-.51a21.171,21.171,0,0,1-5.07,1.05v1.05c1.56.03,1.86.78,1.86,2.73v6.12c0,1.14-.42,1.41-1.89,1.56ZM68.67.09C69.63,0,70.8,0,72.18,0c2.82,0,5.1.03,6.9.09V-1.14H78.9c-2.25,0-2.85-.63-2.85-2.58V-9.06c.51.03,1.02.03,1.47.03,6.06,0,8.94-1.77,8.94-5.67,0-3.87-3.03-5.37-9.36-5.37-2.19,0-3.9.06-5.16.06-.93,0-2.04,0-3.27-.09v1.17c2.22.15,2.64.6,2.64,2.46v12.9c0,1.77-.54,2.28-2.64,2.43Zm7.38-10.62v-7.29c0-.66.39-.81,1.59-.81,2.4,0,3.69,1.32,3.69,3.84,0,3.06-1.29,4.29-4.47,4.29A7.311,7.311,0,0,1,76.05-10.53ZM88.53.09C89.85.03,91.29,0,92.82,0c.6,0,1.83.03,3.75.09V-1.05c-1.59-.09-1.89-.33-1.89-1.59V-13.62h-.45a27.413,27.413,0,0,1-5.7,1.05v1.05c1.53.06,1.89.36,1.89,1.8v7.08c0,1.23-.27,1.5-1.89,1.59Zm1.56-19.05a2.279,2.279,0,0,0,2.28,2.28,2.279,2.279,0,0,0,2.28-2.28,2.26,2.26,0,0,0-2.28-2.28A2.26,2.26,0,0,0,90.09-18.96ZM98.52.09C99.81.03,101.01,0,102.15,0c1.02,0,2.4.03,4.17.09V-.99c-1.44-.03-1.77-.48-1.77-1.86V-7.53c0-2.37,1.2-3.81,2.91-3.81,1.2,0,1.8.87,1.8,2.58V-2.7c0,1.35-.3,1.71-1.71,1.71V.09c1.44-.06,2.7-.09,3.75-.09,1.23,0,2.52.03,3.9.09V-.99c-1.65-.12-1.77-.39-1.77-1.71V-8.76c0-3.18-1.44-4.77-4.23-4.77a6.043,6.043,0,0,0-4.89,2.64l-.18-2.64h-.51a20.881,20.881,0,0,1-5.1,1.05v1.11c1.5,0,1.86.39,1.86,1.98V-2.7c0,1.29-.15,1.56-1.86,1.71Zm18.27,0c.72-.06,2.55-.09,5.46-.09.99,0,1.74.03,2.34.09V-.99c-1.5-.18-1.83-.45-1.83-1.65V-4.86l1.02-.96,4.2,5.91a11.284,11.284,0,0,1,1.8-.09c.72,0,1.65.03,2.82.09V-1.05h-.06a1.441,1.441,0,0,1-1.08-.57l-5.13-6.75,2.22-2.28a5.573,5.573,0,0,1,3.3-1.62v-.99c-.96.06-1.98.09-2.97.09-1.2,0-2.43-.03-3.66-.09v.99c1.2.03,1.77.3,1.77.87s-.6,1.11-1.53,2.04l-2.7,2.7V-21.33a19.747,19.747,0,0,1-5.97,1.2v1.11h.15c1.32,0,1.71.42,1.71,1.74V-2.64c0,1.2-.3,1.5-1.86,1.65Z" transform="translate(121.491 6294.949) rotate(0.05)" fill="#d77298"/>
    <path id="パス_9938" data-name="パス 9938" d="M3.122-10.738v1.806c.406-.028,1.008-.042,1.456-.042H9.94c.5,0,1.162.014,1.54.042v-1.806a13.2,13.2,0,0,1-1.512.07H4.578A11.8,11.8,0,0,1,3.122-10.738Zm9.534,4.06-1.246-.77a2.953,2.953,0,0,1-1.022.14H3.458c-.434,0-1.036-.042-1.624-.084v1.82c.588-.056,1.288-.07,1.624-.07H10.22A6.074,6.074,0,0,1,8.778-3.22,9.443,9.443,0,0,1,3.934-.77L5.32.812a10.483,10.483,0,0,0,5-3.024A10.061,10.061,0,0,0,12.39-6.09,5.187,5.187,0,0,1,12.656-6.678Zm2.212,1.232.882,1.764A28.053,28.053,0,0,0,20.692-5.7v4.48a15.678,15.678,0,0,1-.1,1.834h2.212a9.625,9.625,0,0,1-.126-1.834V-6.874a25.679,25.679,0,0,0,3.766-3.038l-1.512-1.442a17.948,17.948,0,0,1-3.948,3.4A22.512,22.512,0,0,1,14.868-5.446Zm26.5-4.032-1.106-1.036a7.22,7.22,0,0,1-1.428.126H31.29a11.1,11.1,0,0,1-1.708-.14v1.946c.658-.056,1.12-.1,1.708-.1h7.294a8.326,8.326,0,0,1-2.576,2.6l1.456,1.162a14.259,14.259,0,0,0,3.36-3.836A7.048,7.048,0,0,1,41.37-9.478Zm-5.712,1.89h-2.03a7.761,7.761,0,0,1,.1,1.26c0,2.3-.336,3.78-2.114,5.012a5.532,5.532,0,0,1-1.47.77L31.78.784C35.588-1.26,35.658-4.116,35.658-7.588Zm6.79,1.106v2.2c.518-.042,1.456-.07,2.254-.07H52.22c.588,0,1.3.056,1.638.07v-2.2c-.364.028-.98.084-1.638.084H44.7C43.974-6.4,42.952-6.44,42.448-6.482ZM66-9.94a.81.81,0,0,1,.8-.812.813.813,0,0,1,.812.812.813.813,0,0,1-.812.812A.81.81,0,0,1,66-9.94Zm-.868,0a1.7,1.7,0,0,0,.406,1.106,8.333,8.333,0,0,1-1.344.644,35.307,35.307,0,0,1-4.844,1.554V-9.282a10.518,10.518,0,0,1,.112-1.456H57.386A11.584,11.584,0,0,1,57.5-9.282v7.63a2.02,2.02,0,0,0,1.918,2.1A15.584,15.584,0,0,0,61.768.6,39.783,39.783,0,0,0,66.752.308V-1.736a23.717,23.717,0,0,1-4.872.49,13.094,13.094,0,0,1-1.624-.084c-.63-.126-.91-.28-.91-.882V-4.8A48.324,48.324,0,0,0,64.834-6.51c.462-.168,1.092-.434,1.638-.658L65.9-8.526a1.608,1.608,0,0,0,.9.266,1.685,1.685,0,0,0,1.68-1.68,1.685,1.685,0,0,0-1.68-1.68A1.673,1.673,0,0,0,65.128-9.94Zm7.406-.7-1.316,1.4a29.109,29.109,0,0,1,3.5,3.024l1.428-1.456A28.275,28.275,0,0,0,72.534-10.64Zm-1.75,9.324L71.96.532a15.162,15.162,0,0,0,5.194-1.974,14.887,14.887,0,0,0,5.18-5.18L81.242-8.6a13.183,13.183,0,0,1-5.1,5.446A14.43,14.43,0,0,1,70.784-1.316Zm20.4-9.6-2.044-.672a6.735,6.735,0,0,1-.63,1.47A12.327,12.327,0,0,1,84.14-5.614l1.568,1.162A15.958,15.958,0,0,0,89.236-7.84H93.17a9.952,9.952,0,0,1-1.988,3.822A11.157,11.157,0,0,1,85.54-.56L87.192.924a13.072,13.072,0,0,0,5.656-3.948A14.607,14.607,0,0,0,95.284-7.7a5.605,5.605,0,0,1,.462-1.008L94.318-9.59a4.489,4.489,0,0,1-1.218.168H90.286c.014-.028.028-.042.042-.07C90.5-9.8,90.86-10.43,91.182-10.92Z" transform="translate(138.995 6263.844) rotate(0.05)" fill="#d77298"/>
    <path id="パス_7782" data-name="パス 7782" d="M150.562,358.885a3.486,3.486,0,0,0-3.349-3.609,3.209,3.209,0,0,0-2.256.941,3.215,3.215,0,0,0-2.256-.941,3.486,3.486,0,0,0-3.351,3.609,3.771,3.771,0,0,0,1.551,3.043l0,0,.016.009c.114.077,4.041,2.838,4.041,2.838s3.925-2.761,4.041-2.838l.015-.009,0,0a3.77,3.77,0,0,0,1.551-3.043" transform="translate(-23.857 5898.37)" fill="#d77298"/>
    <path id="パス_7783" data-name="パス 7783" d="M150.562,358.885a3.486,3.486,0,0,0-3.349-3.609,3.209,3.209,0,0,0-2.256.941,3.215,3.215,0,0,0-2.256-.941,3.486,3.486,0,0,0-3.351,3.609,3.771,3.771,0,0,0,1.551,3.043l0,0,.016.009c.114.077,4.041,2.838,4.041,2.838s3.925-2.761,4.041-2.838l.015-.009,0,0a3.77,3.77,0,0,0,1.551-3.043" transform="translate(107.944 5898.37)" fill="#d77298"/>
  </g>
</svg>
