<?xml version="1.0" encoding="UTF-8"?>
<svg id="_レイヤー_2" data-name="レイヤー 2" xmlns="http://www.w3.org/2000/svg" viewBox="0 0 112.12 47.3">
  <defs>
    <style>
      .cls-1 {
        fill: #fff;
      }
    </style>
  </defs>
  <g id="_レイヤー_1-2" data-name="レイヤー 1">
    <path class="cls-1" d="m7.22,13.45c-.89-.72-1.69-1.03-2.73-1.43-.24-.09-.35-.29-.35-.49,0-.27.21-.54.59-.54.31,0,2.27.6,3.23,1.41.18.15.25.33.25.52,0,.35-.27.68-.61.68-.12,0-.26-.05-.39-.15Zm-.88-3.05c-.43-.28-1-.46-1.48-.55-.33-.07-.47-.27-.47-.47,0-.28.24-.57.58-.57.37,0,1.5.36,1.92.58.23.13.33.33.33.53,0,.29-.22.59-.53.59-.1,0-.22-.04-.34-.11Zm.58-1.99c-.6-.31-1.47-.55-2.07-.64-.29-.04-.42-.22-.42-.42,0-.28.26-.58.68-.58.34,0,1.5.21,2.21.55.29.14.41.38.41.6,0,.29-.21.57-.52.57-.09,0-.19-.03-.29-.08Z"/>
    <path class="cls-1" d="m11.99,11.32c0,.17.13.26.27.26.35,0,2.32-1.36,3.35-2.99.13-.21.31-.3.49-.3.29,0,.58.26.58.58,0,.1-.03.22-.1.33-.74,1.15-2.61,2.87-4.16,3.64-.18.09-.39.14-.58.14-.49,0-.93-.29-.93-1.01v-.05c.02-.68.03-1.86.03-2.76,0-.49,0-.89,0-1.11v-.03c0-.38.25-.54.52-.54.29,0,.58.19.59.55,0,.15,0,.36,0,.61,0,.85-.03,2.13-.05,2.67h0Z"/>
    <path class="cls-1" d="m19.74,13.59c-.36,0-.54-.24-.54-.49,0-.23.15-.47.45-.55,1.4-.38,2.18-1.44,2.28-2.74-.99,0-1.96.04-2.59.05h-.03c-.34,0-.52-.23-.52-.47,0-.26.19-.52.6-.53,1.3-.02,4.17-.04,5.66-.05.35,0,.52.23.52.48s-.18.51-.55.51h-.03c-.35,0-.83-.02-1.36-.02h-.61c-.19,2.92-2.86,3.8-3.27,3.8Zm1.03-6.56c.96,0,1.66-.03,2.73-.06h.02c.35,0,.52.25.52.49s-.17.5-.49.5c-1.26.02-2.17.05-3.14.05-.39,0-.58-.24-.58-.48,0-.26.2-.51.58-.51h.37Zm3.99,1.07c-.06-.14-.38-.6-.51-.71-.11-.1-.16-.2-.16-.29,0-.19.19-.34.41-.34.35,0,1.02.77,1.02,1.1,0,.27-.24.46-.46.46-.12,0-.24-.05-.3-.21Zm1.6-.27c-.11,0-.24-.06-.34-.18-.13-.16-.4-.59-.53-.69-.12-.1-.17-.2-.17-.29,0-.19.19-.35.41-.35.34,0,1.05.74,1.05,1.1,0,.24-.2.42-.42.42Z"/>
    <path class="cls-1" d="m29.81,13.26l.04-2.07c-.46.42-1.54,1.3-2,1.3-.31,0-.51-.23-.51-.47,0-.16.09-.32.29-.42,1.17-.55,2.45-1.78,3.2-2.95.12-.19.29-.27.44-.27.25,0,.48.2.48.46,0,.09-.03.19-.1.29-.29.4-.57.76-.86,1.08,0,.43-.02,1.24-.02,1.94,0,.44,0,.84,0,1.09v.02c0,.35-.25.53-.5.53s-.47-.17-.47-.53h0Z"/>
    <path id="melady" class="cls-1" d="m87.38,21.35l-1.13,4.18s-.02.05-.04.07c-2.84,3.25-5.02,5.74-7.05,5.74-1.22,0-1.56-1.76-.77-4.7,1.54-5.72,4.15-8.07,6.59-8.07,2.09,0,2.82,1.18,2.39,2.78m-19.93-.21c-.62,2.3-5.61,10.26-8.4,10.26-.87,0-1.6-1.17-.71-4.49,1.54-5.72,4.18-8.39,6.56-8.39,2.09,0,2.85,1.5,2.55,2.62m-25.98-2.57c1.51,0,1.86.86,1.5,2.19-.59,2.19-4.77,5.4-7.62,5.4,1.54-5.72,4.31-7.59,6.11-7.59m12.7-11.93c.72-1.42,1.31-2.49,1.84-3.33.25,1.54.24,3.16.08,4.66h0c-.43,4.29-2.32,8.01-4.95,11.07-.09.1-.18.21-.27.31.77-3.45,1.05-8.26,3.3-12.7m57.86,11.19s-.24-.05-.29-.05l-1.9.24s0,0-.01,0c-.15.06-.52.52-.62.62-1.05,1.34-2,3.77-3.01,5.34-1.24,1.96-5.01,7.92-7.49,7.92-.48,0-.91-.38-.91-.86.05-.67.1-1.29.29-1.96l3.29-10.69c.05-.1.05-.24.1-.33l-.1-.19s-.29-.05-.33-.05c-.72.1-2.39.05-2.67.91l-1.98,6.2c-.19.03-.36.21-.68.63-2.06,2.67-3.82,5.34-5.57,5.34-1.45,0-2.04-1.07-.84-5.5l.78-2.89.49-1.82c.94-3.47,2.26-7.96,3.61-11.43,1.46-3.79,2.4-5.9,3.27-7.01.09-.11,0-.28-.15-.26l-2.49.34s-.07.02-.1.05c-1.31,1.32-2.07,2.99-3.34,6.35-1.32,3.24-2.48,7.08-3.24,9.84-.04.13-.19.14-.27.04-.51-.59-1.46-.96-2.73-.96-3.14,0-7.56,1.88-9.78,7.72-.04.06-.09.12-.14.18-2.06,2.67-3.82,5.34-5.62,5.34-1.45,0-1.46-1.07-.26-5.5.36-1.34,1.37-4.86,2.4-6.52.39-.59.59-.91.65-1.12.04-.16.01-.27-.22-.27-.29,0-.61.11-1.12.27-.93.43-2.1.91-2.39,1.98-.09-.75-.95-2.08-3.62-2.08-3.08,0-7.71,1.92-9.85,8.23-1.8,2.36-3.42,4.5-4.98,4.5-1.45,0-1.98-1.07-.78-5.5l.28-1.04-.03.03.15-.5.37-1.37s.05-.06.08-.09l.27-.88c2.87-3.31,5.4-6.36,6.73-12.36.47-2.13,1.16-6.27.17-8.58-.03-.07-.09-.1-.17-.1-.24,0-.67.28-1.03.63-1.62,1.21-3.19,3.52-4.77,7.59-1.98,5.18-3.32,10.15-5.03,16.51l-.06.22c-.21.05-.37.22-.62.63-1.81,2.4-4.99,5.77-7.72,5.77-2.5,0-3.61-1.71-2.89-4.38,3.27-.05,8.07-3.42,8.85-6.3.48-1.76-.18-2.99-2.68-2.99-2.74,0-7.3,1.74-9.25,7.87-.01.01-.02.02-.03.04-2.06,2.67-3.88,5.34-5.63,5.34-1.45,0-1.25-.96.23-6.47,1.33-4.92,1.36-6.79-1.6-6.79-3.78,0-7.4,5.45-8.8,7.64,1.57-5.82,1.36-7.64-1.66-7.64-3.49,0-7.41,5.29-8.98,7.64.55-2.03,1.56-5.77,1.9-6.41.33-.59.65-.91.71-1.12.04-.16-.04-.27-.28-.27s-.61.11-1.06.27c-.99.43-2.61,1.28-2.97,2.62,0,0-1.02,3.79-1.3,4.81-.55,2.03-1.58,5.88-1.95,6.57-.33.59-.58.86-.64,1.07-.06.21.04.27.22.27.29,0,.6-.05,1.12-.27.99-.43,2.55-1.28,2.91-2.62.32-1.18,1.08-3.15,2.15-4.76,1.09-1.66,4.3-6.25,6.69-6.25,1.34,0,1.35,1.23.03,6.14-.29,1.07-1.44,5.34-1.96,6.41-.22.59-.52.86-.58,1.07-.06.21.04.27.22.27.29,0,.65-.05,1.12-.27.99-.43,2.61-1.28,2.97-2.62.32-1.18,1.01-3.1,2.08-4.7,1.36-2.03,4.2-6.31,6.29-6.31,1.63,0,1.47,1.23.25,5.77-1.48,5.5-1.93,8.01.86,8.01,2.96,0,5.54-3.39,7.24-5.73-.56,3.69,1.69,5.73,4.73,5.73,4.21,0,7.88-4.36,9.61-6.6l-.08.31c-.85,3.15-.51,5.77,2.28,5.77,2.55,0,4.81-2.51,6.47-4.69-.68,3.4.64,5.21,2.69,5.21,3.89,0,7.69-5.66,8.96-7.59-1.27,4.7-1.52,7.59,1.27,7.59s5.45-3.28,7.15-5.61c-.77,3.23.51,5.61,2.49,5.61,3.24,0,6.14-3.01,8.15-5.27.11-.13.32-.02.28.15-.62,2.85-.1,5.12,2.5,5.12,3.33,0,6.11-4.28,7.77-6.53l-.53,1.67c-.29.86-.57,1.86-.57,2.77,0,1.43.76,2.72,2.34,2.72,3.9,0,7.88-5.82,9.81-8.95.03-.04.09-.01.08.03-.81,2.75-2.01,8.16-2.39,9.91-.08.37-.18.74-.3,1.1-.71,2.1-1.47,4.42-3.36,6.43-1.96,2.1-4.08,2.29-6.17,2.65-.18.03-.23.26-.08.37l3.01,2.13c.18.01.36-.01.53-.08,4.75-1.88,7.16-6.43,8.38-11.16l.65-2.67c.56-2.2,1.18-4.37,1.83-6.54.91-2.96,2.05-5.87,3.01-8.83l-.1-.19Z"/>
  </g>
</svg>