<svg xmlns="http://www.w3.org/2000/svg" width="107.62" height="45.387" viewBox="0 0 107.62 45.387">
  <g id="レイヤー_1" data-name="レイヤー 1" transform="translate(0.017 0)">
    <path id="パス_9887" data-name="パス 9887" d="M7.1,13.181a8.669,8.669,0,0,0-2.62-1.372.493.493,0,0,1-.336-.47.528.528,0,0,1,.566-.518,8.017,8.017,0,0,1,3.1,1.353.624.624,0,0,1,.24.5.636.636,0,0,1-.585.653.635.635,0,0,1-.374-.144Zm-.845-2.927a4.114,4.114,0,0,0-1.42-.528c-.317-.067-.451-.259-.451-.451a.561.561,0,0,1,.557-.547,6.585,6.585,0,0,1,1.843.557.576.576,0,0,1,.317.509.55.55,0,0,1-.509.566.682.682,0,0,1-.326-.106Zm.557-1.91A7.179,7.179,0,0,0,4.821,7.73a.409.409,0,0,1-.4-.4.609.609,0,0,1,.653-.557A6.8,6.8,0,0,1,7.192,7.3a.64.64,0,0,1,.393.576.525.525,0,0,1-.5.547.642.642,0,0,1-.278-.077Z" transform="translate(-0.167 -0.273)" fill="#fff"/>
    <path id="パス_9888" data-name="パス 9888" d="M11.946,11.165a.244.244,0,0,0,.259.25,8.01,8.01,0,0,0,3.215-2.87.548.548,0,0,1,.47-.288.576.576,0,0,1,.557.557.6.6,0,0,1-.1.317,12.049,12.049,0,0,1-3.992,3.493,1.284,1.284,0,0,1-.557.134.858.858,0,0,1-.893-.969v-.048c.019-.653.029-1.785.029-2.649V8a.473.473,0,0,1,.5-.518A.539.539,0,0,1,12,8.008v.585c0,.816-.029,2.044-.048,2.562h0Z" transform="translate(-0.44 -0.301)" fill="#fff"/>
    <path id="パス_9889" data-name="パス 9889" d="M19.7,13.3a.472.472,0,0,1-.518-.47.55.55,0,0,1,.432-.528A2.844,2.844,0,0,0,21.8,9.669c-.95,0-1.881.038-2.486.048h-.029a.458.458,0,0,1-.5-.451.524.524,0,0,1,.576-.509c1.248-.019,4-.038,5.432-.048a.454.454,0,0,1,.5.461.489.489,0,0,1-.528.489H24.74c-.336,0-.8-.019-1.305-.019H22.85a3.953,3.953,0,0,1-3.138,3.647ZM20.69,7c.921,0,1.593-.029,2.62-.058h.019a.475.475,0,1,1,.029.95c-1.209.019-2.083.048-3.013.048-.374,0-.557-.23-.557-.461a.5.5,0,0,1,.557-.489H20.7Zm3.829,1.027a3.3,3.3,0,0,0-.489-.681.393.393,0,0,1-.154-.278.367.367,0,0,1,.393-.326c.336,0,.979.739.979,1.056a.453.453,0,0,1-.441.441.287.287,0,0,1-.288-.2Zm1.536-.259a.444.444,0,0,1-.326-.173,6.621,6.621,0,0,0-.509-.662.377.377,0,0,1-.163-.278.374.374,0,0,1,.393-.336,1.585,1.585,0,0,1,1.008,1.056.405.405,0,0,1-.4.4Z" transform="translate(-0.758 -0.255)" fill="#fff"/>
    <path id="パス_9890" data-name="パス 9890" d="M29.71,13.063l.038-1.987c-.441.4-1.478,1.248-1.919,1.248a.466.466,0,0,1-.489-.451.452.452,0,0,1,.278-.4,8.313,8.313,0,0,0,3.071-2.831.507.507,0,0,1,.422-.259.457.457,0,0,1,.461.441.487.487,0,0,1-.1.278,12.229,12.229,0,0,1-.825,1.036c0,.413-.019,1.19-.019,1.862v1.065a.476.476,0,0,1-.48.509.451.451,0,0,1-.451-.509h0Z" transform="translate(-1.102 -0.338)" fill="#fff"/>
    <path id="melady" d="M83.859,20.49,82.775,24.5a.263.263,0,0,1-.038.067c-2.726,3.119-4.818,5.509-6.766,5.509-1.171,0-1.5-1.689-.739-4.511,1.478-5.49,3.983-7.745,6.325-7.745,2.006,0,2.706,1.132,2.294,2.668m-19.127-.2c-.6,2.207-5.384,9.847-8.062,9.847-.835,0-1.536-1.123-.681-4.309,1.478-5.49,4.012-8.052,6.3-8.052,2.006,0,2.735,1.44,2.447,2.514M39.789,17.822c1.449,0,1.785.825,1.44,2.1-.566,2.1-4.578,5.182-7.313,5.182,1.478-5.49,4.136-7.284,5.864-7.284M51.968,6.372c.691-1.363,1.257-2.39,1.766-3.2a17.052,17.052,0,0,1,.077,4.472h0A19.186,19.186,0,0,1,49.06,18.273c-.086.1-.173.2-.259.3.739-3.311,1.008-7.927,3.167-12.188M107.5,17.121s-.23-.048-.278-.048l-1.823.23h-.01a3.876,3.876,0,0,0-.6.6c-1.008,1.286-1.919,3.618-2.889,5.125-1.19,1.881-4.808,7.6-7.188,7.6a.861.861,0,0,1-.873-.825,9.093,9.093,0,0,1,.278-1.881l3.157-10.259c.048-.1.048-.23.1-.317l-.1-.182s-.278-.048-.317-.048c-.691.1-2.294.048-2.562.873l-1.9,5.95c-.182.029-.345.2-.653.6-1.977,2.562-3.666,5.125-5.346,5.125-1.392,0-1.958-1.027-.806-5.278l.749-2.774.47-1.747c.9-3.33,2.169-7.639,3.465-10.97,1.4-3.637,2.3-5.662,3.138-6.728a.155.155,0,0,0-.144-.25l-2.39.326a.279.279,0,0,0-.1.048c-1.257,1.267-1.987,2.87-3.205,6.094a89.809,89.809,0,0,0-3.109,9.444.144.144,0,0,1-.259.038,3.4,3.4,0,0,0-2.62-.921c-3.013,0-7.255,1.8-9.386,7.409a2.106,2.106,0,0,1-.134.173c-1.977,2.562-3.666,5.125-5.394,5.125-1.392,0-1.4-1.027-.25-5.278a29.794,29.794,0,0,1,2.3-6.257,5.222,5.222,0,0,0,.624-1.075c.038-.154.01-.259-.211-.259a3.994,3.994,0,0,0-1.075.259c-.893.413-2.015.873-2.294,1.9-.086-.72-.912-2-3.474-2-2.956,0-7.4,1.843-9.453,7.9-1.727,2.265-3.282,4.319-4.779,4.319-1.392,0-1.9-1.027-.749-5.278l.269-1-.029.029.144-.48.355-1.315s.048-.058.077-.086l.259-.845c2.754-3.177,5.182-6.1,6.459-11.862C55.4,6.286,56.066,2.313,55.116.1a.161.161,0,0,0-.163-.1,1.96,1.96,0,0,0-.989.6C52.409,1.766,50.9,3.983,49.386,7.889a158.028,158.028,0,0,0-4.827,15.845l-.058.211c-.2.048-.355.211-.6.6-1.737,2.3-4.789,5.538-7.409,5.538-2.4,0-3.465-1.641-2.774-4.2,3.138-.048,7.745-3.282,8.493-6.046.461-1.689-.173-2.87-2.572-2.87-2.63,0-7.006,1.67-8.877,7.553a.132.132,0,0,0-.029.038c-1.977,2.562-3.724,5.125-5.4,5.125-1.392,0-1.2-.921.221-6.209,1.276-4.722,1.305-6.516-1.536-6.516-3.628,0-7.1,5.23-8.445,7.332,1.507-5.586,1.305-7.332-1.593-7.332-3.349,0-7.111,5.077-8.618,7.332.528-1.948,1.5-5.538,1.823-6.152.317-.566.624-.873.681-1.075.038-.154-.038-.259-.269-.259a3.625,3.625,0,0,0-1.017.259c-.95.413-2.5,1.228-2.85,2.514,0,0-.979,3.637-1.248,4.616C1.957,26.143.969,29.837.614,30.5.3,31.066.057,31.325,0,31.527s.038.259.211.259a2.6,2.6,0,0,0,1.075-.259c.95-.413,2.447-1.228,2.793-2.514a17.148,17.148,0,0,1,2.063-4.568c1.046-1.593,4.127-6,6.42-6,1.286,0,1.3,1.18.029,5.893-.278,1.027-1.382,5.125-1.881,6.152a10.982,10.982,0,0,1-.557,1.027c-.058.2.038.259.211.259a2.452,2.452,0,0,0,1.075-.259c.95-.413,2.5-1.228,2.85-2.514a16.311,16.311,0,0,1,2-4.511c1.305-1.948,4.031-6.056,6.037-6.056,1.564,0,1.411,1.18.24,5.538-1.42,5.278-1.852,7.687.825,7.687,2.841,0,5.317-3.253,6.948-5.5-.537,3.541,1.622,5.5,4.539,5.5,4.04,0,7.563-4.184,9.223-6.334l-.077.3c-.816,3.023-.489,5.538,2.188,5.538,2.447,0,4.616-2.409,6.209-4.5-.653,3.263.614,5,2.582,5,3.733,0,7.38-5.432,8.6-7.284-1.219,4.511-1.459,7.284,1.219,7.284s5.23-3.148,6.862-5.384c-.739,3.1.489,5.384,2.39,5.384,3.109,0,5.893-2.889,7.822-5.058a.157.157,0,0,1,.269.144c-.6,2.735-.1,4.914,2.4,4.914,3.2,0,5.864-4.108,7.457-6.267L91.508,27a8.752,8.752,0,0,0-.547,2.658c0,1.372.729,2.61,2.246,2.61,3.743,0,7.563-5.586,9.415-8.589a.042.042,0,0,1,.077.029c-.777,2.639-1.929,7.831-2.294,9.511a10.093,10.093,0,0,1-.288,1.056,15.644,15.644,0,0,1-3.225,6.171c-1.881,2.015-3.916,2.2-5.921,2.543a.2.2,0,0,0-.077.355l2.889,2.044a1.155,1.155,0,0,0,.509-.077c4.559-1.8,6.872-6.171,8.042-10.71l.624-2.562c.537-2.111,1.132-4.194,1.756-6.277.873-2.841,1.967-5.634,2.889-8.474l-.1-.182Z" transform="translate(0 0)" fill="#fff"/>
  </g>
</svg>
