<svg xmlns="http://www.w3.org/2000/svg" width="44.165" height="43.905" viewBox="0 0 44.165 43.905">
  <g id="グループ_3644" data-name="グループ 3644" transform="translate(-1130.823 -64.48)">
    <g id="グループ_3804" data-name="グループ 3804" transform="translate(1131.473 64.48)">
      <path id="パス_9760" data-name="パス 9760" d="M175.284,35.237c0-4.217-3.059-7.637-6.835-7.637a6.433,6.433,0,0,0-4.6,1.992,6.43,6.43,0,0,0-4.6-1.992c-3.774,0-6.835,3.42-6.835,7.637a8.085,8.085,0,0,0,3.164,6.441h0l.03.021c.234.164,8.246,6.006,8.246,6.006s8.012-5.842,8.245-6.006l.03-.021h0a8.086,8.086,0,0,0,3.164-6.441" transform="translate(-131.77 -27.6)" fill="#fff"/>
      <path id="パス_9762" data-name="パス 9762" d="M188.12,22.172a4.652,4.652,0,0,0-4.375-4.888A4.112,4.112,0,0,0,180.8,18.56a4.116,4.116,0,0,0-2.947-1.276,4.652,4.652,0,0,0-4.373,4.888,5.17,5.17,0,0,0,2.025,4.122l0,0,.019.011c.15.1,5.278,3.844,5.278,3.844s5.128-3.74,5.276-3.844l.021-.011,0,0A5.176,5.176,0,0,0,188.12,22.172Z" transform="translate(-173.481 13.103)" fill="none" stroke="#fff" stroke-linecap="round" stroke-linejoin="round" stroke-width="1.3"/>
    </g>
  </g>
</svg>
