<svg xmlns="http://www.w3.org/2000/svg" width="344.3" height="63.65" viewBox="0 0 344.3 63.65">
  <g id="グループ_3734" data-name="グループ 3734" transform="translate(0.11 4.245)">
    <path id="パス_9760" data-name="パス 9760" d="M175.284,35.237c0-4.217-3.059-7.637-6.835-7.637a6.433,6.433,0,0,0-4.6,1.992,6.43,6.43,0,0,0-4.6-1.992c-3.774,0-6.835,3.42-6.835,7.637a8.085,8.085,0,0,0,3.164,6.441h0l.03.021c.234.164,8.246,6.006,8.246,6.006s8.012-5.842,8.245-6.006l.03-.021h0a8.086,8.086,0,0,0,3.164-6.441" transform="translate(136.43 11.7)" fill="#fff"/>
    <path id="パス_9761" data-name="パス 9761" d="M23.159,7.92C23.159,3.7,20.1.283,16.323.283a6.432,6.432,0,0,0-4.6,1.992A6.431,6.431,0,0,0,7.117.283C3.345.283.284,3.7.284,7.92a8.08,8.08,0,0,0,3.164,6.441h0l.032.021c.234.164,8.246,6.006,8.246,6.006s8.012-5.842,8.244-6.006L20,14.361h0A8.082,8.082,0,0,0,23.159,7.92Z" transform="translate(0.256 -3.878)" fill="none" stroke="#fff" stroke-linecap="round" stroke-linejoin="round" stroke-width="1.3"/>
    <path id="パス_9762" data-name="パス 9762" d="M188.12,22.172a4.652,4.652,0,0,0-4.375-4.888A4.112,4.112,0,0,0,180.8,18.56a4.116,4.116,0,0,0-2.947-1.276,4.652,4.652,0,0,0-4.373,4.888,5.17,5.17,0,0,0,2.025,4.122l0,0,.019.011c.15.1,5.278,3.844,5.278,3.844s5.128-3.74,5.276-3.844l.021-.011,0,0A5.176,5.176,0,0,0,188.12,22.172Z" transform="translate(155.42 2.906)" fill="none" stroke="#fff" stroke-linecap="round" stroke-linejoin="round" stroke-width="1.3"/>
    <path id="パス_9763" data-name="パス 9763" d="M38.828,17.92a4.652,4.652,0,0,0-4.375-4.888,4.111,4.111,0,0,0-2.945,1.276,4.116,4.116,0,0,0-2.947-1.276,4.652,4.652,0,0,0-4.373,4.888,5.17,5.17,0,0,0,2.025,4.122l0,0,.019.011c.15.1,5.278,3.844,5.278,3.844s5.128-3.74,5.276-3.844l.021-.011,0,0a5.176,5.176,0,0,0,2.025-4.122" transform="translate(21.799 7.158)" fill="#fff"/>
  </g>
</svg>
