<svg xmlns="http://www.w3.org/2000/svg" width="302.592" height="79.445" viewBox="0 0 302.592 79.445">
  <g id="グループ_3735" data-name="グループ 3735" transform="translate(-23.113 -367.326)">
    <path id="パス_9764" data-name="パス 9764" d="M175.284,35.237c0-4.217-3.059-7.637-6.835-7.637a6.433,6.433,0,0,0-4.6,1.992,6.43,6.43,0,0,0-4.6-1.992c-3.774,0-6.835,3.42-6.835,7.637a8.085,8.085,0,0,0,3.164,6.441h0l.03.021c.234.164,8.246,6.006,8.246,6.006s8.012-5.842,8.245-6.006l.03-.021h0a8.086,8.086,0,0,0,3.164-6.441" transform="translate(-129.296 339.726)" fill="#fff"/>
    <path id="パス_9765" data-name="パス 9765" d="M188.12,22.172a4.652,4.652,0,0,0-4.375-4.888A4.112,4.112,0,0,0,180.8,18.56a4.116,4.116,0,0,0-2.947-1.276,4.652,4.652,0,0,0-4.373,4.888,5.17,5.17,0,0,0,2.025,4.122l0,0,.019.011c.15.1,5.278,3.844,5.278,3.844s5.128-3.74,5.276-3.844l.021-.011,0,0A5.176,5.176,0,0,0,188.12,22.172Z" transform="translate(90.717 415.969)" fill="none" stroke="#fff" stroke-linecap="round" stroke-linejoin="round" stroke-width="1.3"/>
    <path id="パス_9766" data-name="パス 9766" d="M48.7,21.215c0-4.519-3.278-8.183-7.323-8.183a6.883,6.883,0,0,0-4.93,2.136,6.89,6.89,0,0,0-4.933-2.136c-4.042,0-7.32,3.663-7.32,8.183a8.655,8.655,0,0,0,3.39,6.9l0,0,.032.019c.251.175,8.835,6.435,8.835,6.435s8.584-6.26,8.832-6.435l.035-.019,0,0a8.664,8.664,0,0,0,3.39-6.9" transform="translate(277.009 374.399)" fill="#fff"/>
  </g>
</svg>
