<svg xmlns="http://www.w3.org/2000/svg" width="30" height="29.994" viewBox="0 0 30 29.994">
  <path id="Icon_awesome-instagram" data-name="Icon awesome-instagram" d="M15,9.544a7.678,7.678,0,1,0,5.441,2.249A7.69,7.69,0,0,0,15,9.544Zm0,12.689a5,5,0,1,1,5-5,5,5,0,0,1-5,5Zm9.8-13a1.791,1.791,0,1,1-.525-1.269A1.794,1.794,0,0,1,24.8,9.23Zm5.093,1.821a8.874,8.874,0,0,0-2.423-6.284,8.952,8.952,0,0,0-6.285-2.423c-2.476-.14-9.9-.14-12.375,0A8.921,8.921,0,0,0,2.523,4.759,8.907,8.907,0,0,0,.1,11.044c-.14,2.476-.14,9.9,0,12.375A8.879,8.879,0,0,0,2.523,29.7a8.941,8.941,0,0,0,6.284,2.423c2.476.14,9.9.14,12.375,0A8.875,8.875,0,0,0,27.466,29.7a8.948,8.948,0,0,0,2.423-6.284c.14-2.476.14-9.892,0-12.368Zm-3.2,15.026a5.061,5.061,0,0,1-2.851,2.851c-1.975.783-6.659.6-8.841.6s-6.874.174-8.841-.6a5.061,5.061,0,0,1-2.85-2.852c-.785-1.975-.6-6.659-.6-8.841s-.174-6.874.6-8.839A5.061,5.061,0,0,1,6.159,5.544c1.972-.785,6.657-.6,8.839-.6s6.874-.174,8.841.6A5.061,5.061,0,0,1,26.69,8.4c.783,1.972.6,6.657.6,8.839s.182,6.873-.6,8.841Z" transform="translate(0.005 -2.238)" fill="#fff"/>
</svg>
