<svg xmlns="http://www.w3.org/2000/svg" width="30" height="24.366" viewBox="0 0 30 24.366">
  <path id="Icon_awesome-twitter" data-name="Icon awesome-twitter" d="M26.916,9.452c.019.266.019.533.019.8,0,8.128-6.187,17.494-17.494,17.494A17.375,17.375,0,0,1,0,24.985a12.719,12.719,0,0,0,1.485.076,12.314,12.314,0,0,0,7.633-2.627A6.159,6.159,0,0,1,3.369,18.17a7.753,7.753,0,0,0,1.161.1,6.5,6.5,0,0,0,1.618-.209,6.15,6.15,0,0,1-4.929-6.035v-.076A6.192,6.192,0,0,0,4,12.726,6.158,6.158,0,0,1,2.094,4.5a17.477,17.477,0,0,0,12.677,6.434,6.941,6.941,0,0,1-.152-1.41A6.154,6.154,0,0,1,25.26,5.321a12.1,12.1,0,0,0,3.9-1.485,6.132,6.132,0,0,1-2.7,3.388A12.326,12.326,0,0,0,30,6.273a13.217,13.217,0,0,1-3.084,3.179Z" transform="translate(0 -3.379)" fill="#fff"/>
</svg>
