<svg xmlns="http://www.w3.org/2000/svg" width="260.815" height="43.254" viewBox="0 0 260.815 43.254">
  <g id="グループ_3861" data-name="グループ 3861" transform="translate(72.323 -39.444)">
    <path id="パス_10160" data-name="パス 10160" d="M1.677.117C4.368.039,6.669,0,8.541,0c1.443,0,3.744.039,6.864.117v-1.56c-2.964-.117-3.7-.975-3.7-3.822V-21.1c0-2.5.819-3.471,3.276-3.471h.429v-1.6c-2.418.078-4.719.117-6.864.117-2.028,0-4.329-.039-6.864-.117v1.6h.39c2.847,0,3.315.819,3.315,3.471V-5.265c0,3-.468,3.744-3.705,3.822Zm18.759,0Q22.484,0,25.233,0c1.677,0,3.276.039,4.875.117V-1.365c-1.833-.117-2.067-.78-2.067-2.691V-9.75c0-3.081,1.56-5.109,3.666-5.109,1.6,0,2.184.9,2.184,2.847v8.229c0,1.911-.39,2.379-2.184,2.418V.117Q33.872,0,36.621,0c1.482,0,3,.039,4.6.117V-1.365c-1.794-.039-2.028-.663-2.028-2.691V-9.75c0-3.12,1.521-5.109,3.705-5.109,1.521,0,2.145,1.014,2.145,3.042v7.878c0,2.028-.429,2.574-2.223,2.613V.117C44.343.039,46.137,0,48.087,0c1.521,0,3,.039,4.524.117V-1.365c-2.184-.078-2.3-.507-2.3-2.574v-7.605c0-4.056-1.326-6.123-5.187-6.123a7.2,7.2,0,0,0-6.084,3.354,4.809,4.809,0,0,0-4.992-3.354,7.12,7.12,0,0,0-6.162,3.51l-.234-3.51h-.507a34.164,34.164,0,0,1-6.669,1.326v1.365c1.989.039,2.262.7,2.262,2.652v8.541c0,1.794-.273,2.184-2.3,2.418Zm46.6-2.067a3.259,3.259,0,0,0,3.588,2.5,5.824,5.824,0,0,0,4.524-2.3l-.819-1.053a2.831,2.831,0,0,1-1.287.585c-.507,0-.7-.312-.7-1.092v-9.2c0-3.393-2.5-5.07-7.41-5.07-4.68,0-7.293,1.56-7.293,3.744a2.11,2.11,0,0,0,2.184,2.184c1.833,0,2.145-1.482,2.769-2.847a2.6,2.6,0,0,1,2.418-1.56c1.4,0,2.184.819,2.184,2.418v1.326A1.238,1.238,0,0,1,66.222-11L63.453-9.984c-4.446,1.677-6.474,3.042-6.474,6.123A4.149,4.149,0,0,0,61.5.546,8.13,8.13,0,0,0,67.041-1.95ZM67-5.265a2.651,2.651,0,0,1-2.691,2.613c-1.092,0-1.872-.9-1.872-2.379,0-2.223,1.443-3.549,4.563-4.524ZM83.46-5.889c-2.34.663-3.627,2.223-3.627,4.251a3.815,3.815,0,0,0,2.613,3.705c1.56.546,3.783.585,6.786.585,2.769,0,4.134.9,4.134,2.652,0,2.145-2.3,3.783-5.85,3.783-3.354,0-5.187-1.209-5.187-3.042a1.616,1.616,0,0,1,1.209-1.56A2.119,2.119,0,0,0,81.51,3.276a2.7,2.7,0,0,0-2.5,2.886c0,2.73,2.886,4.6,8.229,4.6,6.4,0,9.789-2.457,9.789-6.825,0-4.563-2.886-5.928-9.165-6.084-2.847-.078-4.134.117-4.134-1.4,0-1.17,1.131-1.521,3.081-1.677,5.538-.39,8.112-2.028,8.112-6.123a5.575,5.575,0,0,0-1.4-3.822,1.746,1.746,0,0,1,.9-.39c1.014,0,1.521,1.443,2.574,1.443A1.549,1.549,0,0,0,98.709-15.6c0-1.56-.819-2.379-2.5-2.379a5.82,5.82,0,0,0-3.783,1.716,9.458,9.458,0,0,0-5.07-1.326c-4.719,0-7.683,2.652-7.683,6.24A5.5,5.5,0,0,0,83.46-5.889Zm1.482-5.577c0-3.12.663-4.719,2.418-4.719,1.833,0,2.3,1.638,2.3,4.8,0,3.12-.312,4.563-2.418,4.563C85.41-6.825,84.942-8.346,84.942-11.466Zm33.384,6.981a10.534,10.534,0,0,1-1.872,1.794,5.164,5.164,0,0,1-2.847.819c-3.276,0-5.148-2.3-5.148-6.669,0-.234.039-.507.039-.78h11.466v-.312c0-5.109-2.886-7.995-7.761-7.995-5.811,0-9.672,3.861-9.672,9.243,0,5.226,3.822,8.931,9.321,8.931a8.8,8.8,0,0,0,7.8-3.861ZM108.5-11.154c.273-3.237,1.365-4.836,3.432-4.836,1.911,0,2.964,1.521,2.964,4.368v.468ZM137.9.117C139.7,0,141.18-.039,142.389-.039c.9,0,2.418.078,4.641.2v-1.6c-3-.156-3.588-1.716-3.588-5.655V-20.124l8.346,20.2h1.833l7.995-19.7V-5.3c0,2.808-.2,3.549-3.51,3.861V.117c2.457-.117,4.446-.156,6.006-.156,1.911,0,4.329.078,7.293.2V-1.4c-3.12-.117-3.861-.9-3.861-3.471V-20.787c0-2.925.546-3.861,3.861-3.9v-1.521c-2.145.078-4.056.156-5.811.156q-1.813,0-3.627-.117L154.752-8.034l-7.644-18.135c-1.833.078-3.627.117-5.421.117-1.4,0-2.652,0-3.783-.117v1.443c1.677.078,2.808.429,3.471,1.287V-7.1c0,3.978-.468,5.538-3.471,5.616Zm38.142-8.58c0,5.226,3.978,9.009,9.555,9.009,5.889,0,9.828-3.744,9.828-9.321,0-5.109-3.9-8.814-9.477-8.814C180.024-17.589,176.046-13.728,176.046-8.463Zm5.889.078c0-5.148,1.131-7.566,3.9-7.566,2.613,0,3.744,2.34,3.744,7.137,0,5.265-.975,7.722-3.783,7.722C182.793-1.092,181.935-3.393,181.935-8.385ZM214.344.507a42.1,42.1,0,0,1,7.449-1.521V-2.379c-1.833-.039-2.613-.429-2.613-1.638V-27.729a38.264,38.264,0,0,1-8.346,1.053v1.4c2.418.117,3,.39,3,2.067v7.878a7.2,7.2,0,0,0-5.538-2.3c-4.641,0-8.268,3.783-8.268,9.087,0,5.538,3.12,9.048,8.034,9.048a6.4,6.4,0,0,0,5.85-3.159Zm-.624-11.622v4.173c0,3.042-1.482,4.641-4.056,4.641-2.457,0-3.705-2.106-3.705-6.24,0-4.329,1.482-6.552,4.056-6.552C212.355-15.093,213.72-13.689,213.72-11.115Zm28.158,6.63a10.533,10.533,0,0,1-1.872,1.794,5.164,5.164,0,0,1-2.847.819c-3.276,0-5.148-2.3-5.148-6.669,0-.234.039-.507.039-.78h11.466v-.312c0-5.109-2.886-7.995-7.761-7.995-5.811,0-9.672,3.861-9.672,9.243,0,5.226,3.822,8.931,9.321,8.931a8.8,8.8,0,0,0,7.8-3.861Zm-9.828-6.669c.273-3.237,1.365-4.836,3.432-4.836,1.911,0,2.964,1.521,2.964,4.368v.468ZM247.884.117A25.122,25.122,0,0,1,250.926,0h3.783c1.326,0,2.574,0,3.783.117V-1.326c-1.911-.078-2.613-.546-2.613-2.106v-24.3a30.723,30.723,0,0,1-7.8,1.521v1.4c1.677.117,2.418.429,2.418,1.443V-3.432c0,1.6-.312,1.95-2.613,2.106Z" transform="translate(-72 69.934)" fill="#fff" stroke="#e8aeb8" stroke-width="4"/>
    <path id="パス_10159" data-name="パス 10159" d="M1.677.117C4.368.039,6.669,0,8.541,0c1.443,0,3.744.039,6.864.117v-1.56c-2.964-.117-3.7-.975-3.7-3.822V-21.1c0-2.5.819-3.471,3.276-3.471h.429v-1.6c-2.418.078-4.719.117-6.864.117-2.028,0-4.329-.039-6.864-.117v1.6h.39c2.847,0,3.315.819,3.315,3.471V-5.265c0,3-.468,3.744-3.705,3.822Zm18.759,0Q22.484,0,25.233,0c1.677,0,3.276.039,4.875.117V-1.365c-1.833-.117-2.067-.78-2.067-2.691V-9.75c0-3.081,1.56-5.109,3.666-5.109,1.6,0,2.184.9,2.184,2.847v8.229c0,1.911-.39,2.379-2.184,2.418V.117Q33.872,0,36.621,0c1.482,0,3,.039,4.6.117V-1.365c-1.794-.039-2.028-.663-2.028-2.691V-9.75c0-3.12,1.521-5.109,3.705-5.109,1.521,0,2.145,1.014,2.145,3.042v7.878c0,2.028-.429,2.574-2.223,2.613V.117C44.343.039,46.137,0,48.087,0c1.521,0,3,.039,4.524.117V-1.365c-2.184-.078-2.3-.507-2.3-2.574v-7.605c0-4.056-1.326-6.123-5.187-6.123a7.2,7.2,0,0,0-6.084,3.354,4.809,4.809,0,0,0-4.992-3.354,7.12,7.12,0,0,0-6.162,3.51l-.234-3.51h-.507a34.164,34.164,0,0,1-6.669,1.326v1.365c1.989.039,2.262.7,2.262,2.652v8.541c0,1.794-.273,2.184-2.3,2.418Zm46.6-2.067a3.259,3.259,0,0,0,3.588,2.5,5.824,5.824,0,0,0,4.524-2.3l-.819-1.053a2.831,2.831,0,0,1-1.287.585c-.507,0-.7-.312-.7-1.092v-9.2c0-3.393-2.5-5.07-7.41-5.07-4.68,0-7.293,1.56-7.293,3.744a2.11,2.11,0,0,0,2.184,2.184c1.833,0,2.145-1.482,2.769-2.847a2.6,2.6,0,0,1,2.418-1.56c1.4,0,2.184.819,2.184,2.418v1.326A1.238,1.238,0,0,1,66.222-11L63.453-9.984c-4.446,1.677-6.474,3.042-6.474,6.123A4.149,4.149,0,0,0,61.5.546,8.13,8.13,0,0,0,67.041-1.95ZM67-5.265a2.651,2.651,0,0,1-2.691,2.613c-1.092,0-1.872-.9-1.872-2.379,0-2.223,1.443-3.549,4.563-4.524ZM83.46-5.889c-2.34.663-3.627,2.223-3.627,4.251a3.815,3.815,0,0,0,2.613,3.705c1.56.546,3.783.585,6.786.585,2.769,0,4.134.9,4.134,2.652,0,2.145-2.3,3.783-5.85,3.783-3.354,0-5.187-1.209-5.187-3.042a1.616,1.616,0,0,1,1.209-1.56A2.119,2.119,0,0,0,81.51,3.276a2.7,2.7,0,0,0-2.5,2.886c0,2.73,2.886,4.6,8.229,4.6,6.4,0,9.789-2.457,9.789-6.825,0-4.563-2.886-5.928-9.165-6.084-2.847-.078-4.134.117-4.134-1.4,0-1.17,1.131-1.521,3.081-1.677,5.538-.39,8.112-2.028,8.112-6.123a5.575,5.575,0,0,0-1.4-3.822,1.746,1.746,0,0,1,.9-.39c1.014,0,1.521,1.443,2.574,1.443A1.549,1.549,0,0,0,98.709-15.6c0-1.56-.819-2.379-2.5-2.379a5.82,5.82,0,0,0-3.783,1.716,9.458,9.458,0,0,0-5.07-1.326c-4.719,0-7.683,2.652-7.683,6.24A5.5,5.5,0,0,0,83.46-5.889Zm1.482-5.577c0-3.12.663-4.719,2.418-4.719,1.833,0,2.3,1.638,2.3,4.8,0,3.12-.312,4.563-2.418,4.563C85.41-6.825,84.942-8.346,84.942-11.466Zm33.384,6.981a10.534,10.534,0,0,1-1.872,1.794,5.164,5.164,0,0,1-2.847.819c-3.276,0-5.148-2.3-5.148-6.669,0-.234.039-.507.039-.78h11.466v-.312c0-5.109-2.886-7.995-7.761-7.995-5.811,0-9.672,3.861-9.672,9.243,0,5.226,3.822,8.931,9.321,8.931a8.8,8.8,0,0,0,7.8-3.861ZM108.5-11.154c.273-3.237,1.365-4.836,3.432-4.836,1.911,0,2.964,1.521,2.964,4.368v.468ZM137.9.117C139.7,0,141.18-.039,142.389-.039c.9,0,2.418.078,4.641.2v-1.6c-3-.156-3.588-1.716-3.588-5.655V-20.124l8.346,20.2h1.833l7.995-19.7V-5.3c0,2.808-.2,3.549-3.51,3.861V.117c2.457-.117,4.446-.156,6.006-.156,1.911,0,4.329.078,7.293.2V-1.4c-3.12-.117-3.861-.9-3.861-3.471V-20.787c0-2.925.546-3.861,3.861-3.9v-1.521c-2.145.078-4.056.156-5.811.156q-1.813,0-3.627-.117L154.752-8.034l-7.644-18.135c-1.833.078-3.627.117-5.421.117-1.4,0-2.652,0-3.783-.117v1.443c1.677.078,2.808.429,3.471,1.287V-7.1c0,3.978-.468,5.538-3.471,5.616Zm38.142-8.58c0,5.226,3.978,9.009,9.555,9.009,5.889,0,9.828-3.744,9.828-9.321,0-5.109-3.9-8.814-9.477-8.814C180.024-17.589,176.046-13.728,176.046-8.463Zm5.889.078c0-5.148,1.131-7.566,3.9-7.566,2.613,0,3.744,2.34,3.744,7.137,0,5.265-.975,7.722-3.783,7.722C182.793-1.092,181.935-3.393,181.935-8.385ZM214.344.507a42.1,42.1,0,0,1,7.449-1.521V-2.379c-1.833-.039-2.613-.429-2.613-1.638V-27.729a38.264,38.264,0,0,1-8.346,1.053v1.4c2.418.117,3,.39,3,2.067v7.878a7.2,7.2,0,0,0-5.538-2.3c-4.641,0-8.268,3.783-8.268,9.087,0,5.538,3.12,9.048,8.034,9.048a6.4,6.4,0,0,0,5.85-3.159Zm-.624-11.622v4.173c0,3.042-1.482,4.641-4.056,4.641-2.457,0-3.705-2.106-3.705-6.24,0-4.329,1.482-6.552,4.056-6.552C212.355-15.093,213.72-13.689,213.72-11.115Zm28.158,6.63a10.533,10.533,0,0,1-1.872,1.794,5.164,5.164,0,0,1-2.847.819c-3.276,0-5.148-2.3-5.148-6.669,0-.234.039-.507.039-.78h11.466v-.312c0-5.109-2.886-7.995-7.761-7.995-5.811,0-9.672,3.861-9.672,9.243,0,5.226,3.822,8.931,9.321,8.931a8.8,8.8,0,0,0,7.8-3.861Zm-9.828-6.669c.273-3.237,1.365-4.836,3.432-4.836,1.911,0,2.964,1.521,2.964,4.368v.468ZM247.884.117A25.122,25.122,0,0,1,250.926,0h3.783c1.326,0,2.574,0,3.783.117V-1.326c-1.911-.078-2.613-.546-2.613-2.106v-24.3a30.723,30.723,0,0,1-7.8,1.521v1.4c1.677.117,2.418.429,2.418,1.443V-3.432c0,1.6-.312,1.95-2.613,2.106Z" transform="translate(-72 69.934)" fill="#fff"/>
  </g>
</svg>
