<svg xmlns="http://www.w3.org/2000/svg" xmlns:xlink="http://www.w3.org/1999/xlink" width="76.54" height="76.54" viewBox="0 0 76.54 76.54">
  <defs>
    <clipPath id="clip-path">
      <rect id="長方形_1194" data-name="長方形 1194" width="76.54" height="76.54" fill="#faecec"/>
    </clipPath>
  </defs>
  <g id="グループ_3680" data-name="グループ 3680" clip-path="url(#clip-path)">
    <path id="パス_9832" data-name="パス 9832" d="M38.27,76.54A38.27,38.27,0,1,0,0,38.27,38.27,38.27,0,0,0,38.27,76.54" transform="translate(0 0)" fill="#faecec"/>
    <path id="パス_9833" data-name="パス 9833" d="M28.006,52.357A15.193,15.193,0,0,1,12.829,37.181V35.6c0-5.955,7.841-17.549,15.175-26.3,7.332,8.761,15.178,20.361,15.178,26.3v1.579A15.193,15.193,0,0,1,28.006,52.357" transform="translate(10.264 7.442)" fill="#fff"/>
    <path id="パス_9834" data-name="パス 9834" d="M28.572,54.2A16.471,16.471,0,0,1,12.121,37.748V36.169c0-2.982,1.69-7.276,5.023-12.764A121.93,121.93,0,0,1,27.593,9.049a1.275,1.275,0,0,1,1.956,0A122.583,122.583,0,0,1,40,23.414c3.334,5.489,5.025,9.78,5.025,12.755v1.579A16.471,16.471,0,0,1,28.572,54.2Zm0-42.332A116.849,116.849,0,0,0,19.323,24.73c-3.845,6.331-4.652,9.715-4.652,11.44v1.579a13.9,13.9,0,1,0,27.8,0V36.169c0-1.719-.808-5.1-4.654-11.431A117.483,117.483,0,0,0,28.57,11.868Z" transform="translate(9.698 6.875)" fill="#e18c9f"/>
    <path id="パス_9835" data-name="パス 9835" d="M25.462,33.663a9.392,9.392,0,0,1-4.572-1.181,9.509,9.509,0,0,1-3.874-4.03,9.381,9.381,0,0,1-1.008-4.241" transform="translate(12.808 19.371)" fill="#fff"/>
    <path id="パス_9836" data-name="パス 9836" d="M26.029,35.506a10.731,10.731,0,0,1-9.585-5.913A10.587,10.587,0,0,1,15.3,24.778a1.275,1.275,0,0,1,2.551,0,8.06,8.06,0,0,0,.871,3.666,8.18,8.18,0,0,0,7.308,4.511,1.275,1.275,0,0,1,0,2.551Z" transform="translate(12.241 18.804)" fill="#e18c9f"/>
  </g>
</svg>
