<svg xmlns="http://www.w3.org/2000/svg" xmlns:xlink="http://www.w3.org/1999/xlink" width="77.937" height="77.937" viewBox="0 0 77.937 77.937">
  <defs>
    <clipPath id="clip-path">
      <rect id="長方形_1196" data-name="長方形 1196" width="77.937" height="77.937" fill="none"/>
    </clipPath>
  </defs>
  <g id="グループ_3689" data-name="グループ 3689" clip-path="url(#clip-path)">
    <path id="パス_9853" data-name="パス 9853" d="M38.969,77.937A38.969,38.969,0,1,0,0,38.969,38.969,38.969,0,0,0,38.969,77.937" transform="translate(0 0)" fill="#faecec"/>
    <path id="パス_9854" data-name="パス 9854" d="M11.32,20.918a2.409,2.409,0,0,0-1.93,1.008A3.386,3.386,0,0,0,9.2,25.554a26.329,26.329,0,0,0,44.937,0,3.386,3.386,0,0,0-.191-3.627,2.4,2.4,0,0,0-1.93-1.008,2.363,2.363,0,0,0-.885.172c-.968.381-2.055.894-3.312,1.488-4.186,1.976-9.92,4.683-16.15,4.683s-11.964-2.707-16.15-4.683c-1.257-.594-2.344-1.107-3.312-1.488a2.372,2.372,0,0,0-.887-.172" transform="translate(7.299 17.424)" fill="#fff"/>
    <path id="パス_9855" data-name="パス 9855" d="M11.912,20.209a3.665,3.665,0,0,1,1.371.266c1,.395,2.105.916,3.383,1.519,4.079,1.925,9.659,4.559,15.6,4.559S43.778,23.92,47.852,22c1.283-.606,2.386-1.127,3.4-1.525a3.649,3.649,0,0,1,1.361-.263,3.69,3.69,0,0,1,2.973,1.532,4.654,4.654,0,0,1,.272,5.053A27.945,27.945,0,0,1,32.261,40.046,27.939,27.939,0,0,1,8.67,26.8a4.657,4.657,0,0,1,.27-5.054A3.7,3.7,0,0,1,11.912,20.209Zm20.349,8.941c-6.519,0-12.4-2.777-16.7-4.805-1.242-.586-2.309-1.091-3.239-1.457a1.092,1.092,0,0,0-.411-.082,1.123,1.123,0,0,0-.889.485,2.083,2.083,0,0,0-.107,2.2,25.031,25.031,0,0,0,42.69,0,2.081,2.081,0,0,0-.109-2.2,1.105,1.105,0,0,0-.888-.485,1.06,1.06,0,0,0-.4.079c-.937.369-2,.874-3.241,1.457C44.664,26.373,38.78,29.151,32.261,29.151Z" transform="translate(6.707 16.833)" fill="#e18c9f"/>
    <path id="線_257" data-name="線 257" d="M2.273,6.849a1.3,1.3,0,0,1-1.23-.882L-.639,1.008A1.3,1.3,0,0,1,1.82.173L3.5,5.133a1.3,1.3,0,0,1-1.23,1.716Z" transform="translate(14.643 27.066)" fill="#e18c9f"/>
    <path id="線_258" data-name="線 258" d="M4.212,5.672a1.3,1.3,0,0,1-.938-.4L-.348,1.488a1.3,1.3,0,0,1,1.876-1.8L5.15,3.475a1.3,1.3,0,0,1-.938,2.2Z" transform="translate(7.966 31.764)" fill="#e18c9f"/>
    <path id="線_259" data-name="線 259" d="M.592,7.095a1.313,1.313,0,0,1-.143-.008A1.3,1.3,0,0,1-.7,5.654L-.131.449A1.3,1.3,0,1,1,2.451.732l-.57,5.206A1.3,1.3,0,0,1,.592,7.095Z" transform="translate(22.23 26.729)" fill="#e18c9f"/>
    <path id="線_260" data-name="線 260" d="M.59,6.849A1.3,1.3,0,0,1-.639,5.133L1.043.173a1.3,1.3,0,0,1,2.46.834L1.82,5.967A1.3,1.3,0,0,1,.59,6.849Z" transform="translate(60.431 27.066)" fill="#e18c9f"/>
    <path id="線_261" data-name="線 261" d="M.59,5.672a1.3,1.3,0,0,1-.938-2.2L3.274-.308a1.3,1.3,0,1,1,1.876,1.8L1.528,5.271A1.3,1.3,0,0,1,.59,5.672Z" transform="translate(65.169 31.764)" fill="#e18c9f"/>
    <path id="線_262" data-name="線 262" d="M1.159,7.095A1.3,1.3,0,0,1-.131,5.937L-.7.732A1.3,1.3,0,1,1,1.881.449l.57,5.206A1.3,1.3,0,0,1,1.3,7.087,1.314,1.314,0,0,1,1.159,7.095Z" transform="translate(53.957 26.729)" fill="#e18c9f"/>
  </g>
</svg>
