<svg xmlns="http://www.w3.org/2000/svg" width="77.937" height="77.937" viewBox="0 0 77.937 77.937">
  <g id="グループ_2930" data-name="グループ 2930" transform="translate(-28.346 -54.08)">
    <path id="パス_7839" data-name="パス 7839" d="M67.315,132.017A38.969,38.969,0,1,0,28.346,93.049a38.969,38.969,0,0,0,38.969,38.969" transform="translate(0)" fill="#faecec"/>
    <path id="パス_7840" data-name="パス 7840" d="M44.6,89.779l-4.72,4.72m1.435-12.788H34.58M44.6,73.642l-4.72-4.718M52.665,70.04V63.626m8.069,10.016,4.72-4.718M64.075,81.711h6.674M60.733,89.779l4.72,4.72M52.665,93.081V99.8" transform="translate(5.25 7.876)" fill="#e18c9f" stroke="#e18c9f" stroke-linecap="round" stroke-miterlimit="10" stroke-width="3"/>
    <path id="パス_7841" data-name="パス 7841" d="M55.811,77.024a7.833,7.833,0,1,1-7.833-7.833,7.834,7.834,0,0,1,7.833,7.833" transform="translate(9.801 12.552)" fill="#e18c9f"/>
    <path id="パス_7842" data-name="パス 7842" d="M54.253,100.688a1.305,1.305,0,0,1-.923-.382l-6.462-6.462A1.305,1.305,0,1,1,48.714,92l5.539,5.539L78.992,72.8a1.305,1.305,0,1,1,1.846,1.846L55.176,100.305A1.305,1.305,0,0,1,54.253,100.688Z" transform="translate(14.885 15.176)" fill="#e18c9f"/>
    <path id="パス_7843" data-name="パス 7843" d="M66.4,84.44a1.306,1.306,0,0,1-1.238-1.718l2.313-6.939L60.531,78.1a1.305,1.305,0,0,1-.826-2.476l9.415-3.139a1.305,1.305,0,0,1,1.651,1.651l-3.139,9.415A1.306,1.306,0,0,1,66.4,84.44Z" transform="translate(25.266 15.241)" fill="#e18c9f"/>
  </g>
</svg>
