<svg xmlns="http://www.w3.org/2000/svg" xmlns:xlink="http://www.w3.org/1999/xlink" width="77.52" height="77.52" viewBox="0 0 77.52 77.52">
  <defs>
    <clipPath id="clip-path">
      <rect id="長方形_1195" data-name="長方形 1195" width="77.52" height="77.52" fill="none"/>
    </clipPath>
  </defs>
  <g id="グループ_3682" data-name="グループ 3682" clip-path="url(#clip-path)">
    <path id="パス_9836" data-name="パス 9836" d="M38.76,77.52A38.76,38.76,0,1,0,0,38.76,38.76,38.76,0,0,0,38.76,77.52" transform="translate(0 0)" fill="#faecec"/>
    <path id="パス_9837" data-name="パス 9837" d="M19.728,52.29c-5.577,0-12.89-9.571-12.89-21.378S14.151,9.534,19.728,9.534" transform="translate(5.629 7.848)" fill="#fff"/>
    <path id="パス_9838" data-name="パス 9838" d="M20.311,54.165c-3.224,0-6.819-2.56-9.618-6.847a29.712,29.712,0,0,1,0-31.645c2.8-4.287,6.394-6.847,9.618-6.847a1.292,1.292,0,0,1,0,2.583c-4.562,0-11.6,8.625-11.6,20.086s7.036,20.086,11.6,20.086a1.292,1.292,0,0,1,0,2.583Z" transform="translate(5.045 7.265)" fill="#e18c9f"/>
    <path id="パス_9839" data-name="パス 9839" d="M24.3,30.912c0,11.807-3.03,21.378-6.767,21.378s-6.767-9.571-6.767-21.378,3.03-21.378,6.767-21.378S24.3,19.105,24.3,30.912" transform="translate(8.86 7.848)" fill="#fff"/>
    <path id="楕円形_79" data-name="楕円形 79" d="M7.351-.708c1.71,0,4.143,1.243,6.017,7.163A53.485,53.485,0,0,1,15.41,21.961a53.485,53.485,0,0,1-2.042,15.506c-1.874,5.921-4.306,7.163-6.017,7.163s-4.143-1.243-6.017-7.163A53.485,53.485,0,0,1-.708,21.961,53.485,53.485,0,0,1,1.334,6.455C3.208.534,5.64-.708,7.351-.708Zm0,42.756c.857,0,2.3-1.4,3.554-5.36a50.88,50.88,0,0,0,1.922-14.727A50.88,50.88,0,0,0,10.9,7.234c-1.252-3.956-2.7-5.36-3.554-5.36s-2.3,1.4-3.554,5.36A50.88,50.88,0,0,0,1.875,21.961,50.88,50.88,0,0,0,3.8,36.688C5.049,40.644,6.494,42.048,7.351,42.048Z" transform="translate(19.042 16.799)" fill="#e18c9f"/>
    <path id="パス_9840" data-name="パス 9840" d="M32.011,28.561c0,8.848-3.551,16.022-7.934,16.022s-7.934-7.172-7.934-16.02,3.551-16.022,7.934-16.022,7.934,7.172,7.934,16.02" transform="translate(13.287 10.323)" fill="#e8b2bc"/>
    <path id="パス_9841" data-name="パス 9841" d="M23.87,23.76c0,2.974-1.041,5.386-2.326,5.386s-2.324-2.41-2.324-5.386,1.041-5.386,2.324-5.386,2.326,2.412,2.326,5.386" transform="translate(15.82 15.124)" fill="#fff"/>
    <path id="パス_9842" data-name="パス 9842" d="M37.222,52.29c-5.577,0-12.89-9.571-12.89-21.378S31.645,9.534,37.222,9.534" transform="translate(20.028 7.848)" fill="#fff"/>
    <path id="パス_9843" data-name="パス 9843" d="M37.8,54.165c-3.224,0-6.819-2.56-9.618-6.847a29.712,29.712,0,0,1,0-31.645c2.8-4.287,6.394-6.847,9.618-6.847a1.292,1.292,0,0,1,0,2.583c-4.562,0-11.6,8.625-11.6,20.086s7.036,20.086,11.6,20.086a1.292,1.292,0,0,1,0,2.583Z" transform="translate(19.445 7.265)" fill="#e18c9f"/>
    <path id="パス_9844" data-name="パス 9844" d="M41.793,30.912c0,11.807-3.03,21.378-6.767,21.378s-6.767-9.571-6.767-21.378,3.03-21.378,6.767-21.378,6.767,9.571,6.767,21.378" transform="translate(23.26 7.848)" fill="#fff"/>
    <path id="楕円形_80" data-name="楕円形 80" d="M7.351-.708c1.71,0,4.143,1.243,6.017,7.163A53.485,53.485,0,0,1,15.41,21.961a53.485,53.485,0,0,1-2.042,15.506c-1.874,5.921-4.306,7.163-6.017,7.163s-4.143-1.243-6.017-7.163A53.485,53.485,0,0,1-.708,21.961,53.485,53.485,0,0,1,1.334,6.455C3.208.534,5.64-.708,7.351-.708Zm0,42.756c.857,0,2.3-1.4,3.554-5.36a50.88,50.88,0,0,0,1.922-14.727A50.88,50.88,0,0,0,10.9,7.234c-1.252-3.956-2.7-5.36-3.554-5.36s-2.3,1.4-3.554,5.36A50.88,50.88,0,0,0,1.875,21.961,50.88,50.88,0,0,0,3.8,36.688C5.049,40.644,6.494,42.048,7.351,42.048Z" transform="translate(50.935 16.799)" fill="#e18c9f"/>
  </g>
</svg>
