<svg xmlns="http://www.w3.org/2000/svg" width="258.372" height="30.095" viewBox="0 0 258.372 30.095">
  <g id="グループ_3826" data-name="グループ 3826" transform="translate(72.674 -41.592)">
    <path id="パス_10310" data-name="パス 10310" d="M1.326-.625C5.88-.7,9.773-.777,13-.777c4.048,0,8.019.038,11.912.076l.156-7.569h-1.6C22.7-4.334,20.361-2.593,16-2.593c-3.932,0-4.9-1.211-4.9-5V-21.441c0-2.5.7-3.217,3.5-3.217h.234v-1.514c-3.036.076-5.333.114-6.773.114-1.946,0-4.2-.038-6.734-.114v1.514h.195c2.569,0,3.387.719,3.387,2.99V-6c0,2.838-.662,3.785-3.27,3.785H1.326Zm45.156-4.5a10.4,10.4,0,0,1-1.869,1.741,5.263,5.263,0,0,1-2.842.795c-3.27,0-5.138-2.233-5.138-6.472,0-.227.039-.492.039-.757H48.116v-.3c0-4.958-2.881-7.758-7.747-7.758-5.8,0-9.654,3.747-9.654,8.969,0,5.071,3.815,8.667,9.3,8.667a8.865,8.865,0,0,0,7.785-3.747ZM36.672-11.6c.272-3.141,1.362-4.693,3.426-4.693,1.907,0,2.958,1.476,2.958,4.239v.454ZM52.437-.663c1.674-.076,3.231-.114,4.71-.114,1.324,0,3.114.038,5.411.114V-2.026c-1.869-.038-2.3-.606-2.3-2.346v-5.9c0-2.99,1.557-4.806,3.776-4.806,1.557,0,2.336,1.1,2.336,3.255v7.645c0,1.7-.389,2.157-2.219,2.157V-.663c1.869-.076,3.5-.114,4.866-.114,1.6,0,3.27.038,5.061.114V-2.026c-2.141-.151-2.3-.492-2.3-2.157v-7.645c0-4.012-1.869-6.017-5.489-6.017a7.906,7.906,0,0,0-6.345,3.33l-.234-3.33h-.662a27.771,27.771,0,0,1-6.618,1.325v1.4c1.946,0,2.413.492,2.413,2.5v8.44c0,1.627-.195,1.968-2.413,2.157Zm26.587.189H80.5l.584-1.438A7.3,7.3,0,0,0,86.265-.247c4.009,0,6.54-2.271,6.54-5.525,0-2.838-1.791-4.579-5.567-5.828-2.725-.908-4.282-1.1-4.282-2.763,0-1.1,1.012-1.93,2.569-1.93a5.39,5.39,0,0,1,4.9,3.6H91.91c-.039-.946-.039-1.779-.039-2.536,0-.795,0-1.59.039-2.46H90.43l-.74,1.249A7.341,7.341,0,0,0,85.1-17.883c-3.581,0-5.8,2.2-5.8,5.45s2.063,4.239,6.112,5.677c2.1.757,3.348,1.211,3.348,2.725,0,1.173-1.207,2.157-2.92,2.157a5.8,5.8,0,0,1-5.411-4.239h-1.4c.078,1.135.078,2.082.078,2.838C79.1-2.556,79.1-1.609,79.025-.474Zm31.8-.151c1.09-.114,4.048-.151,8.914-.151,1.946,0,3.62.038,4.983.151V-2.177c-3.893-.151-4.087-1.022-4.087-4.125v-6.623c.272,0,.506-.038.74-.038,3.036,0,4.243,1.173,4.71,4.39h1.674c-.039-1.287-.078-2.99-.078-5.033,0-1.59.039-3.368.078-5.336h-1.674c-.428,2.99-1.83,4.277-4.788,4.277h-.662v-8.288c0-1.135.428-1.362,2.063-1.362,5.372,0,7.708.833,8.369,4.731h1.6l-.234-6.623c-3.231.114-6.7.151-10.355.151-4.243,0-7.98-.038-11.25-.189V-24.7c3.114.038,3.854.87,3.854,3.747V-6.416c0,3.179-.428,4.125-3.854,4.239Zm38.966-4.5a10.4,10.4,0,0,1-1.868,1.741,5.263,5.263,0,0,1-2.842.795c-3.27,0-5.138-2.233-5.138-6.472,0-.227.039-.492.039-.757h11.445v-.3c0-4.958-2.881-7.758-7.747-7.758-5.8,0-9.654,3.747-9.654,8.969,0,5.071,3.815,8.667,9.3,8.667a8.865,8.865,0,0,0,7.785-3.747Zm-9.81-6.472c.272-3.141,1.362-4.693,3.426-4.693,1.907,0,2.958,1.476,2.958,4.239v.454Zm25.809,8.932c.545,1.7,1.635,2.422,3.581,2.422A5.869,5.869,0,0,0,173.89-2.48L173.073-3.5a2.868,2.868,0,0,1-1.285.568c-.506,0-.7-.3-.7-1.06v-8.932c0-3.293-2.491-4.92-7.4-4.92-4.671,0-7.279,1.514-7.279,3.633a2.078,2.078,0,0,0,2.18,2.119c1.83,0,2.141-1.438,2.764-2.763a2.6,2.6,0,0,1,2.413-1.514c1.4,0,2.18.795,2.18,2.346v1.287a1.207,1.207,0,0,1-.973,1.287l-2.764.984c-4.438,1.627-6.462,2.952-6.462,5.942,0,2.611,1.713,4.277,4.516,4.277A8.224,8.224,0,0,0,165.793-2.669Zm-.039-3.217a2.614,2.614,0,0,1-2.686,2.536c-1.09,0-1.868-.87-1.868-2.309,0-2.157,1.44-3.444,4.554-4.39Zm13.469.454c0,3.6,1.012,5.185,4.477,5.185a6.342,6.342,0,0,0,5.644-2.99L188.021-4.3a2.592,2.592,0,0,1-2.141,1.438c-1.09,0-1.285-.643-1.285-1.93v-10.9h4.01v-1.741H184.6v-5.3h-1.518c-1.168,3.066-2.92,5.033-5.8,5.525v1.514h1.946Zm15.493-.189c0,3.6,1.635,5.336,5.255,5.336a7.76,7.76,0,0,0,6.267-3.33l.311,3.141h.584a40.983,40.983,0,0,1,6.7-1.287V-3.085h-.467c-1.44,0-1.907-.341-1.907-1.59V-17.542c-2.764.076-5.333.038-7.747.114v1.287c2.063.038,2.375.681,2.375,2.838v4.2c0,4.012-1.168,6.017-3.815,6.017-1.518,0-2.219-.946-2.219-2.952V-17.542c-1.83.076-4.36.038-7.63.114v1.287c2.18.114,2.3.908,2.3,3.066ZM218.462-.7c2.3-.076,3.971-.076,5.138-.076,1.869,0,3.737.038,5.528.076V-2.1c-2.024,0-2.725-.3-2.725-1.854v-7.115c0-1.854,1.246-3.6,2.258-3.6.934,0,1.285,1.968,3.075,1.968a2.208,2.208,0,0,0,2.413-2.309c0-1.7-1.168-2.687-3.192-2.687-1.713,0-3.465,1.022-4.9,3.1l-.311-3.293h-.662a28.15,28.15,0,0,1-6.579,1.325v1.325c2.024.038,2.413.984,2.413,3.444v7.721c0,1.438-.545,1.779-2.452,1.968Zm35.229-4.428a10.4,10.4,0,0,1-1.868,1.741,5.263,5.263,0,0,1-2.842.795c-3.27,0-5.138-2.233-5.138-6.472,0-.227.039-.492.039-.757h11.445v-.3c0-4.958-2.881-7.758-7.747-7.758-5.8,0-9.654,3.747-9.654,8.969,0,5.071,3.815,8.667,9.3,8.667a8.865,8.865,0,0,0,7.785-3.747Zm-9.81-6.472c.273-3.141,1.362-4.693,3.426-4.693,1.907,0,2.958,1.476,2.958,4.239v.454Z" transform="translate(-72 69.934)" fill="#fff" stroke="#e8aeb8" stroke-width="4"/>
    <path id="パス_10309" data-name="パス 10309" d="M1.326-.625C5.88-.7,9.773-.777,13-.777c4.048,0,8.019.038,11.912.076l.156-7.569h-1.6C22.7-4.334,20.361-2.593,16-2.593c-3.932,0-4.9-1.211-4.9-5V-21.441c0-2.5.7-3.217,3.5-3.217h.234v-1.514c-3.036.076-5.333.114-6.773.114-1.946,0-4.2-.038-6.734-.114v1.514h.195c2.569,0,3.387.719,3.387,2.99V-6c0,2.838-.662,3.785-3.27,3.785H1.326Zm45.156-4.5a10.4,10.4,0,0,1-1.869,1.741,5.263,5.263,0,0,1-2.842.795c-3.27,0-5.138-2.233-5.138-6.472,0-.227.039-.492.039-.757H48.116v-.3c0-4.958-2.881-7.758-7.747-7.758-5.8,0-9.654,3.747-9.654,8.969,0,5.071,3.815,8.667,9.3,8.667a8.865,8.865,0,0,0,7.785-3.747ZM36.672-11.6c.272-3.141,1.362-4.693,3.426-4.693,1.907,0,2.958,1.476,2.958,4.239v.454ZM52.437-.663c1.674-.076,3.231-.114,4.71-.114,1.324,0,3.114.038,5.411.114V-2.026c-1.869-.038-2.3-.606-2.3-2.346v-5.9c0-2.99,1.557-4.806,3.776-4.806,1.557,0,2.336,1.1,2.336,3.255v7.645c0,1.7-.389,2.157-2.219,2.157V-.663c1.869-.076,3.5-.114,4.866-.114,1.6,0,3.27.038,5.061.114V-2.026c-2.141-.151-2.3-.492-2.3-2.157v-7.645c0-4.012-1.869-6.017-5.489-6.017a7.906,7.906,0,0,0-6.345,3.33l-.234-3.33h-.662a27.771,27.771,0,0,1-6.618,1.325v1.4c1.946,0,2.413.492,2.413,2.5v8.44c0,1.627-.195,1.968-2.413,2.157Zm26.587.189H80.5l.584-1.438A7.3,7.3,0,0,0,86.265-.247c4.009,0,6.54-2.271,6.54-5.525,0-2.838-1.791-4.579-5.567-5.828-2.725-.908-4.282-1.1-4.282-2.763,0-1.1,1.012-1.93,2.569-1.93a5.39,5.39,0,0,1,4.9,3.6H91.91c-.039-.946-.039-1.779-.039-2.536,0-.795,0-1.59.039-2.46H90.43l-.74,1.249A7.341,7.341,0,0,0,85.1-17.883c-3.581,0-5.8,2.2-5.8,5.45s2.063,4.239,6.112,5.677c2.1.757,3.348,1.211,3.348,2.725,0,1.173-1.207,2.157-2.92,2.157a5.8,5.8,0,0,1-5.411-4.239h-1.4c.078,1.135.078,2.082.078,2.838C79.1-2.556,79.1-1.609,79.025-.474Zm31.8-.151c1.09-.114,4.048-.151,8.914-.151,1.946,0,3.62.038,4.983.151V-2.177c-3.893-.151-4.087-1.022-4.087-4.125v-6.623c.272,0,.506-.038.74-.038,3.036,0,4.243,1.173,4.71,4.39h1.674c-.039-1.287-.078-2.99-.078-5.033,0-1.59.039-3.368.078-5.336h-1.674c-.428,2.99-1.83,4.277-4.788,4.277h-.662v-8.288c0-1.135.428-1.362,2.063-1.362,5.372,0,7.708.833,8.369,4.731h1.6l-.234-6.623c-3.231.114-6.7.151-10.355.151-4.243,0-7.98-.038-11.25-.189V-24.7c3.114.038,3.854.87,3.854,3.747V-6.416c0,3.179-.428,4.125-3.854,4.239Zm38.966-4.5a10.4,10.4,0,0,1-1.868,1.741,5.263,5.263,0,0,1-2.842.795c-3.27,0-5.138-2.233-5.138-6.472,0-.227.039-.492.039-.757h11.445v-.3c0-4.958-2.881-7.758-7.747-7.758-5.8,0-9.654,3.747-9.654,8.969,0,5.071,3.815,8.667,9.3,8.667a8.865,8.865,0,0,0,7.785-3.747Zm-9.81-6.472c.272-3.141,1.362-4.693,3.426-4.693,1.907,0,2.958,1.476,2.958,4.239v.454Zm25.809,8.932c.545,1.7,1.635,2.422,3.581,2.422A5.869,5.869,0,0,0,173.89-2.48L173.073-3.5a2.868,2.868,0,0,1-1.285.568c-.506,0-.7-.3-.7-1.06v-8.932c0-3.293-2.491-4.92-7.4-4.92-4.671,0-7.279,1.514-7.279,3.633a2.078,2.078,0,0,0,2.18,2.119c1.83,0,2.141-1.438,2.764-2.763a2.6,2.6,0,0,1,2.413-1.514c1.4,0,2.18.795,2.18,2.346v1.287a1.207,1.207,0,0,1-.973,1.287l-2.764.984c-4.438,1.627-6.462,2.952-6.462,5.942,0,2.611,1.713,4.277,4.516,4.277A8.224,8.224,0,0,0,165.793-2.669Zm-.039-3.217a2.614,2.614,0,0,1-2.686,2.536c-1.09,0-1.868-.87-1.868-2.309,0-2.157,1.44-3.444,4.554-4.39Zm13.469.454c0,3.6,1.012,5.185,4.477,5.185a6.342,6.342,0,0,0,5.644-2.99L188.021-4.3a2.592,2.592,0,0,1-2.141,1.438c-1.09,0-1.285-.643-1.285-1.93v-10.9h4.01v-1.741H184.6v-5.3h-1.518c-1.168,3.066-2.92,5.033-5.8,5.525v1.514h1.946Zm15.493-.189c0,3.6,1.635,5.336,5.255,5.336a7.76,7.76,0,0,0,6.267-3.33l.311,3.141h.584a40.983,40.983,0,0,1,6.7-1.287V-3.085h-.467c-1.44,0-1.907-.341-1.907-1.59V-17.542c-2.764.076-5.333.038-7.747.114v1.287c2.063.038,2.375.681,2.375,2.838v4.2c0,4.012-1.168,6.017-3.815,6.017-1.518,0-2.219-.946-2.219-2.952V-17.542c-1.83.076-4.36.038-7.63.114v1.287c2.18.114,2.3.908,2.3,3.066ZM218.462-.7c2.3-.076,3.971-.076,5.138-.076,1.869,0,3.737.038,5.528.076V-2.1c-2.024,0-2.725-.3-2.725-1.854v-7.115c0-1.854,1.246-3.6,2.258-3.6.934,0,1.285,1.968,3.075,1.968a2.208,2.208,0,0,0,2.413-2.309c0-1.7-1.168-2.687-3.192-2.687-1.713,0-3.465,1.022-4.9,3.1l-.311-3.293h-.662a28.15,28.15,0,0,1-6.579,1.325v1.325c2.024.038,2.413.984,2.413,3.444v7.721c0,1.438-.545,1.779-2.452,1.968Zm35.229-4.428a10.4,10.4,0,0,1-1.868,1.741,5.263,5.263,0,0,1-2.842.795c-3.27,0-5.138-2.233-5.138-6.472,0-.227.039-.492.039-.757h11.445v-.3c0-4.958-2.881-7.758-7.747-7.758-5.8,0-9.654,3.747-9.654,8.969,0,5.071,3.815,8.667,9.3,8.667a8.865,8.865,0,0,0,7.785-3.747Zm-9.81-6.472c.273-3.141,1.362-4.693,3.426-4.693,1.907,0,2.958,1.476,2.958,4.239v.454Z" transform="translate(-72 69.934)" fill="#fff"/>
  </g>
</svg>
