<svg xmlns="http://www.w3.org/2000/svg" width="77.937" height="77.937" viewBox="0 0 77.937 77.937">
  <g id="グループ_3688" data-name="グループ 3688" transform="translate(-28.346 -243.292)">
    <path id="パス_9845" data-name="パス 9845" d="M67.314,321.229A38.969,38.969,0,1,0,28.346,282.26a38.969,38.969,0,0,0,38.968,38.969" transform="translate(0 0)" fill="#faecec"/>
    <path id="パス_9846" data-name="パス 9846" d="M60.444,297.244c-5.609,0-12.961-9.623-12.961-21.493s7.352-21.493,12.961-21.493" transform="translate(15.94 9.134)" fill="#fff"/>
    <path id="パス_9847" data-name="パス 9847" d="M61.034,299.133c-3.242,0-6.857-2.573-9.671-6.884a29.871,29.871,0,0,1,0-31.816c2.814-4.311,6.429-6.884,9.671-6.884a1.3,1.3,0,1,1,0,2.6c-4.587,0-11.662,8.672-11.662,20.195s7.075,20.194,11.662,20.194a1.3,1.3,0,0,1,0,2.6Z" transform="translate(15.35 8.544)" fill="#e18c9f"/>
    <path id="パス_9848" data-name="パス 9848" d="M65.018,275.751c0,11.87-3.046,21.493-6.8,21.493s-6.8-9.623-6.8-21.493,3.046-21.493,6.8-21.493,6.8,9.623,6.8,21.493" transform="translate(19.211 9.134)" fill="#fff"/>
    <path id="楕円形_79" data-name="楕円形 79" d="M7.394-.709c1.72,0,4.165,1.249,6.049,7.2A53.773,53.773,0,0,1,15.5,22.083a53.773,53.773,0,0,1-2.053,15.59c-1.884,5.952-4.33,7.2-6.049,7.2s-4.165-1.249-6.049-7.2A53.773,53.773,0,0,1-.709,22.083,53.773,53.773,0,0,1,1.345,6.493C3.229.541,5.675-.709,7.394-.709Zm0,42.986c.861,0,2.314-1.411,3.573-5.388A51.154,51.154,0,0,0,12.9,22.083,51.154,51.154,0,0,0,10.967,7.277C9.708,3.3,8.255,1.889,7.394,1.889S5.08,3.3,3.821,7.277A51.154,51.154,0,0,0,1.889,22.083,51.154,51.154,0,0,0,3.821,36.889C5.08,40.867,6.533,42.278,7.394,42.278Z" transform="translate(70.03 262.802)" fill="#e18c9f"/>
    <path id="パス_9849" data-name="パス 9849" d="M41.327,290.5a1.3,1.3,0,0,1-.934-2.2l11.872-12.292L34.7,259.042a1.3,1.3,0,1,1,1.8-1.868L55,275.039a1.3,1.3,0,0,1,.032,1.836L42.261,290.1A1.3,1.3,0,0,1,41.327,290.5Z" transform="translate(4.961 11.259)" fill="#e18c9f"/>
    <path id="パス_9850" data-name="パス 9850" d="M38.888,268.719a1.3,1.3,0,0,1-1.225-.867l-3.286-9.311a1.3,1.3,0,0,1,1.614-1.671l9.421,2.958a1.3,1.3,0,0,1-.778,2.478l-6.943-2.18,2.422,6.862a1.3,1.3,0,0,1-1.225,1.731Z" transform="translate(4.962 11.259)" fill="#e18c9f"/>
    <path id="パス_9851" data-name="パス 9851" d="M55.027,257.8a11.926,11.926,0,0,0-3.926,1.2,3.645,3.645,0,0,0-1.514,1.963,26.217,26.217,0,0,0-.953,5.372,26.288,26.288,0,0,0-.955-5.372,3.643,3.643,0,0,0-1.512-1.963,11.926,11.926,0,0,0-3.926-1.2,11.926,11.926,0,0,0,3.926-1.2,3.643,3.643,0,0,0,1.512-1.963,26.289,26.289,0,0,0,.955-5.372,26.218,26.218,0,0,0,.953,5.372A3.645,3.645,0,0,0,51.1,256.6a11.926,11.926,0,0,0,3.926,1.2" transform="translate(11.573 4.978)" fill="#e18c9f"/>
    <path id="パス_9852" data-name="パス 9852" d="M69.627,276.84a9.669,9.669,0,0,0-3.187.97,2.95,2.95,0,0,0-1.228,1.595,21.364,21.364,0,0,0-.775,4.361,21.293,21.293,0,0,0-.774-4.361,2.959,2.959,0,0,0-1.228-1.595,9.67,9.67,0,0,0-3.187-.97,9.668,9.668,0,0,0,3.188-.97,2.959,2.959,0,0,0,1.228-1.595,21.293,21.293,0,0,0,.774-4.361,21.364,21.364,0,0,0,.775,4.361,2.95,2.95,0,0,0,1.228,1.595,9.668,9.668,0,0,0,3.188.97" transform="translate(25.739 22.176)" fill="#e18c9f"/>
  </g>
</svg>
