<svg xmlns="http://www.w3.org/2000/svg" width="202.642" height="41.11" viewBox="0 0 202.642 41.11">
  <g id="グループ_3880" data-name="グループ 3880" transform="translate(72.674 -41.18)">
    <path id="パス_10314" data-name="パス 10314" d="M1.326-.325C5.888-.4,9.787-.479,13.024-.479c4.055,0,8.032.038,11.931.077l.156-7.66h-1.6c-.78,3.983-3.119,5.745-7.486,5.745-3.938,0-4.913-1.226-4.913-5.056V-21.392c0-2.528.7-3.256,3.509-3.256h.234v-1.532c-3.041.077-5.342.115-6.785.115-1.95,0-4.211-.038-6.746-.115v1.532h.195c2.573,0,3.392.728,3.392,3.026V-5.764c0,2.873-.663,3.83-3.275,3.83H1.326Zm45.23-4.558a10.456,10.456,0,0,1-1.872,1.762,5.231,5.231,0,0,1-2.846.8c-3.275,0-5.147-2.26-5.147-6.55,0-.23.039-.5.039-.766H48.194v-.306c0-5.018-2.885-7.852-7.759-7.852-5.81,0-9.67,3.792-9.67,9.078,0,5.133,3.821,8.771,9.319,8.771a8.849,8.849,0,0,0,7.8-3.792Zm-9.826-6.55c.273-3.179,1.365-4.749,3.431-4.749,1.911,0,2.963,1.494,2.963,4.29v.46ZM52.522-.364C54.2-.44,55.758-.479,57.24-.479c1.326,0,3.119.038,5.42.115V-1.743c-1.872-.038-2.3-.613-2.3-2.375v-5.975c0-3.026,1.56-4.864,3.782-4.864,1.56,0,2.34,1.111,2.34,3.294v7.737c0,1.724-.39,2.183-2.223,2.183V-.364c1.872-.077,3.509-.115,4.874-.115,1.6,0,3.275.038,5.069.115V-1.743c-2.145-.153-2.3-.5-2.3-2.183v-7.737c0-4.06-1.872-6.09-5.5-6.09a7.894,7.894,0,0,0-6.356,3.371l-.234-3.371h-.663a27.566,27.566,0,0,1-6.629,1.341V-15c1.95,0,2.417.5,2.417,2.528v8.541c0,1.647-.195,1.992-2.417,2.183Zm26.631.192h1.482l.585-1.455A7.264,7.264,0,0,0,86.406.058c4.016,0,6.551-2.3,6.551-5.592,0-2.873-1.794-4.635-5.576-5.9-2.729-.919-4.289-1.111-4.289-2.8,0-1.111,1.014-1.953,2.573-1.953a5.4,5.4,0,0,1,4.913,3.639H92.06c-.039-.958-.039-1.8-.039-2.566,0-.8,0-1.609.039-2.49H90.578l-.741,1.264a7.3,7.3,0,0,0-4.6-1.455c-3.587,0-5.81,2.222-5.81,5.516s2.067,4.29,6.122,5.745C87.654-5.764,88.9-5.3,88.9-3.773c0,1.187-1.209,2.183-2.924,2.183a5.824,5.824,0,0,1-5.42-4.29h-1.4c.078,1.149.078,2.107.078,2.873C79.231-2.279,79.231-1.321,79.153-.172Zm32.168-.306h1.833l.468-1.877a9.415,9.415,0,0,0,7.019,2.49c5.654,0,9.319-3.256,9.319-8.158,0-4.749-3.275-6.626-9.241-9.307-2.807-1.264-4.445-1.953-4.445-4.137,0-1.992,1.482-3.447,3.86-3.447,3.236,0,5.771,2.068,6.551,5.707h1.755c-.117-2.6-.156-5.018-.156-7.2H126.45l-.468,1.647a9.41,9.41,0,0,0-6.356-1.992c-4.718,0-7.876,2.873-7.876,7.239,0,4.252,2.534,6.358,7.6,8.58,3.47,1.532,5.381,2.49,5.381,5.056,0,2.528-1.794,4.137-4.757,4.137-3.47,0-5.771-2.3-6.863-6.856h-1.794c.078,1.264.117,2.758.117,4.4C111.439-2.93,111.4-1.7,111.322-.479Zm22.849,10.725c2.807-.115,4.64-.192,5.459-.192,1.638,0,3.548.077,5.693.192V8.905c-2.573-.153-3-.651-3-2.949V-2.126A8.077,8.077,0,0,0,147.818.1c4.64,0,8.149-3.677,8.149-8.924s-3.431-8.924-7.993-8.924c-2.34,0-4.172,1.034-5.966,3.256v-3.256h-.741a31.829,31.829,0,0,1-6.863,1.187v1.494c2.456,0,2.651,1.149,2.651,4.1V6.263c0,2.03-.507,2.451-2.885,2.643Zm8.149-16.7v-3.907c0-2.873,1.6-4.635,3.821-4.635,2.573,0,4.016,2.068,4.016,6.09,0,4.4-1.326,6.511-4.289,6.511C143.607-2.394,142.32-3.773,142.32-6.454Zm34.313,1.57a10.456,10.456,0,0,1-1.872,1.762,5.231,5.231,0,0,1-2.846.8c-3.275,0-5.147-2.26-5.147-6.55,0-.23.039-.5.039-.766H178.27v-.306c0-5.018-2.885-7.852-7.759-7.852-5.81,0-9.67,3.792-9.67,9.078,0,5.133,3.821,8.771,9.319,8.771a8.849,8.849,0,0,0,7.8-3.792Zm-9.826-6.55c.273-3.179,1.365-4.749,3.431-4.749,1.911,0,2.963,1.494,2.963,4.29v.46Zm31.271,6.55A5.879,5.879,0,0,1,193.4-2.317c-3.08,0-4.679-2.336-4.679-6.933,0-4.481,1.326-6.894,3.431-6.894,1.755,0,2.028,1.3,2.612,2.566a2.521,2.521,0,0,0,2.3,1.685,1.95,1.95,0,0,0,2.145-2.03c0-2.26-2.417-3.83-6.551-3.83-5.81,0-9.787,3.792-9.787,9.193,0,5.171,3.509,8.618,8.656,8.618a9.093,9.093,0,0,0,7.8-3.754Z" transform="translate(-72 69.934)" fill="#fff" stroke="#e8aeb8" stroke-width="4"/>
    <path id="パス_10313" data-name="パス 10313" d="M1.326-.325C5.888-.4,9.787-.479,13.024-.479c4.055,0,8.032.038,11.931.077l.156-7.66h-1.6c-.78,3.983-3.119,5.745-7.486,5.745-3.938,0-4.913-1.226-4.913-5.056V-21.392c0-2.528.7-3.256,3.509-3.256h.234v-1.532c-3.041.077-5.342.115-6.785.115-1.95,0-4.211-.038-6.746-.115v1.532h.195c2.573,0,3.392.728,3.392,3.026V-5.764c0,2.873-.663,3.83-3.275,3.83H1.326Zm45.23-4.558a10.456,10.456,0,0,1-1.872,1.762,5.231,5.231,0,0,1-2.846.8c-3.275,0-5.147-2.26-5.147-6.55,0-.23.039-.5.039-.766H48.194v-.306c0-5.018-2.885-7.852-7.759-7.852-5.81,0-9.67,3.792-9.67,9.078,0,5.133,3.821,8.771,9.319,8.771a8.849,8.849,0,0,0,7.8-3.792Zm-9.826-6.55c.273-3.179,1.365-4.749,3.431-4.749,1.911,0,2.963,1.494,2.963,4.29v.46ZM52.522-.364C54.2-.44,55.758-.479,57.24-.479c1.326,0,3.119.038,5.42.115V-1.743c-1.872-.038-2.3-.613-2.3-2.375v-5.975c0-3.026,1.56-4.864,3.782-4.864,1.56,0,2.34,1.111,2.34,3.294v7.737c0,1.724-.39,2.183-2.223,2.183V-.364c1.872-.077,3.509-.115,4.874-.115,1.6,0,3.275.038,5.069.115V-1.743c-2.145-.153-2.3-.5-2.3-2.183v-7.737c0-4.06-1.872-6.09-5.5-6.09a7.894,7.894,0,0,0-6.356,3.371l-.234-3.371h-.663a27.566,27.566,0,0,1-6.629,1.341V-15c1.95,0,2.417.5,2.417,2.528v8.541c0,1.647-.195,1.992-2.417,2.183Zm26.631.192h1.482l.585-1.455A7.264,7.264,0,0,0,86.406.058c4.016,0,6.551-2.3,6.551-5.592,0-2.873-1.794-4.635-5.576-5.9-2.729-.919-4.289-1.111-4.289-2.8,0-1.111,1.014-1.953,2.573-1.953a5.4,5.4,0,0,1,4.913,3.639H92.06c-.039-.958-.039-1.8-.039-2.566,0-.8,0-1.609.039-2.49H90.578l-.741,1.264a7.3,7.3,0,0,0-4.6-1.455c-3.587,0-5.81,2.222-5.81,5.516s2.067,4.29,6.122,5.745C87.654-5.764,88.9-5.3,88.9-3.773c0,1.187-1.209,2.183-2.924,2.183a5.824,5.824,0,0,1-5.42-4.29h-1.4c.078,1.149.078,2.107.078,2.873C79.231-2.279,79.231-1.321,79.153-.172Zm32.168-.306h1.833l.468-1.877a9.415,9.415,0,0,0,7.019,2.49c5.654,0,9.319-3.256,9.319-8.158,0-4.749-3.275-6.626-9.241-9.307-2.807-1.264-4.445-1.953-4.445-4.137,0-1.992,1.482-3.447,3.86-3.447,3.236,0,5.771,2.068,6.551,5.707h1.755c-.117-2.6-.156-5.018-.156-7.2H126.45l-.468,1.647a9.41,9.41,0,0,0-6.356-1.992c-4.718,0-7.876,2.873-7.876,7.239,0,4.252,2.534,6.358,7.6,8.58,3.47,1.532,5.381,2.49,5.381,5.056,0,2.528-1.794,4.137-4.757,4.137-3.47,0-5.771-2.3-6.863-6.856h-1.794c.078,1.264.117,2.758.117,4.4C111.439-2.93,111.4-1.7,111.322-.479Zm22.849,10.725c2.807-.115,4.64-.192,5.459-.192,1.638,0,3.548.077,5.693.192V8.905c-2.573-.153-3-.651-3-2.949V-2.126A8.077,8.077,0,0,0,147.818.1c4.64,0,8.149-3.677,8.149-8.924s-3.431-8.924-7.993-8.924c-2.34,0-4.172,1.034-5.966,3.256v-3.256h-.741a31.829,31.829,0,0,1-6.863,1.187v1.494c2.456,0,2.651,1.149,2.651,4.1V6.263c0,2.03-.507,2.451-2.885,2.643Zm8.149-16.7v-3.907c0-2.873,1.6-4.635,3.821-4.635,2.573,0,4.016,2.068,4.016,6.09,0,4.4-1.326,6.511-4.289,6.511C143.607-2.394,142.32-3.773,142.32-6.454Zm34.313,1.57a10.456,10.456,0,0,1-1.872,1.762,5.231,5.231,0,0,1-2.846.8c-3.275,0-5.147-2.26-5.147-6.55,0-.23.039-.5.039-.766H178.27v-.306c0-5.018-2.885-7.852-7.759-7.852-5.81,0-9.67,3.792-9.67,9.078,0,5.133,3.821,8.771,9.319,8.771a8.849,8.849,0,0,0,7.8-3.792Zm-9.826-6.55c.273-3.179,1.365-4.749,3.431-4.749,1.911,0,2.963,1.494,2.963,4.29v.46Zm31.271,6.55A5.879,5.879,0,0,1,193.4-2.317c-3.08,0-4.679-2.336-4.679-6.933,0-4.481,1.326-6.894,3.431-6.894,1.755,0,2.028,1.3,2.612,2.566a2.521,2.521,0,0,0,2.3,1.685,1.95,1.95,0,0,0,2.145-2.03c0-2.26-2.417-3.83-6.551-3.83-5.81,0-9.787,3.792-9.787,9.193,0,5.171,3.509,8.618,8.656,8.618a9.093,9.093,0,0,0,7.8-3.754Z" transform="translate(-72 69.934)" fill="#fff"/>
  </g>
</svg>
