<svg xmlns="http://www.w3.org/2000/svg" width="141.982" height="42.644" viewBox="0 0 141.982 42.644">
  <g id="グループ_3938" data-name="グループ 3938" transform="translate(72.674 -40.322)">
    <path id="パス_10105" data-name="パス 10105" d="M1.326.156C5.889.078,9.789,0,13.026,0,17.082,0,21.06.039,24.96.078l.156-7.8h-1.6c-.78,4.056-3.12,5.85-7.488,5.85-3.939,0-4.914-1.248-4.914-5.148V-21.294c0-2.574.7-3.315,3.51-3.315h.234v-1.56c-3.042.078-5.343.117-6.786.117-1.95,0-4.212-.039-6.747-.117v1.56h.195c2.574,0,3.393.741,3.393,3.081V-5.382c0,2.925-.663,3.9-3.276,3.9H1.326Zm28-.039C31.044.039,32.916,0,34.905,0c.78,0,2.379.039,4.875.117V-1.365c-2.067-.117-2.457-.429-2.457-2.067V-17.706h-.585a35.637,35.637,0,0,1-7.41,1.365v1.365c1.989.078,2.457.468,2.457,2.34v9.2c0,1.6-.351,1.95-2.457,2.067Zm2.028-24.765a2.963,2.963,0,0,0,2.964,2.964,2.963,2.963,0,0,0,2.964-2.964,2.938,2.938,0,0,0-2.964-2.964A2.938,2.938,0,0,0,31.356-24.648ZM44.265.117C45.942.039,47.5,0,48.984,0c1.326,0,3.12.039,5.421.117v-1.4c-1.872-.039-2.3-.624-2.3-2.418V-9.789c0-3.081,1.56-4.953,3.783-4.953,1.56,0,2.34,1.131,2.34,3.354V-3.51c0,1.755-.39,2.223-2.223,2.223v1.4C57.876.039,59.514,0,60.879,0c1.6,0,3.276.039,5.07.117v-1.4c-2.145-.156-2.3-.507-2.3-2.223v-7.878c0-4.134-1.872-6.2-5.5-6.2a7.856,7.856,0,0,0-6.357,3.432l-.234-3.432H50.9a27.145,27.145,0,0,1-6.63,1.365v1.443c1.95,0,2.418.507,2.418,2.574v8.7c0,1.677-.195,2.028-2.418,2.223Zm41.769-4.6a10.534,10.534,0,0,1-1.872,1.794,5.164,5.164,0,0,1-2.847.819c-3.276,0-5.148-2.3-5.148-6.669,0-.234.039-.507.039-.78H87.672v-.312c0-5.109-2.886-7.995-7.761-7.995-5.811,0-9.672,3.861-9.672,9.243,0,5.226,3.822,8.931,9.321,8.931a8.8,8.8,0,0,0,7.8-3.861Zm-9.828-6.669c.273-3.237,1.365-4.836,3.432-4.836,1.911,0,2.964,1.521,2.964,4.368v.468ZM94.224-4.992c0,3.705,1.638,5.5,5.265,5.5a7.714,7.714,0,0,0,6.279-3.432L106.08.312h.585a40.048,40.048,0,0,1,6.708-1.326V-2.379H112.9c-1.443,0-1.911-.351-1.911-1.638v-13.26c-2.769.078-5.343.039-7.761.117v1.326c2.067.039,2.379.7,2.379,2.925V-8.58c0,4.134-1.17,6.2-3.822,6.2-1.521,0-2.223-.975-2.223-3.042V-17.277c-1.833.078-4.368.039-7.644.117v1.326c2.184.117,2.3.936,2.3,3.159ZM117.507,10.92c2.808-.117,4.641-.195,5.46-.195,1.638,0,3.549.078,5.694.195V9.555c-2.574-.156-3-.663-3-3V-1.677a8,8,0,0,0,5.5,2.262c4.641,0,8.151-3.744,8.151-9.087s-3.432-9.087-8-9.087c-2.34,0-4.173,1.053-5.967,3.315v-3.315H124.6a31.326,31.326,0,0,1-6.864,1.209v1.521c2.457,0,2.652,1.17,2.652,4.173V6.864c0,2.067-.507,2.5-2.886,2.691Zm8.151-17v-3.978c0-2.925,1.6-4.719,3.822-4.719,2.574,0,4.017,2.106,4.017,6.2,0,4.485-1.326,6.63-4.29,6.63C126.945-1.95,125.658-3.354,125.658-6.084Z" transform="translate(-72 69.934)" fill="#fff" stroke="#e8aeb8" stroke-width="4"/>
    <path id="パス_10104" data-name="パス 10104" d="M1.326.156C5.889.078,9.789,0,13.026,0,17.082,0,21.06.039,24.96.078l.156-7.8h-1.6c-.78,4.056-3.12,5.85-7.488,5.85-3.939,0-4.914-1.248-4.914-5.148V-21.294c0-2.574.7-3.315,3.51-3.315h.234v-1.56c-3.042.078-5.343.117-6.786.117-1.95,0-4.212-.039-6.747-.117v1.56h.195c2.574,0,3.393.741,3.393,3.081V-5.382c0,2.925-.663,3.9-3.276,3.9H1.326Zm28-.039C31.044.039,32.916,0,34.905,0c.78,0,2.379.039,4.875.117V-1.365c-2.067-.117-2.457-.429-2.457-2.067V-17.706h-.585a35.637,35.637,0,0,1-7.41,1.365v1.365c1.989.078,2.457.468,2.457,2.34v9.2c0,1.6-.351,1.95-2.457,2.067Zm2.028-24.765a2.963,2.963,0,0,0,2.964,2.964,2.963,2.963,0,0,0,2.964-2.964,2.938,2.938,0,0,0-2.964-2.964A2.938,2.938,0,0,0,31.356-24.648ZM44.265.117C45.942.039,47.5,0,48.984,0c1.326,0,3.12.039,5.421.117v-1.4c-1.872-.039-2.3-.624-2.3-2.418V-9.789c0-3.081,1.56-4.953,3.783-4.953,1.56,0,2.34,1.131,2.34,3.354V-3.51c0,1.755-.39,2.223-2.223,2.223v1.4C57.876.039,59.514,0,60.879,0c1.6,0,3.276.039,5.07.117v-1.4c-2.145-.156-2.3-.507-2.3-2.223v-7.878c0-4.134-1.872-6.2-5.5-6.2a7.856,7.856,0,0,0-6.357,3.432l-.234-3.432H50.9a27.145,27.145,0,0,1-6.63,1.365v1.443c1.95,0,2.418.507,2.418,2.574v8.7c0,1.677-.195,2.028-2.418,2.223Zm41.769-4.6a10.534,10.534,0,0,1-1.872,1.794,5.164,5.164,0,0,1-2.847.819c-3.276,0-5.148-2.3-5.148-6.669,0-.234.039-.507.039-.78H87.672v-.312c0-5.109-2.886-7.995-7.761-7.995-5.811,0-9.672,3.861-9.672,9.243,0,5.226,3.822,8.931,9.321,8.931a8.8,8.8,0,0,0,7.8-3.861Zm-9.828-6.669c.273-3.237,1.365-4.836,3.432-4.836,1.911,0,2.964,1.521,2.964,4.368v.468ZM94.224-4.992c0,3.705,1.638,5.5,5.265,5.5a7.714,7.714,0,0,0,6.279-3.432L106.08.312h.585a40.048,40.048,0,0,1,6.708-1.326V-2.379H112.9c-1.443,0-1.911-.351-1.911-1.638v-13.26c-2.769.078-5.343.039-7.761.117v1.326c2.067.039,2.379.7,2.379,2.925V-8.58c0,4.134-1.17,6.2-3.822,6.2-1.521,0-2.223-.975-2.223-3.042V-17.277c-1.833.078-4.368.039-7.644.117v1.326c2.184.117,2.3.936,2.3,3.159ZM117.507,10.92c2.808-.117,4.641-.195,5.46-.195,1.638,0,3.549.078,5.694.195V9.555c-2.574-.156-3-.663-3-3V-1.677a8,8,0,0,0,5.5,2.262c4.641,0,8.151-3.744,8.151-9.087s-3.432-9.087-8-9.087c-2.34,0-4.173,1.053-5.967,3.315v-3.315H124.6a31.326,31.326,0,0,1-6.864,1.209v1.521c2.457,0,2.652,1.17,2.652,4.173V6.864c0,2.067-.507,2.5-2.886,2.691Zm8.151-17v-3.978c0-2.925,1.6-4.719,3.822-4.719,2.574,0,4.017,2.106,4.017,6.2,0,4.485-1.326,6.63-4.29,6.63C126.945-1.95,125.658-3.354,125.658-6.084Z" transform="translate(-72 69.934)" fill="#fff"/>
  </g>
</svg>
