<svg id="グループ_3845" data-name="グループ 3845" xmlns="http://www.w3.org/2000/svg" xmlns:xlink="http://www.w3.org/1999/xlink" width="659.995" height="214.299" viewBox="0 0 659.995 214.299">
  <defs>
    <clipPath id="clip-path">
      <path id="パス_9955" data-name="パス 9955" d="M17.037,415.228c-6.24,20.564-.267,54.024-.267,54.024,152.265-20.5,356.178,22.05,466.127,32.955s173.691,1.9,173.691,1.9c-19.018-16.344-23.565-26.061-23.565-26.061,10.668-14.709,15.987-31.707,15.987-31.707-213.748,10.638-276.895-23.03-441.225-35.986-43.8-3.447-77.8-4.725-104.125-4.725-72.418,0-86.623,9.6-86.623,9.6" transform="translate(-14.193 -405.63)" fill="none"/>
    </clipPath>
    <linearGradient id="linear-gradient" x1="-0.053" y1="4.57" x2="-0.048" y2="4.57" gradientUnits="objectBoundingBox">
      <stop offset="0" stop-color="#dc6b8c"/>
      <stop offset="1" stop-color="#ed7c9d"/>
    </linearGradient>
    <clipPath id="clip-path-2">
      <path id="パス_9989" data-name="パス 9989" d="M38.164,411.691S32.34,424.528,8.27,440.04c0,0,48.556,22.644,138.418,28.111,22.5,1.367,50.131,1.248,80.768,1.129,91.645-.357,209.944-.743,297.1,38.9,0,0,12.421-41.543,12.184-68.823,0,0-16.909-27.339-150.423-39.76-46.417-4.309-83.71-3.3-119.607-2.258-67.4,1.931-129.978,3.863-239.126-29.508,0,0,2.229,12.154,10.638,43.891" transform="translate(-8.27 -367.83)" fill="none"/>
    </clipPath>
    <linearGradient id="linear-gradient-2" x1="-0.226" y1="2.285" x2="-0.219" y2="2.285" xlink:href="#linear-gradient"/>
  </defs>
  <path id="パス_9943" data-name="パス 9943" d="M277.986,371.09a41.217,41.217,0,0,1,41.492,38.577h.169v3.084a41.74,41.74,0,0,1-9.3,26.218c-4.292,6.912-9.692,13.64-14.917,20.148-10.956,13.649-22.286,27.763-23.9,44.207l0,.027c0,.035-.006.076-.009.12a4.419,4.419,0,0,1-.3,1.441,2.728,2.728,0,0,1-2.55,1.7,3.586,3.586,0,0,1-1.227-.23c-31.536-11.008-55.15-25.367-70.185-42.679a77.143,77.143,0,0,1-13.66-21.96,57.768,57.768,0,0,1-4.179-18.983l-.089-2.2h.087a35.55,35.55,0,0,1,60.676-25.14,41.677,41.677,0,0,1,37.893-24.337ZM315.4,411.8a53.392,53.392,0,0,0-.711-6.45l-.019-.086a37.441,37.441,0,0,0-71.9-5.229l-1.258,3.482-2.354-2.857a31.33,31.33,0,0,0-55.516,19.905,14.816,14.816,0,0,0,.071,1.837l.311,2.383h-.241c1.457,16.39,13.234,52.128,83.659,77.122,2.073-17.243,13.573-31.57,24.7-45.432,5.174-6.446,10.524-13.111,14.691-19.844l.073-.117.087-.107a37.523,37.523,0,0,0,8.422-22.534H315.4Z" transform="translate(328.995 -361.402)" fill="#634a32"/>
  <g id="グループ_3829" data-name="グループ 3829" transform="translate(542.854 50.844)">
    <path id="パス_9944" data-name="パス 9944" d="M200.221,389.16h4.873v.951h-4.873v1.248h6.716v.951H195.2v1.159c0,3.417-1.01,5.468-3.477,7.34l-.773-.594c.713-.832,1.991-2.348,1.991-6.181V392.31h-1.753v-.951H197.9v-1.248H193.09v-.951H197.9V388.03H191.99v-.951h3.536a17.055,17.055,0,0,0-1.189-1.486l.862-.624a14.918,14.918,0,0,1,2.972,1.337l-1.4.773h3.982l-.713-.327a6.587,6.587,0,0,0,1.278-1.813l2.407.773s.208.059.208.178-.03.119-.386.267a10.154,10.154,0,0,1-1.724.921h4.428v.951h-6v1.129Zm-2.14,11.054v.713h-2.288v-7.786h9.42v7.786h-2.288v-.713h-4.844Zm4.844-5.081v-1.07h-4.844v1.07Zm0,2.05v-1.1h-4.844v1.1Zm0,2.08V398.1h-4.844v1.159Z" transform="translate(-190.95 -384.94)" fill="#634a32"/>
    <path id="パス_9945" data-name="パス 9945" d="M211.361,390.081v5.438H200.99v2.823c0,.921,0,1.337,1.278,1.337h6.3c.773,0,1.189,0,1.545-.654a6.459,6.459,0,0,0,.624-2.318,7.157,7.157,0,0,0,2.169.713c-.535,2.288-1.189,3.18-3.477,3.18h-8.172c-2.437,0-2.585-.535-2.585-2.348v-7.34a12.9,12.9,0,0,1-1.278.713l-.624-.832a11.867,11.867,0,0,0,4.963-5.854l2.407.624s.089.089.089.149c0,.119-.178.238-.238.3a10.545,10.545,0,0,1-.683.921h6.24a13.78,13.78,0,0,1-2.942,3.18h4.755Zm-6.894,0a10.043,10.043,0,0,0,1.486-2.229h-3.477a19.349,19.349,0,0,1-2.556,2.229Zm-.624,4.517v-3.566H200.99V394.6Zm2.348-3.566V394.6h2.853v-3.566Z" transform="translate(-179.475 -384.94)" fill="#634a32"/>
    <path id="パス_9946" data-name="パス 9946" d="M209.346,386.08c0-.178-.059-.654-.089-1.07h2.377a1.006,1.006,0,0,1,.089.238.96.96,0,0,1-.059.357v1.04h6.656v.951h-6.656V388.9h4.4v8.826h-9.331V388.9h2.615V387.6H202.66v-.951h6.686v-.594Zm9,13.016v.951H205.542v.743h-2.258v-9.9a4.832,4.832,0,0,0-.089-1.159h2.288s.208.119.208.208a.752.752,0,0,1-.178.446V399.1H218.32Zm-4.576-7.578v-1.664h-4.665v1.664Zm-4.665.951v1.664h4.665v-1.664Zm0,2.615v1.783h4.665v-1.783Z" transform="translate(-167.862 -384.802)" fill="#634a32"/>
    <path id="パス_9947" data-name="パス 9947" d="M208.2,394.538a14.273,14.273,0,0,0,4.041-6.33l2.11.832a.366.366,0,0,1,.059.149c0,.089-.089.178-.208.3a16.8,16.8,0,0,1-1.6,2.318v9.123h-2.229v-6.775a15.838,15.838,0,0,1-1.456,1.159l-.743-.773Zm5.735-8.766.059.149c0,.089-.089.178-.208.3a14.641,14.641,0,0,1-4.814,4.19l-.624-.654a10.9,10.9,0,0,0,3.358-4.814Zm-.743,7.34a11.606,11.606,0,0,0,4.4-2.169,8.5,8.5,0,0,1-2.5-3.477l2.288-.684a7.746,7.746,0,0,0,1.516,2.823,6.464,6.464,0,0,0,1.426-2.853H214.47V385.8h8.588a9.032,9.032,0,0,1-2.823,5.081,11.274,11.274,0,0,0,4.279,1.991l-.565.921a18.18,18.18,0,0,1-5.022-1.932,15.821,15.821,0,0,1-5.171,2.021l-.565-.832Zm6.746,6.359h4.339v.951H213.4v-.951h4.279v-3.566h-3.536v-.921h3.536v-1.159c0-.446,0-.535-.03-1.04h2.258s.119.089.119.178-.059.208-.059.3v1.723H223.5v.921h-3.536v3.566Z" transform="translate(-156.999 -384.94)" fill="#634a32"/>
  </g>
  <g id="グループ_3830" data-name="グループ 3830" transform="translate(548.738 73.458)">
    <path id="パス_9948" data-name="パス 9948" d="M197.447,396.137a12.68,12.68,0,0,1-4.517.8v-1.783a7.1,7.1,0,0,0,4.547-2.466h4.22V414.5h-4.249V396.167Z" transform="translate(-192.93 -392.274)" fill="#634a32"/>
    <path id="パス_9949" data-name="パス 9949" d="M206.337,402.158c3.15,0,3.3-2.288,3.3-3.714,0-1.783-.357-4.16-3.209-4.16s-3.239,2.585-3.566,4.279l-4.131-1.129c.505-1.1,2.08-4.874,8.142-4.874,3.8,0,7.191,1.9,7.191,5.587,0,3.18-2.466,4.487-5.081,4.784,1.486.267,5.646,1.01,5.646,5.765,0,5.913-6.062,6.478-8.291,6.478-6.835,0-7.994-4.041-8.737-6.508l4.279-1.01c.267,3.952,1.456,5.795,4.428,5.795,2.526,0,3.982-1.753,3.982-4.933,0-3.952-2.08-4.576-3.952-4.576h-3.12v-1.753h3.12Z" transform="translate(-183.723 -392.53)" fill="#634a32"/>
    <path id="パス_9950" data-name="パス 9950" d="M208.709,402.869H204.37V398.59h4.339Z" transform="translate(-170.375 -380.641)" fill="#634a32"/>
    <path id="パス_9951" data-name="パス 9951" d="M223.729,408.983c0,4.814-3.893,6.181-8.41,6.181s-8.439-1.307-8.439-6.181,3.952-5.5,5.081-5.676c-1.278-.416-4.012-1.248-4.012-5.171,0-4.428,3.655-5.587,7.37-5.587s7.34,1.07,7.34,5.587c0,3.923-2.674,4.755-4.012,5.171C219.806,403.486,223.729,404.139,223.729,408.983Zm-4.457-.238c0-1.129,0-4.606-3.952-4.606s-3.982,3.477-3.982,4.606c0,1.218,0,4.7,3.982,4.7C217.934,413.44,219.272,412.014,219.272,408.745Zm-.891-10.282c0-1.932-.238-4.16-3-4.16-2.615,0-3.09,1.753-3.09,4.16,0,1.753.238,3.923,3.061,3.923s3.031-2.258,3.031-3.923Z" transform="translate(-165.426 -392.55)" fill="#634a32"/>
  </g>
  <g id="グループ_3831" data-name="グループ 3831" transform="translate(560.743 101.748)">
    <path id="パス_9952" data-name="パス 9952" d="M199.526,402.337l.089,1.426a3.5,3.5,0,0,1,2.972-1.694,2.92,2.92,0,0,1,2.764,1.9,3.681,3.681,0,0,1,3.18-1.9,3.056,3.056,0,0,1,3.061,3.388v7.34h-2.7v-7.488c0-.446,0-1.753-1.278-1.753-.951,0-1.694,1.01-1.991,1.813v7.459h-2.674v-7.459c0-.535,0-1.842-1.248-1.842s-2.05,1.575-2.05,1.991v7.31H196.97v-10.46h2.556Z" transform="translate(-196.97 -402.07)" fill="#634a32"/>
    <path id="パス_9953" data-name="パス 9953" d="M205.306,402.337l.089,1.426a3.5,3.5,0,0,1,2.972-1.694,2.92,2.92,0,0,1,2.764,1.9,3.681,3.681,0,0,1,3.18-1.9,3.056,3.056,0,0,1,3.061,3.388v7.34h-2.7v-7.488c0-.446,0-1.753-1.278-1.753-.951,0-1.694,1.01-1.991,1.813v7.459h-2.674v-7.459c0-.535,0-1.842-1.248-1.842s-2.05,1.575-2.05,1.991v7.31H202.75v-10.46h2.556Z" transform="translate(-185.574 -402.07)" fill="#634a32"/>
  </g>
  <g id="グループ_3846" data-name="グループ 3846" transform="translate(27.785 91.199)">
    <path id="パス_9954" data-name="パス 9954" d="M450.911,398.52l54.232,48.913s-74.558-4.4-139.012,15.542c-70.814,21.93-157.406,1.278-157.406,1.278L23.266,468.2,17.62,443.956s46.119-11.738,226.585-26.21c61.186-4.9,97.083-12.926,181.358-15.957l25.348-3.269Z" transform="translate(-17.62 -398.52)" fill="#da527e"/>
  </g>
  <g id="グループ_3833" data-name="グループ 3833" transform="translate(17.6 112.327)" clip-path="url(#clip-path)">
    <rect id="長方形_1241" data-name="長方形 1241" width="654.617" height="206.081" transform="translate(-19.797 2.603) rotate(-8.9)" fill="url(#linear-gradient)"/>
  </g>
  <path id="パス_9956" data-name="パス 9956" d="M41.14,420.725c-2.466.119-3.18.119-4.012.208l-3.774.3c.594,9.569-2.585,13.164-9.777,15.334l-.8-1.664c7.607-2.437,7.221-8.618,6.894-13.372l-5.171.386c-.951.089-1.248.089-4.131.386l-.149-1.872c1.664-.059,2.764-.119,4.16-.238l5.2-.386-.238-2.942c-.089-1.04-.238-3-.386-3.952h3.388c.416,0,.535.03.535.178a2.964,2.964,0,0,1-.059.475c0,.178.327,5.022.416,5.973l3.744-.3c.683-.059,2.318-.178,4.012-.386l.149,1.9Z" transform="translate(15.291 -278.95)" fill="#fff"/>
  <path id="パス_9957" data-name="パス 9957" d="M42.115,423.451c0,2.318-.059,5.5-1.813,8.32-2.2,3.536-5.646,4.457-7.964,5.022l-.773-1.6c4.279-1.159,7.191-3.774,6.835-11.589l-5.5.238c-.565,0-2.288.089-3.774.238l-.089-1.9c.832,0,1.783,0,3.685-.089l5.557-.238-.208-4.963c-3.209.505-4.814.624-6.805.773l-.683-1.872a35.972,35.972,0,0,0,14.769-3.715l1.664,2.229a1.215,1.215,0,0,1,.3.535c0,.119-.059.148-.119.148-.119.03-.683.089-.8.119a42.924,42.924,0,0,1-4.576,1.159l.238,5.408,3.715-.149c2.288-.089,3.3-.178,4.19-.267l.089,1.9c-1.189,0-2.942.03-4.1.089l-3.8.178Z" transform="translate(32.68 -280.606)" fill="#fff"/>
  <path id="パス_9958" data-name="パス 9958" d="M47.415,415.926l-4.4.059c-1.04,0-1.991.059-3.417.089v-1.545c1.753.059,2.942.03,3.388.03l5.141-.059c.505,0,2.08,0,2.5-.059-.089.624-.238,1.575-.416,3.209L48.93,427.812h1.813c2.05-.059,2.615-.089,3.3-.149v1.545c-1.634-.03-2.466,0-3.239,0l-10.133.149c-.743,0-1.516,0-3.239.089V427.9c.505,0,1.872.059,3.18.03l5.379-.089,1.486-11.976Z" transform="translate(49.222 -275.933)" fill="#fff"/>
  <path id="パス_9959" data-name="パス 9959" d="M44.539,418.305c1.218.059,1.991.119,3.952.119l10.7.119c.654,0,1.872,0,3.15-.089l1.426,1.248c-.594,2.942-1.159,5.587-3.031,8.231-3.625,5.141-9.3,5.735-12.243,6.062l-.624-1.723c2.348-.3,7.964-1.07,10.52-6.983a19.9,19.9,0,0,0,1.248-4.874c0-.089-.208-.089-.238-.089l-10.965-.119c-1.753,0-3.09,0-3.952.03v-1.932Zm16.849-3.655c-1.664-.089-3.269-.119-3.982-.119l-5.973-.059c-2.348,0-3.388,0-4.279.03V412.57c1.248.059,3.328.119,4.249.119l5.943.059c2.258,0,3.447,0,4.071-.03v1.932Z" transform="translate(63.122 -279.62)" fill="#fff"/>
  <path id="パス_9960" data-name="パス 9960" d="M60.815,421.582c-.089,2.764-.654,6.3-2.021,8.528a12.568,12.568,0,0,1-6,4.963l-.862-1.486c4.071-2.674,5.26-6.419,5.438-12.035l.208-5.913c0-.386.089-3,.059-3.3l3.239.357s.416.089.416.357c0,.119-.178.565-.208.713l-.267,7.786ZM63.4,415.46c0-.446.089-2.318,0-2.972l3.358.386s.416.03.416.208c0,.149-.208.683-.208.8l-.535,15.75a12.837,12.837,0,0,0,6.775-6.954l1.248,1.07c-.713,1.813-2.674,6.924-7.756,9.955-.327.178-1.961,1.01-2.318,1.189l-1.724-2.169a34.228,34.228,0,0,0,.3-4.309L63.4,415.46Z" transform="translate(77.811 -280.073)" fill="#fff"/>
  <path id="パス_9961" data-name="パス 9961" d="M62.007,417.116a34.808,34.808,0,0,0,3.744.3c.267-.713,1.6-4.16,1.9-4.933l2.556.862c.654.238.743.357.743.535,0,.148-.446.594-.535.743-.208.3-1.01,2.258-1.248,2.764a22.968,22.968,0,0,0,3.8-.475l-.119,2.08c-1.426.149-2.556.208-4.428.238a114.412,114.412,0,0,0-4.487,13.253L60.67,431.32c1.664-4.784,3.269-9.093,4.4-12.065h-3.15l.119-2.11Zm14.383,4.665c.891.119.951.238.951.386a2.8,2.8,0,0,1-.3.683,18.94,18.94,0,0,0-.178,2.021c-.03.743-.119,2.556-.149,5.616a23.76,23.76,0,0,1,4.844,2.7l-2.2,2.645a13.433,13.433,0,0,0-2.645-2.526,3.277,3.277,0,0,1-.981,2.259c-1.159,1.04-3.061,1.1-4.339,1.04-3.893-.208-5.141-2.11-5.052-3.8.119-2.021,2.11-3.685,5.23-3.536.921.059,1.634.208,1.932.238-.03-2.08,0-2.734.208-8.113l2.7.386Zm-4.576,9.3c-.565-.03-2.407,0-2.5,1.664-.059,1.248.8,1.872,1.991,1.932,1.07.059,2.169-.416,2.229-1.664v-1.575a6.139,6.139,0,0,0-1.694-.386Zm9.034-8.945a21.342,21.342,0,0,0-6.389-4.279l1.01-1.427a50.03,50.03,0,0,1,7.132,2.883l-1.753,2.853Z" transform="translate(95.043 -279.797)" fill="#fff"/>
  <path id="パス_9962" data-name="パス 9962" d="M81.114,433.342c1.664-.267,6.538-1.07,7.132-9.152.178-2.7-.178-6.924-4.963-8.41-1.426,10.43-3.417,18.216-8.172,17.859-3.477-.238-5.379-4.368-5.081-8.677.446-6.27,5.022-11.886,12.362-11.381,5.2.357,10.074,3.625,9.509,11.173-.654,9.3-8.261,10.163-10.43,10.43l-.386-1.872ZM72.972,426c-.267,3.863.743,5.379,1.932,5.468,1.218.089,3.566-4.844,4.844-15.9-5.884,1.545-6.627,8.558-6.775,10.46Z" transform="translate(113.437 -277.689)" fill="#fff"/>
  <path id="パス_9963" data-name="パス 9963" d="M84.43,414.693c.8.208.773.357.773.505,0,.119-.3.446-.357.535a60.76,60.76,0,0,0-1.694,11.114,54.568,54.568,0,0,0-.208,9L79.468,436a73.077,73.077,0,0,1,.3-9.361,103.654,103.654,0,0,1,1.842-12.719l2.793.743Zm14.026,21.6a42.991,42.991,0,0,1-6.181-.089c-5.171-.446-7.221-1.486-6.983-4.19a7.033,7.033,0,0,1,1.783-3.923l1.367.921a4.088,4.088,0,0,0-.891,2.14c-.119,1.426,1.1,1.842,3.388,2.05a26.078,26.078,0,0,0,7.845-.416l-.357,3.506Zm0-15.72a17.835,17.835,0,0,0-6.567-1.634,23.778,23.778,0,0,0-4.636.03l-.119-2.05a38.26,38.26,0,0,1,8.8-.267,13.1,13.1,0,0,1,2.823.446l-.327,3.477Z" transform="translate(132.022 -276.958)" fill="#fff"/>
  <path id="パス_9964" data-name="パス 9964" d="M92.722,414.9c.951.178,1.04.327,1.01.535a7.037,7.037,0,0,1-.386,1.01c-.178.654-1.724,11.946-1.9,13.551-.178,1.783-.446,5.141,3.982,5.587,5.052.505,7.28-4.784,8.261-7.072l1.4.654c-1.783,4.844-4.487,10.074-11.322,9.39-5.943-.594-6.24-4.873-5.914-8.172.238-2.288,1.753-13.491,2.021-16.017l2.882.565Z" transform="translate(148.454 -276.071)" fill="#fff"/>
  <path id="パス_9965" data-name="パス 9965" d="M95.55,419.187a14.774,14.774,0,0,0,3-.357,26.2,26.2,0,0,1,7.845-.713c3.566.386,6.151,3.031,5.676,7.251-.535,4.7-5.141,7.637-12.837,6.924l-.119-1.575c3.893.713,9.3-.386,9.9-5.587.327-2.972-1.159-5.052-4.22-5.408-2.526-.267-6.835,1.04-8.885,1.842l-.386-2.407Z" transform="translate(163.753 -268.853)" fill="#fff"/>
  <path id="パス_9966" data-name="パス 9966" d="M104.4,423.044c3.388-.475,3.774-.535,5.141-.654.921-2.08,1.842-4.131,2.764-6.211l2.466,1.367c.238.148.624.386.594.594,0,.119-.238.3-.327.416a41.685,41.685,0,0,0-1.813,3.774,16.362,16.362,0,0,1,2.288.119c3.566.416,4.339,2.555,3.833,6.775-.119,1.1-1.486,11.827-6.3,11.233-1.575-.178-3.477-1.753-4.22-2.318l.891-1.961c1.278,1.426,2.11,1.753,2.377,1.783.535.059.921-.386,1.218-.862,1.545-2.318,2.407-6.032,2.764-8.974.357-2.882.059-3.952-1.694-4.16a12.856,12.856,0,0,0-1.872,0c-3.8,8.766-6.151,14.442-6.627,15.6l-3.3-1.813c1.456-3.09,3.655-7.994,6.092-13.461a22.135,22.135,0,0,0-4.071,1.04l-.178-2.318Zm17.741-2.882a38.668,38.668,0,0,1,3.952,8.469l-3.685,2.2a23.813,23.813,0,0,0-2.05-9.569Z" transform="translate(177.693 -272.502)" fill="#fff"/>
  <path id="パス_9967" data-name="パス 9967" d="M117.712,418.162c.8.238.832.416.832.565a5.083,5.083,0,0,1-.386.683,55.329,55.329,0,0,0-1.783,8.142,17.442,17.442,0,0,0-.178,3.952c.089.386.267.475.446.505.654.089,1.545-.981,1.9-1.426l.951,1.545c-1.932,2.229-3.239,3.6-4.844,3.388-1.516-.208-2.734-1.6-1.9-7.845a94.006,94.006,0,0,1,2.11-10.371l2.853.862Zm-1.932,21.574c8.023,0,8.885-5.765,9.479-10.49.149-1.189.832-6.359,1.04-10.906l2.882.624c.327.059.981.208.951.446,0,.119-.059.149-.089.267a2.557,2.557,0,0,0-.208.743c-.178,1.308-.892,7.726-1.07,9.182-1.04,7.964-3.477,11.708-12.51,11.976l-.446-1.842Z" transform="translate(197.19 -270.294)" fill="#fff"/>
  <path id="パス_9968" data-name="パス 9968" d="M139.469,419.063a18.671,18.671,0,0,1,3.774,2.169l-1.694,1.4,3.358.446-.208,1.516-7.34-.981a21.52,21.52,0,0,0,.386,4.16,12.337,12.337,0,0,0,1.842-3.209l3.09,1.813s.119.119.089.208c0,.059-.089.267-.594.475a21.927,21.927,0,0,1-3.566,3.625c.8,1.961,1.664,2.5,1.872,2.526.654.089,1.248-1.753,1.575-2.793a10.007,10.007,0,0,0,2.258,1.575c-1.1,2.883-2.437,4.4-3.8,4.576l-.832,6.121,2.674.357-.208,1.516-22.7-3.09.208-1.516,2.585.357.951-6.983,14.8,2.021a10.476,10.476,0,0,1-1.932-2.912,17.327,17.327,0,0,1-4.071,1.783l-.891-1.4a15.882,15.882,0,0,0,4.131-2.5,28.872,28.872,0,0,1-1.129-7.191l-6.656-.891-.238,1.694s-.089.565-.119.743l5.765.773c-1.1,7.221-2.05,8.083-4.487,7.756l-2.853-.386-.327-1.961a14.257,14.257,0,0,0,2.258.654c.357.059.713,0,.951-.713a29.237,29.237,0,0,0,.981-4.339l-2.585-.357a13.26,13.26,0,0,1-5.854,8.5l-.981-1.278c1.189-1.278,2.972-3.18,3.8-9.242l.535-3.893,9.747,1.337v-3.18l3.388.565s.238.149.208.327a1.491,1.491,0,0,1-.149.386c-.03.475-.059.8-.089,2.348l3.09.416a14.093,14.093,0,0,0-2.229-2.377l1.189-1.04Zm-13.343,16.255-.743,5.438,1.753.238.743-5.438Zm6.478.891-1.842-.238-.743,5.468,1.842.238Zm2.11,5.854,1.842.238.743-5.468-1.842-.238-.743,5.438Z" transform="translate(210.914 -268.224)" fill="#fff"/>
  <path id="パス_9969" data-name="パス 9969" d="M131.774,424.6c1.308.178,1.575.208,3.863.476.3-2.11.565-3.982.743-5.438l2.466.565c.416.089,1.248.267,1.218.565a3.358,3.358,0,0,1-.327.654c-.119.357-.862,4.844-1.159,6.864,1.189-.832,5.022-3.477,7.726-3.091,1.842.267,3.18,1.545,2.793,4.309-.178,1.367-1.634,7.845-1.842,9.3-.208,1.516,0,1.872.654,1.961a3.992,3.992,0,0,0,2.823-1.248l.891,1.575c-3.15,2.793-5.289,2.5-5.795,2.437-1.961-.267-2.645-1.783-2.288-4.249.238-1.6,1.9-9.747,1.932-10.014.119-.951-.089-1.753-.921-1.872-.476-.059-2.229-.03-6.359,3.417-.981,6.716-1.694,12.005-1.842,12.926l-3.506-.446c.149-1.01.832-5.171,1.337-8.737-1.664,1.694-2.466,2.615-3.685,4.071l-1.4-3.061c2.348-1.9,3.15-2.585,5.616-4.517.208-1.218.446-3,.594-4.16a24.216,24.216,0,0,0-3.893-.149l.3-2.14Z" transform="translate(229.96 -265.681)" fill="#fff"/>
  <path id="パス_9970" data-name="パス 9970" d="M143.915,421.03a118.082,118.082,0,0,0,11.857,1.129l.891,2.021c-3.031,2.2-5.943,4.339-8.291,6.181a9.358,9.358,0,0,1,3.685-.148c4.576.654,6.627,4.012,6.092,7.815-.8,5.795-5.795,7.607-10.609,6.954-4.19-.594-5.557-3.031-5.29-4.963.3-2.08,1.932-3.566,4.814-3.18,1.307.178,4.517,1.01,4.636,5.616a6.027,6.027,0,0,0,2.823-4.547c.357-2.615-.505-5.587-3.982-6.062-3.566-.505-6.181,1.694-10.133,5.527l-2.2-3c4.7-3.774,10.222-8.231,13.224-10.727-3.18-.268-6.835-.446-7.726-.505l.238-2.14Zm3,17.681a1.85,1.85,0,0,0-2.05,1.753,2.788,2.788,0,0,0,2.615,2.972,8.317,8.317,0,0,0,1.4.059c.208-2.585-.267-4.547-1.931-4.784Z" transform="translate(247.921 -262.999)" fill="#fff"/>
  <g id="グループ_3855" data-name="グループ 3855" transform="translate(411.524 156.411)">
    <path id="パス_9971" data-name="パス 9971" d="M152.3,420.465h.03a1.674,1.674,0,0,1,.227.015l11.768,1.6a11.344,11.344,0,0,1,8.581,5.282c2.759,4,1.959,11.023,1.77,12.39-1.21,8.97-5.824,14.118-12.659,14.118a15.125,15.125,0,0,1-2.039-.143l-11.767-1.6a1.679,1.679,0,0,1-1.437-1.891l3.863-28.319A1.679,1.679,0,0,1,152.3,420.465Zm4.4,3.969-2.962-.4-3.41,25,2.969.4a1.671,1.671,0,0,1-.193-1.038l3.15-23.03A1.672,1.672,0,0,1,156.7,424.434Zm5.317,26.083c6.8,0,8.767-7.026,9.332-11.213.354-2.565.5-7.557-1.2-10.026a7.83,7.83,0,0,0-5.249-3.685c3.247,2,4.445,6.216,3.569,12.588-.7,5.122-2.137,10.9-6.872,12.327Q161.8,450.517,162.013,450.517Zm-2.792-3.037c2.378,0,4.74-1.182,5.914-9.755,1.272-9.256-2.634-9.8-4.3-10.025l-1.488-.2-2.693,19.689,1.5.212A8.19,8.19,0,0,0,159.221,447.48Z" transform="translate(-146.755 -420.465)" fill="#fff"/>
  </g>
  <path id="パス_9972" data-name="パス 9972" d="M151.213,421.03l11.768,1.6a9.689,9.689,0,0,1,7.429,4.576c2.11,3.061,1.842,8.618,1.486,11.2-.862,6.389-4.1,13.729-12.808,12.54l-11.768-1.6,3.863-28.319Zm5.587,3.447-3.15,23.03,3.15.446c4.665.624,7.607-1.783,8.885-11.114,1.278-9.3-2.288-11.441-5.735-11.916l-3.15-.416Z" transform="translate(265.883 -262.94)" fill="#634a32"/>
  <g id="グループ_3854" data-name="グループ 3854" transform="translate(441.27 160.274)">
    <path id="パス_9973" data-name="パス 9973" d="M162.069,421.765a1.7,1.7,0,0,1,.215.014l5.973.773a1.679,1.679,0,0,1,1.45,1.878l-3.625,28.349a1.679,1.679,0,0,1-1.881,1.452l-5.973-.773a1.679,1.679,0,0,1-1.45-1.878l3.625-28.349a1.679,1.679,0,0,1,1.665-1.466Zm4.095,3.9-2.643-.342-3.2,25.018,2.643.342Z" transform="translate(-156.765 -421.765)" fill="#fff"/>
  </g>
  <path id="パス_9974" data-name="パス 9974" d="M160.955,422.33l5.973.773L163.3,451.452l-5.973-.773Z" transform="translate(285.619 -260.377)" fill="#634a32"/>
  <g id="グループ_3853" data-name="グループ 3853" transform="translate(455.177 163.037)">
    <path id="パス_9975" data-name="パス 9975" d="M187.135,456.3a1.687,1.687,0,0,1-.191-.011l-6.478-.743a1.679,1.679,0,0,1-1.476-1.468l-.733-6.11-4.99-.565-2.116,5.83a1.678,1.678,0,0,1-1.77,1.1l-6.448-.743a1.679,1.679,0,0,1-1.371-2.282l10.817-27.547a1.677,1.677,0,0,1,1.749-1.055l8.766.981a1.679,1.679,0,0,1,1.473,1.417l4.428,29.27a1.679,1.679,0,0,1-1.66,1.93Zm-4.969-3.939,2.981.342L181.24,426.88l-6.207-.694L165.485,450.5l2.962.341,2.1-5.8a1.68,1.68,0,0,1,.391-.614l.03-.03a.8.8,0,0,0,.4-1.492,1.672,1.672,0,0,1,.229-.757l2.322-6.4,2.395-7.747a1.679,1.679,0,0,1,3.278.368l.621,8.1.857,7.035a1.679,1.679,0,0,1-.474,1.385q-.031.032-.064.061a1.679,1.679,0,0,1,.895,1.291Zm-6.783-10.787,2.1.236-.55-4.513Z" transform="translate(-161.445 -422.695)" fill="#fff"/>
  </g>
  <path id="パス_9976" data-name="パス 9976" d="M171.014,444.507l-2.556,7.043-6.448-.743,10.817-27.547,8.766.981,4.428,29.27-6.478-.743-.891-7.429-7.607-.862Zm.921-2.615,6.359.713-.862-7.072-.624-8.142-2.407,7.786-2.437,6.716Z" transform="translate(294.846 -258.543)" fill="#634a32"/>
  <g id="グループ_3852" data-name="グループ 3852" transform="translate(486.2 165.89)">
    <path id="パス_9977" data-name="パス 9977" d="M180.012,423.655q.076,0,.152.007l5.884.535a1.679,1.679,0,0,1,1.52,1.827l-2.645,28.468a1.679,1.679,0,0,1-1.83,1.516l-5.973-.565a1.679,1.679,0,0,1-1.514-1.826l1.919-20.758a21.417,21.417,0,0,1-4.078.063,1.679,1.679,0,0,1-1.554-1.835l.267-2.793a1.679,1.679,0,0,1,1.508-1.511,6.314,6.314,0,0,0,4.989-2.44A1.679,1.679,0,0,1,180.012,423.655Zm4.057,3.734-3.321-.3a8.834,8.834,0,0,1-3.783,2.458,7.152,7.152,0,0,0,1.511-.311,1.679,1.679,0,0,1,2.129.2l.03.03a1.68,1.68,0,0,1,.422,1.665L179.1,452.258l2.631.249Z" transform="translate(-171.885 -423.655)" fill="#fff"/>
  </g>
  <path id="パス_9978" data-name="パス 9978" d="M178.334,429.539a13.238,13.238,0,0,1-5.884.594l.267-2.793a8.027,8.027,0,0,0,6.181-3.12l5.884.535-2.645,28.468-5.973-.565,2.14-23.149Z" transform="translate(315.429 -256.651)" fill="#634a32"/>
  <g id="グループ_3851" data-name="グループ 3851" transform="translate(503.703 167.763)">
    <path id="パス_9979" data-name="パス 9979" d="M197.226,456.646c-.039,0-.079,0-.118,0l-5.973-.416a1.679,1.679,0,0,1-1.558-1.8l.354-4.8-10.594-.744a1.679,1.679,0,0,1-1.557-1.8l.208-2.764a1.679,1.679,0,0,1,.285-.817l12.54-18.483a1.683,1.683,0,0,1,1.509-.732l7.073.505a1.679,1.679,0,0,1,1.555,1.8l-1.276,17.7,2.155.15a1.679,1.679,0,0,1,1.558,1.787l-.178,2.674a1.679,1.679,0,0,1-1.792,1.563l-2.165-.151-.352,4.781A1.679,1.679,0,0,1,197.226,456.646Zm-4.176-3.653,2.623.183.352-4.781a.808.808,0,0,0,.585-1.451,1.679,1.679,0,0,1-.406-1.221l1.276-17.7-3.486-.249a1.679,1.679,0,0,1,.745,1.518l-1.159,16.225a1.56,1.56,0,0,0-.174,2.552v.03q0,.063,0,.127Zm-7.537-9.742,4.838.351.6-8.333Z" transform="translate(-177.775 -424.285)" fill="#fff"/>
  </g>
  <path id="パス_9980" data-name="パス 9980" d="M190.613,446.959,178.34,446.1l.208-2.764,12.54-18.483,7.072.505-1.4,19.375L200.6,445l-.178,2.674-3.833-.267-.475,6.448-5.973-.416.475-6.448Zm.178-2.674,1.159-16.225L181.371,443.6l9.42.684Z" transform="translate(327.042 -255.409)" fill="#634a32"/>
  <g id="グループ_3850" data-name="グループ 3850" transform="translate(530.537 190.436)">
    <path id="パス_9981" data-name="パス 9981" d="M194.547,442.464l-.084,0-6.062-.3a1.679,1.679,0,0,1-1.595-1.764l.357-6.894a1.68,1.68,0,0,1,1.759-1.59l6.062.3a1.679,1.679,0,0,1,1.595,1.764l-.357,6.894A1.679,1.679,0,0,1,194.547,442.464Zm-4.3-3.571,2.708.133.183-3.541-2.708-.133Z" transform="translate(-186.805 -431.915)" fill="#fff"/>
  </g>
  <path id="パス_9982" data-name="パス 9982" d="M193.432,439.671l-6.062-.3.357-6.894,6.062.3Z" transform="translate(344.846 -240.365)" fill="#634a32"/>
  <g id="グループ_3849" data-name="グループ 3849" transform="translate(543.107 169.664)">
    <path id="パス_9983" data-name="パス 9983" d="M194.972,424.925h.036q.054,0,.107,0l18.815.651a1.679,1.679,0,0,1,1.62,1.734l-.089,2.675a1.679,1.679,0,0,1-1.736,1.622l-11.254-.39-.239,3.216a11.282,11.282,0,0,1,2.838-.34c.189,0,.384,0,.579.012a10.457,10.457,0,0,1,7.733,3.608,12.4,12.4,0,0,1,2.733,8.646c-.146,4.219-1.593,7.339-4.3,9.275a13,13,0,0,1-7.708,2.134c-.226,0-.459,0-.69-.011-4.632-.16-8.008-1.565-10.037-4.177a12.977,12.977,0,0,1-2.328-6.514,1.679,1.679,0,0,1,1.491-1.9l3.258-.335-2.1-.217a1.679,1.679,0,0,1-1.5-1.786l1.107-16.028a1.68,1.68,0,0,1,1.667-1.879Zm4.627,3.519-3.034-.1-.906,13.106,2.107.218a7.577,7.577,0,0,1,1.782-3.095l-.062-.036a1.679,1.679,0,0,1-.809-1.563l.565-7.607A1.672,1.672,0,0,1,199.6,428.444Zm6.511,25.841c4.3-.593,6.482-3.238,6.648-8.038a9.121,9.121,0,0,0-1.932-6.352,6.934,6.934,0,0,0-4.668-2.387,5.837,5.837,0,0,1,1.551,1.191,9.752,9.752,0,0,1,2.164,7.071C209.682,450.915,208.033,453.292,206.11,454.285Zm-2.493-14.057h-.044c-1.843,0-2.582,1.933-2.878,3.555a1.677,1.677,0,0,1-.824,1.16l.03.026a1.679,1.679,0,0,1,.554,1.246v.044c0,3.838.718,5.222,2.746,5.291l.145,0c.807,0,2.951,0,3.172-5.905a6.616,6.616,0,0,0-1.26-4.655A2.278,2.278,0,0,0,203.617,440.229Zm-3.785,13.66a5.8,5.8,0,0,1-2.081-2.775,10.838,10.838,0,0,1-.606-3.041l-2.49.256A6.607,6.607,0,0,0,199.832,453.889Z" transform="translate(-191.035 -424.925)" fill="#fff"/>
  </g>
  <path id="パス_9984" data-name="パス 9984" d="M193.858,425.49l18.9.654-.089,2.674-12.867-.446-.565,7.607a8.24,8.24,0,0,1,5.23-1.308c5.379.178,9.063,4.368,8.855,10.52-.3,8.588-6.419,9.925-10.965,9.777-9.479-.327-10.311-6-10.757-9.242l6.062-.624c0,2.2-.03,6.864,4.368,7.013,4.22.149,4.933-4.339,5.052-7.518.149-4.279-1.724-7.073-4.547-7.162-.446,0-3.685-.119-4.606,4.933l-5.171-.535,1.129-16.344Z" transform="translate(353.186 -254.147)" fill="#634a32"/>
  <g id="グループ_3848" data-name="グループ 3848" transform="translate(570.386 181.462)">
    <path id="パス_9985" data-name="パス 9985" d="M210.809,428.895a5.631,5.631,0,0,1,4.287,1.879,6.189,6.189,0,0,1,4.568-1.849,6.006,6.006,0,0,1,4.745,2.226,8.053,8.053,0,0,1,1.659,5.1v11.589a1.679,1.679,0,0,1-1.679,1.679h-4.665a1.679,1.679,0,0,1-1.679-1.679V435.6c0-.016,0-.032,0-.048a2.109,2.109,0,0,0-.024-.409,2.438,2.438,0,0,0-.839.988v11.712a1.679,1.679,0,0,1-1.679,1.679h-4.7a1.679,1.679,0,0,1-1.679-1.679V435.6c0-.014,0-.027,0-.041a2.335,2.335,0,0,0-.024-.425c-.355.137-.668.812-.868,1.281v11.427a1.679,1.679,0,0,1-1.679,1.679h-4.665a1.679,1.679,0,0,1-1.679-1.679v-16.76a1.679,1.679,0,0,1,1.679-1.679h4.015a1.68,1.68,0,0,1,1.6.4A6.124,6.124,0,0,1,210.809,428.895Zm3.173,6.082a1.676,1.676,0,0,1-.459-.571c-.854-1.735-1.731-2.1-2.5-2.147a2.956,2.956,0,0,1,.48.4,3.948,3.948,0,0,1,.985,2.957V446.16h1.337V435.685A1.68,1.68,0,0,1,213.982,434.977Zm8.729,11.183v-9.91c0-1.74-.721-3.757-2.723-3.952a2.974,2.974,0,0,1,.428.365,3.984,3.984,0,0,1,.988,2.955V446.16Zm-17.906-13.4h-1.232v13.4h1.308V436.071a1.679,1.679,0,0,1,.136-.661l.064-.151c.08-.191.187-.446.328-.731a1.678,1.678,0,0,1-.552-1.118Z" transform="translate(-200.215 -428.895)" fill="#fff"/>
  </g>
  <path id="パス_9986" data-name="パス 9986" d="M205.237,429.906l.178,2.258a4.632,4.632,0,0,1,4.279-2.7c1.9,0,3.239,1.1,4.22,3.091.773-1.278,1.9-3.061,4.636-3.061,2.882,0,4.725,2.407,4.725,5.646v11.589H218.61V434.482c.03-1.04-.3-2.169-1.575-2.169-1.456,0-2.318,1.664-2.645,2.258v12.154h-4.7V434.482c.03-1.218-.386-2.169-1.575-2.169-1.664,0-2.318,1.813-2.674,2.645v11.768H200.78v-16.76h4.428Z" transform="translate(371.285 -246.319)" fill="#634a32"/>
  <g id="グループ_3847" data-name="グループ 3847" transform="translate(598.022 181.132)">
    <path id="パス_9987" data-name="パス 9987" d="M229.122,428.784c3.645,0,6.3,2.914,6.453,7.087l.357,11.6a1.679,1.679,0,0,1-1.624,1.73l-4.636.148a1.679,1.679,0,0,1-1.732-1.625l-.386-12.243a2.124,2.124,0,0,0-.056-.457c-.187.079-.461.342-.852,1.038l.372,11.7a1.679,1.679,0,0,1-1.625,1.732l-4.665.148A1.679,1.679,0,0,1,219,448.021l-.386-12.243a2.264,2.264,0,0,0-.053-.468c-.333.105-.609.676-.859,1.321l.347,11.434a1.679,1.679,0,0,1-1.624,1.729l-4.636.149a1.679,1.679,0,0,1-1.732-1.624l-.535-16.76a1.679,1.679,0,0,1,1.621-1.732l4.12-.139a1.679,1.679,0,0,1,1.492.395,6.2,6.2,0,0,1,3.224-1.026H220c.079,0,.158,0,.235,0a5.665,5.665,0,0,1,4.161,1.738,6.153,6.153,0,0,1,4.515-2C228.983,428.785,229.053,428.784,229.122,428.784Zm3.4,17.114-.3-9.913c-.063-1.689-.843-3.66-2.816-3.831a3.871,3.871,0,0,1,1.507,3.226l.333,10.559Zm-9.119-10.884a1.677,1.677,0,0,1-.471-.553c-.9-1.689-1.778-2.013-2.54-2.048a3.711,3.711,0,0,1,1.572,3.271l.333,10.552,1.309-.042-.333-10.476A1.679,1.679,0,0,1,223.405,435.014Zm-8.61-.154a1.677,1.677,0,0,1-.574-1.077l-.082-.7-1.214.041.428,13.407,1.282-.041L214.33,436.4a1.681,1.681,0,0,1,.108-.646l.047-.126C214.56,435.428,214.661,435.16,214.8,434.86Z" transform="translate(-209.515 -428.784)" fill="#fff"/>
  </g>
  <path id="パス_9988" data-name="パス 9988" d="M214.508,430.213l.267,2.259a4.646,4.646,0,0,1,4.19-2.853c1.932-.059,3.3.981,4.339,2.942.743-1.278,1.783-3.12,4.547-3.209,2.882-.089,4.814,2.258,4.933,5.468l.357,11.589-4.636.149-.386-12.243c-.03-1.04-.416-2.169-1.694-2.11-1.456.059-2.258,1.723-2.585,2.348l.386,12.154-4.665.148-.386-12.243c-.03-1.218-.505-2.169-1.694-2.11-1.664.059-2.258,1.872-2.585,2.734L215.251,447l-4.636.149-.535-16.76,4.4-.148Z" transform="translate(389.621 -246.538)" fill="#634a32"/>
  <g id="グループ_3843" data-name="グループ 3843" clip-path="url(#clip-path-2)">
    <rect id="長方形_1251" data-name="長方形 1251" width="397.899" height="523.301" transform="translate(-62.866 101.361) rotate(-58.2)" fill="url(#linear-gradient-2)"/>
  </g>
  <path id="パス_9990" data-name="パス 9990" d="M37.34,395.168c7.518-.03,16.344-1.4,21.217-3.893l2.7,5.2c.089.267.327.743.267.981s-1.456.059-1.753.149c-2.437.475-10.1,1.6-23.089.951l-2.318,11.886c-.594,3.031-.267,4.784,5.765,5.943l4.428.862a72,72,0,0,0,13.64,1.278l-.832,4.279c-5.23-.8-14.591-2.556-14.828-2.585l-4.428-.862c-10.49-1.991-11.233-5.735-10.222-10.7l4.784-24.337c.357-1.813.832-4.368,1.129-6.151l5.854,1.516c.951.238.951.386.921.565-.059.238-.535,1.278-.594,1.575L37.34,395.138Z" transform="translate(29.759 -347.444)" fill="#fff"/>
  <path id="パス_9991" data-name="パス 9991" d="M48.593,415.723c0,.3-.119,1.694-.149,2.021l-6.835-.684c.238-2.08.713-6.27.921-8.558l2.05-20.831c.178-1.694.327-3.358.505-6.181,3.566.446,5.557.743,8.588,1.04l17.949,1.753c4.487.446,5.646.505,7.31.565-.505,4.131-.713,6.3-.8,7.31L76.2,411.86c-.3,3-.594,6.567-.743,8.529l-6.864-.684c.059-.624.178-1.456.238-2.08l-20.237-1.991Zm.238-3,20.326,1.991,2.674-27.339-20.326-1.991Z" transform="translate(57.464 -340.898)" fill="#fff"/>
  <path id="パス_9992" data-name="パス 9992" d="M56.91,403.8c12.421-3.655,21.812-9.093,30.9-22.465l5.646,3.982s.862.594.862.832-1.189.981-1.426,1.218a77.489,77.489,0,0,1-9.955,8.945l-.565,22.257c0,.832-.119,5.943-.089,6.6l-6.805-.178c.059-.683.178-5.676.208-6.538l.475-18.156c-4.4,2.258-8.707,4.19-18.246,6.181l-1.04-2.7Z" transform="translate(87.57 -341.213)" fill="#fff"/>
  <path id="パス_9993" data-name="パス 9993" d="M71.23,416.053c15.928-1.932,26.536-7.726,35.511-22.436l2.348,1.842a49.52,49.52,0,0,1-9.658,14.5A45.4,45.4,0,0,1,83.087,420.57c-1.248.446-7.37,2.407-8.737,2.882l-3.12-7.4ZM85.7,395.281A31.134,31.134,0,0,0,73.28,384.435l1.426-2.615a38.462,38.462,0,0,1,15.9,7.756l-4.9,5.735Z" transform="translate(115.863 -340.247)" fill="#fff"/>
  <path id="パス_9994" data-name="パス 9994" d="M102.587,413.218c2.407-.535,9.42-2.11,9.42-13.342,0-3.744-.981-9.539-8.113-11.114-1.01,14.561-3.09,25.467-10.044,25.467-5.111,0-8.321-5.5-8.321-11.47,0-8.677,6.092-16.908,16.849-16.908,7.637,0,15.036,4.012,15.036,14.472,0,12.9-10.965,14.858-14.115,15.423l-.743-2.526Zm-12.629-9.331c0,5.349,1.634,7.34,3.388,7.34s4.665-7.043,5.408-22.436C90.344,391.5,89.958,401.273,89.958,403.888Z" transform="translate(144.057 -332.301)" fill="#fff"/>
  <path id="パス_9995" data-name="パス 9995" d="M112.616,383.715l-.951,41.068-6.894-.149-.059,2.318-5.111-.119.981-43.386,12.005.267Zm-7.548,27.517-.238,10.638,2.5.059.238-10.638Zm.3-12.6-.238,9.866,2.5.059.238-9.866Zm2.556-2.615.238-9.777-2.5-.059-.238,9.777Zm21.99,21.247,9.717.208-.059,2.674-9.717-.208-.089,3.447,11.678.267-.059,2.7L112.7,425.7l.059-2.7,10.817.238.089-3.447-9.569-.208.059-2.674,9.569.208.089-3.388-9.479-.208.3-13.075,25.229.565-.3,13.075L130,413.877l-.089,3.388ZM140.7,387.073l-.059,2.7-7.043-.149,4.457,1.842s.178.089.178.208c0,.149-3.417,2.972-4.547,3.833l8.291.178-.059,2.7-28.557-.654.059-2.7,6.3.149a28.885,28.885,0,0,0-1.545-4.844l1.486-1.04-4.933-.119.059-2.7,9.806.238v-1.723a24.116,24.116,0,0,0-.119-2.853l6.122.238a.36.36,0,0,1,.357.357,6.611,6.611,0,0,1-.208.921l-.059,3.239,10.044.238ZM120.1,408.26l-.059,2.764,3.863.089.059-2.764Zm3.923-2.318.059-2.7-3.863-.089-.059,2.7Zm-2.942-16.582a36.313,36.313,0,0,1,4.873,4.22l-3.18,1.664,8.618.208-1.634-.951a24.269,24.269,0,0,0,1.664-4.9l-10.341-.238Zm9.034,19.137-.059,2.764,3.923.089.059-2.764Zm3.982-2.318.059-2.7-3.923-.089-.059,2.7Z" transform="translate(171.797 -339.616)" fill="#fff"/>
  <path id="パス_9996" data-name="パス 9996" d="M133.049,414.028c2.437-.386,9.539-1.6,10.133-12.808.208-3.744-.446-9.6-7.488-11.53-1.783,14.472-4.457,25.259-11.381,24.9-5.111-.267-8.023-5.943-7.7-11.916.475-8.677,6.983-16.552,17.741-15.987,7.607.416,14.8,4.814,14.264,15.274-.683,12.867-11.768,14.234-14.917,14.65l-.624-2.585Zm-12.124-9.985c-.3,5.319,1.218,7.429,3,7.518,1.753.089,5.052-6.805,6.6-22.109C121.965,391.681,121.074,401.428,120.925,404.043Z" transform="translate(205.298 -330.704)" fill="#fff"/>
  <path id="パス_9997" data-name="パス 9997" d="M142.906,410.281c-1.4,2.823-8.618,16.344-9.093,17.83-.208.505-.743.891-.891.683l-4.012-4.606c2.645-2.318,7.072-8.231,11.946-16.285l2.08,2.348Zm-5.081-3.982a54.043,54.043,0,0,0-6.092-9.3l1.842-2.051a65.745,65.745,0,0,1,8.855,6.389l-4.606,4.963Zm2.972-12.54a57.448,57.448,0,0,0-5.884-8.8l1.724-1.813a60.477,60.477,0,0,1,9.034,6.211l-4.873,4.4Zm32.866,1.664-.267,2.645-11.352-1.189L161,406.715l12.956,1.367-.267,2.645L160.2,409.3c-2.2,3.358-5.23,7.043-11.916,14.62,6.716,0,11.53-.089,15.809-.386a59.145,59.145,0,0,0-3.625-9l2.5-1.189a75.264,75.264,0,0,1,9.628,15.868l-6.092,2.972c-.267-1.308-.654-3-1.516-5.913-4.7.565-9.658,1.07-23.8,2.318-.446.386-.594.475-.832.446a.6.6,0,0,1-.535-.3l-1.278-5.141c2.764.208,5.2.267,5.587.238a106.217,106.217,0,0,0,8.8-15.3l-11.084-1.159.267-2.645,12.54,1.307,1.04-9.836-10.936-1.159.267-2.645,10.936,1.159.446-4.279a26.035,26.035,0,0,0,.238-3.923l6.478.773s.3.267.267.505a2.4,2.4,0,0,1-.357.832l-.713,6.746,11.352,1.189Z" transform="translate(229.585 -337.625)" fill="#fff"/>
  <path id="パス_9998" data-name="パス 9998" d="M168.613,432.494a29.884,29.884,0,0,1-7.578-10.728l5.408-1.931-11.5-2.05,4.606,3.269c.267.149-.178.743-.713,1.07a40.03,40.03,0,0,1-10.995,6.865l-1.932-2.348a27.1,27.1,0,0,0,8.231-8.974l-3.358-.594,5.557-31.232,19.494,3.447-5.557,31.232-3.358-.594a29.131,29.131,0,0,0,4.041,10.935l-2.348,1.634ZM158.48,408.216l-1.278,7.251,7.7,1.367,1.278-7.251Zm1.664-9.45-1.218,6.864,7.7,1.367,1.218-6.864Zm8.172-1.248L169.5,390.8l-7.7-1.367-1.189,6.716Zm16.938-5.319a1.46,1.46,0,0,1,.208.475c0,.089-.505.713-.565.832L179.4,424.5l-5.795-1.04,5.141-29.033c.178-1.04.416-2.437.505-3.447Zm9.539-1.159a1.381,1.381,0,0,1,.178.535,2.442,2.442,0,0,1-.475.743l-6.6,37.234c-.565,3.239-1.307,5.171-5.408,4.457l-6.924-1.218-.416-3.358a35.554,35.554,0,0,0,4.636,1.307c1.4.238,1.813.119,2.169-2.021l6.27-35.333c.149-.773.357-2.288.505-3.566l6.092,1.218Z" transform="translate(263.103 -332.321)" fill="#fff"/>
  <path id="パス_9999" data-name="パス 9999" d="M182.119,400.1c2.585-4.1,6.567-5.319,10.193-4.338,4.339,1.189,6.805,5.824,5.438,10.727-1.575,5.706-5.706,9.063-9.806,12.095-3.952,2.912-11.47,7.7-13.4,8.855h-.089c-1.07-2.021-5.052-10.014-6.924-14.5-1.961-4.725-3.774-9.717-2.169-15.423,1.367-4.9,5.854-7.607,10.193-6.389,3.6,1.01,6.419,4.1,6.508,8.945h.089Z" transform="translate(300.233 -322.478)" fill="#fff"/>
</svg>
