<svg xmlns="http://www.w3.org/2000/svg" width="1321.156" height="797.639" viewBox="0 0 1321.156 797.639">
  <g id="グループ_3651" data-name="グループ 3651" transform="translate(69.15 17.413)">
    <path id="パス_9768" data-name="パス 9768" d="M78.679,28.875c0-6.02-4.366-10.9-9.754-10.9a9.183,9.183,0,0,0-6.567,2.84,9.191,9.191,0,0,0-6.571-2.84c-5.384,0-9.75,4.879-9.75,10.9a11.535,11.535,0,0,0,4.511,9.192l.042.028c.332.233.332.233,11.768,8.574,11.432-8.341,11.432-8.341,11.764-8.574l.025-.014.018-.014h0l1.35-1.056c1.346-1.053,3.165-4.271,3.165-8.136" transform="translate(1136.322 287.96)" fill="#f7e1e4"/>
    <path id="パス_9769" data-name="パス 9769" d="M46.881,73.556c0-7.474-5.422-13.532-12.111-13.532a11.4,11.4,0,0,0-8.154,3.527,11.411,11.411,0,0,0-8.159-3.527c-6.685,0-12.106,6.058-12.106,13.532a14.323,14.323,0,0,0,5.6,11.413l.053.035c.412.29.412.29,14.611,10.646C40.81,85.294,40.81,85.294,41.222,85l.031-.018.022-.018h0l1.676-1.311c1.671-1.307,3.93-5.3,3.93-10.1" transform="translate(1067.719 646.175)" fill="#f7e1e4"/>
    <path id="パス_9770" data-name="パス 9770" d="M39.175,25.561c0-7.221-5.239-13.078-11.7-13.078a11.014,11.014,0,0,0-7.882,3.409,11.026,11.026,0,0,0-7.882-3.409C5.243,12.483,0,18.34,0,25.561A13.842,13.842,0,0,0,5.419,36.59l0,0,.053.032c.4.283.4.283,14.12,10.287,13.721-10,13.721-10,14.12-10.287l.025-.018.025-.018h0l1.614-1.265c1.618-1.265,3.8-5.13,3.8-9.764" transform="translate(0 51.454)" fill="#f7e1e4"/>
    <path id="パス_9771" data-name="パス 9771" d="M36.96-.646A15.236,15.236,0,0,1,47.223,3.412,15.236,15.236,0,0,1,57.485-.646,14.775,14.775,0,0,1,63.846.789a16.212,16.212,0,0,1,5.162,3.887,18.971,18.971,0,0,1,4.718,12.706,21.1,21.1,0,0,1-1.768,8.406,13.6,13.6,0,0,1-3.564,5.1l-.889.7-.648.508.021.058-.723.48c-.49.347-.845.605-18.342,13.366l-.589.43L46.634,46C29.135,33.235,28.782,32.977,28.292,32.63l-1.138-.683.133-.133a19.28,19.28,0,0,1-4.511-5.768,18.88,18.88,0,0,1-2.056-8.665A18.971,18.971,0,0,1,25.438,4.676,16.212,16.212,0,0,1,30.6.789,14.775,14.775,0,0,1,36.96-.646ZM47.223,6.225,46.509,5.5A13.364,13.364,0,0,0,36.96,1.354c-7.852,0-14.24,7.19-14.24,16.028a16.949,16.949,0,0,0,6.65,13.563l.015.009.031.022c.519.367.525.371,17.807,12.975C64.5,31.347,64.51,31.343,65.03,30.976l.031-.022.03-.018.053-.042.251-.2.876-.687.888-.7a11.8,11.8,0,0,0,2.967-4.329,19.078,19.078,0,0,0,1.6-7.6c0-8.838-6.388-16.028-14.24-16.028A13.364,13.364,0,0,0,47.936,5.5Z" transform="translate(55.011 1.325)" fill="#f7e1e4"/>
    <path id="パス_9772" data-name="パス 9772" d="M36.96-.646A15.236,15.236,0,0,1,47.223,3.412,15.236,15.236,0,0,1,57.485-.646,14.775,14.775,0,0,1,63.846.789a16.212,16.212,0,0,1,5.162,3.887,18.971,18.971,0,0,1,4.718,12.706,21.1,21.1,0,0,1-1.768,8.406,13.6,13.6,0,0,1-3.564,5.1l-.889.7-.648.508.021.058-.723.48c-.49.347-.845.605-18.342,13.366l-.589.43L46.634,46C29.135,33.235,28.782,32.977,28.292,32.63l-1.138-.683.133-.133a19.28,19.28,0,0,1-4.511-5.768,18.88,18.88,0,0,1-2.056-8.665A18.971,18.971,0,0,1,25.438,4.676,16.212,16.212,0,0,1,30.6.789,14.775,14.775,0,0,1,36.96-.646ZM47.223,6.225,46.509,5.5A13.364,13.364,0,0,0,36.96,1.354c-7.852,0-14.24,7.19-14.24,16.028a16.949,16.949,0,0,0,6.65,13.563l.015.009.031.022c.519.367.525.371,17.807,12.975C64.5,31.347,64.51,31.343,65.03,30.976l.031-.022.03-.018.053-.042.251-.2.876-.687.888-.7a11.8,11.8,0,0,0,2.967-4.329,19.078,19.078,0,0,0,1.6-7.6c0-8.838-6.388-16.028-14.24-16.028A13.364,13.364,0,0,0,47.936,5.5Z" transform="translate(1178.28 459.325)" fill="#f7e1e4"/>
    <path id="パス_9773" data-name="パス 9773" d="M39.175,25.561c0-7.221-5.239-13.078-11.7-13.078a11.014,11.014,0,0,0-7.882,3.409,11.026,11.026,0,0,0-7.882-3.409C5.243,12.483,0,18.34,0,25.561A13.842,13.842,0,0,0,5.419,36.59l0,0,.053.032c.4.283.4.283,14.12,10.287,13.721-10,13.721-10,14.12-10.287l.025-.018.025-.018h0l1.614-1.265c1.618-1.265,3.8-5.13,3.8-9.764" transform="translate(608 626.454)" fill="#f7e1e4"/>
    <path id="パス_9774" data-name="パス 9774" d="M31.731-.646a10.317,10.317,0,0,1,6.741,2.551A10.317,10.317,0,0,1,45.213-.646a10.434,10.434,0,0,1,7.824,3.61,12.8,12.8,0,0,1,3.186,8.575c0,4.087-1.872,7.76-3.634,9.141l-.59.463-.226.177.02.057-.7.465c-.316.224-.669.481-12.034,8.769l-.589.43-.589-.43c-11.364-8.288-11.718-8.546-12.034-8.769l-1.115-.669.143-.142a12.969,12.969,0,0,1-2.769-3.645,12.741,12.741,0,0,1-1.388-5.847,12.8,12.8,0,0,1,3.186-8.575A10.434,10.434,0,0,1,31.731-.646ZM38.472,4.7l-.713-.726a8.438,8.438,0,0,0-6.028-2.62c-4.969,0-9.011,4.569-9.011,10.185a10.8,10.8,0,0,0,4.22,8.626l0,0,.031.022c.341.241.347.246,11.5,8.378,11.151-8.132,11.157-8.137,11.5-8.378l.043-.029.017-.013.164-.129.571-.448.59-.463c1.157-.907,2.868-3.939,2.868-7.567,0-5.616-4.042-10.185-9.011-10.185a8.438,8.438,0,0,0-6.028,2.62Z" transform="translate(637.456 229.325)" fill="#f7e1e4"/>
    <path id="パス_9775" data-name="パス 9775" d="M73.336,82.389c0-12.353-8.96-22.365-20.016-22.365a18.843,18.843,0,0,0-13.477,5.829A18.86,18.86,0,0,0,26.36,60.024c-11.048,0-20.009,10.012-20.009,22.365a23.671,23.671,0,0,0,9.258,18.863l.087.058c.681.478.681.478,24.148,17.595C63.3,101.788,63.3,101.788,63.985,101.31l.051-.029.036-.029h0s1.24-.971,2.769-2.168c2.762-2.16,6.5-8.765,6.5-16.7" transform="translate(-53.749 495.379)" fill="#f7e1e4"/>
    <path id="パス_9776" data-name="パス 9776" d="M31.731-.646a10.317,10.317,0,0,1,6.741,2.551A10.317,10.317,0,0,1,45.213-.646a10.434,10.434,0,0,1,7.824,3.61,12.8,12.8,0,0,1,3.186,8.575c0,4.087-1.872,7.76-3.634,9.141l-.59.463-.226.177.02.057-.7.465c-.316.224-.669.481-12.034,8.769l-.589.43-.589-.43c-11.364-8.288-11.718-8.546-12.034-8.769l-1.115-.669.143-.142a12.969,12.969,0,0,1-2.769-3.645,12.741,12.741,0,0,1-1.388-5.847,12.8,12.8,0,0,1,3.186-8.575A10.434,10.434,0,0,1,31.731-.646ZM38.472,4.7l-.713-.726a8.438,8.438,0,0,0-6.028-2.62c-4.969,0-9.011,4.569-9.011,10.185a10.8,10.8,0,0,0,4.22,8.626l0,0,.031.022c.341.241.347.246,11.5,8.378,11.151-8.132,11.157-8.137,11.5-8.378l.043-.029.017-.013.164-.129.571-.448.59-.463c1.157-.907,2.868-3.939,2.868-7.567,0-5.616-4.042-10.185-9.011-10.185a8.438,8.438,0,0,0-6.028,2.62Z" transform="translate(1159.776 146.325)" fill="#f7e1e4"/>
    <path id="パス_9777" data-name="パス 9777" d="M71.793,26.577c0-4.75-3.445-8.6-7.7-8.6a7.246,7.246,0,0,0-5.182,2.241,7.252,7.252,0,0,0-5.185-2.241c-4.248,0-7.694,3.85-7.694,8.6A9.1,9.1,0,0,0,49.6,33.83l.033.022c.262.184.262.184,9.285,6.765,9.021-6.581,9.021-6.581,9.283-6.765l.02-.011.014-.011h0L69.3,33a8.878,8.878,0,0,0,2.5-6.42" transform="translate(1035.921 391.012)" fill="#f7e1e4"/>
    <path id="パス_9778" data-name="パス 9778" d="M30.928-.646a9.563,9.563,0,0,1,6.2,2.321,9.563,9.563,0,0,1,6.2-2.321A9.677,9.677,0,0,1,50.585,2.7a11.857,11.857,0,0,1,2.951,7.941c0,3.784-1.738,7.189-3.373,8.471l-.537.421-.169.132.02.057-.7.463c-.29.205-.641.462-11.065,8.064l-.589.43-.589-.43c-10.423-7.6-10.776-7.858-11.065-8.064l-1.111-.667.145-.145a12,12,0,0,1-2.5-3.318,11.8,11.8,0,0,1-1.285-5.415A11.857,11.857,0,0,1,23.671,2.7,9.677,9.677,0,0,1,30.928-.646Zm6.2,5.112-.713-.726a7.681,7.681,0,0,0-5.487-2.386c-4.526,0-8.208,4.167-8.208,9.288a9.85,9.85,0,0,0,3.847,7.868h0l.031.022c.314.222.32.227,10.53,7.672,10.21-7.446,10.216-7.45,10.53-7.672l.04-.027.012-.01,1.219-.956c1.052-.824,2.607-3.586,2.607-6.9,0-5.121-3.682-9.288-8.208-9.288A7.681,7.681,0,0,0,37.842,3.74Z" transform="translate(686.456 751.546)" fill="#f7e1e4"/>
    <path id="パス_9779" data-name="パス 9779" d="M27.621,21.7c0-5.091-3.694-9.221-8.252-9.221a7.765,7.765,0,0,0-5.557,2.4,7.774,7.774,0,0,0-5.557-2.4C3.7,12.483,0,16.613,0,21.7a9.76,9.76,0,0,0,3.821,7.776l0,0,.037.022c.281.2.281.2,9.956,7.253,9.674-7.054,9.674-7.054,9.956-7.253l.017-.012.017-.012h0l1.138-.892c1.141-.892,2.68-3.617,2.68-6.885" transform="translate(39.175 643.669)" fill="#f7e1e4"/>
    <path id="パス_9780" data-name="パス 9780" d="M71.793,26.577c0-4.75-3.445-8.6-7.7-8.6a7.246,7.246,0,0,0-5.182,2.241,7.252,7.252,0,0,0-5.185-2.241c-4.248,0-7.694,3.85-7.694,8.6A9.1,9.1,0,0,0,49.6,33.83l.033.022c.262.184.262.184,9.285,6.765,9.021-6.581,9.021-6.581,9.283-6.765l.02-.011.014-.011h0L69.3,33a8.878,8.878,0,0,0,2.5-6.42" transform="translate(913.921 -5.201)" fill="#f7e1e4"/>
    <path id="パス_9781" data-name="パス 9781" d="M30.2-.646A8.874,8.874,0,0,1,35.9,1.466,8.874,8.874,0,0,1,41.61-.646a8.986,8.986,0,0,1,6.739,3.108,10.993,10.993,0,0,1,2.737,7.362c0,3.509-1.615,6.668-3.136,7.86l-.494.387-.11.087.02.057-.692.461c-.266.188-.619.446-10.182,7.42l-.589.43-.589-.43c-9.563-6.974-9.916-7.232-10.182-7.42l-1.105-.663.147-.147a11.12,11.12,0,0,1-2.262-3.021,10.939,10.939,0,0,1-1.192-5.02,10.993,10.993,0,0,1,2.737-7.362A8.986,8.986,0,0,1,30.2-.646Zm5.707,4.9-.713-.726A6.992,6.992,0,0,0,30.2,1.354c-4.122,0-7.476,3.8-7.476,8.47A8.989,8.989,0,0,0,26.229,17l.028.02c.289.2.294.208,9.646,7.029,9.352-6.821,9.358-6.824,9.646-7.029L45.587,17l.007-.006,1.122-.88c.956-.749,2.37-3.265,2.37-6.286,0-4.67-3.353-8.47-7.475-8.47a6.992,6.992,0,0,0-4.994,2.172Z" transform="translate(-50.086 710.8)" fill="#f7e1e4"/>
    <path id="パス_9782" data-name="パス 9782" d="M28.38-.646a7.169,7.169,0,0,1,4.485,1.6,7.169,7.169,0,0,1,4.485-1.6c4.224,0,7.66,3.787,7.66,8.441a8.675,8.675,0,0,1-2.546,6.345l-.355.278.02.057-.683.455c-.208.147-.555.4-7.992,5.824l-.589.43-.589-.43c-7.434-5.422-7.784-5.677-7.992-5.824l-1.1-.66.157-.156a8.934,8.934,0,0,1-1.661-2.277A8.808,8.808,0,0,1,20.72,7.8C20.72,3.141,24.156-.646,28.38-.646Zm4.485,4.369L32.152,3A5.282,5.282,0,0,0,28.38,1.354c-3.121,0-5.66,2.89-5.66,6.441a6.853,6.853,0,0,0,2.671,5.469l.017.012c.227.16.233.165,7.457,5.433,7.224-5.268,7.23-5.272,7.457-5.433l.031-.022.877-.688A6.832,6.832,0,0,0,43.01,7.8c0-3.552-2.539-6.441-5.66-6.441A5.282,5.282,0,0,0,33.579,3Z" transform="translate(457.455 22.426)" fill="#f7e1e4"/>
    <path id="パス_9783" data-name="パス 9783" d="M86.069,31.343c0-7.383-5.355-13.366-11.962-13.366a11.262,11.262,0,0,0-8.054,3.483,11.271,11.271,0,0,0-8.059-3.483c-6.6,0-11.958,5.983-11.958,13.366a14.147,14.147,0,0,0,5.533,11.273l.052.035c.407.286.407.286,14.432,10.515,14.02-10.229,14.02-10.229,14.428-10.515l.03-.017.022-.017h0l1.655-1.3c1.651-1.291,3.882-5.238,3.882-9.978" transform="translate(559.921 -35.39)" fill="#f7e1e4"/>
    <path id="パス_9784" data-name="パス 9784" d="M29.771-.646a8.475,8.475,0,0,1,5.421,1.991A8.475,8.475,0,0,1,40.614-.646a8.585,8.585,0,0,1,6.438,2.969,10.493,10.493,0,0,1,2.613,7.027c0,3.349-1.544,6.366-3,7.505l-.469.367-.078.061.02.057-.69.46c-.252.179-.607.437-9.669,7.046l-.589.43-.589-.43c-9.065-6.611-9.417-6.868-9.669-7.047l-1.1-.662.149-.149a10.607,10.607,0,0,1-2.122-2.848A10.441,10.441,0,0,1,20.72,9.349a10.493,10.493,0,0,1,2.613-7.027A8.585,8.585,0,0,1,29.771-.646Zm5.421,4.775L34.479,3.4a6.592,6.592,0,0,0-4.708-2.048c-3.888,0-7.051,3.587-7.051,8a8.489,8.489,0,0,0,3.313,6.778l.025.018c.274.194.28.2,9.134,6.655,8.854-6.457,8.86-6.461,9.134-6.655l.036-.025,0,0,1.066-.836a8.363,8.363,0,0,0,2.232-5.932c0-4.409-3.163-8-7.051-8A6.592,6.592,0,0,0,35.906,3.4Z" transform="translate(-89.87 348.551)" fill="#f7e1e4"/>
  </g>
</svg>
