<svg xmlns="http://www.w3.org/2000/svg" width="355.776" height="395.836" viewBox="0 0 355.776 395.836">
  <g id="グループ_3651" data-name="グループ 3651" transform="translate(26.503 6.255)">
    <path id="パス_9768" data-name="パス 9768" d="M66.168,24.7c0-3.713-2.693-6.722-6.016-6.722a5.663,5.663,0,0,0-4.05,1.752,5.668,5.668,0,0,0-4.053-1.752c-3.32,0-6.013,3.009-6.013,6.722a7.114,7.114,0,0,0,2.782,5.669l.026.017c.2.144.2.144,7.257,5.288,7.051-5.144,7.051-5.144,7.255-5.288l.015-.009.011-.009h0l.832-.651A6.939,6.939,0,0,0,66.168,24.7" transform="translate(-61.763 286.19)" fill="#f7e1e4"/>
    <path id="パス_9770" data-name="パス 9770" d="M24.16,20.549c0-4.453-3.231-8.066-7.218-8.066a6.793,6.793,0,0,0-4.861,2.1,6.8,6.8,0,0,0-4.861-2.1C3.233,12.483,0,16.1,0,20.549a8.537,8.537,0,0,0,3.342,6.8l0,0,.033.02c.246.174.246.174,8.709,6.345,8.462-6.17,8.462-6.17,8.709-6.345l.015-.011.015-.011h0l1-.78a8.327,8.327,0,0,0,2.344-6.022" transform="translate(-26.503 20.276)" fill="#f7e1e4"/>
    <path id="パス_9771" data-name="パス 9771" d="M30.736-.646a9.4,9.4,0,0,1,6.329,2.5,9.4,9.4,0,0,1,6.329-2.5,9.112,9.112,0,0,1,3.923.885,10,10,0,0,1,3.184,2.4,11.7,11.7,0,0,1,2.91,7.836,13.01,13.01,0,0,1-1.09,5.184,8.387,8.387,0,0,1-2.2,3.144l-.548.43-.4.313.013.036-.446.3c-.3.214-.521.373-11.312,8.243l-.363.265L36.7,28.12c-10.792-7.87-11.01-8.029-11.312-8.243l-.7-.421.082-.082a11.891,11.891,0,0,1-2.782-3.557,11.644,11.644,0,0,1-1.268-5.344,11.7,11.7,0,0,1,2.91-7.836,10,10,0,0,1,3.184-2.4A9.112,9.112,0,0,1,30.736-.646Zm6.329,4.238-.44-.448A8.242,8.242,0,0,0,30.736.587c-4.843,0-8.782,4.434-8.782,9.885a10.453,10.453,0,0,0,4.1,8.365l.009.006.019.013c.32.227.324.229,10.982,8,10.658-7.773,10.662-7.775,10.982-8l.019-.013.019-.011.033-.026.155-.122.54-.424.548-.43a7.278,7.278,0,0,0,1.83-2.67,11.766,11.766,0,0,0,.986-4.689c0-5.451-3.94-9.885-8.782-9.885a8.242,8.242,0,0,0-5.889,2.556Z" transform="translate(-18.032 -5.609)" fill="#f7e1e4"/>
    <path id="パス_9772" data-name="パス 9772" d="M30.736-.646a9.4,9.4,0,0,1,6.329,2.5,9.4,9.4,0,0,1,6.329-2.5,9.112,9.112,0,0,1,3.923.885,10,10,0,0,1,3.184,2.4,11.7,11.7,0,0,1,2.91,7.836,13.01,13.01,0,0,1-1.09,5.184,8.387,8.387,0,0,1-2.2,3.144l-.548.43-.4.313.013.036-.446.3c-.3.214-.521.373-11.312,8.243l-.363.265L36.7,28.12c-10.792-7.87-11.01-8.029-11.312-8.243l-.7-.421.082-.082a11.891,11.891,0,0,1-2.782-3.557,11.644,11.644,0,0,1-1.268-5.344,11.7,11.7,0,0,1,2.91-7.836,10,10,0,0,1,3.184-2.4A9.112,9.112,0,0,1,30.736-.646Zm6.329,4.238-.44-.448A8.242,8.242,0,0,0,30.736.587c-4.843,0-8.782,4.434-8.782,9.885a10.453,10.453,0,0,0,4.1,8.365l.009.006.019.013c.32.227.324.229,10.982,8,10.658-7.773,10.662-7.775,10.982-8l.019-.013.019-.011.033-.026.155-.122.54-.424.548-.43a7.278,7.278,0,0,0,1.83-2.67,11.766,11.766,0,0,0,.986-4.689c0-5.451-3.94-9.885-8.782-9.885a8.242,8.242,0,0,0-5.889,2.556Z" transform="translate(270.475 313.845)" fill="#f7e1e4"/>
    <path id="パス_9775" data-name="パス 9775" d="M30.508,68.089c0-4.455-3.231-8.065-7.218-8.065a6.8,6.8,0,0,0-4.86,2.1,6.8,6.8,0,0,0-4.863-2.1c-3.984,0-7.216,3.611-7.216,8.065a8.537,8.537,0,0,0,3.339,6.8l.031.021c.246.173.246.173,8.709,6.345,8.46-6.173,8.46-6.173,8.706-6.345l.018-.01.013-.01h0l1-.782a8.327,8.327,0,0,0,2.343-6.021" transform="translate(-3.663 308.323)" fill="#f7e1e4"/>
    <path id="パス_9776" data-name="パス 9776" d="M27.511-.646A6.363,6.363,0,0,1,31.668.927,6.363,6.363,0,0,1,35.826-.646,6.435,6.435,0,0,1,40.651,1.58a7.9,7.9,0,0,1,1.965,5.288,7.709,7.709,0,0,1-2.241,5.638l-.364.285-.139.109.012.035-.431.287c-.195.138-.413.3-7.422,5.408l-.363.265-.363-.265c-7.009-5.111-7.227-5.27-7.422-5.408l-.687-.413.088-.088a8,8,0,0,1-1.708-2.248,7.858,7.858,0,0,1-.856-3.606A7.9,7.9,0,0,1,22.685,1.58,6.435,6.435,0,0,1,27.511-.646Zm4.157,3.3-.44-.448A5.2,5.2,0,0,0,27.511.587c-3.064,0-5.557,2.818-5.557,6.281a6.658,6.658,0,0,0,2.6,5.32h0l.019.013c.21.149.214.152,7.091,5.167,6.877-5.016,6.881-5.018,7.092-5.167l.027-.018.01-.008.1-.08.352-.276.364-.285a6.577,6.577,0,0,0,1.769-4.667c0-3.464-2.493-6.281-5.557-6.281A5.2,5.2,0,0,0,32.108,2.2Z" transform="translate(269.515 44.022)" fill="#f7e1e4"/>
    <path id="パス_9777" data-name="パス 9777" d="M61.921,23.281a5.048,5.048,0,0,0-4.747-5.3,4.469,4.469,0,0,0-3.2,1.382,4.473,4.473,0,0,0-3.2-1.382,5.048,5.048,0,0,0-4.745,5.3,5.614,5.614,0,0,0,2.2,4.473l.021.014c.162.113.162.113,5.727,4.172,5.563-4.059,5.563-4.059,5.725-4.172l.012-.007.009-.007h0l.657-.514a5.476,5.476,0,0,0,1.54-3.959" transform="translate(212.998 218.451)" fill="#f7e1e4"/>
    <path id="パス_9780" data-name="パス 9780" d="M61.921,23.281a5.048,5.048,0,0,0-4.747-5.3,4.469,4.469,0,0,0-3.2,1.382,4.473,4.473,0,0,0-3.2-1.382,5.048,5.048,0,0,0-4.745,5.3,5.614,5.614,0,0,0,2.2,4.473l.021.014c.162.113.162.113,5.727,4.172,5.563-4.059,5.563-4.059,5.725-4.172l.012-.007.009-.007h0l.657-.514a5.476,5.476,0,0,0,1.54-3.959" transform="translate(236.256 -9.164)" fill="#f7e1e4"/>
    <path id="パス_9781" data-name="パス 9781" d="M26.564-.646a5.473,5.473,0,0,1,3.52,1.3,5.473,5.473,0,0,1,3.52-1.3A5.542,5.542,0,0,1,37.76,1.271a6.78,6.78,0,0,1,1.688,4.54,6.628,6.628,0,0,1-1.934,4.847l-.3.239-.068.053.012.035-.427.284c-.164.116-.382.275-6.279,4.576l-.363.265-.363-.265c-5.9-4.3-6.116-4.46-6.279-4.576l-.682-.409.091-.091a6.858,6.858,0,0,1-1.4-1.863,6.747,6.747,0,0,1-.735-3.1,6.78,6.78,0,0,1,1.688-4.54A5.542,5.542,0,0,1,26.564-.646Zm3.52,3.021-.44-.448a4.312,4.312,0,0,0-3.08-1.34c-2.542,0-4.61,2.343-4.61,5.224a5.544,5.544,0,0,0,2.164,4.427l.017.012c.178.126.181.128,5.949,4.335,5.768-4.207,5.771-4.209,5.949-4.335l.023-.016,0,0,.692-.543a5.465,5.465,0,0,0,1.461-3.877c0-2.88-2.068-5.224-4.61-5.224a4.312,4.312,0,0,0-3.08,1.34Z" transform="translate(12.069 350.236)" fill="#f7e1e4"/>
    <path id="パス_9784" data-name="パス 9784" d="M64.113,24.012c0-3.334-2.418-6.035-5.4-6.035a5.085,5.085,0,0,0-3.637,1.573,5.09,5.09,0,0,0-3.639-1.573c-2.981,0-5.4,2.7-5.4,6.035a6.388,6.388,0,0,0,2.5,5.09l.023.016c.184.129.184.129,6.517,4.748,6.331-4.619,6.331-4.619,6.515-4.748l.014-.008.01-.008h0l.747-.585a6.231,6.231,0,0,0,1.753-4.505" transform="translate(226.122 334.481)" fill="#f7e1e4"/>
    <path id="パス_9785" data-name="パス 9785" d="M57.464,21.792a3.632,3.632,0,0,0-3.415-3.816,3.215,3.215,0,0,0-2.3.994,3.218,3.218,0,0,0-2.3-.994,3.631,3.631,0,0,0-3.414,3.816,4.038,4.038,0,0,0,1.579,3.218l.015.01c.116.082.116.082,4.12,3,4-2.92,4-2.92,4.119-3l.009,0,.006,0h0l.472-.37a3.939,3.939,0,0,0,1.108-2.848" transform="translate(271.809 14.781)" fill="#f7e1e4"/>
  </g>
</svg>
