<svg xmlns="http://www.w3.org/2000/svg" width="166.306" height="41.151" viewBox="0 0 166.306 41.151">
  <g id="グループ_3935" data-name="グループ 3935" transform="translate(72.401 -41.547)">
    <path id="パス_10101" data-name="パス 10101" d="M1.6.117C3.393,0,4.875-.039,6.084-.039c.9,0,2.418.078,4.641.2v-1.6C7.722-1.6,7.137-3.159,7.137-7.1V-20.124L15.483.078h1.833l8-19.7V-5.3c0,2.808-.2,3.549-3.51,3.861V.117C24.258,0,26.247-.039,27.807-.039c1.911,0,4.329.078,7.293.2V-1.4c-3.12-.117-3.861-.9-3.861-3.471V-20.787c0-2.925.546-3.861,3.861-3.9v-1.521c-2.145.078-4.056.156-5.811.156q-1.814,0-3.627-.117L18.447-8.034,10.8-26.169c-1.833.078-3.627.117-5.421.117-1.4,0-2.652,0-3.783-.117v1.443c1.677.078,2.808.429,3.471,1.287V-7.1C5.07-3.12,4.6-1.56,1.6-1.482Zm54.171-4.6A10.533,10.533,0,0,1,53.9-2.691a5.164,5.164,0,0,1-2.847.819c-3.276,0-5.148-2.3-5.148-6.669,0-.234.039-.507.039-.78H57.408v-.312c0-5.109-2.886-7.995-7.761-7.995-5.811,0-9.672,3.861-9.672,9.243C39.975-3.159,43.8.546,49.3.546a8.8,8.8,0,0,0,7.8-3.861Zm-9.828-6.669c.273-3.237,1.365-4.836,3.432-4.836,1.911,0,2.964,1.521,2.964,4.368v.468ZM62.556.312h1.482l.585-1.482A7.186,7.186,0,0,0,69.81.546c4.017,0,6.552-2.34,6.552-5.694,0-2.925-1.794-4.719-5.577-6.006C68.055-12.09,66.5-12.285,66.5-14c0-1.131,1.014-1.989,2.574-1.989a5.415,5.415,0,0,1,4.914,3.7h1.482c-.039-.975-.039-1.833-.039-2.613,0-.819,0-1.638.039-2.535H73.983l-.741,1.287a7.218,7.218,0,0,0-4.6-1.482c-3.588,0-5.811,2.262-5.811,5.616s2.067,4.368,6.123,5.85c2.106.78,3.354,1.248,3.354,2.808,0,1.209-1.209,2.223-2.925,2.223A5.845,5.845,0,0,1,63.96-5.5h-1.4c.078,1.17.078,2.145.078,2.925C62.634-1.833,62.634-.858,62.556.312Zm19.422,0H83.46l.585-1.482A7.186,7.186,0,0,0,89.232.546c4.017,0,6.552-2.34,6.552-5.694,0-2.925-1.794-4.719-5.577-6.006-2.73-.936-4.29-1.131-4.29-2.847,0-1.131,1.014-1.989,2.574-1.989a5.415,5.415,0,0,1,4.914,3.7h1.482c-.039-.975-.039-1.833-.039-2.613,0-.819,0-1.638.039-2.535H93.405l-.741,1.287a7.218,7.218,0,0,0-4.6-1.482c-3.588,0-5.811,2.262-5.811,5.616s2.067,4.368,6.123,5.85c2.106.78,3.354,1.248,3.354,2.808,0,1.209-1.209,2.223-2.925,2.223A5.845,5.845,0,0,1,83.382-5.5h-1.4c.078,1.17.078,2.145.078,2.925C82.056-1.833,82.056-.858,81.978.312ZM110.643-1.95a3.259,3.259,0,0,0,3.588,2.5,5.824,5.824,0,0,0,4.524-2.3l-.819-1.053a2.831,2.831,0,0,1-1.287.585c-.507,0-.7-.312-.7-1.092v-9.2c0-3.393-2.5-5.07-7.41-5.07-4.68,0-7.293,1.56-7.293,3.744a2.11,2.11,0,0,0,2.184,2.184c1.833,0,2.145-1.482,2.769-2.847a2.6,2.6,0,0,1,2.418-1.56c1.4,0,2.184.819,2.184,2.418v1.326A1.238,1.238,0,0,1,109.824-11l-2.769,1.014c-4.446,1.677-6.474,3.042-6.474,6.123A4.149,4.149,0,0,0,105.105.546,8.13,8.13,0,0,0,110.643-1.95ZM110.6-5.265a2.651,2.651,0,0,1-2.691,2.613c-1.092,0-1.872-.9-1.872-2.379,0-2.223,1.443-3.549,4.563-4.524Zm16.458-.624c-2.34.663-3.627,2.223-3.627,4.251a3.815,3.815,0,0,0,2.613,3.705c1.56.546,3.783.585,6.786.585,2.769,0,4.134.9,4.134,2.652,0,2.145-2.3,3.783-5.85,3.783-3.354,0-5.187-1.209-5.187-3.042a1.616,1.616,0,0,1,1.209-1.56,2.119,2.119,0,0,0-2.028-1.209,2.7,2.7,0,0,0-2.5,2.886c0,2.73,2.886,4.6,8.229,4.6,6.4,0,9.789-2.457,9.789-6.825,0-4.563-2.886-5.928-9.165-6.084-2.847-.078-4.134.117-4.134-1.4,0-1.17,1.131-1.521,3.081-1.677,5.538-.39,8.112-2.028,8.112-6.123a5.575,5.575,0,0,0-1.4-3.822,1.746,1.746,0,0,1,.9-.39c1.014,0,1.521,1.443,2.574,1.443a1.549,1.549,0,0,0,1.716-1.482c0-1.56-.819-2.379-2.5-2.379a5.82,5.82,0,0,0-3.783,1.716,9.458,9.458,0,0,0-5.07-1.326c-4.719,0-7.683,2.652-7.683,6.24A5.5,5.5,0,0,0,127.062-5.889Zm1.482-5.577c0-3.12.663-4.719,2.418-4.719,1.833,0,2.3,1.638,2.3,4.8,0,3.12-.312,4.563-2.418,4.563C129.012-6.825,128.544-8.346,128.544-11.466Zm33.384,6.981a10.533,10.533,0,0,1-1.872,1.794,5.164,5.164,0,0,1-2.847.819c-3.276,0-5.148-2.3-5.148-6.669,0-.234.039-.507.039-.78h11.466v-.312c0-5.109-2.886-7.995-7.761-7.995-5.811,0-9.672,3.861-9.672,9.243,0,5.226,3.822,8.931,9.321,8.931a8.8,8.8,0,0,0,7.8-3.861ZM152.1-11.154c.273-3.237,1.365-4.836,3.432-4.836,1.911,0,2.964,1.521,2.964,4.368v.468Z" transform="translate(-72 69.934)" fill="#fff" stroke="#e8aeb8" stroke-width="4"/>
    <path id="パス_10100" data-name="パス 10100" d="M1.6.117C3.393,0,4.875-.039,6.084-.039c.9,0,2.418.078,4.641.2v-1.6C7.722-1.6,7.137-3.159,7.137-7.1V-20.124L15.483.078h1.833l8-19.7V-5.3c0,2.808-.2,3.549-3.51,3.861V.117C24.258,0,26.247-.039,27.807-.039c1.911,0,4.329.078,7.293.2V-1.4c-3.12-.117-3.861-.9-3.861-3.471V-20.787c0-2.925.546-3.861,3.861-3.9v-1.521c-2.145.078-4.056.156-5.811.156q-1.814,0-3.627-.117L18.447-8.034,10.8-26.169c-1.833.078-3.627.117-5.421.117-1.4,0-2.652,0-3.783-.117v1.443c1.677.078,2.808.429,3.471,1.287V-7.1C5.07-3.12,4.6-1.56,1.6-1.482Zm54.171-4.6A10.533,10.533,0,0,1,53.9-2.691a5.164,5.164,0,0,1-2.847.819c-3.276,0-5.148-2.3-5.148-6.669,0-.234.039-.507.039-.78H57.408v-.312c0-5.109-2.886-7.995-7.761-7.995-5.811,0-9.672,3.861-9.672,9.243C39.975-3.159,43.8.546,49.3.546a8.8,8.8,0,0,0,7.8-3.861Zm-9.828-6.669c.273-3.237,1.365-4.836,3.432-4.836,1.911,0,2.964,1.521,2.964,4.368v.468ZM62.556.312h1.482l.585-1.482A7.186,7.186,0,0,0,69.81.546c4.017,0,6.552-2.34,6.552-5.694,0-2.925-1.794-4.719-5.577-6.006C68.055-12.09,66.5-12.285,66.5-14c0-1.131,1.014-1.989,2.574-1.989a5.415,5.415,0,0,1,4.914,3.7h1.482c-.039-.975-.039-1.833-.039-2.613,0-.819,0-1.638.039-2.535H73.983l-.741,1.287a7.218,7.218,0,0,0-4.6-1.482c-3.588,0-5.811,2.262-5.811,5.616s2.067,4.368,6.123,5.85c2.106.78,3.354,1.248,3.354,2.808,0,1.209-1.209,2.223-2.925,2.223A5.845,5.845,0,0,1,63.96-5.5h-1.4c.078,1.17.078,2.145.078,2.925C62.634-1.833,62.634-.858,62.556.312Zm19.422,0H83.46l.585-1.482A7.186,7.186,0,0,0,89.232.546c4.017,0,6.552-2.34,6.552-5.694,0-2.925-1.794-4.719-5.577-6.006-2.73-.936-4.29-1.131-4.29-2.847,0-1.131,1.014-1.989,2.574-1.989a5.415,5.415,0,0,1,4.914,3.7h1.482c-.039-.975-.039-1.833-.039-2.613,0-.819,0-1.638.039-2.535H93.405l-.741,1.287a7.218,7.218,0,0,0-4.6-1.482c-3.588,0-5.811,2.262-5.811,5.616s2.067,4.368,6.123,5.85c2.106.78,3.354,1.248,3.354,2.808,0,1.209-1.209,2.223-2.925,2.223A5.845,5.845,0,0,1,83.382-5.5h-1.4c.078,1.17.078,2.145.078,2.925C82.056-1.833,82.056-.858,81.978.312ZM110.643-1.95a3.259,3.259,0,0,0,3.588,2.5,5.824,5.824,0,0,0,4.524-2.3l-.819-1.053a2.831,2.831,0,0,1-1.287.585c-.507,0-.7-.312-.7-1.092v-9.2c0-3.393-2.5-5.07-7.41-5.07-4.68,0-7.293,1.56-7.293,3.744a2.11,2.11,0,0,0,2.184,2.184c1.833,0,2.145-1.482,2.769-2.847a2.6,2.6,0,0,1,2.418-1.56c1.4,0,2.184.819,2.184,2.418v1.326A1.238,1.238,0,0,1,109.824-11l-2.769,1.014c-4.446,1.677-6.474,3.042-6.474,6.123A4.149,4.149,0,0,0,105.105.546,8.13,8.13,0,0,0,110.643-1.95ZM110.6-5.265a2.651,2.651,0,0,1-2.691,2.613c-1.092,0-1.872-.9-1.872-2.379,0-2.223,1.443-3.549,4.563-4.524Zm16.458-.624c-2.34.663-3.627,2.223-3.627,4.251a3.815,3.815,0,0,0,2.613,3.705c1.56.546,3.783.585,6.786.585,2.769,0,4.134.9,4.134,2.652,0,2.145-2.3,3.783-5.85,3.783-3.354,0-5.187-1.209-5.187-3.042a1.616,1.616,0,0,1,1.209-1.56,2.119,2.119,0,0,0-2.028-1.209,2.7,2.7,0,0,0-2.5,2.886c0,2.73,2.886,4.6,8.229,4.6,6.4,0,9.789-2.457,9.789-6.825,0-4.563-2.886-5.928-9.165-6.084-2.847-.078-4.134.117-4.134-1.4,0-1.17,1.131-1.521,3.081-1.677,5.538-.39,8.112-2.028,8.112-6.123a5.575,5.575,0,0,0-1.4-3.822,1.746,1.746,0,0,1,.9-.39c1.014,0,1.521,1.443,2.574,1.443a1.549,1.549,0,0,0,1.716-1.482c0-1.56-.819-2.379-2.5-2.379a5.82,5.82,0,0,0-3.783,1.716,9.458,9.458,0,0,0-5.07-1.326c-4.719,0-7.683,2.652-7.683,6.24A5.5,5.5,0,0,0,127.062-5.889Zm1.482-5.577c0-3.12.663-4.719,2.418-4.719,1.833,0,2.3,1.638,2.3,4.8,0,3.12-.312,4.563-2.418,4.563C129.012-6.825,128.544-8.346,128.544-11.466Zm33.384,6.981a10.533,10.533,0,0,1-1.872,1.794,5.164,5.164,0,0,1-2.847.819c-3.276,0-5.148-2.3-5.148-6.669,0-.234.039-.507.039-.78h11.466v-.312c0-5.109-2.886-7.995-7.761-7.995-5.811,0-9.672,3.861-9.672,9.243,0,5.226,3.822,8.931,9.321,8.931a8.8,8.8,0,0,0,7.8-3.861ZM152.1-11.154c.273-3.237,1.365-4.836,3.432-4.836,1.911,0,2.964,1.521,2.964,4.368v.468Z" transform="translate(-72 69.934)" fill="#fff"/>
  </g>
</svg>
