<svg xmlns="http://www.w3.org/2000/svg" width="104.84" height="32.93" viewBox="0 0 104.84 32.93">
  <g id="グループ_3699" data-name="グループ 3699" transform="translate(-0.669 -32.339)">
    <g id="パス_9930" data-name="パス 9930" transform="translate(1.249 55.179)" fill="#e18c9f">
      <path d="M 95.26999664306641 9.244826316833496 L 94.42642211914062 9.198813438415527 C 92.53961181640625 9.095892906188965 91.20220947265625 9.050000190734863 90.08999633789062 9.050000190734863 C 89.50448608398438 9.050000190734863 88.19190216064453 9.104720115661621 86.20506286621094 9.187560081481934 L 85.92330169677734 9.199306488037109 L 85.08999633789062 9.234026908874512 L 85.08999633789062 8.399999618530273 L 85.08999633789062 7.349999904632568 L 85.08999633789062 6.612893104553223 L 85.82463836669922 6.552680015563965 C 86.09847259521484 6.530226707458496 86.93180847167969 6.461919784545898 87.14474487304688 6.266119956970215 C 87.25439453125 6.165293216705322 87.30999755859375 5.83350658416748 87.30999755859375 5.279999732971191 L 87.30999755859375 -8.220000267028809 C 87.30999755859375 -9.073746681213379 87.29322052001953 -9.938773155212402 87.09272003173828 -10.31505298614502 C 87.03407287597656 -10.42512035369873 86.92490386962891 -10.63000011444092 86.06999969482422 -10.63000011444092 L 85.26999664306641 -10.63000011444092 L 85.26999664306641 -11.43000030517578 L 85.26999664306641 -12.60000038146973 L 85.26999664306641 -13.3416805267334 L 86.00956726074219 -13.39772033691406 C 87.96474456787109 -13.5458402633667 89.63465118408203 -13.83921337127686 91.11473083496094 -14.29462718963623 L 91.22970581054688 -14.32999992370605 L 91.34999847412109 -14.32999992370605 L 91.91999816894531 -14.32999992370605 L 92.71999359130859 -14.32999992370605 L 92.71999359130859 -13.52999973297119 L 92.71999359130859 -12.95179653167725 C 93.86373901367188 -13.88578128814697 95.09927368164062 -14.32999992370605 96.50999450683594 -14.32999992370605 C 98.45107269287109 -14.32999992370605 100.2227554321289 -13.54098701477051 101.4986801147461 -12.10830688476562 C 102.7634506225586 -10.68811988830566 103.4599990844727 -8.710599899291992 103.4599990844727 -6.539999961853027 C 103.4599990844727 -4.367480278015137 102.7482223510742 -2.387813329696655 101.4557800292969 -0.9657067656517029 C 100.1572494506836 0.4631199240684509 98.35818481445312 1.24999988079071 96.38999938964844 1.24999988079071 C 95.14891052246094 1.24999988079071 94.04840850830078 0.947543203830719 92.95999908447266 0.2902719974517822 L 92.95999908447266 5.039999961853027 C 92.95999908447266 5.485173225402832 92.97911834716797 6.096573352813721 93.14450073242188 6.265706539154053 C 93.35497283935547 6.480959892272949 94.23063659667969 6.534026622772217 94.51839447021484 6.551466464996338 L 95.26999664306641 6.597013473510742 L 95.26999664306641 7.349999904632568 L 95.26999664306641 8.399999618530273 L 95.26999664306641 9.244826316833496 Z M 95.09999847412109 -10.56999969482422 C 93.77999877929688 -10.56999969482422 92.95999908447266 -9.485613822937012 92.95999908447266 -7.740000247955322 L 92.95999908447266 -4.680000305175781 C 92.95999908447266 -2.546720027923584 94.06147766113281 -2.300000190734863 94.88999938964844 -2.300000190734863 C 96.126220703125 -2.300000190734863 97.38999938964844 -2.810880184173584 97.38999938964844 -6.599999904632568 C 97.38999938964844 -9.234292984008789 96.61952972412109 -10.56999969482422 95.09999847412109 -10.56999969482422 Z M 58.49999618530273 1.21999990940094 C 56.25032806396484 1.21999990940094 54.21690368652344 0.456159919500351 52.77428817749023 -0.9308000802993774 C 51.3270378112793 -2.322226762771606 50.52999496459961 -4.282320022583008 50.52999496459961 -6.450000286102295 C 50.52999496459961 -8.686039924621582 51.34228897094727 -10.70402717590332 52.8172492980957 -12.13222694396973 C 54.32238388061523 -13.58965301513672 56.38080978393555 -14.35999965667725 58.76999664306641 -14.35999965667725 C 60.83787536621094 -14.35999965667725 62.5540771484375 -13.7231330871582 63.73305130004883 -12.51825332641602 C 64.91516876220703 -11.31015968322754 65.53999328613281 -9.543746948242188 65.53999328613281 -7.409999847412109 L 65.53999328613281 -7.170000076293945 L 65.53999328613281 -6.369999885559082 L 64.73999786376953 -6.369999885559082 L 56.69175338745117 -6.369999885559082 C 56.74052810668945 -3.629364013671875 57.80244064331055 -2.240000009536743 59.84999465942383 -2.240000009536743 C 60.49777603149414 -2.240000009536743 61.07138442993164 -2.403675317764282 61.60325622558594 -2.740344047546387 C 61.82444381713867 -2.889219760894775 62.22335052490234 -3.224040269851685 62.87631607055664 -3.974946737289429 L 63.40506362915039 -4.583013534545898 L 64.00929260253906 -4.049866676330566 L 65.02928924560547 -3.149866819381714 L 65.56046295166016 -2.681186676025391 L 65.15951538085938 -2.097200155258179 C 64.39676666259766 -0.9862400889396667 63.44342422485352 -0.1439067423343658 62.32594299316406 0.4064399302005768 C 61.22978210449219 0.9462799429893494 59.94254302978516 1.21999990940094 58.49999618530273 1.21999990940094 Z M 56.82712173461914 -9.380000114440918 L 60.02699279785156 -9.380000114440918 C 59.98402786254883 -10.07985496520996 59.83525085449219 -10.63142395019531 59.59035491943359 -10.99044036865234 C 59.35322189331055 -11.33808040618896 59.02582168579102 -11.5 58.55999755859375 -11.5 C 58.13537216186523 -11.5 57.20250701904297 -11.49990177154541 56.82712173461914 -9.380000114440918 Z M 72.92999267578125 1.189999938011169 C 71.29803466796875 1.189999938011169 70.10338592529297 0.7659732699394226 69.27774047851562 -0.1063067466020584 C 68.47178649902344 -0.9578000903129578 68.07999420166016 -2.179106712341309 68.07999420166016 -3.840000152587891 L 68.07999420166016 -9.75 C 68.07999420166016 -10.21946716308594 68.07999420166016 -10.92891979217529 67.94138336181641 -11.15697383880615 C 67.84442138671875 -11.31646633148193 67.35206604003906 -11.36588001251221 67.06719970703125 -11.38114643096924 L 66.30999755859375 -11.42170715332031 L 66.30999755859375 -12.18000030517578 L 66.30999755859375 -13.19999980926514 L 66.30999755859375 -13.98117351531982 L 67.09095764160156 -13.9997730255127 C 68.29821014404297 -14.02851963043213 69.37298583984375 -14.03669357299805 70.32123565673828 -14.04392051696777 C 71.34642028808594 -14.05171966552734 72.2318115234375 -14.05846691131592 72.95598602294922 -14.089280128479 L 73.78999328613281 -14.12475967407227 L 73.78999328613281 -13.28999996185303 L 73.78999328613281 -4.170000076293945 C 73.78999328613281 -2.630000114440918 74.31597137451172 -2.630000114440918 74.70001220703125 -2.630000114440918 C 75.43551635742188 -2.630000114440918 75.91359710693359 -2.878573417663574 76.25014495849609 -3.436000108718872 C 76.64154052734375 -4.084239959716797 76.83999633789062 -5.148773193359375 76.83999633789062 -6.599999904632568 L 76.83999633789062 -9.930000305175781 C 76.83999633789062 -10.19299983978271 76.83999633789062 -10.99333381652832 76.68125152587891 -11.20499992370605 C 76.64501190185547 -11.25331974029541 76.48609924316406 -11.36710643768311 75.79490661621094 -11.38014698028564 L 75.00999450683594 -11.39494705200195 L 75.00999450683594 -12.18000030517578 L 75.00999450683594 -13.19999980926514 L 75.00999450683594 -13.97461318969727 L 75.78421020507812 -13.999587059021 C 76.73462677001953 -14.03024005889893 77.69972991943359 -14.03752040863037 78.72150421142578 -14.04522705078125 C 79.70047760009766 -14.05261325836182 80.71278381347656 -14.06025314331055 81.75747680664062 -14.08967971801758 L 82.57999420166016 -14.11285305023193 L 82.57999420166016 -13.28999996185303 L 82.57999420166016 -3.090000152587891 C 82.57999420166016 -2.839904308319092 82.60906982421875 -2.733695030212402 82.62239074707031 -2.698169946670532 C 82.66713714599609 -2.678350687026978 82.82037353515625 -2.630000114440918 83.25 -2.630000114440918 L 83.60999298095703 -2.630000114440918 L 84.40999603271484 -2.630000114440918 L 84.40999603271484 -1.830000042915344 L 84.40999603271484 -0.7800000905990601 L 84.40999603271484 -0.06396007537841797 L 83.69834136962891 0.01510659046471119 C 81.96656799316406 0.207519918680191 80.32235717773438 0.5325199365615845 78.67174530029297 1.008653283119202 L 78.56308746337891 1.039999961853027 L 78.45001220703125 1.039999961853027 L 78 1.039999961853027 L 77.27339935302734 1.039999961853027 L 77.20368957519531 0.3167465925216675 L 77.13543701171875 -0.3913412094116211 C 76.76921081542969 -0.08019751310348511 76.37783813476562 0.1888763159513474 75.96321105957031 0.4141732454299927 C 75.01580810546875 0.9289732575416565 73.99529266357422 1.189999938011169 72.92999267578125 1.189999938011169 Z M 0.2199963331222534 0.9337865710258484 L 0.2199963331222534 0.119999922811985 L 0.2199963331222534 -1.140000104904175 L 0.2199963331222534 -1.940000057220459 L 1.019996285438538 -1.940000057220459 L 1.259996294975281 -1.940000057220459 C 2.247209787368774 -1.940000057220459 2.52695631980896 -2.144906759262085 2.651489734649658 -2.299040079116821 C 2.875609636306763 -2.57641339302063 2.9799964427948 -3.161400079727173 2.9799964427948 -4.139999866485596 L 2.9799964427948 -16.55999946594238 C 2.9799964427948 -17.22970581054688 2.881836414337158 -17.64431953430176 2.679903030395508 -17.82754707336426 C 2.455622911453247 -18.03106689453125 1.961729645729065 -18.1299991607666 1.169996380805969 -18.1299991607666 L 1.019996285438538 -18.1299991607666 L 0.2199963331222534 -18.1299991607666 L 0.2199963331222534 -18.93000030517578 L 0.2199963331222534 -20.1299991607666 L 0.2199963331222534 -20.95499992370605 L 1.044596314430237 -20.92962646484375 C 2.977329730987549 -20.87014579772949 4.715222835540771 -20.84000015258789 6.209996223449707 -20.84000015258789 C 7.321982860565186 -20.84000015258789 9.119929313659668 -20.87102699279785 11.40948963165283 -20.92973327636719 L 12.22999668121338 -20.95077323913574 L 12.22999668121338 -20.1299991607666 L 12.22999668121338 -18.93000030517578 L 12.22999668121338 -18.1299991607666 L 11.42999649047852 -18.1299991607666 L 11.24999618530273 -18.1299991607666 C 10.3856897354126 -18.1299991607666 9.860663414001465 -18.02899932861328 9.644916534423828 -17.82123947143555 C 9.443716049194336 -17.62749290466309 9.350009918212891 -17.16953277587891 9.350009918212891 -16.3799991607666 L 9.350009918212891 -5.400000095367432 C 9.350009918212891 -4.034693241119385 9.517250061035156 -3.244199991226196 9.892290115356445 -2.836879968643188 C 10.2723560333252 -2.42408013343811 11.02418327331543 -2.240000009536743 12.33000946044922 -2.240000009536743 C 15.33718299865723 -2.240000009536743 16.77836990356445 -3.355733394622803 17.30440902709961 -6.091080188751221 L 17.42919540405273 -6.740000247955322 L 18.09000968933105 -6.740000247955322 L 19.31999588012695 -6.740000247955322 L 20.13615608215332 -6.740000247955322 L 20.11983680725098 -5.924000263214111 L 19.99983596801758 0.07599992305040359 L 19.98399543762207 0.8678799271583557 L 19.19199562072754 0.8599599003791809 C 16.38148880004883 0.8318532705307007 13.19599628448486 0.7999999523162842 10.01999664306641 0.7999999523162842 C 7.906756401062012 0.7999999523162842 5.430836200714111 0.8432532548904419 2.563969612121582 0.8933466076850891 C 2.065116405487061 0.9020532369613647 1.555022954940796 0.9109732508659363 1.033663034439087 0.9198799133300781 L 0.2199963331222534 0.9337865710258484 Z M 31.44999694824219 0.9280799031257629 L 31.44999694824219 0.08999992161989212 L 31.44999694824219 -0.9900000691413879 L 31.44999694824219 -1.722893357276917 L 32.18008804321289 -1.786933422088623 C 32.97846221923828 -1.85697865486145 33.1954231262207 -1.943809270858765 33.25401306152344 -1.983574986457825 C 33.28055191040039 -2.043330430984497 33.30999755859375 -2.218249797821045 33.30999755859375 -2.700000047683716 L 33.30999755859375 -9.390000343322754 C 33.30999755859375 -10.18222713470459 33.20414352416992 -10.38076019287109 33.15863800048828 -10.42934703826904 C 33.12773132324219 -10.46233367919922 32.97086334228516 -10.56999969482422 32.24999618530273 -10.56999969482422 L 31.44999694824219 -10.56999969482422 L 31.44999694824219 -11.36999988555908 L 31.44999694824219 -12.48000049591064 L 31.44999694824219 -13.22293376922607 L 32.19090270996094 -13.27781295776367 C 33.81108856201172 -13.3978271484375 35.41588973999023 -13.7285737991333 37.09701156616211 -14.28894710540771 L 37.22016906738281 -14.32999992370605 L 37.34999465942383 -14.32999992370605 L 37.8599967956543 -14.32999992370605 L 38.60730361938477 -14.32999992370605 L 38.65814208984375 -13.58441352844238 L 38.71477508544922 -12.75382900238037 C 39.95676803588867 -13.80107879638672 41.36848831176758 -14.32999992370605 42.92999649047852 -14.32999992370605 C 44.56013107299805 -14.32999992370605 45.82463455200195 -13.8387336730957 46.68839645385742 -12.86986637115479 C 47.53216934204102 -11.92341327667236 47.95999526977539 -10.54065322875977 47.95999526977539 -8.760000228881836 L 47.95999526977539 -2.700000047683716 C 47.95999526977539 -2.544622182846069 47.95999908447266 -2.085575342178345 48.01160049438477 -1.945871591567993 C 48.07816696166992 -1.909456253051758 48.29404067993164 -1.838358640670776 48.98802185058594 -1.787893414497375 L 49.72999572753906 -1.733933448791504 L 49.72999572753906 -0.9900000691413879 L 49.72999572753906 0.08999992161989212 L 49.72999572753906 0.9255332350730896 L 48.89524841308594 0.8892399072647095 C 47.5140380859375 0.8291866183280945 46.24970245361328 0.7999999523162842 45.02999496459961 0.7999999523162842 C 43.98601150512695 0.7999999523162842 42.73553085327148 0.8300532698631287 41.31330490112305 0.8893066048622131 L 40.84999465942383 0.9086104035377502 L 40.84999465942383 0.9175732731819153 L 40.73136138916016 0.9135533571243286 L 40.47999572753906 0.9240266084671021 L 40.47999572753906 0.9050357341766357 L 40.02288818359375 0.8895465731620789 C 38.24546432495117 0.8292932510375977 36.89031600952148 0.7999999523162842 35.87999725341797 0.7999999523162842 C 34.7519416809082 0.7999999523162842 33.57671737670898 0.8291599154472351 32.28717041015625 0.8891332745552063 L 31.44999694824219 0.9280799031257629 Z M 41.18999481201172 -10.53999996185303 C 39.88850402832031 -10.53999996185303 39.07999801635742 -9.386640548706055 39.07999801635742 -7.53000020980835 L 39.07999801635742 -2.850000143051147 C 39.07999801635742 -2.199640035629272 39.16579818725586 -2.0081467628479 39.21694183349609 -1.951893448829651 C 39.24832916259766 -1.917373418807983 39.40234375 -1.803666710853577 40.0666618347168 -1.78982675075531 L 40.47999572753906 -1.781215310096741 L 40.47999572753906 -1.790000081062317 L 41.27999496459961 -1.790000081062317 C 41.97402191162109 -1.790000081062317 42.08541107177734 -1.891733407974243 42.08980941772461 -1.896066784858704 C 42.09389114379883 -1.900333404541016 42.18999481201172 -2.008946657180786 42.18999481201172 -2.700000047683716 L 42.18999481201172 -8.760000228881836 C 42.18999481201172 -10.53999996185303 41.51458358764648 -10.53999996185303 41.18999481201172 -10.53999996185303 Z M 20.8599967956543 0.9271866083145142 L 20.8599967956543 0.08999992161989212 L 20.8599967956543 -1.050000071525574 L 20.8599967956543 -1.806786775588989 L 21.61562347412109 -1.84877336025238 C 22.44886016845703 -1.895060062408447 22.64371681213379 -1.98846447467804 22.68667221069336 -2.020710945129395 C 22.70149993896484 -2.048336505889893 22.74999618530273 -2.174405574798584 22.74999618530273 -2.640000104904175 L 22.74999618530273 -9.720000267028809 C 22.74999618530273 -10.40847969055176 22.65245056152344 -10.53439998626709 22.63288879394531 -10.55265331268311 C 22.58964920043945 -10.59301376342773 22.40525054931641 -10.69015979766846 21.62864875793457 -10.72061347961426 L 20.8599967956543 -10.75076007843018 L 20.8599967956543 -11.52000045776367 L 20.8599967956543 -12.56999969482422 L 20.8599967956543 -13.29065322875977 L 21.57672882080078 -13.3656530380249 C 24.03574371337891 -13.6230001449585 25.94418334960938 -13.97205352783203 27.09571647644043 -14.37509346008301 L 27.22403717041016 -14.42000007629395 L 27.3599967956543 -14.42000007629395 L 27.80999565124512 -14.42000007629395 L 28.6099967956543 -14.42000007629395 L 28.6099967956543 -13.61999988555908 L 28.6099967956543 -2.640000104904175 C 28.6099967956543 -2.172447443008423 28.66035079956055 -2.044958829879761 28.67566680908203 -2.017054796218872 C 28.72607040405273 -1.979562044143677 28.92944526672363 -1.894894480705261 29.74520874023438 -1.848720073699951 L 30.49999618530273 -1.806000113487244 L 30.49999618530273 -1.050000071525574 L 30.49999618530273 0.08999992161989212 L 30.49999618530273 0.9153866171836853 L 29.67500877380371 0.8896132707595825 C 27.74546241760254 0.8293066024780273 26.52700996398926 0.7999999523162842 25.94999694824219 0.7999999523162842 C 24.42924880981445 0.7999999523162842 22.99810218811035 0.8299999237060547 21.69631576538086 0.8891732692718506 L 20.8599967956543 0.9271866083145142 Z M 25.49999618530273 -15.88000011444092 C 23.80167579650879 -15.88000011444092 22.41999626159668 -17.26168060302734 22.41999626159668 -18.96000099182129 C 22.41999626159668 -19.78507995605469 22.7353572845459 -20.55772018432617 23.3079833984375 -21.13559913635254 C 23.88588905334473 -21.71881294250488 24.66436958312988 -22.04000091552734 25.49999618530273 -22.04000091552734 C 26.33562278747559 -22.04000091552734 27.11410331726074 -21.71881294250488 27.69200897216797 -21.13559913635254 C 28.2646369934082 -20.55772018432617 28.57999610900879 -19.78507995605469 28.57999610900879 -18.96000099182129 C 28.57999610900879 -17.26168060302734 27.19831657409668 -15.88000011444092 25.49999618530273 -15.88000011444092 Z" stroke="none"/>
      <path d="M 94.46999359130859 8.399999618530273 L 94.46999359130859 7.349999904632568 C 92.48999786376953 7.230000019073486 92.15999603271484 6.840000152587891 92.15999603271484 5.039999961853027 L 92.15999603271484 -1.290000081062317 C 93.50999450683594 -0.1200000792741776 94.79999542236328 0.4499999284744263 96.38999938964844 0.4499999284744263 C 99.95999908447266 0.4499999284744263 102.6599960327148 -2.430000066757202 102.6599960327148 -6.539999961853027 C 102.6599960327148 -10.64999961853027 100.0199966430664 -13.52999973297119 96.50999450683594 -13.52999973297119 C 94.70999908447266 -13.52999973297119 93.29999542236328 -12.72000026702881 91.91999816894531 -10.98000049591064 L 91.91999816894531 -13.52999973297119 L 91.34999847412109 -13.52999973297119 C 89.78999328613281 -13.05000019073486 88.04999542236328 -12.75 86.06999969482422 -12.60000038146973 L 86.06999969482422 -11.43000030517578 C 87.95999908447266 -11.43000030517578 88.10999298095703 -10.52999973297119 88.10999298095703 -8.220000267028809 L 88.10999298095703 5.279999732971191 C 88.10999298095703 6.869999885559082 87.71999359130859 7.199999809265137 85.88999938964844 7.349999904632568 L 85.88999938964844 8.399999618530273 C 88.04999542236328 8.309999465942383 89.45999908447266 8.25 90.08999633789062 8.25 C 91.34999847412109 8.25 92.81999969482422 8.309999465942383 94.46999359130859 8.399999618530273 M 95.09999847412109 -11.36999988555908 C 97.08000946044922 -11.36999988555908 98.18999481201172 -9.75 98.18999481201172 -6.599999904632568 C 98.18999481201172 -3.150000095367432 97.16999816894531 -1.50000011920929 94.88999938964844 -1.50000011920929 C 93.14999389648438 -1.50000011920929 92.15999603271484 -2.580000162124634 92.15999603271484 -4.680000305175781 L 92.15999603271484 -7.740000247955322 C 92.15999603271484 -9.989999771118164 93.38999938964844 -11.36999988555908 95.09999847412109 -11.36999988555908 M 58.49999618530273 0.4199999272823334 C 61.13999557495117 0.4199999272823334 63.1199951171875 -0.5400000810623169 64.5 -2.550000190734863 L 63.47999572753906 -3.450000047683716 C 62.87999725341797 -2.759999990463257 62.39999771118164 -2.31000018119812 62.03999710083008 -2.070000171661377 C 61.37999725341797 -1.650000095367432 60.65999603271484 -1.440000057220459 59.84999465942383 -1.440000057220459 C 57.32999801635742 -1.440000057220459 55.88999557495117 -3.210000038146973 55.88999557495117 -6.570000171661377 C 55.88999557495117 -6.75 55.91999816894531 -6.960000038146973 55.91999816894531 -7.170000076293945 L 64.73999786376953 -7.170000076293945 L 64.73999786376953 -7.409999847412109 C 64.73999786376953 -11.34000015258789 62.51999664306641 -13.5600004196167 58.76999664306641 -13.5600004196167 C 54.29999542236328 -13.5600004196167 51.32999801635742 -10.59000015258789 51.32999801635742 -6.450000286102295 C 51.32999801635742 -2.430000066757202 54.26999664306641 0.4199999272823334 58.49999618530273 0.4199999272823334 M 58.55999755859375 -12.30000019073486 C 60.02999496459961 -12.30000019073486 60.83999633789062 -11.13000011444092 60.83999633789062 -8.940000534057617 L 60.83999633789062 -8.579999923706055 L 55.91999816894531 -8.579999923706055 C 56.12999725341797 -11.06999969482422 56.96999740600586 -12.30000019073486 58.55999755859375 -12.30000019073486 M 72.92999267578125 0.3899999260902405 C 74.78999328613281 0.3899999260902405 76.52999877929688 -0.5400000810623169 77.75999450683594 -2.25 L 78 0.239999920129776 L 78.45001220703125 0.239999920129776 C 80.00999450683594 -0.2100000828504562 81.71999359130859 -0.5700000524520874 83.60999298095703 -0.7800000905990601 L 83.60999298095703 -1.830000042915344 L 83.25 -1.830000042915344 C 82.13999938964844 -1.830000042915344 81.77999877929688 -2.100000143051147 81.77999877929688 -3.090000152587891 L 81.77999877929688 -13.28999996185303 C 79.64999389648438 -13.23000049591064 77.66999816894531 -13.26000022888184 75.80999755859375 -13.19999980926514 L 75.80999755859375 -12.18000030517578 C 77.39999389648438 -12.14999961853027 77.63999938964844 -11.64000034332275 77.63999938964844 -9.930000305175781 L 77.63999938964844 -6.599999904632568 C 77.63999938964844 -3.420000076293945 76.73999786376953 -1.830000042915344 74.70001220703125 -1.830000042915344 C 73.52999877929688 -1.830000042915344 72.98999786376953 -2.580000162124634 72.98999786376953 -4.170000076293945 L 72.98999786376953 -13.28999996185303 C 71.57999420166016 -13.23000049591064 69.62999725341797 -13.26000022888184 67.10999298095703 -13.19999980926514 L 67.10999298095703 -12.18000030517578 C 68.78999328613281 -12.09000015258789 68.87999725341797 -11.46000003814697 68.87999725341797 -9.75 L 68.87999725341797 -3.840000152587891 C 68.87999725341797 -0.9900000691413879 70.13999938964844 0.3899999260902405 72.92999267578125 0.3899999260902405 M 1.019996285438538 0.119999922811985 C 4.529996395111084 0.05999992415308952 7.529996395111084 -7.629394360719743e-08 10.01999664306641 -7.629394360719743e-08 C 13.13999652862549 -7.629394360719743e-08 16.19999694824219 0.02999992296099663 19.19999694824219 0.05999992415308952 L 19.31999588012695 -5.940000057220459 L 18.09000968933105 -5.940000057220459 C 17.4899959564209 -2.820000171661377 15.6900110244751 -1.440000057220459 12.33001041412354 -1.440000057220459 C 9.299996376037598 -1.440000057220459 8.550010681152344 -2.400000095367432 8.550010681152344 -5.400000095367432 L 8.550010681152344 -16.3799991607666 C 8.550010681152344 -18.36000061035156 9.089996337890625 -18.93000030517578 11.24999618530273 -18.93000030517578 L 11.42999649047852 -18.93000030517578 L 11.42999649047852 -20.1299991607666 C 9.089996337890625 -20.06999969482422 7.319996356964111 -20.04000091552734 6.209996223449707 -20.04000091552734 C 4.709996223449707 -20.04000091552734 2.969996452331543 -20.06999969482422 1.019996285438538 -20.1299991607666 L 1.019996285438538 -18.93000030517578 L 1.169996380805969 -18.93000030517578 C 3.149996280670166 -18.93000030517578 3.779996395111084 -18.36000061035156 3.779996395111084 -16.55999946594238 L 3.779996395111084 -4.139999866485596 C 3.779996395111084 -1.890000104904175 3.269996404647827 -1.140000104904175 1.259996294975281 -1.140000104904175 L 1.019996285438538 -1.140000104904175 L 1.019996285438538 0.119999922811985 M 48.92999649047852 0.08999992161989212 L 48.92999649047852 -0.9900000691413879 C 47.27999496459961 -1.110000133514404 47.15999603271484 -1.380000114440918 47.15999603271484 -2.700000047683716 L 47.15999603271484 -8.760000228881836 C 47.15999603271484 -11.94000053405762 45.71999740600586 -13.52999973297119 42.92999649047852 -13.52999973297119 C 41.03999710083008 -13.52999973297119 39.41999816894531 -12.65999984741211 38.03999710083008 -10.89000034332275 L 37.8599967956543 -13.52999973297119 L 37.34999465942383 -13.52999973297119 C 35.54999542236328 -12.93000030517578 33.8699951171875 -12.60000038146973 32.24999618530273 -12.48000049591064 L 32.24999618530273 -11.36999988555908 C 33.74999618530273 -11.36999988555908 34.1099967956543 -10.98000049591064 34.1099967956543 -9.390000343322754 L 34.1099967956543 -2.700000047683716 C 34.1099967956543 -1.410000085830688 33.95999526977539 -1.140000104904175 32.24999618530273 -0.9900000691413879 L 32.24999618530273 0.08999992161989212 C 33.53999710083008 0.02999992296099663 34.73999786376953 -7.629394360719743e-08 35.87999725341797 -7.629394360719743e-08 C 36.89999771118164 -7.629394360719743e-08 38.27999496459961 0.02999992296099663 40.04999542236328 0.08999992161989212 L 40.04999542236328 -0.9900000691413879 C 38.6099967956543 -1.020000100135803 38.27999496459961 -1.470000028610229 38.27999496459961 -2.850000143051147 L 38.27999496459961 -7.53000020980835 C 38.27999496459961 -9.899999618530273 39.47999572753906 -11.34000015258789 41.18999481201172 -11.34000015258789 C 42.38999557495117 -11.34000015258789 42.98999786376953 -10.47000026702881 42.98999786376953 -8.760000228881836 L 42.98999786376953 -2.700000047683716 C 42.98999786376953 -1.350000023841858 42.68999481201172 -0.9900000691413879 41.27999496459961 -0.9900000691413879 L 41.27999496459961 0.08999992161989212 C 42.71999740600586 0.02999992296099663 43.97999572753906 -7.629394360719743e-08 45.02999496459961 -7.629394360719743e-08 C 46.25999450683594 -7.629394360719743e-08 47.54999542236328 0.02999992296099663 48.92999649047852 0.08999992161989212 M 29.69999694824219 0.08999992161989212 L 29.69999694824219 -1.050000071525574 C 28.1099967956543 -1.140000104904175 27.80999565124512 -1.380000114440918 27.80999565124512 -2.640000104904175 L 27.80999565124512 -13.61999988555908 L 27.3599967956543 -13.61999988555908 C 26.15999603271484 -13.19999980926514 24.2399959564209 -12.84000015258789 21.65999603271484 -12.56999969482422 L 21.65999603271484 -11.52000045776367 C 23.18999671936035 -11.46000003814697 23.54999542236328 -11.15999984741211 23.54999542236328 -9.720000267028809 L 23.54999542236328 -2.640000104904175 C 23.54999542236328 -1.410000085830688 23.27999687194824 -1.140000104904175 21.65999603271484 -1.050000071525574 L 21.65999603271484 0.08999992161989212 C 22.97999572753906 0.02999992296099663 24.41999626159668 -7.629394360719743e-08 25.94999694824219 -7.629394360719743e-08 C 26.54999542236328 -7.629394360719743e-08 27.77999687194824 0.02999992296099663 29.69999694824219 0.08999992161989212 M 25.49999618530273 -16.68000030517578 C 26.75999641418457 -16.68000030517578 27.77999687194824 -17.70000076293945 27.77999687194824 -18.96000099182129 C 27.77999687194824 -20.21999931335449 26.78999710083008 -21.23999977111816 25.49999618530273 -21.23999977111816 C 24.20999717712402 -21.23999977111816 23.21999549865723 -20.21999931335449 23.21999549865723 -18.96000099182129 C 23.21999549865723 -17.70000076293945 24.2399959564209 -16.68000030517578 25.49999618530273 -16.68000030517578 M 96.06999969482422 10.08965682983398 L 94.38285064697266 9.997628211975098 C 92.51109313964844 9.895528793334961 91.18712615966797 9.850000381469727 90.08999633789062 9.850000381469727 C 89.52115631103516 9.850000381469727 88.21519470214844 9.90444278717041 86.23839569091797 9.986871719360352 L 84.28999328613281 10.0680570602417 L 84.28999328613281 5.875785827636719 L 85.75928497314453 5.755342960357666 C 86.12850189208984 5.725085735321045 86.35709381103516 5.691668033599854 86.49704742431641 5.663926601409912 C 86.50430297851562 5.574549674987793 86.50999450683594 5.450208187103271 86.50999450683594 5.279999732971191 L 86.50999450683594 -8.220000267028809 C 86.50999450683594 -8.536649703979492 86.50998687744141 -9.420927047729492 86.42581939697266 -9.810164451599121 C 86.34972381591797 -9.820571899414062 86.23519897460938 -9.829999923706055 86.06999969482422 -9.829999923706055 L 84.46999359130859 -9.829999923706055 L 84.46999359130859 -14.08337116241455 L 85.94912719726562 -14.1954288482666 C 87.84423828125 -14.33899974822998 89.45695495605469 -14.62155723571777 90.87945556640625 -15.05924320220947 L 91.10941314697266 -15.13000011444092 L 93.51999664306641 -15.13000011444092 L 93.51999664306641 -14.43607711791992 C 94.44094848632812 -14.90396499633789 95.42784881591797 -15.13000011444092 96.50999450683594 -15.13000011444092 C 98.68245697021484 -15.13000011444092 100.6663131713867 -14.24582862854004 102.0960998535156 -12.64035701751709 C 103.4915084838867 -11.07349967956543 104.2599945068359 -8.907013893127441 104.2599945068359 -6.539999961853027 C 104.2599945068359 -4.168071269989014 103.474365234375 -1.997328639030457 102.0478134155273 -0.4276572167873383 C 100.5957641601562 1.170085668563843 98.58645629882812 2.049999952316284 96.38999938964844 2.049999952316284 C 95.46553039550781 2.049999952316284 94.59806060791016 1.893605709075928 93.75999450683594 1.569688320159912 L 93.75999450683594 5.039999961853027 C 93.75999450683594 5.348767757415771 93.7718505859375 5.545017719268799 93.78526306152344 5.668227672576904 C 93.92661285400391 5.695672512054443 94.16703796386719 5.72870397567749 94.56678009033203 5.752928256988525 L 96.06999969482422 5.844028472900391 L 96.06999969482422 10.08965682983398 Z M 95.09999847412109 -9.770000457763672 C 93.85662841796875 -9.770000457763672 93.75999450683594 -8.216214179992676 93.75999450683594 -7.740000247955322 L 93.75999450683594 -4.680000305175781 C 93.75999450683594 -4.069071292877197 93.87578582763672 -3.586100101470947 94.07766723632812 -3.354900121688843 C 94.13272857666016 -3.291857242584229 94.30027008056641 -3.100000143051147 94.88999938964844 -3.100000143051147 C 95.65159606933594 -3.100000143051147 95.88674163818359 -3.367757320404053 96.04737091064453 -3.618742942810059 C 96.29491424560547 -4.005528450012207 96.58999633789062 -4.836728572845459 96.58999633789062 -6.599999904632568 C 96.58999633789062 -9.770000457763672 95.46852111816406 -9.770000457763672 95.09999847412109 -9.770000457763672 Z M 58.49999618530273 2.019999980926514 C 56.04256820678711 2.019999980926514 53.81222534179688 1.176857113838196 52.21984100341797 -0.3541000783443451 C 50.61423873901367 -1.89777147769928 49.72999572753906 -4.062657356262207 49.72999572753906 -6.450000286102295 C 49.72999572753906 -8.904614448547363 50.62876892089844 -11.12670040130615 52.26073837280273 -12.70694255828857 C 53.8944091796875 -14.28881454467773 56.20611190795898 -15.15999984741211 58.76999664306641 -15.15999984741211 C 61.96677398681641 -15.15999984741211 64.33450317382812 -13.76813507080078 65.50999450683594 -11.35617351531982 L 65.50999450683594 -14.76235675811768 L 67.07190704345703 -14.7995433807373 C 68.28563690185547 -14.82844257354736 69.36385345458984 -14.83665752410889 70.31513977050781 -14.84389972686768 C 71.33283996582031 -14.85164260864258 72.21175384521484 -14.8583288192749 72.92196655273438 -14.88855743408203 L 74.58999633789062 -14.95952892303467 L 74.58999633789062 -14.761474609375 L 75.75840759277344 -14.79917144775391 C 76.71869659423828 -14.83014297485352 77.68861389160156 -14.83745765686035 78.71546936035156 -14.84521389007568 C 79.69038391113281 -14.85257148742676 80.69849395751953 -14.8601713180542 81.73493957519531 -14.88937187194824 L 83.37999725341797 -14.93570041656494 L 83.37999725341797 -3.430000066757202 L 85.20999908447266 -3.430000066757202 L 85.20999908447266 0.6520713567733765 L 83.78668212890625 0.8102142214775085 C 82.10052490234375 0.9975713491439819 80.49993896484375 1.313899874687195 78.89347076416016 1.777314186096191 L 78.67617034912109 1.839999914169312 L 76.54679870605469 1.839999914169312 L 76.46996307373047 1.042819976806641 C 75.38600158691406 1.659451127052307 74.17852783203125 1.989999890327454 72.92999267578125 1.989999890327454 C 71.09223937988281 1.989999890327454 69.66795349121094 1.469728469848633 68.69673919677734 0.4436284899711609 C 67.743408203125 -0.5635572075843811 67.27999877929688 -1.96474289894104 67.27999877929688 -3.840000152587891 L 67.27999877929688 -9.75 C 67.27999877929688 -9.92241096496582 67.27999114990234 -10.29794502258301 67.25965118408203 -10.5631275177002 C 67.19666290283203 -10.57041263580322 67.11907958984375 -10.57721519470215 67.0244140625 -10.58228588104248 L 65.81029510498047 -10.6473274230957 C 66.15749359130859 -9.6943359375 66.33999633789062 -8.609177589416504 66.33999633789062 -7.409999847412109 L 66.33999633789062 -5.570000171661377 L 63.49563980102539 -5.570000171661377 L 66.62094116210938 -2.812371492385864 L 65.81903839111328 -1.644385814666748 C 64.14964294433594 0.7871142029762268 61.68716812133789 2.019999980926514 58.49999618530273 2.019999980926514 Z M 57.5435676574707 -5.570000171661377 C 57.83857345581055 -3.040151357650757 59.27237701416016 -3.039999961853027 59.84999465942383 -3.039999961853027 C 60.34426879882812 -3.039999961853027 60.76267623901367 -3.1575608253479 61.16501617431641 -3.40976619720459 C 61.29372024536133 -3.498042821884155 61.63747787475586 -3.769461631774902 62.27262496948242 -4.499885559082031 L 63.20315933227539 -5.570000171661377 L 57.5435676574707 -5.570000171661377 Z M 74.66864776611328 -3.430462121963501 C 74.67829895019531 -3.430168151855469 74.68874359130859 -3.430000066757202 74.70001220703125 -3.430000066757202 C 75.26596832275391 -3.430000066757202 75.42672729492188 -3.619985818862915 75.56529998779297 -3.849485874176025 C 75.78185272216797 -4.208157062530518 76.03999328613281 -4.976500034332275 76.03999328613281 -6.599999904632568 L 76.03999328613281 -9.930000305175781 C 76.03999328613281 -10.22905349731445 76.03102874755859 -10.43218421936035 76.01953887939453 -10.56971073150635 C 75.95470428466797 -10.57456493377686 75.87556457519531 -10.5784797668457 75.77980804443359 -10.58028602600098 L 74.58999633789062 -10.60273170471191 L 74.58999633789062 -4.170000076293945 C 74.58999633789062 -3.766204595565796 74.63531494140625 -3.541265964508057 74.66864776611328 -3.430462121963501 Z M 57.88125228881836 -10.18000030517578 L 59.0902099609375 -10.18000030517578 C 59.0317497253418 -10.3693790435791 58.96933364868164 -10.481201171875 58.92946624755859 -10.53964328765869 C 58.87076950073242 -10.6256856918335 58.82008361816406 -10.69999980926514 58.55999755859375 -10.69999980926514 C 58.25596618652344 -10.69999980926514 58.15121078491211 -10.62397193908691 58.03139495849609 -10.45355701446533 C 57.98880767822266 -10.39297294616699 57.93657684326172 -10.30491542816162 57.88125228881836 -10.18000030517578 Z M 30.64999580383301 1.766142725944519 L 30.64999580383301 1.720469236373901 L 29.6500244140625 1.68921422958374 C 27.7288818359375 1.629185676574707 26.51859664916992 1.599999904632568 25.94999694824219 1.599999904632568 C 24.44131088256836 1.599999904632568 23.02238273620605 1.629728436470032 21.73265266418457 1.688342809677124 L 20.05999565124512 1.764385581016541 L 20.05999565124512 1.668675780296326 L 19.18399620056152 1.659914255142212 C 16.37536811828613 1.631828546524048 13.19199657440186 1.599999904632568 10.01999664306641 1.599999904632568 C 7.913739204406738 1.599999904632568 5.441067695617676 1.643199920654297 2.57793927192688 1.693228483200073 C 2.078996419906616 1.701942801475525 1.568796396255493 1.710857033729553 1.047339200973511 1.719771385192871 L -0.5800036787986755 1.747585654258728 L -0.5800036787986755 -2.740000009536743 L 1.259996294975281 -2.740000009536743 C 1.757203340530396 -2.740000009536743 1.968688488006592 -2.798059225082397 2.039450407028198 -2.824644804000854 C 2.079871654510498 -2.91575026512146 2.179996252059937 -3.233025074005127 2.179996252059937 -4.139999866485596 L 2.179996252059937 -16.55999946594238 C 2.179996252059937 -16.95407485961914 2.141105890274048 -17.1507682800293 2.11666464805603 -17.2354621887207 C 2.015674829483032 -17.26904296875 1.752149224281311 -17.32999992370605 1.169996380805969 -17.32999992370605 L -0.5800036787986755 -17.32999992370605 L -0.5800036787986755 -21.77998542785645 L 1.069210648536682 -21.7292423248291 C 2.993767738342285 -21.67002868652344 4.723381996154785 -21.63999938964844 6.209996223449707 -21.63999938964844 C 7.315267562866211 -21.63999938964844 9.106139183044434 -21.67094230651855 11.38898181915283 -21.72947120666504 L 13.02999591827393 -21.77155685424805 L 13.02999591827393 -17.32999992370605 L 11.24999618530273 -17.32999992370605 C 10.62099838256836 -17.32999992370605 10.33696937561035 -17.27196884155273 10.22279930114746 -17.2369213104248 C 10.19417476654053 -17.13330268859863 10.15001106262207 -16.89067649841309 10.15001106262207 -16.3799991607666 L 10.15001106262207 -5.400000095367432 C 10.15001106262207 -3.953957319259644 10.35726737976074 -3.512943029403687 10.48081016540527 -3.378757238388062 C 10.5745964050293 -3.276900053024292 10.9425106048584 -3.039999961853027 12.33001041412354 -3.039999961853027 C 14.93461036682129 -3.039999961853027 16.06989669799805 -3.90787148475647 16.51879692077637 -6.242156982421875 L 16.76839637756348 -7.539999961853027 L 20.95231056213379 -7.539999961853027 L 20.85367584228516 -2.607671976089478 L 21.57123947143555 -2.647542953491211 C 21.72529411315918 -2.656101226806641 21.84976005554199 -2.665833234786987 21.94999694824219 -2.675684452056885 L 21.94999694824219 -9.720000267028809 C 21.94999694824219 -9.788248062133789 21.9489631652832 -9.847855567932129 21.9472599029541 -9.899730682373047 C 21.85663032531738 -9.907918930053711 21.74187850952148 -9.915559768676758 21.5972957611084 -9.921228408813477 L 20.05999565124512 -9.981513977050781 L 20.05999565124512 -14.0113000869751 L 21.49346733093262 -14.16131401062012 C 24.52336692810059 -14.47840023040771 26.06865310668945 -14.86320018768311 26.83143997192383 -15.13017177581787 L 27.08808135986328 -15.22000026702881 L 29.40999603271484 -15.22000026702881 L 29.40999603271484 -2.675516366958618 C 29.51053237915039 -2.665861129760742 29.63545989990234 -2.656214237213135 29.7904109954834 -2.647442817687988 L 31.29999542236328 -2.562000036239624 L 31.29999542236328 -2.5128173828125 L 32.11018371582031 -2.583885908126831 C 32.27399063110352 -2.598252296447754 32.40510177612305 -2.612553596496582 32.50977325439453 -2.626006364822388 C 32.50991821289062 -2.649372816085815 32.50999450683594 -2.674024820327759 32.50999450683594 -2.700000047683716 L 32.50999450683594 -9.390000343322754 C 32.50999450683594 -9.547270774841309 32.50559997558594 -9.669849395751953 32.49940872192383 -9.764524459838867 C 32.43139266967773 -9.767841339111328 32.34908294677734 -9.770000457763672 32.24999618530273 -9.770000457763672 L 30.64999580383301 -9.770000457763672 L 30.64999580383301 -13.96587181091309 L 32.13179779052734 -14.07562828063965 C 33.68512344360352 -14.19068622589111 35.22650909423828 -14.50871467590332 36.84402465820312 -15.04790019989014 L 37.09035491943359 -15.13000011444092 L 39.3546257019043 -15.13000011444092 L 39.41672515869141 -14.21921825408936 C 40.49092864990234 -14.82491779327393 41.66483306884766 -15.13000011444092 42.92999649047852 -15.13000011444092 C 46.63504028320312 -15.13000011444092 48.75999450683594 -12.80822849273682 48.75999450683594 -8.760000228881836 L 48.75999450683594 -2.700000047683716 C 48.75999450683594 -2.668347358703613 48.76008987426758 -2.638481378555298 48.76026153564453 -2.61027193069458 C 48.84050369262695 -2.602137088775635 48.93495178222656 -2.59386682510376 49.04605484008789 -2.585785865783691 L 50.52999496459961 -2.477857112884521 L 50.52999496459961 1.76107132434845 L 48.86049652099609 1.688485622406006 C 47.490966796875 1.628942728042603 46.23801040649414 1.599999904632568 45.02999496459961 1.599999904632568 C 44.07176208496094 1.599999904632568 42.93586730957031 1.625661134719849 41.64999771118164 1.67631471157074 L 41.64999771118164 1.745157122612 L 40.73442077636719 1.714122295379639 L 39.67999649047852 1.758057117462158 L 39.67999649047852 1.678561091423035 C 38.06618881225586 1.625731825828552 36.82069778442383 1.599999904632568 35.87999725341797 1.599999904632568 C 34.76445388793945 1.599999904632568 33.60139465332031 1.628871321678162 32.3243408203125 1.688271403312683 L 31.29999542236328 1.735912203788757 L 31.29999542236328 1.740785598754883 L 31.23732757568359 1.738826870918274 L 30.64999580383301 1.766142725944519 Z M 40.06795120239258 -2.590000152587891 L 41.27999496459961 -2.590000152587891 C 41.31918716430664 -2.590000152587891 41.35549163818359 -2.59035325050354 41.38909149169922 -2.590986967086792 C 41.38967132568359 -2.624558210372925 41.38999557495117 -2.660853147506714 41.38999557495117 -2.700000047683716 L 41.38999557495117 -8.760000228881836 C 41.38999557495117 -9.36531925201416 41.29308700561523 -9.641851425170898 41.24790954589844 -9.737783432006836 C 41.23265838623047 -9.739065170288086 41.21348190307617 -9.739999771118164 41.18999481201172 -9.739999771118164 C 39.97446823120117 -9.739999771118164 39.87999725341797 -8.048442840576172 39.87999725341797 -7.53000020980835 L 39.87999725341797 -2.850000143051147 C 39.87999725341797 -2.749280214309692 39.88224792480469 -2.666195631027222 39.88567352294922 -2.598082065582275 C 39.9375114440918 -2.59454345703125 39.99789810180664 -2.591665744781494 40.06795120239258 -2.590000152587891 Z M 25.49999618530273 -15.07999992370605 C 23.36055374145508 -15.07999992370605 21.61999702453613 -16.820556640625 21.61999702453613 -18.96000099182129 C 21.61999702453613 -19.99738502502441 22.01765441894531 -20.96999931335449 22.73972511291504 -21.69869995117188 C 23.4690113067627 -22.43467140197754 24.44929695129395 -22.84000015258789 25.49999618530273 -22.84000015258789 C 26.55069541931152 -22.84000015258789 27.53098297119141 -22.43467140197754 28.26026725769043 -21.69869995117188 C 28.98233985900879 -20.96999931335449 29.37999725341797 -19.99738502502441 29.37999725341797 -18.96000099182129 C 29.37999725341797 -16.820556640625 27.63943862915039 -15.07999992370605 25.49999618530273 -15.07999992370605 Z" stroke="none" fill="#e8aeb8"/>
    </g>
    <path id="パス_9931" data-name="パス 9931" d="M1.02.12C4.53.06,7.53,0,10.02,0c3.12,0,6.18.03,9.18.06l.12-6H18.09c-.6,3.12-2.4,4.5-5.76,4.5C9.3-1.44,8.55-2.4,8.55-5.4V-16.38c0-1.98.54-2.55,2.7-2.55h.18v-1.2c-2.34.06-4.11.09-5.22.09-1.5,0-3.24-.03-5.19-.09v1.2h.15c1.98,0,2.61.57,2.61,2.37V-4.14c0,2.25-.51,3-2.52,3H1.02ZM21.66.09C22.98.03,24.42,0,25.95,0c.6,0,1.83.03,3.75.09V-1.05c-1.59-.09-1.89-.33-1.89-1.59V-13.62h-.45a27.413,27.413,0,0,1-5.7,1.05v1.05c1.53.06,1.89.36,1.89,1.8v7.08c0,1.23-.27,1.5-1.89,1.59Zm1.56-19.05a2.279,2.279,0,0,0,2.28,2.28,2.279,2.279,0,0,0,2.28-2.28,2.26,2.26,0,0,0-2.28-2.28A2.26,2.26,0,0,0,23.22-18.96ZM32.25.09C33.54.03,34.74,0,35.88,0c1.02,0,2.4.03,4.17.09V-.99c-1.44-.03-1.77-.48-1.77-1.86V-7.53c0-2.37,1.2-3.81,2.91-3.81,1.2,0,1.8.87,1.8,2.58V-2.7c0,1.35-.3,1.71-1.71,1.71V.09C42.72.03,43.98,0,45.03,0c1.23,0,2.52.03,3.9.09V-.99c-1.65-.12-1.77-.39-1.77-1.71V-8.76c0-3.18-1.44-4.77-4.23-4.77a6.043,6.043,0,0,0-4.89,2.64l-.18-2.64h-.51a20.881,20.881,0,0,1-5.1,1.05v1.11c1.5,0,1.86.39,1.86,1.98V-2.7c0,1.29-.15,1.56-1.86,1.71ZM63.48-3.45a8.1,8.1,0,0,1-1.44,1.38,3.972,3.972,0,0,1-2.19.63c-2.52,0-3.96-1.77-3.96-5.13,0-.18.03-.39.03-.6h8.82v-.24c0-3.93-2.22-6.15-5.97-6.15-4.47,0-7.44,2.97-7.44,7.11,0,4.02,2.94,6.87,7.17,6.87a6.768,6.768,0,0,0,6-2.97ZM55.92-8.58c.21-2.49,1.05-3.72,2.64-3.72,1.47,0,2.28,1.17,2.28,3.36v.36ZM68.88-3.84c0,2.85,1.26,4.23,4.05,4.23a5.934,5.934,0,0,0,4.83-2.64L78,.24h.45A30.806,30.806,0,0,1,83.61-.78V-1.83h-.36c-1.11,0-1.47-.27-1.47-1.26v-10.2c-2.13.06-4.11.03-5.97.09v1.02c1.59.03,1.83.54,1.83,2.25V-6.6c0,3.18-.9,4.77-2.94,4.77-1.17,0-1.71-.75-1.71-2.34v-9.12c-1.41.06-3.36.03-5.88.09v1.02c1.68.09,1.77.72,1.77,2.43ZM85.89,8.4c2.16-.09,3.57-.15,4.2-.15,1.26,0,2.73.06,4.38.15V7.35c-1.98-.12-2.31-.51-2.31-2.31V-1.29A6.156,6.156,0,0,0,96.39.45c3.57,0,6.27-2.88,6.27-6.99s-2.64-6.99-6.15-6.99a5.629,5.629,0,0,0-4.59,2.55v-2.55h-.57a24.1,24.1,0,0,1-5.28.93v1.17c1.89,0,2.04.9,2.04,3.21V5.28c0,1.59-.39,1.92-2.22,2.07ZM92.16-4.68V-7.74c0-2.25,1.23-3.63,2.94-3.63,1.98,0,3.09,1.62,3.09,4.77,0,3.45-1.02,5.1-3.3,5.1C93.15-1.5,92.16-2.58,92.16-4.68Z" transform="translate(1.249 55.179)" fill="#fff"/>
  </g>
</svg>
