<svg xmlns="http://www.w3.org/2000/svg" width="243.489" height="59.411" viewBox="0 0 243.489 59.411">
  <g id="レイヤー_1" data-name="レイヤー 1" transform="translate(-66.95 -505.655)">
    <g id="グループ_3944" data-name="グループ 3944" transform="translate(66.95 505.655)">
      <g id="グループ_3945" data-name="グループ 3945">
        <path id="パス_10163" data-name="パス 10163" d="M100.915,547.227H82.173c-3.436,6.372-9,8.84-10.839,8.84a2.528,2.528,0,0,1-2.624-3,3.215,3.215,0,0,1,2.249-2.343c6.122-2.249,7.684-7.34,8.684-13.057l.344-1.937a2.977,2.977,0,0,1,3.092-2.405c1.5,0,2.9.844,2.624,2.53v.219h17.211l.094-.469a3.26,3.26,0,0,1,3.28-2.53c1.374,0,2.749.844,2.436,2.53l-3.092,17.555a3.221,3.221,0,0,1-3.28,2.53c-1.374,0-2.749-.812-2.436-2.53l1.031-5.9Zm-16.4-24.52c-2.436,7.122-7.34,10.651-9.34,10.651a2.011,2.011,0,0,1-2.062-2.312,2.241,2.241,0,0,1,1.124-1.5,12.211,12.211,0,0,0,5.81-6.81l-1.718.062h-.062c-1.406,0-1.937-.906-1.749-1.874a2.424,2.424,0,0,1,2.468-1.874c1.78,0,4.186-.062,6.372-.062,3.436,0,5.872.094,5.185,4.03-1.531,8.684-4.217,9.683-6.81,9.683-2.155,0-2.749-.594-2.5-1.968a2.292,2.292,0,0,1,2.03-2.031H83.7c.687,0,.937-.531,1.156-1.031a32.135,32.135,0,0,0,1.062-3.967c.094-.594-.187-1.031-1-1.031h-.437Zm-6.841-5.622c-1.812,0-2.53-1.187-2.311-2.405a3.013,3.013,0,0,1,3.155-2.343H95.292l.344-1.874a3.679,3.679,0,0,1,3.717-3.092,2.473,2.473,0,0,1,2.624,3.092l-.344,1.874H118.5a1.88,1.88,0,0,1,2,2.343,2.853,2.853,0,0,1-2.842,2.405H77.706ZM102.1,540.449H84.7c-.187.812-.437,1.593-.687,2.405H101.7l.437-2.405Zm-8.59-17.3a1.459,1.459,0,0,1-1.468-1.031,9.3,9.3,0,0,0-1-1.968.976.976,0,0,1-.187-.75,2.462,2.462,0,0,1,2.436-1.593c1.718,0,3.061,2.624,2.936,3.373a2.862,2.862,0,0,1-2.718,1.968Zm-.156,2.093a2.508,2.508,0,0,1,2.436-2.031l.406-.75a33.933,33.933,0,0,0,2.311-3.9,2.019,2.019,0,0,1,1.843-1c1.218,0,2.468.843,2.28,2.03a1.779,1.779,0,0,1-.281.687c-2.655,3.811-3.217,4.342-4.373,4.654v.312l-1.156,6.591a2.7,2.7,0,0,1-2.686,2.249,1.849,1.849,0,0,1-1.968-2.249l1.218-6.591Zm18.867-2.842a7.884,7.884,0,0,0,3.842,6.153,1.583,1.583,0,0,1,.781,1.656,3.372,3.372,0,0,1-3.124,2.467c-2.842,0-5.373-5.31-5.529-9.371-.562.094-1.062.219-1.312.219-.437.062-.656.375-.781,1.062l-.562,3.155s1.593-.531,1.812-.531a1.6,1.6,0,0,1,1.468,1.968,1.958,1.958,0,0,1-1.218,1.406,46.143,46.143,0,0,1-7.965,2.343,1.577,1.577,0,0,1-1.656-1.937c.062-.437.469-1.656,2.811-2.03.156-.844.25-1.718.406-2.561.625-3.53,1.093-5.935,4.029-6.466,1.343-.281,6.591-1.437,7.622-1.812a2.93,2.93,0,0,1,1.062-.219,1.837,1.837,0,0,1,1.874,2.187,2.527,2.527,0,0,1-2.124,1.968l-1.437.312Z" transform="translate(-63.308 -502.013)" fill="#e18d9f"/>
        <path id="パス_10164" data-name="パス 10164" d="M74.977,565.066a8.033,8.033,0,0,1-6.221-2.861,7.85,7.85,0,0,1-1.675-6.445,8.567,8.567,0,0,1,5.7-6.432c2.647-.981,3.911-2.728,4.86-7.062a7.4,7.4,0,0,1-4.527-2.523,7.311,7.311,0,0,1-1.643-5.936l.009-.05a7.542,7.542,0,0,1,3.708-5.2q.231-.136.441-.271a6.974,6.974,0,0,1-.738-4.686q.049-.274.118-.541a7.373,7.373,0,0,1-1.278-5.686l0-.024a8.326,8.326,0,0,1,8.423-6.729H94.842A9,9,0,0,1,103,505.655a8.093,8.093,0,0,1,6.23,2.783,7.536,7.536,0,0,1,1.289,2.184h11.628a7.223,7.223,0,0,1,7.267,8.672,8.272,8.272,0,0,1-4.889,6.134,7.54,7.54,0,0,1-1.372,2.642,6.91,6.91,0,0,1,2.629,6.612c-.006.037-.012.074-.019.111a8.669,8.669,0,0,1-8.381,6.878l-2.83,16.063-.005.029a8.586,8.586,0,0,1-8.55,6.929,7.962,7.962,0,0,1-6.171-2.758,7.251,7.251,0,0,1-1.6-5.707H88.774a24.437,24.437,0,0,1-5.934,5.862A14.922,14.922,0,0,1,74.977,565.066Z" transform="translate(-66.95 -505.655)" fill="#e18d9f"/>
        <path id="パス_10165" data-name="パス 10165" d="M129.542,536.051a19.582,19.582,0,0,0,4.061,3.155,1.736,1.736,0,0,1,.843,1.874,3.191,3.191,0,0,1-2.842,2.53c-.812,0-1.124-.063-3.311-1.968-.375.312-3.842,3-5.185,3a1.771,1.771,0,0,1-1.843-2.03,2.009,2.009,0,0,1,1-1.343,21.243,21.243,0,0,0,3.5-2.53,28.916,28.916,0,0,1-1.78-2.718h-8.246c-.875,1.062-1.812,2.031-2.78,3,1.031.812,2.343,1.968,2.093,3.28a2.909,2.909,0,0,1-2.593,2.312,1.959,1.959,0,0,1-1.531-.75,10.159,10.159,0,0,0-1.593-1.656c-2.967,2.187-3.623,2.343-4.154,2.343a1.477,1.477,0,0,1-1.187-.531c-.312,1.812-.687,4.186-.906,5.341v.125a6.353,6.353,0,0,1-6.4,5.31c-3.155,0-3.811-1.562-3.592-2.78a2.517,2.517,0,0,1,2.436-2.187,2.019,2.019,0,0,1,.625.063,5.889,5.889,0,0,0,.937.094q1.281,0,2.624-7.653H95.682c-2.218,7.934-5.966,13.4-8.684,13.4a2.187,2.187,0,0,1-2.249-2.468,2.383,2.383,0,0,1,.718-1.343c4.342-4.342,6.278-11.682,7.559-18.8.531-3.061.968-6.06,1.374-8.777v-.156c.656-3.467,2.9-4.4,7.434-4.4,3.748,0,6.247.687,5.56,4.592l-2.9,16.4a3.916,3.916,0,0,1,.75-.593,27.681,27.681,0,0,0,5.123-4.061l-2.655.094a1.558,1.558,0,0,1-1.687-2.03,2.476,2.476,0,0,1,2.343-2.093h.062l5.341.063c.625-.843,1.218-1.718,1.749-2.561l-5.154.063H110.3a1.588,1.588,0,0,1-1.749-1.937,2.4,2.4,0,0,1,2.5-1.937h1.406a8.65,8.65,0,0,0-1.312-2.561,1.426,1.426,0,0,1-.219-.968,2.751,2.751,0,0,1,2.686-1.812c1.406,0,3.28,2.343,2.967,4.186a2.3,2.3,0,0,1-.531,1.187h1.437a31.124,31.124,0,0,0,1.687-4.779,2.711,2.711,0,0,1,1.843-1.874,1.983,1.983,0,0,1-1.749-2.468h-7.778l-.125.687a3.371,3.371,0,0,1-3.373,2.718c-1.406,0-2.53-.812-2.249-2.468l.156-.968H95.713c-1.937,0-2.655-1.281-2.436-2.561a3.264,3.264,0,0,1,3.342-2.53H106.8l.281-1.562a3.193,3.193,0,0,1,3.217-2.53,2.132,2.132,0,0,1,2.343,2.53l-.281,1.593h7.778l.281-1.593a3.184,3.184,0,0,1,3.186-2.53,2.092,2.092,0,0,1,2.28,2.53l-.281,1.562h10.5c1.874,0,2.561,1.218,2.343,2.468a3.271,3.271,0,0,1-3.249,2.624H124.7A3.184,3.184,0,0,1,122.358,519c1.031.156,1.874.843,1.687,1.937a40.3,40.3,0,0,1-1.968,4.81h2.187a43.552,43.552,0,0,0,2.53-4.342,2.028,2.028,0,0,1,1.905-1.124c1.281,0,2.561.906,2.343,2.155-.062.312-.094.594-2.187,3.311h2.311a1.576,1.576,0,0,1,1.749,1.937,2.357,2.357,0,0,1-2.374,1.937h-.062l-5.092-.062a15.416,15.416,0,0,0,1.093,2.561l6.122-.063h.062a1.665,1.665,0,0,1,1.78,2.093,2.446,2.446,0,0,1-2.436,2.03h-.094l-2.436-.094Zm-28.269-2.53H97.588c-.25,1.437-.5,2.9-.812,4.342h3.748l.781-4.342Zm.718-4.4c.25-1.406.406-2.624.593-3.686.094-.594-.125-1.187-1.656-1.187-1.406,0-1.812.469-1.937,1.187l-.656,3.686Zm3.28,23.677a2.008,2.008,0,0,1-1.937-2.468,2.4,2.4,0,0,1,1.655-1.874,20.955,20.955,0,0,0,6.685-2.9,2.37,2.37,0,0,1,1.125-.375,1.6,1.6,0,0,1,1.468,2.03,3.227,3.227,0,0,1-1.374,1.937c-2.811,1.937-6.06,3.655-7.653,3.655Zm11.308-14.025a2.682,2.682,0,0,1,2.686-2.249,1.891,1.891,0,0,1,2,2.312c-.281,1.562-1.312,7.184-1.312,7.184-.25,1.406-.781,4.81-.781,4.81v.094c-.5,2.78-2.436,4.592-5.872,4.592s-4.186-1.125-3.936-2.561a2.541,2.541,0,0,1,2.405-2.187,1.215,1.215,0,0,1,.469.062c.625.094,1.093.219,1.406.219.687,0,.875-.312,1-1.062l1.905-11.183Zm5.56-6.653a13.994,13.994,0,0,1-.75-2.686h-1.125c-.531.906-1.062,1.812-1.656,2.686Zm4.717,20.741a13.564,13.564,0,0,0-5.466-3.28,1.514,1.514,0,0,1-1.218-1.812,2.809,2.809,0,0,1,2.686-2.155,16.282,16.282,0,0,1,7.309,2.874,2.332,2.332,0,0,1,.968,2.343,3.174,3.174,0,0,1-2.78,2.624,2.29,2.29,0,0,1-1.5-.656Z" transform="translate(-29.213 -501.801)" fill="#e18d9f"/>
        <path id="パス_10166" data-name="パス 10166" d="M90.64,564.729a7.668,7.668,0,0,1-5.879-2.715A7.382,7.382,0,0,1,83.111,556q.007-.043.015-.086a7.693,7.693,0,0,1,2.2-4.144c3.46-3.46,5.063-10.34,6.072-15.951.459-2.648.842-5.22,1.213-7.707l.088-.587a5.359,5.359,0,0,1,.085-.7,11.91,11.91,0,0,1,1.072-3.226,7.309,7.309,0,0,1-.6-.633,7.515,7.515,0,0,1-1.612-6.136l.008-.045a8.618,8.618,0,0,1,8.615-6.941h6.263a8.638,8.638,0,0,1,7.418-4.092,7.834,7.834,0,0,1,6.031,2.7q.239.283.445.583a8.638,8.638,0,0,1,6.831-3.283,7.764,7.764,0,0,1,6.028,2.736,7.234,7.234,0,0,1,.89,1.356h5.577a7.714,7.714,0,0,1,6.045,2.662,7.429,7.429,0,0,1,1.575,6.079,8.506,8.506,0,0,1-2.748,4.882,8.66,8.66,0,0,1-4.557,2.1q.01.3-.006.605.133.14.26.288a7.047,7.047,0,0,1,1.533,5.714q-.043.266-.1.524c.038.043.076.087.113.131a7.177,7.177,0,0,1,1.508,5.888l0,.027a7.825,7.825,0,0,1-.748,2.2,7.158,7.158,0,0,1,.761,4.66l-.011.065a8.6,8.6,0,0,1-3.718,5.567,7.576,7.576,0,0,1,.4,4.208A8.459,8.459,0,0,1,132,562.449a7.524,7.524,0,0,1-4.094-1.264,5.347,5.347,0,0,1-1.088-.8c-.173-.164-.341-.315-.505-.456a10.137,10.137,0,0,1-1.935,2.109,11.542,11.542,0,0,1-7.434,2.468c-1.278,0-5.118,0-7.566-2.735-.142.01-.283.016-.425.017h0q-.141,0-.28,0a7.439,7.439,0,0,1-1.4-.179,11.911,11.911,0,0,1-6.946,2.182,10.745,10.745,0,0,1-4.535-.9A8.479,8.479,0,0,1,90.64,564.729Z" transform="translate(-32.855 -505.443)" fill="#e18d9f"/>
        <path id="パス_10167" data-name="パス 10167" d="M126.7,511.194a10.76,10.76,0,0,1-.968,2.53,8.718,8.718,0,0,0,.937-.469,3.32,3.32,0,0,1,1.749-.531,2.173,2.173,0,0,1,2.28,2.53c-.25,1.343-1.468,3.217-8.059,5.092a170.869,170.869,0,0,1-12.557,17.773,4.461,4.461,0,0,1-3.4,1.781c-1.562,0-2.874-1.031-2.593-2.561a4.21,4.21,0,0,1,1.031-1.937c7.778-9.152,8.621-10.339,10.9-13.806a15.91,15.91,0,0,1-2.624.219c-4.5,0-5.872-1.593-5.56-3.373a3.224,3.224,0,0,1,3.217-2.686,3.9,3.9,0,0,1,1.249.219,7.353,7.353,0,0,0,2.655.375,17.884,17.884,0,0,0,4.217-.531,40.341,40.341,0,0,0,1.812-5.092,3.377,3.377,0,0,1,3.217-2.405,2.389,2.389,0,0,1,2.53,2.9v.062Zm-.875,25.332c.187-1.125.25-1.968.375-3.061l.094-.594c.531-2.936,1.312-5.091,3.842-5.091a2.228,2.228,0,0,1,2.405,2.686,1.408,1.408,0,0,1-.156.531,13.358,13.358,0,0,0-.687,2.343c-.656,3.655-.812,5.529-.937,6.841,2.593,1.187,6.778,3.811,6.247,6.841a3.93,3.93,0,0,1-3.623,3.218,2.662,2.662,0,0,1-2.28-1.281,10.879,10.879,0,0,0-2.062-2.343,13.407,13.407,0,0,1-10.714,5.779c-5.185,0-8.777-3.311-8.121-7.184.781-4.342,6.341-6.872,12.182-6.872a19.517,19.517,0,0,1,3.03.219l.375-2.093Zm-1.593,7.184a10.825,10.825,0,0,0-3.5-.593c-2.155,0-5.06.687-5.341,2.311-.062.281-.094,1.812,3.061,1.812,2.468,0,5.029-1.437,5.654-3.28l.094-.25Zm15.15-16.93a10.97,10.97,0,0,0-6.841-2.249H131.7a1.932,1.932,0,0,1-2-2.405c.5-2.874,3.686-3,5.248-3,4.873,0,9.527,1.812,8.965,5.091a3.667,3.667,0,0,1-3.217,3A1.859,1.859,0,0,1,139.383,526.78Z" transform="translate(11.83 -499.996)" fill="#e18d9f"/>
        <path id="パス_10168" data-name="パス 10168" d="M127.843,506.6a8,8,0,0,1,6.2,2.833,7.492,7.492,0,0,1,1.3,2.28,7.562,7.562,0,0,1,2.659,2.021,7.387,7.387,0,0,1,1.65,3.7c2.972.133,8.26.9,11.3,4.51a8.262,8.262,0,0,1,1.878,6.819l-.008.044a9.006,9.006,0,0,1-8.49,7.407,7.47,7.47,0,0,1-2.99-.594,7.019,7.019,0,0,1-.307.919c-.048.139-.1.274-.144.408a4.9,4.9,0,0,0-.279.963l0,.016c-.211,1.177-.367,2.151-.484,2.974a18.975,18.975,0,0,1,2.169,1.682c3.909,3.547,3.952,7.164,3.63,9a9.315,9.315,0,0,1-3.079,5.4,8.9,8.9,0,0,1-5.821,2.246,7.914,7.914,0,0,1-4.448-1.341q-.721.512-1.5.961a18.228,18.228,0,0,1-9.112,2.536A14.192,14.192,0,0,1,111,556.707a10.624,10.624,0,0,1-2.531-8,7.92,7.92,0,0,1-4.446-2.644,7.34,7.34,0,0,1-1.575-5.979,9.377,9.377,0,0,1,2.182-4.448l.048-.057c2.349-2.764,4.05-4.785,5.336-6.343a8.179,8.179,0,0,1-2.167-1.811,7.548,7.548,0,0,1-1.645-6.263,8.613,8.613,0,0,1,8.494-7.118,9.306,9.306,0,0,1,2.943.493q.084.028.166.058a5.248,5.248,0,0,0,.8.042q.161,0,.327-.006c.076-.238.155-.488.238-.753.116-.369.236-.751.365-1.152l.026-.078A8.693,8.693,0,0,1,127.843,506.6Z" transform="translate(8.19 -503.638)" fill="#e18d9f"/>
        <path id="パス_10169" data-name="パス 10169" d="M144.864,532.574a14.3,14.3,0,0,1,2.062,8.715,4.773,4.773,0,0,1-4.342,4.186,3.587,3.587,0,0,1-2.218-.75c-1.437-1.031-5.216-1.937-8.777-1.937s-6.435.968-6.747,2.718c-.281,1.656,1.656,3.686,6.778,3.686a16.51,16.51,0,0,0,3.217-.312,6.57,6.57,0,0,1,1.031-.125c2.093,0,2.936,1.343,2.655,2.78-.625,3.53-4.967,3.592-6.216,3.592-6.528,0-14.244-3.092-13.088-9.683.469-2.561,2.874-7.5,13.869-7.5a47.627,47.627,0,0,1,5.56.375h.687c.875-.094,1.5-.531,1.593-1.124a5.524,5.524,0,0,0-1.187-3l-.781-1.406a47.256,47.256,0,0,1-10.776,1.562,14.631,14.631,0,0,1-1.655-.063,2.78,2.78,0,0,1-2.718-3.374,3.225,3.225,0,0,1,3.467-2.561,2.678,2.678,0,0,1,.687.063c.625.063,1.312.125,2,.125a31.828,31.828,0,0,0,6.747-.812c-.469-1.218-1-2.561-1.468-3.9a47.972,47.972,0,0,1-8.465.843,2.7,2.7,0,0,1-2.9-3.28,2.931,2.931,0,0,1,3.186-2.312h.375a14.66,14.66,0,0,0,1.655.063,29.918,29.918,0,0,0,4.5-.312,20.892,20.892,0,0,0-2.561-5.841,2.981,2.981,0,0,1-.656-2.155c.25-1.5,2.093-2.468,3.811-2.468,2.53,0,3.342,1.406,5,9.09a29.566,29.566,0,0,0,3-1.218,4.574,4.574,0,0,1,1.843-.469,2.42,2.42,0,0,1,2.436,2.936c-.25,1.437-.656,2.155-6.122,3.811a28.863,28.863,0,0,0,1.249,3.842,29.1,29.1,0,0,0,3.748-1.562,4.58,4.58,0,0,1,2.124-.594,2.542,2.542,0,0,1,2.53,3.061c-.312,1.812-2.187,2.718-5.966,4.029l.75,1.218Zm5.466-13.338a16.956,16.956,0,0,0-2.936-3.655,1.8,1.8,0,0,1-.812-1.781,3.059,3.059,0,0,1,2.9-2.187c1.343,0,5.872,3.374,5.466,5.841a3.6,3.6,0,0,1-3.155,2.78,1.527,1.527,0,0,1-1.437-1.031Zm6.622-4.123a14.559,14.559,0,0,0-3.092-3.436,1.686,1.686,0,0,1-.906-1.78,3.058,3.058,0,0,1,2.9-2.187c1.562,0,6,3.374,5.591,5.685a3.434,3.434,0,0,1-3.03,2.686,1.508,1.508,0,0,1-1.437-.968Z" transform="translate(43.802 -501.291)" fill="#e18d9f"/>
        <path id="パス_10170" data-name="パス 10170" d="M135.946,564.126a26.022,26.022,0,0,1-8.294-1.337,16.481,16.481,0,0,1-7.485-4.838,11.8,11.8,0,0,1-2.586-9.79l.007-.039a13.072,13.072,0,0,1,5-8q.363-.277.748-.536a8.3,8.3,0,0,1-1.164-5.972l.006-.031a8.446,8.446,0,0,1,1.375-3.314,8.25,8.25,0,0,1-1.328-6.128l.009-.051a8.179,8.179,0,0,1,6.872-6.591,7.691,7.691,0,0,1-.405-3.778q.009-.062.019-.123a7.95,7.95,0,0,1,3.857-5.493,10.218,10.218,0,0,1,5.238-1.451,8.181,8.181,0,0,1,7.514,4.426,15.056,15.056,0,0,1,.994,2.264,8.606,8.606,0,0,1,6.03-3.4,8.563,8.563,0,0,1,7.14-3.941c3.552,0,7.068,3.058,8.585,4.865,2.413,2.874,2.573,5.45,2.283,7.1a8.872,8.872,0,0,1-7.685,7.09,9.285,9.285,0,0,1-3.895,3.42,8.18,8.18,0,0,1,.124,3.313l0,.029a8.344,8.344,0,0,1-3.942,5.715,18.266,18.266,0,0,1,.877,8.331,10.411,10.411,0,0,1-3.95,6.612,9.943,9.943,0,0,1-4.325,1.887,8.042,8.042,0,0,1-.135,1.791,9.315,9.315,0,0,1-6.389,7.207A15.759,15.759,0,0,1,135.946,564.126Z" transform="translate(40.162 -504.933)" fill="#e18d9f"/>
        <path id="パス_10171" data-name="パス 10171" d="M157.916,516.232a23.871,23.871,0,0,0,2.218-1.062,6.066,6.066,0,0,1,2.468-.656,2.389,2.389,0,0,1,2.468,3c-.406,2.249-1.905,2.842-6.716,4.654.781,1.874,1.656,3.686,2.436,5.341.656,1.218,2.9,6.653,2.405,9.371a3.707,3.707,0,0,1-3.717,3.374,5.253,5.253,0,0,1-3.03-1.062c-.562-.437-2.187-1.593-9.09-1.593-3.686,0-8.028.593-8.5,3.155-.5,2.842,6.06,3.842,10.089,3.842.469,0,.968-.063,1.5-.063,2.374-.125,3.842.968,3.5,2.936-.281,1.656-2.093,3.436-4.935,3.436-5.31,0-17.555-1.562-16.024-10.277.625-3.467,3.623-6.81,8.809-7.778a39.484,39.484,0,0,1,7.622-.656c2.311,0,4.154.094,5.5.156.469,0,.656-.156.718-.5a6.275,6.275,0,0,0-.594-2.718c-.625-1.562-1.468-3.436-2.374-5.341a38.308,38.308,0,0,1-7.84.968c-3.842,0-9.5-1.125-8.84-4.81a3.279,3.279,0,0,1,3.124-2.78,3.89,3.89,0,0,1,1.781.469,10.411,10.411,0,0,0,5.06,1.281,18.779,18.779,0,0,0,4.279-.531c-2.218-5.091-2.249-5.716-2.093-6.747a3.519,3.519,0,0,1,3.5-2.78,2.736,2.736,0,0,1,2.874,2.624,25.443,25.443,0,0,0,1.593,5.31l1.749-.594Z" transform="translate(73.012 -498.849)" fill="#e18d9f"/>
        <path id="パス_10172" data-name="パス 10172" d="M155.28,507.145a8,8,0,0,1,7.975,6.134,10.1,10.1,0,0,1,2.989-.48,7.765,7.765,0,0,1,6.084,2.749,7.969,7.969,0,0,1,1.656,6.556,8.693,8.693,0,0,1-4.095,6.057q-.356.227-.738.437l.127.268h0c.668,1.361,3.688,7.882,2.834,12.6a9.026,9.026,0,0,1-8.99,7.785l-.229,0a8.241,8.241,0,0,1-.021,2.773,9.167,9.167,0,0,1-3.509,5.665,10.84,10.84,0,0,1-6.7,2.216c-3.1,0-13.631-.474-18.752-6.573a11.864,11.864,0,0,1-2.548-9.987l0-.023a14.089,14.089,0,0,1,4.293-7.776,16.409,16.409,0,0,1,4.87-3.143,10.783,10.783,0,0,1-4.386-3,8.119,8.119,0,0,1-1.782-6.74,8.589,8.589,0,0,1,8.4-7.2,8.965,8.965,0,0,1,3.617.773,9.264,9.264,0,0,1,.114-1.747q.009-.062.02-.123A8.818,8.818,0,0,1,155.28,507.145Z" transform="translate(69.369 -502.491)" fill="#e18d9f"/>
      </g>
      <path id="パス_10173" data-name="パス 10173" d="M100.395,546.717H81.653c-3.436,6.372-9,8.84-10.839,8.84a2.528,2.528,0,0,1-2.624-3,3.3,3.3,0,0,1,2.249-2.374c6.122-2.249,7.684-7.34,8.684-13.057l.344-1.937a2.977,2.977,0,0,1,3.092-2.405c1.5,0,2.9.844,2.624,2.53v.219h17.211l.094-.469a3.26,3.26,0,0,1,3.28-2.53c1.374,0,2.749.843,2.436,2.53l-3.092,17.555a3.221,3.221,0,0,1-3.28,2.53c-1.374,0-2.749-.812-2.436-2.53l1.031-5.9ZM84,522.2c-2.436,7.122-7.34,10.652-9.34,10.652a2.011,2.011,0,0,1-2.062-2.311,2.242,2.242,0,0,1,1.125-1.5,12.211,12.211,0,0,0,5.81-6.809l-1.718.062h-.062c-1.406,0-1.937-.906-1.749-1.874a2.451,2.451,0,0,1,2.468-1.874c1.78,0,4.186-.062,6.372-.062,3.436,0,5.872.094,5.185,4.029-1.531,8.684-4.217,9.683-6.809,9.683-2.155,0-2.749-.594-2.5-1.968a2.263,2.263,0,0,1,2.03-2.03h.437c.687,0,.968-.531,1.156-1.031A32.136,32.136,0,0,0,85.4,523.2c.094-.593-.187-1.031-1-1.031h-.437Zm-6.841-5.623c-1.812,0-2.53-1.187-2.311-2.405A3.013,3.013,0,0,1,78,511.827H94.772l.344-1.874a3.679,3.679,0,0,1,3.717-3.092,2.473,2.473,0,0,1,2.624,3.092l-.344,1.874h16.868a1.893,1.893,0,0,1,2,2.343,2.853,2.853,0,0,1-2.842,2.405H77.186Zm24.427,23.365h-17.4c-.187.812-.437,1.593-.687,2.405h17.68l.437-2.405Zm-8.59-17.3a1.459,1.459,0,0,1-1.468-1.031,9.307,9.307,0,0,0-1-1.968.975.975,0,0,1-.187-.75,2.5,2.5,0,0,1,2.436-1.593c1.718,0,3.061,2.624,2.936,3.374A2.862,2.862,0,0,1,92.992,522.634Zm-.156,2.093a2.508,2.508,0,0,1,2.436-2.03l.406-.75a33.953,33.953,0,0,0,2.311-3.9,2.08,2.08,0,0,1,1.843-1.031c1.218,0,2.468.843,2.28,2.03a1.779,1.779,0,0,1-.281.687c-2.655,3.811-3.217,4.342-4.373,4.654v.312L96.3,531.287a2.7,2.7,0,0,1-2.686,2.249,1.849,1.849,0,0,1-1.968-2.249l1.218-6.591Zm18.867-2.843a7.964,7.964,0,0,0,3.842,6.154,1.583,1.583,0,0,1,.781,1.656,3.372,3.372,0,0,1-3.124,2.468c-2.842,0-5.373-5.31-5.529-9.371-.562.094-1.062.219-1.312.219-.437.062-.656.375-.781,1.062l-.562,3.155s1.593-.531,1.812-.531a1.583,1.583,0,0,1,1.468,1.968,1.959,1.959,0,0,1-1.218,1.406,46.138,46.138,0,0,1-7.965,2.343,1.577,1.577,0,0,1-1.656-1.937c.062-.437.469-1.656,2.811-2.03.156-.844.25-1.718.406-2.561.625-3.53,1.093-5.935,4.029-6.466,1.343-.281,6.56-1.437,7.622-1.812a2.927,2.927,0,0,1,1.062-.219,1.837,1.837,0,0,1,1.874,2.187,2.527,2.527,0,0,1-2.124,1.968l-1.437.312Z" transform="translate(-64.412 -503.096)" fill="#fff"/>
      <path id="パス_10174" data-name="パス 10174" d="M129.053,535.531a19.582,19.582,0,0,0,4.061,3.155,1.737,1.737,0,0,1,.843,1.874,3.19,3.19,0,0,1-2.842,2.53c-.812,0-1.124-.062-3.311-1.968-.375.312-3.842,3-5.185,3a1.771,1.771,0,0,1-1.843-2.031,1.945,1.945,0,0,1,1-1.343,21.244,21.244,0,0,0,3.5-2.53,28.943,28.943,0,0,1-1.78-2.718h-8.246c-.875,1.062-1.812,2.03-2.78,3,1.031.812,2.343,1.968,2.093,3.28a2.91,2.91,0,0,1-2.593,2.311,1.959,1.959,0,0,1-1.531-.75,10.162,10.162,0,0,0-1.593-1.656c-2.967,2.187-3.623,2.343-4.154,2.343a1.478,1.478,0,0,1-1.187-.531c-.312,1.812-.687,4.186-.906,5.341v.125a6.353,6.353,0,0,1-6.4,5.31c-3.155,0-3.811-1.562-3.592-2.78a2.51,2.51,0,0,1,2.405-2.187,2.023,2.023,0,0,1,.625.063,5.882,5.882,0,0,0,.937.094q1.281,0,2.624-7.653H95.162c-2.187,7.934-5.935,13.4-8.684,13.4a2.187,2.187,0,0,1-2.249-2.468,2.383,2.383,0,0,1,.718-1.343c4.342-4.342,6.278-11.682,7.559-18.8.531-3.061.968-6.06,1.374-8.777v-.156c.656-3.467,2.9-4.4,7.434-4.4,3.748,0,6.247.687,5.56,4.592l-2.9,16.4a3.921,3.921,0,0,1,.75-.593,27.675,27.675,0,0,0,5.123-4.061l-2.655.094a1.557,1.557,0,0,1-1.687-2.03,2.476,2.476,0,0,1,2.343-2.093h.062l5.341.063c.625-.844,1.218-1.718,1.749-2.561l-5.154.063h-.062a1.588,1.588,0,0,1-1.749-1.937,2.389,2.389,0,0,1,2.468-1.937H111.9a8.65,8.65,0,0,0-1.312-2.561,1.426,1.426,0,0,1-.219-.968,2.751,2.751,0,0,1,2.686-1.812c1.406,0,3.28,2.343,2.967,4.186a2.414,2.414,0,0,1-.531,1.187h1.437a31.137,31.137,0,0,0,1.687-4.779,2.712,2.712,0,0,1,1.843-1.874,1.983,1.983,0,0,1-1.749-2.468h-7.778l-.125.687a3.371,3.371,0,0,1-3.374,2.718c-1.406,0-2.53-.812-2.249-2.468l.156-.968H95.162c-1.937,0-2.655-1.281-2.436-2.561a3.264,3.264,0,0,1,3.342-2.53h10.183l.281-1.562a3.193,3.193,0,0,1,3.217-2.53,2.132,2.132,0,0,1,2.343,2.53l-.281,1.593h7.778l.281-1.593a3.184,3.184,0,0,1,3.186-2.53,2.092,2.092,0,0,1,2.28,2.53l-.281,1.562h10.5c1.874,0,2.561,1.218,2.343,2.468a3.271,3.271,0,0,1-3.249,2.624h-10.5a3.183,3.183,0,0,1-2.343,2.343c1.031.156,1.874.843,1.687,1.937a40.3,40.3,0,0,1-1.968,4.81h2.187a38.239,38.239,0,0,0,2.53-4.342,2.028,2.028,0,0,1,1.905-1.125c1.281,0,2.561.906,2.343,2.155-.062.312-.094.594-2.186,3.311h2.311a1.576,1.576,0,0,1,1.749,1.937,2.357,2.357,0,0,1-2.374,1.937h-.062l-5.091-.063a15.406,15.406,0,0,0,1.093,2.561l6.122-.062h.062a1.665,1.665,0,0,1,1.78,2.093,2.446,2.446,0,0,1-2.436,2.031h-.094l-2.436-.094ZM100.785,533H97.1c-.25,1.437-.5,2.905-.812,4.342h3.748l.75-4.342Zm.718-4.4c.25-1.406.406-2.624.593-3.686.094-.594-.125-1.187-1.656-1.187-1.406,0-1.812.5-1.937,1.187l-.656,3.686Zm3.28,23.677a2.008,2.008,0,0,1-1.937-2.468,2.4,2.4,0,0,1,1.655-1.874,20.952,20.952,0,0,0,6.685-2.905,2.272,2.272,0,0,1,1.124-.375,1.6,1.6,0,0,1,1.468,2.031,3.228,3.228,0,0,1-1.374,1.937c-2.811,1.937-6.06,3.654-7.653,3.654Zm11.307-14.025A2.682,2.682,0,0,1,118.777,536a1.891,1.891,0,0,1,2,2.312c-.281,1.562-1.312,7.184-1.312,7.184-.25,1.406-.781,4.81-.781,4.81v.094c-.5,2.78-2.436,4.592-5.872,4.592s-4.186-1.124-3.936-2.561a2.547,2.547,0,0,1,2.436-2.187,1.213,1.213,0,0,1,.469.063c.625.094,1.093.219,1.406.219.687,0,.875-.312,1-1.062l1.905-11.183Zm5.56-6.653a13.993,13.993,0,0,1-.75-2.686h-1.125c-.531.906-1.062,1.812-1.655,2.686Zm4.717,20.741a13.36,13.36,0,0,0-5.466-3.28,1.537,1.537,0,0,1-1.218-1.812,2.809,2.809,0,0,1,2.686-2.155,16.085,16.085,0,0,1,7.309,2.905,2.332,2.332,0,0,1,.968,2.343,3.173,3.173,0,0,1-2.78,2.624,2.29,2.29,0,0,1-1.5-.656Z" transform="translate(-30.317 -502.905)" fill="#fff"/>
      <path id="パス_10175" data-name="パス 10175" d="M126.181,510.684a10.758,10.758,0,0,1-.968,2.53,8.7,8.7,0,0,0,.937-.468,3.32,3.32,0,0,1,1.749-.531,2.174,2.174,0,0,1,2.28,2.53c-.25,1.343-1.468,3.217-8.059,5.091a170.844,170.844,0,0,1-12.557,17.773,4.461,4.461,0,0,1-3.4,1.781c-1.562,0-2.874-1.031-2.593-2.561a4.21,4.21,0,0,1,1.031-1.937c7.778-9.152,8.621-10.339,10.9-13.806a15.91,15.91,0,0,1-2.624.219c-4.5,0-5.872-1.593-5.56-3.373a3.224,3.224,0,0,1,3.217-2.686,3.9,3.9,0,0,1,1.249.219,7.246,7.246,0,0,0,2.655.375,17.885,17.885,0,0,0,4.217-.531,40.341,40.341,0,0,0,1.812-5.092,3.377,3.377,0,0,1,3.217-2.405,2.389,2.389,0,0,1,2.53,2.9v.063Zm-.875,25.333c.187-1.124.25-1.968.375-3.061l.094-.594c.531-2.936,1.312-5.091,3.842-5.091a2.228,2.228,0,0,1,2.405,2.686,1.408,1.408,0,0,1-.156.531,13.355,13.355,0,0,0-.687,2.343c-.656,3.655-.812,5.529-.937,6.841,2.593,1.187,6.778,3.811,6.247,6.872a3.93,3.93,0,0,1-3.623,3.217,2.661,2.661,0,0,1-2.28-1.281,10.885,10.885,0,0,0-2.062-2.343,13.358,13.358,0,0,1-10.714,5.779c-5.185,0-8.777-3.311-8.121-7.184.781-4.342,6.341-6.872,12.182-6.872a19.494,19.494,0,0,1,3.03.219l.375-2.093Zm-1.593,7.184a10.821,10.821,0,0,0-3.5-.594c-2.155,0-5.06.687-5.341,2.311-.062.281-.094,1.812,3.061,1.812,2.468,0,5.029-1.437,5.654-3.28l.094-.25Zm15.15-16.93a10.97,10.97,0,0,0-6.841-2.249h-.843a1.932,1.932,0,0,1-2-2.405c.5-2.9,3.686-3,5.248-3,4.873,0,9.527,1.812,8.965,5.091a3.667,3.667,0,0,1-3.217,3,1.908,1.908,0,0,1-1.312-.437Z" transform="translate(10.726 -501.079)" fill="#fff"/>
      <path id="パス_10176" data-name="パス 10176" d="M144.322,532.064a14.3,14.3,0,0,1,2.062,8.715,4.772,4.772,0,0,1-4.311,4.186,3.65,3.65,0,0,1-2.218-.75c-1.437-1.031-5.216-1.937-8.777-1.937s-6.435.968-6.747,2.718c-.281,1.656,1.655,3.686,6.778,3.686a16.737,16.737,0,0,0,3.217-.312,6.584,6.584,0,0,1,1.031-.125c2.093,0,2.936,1.343,2.655,2.78-.625,3.53-4.967,3.592-6.216,3.592-6.528,0-14.244-3.092-13.088-9.683.469-2.561,2.874-7.5,13.869-7.5a47.613,47.613,0,0,1,5.56.375h.687c.875-.094,1.5-.531,1.593-1.125a5.524,5.524,0,0,0-1.187-3l-.781-1.406a47.256,47.256,0,0,1-10.776,1.562,14.646,14.646,0,0,1-1.656-.063,2.78,2.78,0,0,1-2.718-3.374,3.225,3.225,0,0,1,3.467-2.561,2.678,2.678,0,0,1,.687.063c.625.063,1.312.094,2.03.094a31.812,31.812,0,0,0,6.747-.812c-.469-1.218-1-2.561-1.468-3.9a47.972,47.972,0,0,1-8.465.843,2.7,2.7,0,0,1-2.9-3.28,2.931,2.931,0,0,1,3.186-2.311h.375a14.675,14.675,0,0,0,1.656.062,29.909,29.909,0,0,0,4.5-.312,20.893,20.893,0,0,0-2.561-5.841,2.981,2.981,0,0,1-.656-2.155c.25-1.5,2.093-2.468,3.811-2.468,2.53,0,3.342,1.406,5,9.121a29.561,29.561,0,0,0,3-1.218,4.574,4.574,0,0,1,1.843-.468,2.42,2.42,0,0,1,2.436,2.936c-.25,1.437-.656,2.155-6.122,3.811a28.852,28.852,0,0,0,1.249,3.842,29.1,29.1,0,0,0,3.748-1.562,4.581,4.581,0,0,1,2.124-.594,2.506,2.506,0,0,1,2.5,3.061c-.312,1.812-2.187,2.718-5.966,4.029l.75,1.218Zm5.466-13.338a16.958,16.958,0,0,0-2.936-3.655,1.8,1.8,0,0,1-.812-1.781,3.059,3.059,0,0,1,2.9-2.187c1.343,0,5.872,3.374,5.466,5.841a3.6,3.6,0,0,1-3.155,2.78,1.527,1.527,0,0,1-1.437-1.031Zm6.622-4.123a14.562,14.562,0,0,0-3.092-3.436,1.686,1.686,0,0,1-.906-1.78,3.059,3.059,0,0,1,2.9-2.187c1.562,0,6,3.374,5.591,5.685a3.434,3.434,0,0,1-3.03,2.686,1.508,1.508,0,0,1-1.437-.968Z" transform="translate(42.719 -502.374)" fill="#fff"/>
      <path id="パス_10177" data-name="パス 10177" d="M157.4,515.712a23.854,23.854,0,0,0,2.218-1.062,6.063,6.063,0,0,1,2.468-.656,2.389,2.389,0,0,1,2.468,3c-.406,2.249-1.905,2.843-6.716,4.654.781,1.874,1.656,3.686,2.436,5.341.656,1.218,2.9,6.653,2.405,9.371a3.707,3.707,0,0,1-3.717,3.374,5.253,5.253,0,0,1-3.03-1.062c-.562-.437-2.187-1.593-9.09-1.593-3.686,0-8.028.594-8.5,3.155-.5,2.842,6.06,3.842,10.089,3.842.469,0,.968-.062,1.5-.062,2.374-.125,3.842.968,3.5,2.936-.281,1.656-2.093,3.436-4.935,3.436-5.31,0-17.555-1.562-16.024-10.277.625-3.467,3.623-6.81,8.809-7.778a39.494,39.494,0,0,1,7.622-.656c2.311,0,4.154.094,5.5.156.469,0,.656-.156.718-.469a6.469,6.469,0,0,0-.593-2.749c-.625-1.562-1.5-3.436-2.374-5.342a38.3,38.3,0,0,1-7.84.968c-3.842,0-9.5-1.124-8.84-4.81a3.279,3.279,0,0,1,3.124-2.78,3.889,3.889,0,0,1,1.78.469,10.412,10.412,0,0,0,5.06,1.281,18.779,18.779,0,0,0,4.279-.531c-2.218-5.092-2.249-5.716-2.093-6.747a3.519,3.519,0,0,1,3.5-2.78,2.736,2.736,0,0,1,2.874,2.624,25.447,25.447,0,0,0,1.593,5.31l1.749-.594Z" transform="translate(71.908 -499.953)" fill="#fff"/>
    </g>
  </g>
</svg>
