<svg xmlns="http://www.w3.org/2000/svg" width="120.343" height="32" viewBox="0 0 120.343 32">
  <g id="グループ_3859" data-name="グループ 3859" transform="translate(72.401 -40.322)">
    <path id="パス_10156" data-name="パス 10156" d="M1.6-.039C3.388-.155,4.866-.194,6.071-.194c.894,0,2.411.078,4.628.194V-1.59C7.7-1.745,7.121-3.3,7.121-7.213V-20.166L15.443-.077H17.27l7.972-19.584V-5.429c0,2.792-.194,3.529-3.5,3.839V-.039c2.45-.116,4.433-.155,5.989-.155,1.905,0,4.316.078,7.272.194V-1.551c-3.111-.116-3.85-.892-3.85-3.452V-20.825c0-2.909.544-3.839,3.85-3.878v-1.512c-2.139.078-4.044.155-5.794.155q-1.808,0-3.616-.116L18.4-8.144,10.776-26.177c-1.828.078-3.616.116-5.405.116-1.4,0-2.644,0-3.772-.116v1.435c1.672.078,2.8.427,3.461,1.28V-7.213c0,3.956-.467,5.507-3.461,5.584ZM39.631-8.57c0,5.2,3.966,8.958,9.527,8.958,5.872,0,9.8-3.723,9.8-9.269,0-5.08-3.889-8.765-9.45-8.765C43.6-17.645,39.631-13.806,39.631-8.57Zm5.872.078c0-5.119,1.128-7.524,3.889-7.524,2.605,0,3.733,2.327,3.733,7.1,0,5.235-.972,7.679-3.772,7.679C46.358-1.241,45.5-3.529,45.5-8.493ZM70.973.117h1.672l6.222-13.651a3.481,3.481,0,0,1,2.761-2.4V-17.3c-1.594.039-2.994.078-4.2.078-.856,0-1.75,0-2.605-.078v1.357c1.517.194,2.061.31,2.061,1.241A18.4,18.4,0,0,1,75.1-9.23L73.7-6.166,70.39-13.883a3.03,3.03,0,0,1-.233-1.008c0-.7.661-.931,2.1-1.047V-17.3c-1.205.039-3.811.116-7.855.116-.544,0-1.244-.039-2.139-.078V-15.9c1.361.116,1.983.931,2.683,2.521ZM85.167-.039c1.711-.078,3.578-.116,5.561-.116.778,0,2.372.039,4.861.116V-1.512c-2.061-.116-2.45-.427-2.45-2.055V-17.762h-.583A35.62,35.62,0,0,1,85.167-16.4v1.357c1.983.078,2.45.465,2.45,2.327v9.152c0,1.59-.35,1.939-2.45,2.055Zm2.022-24.626a2.95,2.95,0,0,0,2.955,2.947A2.95,2.95,0,0,0,93.1-24.665a2.926,2.926,0,0,0-2.955-2.947A2.926,2.926,0,0,0,87.189-24.665Zm28.776,20.05A10.492,10.492,0,0,1,114.1-2.831a5.159,5.159,0,0,1-2.839.814c-3.267,0-5.133-2.288-5.133-6.632,0-.233.039-.5.039-.776H117.6v-.31c0-5.08-2.878-7.95-7.739-7.95-5.794,0-9.644,3.839-9.644,9.191,0,5.2,3.811,8.881,9.294,8.881a8.781,8.781,0,0,0,7.777-3.839Zm-9.8-6.632c.272-3.219,1.361-4.809,3.422-4.809,1.905,0,2.955,1.512,2.955,4.343v.465Z" transform="translate(-72 69.934)" fill="#fff" stroke="#e8aeb8" stroke-width="4"/>
    <path id="パス_10155" data-name="パス 10155" d="M1.6-.039C3.388-.155,4.866-.194,6.071-.194c.894,0,2.411.078,4.628.194V-1.59C7.7-1.745,7.121-3.3,7.121-7.213V-20.166L15.443-.077H17.27l7.972-19.584V-5.429c0,2.792-.194,3.529-3.5,3.839V-.039c2.45-.116,4.433-.155,5.989-.155,1.905,0,4.316.078,7.272.194V-1.551c-3.111-.116-3.85-.892-3.85-3.452V-20.825c0-2.909.544-3.839,3.85-3.878v-1.512c-2.139.078-4.044.155-5.794.155q-1.808,0-3.616-.116L18.4-8.144,10.776-26.177c-1.828.078-3.616.116-5.405.116-1.4,0-2.644,0-3.772-.116v1.435c1.672.078,2.8.427,3.461,1.28V-7.213c0,3.956-.467,5.507-3.461,5.584ZM39.631-8.57c0,5.2,3.966,8.958,9.527,8.958,5.872,0,9.8-3.723,9.8-9.269,0-5.08-3.889-8.765-9.45-8.765C43.6-17.645,39.631-13.806,39.631-8.57Zm5.872.078c0-5.119,1.128-7.524,3.889-7.524,2.605,0,3.733,2.327,3.733,7.1,0,5.235-.972,7.679-3.772,7.679C46.358-1.241,45.5-3.529,45.5-8.493ZM70.973.117h1.672l6.222-13.651a3.481,3.481,0,0,1,2.761-2.4V-17.3c-1.594.039-2.994.078-4.2.078-.856,0-1.75,0-2.605-.078v1.357c1.517.194,2.061.31,2.061,1.241A18.4,18.4,0,0,1,75.1-9.23L73.7-6.166,70.39-13.883a3.03,3.03,0,0,1-.233-1.008c0-.7.661-.931,2.1-1.047V-17.3c-1.205.039-3.811.116-7.855.116-.544,0-1.244-.039-2.139-.078V-15.9c1.361.116,1.983.931,2.683,2.521ZM85.167-.039c1.711-.078,3.578-.116,5.561-.116.778,0,2.372.039,4.861.116V-1.512c-2.061-.116-2.45-.427-2.45-2.055V-17.762h-.583A35.62,35.62,0,0,1,85.167-16.4v1.357c1.983.078,2.45.465,2.45,2.327v9.152c0,1.59-.35,1.939-2.45,2.055Zm2.022-24.626a2.95,2.95,0,0,0,2.955,2.947A2.95,2.95,0,0,0,93.1-24.665a2.926,2.926,0,0,0-2.955-2.947A2.926,2.926,0,0,0,87.189-24.665Zm28.776,20.05A10.492,10.492,0,0,1,114.1-2.831a5.159,5.159,0,0,1-2.839.814c-3.267,0-5.133-2.288-5.133-6.632,0-.233.039-.5.039-.776H117.6v-.31c0-5.08-2.878-7.95-7.739-7.95-5.794,0-9.644,3.839-9.644,9.191,0,5.2,3.811,8.881,9.294,8.881a8.781,8.781,0,0,0,7.777-3.839Zm-9.8-6.632c.272-3.219,1.361-4.809,3.422-4.809,1.905,0,2.955,1.512,2.955,4.343v.465Z" transform="translate(-72 69.934)" fill="#fff"/>
  </g>
</svg>
