<svg xmlns="http://www.w3.org/2000/svg" xmlns:xlink="http://www.w3.org/1999/xlink" width="152.236" height="27.512" viewBox="0 0 152.236 27.512">
  <defs>
    <clipPath id="clip-path">
      <rect id="長方形_1098" data-name="長方形 1098" width="50.189" height="13.339" transform="translate(43.887 327.641)" fill="none"/>
    </clipPath>
    <clipPath id="clip-path-2">
      <rect id="長方形_1101" data-name="長方形 1101" width="50.189" height="13.339" transform="translate(94.91 327.641)" fill="none"/>
    </clipPath>
    <clipPath id="clip-path-3">
      <rect id="長方形_1104" data-name="長方形 1104" width="50.189" height="13.339" transform="translate(145.934 327.641)" fill="none"/>
    </clipPath>
    <clipPath id="clip-path-4">
      <rect id="長方形_1107" data-name="長方形 1107" width="50.189" height="13.339" transform="translate(43.887 313.468)" fill="none"/>
    </clipPath>
    <clipPath id="clip-path-5">
      <rect id="長方形_1110" data-name="長方形 1110" width="50.189" height="13.339" transform="translate(94.91 313.468)" fill="none"/>
    </clipPath>
    <clipPath id="clip-path-6">
      <rect id="長方形_1113" data-name="長方形 1113" width="50.189" height="13.339" transform="translate(145.934 313.468)" fill="none"/>
    </clipPath>
  </defs>
  <g id="spec" transform="translate(-43.887 -313.468)">
    <g id="グループ_3337" data-name="グループ 3337">
      <g id="グループ_3335" data-name="グループ 3335" opacity="0.8">
        <g id="グループ_3334" data-name="グループ 3334">
          <g id="グループ_3333" data-name="グループ 3333" clip-path="url(#clip-path)">
            <path id="長方形_1097" data-name="長方形 1097" d="M2.055,0H46.133a2.056,2.056,0,0,1,2.056,2.056V9.284a2.055,2.055,0,0,1-2.055,2.055H2.055A2.055,2.055,0,0,1,0,9.284V2.055A2.055,2.055,0,0,1,2.055,0Z" transform="translate(44.887 328.641)" fill="#fff"/>
          </g>
        </g>
      </g>
      <path id="パス_9433" data-name="パス 9433" d="M50.305,337.139c-.453,0-1.523-.008-1.586-1.02-.022-.34-.036-.906-.036-1.494,0-.772.021-1.579.043-1.954.056-1.02.778-1.048,1.692-1.048.219,0,.432.007.538.014a2.6,2.6,0,0,1,2.577,2.733,2.529,2.529,0,0,1-2.641,2.761C50.8,337.139,50.538,337.139,50.305,337.139Zm.608-4.631h-.028c-.035,0-.4-.014-.658-.014-.177,0-.567,0-.6.318-.022.3-.043,1.112-.043,1.863a12.079,12.079,0,0,0,.043,1.281c.042.326.375.326.892.326.722,0,2.053-.064,2.053-1.912A1.69,1.69,0,0,0,50.913,332.508Z" fill="#dc6b8c"/>
      <path id="パス_9434" data-name="パス 9434" d="M55.641,336.678a.442.442,0,0,1-.489.425.43.43,0,0,1-.481-.418v-.014c.015-.85.036-1.82.036-2.747,0-.644-.008-1.275-.036-1.826-.014-.3.255-.425.489-.425a.431.431,0,0,1,.481.4v.014c-.021.6-.028,1.274-.028,1.982,0,.857.014,1.763.028,2.606Z" fill="#dc6b8c"/>
      <path id="パス_9435" data-name="パス 9435" d="M60.6,337.1a.478.478,0,0,1-.461-.3c-.085-.206-.247-.723-.46-1.381-.014-.035-.035-.064-.064-.064-.113-.007-.382-.007-.679-.007-.4,0-.843,0-.992.007a.093.093,0,0,0-.078.057l-.438,1.359a.456.456,0,0,1-.453.326.438.438,0,0,1-.468-.4.543.543,0,0,1,.021-.142c.411-1.252,1.232-3.433,1.565-4.382a.721.721,0,0,1,.673-.517.76.76,0,0,1,.708.524c.424,1.19,1.331,3.654,1.571,4.241a.6.6,0,0,1,.05.234A.464.464,0,0,1,60.6,337.1Zm-1.707-4.114c-.049-.141-.078-.219-.106-.219a11.587,11.587,0,0,0-.609,1.692c0,.021.021.035.05.035.134,0,.361.008.573.008s.425-.008.524-.008c.035,0,.05,0,.05-.021S58.9,333,58.893,332.989Z" fill="#dc6b8c"/>
      <path id="パス_9436" data-name="パス 9436" d="M65.059,331.686a.811.811,0,0,1,.878.815c.006.085.006.2.006.333,0,.545-.028,1.458-.028,2.471,0,.446.007.913.022,1.373v.021a.42.42,0,0,1-.46.418.453.453,0,0,1-.489-.446c0-.644.035-2.074.035-2.988,0-.949-.014-1.069-.233-1.069h-.085a.4.4,0,0,1-.4-.432.464.464,0,0,1,.411-.5Z" fill="#dc6b8c"/>
      <path id="パス_9437" data-name="パス 9437" d="M70.472,336.671v.014a.408.408,0,0,1-.425.425.429.429,0,0,1-.446-.439c0-.248.006-.538.006-.765H68.185c-.517,0-.772-.255-.772-.587a1.025,1.025,0,0,1,.212-.581c.425-.6,1.579-2.209,2.089-2.91a.423.423,0,0,1,.347-.184.474.474,0,0,1,.474.446.514.514,0,0,1-.12.319c-1.3,1.656-2.039,2.612-2.039,2.662s.049.064.24.064c.227,0,.616-.015,1-.022.007-.247.007-.495.007-.7,0-.148,0-.269-.007-.347v-.035a.413.413,0,0,1,.425-.431.423.423,0,0,1,.432.459c0,.333-.022.574-.022,1.034.2-.007.39-.014.425-.014H70.9a.4.4,0,0,1,.418.4.433.433,0,0,1-.474.418c-.085,0-.234.007-.383.007C70.457,336.076,70.464,336.352,70.472,336.671Z" fill="#dc6b8c"/>
      <path id="パス_9438" data-name="パス 9438" d="M71.991,336.565a.534.534,0,0,1,.545-.538.542.542,0,0,1,.545.53.561.561,0,0,1-.545.553A.51.51,0,0,1,71.991,336.565Z" fill="#dc6b8c"/>
      <path id="パス_9439" data-name="パス 9439" d="M75.674,337.139c-.736,0-1.593-.355-1.593-.843a.439.439,0,0,1,.411-.453.429.429,0,0,1,.283.106,1.525,1.525,0,0,0,.934.34,1,1,0,0,0,1.069-1.02.836.836,0,0,0-.9-.871,1.705,1.705,0,0,0-.5.078,1.237,1.237,0,0,1-.312.106c-.035,0-.071.008-.106.008-.361,0-.588-.157-.588-.546,0-.149.142-1.076.262-1.756a.629.629,0,0,1,.722-.608h.05c.142.006.227.006,1.451.006a.418.418,0,0,1,.432.44.4.4,0,0,1-.417.417c-.2,0-1.112-.014-1.324-.014-.107,0-.163.071-.177.184-.036.241-.128.7-.149.843v.043c0,.056.014.07.043.07s.106-.028.191-.042a2.349,2.349,0,0,1,.46-.043,1.636,1.636,0,0,1,1.741,1.685A1.86,1.86,0,0,1,75.674,337.139Z" fill="#dc6b8c"/>
      <path id="パス_9440" data-name="パス 9440" d="M82.695,336.7c.007-.276.007-.771.007-1.2,0-.312,0-.588-.007-.7-.021-.375-.213-.531-.439-.531a.9.9,0,0,0-.786.849c-.007.128-.007.262-.007.44,0,.254.007.6.021,1.153v.015a.389.389,0,0,1-.4.41.38.38,0,0,1-.382-.417v-.008c.007-.275.007-.778.007-1.2,0-.319,0-.6-.007-.708-.021-.383-.213-.538-.433-.538a.889.889,0,0,0-.778.842c-.007.127-.007.255-.007.432,0,.255.007.6.021,1.168a.394.394,0,0,1-.4.432.4.4,0,0,1-.4-.425v-.014c.014-.46.021-1.054.021-1.677,0-.369-.007-.737-.007-1.105a.388.388,0,0,1,.4-.4.392.392,0,0,1,.4.333c.007.021.007.035.014.035s.014-.007.029-.021a1.1,1.1,0,0,1,.8-.361,1.05,1.05,0,0,1,.963.658,1.279,1.279,0,0,1,1.063-.636,1.147,1.147,0,0,1,1.1,1.231c.007.241.014.821.014,1.324,0,.227,0,.447-.007.609a.412.412,0,0,1-.4.453.4.4,0,0,1-.4-.425Z" fill="#dc6b8c"/>
      <path id="パス_9441" data-name="パス 9441" d="M88.534,336.7c.008-.276.008-.771.008-1.2,0-.312,0-.588-.008-.7-.021-.375-.212-.531-.438-.531a.9.9,0,0,0-.786.849c-.007.128-.007.262-.007.44,0,.254.007.6.021,1.153v.015a.39.39,0,0,1-.4.41.381.381,0,0,1-.382-.417v-.008c.007-.275.007-.778.007-1.2,0-.319,0-.6-.007-.708-.022-.383-.212-.538-.432-.538a.889.889,0,0,0-.779.842c-.007.127-.007.255-.007.432,0,.255.007.6.022,1.168a.4.4,0,0,1-.4.432.4.4,0,0,1-.4-.425v-.014c.015-.46.022-1.054.022-1.677,0-.369-.007-.737-.007-1.105a.4.4,0,0,1,.8-.071c.007.021.007.035.015.035s.014-.007.028-.021a1.1,1.1,0,0,1,.8-.361,1.051,1.051,0,0,1,.963.658,1.277,1.277,0,0,1,1.062-.636,1.147,1.147,0,0,1,1.1,1.231c.007.241.015.821.015,1.324,0,.227,0,.447-.008.609a.412.412,0,0,1-.4.453.4.4,0,0,1-.4-.425Z" fill="#dc6b8c"/>
    </g>
    <g id="グループ_3345" data-name="グループ 3345">
      <g id="グループ_3343" data-name="グループ 3343" opacity="0.8">
        <g id="グループ_3342" data-name="グループ 3342">
          <g id="グループ_3341" data-name="グループ 3341" clip-path="url(#clip-path-2)">
            <path id="長方形_1100" data-name="長方形 1100" d="M2.055,0H46.133a2.056,2.056,0,0,1,2.056,2.056V9.284a2.055,2.055,0,0,1-2.055,2.055H2.055A2.055,2.055,0,0,1,0,9.284V2.055A2.055,2.055,0,0,1,2.055,0Z" transform="translate(95.91 328.641)" fill="#fff"/>
          </g>
        </g>
      </g>
      <path id="パス_9442" data-name="パス 9442" d="M104.708,337.145c-.885,0-1.636-.056-1.671-.941-.015-.291-.015-.814-.015-1.388,0-.857.008-1.82.022-2.259.021-.92.843-.927,1.451-.927.163,0,.319.007.425.014,1.211.078,1.664.715,1.664,1.324a1.1,1.1,0,0,1-.856,1.119c-.079.007-.121.021-.121.035s.028.028.113.036a1.242,1.242,0,0,1,1.176,1.3,1.743,1.743,0,0,1-1.834,1.679C104.984,337.139,104.85,337.145,104.708,337.145Zm1.253-1.77c0-.382-.255-.75-.864-.8-.177-.014-.34-.021-.51-.021-.608,0-.687.021-.687.156v.68c0,.92,0,.941.744.941.134,0,.283-.007.46-.014A.939.939,0,0,0,105.961,335.375Zm-1.119-2.909c-.007,0-.177-.008-.347-.008-.446,0-.559.071-.573.276-.014.17-.007.5-.014.9,0,.141.071.148.538.148.156,0,.319,0,.446-.007a.782.782,0,0,0,.757-.736C105.649,332.742,105.416,332.466,104.842,332.466Z" fill="#dc6b8c"/>
      <path id="パス_9443" data-name="パス 9443" d="M110.461,337.174a2.641,2.641,0,0,1-2.768-2.733,2.743,2.743,0,0,1,2.8-2.832c1.1,0,1.926.644,1.926,1.076a.515.515,0,0,1-.51.5.527.527,0,0,1-.411-.213,1.4,1.4,0,0,0-1.1-.46,1.775,1.775,0,0,0-1.756,1.876,1.754,1.754,0,0,0,1.784,1.855,1.552,1.552,0,0,0,1.26-.552.467.467,0,0,1,.375-.206.589.589,0,0,1,.56.546C112.628,336.409,111.764,337.174,110.461,337.174Z" fill="#dc6b8c"/>
      <path id="パス_9444" data-name="パス 9444" d="M118.929,335.474a1.922,1.922,0,0,1-3.816,0,1.559,1.559,0,0,1,.835-1.394,1.185,1.185,0,0,1-.58-1.076,1.476,1.476,0,0,1,1.65-1.4,1.492,1.492,0,0,1,1.656,1.416,1.289,1.289,0,0,1-.58,1.063A1.473,1.473,0,0,1,118.929,335.474Zm-1.911-.934a.945.945,0,0,0-1.027.934,1.047,1.047,0,0,0,2.06,0A.911.911,0,0,0,117.018,334.54Zm0-2.131a.707.707,0,0,0-.78.637c0,.517.368.673.751.673.212,0,.814-.043.814-.666A.717.717,0,0,0,117.018,332.409Z" fill="#dc6b8c"/>
      <path id="パス_9445" data-name="パス 9445" d="M119.8,336.565a.535.535,0,0,1,.546-.538.542.542,0,0,1,.545.53.562.562,0,0,1-.545.553A.511.511,0,0,1,119.8,336.565Z" fill="#dc6b8c"/>
      <path id="パス_9446" data-name="パス 9446" d="M123.579,337.124a1.793,1.793,0,0,1-1.848-1.855,3.758,3.758,0,0,1,.5-1.713c.283-.524,1.374-1.912,1.869-1.912a.506.506,0,0,1,.474.482.349.349,0,0,1-.163.3,5.577,5.577,0,0,0-1.429,1.459.026.026,0,0,0,.028.028.063.063,0,0,0,.035-.007,1.743,1.743,0,0,1,.666-.128,1.593,1.593,0,0,1,1.691,1.608A1.713,1.713,0,0,1,123.579,337.124Zm.022-2.612a.967.967,0,0,0-1.006.934.877.877,0,0,0,.963.857.928.928,0,0,0,1-.913A.894.894,0,0,0,123.6,334.512Z" fill="#dc6b8c"/>
      <path id="パス_9447" data-name="パス 9447" d="M130.408,336.7c.008-.276.008-.771.008-1.2,0-.312,0-.588-.008-.7-.021-.375-.212-.531-.438-.531a.9.9,0,0,0-.786.849c-.007.128-.007.262-.007.44,0,.254.007.6.02,1.153v.015a.389.389,0,0,1-.4.41.381.381,0,0,1-.382-.417v-.008c.007-.275.007-.778.007-1.2,0-.319,0-.6-.007-.708-.022-.383-.212-.538-.432-.538a.889.889,0,0,0-.779.842c-.007.127-.007.255-.007.432,0,.255.007.6.022,1.168a.4.4,0,0,1-.4.432.4.4,0,0,1-.4-.425v-.014c.015-.46.022-1.054.022-1.677,0-.369-.007-.737-.007-1.105a.4.4,0,0,1,.8-.071c.007.021.007.035.015.035s.014-.007.027-.021a1.1,1.1,0,0,1,.8-.361,1.051,1.051,0,0,1,.963.658,1.277,1.277,0,0,1,1.062-.636,1.147,1.147,0,0,1,1.1,1.231c.008.241.015.821.015,1.324,0,.227,0,.447-.007.609a.413.413,0,0,1-.4.453.4.4,0,0,1-.4-.425Z" fill="#dc6b8c"/>
      <path id="パス_9448" data-name="パス 9448" d="M136.248,336.7c.008-.276.008-.771.008-1.2,0-.312,0-.588-.008-.7-.021-.375-.212-.531-.438-.531a.9.9,0,0,0-.787.849c-.006.128-.006.262-.006.44,0,.254.006.6.02,1.153v.015a.389.389,0,0,1-.4.41.381.381,0,0,1-.382-.417v-.008c.007-.275.007-.778.007-1.2,0-.319,0-.6-.007-.708-.022-.383-.212-.538-.432-.538a.889.889,0,0,0-.779.842c-.007.127-.007.255-.007.432,0,.255.007.6.021,1.168a.394.394,0,0,1-.4.432.4.4,0,0,1-.4-.425v-.014c.015-.46.021-1.054.021-1.677,0-.369-.006-.737-.006-1.105a.4.4,0,0,1,.8-.071c.007.021.007.035.015.035s.014-.007.027-.021a1.1,1.1,0,0,1,.8-.361,1.051,1.051,0,0,1,.963.658,1.276,1.276,0,0,1,1.062-.636,1.147,1.147,0,0,1,1.1,1.231c.008.241.015.821.015,1.324,0,.227,0,.447-.007.609a.413.413,0,0,1-.4.453.4.4,0,0,1-.4-.425Z" fill="#dc6b8c"/>
    </g>
    <g id="グループ_3353" data-name="グループ 3353">
      <g id="グループ_3351" data-name="グループ 3351" opacity="0.8">
        <g id="グループ_3350" data-name="グループ 3350">
          <g id="グループ_3349" data-name="グループ 3349" clip-path="url(#clip-path-3)">
            <path id="長方形_1103" data-name="長方形 1103" d="M2.055,0H46.133a2.056,2.056,0,0,1,2.056,2.056V9.284a2.055,2.055,0,0,1-2.055,2.055H2.055A2.055,2.055,0,0,1,0,9.284V2.055A2.055,2.055,0,0,1,2.055,0Z" transform="translate(146.934 328.641)" fill="#fff"/>
          </g>
        </g>
      </g>
      <path id="パス_9449" data-name="パス 9449" d="M154.155,333.35a.333.333,0,0,1-.361-.318,4.557,4.557,0,0,1-1.558.97.394.394,0,0,1-.382-.4.381.381,0,0,1,.241-.362,7.667,7.667,0,0,0,2.251-1.727.852.852,0,0,1,.637-.312,1.046,1.046,0,0,1,.7.318,8.481,8.481,0,0,0,2.322,1.53.347.347,0,0,1,.226.333.438.438,0,0,1-.439.431,4.473,4.473,0,0,1-1.536-.884.408.408,0,0,1,.013.091.331.331,0,0,1-.36.333Zm2.181,1.742a.735.735,0,0,1,.8.631c.007.12.014.283.014.445s-.007.326-.014.453a.745.745,0,0,1-.822.729c-.41.015-.856.022-1.295.022s-.871-.007-1.26-.022c-.531-.021-.829-.3-.836-.721,0-.121-.007-.277-.007-.432s.007-.3.007-.4c.007-.325.233-.68.821-.7.163-.007.27-.007,1.516-.007.049-.049.46-.51.46-.7,0-.042-.022-.071-.107-.071h-.353c-.688,0-1.771.022-1.771.022h-.007a.323.323,0,0,1-.346-.333.334.334,0,0,1,.353-.34s.878-.021,1.657-.021c.305,0,.6.007.807.014.39.014.616.227.616.538a2.071,2.071,0,0,1-.411.9Zm0,1.1a1.962,1.962,0,0,0-.008-.227c-.014-.247-.1-.247-1.2-.247-.4,0-.8.006-1.133.013-.276.008-.3.17-.3.461,0,.077.007.17.007.24.007.255.092.255,1.3.255.36,0,.722-.007,1.04-.014C156.328,336.664,156.336,336.536,156.336,336.2Zm-.425-3.512c.014,0,.035.007.05.007-.276-.234-.539-.474-.766-.694a.226.226,0,0,0-.155-.085.207.207,0,0,0-.142.085,9.071,9.071,0,0,1-.7.687Z" fill="#dc6b8c"/>
      <path id="パス_9450" data-name="パス 9450" d="M159,336.317A.366.366,0,0,1,159.2,336a3.863,3.863,0,0,0,1.572-2.251c0-.043-.021-.057-.071-.057h-.148c-.333,0-.765.014-.956.022h-.014a.328.328,0,0,1-.333-.355.35.35,0,0,1,.325-.375c.2-.007.623-.014.991-.014.623,0,1.056.014,1.056.5a1.49,1.49,0,0,1-.05.326c-.368,1.508-1.692,2.93-2.145,2.93A.439.439,0,0,1,159,336.317Zm2.811-4.623a.386.386,0,0,1,.4-.389.371.371,0,0,1,.39.389v.247a4.395,4.395,0,0,0,.446,1.643,8.168,8.168,0,0,0,1.26-.977.357.357,0,0,1,.262-.106.467.467,0,0,1,.453.431.406.406,0,0,1-.177.327,9.6,9.6,0,0,1-1.465.955,4.413,4.413,0,0,0,1.684,1.685.415.415,0,0,1,.255.368.456.456,0,0,1-.466.439c-.518,0-1.58-1.005-2.266-2.612l.014,1.345.013.935v.028c0,.658-.4,1.069-1.266,1.069-.793,0-.921-.17-.921-.439a.4.4,0,0,1,.361-.425.419.419,0,0,1,.092.014,1.958,1.958,0,0,0,.453.064c.326,0,.475-.141.475-.446Z" fill="#dc6b8c"/>
      <path id="パス_9451" data-name="パス 9451" d="M169.717,336.161l.007,1.048a.358.358,0,0,1-.4.333.348.348,0,0,1-.39-.333l.007-1.048-2.294.007a.352.352,0,0,1-.4-.34.389.389,0,0,1,.4-.389l2.287.007v-.078a.349.349,0,0,1,.39-.34.355.355,0,0,1,.4.34v.078l2.315-.007a.364.364,0,0,1,.375.375.348.348,0,0,1-.375.354Zm1.153-1.515a.367.367,0,0,1,.036.142.4.4,0,0,1-.383.368c-.163,0-.219-.128-.283-.319a11.47,11.47,0,0,1-2.032.269.289.289,0,0,1-.312-.29.282.282,0,0,1,.05-.163,2.864,2.864,0,0,1-1.147.5.357.357,0,0,1-.361-.361.314.314,0,0,1,.255-.319,4.263,4.263,0,0,0,1.218-.5.309.309,0,0,1,.17-.05.3.3,0,0,1,.283.3.312.312,0,0,1-.149.261l-.084.057a.258.258,0,0,1,.077-.007l.093-.007a.2.2,0,0,1,.084-.093,4.3,4.3,0,0,0,.376-.275,2.471,2.471,0,0,0-.623-.553.355.355,0,0,1-.078-.063.379.379,0,0,1-.347.34.338.338,0,0,1-.227-.1,2.712,2.712,0,0,0-.552-.368.25.25,0,0,1-.156-.233.375.375,0,0,1,.361-.347,2.063,2.063,0,0,1,.793.389.276.276,0,0,1,.064.071.332.332,0,0,1,.318-.262.4.4,0,0,1,.192.057,2.441,2.441,0,0,0,.3-.411l-1.94.014h-.008a.369.369,0,1,1,.008-.736l2.053.014-.007-.4v-.007a.382.382,0,0,1,.418-.375.389.389,0,0,1,.425.375v.4l2.124-.014a.368.368,0,1,1,0,.736l-2.379-.014a.179.179,0,0,1,.014.085,1.863,1.863,0,0,1-.517.7c.078.078.156.163.227.248a5.055,5.055,0,0,0,.523-.666.318.318,0,0,1,.27-.142.354.354,0,0,1,.368.319c0,.283-.751.963-1.126,1.246.241-.021.474-.057.715-.092-.162-.2-.162-.2-.162-.262,0-.148.176-.262.332-.262.064,0,.248.014.616.588a.2.2,0,0,1-.007-.064.351.351,0,0,1,.375-.325,2.3,2.3,0,0,1,.956.417.417.417,0,0,1,.177.326.38.38,0,0,1-.354.382.376.376,0,0,1-.261-.106,2.315,2.315,0,0,0-.68-.425.351.351,0,0,1-.135-.085Zm-.155-.644a.357.357,0,0,1-.348-.34.25.25,0,0,1,.156-.233,3.716,3.716,0,0,0,.787-.581.369.369,0,0,1,.261-.121.41.41,0,0,1,.382.4.367.367,0,0,1-.141.283A3.588,3.588,0,0,1,170.715,334Z" fill="#dc6b8c"/>
      <path id="パス_9452" data-name="パス 9452" d="M176.451,334.1a.422.422,0,0,1,.41-.425h.213c.389-.014.559-.255.559-.644v-.021a.616.616,0,0,0-.672-.56.951.951,0,0,0-.7.326.443.443,0,0,1-.3.127.464.464,0,0,1-.446-.453c0-.353.643-.842,1.486-.842a1.384,1.384,0,0,1,1.522,1.408,1.136,1.136,0,0,1-.516,1.041,1.488,1.488,0,0,1,.778,1.367,1.744,1.744,0,0,1-1.883,1.742c-1.062,0-1.734-.61-1.734-.97a.5.5,0,0,1,.48-.489.441.441,0,0,1,.313.141,1.117,1.117,0,0,0,.976.44.914.914,0,0,0,.957-.885.771.771,0,0,0-.872-.878h-.148A.435.435,0,0,1,176.451,334.1Z" fill="#dc6b8c"/>
      <path id="パス_9453" data-name="パス 9453" d="M183.479,335.474a1.922,1.922,0,0,1-3.817,0,1.557,1.557,0,0,1,.836-1.394,1.185,1.185,0,0,1-.58-1.076,1.475,1.475,0,0,1,1.649-1.4,1.492,1.492,0,0,1,1.657,1.416,1.289,1.289,0,0,1-.58,1.063A1.475,1.475,0,0,1,183.479,335.474Zm-1.912-.934a.945.945,0,0,0-1.026.934,1.047,1.047,0,0,0,2.06,0A.912.912,0,0,0,181.567,334.54Zm0-2.131a.706.706,0,0,0-.779.637c0,.517.368.673.751.673.212,0,.815-.043.815-.666A.719.719,0,0,0,181.567,332.409Z" fill="#dc6b8c"/>
      <path id="パス_9454" data-name="パス 9454" d="M184.645,333.131a4.244,4.244,0,0,1,.035-.538,1,1,0,0,1,1.062-.928c.885,0,1.1.737,1.1,1.4,0,1.02-.361,1.459-1.1,1.459C184.85,334.526,184.645,333.825,184.645,333.131Zm.792,3.965a.34.34,0,0,1-.333-.319.332.332,0,0,1,.057-.17c.488-.743,2.867-4.255,3.144-4.772a.267.267,0,0,1,.248-.149.335.335,0,0,1,.346.3.27.27,0,0,1-.056.163c-.305.439-2.528,3.759-3.157,4.8A.284.284,0,0,1,185.437,337.1Zm.652-3.951c0-.481-.043-.842-.347-.842s-.361.4-.361.75c0,.248,0,.836.361.836C186.025,333.889,186.089,333.5,186.089,333.145Zm1.069,2.542a4.435,4.435,0,0,1,.035-.538.993.993,0,0,1,1.062-.921c.892,0,1.1.744,1.1,1.4,0,.631-.1,1.459-1.1,1.459C187.363,337.089,187.158,336.388,187.158,335.687Zm1.444,0c0-.5-.049-.821-.347-.821s-.354.382-.354.736c0,.3.014.85.354.85C188.538,336.452,188.6,336.048,188.6,335.687Z" fill="#dc6b8c"/>
    </g>
    <g id="グループ_3359" data-name="グループ 3359">
      <g id="グループ_3357" data-name="グループ 3357" opacity="0.8">
        <g id="グループ_3356" data-name="グループ 3356">
          <g id="グループ_3355" data-name="グループ 3355" clip-path="url(#clip-path-4)">
            <path id="長方形_1106" data-name="長方形 1106" d="M2.055,0H46.133a2.056,2.056,0,0,1,2.056,2.056V9.284a2.055,2.055,0,0,1-2.055,2.055H2.055A2.055,2.055,0,0,1,0,9.284V2.055A2.055,2.055,0,0,1,2.055,0Z" transform="translate(44.887 314.468)" fill="#fff"/>
          </g>
        </g>
      </g>
      <path id="パス_9455" data-name="パス 9455" d="M61.005,317.514a.81.81,0,0,1,.878.814c.007.084.007.2.007.332,0,.545-.029,1.459-.029,2.471,0,.446.008.914.022,1.374v.021a.42.42,0,0,1-.46.418.454.454,0,0,1-.489-.446c0-.645.036-2.075.036-2.988,0-.949-.015-1.069-.234-1.069h-.085a.4.4,0,0,1-.4-.432.462.462,0,0,1,.411-.495Z" fill="#dc6b8c"/>
      <path id="パス_9456" data-name="パス 9456" d="M65.377,322.965c-.453,0-1.522-.007-1.586-1.02-.021-.34-.035-.906-.035-1.493,0-.772.021-1.579.042-1.955.057-1.019.779-1.047,1.692-1.047.22,0,.432.007.538.014a2.6,2.6,0,0,1,2.577,2.733,2.529,2.529,0,0,1-2.64,2.761C65.873,322.965,65.611,322.965,65.377,322.965Zm.609-4.63h-.028c-.036,0-.4-.015-.659-.015-.177,0-.566,0-.594.319-.021.3-.043,1.112-.043,1.862a11.82,11.82,0,0,0,.043,1.282c.042.325.375.325.892.325.722,0,2.053-.063,2.053-1.911A1.69,1.69,0,0,0,65.986,318.335Z" fill="#dc6b8c"/>
      <path id="パス_9457" data-name="パス 9457" d="M73.553,322.93a.477.477,0,0,1-.46-.3c-.085-.2-.248-.722-.46-1.38-.015-.036-.036-.064-.064-.064-.113-.007-.382-.007-.68-.007-.4,0-.842,0-.991.007a.09.09,0,0,0-.078.057l-.439,1.359a.456.456,0,0,1-.453.326.437.437,0,0,1-.467-.4.524.524,0,0,1,.021-.141c.411-1.254,1.232-3.434,1.565-4.383a.72.72,0,0,1,.672-.517.758.758,0,0,1,.708.524c.425,1.189,1.331,3.653,1.572,4.241a.612.612,0,0,1,.05.233A.466.466,0,0,1,73.553,322.93Zm-1.706-4.114c-.05-.141-.078-.219-.107-.219a11.7,11.7,0,0,0-.608,1.692c0,.021.021.035.049.035.134,0,.361.007.574.007s.425-.007.523-.007c.036,0,.05,0,.05-.021S71.854,318.83,71.847,318.816Z" fill="#dc6b8c"/>
      <path id="パス_9458" data-name="パス 9458" d="M75.93,320.784a.3.3,0,0,0-.064-.219c-.51-.765-1.211-1.792-1.551-2.294a.5.5,0,0,1-.092-.283.531.531,0,0,1,.517-.5.436.436,0,0,1,.382.241c.3.51.73,1.147,1.218,1.876a.123.123,0,0,0,.1.057.087.087,0,0,0,.071-.043,20.071,20.071,0,0,0,1.218-1.9.4.4,0,0,1,.375-.226.527.527,0,0,1,.531.481.453.453,0,0,1-.071.242c-.318.5-1.1,1.663-1.55,2.3a.337.337,0,0,0-.085.269c0,.418.007,1.126.007,1.692a.456.456,0,0,1-.5.447.473.473,0,0,1-.509-.475Z" fill="#dc6b8c"/>
    </g>
    <g id="グループ_3368" data-name="グループ 3368">
      <g id="グループ_3366" data-name="グループ 3366" opacity="0.8">
        <g id="グループ_3365" data-name="グループ 3365">
          <g id="グループ_3364" data-name="グループ 3364" clip-path="url(#clip-path-5)">
            <path id="長方形_1109" data-name="長方形 1109" d="M2.055,0H46.133a2.056,2.056,0,0,1,2.056,2.056V9.284a2.055,2.055,0,0,1-2.055,2.055H2.055A2.055,2.055,0,0,1,0,9.284V2.055A2.055,2.055,0,0,1,2.055,0Z" transform="translate(95.91 314.468)" fill="#fff"/>
          </g>
        </g>
      </g>
      <path id="パス_9459" data-name="パス 9459" d="M107.324,317.514a.81.81,0,0,1,.878.814c.007.084.007.2.007.332,0,.545-.028,1.459-.028,2.471,0,.446.006.914.021,1.374v.021a.421.421,0,0,1-.461.418.454.454,0,0,1-.488-.446c0-.645.035-2.075.035-2.988,0-.949-.014-1.069-.233-1.069h-.085a.4.4,0,0,1-.4-.432.462.462,0,0,1,.411-.495Z" fill="#dc6b8c"/>
      <path id="パス_9460" data-name="パス 9460" d="M109.564,321.131c-.028-.325-.049-.637-.049-.949,0-.261.014-.516.036-.786.1-1.253.793-1.946,1.791-1.946s1.671.665,1.784,1.869c.028.311.05.615.05.92,0,.7-.015,2.761-1.834,2.761C110.365,323,109.678,322.335,109.564,321.131Zm2.684-.949c0-.828-.05-1.89-.906-1.89s-.906,1.091-.906,1.961c0,.6.021,1.9.906,1.9S112.248,320.834,112.248,320.182Z" fill="#dc6b8c"/>
      <path id="パス_9461" data-name="パス 9461" d="M120.083,319.149a5.466,5.466,0,0,1-.758,2.407,4.238,4.238,0,0,0,1.366.914.37.37,0,0,1,.248.346.471.471,0,0,1-.453.46,3.366,3.366,0,0,1-1.614-1.118A4,4,0,0,1,117,323.319a.427.427,0,0,1-.418-.411.35.35,0,0,1,.262-.332,3.639,3.639,0,0,0,1.572-1.006,4.987,4.987,0,0,1-.68-1.572.463.463,0,0,1-.375.276.363.363,0,0,1,.085.227.407.407,0,0,1-.375.4.331.331,0,0,1-.248-.12,4.306,4.306,0,0,0-.4-.382c.007,1.09.035,2.6.035,2.6V323a.366.366,0,0,1-.4.348.36.36,0,0,1-.4-.348v-.007l.021-2.3c-.446.772-.644.913-.842.913a.4.4,0,0,1-.411-.375.368.368,0,0,1,.12-.261,5.953,5.953,0,0,0,1.147-1.679l-.007-.07-.679.021H115a.343.343,0,0,1-.353-.361.351.351,0,0,1,.368-.362h.672l-.021-1.125v-.007a.366.366,0,0,1,.4-.361.371.371,0,0,1,.4.361c0,.134-.014.956-.022,1.132h.538a.357.357,0,0,1,.369.369.34.34,0,0,1-.347.354h-.014l-.559-.015v.489c.021,0,.042-.007.056-.007.071,0,.156.021.467.234a.444.444,0,0,1,.092-.219,6.425,6.425,0,0,0,.971-2.337.342.342,0,0,1,.36-.284.376.376,0,0,1,.4.355,4.808,4.808,0,0,1-.29,1.005l1.989-.007a.327.327,0,0,1,.333.347.33.33,0,0,1-.333.347Zm-1.827,0a4.577,4.577,0,0,0,.6,1.791,4.675,4.675,0,0,0,.474-1.791Z" fill="#dc6b8c"/>
      <path id="パス_9462" data-name="パス 9462" d="M123.743,318.15h-.028a.367.367,0,0,1-.375-.389.388.388,0,0,1,.389-.411c.283-.006.587-.014.914-.014h.233a.737.737,0,0,1,.8.652,5.626,5.626,0,0,0,2.577,4.283.418.418,0,0,1,.241.369.547.547,0,0,1-.531.516.541.541,0,0,1-.3-.092,6.366,6.366,0,0,1-2.3-3.037,5.476,5.476,0,0,1-2.542,3.164.56.56,0,0,1-.268.072.44.44,0,0,1-.185-.85,4.934,4.934,0,0,0,2.57-3.93c-.013-.1-.028-.2-.035-.3-.008-.043-.05-.085-.141-.085h-.022Z" fill="#dc6b8c"/>
      <path id="パス_9463" data-name="パス 9463" d="M130.573,318.292a.47.47,0,0,0,.078-.085.892.892,0,0,1,.687-.34,1.172,1.172,0,0,1,1.019.808,4.067,4.067,0,0,1,.242,1.38,3.854,3.854,0,0,1-1.615,3.144.794.794,0,0,1-.467.177.375.375,0,0,1-.411-.347.561.561,0,0,1,.3-.446,3.15,3.15,0,0,0,1.353-2.613,3.2,3.2,0,0,0-.163-1.019.485.485,0,0,0-.447-.39c-.332,0-.743.375-.743,1.253,0,.114.007.248.015.4v.056c0,.383-.234.56-.461.56-.424,0-.432-.411-.432-.645a7.135,7.135,0,0,1,.178-1.394c.077-.355.205-.814.262-1.246a.377.377,0,0,1,.4-.34.392.392,0,0,1,.418.375,1.425,1.425,0,0,1-.17.63.393.393,0,0,0-.043.085Z" fill="#dc6b8c"/>
    </g>
    <g id="グループ_3378" data-name="グループ 3378">
      <g id="グループ_3376" data-name="グループ 3376" opacity="0.8">
        <g id="グループ_3375" data-name="グループ 3375">
          <g id="グループ_3374" data-name="グループ 3374" clip-path="url(#clip-path-6)">
            <path id="長方形_1112" data-name="長方形 1112" d="M2.055,0H46.133a2.056,2.056,0,0,1,2.056,2.056V9.284a2.055,2.055,0,0,1-2.055,2.055H2.055A2.055,2.055,0,0,1,0,9.284V2.055A2.055,2.055,0,0,1,2.055,0Z" transform="translate(146.934 314.468)" fill="#fff"/>
          </g>
        </g>
      </g>
      <path id="パス_9464" data-name="パス 9464" d="M157.82,320.735V320.7c.008-.488.008-1.005.008-1.522,0-.425,0-.842-.015-1.253a.47.47,0,0,1,.935-.014v.014c-.007.326-.014.651-.014.977,0,.5.007,1,.007,1.494v.354a1.213,1.213,0,0,0,1.211,1.331,1.3,1.3,0,0,0,1.288-1.395c0-.609.015-1.225.015-1.84,0-.312-.007-.617-.015-.921a.474.474,0,0,1,.942-.014v.014c-.014.481-.021.956-.021,1.444,0,.425.007.85.014,1.3a2.181,2.181,0,1,1-4.355.071Z" fill="#dc6b8c"/>
      <path id="パス_9465" data-name="パス 9465" d="M165.578,322.944a.781.781,0,0,1-.693-.559c-.368-1-1.395-3.909-1.488-4.263a.747.747,0,0,1-.02-.163.5.5,0,0,1,.977-.1c.106.46,1.125,3.817,1.2,3.817.014,0,.043-.043.078-.149.255-.708.843-2.818,1.147-3.724a.46.46,0,0,1,.447-.319.492.492,0,0,1,.523.453.668.668,0,0,1-.028.156c-.412,1.253-1.19,3.434-1.488,4.3A.714.714,0,0,1,165.578,322.944Z" fill="#dc6b8c"/>
      <path id="パス_9466" data-name="パス 9466" d="M171.445,318.158a5.962,5.962,0,0,1-.063.828c.262,0,.516,0,.743.007.553.014.991.29.991.878a5.922,5.922,0,0,1-.46,2.329,1.462,1.462,0,0,1-1.267.772c-.51,0-1.027-.3-1.027-.63a.417.417,0,0,1,.4-.425.517.517,0,0,1,.283.092.584.584,0,0,0,.34.121c.821,0,.906-1.827.906-2.047a.357.357,0,0,0-.347-.368c-.206-.007-.446-.007-.7-.007-.6,2.492-2.117,3.42-2.485,3.42a.425.425,0,0,1-.439-.4.472.472,0,0,1,.3-.4,4,4,0,0,0,1.784-2.605c-.41.006-.814.021-1.146.035h-.043c-.3,0-.439-.17-.439-.34a.411.411,0,0,1,.425-.39c.382-.013.863-.028,1.345-.035a6.029,6.029,0,0,0,.05-.871v-.007a.39.39,0,0,1,.4-.425.448.448,0,0,1,.453.46Z" fill="#dc6b8c"/>
      <path id="パス_9467" data-name="パス 9467" d="M175.628,321.287a.353.353,0,0,1-.319-.22,1.72,1.72,0,0,0-.382-.5.283.283,0,0,1-.114-.219.359.359,0,0,1,.362-.34c.3,0,.835.665.835.92A.382.382,0,0,1,175.628,321.287Zm-.12,1.912a.353.353,0,0,1-.362-.354.349.349,0,0,1,.234-.333,3.713,3.713,0,0,0,2.181-2.627.349.349,0,0,1,.353-.29.409.409,0,0,1,.426.382,4.611,4.611,0,0,1-2.613,3.172A.553.553,0,0,1,175.508,323.2Zm1.076-2.245a.358.358,0,0,1-.34-.269,1.707,1.707,0,0,0-.305-.559.313.313,0,0,1-.085-.205.358.358,0,0,1,.361-.326.4.4,0,0,1,.3.156,1.933,1.933,0,0,1,.453.842A.376.376,0,0,1,176.584,320.954Z" fill="#dc6b8c"/>
      <path id="パス_9468" data-name="パス 9468" d="M181.119,322.717a.464.464,0,0,1-.453.51.413.413,0,0,1-.418-.446v-.028c.035-.793.057-2.358.057-3.583,0-.538-.008-1.005-.015-1.317a.391.391,0,0,1,.418-.411.4.4,0,0,1,.425.4v.014l-.022,1.6a4.172,4.172,0,0,1,1.778.609.45.45,0,0,1,.163.347.467.467,0,0,1-.425.475.42.42,0,0,1-.248-.092,4.272,4.272,0,0,0-1.275-.553C181.1,321.2,181.1,322.158,181.119,322.717Z" fill="#dc6b8c"/>
    </g>
  </g>
</svg>
