<svg id="レイヤー_1" data-name="レイヤー 1" xmlns="http://www.w3.org/2000/svg" width="77" height="67" viewBox="0 0 77 67">
  <g id="グループ_3857" data-name="グループ 3857">
    <path id="パス_10000" data-name="パス 10000" d="M77,25.439C77,11.39,66.7,0,53.986,0a21.779,21.779,0,0,0-15.5,6.634A21.779,21.779,0,0,0,22.989,0C10.3,0,0,11.39,0,25.439A26.85,26.85,0,0,0,10.644,46.9h0l.1.073C11.532,47.512,38.488,67,38.488,67S65.468,47.537,66.232,46.976l.1-.073h0A26.85,26.85,0,0,0,76.975,25.439" fill="#da527e"/>
    <path id="パス_10001" data-name="パス 10001" d="M22.043,27.426l1.113-7.567C24.813,8.829,28.943,5.07,32.108,5.07a1.94,1.94,0,0,1,2.077,1.558A.961.961,0,0,1,34.136,7h-.247c-3.784,0-8.581,2.992-10.115,12.785-.1.668-1.9,13.058-1.978,13.75h-.124c-.321,0-1.459.173-1.459.173-1.063-7.2-4.8-15.7-8.384-19.116l-.668,4.55c-.742,4.847-.964,11.178-3.289,13.3a2.783,2.783,0,0,1-1.879.816A1.394,1.394,0,0,1,4.46,32.1v-.124c3.66-1.261,4.8-4.451,6.084-12.761l.742-5.094a4.828,4.828,0,0,0-.989-.643,12.532,12.532,0,0,0,.915-4.872c0-.3,0-.594-.025-.866,6.5,2.72,9.5,11.92,10.832,19.685Z" transform="translate(6.57 7.17)" fill="#fff"/>
    <path id="パス_10002" data-name="パス 10002" d="M16.859,20.827c0,2.646.989,3.685,3.19,3.685a6.378,6.378,0,0,0,4.8-2.72l.445.495a7.694,7.694,0,0,1-6.356,3.264c-3.611,0-5.836-2.349-5.836-5.985,0-5.985,3.536-9.125,8.186-9.125,3.437,0,5.243,1.286,5.243,3.734,0,4.056-4.526,6.133-9.694,6.183v.495Zm6.356-7.073c0-1.682-.692-2.572-2.028-2.572-2.127,0-3.982,4.056-4.278,8.408,3.883,0,6.306-1.682,6.306-5.836Z" transform="translate(19.154 14.922)" fill="#fff"/>
    <path id="パス_10003" data-name="パス 10003" d="M19.759,13.65c.742-1.805,1.509-2.6,2.473-2.6,2.4,0,3.116,1.805,3.116,4.105,0,2.028-.594,4.476-.594,6.38s.049,3.24,1.756,3.24c.89,0,2.2-1.41,3.042-3.24a42.049,42.049,0,0,1-.321-6.009c0-1.805-.173-3.734-1.509-3.759v-.346h2.25c2.226,0,3.017,1.459,3.017,3.388,0,2.226-.742,5.119-.742,7.2,0,1.607.445,2.77,2.028,2.77S38.035,20.8,38.035,17.9s-1.162-4.847-2.572-5.54c.3-.544.989-2.374,2.077-2.374,1.286,0,1.978,1.657,1.978,4.723,0,4.822-2.968,11.475-6.455,11.475-1.781,0-2.77-1.261-3.289-3.512-1.212,2.028-2.745,3.512-4.427,3.512-2.572,0-3.858-3.19-3.858-8.754,0-1.583-.124-4.427-.767-4.427-.247,0-.544.371-.964,1.36l-.321.791-.2-.173.544-1.335Z" transform="translate(28.059 14.27)" fill="#fff"/>
  </g>
</svg>
