<svg xmlns="http://www.w3.org/2000/svg" width="104.932" height="31.019" viewBox="0 0 104.932 31.019">
  <g id="グループ_3931" data-name="グループ 3931" transform="translate(72.674 -41.539)">
    <path id="パス_10099" data-name="パス 10099" d="M1.56.156A31.261,31.261,0,0,1,4.992,0c1.287,0,3.237,0,5.85.117v-1.6C8.346-1.521,7.254-3,7.254-6.2V-20.163L25.038.624h2.184V-19.851c0-3.276.585-4.6,3.588-4.8v-1.521c-2.223.078-3.783.117-4.8.117-1.131,0-2.613-.039-4.485-.117v1.521c2.73.039,3.627,1.365,3.627,4.6V-8.385L9.594-26.169c-1.677.117-3.2.117-4.446.117a37.625,37.625,0,0,1-3.822-.117v1.521a3.879,3.879,0,0,1,3.315,1.443l.468.585V-6.2c0,3.12-.585,4.368-3.549,4.719ZM51.48-4.485a10.533,10.533,0,0,1-1.872,1.794,5.164,5.164,0,0,1-2.847.819c-3.276,0-5.148-2.3-5.148-6.669,0-.234.039-.507.039-.78H53.118v-.312c0-5.109-2.886-7.995-7.761-7.995-5.811,0-9.672,3.861-9.672,9.243,0,5.226,3.822,8.931,9.321,8.931a8.8,8.8,0,0,0,7.8-3.861Zm-9.828-6.669c.273-3.237,1.365-4.836,3.432-4.836,1.911,0,2.964,1.521,2.964,4.368v.468ZM64.233.234h1.755l4.1-10.179L74.334.234h1.638l4.914-11.856c1.014-2.418,1.326-4.056,3.354-4.29v-1.365c-1.248.039-2.379.117-3.471.117-.936,0-2.067-.039-3.432-.117v1.287c1.716.195,2.418.546,2.418,1.521a8.735,8.735,0,0,1-.7,2.73L76.83-6.162,72.774-17.238H71.253L66.885-6.786,64.428-13.26a4.366,4.366,0,0,1-.234-1.365c0-1.014.7-1.248,2.379-1.287v-1.326c-3.081.039-4.914.078-5.421.078-1.638,0-3.2-.039-4.758-.078v1.326c1.443.117,1.989,1.014,2.73,2.925ZM88.452.312h1.482l.585-1.482A7.186,7.186,0,0,0,95.706.546c4.017,0,6.552-2.34,6.552-5.694,0-2.925-1.794-4.719-5.577-6.006-2.73-.936-4.29-1.131-4.29-2.847,0-1.131,1.014-1.989,2.574-1.989a5.415,5.415,0,0,1,4.914,3.7h1.482c-.039-.975-.039-1.833-.039-2.613,0-.819,0-1.638.039-2.535H99.879l-.741,1.287a7.218,7.218,0,0,0-4.6-1.482c-3.588,0-5.811,2.262-5.811,5.616s2.067,4.368,6.123,5.85c2.106.78,3.354,1.248,3.354,2.808,0,1.209-1.209,2.223-2.925,2.223A5.845,5.845,0,0,1,89.856-5.5h-1.4c.078,1.17.078,2.145.078,2.925C88.53-1.833,88.53-.858,88.452.312Z" transform="translate(-72 69.934)" fill="#fff" stroke="#e8aeb8" stroke-width="4"/>
    <path id="パス_10098" data-name="パス 10098" d="M1.56.156A31.261,31.261,0,0,1,4.992,0c1.287,0,3.237,0,5.85.117v-1.6C8.346-1.521,7.254-3,7.254-6.2V-20.163L25.038.624h2.184V-19.851c0-3.276.585-4.6,3.588-4.8v-1.521c-2.223.078-3.783.117-4.8.117-1.131,0-2.613-.039-4.485-.117v1.521c2.73.039,3.627,1.365,3.627,4.6V-8.385L9.594-26.169c-1.677.117-3.2.117-4.446.117a37.625,37.625,0,0,1-3.822-.117v1.521a3.879,3.879,0,0,1,3.315,1.443l.468.585V-6.2c0,3.12-.585,4.368-3.549,4.719ZM51.48-4.485a10.533,10.533,0,0,1-1.872,1.794,5.164,5.164,0,0,1-2.847.819c-3.276,0-5.148-2.3-5.148-6.669,0-.234.039-.507.039-.78H53.118v-.312c0-5.109-2.886-7.995-7.761-7.995-5.811,0-9.672,3.861-9.672,9.243,0,5.226,3.822,8.931,9.321,8.931a8.8,8.8,0,0,0,7.8-3.861Zm-9.828-6.669c.273-3.237,1.365-4.836,3.432-4.836,1.911,0,2.964,1.521,2.964,4.368v.468ZM64.233.234h1.755l4.1-10.179L74.334.234h1.638l4.914-11.856c1.014-2.418,1.326-4.056,3.354-4.29v-1.365c-1.248.039-2.379.117-3.471.117-.936,0-2.067-.039-3.432-.117v1.287c1.716.195,2.418.546,2.418,1.521a8.735,8.735,0,0,1-.7,2.73L76.83-6.162,72.774-17.238H71.253L66.885-6.786,64.428-13.26a4.366,4.366,0,0,1-.234-1.365c0-1.014.7-1.248,2.379-1.287v-1.326c-3.081.039-4.914.078-5.421.078-1.638,0-3.2-.039-4.758-.078v1.326c1.443.117,1.989,1.014,2.73,2.925ZM88.452.312h1.482l.585-1.482A7.186,7.186,0,0,0,95.706.546c4.017,0,6.552-2.34,6.552-5.694,0-2.925-1.794-4.719-5.577-6.006-2.73-.936-4.29-1.131-4.29-2.847,0-1.131,1.014-1.989,2.574-1.989a5.415,5.415,0,0,1,4.914,3.7h1.482c-.039-.975-.039-1.833-.039-2.613,0-.819,0-1.638.039-2.535H99.879l-.741,1.287a7.218,7.218,0,0,0-4.6-1.482c-3.588,0-5.811,2.262-5.811,5.616s2.067,4.368,6.123,5.85c2.106.78,3.354,1.248,3.354,2.808,0,1.209-1.209,2.223-2.925,2.223A5.845,5.845,0,0,1,89.856-5.5h-1.4c.078,1.17.078,2.145.078,2.925C88.53-1.833,88.53-.858,88.452.312Z" transform="translate(-72 69.934)" fill="#fff"/>
  </g>
</svg>
