<svg xmlns="http://www.w3.org/2000/svg" width="54.188" height="154.74" viewBox="0 0 54.188 154.74">
  <g id="グループ_3635" data-name="グループ 3635" transform="translate(-609.176 -39.628)">
    <path id="パス_9750" data-name="パス 9750" d="M217.208,61c0-5.2-3.776-9.424-8.436-9.424a7.94,7.94,0,0,0-5.681,2.459,7.937,7.937,0,0,0-5.681-2.459c-4.658,0-8.436,4.222-8.436,9.424a9.981,9.981,0,0,0,3.9,7.953h0l.038.026c.289.2,10.178,7.413,10.178,7.413s9.889-7.211,10.178-7.413l.038-.026h0a9.981,9.981,0,0,0,3.9-7.953" transform="translate(420.204 117.977)" fill="#fff"/>
    <path id="パス_9754" data-name="パス 9754" d="M197.6,6.033C197.6,2.7,195.181,0,192.2,0a5.082,5.082,0,0,0-3.635,1.572A5.087,5.087,0,0,0,184.925,0c-2.98,0-5.4,2.7-5.4,6.033a6.378,6.378,0,0,0,2.5,5.088l0,0,.024.014c.185.129,6.514,4.745,6.514,4.745s6.329-4.616,6.512-4.745l.026-.014,0,0a6.385,6.385,0,0,0,2.5-5.088" transform="translate(465.766 39.628)" fill="#fff"/>
  </g>
</svg>
