<svg width="600" height="600" viewBox="0 0 600 600" fill="none" xmlns="http://www.w3.org/2000/svg">
<g clip-path="url(#clip0_796_2346)">
<circle cx="300" cy="300" r="300" fill="#FFDBE7"/>
<path d="M474.677 218.074L474.591 217.753C471.938 211.29 446.642 154 378.759 154C326.285 154 300.176 191.152 300.176 191.152C300.176 191.152 272.783 154 221.635 154C153.581 154 128.414 211.332 125.76 217.838L125.653 218.116C114.974 245.531 119.747 276.069 126.595 292.912C127.108 294.153 158.974 366.145 194.692 446.826H239.269L168.54 285.7C158.76 263.486 160.087 240.181 172.135 221.819C183.05 205.062 201.091 195.432 221.678 195.432C254.036 195.432 274.324 213.28 281.964 248.484H318.409C326.135 213.28 346.401 195.432 378.78 195.432C399.282 195.432 417.323 205.062 428.323 221.819C440.372 240.223 441.613 263.529 431.833 285.7L361.168 446.826H405.724C441.848 365.289 473.307 294.196 473.821 292.912C479.899 277.461 485.934 246.708 474.72 218.074H474.677Z" fill="white"/>
</g>
<defs>
<clipPath id="clip0_796_2346">
<rect width="600" height="600" fill="white"/>
</clipPath>
</defs>
</svg>
