<svg width="46" height="46" viewBox="0 0 46 46" fill="none" xmlns="http://www.w3.org/2000/svg">
<g filter="url(#filter0_d_39_30)">
<path d="M23.005 15.3059C21.2292 15.3086 19.5092 15.9268 18.1379 17.0552C16.7667 18.1836 15.829 19.7524 15.4845 21.4945C15.14 23.2366 15.4101 25.0443 16.2487 26.6096C17.0873 28.175 18.4425 29.4013 20.0837 30.0796C21.7249 30.758 23.5504 30.8465 25.2495 30.3301C26.9486 29.8136 28.4161 28.7242 29.4022 27.2473C30.3883 25.7704 30.8319 23.9973 30.6576 22.2301C30.4832 20.4628 29.7017 18.8107 28.446 17.5549C27.7312 16.841 26.8828 16.275 25.9493 15.8891C25.0157 15.5032 24.0152 15.305 23.005 15.3059ZM23.005 27.9949C22.0161 27.9949 21.0494 27.7017 20.2271 27.1523C19.4049 26.6028 18.764 25.822 18.3856 24.9083C18.0072 23.9947 17.9081 22.9894 18.1011 22.0195C18.294 21.0496 18.7702 20.1586 19.4695 19.4594C20.1687 18.7601 21.0596 18.2839 22.0295 18.091C22.9995 17.8981 24.0048 17.9971 24.9184 18.3755C25.832 18.7539 26.6129 19.3948 27.1623 20.2171C27.7118 21.0393 28.005 22.006 28.005 22.9949C28.005 24.321 27.4782 25.5928 26.5405 26.5304C25.6029 27.4681 24.3311 27.9949 23.005 27.9949ZM32.805 14.9949C32.8045 15.4091 32.6604 15.8104 32.3973 16.1304C32.1342 16.4503 31.7683 16.6691 31.362 16.7496C30.9556 16.8301 30.534 16.7673 30.1687 16.5718C29.8035 16.3763 29.5174 16.0602 29.359 15.6774C29.2007 15.2947 29.1799 14.8688 29.3002 14.4725C29.4206 14.0761 29.6746 13.7337 30.019 13.5036C30.3635 13.2734 30.777 13.1698 31.1893 13.2104C31.6015 13.2509 31.987 13.4331 32.28 13.7259C32.6157 14.0618 32.8044 14.5171 32.805 14.9919V14.9949ZM37.898 16.8159C37.9475 14.4842 37.077 12.2268 35.475 10.5319C33.7753 8.9368 31.5206 8.06753 29.19 8.10891C26.714 7.96891 19.29 7.96891 16.815 8.10891C14.4847 8.06073 12.2281 8.92648 10.528 10.5209C8.92876 12.218 8.05882 14.4745 8.105 16.8059C7.965 19.2819 7.965 26.7059 8.105 29.1809C8.05686 31.5115 8.92715 33.7675 10.528 35.4619C12.2268 37.0578 14.4816 37.9272 16.812 37.8849C19.288 38.0249 26.712 38.0249 29.187 37.8849C31.5187 37.9343 33.7761 37.0639 35.471 35.4619C37.0662 33.7627 37.9355 31.5082 37.894 29.1779C38.034 26.7019 38.034 19.2859 37.894 16.8099L37.898 16.8159ZM34.698 31.8419C34.4435 32.4871 34.0591 33.0731 33.5687 33.5636C33.0782 34.054 32.4922 34.4384 31.847 34.6929C29.872 35.4759 25.188 35.2929 23.006 35.2929C20.824 35.2929 16.132 35.4669 14.165 34.6929C13.5199 34.4382 12.934 34.0536 12.4437 33.563C11.9535 33.0724 11.5693 32.4862 11.315 31.8409C10.53 29.8659 10.715 25.1819 10.715 22.9999C10.715 20.8179 10.541 16.1259 11.315 14.1609C11.5688 13.5151 11.9527 12.9285 12.4428 12.4373C12.9329 11.9462 13.5188 11.5611 14.164 11.3059C16.136 10.5209 20.821 10.7059 23.003 10.7059C25.185 10.7059 29.877 10.5319 31.844 11.3059C32.4897 11.561 33.076 11.9461 33.5665 12.4375C34.0569 12.9288 34.4411 13.5158 34.695 14.1619C35.478 16.1339 35.295 20.8189 35.295 23.0009C35.295 25.1829 35.477 29.8739 34.695 31.8419H34.698Z" fill="white"/>
</g>
<defs>
<filter id="filter0_d_39_30" x="0" y="0.00390625" width="45.998" height="45.9863" filterUnits="userSpaceOnUse" color-interpolation-filters="sRGB">
<feFlood flood-opacity="0" result="BackgroundImageFix"/>
<feColorMatrix in="SourceAlpha" type="matrix" values="0 0 0 0 0 0 0 0 0 0 0 0 0 0 0 0 0 0 127 0" result="hardAlpha"/>
<feOffset/>
<feGaussianBlur stdDeviation="4"/>
<feComposite in2="hardAlpha" operator="out"/>
<feColorMatrix type="matrix" values="0 0 0 0 0.921569 0 0 0 0 0.509804 0 0 0 0 0.501961 0 0 0 1 0"/>
<feBlend mode="normal" in2="BackgroundImageFix" result="effect1_dropShadow_39_30"/>
<feBlend mode="normal" in="SourceGraphic" in2="effect1_dropShadow_39_30" result="shape"/>
</filter>
</defs>
</svg>
