<svg width="124" height="62" viewBox="0 0 124 62" fill="none" xmlns="http://www.w3.org/2000/svg">
<g filter="url(#filter0_d_123_11803)">
<path d="M14.9501 20.9078C14.1618 20.3038 13.2756 19.8397 12.3301 19.5358C12.2318 19.5028 12.1464 19.4396 12.0861 19.3552C12.0258 19.2708 11.9936 19.1695 11.9941 19.0658C11.9953 18.994 12.0111 18.9232 12.0406 18.8577C12.0701 18.7922 12.1126 18.7334 12.1656 18.6849C12.2186 18.6364 12.2809 18.5993 12.3487 18.5757C12.4166 18.5521 12.4885 18.5426 12.5601 18.5478C13.6779 18.7732 14.7348 19.2345 15.6601 19.9008C15.736 19.96 15.7971 20.0359 15.8388 20.1227C15.8804 20.2094 15.9014 20.3046 15.9001 20.4008C15.905 20.5639 15.847 20.7227 15.7381 20.8442C15.6293 20.9657 15.4778 21.0408 15.3151 21.0538C15.1782 21.0474 15.047 20.9969 14.9411 20.9098L14.9501 20.9078ZM14.1051 17.9808C13.6686 17.7184 13.1871 17.5394 12.6851 17.4528C12.3681 17.3858 12.2341 17.1938 12.2341 17.0018C12.2378 16.8561 12.2979 16.7176 12.4019 16.6155C12.5059 16.5134 12.6454 16.4558 12.7911 16.4548C13.4295 16.5492 14.0504 16.7368 14.6341 17.0118C14.7286 17.0594 14.8082 17.132 14.8641 17.2218C14.92 17.3116 14.9501 17.415 14.9511 17.5208C14.9557 17.6626 14.9052 17.8006 14.8104 17.9061C14.7155 18.0115 14.5836 18.0763 14.4421 18.0868C14.3262 18.0798 14.214 18.0433 14.1161 17.9808H14.1051ZM14.6621 16.0708C14.0319 15.7704 13.3611 15.5636 12.6711 15.4568C12.5658 15.4545 12.4654 15.4116 12.3908 15.3371C12.3163 15.2626 12.2734 15.1622 12.2711 15.0568C12.2844 14.8966 12.3605 14.7481 12.4829 14.6437C12.6052 14.5394 12.7638 14.4876 12.9241 14.4998C13.6539 14.5603 14.3691 14.7382 15.0421 15.0268C15.1563 15.0745 15.2542 15.1543 15.324 15.2566C15.3937 15.3588 15.4323 15.4791 15.4351 15.6028C15.4411 15.7416 15.3919 15.8771 15.2981 15.9796C15.2044 16.0821 15.0739 16.1433 14.9351 16.1498C14.8378 16.1455 14.7428 16.1192 14.6571 16.0728L14.6621 16.0708Z" fill="white"/>
</g>
<g filter="url(#filter1_d_123_11803)">
<path d="M19.523 18.8636C19.5221 18.8974 19.5282 18.9311 19.541 18.9624C19.5539 18.9938 19.5731 19.0221 19.5974 19.0456C19.6218 19.0691 19.6508 19.0873 19.6825 19.099C19.7143 19.1107 19.7482 19.1157 19.782 19.1136C21.0957 18.4686 22.2076 17.476 22.997 16.2436C23.0429 16.1583 23.1106 16.0868 23.1931 16.0362C23.2757 15.9856 23.3702 15.9578 23.467 15.9556C23.6132 15.9603 23.7521 16.0205 23.8556 16.124C23.959 16.2274 24.0192 16.3664 24.024 16.5126C24.0211 16.6256 23.9865 16.7355 23.924 16.8296C22.8693 18.276 21.5056 19.4693 19.932 20.3226C19.7588 20.4086 19.5683 20.4544 19.375 20.4566C19.2494 20.4628 19.124 20.4413 19.0077 20.3937C18.8913 20.3461 18.7869 20.2735 18.7017 20.1811C18.6165 20.0886 18.5526 19.9786 18.5147 19.8588C18.4767 19.7389 18.4655 19.6122 18.482 19.4876V19.4396C18.501 18.7866 18.511 17.6546 18.511 16.7906V15.6986C18.5043 15.6305 18.5125 15.5617 18.5351 15.4971C18.5576 15.4324 18.5939 15.3734 18.6414 15.3242C18.6889 15.2749 18.7466 15.2366 18.8104 15.2118C18.8742 15.187 18.9426 15.1764 19.011 15.1806C19.0829 15.177 19.1548 15.1878 19.2225 15.2124C19.2902 15.2371 19.3523 15.275 19.405 15.3241C19.4578 15.3731 19.5002 15.4322 19.5297 15.4979C19.5592 15.5636 19.5753 15.6346 19.577 15.7066V16.2916C19.577 17.1076 19.548 18.3356 19.529 18.8536L19.523 18.8636Z" fill="white"/>
</g>
<g filter="url(#filter2_d_123_11803)">
<path d="M26.958 21.0451C26.8924 21.0515 26.8262 21.0441 26.7637 21.0234C26.7011 21.0027 26.6436 20.9691 26.5948 20.9249C26.546 20.8806 26.507 20.8266 26.4804 20.7664C26.4537 20.7061 26.4399 20.6409 26.44 20.5751C26.442 20.4513 26.4858 20.3318 26.5642 20.236C26.6426 20.1402 26.751 20.0736 26.872 20.0471C27.4727 19.9049 28.011 19.5711 28.4053 19.0961C28.7997 18.6212 29.0288 18.0307 29.058 17.4141C28.108 17.4141 27.177 17.4521 26.572 17.4621H26.543C26.48 17.4679 26.4165 17.4606 26.3564 17.4406C26.2964 17.4206 26.2412 17.3885 26.1942 17.3461C26.1472 17.3037 26.1095 17.2521 26.0835 17.1944C26.0575 17.1367 26.0437 17.0743 26.043 17.0111C26.0447 16.9389 26.0613 16.8679 26.0917 16.8025C26.1221 16.737 26.1658 16.6786 26.2198 16.6308C26.2739 16.583 26.3373 16.5469 26.406 16.5248C26.4746 16.5026 26.5472 16.4949 26.619 16.5021C27.867 16.4831 30.619 16.4641 32.051 16.4541C32.1149 16.4475 32.1796 16.4547 32.2406 16.475C32.3016 16.4953 32.3575 16.5284 32.4048 16.5719C32.4521 16.6155 32.4896 16.6686 32.5148 16.7278C32.5399 16.7869 32.5523 16.8508 32.551 16.9151C32.5512 16.9827 32.5374 17.0496 32.5104 17.1117C32.4834 17.1737 32.4439 17.2294 32.3942 17.2754C32.3446 17.3213 32.286 17.3565 32.2221 17.3787C32.1582 17.4008 32.0904 17.4095 32.023 17.4041H31.998C31.662 17.4041 31.198 17.3851 30.693 17.3851H30.108C30.059 18.2535 29.725 19.0816 29.1577 19.7409C28.5904 20.4003 27.8214 20.8541 26.97 21.0321L26.958 21.0451ZM27.948 14.7451C28.869 14.7451 29.541 14.7161 30.568 14.6871H30.587C30.6493 14.6852 30.7115 14.6956 30.7698 14.7177C30.8282 14.7398 30.8816 14.7732 30.9271 14.8159C30.9725 14.8587 31.0091 14.91 31.0348 14.9669C31.0604 15.0238 31.0746 15.0852 31.0765 15.1476C31.0784 15.2099 31.068 15.2721 31.0459 15.3304C31.0237 15.3888 30.9904 15.4422 30.9476 15.4877C30.9048 15.5331 30.8535 15.5697 30.7966 15.5954C30.7397 15.621 30.6783 15.6352 30.616 15.6371C29.407 15.6561 28.533 15.6851 27.603 15.6851C27.229 15.6851 27.046 15.4551 27.046 15.2241C27.047 15.1542 27.0627 15.0854 27.092 15.022C27.1213 14.9587 27.1636 14.9021 27.216 14.856C27.2685 14.81 27.33 14.7754 27.3967 14.7546C27.4633 14.7337 27.5336 14.7271 27.603 14.7351H27.958L27.948 14.7451ZM31.777 15.7721C31.6436 15.5252 31.4793 15.2963 31.288 15.0911C31.2444 15.058 31.2081 15.0162 31.1816 14.9683C31.1551 14.9204 31.1389 14.8676 31.134 14.8131C31.1443 14.7183 31.1911 14.6314 31.2645 14.5705C31.3378 14.5097 31.432 14.4797 31.527 14.4871C31.863 14.4871 32.506 15.2261 32.506 15.5431C32.5029 15.6591 32.4555 15.7695 32.3734 15.8515C32.2914 15.9336 32.181 15.981 32.065 15.9841C32.0016 15.9872 31.939 15.9693 31.8869 15.9332C31.8348 15.897 31.7961 15.8445 31.777 15.7841V15.7721ZM33.313 15.5131C33.2494 15.5093 33.1874 15.4919 33.1311 15.462C33.0749 15.4322 33.0257 15.3906 32.987 15.3401C32.8314 15.1089 32.6614 14.8878 32.478 14.6781C32.4319 14.6466 32.3935 14.6054 32.3653 14.5574C32.3371 14.5093 32.3199 14.4556 32.315 14.4001C32.3246 14.3042 32.3708 14.2158 32.4441 14.1532C32.5173 14.0906 32.6118 14.0587 32.708 14.0641C32.9483 14.1464 33.1654 14.2853 33.3408 14.4691C33.5162 14.6529 33.6449 14.8761 33.716 15.1201C33.7147 15.2257 33.6721 15.3267 33.5974 15.4015C33.5226 15.4762 33.4217 15.5188 33.316 15.5201L33.313 15.5131Z" fill="white"/>
</g>
<g filter="url(#filter3_d_123_11803)">
<path d="M36.6239 20.7249L36.6619 18.7379C36.2209 19.1379 35.1839 19.9859 34.7429 19.9859C34.681 19.989 34.6192 19.9798 34.561 19.9587C34.5027 19.9376 34.4493 19.9051 34.4037 19.8631C34.3582 19.8211 34.3215 19.7704 34.2958 19.7141C34.2701 19.6578 34.2558 19.5968 34.2539 19.5349C34.2572 19.4487 34.2851 19.3652 34.3344 19.2943C34.3837 19.2234 34.4522 19.1681 34.5319 19.1349C35.7798 18.468 36.8369 17.4936 37.6029 16.3039C37.6452 16.2283 37.7063 16.1648 37.7801 16.1194C37.854 16.0741 37.9383 16.0484 38.0249 16.0449C38.1441 16.0438 38.259 16.0893 38.3451 16.1717C38.4312 16.2541 38.4817 16.3668 38.4859 16.4859C38.4822 16.5867 38.4472 16.6839 38.3859 16.7639C38.1298 17.1239 37.8544 17.4698 37.5609 17.7999C37.5609 18.2129 37.5419 18.9899 37.5419 19.6619V20.7269C37.5465 20.7925 37.5374 20.8583 37.5153 20.9202C37.4931 20.9821 37.4584 21.0387 37.4134 21.0865C37.3683 21.1344 37.3138 21.1723 37.2533 21.198C37.1928 21.2237 37.1276 21.2367 37.0619 21.2359C36.9975 21.2365 36.9337 21.2232 36.8748 21.197C36.8159 21.1708 36.7633 21.1323 36.7206 21.084C36.6779 21.0358 36.646 20.979 36.627 20.9174C36.6081 20.8558 36.6026 20.7908 36.6109 20.7269L36.6239 20.7249Z" fill="white"/>
</g>
<g filter="url(#filter4_d_123_11803)">
<path d="M91.8756 28.4896L90.7916 32.4996C90.7822 32.5237 90.7694 32.5463 90.7536 32.5666C88.0276 35.6856 85.9356 38.0756 83.9876 38.0756C82.8166 38.0756 82.4876 36.3866 83.2486 33.5646C84.7266 28.0746 87.2316 25.8196 89.5736 25.8196C91.5796 25.8196 92.2796 26.9516 91.8676 28.4876M72.7406 28.2876C72.1406 30.4946 67.3566 38.1346 64.6786 38.1346C63.8436 38.1346 63.1426 37.0116 63.9976 33.8256C65.4756 28.3356 68.0096 25.7736 70.2976 25.7736C72.3036 25.7736 73.0326 27.2136 72.7446 28.2876M47.8056 25.8216C49.2546 25.8216 49.5906 26.6466 49.2456 27.9216C48.6796 30.0216 44.6676 33.1036 41.9326 33.1036C43.4106 27.6136 46.0686 25.8196 47.7966 25.8196M59.9846 14.3716C60.6756 13.0086 61.2416 11.9816 61.7506 11.1716C61.9725 12.6524 61.9983 14.156 61.8276 15.6436C61.3831 19.5932 59.7229 23.3072 57.0766 26.2726C56.9906 26.3726 56.9036 26.4726 56.8176 26.5726C57.5566 23.2616 57.8256 18.6456 59.9846 14.3846M115.517 25.1206C115.517 25.1206 115.287 25.0726 115.239 25.0726L113.416 25.3026H113.406C113.184 25.4801 112.983 25.6813 112.806 25.9026C111.798 27.1886 110.887 29.5206 109.917 31.0276C108.727 32.9086 105.109 38.6276 102.729 38.6276C102.504 38.6309 102.287 38.5466 102.124 38.3925C101.961 38.2384 101.865 38.0268 101.856 37.8026C101.882 37.1676 101.975 36.5372 102.134 35.9216L105.291 25.6626C105.339 25.5626 105.339 25.4326 105.391 25.3456L105.291 25.1636C105.291 25.1636 105.013 25.1156 104.974 25.1156C104.283 25.2156 102.68 25.1636 102.412 25.9886L100.512 31.9386C100.33 31.9676 100.167 32.1386 99.8586 32.5386C97.8816 35.1006 96.1926 37.6636 94.5126 37.6636C93.1206 37.6636 92.5546 36.6366 93.7066 32.3856L94.4556 29.6116L94.9256 27.8646C95.8256 24.5346 97.0946 20.2256 98.3906 16.8946C99.7906 13.2576 100.691 11.2326 101.529 10.1666C101.548 10.1423 101.56 10.1127 101.562 10.0816C101.564 10.0506 101.557 10.0195 101.542 9.99255C101.526 9.96557 101.503 9.9439 101.475 9.93036C101.447 9.91681 101.415 9.91202 101.385 9.91661L98.9946 10.2426C98.9583 10.2518 98.9243 10.2681 98.8946 10.2906C97.6376 11.5576 96.9076 13.1606 95.6896 16.3846C94.4796 19.4728 93.4417 22.6256 92.5806 25.8286C92.5728 25.8551 92.5577 25.8788 92.5369 25.8968C92.5161 25.9149 92.4905 25.9267 92.4632 25.9307C92.436 25.9347 92.4081 25.9308 92.383 25.9194C92.3579 25.9081 92.3366 25.8897 92.3216 25.8666C91.9743 25.5374 91.5614 25.2851 91.1099 25.1264C90.6584 24.9677 90.1785 24.9061 89.7016 24.9456C86.6886 24.9456 82.4466 26.7456 80.3156 32.3546C80.2739 32.4146 80.2292 32.4723 80.1816 32.5276C78.2046 35.0896 76.5156 37.6526 74.7876 37.6526C73.3956 37.6526 73.3876 36.6256 74.5376 32.3746C75.0677 30.2095 75.8392 28.1107 76.8376 26.1176C77.0876 25.7854 77.2971 25.4245 77.4616 25.0426C77.4996 24.8886 77.4716 24.7836 77.2506 24.7836C76.882 24.8197 76.5201 24.9069 76.1756 25.0426C75.2826 25.4556 74.1606 25.9156 73.8816 26.9426C73.7956 26.2226 72.9696 24.9426 70.4076 24.9426C67.4516 24.9426 63.0076 26.7856 60.9546 32.8426C59.2276 35.1076 57.6726 37.1616 56.1756 37.1616C54.7836 37.1616 54.2756 36.1346 55.4266 31.8836L55.6956 30.8836L55.6666 30.9126L55.8106 30.4326L56.1656 29.1176C56.1656 29.1176 56.2136 29.0596 56.2426 29.0316L56.5016 28.1866C59.2556 25.0096 61.6836 22.0866 62.9606 16.3246C63.4166 14.2856 64.0826 10.3126 63.1326 8.09961C63.1196 8.06771 63.0968 8.04079 63.0675 8.02279C63.0382 8.00479 63.0038 7.99667 62.9696 7.99961C62.587 8.09556 62.2424 8.30467 61.9806 8.59961C60.4256 9.76561 58.9166 11.9826 57.4026 15.8886C55.5177 21.0823 53.9065 26.3712 52.5756 31.7336L52.5176 31.9446C52.3176 31.9926 52.1626 32.1556 51.9176 32.5446C50.1806 34.8446 47.1286 38.0826 44.5086 38.0826C42.1086 38.0826 41.0436 36.4416 41.7346 33.8826C44.8726 33.8346 49.4796 30.6006 50.2276 27.8366C50.6886 26.1476 50.0546 24.9666 47.6556 24.9666C45.0256 24.9666 40.6496 26.6366 38.7786 32.5196C38.7667 32.5304 38.7568 32.5433 38.7496 32.5576C36.7726 35.1196 35.0256 37.6826 33.3496 37.6826C31.9576 37.6826 32.1496 36.7616 33.5706 31.4736C34.8466 26.7516 34.8756 24.9576 32.0346 24.9576C28.4066 24.9576 24.9346 30.1876 23.5896 32.2896C25.0966 26.7036 24.8946 24.9576 21.9966 24.9576C18.6476 24.9576 14.8856 30.0346 13.3786 32.2896C13.9066 30.3416 14.8786 26.7516 15.2016 26.1376C15.5186 25.5716 15.8256 25.2646 15.8826 25.0626C15.9206 24.9086 15.8446 24.8036 15.6136 24.8036C15.2638 24.8402 14.9212 24.9274 14.5966 25.0626C13.6466 25.4756 12.0966 26.2906 11.7466 27.5766C11.7466 27.5766 10.7676 31.2136 10.4986 32.1926C9.97356 34.1426 8.98556 37.8366 8.63056 38.4996C8.31656 39.0656 8.07356 39.3246 8.01656 39.5266C7.95956 39.7286 8.05456 39.7856 8.22756 39.7856C8.60031 39.7774 8.96694 39.689 9.30256 39.5266C10.2526 39.1136 11.7496 38.2986 12.0956 37.0126C12.5558 35.3971 13.2509 33.858 14.1586 32.4446C15.2046 30.8516 18.2856 26.4446 20.5786 26.4446C21.8646 26.4446 21.8786 27.6246 20.6076 32.3376C20.3296 33.3646 19.2256 37.4626 18.7266 38.4896C18.5592 38.8416 18.3733 39.1844 18.1696 39.5166C18.1116 39.7166 18.2076 39.7756 18.3806 39.7756C18.7539 39.7723 19.1216 39.6837 19.4556 39.5166C20.4056 39.1036 21.9556 38.2886 22.3056 37.0026C22.7396 35.4062 23.414 33.8852 24.3056 32.4916C25.6106 30.5436 28.3366 26.4356 30.3426 26.4356C31.9066 26.4356 31.7536 27.6156 30.5826 31.9736C29.1626 37.2516 28.7306 39.6606 31.4076 39.6606C34.2486 39.6606 36.7246 36.4076 38.3556 34.1606C37.8186 37.7016 39.9776 39.6606 42.8946 39.6606C46.9346 39.6606 50.4576 35.4766 52.1176 33.3266L52.0406 33.6266C51.2246 36.6496 51.5516 39.1646 54.2286 39.1646C56.6756 39.1646 58.8446 36.7556 60.4376 34.6646C59.7846 37.9276 61.0516 39.6646 63.0196 39.6646C66.7526 39.6646 70.3996 34.2326 71.6196 32.3806C70.4006 36.8916 70.1606 39.6646 72.8386 39.6646C75.5166 39.6646 78.0686 36.5166 79.7006 34.2806C78.9616 37.3806 80.1896 39.6646 82.0906 39.6646C85.1996 39.6646 87.9836 36.7756 89.9126 34.6066C89.936 34.5804 89.9676 34.5628 90.0023 34.5567C90.0369 34.5506 90.0726 34.5563 90.1037 34.5729C90.1347 34.5895 90.1592 34.616 90.1733 34.6483C90.1875 34.6805 90.1904 34.7165 90.1816 34.7506C89.5816 37.4856 90.0816 39.6646 92.5816 39.6646C95.7816 39.6646 98.4456 35.5566 100.039 33.3976L99.5246 34.9996C99.2051 35.8518 99.0206 36.7486 98.9776 37.6576C98.9776 39.0296 99.7066 40.2676 101.224 40.2676C104.967 40.2676 108.787 34.6816 110.639 31.6786C110.644 31.6704 110.652 31.6643 110.661 31.6612C110.67 31.6581 110.68 31.6583 110.689 31.6617C110.698 31.6651 110.706 31.6716 110.71 31.6799C110.715 31.6883 110.717 31.6981 110.716 31.7076C109.939 34.3466 108.787 39.5386 108.422 41.2186C108.345 41.5756 108.249 41.9281 108.134 42.2746C107.536 44.5478 106.433 46.657 104.909 48.4456C103.028 50.4606 100.993 50.6456 98.9876 50.9886C98.9502 50.9969 98.9161 51.0157 98.8891 51.0428C98.8622 51.0699 98.8435 51.1041 98.8354 51.1415C98.8273 51.1788 98.8301 51.2177 98.8434 51.2535C98.8567 51.2894 98.88 51.3206 98.9106 51.3436L101.8 53.3876C101.973 53.4006 102.147 53.3742 102.309 53.3106C106.868 51.5106 109.181 47.1396 110.351 42.6006L110.975 40.0386C111.512 37.9276 112.107 35.8446 112.731 33.7616C113.604 30.9206 114.698 28.1276 115.62 25.2876L115.52 25.1056L115.517 25.1206Z" fill="white"/>
</g>
<defs>
<filter id="filter0_d_123_11803" x="3.99414" y="6.49805" width="19.9062" height="22.5557" filterUnits="userSpaceOnUse" color-interpolation-filters="sRGB">
<feFlood flood-opacity="0" result="BackgroundImageFix"/>
<feColorMatrix in="SourceAlpha" type="matrix" values="0 0 0 0 0 0 0 0 0 0 0 0 0 0 0 0 0 0 127 0" result="hardAlpha"/>
<feOffset/>
<feGaussianBlur stdDeviation="4"/>
<feComposite in2="hardAlpha" operator="out"/>
<feColorMatrix type="matrix" values="0 0 0 0 0.921569 0 0 0 0 0.509804 0 0 0 0 0.501961 0 0 0 1 0"/>
<feBlend mode="normal" in2="BackgroundImageFix" result="effect1_dropShadow_123_11803"/>
<feBlend mode="normal" in="SourceGraphic" in2="effect1_dropShadow_123_11803" result="shape"/>
</filter>
<filter id="filter1_d_123_11803" x="10.4746" y="7.17969" width="21.5488" height="21.2783" filterUnits="userSpaceOnUse" color-interpolation-filters="sRGB">
<feFlood flood-opacity="0" result="BackgroundImageFix"/>
<feColorMatrix in="SourceAlpha" type="matrix" values="0 0 0 0 0 0 0 0 0 0 0 0 0 0 0 0 0 0 127 0" result="hardAlpha"/>
<feOffset/>
<feGaussianBlur stdDeviation="4"/>
<feComposite in2="hardAlpha" operator="out"/>
<feColorMatrix type="matrix" values="0 0 0 0 0.921569 0 0 0 0 0.509804 0 0 0 0 0.501961 0 0 0 1 0"/>
<feBlend mode="normal" in2="BackgroundImageFix" result="effect1_dropShadow_123_11803"/>
<feBlend mode="normal" in="SourceGraphic" in2="effect1_dropShadow_123_11803" result="shape"/>
</filter>
<filter id="filter2_d_123_11803" x="18.043" y="6.06348" width="23.6738" height="22.9834" filterUnits="userSpaceOnUse" color-interpolation-filters="sRGB">
<feFlood flood-opacity="0" result="BackgroundImageFix"/>
<feColorMatrix in="SourceAlpha" type="matrix" values="0 0 0 0 0 0 0 0 0 0 0 0 0 0 0 0 0 0 127 0" result="hardAlpha"/>
<feOffset/>
<feGaussianBlur stdDeviation="4"/>
<feComposite in2="hardAlpha" operator="out"/>
<feColorMatrix type="matrix" values="0 0 0 0 0.921569 0 0 0 0 0.509804 0 0 0 0 0.501961 0 0 0 1 0"/>
<feBlend mode="normal" in2="BackgroundImageFix" result="effect1_dropShadow_123_11803"/>
<feBlend mode="normal" in="SourceGraphic" in2="effect1_dropShadow_123_11803" result="shape"/>
</filter>
<filter id="filter3_d_123_11803" x="26.2539" y="8.04492" width="20.2324" height="21.1914" filterUnits="userSpaceOnUse" color-interpolation-filters="sRGB">
<feFlood flood-opacity="0" result="BackgroundImageFix"/>
<feColorMatrix in="SourceAlpha" type="matrix" values="0 0 0 0 0 0 0 0 0 0 0 0 0 0 0 0 0 0 127 0" result="hardAlpha"/>
<feOffset/>
<feGaussianBlur stdDeviation="4"/>
<feComposite in2="hardAlpha" operator="out"/>
<feColorMatrix type="matrix" values="0 0 0 0 0.921569 0 0 0 0 0.509804 0 0 0 0 0.501961 0 0 0 1 0"/>
<feBlend mode="normal" in2="BackgroundImageFix" result="effect1_dropShadow_123_11803"/>
<feBlend mode="normal" in="SourceGraphic" in2="effect1_dropShadow_123_11803" result="shape"/>
</filter>
<filter id="filter4_d_123_11803" x="0" y="-0.000976562" width="123.619" height="61.3916" filterUnits="userSpaceOnUse" color-interpolation-filters="sRGB">
<feFlood flood-opacity="0" result="BackgroundImageFix"/>
<feColorMatrix in="SourceAlpha" type="matrix" values="0 0 0 0 0 0 0 0 0 0 0 0 0 0 0 0 0 0 127 0" result="hardAlpha"/>
<feOffset/>
<feGaussianBlur stdDeviation="4"/>
<feComposite in2="hardAlpha" operator="out"/>
<feColorMatrix type="matrix" values="0 0 0 0 0.921569 0 0 0 0 0.509804 0 0 0 0 0.501961 0 0 0 1 0"/>
<feBlend mode="normal" in2="BackgroundImageFix" result="effect1_dropShadow_123_11803"/>
<feBlend mode="normal" in="SourceGraphic" in2="effect1_dropShadow_123_11803" result="shape"/>
</filter>
</defs>
</svg>
