<svg xmlns="http://www.w3.org/2000/svg" xmlns:xlink="http://www.w3.org/1999/xlink" width="395.1" height="102.616" viewBox="0 0 395.1 102.616">
  <defs>
    <filter id="パス_10343" x="0" y="0" width="395.1" height="102.616" filterUnits="userSpaceOnUse">
      <feOffset input="SourceAlpha"/>
      <feGaussianBlur stdDeviation="5.5" result="blur"/>
      <feFlood flood-color="#739b86"/>
      <feComposite operator="in" in2="blur"/>
      <feComposite in="SourceGraphic"/>
    </filter>
    <filter id="パス_10344" x="4.465" y="4.473" width="386.1" height="93.616" filterUnits="userSpaceOnUse">
      <feOffset input="SourceAlpha"/>
      <feGaussianBlur stdDeviation="4" result="blur-2"/>
      <feFlood flood-color="#739b86"/>
      <feComposite operator="in" in2="blur-2"/>
      <feComposite in="SourceGraphic"/>
    </filter>
  </defs>
  <g id="グループ_3948" data-name="グループ 3948" transform="translate(-826.504 -319.33)">
    <g transform="matrix(1, 0, 0, 1, 826.5, 319.33)" filter="url(#パス_10343)">
      <path id="パス_10343-2" data-name="パス 10343" d="M2.38.28C10.57.14,17.57,0,23.38,0,30.66,0,37.8.07,44.8.14l.28-14H42.21c-1.4,7.28-5.6,10.5-13.44,10.5-7.07,0-8.82-2.24-8.82-9.24V-38.22c0-4.62,1.26-5.95,6.3-5.95h.42v-2.8c-5.46.14-9.59.21-12.18.21-3.5,0-7.56-.07-12.11-.21v2.8h.35c4.62,0,6.09,1.33,6.09,5.53V-9.66c0,5.25-1.19,7-5.88,7H2.38ZM68.81-3.5C69.79-.35,71.75.98,75.25.98a10.453,10.453,0,0,0,8.12-4.13L81.9-5.04a5.082,5.082,0,0,1-2.31,1.05c-.91,0-1.26-.56-1.26-1.96V-22.47c0-6.09-4.48-9.1-13.3-9.1-8.4,0-13.09,2.8-13.09,6.72a3.787,3.787,0,0,0,3.92,3.92c3.29,0,3.85-2.66,4.97-5.11a4.669,4.669,0,0,1,4.34-2.8c2.52,0,3.92,1.47,3.92,4.34v2.38a2.223,2.223,0,0,1-1.75,2.38l-4.97,1.82c-7.98,3.01-11.62,5.46-11.62,10.99,0,4.83,3.08,7.91,8.12,7.91C62.37.98,65.45-.49,68.81-3.5Zm-.07-5.95a4.759,4.759,0,0,1-4.83,4.69c-1.96,0-3.36-1.61-3.36-4.27,0-3.99,2.59-6.37,8.19-8.12ZM111.58.91a75.565,75.565,0,0,1,13.37-2.73V-4.27c-3.29-.07-4.69-.77-4.69-2.94V-49.77a68.679,68.679,0,0,1-14.98,1.89v2.52c4.34.21,5.39.7,5.39,3.71v14.14a12.914,12.914,0,0,0-9.94-4.13c-8.33,0-14.84,6.79-14.84,16.31,0,9.94,5.6,16.24,14.42,16.24a11.5,11.5,0,0,0,10.5-5.67Zm-1.12-20.86v7.49c0,5.46-2.66,8.33-7.28,8.33-4.41,0-6.65-3.78-6.65-11.2,0-7.77,2.66-11.76,7.28-11.76C108.01-27.09,110.46-24.57,110.46-19.95ZM143.43.28l-3.01,6.3c-1.33,2.73-2.73,3.99-3.85,3.99-4.06,0-7.07,1.96-7.07,5.04,0,2.38,1.68,3.92,4.2,3.92,3.92,0,6.37-4.13,9.87-11.76l11.34-24.78c3.15-6.86,4.2-11.34,7.91-11.48v-2.52c-3.43.14-5.39.21-5.95.21-.91,0-3.01-.14-6.3-.21v2.52c2.8,0,3.85.63,3.85,2.66a18.283,18.283,0,0,1-1.82,6.16l-4.13,9.17-5.39-13.79a6.884,6.884,0,0,1-.56-2.38c0-1.54,1.12-1.82,3.71-1.82v-2.52c-2.59.14-5.32.21-8.05.21-4.13,0-7.42-.07-9.94-.21v2.52c2.94.07,3.36,1.47,4.69,4.55Zm42.91,0c3.43-.21,6.58-.35,9.45-.35,4.76,0,9.1.35,12.95.35,13.72,0,20.72-4.48,20.72-12.74,0-7.42-5.6-11.41-15.82-12.67,8.47-1.19,12.81-4.97,12.81-10.71,0-7.56-6.37-11.27-19.32-11.27-3.71,0-7.77.42-12.11.42-2.17,0-5.04-.14-8.68-.42v2.87c5.46.07,6.58,1.33,6.58,6.02V-9.17c0,4.9-1.26,6.37-6.58,6.44ZM203.77-23.1c.84-.07,1.61-.07,2.31-.07,7.56,0,10.99,3.01,10.99,9.87,0,6.65-2.59,9.94-7.84,9.94-4.2,0-5.46-2.24-5.46-7.98Zm0-3.36V-42.35c0-1.05.21-1.33,2.52-1.33,5.81,0,8.61,2.59,8.61,8.05,0,6.58-2.59,9.24-9.52,9.24C204.89-26.39,204.33-26.46,203.77-26.46ZM235.48.21A45.09,45.09,0,0,1,240.94,0h6.79c2.38,0,4.62,0,6.79.21V-2.38c-3.43-.14-4.69-.98-4.69-3.78V-49.77a55.143,55.143,0,0,1-14,2.73v2.52c3.01.21,4.34.77,4.34,2.59V-6.16c0,2.87-.56,3.5-4.69,3.78ZM276.5-3.5c.98,3.15,2.94,4.48,6.44,4.48a10.453,10.453,0,0,0,8.12-4.13l-1.47-1.89a5.082,5.082,0,0,1-2.31,1.05c-.91,0-1.26-.56-1.26-1.96V-22.47c0-6.09-4.48-9.1-13.3-9.1-8.4,0-13.09,2.8-13.09,6.72a3.787,3.787,0,0,0,3.92,3.92c3.29,0,3.85-2.66,4.97-5.11a4.669,4.669,0,0,1,4.34-2.8c2.52,0,3.92,1.47,3.92,4.34v2.38a2.223,2.223,0,0,1-1.75,2.38l-4.97,1.82c-7.98,3.01-11.62,5.46-11.62,10.99,0,4.83,3.08,7.91,8.12,7.91C270.06.98,273.14-.49,276.5-3.5Zm-.07-5.95a4.759,4.759,0,0,1-4.83,4.69c-1.96,0-3.36-1.61-3.36-4.27,0-3.99,2.59-6.37,8.19-8.12Zm44.52,1.4c-2.38,3.08-5.18,4.69-8.4,4.69-5.53,0-8.4-4.27-8.4-12.67,0-8.19,2.38-12.6,6.16-12.6,3.15,0,3.64,2.38,4.69,4.69.91,2.03,2.38,3.08,4.13,3.08a3.53,3.53,0,0,0,3.85-3.71c0-4.13-4.34-7-11.76-7-10.43,0-17.57,6.93-17.57,16.8,0,9.45,6.3,15.75,15.54,15.75,6.02,0,10.78-2.31,14-6.86ZM327.53.21C329.21.07,333.48,0,340.27,0c2.31,0,4.06.07,5.46.21V-2.31c-3.5-.42-4.27-1.05-4.27-3.85v-5.18l2.38-2.24L353.64.21a26.33,26.33,0,0,1,4.2-.21c1.68,0,3.85.07,6.58.21V-2.45h-.14a3.363,3.363,0,0,1-2.52-1.33L349.79-19.53l5.18-5.32a13,13,0,0,1,7.7-3.78v-2.31c-2.24.14-4.62.21-6.93.21-2.8,0-5.67-.07-8.54-.21v2.31c2.8.07,4.13.7,4.13,2.03s-1.4,2.59-3.57,4.76l-6.3,6.3V-49.77a46.077,46.077,0,0,1-13.93,2.8v2.59h.35c3.08,0,3.99.98,3.99,4.06V-6.16c0,2.8-.7,3.5-4.34,3.85Z" transform="translate(14.14 66.27) rotate(0.05)" fill="#fff" opacity="0.51"/>
    </g>
    <g transform="matrix(1, 0, 0, 1, 826.5, 319.33)" filter="url(#パス_10344)">
      <path id="パス_10344-2" data-name="パス 10344" d="M-179.655.28c8.19-.14,15.19-.28,21-.28,7.28,0,14.42.07,21.42.14l.28-14h-2.87c-1.4,7.28-5.6,10.5-13.44,10.5-7.07,0-8.82-2.24-8.82-9.24V-38.22c0-4.62,1.26-5.95,6.3-5.95h.42v-2.8c-5.46.14-9.59.21-12.18.21-3.5,0-7.56-.07-12.11-.21v2.8h.35c4.62,0,6.09,1.33,6.09,5.53V-9.66c0,5.25-1.19,7-5.88,7h-.56Zm66.43-3.78c.98,3.15,2.94,4.48,6.44,4.48a10.453,10.453,0,0,0,8.12-4.13l-1.47-1.89a5.082,5.082,0,0,1-2.31,1.05c-.91,0-1.26-.56-1.26-1.96V-22.47c0-6.09-4.48-9.1-13.3-9.1-8.4,0-13.09,2.8-13.09,6.72a3.787,3.787,0,0,0,3.92,3.92c3.29,0,3.85-2.66,4.97-5.11a4.669,4.669,0,0,1,4.34-2.8c2.52,0,3.92,1.47,3.92,4.34v2.38a2.223,2.223,0,0,1-1.75,2.38l-4.97,1.82c-7.98,3.01-11.62,5.46-11.62,10.99,0,4.83,3.08,7.91,8.12,7.91C-119.665.98-116.585-.49-113.225-3.5Zm-.07-5.95a4.759,4.759,0,0,1-4.83,4.69c-1.96,0-3.36-1.61-3.36-4.27,0-3.99,2.59-6.37,8.19-8.12ZM-70.455.91a75.565,75.565,0,0,1,13.37-2.73V-4.27c-3.29-.07-4.69-.77-4.69-2.94V-49.77a68.679,68.679,0,0,1-14.98,1.89v2.52c4.34.21,5.39.7,5.39,3.71v14.14a12.914,12.914,0,0,0-9.94-4.13c-8.33,0-14.84,6.79-14.84,16.31,0,9.94,5.6,16.24,14.42,16.24a11.5,11.5,0,0,0,10.5-5.67Zm-1.12-20.86v7.49c0,5.46-2.66,8.33-7.28,8.33-4.41,0-6.65-3.78-6.65-11.2,0-7.77,2.66-11.76,7.28-11.76C-74.025-27.09-71.575-24.57-71.575-19.95ZM-38.6.28l-3.01,6.3c-1.33,2.73-2.73,3.99-3.85,3.99-4.06,0-7.07,1.96-7.07,5.04,0,2.38,1.68,3.92,4.2,3.92,3.92,0,6.37-4.13,9.87-11.76l11.34-24.78c3.15-6.86,4.2-11.34,7.91-11.48v-2.52c-3.43.14-5.39.21-5.95.21-.91,0-3.01-.14-6.3-.21v2.52c2.8,0,3.85.63,3.85,2.66a18.283,18.283,0,0,1-1.82,6.16l-4.13,9.17-5.39-13.79a6.884,6.884,0,0,1-.56-2.38c0-1.54,1.12-1.82,3.71-1.82v-2.52c-2.59.14-5.32.21-8.05.21-4.13,0-7.42-.07-9.94-.21v2.52c2.94.07,3.36,1.47,4.69,4.55Zm42.91,0c3.43-.21,6.58-.35,9.45-.35,4.76,0,9.1.35,12.95.35,13.72,0,20.72-4.48,20.72-12.74,0-7.42-5.6-11.41-15.82-12.67,8.47-1.19,12.81-4.97,12.81-10.71,0-7.56-6.37-11.27-19.32-11.27-3.71,0-7.77.42-12.11.42-2.17,0-5.04-.14-8.68-.42v2.87c5.46.07,6.58,1.33,6.58,6.02V-9.17c0,4.9-1.26,6.37-6.58,6.44ZM21.735-23.1c.84-.07,1.61-.07,2.31-.07,7.56,0,10.99,3.01,10.99,9.87,0,6.65-2.59,9.94-7.84,9.94-4.2,0-5.46-2.24-5.46-7.98Zm0-3.36V-42.35c0-1.05.21-1.33,2.52-1.33,5.81,0,8.61,2.59,8.61,8.05,0,6.58-2.59,9.24-9.52,9.24C22.855-26.39,22.3-26.46,21.735-26.46ZM53.445.21A45.09,45.09,0,0,1,58.905,0h6.79c2.38,0,4.62,0,6.79.21V-2.38c-3.43-.14-4.69-.98-4.69-3.78V-49.77a55.143,55.143,0,0,1-14,2.73v2.52c3.01.21,4.34.77,4.34,2.59V-6.16c0,2.87-.56,3.5-4.69,3.78ZM94.465-3.5C95.445-.35,97.4.98,100.9.98a10.453,10.453,0,0,0,8.12-4.13l-1.47-1.89a5.082,5.082,0,0,1-2.31,1.05c-.91,0-1.26-.56-1.26-1.96V-22.47c0-6.09-4.48-9.1-13.3-9.1-8.4,0-13.09,2.8-13.09,6.72a3.787,3.787,0,0,0,3.92,3.92c3.29,0,3.85-2.66,4.97-5.11a4.669,4.669,0,0,1,4.34-2.8c2.52,0,3.92,1.47,3.92,4.34v2.38a2.223,2.223,0,0,1-1.75,2.38l-4.97,1.82C80.045-14.91,76.4-12.46,76.4-6.93c0,4.83,3.08,7.91,8.12,7.91C88.025.98,91.105-.49,94.465-3.5ZM94.4-9.45a4.759,4.759,0,0,1-4.83,4.69c-1.96,0-3.36-1.61-3.36-4.27,0-3.99,2.59-6.37,8.19-8.12Zm44.52,1.4c-2.38,3.08-5.18,4.69-8.4,4.69-5.53,0-8.4-4.27-8.4-12.67,0-8.19,2.38-12.6,6.16-12.6,3.15,0,3.64,2.38,4.69,4.69.91,2.03,2.38,3.08,4.13,3.08a3.53,3.53,0,0,0,3.85-3.71c0-4.13-4.34-7-11.76-7-10.43,0-17.57,6.93-17.57,16.8,0,9.45,6.3,15.75,15.54,15.75,6.02,0,10.78-2.31,14-6.86Zm6.58,8.26c1.68-.14,5.95-.21,12.74-.21,2.31,0,4.06.07,5.46.21V-2.31c-3.5-.42-4.27-1.05-4.27-3.85v-5.18l2.38-2.24L171.6.21A26.33,26.33,0,0,1,175.8,0c1.68,0,3.85.07,6.58.21V-2.45h-.14a3.363,3.363,0,0,1-2.52-1.33l-11.97-15.75,5.18-5.32a13,13,0,0,1,7.7-3.78v-2.31c-2.24.14-4.62.21-6.93.21-2.8,0-5.67-.07-8.54-.21v2.31c2.8.07,4.13.7,4.13,2.03s-1.4,2.59-3.57,4.76l-6.3,6.3V-49.77a46.077,46.077,0,0,1-13.93,2.8v2.59h.35c3.08,0,3.99.98,3.99,4.06V-6.16c0,2.8-.7,3.5-4.34,3.85Z" transform="translate(196.14 66.4) rotate(0.05)" fill="#fff"/>
    </g>
  </g>
</svg>
