<svg xmlns="http://www.w3.org/2000/svg" width="212.087" height="40.775" viewBox="0 0 212.087 40.775">
  <path id="パス_10345" data-name="パス 10345" d="M-105.227.164c4.8-.082,8.9-.164,12.3-.164,4.264,0,8.446.041,12.546.082l.164-8.2H-81.9c-.82,4.264-3.28,6.15-7.872,6.15-4.141,0-5.166-1.312-5.166-5.412V-22.386c0-2.706.738-3.485,3.69-3.485H-91v-1.64c-3.2.082-5.617.123-7.134.123-2.05,0-4.428-.041-7.093-.123v1.64h.205c2.706,0,3.567.779,3.567,3.239V-5.658c0,3.075-.7,4.1-3.444,4.1h-.328ZM-66.318-2.05C-65.743-.205-64.6.574-62.546.574A6.122,6.122,0,0,0-57.79-1.845l-.861-1.107A2.976,2.976,0,0,1-60-2.337c-.533,0-.738-.328-.738-1.148v-9.676c0-3.567-2.624-5.33-7.79-5.33-4.92,0-7.667,1.64-7.667,3.936a2.218,2.218,0,0,0,2.3,2.3c1.927,0,2.255-1.558,2.911-2.993a2.735,2.735,0,0,1,2.542-1.64c1.476,0,2.3.861,2.3,2.542v1.394a1.3,1.3,0,0,1-1.025,1.394L-70.09-10.5C-74.764-8.733-76.9-7.3-76.9-4.059c0,2.829,1.8,4.633,4.756,4.633C-70.09.574-68.285-.287-66.318-2.05Zm-.041-3.485a2.787,2.787,0,0,1-2.829,2.747c-1.148,0-1.968-.943-1.968-2.5,0-2.337,1.517-3.731,4.8-4.756ZM-41.266.533a44.26,44.26,0,0,1,7.831-1.6V-2.5c-1.927-.041-2.747-.451-2.747-1.722V-29.151a40.226,40.226,0,0,1-8.774,1.107v1.476c2.542.123,3.157.41,3.157,2.173v8.282a7.564,7.564,0,0,0-5.822-2.419c-4.879,0-8.692,3.977-8.692,9.553,0,5.822,3.28,9.512,8.446,9.512a6.733,6.733,0,0,0,6.15-3.321Zm-.656-12.218V-7.3c0,3.2-1.558,4.879-4.264,4.879-2.583,0-3.9-2.214-3.9-6.56,0-4.551,1.558-6.888,4.264-6.888C-43.357-15.867-41.922-14.391-41.922-11.685ZM-22.611.164l-1.763,3.69c-.779,1.6-1.6,2.337-2.255,2.337-2.378,0-4.141,1.148-4.141,2.952a2.242,2.242,0,0,0,2.46,2.3c2.3,0,3.731-2.419,5.781-6.888l6.642-14.514c1.845-4.018,2.46-6.642,4.633-6.724v-1.476c-2.009.082-3.157.123-3.485.123-.533,0-1.763-.082-3.69-.123v1.476c1.64,0,2.255.369,2.255,1.558a10.708,10.708,0,0,1-1.066,3.608L-19.659-6.15l-3.157-8.077a4.032,4.032,0,0,1-.328-1.394c0-.9.656-1.066,2.173-1.066v-1.476c-1.517.082-3.116.123-4.715.123-2.419,0-4.346-.041-5.822-.123v1.476c1.722.041,1.968.861,2.747,2.665Zm25.133,0C4.531.041,6.376-.041,8.057-.041c2.788,0,5.33.205,7.585.205C23.678.164,27.778-2.46,27.778-7.3c0-4.346-3.28-6.683-9.266-7.421,4.961-.7,7.5-2.911,7.5-6.273,0-4.428-3.731-6.6-11.316-6.6-2.173,0-4.551.246-7.093.246-1.271,0-2.952-.082-5.084-.246v1.681c3.2.041,3.854.779,3.854,3.526V-5.371c0,2.87-.738,3.731-3.854,3.772ZM12.731-13.53c.492-.041.943-.041,1.353-.041,4.428,0,6.437,1.763,6.437,5.781,0,3.9-1.517,5.822-4.592,5.822-2.46,0-3.2-1.312-3.2-4.674Zm0-1.968v-9.307c0-.615.123-.779,1.476-.779,3.4,0,5.043,1.517,5.043,4.715,0,3.854-1.517,5.412-5.576,5.412C13.387-15.457,13.059-15.5,12.731-15.5ZM31.3.123A26.41,26.41,0,0,1,34.5,0h3.977c1.394,0,2.706,0,3.977.123V-1.394c-2.009-.082-2.747-.574-2.747-2.214V-29.151a32.3,32.3,0,0,1-8.2,1.6v1.476c1.763.123,2.542.451,2.542,1.517V-3.608c0,1.681-.328,2.05-2.747,2.214ZM55.33-2.05C55.9-.205,57.052.574,59.1.574a6.122,6.122,0,0,0,4.756-2.419L63-2.952a2.976,2.976,0,0,1-1.353.615c-.533,0-.738-.328-.738-1.148v-9.676c0-3.567-2.624-5.33-7.79-5.33-4.92,0-7.667,1.64-7.667,3.936a2.218,2.218,0,0,0,2.3,2.3c1.927,0,2.255-1.558,2.911-2.993a2.735,2.735,0,0,1,2.542-1.64c1.476,0,2.3.861,2.3,2.542v1.394a1.3,1.3,0,0,1-1.025,1.394L51.558-10.5c-4.674,1.763-6.806,3.2-6.806,6.437,0,2.829,1.8,4.633,4.756,4.633C51.558.574,53.362-.287,55.33-2.05Zm-.041-3.485A2.787,2.787,0,0,1,52.46-2.788c-1.148,0-1.968-.943-1.968-2.5,0-2.337,1.517-3.731,4.8-4.756Zm26.076.82a6.153,6.153,0,0,1-4.92,2.747c-3.239,0-4.92-2.5-4.92-7.421,0-4.8,1.394-7.38,3.608-7.38,1.845,0,2.132,1.394,2.747,2.747a2.655,2.655,0,0,0,2.419,1.8,2.067,2.067,0,0,0,2.255-2.173c0-2.419-2.542-4.1-6.888-4.1-6.109,0-10.291,4.059-10.291,9.84,0,5.535,3.69,9.225,9.1,9.225a9.5,9.5,0,0,0,8.2-4.018ZM85.218.123C86.2.041,88.7,0,92.68,0c1.353,0,2.378.041,3.2.123V-1.353c-2.05-.246-2.5-.615-2.5-2.255V-6.642l1.394-1.312,5.74,8.077A15.422,15.422,0,0,1,102.971,0c.984,0,2.255.041,3.854.123V-1.435h-.082a1.97,1.97,0,0,1-1.476-.779l-7.011-9.225,3.034-3.116a7.617,7.617,0,0,1,4.51-2.214v-1.353c-1.312.082-2.706.123-4.059.123-1.64,0-3.321-.041-5-.123v1.353c1.64.041,2.419.41,2.419,1.189s-.82,1.517-2.091,2.788L93.377-9.1V-29.151a26.988,26.988,0,0,1-8.159,1.64v1.517h.205c1.8,0,2.337.574,2.337,2.378V-3.608c0,1.64-.41,2.05-2.542,2.255Z" transform="translate(105.236 29.243) rotate(0.05)" fill="#7fa083"/>
</svg>
