<svg xmlns="http://www.w3.org/2000/svg" width="553.332" height="61.899" viewBox="0 0 553.332 61.899">
  <g id="グループ_3748" data-name="グループ 3748" transform="translate(9.444 -628.69)">
    <path id="パス_10348" data-name="パス 10348" d="M-199.1,1.325A7.372,7.372,0,0,1-204.137-.25q-1.787-1.575-1.788-5.05V-18.55a1.786,1.786,0,0,1,.538-1.312,1.786,1.786,0,0,1,1.313-.538,1.827,1.827,0,0,1,1.325.538,1.765,1.765,0,0,1,.55,1.313V-5.3a3.031,3.031,0,0,0,.712,2.288,3.465,3.465,0,0,0,2.387.662,5.2,5.2,0,0,0,2.625-.75,5.546,5.546,0,0,0,2.15-2.55,1.832,1.832,0,0,1,1.063-.95,1.747,1.747,0,0,1,1.412.1,1.7,1.7,0,0,1,.938,1.038,2,2,0,0,1-.062,1.437,8.851,8.851,0,0,1-1.962,2.875A8.656,8.656,0,0,1-195.762.688,8.873,8.873,0,0,1-199.1,1.325Zm4.25-16.175a10.254,10.254,0,0,0-.812-.762q-.562-.488-.962-.837a1.132,1.132,0,0,1-.3-.7,1.117,1.117,0,0,1,.275-.85,1.211,1.211,0,0,1,.7-.413,1.159,1.159,0,0,1,.825.138q.425.25,1.025.675a6.441,6.441,0,0,1,.975.825,1.4,1.4,0,0,1,.387.875,1.267,1.267,0,0,1-.312.925,1.2,1.2,0,0,1-.85.45A1.214,1.214,0,0,1-194.85-14.85Zm-.575,2.425a1.218,1.218,0,0,1-.9.35,1.141,1.141,0,0,1-.9-.4q-.25-.275-.762-.825l-.863-.925a1.011,1.011,0,0,1-.237-.738,1.251,1.251,0,0,1,.362-.838,1.173,1.173,0,0,1,.725-.325,1.058,1.058,0,0,1,.8.225,8.412,8.412,0,0,1,.975.762,6.68,6.68,0,0,1,.875.913,1.232,1.232,0,0,1,.325.9A1.39,1.39,0,0,1-195.425-12.425ZM-177.35,2.45a1.43,1.43,0,0,1-.462-1.15,1.67,1.67,0,0,1,.488-1.2q.25-.275.488-.575a5.209,5.209,0,0,0,.438-.65A5.85,5.85,0,0,1-178.725-4a1.567,1.567,0,0,1,.038-1.212,1.477,1.477,0,0,1,.887-.812,1.54,1.54,0,0,1,1.2.037,1.475,1.475,0,0,1,.825.862,2.948,2.948,0,0,0,.525.95,17.014,17.014,0,0,0,.375-4.675,7.357,7.357,0,0,0-2.262,1.15,6.552,6.552,0,0,0-1.812,2.075,6.876,6.876,0,0,0-.825,3.05,1.273,1.273,0,0,1-.425.95,1.6,1.6,0,0,1-1.025.375,1.371,1.371,0,0,1-1.037-.363A1.678,1.678,0,0,1-182.75-2.7q-.1-.875-.175-2t-.113-2.287q-.037-1.162-.037-2.2t.025-1.788a1.616,1.616,0,0,1,.475-1.125,1.372,1.372,0,0,1,1.125-.4,1.4,1.4,0,0,1,1.1.525A1.621,1.621,0,0,1-180-10.8q-.025.425-.025,1.05V-8.4a9.191,9.191,0,0,1,2.175-2.187,8.876,8.876,0,0,1,2.55-1.263q-.2-.875-.45-1.625a1.7,1.7,0,0,1,.087-1.262,1.557,1.557,0,0,1,.913-.838,1.628,1.628,0,0,1,1.25.1,1.518,1.518,0,0,1,.8.95,18.041,18.041,0,0,1,.6,2.4,6.514,6.514,0,0,1,2.725.975,5.6,5.6,0,0,1,1.887,2.013,5.8,5.8,0,0,1,.688,2.862A5.845,5.845,0,0,1-167.7-3a6.085,6.085,0,0,1-2.325,2.112,6.541,6.541,0,0,1-3.05.738h-.225a12.425,12.425,0,0,1-.775,1.338A10.046,10.046,0,0,1-175,2.375a1.628,1.628,0,0,1-1.163.525A1.577,1.577,0,0,1-177.35,2.45Zm5.125-5.775a3.075,3.075,0,0,0,1.613-.963,2.863,2.863,0,0,0,.663-1.988,2.9,2.9,0,0,0-.463-1.675,2.449,2.449,0,0,0-1.312-.95,24.769,24.769,0,0,1-.062,2.838A17.207,17.207,0,0,1-172.225-3.325Zm18.4,5.575a1.716,1.716,0,0,1-1.275-.537,1.778,1.778,0,0,1-.525-1.288V-5.15q-1.125,1.05-2.275,2.2a1.806,1.806,0,0,1-1.325.55,1.806,1.806,0,0,1-1.325-.55,1.747,1.747,0,0,1-.5-1.312,1.884,1.884,0,0,1,.575-1.312q1.15-1.1,2.363-2.175t2.488-2.05v-2.7q-.375.075-.962.225t-1.138.275q-.55.125-.825.175a1.766,1.766,0,0,1-1.4-.237,1.726,1.726,0,0,1-.8-1.163,1.814,1.814,0,0,1,.238-1.425,1.726,1.726,0,0,1,1.162-.8l3.725-.7V-19.4a1.736,1.736,0,0,1,.525-1.275,1.736,1.736,0,0,1,1.275-.525,1.736,1.736,0,0,1,1.275.525,1.736,1.736,0,0,1,.525,1.275v3.2a2.588,2.588,0,0,1,1.45,1.075,2.766,2.766,0,0,1,.275,2.05,12.558,12.558,0,0,1,2.038-.7,8.272,8.272,0,0,1,1.988-.25,8.123,8.123,0,0,1,3.737.788,5.539,5.539,0,0,1,2.35,2.212,6.649,6.649,0,0,1,.813,3.35,6.823,6.823,0,0,1-2.238,5.225A11.888,11.888,0,0,1-148.225.225,1.885,1.885,0,0,1-149.6-.113a1.761,1.761,0,0,1-.75-1.213A1.856,1.856,0,0,1-150-2.7a1.79,1.79,0,0,1,1.2-.75,12.3,12.3,0,0,0,3.525-.963,3.879,3.879,0,0,0,1.7-1.437,3.592,3.592,0,0,0,.475-1.825,2.686,2.686,0,0,0-.737-1.988A3.566,3.566,0,0,0-146.4-10.4a7.147,7.147,0,0,0-2.812.6,14.129,14.129,0,0,0-2.812,1.625v8.6a1.778,1.778,0,0,1-.525,1.288A1.716,1.716,0,0,1-153.825,2.25Zm27.9-1.45a1.52,1.52,0,0,1-1.212-.325,1.667,1.667,0,0,1-.638-1.1,1.52,1.52,0,0,1,.325-1.212,1.667,1.667,0,0,1,1.1-.638,12.069,12.069,0,0,0,3.713-.987,4.01,4.01,0,0,0,1.787-1.525,2.714,2.714,0,0,0,.325-1.788,2.547,2.547,0,0,0-.838-1.7A2.9,2.9,0,0,0-123.4-8.9q-.8.075-1.862.225t-2.187.363q-1.125.212-2.15.437t-1.75.425a1.608,1.608,0,0,1-1.25-.162,1.655,1.655,0,0,1-.8-.988,1.608,1.608,0,0,1,.162-1.25,1.566,1.566,0,0,1,1.012-.775q.8-.225,1.888-.463t2.287-.437q1.2-.2,2.35-.363t2.05-.237a6.267,6.267,0,0,1,4.35,1.05,5.344,5.344,0,0,1,2.025,3.725,6,6,0,0,1-.2,2.662,6.394,6.394,0,0,1-1.437,2.45A8.513,8.513,0,0,1-121.687-.3,14.2,14.2,0,0,1-125.925.8Zm32.2.325q-6.7.925-10.15-.762a5.644,5.644,0,0,1-3.45-5.413,6.718,6.718,0,0,1,1.1-3.838A9.42,9.42,0,0,1-103.15-11.7q-.175-.925-.5-2.112t-.675-2.375q-.35-1.187-.625-2.038a1.8,1.8,0,0,1,.188-1.413,1.785,1.785,0,0,1,1.112-.888,1.9,1.9,0,0,1,1.463.188,1.785,1.785,0,0,1,.887,1.112q.375,1.325.763,2.913t.688,3.062q1.1-.425,2.35-.775t2.6-.65a1.8,1.8,0,0,1,1.4.225,1.771,1.771,0,0,1,.825,1.15,1.731,1.731,0,0,1-.237,1.387,1.737,1.737,0,0,1-1.162.787,31.91,31.91,0,0,0-4.988,1.363,11.751,11.751,0,0,0-2.912,1.512,4.417,4.417,0,0,0-1.363,1.562,3.713,3.713,0,0,0-.362,1.563,2.45,2.45,0,0,0,.45,1.425,3.1,3.1,0,0,0,1.525,1.05,9.32,9.32,0,0,0,2.912.45A26.693,26.693,0,0,0-94.2-2.575a1.667,1.667,0,0,1,1.375.363,1.861,1.861,0,0,1,.7,1.238A1.689,1.689,0,0,1-92.475.4,1.93,1.93,0,0,1-93.725,1.125ZM-74.575.95A5.254,5.254,0,0,1-78.162-.163a3.931,3.931,0,0,1-1.263-3.113,3.9,3.9,0,0,1,1.325-3.1,5.464,5.464,0,0,1,3.7-1.15h.475q.225,0,.475.025l-.075-2.325q-1.075.05-2.025.075t-1.525,0a1.7,1.7,0,0,1-1.25-.575,1.775,1.775,0,0,1-.475-1.3,1.746,1.746,0,0,1,.6-1.237,1.9,1.9,0,0,1,1.3-.488q.575.025,1.438-.012t1.863-.088q0-.425-.013-.825t-.012-.75q-.875.05-1.7.075t-1.475.025a1.588,1.588,0,0,1-1.25-.575,1.826,1.826,0,0,1-.475-1.3,1.746,1.746,0,0,1,.6-1.237,1.9,1.9,0,0,1,1.3-.488q.975,0,2.313-.062t2.675-.175Q-70.3-18.875-69.35-19a1.927,1.927,0,0,1,1.15.2,1.7,1.7,0,0,1,.775.825,1.081,1.081,0,0,1,1,.15,10.025,10.025,0,0,1,.988.75,7.2,7.2,0,0,1,.912.9,1.264,1.264,0,0,1,.338.888,1.372,1.372,0,0,1-.363.887,1.2,1.2,0,0,1-.887.387,1.164,1.164,0,0,1-.912-.387l-1.475-1.475a1.644,1.644,0,0,1-.925.425q-.275.025-.575.063t-.65.087v.738q0,.412.025.838.675-.05,1.262-.112t1.037-.138a1.832,1.832,0,0,1,1.338.325,1.716,1.716,0,0,1,.738,1.175,1.717,1.717,0,0,1-.312,1.337,1.746,1.746,0,0,1-1.163.738q-.525.075-1.262.15t-1.587.15q.025.875.037,1.738t.038,1.637A16.456,16.456,0,0,1-67.25-5.662,13.959,13.959,0,0,1-65.225-4.4a1.8,1.8,0,0,1,.75,1.225,1.813,1.813,0,0,1-.325,1.4,1.942,1.942,0,0,1-1.212.788A1.632,1.632,0,0,1-67.4-1.3q-.55-.425-1.15-.825A11.617,11.617,0,0,0-69.8-2.85Q-70.225.95-74.575.95Zm-8,.35a1.8,1.8,0,0,1-1.413-.288A1.749,1.749,0,0,1-84.75-.2q-.15-.95-.238-2.363T-85.1-5.687q-.025-1.712.012-3.513t.138-3.525q.1-1.725.262-3.187a23.079,23.079,0,0,1,.387-2.462,1.949,1.949,0,0,1,.875-1.312,1.907,1.907,0,0,1,1.5-.213,1.617,1.617,0,0,1,1.113.875,1.956,1.956,0,0,1,.162,1.45,20.716,20.716,0,0,0-.463,2.775q-.187,1.7-.275,3.675t-.075,3.938q.013,1.963.113,3.625A26.933,26.933,0,0,0-81.075-.85,1.835,1.835,0,0,1-81.387.538,1.734,1.734,0,0,1-82.575,1.3ZM-64.05-16.85q-.275-.25-.85-.725t-.975-.8a1.08,1.08,0,0,1-.325-.713,1.184,1.184,0,0,1,.25-.862,1.1,1.1,0,0,1,.675-.413,1.239,1.239,0,0,1,.825.112,7.969,7.969,0,0,1,1.075.638,7.117,7.117,0,0,1,1,.813,1.307,1.307,0,0,1,.425.85,1.221,1.221,0,0,1-.3.925,1.166,1.166,0,0,1-.838.463A1.234,1.234,0,0,1-64.05-16.85ZM-74.575-2.525a1.361,1.361,0,0,0,.887-.275,1.064,1.064,0,0,0,.338-.875v-.4a10.278,10.278,0,0,0-1.225-.075q-1.175,0-1.175.825a.694.694,0,0,0,.275.6A1.562,1.562,0,0,0-74.575-2.525ZM-53.475.95A1.882,1.882,0,0,1-54.713.225a1.791,1.791,0,0,1-.362-1.375,1.774,1.774,0,0,1,.713-1.238A1.789,1.789,0,0,1-53-2.75a5.7,5.7,0,0,0,1.338.038,1.446,1.446,0,0,0,.95-.5A3.761,3.761,0,0,0-50.037-4.6a17.58,17.58,0,0,0,.513-2.625,6.762,6.762,0,0,0,.05-2.3,1.363,1.363,0,0,0-.8-1.037,4.051,4.051,0,0,0-1.775-.187A42.95,42.95,0,0,1-54.362-4.6,23.829,23.829,0,0,1-57.45.45a1.86,1.86,0,0,1-1.237.675A1.746,1.746,0,0,1-60.05.75a1.834,1.834,0,0,1-.7-1.25,1.691,1.691,0,0,1,.375-1.35A21.812,21.812,0,0,0-57.862-5.7a33.934,33.934,0,0,0,2.013-4.7q-.65.05-1.3.125t-1.225.125a1.849,1.849,0,0,1-1.375-.4,1.745,1.745,0,0,1-.675-1.25,1.741,1.741,0,0,1,.388-1.375,1.787,1.787,0,0,1,1.262-.675q.95-.1,1.95-.175l2-.15q.2-1.025.35-2.012t.2-1.962a1.818,1.818,0,0,1,.625-1.288A1.78,1.78,0,0,1-52.3-19.9a1.862,1.862,0,0,1,1.3.625,1.68,1.68,0,0,1,.45,1.35q-.225,1.725-.6,3.625,3.275.15,4.5,1.963t.725,5.613a15.106,15.106,0,0,1-1.325,5A4.7,4.7,0,0,1-49.7.638,7.862,7.862,0,0,1-53.475.95ZM-39.2-6.5a1.748,1.748,0,0,1-1.413.15,1.864,1.864,0,0,1-1.112-.875A16.986,16.986,0,0,0-42.8-8.863q-.65-.887-1.337-1.712T-45.4-12a2.114,2.114,0,0,1-.575-1.313A1.634,1.634,0,0,1-45.5-14.6a1.73,1.73,0,0,1,1.3-.587,1.763,1.763,0,0,1,1.325.537,23.05,23.05,0,0,1,2.463,2.738,24.636,24.636,0,0,1,1.938,2.887A1.716,1.716,0,0,1-38.3-7.6,1.754,1.754,0,0,1-39.2-6.5Zm15.1,7.825A7.372,7.372,0,0,1-29.138-.25q-1.787-1.575-1.787-5.05V-18.55a1.786,1.786,0,0,1,.537-1.312,1.786,1.786,0,0,1,1.313-.538,1.827,1.827,0,0,1,1.325.538,1.765,1.765,0,0,1,.55,1.313V-5.3a3.031,3.031,0,0,0,.712,2.288A3.465,3.465,0,0,0-24.1-2.35a5.2,5.2,0,0,0,2.625-.75,5.546,5.546,0,0,0,2.15-2.55,1.832,1.832,0,0,1,1.063-.95,1.747,1.747,0,0,1,1.413.1,1.7,1.7,0,0,1,.938,1.038,2,2,0,0,1-.062,1.437A8.851,8.851,0,0,1-17.937-1.15,8.656,8.656,0,0,1-20.762.688,8.873,8.873,0,0,1-24.1,1.325ZM-9.125,1.15A1.8,1.8,0,0,1-9.988,0a1.757,1.757,0,0,1,.213-1.4A26.608,26.608,0,0,0-7.5-6.5a36.981,36.981,0,0,0,1.425-5.775q-.675.075-1.312.125t-1.213.075a1.788,1.788,0,0,1-1.337-.438,1.751,1.751,0,0,1-.613-1.262,1.741,1.741,0,0,1,.463-1.338A1.749,1.749,0,0,1-8.8-15.7q.775-.05,1.588-.113t1.588-.137q.075-1.4.075-2.625a1.921,1.921,0,0,1,.463-1.35,1.653,1.653,0,0,1,1.262-.6,1.868,1.868,0,0,1,1.35.488,1.758,1.758,0,0,1,.6,1.313q0,1.025-.075,2.275.675-.125,1.275-.225a1.8,1.8,0,0,1,1.4.225,1.684,1.684,0,0,1,.8,1.15,1.716,1.716,0,0,1-.25,1.4A1.793,1.793,0,0,1,.1-13.125q-.525.1-1.15.2t-1.325.225q-.35,2.325-.95,4.738a43.033,43.033,0,0,1-1.412,4.6A22.21,22.21,0,0,1-6.575.5a1.865,1.865,0,0,1-1.15.85A1.72,1.72,0,0,1-9.125,1.15ZM8.325.675A12.143,12.143,0,0,1,1.713.7,6.2,6.2,0,0,1-2.1-2.4a2.044,2.044,0,0,1-.125-1.437A1.666,1.666,0,0,1-1.35-4.925,1.785,1.785,0,0,1,.063-5.088,1.8,1.8,0,0,1,1.175-4.2,3.191,3.191,0,0,0,3.3-2.775a9.627,9.627,0,0,0,4.275-.2,1.7,1.7,0,0,1,1.388.25,1.885,1.885,0,0,1,.813,1.2A1.745,1.745,0,0,1,9.5-.15,2,2,0,0,1,8.325.675Zm-1.25-9.4a9.717,9.717,0,0,0-1.837-.262Q4.175-9.05,3.075-9.012a16.126,16.126,0,0,0-2.025.187,1.944,1.944,0,0,1-1.363-.3,1.7,1.7,0,0,1-.762-1.125A1.811,1.811,0,0,1-.787-11.6,1.737,1.737,0,0,1,.35-12.375,16.833,16.833,0,0,1,2.9-12.65a24.18,24.18,0,0,1,2.7.05,14.633,14.633,0,0,1,2.35.35,1.729,1.729,0,0,1,1.112.813,1.741,1.741,0,0,1,.213,1.362A1.719,1.719,0,0,1,8.45-8.962,1.862,1.862,0,0,1,7.075-8.725ZM17.6,2.325a1.4,1.4,0,0,1-.975-.362,1.329,1.329,0,0,1-.4-1.038v-6.5q-.075.55-.225,1.287t-.312,1.45q-.163.712-.288,1.212a1.169,1.169,0,0,1-.562.8A1.384,1.384,0,0,1,13.825-.7a1.2,1.2,0,0,1-.762-.513,1.046,1.046,0,0,1-.113-.963q.15-.5.325-1.225T13.6-4.863q.15-.738.225-1.287a1.144,1.144,0,0,1,.5-.825,1.39,1.39,0,0,1,.9-.2,1.12,1.12,0,0,1,1,.825v-1.7q-.45.025-.875.075t-.8.1a1.319,1.319,0,0,1-1.15-.287,1.45,1.45,0,0,1-.45-.937,1.39,1.39,0,0,1,.275-1,1.269,1.269,0,0,1,1.025-.45h.175q.325-.5.813-1.3l1.037-1.7q-.4-.275-.95-.612t-1.037-.65q-.487-.312-.763-.462a1.17,1.17,0,0,1-.587-.788,1.41,1.41,0,0,1,.137-.987,1.352,1.352,0,0,1,.813-.613,1.253,1.253,0,0,1,.988.138q.2-.375.462-.875t.5-.987q.238-.487.363-.763a1.428,1.428,0,0,1,.775-.737,1.252,1.252,0,0,1,1.05.038,1.328,1.328,0,0,1,.712.788,1.226,1.226,0,0,1-.087,1.037q-.3.525-.775,1.375T17.05-16.2l.6.375q.35-.625.65-1.15l.5-.875a1.655,1.655,0,0,1,.85-.775,1.349,1.349,0,0,1,1.1.075,1.218,1.218,0,0,1,.65.763,1.281,1.281,0,0,1-.15,1.087q-.425.7-1.075,1.725t-1.35,2.125q-.7,1.1-1.325,2.05.35-.025.7-.062t.675-.062l-.15-.35a1.207,1.207,0,0,1-.05-1.012,1.234,1.234,0,0,1,.65-.662,1.159,1.159,0,0,1,1.45.175.1.1,0,0,0-.013-.062.051.051,0,0,1-.013-.038,1.417,1.417,0,0,1,.375-.988,1.316,1.316,0,0,1,1.025-.412h2.325V-15.95h-1.55a1.228,1.228,0,0,1-.962-.375,1.3,1.3,0,0,1-.338-.9,1.332,1.332,0,0,1,.338-.925,1.228,1.228,0,0,1,.962-.375h1.55v-1.25a1.366,1.366,0,0,1,.425-1.063,1.468,1.468,0,0,1,1.025-.387,1.513,1.513,0,0,1,1.038.387,1.346,1.346,0,0,1,.438,1.063v1.25h.9a1.228,1.228,0,0,1,.962.375,1.332,1.332,0,0,1,.337.925,1.3,1.3,0,0,1-.337.9,1.228,1.228,0,0,1-.962.375h-.9v1.675h2.425q-.075-2.6-.075-5.5a1.271,1.271,0,0,1,.438-1.038,1.575,1.575,0,0,1,1.037-.362,1.369,1.369,0,0,1,.988.4,1.321,1.321,0,0,1,.387,1.05q0,1.45.013,2.813t.037,2.637h2.775a1.316,1.316,0,0,1,1.025.412,1.417,1.417,0,0,1,.375.988,1.417,1.417,0,0,1-.375.988,1.316,1.316,0,0,1-1.025.413h-2.65q.05.925.112,1.788t.163,1.662q.15-.35.287-.7t.262-.7a1.332,1.332,0,0,1,.763-.863,1.647,1.647,0,0,1,1.112.012,1.257,1.257,0,0,1,.788.662,1.446,1.446,0,0,1,.012,1.138,22.061,22.061,0,0,1-2.4,4.925,5.138,5.138,0,0,0,.175.6l.2.55q.125.25.25.237t.2-.263q.025-.05.087-.212a.788.788,0,0,1,.087-.187A1.048,1.048,0,0,1,35.5-3.5a1.362,1.362,0,0,1,1.025,0,1.414,1.414,0,0,1,.725.562,1.285,1.285,0,0,1,.125.988A8.87,8.87,0,0,1,37-.738Q36.725,0,36.45.625a1.911,1.911,0,0,1-1.625,1.313,2.318,2.318,0,0,1-1.9-1.113,9.785,9.785,0,0,1-.562-.837,8.993,8.993,0,0,1-.488-.938,18.2,18.2,0,0,1-2.75,2.55,1.575,1.575,0,0,1-1.137.313A1.3,1.3,0,0,1,27,1.35a1.284,1.284,0,0,1-.262-.963,1.2,1.2,0,0,1,.512-.863l.4-.3q.2-.15.4-.325-.8.275-1.763.613T24.4.15q-.925.3-1.6.5a1.514,1.514,0,0,1-1.212-.1,1.558,1.558,0,0,1-.738-.925,1.532,1.532,0,0,1,.125-1.187,1.493,1.493,0,0,1,1-.713q.35-.1.738-.2t.813-.2V-4.95a1.139,1.139,0,0,1-.763-.062,1.043,1.043,0,0,1-.538-.588q-.15-.4-.413-1.013T21.35-7.7a1.3,1.3,0,0,1-.888-.112,1.308,1.308,0,0,1-.612-.713v-.05l-.413.05A4.375,4.375,0,0,0,19-8.45v1.725a1.216,1.216,0,0,1,.9-.75,1.239,1.239,0,0,1,.938.112,1.243,1.243,0,0,1,.563.813q.1.325.237.838T21.913-4.7q.137.5.238.85a1.418,1.418,0,0,1-.05.988,1.242,1.242,0,0,1-.775.638,1.39,1.39,0,0,1-.987-.012A1.035,1.035,0,0,1,19.7-3q-.125-.525-.338-1.35T19-5.8V.925a1.329,1.329,0,0,1-.4,1.038A1.433,1.433,0,0,1,17.6,2.325Zm18.2-17.25a1.334,1.334,0,0,1-1.038.125,1.265,1.265,0,0,1-.812-.725q-.15-.325-.45-.937T33-17.4a1.265,1.265,0,0,1-.087-1,1.262,1.262,0,0,1,.638-.775,1.393,1.393,0,0,1,1.025-.15,1.2,1.2,0,0,1,.8.625q.125.2.313.563t.388.725q.2.363.3.587a1.409,1.409,0,0,1,.125,1.112A1.375,1.375,0,0,1,35.8-14.925Zm-10,11.6.575-.175v-7.975H25.8Zm4.25.2q.2-.25.412-.5t.388-.5a29.422,29.422,0,0,1-.525-3q-.175.325-.312.613a5,5,0,0,1-.262.488,1.049,1.049,0,0,1-1.1.65V-4.15a1.336,1.336,0,0,1,.85.175,1.206,1.206,0,0,1,.525.725A.2.2,0,0,1,30.05-3.125Zm-6.525-5.7v-2.65H22.15a1.4,1.4,0,0,1-.75-.2q.225.5.462,1.05t.413.95a1.125,1.125,0,0,1,1.2.775ZM28.65-9.1l.075-.175a1.151,1.151,0,0,1,.538-.662,1.153,1.153,0,0,1,.763-.113q-.025-.35-.05-.713t-.05-.712H28.65ZM43.675,2.25a1.682,1.682,0,0,1-1.162-.437A1.546,1.546,0,0,1,42.025.6V-5.425q-.075.475-.263,1.2t-.375,1.438q-.187.713-.338,1.163a1.483,1.483,0,0,1-.75.938,1.55,1.55,0,0,1-1.2.137,1.327,1.327,0,0,1-.812-.7A1.382,1.382,0,0,1,38.2-2.325q.15-.45.35-1.138t.388-1.4q.188-.712.287-1.187a1.4,1.4,0,0,1,.613-.9,1.287,1.287,0,0,1,1.037-.2,1.452,1.452,0,0,1,.787.438,1.352,1.352,0,0,1,.363.787V-8q-.575.1-1.1.175t-.95.125a1.792,1.792,0,0,1-1.212-.275,1.309,1.309,0,0,1-.588-1.075,1.616,1.616,0,0,1,.35-1.2,1.356,1.356,0,0,1,1.025-.5h.3q.225-.275.663-.875T41.5-12.95q-.4-.3-.912-.663t-.95-.675Q39.2-14.6,39-14.725a1.47,1.47,0,0,1-.65-.963,1.512,1.512,0,0,1,.2-1.137,1.482,1.482,0,0,1,.862-.65,1.659,1.659,0,0,1,1.063.05q.225-.4.525-.937t.588-1.038q.287-.5.412-.75a1.44,1.44,0,0,1,.85-.775,1.592,1.592,0,0,1,1.2.075,1.312,1.312,0,0,1,.763.813,1.235,1.235,0,0,1-.138,1.087q-.2.325-.55.9T43.4-16.888q-.375.588-.65,1.012l.6.425Q44-16.325,44.487-17t.638-.9a1.494,1.494,0,0,1,.963-.688,1.484,1.484,0,0,1,1.162.213,1.38,1.38,0,0,1,.7.887,1.208,1.208,0,0,1-.2,1.113l-.575.762q-.425.563-1.025,1.338t-1.263,1.613q-.663.838-1.263,1.587.475-.05.925-.087t.875-.087l-.1-.175a1.381,1.381,0,0,1-.025-1.063,1.389,1.389,0,0,1,.7-.787,1.369,1.369,0,0,1,1.113-.075,1.468,1.468,0,0,1,.837.725q.1.175.237.475t.313.65v-3.85a4.634,4.634,0,0,1,1.15-3.45,5.146,5.146,0,0,1,3.7-1.125h2.7a5.146,5.146,0,0,1,3.7,1.125,4.634,4.634,0,0,1,1.15,3.45V-3.425A4.634,4.634,0,0,1,59.75.025a5.146,5.146,0,0,1-3.7,1.125h-2.7A5.422,5.422,0,0,1,49.875.213,3.969,3.969,0,0,1,48.55-2.65a1.514,1.514,0,0,1-.75.6,1.342,1.342,0,0,1-1.1-.075,1.276,1.276,0,0,1-.7-.85q-.075-.325-.213-.85t-.275-1.062q-.138-.537-.213-.862V.6a1.566,1.566,0,0,1-.475,1.213A1.637,1.637,0,0,1,43.675,2.25ZM56.2-2.05q.9-.025,1.15-.35a2.375,2.375,0,0,0,.25-1.325V-8.2H56.2Zm-3.025,0V-8.2H51.8v4.475a2.312,2.312,0,0,0,.25,1.3A1.526,1.526,0,0,0,53.175-2.05Zm3.025-9.3h1.4v-3.7a2.381,2.381,0,0,0-.25-1.312q-.25-.338-1.15-.363Zm-4.4,0h1.375v-5.375a1.431,1.431,0,0,0-1.125.363,2.381,2.381,0,0,0-.25,1.312ZM48.5-4.875V-7.8a1.681,1.681,0,0,1-1.125.012,1.238,1.238,0,0,1-.8-.738l-.05-.175q-.275.05-.588.1l-.638.1v2.15a1.353,1.353,0,0,1,.362-.7,1.407,1.407,0,0,1,.688-.4,1.3,1.3,0,0,1,1.038.137,1.449,1.449,0,0,1,.662.838q.05.25.188.712T48.5-4.875ZM74.35,1.9A5.134,5.134,0,0,1,70.938.8a3.821,3.821,0,0,1-1.312-3.1A3.7,3.7,0,0,1,70.95-5.287,5.223,5.223,0,0,1,74.425-6.4a8.132,8.132,0,0,1,1.1.075V-10.55a1.807,1.807,0,0,1,.525-1.313,1.745,1.745,0,0,1,1.3-.537,1.7,1.7,0,0,1,1.287.537,1.831,1.831,0,0,1,.513,1.313v5.025a19.874,19.874,0,0,1,2.5,1.038A15.316,15.316,0,0,1,83.7-3.275a1.728,1.728,0,0,1,.763,1.213,1.833,1.833,0,0,1-.338,1.387,1.844,1.844,0,0,1-1.212.763A1.7,1.7,0,0,1,81.525-.25Q81-.65,80.387-1.038A12.754,12.754,0,0,0,79.1-1.75,4,4,0,0,1,77.625.938,5.156,5.156,0,0,1,74.35,1.9ZM65.325-5a1.89,1.89,0,0,1-.55-1.35,1.69,1.69,0,0,1,.575-1.3,15.7,15.7,0,0,0,2.287-2.575,17.3,17.3,0,0,0,1.713-3l-1.025.1q-.5.05-.925.075a1.788,1.788,0,0,1-1.338-.437A1.8,1.8,0,0,1,65.45-14.8a1.76,1.76,0,0,1,.438-1.288A2.011,2.011,0,0,1,67.2-16.7q.75-.075,1.575-.175T70.45-17.1a12.97,12.97,0,0,0,.15-1.975,1.926,1.926,0,0,1,.537-1.312,1.7,1.7,0,0,1,1.288-.538,1.87,1.87,0,0,1,1.337.538,1.666,1.666,0,0,1,.538,1.313q-.025.325-.038.663a5.754,5.754,0,0,1-.062.663l.125-.025a1.766,1.766,0,0,1,1.4.237,1.726,1.726,0,0,1,.8,1.163A1.67,1.67,0,0,1,76.275-15a1.89,1.89,0,0,1-1.175.8q-.35.075-.775.163l-.925.188a22.282,22.282,0,0,1-2.2,4.9A16.6,16.6,0,0,1,67.95-5a1.958,1.958,0,0,1-1.325.537A1.734,1.734,0,0,1,65.325-5Zm16.65-6.525A20.146,20.146,0,0,0,80.2-12.5a15.484,15.484,0,0,0-1.725-.725,2.366,2.366,0,0,1-1.112-.875,1.629,1.629,0,0,1-.238-1.35,1.9,1.9,0,0,1,.863-1.163,1.611,1.611,0,0,1,1.387-.187,15.144,15.144,0,0,1,1.637.587q.863.363,1.675.763a13.384,13.384,0,0,1,1.387.775,1.625,1.625,0,0,1,.775,1.188,1.974,1.974,0,0,1-.3,1.438,1.793,1.793,0,0,1-1.175.775A1.879,1.879,0,0,1,81.975-11.525ZM74.3-1.45A1.094,1.094,0,0,0,75.525-2.7v-.325Q75.2-3.075,74.9-3.1t-.6-.025q-1.15,0-1.15.825Q73.15-1.45,74.3-1.45ZM94.575.9a2.17,2.17,0,0,1-1.462.188A1.78,1.78,0,0,1,91.925.225a1.908,1.908,0,0,1-.2-1.475,1.831,1.831,0,0,1,.9-1.175q4.9-2.775,5.85-7.175H91.7a1.806,1.806,0,0,1-1.325-.55,1.806,1.806,0,0,1-.55-1.325,1.806,1.806,0,0,1,.55-1.325,1.806,1.806,0,0,1,1.325-.55h16.525a1.806,1.806,0,0,1,1.325.55,1.806,1.806,0,0,1,.55,1.325,1.806,1.806,0,0,1-.55,1.325,1.806,1.806,0,0,1-1.325.55H102.25a13.11,13.11,0,0,1-1.325,4.138A14.877,14.877,0,0,1,98.287-1.8,13.745,13.745,0,0,1,94.575.9ZM94.6-15.225a1.765,1.765,0,0,1-1.312-.55A1.827,1.827,0,0,1,92.75-17.1a1.827,1.827,0,0,1,.537-1.325,1.765,1.765,0,0,1,1.313-.55h10.325a1.794,1.794,0,0,1,1.337.55A1.827,1.827,0,0,1,106.8-17.1a1.827,1.827,0,0,1-.538,1.325,1.794,1.794,0,0,1-1.337.55Zm16.825-.85q-.25-.275-.812-.775t-.937-.85a1.19,1.19,0,0,1-.288-.725,1.164,1.164,0,0,1,.288-.85,1.105,1.105,0,0,1,.712-.387,1.2,1.2,0,0,1,.813.163,8.088,8.088,0,0,1,1.025.7,8.424,8.424,0,0,1,.95.85,1.346,1.346,0,0,1,.375.875,1.316,1.316,0,0,1-.325.925,1.2,1.2,0,0,1-.862.413A1.2,1.2,0,0,1,111.425-16.075Zm-.65,2.425a1.227,1.227,0,0,1-.9.312,1.179,1.179,0,0,1-.9-.412q-.25-.275-.737-.838t-.838-.963a.972.972,0,0,1-.225-.737,1.212,1.212,0,0,1,.375-.812,1.226,1.226,0,0,1,.75-.312,1.1,1.1,0,0,1,.8.237,8.66,8.66,0,0,1,.95.8,8.14,8.14,0,0,1,.85.925,1.283,1.283,0,0,1,.3.9A1.344,1.344,0,0,1,110.775-13.65Zm12,15a1.927,1.927,0,0,1-1.475.063,1.864,1.864,0,0,1-1.1-.988,1.918,1.918,0,0,1-.05-1.488,1.818,1.818,0,0,1,1-1.088,9.084,9.084,0,0,0,3.95-3.288,10.423,10.423,0,0,0,1.475-5.338h-3.15q.025.875.012,1.688T123.375-7.6a1.8,1.8,0,0,1-.613,1.313,1.809,1.809,0,0,1-1.387.488,1.75,1.75,0,0,1-1.3-.662A2.026,2.026,0,0,1,119.6-7.85q.05-.6.063-1.35t-.012-1.575H114.9a1.806,1.806,0,0,1-1.325-.55,1.806,1.806,0,0,1-.55-1.325,1.806,1.806,0,0,1,.55-1.325,1.806,1.806,0,0,1,1.325-.55h4.625q-.05-.75-.113-1.425t-.137-1.175a2.015,2.015,0,0,1,.338-1.437,1.749,1.749,0,0,1,1.212-.763,1.894,1.894,0,0,1,1.438.325A1.724,1.724,0,0,1,123-17.75q.1.675.175,1.5t.125,1.725h3.25q-.025-.95-.088-1.85t-.113-1.575a1.964,1.964,0,0,1,.45-1.413,1.814,1.814,0,0,1,1.275-.687,1.937,1.937,0,0,1,1.413.463,1.79,1.79,0,0,1,.662,1.313q.075.725.113,1.712t.063,2.037h4.35a1.806,1.806,0,0,1,1.325.55,1.806,1.806,0,0,1,.55,1.325,1.806,1.806,0,0,1-.55,1.325,1.806,1.806,0,0,1-1.325.55h-4.35Q130.025-2,122.775,1.35ZM135.2-17.875q-.275-.25-.85-.738t-1-.812a1.085,1.085,0,0,1-.312-.687,1.138,1.138,0,0,1,.237-.862,1.165,1.165,0,0,1,.7-.437,1.239,1.239,0,0,1,.825.112q.45.25,1.05.663a8.563,8.563,0,0,1,1,.788,1.307,1.307,0,0,1,.425.85,1.3,1.3,0,0,1-.3.95,1.156,1.156,0,0,1-.825.462A1.215,1.215,0,0,1,135.2-17.875Zm-2.325,2.45q-.25-.275-.788-.812t-.887-.913a1.036,1.036,0,0,1-.25-.725,1.232,1.232,0,0,1,.325-.825,1.155,1.155,0,0,1,.713-.363,1.131,1.131,0,0,1,.813.188,10.023,10.023,0,0,1,.988.75,7.2,7.2,0,0,1,.912.9,1.316,1.316,0,0,1,.35.888,1.357,1.357,0,0,1-.375.912,1.292,1.292,0,0,1-.887.375A1.127,1.127,0,0,1,132.875-15.425Zm18.375,16.9A1.868,1.868,0,0,1,149.9.913a1.836,1.836,0,0,1-.575-1.363V-9.675q-1.45,1.275-3,2.437t-3.1,2.188a1.78,1.78,0,0,1-1.45.225,1.943,1.943,0,0,1-1.2-.875,1.923,1.923,0,0,1-.212-1.463,1.891,1.891,0,0,1,.863-1.187q1.075-.675,2.387-1.675t2.688-2.162q1.375-1.163,2.688-2.4t2.375-2.387a18.908,18.908,0,0,0,1.712-2.1,1.968,1.968,0,0,1,1.262-.8,1.829,1.829,0,0,1,1.438.3,1.923,1.923,0,0,1,.813,1.237,1.741,1.741,0,0,1-.312,1.438q-.675.875-1.437,1.775t-1.637,1.8V-.45a1.836,1.836,0,0,1-.575,1.363A1.9,1.9,0,0,1,151.25,1.475ZM169.15-.65a1.886,1.886,0,0,1-1.487-.062A1.859,1.859,0,0,1,166.65-1.8a1.918,1.918,0,0,1,.063-1.5,1.767,1.767,0,0,1,1.088-1A31.318,31.318,0,0,0,171.762-6a44.113,44.113,0,0,0,3.875-2.225,32.752,32.752,0,0,0,3.375-2.475,19.879,19.879,0,0,0,2.488-2.45,1.765,1.765,0,0,1,1.288-.687,1.941,1.941,0,0,1,1.412.437,1.673,1.673,0,0,1,.713,1.275,1.96,1.96,0,0,1-.437,1.425A20.9,20.9,0,0,1,181.712-8,43.118,43.118,0,0,1,177.9-5.188a50.38,50.38,0,0,1-4.362,2.575A36.058,36.058,0,0,1,169.15-.65Zm1.775-10.175q-1-.825-2.125-1.663a21.919,21.919,0,0,0-2.075-1.387,1.824,1.824,0,0,1-.875-1.188,1.893,1.893,0,0,1,.225-1.437,1.834,1.834,0,0,1,1.188-.9,1.737,1.737,0,0,1,1.438.225q.75.475,1.613,1.063t1.65,1.188q.788.6,1.338,1.075a2.028,2.028,0,0,1,.725,1.275,1.786,1.786,0,0,1-.375,1.425,1.874,1.874,0,0,1-1.287.738A1.766,1.766,0,0,1,170.925-10.825ZM206.3,1.15a11.841,11.841,0,0,1-5.05-1.775,8.773,8.773,0,0,1-2.975-3.238A8.571,8.571,0,0,1,197.3-7.85a9.172,9.172,0,0,1,.613-3.4,8.98,8.98,0,0,1,1.762-2.8q-1.625.275-3.175.55t-2.85.5l-2.175.375a1.708,1.708,0,0,1-1.363-.338,1.85,1.85,0,0,1-.738-1.213,1.929,1.929,0,0,1,.337-1.4,1.678,1.678,0,0,1,1.213-.725q1.075-.15,2.738-.412t3.575-.575l3.813-.625q1.9-.313,3.5-.6T207.125-19a1.674,1.674,0,0,1,1.35.288,1.829,1.829,0,0,1,.775,1.163,1.863,1.863,0,0,1-.238,1.375,1.565,1.565,0,0,1-1.137.775,8.088,8.088,0,0,0-2.95.95,7.752,7.752,0,0,0-2.15,1.775,7.76,7.76,0,0,0-1.325,2.25A6.729,6.729,0,0,0,201-8.05a4.853,4.853,0,0,0,1.525,3.675,7.65,7.65,0,0,0,4.3,1.85,1.76,1.76,0,0,1,1.238.725A1.744,1.744,0,0,1,208.4-.425,1.732,1.732,0,0,1,207.688.8,1.858,1.858,0,0,1,206.3,1.15Zm5.5-12.35a1.2,1.2,0,0,1-.913.325,1.176,1.176,0,0,1-.887-.45q-.25-.275-.725-.85t-.825-.975a1.058,1.058,0,0,1-.2-.75,1.1,1.1,0,0,1,.4-.8,1.169,1.169,0,0,1,.75-.3,1.15,1.15,0,0,1,.8.25q.4.325.913.825a7.438,7.438,0,0,1,.837.95,1.235,1.235,0,0,1,.288.9A1.306,1.306,0,0,1,211.8-11.2ZM209.05-9a1.2,1.2,0,0,1-.925.225A1.148,1.148,0,0,1,207.3-9.3q-.2-.325-.637-.938t-.738-1.037a1.035,1.035,0,0,1-.125-.762,1.16,1.16,0,0,1,.475-.762,1.126,1.126,0,0,1,.775-.225,1.207,1.207,0,0,1,.775.325,9.619,9.619,0,0,1,.838.913,7.906,7.906,0,0,1,.737,1.038,1.281,1.281,0,0,1,.188.925A1.347,1.347,0,0,1,209.05-9ZM-134.925,39.825a30.23,30.23,0,0,1-5.787-.463,8.281,8.281,0,0,1-3.638-1.537q-.3.2-.737.5t-.838.563q-.4.262-.6.412a1.753,1.753,0,0,1-1.363.25A1.52,1.52,0,0,1-149,38.725a1.754,1.754,0,0,1-.163-1.337,1.543,1.543,0,0,1,.838-1.013q.325-.175.875-.425t1.025-.475V30.75a1.245,1.245,0,0,0-.162-.75.919.919,0,0,0-.713-.2h-.45a1.485,1.485,0,0,1-1.15-.462,1.586,1.586,0,0,1-.425-1.113,1.542,1.542,0,0,1,.425-1.1,1.506,1.506,0,0,1,1.15-.45h1.925a2.386,2.386,0,0,1,2.7,2.7V35a3.06,3.06,0,0,0,.663.537,5.2,5.2,0,0,0,.938.438l-.1-.1a.819.819,0,0,1-.1-.125,1.391,1.391,0,0,1-.2-1.088,1.29,1.29,0,0,1,.65-.887,5.709,5.709,0,0,0,1.85-1.687,5.285,5.285,0,0,0,.9-2.388h-.8a1.346,1.346,0,0,1-1.012-.4,1.416,1.416,0,0,1-.413-.95,1.7,1.7,0,0,1-1.175.075,1.6,1.6,0,0,1-.875-.675,1.482,1.482,0,0,1-.162-1.163,1.45,1.45,0,0,1,.813-.913q.65-.35,1.475-.9t1.575-1.1h-2.6a1.2,1.2,0,0,1-.937-.375,1.3,1.3,0,0,1-.338-.9v-.05a1.755,1.755,0,0,1-.112.15.961.961,0,0,1-.163.15,1.713,1.713,0,0,1-1.187.488,1.469,1.469,0,0,1-1.163-.513q-.275-.325-.7-.763t-.863-.862a10.23,10.23,0,0,0-.787-.7,1.336,1.336,0,0,1-.45-1.1,1.708,1.708,0,0,1,.475-1.15,1.8,1.8,0,0,1,1.137-.538,1.572,1.572,0,0,1,1.213.413q.575.5,1.313,1.175t1.137,1.1a1.648,1.648,0,0,1,.475,1.325,1.2,1.2,0,0,1,.95-.4h5.275v-.7q-1.9.15-3.575.15a1.457,1.457,0,0,1-1.212-.4,1.459,1.459,0,0,1-.363-.975,1.2,1.2,0,0,1,.375-.975,1.545,1.545,0,0,1,1.1-.375q1.675,0,3.488-.1t3.475-.3a27.977,27.977,0,0,0,2.863-.475,1.743,1.743,0,0,1,1.275.062,1.262,1.262,0,0,1,.625.788,1.515,1.515,0,0,1-.062,1.1,1.261,1.261,0,0,1-.988.675q-.775.15-1.738.288t-2.012.263v.975h5.75a1.2,1.2,0,0,1,.938.375,1.3,1.3,0,0,1,.338.9,1.3,1.3,0,0,1-.338.9,1.2,1.2,0,0,1-.937.375h-2.85q.725.475,1.563.963t1.487.812a1.316,1.316,0,0,1,.737.888,1.527,1.527,0,0,1-.137,1.163,1.555,1.555,0,0,1-1.05.85,1.663,1.663,0,0,1-1.3-.25q-.575-.375-1.35-.925T-131.863,26q-.762-.625-1.312-1.125v1.95h.775a1.741,1.741,0,0,1,1.375.462,1.072,1.072,0,0,1,.225,1.063q-.1.425.063.588a1.066,1.066,0,0,0,.713.162,2.8,2.8,0,0,1,2.025.6,2.622,2.622,0,0,1,.375,2.225A7.523,7.523,0,0,1-128.4,34.6a3.05,3.05,0,0,1-1.525,1.375,6.494,6.494,0,0,1-2.45.4,1.943,1.943,0,0,1-1.2-.375,1.554,1.554,0,0,1-.6-1.075,1.432,1.432,0,0,1,.313-1.162A1.549,1.549,0,0,1-132.7,33.2a2.384,2.384,0,0,0,1.125-.237,1.023,1.023,0,0,0,.35-.437q.1-.35-.025-.463a.9.9,0,0,0-.55-.112h-1.1q-1.875,0-1.5-1.425a.812.812,0,0,0,0-.637q-.125-.187-.625-.187h-.325a9.375,9.375,0,0,1-1.312,3.925,8.288,8.288,0,0,1-2.612,2.575,1.77,1.77,0,0,1-.475.225q.925.125,2.113.2t2.712.075q1.95,0,3.887-.062t3.263-.163a2.033,2.033,0,0,1,1.462.375,1.46,1.46,0,0,1,.588,1.225,1.733,1.733,0,0,1-.475,1.263,2.017,2.017,0,0,1-1.5.487Zm-3.55-13h2.05V25A19.946,19.946,0,0,1-138.475,26.825ZM-106.15,40a2.032,2.032,0,0,1-1.4-.487,1.967,1.967,0,0,1-.6-1.437,1.853,1.853,0,0,1,.412-1.237,1.842,1.842,0,0,1,1.313-.663,1.717,1.717,0,0,0,.9-.3,1.207,1.207,0,0,0,.2-.825V31.075h-3.95a11.475,11.475,0,0,1-2.112,5.1,11.851,11.851,0,0,1-4.288,3.4,2.535,2.535,0,0,1-1.65.263,1.6,1.6,0,0,1-1.15-.937,1.557,1.557,0,0,1-.088-1.437,1.991,1.991,0,0,1,1.088-.988,9.106,9.106,0,0,0,2.838-1.937,6.935,6.935,0,0,0,1.6-2.8,13.735,13.735,0,0,0,.512-4.013V22.05a6.4,6.4,0,0,1,.425-2.587,2.479,2.479,0,0,1,1.463-1.325,8.261,8.261,0,0,1,2.813-.388h1.375a8.131,8.131,0,0,1,2.813.388,2.481,2.481,0,0,1,1.438,1.325,6.4,6.4,0,0,1,.425,2.587V36.125a3.772,3.772,0,0,1-1.037,2.938A4.9,4.9,0,0,1-106.15,40Zm-12.7-6.725a8.6,8.6,0,0,1-2.85-.388,2.615,2.615,0,0,1-1.538-1.338,5.956,5.956,0,0,1-.462-2.575v-6.45a5.941,5.941,0,0,1,.462-2.587,2.623,2.623,0,0,1,1.538-1.325,8.6,8.6,0,0,1,2.85-.387,8.582,8.582,0,0,1,2.862.387,2.623,2.623,0,0,1,1.525,1.325A5.941,5.941,0,0,1-114,22.525v6.45a5.956,5.956,0,0,1-.463,2.575,2.615,2.615,0,0,1-1.525,1.338A8.582,8.582,0,0,1-118.85,33.275Zm9.85-5.2h3.675V26.05H-109Zm-9.8,1.9a1.592,1.592,0,0,0,1.088-.25,1.555,1.555,0,0,0,.238-1.025V27.2h-2.65v1.5a1.555,1.555,0,0,0,.238,1.025A1.592,1.592,0,0,0-118.8,29.975Zm-1.325-5.825h2.65V22.675a1.555,1.555,0,0,0-.238-1.025,1.592,1.592,0,0,0-1.088-.25,1.592,1.592,0,0,0-1.087.25,1.555,1.555,0,0,0-.238,1.025ZM-109,23.05h3.675v-.7a1.449,1.449,0,0,0-.263-1.012,1.8,1.8,0,0,0-1.187-.263h-.75a1.857,1.857,0,0,0-1.2.263A1.4,1.4,0,0,0-109,22.35Zm9.95,9.625a1.449,1.449,0,0,1-.612-.962,1.439,1.439,0,0,1,.262-1.138,10.178,10.178,0,0,0,1.375-2.887,14.422,14.422,0,0,0,.525-4.013,6.77,6.77,0,0,1,.475-2.538,2.581,2.581,0,0,1,1.412-1.35,7.05,7.05,0,0,1,2.663-.413h6.425q0-.275-.012-.538t-.013-.537a1.7,1.7,0,0,1,.388-1.237A1.55,1.55,0,0,1-85,16.575q1.7-.05,1.75,1.575v.625q0,.3.025.6h1.65l-.475-.475a1.173,1.173,0,0,1-.337-.975,1.558,1.558,0,0,1,.462-.95,1.645,1.645,0,0,1,.975-.438,1.311,1.311,0,0,1,1.05.363q.125.1.4.35t.537.513l.363.363a1.274,1.274,0,0,1,.4,1.25h.55a1.366,1.366,0,0,1,1.063.425,1.468,1.468,0,0,1,.387,1.025,1.436,1.436,0,0,1-.387,1,1.366,1.366,0,0,1-1.062.425h-5.325q.15.925.35,1.762a12.767,12.767,0,0,0,.475,1.563q.275-.5.537-1a10.7,10.7,0,0,0,.463-1,1.42,1.42,0,0,1,.925-.9,1.569,1.569,0,0,1,1.275.15,1.5,1.5,0,0,1,.85.888,1.516,1.516,0,0,1-.125,1.163,23.867,23.867,0,0,1-2.125,3.65,2.144,2.144,0,0,0,.275.275l.3.25q.625.525.9-.3.025-.075.063-.2t.063-.225a1.352,1.352,0,0,1,.788-.825,1.688,1.688,0,0,1,1.212-.05,1.6,1.6,0,0,1,.875.675,1.4,1.4,0,0,1,.1,1.225q-.1.35-.3.863t-.375.938a2.914,2.914,0,0,1-1.925,1.837,3.618,3.618,0,0,1-2.85-.862q-.275-.2-.575-.45t-.575-.525q-.3.35-.613.675t-.637.625a1.932,1.932,0,0,1-1.187.537,1.476,1.476,0,0,1-1.238-.513,1.419,1.419,0,0,1-.412-1.1,1.431,1.431,0,0,1,.488-1.025q.425-.375.863-.825t.862-.95a16.3,16.3,0,0,1-1.187-2.788,20.421,20.421,0,0,1-.787-3.537H-92.4a2.225,2.225,0,0,0-1.5.35,1.908,1.908,0,0,0-.4,1.25,25.016,25.016,0,0,1-.612,4.55,10.519,10.519,0,0,1-1.713,3.875,1.717,1.717,0,0,1-1.1.688A1.7,1.7,0,0,1-99.05,32.675Zm11.975,7.475a12.693,12.693,0,0,1-3.35-.35,2.735,2.735,0,0,1-1.725-1.225,4.853,4.853,0,0,1-.5-2.4V34.25a1.575,1.575,0,0,1,.475-1.2,1.611,1.611,0,0,1,1.15-.45,1.611,1.611,0,0,1,1.15.45,1.575,1.575,0,0,1,.475,1.2V35.8a1.736,1.736,0,0,0,.188.888,1.02,1.02,0,0,0,.7.425A7.58,7.58,0,0,0-87,37.225a9.019,9.019,0,0,0,1.45-.087,1.574,1.574,0,0,0,.763-.312,1.969,1.969,0,0,0,.463-.625,1.663,1.663,0,0,1,.912-.838,1.561,1.561,0,0,1,1.237.038,1.686,1.686,0,0,1,.913.825,1.464,1.464,0,0,1,.012,1.2,4.326,4.326,0,0,1-.988,1.6,3.6,3.6,0,0,1-1.75.862A14.339,14.339,0,0,1-87.075,40.15ZM-90.2,31.9a8.753,8.753,0,0,1-2.238-.225,1.719,1.719,0,0,1-1.137-.85A3.921,3.921,0,0,1-93.9,29.05a3.907,3.907,0,0,1,.325-1.787,1.73,1.73,0,0,1,1.137-.838A8.753,8.753,0,0,1-90.2,26.2a8.6,8.6,0,0,1,2.225.225,1.724,1.724,0,0,1,1.125.838,3.907,3.907,0,0,1,.325,1.787,3.921,3.921,0,0,1-.325,1.775,1.714,1.714,0,0,1-1.125.85A8.6,8.6,0,0,1-90.2,31.9Zm-8.025,6.925a1.682,1.682,0,0,1-.562-1.05,1.306,1.306,0,0,1,.338-1.1q.25-.3.637-.787t.762-1q.375-.513.575-.812a1.671,1.671,0,0,1,1.037-.725,1.617,1.617,0,0,1,1.213.25,1.547,1.547,0,0,1,.725.95,1.391,1.391,0,0,1-.25,1.225q-.4.625-.988,1.462A11.873,11.873,0,0,1-95.8,38.575a1.794,1.794,0,0,1-1.162.638A1.6,1.6,0,0,1-98.225,38.825Zm5.3-13.275a1.178,1.178,0,0,1-.925-.362,1.249,1.249,0,0,1-.325-.863,1.282,1.282,0,0,1,.325-.887,1.178,1.178,0,0,1,.925-.362h5.65a1.139,1.139,0,0,1,.912.362,1.312,1.312,0,0,1,.313.887,1.278,1.278,0,0,1-.312.863,1.139,1.139,0,0,1-.912.362ZM-76.6,38.775a1.635,1.635,0,0,1-1.213.325,1.432,1.432,0,0,1-1.062-.6q-.225-.325-.625-.85t-.825-1.062a10.118,10.118,0,0,0-.75-.863,1.144,1.144,0,0,1-.3-1.025,1.56,1.56,0,0,1,.55-.975,1.54,1.54,0,0,1,1.125-.387,1.567,1.567,0,0,1,1.075.512,9.642,9.642,0,0,1,.8.863q.45.538.875,1.063t.65.825a1.481,1.481,0,0,1,.337,1.113A1.53,1.53,0,0,1-76.6,38.775Zm-8.7-2.8a1.639,1.639,0,0,1-1.125.388A1.34,1.34,0,0,1-87.5,35.8l-.562-.687a5.241,5.241,0,0,0-.537-.587,1.083,1.083,0,0,1-.3-1,1.46,1.46,0,0,1,.55-.95,1.579,1.579,0,0,1,1.037-.362,1.534,1.534,0,0,1,1.037.462q.575.525,1.125,1.125a1.469,1.469,0,0,1,.463,1.125A1.432,1.432,0,0,1-85.3,35.975ZM-90.2,29.7a1.946,1.946,0,0,0,.837-.113q.188-.113.188-.538t-.187-.538A1.946,1.946,0,0,0-90.2,28.4a1.946,1.946,0,0,0-.838.112q-.187.113-.187.538t.188.538A1.946,1.946,0,0,0-90.2,29.7Zm30.625,8.5A1.9,1.9,0,0,1-61,37.987a1.8,1.8,0,0,1-.875-1.138,1.831,1.831,0,0,1,.225-1.412,1.754,1.754,0,0,1,1.125-.838,6.534,6.534,0,0,0,3.862-2.225,6.46,6.46,0,0,0,1.137-3.925,5.076,5.076,0,0,0-1.337-3.575A6.032,6.032,0,0,0-60.65,23.1a32.593,32.593,0,0,1-1.612,7.325,14.014,14.014,0,0,1-2.6,4.675,4.256,4.256,0,0,1-3.112,1.625,4.519,4.519,0,0,1-2.6-.8,5.512,5.512,0,0,1-1.875-2.312,8.743,8.743,0,0,1-.7-3.687,9.933,9.933,0,0,1,.8-3.962,10.179,10.179,0,0,1,2.275-3.3,10.587,10.587,0,0,1,3.512-2.25A12.082,12.082,0,0,1-62.05,19.6a12.552,12.552,0,0,1,4.087.638,9.674,9.674,0,0,1,3.225,1.813,8.189,8.189,0,0,1,2.112,2.8,8.488,8.488,0,0,1,.75,3.6,10.127,10.127,0,0,1-1.9,6.288A9.894,9.894,0,0,1-59.575,38.2Zm-8.375-5.275q.425,0,1.15-1.187a16.933,16.933,0,0,0,1.45-3.362,27.16,27.16,0,0,0,1.1-5.125,6.885,6.885,0,0,0-2.9,1.438,6.512,6.512,0,0,0-1.762,2.375,7.361,7.361,0,0,0-.613,2.813,4.538,4.538,0,0,0,.412,2.325A1.316,1.316,0,0,0-67.95,32.925Zm34.55,6.75a2.219,2.219,0,0,1-1.462-.15,1.576,1.576,0,0,1-.913-1.075,1.672,1.672,0,0,1,.2-1.375,1.861,1.861,0,0,1,1.125-.85,5.929,5.929,0,0,0,2.825-1.6,3.943,3.943,0,0,0,.9-2.7,3.408,3.408,0,0,0-.663-2.075,4.1,4.1,0,0,0-1.988-1.375,15.988,15.988,0,0,1-1.162,3.375,16.035,16.035,0,0,1-1.787,2.925l.1.15a.631.631,0,0,1,.075.15,1.807,1.807,0,0,1,.288,1.388,1.731,1.731,0,0,1-.787,1.188,1.79,1.79,0,0,1-1.2.275,1.8,1.8,0,0,1-1.1-.525,10.2,10.2,0,0,1-2.375,1.325A6.8,6.8,0,0,1-43.8,39.2a4.573,4.573,0,0,1-3.125-1.05,4.372,4.372,0,0,1-1.2-3.45,7.817,7.817,0,0,1,.8-3.5,9.789,9.789,0,0,1,2.188-2.9,13.187,13.187,0,0,1,3.112-2.125q0-1.125.075-2.325-2.075.125-3.825.075A1.577,1.577,0,0,1-47,23.362a1.784,1.784,0,0,1-.475-1.287,1.746,1.746,0,0,1,.6-1.238,1.766,1.766,0,0,1,1.275-.463q.95.025,1.962,0l2.063-.05q.075-.45.163-.887t.188-.888a1.793,1.793,0,0,1,.775-1.175,1.67,1.67,0,0,1,1.375-.25,1.7,1.7,0,0,1,1.175.8,1.8,1.8,0,0,1,.225,1.4q-.025.175-.062.35t-.088.375q.95-.1,1.838-.212l1.663-.212a1.773,1.773,0,0,1,1.337.288,1.659,1.659,0,0,1,.737,1.137,1.782,1.782,0,0,1-.3,1.35,1.605,1.605,0,0,1-1.15.725q-2.125.3-4.675.5-.025.35-.05.688t-.05.688a12.6,12.6,0,0,1,2.375-.225,11.821,11.821,0,0,1,4.937.913,6.745,6.745,0,0,1,3,2.525,6.833,6.833,0,0,1,1.012,3.712,8.167,8.167,0,0,1-1.5,5A7.731,7.731,0,0,1-33.4,39.675ZM-43.45,35.75a3.151,3.151,0,0,0,1.4-.375,7.284,7.284,0,0,0,1.5-1.025,17.961,17.961,0,0,1-.687-2.175q-.288-1.15-.487-2.375a7.309,7.309,0,0,0-2.1,2.2,4.952,4.952,0,0,0-.775,2.6,1.319,1.319,0,0,0,.275.925A1.314,1.314,0,0,0-43.45,35.75Zm5.5-4.75a12.171,12.171,0,0,0,1.175-2.9q-.425.025-.838.088t-.812.162q.075.7.188,1.35T-37.95,31Zm25.15,8.55a6.948,6.948,0,0,1-2.712-.638A4.208,4.208,0,0,1-17.3,37.35a3.866,3.866,0,0,1-.55-2.325,3.79,3.79,0,0,1,.675-1.975,3.893,3.893,0,0,1,1.637-1.312,4.646,4.646,0,0,1,2.363-.337,4.073,4.073,0,0,1,3,1.275,3.364,3.364,0,0,1,.7,2.725,2.737,2.737,0,0,0,1.012-1.213A4.292,4.292,0,0,0-8.15,32.5a2.771,2.771,0,0,0-.488-1.525,3.752,3.752,0,0,0-1.375-1.237,4.394,4.394,0,0,0-2.1-.5,6.043,6.043,0,0,0-2.662.688,11.531,11.531,0,0,0-3.075,2.35,1.979,1.979,0,0,1-1.463.612,1.758,1.758,0,0,1-1.437-.638,1.884,1.884,0,0,1-.437-1.338A1.539,1.539,0,0,1-20.55,29.7q1.5-1.125,3.05-2.425t2.95-2.563q1.4-1.262,2.45-2.287.4-.375.275-.7T-12.6,21.5q-.875.125-1.8.25t-1.875.25a1.789,1.789,0,0,1-1.362-.362,1.865,1.865,0,0,1-.738-1.238,1.789,1.789,0,0,1,.362-1.362,1.774,1.774,0,0,1,1.238-.712q.625-.1,1.512-.175l1.788-.15q.9-.075,1.525-.1a4.767,4.767,0,0,1,2.75.487,3.217,3.217,0,0,1,1.475,1.638,3.464,3.464,0,0,1,.087,2.2,4.61,4.61,0,0,1-1.438,2.2q-.325.325-.887.825t-1.263,1.1a7.4,7.4,0,0,1,3.363.663,5.97,5.97,0,0,1,2.487,2.125,6.109,6.109,0,0,1,.95,3.487A6.911,6.911,0,0,1-5.5,36.588a6.278,6.278,0,0,1-2.962,2.337A10.242,10.242,0,0,1-12.8,39.55Zm-.65-3.425a8.374,8.374,0,0,0,.925,0,1.356,1.356,0,0,0,.125-1.088.937.937,0,0,0-.825-.587,1.2,1.2,0,0,0-.85.1.752.752,0,0,0-.4.575.7.7,0,0,0,.238.675A1.857,1.857,0,0,0-13.45,36.125ZM20.875,39.7a20.138,20.138,0,0,1-3.387-2.175,18.767,18.767,0,0,1-2.9-2.85,15.058,15.058,0,0,1-2.088-3.35,16.512,16.512,0,0,1-3.3,4.663A18.655,18.655,0,0,1,4.075,39.65a2.667,2.667,0,0,1-1.625.275,1.767,1.767,0,0,1-1.3-.975,1.688,1.688,0,0,1-.113-1.575,2.2,2.2,0,0,1,1.188-1.15,14.416,14.416,0,0,0,3.888-2.387A13.451,13.451,0,0,0,8.888,30.55a11.607,11.607,0,0,0,1.462-3.825H2.775a1.707,1.707,0,0,1-1.25-.525,1.751,1.751,0,0,1,0-2.5,1.707,1.707,0,0,1,1.25-.525H10.55v-4.3a1.843,1.843,0,0,1,.575-1.413,2.027,2.027,0,0,1,2.75,0,1.843,1.843,0,0,1,.575,1.413v4.3h7.775a1.775,1.775,0,0,1,0,3.55h-7.55a12.034,12.034,0,0,0,1.55,3.8,14,14,0,0,0,2.85,3.3,16.254,16.254,0,0,0,3.875,2.45,1.746,1.746,0,0,1,1.063,1.137,1.912,1.912,0,0,1-.187,1.488,1.791,1.791,0,0,1-1.288,1.025A2.506,2.506,0,0,1,20.875,39.7Zm18.825.725a15.668,15.668,0,0,1-4.663-.337A7.531,7.531,0,0,1,32,38.65a4.656,4.656,0,0,1-1.513-2.238,5.9,5.9,0,0,1-.137-2.737,4.36,4.36,0,0,1,1.35-2.513,6.149,6.149,0,0,1,2.725-1.4,9.919,9.919,0,0,1,3.65-.163q-.2-.35-.4-.712t-.4-.738q-1.4.225-2.812.413t-2.713.313a1.67,1.67,0,0,1-1.312-.413,1.728,1.728,0,0,1-.612-1.238,1.778,1.778,0,0,1,1.65-1.95q.975-.075,2.038-.2t2.162-.3q-.1-.275-.212-.575t-.238-.575q-.925.15-1.787.262L31.8,24.1a1.8,1.8,0,0,1-1.337-.387,1.813,1.813,0,0,1,.913-3.213q.6-.05,1.287-.15l1.388-.2q-.075-.3-.162-.6t-.163-.6a1.849,1.849,0,0,1,.213-1.4,1.71,1.71,0,0,1,1.138-.85,1.784,1.784,0,0,1,1.412.188,1.718,1.718,0,0,1,.838,1.138l.2.75.2.75q.7-.15,1.363-.288t1.237-.263a1.712,1.712,0,0,1,1.362.225,1.774,1.774,0,0,1,.813,1.125,1.678,1.678,0,0,1-.225,1.35,1.886,1.886,0,0,1-1.125.825q-.55.1-1.125.225t-1.175.25a10.178,10.178,0,0,0,.45,1.15q.95-.2,1.862-.413T42.85,23.3a1.614,1.614,0,0,1,1.363.213,1.821,1.821,0,0,1,.813,1.137A1.678,1.678,0,0,1,44.8,26a1.886,1.886,0,0,1-1.125.825q-.625.175-1.325.337t-1.475.313a21.464,21.464,0,0,0,1.188,1.85A10.79,10.79,0,0,0,43.325,30.8a1.71,1.71,0,0,1,.575,1.113,1.906,1.906,0,0,1-.275,1.238,1.876,1.876,0,0,1-.975.775A1.705,1.705,0,0,1,41.4,33.9a11.69,11.69,0,0,0-3.763-1.05,5.852,5.852,0,0,0-2.65.288A1.541,1.541,0,0,0,33.9,34.325a1.777,1.777,0,0,0,1.137,1.925,10.093,10.093,0,0,0,4.463.475,1.78,1.78,0,0,1,1.35.463,1.758,1.758,0,0,1,.6,1.313,1.7,1.7,0,0,1-.463,1.325A1.859,1.859,0,0,1,39.7,40.425ZM61.85,39.9a5.134,5.134,0,0,1-3.413-1.1,3.821,3.821,0,0,1-1.312-3.1,3.7,3.7,0,0,1,1.325-2.987A5.223,5.223,0,0,1,61.925,31.6a8.132,8.132,0,0,1,1.1.075V27.45a1.807,1.807,0,0,1,.525-1.313,1.745,1.745,0,0,1,1.3-.538,1.7,1.7,0,0,1,1.287.538,1.831,1.831,0,0,1,.513,1.313v5.025a19.874,19.874,0,0,1,2.5,1.038,15.316,15.316,0,0,1,2.05,1.212,1.728,1.728,0,0,1,.763,1.213,1.9,1.9,0,0,1-1.55,2.15,1.7,1.7,0,0,1-1.388-.338q-.525-.4-1.138-.787A12.754,12.754,0,0,0,66.6,36.25a4,4,0,0,1-1.475,2.688A5.156,5.156,0,0,1,61.85,39.9ZM52.825,33a1.89,1.89,0,0,1-.55-1.35,1.69,1.69,0,0,1,.575-1.3,15.7,15.7,0,0,0,2.288-2.575,17.3,17.3,0,0,0,1.712-3l-1.025.1q-.5.05-.925.075a1.8,1.8,0,0,1-1.95-1.75,1.76,1.76,0,0,1,.438-1.288A2.011,2.011,0,0,1,54.7,21.3q.75-.075,1.575-.175T57.95,20.9a12.97,12.97,0,0,0,.15-1.975,1.926,1.926,0,0,1,.538-1.312,1.7,1.7,0,0,1,1.287-.538,1.87,1.87,0,0,1,1.338.538,1.666,1.666,0,0,1,.538,1.313q-.025.325-.038.663a5.755,5.755,0,0,1-.062.663l.125-.025a1.766,1.766,0,0,1,1.4.237,1.726,1.726,0,0,1,.8,1.163A1.67,1.67,0,0,1,63.775,23a1.89,1.89,0,0,1-1.175.8q-.35.075-.775.163l-.925.188a22.282,22.282,0,0,1-2.2,4.9A16.6,16.6,0,0,1,55.45,33a1.958,1.958,0,0,1-1.325.537A1.734,1.734,0,0,1,52.825,33Zm16.65-6.525A20.147,20.147,0,0,0,67.7,25.5a15.484,15.484,0,0,0-1.725-.725,2.366,2.366,0,0,1-1.112-.875,1.629,1.629,0,0,1-.238-1.35,1.9,1.9,0,0,1,.863-1.163,1.611,1.611,0,0,1,1.387-.187,15.144,15.144,0,0,1,1.637.587q.863.363,1.675.763a13.385,13.385,0,0,1,1.387.775,1.625,1.625,0,0,1,.775,1.188,1.974,1.974,0,0,1-.3,1.438,1.793,1.793,0,0,1-1.175.775A1.879,1.879,0,0,1,69.475,26.475ZM61.8,36.55a1.094,1.094,0,0,0,1.225-1.25v-.325q-.325-.05-.625-.075t-.6-.025q-1.15,0-1.15.825Q60.65,36.55,61.8,36.55Zm22.45,3.275a1.266,1.266,0,0,1-.988-.4,1.442,1.442,0,0,1,0-1.912,1.287,1.287,0,0,1,.988-.388h5.425V36.55h-4.45a1.128,1.128,0,0,1-.887-.35,1.2,1.2,0,0,1-.312-.825,1.231,1.231,0,0,1,.313-.85,1.128,1.128,0,0,1,.887-.35h4.45V33.6h-1.25a6.243,6.243,0,0,1-2.187-.312,2,2,0,0,1-1.163-1.162,6.605,6.605,0,0,1-.35-2.425,6.5,6.5,0,0,1,.35-2.413,2.046,2.046,0,0,1,1.163-1.162,6.023,6.023,0,0,1,2.188-.325H94.05a6.023,6.023,0,0,1,2.188.325,2.091,2.091,0,0,1,1.175,1.162,6.3,6.3,0,0,1,.363,2.413,6.4,6.4,0,0,1-.363,2.425,2.042,2.042,0,0,1-1.175,1.162,6.243,6.243,0,0,1-2.187.313H92.8v.575h4.375a1.128,1.128,0,0,1,.887.35,1.231,1.231,0,0,1,.313.85,1.2,1.2,0,0,1-.312.825,1.128,1.128,0,0,1-.887.35H92.8v.575h5.325a1.278,1.278,0,0,1,1,.388,1.481,1.481,0,0,1,0,1.912,1.258,1.258,0,0,1-1,.4ZM79.9,36.8a6.374,6.374,0,0,1-2.287-.325A1.894,1.894,0,0,1,76.5,35.412a5.475,5.475,0,0,1-.3-2.012V21.525a5.579,5.579,0,0,1,.3-2.025,1.848,1.848,0,0,1,1.113-1.062,8.574,8.574,0,0,1,4.587,0A1.849,1.849,0,0,1,83.3,19.5a5.579,5.579,0,0,1,.3,2.025V33.4a5.475,5.475,0,0,1-.3,2.012,1.9,1.9,0,0,1-1.1,1.063A6.357,6.357,0,0,1,79.9,36.8Zm5.225-11.575a1.208,1.208,0,0,1-.963-.388,1.378,1.378,0,0,1-.338-.937,1.332,1.332,0,0,1,.338-.925,1.228,1.228,0,0,1,.963-.375h1.9a1.3,1.3,0,0,0-.05-.162.307.307,0,0,1-.025-.113,1.169,1.169,0,0,1,.025-1.025h-1.4a1.208,1.208,0,0,1-.962-.388,1.378,1.378,0,0,1-.338-.937,1.332,1.332,0,0,1,.338-.925,1.228,1.228,0,0,1,.962-.375H89.6V18.1a1.446,1.446,0,0,1,.463-1.137,1.682,1.682,0,0,1,1.162-.413,1.717,1.717,0,0,1,1.188.413,1.446,1.446,0,0,1,.463,1.137v.575h4.1a1.228,1.228,0,0,1,.962.375,1.332,1.332,0,0,1,.338.925,1.378,1.378,0,0,1-.338.937,1.208,1.208,0,0,1-.962.388h-1.45a1.169,1.169,0,0,1,.025,1.025.307.307,0,0,1-.025.113,1.3,1.3,0,0,0-.05.162H97.9a1.228,1.228,0,0,1,.963.375,1.332,1.332,0,0,1,.337.925,1.378,1.378,0,0,1-.337.937,1.208,1.208,0,0,1-.963.388ZM90.25,22.6h2q.1-.325.213-.663a3.7,3.7,0,0,0,.138-.487.2.2,0,0,0,.025-.087.085.085,0,0,1,.025-.062h-2.8a.384.384,0,0,1,.05.15q.05.15.15.487T90.25,22.6ZM79.9,33.775a.732.732,0,0,0,.5-.138.817.817,0,0,0,.15-.588V31.525H79.275V33.05a.817.817,0,0,0,.15.588A.688.688,0,0,0,79.9,33.775ZM79.275,28.4H80.55V26.275H79.275Zm0-5.25H80.55V21.875a.817.817,0,0,0-.15-.587.732.732,0,0,0-.5-.138.688.688,0,0,0-.475.138.817.817,0,0,0-.15.587ZM92.8,28.775h1.7a.8.8,0,0,0-.3-.65,1.9,1.9,0,0,0-.9-.15h-.5Zm-4.825,0h1.7v-.8h-.5a1.824,1.824,0,0,0-.875.15A.863.863,0,0,0,87.975,28.775Zm1.2,2.65h.5V30.65h-1.7a.818.818,0,0,0,.325.638A1.969,1.969,0,0,0,89.175,31.425Zm3.625,0h.5a1.969,1.969,0,0,0,.875-.137.818.818,0,0,0,.325-.638H92.8Zm12.8,7.4a1.835,1.835,0,0,1-1.387-.312,1.734,1.734,0,0,1-.763-1.187,24.672,24.672,0,0,1-.362-3q-.113-1.7-.125-3.588t.088-3.812q.1-1.925.313-3.675t.512-3.15a1.826,1.826,0,0,1,.825-1.188,1.766,1.766,0,0,1,1.4-.237,1.876,1.876,0,0,1,1.175.813,1.75,1.75,0,0,1,.25,1.413,37.825,37.825,0,0,0-.6,3.812q-.225,2.063-.288,4.188t.05,4.125a29.064,29.064,0,0,0,.412,3.625,1.872,1.872,0,0,1-.3,1.4A1.806,1.806,0,0,1,105.6,38.825Zm10.2-1.275a8.708,8.708,0,0,1-4.925-1.138,5.319,5.319,0,0,1-2.1-3.637,1.88,1.88,0,0,1,.313-1.413A1.749,1.749,0,0,1,110.3,30.6a1.8,1.8,0,0,1,1.375.312,1.852,1.852,0,0,1,.775,1.213,1.923,1.923,0,0,0,.9,1.3,5.312,5.312,0,0,0,2.6.45,14.16,14.16,0,0,0,2-.15q1.05-.15,2.375-.425a1.7,1.7,0,0,1,1.388.25,1.885,1.885,0,0,1,.813,1.2,1.745,1.745,0,0,1-.275,1.375,2,2,0,0,1-1.175.825,21.965,21.965,0,0,1-2.762.462A25.156,25.156,0,0,1,115.8,37.55Zm-4.4-12.5a1.865,1.865,0,0,1-1.388-.3,1.781,1.781,0,0,1-.787-1.175,1.817,1.817,0,0,1,.275-1.4,1.682,1.682,0,0,1,1.175-.775,24.059,24.059,0,0,1,3.25-.4,33.121,33.121,0,0,1,3.4-.025,25.436,25.436,0,0,1,3.025.3,1.6,1.6,0,0,1,1.175.75,1.9,1.9,0,0,1,.3,1.4,1.682,1.682,0,0,1-.762,1.213,1.9,1.9,0,0,1-1.387.287,23.034,23.034,0,0,0-4.1-.3A22.575,22.575,0,0,0,111.4,25.05Zm26.1,14.7a1,1,0,0,1-.7-.312,6.183,6.183,0,0,1-.675-.787,3.18,3.18,0,0,0-.35-.463q-.25-.287-.6-.662-.85-1-2.187-2.613a37.657,37.657,0,0,1-2.588-3.537q-3.025-4.775-3.025-8.45a5.08,5.08,0,0,1,1.675-3.8,5.36,5.36,0,0,1,3.825-1.55,5.062,5.062,0,0,1,2.775.763,4.905,4.905,0,0,1,1.85,2.237,4.905,4.905,0,0,1,1.85-2.237,5.062,5.062,0,0,1,2.775-.763,5.361,5.361,0,0,1,3.925,1.65,5.064,5.064,0,0,1,1.575,3.7q0,3.675-3.025,8.45a34.782,34.782,0,0,1-2.562,3.537q-1.338,1.613-2.213,2.613l-.575.662q-.25.287-.375.463a6.183,6.183,0,0,1-.675.787A1,1,0,0,1,137.5,39.75Zm0-1.075q.05-.05.175-.2t.35-.45q.15-.2.4-.488l.6-.687q.675-.775,1.638-1.925t1.987-2.562a30.95,30.95,0,0,0,1.913-2.987,19.332,19.332,0,0,0,1.45-3.213,9.92,9.92,0,0,0,.563-3.237,4.145,4.145,0,0,0-1.25-2.95,4.373,4.373,0,0,0-3.2-1.35,3.972,3.972,0,0,0-2.212.625,4.029,4.029,0,0,0-1.488,1.825,2.209,2.209,0,0,1-.3.513.735.735,0,0,1-.625.262.7.7,0,0,1-.613-.262,3.845,3.845,0,0,1-.312-.513,4.029,4.029,0,0,0-1.488-1.825,3.972,3.972,0,0,0-2.212-.625,4.373,4.373,0,0,0-3.2,1.35,4.145,4.145,0,0,0-1.25,2.95,9.92,9.92,0,0,0,.563,3.237,19.332,19.332,0,0,0,1.45,3.213,30.95,30.95,0,0,0,1.913,2.987q1.025,1.413,1.987,2.563t1.638,1.925l.6.688q.25.288.4.488.225.3.35.45T137.5,38.675Z" transform="translate(261.879 650.129)" fill="#7fa083"/>
    <path id="パス_9827" data-name="パス 9827" d="M70.524,26.153c0-4.516-3.276-8.176-7.317-8.176a6.889,6.889,0,0,0-4.927,2.131,6.9,6.9,0,0,0-4.929-2.131c-4.039,0-7.315,3.66-7.315,8.176a8.654,8.654,0,0,0,3.384,6.9l.032.021c.249.175.249.175,8.828,6.432,8.576-6.257,8.576-6.257,8.825-6.432l.019-.011.013-.011h0l1.012-.792a8.441,8.441,0,0,0,2.375-6.1" transform="translate(-55.48 614.052)" fill="#7fa083"/>
    <path id="パス_9828" data-name="パス 9828" d="M62.145,23.355a5.119,5.119,0,0,0-4.814-5.378,4.532,4.532,0,0,0-3.241,1.4,4.536,4.536,0,0,0-3.243-1.4,5.119,5.119,0,0,0-4.812,5.378,5.693,5.693,0,0,0,2.226,4.536l.021.014c.164.115.164.115,5.807,4.231,5.642-4.116,5.642-4.116,5.805-4.231l.012-.007.009-.007h0l.666-.521a5.553,5.553,0,0,0,1.562-4.015" transform="translate(456.843 637.808)" fill="#7fa083"/>
    <path id="パス_9781" data-name="パス 9781" d="M28.491-.646a7.344,7.344,0,0,1,4.68,1.706,7.344,7.344,0,0,1,4.68-1.706,7.417,7.417,0,0,1,5.526,2.509,8.8,8.8,0,0,1,2.244,5.946,8.616,8.616,0,0,1-2.571,6.348l-.405.313-.091.07.017.046L42,14.958c-.218.152-.507.36-8.349,5.992l-.483.347-.483-.347c-7.843-5.633-8.131-5.84-8.349-5.992l-.906-.536.123-.119a8.993,8.993,0,0,1-1.855-2.44,8.727,8.727,0,0,1-.977-4.055,8.8,8.8,0,0,1,2.244-5.946A7.417,7.417,0,0,1,28.491-.646Zm4.68,3.957-.585-.587a5.775,5.775,0,0,0-4.1-1.754c-3.38,0-6.13,3.067-6.13,6.84a7.221,7.221,0,0,0,2.878,5.8l.023.016c.237.165.241.168,7.913,5.677,7.668-5.508,7.674-5.512,7.913-5.677l.031-.021.006,0,.92-.711a7.1,7.1,0,0,0,1.943-5.077c0-3.772-2.75-6.84-6.13-6.84a5.775,5.775,0,0,0-4.1,1.754Z" transform="translate(498.265 635.955)" fill="#7fa083"/>
    <path id="パス_9781-2" data-name="パス 9781" d="M26.078-.646A5.063,5.063,0,0,1,29.3.53,5.063,5.063,0,0,1,32.531-.646a5.113,5.113,0,0,1,3.809,1.73,6.067,6.067,0,0,1,1.547,4.1,5.939,5.939,0,0,1-1.773,4.376l-.28.216-.063.048.011.032-.391.257c-.15.1-.35.248-5.756,4.131l-.333.239-.333-.239c-5.406-3.883-5.606-4.026-5.756-4.131l-.625-.369.085-.082A6.2,6.2,0,0,1,21.4,7.978a6.016,6.016,0,0,1-.674-2.8,6.067,6.067,0,0,1,1.547-4.1A5.113,5.113,0,0,1,26.078-.646ZM29.3,2.082l-.4-.4A3.981,3.981,0,0,0,26.078.467a4.5,4.5,0,0,0-4.226,4.715,4.978,4.978,0,0,0,1.984,4l.016.011c.163.114.166.116,5.455,3.913,5.286-3.8,5.29-3.8,5.455-3.913l.021-.014,0,0,.634-.49a4.895,4.895,0,0,0,1.34-3.5A4.5,4.5,0,0,0,32.534.467a3.981,3.981,0,0,0-2.823,1.209Z" transform="translate(-10.362 655.464)" fill="#7fa083"/>
  </g>
</svg>
