<svg xmlns="http://www.w3.org/2000/svg" width="325.128" height="35.296" viewBox="0 0 325.128 35.296">
  <g id="グループ_3743" data-name="グループ 3743" transform="translate(-6.929 -622.279)">
    <path id="パス_10349" data-name="パス 10349" d="M-127.424.848A4.718,4.718,0,0,1-130.648-.16a4.1,4.1,0,0,1-1.144-3.232v-8.48a1.143,1.143,0,0,1,.344-.84,1.143,1.143,0,0,1,.84-.344,1.169,1.169,0,0,1,.848.344,1.13,1.13,0,0,1,.352.84v8.48a1.94,1.94,0,0,0,.456,1.464,2.218,2.218,0,0,0,1.528.424,3.331,3.331,0,0,0,1.68-.48,3.549,3.549,0,0,0,1.376-1.632,1.172,1.172,0,0,1,.68-.608,1.118,1.118,0,0,1,.9.064,1.086,1.086,0,0,1,.6.664,1.278,1.278,0,0,1-.04.92,5.665,5.665,0,0,1-1.256,1.84A5.54,5.54,0,0,1-125.288.44,5.678,5.678,0,0,1-127.424.848ZM-124.7-9.5a6.562,6.562,0,0,0-.52-.488l-.616-.536a.725.725,0,0,1-.192-.448.715.715,0,0,1,.176-.544.775.775,0,0,1,.448-.264.741.741,0,0,1,.528.088q.272.16.656.432a4.122,4.122,0,0,1,.624.528.9.9,0,0,1,.248.56.811.811,0,0,1-.2.592.767.767,0,0,1-.544.288A.777.777,0,0,1-124.7-9.5Zm-.368,1.552a.78.78,0,0,1-.576.224.73.73,0,0,1-.576-.256q-.16-.176-.488-.528l-.552-.592a.647.647,0,0,1-.152-.472.8.8,0,0,1,.232-.536.75.75,0,0,1,.464-.208.677.677,0,0,1,.512.144,5.386,5.386,0,0,1,.624.488,4.275,4.275,0,0,1,.56.584.788.788,0,0,1,.208.576A.889.889,0,0,1-125.072-7.952Zm11.568,9.52a.915.915,0,0,1-.3-.736,1.069,1.069,0,0,1,.312-.768q.16-.176.312-.368a3.332,3.332,0,0,0,.28-.416,3.744,3.744,0,0,1-1.488-1.84,1,1,0,0,1,.024-.776.946.946,0,0,1,.568-.52.986.986,0,0,1,.768.024.944.944,0,0,1,.528.552,1.887,1.887,0,0,0,.336.608,10.888,10.888,0,0,0,.24-2.992,4.709,4.709,0,0,0-1.448.736,4.194,4.194,0,0,0-1.16,1.328,4.4,4.4,0,0,0-.528,1.952.815.815,0,0,1-.272.608,1.025,1.025,0,0,1-.656.24.877.877,0,0,1-.664-.232,1.074,1.074,0,0,1-.312-.7q-.064-.56-.112-1.28t-.072-1.464q-.024-.744-.024-1.408t.016-1.144a1.034,1.034,0,0,1,.3-.72.878.878,0,0,1,.72-.256.9.9,0,0,1,.7.336,1.038,1.038,0,0,1,.224.752q-.016.272-.016.672v.864a5.882,5.882,0,0,1,1.392-1.4,5.681,5.681,0,0,1,1.632-.808q-.128-.56-.288-1.04a1.087,1.087,0,0,1,.056-.808,1,1,0,0,1,.584-.536,1.042,1.042,0,0,1,.8.064.971.971,0,0,1,.512.608,11.548,11.548,0,0,1,.384,1.536,4.169,4.169,0,0,1,1.744.624,3.585,3.585,0,0,1,1.208,1.288,3.71,3.71,0,0,1,.44,1.832,3.741,3.741,0,0,1-.576,2.1,3.894,3.894,0,0,1-1.488,1.352,4.186,4.186,0,0,1-1.952.472h-.144a7.954,7.954,0,0,1-.5.856,6.429,6.429,0,0,1-.592.76,1.042,1.042,0,0,1-.744.336A1.009,1.009,0,0,1-113.5,1.568Zm3.28-3.7a1.968,1.968,0,0,0,1.032-.616,1.833,1.833,0,0,0,.424-1.272,1.853,1.853,0,0,0-.3-1.072,1.567,1.567,0,0,0-.84-.608,15.854,15.854,0,0,1-.04,1.816A11.013,11.013,0,0,1-110.224-2.128ZM-98.448,1.44a1.1,1.1,0,0,1-.816-.344A1.138,1.138,0,0,1-99.6.272V-3.3q-.72.672-1.456,1.408a1.156,1.156,0,0,1-.848.352,1.156,1.156,0,0,1-.848-.352,1.118,1.118,0,0,1-.32-.84,1.206,1.206,0,0,1,.368-.84q.736-.7,1.512-1.392T-99.6-6.272V-8q-.24.048-.616.144t-.728.176q-.352.08-.528.112a1.13,1.13,0,0,1-.9-.152,1.1,1.1,0,0,1-.512-.744,1.161,1.161,0,0,1,.152-.912,1.1,1.1,0,0,1,.744-.512l2.384-.448v-2.08a1.111,1.111,0,0,1,.336-.816,1.111,1.111,0,0,1,.816-.336,1.111,1.111,0,0,1,.816.336,1.111,1.111,0,0,1,.336.816v2.048a1.656,1.656,0,0,1,.928.688,1.771,1.771,0,0,1,.176,1.312,8.037,8.037,0,0,1,1.3-.448,5.294,5.294,0,0,1,1.272-.16,5.2,5.2,0,0,1,2.392.5,3.545,3.545,0,0,1,1.5,1.416,4.255,4.255,0,0,1,.52,2.144,4.367,4.367,0,0,1-1.432,3.344A7.609,7.609,0,0,1-94.864.144a1.207,1.207,0,0,1-.88-.216,1.127,1.127,0,0,1-.48-.776A1.188,1.188,0,0,1-96-1.728a1.146,1.146,0,0,1,.768-.48,7.87,7.87,0,0,0,2.256-.616,2.482,2.482,0,0,0,1.088-.92,2.3,2.3,0,0,0,.3-1.168,1.719,1.719,0,0,0-.472-1.272,2.283,2.283,0,0,0-1.64-.472,4.574,4.574,0,0,0-1.8.384,9.043,9.043,0,0,0-1.8,1.04v5.5a1.138,1.138,0,0,1-.336.824A1.1,1.1,0,0,1-98.448,1.44ZM-80.592.512A.973.973,0,0,1-81.368.3a1.067,1.067,0,0,1-.408-.7.973.973,0,0,1,.208-.776,1.067,1.067,0,0,1,.7-.408,7.724,7.724,0,0,0,2.376-.632,2.567,2.567,0,0,0,1.144-.976,1.737,1.737,0,0,0,.208-1.144,1.63,1.63,0,0,0-.536-1.088,1.859,1.859,0,0,0-1.3-.272q-.512.048-1.192.144t-1.4.232q-.72.136-1.376.28t-1.12.272a1.029,1.029,0,0,1-.8-.1,1.059,1.059,0,0,1-.512-.632,1.029,1.029,0,0,1,.1-.8,1,1,0,0,1,.648-.5q.512-.144,1.208-.3t1.464-.28q.768-.128,1.5-.232t1.312-.152a4.011,4.011,0,0,1,2.784.672,3.42,3.42,0,0,1,1.3,2.384A3.843,3.843,0,0,1-75.184-3a4.092,4.092,0,0,1-.92,1.568A5.448,5.448,0,0,1-77.88-.192,9.089,9.089,0,0,1-80.592.512ZM-59.984.72q-4.288.592-6.5-.488a3.612,3.612,0,0,1-2.208-3.464,4.3,4.3,0,0,1,.7-2.456,6.029,6.029,0,0,1,1.968-1.8q-.112-.592-.32-1.352t-.432-1.52q-.224-.76-.4-1.3a1.153,1.153,0,0,1,.12-.9,1.143,1.143,0,0,1,.712-.568,1.219,1.219,0,0,1,.936.12,1.143,1.143,0,0,1,.568.712q.24.848.488,1.864t.44,1.96q.7-.272,1.5-.5t1.664-.416a1.149,1.149,0,0,1,.9.144,1.134,1.134,0,0,1,.528.736,1.108,1.108,0,0,1-.152.888,1.112,1.112,0,0,1-.744.5,20.423,20.423,0,0,0-3.192.872,7.521,7.521,0,0,0-1.864.968,2.827,2.827,0,0,0-.872,1,2.376,2.376,0,0,0-.232,1,1.568,1.568,0,0,0,.288.912A1.984,1.984,0,0,0-65.1-1.7a5.965,5.965,0,0,0,1.864.288,17.084,17.084,0,0,0,2.952-.24,1.067,1.067,0,0,1,.88.232,1.191,1.191,0,0,1,.448.792,1.081,1.081,0,0,1-.224.88A1.235,1.235,0,0,1-59.984.72ZM-47.728.608a3.363,3.363,0,0,1-2.3-.712A2.516,2.516,0,0,1-50.832-2.1a2.493,2.493,0,0,1,.848-1.984,3.5,3.5,0,0,1,2.368-.736h.3q.144,0,.3.016l-.048-1.488q-.688.032-1.3.048t-.976,0a1.088,1.088,0,0,1-.8-.368,1.136,1.136,0,0,1-.3-.832,1.117,1.117,0,0,1,.384-.792,1.213,1.213,0,0,1,.832-.312q.368.016.92-.008t1.192-.056q0-.272-.008-.528t-.008-.48q-.56.032-1.088.048t-.944.016a1.017,1.017,0,0,1-.8-.368,1.169,1.169,0,0,1-.3-.832,1.117,1.117,0,0,1,.384-.792,1.213,1.213,0,0,1,.832-.312q.624,0,1.48-.04t1.712-.112q.856-.072,1.464-.152a1.233,1.233,0,0,1,.736.128,1.086,1.086,0,0,1,.5.528.692.692,0,0,1,.64.1,6.416,6.416,0,0,1,.632.48,4.611,4.611,0,0,1,.584.576.809.809,0,0,1,.216.568.878.878,0,0,1-.232.568.769.769,0,0,1-.568.248.745.745,0,0,1-.584-.248l-.944-.944A1.052,1.052,0,0,1-44-9.888q-.176.016-.368.04t-.416.056v.472q0,.264.016.536.432-.032.808-.072t.664-.088a1.172,1.172,0,0,1,.856.208,1.1,1.1,0,0,1,.472.752,1.1,1.1,0,0,1-.2.856,1.117,1.117,0,0,1-.744.472q-.336.048-.808.1t-1.016.1q.016.56.024,1.112t.024,1.048a10.531,10.531,0,0,1,1.648.68,8.934,8.934,0,0,1,1.3.808,1.155,1.155,0,0,1,.48.784,1.16,1.16,0,0,1-.208.9,1.243,1.243,0,0,1-.776.5,1.045,1.045,0,0,1-.888-.2q-.352-.272-.736-.528a7.435,7.435,0,0,0-.8-.464Q-44.944.608-47.728.608Zm-5.12.224a1.151,1.151,0,0,1-.9-.184,1.119,1.119,0,0,1-.488-.776q-.1-.608-.152-1.512t-.072-2q-.016-1.1.008-2.248t.088-2.256q.064-1.1.168-2.04a14.771,14.771,0,0,1,.248-1.576,1.247,1.247,0,0,1,.56-.84,1.22,1.22,0,0,1,.96-.136,1.035,1.035,0,0,1,.712.56,1.252,1.252,0,0,1,.1.928,13.258,13.258,0,0,0-.3,1.776q-.12,1.088-.176,2.352t-.048,2.52q.008,1.256.072,2.32a17.239,17.239,0,0,0,.176,1.736,1.175,1.175,0,0,1-.2.888A1.11,1.11,0,0,1-52.848.832Zm11.856-11.616q-.176-.16-.544-.464t-.624-.512a.691.691,0,0,1-.208-.456.758.758,0,0,1,.16-.552.7.7,0,0,1,.432-.264.793.793,0,0,1,.528.072,5.1,5.1,0,0,1,.688.408,4.555,4.555,0,0,1,.64.52.836.836,0,0,1,.272.544.782.782,0,0,1-.192.592.746.746,0,0,1-.536.3A.79.79,0,0,1-40.992-10.784Zm-6.736,9.168a.871.871,0,0,0,.568-.176.681.681,0,0,0,.216-.56v-.256a6.578,6.578,0,0,0-.784-.048q-.752,0-.752.528a.444.444,0,0,0,.176.384A1,1,0,0,0-47.728-1.616Zm13.5,2.224a1.2,1.2,0,0,1-.792-.464,1.146,1.146,0,0,1-.232-.88,1.135,1.135,0,0,1,.456-.792,1.145,1.145,0,0,1,.872-.232,3.65,3.65,0,0,0,.856.024.925.925,0,0,0,.608-.32,2.407,2.407,0,0,0,.432-.888,11.251,11.251,0,0,0,.328-1.68A4.327,4.327,0,0,0-31.664-6.1a.872.872,0,0,0-.512-.664,2.593,2.593,0,0,0-1.136-.12,27.488,27.488,0,0,1-1.48,3.936A15.25,15.25,0,0,1-36.768.288,1.191,1.191,0,0,1-37.56.72a1.117,1.117,0,0,1-.872-.24,1.173,1.173,0,0,1-.448-.8,1.082,1.082,0,0,1,.24-.864,13.959,13.959,0,0,0,1.608-2.464,21.717,21.717,0,0,0,1.288-3.008q-.416.032-.832.08t-.784.08a1.183,1.183,0,0,1-.88-.256,1.117,1.117,0,0,1-.432-.8,1.114,1.114,0,0,1,.248-.88,1.144,1.144,0,0,1,.808-.432q.608-.064,1.248-.112l1.28-.1q.128-.656.224-1.288t.128-1.256a1.164,1.164,0,0,1,.4-.824,1.139,1.139,0,0,1,.864-.3,1.192,1.192,0,0,1,.832.4,1.075,1.075,0,0,1,.288.864q-.144,1.1-.384,2.32A3.434,3.434,0,0,1-29.856-7.9,5.254,5.254,0,0,1-29.392-4.3a9.668,9.668,0,0,1-.848,3.2A3.008,3.008,0,0,1-31.808.408,5.032,5.032,0,0,1-34.224.608Zm9.136-4.768a1.119,1.119,0,0,1-.9.1,1.193,1.193,0,0,1-.712-.56,10.871,10.871,0,0,0-.688-1.048q-.416-.568-.856-1.1t-.808-.912a1.353,1.353,0,0,1-.368-.84,1.045,1.045,0,0,1,.3-.824,1.107,1.107,0,0,1,.832-.376,1.128,1.128,0,0,1,.848.344,14.752,14.752,0,0,1,1.576,1.752,15.767,15.767,0,0,1,1.24,1.848,1.1,1.1,0,0,1,.112.912A1.123,1.123,0,0,1-25.088-4.16ZM-15.424.848A4.718,4.718,0,0,1-18.648-.16a4.1,4.1,0,0,1-1.144-3.232v-8.48a1.143,1.143,0,0,1,.344-.84,1.143,1.143,0,0,1,.84-.344,1.169,1.169,0,0,1,.848.344,1.13,1.13,0,0,1,.352.84v8.48a1.94,1.94,0,0,0,.456,1.464,2.218,2.218,0,0,0,1.528.424,3.331,3.331,0,0,0,1.68-.48,3.549,3.549,0,0,0,1.376-1.632,1.172,1.172,0,0,1,.68-.608,1.118,1.118,0,0,1,.9.064,1.086,1.086,0,0,1,.6.664,1.278,1.278,0,0,1-.04.92A5.665,5.665,0,0,1-11.48-.736,5.54,5.54,0,0,1-13.288.44,5.678,5.678,0,0,1-15.424.848ZM-5.84.736A1.15,1.15,0,0,1-6.392,0a1.125,1.125,0,0,1,.136-.9A17.029,17.029,0,0,0-4.8-4.16a23.668,23.668,0,0,0,.912-3.7q-.432.048-.84.08t-.776.048a1.144,1.144,0,0,1-.856-.28,1.121,1.121,0,0,1-.392-.808,1.114,1.114,0,0,1,.3-.856,1.12,1.12,0,0,1,.824-.376q.5-.032,1.016-.072t1.016-.088q.048-.9.048-1.68a1.229,1.229,0,0,1,.3-.864,1.058,1.058,0,0,1,.808-.384,1.2,1.2,0,0,1,.864.312,1.125,1.125,0,0,1,.384.84q0,.656-.048,1.456.432-.08.816-.144a1.149,1.149,0,0,1,.9.144,1.078,1.078,0,0,1,.512.736,1.1,1.1,0,0,1-.16.9,1.148,1.148,0,0,1-.752.5q-.336.064-.736.128t-.848.144Q-1.744-6.64-2.128-5.1a27.541,27.541,0,0,1-.9,2.944A14.214,14.214,0,0,1-4.208.32a1.194,1.194,0,0,1-.736.544A1.1,1.1,0,0,1-5.84.736ZM5.328.432A7.771,7.771,0,0,1,1.1.448a3.969,3.969,0,0,1-2.44-1.984,1.308,1.308,0,0,1-.08-.92,1.066,1.066,0,0,1,.56-.7,1.142,1.142,0,0,1,.9-.1,1.15,1.15,0,0,1,.712.568,2.043,2.043,0,0,0,1.36.912A6.161,6.161,0,0,0,4.848-1.9a1.091,1.091,0,0,1,.888.16,1.207,1.207,0,0,1,.52.768A1.116,1.116,0,0,1,6.08-.1,1.277,1.277,0,0,1,5.328.432Zm-.8-6.016a6.219,6.219,0,0,0-1.176-.168q-.68-.04-1.384-.016a10.321,10.321,0,0,0-1.3.12A1.244,1.244,0,0,1-.2-5.84a1.091,1.091,0,0,1-.488-.72A1.159,1.159,0,0,1-.5-7.424a1.112,1.112,0,0,1,.728-.5A10.773,10.773,0,0,1,1.856-8.1a15.476,15.476,0,0,1,1.728.032,9.365,9.365,0,0,1,1.5.224,1.106,1.106,0,0,1,.712.52,1.114,1.114,0,0,1,.136.872,1.1,1.1,0,0,1-.528.712A1.192,1.192,0,0,1,4.528-5.584Zm6.736,7.072a.9.9,0,0,1-.624-.232.85.85,0,0,1-.256-.664v-4.16q-.048.352-.144.824t-.2.928q-.1.456-.184.776a.748.748,0,0,1-.36.512.886.886,0,0,1-.648.08A.771.771,0,0,1,8.36-.776a.669.669,0,0,1-.072-.616q.1-.32.208-.784T8.7-3.112q.1-.472.144-.824a.732.732,0,0,1,.32-.528.89.89,0,0,1,.576-.128.717.717,0,0,1,.64.528V-5.152q-.288.016-.56.048t-.512.064a.844.844,0,0,1-.736-.184.928.928,0,0,1-.288-.6.889.889,0,0,1,.176-.64.812.812,0,0,1,.656-.288h.112q.208-.32.52-.832l.664-1.088q-.256-.176-.608-.392T9.144-9.48q-.312-.2-.488-.3a.749.749,0,0,1-.376-.5.9.9,0,0,1,.088-.632.865.865,0,0,1,.52-.392.8.8,0,0,1,.632.088q.128-.24.3-.56t.32-.632q.152-.312.232-.488a.914.914,0,0,1,.5-.472.8.8,0,0,1,.672.024.85.85,0,0,1,.456.5.785.785,0,0,1-.056.664q-.192.336-.5.88t-.528.928l.384.24q.224-.4.416-.736l.32-.56a1.059,1.059,0,0,1,.544-.5.863.863,0,0,1,.7.048.779.779,0,0,1,.416.488.82.82,0,0,1-.1.7q-.272.448-.688,1.1l-.864,1.36q-.448.7-.848,1.312.224-.016.448-.04t.432-.04l-.1-.224a.772.772,0,0,1-.032-.648.79.79,0,0,1,.416-.424.742.742,0,0,1,.928.112.063.063,0,0,0-.008-.04.033.033,0,0,1-.008-.024.907.907,0,0,1,.24-.632.842.842,0,0,1,.656-.264h1.488v-1.072h-.992a.786.786,0,0,1-.616-.24.831.831,0,0,1-.216-.576.853.853,0,0,1,.216-.592.786.786,0,0,1,.616-.24h.992v-.8a.874.874,0,0,1,.272-.68.939.939,0,0,1,.656-.248.968.968,0,0,1,.664.248.862.862,0,0,1,.28.68v.8h.576a.786.786,0,0,1,.616.24.853.853,0,0,1,.216.592.831.831,0,0,1-.216.576.786.786,0,0,1-.616.24h-.576v1.072h1.552q-.048-1.664-.048-3.52a.813.813,0,0,1,.28-.664,1.008,1.008,0,0,1,.664-.232.876.876,0,0,1,.632.256.845.845,0,0,1,.248.672q0,.928.008,1.8T20.9-9.136h1.776a.842.842,0,0,1,.656.264.907.907,0,0,1,.24.632.907.907,0,0,1-.24.632.842.842,0,0,1-.656.264h-1.7q.032.592.072,1.144t.1,1.064q.1-.224.184-.448t.168-.448a.853.853,0,0,1,.488-.552,1.054,1.054,0,0,1,.712.008.8.8,0,0,1,.5.424.925.925,0,0,1,.008.728A14.119,14.119,0,0,1,21.68-2.272a3.289,3.289,0,0,0,.112.384l.128.352q.08.16.16.152t.128-.168q.016-.032.056-.136a.5.5,0,0,1,.056-.12.671.671,0,0,1,.4-.432.871.871,0,0,1,.656,0,.9.9,0,0,1,.464.36.822.822,0,0,1,.08.632,5.677,5.677,0,0,1-.24.776Q23.5,0,23.328.4a1.223,1.223,0,0,1-1.04.84A1.483,1.483,0,0,1,21.072.528a6.263,6.263,0,0,1-.36-.536,5.756,5.756,0,0,1-.312-.6,11.652,11.652,0,0,1-1.76,1.632,1.008,1.008,0,0,1-.728.2.833.833,0,0,1-.632-.36.822.822,0,0,1-.168-.616A.765.765,0,0,1,17.44-.3L17.7-.5q.128-.1.256-.208-.512.176-1.128.392T15.616.1q-.592.192-1.024.32a.969.969,0,0,1-.776-.064,1,1,0,0,1-.472-.592.98.98,0,0,1,.08-.76.955.955,0,0,1,.64-.456q.224-.064.472-.128t.52-.128V-3.168a.729.729,0,0,1-.488-.04.667.667,0,0,1-.344-.376q-.1-.256-.264-.648t-.3-.7A.831.831,0,0,1,13.1-5a.837.837,0,0,1-.392-.456v-.032l-.264.032a2.8,2.8,0,0,0-.28.048v1.1a.778.778,0,0,1,.576-.48.793.793,0,0,1,.6.072.8.8,0,0,1,.36.52q.064.208.152.536t.176.648q.088.32.152.544a.907.907,0,0,1-.032.632.8.8,0,0,1-.5.408.89.89,0,0,1-.632-.008.663.663,0,0,1-.408-.488q-.08-.336-.216-.864t-.232-.928v4.3a.85.85,0,0,1-.256.664A.917.917,0,0,1,11.264,1.488ZM22.912-9.552a.854.854,0,0,1-.664.08.81.81,0,0,1-.52-.464q-.1-.208-.288-.6t-.32-.6a.81.81,0,0,1-.056-.64.808.808,0,0,1,.408-.5.892.892,0,0,1,.656-.1.77.77,0,0,1,.512.4q.08.128.2.36t.248.464q.128.232.192.376a.9.9,0,0,1,.08.712A.88.88,0,0,1,22.912-9.552Zm-6.4,7.424.368-.112v-5.1h-.368ZM19.232-2q.128-.16.264-.32t.248-.32a18.83,18.83,0,0,1-.336-1.92q-.112.208-.2.392a3.2,3.2,0,0,1-.168.312.671.671,0,0,1-.7.416v.784a.855.855,0,0,1,.544.112.772.772,0,0,1,.336.464A.127.127,0,0,1,19.232-2ZM15.056-5.648v-1.7h-.88a.9.9,0,0,1-.48-.128q.144.32.3.672t.264.608a.72.72,0,0,1,.768.5Zm3.28-.176.048-.112a.736.736,0,0,1,.344-.424.738.738,0,0,1,.488-.072q-.016-.224-.032-.456t-.032-.456h-.816ZM27.952,1.44a1.076,1.076,0,0,1-.744-.28A.989.989,0,0,1,26.9.384V-3.472q-.048.3-.168.768t-.24.92q-.12.456-.216.744a.949.949,0,0,1-.48.6.992.992,0,0,1-.768.088A.849.849,0,0,1,24.5-.8a.885.885,0,0,1-.056-.688q.1-.288.224-.728t.248-.9q.12-.456.184-.76a.9.9,0,0,1,.392-.576.824.824,0,0,1,.664-.128.929.929,0,0,1,.5.28.865.865,0,0,1,.232.5V-5.12q-.368.064-.7.112t-.608.08a1.147,1.147,0,0,1-.776-.176.838.838,0,0,1-.376-.688,1.034,1.034,0,0,1,.224-.768.868.868,0,0,1,.656-.32H25.5q.144-.176.424-.56t.632-.848q-.256-.192-.584-.424l-.608-.432q-.28-.2-.408-.28a.941.941,0,0,1-.416-.616.968.968,0,0,1,.128-.728.948.948,0,0,1,.552-.416,1.062,1.062,0,0,1,.68.032l.336-.6q.192-.344.376-.664t.264-.48a.922.922,0,0,1,.544-.5,1.019,1.019,0,0,1,.768.048.84.84,0,0,1,.488.52.79.79,0,0,1-.088.7l-.352.576q-.224.368-.464.744t-.416.648l.384.272q.416-.56.728-.992t.408-.576a.956.956,0,0,1,.616-.44.95.95,0,0,1,.744.136.883.883,0,0,1,.448.568.773.773,0,0,1-.128.712l-.368.488q-.272.36-.656.856T28.728-8.1q-.424.536-.808,1.016.3-.032.592-.056t.56-.056l-.064-.112a.884.884,0,0,1-.016-.68.889.889,0,0,1,.448-.5.876.876,0,0,1,.712-.048.94.94,0,0,1,.536.464q.064.112.152.3t.2.416V-9.824a2.966,2.966,0,0,1,.736-2.208,3.293,3.293,0,0,1,2.368-.72h1.728a3.293,3.293,0,0,1,2.368.72,2.966,2.966,0,0,1,.736,2.208v7.632A2.966,2.966,0,0,1,38.24.016a3.293,3.293,0,0,1-2.368.72H34.144a3.47,3.47,0,0,1-2.224-.6A2.54,2.54,0,0,1,31.072-1.7a.969.969,0,0,1-.48.384.859.859,0,0,1-.7-.048A.817.817,0,0,1,29.44-1.9q-.048-.208-.136-.544t-.176-.68q-.088-.344-.136-.552V.384a1,1,0,0,1-.3.776A1.047,1.047,0,0,1,27.952,1.44Zm8.016-2.752q.576-.016.736-.224a1.52,1.52,0,0,0,.16-.848V-5.248h-.9Zm-1.936,0V-5.248h-.88v2.864a1.479,1.479,0,0,0,.16.832A.977.977,0,0,0,34.032-1.312Zm1.936-5.952h.9V-9.632a1.524,1.524,0,0,0-.16-.84q-.16-.216-.736-.232Zm-2.816,0h.88V-10.7a.916.916,0,0,0-.72.232,1.524,1.524,0,0,0-.16.84ZM31.04-3.12V-4.992a1.076,1.076,0,0,1-.72.008.792.792,0,0,1-.512-.472l-.032-.112q-.176.032-.376.064l-.408.064v1.376a.866.866,0,0,1,.232-.448.9.9,0,0,1,.44-.256.828.828,0,0,1,.664.088.927.927,0,0,1,.424.536q.032.16.12.456T31.04-3.12ZM47.584,1.216A3.286,3.286,0,0,1,45.4.512a2.445,2.445,0,0,1-.84-1.984,2.368,2.368,0,0,1,.848-1.912A3.343,3.343,0,0,1,47.632-4.1a5.2,5.2,0,0,1,.7.048v-2.7a1.157,1.157,0,0,1,.336-.84,1.117,1.117,0,0,1,.832-.344,1.091,1.091,0,0,1,.824.344,1.172,1.172,0,0,1,.328.84v3.216a12.719,12.719,0,0,1,1.6.664,9.8,9.8,0,0,1,1.312.776,1.106,1.106,0,0,1,.488.776,1.173,1.173,0,0,1-.216.888,1.18,1.18,0,0,1-.776.488,1.09,1.09,0,0,1-.888-.216q-.336-.256-.728-.5a8.163,8.163,0,0,0-.824-.456A2.557,2.557,0,0,1,49.68.6,3.3,3.3,0,0,1,47.584,1.216ZM41.808-3.2a1.209,1.209,0,0,1-.352-.864,1.081,1.081,0,0,1,.368-.832,10.05,10.05,0,0,0,1.464-1.648,11.071,11.071,0,0,0,1.1-1.92l-.656.064q-.32.032-.592.048a1.144,1.144,0,0,1-.856-.28,1.153,1.153,0,0,1-.392-.84,1.126,1.126,0,0,1,.28-.824,1.287,1.287,0,0,1,.84-.392q.48-.048,1.008-.112t1.072-.144a8.3,8.3,0,0,0,.1-1.264,1.233,1.233,0,0,1,.344-.84,1.091,1.091,0,0,1,.824-.344,1.2,1.2,0,0,1,.856.344,1.067,1.067,0,0,1,.344.84q-.016.208-.024.424a3.682,3.682,0,0,1-.04.424l.08-.016a1.13,1.13,0,0,1,.9.152,1.1,1.1,0,0,1,.512.744,1.069,1.069,0,0,1-.16.88,1.21,1.21,0,0,1-.752.512l-.5.1-.592.12a14.26,14.26,0,0,1-1.408,3.136A10.625,10.625,0,0,1,43.488-3.2a1.253,1.253,0,0,1-.848.344A1.11,1.11,0,0,1,41.808-3.2ZM52.464-7.376A12.894,12.894,0,0,0,51.328-8a9.909,9.909,0,0,0-1.1-.464,1.514,1.514,0,0,1-.712-.56,1.043,1.043,0,0,1-.152-.864,1.217,1.217,0,0,1,.552-.744,1.031,1.031,0,0,1,.888-.12,9.692,9.692,0,0,1,1.048.376q.552.232,1.072.488a8.565,8.565,0,0,1,.888.5,1.04,1.04,0,0,1,.5.76,1.263,1.263,0,0,1-.192.92,1.148,1.148,0,0,1-.752.5A1.2,1.2,0,0,1,52.464-7.376ZM47.552-.928a.7.7,0,0,0,.784-.8v-.208q-.208-.032-.4-.048T47.552-2q-.736,0-.736.528Q46.816-.928,47.552-.928ZM60.528.576a1.389,1.389,0,0,1-.936.12,1.139,1.139,0,0,1-.76-.552A1.221,1.221,0,0,1,58.7-.8a1.172,1.172,0,0,1,.576-.752,7.008,7.008,0,0,0,3.744-4.592H58.688A1.156,1.156,0,0,1,57.84-6.5a1.156,1.156,0,0,1-.352-.848,1.156,1.156,0,0,1,.352-.848,1.156,1.156,0,0,1,.848-.352H69.264a1.156,1.156,0,0,1,.848.352,1.156,1.156,0,0,1,.352.848,1.156,1.156,0,0,1-.352.848,1.156,1.156,0,0,1-.848.352H65.44A8.39,8.39,0,0,1,64.592-3.5,9.521,9.521,0,0,1,62.9-1.152,8.8,8.8,0,0,1,60.528.576Zm.016-10.32a1.13,1.13,0,0,1-.84-.352,1.169,1.169,0,0,1-.344-.848,1.169,1.169,0,0,1,.344-.848,1.13,1.13,0,0,1,.84-.352h6.608a1.148,1.148,0,0,1,.856.352,1.169,1.169,0,0,1,.344.848,1.169,1.169,0,0,1-.344.848,1.148,1.148,0,0,1-.856.352Zm10.768-.544q-.16-.176-.52-.5t-.6-.544a.762.762,0,0,1-.184-.464.745.745,0,0,1,.184-.544.707.707,0,0,1,.456-.248.77.77,0,0,1,.52.1,5.176,5.176,0,0,1,.656.448,5.391,5.391,0,0,1,.608.544.861.861,0,0,1,.24.56.842.842,0,0,1-.208.592.77.77,0,0,1-.552.264A.766.766,0,0,1,71.312-10.288ZM70.9-8.736a.785.785,0,0,1-.576.2.755.755,0,0,1-.576-.264q-.16-.176-.472-.536l-.536-.616a.622.622,0,0,1-.144-.472.776.776,0,0,1,.24-.52.784.784,0,0,1,.48-.2.706.706,0,0,1,.512.152,5.542,5.542,0,0,1,.608.512,5.21,5.21,0,0,1,.544.592.821.821,0,0,1,.192.576A.86.86,0,0,1,70.9-8.736Zm7.68,9.6a1.233,1.233,0,0,1-.944.04,1.193,1.193,0,0,1-.7-.632A1.228,1.228,0,0,1,76.9-.68a1.163,1.163,0,0,1,.64-.7,5.814,5.814,0,0,0,2.528-2.1A6.671,6.671,0,0,0,81.008-6.9H78.992q.016.56.008,1.08t-.04.952a1.149,1.149,0,0,1-.392.84,1.158,1.158,0,0,1-.888.312,1.12,1.12,0,0,1-.832-.424,1.3,1.3,0,0,1-.3-.888q.032-.384.04-.864T76.576-6.9h-3.04a1.156,1.156,0,0,1-.848-.352,1.156,1.156,0,0,1-.352-.848,1.156,1.156,0,0,1,.352-.848,1.156,1.156,0,0,1,.848-.352H76.5q-.032-.48-.072-.912t-.088-.752a1.29,1.29,0,0,1,.216-.92,1.119,1.119,0,0,1,.776-.488,1.212,1.212,0,0,1,.92.208,1.1,1.1,0,0,1,.472.8q.064.432.112.96t.08,1.1h2.08q-.016-.608-.056-1.184t-.072-1.008a1.257,1.257,0,0,1,.288-.9,1.161,1.161,0,0,1,.816-.44,1.24,1.24,0,0,1,.9.3,1.146,1.146,0,0,1,.424.84q.048.464.072,1.1t.04,1.3h2.784a1.156,1.156,0,0,1,.848.352,1.156,1.156,0,0,1,.352.848,1.156,1.156,0,0,1-.352.848,1.156,1.156,0,0,1-.848.352H83.408Q83.216-1.28,78.576.864Zm7.952-12.3q-.176-.16-.544-.472t-.64-.52a.7.7,0,0,1-.2-.44.729.729,0,0,1,.152-.552.746.746,0,0,1,.448-.28.793.793,0,0,1,.528.072q.288.16.672.424a5.479,5.479,0,0,1,.64.5.836.836,0,0,1,.272.544.832.832,0,0,1-.192.608.74.74,0,0,1-.528.3A.778.778,0,0,1,86.528-11.44ZM85.04-9.872q-.16-.176-.5-.52t-.568-.584a.663.663,0,0,1-.16-.464.789.789,0,0,1,.208-.528.739.739,0,0,1,.456-.232.724.724,0,0,1,.52.12,6.416,6.416,0,0,1,.632.48,4.611,4.611,0,0,1,.584.576.842.842,0,0,1,.224.568.869.869,0,0,1-.24.584.827.827,0,0,1-.568.24A.721.721,0,0,1,85.04-9.872ZM96.8.944a1.2,1.2,0,0,1-.864-.36,1.175,1.175,0,0,1-.368-.872v-5.9q-.928.816-1.92,1.56t-1.984,1.4a1.139,1.139,0,0,1-.928.144,1.243,1.243,0,0,1-.768-.56,1.231,1.231,0,0,1-.136-.936,1.21,1.21,0,0,1,.552-.76q.688-.432,1.528-1.072T93.632-7.8q.88-.744,1.72-1.536t1.52-1.528a12.1,12.1,0,0,0,1.1-1.344,1.26,1.26,0,0,1,.808-.512,1.17,1.17,0,0,1,.92.192,1.231,1.231,0,0,1,.52.792,1.114,1.114,0,0,1-.2.92q-.432.56-.92,1.136T98.048-8.528v8.24a1.175,1.175,0,0,1-.368.872A1.214,1.214,0,0,1,96.8.944Zm11.456-1.36a1.207,1.207,0,0,1-.952-.04,1.19,1.19,0,0,1-.648-.7,1.227,1.227,0,0,1,.04-.96,1.131,1.131,0,0,1,.7-.64,20.044,20.044,0,0,0,2.536-1.088,28.231,28.231,0,0,0,2.48-1.424,20.961,20.961,0,0,0,2.16-1.584,12.723,12.723,0,0,0,1.592-1.568,1.13,1.13,0,0,1,.824-.44,1.242,1.242,0,0,1,.9.28,1.07,1.07,0,0,1,.456.816,1.254,1.254,0,0,1-.28.912A13.374,13.374,0,0,1,116.3-5.12a27.6,27.6,0,0,1-2.44,1.8,32.245,32.245,0,0,1-2.792,1.648A23.077,23.077,0,0,1,108.256-.416Zm1.136-6.512q-.64-.528-1.36-1.064A14.029,14.029,0,0,0,106.7-8.88a1.167,1.167,0,0,1-.56-.76,1.211,1.211,0,0,1,.144-.92,1.174,1.174,0,0,1,.76-.576,1.112,1.112,0,0,1,.92.144q.48.3,1.032.68t1.056.76q.5.384.856.688a1.3,1.3,0,0,1,.464.816,1.143,1.143,0,0,1-.24.912,1.2,1.2,0,0,1-.824.472A1.13,1.13,0,0,1,109.392-6.928ZM132.032.736A7.578,7.578,0,0,1,128.8-.4a5.614,5.614,0,0,1-1.9-2.072,5.485,5.485,0,0,1-.624-2.552,5.871,5.871,0,0,1,.392-2.176,5.747,5.747,0,0,1,1.128-1.792q-1.04.176-2.032.352t-1.824.32l-1.392.24a1.093,1.093,0,0,1-.872-.216,1.184,1.184,0,0,1-.472-.776,1.235,1.235,0,0,1,.216-.9,1.074,1.074,0,0,1,.776-.464q.688-.1,1.752-.264t2.288-.368l2.44-.4q1.216-.2,2.24-.384t1.648-.312a1.071,1.071,0,0,1,.864.184,1.17,1.17,0,0,1,.5.744,1.192,1.192,0,0,1-.152.88,1,1,0,0,1-.728.5,5.176,5.176,0,0,0-1.888.608,4.962,4.962,0,0,0-1.376,1.136,4.967,4.967,0,0,0-.848,1.44,4.307,4.307,0,0,0-.288,1.52,3.106,3.106,0,0,0,.976,2.352,4.9,4.9,0,0,0,2.752,1.184,1.126,1.126,0,0,1,.792.464,1.116,1.116,0,0,1,.216.88,1.108,1.108,0,0,1-.456.784A1.189,1.189,0,0,1,132.032.736Zm3.52-7.9a.769.769,0,0,1-.584.208.753.753,0,0,1-.568-.288q-.16-.176-.464-.544t-.528-.624a.677.677,0,0,1-.128-.48.7.7,0,0,1,.256-.512.748.748,0,0,1,.48-.192.736.736,0,0,1,.512.16q.256.208.584.528a4.759,4.759,0,0,1,.536.608.79.79,0,0,1,.184.576A.836.836,0,0,1,135.552-7.168Zm-1.76,1.408a.768.768,0,0,1-.592.144.735.735,0,0,1-.528-.336q-.128-.208-.408-.6t-.472-.664a.662.662,0,0,1-.08-.488.743.743,0,0,1,.3-.488.721.721,0,0,1,.5-.144.773.773,0,0,1,.5.208,6.156,6.156,0,0,1,.536.584,5.061,5.061,0,0,1,.472.664.82.82,0,0,1,.12.592A.862.862,0,0,1,133.792-5.76ZM-86.352,21.168a19.347,19.347,0,0,1-3.7-.3,5.3,5.3,0,0,1-2.328-.984q-.192.128-.472.32t-.536.36q-.256.168-.384.264a1.122,1.122,0,0,1-.872.16.973.973,0,0,1-.712-.528,1.122,1.122,0,0,1-.1-.856.987.987,0,0,1,.536-.648q.208-.112.56-.272t.656-.3V15.36a.8.8,0,0,0-.1-.48.588.588,0,0,0-.456-.128h-.288a.95.95,0,0,1-.736-.3,1.015,1.015,0,0,1-.272-.712.987.987,0,0,1,.272-.7.964.964,0,0,1,.736-.288h1.232A1.527,1.527,0,0,1-91.6,14.48v3.6a1.958,1.958,0,0,0,.424.344,3.33,3.33,0,0,0,.6.28l-.064-.064a.525.525,0,0,1-.064-.08.89.89,0,0,1-.128-.7.826.826,0,0,1,.416-.568,3.654,3.654,0,0,0,1.184-1.08,3.383,3.383,0,0,0,.576-1.528h-.512a.862.862,0,0,1-.648-.256.906.906,0,0,1-.264-.608,1.089,1.089,0,0,1-.752.048,1.021,1.021,0,0,1-.56-.432.948.948,0,0,1-.1-.744.928.928,0,0,1,.52-.584q.416-.224.944-.576t1.008-.7h-1.664a.766.766,0,0,1-.6-.24.831.831,0,0,1-.216-.576V9.984a1.127,1.127,0,0,1-.072.1.615.615,0,0,1-.1.1,1.1,1.1,0,0,1-.76.312.94.94,0,0,1-.744-.328q-.176-.208-.448-.488t-.552-.552a6.545,6.545,0,0,0-.5-.448.855.855,0,0,1-.288-.7,1.093,1.093,0,0,1,.3-.736,1.154,1.154,0,0,1,.728-.344,1.006,1.006,0,0,1,.776.264q.368.32.84.752t.728.7a1.055,1.055,0,0,1,.3.848.767.767,0,0,1,.608-.256h3.376V8.752q-1.216.1-2.288.1a.933.933,0,0,1-.776-.256.934.934,0,0,1-.232-.624.769.769,0,0,1,.24-.624.988.988,0,0,1,.7-.24q1.072,0,2.232-.064t2.224-.192a17.9,17.9,0,0,0,1.832-.3,1.115,1.115,0,0,1,.816.04.808.808,0,0,1,.4.5.97.97,0,0,1-.04.7.807.807,0,0,1-.632.432q-.5.1-1.112.184t-1.288.168V9.2h3.68a.766.766,0,0,1,.6.24.831.831,0,0,1,.216.576.831.831,0,0,1-.216.576.766.766,0,0,1-.6.24h-1.824q.464.3,1,.616t.952.52a.842.842,0,0,1,.472.568.977.977,0,0,1-.088.744,1,1,0,0,1-.672.544,1.064,1.064,0,0,1-.832-.16q-.368-.24-.864-.592t-.984-.752q-.488-.4-.84-.72v1.248h.5a1.114,1.114,0,0,1,.88.3.686.686,0,0,1,.144.68q-.064.272.04.376a.682.682,0,0,0,.456.1,1.792,1.792,0,0,1,1.3.384,1.678,1.678,0,0,1,.24,1.424,4.814,4.814,0,0,1-.5,1.712,1.952,1.952,0,0,1-.976.88,4.156,4.156,0,0,1-1.568.256,1.244,1.244,0,0,1-.768-.24,1,1,0,0,1-.384-.688.916.916,0,0,1,.2-.744.991.991,0,0,1,.744-.36,1.525,1.525,0,0,0,.72-.152.655.655,0,0,0,.224-.28q.064-.224-.016-.3a.573.573,0,0,0-.352-.072h-.7q-1.2,0-.96-.912a.52.52,0,0,0,0-.408q-.08-.12-.4-.12h-.208a6,6,0,0,1-.84,2.512,5.3,5.3,0,0,1-1.672,1.648,1.133,1.133,0,0,1-.3.144q.592.08,1.352.128t1.736.048q1.248,0,2.488-.04t2.088-.1a1.3,1.3,0,0,1,.936.24.935.935,0,0,1,.376.784,1.109,1.109,0,0,1-.3.808,1.291,1.291,0,0,1-.96.312Zm-2.272-8.32h1.312V11.68A12.765,12.765,0,0,1-88.624,12.848Zm20.688,8.432a1.3,1.3,0,0,1-.9-.312,1.259,1.259,0,0,1-.384-.92,1.186,1.186,0,0,1,.264-.792,1.179,1.179,0,0,1,.84-.424,1.1,1.1,0,0,0,.576-.192.772.772,0,0,0,.128-.528V15.568h-2.528a7.344,7.344,0,0,1-1.352,3.264,7.584,7.584,0,0,1-2.744,2.176,1.623,1.623,0,0,1-1.056.168,1.026,1.026,0,0,1-.736-.6,1,1,0,0,1-.056-.92,1.274,1.274,0,0,1,.7-.632,5.828,5.828,0,0,0,1.816-1.24,4.438,4.438,0,0,0,1.024-1.792,8.79,8.79,0,0,0,.328-2.568V9.792a4.1,4.1,0,0,1,.272-1.656,1.587,1.587,0,0,1,.936-.848,5.287,5.287,0,0,1,1.8-.248h.88a5.2,5.2,0,0,1,1.8.248,1.588,1.588,0,0,1,.92.848,4.1,4.1,0,0,1,.272,1.656V18.8a2.414,2.414,0,0,1-.664,1.88A3.135,3.135,0,0,1-67.936,21.28Zm-8.128-4.3a5.505,5.505,0,0,1-1.824-.248,1.673,1.673,0,0,1-.984-.856,3.812,3.812,0,0,1-.3-1.648V10.1a3.8,3.8,0,0,1,.3-1.656,1.679,1.679,0,0,1,.984-.848,5.505,5.505,0,0,1,1.824-.248,5.492,5.492,0,0,1,1.832.248,1.679,1.679,0,0,1,.976.848,3.8,3.8,0,0,1,.3,1.656v4.128a3.812,3.812,0,0,1-.3,1.648,1.674,1.674,0,0,1-.976.856A5.492,5.492,0,0,1-76.064,16.976Zm6.3-3.328h2.352v-1.3H-69.76Zm-6.272,1.216a1.019,1.019,0,0,0,.7-.16,1,1,0,0,0,.152-.656v-.96h-1.7v.96a1,1,0,0,0,.152.656A1.019,1.019,0,0,0-76.032,14.864Zm-.848-3.728h1.7v-.944a1,1,0,0,0-.152-.656,1.019,1.019,0,0,0-.7-.16,1.019,1.019,0,0,0-.7.16,1,1,0,0,0-.152.656Zm7.12-.7h2.352V9.984a.927.927,0,0,0-.168-.648,1.151,1.151,0,0,0-.76-.168h-.48a1.189,1.189,0,0,0-.768.168.9.9,0,0,0-.176.648Zm6.368,6.16a.928.928,0,0,1-.392-.616.921.921,0,0,1,.168-.728,6.514,6.514,0,0,0,.88-1.848,9.23,9.23,0,0,0,.336-2.568,4.333,4.333,0,0,1,.3-1.624,1.652,1.652,0,0,1,.9-.864,4.512,4.512,0,0,1,1.7-.264h4.112q0-.176-.008-.344t-.008-.344a1.09,1.09,0,0,1,.248-.792.992.992,0,0,1,.744-.312q1.088-.032,1.12,1.008v.4q0,.192.016.384h1.056l-.3-.3a.751.751,0,0,1-.216-.624,1,1,0,0,1,.3-.608,1.053,1.053,0,0,1,.624-.28.839.839,0,0,1,.672.232q.08.064.256.224t.344.328l.232.232a.816.816,0,0,1,.256.8h.352a.874.874,0,0,1,.68.272.939.939,0,0,1,.248.656.919.919,0,0,1-.248.64.874.874,0,0,1-.68.272H-53.1q.1.592.224,1.128a8.171,8.171,0,0,0,.3,1q.176-.32.344-.64a6.851,6.851,0,0,0,.3-.64.909.909,0,0,1,.592-.576,1,1,0,0,1,.816.1.958.958,0,0,1,.544.568.97.97,0,0,1-.08.744,15.274,15.274,0,0,1-1.36,2.336,1.372,1.372,0,0,0,.176.176l.192.16q.4.336.576-.192.016-.048.04-.128t.04-.144a.865.865,0,0,1,.5-.528,1.081,1.081,0,0,1,.776-.032,1.021,1.021,0,0,1,.56.432.9.9,0,0,1,.064.784q-.064.224-.192.552t-.24.6a1.865,1.865,0,0,1-1.232,1.176,2.316,2.316,0,0,1-1.824-.552q-.176-.128-.368-.288t-.368-.336q-.192.224-.392.432t-.408.4a1.236,1.236,0,0,1-.76.344.945.945,0,0,1-.792-.328.908.908,0,0,1-.264-.7.916.916,0,0,1,.312-.656q.272-.24.552-.528t.552-.608a10.431,10.431,0,0,1-.76-1.784,13.07,13.07,0,0,1-.5-2.264h-3.952a1.424,1.424,0,0,0-.96.224,1.221,1.221,0,0,0-.256.8,16.011,16.011,0,0,1-.392,2.912,6.732,6.732,0,0,1-1.1,2.48,1.1,1.1,0,0,1-.7.44A1.085,1.085,0,0,1-63.392,16.592Zm7.664,4.784a8.124,8.124,0,0,1-2.144-.224,1.75,1.75,0,0,1-1.1-.784,3.106,3.106,0,0,1-.32-1.536V17.6a1.008,1.008,0,0,1,.3-.768,1.031,1.031,0,0,1,.736-.288,1.031,1.031,0,0,1,.736.288,1.008,1.008,0,0,1,.3.768v.992a1.111,1.111,0,0,0,.12.568.652.652,0,0,0,.448.272,4.851,4.851,0,0,0,.968.072,5.772,5.772,0,0,0,.928-.056,1.007,1.007,0,0,0,.488-.2,1.26,1.26,0,0,0,.3-.4,1.064,1.064,0,0,1,.584-.536,1,1,0,0,1,.792.024,1.079,1.079,0,0,1,.584.528.937.937,0,0,1,.008.768,2.769,2.769,0,0,1-.632,1.024,2.305,2.305,0,0,1-1.12.552A9.177,9.177,0,0,1-55.728,21.376Zm-2-5.28a5.6,5.6,0,0,1-1.432-.144,1.1,1.1,0,0,1-.728-.544,2.509,2.509,0,0,1-.208-1.136,2.5,2.5,0,0,1,.208-1.144,1.107,1.107,0,0,1,.728-.536,5.6,5.6,0,0,1,1.432-.144,5.505,5.505,0,0,1,1.424.144,1.1,1.1,0,0,1,.72.536,2.5,2.5,0,0,1,.208,1.144,2.509,2.509,0,0,1-.208,1.136,1.1,1.1,0,0,1-.72.544A5.5,5.5,0,0,1-57.728,16.1Zm-5.136,4.432a1.076,1.076,0,0,1-.36-.672.836.836,0,0,1,.216-.7q.16-.192.408-.5t.488-.64q.24-.328.368-.52a1.07,1.07,0,0,1,.664-.464,1.035,1.035,0,0,1,.776.16.99.99,0,0,1,.464.608.89.89,0,0,1-.16.784q-.256.4-.632.936a7.6,7.6,0,0,1-.68.856,1.148,1.148,0,0,1-.744.408A1.023,1.023,0,0,1-62.864,20.528Zm3.392-8.5a.754.754,0,0,1-.592-.232.8.8,0,0,1-.208-.552.82.82,0,0,1,.208-.568.754.754,0,0,1,.592-.232h3.616a.729.729,0,0,1,.584.232.84.84,0,0,1,.2.568.818.818,0,0,1-.2.552.729.729,0,0,1-.584.232ZM-49.024,20.5a1.047,1.047,0,0,1-.776.208.917.917,0,0,1-.68-.384q-.144-.208-.4-.544t-.528-.68a6.476,6.476,0,0,0-.48-.552.732.732,0,0,1-.192-.656,1,1,0,0,1,.352-.624.986.986,0,0,1,.72-.248,1,1,0,0,1,.688.328,6.17,6.17,0,0,1,.512.552q.288.344.56.68t.416.528a.948.948,0,0,1,.216.712A.979.979,0,0,1-49.024,20.5ZM-54.592,18.7a1.049,1.049,0,0,1-.72.248.858.858,0,0,1-.688-.36l-.36-.44a3.354,3.354,0,0,0-.344-.376.693.693,0,0,1-.192-.64.935.935,0,0,1,.352-.608,1.01,1.01,0,0,1,.664-.232.982.982,0,0,1,.664.3q.368.336.72.72a.94.94,0,0,1,.3.72A.916.916,0,0,1-54.592,18.7Zm-3.136-4.016a1.245,1.245,0,0,0,.536-.072q.12-.072.12-.344t-.12-.344a1.245,1.245,0,0,0-.536-.072,1.245,1.245,0,0,0-.536.072q-.12.072-.12.344t.12.344A1.245,1.245,0,0,0-57.728,14.688Zm19.6,5.44a1.216,1.216,0,0,1-.912-.136,1.151,1.151,0,0,1-.56-.728,1.172,1.172,0,0,1,.144-.9,1.122,1.122,0,0,1,.72-.536A4.182,4.182,0,0,0-36.264,16.4a4.134,4.134,0,0,0,.728-2.512,3.248,3.248,0,0,0-.856-2.288,3.861,3.861,0,0,0-2.424-1.136,20.859,20.859,0,0,1-1.032,4.688,8.969,8.969,0,0,1-1.664,2.992,2.724,2.724,0,0,1-1.992,1.04,2.892,2.892,0,0,1-1.664-.512,3.528,3.528,0,0,1-1.2-1.48,5.6,5.6,0,0,1-.448-2.36A6.357,6.357,0,0,1-46.3,12.3a6.514,6.514,0,0,1,1.456-2.112A6.776,6.776,0,0,1-42.6,8.744a7.732,7.732,0,0,1,2.888-.52,8.033,8.033,0,0,1,2.616.408,6.191,6.191,0,0,1,2.064,1.16,5.241,5.241,0,0,1,1.352,1.792,5.432,5.432,0,0,1,.48,2.3,6.481,6.481,0,0,1-1.216,4.024A6.332,6.332,0,0,1-38.128,20.128Zm-5.36-3.376q.272,0,.736-.76a10.837,10.837,0,0,0,.928-2.152,17.382,17.382,0,0,0,.7-3.28,4.406,4.406,0,0,0-1.856.92A4.168,4.168,0,0,0-44.1,13a4.711,4.711,0,0,0-.392,1.8,2.9,2.9,0,0,0,.264,1.488A.842.842,0,0,0-43.488,16.752Zm22.112,4.32a1.42,1.42,0,0,1-.936-.1,1.009,1.009,0,0,1-.584-.688,1.07,1.07,0,0,1,.128-.88,1.191,1.191,0,0,1,.72-.544A3.8,3.8,0,0,0-20.24,17.84a2.524,2.524,0,0,0,.576-1.728,2.181,2.181,0,0,0-.424-1.328,2.621,2.621,0,0,0-1.272-.88,10.232,10.232,0,0,1-.744,2.16,10.262,10.262,0,0,1-1.144,1.872l.064.1a.4.4,0,0,1,.048.1,1.156,1.156,0,0,1,.184.888,1.108,1.108,0,0,1-.5.76,1.146,1.146,0,0,1-.768.176,1.154,1.154,0,0,1-.7-.336,6.528,6.528,0,0,1-1.52.848,4.35,4.35,0,0,1-1.584.3,2.927,2.927,0,0,1-2-.672,2.8,2.8,0,0,1-.768-2.208,5,5,0,0,1,.512-2.24,6.265,6.265,0,0,1,1.4-1.856,8.44,8.44,0,0,1,1.992-1.36q0-.72.048-1.488-1.328.08-2.448.048a1.009,1.009,0,0,1-.784-.36,1.142,1.142,0,0,1-.3-.824A1.117,1.117,0,0,1-30,9.016a1.13,1.13,0,0,1,.816-.3q.608.016,1.256,0l1.32-.032q.048-.288.1-.568t.12-.568a1.148,1.148,0,0,1,.5-.752,1.069,1.069,0,0,1,.88-.16,1.085,1.085,0,0,1,.752.512,1.149,1.149,0,0,1,.144.9q-.016.112-.04.224t-.056.24q.608-.064,1.176-.136l1.064-.136a1.135,1.135,0,0,1,.856.184,1.062,1.062,0,0,1,.472.728,1.14,1.14,0,0,1-.192.864,1.027,1.027,0,0,1-.736.464q-1.36.192-2.992.32-.016.224-.032.44t-.032.44a8.064,8.064,0,0,1,1.52-.144,7.566,7.566,0,0,1,3.16.584,4.317,4.317,0,0,1,1.92,1.616,4.373,4.373,0,0,1,.648,2.376,5.227,5.227,0,0,1-.96,3.2A4.948,4.948,0,0,1-21.376,21.072Zm-6.432-2.512a2.017,2.017,0,0,0,.9-.24,4.661,4.661,0,0,0,.96-.656,11.5,11.5,0,0,1-.44-1.392q-.184-.736-.312-1.52a4.678,4.678,0,0,0-1.344,1.408,3.169,3.169,0,0,0-.5,1.664.844.844,0,0,0,.176.592A.841.841,0,0,0-27.808,18.56Zm3.52-3.04a7.79,7.79,0,0,0,.752-1.856q-.272.016-.536.056t-.52.1q.048.448.12.864T-24.288,15.52Zm16.1,5.472a4.446,4.446,0,0,1-1.736-.408,2.693,2.693,0,0,1-1.144-1,2.474,2.474,0,0,1-.352-1.488,2.426,2.426,0,0,1,.432-1.264,2.492,2.492,0,0,1,1.048-.84,2.974,2.974,0,0,1,1.512-.216,2.607,2.607,0,0,1,1.92.816,2.153,2.153,0,0,1,.448,1.744,1.752,1.752,0,0,0,.648-.776,2.747,2.747,0,0,0,.2-1.08,1.773,1.773,0,0,0-.312-.976,2.4,2.4,0,0,0-.88-.792,2.812,2.812,0,0,0-1.344-.32,3.868,3.868,0,0,0-1.7.44,7.38,7.38,0,0,0-1.968,1.5,1.267,1.267,0,0,1-.936.392,1.125,1.125,0,0,1-.92-.408,1.205,1.205,0,0,1-.28-.856.985.985,0,0,1,.408-.776q.96-.72,1.952-1.552t1.888-1.64q.9-.808,1.568-1.464.256-.24.176-.448t-.5-.144q-.56.08-1.152.16l-1.2.16a1.145,1.145,0,0,1-.872-.232,1.194,1.194,0,0,1-.472-.792,1.145,1.145,0,0,1,.232-.872,1.135,1.135,0,0,1,.792-.456q.4-.064.968-.112l1.144-.1q.576-.048.976-.064a3.051,3.051,0,0,1,1.76.312A2.059,2.059,0,0,1-4.944,8.5,2.217,2.217,0,0,1-4.888,9.9a2.95,2.95,0,0,1-.92,1.408q-.208.208-.568.528t-.808.7a4.739,4.739,0,0,1,2.152.424,3.821,3.821,0,0,1,1.592,1.36,3.91,3.91,0,0,1,.608,2.232A4.423,4.423,0,0,1-3.52,19.1a4.018,4.018,0,0,1-1.9,1.5A6.555,6.555,0,0,1-8.192,20.992ZM-8.608,18.8a5.359,5.359,0,0,0,.592,0,.868.868,0,0,0,.08-.7.6.6,0,0,0-.528-.376.765.765,0,0,0-.544.064.481.481,0,0,0-.256.368.447.447,0,0,0,.152.432A1.188,1.188,0,0,0-8.608,18.8ZM13.36,21.088A12.888,12.888,0,0,1,11.192,19.7a12.011,12.011,0,0,1-1.856-1.824A9.637,9.637,0,0,1,8,15.728a10.568,10.568,0,0,1-2.112,2.984,11.939,11.939,0,0,1-3.28,2.344,1.707,1.707,0,0,1-1.04.176,1.131,1.131,0,0,1-.832-.624A1.08,1.08,0,0,1,.664,19.6a1.409,1.409,0,0,1,.76-.736,9.226,9.226,0,0,0,2.488-1.528,8.609,8.609,0,0,0,1.776-2.1,7.428,7.428,0,0,0,.936-2.448H1.776a1.092,1.092,0,0,1-.8-.336,1.12,1.12,0,0,1,0-1.6,1.092,1.092,0,0,1,.8-.336H6.752V7.76a1.18,1.18,0,0,1,.368-.9,1.3,1.3,0,0,1,1.76,0,1.18,1.18,0,0,1,.368.9v2.752h4.976a1.136,1.136,0,0,1,0,2.272H9.392a7.7,7.7,0,0,0,.992,2.432,8.962,8.962,0,0,0,1.824,2.112,10.4,10.4,0,0,0,2.48,1.568,1.118,1.118,0,0,1,.68.728,1.223,1.223,0,0,1-.12.952,1.146,1.146,0,0,1-.824.656A1.6,1.6,0,0,1,13.36,21.088Zm12.048.464a10.028,10.028,0,0,1-2.984-.216,4.82,4.82,0,0,1-1.944-.92,2.98,2.98,0,0,1-.968-1.432,3.778,3.778,0,0,1-.088-1.752,2.79,2.79,0,0,1,.864-1.608,3.935,3.935,0,0,1,1.744-.9,6.348,6.348,0,0,1,2.336-.1q-.128-.224-.256-.456t-.256-.472q-.9.144-1.8.264t-1.736.2a1.069,1.069,0,0,1-.84-.264,1.106,1.106,0,0,1-.392-.792,1.138,1.138,0,0,1,1.056-1.248q.624-.048,1.3-.128t1.384-.192q-.064-.176-.136-.368t-.152-.368q-.592.1-1.144.168l-1.048.136a1.15,1.15,0,0,1-.856-.248,1.167,1.167,0,0,1-.184-1.624A1.092,1.092,0,0,1,20.08,8.8q.384-.032.824-.1l.888-.128q-.048-.192-.1-.384t-.1-.384a1.183,1.183,0,0,1,.136-.9,1.094,1.094,0,0,1,.728-.544,1.141,1.141,0,0,1,.9.12,1.1,1.1,0,0,1,.536.728l.128.48.128.48.872-.184q.424-.088.792-.168a1.1,1.1,0,0,1,.872.144,1.135,1.135,0,0,1,.52.72,1.074,1.074,0,0,1-.144.864,1.207,1.207,0,0,1-.72.528q-.352.064-.72.144t-.752.16a6.514,6.514,0,0,0,.288.736q.608-.128,1.192-.264t1.08-.264a1.033,1.033,0,0,1,.872.136,1.165,1.165,0,0,1,.52.728,1.074,1.074,0,0,1-.144.864,1.207,1.207,0,0,1-.72.528q-.4.112-.848.216t-.944.2a13.736,13.736,0,0,0,.76,1.184,6.905,6.905,0,0,0,.808.944,1.094,1.094,0,0,1,.368.712,1.22,1.22,0,0,1-.176.792,1.2,1.2,0,0,1-.624.5,1.091,1.091,0,0,1-.8-.016,7.481,7.481,0,0,0-2.408-.672,3.745,3.745,0,0,0-1.7.184.986.986,0,0,0-.7.76,1.138,1.138,0,0,0,.728,1.232,6.459,6.459,0,0,0,2.856.3,1.139,1.139,0,0,1,.864.3,1.125,1.125,0,0,1,.384.84,1.09,1.09,0,0,1-.3.848A1.19,1.19,0,0,1,25.408,21.552Zm14.176-.336a3.286,3.286,0,0,1-2.184-.7,2.445,2.445,0,0,1-.84-1.984,2.368,2.368,0,0,1,.848-1.912,3.343,3.343,0,0,1,2.224-.712,5.2,5.2,0,0,1,.7.048v-2.7a1.157,1.157,0,0,1,.336-.84,1.117,1.117,0,0,1,.832-.344,1.091,1.091,0,0,1,.824.344,1.172,1.172,0,0,1,.328.84v3.216a12.719,12.719,0,0,1,1.6.664,9.8,9.8,0,0,1,1.312.776,1.106,1.106,0,0,1,.488.776,1.217,1.217,0,0,1-.992,1.376,1.09,1.09,0,0,1-.888-.216q-.336-.256-.728-.5a8.163,8.163,0,0,0-.824-.456,2.557,2.557,0,0,1-.944,1.72A3.3,3.3,0,0,1,39.584,21.216ZM33.808,16.8a1.209,1.209,0,0,1-.352-.864,1.081,1.081,0,0,1,.368-.832,10.05,10.05,0,0,0,1.464-1.648,11.071,11.071,0,0,0,1.1-1.92l-.656.064q-.32.032-.592.048a1.149,1.149,0,0,1-1.248-1.12,1.126,1.126,0,0,1,.28-.824,1.287,1.287,0,0,1,.84-.392q.48-.048,1.008-.112t1.072-.144a8.3,8.3,0,0,0,.1-1.264,1.233,1.233,0,0,1,.344-.84,1.091,1.091,0,0,1,.824-.344,1.2,1.2,0,0,1,.856.344,1.067,1.067,0,0,1,.344.84q-.016.208-.024.424a3.682,3.682,0,0,1-.04.424l.08-.016a1.13,1.13,0,0,1,.9.152,1.1,1.1,0,0,1,.512.744,1.069,1.069,0,0,1-.16.88,1.21,1.21,0,0,1-.752.512l-.5.1-.592.12a14.26,14.26,0,0,1-1.408,3.136,10.625,10.625,0,0,1-2.08,2.528,1.253,1.253,0,0,1-.848.344A1.11,1.11,0,0,1,33.808,16.8Zm10.656-4.176A12.894,12.894,0,0,0,43.328,12a9.909,9.909,0,0,0-1.1-.464,1.514,1.514,0,0,1-.712-.56,1.043,1.043,0,0,1-.152-.864,1.217,1.217,0,0,1,.552-.744,1.031,1.031,0,0,1,.888-.12,9.692,9.692,0,0,1,1.048.376q.552.232,1.072.488a8.565,8.565,0,0,1,.888.5,1.04,1.04,0,0,1,.5.76,1.263,1.263,0,0,1-.192.92,1.148,1.148,0,0,1-.752.5A1.2,1.2,0,0,1,44.464,12.624Zm-4.912,6.448a.7.7,0,0,0,.784-.8v-.208q-.208-.032-.4-.048T39.552,18q-.736,0-.736.528Q38.816,19.072,39.552,19.072Zm14.368,2.1a.81.81,0,0,1-.632-.256.923.923,0,0,1,0-1.224.823.823,0,0,1,.632-.248h3.472v-.368H54.544a.722.722,0,0,1-.568-.224.767.767,0,0,1-.2-.528.788.788,0,0,1,.2-.544.722.722,0,0,1,.568-.224h2.848v-.368h-.8a4,4,0,0,1-1.4-.2,1.279,1.279,0,0,1-.744-.744,4.227,4.227,0,0,1-.224-1.552,4.161,4.161,0,0,1,.224-1.544,1.31,1.31,0,0,1,.744-.744,3.855,3.855,0,0,1,1.4-.208h3.6a3.855,3.855,0,0,1,1.4.208,1.338,1.338,0,0,1,.752.744,4.03,4.03,0,0,1,.232,1.544,4.094,4.094,0,0,1-.232,1.552,1.307,1.307,0,0,1-.752.744,4,4,0,0,1-1.4.2h-.8v.368h2.8a.722.722,0,0,1,.568.224.788.788,0,0,1,.2.544.767.767,0,0,1-.2.528.722.722,0,0,1-.568.224h-2.8v.368H62.8a.818.818,0,0,1,.64.248.948.948,0,0,1,0,1.224.8.8,0,0,1-.64.256Zm-2.784-1.936a4.079,4.079,0,0,1-1.464-.208,1.212,1.212,0,0,1-.712-.68,3.5,3.5,0,0,1-.192-1.288v-7.6a3.571,3.571,0,0,1,.192-1.3,1.183,1.183,0,0,1,.712-.68,5.488,5.488,0,0,1,2.936,0,1.183,1.183,0,0,1,.7.68,3.571,3.571,0,0,1,.192,1.3v7.6a3.5,3.5,0,0,1-.192,1.288,1.213,1.213,0,0,1-.7.68A4.068,4.068,0,0,1,51.136,19.232Zm3.344-7.408a.773.773,0,0,1-.616-.248.882.882,0,0,1-.216-.6.853.853,0,0,1,.216-.592.786.786,0,0,1,.616-.24H55.7a.83.83,0,0,0-.032-.1.2.2,0,0,1-.016-.072.748.748,0,0,1,.016-.656h-.9a.773.773,0,0,1-.616-.248.882.882,0,0,1-.216-.6.853.853,0,0,1,.216-.592.786.786,0,0,1,.616-.24h2.576V7.264a.925.925,0,0,1,.3-.728,1.076,1.076,0,0,1,.744-.264,1.1,1.1,0,0,1,.76.264.925.925,0,0,1,.3.728v.368h2.624a.786.786,0,0,1,.616.24.853.853,0,0,1,.216.592.882.882,0,0,1-.216.6.773.773,0,0,1-.616.248h-.928a.748.748,0,0,1,.016.656.2.2,0,0,1-.016.072.831.831,0,0,0-.032.1h1.552a.786.786,0,0,1,.616.24.853.853,0,0,1,.216.592.882.882,0,0,1-.216.6.773.773,0,0,1-.616.248Zm3.28-1.68h1.28q.064-.208.136-.424a2.367,2.367,0,0,0,.088-.312.129.129,0,0,0,.016-.056.054.054,0,0,1,.016-.04H57.5a.246.246,0,0,1,.032.1q.032.1.1.312T57.76,10.144ZM51.136,17.3a.469.469,0,0,0,.32-.088.523.523,0,0,0,.1-.376v-.976h-.816v.976a.523.523,0,0,0,.1.376A.44.44,0,0,0,51.136,17.3Zm-.4-3.44h.816V12.5h-.816Zm0-3.36h.816V9.68a.523.523,0,0,0-.1-.376.469.469,0,0,0-.32-.088.44.44,0,0,0-.3.088.523.523,0,0,0-.1.376Zm8.656,3.6H60.48a.514.514,0,0,0-.192-.416,1.214,1.214,0,0,0-.576-.1h-.32Zm-3.088,0h1.088v-.512h-.32a1.167,1.167,0,0,0-.56.1A.552.552,0,0,0,56.3,14.1Zm.768,1.7h.32v-.5H56.3a.523.523,0,0,0,.208.408A1.26,1.26,0,0,0,57.072,15.792Zm2.32,0h.32a1.26,1.26,0,0,0,.56-.088.523.523,0,0,0,.208-.408H59.392Zm8.192,4.736a1.175,1.175,0,0,1-.888-.2,1.11,1.11,0,0,1-.488-.76,15.79,15.79,0,0,1-.232-1.92q-.072-1.088-.08-2.3t.056-2.44q.064-1.232.2-2.352t.328-2.016a1.168,1.168,0,0,1,.528-.76,1.13,1.13,0,0,1,.9-.152,1.2,1.2,0,0,1,.752.52,1.12,1.12,0,0,1,.16.9,24.209,24.209,0,0,0-.384,2.44q-.144,1.32-.184,2.68t.032,2.64a18.6,18.6,0,0,0,.264,2.32,1.2,1.2,0,0,1-.192.9A1.156,1.156,0,0,1,67.584,20.528Zm6.528-.816a5.573,5.573,0,0,1-3.152-.728,3.4,3.4,0,0,1-1.344-2.328,1.2,1.2,0,0,1,.2-.9,1.119,1.119,0,0,1,.776-.488,1.15,1.15,0,0,1,.88.2,1.185,1.185,0,0,1,.5.776,1.231,1.231,0,0,0,.576.832,3.4,3.4,0,0,0,1.664.288,9.063,9.063,0,0,0,1.28-.1q.672-.1,1.52-.272a1.091,1.091,0,0,1,.888.16,1.207,1.207,0,0,1,.52.768,1.116,1.116,0,0,1-.176.88,1.277,1.277,0,0,1-.752.528,14.058,14.058,0,0,1-1.768.3A16.1,16.1,0,0,1,74.112,19.712Zm-2.816-8a1.194,1.194,0,0,1-.888-.192,1.14,1.14,0,0,1-.5-.752,1.163,1.163,0,0,1,.176-.9,1.077,1.077,0,0,1,.752-.5,15.4,15.4,0,0,1,2.08-.256A21.2,21.2,0,0,1,75.088,9.1a16.279,16.279,0,0,1,1.936.192,1.025,1.025,0,0,1,.752.48,1.219,1.219,0,0,1,.192.9,1.076,1.076,0,0,1-.488.776,1.214,1.214,0,0,1-.888.184,14.742,14.742,0,0,0-2.624-.192A14.448,14.448,0,0,0,71.3,11.712ZM88,21.12a.638.638,0,0,1-.448-.2,3.956,3.956,0,0,1-.432-.5,2.036,2.036,0,0,0-.224-.3q-.16-.184-.384-.424-.544-.64-1.4-1.672a24.1,24.1,0,0,1-1.656-2.264,10.472,10.472,0,0,1-1.936-5.408A3.251,3.251,0,0,1,82.592,7.92a3.431,3.431,0,0,1,2.448-.992,3.24,3.24,0,0,1,1.776.488A3.139,3.139,0,0,1,88,8.848a3.139,3.139,0,0,1,1.184-1.432,3.24,3.24,0,0,1,1.776-.488,3.431,3.431,0,0,1,2.512,1.056,3.241,3.241,0,0,1,1.008,2.368,10.472,10.472,0,0,1-1.936,5.408,22.26,22.26,0,0,1-1.64,2.264q-.856,1.032-1.416,1.672l-.368.424q-.16.184-.24.3a3.956,3.956,0,0,1-.432.5A.638.638,0,0,1,88,21.12Zm0-.688q.032-.032.112-.128t.224-.288q.1-.128.256-.312l.384-.44q.432-.5,1.048-1.232t1.272-1.64A19.81,19.81,0,0,0,92.52,14.48a12.372,12.372,0,0,0,.928-2.056,6.349,6.349,0,0,0,.36-2.072,2.653,2.653,0,0,0-.8-1.888A2.8,2.8,0,0,0,90.96,7.6a2.542,2.542,0,0,0-1.416.4,2.578,2.578,0,0,0-.952,1.168A1.414,1.414,0,0,1,88.4,9.5a.471.471,0,0,1-.4.168.448.448,0,0,1-.392-.168,2.462,2.462,0,0,1-.2-.328A2.578,2.578,0,0,0,86.456,8a2.542,2.542,0,0,0-1.416-.4,2.8,2.8,0,0,0-2.048.864,2.653,2.653,0,0,0-.8,1.888,6.349,6.349,0,0,0,.36,2.072,12.372,12.372,0,0,0,.928,2.056A19.81,19.81,0,0,0,84.7,16.392q.656.9,1.272,1.64t1.048,1.232l.384.44q.16.184.256.312.144.192.224.288T88,20.432Z" transform="translate(169.563 636)" fill="#7fa083"/>
    <path id="パス_9781" data-name="パス 9781" d="M23.784-.646a2.894,2.894,0,0,1,1.844.672,2.894,2.894,0,0,1,1.844-.672A2.923,2.923,0,0,1,29.65.343a3.468,3.468,0,0,1,.884,2.343,3.4,3.4,0,0,1-1.013,2.5l-.16.123-.036.028.007.018-.224.147c-.086.06-.2.142-3.29,2.361L25.628,8l-.19-.137c-3.09-2.22-3.2-2.3-3.29-2.361l-.357-.211.048-.047a3.544,3.544,0,0,1-.731-.962,3.439,3.439,0,0,1-.385-1.6A3.468,3.468,0,0,1,21.607.343,2.923,2.923,0,0,1,23.784-.646ZM25.628.913,25.4.682A2.276,2.276,0,0,0,23.784-.01a2.57,2.57,0,0,0-2.416,2.7A2.846,2.846,0,0,0,22.5,4.971l.009.006c.093.065.095.066,3.118,2.237,3.022-2.171,3.024-2.172,3.118-2.237l.012-.008,0,0,.363-.28a2.8,2.8,0,0,0,.766-2,2.57,2.57,0,0,0-2.416-2.7,2.276,2.276,0,0,0-1.614.691Z" transform="translate(-2.473 637.04)" fill="#7fa083"/>
    <path id="パス_9827" data-name="パス 9827" d="M60.034,22.651a4.448,4.448,0,0,0-4.183-4.674A3.938,3.938,0,0,0,53.035,19.2a3.941,3.941,0,0,0-2.818-1.218,4.448,4.448,0,0,0-4.181,4.674,4.947,4.947,0,0,0,1.935,3.942l.018.012c.142.1.142.1,5.046,3.677,4.9-3.577,4.9-3.577,5.045-3.677l.011-.006.008-.006h0l.579-.453a4.825,4.825,0,0,0,1.357-3.489" transform="translate(-39.107 605.39)" fill="#7fa083"/>
    <path id="パス_9781-2" data-name="パス 9781" d="M25.076-.646A4.116,4.116,0,0,1,27.7.31a4.116,4.116,0,0,1,2.623-.956A4.157,4.157,0,0,1,33.419.76a4.932,4.932,0,0,1,1.258,3.332A4.828,4.828,0,0,1,33.236,7.65l-.227.175-.051.039.009.026-.318.209c-.122.085-.284.2-4.679,3.358l-.271.195-.271-.195C23.033,8.3,22.871,8.184,22.749,8.1l-.508-.3.069-.067a5.04,5.04,0,0,1-1.04-1.368,4.891,4.891,0,0,1-.548-2.272A4.932,4.932,0,0,1,21.981.76a4.157,4.157,0,0,1,3.1-1.406ZM27.7,1.571l-.328-.329a3.237,3.237,0,0,0-2.3-.983,3.655,3.655,0,0,0-3.436,3.833,4.047,4.047,0,0,0,1.613,3.249l.013.009c.133.092.135.094,4.435,3.181C32,7.445,32,7.443,32.135,7.35l.017-.012,0,0,.516-.4a3.979,3.979,0,0,0,1.089-2.845A3.655,3.655,0,0,0,30.325.259a3.237,3.237,0,0,0-2.3.983Z" transform="translate(297.38 626.276)" fill="#7fa083"/>
    <path id="パス_9828" data-name="パス 9828" d="M55.064,20.991a2.869,2.869,0,0,0-2.7-3.014,2.54,2.54,0,0,0-1.816.786,2.542,2.542,0,0,0-1.817-.786,2.869,2.869,0,0,0-2.7,3.014,3.19,3.19,0,0,0,1.248,2.542l.012.008c.092.064.092.064,3.255,2.371,3.162-2.307,3.162-2.307,3.254-2.371l.007,0,0,0h0l.373-.292a3.112,3.112,0,0,0,.875-2.25" transform="translate(263.039 619.128)" fill="#7fa083"/>
  </g>
</svg>
