<svg xmlns="http://www.w3.org/2000/svg" width="247.388" height="43.485" viewBox="0 0 247.388 43.485">
  <g id="グループ_3881" data-name="グループ 3881" transform="translate(74.028 -39.33)">
    <path id="パス_10351" data-name="パス 10351" d="M13.533-27.885l-2.808,7.917H5.031l-1.4,3.744H9.4L7.722-11.466H2.262L.858-7.722h5.5L3.549.2h4.1l2.847-7.917h4.836L12.519.2h4.1l2.808-7.917H24.96l1.365-3.744H20.748l1.677-4.758h5.3l1.4-3.744H23.751l2.808-7.917H22.5l-2.847,7.917H14.82l2.808-7.917Zm-.117,11.661h4.992l-1.677,4.758H11.7ZM33.657.156C38.22.078,42.12,0,45.357,0c4.056,0,8.034.039,11.934.078l.156-7.8h-1.6c-.78,4.056-3.12,5.85-7.488,5.85-3.939,0-4.914-1.248-4.914-5.148V-21.294c0-2.574.7-3.315,3.51-3.315h.234v-1.56c-3.042.078-5.343.117-6.786.117-1.95,0-4.212-.039-6.747-.117v1.56h.195c2.574,0,3.393.741,3.393,3.081V-5.382c0,2.925-.663,3.9-3.276,3.9h-.312ZM73.008-1.95A3.259,3.259,0,0,0,76.6.546a5.824,5.824,0,0,0,4.524-2.3L80.3-2.808a2.831,2.831,0,0,1-1.287.585c-.507,0-.7-.312-.7-1.092v-9.2c0-3.393-2.5-5.07-7.41-5.07-4.68,0-7.293,1.56-7.293,3.744a2.11,2.11,0,0,0,2.184,2.184c1.833,0,2.145-1.482,2.769-2.847a2.6,2.6,0,0,1,2.418-1.56c1.4,0,2.184.819,2.184,2.418v1.326A1.238,1.238,0,0,1,72.189-11L69.42-9.984c-4.446,1.677-6.474,3.042-6.474,6.123A4.149,4.149,0,0,0,67.47.546,8.13,8.13,0,0,0,73.008-1.95Zm-.039-3.315a2.651,2.651,0,0,1-2.691,2.613c-1.092,0-1.872-.9-1.872-2.379,0-2.223,1.443-3.549,4.563-4.524ZM99.177.507a42.1,42.1,0,0,1,7.449-1.521V-2.379c-1.833-.039-2.613-.429-2.613-1.638V-27.729a38.264,38.264,0,0,1-8.346,1.053v1.4c2.418.117,3,.39,3,2.067v7.878a7.2,7.2,0,0,0-5.538-2.3c-4.641,0-8.268,3.783-8.268,9.087C84.864-3,87.984.507,92.9.507a6.4,6.4,0,0,0,5.85-3.159Zm-.624-11.622v4.173C98.553-3.9,97.071-2.3,94.5-2.3c-2.457,0-3.7-2.106-3.7-6.24,0-4.329,1.482-6.552,4.056-6.552C97.188-15.093,98.553-13.689,98.553-11.115ZM119.262.156l-1.677,3.51c-.741,1.521-1.521,2.223-2.145,2.223-2.262,0-3.939,1.092-3.939,2.808a2.132,2.132,0,0,0,2.34,2.184c2.184,0,3.549-2.3,5.5-6.552l6.318-13.806c1.755-3.822,2.34-6.318,4.407-6.4v-1.4c-1.911.078-3,.117-3.315.117-.507,0-1.677-.078-3.51-.117v1.4c1.56,0,2.145.351,2.145,1.482a10.186,10.186,0,0,1-1.014,3.432l-2.3,5.109-3-7.683a3.835,3.835,0,0,1-.312-1.326c0-.858.624-1.014,2.067-1.014v-1.4c-1.443.078-2.964.117-4.485.117-2.3,0-4.134-.039-5.538-.117v1.4c1.638.039,1.872.819,2.613,2.535Zm15.522,0c1.911-.117,3.666-.2,5.265-.2,2.652,0,5.07.2,7.215.2,7.644,0,11.544-2.5,11.544-7.1,0-4.134-3.12-6.357-8.814-7.059,4.719-.663,7.137-2.769,7.137-5.967,0-4.212-3.549-6.279-10.764-6.279-2.067,0-4.329.234-6.747.234-1.209,0-2.808-.078-4.836-.234v1.6c3.042.039,3.666.741,3.666,3.354V-5.109c0,2.73-.7,3.549-3.666,3.588Zm9.711-13.026c.468-.039.9-.039,1.287-.039,4.212,0,6.123,1.677,6.123,5.5,0,3.705-1.443,5.538-4.368,5.538-2.34,0-3.042-1.248-3.042-4.446Zm0-1.872V-23.6c0-.585.117-.741,1.4-.741,3.237,0,4.8,1.443,4.8,4.485,0,3.666-1.443,5.148-5.3,5.148C145.119-14.7,144.807-14.742,144.495-14.742ZM164.5.117A25.122,25.122,0,0,1,167.544,0h3.783c1.326,0,2.574,0,3.783.117V-1.326C173.2-1.4,172.5-1.872,172.5-3.432v-24.3a30.723,30.723,0,0,1-7.8,1.521v1.4c1.677.117,2.418.429,2.418,1.443V-3.432c0,1.6-.312,1.95-2.613,2.106ZM189.7-1.95a3.259,3.259,0,0,0,3.588,2.5,5.824,5.824,0,0,0,4.524-2.3l-.819-1.053a2.831,2.831,0,0,1-1.287.585c-.507,0-.7-.312-.7-1.092v-9.2c0-3.393-2.5-5.07-7.41-5.07-4.68,0-7.293,1.56-7.293,3.744a2.11,2.11,0,0,0,2.184,2.184c1.833,0,2.145-1.482,2.769-2.847a2.6,2.6,0,0,1,2.418-1.56c1.4,0,2.184.819,2.184,2.418v1.326A1.238,1.238,0,0,1,188.877-11l-2.769,1.014c-4.446,1.677-6.474,3.042-6.474,6.123A4.149,4.149,0,0,0,184.158.546,8.13,8.13,0,0,0,189.7-1.95Zm-.039-3.315a2.651,2.651,0,0,1-2.691,2.613c-1.092,0-1.872-.9-1.872-2.379,0-2.223,1.443-3.549,4.563-4.524Zm27.144.78a5.853,5.853,0,0,1-4.68,2.613c-3.081,0-4.68-2.379-4.68-7.059,0-4.563,1.326-7.02,3.432-7.02,1.755,0,2.028,1.326,2.613,2.613a2.526,2.526,0,0,0,2.3,1.716,1.967,1.967,0,0,0,2.145-2.067c0-2.3-2.418-3.9-6.552-3.9-5.811,0-9.789,3.861-9.789,9.36,0,5.265,3.51,8.775,8.658,8.775a9.039,9.039,0,0,0,7.8-3.822Zm6.006,4.6c.936-.078,3.315-.117,7.1-.117,1.287,0,2.262.039,3.042.117v-1.4c-1.95-.234-2.379-.585-2.379-2.145V-6.318l1.326-1.248,5.46,7.683A14.669,14.669,0,0,1,239.694,0c.936,0,2.145.039,3.666.117V-1.365h-.078a1.874,1.874,0,0,1-1.4-.741l-6.669-8.775,2.886-2.964a7.245,7.245,0,0,1,4.29-2.106v-1.287c-1.248.078-2.574.117-3.861.117-1.56,0-3.159-.039-4.758-.117v1.287c1.56.039,2.3.39,2.3,1.131s-.78,1.443-1.989,2.652l-3.51,3.51V-27.729a25.671,25.671,0,0,1-7.761,1.56v1.443H223c1.716,0,2.223.546,2.223,2.262V-3.432c0,1.56-.39,1.95-2.418,2.145Z" transform="translate(-72 69.934)" fill="#fff" stroke="#e8aeb8" stroke-width="4"/>
    <path id="パス_10350" data-name="パス 10350" d="M13.533-27.885l-2.808,7.917H5.031l-1.4,3.744H9.4L7.722-11.466H2.262L.858-7.722h5.5L3.549.2h4.1l2.847-7.917h4.836L12.519.2h4.1l2.808-7.917H24.96l1.365-3.744H20.748l1.677-4.758h5.3l1.4-3.744H23.751l2.808-7.917H22.5l-2.847,7.917H14.82l2.808-7.917Zm-.117,11.661h4.992l-1.677,4.758H11.7ZM33.657.156C38.22.078,42.12,0,45.357,0c4.056,0,8.034.039,11.934.078l.156-7.8h-1.6c-.78,4.056-3.12,5.85-7.488,5.85-3.939,0-4.914-1.248-4.914-5.148V-21.294c0-2.574.7-3.315,3.51-3.315h.234v-1.56c-3.042.078-5.343.117-6.786.117-1.95,0-4.212-.039-6.747-.117v1.56h.195c2.574,0,3.393.741,3.393,3.081V-5.382c0,2.925-.663,3.9-3.276,3.9h-.312ZM73.008-1.95A3.259,3.259,0,0,0,76.6.546a5.824,5.824,0,0,0,4.524-2.3L80.3-2.808a2.831,2.831,0,0,1-1.287.585c-.507,0-.7-.312-.7-1.092v-9.2c0-3.393-2.5-5.07-7.41-5.07-4.68,0-7.293,1.56-7.293,3.744a2.11,2.11,0,0,0,2.184,2.184c1.833,0,2.145-1.482,2.769-2.847a2.6,2.6,0,0,1,2.418-1.56c1.4,0,2.184.819,2.184,2.418v1.326A1.238,1.238,0,0,1,72.189-11L69.42-9.984c-4.446,1.677-6.474,3.042-6.474,6.123A4.149,4.149,0,0,0,67.47.546,8.13,8.13,0,0,0,73.008-1.95Zm-.039-3.315a2.651,2.651,0,0,1-2.691,2.613c-1.092,0-1.872-.9-1.872-2.379,0-2.223,1.443-3.549,4.563-4.524ZM99.177.507a42.1,42.1,0,0,1,7.449-1.521V-2.379c-1.833-.039-2.613-.429-2.613-1.638V-27.729a38.264,38.264,0,0,1-8.346,1.053v1.4c2.418.117,3,.39,3,2.067v7.878a7.2,7.2,0,0,0-5.538-2.3c-4.641,0-8.268,3.783-8.268,9.087C84.864-3,87.984.507,92.9.507a6.4,6.4,0,0,0,5.85-3.159Zm-.624-11.622v4.173C98.553-3.9,97.071-2.3,94.5-2.3c-2.457,0-3.7-2.106-3.7-6.24,0-4.329,1.482-6.552,4.056-6.552C97.188-15.093,98.553-13.689,98.553-11.115ZM119.262.156l-1.677,3.51c-.741,1.521-1.521,2.223-2.145,2.223-2.262,0-3.939,1.092-3.939,2.808a2.132,2.132,0,0,0,2.34,2.184c2.184,0,3.549-2.3,5.5-6.552l6.318-13.806c1.755-3.822,2.34-6.318,4.407-6.4v-1.4c-1.911.078-3,.117-3.315.117-.507,0-1.677-.078-3.51-.117v1.4c1.56,0,2.145.351,2.145,1.482a10.186,10.186,0,0,1-1.014,3.432l-2.3,5.109-3-7.683a3.835,3.835,0,0,1-.312-1.326c0-.858.624-1.014,2.067-1.014v-1.4c-1.443.078-2.964.117-4.485.117-2.3,0-4.134-.039-5.538-.117v1.4c1.638.039,1.872.819,2.613,2.535Zm15.522,0c1.911-.117,3.666-.2,5.265-.2,2.652,0,5.07.2,7.215.2,7.644,0,11.544-2.5,11.544-7.1,0-4.134-3.12-6.357-8.814-7.059,4.719-.663,7.137-2.769,7.137-5.967,0-4.212-3.549-6.279-10.764-6.279-2.067,0-4.329.234-6.747.234-1.209,0-2.808-.078-4.836-.234v1.6c3.042.039,3.666.741,3.666,3.354V-5.109c0,2.73-.7,3.549-3.666,3.588Zm9.711-13.026c.468-.039.9-.039,1.287-.039,4.212,0,6.123,1.677,6.123,5.5,0,3.705-1.443,5.538-4.368,5.538-2.34,0-3.042-1.248-3.042-4.446Zm0-1.872V-23.6c0-.585.117-.741,1.4-.741,3.237,0,4.8,1.443,4.8,4.485,0,3.666-1.443,5.148-5.3,5.148C145.119-14.7,144.807-14.742,144.495-14.742ZM164.5.117A25.122,25.122,0,0,1,167.544,0h3.783c1.326,0,2.574,0,3.783.117V-1.326C173.2-1.4,172.5-1.872,172.5-3.432v-24.3a30.723,30.723,0,0,1-7.8,1.521v1.4c1.677.117,2.418.429,2.418,1.443V-3.432c0,1.6-.312,1.95-2.613,2.106ZM189.7-1.95a3.259,3.259,0,0,0,3.588,2.5,5.824,5.824,0,0,0,4.524-2.3l-.819-1.053a2.831,2.831,0,0,1-1.287.585c-.507,0-.7-.312-.7-1.092v-9.2c0-3.393-2.5-5.07-7.41-5.07-4.68,0-7.293,1.56-7.293,3.744a2.11,2.11,0,0,0,2.184,2.184c1.833,0,2.145-1.482,2.769-2.847a2.6,2.6,0,0,1,2.418-1.56c1.4,0,2.184.819,2.184,2.418v1.326A1.238,1.238,0,0,1,188.877-11l-2.769,1.014c-4.446,1.677-6.474,3.042-6.474,6.123A4.149,4.149,0,0,0,184.158.546,8.13,8.13,0,0,0,189.7-1.95Zm-.039-3.315a2.651,2.651,0,0,1-2.691,2.613c-1.092,0-1.872-.9-1.872-2.379,0-2.223,1.443-3.549,4.563-4.524Zm27.144.78a5.853,5.853,0,0,1-4.68,2.613c-3.081,0-4.68-2.379-4.68-7.059,0-4.563,1.326-7.02,3.432-7.02,1.755,0,2.028,1.326,2.613,2.613a2.526,2.526,0,0,0,2.3,1.716,1.967,1.967,0,0,0,2.145-2.067c0-2.3-2.418-3.9-6.552-3.9-5.811,0-9.789,3.861-9.789,9.36,0,5.265,3.51,8.775,8.658,8.775a9.039,9.039,0,0,0,7.8-3.822Zm6.006,4.6c.936-.078,3.315-.117,7.1-.117,1.287,0,2.262.039,3.042.117v-1.4c-1.95-.234-2.379-.585-2.379-2.145V-6.318l1.326-1.248,5.46,7.683A14.669,14.669,0,0,1,239.694,0c.936,0,2.145.039,3.666.117V-1.365h-.078a1.874,1.874,0,0,1-1.4-.741l-6.669-8.775,2.886-2.964a7.245,7.245,0,0,1,4.29-2.106v-1.287c-1.248.078-2.574.117-3.861.117-1.56,0-3.159-.039-4.758-.117v1.287c1.56.039,2.3.39,2.3,1.131s-.78,1.443-1.989,2.652l-3.51,3.51V-27.729a25.671,25.671,0,0,1-7.761,1.56v1.443H223c1.716,0,2.223.546,2.223,2.262V-3.432c0,1.56-.39,1.95-2.418,2.145Z" transform="translate(-72 69.934)" fill="#fff"/>
  </g>
</svg>
