<svg xmlns="http://www.w3.org/2000/svg" width="223.91" height="87.177" viewBox="0 0 223.91 87.177">
  <g id="レイヤー_1" data-name="レイヤー 1" transform="matrix(0.966, 0.259, -0.259, 0.966, -15.222, -444.807)">
    <g id="グループ_3929" data-name="グループ 3929" transform="translate(138.08 392.74)">
      <g id="グループ_3916" data-name="グループ 3916" transform="translate(0 25.69)">
        <path id="パス_10068" data-name="パス 10068" d="M161.474,406.27l.092,0a1.933,1.933,0,0,1,1.349.643l2.478,2.774a1.932,1.932,0,0,1-.267,2.822c-.752.575-3.623,1.371-5.915,1.869l.234,1.313,5.147-.913a1.932,1.932,0,0,1,2.24,1.563l.341,1.91a1.932,1.932,0,0,1-1.215,2.146l2.352,13.294a1.932,1.932,0,0,1-1.034,2.062l-.045.023a1.928,1.928,0,0,1-.531.177l-4.729.841a1.932,1.932,0,0,1-2.241-1.566l-.393-2.222a18.29,18.29,0,0,1-2.764,4.124,1.933,1.933,0,0,1-2.256.5l-.585-.263a1.93,1.93,0,0,1-1.424,1.107l-4.365.773a1.932,1.932,0,0,1-2.24-1.564l-.061-.342-.129.138-.087.093a1.933,1.933,0,0,1-2.547.246l-1.569-1.137a1.932,1.932,0,0,1-.481-2.626,11.647,11.647,0,0,0,1.616-4.085,1.933,1.933,0,0,1-2.085-1.58l-.341-1.887a1.938,1.938,0,0,0-.819-2.437l-.341-1.91a1.932,1.932,0,0,1,1.518-2.234c-.2-.531-.429-1.078-.657-1.531a1.932,1.932,0,0,1-1.269-1.483l-.341-1.887a1.932,1.932,0,0,1,1.572-2.248l1.5-.259-.089-.5a1.933,1.933,0,0,1,1.563-2.243l4.592-.818a1.932,1.932,0,0,1,2.241,1.562l.093.52.355-.061a1.932,1.932,0,0,1,1.923-2.118h4.491a14.607,14.607,0,0,0,3.814-2.078A1.932,1.932,0,0,1,161.474,406.27Zm-6.43,6.457h-.884l1.693,9.623a44.227,44.227,0,0,1,.764,6.728,19.53,19.53,0,0,0-.137-7.692l-.206-1.19a1.916,1.916,0,0,0-.294-1.922l-.909-5.092A1.93,1.93,0,0,1,155.043,412.726Zm9.127,19.752L161.821,419.2v0l-.972.172,0,.023,2.346,13.259ZM149.038,426.5a1.93,1.93,0,0,1-1.085-1.416l-.029-.163-.559.1.03.168a2.36,2.36,0,0,0-.836,2.378,15.311,15.311,0,0,1-.332,3.194,1.932,1.932,0,0,1,2.44,1.518l.5,2.828.565-.1L149,430.792a1.933,1.933,0,0,1,1.174-2.122c-.245-.315-.5-.659-.772-1.039A1.932,1.932,0,0,1,149.038,426.5Z" transform="translate(-138.08 -401.2)" fill="#7ea185"/>
        <path id="パス_10069" data-name="パス 10069" d="M159.911,436.959a1.934,1.934,0,0,1-.444-.052l-4.524-1.068a1.932,1.932,0,0,1-1.316-2.679,28.122,28.122,0,0,0,1.21-3.185q-.084-.048-.164-.105l-1.591-1.137a1.933,1.933,0,0,1-.738-2.094c.386-1.378.866-3.093.048-7.762l-1.022-5.771a1.932,1.932,0,0,1,1.567-2.24l11.317-2-.177-1.023a1.932,1.932,0,0,1,1.565-2.232l4.592-.818a1.927,1.927,0,0,1,.744.013l.494-.376a1.932,1.932,0,0,1,1.759-.3,30.777,30.777,0,0,1,4.174,1.7,8.264,8.264,0,0,1,1.186,2.463l.341,1.91a1.932,1.932,0,0,1-.318,1.446l-.046.064a1.932,1.932,0,0,1,.491,1.84,31.11,31.11,0,0,1-.929,2.981,10.508,10.508,0,0,0,1.122.457,1.932,1.932,0,0,1,1.3,1.785,12.4,12.4,0,0,1-.38,4.007,5.431,5.431,0,0,1-.9,1.754c1.02.857,2.046,1.8,2.934,2.7a1.932,1.932,0,0,1-.12,2.825l-3.823,3.271a1.933,1.933,0,0,1-2.875.145l-.023-.023-.023-.023a6.574,6.574,0,0,1-3.281,1.341l-7.606,1.34a8.141,8.141,0,0,1-1.439.15,3.96,3.96,0,0,1-1.441-.248,1.932,1.932,0,0,1-1.661.945Zm2.417-9.142.646,3.694a6.872,6.872,0,0,0,.2.879c.158-.012.36-.04.6-.084l.157-.028a5.389,5.389,0,0,1-.378-1.424L163,427.7Zm-6.816-13.48.686,3.87a31.207,31.207,0,0,1,.5,4.478,12.851,12.851,0,0,0,.082-5.446l-.523-3.026v-.007ZM172.21,421a1.932,1.932,0,0,1,1.33.53,3.019,3.019,0,0,0,1.667.972l.065.013q.052.01.1.024a1.954,1.954,0,0,1,.218-.053.98.98,0,0,0,.767-.542,2.286,2.286,0,0,1-.34.091,2.119,2.119,0,0,1-.389.036,3.151,3.151,0,0,1-2.389-1.547l-.018-.023a1.933,1.933,0,0,1-.177-2.152,21.988,21.988,0,0,0,1.721-3.912l-.372-.1c-.052.331-.11.629-.159.868a1.932,1.932,0,0,1-3.718.238l-.018-.051a23.9,23.9,0,0,1-.889-3.48,2.051,2.051,0,0,0-.4-1.971c-.054-.307-.119-.659-.184-1.008l-.8.142c.058.27.128.592.2.929a1.883,1.883,0,0,0,.426,1.882,22.145,22.145,0,0,0,3.017,7.684,1.933,1.933,0,0,1,.3,1.425Z" transform="translate(-121.194 -404.04)" fill="#7ea185"/>
      </g>
      <g id="グループ_3918" data-name="グループ 3918" transform="translate(1.932 27.622)">
        <path id="パス_10070" data-name="パス 10070" d="M151.457,414.645a31.828,31.828,0,0,1-2.5,4.456l2.751-.477.341,1.91-12.026,2.114-.341-1.91,2.16-.387a24.409,24.409,0,0,0-1.682-4.3l1.3-.955-2.182.387-.341-1.887,3.41-.591-.432-2.41,4.592-.818.432,2.41,3.16-.546.341,1.887-2.819.5,3.865.637Zm.978,16.164c-.909-.455-1.751-.909-2.614-1.432l1.069,6.116-4.365.773-.841-4.729a17.3,17.3,0,0,1-2.751,3.638l-1.569-1.137a14.4,14.4,0,0,0,2.183-7.48l-2.364.409-.341-1.887,3.569-.637-.364-2.069,4.365-.773.364,2.069,3.274-.568.341,1.887-2.5.432a14.759,14.759,0,0,0,3.569,3.774l-1.069,1.614Zm-6.388-11.845a15.284,15.284,0,0,0,.091-4.683l-4.16.728a21.687,21.687,0,0,1,4.092,3.251l-3.342,1.932,5.07-.887-1.773-.318Zm19.233,14-4.729.841-2.683-15.164-.773.136.2,1.182c1.364,7.684-.318,11.39-3.274,14.823l-1.773-.8c1.2-2.387,2.023-4.388.614-12.39l-2.092-11.89H155.5a15.355,15.355,0,0,0,4.888-2.592l2.478,2.774a33.033,33.033,0,0,1-6.979,1.864l.909,5.092,7.048-1.25.341,1.91-1.546.273,2.683,15.164Z" transform="translate(-138.93 -402.05)" fill="#fff"/>
        <path id="パス_10071" data-name="パス 10071" d="M175.675,431.034c-1.114-3.5-1.546-4.774-2.887-6.775l1.023-.932a4.817,4.817,0,0,1-2.683-1.478,16.3,16.3,0,0,1-2.774,2.569l-1.728-1.091c.364-.386.432-.523.75-.887l-7.684,1.364-1.068-6.07,7.934-1.409,1.023,5.82a20.24,20.24,0,0,0,1.614-2.569,24.126,24.126,0,0,1-3.3-8.321l-8.821,1.546.523,3.024c.955,5.479-.682,8.8-2.887,11.39l-1.591-1.137c.477-1.705.955-3.683.091-8.616l-1.023-5.775,13.277-2.342c-.136-.614-.318-1.455-.364-1.728l-.2-1.182,4.592-.818s.341,1.75.546,2.91l1.137-.2a8.294,8.294,0,0,0-1.228-2.205l1.614-1.228a28.476,28.476,0,0,1,3.865,1.569l-2.023,1.478,2.205-.387.341,1.91-5.524.978a21.928,21.928,0,0,0,.841,3.3,10.285,10.285,0,0,0,.25-2.933l4.592,1.182a25.4,25.4,0,0,1-2.455,6.229c.364.455.7.887.932.841.637-.114.364-2.069.3-2.614a11.557,11.557,0,0,0,2.66,1.3c.045,2.114.068,5.07-2.683,5.57a39.93,39.93,0,0,1,4.888,4.206l-4.092,3.5Zm-17.233-4.479a46.633,46.633,0,0,1,.386,7.389l-4.524-1.069a28.665,28.665,0,0,0,2.069-6.525l2.069.182Zm7.525-13.55.341,1.91-8.025,1.41-.341-1.91Zm.114,16.573a26.521,26.521,0,0,0-2.137-5.138l1.455-1c.955.455,4.5,2.523,5.183,2.933l-.386.273a21.325,21.325,0,0,0,3.956.523c.2,3.978-2.114,4.388-3.5,4.615l-7.616,1.341c-2.023.364-2.637,0-3.046-2.364l-.978-5.593,4.479-.8.887,5.07c.2,1.182.25,1.41,1.478,1.182l2.387-.409c1.182-.2,1.637-.3,1.478-3.274l-3.66,2.614Zm-3.592-10.549.387,2.251.887-.159-.386-2.251Z" transform="translate(-122.044 -404.89)" fill="#fff"/>
      </g>
      <path id="パス_10072" data-name="パス 10072" d="M181.949,401.99a1.929,1.929,0,0,1,.321.027l5.8.977a1.932,1.932,0,0,1,1.33,2.908c-.089.147-.258.4-.475.713l.53-.094a1.932,1.932,0,0,1,2.242,1.567l.909,5.161a1.932,1.932,0,0,1-1.569,2.239l-1.594.28.969,5.47a12.1,12.1,0,0,0,2.884.327,1.932,1.932,0,0,1,1.931,2c-.085,2.494-.281,4.179-1.033,5.408a5.206,5.206,0,0,1-3.893,2.2l-5.487.979-.013,0a9.089,9.089,0,0,1-1.542.153,3.478,3.478,0,0,1-3.563-2.462,10.308,10.308,0,0,1-1.105,1.2,16.621,16.621,0,0,1-7.877,3.758,1.932,1.932,0,0,1-1.872-.634L167.5,432.6a1.932,1.932,0,0,1,1.018-3.135,7.8,7.8,0,0,0,3.164-1.442,1.931,1.931,0,0,1-1.184-1.457l-1.278-7.216-1.464.257a1.933,1.933,0,0,1-2.255-1.69l-.892-5.061a1.932,1.932,0,0,1,1.574-2.24l.514-.089a15.438,15.438,0,0,0-1.013-1.513,1.932,1.932,0,0,1,.225-2.6l1.409-1.3a1.933,1.933,0,0,1,1.953-.4,23.689,23.689,0,0,1,2.383,1.017,1.923,1.923,0,0,1,.63-.859l1.614-1.25a1.932,1.932,0,0,1,2-.224,31.729,31.729,0,0,1,4.062,2.156,15.035,15.035,0,0,0,.055-1.6,1.932,1.932,0,0,1,1.932-1.969Zm2.462,4.307-.628-.106c-.044.423-.1.822-.161,1.194C183.855,407.066,184.13,406.687,184.411,406.3Zm4.052,5.718-.238-1.349-.783.14,0,.023.2,1.2q.01.061.017.121Zm-18.753,3.32c-.013-.051-.024-.1-.033-.154l-.2-1.2,0-.01-.719.124.242,1.371Zm16.866,6.417-1.278-7.217q-.012-.067-.019-.134l-.905.16.2,1.107a1.946,1.946,0,0,0,.342,1.917l.2,1.137a1.949,1.949,0,0,0,.32,1.9l.227,1.3h0Zm-12.428-3.217a1.933,1.933,0,0,1-.448-.956l-.18-1.1-.86.152q.018.069.03.141l1.278,7.22.331-.057a1.937,1.937,0,0,1,.536-.017q-.009-.043-.017-.086l-.227-1.3a1.919,1.919,0,0,0-.317-1.878l-.2-1.137A1.932,1.932,0,0,1,174.147,418.535ZM184,427.17l-.521-2.9,0-.01-.924.164,0,.012.546,3.115a7.286,7.286,0,0,0,.2.89,5.968,5.968,0,0,0,.841-.1l.215-.038A4.022,4.022,0,0,1,184,427.17Zm7.249-1.862-.279-.038a8.776,8.776,0,0,1-.089,1.7l.012-.018A4.832,4.832,0,0,0,191.25,425.308Zm-14.968,2.584a4,4,0,0,0,1.242-2.575l-.467.083a1.929,1.929,0,0,1-.543.019,1.931,1.931,0,0,1,.046.37A6.564,6.564,0,0,1,176.283,427.892Z" transform="translate(-104.334 -380.961)" fill="#7ea185"/>
      <path id="パス_10073" data-name="パス 10073" d="M166.339,416.594l-.909-5.161,3.16-.546a26.1,26.1,0,0,0-2.455-4.138l1.409-1.3a31.247,31.247,0,0,1,5.638,2.865l-2.842,2.251,4.57-.8a23.941,23.941,0,0,0-2.524-4.456l1.614-1.25a28.133,28.133,0,0,1,5.365,3.069l-3.387,2.455,5.434-.955-1.319-.3a18.483,18.483,0,0,0,.773-5.5l5.8.978c-.386.637-2.774,3.933-3.183,4.456l5.229-.932.909,5.161-3.5.614,1.614,9.116-3.433.614.523,2.91c.114.682.273,1.114,1.3.932l.682-.114c1.023-.182,1.432-.3.978-4.8a16.4,16.4,0,0,0,4.433.637c-.159,4.683-.728,5.3-3.342,5.775l-5.479.978c-2.387.409-2.887-.136-3.274-2.364l-.546-3.115-1.2.2c.2,3.137-2.955,6.616-9.139,7.934l-1.341-1.569c2.183-.523,5.752-1.955,5.661-5.5l-2.228.387-1.614-9.116-3.365.591Zm4.16-2.819,14.163-2.5-.2-1.2-14.163,2.5Zm11.094,1.159-.2-1.114-7.048,1.25.182,1.114,7.048-1.25Zm-6.707,3.16.2,1.137,7.048-1.25-.2-1.137Zm.523,3.024.227,1.3,7.048-1.25-.227-1.3Z" transform="translate(-103.252 -379.878)" fill="#fff"/>
      <path id="パス_10074" data-name="パス 10074" d="M187.733,430.482a1.932,1.932,0,0,1-1.507-.723l-1.387-1.728a1.932,1.932,0,0,1,1.006-3.076c4.022-1.494,7.563-3.738,6.487-9.824-.394-2.2-.983-2.2-1.3-2.2a2.428,2.428,0,0,0-.417.041c-2.59.455-5.894,3.689-7.3,5.07a1.932,1.932,0,0,1-2.874-.19l-2.205-2.819a1.932,1.932,0,0,1,.43-2.785,43.4,43.4,0,0,1,8.57-4.812,20.988,20.988,0,0,0-2.16-.109,26.585,26.585,0,0,0-2.993.184,1.932,1.932,0,0,1-2.087-2.385l.546-2.205a1.932,1.932,0,0,1,1.493-1.43,45.679,45.679,0,0,1,8.981-.967,38.2,38.2,0,0,1,4.147.234,1.932,1.932,0,0,1,1.665,2.441l-1.038,3.726a8.976,8.976,0,0,1,5.332,7.088,12.108,12.108,0,0,1-2.147,9.3c-3.289,4.478-8.2,6.214-10.561,7.048l-.033.012A1.93,1.93,0,0,1,187.733,430.482Zm6.753-19.921a5.154,5.154,0,0,1,.4.5,8.362,8.362,0,0,1,1.254,3.393,12.911,12.911,0,0,1-.414,6.746q.069-.091.137-.183a8.247,8.247,0,0,0,1.451-6.337A5.154,5.154,0,0,0,194.486,410.561Z" transform="translate(-87.474 -382.831)" fill="#7ea185"/>
      <path id="パス_10075" data-name="パス 10075" d="M185.286,425.74c2.66-.978,9.389-3.41,7.866-12.027-.386-2.16-1.25-4.206-3.956-3.728-2.978.523-6.161,3.478-8.321,5.593l-2.205-2.819c2.523-1.728,7-4.751,11.231-5.479,4.069-.727,7.457,1.523,8.23,5.979a10.178,10.178,0,0,1-1.8,7.821c-2.955,4.024-7.434,5.593-9.685,6.388l-1.387-1.728Zm7.3-19.6a21.7,21.7,0,0,0-11.8-1.637l.546-2.205a38.7,38.7,0,0,1,12.549-.7l-1.273,4.57Z" transform="translate(-86.391 -381.749)" fill="#fff"/>
      <path id="パス_10076" data-name="パス 10076" d="M205.387,398.45a1.932,1.932,0,0,1,1.465.672l1.546,1.8a1.933,1.933,0,0,1,.03,2.486c-.756.922-1.786,2.219-2.853,3.595h.009a8.78,8.78,0,0,1,8.935,7.549,9.486,9.486,0,0,1-2.571,8.734,14.618,14.618,0,0,1-7.75,3.671,13.6,13.6,0,0,1-2.372.22c-3.758,0-6.529-1.9-7.082-4.86a1.934,1.934,0,0,1-1.234-.306l-3.933-2.569a1.932,1.932,0,0,1-.571-2.66c2.286-3.568,4.718-7.18,6.6-9.928-.975.226-1.859.419-2.559.564a1.932,1.932,0,0,1-2.282-1.5l-.441-2.1a1.934,1.934,0,0,1,1.472-2.583c3.2-.568,8.563-1.622,13.138-2.726A1.928,1.928,0,0,1,205.387,398.45Zm-6.3,12.426a1.933,1.933,0,0,1,.192-1.945c1.381-1.9,3.254-4.337,4.77-6.249-.681.156-1.372.311-2.061.462a1.933,1.933,0,0,1-.269,1.667c-1.126,1.6-4.825,6.911-8.419,12.441l.593.388C195.78,414.32,197.227,412.131,199.085,410.876Zm10.727,8.965a5.842,5.842,0,0,0,.9-4.62,4.906,4.906,0,0,0-3.1-4.021,8,8,0,0,1,2.365,4.606A8.513,8.513,0,0,1,209.812,419.841Zm-3.7-3.622c-.218-1-.864-2.768-2.7-2.768a3.947,3.947,0,0,0-.688.065,4.308,4.308,0,0,0-2.768,1.806q.266-.06.552-.11a9.188,9.188,0,0,1,1.539-.13,7.6,7.6,0,0,1,2.832.514A7.383,7.383,0,0,1,206.117,416.219Z" transform="translate(-73.619 -385.469)" fill="#7ea185"/>
      <path id="パス_10077" data-name="パス 10077" d="M191.05,402.051c3.206-.568,8.639-1.637,13.254-2.751l1.546,1.8c-1.66,2.023-4.342,5.479-6.093,7.889a10.334,10.334,0,0,1,3-.978c4.615-.818,8.025,1.591,8.775,5.8,1.069,6.093-3.569,9.253-8.753,10.162-4.206.75-6.82-.8-7.229-3.137-.341-1.887.546-4.16,4.206-4.8a6.328,6.328,0,0,1,3.319.273,5.189,5.189,0,0,1,3.069,3.456,6.057,6.057,0,0,0,.841-4.706c-.432-2.478-2.114-5.161-5.684-4.524-3.024.523-4.433,2.683-7.821,8.775l-3.933-2.569c3.524-5.5,7.525-11.3,9.5-14.118-2.41.682-5.388,1.387-7.48,1.819l-.5-2.387Zm9.207,16.073a1.722,1.722,0,0,0-1.273,2.205,2.676,2.676,0,0,0,3.183,1.978,5.241,5.241,0,0,0,1.114-.3c-.341-1.5-.978-4.229-3-3.865Z" transform="translate(-72.537 -384.386)" fill="#fff"/>
      <path id="パス_10078" data-name="パス 10078" d="M206.7,397.08h.055l4.8.136a1.932,1.932,0,0,1,1.866,2.145l-.008.076c-.037.329-.071.64-.123,1.057,3.543-.807,4.379-1.054,5.612-1.44a1.932,1.932,0,0,1,2.489,1.559l.318,2.137a1.932,1.932,0,0,1-1.412,2.151c-2.663.713-5.77,1.419-7.907,1.894l-.076.491a13.659,13.659,0,0,1,2.393-.652,12.854,12.854,0,0,1,2.217-.2c4.56,0,7.854,2.6,8.6,6.788a8.272,8.272,0,0,1-2.423,7.592l-.014.014c-2.6,2.549-7.175,3.311-12.468,4.193l-.093.016a1.933,1.933,0,0,1-2.091-1.138l-.955-2.205A1.932,1.932,0,0,1,209.1,419a27.384,27.384,0,0,0,3.037-.385,11.282,11.282,0,0,0,3.347-1.086c1.521-.858,1.589-1.756,1.455-2.522a1.868,1.868,0,0,0-2.113-1.773,4.456,4.456,0,0,0-.765.07c-1.829.325-3.066,1.658-3.777,4.075a1.933,1.933,0,0,1-2.293,1.337l-4.092-.955a1.932,1.932,0,0,1-1.439-2.338c.288-1.184.64-2.791,1.239-6.84l-.87.169c-.248.048-.454.087-.681.133a1.932,1.932,0,0,1-2.283-1.567l-.319-1.852a1.9,1.9,0,0,1-.073-.52v-.068a1.933,1.933,0,0,1,2.073-1.929l1.039-.2c.582-.11,1.109-.21,1.952-.378.1-.989.217-2.287.234-3.39a1.932,1.932,0,0,1,1.932-1.9Zm2.621,3.94-.782-.022c-.105,1.427-.268,2.75-.331,3.241a1.96,1.96,0,0,0-.3,2.176c-.545,3.95-.935,6.313-1.276,8.018l.572.133a10.15,10.15,0,0,1,1.246-2.1,1.933,1.933,0,0,1-.627-1.811c.34-1.812.662-3.916.854-5.173.035-.23.066-.428.09-.588a1.895,1.895,0,0,0,.315-2.181C209.184,402.015,209.26,401.466,209.32,401.02Zm11.047,17.057a4.444,4.444,0,0,0,1.345-4.17,3.981,3.981,0,0,0-3.293-3.455,5.9,5.9,0,0,1,2.324,3.89,5.993,5.993,0,0,1-.621,3.954Q220.252,418.189,220.368,418.077Z" transform="translate(-59.904 -387.213)" fill="#7ea185"/>
      <path id="パス_10079" data-name="パス 10079" d="M200.32,403.864c1.864-.364,2.205-.409,4.888-.955a49.019,49.019,0,0,0,.409-4.979l4.8.136c-.091.818-.159,1.455-.5,3.842,6.025-1.341,6.957-1.614,8.48-2.092l.318,2.137c-3.228.864-7.161,1.728-9.116,2.16-.159,1.023-.546,3.638-.955,5.82a11.018,11.018,0,0,1,5.32-2.478c3.888-.682,7.8.659,8.571,5.024a6.389,6.389,0,0,1-1.887,5.888c-2.183,2.137-6.616,2.865-11.526,3.683l-.955-2.205a29.342,29.342,0,0,0,3.228-.409c1.25-.227,7.161-1.3,6.366-5.843-.523-2.978-2.91-3.66-5.115-3.274-3.842.682-4.956,4.274-5.3,5.434l-4.092-.955a95.128,95.128,0,0,0,1.66-9.73c-2.887.591-3.433.682-4.229.841l-.364-2.114Z" transform="translate(-58.822 -386.131)" fill="#fff"/>
      <path id="パス_10080" data-name="パス 10080" d="M220,421.993a1.932,1.932,0,0,1-1.544-.769l-.987-1.309a1.933,1.933,0,0,1-.449-1.554v0l-1.113.373a1.932,1.932,0,0,1-2.493-1.38c-.605-2.515-1.044-4.851-1.141-5.45-.545-3.1-.957-6.452-1.226-9.973a1.933,1.933,0,0,1,1.781-2.074l3.592-.273a1.933,1.933,0,0,1,1.876,1.065c-.059-.212-.119-.419-.184-.621a1.932,1.932,0,0,1,1.559-2.5l3.842-.568a1.933,1.933,0,0,1,2.166,1.48c.1.426.208.919.309,1.38a8.289,8.289,0,0,1,2.914.823,7.683,7.683,0,0,1,3.981,5.917c.716,4.082-.814,6.519-2.224,7.845a9.735,9.735,0,0,1-3.414,2.012c-.941,2.061-2.478,3.628-6.457,5.406A1.928,1.928,0,0,1,220,421.993Zm-.228-12.572a1.928,1.928,0,0,1,.356.033q-.037-.219-.078-.455c-.054-.306-.105-.59-.153-.855a5.211,5.211,0,0,0-.392,1.295A1.944,1.944,0,0,1,219.77,409.421Zm-4.25-1.813q.08.6.167,1.191c.05-.292.115-.592.2-.9A1.93,1.93,0,0,1,215.52,407.608Z" transform="translate(-45.171 -387.392)" fill="#7ea185"/>
      <path id="パス_10081" data-name="パス 10081" d="M217.846,417.569c2.433-1.3,3.046-2.069,3.456-3.478a5.494,5.494,0,0,1-4.274-2.614l1.66-1.2a3.5,3.5,0,0,0,2.8,2.023,34.136,34.136,0,0,0-.614-4.706c-.364-2.046-.568-3.092-.864-4.524a7.075,7.075,0,0,0-3.524,7.116,41.312,41.312,0,0,0,1.114,4.5l-3.387,1.137c-.591-2.455-1.023-4.751-1.114-5.32-.568-3.228-.955-6.525-1.2-9.8l3.592-.273c0,1.364.2,3.41.341,4.751a7.15,7.15,0,0,1,3.865-3.706c-.273-1.046-.5-2.114-.818-3.115l3.842-.568c.25,1.091.568,2.569.614,2.819,1.546,0,5.638-.068,6.57,5.206,1.069,6.093-3.728,7.525-5.183,7.957-.682,1.864-1.523,3.3-5.8,5.206l-1.046-1.387Zm8.412-11.026c-.546-3.115-1.978-3.683-2.569-3.933.227,1.341.614,3.137.909,4.865a21.555,21.555,0,0,1,.409,3.956c.591-.5,1.841-1.5,1.25-4.888Z" transform="translate(-44.088 -386.309)" fill="#fff"/>
      <path id="パス_10082" data-name="パス 10082" d="M237.8,392.74a1.933,1.933,0,0,1,1.465.672l1.546,1.8a1.933,1.933,0,0,1,.03,2.486c-.756.922-1.786,2.219-2.853,3.595H238a8.738,8.738,0,0,1,8.915,7.559,9.48,9.48,0,0,1-2.573,8.724,14.618,14.618,0,0,1-7.75,3.671,13.6,13.6,0,0,1-2.372.22c-3.748,0-6.515-1.9-7.078-4.837a1.931,1.931,0,0,1-1.239-.306l-3.933-2.569a1.932,1.932,0,0,1-.571-2.66c2.286-3.568,4.718-7.18,6.6-9.928-.975.226-1.859.419-2.559.564a1.933,1.933,0,0,1-2.282-1.5l-.5-2.387a1.933,1.933,0,0,1-.041-.391v-.023a1.932,1.932,0,0,1,1.595-1.909c3.2-.568,8.563-1.622,13.138-2.727A1.932,1.932,0,0,1,237.8,392.74Zm-6.3,12.425a1.933,1.933,0,0,1,.192-1.943c1.381-1.9,3.254-4.337,4.77-6.249-.691.158-1.39.315-2.089.468a1.933,1.933,0,0,1-.263,1.684c-1.126,1.6-4.825,6.911-8.419,12.441l.589.384C228.165,408.61,229.612,406.415,231.5,405.165Zm10.714,8.953a5.845,5.845,0,0,0,.892-4.607,4.858,4.858,0,0,0-3.161-4.05,7.975,7.975,0,0,1,2.421,4.657A8.49,8.49,0,0,1,242.211,414.118Zm-3.71-3.612c-.224-1.006-.875-2.742-2.7-2.742a3.942,3.942,0,0,0-.688.065,4.189,4.189,0,0,0-2.765,1.782q.265-.06.549-.11a9.175,9.175,0,0,1,1.539-.13,7.6,7.6,0,0,1,2.832.514A7.371,7.371,0,0,1,238.5,410.505Z" transform="translate(-32.373 -392.74)" fill="#7ea185"/>
      <path id="パス_10083" data-name="パス 10083" d="M223.463,396.341c3.206-.568,8.639-1.637,13.254-2.751l1.546,1.8c-1.66,2.023-4.342,5.479-6.093,7.889a10.331,10.331,0,0,1,3-.978c4.615-.818,8.025,1.591,8.753,5.8,1.068,6.093-3.569,9.253-8.753,10.162-4.206.75-6.82-.8-7.23-3.137-.341-1.887.546-4.16,4.206-4.8a6.329,6.329,0,0,1,3.319.273c1.841.728,2.455,1.932,3.069,3.478a6.085,6.085,0,0,0,.841-4.706c-.432-2.478-2.114-5.161-5.684-4.524-3.024.523-4.456,2.683-7.821,8.775l-3.933-2.569c3.524-5.5,7.525-11.3,9.5-14.118-2.41.682-5.388,1.387-7.48,1.819l-.5-2.387Zm9.207,16.073a1.722,1.722,0,0,0-1.273,2.205,2.677,2.677,0,0,0,3.183,1.978,5.242,5.242,0,0,0,1.114-.3c-.341-1.5-.978-4.229-3-3.865Z" transform="translate(-31.29 -391.657)" fill="#fff"/>
      <path id="パス_10084" data-name="パス 10084" d="M163.307,419.95a1.928,1.928,0,0,1,.945.247,23.478,23.478,0,0,1,3.453,2.343,1.933,1.933,0,0,1,.217,2.8l-1.349,1.492a4.317,4.317,0,0,0-.617.7l-1.3,1.408c-.183,6.388-1.562,11.084-4.326,14.758-2.49,3.308-6.027,5.8-11.829,8.328a1.932,1.932,0,0,1-2.333-.632l-1.228-1.682a1.932,1.932,0,0,1,.694-2.866c5.945-2.984,9.935-6.806,9.968-15.307l-11.857,2.091a1.932,1.932,0,0,1-2.24-1.575l-.341-1.978a1.932,1.932,0,0,1,1.568-2.231l15.234-2.691q-.012-.068-.019-.137a1.932,1.932,0,0,1,.5-1.515l1.137-1.228a1.931,1.931,0,0,1,1.242-.611l1.081-1.122A1.931,1.931,0,0,1,163.307,419.95Zm-2.529,9.454-.789-.681-.637.113a1.937,1.937,0,0,1,.04.284,22.922,22.922,0,0,1-2.028,12.089C159.419,438.38,160.557,434.687,160.777,429.4Z" transform="translate(-22.173 -377.32)" fill="#7ea185"/>
      <path id="パス_10085" data-name="パス 10085" d="M159.5,425.6l2.16,1.864c-.273,12.618-5.252,17.46-15,21.711l-1.228-1.682c5.843-2.933,11.754-7.434,10.958-19.324l-14.05,2.478-.341-1.978,17.505-3.092Zm2.387,1.228a13.191,13.191,0,0,0-3.092-3.092l1.137-1.228a22.41,22.41,0,0,1,3.524,2.637l-1.569,1.705Zm2.023-2.183a14.54,14.54,0,0,0-2.887-2.592l1.2-1.25a21.509,21.509,0,0,1,3.183,2.16l-1.5,1.66Z" transform="translate(-21.09 -376.237)" fill="#fff"/>
      <path id="パス_10086" data-name="パス 10086" d="M172.366,419.51a1.932,1.932,0,0,1,1.9,1.6l.341,1.978a1.933,1.933,0,0,1-.977,2.025l.17-.03a1.933,1.933,0,0,1,1.149.15l1.91.887a1.932,1.932,0,0,1,1.116,1.656,18.172,18.172,0,0,1-2.327,10.948c-3.437,5.669-9.539,7.464-12.471,8.326a1.932,1.932,0,0,1-2.137-.758l-1.2-1.751a1.932,1.932,0,0,1,.927-2.91c5.9-2.162,8.218-4.754,8.316-9.764l-12.863,2.273a1.933,1.933,0,0,1-2.241-1.575l-.341-1.978a1.932,1.932,0,0,1,1.569-2.231l1.873-.33a1.932,1.932,0,0,1-1.579-1.576l-.341-1.978a1.932,1.932,0,0,1,1.568-2.231l15.3-2.705A1.922,1.922,0,0,1,172.366,419.51Zm1.8,9.622-.289-.134-1.052.185a1.937,1.937,0,0,1,.035.24,16.573,16.573,0,0,1-1.075,8.138q.3-.4.566-.843A13.513,13.513,0,0,0,174.166,429.132Z" transform="translate(-6.293 -377.88)" fill="#7ea185"/>
      <path id="パス_10087" data-name="パス 10087" d="M173.057,425.907l1.91.887a16.313,16.313,0,0,1-2.046,9.844c-3.046,5.024-8.662,6.684-11.367,7.48l-1.2-1.751c6.707-2.455,10.162-5.82,9.5-13.868l-15.05,2.66-.341-1.978,18.6-3.274Zm-1.773-5.547.341,1.978-15.3,2.705-.341-1.978Z" transform="translate(-5.21 -376.798)" fill="#fff"/>
      <path id="パス_10088" data-name="パス 10088" d="M173.532,443.513a1.931,1.931,0,0,1-1.487-.7l-1.114-1.341a1.932,1.932,0,0,1,.7-3,11.565,11.565,0,0,0,5.95-7.778l-.888.577a1.932,1.932,0,0,1-1.229.441h-.023a1.928,1.928,0,0,1-.572-.086,1.931,1.931,0,0,1-.391.388l-2.716,2.016a1.934,1.934,0,0,1-2.78.051l-.023-.023a1.932,1.932,0,0,1-.506-.885,19.012,19.012,0,0,0-3.029-5.477,1.932,1.932,0,0,1,.183-2.7l1.228-1.091a1.932,1.932,0,0,1,2.443-.1c.4.3.916.7,1.5,1.2a1.932,1.932,0,0,1,.519-2.369l1.273-1.023a1.932,1.932,0,0,1,2.3-.087,21.236,21.236,0,0,1,2.978,2.537q-.1-.988-.273-2.068a1.932,1.932,0,0,1,1.886-2.241l4.092-.045a1.932,1.932,0,0,1,1.949,1.8c.4,5.88-.283,10.228-2.138,13.682-1.744,3.247-4.5,5.743-8.933,8.093A1.927,1.927,0,0,1,173.532,443.513Z" transform="translate(8.161 -377.625)" fill="#7ea185"/>
      <path id="パス_10089" data-name="パス 10089" d="M169.266,431.632a21.913,21.913,0,0,0-3.456-6.275l1.228-1.091a27.177,27.177,0,0,1,5.206,5.115l-3,2.228Zm2.092,7.525c4.092-2.364,8.98-6.593,7.048-18.551l4.092-.045c.75,11.117-2.5,15.937-10.049,19.938l-1.114-1.341Zm3.024-10.458a20.186,20.186,0,0,0-2.955-5.638l1.273-1.023a24.5,24.5,0,0,1,4.774,4.638l-3.115,2.023Z" transform="translate(9.243 -376.543)" fill="#fff"/>
      <path id="パス_10090" data-name="パス 10090" d="M181.16,444.622a1.933,1.933,0,0,1-1.651-.929l-.97-1.6a1.932,1.932,0,0,1-.4-1.18v-.023a1.933,1.933,0,0,1,1.6-1.9c3.342-1.122,10.251-3.7,10.268-14.133l-3.241.573a19.686,19.686,0,0,1-7.119,8.489,1.932,1.932,0,0,1-2.5-.217l-1.5-1.523a1.932,1.932,0,0,1,.06-2.77c1.17-1.09,4.28-3.985,3.687-11.483a1.933,1.933,0,0,1,2.064-2.08l5.411.387a1.932,1.932,0,0,1,1.784,2.13c-.03.282-.06.542-.092.789l6.2-1.1a1.933,1.933,0,0,1,1.4.292l1.887,1.25a1.932,1.932,0,0,1,.865,1.59,28.7,28.7,0,0,1-1.734,11.208,18.541,18.541,0,0,1-7.431,8.78,30.274,30.274,0,0,1-8.056,3.374A1.932,1.932,0,0,1,181.16,444.622Zm12.573-22.463a1.934,1.934,0,0,1,.038.256,21.336,21.336,0,0,1-1.984,11.762,15,15,0,0,0,1.817-3.248,23.591,23.591,0,0,0,1.452-8.682l-.384-.254Zm-10.4-2.305a20.46,20.46,0,0,1-.622,5.07c.317-.6.62-1.252.921-1.967a1.534,1.534,0,0,0,.613-1.887c.11-.431.2-.794.267-1.132Z" transform="translate(21.06 -382.554)" fill="#7ea185"/>
      <path id="パス_10091" data-name="パス 10091" d="M178.986,439.834c3.683-1.228,12.89-4.479,11.776-18.347l-6.434,1.137a18.107,18.107,0,0,1-6.888,8.639l-1.5-1.523c1.319-1.228,4.956-4.706,4.3-13.049l5.411.387a20.47,20.47,0,0,1-.614,3.387l8.98-1.591,1.887,1.25a26.913,26.913,0,0,1-1.591,10.458c-3.092,7.525-9.958,9.8-14.232,11.026l-1.091-1.8Z" transform="translate(22.143 -381.471)" fill="#fff"/>
    </g>
  </g>
</svg>
