<svg xmlns="http://www.w3.org/2000/svg" xmlns:xlink="http://www.w3.org/1999/xlink" width="240" height="111" viewBox="0 0 240 111">
  <defs>
    <clipPath id="clip-path">
      <rect id="長方形_1263" data-name="長方形 1263" width="240" height="111" transform="translate(134.485 387.748)" fill="#fff" stroke="#707070" stroke-width="1"/>
    </clipPath>
    <filter id="合体_11" x="-4.845" y="-3.449" width="245.831" height="117.213" filterUnits="userSpaceOnUse">
      <feOffset input="SourceAlpha"/>
      <feGaussianBlur stdDeviation="3.5" result="blur"/>
      <feFlood flood-color="#638f68"/>
      <feComposite operator="in" in2="blur"/>
      <feComposite in="SourceGraphic"/>
    </filter>
    <filter id="合体_12" x="-1.845" y="-0.449" width="239.831" height="111.213" filterUnits="userSpaceOnUse">
      <feOffset input="SourceAlpha"/>
      <feGaussianBlur stdDeviation="2.5" result="blur-2"/>
      <feFlood flood-color="#638f68" flood-opacity="0.71"/>
      <feComposite operator="in" in2="blur-2"/>
      <feComposite in="SourceGraphic"/>
    </filter>
  </defs>
  <g id="マスクグループ_2686" data-name="マスクグループ 2686" transform="translate(-134.485 -387.748)" clip-path="url(#clip-path)">
    <g id="グループ_3929" data-name="グループ 3929" transform="translate(138.08 392.74)">
      <g transform="matrix(1, 0, 0, 1, -3.59, -4.99)" filter="url(#合体_11)">
        <path id="合体_11-2" data-name="合体 11" d="M-1596.516-5078.572c6.23-3.127,12.532-7.927,11.684-20.605l-14.982,2.642-.364-2.108,18.666-3.3v.024l2.3,1.988c-.291,13.454-5.6,18.618-16,23.15Zm32.846-6.06c7.152-2.619,10.837-6.206,10.133-14.787l-16.048,2.835-.364-2.108,19.829-3.491,2.037.945a17.4,17.4,0,0,1-2.182,10.5c-3.248,5.356-9.236,7.126-12.12,7.975Zm27.127-3.152h.023c4.363-2.521,9.576-7.03,7.516-19.781l4.363-.048c.8,11.854-2.667,16.993-10.714,21.259Zm21.926-4.536c3.935-1.313,13.731-4.788,12.544-19.559l-6.86,1.212a19.3,19.3,0,0,1-7.344,9.211l-1.6-1.624c1.406-1.309,5.285-5.018,4.582-13.915l5.769.413a21.848,21.848,0,0,1-.654,3.612l9.575-1.7,2.012,1.333a28.681,28.681,0,0,1-1.7,11.15c-3.3,8.023-10.617,10.449-15.174,11.757Zm-.013-.021.013.021-.013,0Zm-24.144-3.491.011-.008.013.033Zm-3.661-6.667,1.31-1.163a28.951,28.951,0,0,1,5.55,5.454l-3.188,2.368A23.241,23.241,0,0,0-1542.435-5102.5Zm9.115,3.564.02-.013,0,.013Zm-3.127-6.012,1.358-1.091a26.107,26.107,0,0,1,5.09,4.945l-3.3,2.145A21.517,21.517,0,0,0-1536.448-5104.947Zm-42.519,4.34a14.021,14.021,0,0,0-3.3-3.3l1.213-1.309a23.823,23.823,0,0,1,3.757,2.812l-1.673,1.817Zm-.92-5.092,1.285-1.333a23.057,23.057,0,0,1,3.394,2.3l-1.6,1.77v.025A15.5,15.5,0,0,0-1579.887-5105.7Zm11.562.486,16.315-2.885.364,2.109-16.314,2.885Zm-32.071-8.945a18.467,18.467,0,0,1-2.933,3.879l-1.672-1.212a15.343,15.343,0,0,0,2.327-7.975l-2.521.436-.364-2.012,3.807-.679-.388-2.206,4.654-.824.388,2.206,3.491-.6.364,2.012-2.667.459a15.748,15.748,0,0,0,3.805,4.025l-1.127,1.7c-.956-.479-1.842-.958-2.751-1.51l1.139,6.521-4.654.824Zm7.007,2.617c1.284-2.545,2.156-4.678.654-13.211l-2.23-12.678h5.042a16.368,16.368,0,0,0,5.211-2.764l2.643,2.957a35.234,35.234,0,0,1-7.443,1.988l.97,5.431,7.514-1.333.364,2.036-1.647.291,2.86,16.168-.048.024-5.042.9-2.86-16.168-.824.145.218,1.261c1.454,8.193-.34,12.144-3.491,15.805Zm20.192-4.217a30.6,30.6,0,0,0,2.207-6.958l2.206.193v.025a49.792,49.792,0,0,1,.411,7.878Zm-20.046.824.012-.018.036.018Zm26.107-3.08-1.041-5.962,4.775-.849.945,5.406c.218,1.261.267,1.5,1.576,1.261l2.546-.437c1.259-.218,1.745-.315,1.575-3.491l-3.887,2.778a28.351,28.351,0,0,0-2.27-5.444l1.551-1.066c1.019.484,4.8,2.69,5.528,3.126l-.413.291a22.581,22.581,0,0,0,4.218.558c.218,4.243-2.254,4.678-3.733,4.92l-8.12,1.431a6.822,6.822,0,0,1-1.177.129C-1566.312-5115.362-1566.792-5116.023-1567.137-5118.013Zm16.7.268.013-.011.011.034Zm-3.055-7.2,1.091-.994a5.13,5.13,0,0,1-2.86-1.575,17.492,17.492,0,0,1-2.958,2.739l-1.842-1.165c.388-.412.46-.557.8-.945l-8.193,1.454-1.14-6.472,8.461-1.5,1.091,6.206a21.489,21.489,0,0,0,1.721-2.739,25.72,25.72,0,0,1-3.516-8.872l-9.406,1.648.558,3.224c1.018,5.842-.727,9.381-3.079,12.145l-1.7-1.211c.509-1.819,1.018-3.927.1-9.188l-1.09-6.158,14.156-2.5c-.146-.654-.339-1.552-.387-1.842l-.218-1.261,4.9-.873s.364,1.866.583,3.1l1.211-.218a8.826,8.826,0,0,0-1.309-2.351l1.721-1.31a30.643,30.643,0,0,1,4.121,1.672l-2.158,1.576,2.351-.412.364,2.036-5.89,1.042a23.4,23.4,0,0,0,.9,3.516,11,11,0,0,0,.266-3.127l4.9,1.261a27.1,27.1,0,0,1-2.619,6.642c.388.484.752.945.994.9.679-.121.388-2.206.316-2.787a12.348,12.348,0,0,0,2.835,1.381c.049,2.254.073,5.406-2.86,5.939a42.554,42.554,0,0,1,5.212,4.484l-4.351,3.723C-1551.6-5121.462-1552.063-5122.818-1553.488-5124.945Zm-10.982-5.576.413,2.4.945-.17-.411-2.4Zm3.806,11.225.015-.011.009.034Zm19.926-2.037c2.328-.558,6.133-2.085,6.037-5.867l-2.376.413-1.722-9.722-3.587.631v-.025l-.97-5.5,3.369-.583a27.808,27.808,0,0,0-2.617-4.412l1.5-1.381a33.348,33.348,0,0,1,6.012,3.054l-3.03,2.4,4.872-.849a25.523,25.523,0,0,0-2.691-4.75l1.721-1.333a29.955,29.955,0,0,1,5.721,3.273l-3.612,2.617,5.793-1.018-1.406-.315a19.678,19.678,0,0,0,.824-5.867l6.182,1.042c-.413.679-2.958,4.195-3.4,4.752l5.576-.995.97,5.5-3.734.654,1.722,9.721-3.66.654.557,3.1c.122.727.291,1.188,1.381.994l.728-.122c1.09-.193,1.527-.315,1.042-5.115a17.463,17.463,0,0,0,4.727.679c-.17,4.993-.776,5.649-3.564,6.158l-5.842,1.042c-2.546.436-3.079-.146-3.491-2.521l-.582-3.321-1.285.218c.218,3.344-3.151,7.053-9.745,8.459Zm8.025-9.745.243,1.381,7.514-1.333-.243-1.381Zm-.558-3.224.219,1.211,7.514-1.333-.218-1.212Zm-.582-3.225.195,1.188,7.514-1.333h.025l-.218-1.188Zm-4.314-2.667.218,1.285,15.1-2.667-.218-1.286Zm-68.627,14.521,2.3-.413a26.026,26.026,0,0,0-1.794-4.582l1.381-1.018-2.326.413-.364-2.012,3.636-.631-.461-2.569,4.9-.873.46,2.569,3.37-.582.364,2.012-3.007.532,4.092.674a34.519,34.519,0,0,1-2.661,4.731l2.933-.509.365,2.037-12.824,2.253Zm2.449-6.109a23.141,23.141,0,0,1,4.363,3.468l-3.564,2.06,5.406-.946-1.891-.339.025-.024a16.3,16.3,0,0,0,.1-4.993Zm100.116,3.636h.023c2.837-1.042,10.012-3.636,8.388-12.823-.413-2.3-1.333-4.485-4.218-3.977-3.175.559-6.569,3.709-8.872,5.964l-2.351-3.007c2.69-1.842,7.466-5.066,11.975-5.842,4.339-.775,7.951,1.625,8.775,6.376a10.851,10.851,0,0,1-1.915,8.338c-3.151,4.291-7.927,5.964-10.326,6.812Zm-90.013-4,.005-.019.025.023Zm115.756-4.043c-.364-2.012.583-4.436,4.485-5.115a6.757,6.757,0,0,1,3.539.291c1.963.776,2.619,2.061,3.273,3.685a6.459,6.459,0,0,0,.9-5.018c-.461-2.642-2.255-5.5-6.062-4.824-3.224.558-4.727,2.861-8.339,9.357l-4.193-2.739c3.757-5.867,8.023-12.048,10.133-15.053-2.569.727-5.745,1.478-7.975,1.938l-.534-2.544h-.025c3.418-.606,9.212-1.747,14.133-2.933l1.649,1.915c-1.77,2.156-4.631,5.841-6.5,8.411a11.017,11.017,0,0,1,3.2-1.042c4.922-.872,8.558,1.7,9.358,6.181,1.14,6.5-3.806,9.867-9.333,10.836a12.379,12.379,0,0,1-2.173.2C-1476.157-5132.644-1478.125-5134.129-1478.487-5136.193Zm3.661-.533a2.854,2.854,0,0,0,3.394,2.109,5.584,5.584,0,0,0,1.188-.315c-.363-1.6-1.042-4.509-3.2-4.121l-.023-.024A1.836,1.836,0,0,0-1474.826-5136.727Zm-94.492,1.285,8.557-1.5.363,2.037-8.557,1.5Zm118.9-3.661a31.358,31.358,0,0,0,3.442-.436c1.333-.243,7.636-1.381,6.787-6.23-.557-3.175-3.1-3.9-5.454-3.49-4.1.727-5.284,4.557-5.649,5.793l-4.363-1.018a101.325,101.325,0,0,0,1.771-10.375c-3.079.631-3.661.727-4.509.9l-.376-2.185c1.977-.385,2.345-.434,5.2-1.016a51.738,51.738,0,0,0,.436-5.309l5.115.146c-.1.873-.169,1.551-.534,4.1,6.425-1.431,7.418-1.721,9.042-2.23l.339,2.278c-3.442.921-7.635,1.842-9.72,2.3-.17,1.091-.582,3.879-1.018,6.206a11.736,11.736,0,0,1,5.672-2.642c4.145-.727,8.315.7,9.138,5.356a6.809,6.809,0,0,1-2.011,6.278c-2.328,2.28-7.055,3.055-12.291,3.927Zm26.058-2.594-.023-.023c2.594-1.383,3.248-2.207,3.684-3.709a5.859,5.859,0,0,1-4.558-2.788l1.771-1.285a3.732,3.732,0,0,0,2.981,2.158,36.264,36.264,0,0,0-.654-5.019c-.388-2.181-.606-3.3-.922-4.823a7.544,7.544,0,0,0-3.757,7.587,44,44,0,0,0,1.188,4.8l-3.612,1.212c-.63-2.617-1.091-5.067-1.188-5.672-.606-3.443-1.018-6.957-1.284-10.448l3.83-.291c0,1.454.218,3.637.364,5.066a7.628,7.628,0,0,1,4.121-3.951c-.291-1.115-.534-2.255-.872-3.321l4.1-.606c.267,1.164.606,2.739.656,3.006,1.647,0,6.011-.073,7.005,5.551,1.139,6.5-3.975,8.024-5.527,8.484-.728,1.989-1.624,3.516-6.182,5.551Zm7.176-10.787a22.967,22.967,0,0,1,.436,4.218c.631-.534,1.964-1.6,1.333-5.211-.582-3.322-2.108-3.927-2.739-4.195C-1417.908-5156.241-1417.5-5154.326-1417.181-5152.483Zm17.211,2.448c-.364-2.012.583-4.436,4.485-5.115a6.757,6.757,0,0,1,3.539.291c1.963.776,2.619,2.061,3.273,3.709a6.494,6.494,0,0,0,.9-5.018c-.461-2.642-2.255-5.5-6.062-4.824-3.224.558-4.75,2.86-8.339,9.356l-4.193-2.739c3.757-5.866,8.023-12.048,10.133-15.053-2.569.727-5.745,1.479-7.975,1.939l-.534-2.546v-.023c3.418-.606,9.211-1.746,14.133-2.934l1.649,1.917c-1.771,2.156-4.631,5.841-6.5,8.411a11.024,11.024,0,0,1,3.2-1.042c4.922-.873,8.557,1.7,9.333,6.181,1.14,6.5-3.806,9.867-9.333,10.836a12.426,12.426,0,0,1-2.173.2C-1397.64-5146.486-1399.609-5147.971-1399.97-5150.035Zm3.686-.534a2.854,2.854,0,0,0,3.394,2.11,5.606,5.606,0,0,0,1.188-.315c-.365-1.6-1.043-4.509-3.2-4.121l-.025-.025A1.835,1.835,0,0,0-1396.285-5150.569Zm-100.141,1.528a23.136,23.136,0,0,0-12.581-1.746l.582-2.351a41.261,41.261,0,0,1,13.381-.752l-1.357,4.874Zm37.647-7.177.012.07-.012,0Z" transform="translate(1613.25 5180.04)" fill="#fff"/>
      </g>
      <g transform="matrix(1, 0, 0, 1, -3.59, -4.99)" filter="url(#合体_12)">
        <path id="合体_12-2" data-name="合体 12" d="M-1596.516-5078.572c6.23-3.127,12.532-7.927,11.684-20.605l-14.982,2.642-.364-2.108,18.666-3.3v.024l2.3,1.988c-.291,13.454-5.6,18.618-16,23.15Zm32.846-6.06c7.152-2.619,10.837-6.206,10.133-14.787l-16.048,2.835-.364-2.108,19.829-3.491,2.037.945a17.4,17.4,0,0,1-2.182,10.5c-3.248,5.356-9.236,7.126-12.12,7.975Zm27.127-3.152h.023c4.363-2.521,9.576-7.03,7.516-19.781l4.363-.048c.8,11.854-2.667,16.993-10.714,21.259Zm21.926-4.536c3.935-1.313,13.731-4.788,12.544-19.559l-6.86,1.212a19.3,19.3,0,0,1-7.344,9.211l-1.6-1.624c1.406-1.309,5.285-5.018,4.582-13.915l5.769.413a21.848,21.848,0,0,1-.654,3.612l9.575-1.7,2.012,1.333a28.681,28.681,0,0,1-1.7,11.15c-3.3,8.023-10.617,10.449-15.174,11.757Zm-.013-.021.013.021-.013,0Zm-24.144-3.491.011-.008.013.033Zm-3.661-6.667,1.31-1.163a28.951,28.951,0,0,1,5.55,5.454l-3.188,2.368A23.241,23.241,0,0,0-1542.435-5102.5Zm9.115,3.564.02-.013,0,.013Zm-3.127-6.012,1.358-1.091a26.107,26.107,0,0,1,5.09,4.945l-3.3,2.145A21.517,21.517,0,0,0-1536.448-5104.947Zm-42.519,4.34a14.021,14.021,0,0,0-3.3-3.3l1.213-1.309a23.823,23.823,0,0,1,3.757,2.812l-1.673,1.817Zm-.92-5.092,1.285-1.333a23.057,23.057,0,0,1,3.394,2.3l-1.6,1.77v.025A15.5,15.5,0,0,0-1579.887-5105.7Zm11.562.486,16.315-2.885.364,2.109-16.314,2.885Zm-32.071-8.945a18.467,18.467,0,0,1-2.933,3.879l-1.672-1.212a15.343,15.343,0,0,0,2.327-7.975l-2.521.436-.364-2.012,3.807-.679-.388-2.206,4.654-.824.388,2.206,3.491-.6.364,2.012-2.667.459a15.748,15.748,0,0,0,3.805,4.025l-1.127,1.7c-.956-.479-1.842-.958-2.751-1.51l1.139,6.521-4.654.824Zm7.007,2.617c1.284-2.545,2.156-4.678.654-13.211l-2.23-12.678h5.042a16.368,16.368,0,0,0,5.211-2.764l2.643,2.957a35.234,35.234,0,0,1-7.443,1.988l.97,5.431,7.514-1.333.364,2.036-1.647.291,2.86,16.168-.048.024-5.042.9-2.86-16.168-.824.145.218,1.261c1.454,8.193-.34,12.144-3.491,15.805Zm20.192-4.217a30.6,30.6,0,0,0,2.207-6.958l2.206.193v.025a49.792,49.792,0,0,1,.411,7.878Zm-20.046.824.012-.018.036.018Zm26.107-3.08-1.041-5.962,4.775-.849.945,5.406c.218,1.261.267,1.5,1.576,1.261l2.546-.437c1.259-.218,1.745-.315,1.575-3.491l-3.887,2.778a28.351,28.351,0,0,0-2.27-5.444l1.551-1.066c1.019.484,4.8,2.69,5.528,3.126l-.413.291a22.581,22.581,0,0,0,4.218.558c.218,4.243-2.254,4.678-3.733,4.92l-8.12,1.431a6.822,6.822,0,0,1-1.177.129C-1566.312-5115.362-1566.792-5116.023-1567.137-5118.013Zm16.7.268.013-.011.011.034Zm-3.055-7.2,1.091-.994a5.13,5.13,0,0,1-2.86-1.575,17.492,17.492,0,0,1-2.958,2.739l-1.842-1.165c.388-.412.46-.557.8-.945l-8.193,1.454-1.14-6.472,8.461-1.5,1.091,6.206a21.489,21.489,0,0,0,1.721-2.739,25.72,25.72,0,0,1-3.516-8.872l-9.406,1.648.558,3.224c1.018,5.842-.727,9.381-3.079,12.145l-1.7-1.211c.509-1.819,1.018-3.927.1-9.188l-1.09-6.158,14.156-2.5c-.146-.654-.339-1.552-.387-1.842l-.218-1.261,4.9-.873s.364,1.866.583,3.1l1.211-.218a8.826,8.826,0,0,0-1.309-2.351l1.721-1.31a30.643,30.643,0,0,1,4.121,1.672l-2.158,1.576,2.351-.412.364,2.036-5.89,1.042a23.4,23.4,0,0,0,.9,3.516,11,11,0,0,0,.266-3.127l4.9,1.261a27.1,27.1,0,0,1-2.619,6.642c.388.484.752.945.994.9.679-.121.388-2.206.316-2.787a12.348,12.348,0,0,0,2.835,1.381c.049,2.254.073,5.406-2.86,5.939a42.554,42.554,0,0,1,5.212,4.484l-4.351,3.723C-1551.6-5121.462-1552.063-5122.818-1553.488-5124.945Zm-10.982-5.576.413,2.4.945-.17-.411-2.4Zm3.806,11.225.015-.011.009.034Zm19.926-2.037c2.328-.558,6.133-2.085,6.037-5.867l-2.376.413-1.722-9.722-3.587.631v-.025l-.97-5.5,3.369-.583a27.808,27.808,0,0,0-2.617-4.412l1.5-1.381a33.348,33.348,0,0,1,6.012,3.054l-3.03,2.4,4.872-.849a25.523,25.523,0,0,0-2.691-4.75l1.721-1.333a29.955,29.955,0,0,1,5.721,3.273l-3.612,2.617,5.793-1.018-1.406-.315a19.678,19.678,0,0,0,.824-5.867l6.182,1.042c-.413.679-2.958,4.195-3.4,4.752l5.576-.995.97,5.5-3.734.654,1.722,9.721-3.66.654.557,3.1c.122.727.291,1.188,1.381.994l.728-.122c1.09-.193,1.527-.315,1.042-5.115a17.463,17.463,0,0,0,4.727.679c-.17,4.993-.776,5.649-3.564,6.158l-5.842,1.042c-2.546.436-3.079-.146-3.491-2.521l-.582-3.321-1.285.218c.218,3.344-3.151,7.053-9.745,8.459Zm8.025-9.745.243,1.381,7.514-1.333-.243-1.381Zm-.558-3.224.219,1.211,7.514-1.333-.218-1.212Zm-.582-3.225.195,1.188,7.514-1.333h.025l-.218-1.188Zm-4.314-2.667.218,1.285,15.1-2.667-.218-1.286Zm-68.627,14.521,2.3-.413a26.026,26.026,0,0,0-1.794-4.582l1.381-1.018-2.326.413-.364-2.012,3.636-.631-.461-2.569,4.9-.873.46,2.569,3.37-.582.364,2.012-3.007.532,4.092.674a34.519,34.519,0,0,1-2.661,4.731l2.933-.509.365,2.037-12.824,2.253Zm2.449-6.109a23.141,23.141,0,0,1,4.363,3.468l-3.564,2.06,5.406-.946-1.891-.339.025-.024a16.3,16.3,0,0,0,.1-4.993Zm100.116,3.636h.023c2.837-1.042,10.012-3.636,8.388-12.823-.413-2.3-1.333-4.485-4.218-3.977-3.175.559-6.569,3.709-8.872,5.964l-2.351-3.007c2.69-1.842,7.466-5.066,11.975-5.842,4.339-.775,7.951,1.625,8.775,6.376a10.851,10.851,0,0,1-1.915,8.338c-3.151,4.291-7.927,5.964-10.326,6.812Zm-90.013-4,.005-.019.025.023Zm115.756-4.043c-.364-2.012.583-4.436,4.485-5.115a6.757,6.757,0,0,1,3.539.291c1.963.776,2.619,2.061,3.273,3.685a6.459,6.459,0,0,0,.9-5.018c-.461-2.642-2.255-5.5-6.062-4.824-3.224.558-4.727,2.861-8.339,9.357l-4.193-2.739c3.757-5.867,8.023-12.048,10.133-15.053-2.569.727-5.745,1.478-7.975,1.938l-.534-2.544h-.025c3.418-.606,9.212-1.747,14.133-2.933l1.649,1.915c-1.77,2.156-4.631,5.841-6.5,8.411a11.017,11.017,0,0,1,3.2-1.042c4.922-.872,8.558,1.7,9.358,6.181,1.14,6.5-3.806,9.867-9.333,10.836a12.379,12.379,0,0,1-2.173.2C-1476.157-5132.644-1478.125-5134.129-1478.487-5136.193Zm3.661-.533a2.854,2.854,0,0,0,3.394,2.109,5.584,5.584,0,0,0,1.188-.315c-.363-1.6-1.042-4.509-3.2-4.121l-.023-.024A1.836,1.836,0,0,0-1474.826-5136.727Zm-94.492,1.285,8.557-1.5.363,2.037-8.557,1.5Zm118.9-3.661a31.358,31.358,0,0,0,3.442-.436c1.333-.243,7.636-1.381,6.787-6.23-.557-3.175-3.1-3.9-5.454-3.49-4.1.727-5.284,4.557-5.649,5.793l-4.363-1.018a101.325,101.325,0,0,0,1.771-10.375c-3.079.631-3.661.727-4.509.9l-.376-2.185c1.977-.385,2.345-.434,5.2-1.016a51.738,51.738,0,0,0,.436-5.309l5.115.146c-.1.873-.169,1.551-.534,4.1,6.425-1.431,7.418-1.721,9.042-2.23l.339,2.278c-3.442.921-7.635,1.842-9.72,2.3-.17,1.091-.582,3.879-1.018,6.206a11.736,11.736,0,0,1,5.672-2.642c4.145-.727,8.315.7,9.138,5.356a6.809,6.809,0,0,1-2.011,6.278c-2.328,2.28-7.055,3.055-12.291,3.927Zm26.058-2.594-.023-.023c2.594-1.383,3.248-2.207,3.684-3.709a5.859,5.859,0,0,1-4.558-2.788l1.771-1.285a3.732,3.732,0,0,0,2.981,2.158,36.264,36.264,0,0,0-.654-5.019c-.388-2.181-.606-3.3-.922-4.823a7.544,7.544,0,0,0-3.757,7.587,44,44,0,0,0,1.188,4.8l-3.612,1.212c-.63-2.617-1.091-5.067-1.188-5.672-.606-3.443-1.018-6.957-1.284-10.448l3.83-.291c0,1.454.218,3.637.364,5.066a7.628,7.628,0,0,1,4.121-3.951c-.291-1.115-.534-2.255-.872-3.321l4.1-.606c.267,1.164.606,2.739.656,3.006,1.647,0,6.011-.073,7.005,5.551,1.139,6.5-3.975,8.024-5.527,8.484-.728,1.989-1.624,3.516-6.182,5.551Zm7.176-10.787a22.967,22.967,0,0,1,.436,4.218c.631-.534,1.964-1.6,1.333-5.211-.582-3.322-2.108-3.927-2.739-4.195C-1417.908-5156.241-1417.5-5154.326-1417.181-5152.483Zm17.211,2.448c-.364-2.012.583-4.436,4.485-5.115a6.757,6.757,0,0,1,3.539.291c1.963.776,2.619,2.061,3.273,3.709a6.494,6.494,0,0,0,.9-5.018c-.461-2.642-2.255-5.5-6.062-4.824-3.224.558-4.75,2.86-8.339,9.356l-4.193-2.739c3.757-5.866,8.023-12.048,10.133-15.053-2.569.727-5.745,1.479-7.975,1.939l-.534-2.546v-.023c3.418-.606,9.211-1.746,14.133-2.934l1.649,1.917c-1.771,2.156-4.631,5.841-6.5,8.411a11.024,11.024,0,0,1,3.2-1.042c4.922-.873,8.557,1.7,9.333,6.181,1.14,6.5-3.806,9.867-9.333,10.836a12.426,12.426,0,0,1-2.173.2C-1397.64-5146.486-1399.609-5147.971-1399.97-5150.035Zm3.686-.534a2.854,2.854,0,0,0,3.394,2.11,5.606,5.606,0,0,0,1.188-.315c-.365-1.6-1.043-4.509-3.2-4.121l-.025-.025A1.835,1.835,0,0,0-1396.285-5150.569Zm-100.141,1.528a23.136,23.136,0,0,0-12.581-1.746l.582-2.351a41.261,41.261,0,0,1,13.381-.752l-1.357,4.874Zm37.647-7.177.012.07-.012,0Z" transform="translate(1613.25 5180.04)" fill="#fff"/>
      </g>
    </g>
  </g>
</svg>
