<svg xmlns="http://www.w3.org/2000/svg" width="176.572" height="29.879" viewBox="0 0 176.572 29.879">
  <path id="パス_10334" data-name="パス 10334" d="M-87.474.164c4.8-.082,8.9-.164,12.3-.164,4.264,0,8.446.041,12.546.082l.164-8.2h-1.681c-.82,4.264-3.28,6.15-7.872,6.15-4.141,0-5.166-1.312-5.166-5.412V-22.386c0-2.706.738-3.485,3.69-3.485h.246v-1.64c-3.2.082-5.617.123-7.134.123-2.05,0-4.428-.041-7.093-.123v1.64h.205c2.706,0,3.567.779,3.567,3.239V-5.658c0,3.075-.7,4.1-3.444,4.1h-.328ZM-60.5.123C-58.692.041-56.724,0-54.633,0c.82,0,2.5.041,5.125.123V-1.435c-2.173-.123-2.583-.451-2.583-2.173V-18.614h-.615a37.465,37.465,0,0,1-7.79,1.435v1.435c2.091.082,2.583.492,2.583,2.46v9.676c0,1.681-.369,2.05-2.583,2.173Zm2.132-26.035A3.115,3.115,0,0,0-55.248-22.8a3.115,3.115,0,0,0,3.116-3.116,3.089,3.089,0,0,0-3.116-3.116A3.089,3.089,0,0,0-58.364-25.912ZM-36.675-2.05C-36.1-.205-34.953.574-32.9.574a6.122,6.122,0,0,0,4.756-2.419l-.861-1.107a2.976,2.976,0,0,1-1.353.615c-.533,0-.738-.328-.738-1.148v-9.676c0-3.567-2.624-5.33-7.79-5.33-4.92,0-7.667,1.64-7.667,3.936a2.218,2.218,0,0,0,2.3,2.3c1.927,0,2.255-1.558,2.911-2.993a2.735,2.735,0,0,1,2.542-1.64c1.476,0,2.3.861,2.3,2.542v1.394a1.3,1.3,0,0,1-1.025,1.394L-40.447-10.5c-4.674,1.763-6.806,3.2-6.806,6.437,0,2.829,1.8,4.633,4.756,4.633C-40.447.574-38.643-.287-36.675-2.05Zm-.041-3.485a2.787,2.787,0,0,1-2.829,2.747c-1.148,0-1.968-.943-1.968-2.5,0-2.337,1.517-3.731,4.8-4.756ZM-26.794.082C-24.375,0-22.612,0-21.382,0c1.968,0,3.936.041,5.822.082V-1.435c-2.132,0-2.87-.328-2.87-2.009v-7.708c0-2.009,1.312-3.9,2.378-3.9.984,0,1.353,2.132,3.239,2.132a2.357,2.357,0,0,0,2.542-2.5c0-1.845-1.23-2.911-3.362-2.911-1.8,0-3.649,1.107-5.166,3.362l-.328-3.567h-.7A28.933,28.933,0,0,1-26.753-17.1v1.435c2.132.041,2.542,1.066,2.542,3.731v8.364c0,1.558-.574,1.927-2.583,2.132ZM2.931.123C4.243,0,5.842,0,7.728,0c3.854,0,6.97.041,9.43.123V-1.558h-.246c-3.075,0-3.9-.861-3.9-3.526v-7.3c.7.041,1.394.041,2.009.041,8.282,0,12.218-2.419,12.218-7.749,0-5.289-4.141-7.339-12.792-7.339-2.993,0-5.33.082-7.052.082-1.271,0-2.788,0-4.469-.123v1.6c3.034.2,3.608.82,3.608,3.362v17.63c0,2.419-.738,3.116-3.608,3.321ZM13.017-14.391v-9.963c0-.9.533-1.107,2.173-1.107,3.28,0,5.043,1.8,5.043,5.248,0,4.182-1.763,5.863-6.109,5.863A9.991,9.991,0,0,1,13.017-14.391ZM29.663.123C31.467.041,33.435,0,35.526,0c.82,0,2.5.041,5.125.123V-1.435c-2.173-.123-2.583-.451-2.583-2.173V-18.614h-.615a37.465,37.465,0,0,1-7.79,1.435v1.435c2.091.082,2.583.492,2.583,2.46v9.676c0,1.681-.369,2.05-2.583,2.173ZM31.8-25.912A3.115,3.115,0,0,0,34.911-22.8a3.115,3.115,0,0,0,3.116-3.116,3.089,3.089,0,0,0-3.116-3.116A3.089,3.089,0,0,0,31.8-25.912ZM42.906.123C44.669.041,46.31,0,47.868,0c1.394,0,3.28.041,5.7.123V-1.353C51.6-1.394,51.147-2.009,51.147-3.9v-6.4c0-3.239,1.64-5.207,3.977-5.207,1.64,0,2.46,1.189,2.46,3.526V-3.69c0,1.845-.41,2.337-2.337,2.337V.123C57.215.041,58.938,0,60.372,0c1.681,0,3.444.041,5.33.123V-1.353c-2.255-.164-2.419-.533-2.419-2.337v-8.282c0-4.346-1.968-6.519-5.781-6.519a8.258,8.258,0,0,0-6.683,3.608l-.246-3.608h-.7a28.537,28.537,0,0,1-6.97,1.435v1.517c2.05,0,2.542.533,2.542,2.706V-3.69c0,1.763-.205,2.132-2.542,2.337Zm24.559,0C68.45.041,70.951,0,74.928,0c1.353,0,2.378.041,3.2.123V-1.353c-2.05-.246-2.5-.615-2.5-2.255V-6.642l1.394-1.312L82.759.123A15.422,15.422,0,0,1,85.219,0c.984,0,2.255.041,3.854.123V-1.435h-.082a1.97,1.97,0,0,1-1.476-.779L80.5-11.439l3.034-3.116a7.617,7.617,0,0,1,4.51-2.214v-1.353c-1.312.082-2.706.123-4.059.123-1.64,0-3.321-.041-5-.123v1.353c1.64.041,2.419.41,2.419,1.189s-.82,1.517-2.091,2.788L75.625-9.1V-29.151a26.988,26.988,0,0,1-8.159,1.64v1.517h.205c1.8,0,2.337.574,2.337,2.378V-3.608c0,1.64-.41,2.05-2.542,2.255Z" transform="translate(87.474 29.227) rotate(0.05)" fill="#d77298"/>
</svg>
