<svg xmlns="http://www.w3.org/2000/svg" xmlns:xlink="http://www.w3.org/1999/xlink" width="325.739" height="75.014" viewBox="0 0 325.739 75.014">
  <defs>
    <filter id="パス_10336" x="0" y="0.001" width="325.464" height="75.013" filterUnits="userSpaceOnUse">
      <feOffset input="SourceAlpha"/>
      <feGaussianBlur stdDeviation="4" result="blur"/>
      <feFlood flood-color="#c93d6c"/>
      <feComposite operator="in" in2="blur"/>
      <feComposite in="SourceGraphic"/>
    </filter>
    <filter id="パス_10335" x="0.275" y="0" width="325.464" height="75.013" filterUnits="userSpaceOnUse">
      <feOffset input="SourceAlpha"/>
      <feGaussianBlur stdDeviation="4" result="blur-2"/>
      <feFlood flood-color="#c93d6c"/>
      <feComposite operator="in" in2="blur-2"/>
      <feComposite in="SourceGraphic"/>
    </filter>
  </defs>
  <g id="グループ_3947" data-name="グループ 3947" transform="translate(-862.014 -323.829)">
    <g transform="matrix(1, 0, 0, 1, 862.01, 323.83)" filter="url(#パス_10336)">
      <path id="パス_10336-2" data-name="パス 10336" d="M2.38.28C10.57.14,17.57,0,23.38,0,30.66,0,37.8.07,44.8.14l.28-14H42.21c-1.4,7.28-5.6,10.5-13.44,10.5-7.07,0-8.82-2.24-8.82-9.24V-38.22c0-4.62,1.26-5.95,6.3-5.95h.42v-2.8c-5.46.14-9.59.21-12.18.21-3.5,0-7.56-.07-12.11-.21v2.8h.35c4.62,0,6.09,1.33,6.09,5.53V-9.66c0,5.25-1.19,7-5.88,7H2.38ZM48.44.21C51.52.07,54.88,0,58.45,0c1.4,0,4.27.07,8.75.21V-2.45c-3.71-.21-4.41-.77-4.41-3.71V-31.78H61.74a63.964,63.964,0,0,1-13.3,2.45v2.45c3.57.14,4.41.84,4.41,4.2V-6.16c0,2.87-.63,3.5-4.41,3.71Zm3.64-44.45a5.318,5.318,0,0,0,5.32,5.32,5.318,5.318,0,0,0,5.32-5.32,5.273,5.273,0,0,0-5.32-5.32A5.273,5.273,0,0,0,52.08-44.24ZM89.11-3.5C90.09-.35,92.05.98,95.55.98a10.453,10.453,0,0,0,8.12-4.13L102.2-5.04a5.082,5.082,0,0,1-2.31,1.05c-.91,0-1.26-.56-1.26-1.96V-22.47c0-6.09-4.48-9.1-13.3-9.1-8.4,0-13.09,2.8-13.09,6.72a3.787,3.787,0,0,0,3.92,3.92c3.29,0,3.85-2.66,4.97-5.11a4.669,4.669,0,0,1,4.34-2.8c2.52,0,3.92,1.47,3.92,4.34v2.38a2.223,2.223,0,0,1-1.75,2.38l-4.97,1.82c-7.98,3.01-11.62,5.46-11.62,10.99,0,4.83,3.08,7.91,8.12,7.91C82.67.98,85.75-.49,89.11-3.5Zm-.07-5.95a4.759,4.759,0,0,1-4.83,4.69c-1.96,0-3.36-1.61-3.36-4.27,0-3.99,2.59-6.37,8.19-8.12ZM105.98.14C110.11,0,113.12,0,115.22,0c3.36,0,6.72.07,9.94.14V-2.45c-3.64,0-4.9-.56-4.9-3.43V-19.04c0-3.43,2.24-6.65,4.06-6.65,1.68,0,2.31,3.64,5.53,3.64a4.025,4.025,0,0,0,4.34-4.27c0-3.15-2.1-4.97-5.74-4.97-3.08,0-6.23,1.89-8.82,5.74l-.56-6.09h-1.19a49.4,49.4,0,0,1-11.83,2.45v2.45c3.64.07,4.34,1.82,4.34,6.37V-6.09c0,2.66-.98,3.29-4.41,3.64Zm50.75.07C158.97,0,161.7,0,164.92,0c6.58,0,11.9.07,16.1.21V-2.66h-.42c-5.25,0-6.65-1.47-6.65-6.02V-21.14c1.19.07,2.38.07,3.43.07,14.14,0,20.86-4.13,20.86-13.23,0-9.03-7.07-12.53-21.84-12.53-5.11,0-9.1.14-12.04.14-2.17,0-4.76,0-7.63-.21v2.73c5.18.35,6.16,1.4,6.16,5.74v30.1c0,4.13-1.26,5.32-6.16,5.67Zm17.22-24.78V-41.58c0-1.54.91-1.89,3.71-1.89,5.6,0,8.61,3.08,8.61,8.96,0,7.14-3.01,10.01-10.43,10.01A17.058,17.058,0,0,1,173.95-24.57ZM202.37.21C205.45.07,208.81,0,212.38,0c1.4,0,4.27.07,8.75.21V-2.45c-3.71-.21-4.41-.77-4.41-3.71V-31.78h-1.05a63.964,63.964,0,0,1-13.3,2.45v2.45c3.57.14,4.41.84,4.41,4.2V-6.16c0,2.87-.63,3.5-4.41,3.71Zm3.64-44.45a5.318,5.318,0,0,0,5.32,5.32,5.318,5.318,0,0,0,5.32-5.32,5.273,5.273,0,0,0-5.32-5.32A5.273,5.273,0,0,0,206.01-44.24ZM224.98.21c3.01-.14,5.81-.21,8.47-.21,2.38,0,5.6.07,9.73.21V-2.31c-3.36-.07-4.13-1.12-4.13-4.34V-17.57c0-5.53,2.8-8.89,6.79-8.89,2.8,0,4.2,2.03,4.2,6.02V-6.3c0,3.15-.7,3.99-3.99,3.99V.21c3.36-.14,6.3-.21,8.75-.21,2.87,0,5.88.07,9.1.21V-2.31c-3.85-.28-4.13-.91-4.13-3.99V-20.44c0-7.42-3.36-11.13-9.87-11.13-4.41,0-8.19,2.03-11.41,6.16l-.42-6.16h-1.19a48.722,48.722,0,0,1-11.9,2.45v2.59c3.5,0,4.34.91,4.34,4.62V-6.3c0,3.01-.35,3.64-4.34,3.99Zm41.93,0C268.59.07,272.86,0,279.65,0c2.31,0,4.06.07,5.46.21V-2.31c-3.5-.42-4.27-1.05-4.27-3.85v-5.18l2.38-2.24L293.02.21a26.33,26.33,0,0,1,4.2-.21c1.68,0,3.85.07,6.58.21V-2.45h-.14a3.363,3.363,0,0,1-2.52-1.33L289.17-19.53l5.18-5.32a13,13,0,0,1,7.7-3.78v-2.31c-2.24.14-4.62.21-6.93.21-2.8,0-5.67-.07-8.54-.21v2.31c2.8.07,4.13.7,4.13,2.03s-1.4,2.59-3.57,4.76l-6.3,6.3V-49.77a46.077,46.077,0,0,1-13.93,2.8v2.59h.35c3.08,0,3.99.98,3.99,4.06V-6.16c0,2.8-.7,3.5-4.34,3.85Z" transform="translate(9.62 61.77) rotate(0.05)" fill="#fff"/>
    </g>
    <g transform="matrix(1, 0, 0, 1, 862.01, 323.83)" filter="url(#パス_10335)">
      <path id="パス_10335-2" data-name="パス 10335" d="M-149.345.28c8.19-.14,15.19-.28,21-.28,7.28,0,14.42.07,21.42.14l.28-14h-2.87c-1.4,7.28-5.6,10.5-13.44,10.5-7.07,0-8.82-2.24-8.82-9.24V-38.22c0-4.62,1.26-5.95,6.3-5.95h.42v-2.8c-5.46.14-9.59.21-12.18.21-3.5,0-7.56-.07-12.11-.21v2.8h.35c4.62,0,6.09,1.33,6.09,5.53V-9.66c0,5.25-1.19,7-5.88,7h-.56Zm46.06-.07C-100.2.07-96.845,0-93.275,0c1.4,0,4.27.07,8.75.21V-2.45c-3.71-.21-4.41-.77-4.41-3.71V-31.78h-1.05a63.964,63.964,0,0,1-13.3,2.45v2.45c3.57.14,4.41.84,4.41,4.2V-6.16c0,2.87-.63,3.5-4.41,3.71Zm3.64-44.45a5.318,5.318,0,0,0,5.32,5.32A5.318,5.318,0,0,0-89-44.24a5.273,5.273,0,0,0-5.32-5.32A5.273,5.273,0,0,0-99.645-44.24ZM-62.615-3.5c.98,3.15,2.94,4.48,6.44,4.48a10.453,10.453,0,0,0,8.12-4.13l-1.47-1.89a5.082,5.082,0,0,1-2.31,1.05c-.91,0-1.26-.56-1.26-1.96V-22.47c0-6.09-4.48-9.1-13.3-9.1-8.4,0-13.09,2.8-13.09,6.72a3.787,3.787,0,0,0,3.92,3.92c3.29,0,3.85-2.66,4.97-5.11a4.669,4.669,0,0,1,4.34-2.8c2.52,0,3.92,1.47,3.92,4.34v2.38a2.223,2.223,0,0,1-1.75,2.38l-4.97,1.82c-7.98,3.01-11.62,5.46-11.62,10.99,0,4.83,3.08,7.91,8.12,7.91C-69.055.98-65.975-.49-62.615-3.5Zm-.07-5.95a4.759,4.759,0,0,1-4.83,4.69c-1.96,0-3.36-1.61-3.36-4.27,0-3.99,2.59-6.37,8.19-8.12ZM-45.745.14C-41.615,0-38.6,0-36.5,0c3.36,0,6.72.07,9.94.14V-2.45c-3.64,0-4.9-.56-4.9-3.43V-19.04c0-3.43,2.24-6.65,4.06-6.65,1.68,0,2.31,3.64,5.53,3.64a4.025,4.025,0,0,0,4.34-4.27c0-3.15-2.1-4.97-5.74-4.97-3.08,0-6.23,1.89-8.82,5.74l-.56-6.09h-1.19a49.4,49.4,0,0,1-11.83,2.45v2.45c3.64.07,4.34,1.82,4.34,6.37V-6.09c0,2.66-.98,3.29-4.41,3.64ZM5.005.21C7.245,0,9.975,0,13.2,0c6.58,0,11.9.07,16.1.21V-2.66h-.42c-5.25,0-6.65-1.47-6.65-6.02V-21.14c1.19.07,2.38.07,3.43.07,14.14,0,20.86-4.13,20.86-13.23,0-9.03-7.07-12.53-21.84-12.53-5.11,0-9.1.14-12.04.14-2.17,0-4.76,0-7.63-.21v2.73c5.18.35,6.16,1.4,6.16,5.74v30.1c0,4.13-1.26,5.32-6.16,5.67Zm17.22-24.78V-41.58c0-1.54.91-1.89,3.71-1.89,5.6,0,8.61,3.08,8.61,8.96,0,7.14-3.01,10.01-10.43,10.01A17.058,17.058,0,0,1,22.225-24.57ZM50.645.21C53.725.07,57.085,0,60.655,0c1.4,0,4.27.07,8.75.21V-2.45C65.7-2.66,65-3.22,65-6.16V-31.78h-1.05a63.964,63.964,0,0,1-13.3,2.45v2.45c3.57.14,4.41.84,4.41,4.2V-6.16c0,2.87-.63,3.5-4.41,3.71Zm3.64-44.45a5.318,5.318,0,0,0,5.32,5.32,5.318,5.318,0,0,0,5.32-5.32,5.273,5.273,0,0,0-5.32-5.32A5.273,5.273,0,0,0,54.285-44.24ZM73.255.21c3.01-.14,5.81-.21,8.47-.21,2.38,0,5.6.07,9.73.21V-2.31c-3.36-.07-4.13-1.12-4.13-4.34V-17.57c0-5.53,2.8-8.89,6.79-8.89,2.8,0,4.2,2.03,4.2,6.02V-6.3c0,3.15-.7,3.99-3.99,3.99V.21c3.36-.14,6.3-.21,8.75-.21,2.87,0,5.88.07,9.1.21V-2.31c-3.85-.28-4.13-.91-4.13-3.99V-20.44c0-7.42-3.36-11.13-9.87-11.13-4.41,0-8.19,2.03-11.41,6.16l-.42-6.16h-1.19a48.722,48.722,0,0,1-11.9,2.45v2.59c3.5,0,4.34.91,4.34,4.62V-6.3c0,3.01-.35,3.64-4.34,3.99Zm41.93,0c1.68-.14,5.95-.21,12.74-.21,2.31,0,4.06.07,5.46.21V-2.31c-3.5-.42-4.27-1.05-4.27-3.85v-5.18l2.38-2.24,9.8,13.79a26.33,26.33,0,0,1,4.2-.21c1.68,0,3.85.07,6.58.21V-2.45h-.14a3.363,3.363,0,0,1-2.52-1.33l-11.97-15.75,5.18-5.32a13,13,0,0,1,7.7-3.78v-2.31c-2.24.14-4.62.21-6.93.21-2.8,0-5.67-.07-8.54-.21v2.31c2.8.07,4.13.7,4.13,2.03s-1.4,2.59-3.57,4.76l-6.3,6.3V-49.77a46.077,46.077,0,0,1-13.93,2.8v2.59h.35c3.08,0,3.99.98,3.99,4.06V-6.16c0,2.8-.7,3.5-4.34,3.85Z" transform="translate(161.62 61.9) rotate(0.05)" fill="#fff"/>
    </g>
  </g>
</svg>
