<svg xmlns="http://www.w3.org/2000/svg" xmlns:xlink="http://www.w3.org/1999/xlink" width="230" height="64" viewBox="0 0 230 64">
  <defs>
    <clipPath id="clip-path">
      <rect id="長方形_1261" data-name="長方形 1261" width="230" height="64" transform="translate(144 2597.68)" fill="#fff"/>
    </clipPath>
    <filter id="パス_10132" x="0.185" y="-1.564" width="233.332" height="54.438" filterUnits="userSpaceOnUse">
      <feOffset input="SourceAlpha"/>
      <feGaussianBlur stdDeviation="3" result="blur"/>
      <feFlood flood-color="#d2829c"/>
      <feComposite operator="in" in2="blur"/>
      <feComposite in="SourceGraphic"/>
    </filter>
  </defs>
  <g id="マスクグループ_2683" data-name="マスクグループ 2683" transform="translate(-144 -2597.68)" clip-path="url(#clip-path)">
    <g transform="matrix(1, 0, 0, 1, 144, 2597.68)" filter="url(#パス_10132)">
      <path id="パス_10132-2" data-name="パス 10132" d="M1.7.2C7.55.1,12.55,0,16.7,0,21.9,0,27,.05,32,.1l.2-10H30.15c-1,5.2-4,7.5-9.6,7.5-5.05,0-6.3-1.6-6.3-6.6V-27.3c0-3.3.9-4.25,4.5-4.25h.3v-2c-3.9.1-6.85.15-8.7.15-2.5,0-5.4-.05-8.65-.15v2h.25c3.3,0,4.35.95,4.35,3.95V-6.9c0,3.75-.85,5-4.2,5H1.7ZM34.6.15C36.8.05,39.2,0,41.75,0c1,0,3.05.05,6.25.15v-1.9c-2.65-.15-3.15-.55-3.15-2.65V-22.7H44.1a45.688,45.688,0,0,1-9.5,1.75v1.75c2.55.1,3.15.6,3.15,3V-4.4c0,2.05-.45,2.5-3.15,2.65ZM37.2-31.6A3.8,3.8,0,0,0,41-27.8a3.8,3.8,0,0,0,3.8-3.8A3.767,3.767,0,0,0,41-35.4,3.767,3.767,0,0,0,37.2-31.6ZM63.65-2.5c.7,2.25,2.1,3.2,4.6,3.2a7.466,7.466,0,0,0,5.8-2.95L73-3.6a3.63,3.63,0,0,1-1.65.75c-.65,0-.9-.4-.9-1.4v-11.8c0-4.35-3.2-6.5-9.5-6.5-6,0-9.35,2-9.35,4.8a2.705,2.705,0,0,0,2.8,2.8c2.35,0,2.75-1.9,3.55-3.65a3.335,3.335,0,0,1,3.1-2c1.8,0,2.8,1.05,2.8,3.1v1.7a1.588,1.588,0,0,1-1.25,1.7l-3.55,1.3c-5.7,2.15-8.3,3.9-8.3,7.85,0,3.45,2.2,5.65,5.8,5.65C59.05.7,61.25-.35,63.65-2.5ZM63.6-6.75A3.4,3.4,0,0,1,60.15-3.4c-1.4,0-2.4-1.15-2.4-3.05,0-2.85,1.85-4.55,5.85-5.8ZM75.7.1C78.65,0,80.8,0,82.3,0c2.4,0,4.8.05,7.1.1V-1.75c-2.6,0-3.5-.4-3.5-2.45v-9.4c0-2.45,1.6-4.75,2.9-4.75,1.2,0,1.65,2.6,3.95,2.6a2.875,2.875,0,0,0,3.1-3.05c0-2.25-1.5-3.55-4.1-3.55-2.2,0-4.45,1.35-6.3,4.1l-.4-4.35H84.2a35.285,35.285,0,0,1-8.45,1.75v1.75c2.6.05,3.1,1.3,3.1,4.55v10.2c0,1.9-.7,2.35-3.15,2.6Zm36.25.05C113.55,0,115.5,0,117.8,0c4.7,0,8.5.05,11.5.15V-1.9H129c-3.75,0-4.75-1.05-4.75-4.3v-8.9c.85.05,1.7.05,2.45.05,10.1,0,14.9-2.95,14.9-9.45,0-6.45-5.05-8.95-15.6-8.95-3.65,0-6.5.1-8.6.1-1.55,0-3.4,0-5.45-.15v1.95c3.7.25,4.4,1,4.4,4.1v21.5c0,2.95-.9,3.8-4.4,4.05Zm12.3-17.7V-29.7c0-1.1.65-1.35,2.65-1.35,4,0,6.15,2.2,6.15,6.4,0,5.1-2.15,7.15-7.45,7.15A12.185,12.185,0,0,1,124.25-17.55ZM144.55.15c2.2-.1,4.6-.15,7.15-.15,1,0,3.05.05,6.25.15v-1.9c-2.65-.15-3.15-.55-3.15-2.65V-22.7h-.75a45.688,45.688,0,0,1-9.5,1.75v1.75c2.55.1,3.15.6,3.15,3V-4.4c0,2.05-.45,2.5-3.15,2.65Zm2.6-31.75a3.8,3.8,0,0,0,3.8,3.8,3.8,3.8,0,0,0,3.8-3.8,3.767,3.767,0,0,0-3.8-3.8A3.767,3.767,0,0,0,147.15-31.6ZM160.7.15c2.15-.1,4.15-.15,6.05-.15,1.7,0,4,.05,6.95.15v-1.8c-2.4-.05-2.95-.8-2.95-3.1v-7.8c0-3.95,2-6.35,4.85-6.35,2,0,3,1.45,3,4.3V-4.5c0,2.25-.5,2.85-2.85,2.85V.15c2.4-.1,4.5-.15,6.25-.15,2.05,0,4.2.05,6.5.15v-1.8c-2.75-.2-2.95-.65-2.95-2.85V-14.6c0-5.3-2.4-7.95-7.05-7.95-3.15,0-5.85,1.45-8.15,4.4l-.3-4.4h-.85a34.8,34.8,0,0,1-8.5,1.75v1.85c2.5,0,3.1.65,3.1,3.3V-4.5c0,2.15-.25,2.6-3.1,2.85Zm29.95,0c1.2-.1,4.25-.15,9.1-.15,1.65,0,2.9.05,3.9.15v-1.8c-2.5-.3-3.05-.75-3.05-2.75V-8.1l1.7-1.6,7,9.85a18.807,18.807,0,0,1,3-.15c1.2,0,2.75.05,4.7.15v-1.9h-.1a2.4,2.4,0,0,1-1.8-.95l-8.55-11.25,3.7-3.8a9.289,9.289,0,0,1,5.5-2.7V-22.1c-1.6.1-3.3.15-4.95.15-2,0-4.05-.05-6.1-.15v1.65c2,.05,2.95.5,2.95,1.45s-1,1.85-2.55,3.4l-4.5,4.5V-35.55a32.912,32.912,0,0,1-9.95,2v1.85h.25c2.2,0,2.85.7,2.85,2.9V-4.4c0,2-.5,2.5-3.1,2.75Z" transform="translate(7.49 42.98) rotate(0.05)" fill="#fff"/>
    </g>
  </g>
</svg>
