<svg xmlns="http://www.w3.org/2000/svg" width="247.594" height="42.376" viewBox="0 0 247.594 42.376">
  <g id="グループ_3826" data-name="グループ 3826" transform="translate(72.674 -40.322)">
    <path id="パス_10337" data-name="パス 10337" d="M1.326.156C5.889.078,9.789,0,13.026,0,17.082,0,21.06.039,24.96.078l.156-7.8h-1.6c-.78,4.056-3.12,5.85-7.488,5.85-3.939,0-4.914-1.248-4.914-5.148V-21.294c0-2.574.7-3.315,3.51-3.315h.234v-1.56c-3.042.078-5.343.117-6.786.117-1.95,0-4.212-.039-6.747-.117v1.56h.195c2.574,0,3.393.741,3.393,3.081V-5.382c0,2.925-.663,3.9-3.276,3.9H1.326Zm45.24-4.641a10.533,10.533,0,0,1-1.872,1.794,5.164,5.164,0,0,1-2.847.819c-3.276,0-5.148-2.3-5.148-6.669,0-.234.039-.507.039-.78H48.2v-.312c0-5.109-2.886-7.995-7.761-7.995-5.811,0-9.672,3.861-9.672,9.243,0,5.226,3.822,8.931,9.321,8.931a8.8,8.8,0,0,0,7.8-3.861Zm-9.828-6.669c.273-3.237,1.365-4.836,3.432-4.836,1.911,0,2.964,1.521,2.964,4.368v.468ZM52.533.117C54.21.039,55.77,0,57.252,0c1.326,0,3.12.039,5.421.117v-1.4c-1.872-.039-2.3-.624-2.3-2.418V-9.789c0-3.081,1.56-4.953,3.783-4.953,1.56,0,2.34,1.131,2.34,3.354V-3.51c0,1.755-.39,2.223-2.223,2.223v1.4C66.144.039,67.782,0,69.147,0c1.6,0,3.276.039,5.07.117v-1.4c-2.145-.156-2.3-.507-2.3-2.223v-7.878c0-4.134-1.872-6.2-5.5-6.2a7.856,7.856,0,0,0-6.357,3.432l-.234-3.432h-.663a27.145,27.145,0,0,1-6.63,1.365v1.443c1.95,0,2.418.507,2.418,2.574v8.7c0,1.677-.195,2.028-2.418,2.223Zm26.637.2h1.482l.585-1.482A7.186,7.186,0,0,0,86.424.546c4.017,0,6.552-2.34,6.552-5.694,0-2.925-1.794-4.719-5.577-6.006-2.73-.936-4.29-1.131-4.29-2.847,0-1.131,1.014-1.989,2.574-1.989a5.415,5.415,0,0,1,4.914,3.7h1.482c-.039-.975-.039-1.833-.039-2.613,0-.819,0-1.638.039-2.535H90.6l-.741,1.287a7.218,7.218,0,0,0-4.6-1.482c-3.588,0-5.811,2.262-5.811,5.616s2.067,4.368,6.123,5.85c2.106.78,3.354,1.248,3.354,2.808,0,1.209-1.209,2.223-2.925,2.223A5.845,5.845,0,0,1,80.574-5.5h-1.4c.078,1.17.078,2.145.078,2.925C79.248-1.833,79.248-.858,79.17.312Zm32.214-.2C113.334.078,115.089,0,116.727,0c2.418,0,4.758.117,7.059.117,4.485,0,7.722-.507,10.491-2.925a12.027,12.027,0,0,0,3.978-9.516c0-8.97-5.421-13.845-15.834-13.845-2.106,0-4.29.078-6.474.078-1.521,0-3.081,0-4.563-.078v1.56c3.12,0,3.549.9,3.549,3.7v15.8c0,2.847-.624,3.549-3.549,3.588Zm9.789-5.967V-23.361c0-.741.39-1.014,1.482-1.014,6.357,0,8.736,3.549,8.736,11.544,0,7.41-1.989,10.959-6.552,10.959C122.07-1.872,121.173-3.042,121.173-5.85Zm37.869,1.365a10.533,10.533,0,0,1-1.872,1.794,5.164,5.164,0,0,1-2.847.819c-3.276,0-5.148-2.3-5.148-6.669,0-.234.039-.507.039-.78H160.68v-.312c0-5.109-2.886-7.995-7.761-7.995-5.811,0-9.672,3.861-9.672,9.243,0,5.226,3.822,8.931,9.321,8.931a8.8,8.8,0,0,0,7.8-3.861Zm-9.828-6.669c.273-3.237,1.365-4.836,3.432-4.836,1.911,0,2.964,1.521,2.964,4.368v.468ZM165.828.312h1.482l.585-1.482A7.186,7.186,0,0,0,173.082.546c4.017,0,6.552-2.34,6.552-5.694,0-2.925-1.794-4.719-5.577-6.006-2.73-.936-4.29-1.131-4.29-2.847,0-1.131,1.014-1.989,2.574-1.989a5.415,5.415,0,0,1,4.914,3.7h1.482c-.039-.975-.039-1.833-.039-2.613,0-.819,0-1.638.039-2.535h-1.482l-.741,1.287a7.218,7.218,0,0,0-4.6-1.482c-3.588,0-5.811,2.262-5.811,5.616s2.067,4.368,6.123,5.85c2.106.78,3.354,1.248,3.354,2.808,0,1.209-1.209,2.223-2.925,2.223A5.845,5.845,0,0,1,167.232-5.5h-1.4c.078,1.17.078,2.145.078,2.925C165.906-1.833,165.906-.858,165.828.312Zm18.759-.2C186.3.039,188.175,0,190.164,0c.78,0,2.379.039,4.875.117V-1.365c-2.067-.117-2.457-.429-2.457-2.067V-17.706H192a35.637,35.637,0,0,1-7.41,1.365v1.365c1.989.078,2.457.468,2.457,2.34v9.2c0,1.6-.351,1.95-2.457,2.067Zm2.028-24.765a2.963,2.963,0,0,0,2.964,2.964,2.963,2.963,0,0,0,2.964-2.964,2.938,2.938,0,0,0-2.964-2.964A2.938,2.938,0,0,0,186.615-24.648ZM204.321-5.889c-2.34.663-3.627,2.223-3.627,4.251a3.815,3.815,0,0,0,2.613,3.705c1.56.546,3.783.585,6.786.585,2.769,0,4.134.9,4.134,2.652,0,2.145-2.3,3.783-5.85,3.783-3.354,0-5.187-1.209-5.187-3.042a1.616,1.616,0,0,1,1.209-1.56,2.119,2.119,0,0,0-2.028-1.209,2.7,2.7,0,0,0-2.5,2.886c0,2.73,2.886,4.6,8.229,4.6,6.4,0,9.789-2.457,9.789-6.825,0-4.563-2.886-5.928-9.165-6.084-2.847-.078-4.134.117-4.134-1.4,0-1.17,1.131-1.521,3.081-1.677,5.538-.39,8.112-2.028,8.112-6.123a5.575,5.575,0,0,0-1.4-3.822,1.746,1.746,0,0,1,.9-.39c1.014,0,1.521,1.443,2.574,1.443A1.549,1.549,0,0,0,219.57-15.6c0-1.56-.819-2.379-2.5-2.379a5.82,5.82,0,0,0-3.783,1.716,9.458,9.458,0,0,0-5.07-1.326c-4.719,0-7.683,2.652-7.683,6.24A5.5,5.5,0,0,0,204.321-5.889Zm1.482-5.577c0-3.12.663-4.719,2.418-4.719,1.833,0,2.3,1.638,2.3,4.8,0,3.12-.312,4.563-2.418,4.563C206.271-6.825,205.8-8.346,205.8-11.466ZM223.236.117C224.913.039,226.473,0,227.955,0c1.326,0,3.12.039,5.421.117v-1.4c-1.872-.039-2.3-.624-2.3-2.418V-9.789c0-3.081,1.56-4.953,3.783-4.953,1.56,0,2.34,1.131,2.34,3.354V-3.51c0,1.755-.39,2.223-2.223,2.223v1.4C236.847.039,238.485,0,239.85,0c1.6,0,3.276.039,5.07.117v-1.4c-2.145-.156-2.3-.507-2.3-2.223v-7.878c0-4.134-1.872-6.2-5.5-6.2a7.856,7.856,0,0,0-6.357,3.432l-.234-3.432h-.663a27.145,27.145,0,0,1-6.63,1.365v1.443c1.95,0,2.418.507,2.418,2.574v8.7c0,1.677-.195,2.028-2.418,2.223Z" transform="translate(-72 69.934)" fill="#de8ca0" stroke="#d77298" stroke-width="4"/>
    <path id="パス_10338" data-name="パス 10338" d="M1.326.156C5.889.078,9.789,0,13.026,0,17.082,0,21.06.039,24.96.078l.156-7.8h-1.6c-.78,4.056-3.12,5.85-7.488,5.85-3.939,0-4.914-1.248-4.914-5.148V-21.294c0-2.574.7-3.315,3.51-3.315h.234v-1.56c-3.042.078-5.343.117-6.786.117-1.95,0-4.212-.039-6.747-.117v1.56h.195c2.574,0,3.393.741,3.393,3.081V-5.382c0,2.925-.663,3.9-3.276,3.9H1.326Zm45.24-4.641a10.533,10.533,0,0,1-1.872,1.794,5.164,5.164,0,0,1-2.847.819c-3.276,0-5.148-2.3-5.148-6.669,0-.234.039-.507.039-.78H48.2v-.312c0-5.109-2.886-7.995-7.761-7.995-5.811,0-9.672,3.861-9.672,9.243,0,5.226,3.822,8.931,9.321,8.931a8.8,8.8,0,0,0,7.8-3.861Zm-9.828-6.669c.273-3.237,1.365-4.836,3.432-4.836,1.911,0,2.964,1.521,2.964,4.368v.468ZM52.533.117C54.21.039,55.77,0,57.252,0c1.326,0,3.12.039,5.421.117v-1.4c-1.872-.039-2.3-.624-2.3-2.418V-9.789c0-3.081,1.56-4.953,3.783-4.953,1.56,0,2.34,1.131,2.34,3.354V-3.51c0,1.755-.39,2.223-2.223,2.223v1.4C66.144.039,67.782,0,69.147,0c1.6,0,3.276.039,5.07.117v-1.4c-2.145-.156-2.3-.507-2.3-2.223v-7.878c0-4.134-1.872-6.2-5.5-6.2a7.856,7.856,0,0,0-6.357,3.432l-.234-3.432h-.663a27.145,27.145,0,0,1-6.63,1.365v1.443c1.95,0,2.418.507,2.418,2.574v8.7c0,1.677-.195,2.028-2.418,2.223Zm26.637.2h1.482l.585-1.482A7.186,7.186,0,0,0,86.424.546c4.017,0,6.552-2.34,6.552-5.694,0-2.925-1.794-4.719-5.577-6.006-2.73-.936-4.29-1.131-4.29-2.847,0-1.131,1.014-1.989,2.574-1.989a5.415,5.415,0,0,1,4.914,3.7h1.482c-.039-.975-.039-1.833-.039-2.613,0-.819,0-1.638.039-2.535H90.6l-.741,1.287a7.218,7.218,0,0,0-4.6-1.482c-3.588,0-5.811,2.262-5.811,5.616s2.067,4.368,6.123,5.85c2.106.78,3.354,1.248,3.354,2.808,0,1.209-1.209,2.223-2.925,2.223A5.845,5.845,0,0,1,80.574-5.5h-1.4c.078,1.17.078,2.145.078,2.925C79.248-1.833,79.248-.858,79.17.312Zm32.214-.2C113.334.078,115.089,0,116.727,0c2.418,0,4.758.117,7.059.117,4.485,0,7.722-.507,10.491-2.925a12.027,12.027,0,0,0,3.978-9.516c0-8.97-5.421-13.845-15.834-13.845-2.106,0-4.29.078-6.474.078-1.521,0-3.081,0-4.563-.078v1.56c3.12,0,3.549.9,3.549,3.7v15.8c0,2.847-.624,3.549-3.549,3.588Zm9.789-5.967V-23.361c0-.741.39-1.014,1.482-1.014,6.357,0,8.736,3.549,8.736,11.544,0,7.41-1.989,10.959-6.552,10.959C122.07-1.872,121.173-3.042,121.173-5.85Zm37.869,1.365a10.533,10.533,0,0,1-1.872,1.794,5.164,5.164,0,0,1-2.847.819c-3.276,0-5.148-2.3-5.148-6.669,0-.234.039-.507.039-.78H160.68v-.312c0-5.109-2.886-7.995-7.761-7.995-5.811,0-9.672,3.861-9.672,9.243,0,5.226,3.822,8.931,9.321,8.931a8.8,8.8,0,0,0,7.8-3.861Zm-9.828-6.669c.273-3.237,1.365-4.836,3.432-4.836,1.911,0,2.964,1.521,2.964,4.368v.468ZM165.828.312h1.482l.585-1.482A7.186,7.186,0,0,0,173.082.546c4.017,0,6.552-2.34,6.552-5.694,0-2.925-1.794-4.719-5.577-6.006-2.73-.936-4.29-1.131-4.29-2.847,0-1.131,1.014-1.989,2.574-1.989a5.415,5.415,0,0,1,4.914,3.7h1.482c-.039-.975-.039-1.833-.039-2.613,0-.819,0-1.638.039-2.535h-1.482l-.741,1.287a7.218,7.218,0,0,0-4.6-1.482c-3.588,0-5.811,2.262-5.811,5.616s2.067,4.368,6.123,5.85c2.106.78,3.354,1.248,3.354,2.808,0,1.209-1.209,2.223-2.925,2.223A5.845,5.845,0,0,1,167.232-5.5h-1.4c.078,1.17.078,2.145.078,2.925C165.906-1.833,165.906-.858,165.828.312Zm18.759-.2C186.3.039,188.175,0,190.164,0c.78,0,2.379.039,4.875.117V-1.365c-2.067-.117-2.457-.429-2.457-2.067V-17.706H192a35.637,35.637,0,0,1-7.41,1.365v1.365c1.989.078,2.457.468,2.457,2.34v9.2c0,1.6-.351,1.95-2.457,2.067Zm2.028-24.765a2.963,2.963,0,0,0,2.964,2.964,2.963,2.963,0,0,0,2.964-2.964,2.938,2.938,0,0,0-2.964-2.964A2.938,2.938,0,0,0,186.615-24.648ZM204.321-5.889c-2.34.663-3.627,2.223-3.627,4.251a3.815,3.815,0,0,0,2.613,3.705c1.56.546,3.783.585,6.786.585,2.769,0,4.134.9,4.134,2.652,0,2.145-2.3,3.783-5.85,3.783-3.354,0-5.187-1.209-5.187-3.042a1.616,1.616,0,0,1,1.209-1.56,2.119,2.119,0,0,0-2.028-1.209,2.7,2.7,0,0,0-2.5,2.886c0,2.73,2.886,4.6,8.229,4.6,6.4,0,9.789-2.457,9.789-6.825,0-4.563-2.886-5.928-9.165-6.084-2.847-.078-4.134.117-4.134-1.4,0-1.17,1.131-1.521,3.081-1.677,5.538-.39,8.112-2.028,8.112-6.123a5.575,5.575,0,0,0-1.4-3.822,1.746,1.746,0,0,1,.9-.39c1.014,0,1.521,1.443,2.574,1.443A1.549,1.549,0,0,0,219.57-15.6c0-1.56-.819-2.379-2.5-2.379a5.82,5.82,0,0,0-3.783,1.716,9.458,9.458,0,0,0-5.07-1.326c-4.719,0-7.683,2.652-7.683,6.24A5.5,5.5,0,0,0,204.321-5.889Zm1.482-5.577c0-3.12.663-4.719,2.418-4.719,1.833,0,2.3,1.638,2.3,4.8,0,3.12-.312,4.563-2.418,4.563C206.271-6.825,205.8-8.346,205.8-11.466ZM223.236.117C224.913.039,226.473,0,227.955,0c1.326,0,3.12.039,5.421.117v-1.4c-1.872-.039-2.3-.624-2.3-2.418V-9.789c0-3.081,1.56-4.953,3.783-4.953,1.56,0,2.34,1.131,2.34,3.354V-3.51c0,1.755-.39,2.223-2.223,2.223v1.4C236.847.039,238.485,0,239.85,0c1.6,0,3.276.039,5.07.117v-1.4c-2.145-.156-2.3-.507-2.3-2.223v-7.878c0-4.134-1.872-6.2-5.5-6.2a7.856,7.856,0,0,0-6.357,3.432l-.234-3.432h-.663a27.145,27.145,0,0,1-6.63,1.365v1.443c1.95,0,2.418.507,2.418,2.574v8.7c0,1.677-.195,2.028-2.418,2.223Z" transform="translate(-72 69.934)" fill="#fff"/>
  </g>
</svg>
