<svg xmlns="http://www.w3.org/2000/svg" width="311.999" height="55.203" viewBox="0 0 311.999 55.203">
  <g id="グループ_3743" data-name="グループ 3743" transform="translate(-18.062 -622.372)">
    <path id="パス_10340" data-name="パス 10340" d="M-75.536-.272a20.413,20.413,0,0,1-4.84.44,5.137,5.137,0,0,1-3-.888,3.132,3.132,0,0,1-.776-.9,3.569,3.569,0,0,1-.392-1.2,10.99,10.99,0,0,1-.112-1.7v-6.5a1.188,1.188,0,0,1,.36-.872,1.188,1.188,0,0,1,.872-.36,1.188,1.188,0,0,1,.872.36,1.188,1.188,0,0,1,.36.872v3.232q1.248-.32,2.576-.72t2.368-.8a1.211,1.211,0,0,1,.992.008,1.136,1.136,0,0,1,.624.7,1.253,1.253,0,0,1-.024.952,1.134,1.134,0,0,1-.68.648q-.88.32-1.9.624t-2.032.56q-1.016.256-1.928.448v.848a6.568,6.568,0,0,0,.056.976,1.378,1.378,0,0,0,.184.544,1.258,1.258,0,0,0,.336.336,2.43,2.43,0,0,0,.976.32,8.665,8.665,0,0,0,1.784.016Q-77.712-2.4-75.9-2.7a1.128,1.128,0,0,1,.92.208,1.156,1.156,0,0,1,.472.816,1.153,1.153,0,0,1-.224.912A1.277,1.277,0,0,1-75.536-.272Zm1.7-7.632a1.616,1.616,0,0,1-1.176-.48A1.577,1.577,0,0,1-75.5-9.552a1.6,1.6,0,0,1,.488-1.184,1.616,1.616,0,0,1,1.176-.48,1.616,1.616,0,0,1,1.176.48,1.6,1.6,0,0,1,.488,1.184,1.577,1.577,0,0,1-.488,1.168A1.616,1.616,0,0,1-73.84-7.9Zm0-1.056a.569.569,0,0,0,.416-.176.569.569,0,0,0,.176-.416.561.561,0,0,0-.176-.424.582.582,0,0,0-.416-.168.582.582,0,0,0-.416.168.561.561,0,0,0-.176.424.569.569,0,0,0,.176.416A.569.569,0,0,0-73.84-8.96Zm6.1,8.544a1.207,1.207,0,0,1-.952-.04,1.19,1.19,0,0,1-.648-.7,1.227,1.227,0,0,1,.04-.96,1.131,1.131,0,0,1,.7-.64A20.044,20.044,0,0,0-66.072-3.84a28.232,28.232,0,0,0,2.48-1.424,20.962,20.962,0,0,0,2.16-1.584A12.722,12.722,0,0,0-59.84-8.416a1.13,1.13,0,0,1,.824-.44,1.242,1.242,0,0,1,.9.28,1.07,1.07,0,0,1,.456.816,1.254,1.254,0,0,1-.28.912A13.374,13.374,0,0,1-59.7-5.12a27.6,27.6,0,0,1-2.44,1.8,32.244,32.244,0,0,1-2.792,1.648A23.077,23.077,0,0,1-67.744-.416Zm1.136-6.512q-.64-.528-1.36-1.064A14.029,14.029,0,0,0-69.3-8.88a1.167,1.167,0,0,1-.56-.76,1.211,1.211,0,0,1,.144-.92,1.174,1.174,0,0,1,.76-.576,1.112,1.112,0,0,1,.92.144q.48.3,1.032.68t1.056.76q.5.384.856.688a1.3,1.3,0,0,1,.464.816,1.143,1.143,0,0,1-.24.912,1.2,1.2,0,0,1-.824.472A1.13,1.13,0,0,1-66.608-6.928Zm14.9,7.712a1.212,1.212,0,0,1-.936.008,1.194,1.194,0,0,1-.68-.648A1.164,1.164,0,0,1-53.344-.8a1.223,1.223,0,0,1,.656-.688,14.687,14.687,0,0,0,7.456-6.544q.432-.848-.576-.848h-1.92a17.476,17.476,0,0,1-1.68,1.96,15.837,15.837,0,0,1-1.968,1.688,1.2,1.2,0,0,1-.92.2,1.228,1.228,0,0,1-.808-.5,1.21,1.21,0,0,1-.2-.928,1.176,1.176,0,0,1,.5-.8,11.4,11.4,0,0,0,1.688-1.384,14.455,14.455,0,0,0,1.528-1.76A10,10,0,0,0-48.5-12.24a1.193,1.193,0,0,1,.688-.648,1.144,1.144,0,0,1,.944.04,1.256,1.256,0,0,1,.664.68,1.051,1.051,0,0,1-.024.92h.8a3.8,3.8,0,0,1,2.128.5,1.872,1.872,0,0,1,.856,1.4A3.828,3.828,0,0,1-42.9-7.28a14.583,14.583,0,0,1-2.2,3.288A18.6,18.6,0,0,1-48.16-1.2,16.71,16.71,0,0,1-51.712.784Zm16.48-.4A1.182,1.182,0,0,1-36.184.4a1.221,1.221,0,0,1-.7-.656,1.223,1.223,0,0,1-.024-.96,1.191,1.191,0,0,1,.648-.7,15.39,15.39,0,0,0,4.1-2.584A10.023,10.023,0,0,0-29.7-7.744q.336-.736.1-1.08t-1.1-.344H-36.5a1.183,1.183,0,0,1-.864-.368,1.183,1.183,0,0,1-.368-.864,1.2,1.2,0,0,1,.368-.88,1.183,1.183,0,0,1,.864-.368h5.984q2.432,0,3.232,1.264a3.569,3.569,0,0,1-.1,3.376A12.937,12.937,0,0,1-30.344-2.8,16.566,16.566,0,0,1-35.232.384ZM-24.96-9.776a.77.77,0,0,1-.568.224.771.771,0,0,1-.584-.256q-.16-.176-.488-.528t-.552-.608a.647.647,0,0,1-.152-.472.743.743,0,0,1,.232-.52.735.735,0,0,1,.472-.216.791.791,0,0,1,.52.136,7.417,7.417,0,0,1,.624.5,4.275,4.275,0,0,1,.56.584.854.854,0,0,1,.2.576A.827.827,0,0,1-24.96-9.776Zm.384-1.552q-.176-.176-.536-.488l-.616-.536a.734.734,0,0,1-.192-.456.726.726,0,0,1,.176-.552.737.737,0,0,1,.448-.256.775.775,0,0,1,.528.1,6.793,6.793,0,0,1,.664.432,4.3,4.3,0,0,1,.616.528.864.864,0,0,1,.264.56.811.811,0,0,1-.2.592.8.8,0,0,1-.552.272A.767.767,0,0,1-24.576-11.328ZM-18.3.736A1.171,1.171,0,0,1-19.24.664a1.2,1.2,0,0,1-.616-.728A1.171,1.171,0,0,1-19.784-1a1.2,1.2,0,0,1,.712-.616A10.985,10.985,0,0,0-15.68-3.368,7.222,7.222,0,0,0-13.536-5.92a.62.62,0,0,0,.016-.624q-.16-.24-.72-.24H-20.1a1.229,1.229,0,0,1-.88-.352,1.131,1.131,0,0,1-.368-.848,1.149,1.149,0,0,1,.368-.864A1.229,1.229,0,0,1-20.1-9.2h6.032a3.9,3.9,0,0,1,2.248.552,2.076,2.076,0,0,1,.912,1.5,3.962,3.962,0,0,1-.44,2.152,9.962,9.962,0,0,1-2.744,3.44A13.131,13.131,0,0,1-18.3.736Zm-.784-10.816a1.156,1.156,0,0,1-.848-.352,1.156,1.156,0,0,1-.352-.848,1.156,1.156,0,0,1,.352-.848,1.156,1.156,0,0,1,.848-.352h6.272a1.13,1.13,0,0,1,.84.352,1.169,1.169,0,0,1,.344.848,1.169,1.169,0,0,1-.344.848,1.13,1.13,0,0,1-.84.352ZM-.72,1.024a1.449,1.449,0,0,1-.936.1A1.087,1.087,0,0,1-2.4.576a1.234,1.234,0,0,1-.136-.944A1.046,1.046,0,0,1-1.968-1.1,12.418,12.418,0,0,0,1.264-3.312,6.617,6.617,0,0,0,2.992-6.32a4.748,4.748,0,0,0,.16-.728.937.937,0,0,0-.1-.536.747.747,0,0,0-.336-.248,3.079,3.079,0,0,0-.84-.16q-.6-.056-1.816-.056-1.136,0-1.736.04a3.207,3.207,0,0,0-.848.136.87.87,0,0,0-.376.256.941.941,0,0,0-.1.592q.024.416.168,1.312a1.215,1.215,0,0,1-.216.92,1.167,1.167,0,0,1-.808.5,1.2,1.2,0,0,1-.928-.224,1.194,1.194,0,0,1-.5-.8q-.176-1.12-.224-1.856a4.043,4.043,0,0,1,.08-1.24,2.312,2.312,0,0,1,.5-.936,2.436,2.436,0,0,1,.76-.616,3.742,3.742,0,0,1,1.144-.32,15.636,15.636,0,0,1,1.936-.12v-1.712a1.175,1.175,0,0,1,.368-.872,1.2,1.2,0,0,1,.864-.36,1.214,1.214,0,0,1,.88.36,1.175,1.175,0,0,1,.368.872V-10.4a15.427,15.427,0,0,1,1.872.144A3.647,3.647,0,0,1,4.44-9.9a2.363,2.363,0,0,1,.776.68,2.3,2.3,0,0,1,.456,1.488,9.4,9.4,0,0,1-.344,2.064A10.674,10.674,0,0,1,4.24-3.128,9.317,9.317,0,0,1,2.312-.848,12.057,12.057,0,0,1-.72,1.024ZM12.256-.416a1.207,1.207,0,0,1-.952-.04,1.19,1.19,0,0,1-.648-.7,1.227,1.227,0,0,1,.04-.96,1.131,1.131,0,0,1,.7-.64A20.044,20.044,0,0,0,13.928-3.84a28.232,28.232,0,0,0,2.48-1.424,20.962,20.962,0,0,0,2.16-1.584A12.722,12.722,0,0,0,20.16-8.416a1.13,1.13,0,0,1,.824-.44,1.242,1.242,0,0,1,.9.28,1.07,1.07,0,0,1,.456.816,1.254,1.254,0,0,1-.28.912A13.374,13.374,0,0,1,20.3-5.12a27.6,27.6,0,0,1-2.44,1.8,32.244,32.244,0,0,1-2.792,1.648A23.076,23.076,0,0,1,12.256-.416Zm1.136-6.512q-.64-.528-1.36-1.064A14.028,14.028,0,0,0,10.7-8.88a1.167,1.167,0,0,1-.56-.76,1.211,1.211,0,0,1,.144-.92,1.174,1.174,0,0,1,.76-.576,1.112,1.112,0,0,1,.92.144q.48.3,1.032.68t1.056.76q.5.384.856.688a1.3,1.3,0,0,1,.464.816,1.143,1.143,0,0,1-.24.912,1.2,1.2,0,0,1-.824.472A1.13,1.13,0,0,1,13.392-6.928ZM33.872.128a1.216,1.216,0,0,1-.912-.136,1.151,1.151,0,0,1-.56-.728,1.172,1.172,0,0,1,.144-.9,1.122,1.122,0,0,1,.72-.536A4.182,4.182,0,0,0,35.736-3.6a4.134,4.134,0,0,0,.728-2.512A3.248,3.248,0,0,0,35.608-8.4a3.861,3.861,0,0,0-2.424-1.136,20.859,20.859,0,0,1-1.032,4.688,8.969,8.969,0,0,1-1.664,2.992A2.724,2.724,0,0,1,28.5-.816a2.892,2.892,0,0,1-1.664-.512,3.528,3.528,0,0,1-1.2-1.48,5.6,5.6,0,0,1-.448-2.36A6.357,6.357,0,0,1,25.7-7.7a6.514,6.514,0,0,1,1.456-2.112,6.776,6.776,0,0,1,2.248-1.44,7.732,7.732,0,0,1,2.888-.52,8.033,8.033,0,0,1,2.616.408,6.191,6.191,0,0,1,2.064,1.16A5.241,5.241,0,0,1,38.32-8.416a5.432,5.432,0,0,1,.48,2.3,6.481,6.481,0,0,1-1.216,4.024A6.332,6.332,0,0,1,33.872.128Zm-5.36-3.376q.272,0,.736-.76a10.837,10.837,0,0,0,.928-2.152,17.382,17.382,0,0,0,.7-3.28,4.406,4.406,0,0,0-1.856.92A4.168,4.168,0,0,0,27.9-7,4.711,4.711,0,0,0,27.5-5.2a2.9,2.9,0,0,0,.264,1.488A.842.842,0,0,0,28.512-3.248ZM45.072.336a1.182,1.182,0,0,1-.952.016,1.221,1.221,0,0,1-.7-.656,1.223,1.223,0,0,1-.024-.96,1.191,1.191,0,0,1,.648-.7,15.273,15.273,0,0,0,4.1-2.592,10.107,10.107,0,0,0,2.456-3.248q.32-.72.088-1.064t-1.08-.344H43.68a1.175,1.175,0,0,1-.872-.368,1.214,1.214,0,0,1-.36-.88,1.188,1.188,0,0,1,.36-.872,1.188,1.188,0,0,1,.872-.36h6.112q2.432,0,3.232,1.264a3.569,3.569,0,0,1-.1,3.376A12.937,12.937,0,0,1,49.96-2.848,16.566,16.566,0,0,1,45.072.336ZM61.824.512a1.214,1.214,0,0,1-.92.232A1.169,1.169,0,0,1,60.1.256a1.214,1.214,0,0,1-.232-.92,1.169,1.169,0,0,1,.488-.808A6.918,6.918,0,0,0,62-3.192a7.908,7.908,0,0,0,1.024-2.2H57.84a1.156,1.156,0,0,1-.848-.352,1.156,1.156,0,0,1-.352-.848,1.156,1.156,0,0,1,.352-.848,1.156,1.156,0,0,1,.848-.352h5.52a9.832,9.832,0,0,0-.1-1.36q-.9.128-1.776.232t-1.648.152a1.192,1.192,0,0,1-.872-.328,1.149,1.149,0,0,1-.392-.84,1.147,1.147,0,0,1,.336-.872,1.218,1.218,0,0,1,.864-.376q.768-.048,1.664-.152t1.832-.264q.936-.16,1.8-.352t1.552-.4a1.4,1.4,0,0,1,.944.04,1.082,1.082,0,0,1,.64.664,1.209,1.209,0,0,1-.032.944,1.11,1.11,0,0,1-.7.624q-.368.112-.84.232l-.984.248q.064.448.088.9t.024.912h4.368a1.156,1.156,0,0,1,.848.352,1.156,1.156,0,0,1,.352.848,1.156,1.156,0,0,1-.352.848,1.156,1.156,0,0,1-.848.352H65.472a11.205,11.205,0,0,1-1.336,3.368A8.281,8.281,0,0,1,61.824.512ZM84.016.72q-4.288.592-6.5-.488a3.612,3.612,0,0,1-2.208-3.464,4.3,4.3,0,0,1,.7-2.456,6.029,6.029,0,0,1,1.968-1.8q-.112-.592-.32-1.352t-.432-1.52q-.224-.76-.4-1.3a1.153,1.153,0,0,1,.12-.9,1.143,1.143,0,0,1,.712-.568,1.219,1.219,0,0,1,.936.12,1.143,1.143,0,0,1,.568.712q.24.848.488,1.864t.44,1.96q.7-.272,1.5-.5t1.664-.416a1.149,1.149,0,0,1,.9.144,1.134,1.134,0,0,1,.528.736,1.108,1.108,0,0,1-.152.888,1.112,1.112,0,0,1-.744.5,20.423,20.423,0,0,0-3.192.872,7.521,7.521,0,0,0-1.864.968,2.827,2.827,0,0,0-.872,1,2.376,2.376,0,0,0-.232,1,1.568,1.568,0,0,0,.288.912A1.984,1.984,0,0,0,78.9-1.7a5.965,5.965,0,0,0,1.864.288,17.084,17.084,0,0,0,2.952-.24,1.067,1.067,0,0,1,.88.232,1.191,1.191,0,0,1,.448.792,1.081,1.081,0,0,1-.224.88A1.235,1.235,0,0,1,84.016.72ZM-65.952,19.776a1.126,1.126,0,0,1-.936.072,1.417,1.417,0,0,1-.76-.6q-.144-.256-.384-.608t-.528-.752q-.912.144-2.112.312t-2.5.32q-1.3.152-2.48.28t-2.064.176a1.213,1.213,0,0,1-.9-.3,1.141,1.141,0,0,1-.416-.824,1.194,1.194,0,0,1,.32-.9,1.169,1.169,0,0,1,.864-.408l.456-.032.488-.032q.448-.7.968-1.656t1.016-1.984q.5-1.032.912-1.96t.672-1.568a1.291,1.291,0,0,1,.648-.7,1.146,1.146,0,0,1,.936-.048,1.217,1.217,0,0,1,.72.632,1.036,1.036,0,0,1,.032.936q-.32.752-.84,1.808t-1.128,2.192q-.608,1.136-1.216,2.16,1.04-.08,2.1-.184t1.952-.2q-.256-.32-.488-.592t-.44-.48a1.142,1.142,0,0,1-.336-.856,1.179,1.179,0,0,1,.384-.84,1.087,1.087,0,0,1,.872-.336,1.257,1.257,0,0,1,.856.4q.448.448,1,1.088t1.112,1.336q.56.7,1.016,1.344A11.109,11.109,0,0,1-65.44,18.1a1.212,1.212,0,0,1,.1.944A1.163,1.163,0,0,1-65.952,19.776Zm7.648.96a1.171,1.171,0,0,1-.936-.072,1.2,1.2,0,0,1-.616-.728A1.171,1.171,0,0,1-59.784,19a1.2,1.2,0,0,1,.712-.616,10.985,10.985,0,0,0,3.392-1.752,7.222,7.222,0,0,0,2.144-2.552.62.62,0,0,0,.016-.624q-.16-.24-.72-.24H-60.1a1.229,1.229,0,0,1-.88-.352,1.131,1.131,0,0,1-.368-.848,1.149,1.149,0,0,1,.368-.864,1.229,1.229,0,0,1,.88-.352h6.032a3.9,3.9,0,0,1,2.248.552,2.076,2.076,0,0,1,.912,1.5,3.962,3.962,0,0,1-.44,2.152,9.962,9.962,0,0,1-2.744,3.44A13.131,13.131,0,0,1-58.3,20.736ZM-59.088,9.92a1.156,1.156,0,0,1-.848-.352,1.156,1.156,0,0,1-.352-.848,1.156,1.156,0,0,1,.352-.848,1.156,1.156,0,0,1,.848-.352h6.272a1.13,1.13,0,0,1,.84.352,1.169,1.169,0,0,1,.344.848,1.169,1.169,0,0,1-.344.848,1.13,1.13,0,0,1-.84.352Zm20.96,10.208a1.216,1.216,0,0,1-.912-.136,1.151,1.151,0,0,1-.56-.728,1.172,1.172,0,0,1,.144-.9,1.122,1.122,0,0,1,.72-.536A4.182,4.182,0,0,0-36.264,16.4a4.134,4.134,0,0,0,.728-2.512,3.248,3.248,0,0,0-.856-2.288,3.861,3.861,0,0,0-2.424-1.136,20.859,20.859,0,0,1-1.032,4.688,8.969,8.969,0,0,1-1.664,2.992,2.724,2.724,0,0,1-1.992,1.04,2.892,2.892,0,0,1-1.664-.512,3.528,3.528,0,0,1-1.2-1.48,5.6,5.6,0,0,1-.448-2.36A6.357,6.357,0,0,1-46.3,12.3a6.514,6.514,0,0,1,1.456-2.112A6.776,6.776,0,0,1-42.6,8.744a7.732,7.732,0,0,1,2.888-.52,8.033,8.033,0,0,1,2.616.408,6.191,6.191,0,0,1,2.064,1.16,5.241,5.241,0,0,1,1.352,1.792,5.432,5.432,0,0,1,.48,2.3,6.481,6.481,0,0,1-1.216,4.024A6.332,6.332,0,0,1-38.128,20.128Zm-5.36-3.376q.272,0,.736-.76a10.837,10.837,0,0,0,.928-2.152,17.382,17.382,0,0,0,.7-3.28,4.406,4.406,0,0,0-1.856.92A4.168,4.168,0,0,0-44.1,13a4.711,4.711,0,0,0-.392,1.8,2.9,2.9,0,0,0,.264,1.488A.842.842,0,0,0-43.488,16.752Zm22.112,4.32a1.42,1.42,0,0,1-.936-.1,1.009,1.009,0,0,1-.584-.688,1.07,1.07,0,0,1,.128-.88,1.191,1.191,0,0,1,.72-.544A3.8,3.8,0,0,0-20.24,17.84a2.524,2.524,0,0,0,.576-1.728,2.181,2.181,0,0,0-.424-1.328,2.621,2.621,0,0,0-1.272-.88,10.232,10.232,0,0,1-.744,2.16,10.262,10.262,0,0,1-1.144,1.872l.064.1a.4.4,0,0,1,.048.1,1.156,1.156,0,0,1,.184.888,1.108,1.108,0,0,1-.5.76,1.146,1.146,0,0,1-.768.176,1.154,1.154,0,0,1-.7-.336,6.528,6.528,0,0,1-1.52.848,4.35,4.35,0,0,1-1.584.3,2.927,2.927,0,0,1-2-.672,2.8,2.8,0,0,1-.768-2.208,5,5,0,0,1,.512-2.24,6.265,6.265,0,0,1,1.4-1.856,8.44,8.44,0,0,1,1.992-1.36q0-.72.048-1.488-1.328.08-2.448.048a1.009,1.009,0,0,1-.784-.36,1.142,1.142,0,0,1-.3-.824A1.117,1.117,0,0,1-30,9.016a1.13,1.13,0,0,1,.816-.3q.608.016,1.256,0l1.32-.032q.048-.288.1-.568t.12-.568a1.148,1.148,0,0,1,.5-.752,1.069,1.069,0,0,1,.88-.16,1.085,1.085,0,0,1,.752.512,1.149,1.149,0,0,1,.144.9q-.016.112-.04.224t-.056.24q.608-.064,1.176-.136l1.064-.136a1.135,1.135,0,0,1,.856.184,1.062,1.062,0,0,1,.472.728,1.14,1.14,0,0,1-.192.864,1.027,1.027,0,0,1-.736.464q-1.36.192-2.992.32-.016.224-.032.44t-.032.44a8.064,8.064,0,0,1,1.52-.144,7.566,7.566,0,0,1,3.16.584,4.317,4.317,0,0,1,1.92,1.616,4.373,4.373,0,0,1,.648,2.376,5.227,5.227,0,0,1-.96,3.2A4.948,4.948,0,0,1-21.376,21.072Zm-6.432-2.512a2.017,2.017,0,0,0,.9-.24,4.661,4.661,0,0,0,.96-.656,11.5,11.5,0,0,1-.44-1.392q-.184-.736-.312-1.52a4.678,4.678,0,0,0-1.344,1.408,3.169,3.169,0,0,0-.5,1.664.844.844,0,0,0,.176.592A.841.841,0,0,0-27.808,18.56Zm3.52-3.04a7.79,7.79,0,0,0,.752-1.856q-.272.016-.536.056t-.52.1q.048.448.12.864T-24.288,15.52Zm16.1,5.472a4.446,4.446,0,0,1-1.736-.408,2.693,2.693,0,0,1-1.144-1,2.474,2.474,0,0,1-.352-1.488,2.426,2.426,0,0,1,.432-1.264,2.492,2.492,0,0,1,1.048-.84,2.974,2.974,0,0,1,1.512-.216,2.607,2.607,0,0,1,1.92.816,2.153,2.153,0,0,1,.448,1.744,1.752,1.752,0,0,0,.648-.776,2.747,2.747,0,0,0,.2-1.08,1.773,1.773,0,0,0-.312-.976,2.4,2.4,0,0,0-.88-.792,2.812,2.812,0,0,0-1.344-.32,3.868,3.868,0,0,0-1.7.44,7.38,7.38,0,0,0-1.968,1.5,1.267,1.267,0,0,1-.936.392,1.125,1.125,0,0,1-.92-.408,1.205,1.205,0,0,1-.28-.856.985.985,0,0,1,.408-.776q.96-.72,1.952-1.552t1.888-1.64q.9-.808,1.568-1.464.256-.24.176-.448t-.5-.144q-.56.08-1.152.16l-1.2.16a1.145,1.145,0,0,1-.872-.232,1.194,1.194,0,0,1-.472-.792,1.145,1.145,0,0,1,.232-.872,1.135,1.135,0,0,1,.792-.456q.4-.064.968-.112l1.144-.1q.576-.048.976-.064a3.051,3.051,0,0,1,1.76.312A2.059,2.059,0,0,1-4.944,8.5,2.217,2.217,0,0,1-4.888,9.9a2.95,2.95,0,0,1-.92,1.408q-.208.208-.568.528t-.808.7a4.739,4.739,0,0,1,2.152.424,3.821,3.821,0,0,1,1.592,1.36,3.91,3.91,0,0,1,.608,2.232A4.423,4.423,0,0,1-3.52,19.1a4.018,4.018,0,0,1-1.9,1.5A6.555,6.555,0,0,1-8.192,20.992ZM-8.608,18.8a5.359,5.359,0,0,0,.592,0,.868.868,0,0,0,.08-.7.6.6,0,0,0-.528-.376.765.765,0,0,0-.544.064.481.481,0,0,0-.256.368.447.447,0,0,0,.152.432A1.188,1.188,0,0,0-8.608,18.8ZM4.528,20.576a1.389,1.389,0,0,1-.936.12,1.139,1.139,0,0,1-.76-.552A1.221,1.221,0,0,1,2.7,19.2a1.172,1.172,0,0,1,.576-.752,7.008,7.008,0,0,0,3.744-4.592H2.688A1.156,1.156,0,0,1,1.84,13.5a1.2,1.2,0,0,1,0-1.7,1.156,1.156,0,0,1,.848-.352H13.264a1.2,1.2,0,0,1,0,2.4H9.44A8.39,8.39,0,0,1,8.592,16.5,9.521,9.521,0,0,1,6.9,18.848,8.8,8.8,0,0,1,4.528,20.576Zm.016-10.32A1.13,1.13,0,0,1,3.7,9.9a1.217,1.217,0,0,1,0-1.7,1.13,1.13,0,0,1,.84-.352h6.608a1.148,1.148,0,0,1,.856.352,1.217,1.217,0,0,1,0,1.7,1.148,1.148,0,0,1-.856.352Zm10.768-.544q-.16-.176-.52-.5t-.6-.544a.762.762,0,0,1-.184-.464.745.745,0,0,1,.184-.544.707.707,0,0,1,.456-.248.77.77,0,0,1,.52.1,5.176,5.176,0,0,1,.656.448,5.391,5.391,0,0,1,.608.544.861.861,0,0,1,.24.56.842.842,0,0,1-.208.592.81.81,0,0,1-1.152.048ZM14.9,11.264a.785.785,0,0,1-.576.2.755.755,0,0,1-.576-.264q-.16-.176-.472-.536l-.536-.616a.622.622,0,0,1-.144-.472.776.776,0,0,1,.24-.52.784.784,0,0,1,.48-.2.706.706,0,0,1,.512.152,5.542,5.542,0,0,1,.608.512,5.21,5.21,0,0,1,.544.592.821.821,0,0,1,.192.576A.86.86,0,0,1,14.9,11.264Zm7.68,9.6a1.233,1.233,0,0,1-.944.04,1.193,1.193,0,0,1-.7-.632,1.228,1.228,0,0,1-.032-.952,1.163,1.163,0,0,1,.64-.7,5.814,5.814,0,0,0,2.528-2.1,6.67,6.67,0,0,0,.944-3.416H22.992q.016.56.008,1.08t-.04.952a1.2,1.2,0,0,1-1.28,1.152,1.12,1.12,0,0,1-.832-.424,1.3,1.3,0,0,1-.3-.888q.032-.384.04-.864T20.576,13.1h-3.04a1.2,1.2,0,0,1,0-2.4H20.5q-.032-.48-.072-.912t-.088-.752a1.29,1.29,0,0,1,.216-.92,1.119,1.119,0,0,1,.776-.488,1.212,1.212,0,0,1,.92.208,1.1,1.1,0,0,1,.472.8q.064.432.112.96t.08,1.1h2.08q-.016-.608-.056-1.184t-.072-1.008a1.257,1.257,0,0,1,.288-.9,1.161,1.161,0,0,1,.816-.44,1.24,1.24,0,0,1,.9.3,1.146,1.146,0,0,1,.424.84q.048.464.072,1.1t.04,1.3h2.784a1.2,1.2,0,0,1,0,2.4H27.408Q27.216,18.72,22.576,20.864Zm7.952-12.3q-.176-.16-.544-.472t-.64-.52a.7.7,0,0,1-.2-.44.729.729,0,0,1,.152-.552.746.746,0,0,1,.448-.28.793.793,0,0,1,.528.072q.288.16.672.424a5.479,5.479,0,0,1,.64.5.83.83,0,0,1,.08,1.152.74.74,0,0,1-.528.3A.778.778,0,0,1,30.528,8.56ZM29.04,10.128q-.16-.176-.5-.52t-.568-.584a.663.663,0,0,1-.16-.464.789.789,0,0,1,.208-.528.739.739,0,0,1,.456-.232.724.724,0,0,1,.52.12,6.415,6.415,0,0,1,.632.48,4.611,4.611,0,0,1,.584.576.842.842,0,0,1,.224.568.869.869,0,0,1-.24.584.827.827,0,0,1-.568.24A.721.721,0,0,1,29.04,10.128ZM40.8,20.944a1.2,1.2,0,0,1-.864-.36,1.175,1.175,0,0,1-.368-.872v-5.9q-.928.816-1.92,1.56t-1.984,1.4a1.139,1.139,0,0,1-.928.144,1.243,1.243,0,0,1-.768-.56,1.231,1.231,0,0,1-.136-.936,1.21,1.21,0,0,1,.552-.76q.688-.432,1.528-1.072t1.72-1.384q.88-.744,1.72-1.536t1.52-1.528a12.1,12.1,0,0,0,1.1-1.344,1.26,1.26,0,0,1,.808-.512,1.17,1.17,0,0,1,.92.192,1.231,1.231,0,0,1,.52.792,1.114,1.114,0,0,1-.2.92q-.432.56-.92,1.136t-1.048,1.152v8.24a1.175,1.175,0,0,1-.368.872A1.214,1.214,0,0,1,40.8,20.944Zm11.456-1.36a1.207,1.207,0,0,1-.952-.04,1.19,1.19,0,0,1-.648-.7,1.227,1.227,0,0,1,.04-.96,1.131,1.131,0,0,1,.7-.64,20.044,20.044,0,0,0,2.536-1.088,28.232,28.232,0,0,0,2.48-1.424,20.962,20.962,0,0,0,2.16-1.584,12.722,12.722,0,0,0,1.592-1.568,1.13,1.13,0,0,1,.824-.44,1.242,1.242,0,0,1,.9.28,1.07,1.07,0,0,1,.456.816,1.254,1.254,0,0,1-.28.912A13.374,13.374,0,0,1,60.3,14.88a27.6,27.6,0,0,1-2.44,1.8,32.243,32.243,0,0,1-2.792,1.648A23.077,23.077,0,0,1,52.256,19.584Zm1.136-6.512q-.64-.528-1.36-1.064A14.028,14.028,0,0,0,50.7,11.12a1.167,1.167,0,0,1-.56-.76,1.211,1.211,0,0,1,.144-.92,1.174,1.174,0,0,1,.76-.576,1.112,1.112,0,0,1,.92.144q.48.3,1.032.68t1.056.76q.5.384.856.688a1.3,1.3,0,0,1,.464.816,1.143,1.143,0,0,1-.24.912,1.2,1.2,0,0,1-.824.472A1.13,1.13,0,0,1,53.392,13.072Zm22.64,7.664A7.578,7.578,0,0,1,72.8,19.6a5.614,5.614,0,0,1-1.9-2.072,5.485,5.485,0,0,1-.624-2.552,5.871,5.871,0,0,1,.392-2.176,5.747,5.747,0,0,1,1.128-1.792q-1.04.176-2.032.352t-1.824.32l-1.392.24a1.093,1.093,0,0,1-.872-.216,1.184,1.184,0,0,1-.472-.776,1.235,1.235,0,0,1,.216-.9,1.074,1.074,0,0,1,.776-.464q.688-.1,1.752-.264t2.288-.368l2.44-.4q1.216-.2,2.24-.384T76.56,7.84a1.071,1.071,0,0,1,.864.184,1.17,1.17,0,0,1,.5.744,1.192,1.192,0,0,1-.152.88,1,1,0,0,1-.728.5,5.176,5.176,0,0,0-1.888.608,4.984,4.984,0,0,0-2.224,2.576,4.307,4.307,0,0,0-.288,1.52,3.106,3.106,0,0,0,.976,2.352,4.9,4.9,0,0,0,2.752,1.184,1.171,1.171,0,0,1,1.008,1.344,1.108,1.108,0,0,1-.456.784A1.189,1.189,0,0,1,76.032,20.736Zm3.52-7.9a.769.769,0,0,1-.584.208.753.753,0,0,1-.568-.288q-.16-.176-.464-.544t-.528-.624a.677.677,0,0,1-.128-.48.7.7,0,0,1,.256-.512.748.748,0,0,1,.48-.192.736.736,0,0,1,.512.16q.256.208.584.528a4.76,4.76,0,0,1,.536.608.79.79,0,0,1,.184.576A.836.836,0,0,1,79.552,12.832Zm-1.76,1.408a.768.768,0,0,1-.592.144.735.735,0,0,1-.528-.336q-.128-.208-.408-.6t-.472-.664a.662.662,0,0,1-.08-.488.743.743,0,0,1,.3-.488.721.721,0,0,1,.5-.144.773.773,0,0,1,.5.208,6.156,6.156,0,0,1,.536.584,5.06,5.06,0,0,1,.472.664.82.82,0,0,1,.12.592A.862.862,0,0,1,77.792,14.24ZM-110.384,40.784a1.061,1.061,0,0,1-.776-.328,1.061,1.061,0,0,1-.328-.776,1.079,1.079,0,0,1,.328-.792,1.061,1.061,0,0,1,.776-.328h6.544q.192-.544.432-1.288t.488-1.544q.248-.8.456-1.52t.32-1.216a1.109,1.109,0,0,1,.576-.776,1.287,1.287,0,0,1,.944-.1,1.176,1.176,0,0,1,.744.536,1.1,1.1,0,0,1,.072.952q-.144.464-.352,1.1t-.448,1.32q-.24.688-.48,1.352t-.432,1.192h3.936a1.053,1.053,0,0,1,.784.328,1.093,1.093,0,0,1,.32.792,1.074,1.074,0,0,1-.32.776,1.053,1.053,0,0,1-.784.328Zm.688-9.072a1.035,1.035,0,0,1-.768-.328,1.074,1.074,0,0,1-.32-.776,1.066,1.066,0,0,1,.32-.784,1.047,1.047,0,0,1,.768-.32h4.448v-1.7a1.18,1.18,0,0,1,.368-.9,1.244,1.244,0,0,1,.88-.344,1.272,1.272,0,0,1,.888.344,1.167,1.167,0,0,1,.376.9v1.7H-98.4a1.066,1.066,0,0,1,.784.32,1.066,1.066,0,0,1,.32.784,1.074,1.074,0,0,1-.32.776,1.053,1.053,0,0,1-.784.328Zm3.808,6.544a1.139,1.139,0,0,1-.912-.12,1.056,1.056,0,0,1-.5-.712q-.1-.5-.28-1.184t-.384-1.36q-.2-.672-.344-1.136a1,1,0,0,1,.088-.88,1.1,1.1,0,0,1,.664-.512,1.353,1.353,0,0,1,.9.016.975.975,0,0,1,.576.672q.176.5.376,1.216t.384,1.448q.184.728.3,1.224a1.02,1.02,0,0,1-.136.848A1.246,1.246,0,0,1-105.888,38.256Zm19.824,3.2a1.156,1.156,0,0,1-.816-.312,1.091,1.091,0,0,1-.336-.84V39.088h-.8a1.111,1.111,0,0,1-.816-.336,1.111,1.111,0,0,1-.336-.816,1.13,1.13,0,0,1,.336-.832,1.111,1.111,0,0,1,.816-.336h.8V34.4q-.608.944-1.3,1.864a15.073,15.073,0,0,1-1.336,1.56,1.318,1.318,0,0,1-.688.368,1.193,1.193,0,0,1-.768-.1v2.16a1.092,1.092,0,0,1-.336.8,1.092,1.092,0,0,1-.8.336,1.092,1.092,0,0,1-.8-.336,1.092,1.092,0,0,1-.336-.8V33.84a.419.419,0,0,1-.048.072q-.032.04-.064.088a1.043,1.043,0,0,1-.752.424,1.181,1.181,0,0,1-.88-.248,1.026,1.026,0,0,1-.408-.7,1.006,1.006,0,0,1,.2-.768,14.682,14.682,0,0,0,1.12-1.672q.544-.936,1-1.912t.76-1.792a1.1,1.1,0,0,1,.616-.7,1.231,1.231,0,0,1,.9.008,1.1,1.1,0,0,1,.608.536,1.07,1.07,0,0,1,.016.872,19.566,19.566,0,0,1-.8,1.936V36q.528-.576,1.144-1.352t1.184-1.56q.568-.784.952-1.36h-1.952a1.074,1.074,0,0,1-.776-.32,1.035,1.035,0,0,1-.328-.768,1.035,1.035,0,0,1,.328-.768,1.074,1.074,0,0,1,.776-.32h2.768V27.584a1.071,1.071,0,0,1,.336-.824,1.156,1.156,0,0,1,.816-.312,1.136,1.136,0,0,1,.8.312,1.071,1.071,0,0,1,.336.824v1.968h3.2a1.047,1.047,0,0,1,.768.32,1.047,1.047,0,0,1,.32.768,1.047,1.047,0,0,1-.32.768,1.047,1.047,0,0,1-.768.32h-2.48q.32.48.776,1.064t.968,1.184q.512.6,1,1.136t.856.92a1.185,1.185,0,0,1,.36.848,1.1,1.1,0,0,1-.36.848,1.35,1.35,0,0,1-.9.368,1.147,1.147,0,0,1-.88-.352,18.594,18.594,0,0,1-1.264-1.5q-.672-.88-1.28-1.76v2.288h.8a1.13,1.13,0,0,1,.832.336,1.13,1.13,0,0,1,.336.832,1.111,1.111,0,0,1-.336.816,1.13,1.13,0,0,1-.832.336h-.8V40.3a1.091,1.091,0,0,1-.336.84A1.136,1.136,0,0,1-86.064,41.456Zm6.672-4.864a.928.928,0,0,1-.392-.616.921.921,0,0,1,.168-.728,6.514,6.514,0,0,0,.88-1.848,9.23,9.23,0,0,0,.336-2.568,4.333,4.333,0,0,1,.3-1.624,1.652,1.652,0,0,1,.9-.864,4.512,4.512,0,0,1,1.7-.264h4.112q0-.176-.008-.344t-.008-.344a1.09,1.09,0,0,1,.248-.792.992.992,0,0,1,.744-.312q1.088-.032,1.12,1.008v.4q0,.192.016.384h1.056l-.3-.3a.751.751,0,0,1-.216-.624,1,1,0,0,1,.3-.608,1.053,1.053,0,0,1,.624-.28.839.839,0,0,1,.672.232q.08.064.256.224t.344.328l.232.232a.816.816,0,0,1,.256.8h.352a.874.874,0,0,1,.68.272.939.939,0,0,1,.248.656.919.919,0,0,1-.248.64.874.874,0,0,1-.68.272H-69.1q.1.592.224,1.128a8.172,8.172,0,0,0,.3,1q.176-.32.344-.64a6.85,6.85,0,0,0,.3-.64.909.909,0,0,1,.592-.576,1,1,0,0,1,.816.1.958.958,0,0,1,.544.568.97.97,0,0,1-.08.744,15.275,15.275,0,0,1-1.36,2.336,1.371,1.371,0,0,0,.176.176l.192.16q.4.336.576-.192.016-.048.04-.128t.04-.144a.865.865,0,0,1,.5-.528,1.081,1.081,0,0,1,.776-.032,1.022,1.022,0,0,1,.56.432.9.9,0,0,1,.064.784q-.064.224-.192.552t-.24.6a1.865,1.865,0,0,1-1.232,1.176,2.316,2.316,0,0,1-1.824-.552q-.176-.128-.368-.288t-.368-.336q-.192.224-.392.432t-.408.4a1.236,1.236,0,0,1-.76.344.945.945,0,0,1-.792-.328.908.908,0,0,1-.264-.7.916.916,0,0,1,.312-.656q.272-.24.552-.528t.552-.608a10.431,10.431,0,0,1-.76-1.784,13.07,13.07,0,0,1-.5-2.264h-3.952a1.424,1.424,0,0,0-.96.224,1.221,1.221,0,0,0-.256.8,16.011,16.011,0,0,1-.392,2.912,6.732,6.732,0,0,1-1.1,2.48,1.1,1.1,0,0,1-.7.44A1.085,1.085,0,0,1-79.392,36.592Zm7.664,4.784a8.123,8.123,0,0,1-2.144-.224,1.75,1.75,0,0,1-1.1-.784,3.106,3.106,0,0,1-.32-1.536V37.6a1.008,1.008,0,0,1,.3-.768,1.031,1.031,0,0,1,.736-.288,1.031,1.031,0,0,1,.736.288,1.008,1.008,0,0,1,.3.768v.992a1.111,1.111,0,0,0,.12.568.652.652,0,0,0,.448.272,4.851,4.851,0,0,0,.968.072,5.772,5.772,0,0,0,.928-.056,1.007,1.007,0,0,0,.488-.2,1.26,1.26,0,0,0,.3-.4,1.064,1.064,0,0,1,.584-.536,1,1,0,0,1,.792.024,1.079,1.079,0,0,1,.584.528.937.937,0,0,1,.008.768,2.769,2.769,0,0,1-.632,1.024,2.305,2.305,0,0,1-1.12.552A9.177,9.177,0,0,1-71.728,41.376Zm-2-5.28a5.6,5.6,0,0,1-1.432-.144,1.1,1.1,0,0,1-.728-.544,2.509,2.509,0,0,1-.208-1.136,2.5,2.5,0,0,1,.208-1.144,1.107,1.107,0,0,1,.728-.536,5.6,5.6,0,0,1,1.432-.144,5.5,5.5,0,0,1,1.424.144,1.1,1.1,0,0,1,.72.536,2.5,2.5,0,0,1,.208,1.144,2.509,2.509,0,0,1-.208,1.136,1.1,1.1,0,0,1-.72.544A5.5,5.5,0,0,1-73.728,36.1Zm-5.136,4.432a1.076,1.076,0,0,1-.36-.672.836.836,0,0,1,.216-.7q.16-.192.408-.5t.488-.64q.24-.328.368-.52a1.07,1.07,0,0,1,.664-.464,1.035,1.035,0,0,1,.776.16.99.99,0,0,1,.464.608.89.89,0,0,1-.16.784q-.256.4-.632.936a7.6,7.6,0,0,1-.68.856,1.148,1.148,0,0,1-.744.408A1.023,1.023,0,0,1-78.864,40.528Zm3.392-8.5a.754.754,0,0,1-.592-.232.8.8,0,0,1-.208-.552.82.82,0,0,1,.208-.568.754.754,0,0,1,.592-.232h3.616a.729.729,0,0,1,.584.232.84.84,0,0,1,.2.568.818.818,0,0,1-.2.552.729.729,0,0,1-.584.232ZM-65.024,40.5a1.047,1.047,0,0,1-.776.208.917.917,0,0,1-.68-.384q-.144-.208-.4-.544t-.528-.68a6.476,6.476,0,0,0-.48-.552.732.732,0,0,1-.192-.656,1,1,0,0,1,.352-.624.986.986,0,0,1,.72-.248,1,1,0,0,1,.688.328,6.17,6.17,0,0,1,.512.552q.288.344.56.68t.416.528a.948.948,0,0,1,.216.712A.979.979,0,0,1-65.024,40.5ZM-70.592,38.7a1.049,1.049,0,0,1-.72.248.858.858,0,0,1-.688-.36l-.36-.44a3.354,3.354,0,0,0-.344-.376.693.693,0,0,1-.192-.64.935.935,0,0,1,.352-.608,1.01,1.01,0,0,1,.664-.232.982.982,0,0,1,.664.3q.368.336.72.72a.94.94,0,0,1,.3.72A.916.916,0,0,1-70.592,38.7Zm-3.136-4.016a1.245,1.245,0,0,0,.536-.072q.12-.072.12-.344t-.12-.344a1.245,1.245,0,0,0-.536-.072,1.245,1.245,0,0,0-.536.072q-.12.072-.12.344t.12.344A1.245,1.245,0,0,0-73.728,34.688Zm19.6,5.44a1.216,1.216,0,0,1-.912-.136,1.151,1.151,0,0,1-.56-.728,1.172,1.172,0,0,1,.144-.9,1.122,1.122,0,0,1,.72-.536A4.182,4.182,0,0,0-52.264,36.4a4.134,4.134,0,0,0,.728-2.512,3.249,3.249,0,0,0-.856-2.288,3.861,3.861,0,0,0-2.424-1.136,20.859,20.859,0,0,1-1.032,4.688,8.969,8.969,0,0,1-1.664,2.992,2.724,2.724,0,0,1-1.992,1.04,2.892,2.892,0,0,1-1.664-.512,3.528,3.528,0,0,1-1.2-1.48,5.6,5.6,0,0,1-.448-2.36A6.357,6.357,0,0,1-62.3,32.3a6.514,6.514,0,0,1,1.456-2.112,6.776,6.776,0,0,1,2.248-1.44,7.732,7.732,0,0,1,2.888-.52,8.033,8.033,0,0,1,2.616.408,6.191,6.191,0,0,1,2.064,1.16,5.241,5.241,0,0,1,1.352,1.792,5.432,5.432,0,0,1,.48,2.3,6.481,6.481,0,0,1-1.216,4.024A6.332,6.332,0,0,1-54.128,40.128Zm-5.36-3.376q.272,0,.736-.76a10.837,10.837,0,0,0,.928-2.152,17.382,17.382,0,0,0,.7-3.28,4.406,4.406,0,0,0-1.856.92A4.168,4.168,0,0,0-60.1,33a4.711,4.711,0,0,0-.392,1.8,2.9,2.9,0,0,0,.264,1.488A.842.842,0,0,0-59.488,36.752Zm22.112,4.32a1.42,1.42,0,0,1-.936-.1,1.009,1.009,0,0,1-.584-.688,1.07,1.07,0,0,1,.128-.88,1.191,1.191,0,0,1,.72-.544A3.8,3.8,0,0,0-36.24,37.84a2.524,2.524,0,0,0,.576-1.728,2.181,2.181,0,0,0-.424-1.328,2.621,2.621,0,0,0-1.272-.88,10.232,10.232,0,0,1-.744,2.16,10.262,10.262,0,0,1-1.144,1.872l.064.1a.4.4,0,0,1,.048.1,1.156,1.156,0,0,1,.184.888,1.108,1.108,0,0,1-.5.76,1.146,1.146,0,0,1-.768.176,1.154,1.154,0,0,1-.7-.336,6.528,6.528,0,0,1-1.52.848,4.35,4.35,0,0,1-1.584.3,2.927,2.927,0,0,1-2-.672,2.8,2.8,0,0,1-.768-2.208,5,5,0,0,1,.512-2.24,6.265,6.265,0,0,1,1.4-1.856,8.44,8.44,0,0,1,1.992-1.36q0-.72.048-1.488-1.328.08-2.448.048a1.009,1.009,0,0,1-.784-.36,1.142,1.142,0,0,1-.3-.824A1.117,1.117,0,0,1-46,29.016a1.13,1.13,0,0,1,.816-.3q.608.016,1.256,0l1.32-.032q.048-.288.1-.568t.12-.568a1.148,1.148,0,0,1,.5-.752,1.069,1.069,0,0,1,.88-.16,1.085,1.085,0,0,1,.752.512,1.149,1.149,0,0,1,.144.9q-.016.112-.04.224t-.056.24q.608-.064,1.176-.136l1.064-.136a1.135,1.135,0,0,1,.856.184,1.062,1.062,0,0,1,.472.728,1.14,1.14,0,0,1-.192.864,1.027,1.027,0,0,1-.736.464q-1.36.192-2.992.32-.016.224-.032.44t-.032.44a8.064,8.064,0,0,1,1.52-.144,7.566,7.566,0,0,1,3.16.584,4.317,4.317,0,0,1,1.92,1.616,4.373,4.373,0,0,1,.648,2.376,5.227,5.227,0,0,1-.96,3.2A4.948,4.948,0,0,1-37.376,41.072Zm-6.432-2.512a2.017,2.017,0,0,0,.9-.24,4.662,4.662,0,0,0,.96-.656,11.5,11.5,0,0,1-.44-1.392q-.184-.736-.312-1.52a4.678,4.678,0,0,0-1.344,1.408,3.169,3.169,0,0,0-.5,1.664.844.844,0,0,0,.176.592A.841.841,0,0,0-43.808,38.56Zm3.52-3.04a7.79,7.79,0,0,0,.752-1.856q-.272.016-.536.056t-.52.1q.048.448.12.864T-40.288,35.52Zm16.1,5.472a4.446,4.446,0,0,1-1.736-.408,2.693,2.693,0,0,1-1.144-1,2.474,2.474,0,0,1-.352-1.488,2.426,2.426,0,0,1,.432-1.264,2.492,2.492,0,0,1,1.048-.84,2.974,2.974,0,0,1,1.512-.216,2.607,2.607,0,0,1,1.92.816,2.153,2.153,0,0,1,.448,1.744,1.752,1.752,0,0,0,.648-.776,2.747,2.747,0,0,0,.2-1.08,1.773,1.773,0,0,0-.312-.976,2.4,2.4,0,0,0-.88-.792,2.812,2.812,0,0,0-1.344-.32,3.868,3.868,0,0,0-1.7.44,7.38,7.38,0,0,0-1.968,1.5,1.267,1.267,0,0,1-.936.392,1.125,1.125,0,0,1-.92-.408,1.205,1.205,0,0,1-.28-.856.985.985,0,0,1,.408-.776q.96-.72,1.952-1.552t1.888-1.64q.9-.808,1.568-1.464.256-.24.176-.448t-.5-.144q-.56.08-1.152.16l-1.2.16a1.145,1.145,0,0,1-.872-.232,1.194,1.194,0,0,1-.472-.792,1.145,1.145,0,0,1,.232-.872,1.135,1.135,0,0,1,.792-.456q.4-.064.968-.112l1.144-.1q.576-.048.976-.064a3.051,3.051,0,0,1,1.76.312,2.059,2.059,0,0,1,.944,1.048,2.217,2.217,0,0,1,.056,1.408,2.95,2.95,0,0,1-.92,1.408q-.208.208-.568.528t-.808.7a4.739,4.739,0,0,1,2.152.424,3.821,3.821,0,0,1,1.592,1.36,3.91,3.91,0,0,1,.608,2.232A4.423,4.423,0,0,1-19.52,39.1a4.018,4.018,0,0,1-1.9,1.5A6.555,6.555,0,0,1-24.192,40.992Zm-.416-2.192a5.358,5.358,0,0,0,.592,0,.868.868,0,0,0,.08-.7.6.6,0,0,0-.528-.376.765.765,0,0,0-.544.064.481.481,0,0,0-.256.368.447.447,0,0,0,.152.432A1.188,1.188,0,0,0-24.608,38.8Zm18.016,2.752a10.028,10.028,0,0,1-2.984-.216,4.82,4.82,0,0,1-1.944-.92,2.98,2.98,0,0,1-.968-1.432,3.778,3.778,0,0,1-.088-1.752,2.79,2.79,0,0,1,.864-1.608,3.935,3.935,0,0,1,1.744-.9,6.348,6.348,0,0,1,2.336-.1q-.128-.224-.256-.456t-.256-.472q-.9.144-1.8.264t-1.736.2a1.069,1.069,0,0,1-.84-.264,1.106,1.106,0,0,1-.392-.792,1.093,1.093,0,0,1,.264-.848,1.1,1.1,0,0,1,.792-.4q.624-.048,1.3-.128t1.384-.192q-.064-.176-.136-.368t-.152-.368q-.592.1-1.144.168l-1.048.136a1.15,1.15,0,0,1-.856-.248,1.087,1.087,0,0,1-.424-.776,1.08,1.08,0,0,1,.24-.848,1.092,1.092,0,0,1,.768-.432q.384-.032.824-.1l.888-.128q-.048-.192-.1-.384t-.1-.384a1.183,1.183,0,0,1,.136-.9,1.094,1.094,0,0,1,.728-.544,1.141,1.141,0,0,1,.9.12,1.1,1.1,0,0,1,.536.728l.128.48.128.48.872-.184q.424-.088.792-.168a1.1,1.1,0,0,1,.872.144,1.135,1.135,0,0,1,.52.72,1.074,1.074,0,0,1-.144.864,1.207,1.207,0,0,1-.72.528q-.352.064-.72.144t-.752.16a6.514,6.514,0,0,0,.288.736q.608-.128,1.192-.264t1.08-.264a1.033,1.033,0,0,1,.872.136,1.165,1.165,0,0,1,.52.728,1.074,1.074,0,0,1-.144.864,1.207,1.207,0,0,1-.72.528q-.4.112-.848.216t-.944.2a13.737,13.737,0,0,0,.76,1.184,6.9,6.9,0,0,0,.808.944A1.094,1.094,0,0,1-3.9,36.1a1.22,1.22,0,0,1-.176.792,1.2,1.2,0,0,1-.624.5,1.091,1.091,0,0,1-.8-.016A7.481,7.481,0,0,0-7.912,36.7a3.745,3.745,0,0,0-1.7.184.986.986,0,0,0-.7.76,1.138,1.138,0,0,0,.728,1.232,6.46,6.46,0,0,0,2.856.3,1.139,1.139,0,0,1,.864.3,1.125,1.125,0,0,1,.384.84,1.09,1.09,0,0,1-.3.848A1.19,1.19,0,0,1-6.592,41.552Zm13.328-.7a1.169,1.169,0,0,1-.848-.344,1.186,1.186,0,0,1-.368-.84,1.115,1.115,0,0,1,.328-.848,1.13,1.13,0,0,1,.84-.352,6.893,6.893,0,0,0,3.224-.64,1.864,1.864,0,0,0,1.064-1.68A1.458,1.458,0,0,0,10.48,35a2.079,2.079,0,0,0-1.424-.44,4.321,4.321,0,0,0-1.384.24,5.6,5.6,0,0,0-1.36.68,5.022,5.022,0,0,0-1.128,1.048A1.069,1.069,0,0,1,4.5,36.9a1.228,1.228,0,0,1-.768-.112,1.034,1.034,0,0,1-.5-.528,1.286,1.286,0,0,1-.088-.736q.112-.72.264-1.568T3.72,32.3q.168-.8.3-1.344a1.186,1.186,0,0,1,.552-.736,1.091,1.091,0,0,1,.888-.128,1.121,1.121,0,0,1,.736.544,1.144,1.144,0,0,1,.128.912q-.192.816-.464,1.76a7.821,7.821,0,0,1,1.616-.744A5.374,5.374,0,0,1,9.136,32.3a4.956,4.956,0,0,1,2.24.472A3.449,3.449,0,0,1,12.832,34.1a3.9,3.9,0,0,1,.512,2.04,3.993,3.993,0,0,1-1.7,3.416A8.475,8.475,0,0,1,6.736,40.848ZM9.2,30.736q-.48-.24-1.112-.536T6.8,29.624q-.656-.28-1.216-.488a1.009,1.009,0,0,1-.608-.656,1.216,1.216,0,0,1,.048-.928,1.113,1.113,0,0,1,.68-.592,1.366,1.366,0,0,1,.92.032q.848.32,1.76.72t1.744.832a1.254,1.254,0,0,1,.624.648,1.112,1.112,0,0,1,0,.9,1.141,1.141,0,0,1-.64.648A1.07,1.07,0,0,1,9.2,30.736ZM25.408,41.552a10.028,10.028,0,0,1-2.984-.216,4.82,4.82,0,0,1-1.944-.92,2.98,2.98,0,0,1-.968-1.432,3.778,3.778,0,0,1-.088-1.752,2.79,2.79,0,0,1,.864-1.608,3.935,3.935,0,0,1,1.744-.9,6.348,6.348,0,0,1,2.336-.1q-.128-.224-.256-.456t-.256-.472q-.9.144-1.8.264t-1.736.2a1.069,1.069,0,0,1-.84-.264,1.106,1.106,0,0,1-.392-.792,1.138,1.138,0,0,1,1.056-1.248q.624-.048,1.3-.128t1.384-.192q-.064-.176-.136-.368t-.152-.368q-.592.1-1.144.168l-1.048.136a1.15,1.15,0,0,1-.856-.248A1.16,1.16,0,0,1,20.08,28.8q.384-.032.824-.1l.888-.128q-.048-.192-.1-.384t-.1-.384a1.183,1.183,0,0,1,.136-.9,1.094,1.094,0,0,1,.728-.544,1.141,1.141,0,0,1,.9.12,1.1,1.1,0,0,1,.536.728l.128.48.128.48.872-.184q.424-.088.792-.168a1.1,1.1,0,0,1,.872.144,1.135,1.135,0,0,1,.52.72,1.074,1.074,0,0,1-.144.864,1.207,1.207,0,0,1-.72.528q-.352.064-.72.144t-.752.16a6.514,6.514,0,0,0,.288.736q.608-.128,1.192-.264t1.08-.264a1.033,1.033,0,0,1,.872.136,1.165,1.165,0,0,1,.52.728,1.074,1.074,0,0,1-.144.864,1.207,1.207,0,0,1-.72.528q-.4.112-.848.216t-.944.2a13.737,13.737,0,0,0,.76,1.184,6.9,6.9,0,0,0,.808.944,1.094,1.094,0,0,1,.368.712,1.22,1.22,0,0,1-.176.792,1.2,1.2,0,0,1-.624.5,1.091,1.091,0,0,1-.8-.016,7.481,7.481,0,0,0-2.408-.672,3.745,3.745,0,0,0-1.7.184.986.986,0,0,0-.7.76,1.138,1.138,0,0,0,.728,1.232,6.46,6.46,0,0,0,2.856.3,1.139,1.139,0,0,1,.864.3,1.125,1.125,0,0,1,.384.84,1.09,1.09,0,0,1-.3.848A1.19,1.19,0,0,1,25.408,41.552Zm13.328-.7a1.169,1.169,0,0,1-.848-.344,1.186,1.186,0,0,1-.368-.84,1.115,1.115,0,0,1,.328-.848,1.13,1.13,0,0,1,.84-.352,6.893,6.893,0,0,0,3.224-.64,1.864,1.864,0,0,0,1.064-1.68A1.458,1.458,0,0,0,42.48,35a2.079,2.079,0,0,0-1.424-.44,4.321,4.321,0,0,0-1.384.24,5.6,5.6,0,0,0-1.36.68,5.022,5.022,0,0,0-1.128,1.048,1.069,1.069,0,0,1-.688.368,1.228,1.228,0,0,1-.768-.112,1.034,1.034,0,0,1-.5-.528,1.286,1.286,0,0,1-.088-.736q.112-.72.264-1.568t.32-1.648q.168-.8.3-1.344a1.187,1.187,0,0,1,.552-.736,1.091,1.091,0,0,1,.888-.128,1.121,1.121,0,0,1,.736.544,1.144,1.144,0,0,1,.128.912q-.192.816-.464,1.76a7.821,7.821,0,0,1,1.616-.744,5.374,5.374,0,0,1,1.664-.264,4.956,4.956,0,0,1,2.24.472A3.449,3.449,0,0,1,44.832,34.1a3.9,3.9,0,0,1,.512,2.04,3.993,3.993,0,0,1-1.7,3.416A8.475,8.475,0,0,1,38.736,40.848ZM41.2,30.736q-.48-.24-1.112-.536T38.8,29.624q-.656-.28-1.216-.488a1.009,1.009,0,0,1-.608-.656,1.216,1.216,0,0,1,.048-.928,1.113,1.113,0,0,1,.68-.592,1.366,1.366,0,0,1,.92.032q.848.32,1.76.72t1.744.832a1.254,1.254,0,0,1,.624.648,1.112,1.112,0,0,1,0,.9,1.141,1.141,0,0,1-.64.648A1.07,1.07,0,0,1,41.2,30.736Zm14.384,10.48a3.286,3.286,0,0,1-2.184-.7,2.445,2.445,0,0,1-.84-1.984,2.368,2.368,0,0,1,.848-1.912,3.343,3.343,0,0,1,2.224-.712,5.2,5.2,0,0,1,.7.048v-2.7a1.157,1.157,0,0,1,.336-.84,1.117,1.117,0,0,1,.832-.344,1.091,1.091,0,0,1,.824.344,1.172,1.172,0,0,1,.328.84v3.216a12.719,12.719,0,0,1,1.6.664,9.8,9.8,0,0,1,1.312.776,1.106,1.106,0,0,1,.488.776,1.217,1.217,0,0,1-.992,1.376,1.09,1.09,0,0,1-.888-.216q-.336-.256-.728-.5a8.164,8.164,0,0,0-.824-.456,2.557,2.557,0,0,1-.944,1.72A3.3,3.3,0,0,1,55.584,41.216ZM49.808,36.8a1.209,1.209,0,0,1-.352-.864,1.081,1.081,0,0,1,.368-.832,10.05,10.05,0,0,0,1.464-1.648,11.071,11.071,0,0,0,1.1-1.92l-.656.064q-.32.032-.592.048a1.149,1.149,0,0,1-1.248-1.12,1.126,1.126,0,0,1,.28-.824,1.287,1.287,0,0,1,.84-.392q.48-.048,1.008-.112t1.072-.144a8.3,8.3,0,0,0,.1-1.264,1.233,1.233,0,0,1,.344-.84,1.091,1.091,0,0,1,.824-.344,1.2,1.2,0,0,1,.856.344,1.067,1.067,0,0,1,.344.84q-.016.208-.024.424a3.682,3.682,0,0,1-.04.424l.08-.016a1.13,1.13,0,0,1,.9.152,1.1,1.1,0,0,1,.512.744,1.069,1.069,0,0,1-.16.88,1.21,1.21,0,0,1-.752.512l-.5.1-.592.12a14.26,14.26,0,0,1-1.408,3.136,10.625,10.625,0,0,1-2.08,2.528,1.253,1.253,0,0,1-.848.344A1.11,1.11,0,0,1,49.808,36.8Zm10.656-4.176A12.9,12.9,0,0,0,59.328,32a9.909,9.909,0,0,0-1.1-.464,1.514,1.514,0,0,1-.712-.56,1.043,1.043,0,0,1-.152-.864,1.217,1.217,0,0,1,.552-.744,1.031,1.031,0,0,1,.888-.12,9.692,9.692,0,0,1,1.048.376q.552.232,1.072.488a8.566,8.566,0,0,1,.888.5,1.04,1.04,0,0,1,.5.76,1.263,1.263,0,0,1-.192.92,1.148,1.148,0,0,1-.752.5A1.2,1.2,0,0,1,60.464,32.624Zm-4.912,6.448a.7.7,0,0,0,.784-.8v-.208q-.208-.032-.4-.048T55.552,38q-.736,0-.736.528Q54.816,39.072,55.552,39.072Zm14.368,2.1a.81.81,0,0,1-.632-.256.923.923,0,0,1,0-1.224.823.823,0,0,1,.632-.248h3.472v-.368H70.544a.722.722,0,0,1-.568-.224.767.767,0,0,1-.2-.528.788.788,0,0,1,.2-.544.722.722,0,0,1,.568-.224h2.848v-.368h-.8a4,4,0,0,1-1.4-.2,1.279,1.279,0,0,1-.744-.744,4.227,4.227,0,0,1-.224-1.552,4.161,4.161,0,0,1,.224-1.544,1.31,1.31,0,0,1,.744-.744,3.855,3.855,0,0,1,1.4-.208h3.6a3.855,3.855,0,0,1,1.4.208,1.338,1.338,0,0,1,.752.744,4.03,4.03,0,0,1,.232,1.544,4.094,4.094,0,0,1-.232,1.552,1.307,1.307,0,0,1-.752.744,4,4,0,0,1-1.4.2h-.8v.368h2.8a.722.722,0,0,1,.568.224.788.788,0,0,1,.2.544.767.767,0,0,1-.2.528.722.722,0,0,1-.568.224h-2.8v.368H78.8a.818.818,0,0,1,.64.248.948.948,0,0,1,0,1.224.8.8,0,0,1-.64.256Zm-2.784-1.936a4.079,4.079,0,0,1-1.464-.208,1.212,1.212,0,0,1-.712-.68,3.5,3.5,0,0,1-.192-1.288v-7.6a3.571,3.571,0,0,1,.192-1.3,1.183,1.183,0,0,1,.712-.68,5.488,5.488,0,0,1,2.936,0,1.183,1.183,0,0,1,.7.68,3.571,3.571,0,0,1,.192,1.3v7.6a3.5,3.5,0,0,1-.192,1.288,1.213,1.213,0,0,1-.7.68A4.068,4.068,0,0,1,67.136,39.232Zm3.344-7.408a.773.773,0,0,1-.616-.248.882.882,0,0,1-.216-.6.853.853,0,0,1,.216-.592.786.786,0,0,1,.616-.24H71.7a.83.83,0,0,0-.032-.1.2.2,0,0,1-.016-.072.748.748,0,0,1,.016-.656h-.9a.773.773,0,0,1-.616-.248.882.882,0,0,1-.216-.6.853.853,0,0,1,.216-.592.786.786,0,0,1,.616-.24h2.576v-.368a.925.925,0,0,1,.3-.728,1.076,1.076,0,0,1,.744-.264,1.1,1.1,0,0,1,.76.264.925.925,0,0,1,.3.728v.368h2.624a.786.786,0,0,1,.616.24.853.853,0,0,1,.216.592.882.882,0,0,1-.216.6.773.773,0,0,1-.616.248h-.928a.748.748,0,0,1,.016.656.2.2,0,0,1-.016.072.83.83,0,0,0-.032.1h1.552a.786.786,0,0,1,.616.24.853.853,0,0,1,.216.592.882.882,0,0,1-.216.6.773.773,0,0,1-.616.248Zm3.28-1.68h1.28q.064-.208.136-.424a2.367,2.367,0,0,0,.088-.312.129.129,0,0,0,.016-.056.054.054,0,0,1,.016-.04H73.5a.246.246,0,0,1,.032.1q.032.1.1.312T73.76,30.144ZM67.136,37.3a.469.469,0,0,0,.32-.088.523.523,0,0,0,.1-.376v-.976h-.816v.976a.523.523,0,0,0,.1.376A.44.44,0,0,0,67.136,37.3Zm-.4-3.44h.816V32.5h-.816Zm0-3.36h.816V29.68a.523.523,0,0,0-.1-.376.469.469,0,0,0-.32-.088.44.44,0,0,0-.3.088.523.523,0,0,0-.1.376Zm8.656,3.6H76.48a.514.514,0,0,0-.192-.416,1.214,1.214,0,0,0-.576-.1h-.32Zm-3.088,0h1.088v-.512h-.32a1.167,1.167,0,0,0-.56.1A.552.552,0,0,0,72.3,34.1Zm.768,1.7h.32v-.5H72.3a.523.523,0,0,0,.208.408A1.26,1.26,0,0,0,73.072,35.792Zm2.32,0h.32a1.26,1.26,0,0,0,.56-.088.523.523,0,0,0,.208-.408H75.392Zm8.192,4.736a1.175,1.175,0,0,1-.888-.2,1.11,1.11,0,0,1-.488-.76,15.79,15.79,0,0,1-.232-1.92q-.072-1.088-.08-2.3t.056-2.44q.064-1.232.2-2.352t.328-2.016a1.168,1.168,0,0,1,.528-.76,1.13,1.13,0,0,1,.9-.152,1.2,1.2,0,0,1,.752.52,1.12,1.12,0,0,1,.16.9,24.209,24.209,0,0,0-.384,2.44q-.144,1.32-.184,2.68t.032,2.64a18.6,18.6,0,0,0,.264,2.32,1.2,1.2,0,0,1-.192.9A1.156,1.156,0,0,1,83.584,40.528Zm6.528-.816a5.573,5.573,0,0,1-3.152-.728,3.4,3.4,0,0,1-1.344-2.328,1.2,1.2,0,0,1,.2-.9,1.119,1.119,0,0,1,.776-.488,1.15,1.15,0,0,1,.88.2,1.185,1.185,0,0,1,.5.776,1.231,1.231,0,0,0,.576.832,3.4,3.4,0,0,0,1.664.288,9.063,9.063,0,0,0,1.28-.1q.672-.1,1.52-.272a1.091,1.091,0,0,1,.888.16,1.207,1.207,0,0,1,.52.768,1.116,1.116,0,0,1-.176.88,1.277,1.277,0,0,1-.752.528,14.058,14.058,0,0,1-1.768.3A16.1,16.1,0,0,1,90.112,39.712Zm-2.816-8a1.194,1.194,0,0,1-.888-.192,1.14,1.14,0,0,1-.5-.752,1.163,1.163,0,0,1,.176-.9,1.077,1.077,0,0,1,.752-.5,15.4,15.4,0,0,1,2.08-.256,21.2,21.2,0,0,1,2.176-.016,16.279,16.279,0,0,1,1.936.192,1.025,1.025,0,0,1,.752.48,1.219,1.219,0,0,1,.192.9,1.076,1.076,0,0,1-.488.776,1.214,1.214,0,0,1-.888.184,14.742,14.742,0,0,0-2.624-.192A14.448,14.448,0,0,0,87.3,31.712ZM104,41.12a.638.638,0,0,1-.448-.2,3.956,3.956,0,0,1-.432-.5,2.036,2.036,0,0,0-.224-.3q-.16-.184-.384-.424-.544-.64-1.4-1.672a24.1,24.1,0,0,1-1.656-2.264,10.472,10.472,0,0,1-1.936-5.408,3.251,3.251,0,0,1,1.072-2.432,3.431,3.431,0,0,1,2.448-.992,3.24,3.24,0,0,1,1.776.488A3.139,3.139,0,0,1,104,28.848a3.139,3.139,0,0,1,1.184-1.432,3.24,3.24,0,0,1,1.776-.488,3.431,3.431,0,0,1,2.512,1.056,3.241,3.241,0,0,1,1.008,2.368,10.472,10.472,0,0,1-1.936,5.408,22.259,22.259,0,0,1-1.64,2.264q-.856,1.032-1.416,1.672l-.368.424q-.16.184-.24.3a3.956,3.956,0,0,1-.432.5A.638.638,0,0,1,104,41.12Zm0-.688q.032-.032.112-.128t.224-.288q.1-.128.256-.312l.384-.44q.432-.5,1.048-1.232t1.272-1.64a19.81,19.81,0,0,0,1.224-1.912,12.372,12.372,0,0,0,.928-2.056,6.349,6.349,0,0,0,.36-2.072,2.653,2.653,0,0,0-.8-1.888,2.8,2.8,0,0,0-2.048-.864,2.542,2.542,0,0,0-1.416.4,2.578,2.578,0,0,0-.952,1.168,1.414,1.414,0,0,1-.192.328.471.471,0,0,1-.4.168.448.448,0,0,1-.392-.168,2.462,2.462,0,0,1-.2-.328A2.578,2.578,0,0,0,102.456,28a2.542,2.542,0,0,0-1.416-.4,2.8,2.8,0,0,0-2.048.864,2.653,2.653,0,0,0-.8,1.888,6.349,6.349,0,0,0,.36,2.072,12.372,12.372,0,0,0,.928,2.056,19.81,19.81,0,0,0,1.224,1.912q.656.9,1.272,1.64t1.048,1.232l.384.44q.16.184.256.312.144.192.224.288T104,40.432Z" transform="translate(169.563 636)" fill="#d77298"/>
    <path id="パス_9781" data-name="パス 9781" d="M23.784-.646a2.894,2.894,0,0,1,1.844.672,2.894,2.894,0,0,1,1.844-.672A2.923,2.923,0,0,1,29.65.343a3.468,3.468,0,0,1,.884,2.343,3.4,3.4,0,0,1-1.013,2.5l-.16.123-.036.028.007.018-.224.147c-.086.06-.2.142-3.29,2.361L25.628,8l-.19-.137c-3.09-2.22-3.2-2.3-3.29-2.361l-.357-.211.048-.047a3.544,3.544,0,0,1-.731-.962,3.439,3.439,0,0,1-.385-1.6A3.468,3.468,0,0,1,21.607.343,2.923,2.923,0,0,1,23.784-.646ZM25.628.913,25.4.682A2.276,2.276,0,0,0,23.784-.01a2.57,2.57,0,0,0-2.416,2.7A2.846,2.846,0,0,0,22.5,4.971l.009.006c.093.065.095.066,3.118,2.237,3.022-2.171,3.024-2.172,3.118-2.237l.012-.008,0,0,.363-.28a2.8,2.8,0,0,0,.766-2,2.57,2.57,0,0,0-2.416-2.7,2.276,2.276,0,0,0-1.614.691Z" transform="translate(8.661 652.04)" fill="#d77298"/>
    <path id="パス_9827" data-name="パス 9827" d="M60.034,22.651a4.448,4.448,0,0,0-4.183-4.674A3.938,3.938,0,0,0,53.035,19.2a3.941,3.941,0,0,0-2.818-1.218,4.448,4.448,0,0,0-4.181,4.674,4.947,4.947,0,0,0,1.935,3.942l.018.012c.142.1.142.1,5.046,3.677,4.9-3.577,4.9-3.577,5.045-3.677l.011-.006.008-.006h0l.579-.453a4.825,4.825,0,0,0,1.357-3.489" transform="translate(-27.974 620.39)" fill="#d77298"/>
    <path id="パス_9781-2" data-name="パス 9781" d="M25.076-.646A4.116,4.116,0,0,1,27.7.31a4.116,4.116,0,0,1,2.623-.956A4.157,4.157,0,0,1,33.419.76a4.932,4.932,0,0,1,1.258,3.332A4.828,4.828,0,0,1,33.236,7.65l-.227.175-.051.039.009.026-.318.209c-.122.085-.284.2-4.679,3.358l-.271.195-.271-.195C23.033,8.3,22.871,8.184,22.749,8.1l-.508-.3.069-.067a5.04,5.04,0,0,1-1.04-1.368,4.891,4.891,0,0,1-.548-2.272A4.932,4.932,0,0,1,21.981.76a4.157,4.157,0,0,1,3.1-1.406ZM27.7,1.571l-.328-.329a3.237,3.237,0,0,0-2.3-.983,3.655,3.655,0,0,0-3.436,3.833,4.047,4.047,0,0,0,1.613,3.249l.013.009c.133.092.135.094,4.435,3.181C32,7.445,32,7.443,32.135,7.35l.017-.012,0,0,.516-.4a3.979,3.979,0,0,0,1.089-2.845A3.655,3.655,0,0,0,30.325.259a3.237,3.237,0,0,0-2.3.983Z" transform="translate(295.385 641.276)" fill="#d77298"/>
    <path id="パス_9828" data-name="パス 9828" d="M55.064,20.991a2.869,2.869,0,0,0-2.7-3.014,2.54,2.54,0,0,0-1.816.786,2.542,2.542,0,0,0-1.817-.786,2.869,2.869,0,0,0-2.7,3.014,3.19,3.19,0,0,0,1.248,2.542l.012.008c.092.064.092.064,3.255,2.371,3.162-2.307,3.162-2.307,3.254-2.371l.007,0,0,0h0l.373-.292a3.112,3.112,0,0,0,.875-2.25" transform="translate(261.044 634.128)" fill="#d77298"/>
  </g>
</svg>
