<svg xmlns="http://www.w3.org/2000/svg" width="628.447" height="61.899" viewBox="0 0 628.447 61.899">
  <g id="グループ_3748" data-name="グループ 3748" transform="translate(49.826 -628.69)">
    <path id="パス_10339" data-name="パス 10339" d="M-243.025-.425a31.9,31.9,0,0,1-7.562.688,8.027,8.027,0,0,1-4.687-1.388,4.894,4.894,0,0,1-1.212-1.4A5.577,5.577,0,0,1-257.1-4.4a17.173,17.173,0,0,1-.175-2.65V-17.2a1.856,1.856,0,0,1,.563-1.362,1.856,1.856,0,0,1,1.362-.563,1.856,1.856,0,0,1,1.363.563,1.856,1.856,0,0,1,.563,1.362v5.05q1.95-.5,4.025-1.125t3.7-1.25a1.893,1.893,0,0,1,1.55.013,1.774,1.774,0,0,1,.975,1.087,1.957,1.957,0,0,1-.037,1.487,1.771,1.771,0,0,1-1.062,1.013q-1.375.5-2.963.975t-3.175.875q-1.588.4-3.012.7V-7.05a10.262,10.262,0,0,0,.088,1.525,2.154,2.154,0,0,0,.287.85,1.965,1.965,0,0,0,.525.525,3.8,3.8,0,0,0,1.525.5,13.539,13.539,0,0,0,2.788.025q1.787-.125,4.612-.6a1.763,1.763,0,0,1,1.438.325,1.806,1.806,0,0,1,.738,1.275,1.8,1.8,0,0,1-.35,1.425A2,2,0,0,1-243.025-.425Zm2.65-11.925a2.526,2.526,0,0,1-1.837-.75,2.463,2.463,0,0,1-.763-1.825,2.493,2.493,0,0,1,.763-1.85,2.526,2.526,0,0,1,1.837-.75,2.526,2.526,0,0,1,1.837.75,2.493,2.493,0,0,1,.763,1.85,2.463,2.463,0,0,1-.763,1.825A2.526,2.526,0,0,1-240.375-12.35Zm0-1.65a.889.889,0,0,0,.65-.275.889.889,0,0,0,.275-.65.877.877,0,0,0-.275-.663.91.91,0,0,0-.65-.262.91.91,0,0,0-.65.262.877.877,0,0,0-.275.663.889.889,0,0,0,.275.65A.889.889,0,0,0-240.375-14ZM-230.85-.65a1.886,1.886,0,0,1-1.487-.062A1.859,1.859,0,0,1-233.35-1.8a1.918,1.918,0,0,1,.063-1.5,1.767,1.767,0,0,1,1.088-1A31.318,31.318,0,0,0-228.238-6a44.113,44.113,0,0,0,3.875-2.225,32.752,32.752,0,0,0,3.375-2.475,19.879,19.879,0,0,0,2.488-2.45,1.765,1.765,0,0,1,1.288-.687,1.941,1.941,0,0,1,1.412.437,1.673,1.673,0,0,1,.713,1.275,1.96,1.96,0,0,1-.437,1.425A20.9,20.9,0,0,1-218.288-8,43.118,43.118,0,0,1-222.1-5.188a50.38,50.38,0,0,1-4.362,2.575A36.058,36.058,0,0,1-230.85-.65Zm1.775-10.175q-1-.825-2.125-1.663a21.919,21.919,0,0,0-2.075-1.387,1.824,1.824,0,0,1-.875-1.188,1.893,1.893,0,0,1,.225-1.437,1.834,1.834,0,0,1,1.188-.9,1.737,1.737,0,0,1,1.438.225q.75.475,1.613,1.063t1.65,1.188q.788.6,1.338,1.075a2.028,2.028,0,0,1,.725,1.275,1.786,1.786,0,0,1-.375,1.425,1.874,1.874,0,0,1-1.287.738A1.766,1.766,0,0,1-229.075-10.825ZM-205.8,1.225a1.894,1.894,0,0,1-1.462.013A1.866,1.866,0,0,1-208.325.225a1.818,1.818,0,0,1-.025-1.475,1.911,1.911,0,0,1,1.025-1.075q8.125-3.55,11.65-10.225.675-1.325-.9-1.325h-3a27.309,27.309,0,0,1-2.625,3.062,24.745,24.745,0,0,1-3.075,2.638,1.869,1.869,0,0,1-1.437.313,1.919,1.919,0,0,1-1.263-.788,1.891,1.891,0,0,1-.312-1.45,1.837,1.837,0,0,1,.788-1.25,17.809,17.809,0,0,0,2.637-2.163,22.586,22.586,0,0,0,2.387-2.75,15.627,15.627,0,0,0,1.7-2.863,1.864,1.864,0,0,1,1.075-1.012,1.788,1.788,0,0,1,1.475.063,1.963,1.963,0,0,1,1.038,1.063,1.642,1.642,0,0,1-.038,1.438h1.25a5.944,5.944,0,0,1,3.325.788,2.926,2.926,0,0,1,1.337,2.187,5.981,5.981,0,0,1-.712,3.225,22.785,22.785,0,0,1-3.437,5.137,29.063,29.063,0,0,1-4.788,4.363A26.109,26.109,0,0,1-205.8,1.225ZM-180.05.6a1.847,1.847,0,0,1-1.488.025A1.909,1.909,0,0,1-182.625-.4a1.911,1.911,0,0,1-.038-1.5A1.862,1.862,0,0,1-181.65-3a24.047,24.047,0,0,0,6.412-4.038A15.661,15.661,0,0,0-171.4-12.1q.525-1.15.162-1.687t-1.712-.538h-9.075a1.848,1.848,0,0,1-1.35-.575,1.848,1.848,0,0,1-.575-1.35,1.876,1.876,0,0,1,.575-1.375,1.848,1.848,0,0,1,1.35-.575h9.35q3.8,0,5.05,1.975t-.15,5.275a20.213,20.213,0,0,1-4.638,6.575A25.884,25.884,0,0,1-180.05.6ZM-164-15.275a1.2,1.2,0,0,1-.887.35,1.2,1.2,0,0,1-.913-.4q-.25-.275-.762-.825t-.863-.95a1.011,1.011,0,0,1-.238-.738,1.162,1.162,0,0,1,.363-.812,1.148,1.148,0,0,1,.738-.337,1.236,1.236,0,0,1,.813.212,11.588,11.588,0,0,1,.975.788,6.681,6.681,0,0,1,.875.912,1.335,1.335,0,0,1,.313.9A1.292,1.292,0,0,1-164-15.275Zm.6-2.425q-.275-.275-.838-.763t-.962-.837a1.147,1.147,0,0,1-.3-.712,1.135,1.135,0,0,1,.275-.862,1.151,1.151,0,0,1,.7-.4,1.21,1.21,0,0,1,.825.15,10.614,10.614,0,0,1,1.037.675,6.716,6.716,0,0,1,.963.825,1.349,1.349,0,0,1,.412.875,1.267,1.267,0,0,1-.312.925,1.247,1.247,0,0,1-.862.425A1.2,1.2,0,0,1-163.4-17.7Zm9.8,18.85a1.83,1.83,0,0,1-1.462-.113A1.869,1.869,0,0,1-156.025-.1a1.83,1.83,0,0,1,.112-1.462,1.869,1.869,0,0,1,1.113-.963,17.164,17.164,0,0,0,5.3-2.738,11.284,11.284,0,0,0,3.35-3.987.969.969,0,0,0,.025-.975q-.25-.375-1.125-.375h-9.15a1.92,1.92,0,0,1-1.375-.55,1.768,1.768,0,0,1-.575-1.325,1.8,1.8,0,0,1,.575-1.35,1.92,1.92,0,0,1,1.375-.55h9.425a6.093,6.093,0,0,1,3.513.863,3.243,3.243,0,0,1,1.425,2.35,6.19,6.19,0,0,1-.687,3.363,15.566,15.566,0,0,1-4.287,5.375A20.517,20.517,0,0,1-153.6,1.15Zm-1.225-16.9a1.806,1.806,0,0,1-1.325-.55,1.806,1.806,0,0,1-.55-1.325,1.806,1.806,0,0,1,.55-1.325,1.806,1.806,0,0,1,1.325-.55h9.8a1.765,1.765,0,0,1,1.313.55,1.827,1.827,0,0,1,.537,1.325,1.827,1.827,0,0,1-.537,1.325,1.765,1.765,0,0,1-1.312.55Zm28.7,17.35a2.265,2.265,0,0,1-1.463.163A1.7,1.7,0,0,1-128.75.9a1.927,1.927,0,0,1-.212-1.475,1.635,1.635,0,0,1,.887-1.15,19.4,19.4,0,0,0,5.05-3.45,10.34,10.34,0,0,0,2.7-4.7,7.419,7.419,0,0,0,.25-1.138,1.464,1.464,0,0,0-.15-.838,1.167,1.167,0,0,0-.525-.387,4.81,4.81,0,0,0-1.312-.25q-.937-.087-2.838-.087-1.775,0-2.713.063a5.012,5.012,0,0,0-1.325.213,1.359,1.359,0,0,0-.587.4,1.47,1.47,0,0,0-.163.925q.038.65.262,2.05a1.9,1.9,0,0,1-.337,1.437,1.824,1.824,0,0,1-1.262.788,1.876,1.876,0,0,1-1.45-.35,1.865,1.865,0,0,1-.775-1.25q-.275-1.75-.35-2.9a6.318,6.318,0,0,1,.125-1.937A3.613,3.613,0,0,1-132.7-14.6a3.806,3.806,0,0,1,1.188-.962,5.847,5.847,0,0,1,1.787-.5,24.431,24.431,0,0,1,3.025-.187v-2.675a1.836,1.836,0,0,1,.575-1.362,1.868,1.868,0,0,1,1.35-.562,1.9,1.9,0,0,1,1.375.563,1.836,1.836,0,0,1,.575,1.362v2.675a24.1,24.1,0,0,1,2.925.225,5.7,5.7,0,0,1,1.837.563A3.692,3.692,0,0,1-116.85-14.4a3.591,3.591,0,0,1,.713,2.325,14.681,14.681,0,0,1-.538,3.225,16.678,16.678,0,0,1-1.7,3.963,14.558,14.558,0,0,1-3.012,3.563A18.839,18.839,0,0,1-126.125,1.6ZM-105.85-.65a1.886,1.886,0,0,1-1.488-.062A1.859,1.859,0,0,1-108.35-1.8a1.918,1.918,0,0,1,.063-1.5,1.767,1.767,0,0,1,1.088-1A31.319,31.319,0,0,0-103.238-6a44.111,44.111,0,0,0,3.875-2.225A32.752,32.752,0,0,0-95.988-10.7,19.878,19.878,0,0,0-93.5-13.15a1.765,1.765,0,0,1,1.287-.687A1.941,1.941,0,0,1-90.8-13.4a1.673,1.673,0,0,1,.713,1.275,1.96,1.96,0,0,1-.437,1.425A20.9,20.9,0,0,1-93.287-8,43.121,43.121,0,0,1-97.1-5.188a50.382,50.382,0,0,1-4.363,2.575A36.057,36.057,0,0,1-105.85-.65Zm1.775-10.175q-1-.825-2.125-1.663a21.918,21.918,0,0,0-2.075-1.387,1.824,1.824,0,0,1-.875-1.188,1.893,1.893,0,0,1,.225-1.437,1.834,1.834,0,0,1,1.188-.9,1.737,1.737,0,0,1,1.438.225q.75.475,1.613,1.063t1.65,1.188q.788.6,1.338,1.075a2.028,2.028,0,0,1,.725,1.275,1.786,1.786,0,0,1-.375,1.425,1.874,1.874,0,0,1-1.287.738A1.766,1.766,0,0,1-104.075-10.825ZM-72.075.2A1.9,1.9,0,0,1-73.5-.013a1.8,1.8,0,0,1-.875-1.138,1.831,1.831,0,0,1,.225-1.413A1.754,1.754,0,0,1-73.025-3.4a6.534,6.534,0,0,0,3.863-2.225A6.46,6.46,0,0,0-68.025-9.55a5.076,5.076,0,0,0-1.338-3.575A6.032,6.032,0,0,0-73.15-14.9a32.593,32.593,0,0,1-1.612,7.325,14.014,14.014,0,0,1-2.6,4.675,4.256,4.256,0,0,1-3.112,1.625,4.519,4.519,0,0,1-2.6-.8A5.512,5.512,0,0,1-84.95-4.388a8.743,8.743,0,0,1-.7-3.688,9.933,9.933,0,0,1,.8-3.962,10.179,10.179,0,0,1,2.275-3.3,10.587,10.587,0,0,1,3.512-2.25A12.082,12.082,0,0,1-74.55-18.4a12.552,12.552,0,0,1,4.088.638,9.674,9.674,0,0,1,3.225,1.813,8.189,8.189,0,0,1,2.113,2.8,8.488,8.488,0,0,1,.75,3.6,10.127,10.127,0,0,1-1.9,6.288A9.894,9.894,0,0,1-72.075.2ZM-80.45-5.075q.425,0,1.15-1.188a16.933,16.933,0,0,0,1.45-3.363,27.16,27.16,0,0,0,1.1-5.125,6.885,6.885,0,0,0-2.9,1.438,6.513,6.513,0,0,0-1.762,2.375,7.361,7.361,0,0,0-.613,2.813A4.538,4.538,0,0,0-81.613-5.8,1.316,1.316,0,0,0-80.45-5.075Zm25.875,5.6A1.847,1.847,0,0,1-56.062.55,1.909,1.909,0,0,1-57.15-.475a1.911,1.911,0,0,1-.037-1.5,1.862,1.862,0,0,1,1.013-1.1,23.864,23.864,0,0,0,6.413-4.05A15.791,15.791,0,0,0-45.925-12.2q.5-1.125.138-1.663t-1.687-.537H-56.75a1.836,1.836,0,0,1-1.362-.575,1.9,1.9,0,0,1-.562-1.375,1.856,1.856,0,0,1,.563-1.363,1.856,1.856,0,0,1,1.362-.562h9.55q3.8,0,5.05,1.975t-.15,5.275A20.213,20.213,0,0,1-46.937-4.45,25.884,25.884,0,0,1-54.575.525ZM-28.4.8a1.9,1.9,0,0,1-1.437.363A1.827,1.827,0,0,1-31.1.4a1.9,1.9,0,0,1-.362-1.438A1.827,1.827,0,0,1-30.7-2.3a10.809,10.809,0,0,0,2.575-2.688,12.356,12.356,0,0,0,1.6-3.437h-8.1a1.806,1.806,0,0,1-1.325-.55A1.806,1.806,0,0,1-36.5-10.3a1.806,1.806,0,0,1,.55-1.325,1.806,1.806,0,0,1,1.325-.55H-26a15.363,15.363,0,0,0-.15-2.125q-1.4.2-2.775.363T-31.5-13.7a1.862,1.862,0,0,1-1.362-.513,1.8,1.8,0,0,1-.612-1.312,1.792,1.792,0,0,1,.525-1.362,1.9,1.9,0,0,1,1.35-.588q1.2-.075,2.6-.237t2.862-.412q1.463-.25,2.813-.55T-20.9-19.3a2.188,2.188,0,0,1,1.475.063,1.69,1.69,0,0,1,1,1.038,1.889,1.889,0,0,1-.05,1.475,1.734,1.734,0,0,1-1.1.975q-.575.175-1.312.363T-22.425-15q.1.7.137,1.4t.038,1.425h6.825a1.806,1.806,0,0,1,1.325.55,1.806,1.806,0,0,1,.55,1.325,1.806,1.806,0,0,1-.55,1.325,1.806,1.806,0,0,1-1.325.55H-22.7a17.508,17.508,0,0,1-2.087,5.262A12.939,12.939,0,0,1-28.4.8Zm34.675.325q-6.7.925-10.15-.762A5.644,5.644,0,0,1-7.325-5.05a6.718,6.718,0,0,1,1.1-3.838A9.42,9.42,0,0,1-3.15-11.7q-.175-.925-.5-2.112t-.675-2.375q-.35-1.187-.625-2.038a1.8,1.8,0,0,1,.188-1.413,1.785,1.785,0,0,1,1.113-.888,1.9,1.9,0,0,1,1.463.188A1.785,1.785,0,0,1-1.3-19.225q.375,1.325.762,2.913T.15-13.25q1.1-.425,2.35-.775t2.6-.65a1.8,1.8,0,0,1,1.4.225,1.771,1.771,0,0,1,.825,1.15,1.731,1.731,0,0,1-.238,1.387,1.737,1.737,0,0,1-1.162.787A31.91,31.91,0,0,0,.938-9.762,11.751,11.751,0,0,0-1.975-8.25,4.417,4.417,0,0,0-3.337-6.688,3.713,3.713,0,0,0-3.7-5.125,2.45,2.45,0,0,0-3.25-3.7,3.1,3.1,0,0,0-1.725-2.65a9.32,9.32,0,0,0,2.912.45A26.693,26.693,0,0,0,5.8-2.575a1.667,1.667,0,0,1,1.375.363,1.861,1.861,0,0,1,.7,1.238A1.689,1.689,0,0,1,7.525.4,1.93,1.93,0,0,1,6.275,1.125ZM34.45-.35a1.76,1.76,0,0,1-1.462.113A2.214,2.214,0,0,1,31.8-1.175q-.225-.4-.6-.95T30.375-3.3q-1.425.225-3.3.487t-3.9.5q-2.025.238-3.875.437T16.075-1.6a1.9,1.9,0,0,1-1.4-.462,1.783,1.783,0,0,1-.65-1.288,1.865,1.865,0,0,1,.5-1.413,1.826,1.826,0,0,1,1.35-.637l.712-.05.763-.05q.7-1.1,1.512-2.588t1.588-3.1q.775-1.612,1.425-3.062t1.05-2.45a2.017,2.017,0,0,1,1.013-1.1,1.791,1.791,0,0,1,1.463-.075,1.9,1.9,0,0,1,1.125.987,1.619,1.619,0,0,1,.05,1.462q-.5,1.175-1.312,2.825T23.5-9.175Q22.55-7.4,21.6-5.8q1.625-.125,3.275-.287t3.05-.312q-.4-.5-.762-.925t-.688-.75a1.785,1.785,0,0,1-.525-1.337,1.843,1.843,0,0,1,.6-1.313,1.7,1.7,0,0,1,1.362-.525,1.963,1.963,0,0,1,1.337.625q.7.7,1.563,1.7T32.55-6.838q.875,1.088,1.587,2.1A17.359,17.359,0,0,1,35.25-2.975,1.894,1.894,0,0,1,35.4-1.5,1.818,1.818,0,0,1,34.45-.35ZM46.4,1.15a1.83,1.83,0,0,1-1.463-.113A1.869,1.869,0,0,1,43.975-.1a1.83,1.83,0,0,1,.113-1.462A1.869,1.869,0,0,1,45.2-2.525a17.164,17.164,0,0,0,5.3-2.738A11.284,11.284,0,0,0,53.85-9.25a.969.969,0,0,0,.025-.975q-.25-.375-1.125-.375H43.6a1.92,1.92,0,0,1-1.375-.55,1.768,1.768,0,0,1-.575-1.325,1.8,1.8,0,0,1,.575-1.35,1.92,1.92,0,0,1,1.375-.55h9.425a6.093,6.093,0,0,1,3.513.863,3.243,3.243,0,0,1,1.425,2.35A6.19,6.19,0,0,1,57.275-7.8a15.566,15.566,0,0,1-4.287,5.375A20.518,20.518,0,0,1,46.4,1.15Zm-1.225-16.9a1.806,1.806,0,0,1-1.325-.55,1.806,1.806,0,0,1-.55-1.325,1.806,1.806,0,0,1,.55-1.325,1.806,1.806,0,0,1,1.325-.55h9.8a1.765,1.765,0,0,1,1.312.55,1.827,1.827,0,0,1,.538,1.325,1.827,1.827,0,0,1-.538,1.325,1.765,1.765,0,0,1-1.312.55ZM77.925.2A1.9,1.9,0,0,1,76.5-.013a1.8,1.8,0,0,1-.875-1.138,1.831,1.831,0,0,1,.225-1.413A1.754,1.754,0,0,1,76.975-3.4a6.534,6.534,0,0,0,3.863-2.225A6.46,6.46,0,0,0,81.975-9.55a5.076,5.076,0,0,0-1.338-3.575A6.032,6.032,0,0,0,76.85-14.9a32.593,32.593,0,0,1-1.612,7.325,14.014,14.014,0,0,1-2.6,4.675,4.256,4.256,0,0,1-3.112,1.625,4.519,4.519,0,0,1-2.6-.8A5.512,5.512,0,0,1,65.05-4.388a8.743,8.743,0,0,1-.7-3.688,9.933,9.933,0,0,1,.8-3.962,10.179,10.179,0,0,1,2.275-3.3,10.587,10.587,0,0,1,3.512-2.25A12.082,12.082,0,0,1,75.45-18.4a12.552,12.552,0,0,1,4.088.638,9.674,9.674,0,0,1,3.225,1.813,8.189,8.189,0,0,1,2.113,2.8,8.488,8.488,0,0,1,.75,3.6,10.127,10.127,0,0,1-1.9,6.288A9.894,9.894,0,0,1,77.925.2ZM69.55-5.075q.425,0,1.15-1.188a16.933,16.933,0,0,0,1.45-3.363,27.16,27.16,0,0,0,1.1-5.125,6.885,6.885,0,0,0-2.9,1.438,6.513,6.513,0,0,0-1.762,2.375,7.361,7.361,0,0,0-.613,2.813A4.538,4.538,0,0,0,68.387-5.8,1.316,1.316,0,0,0,69.55-5.075Zm34.55,6.75a2.219,2.219,0,0,1-1.463-.15A1.576,1.576,0,0,1,101.725.45a1.672,1.672,0,0,1,.2-1.375,1.861,1.861,0,0,1,1.125-.85,5.929,5.929,0,0,0,2.825-1.6,3.943,3.943,0,0,0,.9-2.7,3.408,3.408,0,0,0-.662-2.075,4.1,4.1,0,0,0-1.988-1.375,15.988,15.988,0,0,1-1.162,3.375,16.035,16.035,0,0,1-1.787,2.925l.1.15a.631.631,0,0,1,.075.15,1.807,1.807,0,0,1,.287,1.388A1.731,1.731,0,0,1,100.85-.35a1.79,1.79,0,0,1-1.2.275A1.8,1.8,0,0,1,98.55-.6,10.2,10.2,0,0,1,96.175.725,6.8,6.8,0,0,1,93.7,1.2,4.573,4.573,0,0,1,90.575.15a4.372,4.372,0,0,1-1.2-3.45,7.817,7.817,0,0,1,.8-3.5,9.789,9.789,0,0,1,2.188-2.9,13.187,13.187,0,0,1,3.112-2.125q0-1.125.075-2.325-2.075.125-3.825.075a1.577,1.577,0,0,1-1.225-.562,1.784,1.784,0,0,1-.475-1.288,1.746,1.746,0,0,1,.6-1.238,1.766,1.766,0,0,1,1.275-.463q.95.025,1.963,0l2.063-.05q.075-.45.162-.887t.188-.888a1.793,1.793,0,0,1,.775-1.175,1.67,1.67,0,0,1,1.375-.25,1.7,1.7,0,0,1,1.175.8,1.8,1.8,0,0,1,.225,1.4q-.025.175-.062.35t-.087.375q.95-.1,1.837-.212l1.663-.212a1.773,1.773,0,0,1,1.337.288,1.659,1.659,0,0,1,.738,1.137,1.782,1.782,0,0,1-.3,1.35,1.605,1.605,0,0,1-1.15.725q-2.125.3-4.675.5-.025.35-.05.688t-.05.687a12.6,12.6,0,0,1,2.375-.225,11.821,11.821,0,0,1,4.938.913,6.745,6.745,0,0,1,3,2.525,6.833,6.833,0,0,1,1.012,3.713,8.167,8.167,0,0,1-1.5,5A7.731,7.731,0,0,1,104.1,1.675ZM94.05-2.25a3.151,3.151,0,0,0,1.4-.375,7.284,7.284,0,0,0,1.5-1.025,17.963,17.963,0,0,1-.687-2.175q-.287-1.15-.487-2.375a7.309,7.309,0,0,0-2.1,2.2A4.952,4.952,0,0,0,92.9-3.4a1.319,1.319,0,0,0,.275.925A1.314,1.314,0,0,0,94.05-2.25ZM99.55-7a12.171,12.171,0,0,0,1.175-2.9q-.425.025-.838.088t-.812.162q.075.7.188,1.35T99.55-7ZM124.7,1.55a6.948,6.948,0,0,1-2.712-.637A4.208,4.208,0,0,1,120.2-.65a3.866,3.866,0,0,1-.55-2.325,3.79,3.79,0,0,1,.675-1.975,3.893,3.893,0,0,1,1.638-1.313,4.646,4.646,0,0,1,2.362-.337,4.073,4.073,0,0,1,3,1.275,3.364,3.364,0,0,1,.7,2.725,2.737,2.737,0,0,0,1.013-1.212A4.292,4.292,0,0,0,129.35-5.5a2.771,2.771,0,0,0-.488-1.525,3.752,3.752,0,0,0-1.375-1.237,4.394,4.394,0,0,0-2.1-.5,6.043,6.043,0,0,0-2.662.688,11.531,11.531,0,0,0-3.075,2.35,1.979,1.979,0,0,1-1.463.613,1.758,1.758,0,0,1-1.437-.637,1.884,1.884,0,0,1-.437-1.338A1.539,1.539,0,0,1,116.95-8.3q1.5-1.125,3.05-2.425t2.95-2.563q1.4-1.262,2.45-2.287.4-.375.275-.7T124.9-16.5q-.875.125-1.8.25t-1.875.25a1.789,1.789,0,0,1-1.362-.362,1.865,1.865,0,0,1-.738-1.238,1.789,1.789,0,0,1,.363-1.362,1.774,1.774,0,0,1,1.237-.712q.625-.1,1.513-.175l1.787-.15q.9-.075,1.525-.1a4.767,4.767,0,0,1,2.75.487,3.217,3.217,0,0,1,1.475,1.638,3.464,3.464,0,0,1,.088,2.2,4.61,4.61,0,0,1-1.437,2.2q-.325.325-.888.825t-1.262,1.1a7.4,7.4,0,0,1,3.362.662,5.97,5.97,0,0,1,2.488,2.125,6.109,6.109,0,0,1,.95,3.488A6.911,6.911,0,0,1,132-1.413,6.278,6.278,0,0,1,129.038.925,10.242,10.242,0,0,1,124.7,1.55Zm-.65-3.425a8.374,8.374,0,0,0,.925,0,1.356,1.356,0,0,0,.125-1.088.937.937,0,0,0-.825-.587,1.2,1.2,0,0,0-.85.1.752.752,0,0,0-.4.575.7.7,0,0,0,.237.675A1.857,1.857,0,0,0,124.05-1.875ZM144.575.9a2.17,2.17,0,0,1-1.462.188,1.78,1.78,0,0,1-1.187-.863,1.908,1.908,0,0,1-.2-1.475,1.831,1.831,0,0,1,.9-1.175q4.9-2.775,5.85-7.175H141.7a1.806,1.806,0,0,1-1.325-.55,1.806,1.806,0,0,1-.55-1.325,1.806,1.806,0,0,1,.55-1.325,1.806,1.806,0,0,1,1.325-.55h16.525a1.806,1.806,0,0,1,1.325.55,1.806,1.806,0,0,1,.55,1.325,1.806,1.806,0,0,1-.55,1.325,1.806,1.806,0,0,1-1.325.55H152.25a13.109,13.109,0,0,1-1.325,4.138A14.877,14.877,0,0,1,148.288-1.8,13.745,13.745,0,0,1,144.575.9Zm.025-16.125a1.765,1.765,0,0,1-1.312-.55,1.827,1.827,0,0,1-.538-1.325,1.827,1.827,0,0,1,.538-1.325,1.765,1.765,0,0,1,1.313-.55h10.325a1.794,1.794,0,0,1,1.337.55A1.827,1.827,0,0,1,156.8-17.1a1.827,1.827,0,0,1-.538,1.325,1.794,1.794,0,0,1-1.337.55Zm16.825-.85q-.25-.275-.812-.775t-.937-.85a1.19,1.19,0,0,1-.288-.725,1.164,1.164,0,0,1,.288-.85,1.105,1.105,0,0,1,.712-.387,1.2,1.2,0,0,1,.813.163,8.088,8.088,0,0,1,1.025.7,8.424,8.424,0,0,1,.95.85,1.346,1.346,0,0,1,.375.875,1.316,1.316,0,0,1-.325.925,1.2,1.2,0,0,1-.863.413A1.2,1.2,0,0,1,161.425-16.075Zm-.65,2.425a1.227,1.227,0,0,1-.9.312,1.179,1.179,0,0,1-.9-.412q-.25-.275-.738-.838t-.838-.963a.972.972,0,0,1-.225-.737,1.212,1.212,0,0,1,.375-.812,1.226,1.226,0,0,1,.75-.312,1.1,1.1,0,0,1,.8.237,8.661,8.661,0,0,1,.95.8,8.14,8.14,0,0,1,.85.925,1.283,1.283,0,0,1,.3.9A1.344,1.344,0,0,1,160.775-13.65Zm12,15a1.927,1.927,0,0,1-1.475.063,1.864,1.864,0,0,1-1.1-.988,1.918,1.918,0,0,1-.05-1.488,1.818,1.818,0,0,1,1-1.088,9.084,9.084,0,0,0,3.95-3.288,10.423,10.423,0,0,0,1.475-5.338h-3.15q.025.875.012,1.688T173.375-7.6a1.8,1.8,0,0,1-.613,1.313,1.809,1.809,0,0,1-1.387.488,1.75,1.75,0,0,1-1.3-.662A2.026,2.026,0,0,1,169.6-7.85q.05-.6.063-1.35t-.013-1.575H164.9a1.806,1.806,0,0,1-1.325-.55,1.806,1.806,0,0,1-.55-1.325,1.806,1.806,0,0,1,.55-1.325,1.806,1.806,0,0,1,1.325-.55h4.625q-.05-.75-.112-1.425t-.138-1.175a2.015,2.015,0,0,1,.338-1.437,1.749,1.749,0,0,1,1.212-.763,1.894,1.894,0,0,1,1.438.325A1.724,1.724,0,0,1,173-17.75q.1.675.175,1.5t.125,1.725h3.25q-.025-.95-.088-1.85t-.112-1.575a1.964,1.964,0,0,1,.45-1.413,1.813,1.813,0,0,1,1.275-.687,1.937,1.937,0,0,1,1.413.463,1.79,1.79,0,0,1,.662,1.313q.075.725.113,1.712t.063,2.037h4.35a1.806,1.806,0,0,1,1.325.55,1.806,1.806,0,0,1,.55,1.325,1.806,1.806,0,0,1-.55,1.325,1.806,1.806,0,0,1-1.325.55h-4.35Q180.025-2,172.775,1.35ZM185.2-17.875q-.275-.25-.85-.738t-1-.812a1.085,1.085,0,0,1-.312-.687,1.138,1.138,0,0,1,.237-.862,1.165,1.165,0,0,1,.7-.437,1.239,1.239,0,0,1,.825.112q.45.25,1.05.663a8.563,8.563,0,0,1,1,.788,1.307,1.307,0,0,1,.425.85,1.3,1.3,0,0,1-.3.95,1.156,1.156,0,0,1-.825.462A1.215,1.215,0,0,1,185.2-17.875Zm-2.325,2.45q-.25-.275-.788-.812t-.887-.913a1.036,1.036,0,0,1-.25-.725,1.232,1.232,0,0,1,.325-.825,1.155,1.155,0,0,1,.713-.363,1.131,1.131,0,0,1,.813.188,10.023,10.023,0,0,1,.988.75,7.2,7.2,0,0,1,.912.9,1.316,1.316,0,0,1,.35.888,1.357,1.357,0,0,1-.375.912,1.292,1.292,0,0,1-.887.375A1.127,1.127,0,0,1,182.875-15.425Zm18.375,16.9A1.868,1.868,0,0,1,199.9.913a1.836,1.836,0,0,1-.575-1.363V-9.675q-1.45,1.275-3,2.437t-3.1,2.188a1.78,1.78,0,0,1-1.45.225,1.943,1.943,0,0,1-1.2-.875,1.923,1.923,0,0,1-.212-1.463,1.891,1.891,0,0,1,.863-1.187q1.075-.675,2.387-1.675t2.688-2.162q1.375-1.163,2.688-2.4t2.375-2.387a18.908,18.908,0,0,0,1.712-2.1,1.968,1.968,0,0,1,1.262-.8,1.829,1.829,0,0,1,1.438.3,1.923,1.923,0,0,1,.813,1.237,1.741,1.741,0,0,1-.312,1.438q-.675.875-1.437,1.775t-1.637,1.8V-.45a1.836,1.836,0,0,1-.575,1.363A1.9,1.9,0,0,1,201.25,1.475ZM219.15-.65a1.886,1.886,0,0,1-1.487-.062A1.859,1.859,0,0,1,216.65-1.8a1.918,1.918,0,0,1,.063-1.5,1.767,1.767,0,0,1,1.088-1A31.318,31.318,0,0,0,221.762-6a44.113,44.113,0,0,0,3.875-2.225,32.752,32.752,0,0,0,3.375-2.475,19.879,19.879,0,0,0,2.488-2.45,1.765,1.765,0,0,1,1.288-.687,1.941,1.941,0,0,1,1.412.437,1.673,1.673,0,0,1,.713,1.275,1.96,1.96,0,0,1-.437,1.425A20.9,20.9,0,0,1,231.712-8,43.118,43.118,0,0,1,227.9-5.188a50.38,50.38,0,0,1-4.362,2.575A36.058,36.058,0,0,1,219.15-.65Zm1.775-10.175q-1-.825-2.125-1.663a21.919,21.919,0,0,0-2.075-1.387,1.824,1.824,0,0,1-.875-1.188,1.893,1.893,0,0,1,.225-1.437,1.834,1.834,0,0,1,1.188-.9,1.737,1.737,0,0,1,1.438.225q.75.475,1.613,1.063t1.65,1.188q.788.6,1.338,1.075a2.028,2.028,0,0,1,.725,1.275,1.786,1.786,0,0,1-.375,1.425,1.874,1.874,0,0,1-1.287.738A1.766,1.766,0,0,1,220.925-10.825ZM256.3,1.15a11.841,11.841,0,0,1-5.05-1.775,8.773,8.773,0,0,1-2.975-3.238A8.571,8.571,0,0,1,247.3-7.85a9.172,9.172,0,0,1,.613-3.4,8.98,8.98,0,0,1,1.762-2.8q-1.625.275-3.175.55t-2.85.5l-2.175.375a1.708,1.708,0,0,1-1.363-.338,1.85,1.85,0,0,1-.738-1.213,1.929,1.929,0,0,1,.337-1.4,1.678,1.678,0,0,1,1.213-.725q1.075-.15,2.738-.412t3.575-.575l3.813-.625q1.9-.313,3.5-.6T257.125-19a1.674,1.674,0,0,1,1.35.288,1.829,1.829,0,0,1,.775,1.163,1.862,1.862,0,0,1-.237,1.375,1.565,1.565,0,0,1-1.138.775,8.088,8.088,0,0,0-2.95.95,7.752,7.752,0,0,0-2.15,1.775,7.76,7.76,0,0,0-1.325,2.25A6.729,6.729,0,0,0,251-8.05a4.853,4.853,0,0,0,1.525,3.675,7.65,7.65,0,0,0,4.3,1.85,1.76,1.76,0,0,1,1.237.725A1.744,1.744,0,0,1,258.4-.425,1.732,1.732,0,0,1,257.688.8,1.858,1.858,0,0,1,256.3,1.15Zm5.5-12.35a1.2,1.2,0,0,1-.912.325,1.176,1.176,0,0,1-.888-.45q-.25-.275-.725-.85t-.825-.975a1.058,1.058,0,0,1-.2-.75,1.1,1.1,0,0,1,.4-.8,1.169,1.169,0,0,1,.75-.3,1.15,1.15,0,0,1,.8.25q.4.325.912.825a7.438,7.438,0,0,1,.838.95,1.235,1.235,0,0,1,.287.9A1.305,1.305,0,0,1,261.8-11.2ZM259.05-9a1.2,1.2,0,0,1-.925.225A1.148,1.148,0,0,1,257.3-9.3q-.2-.325-.637-.938t-.738-1.037a1.035,1.035,0,0,1-.125-.762,1.16,1.16,0,0,1,.475-.762,1.126,1.126,0,0,1,.775-.225,1.207,1.207,0,0,1,.775.325,9.617,9.617,0,0,1,.837.913,7.906,7.906,0,0,1,.737,1.038,1.281,1.281,0,0,1,.188.925A1.347,1.347,0,0,1,259.05-9ZM-172.475,39.225a1.658,1.658,0,0,1-1.212-.512A1.658,1.658,0,0,1-174.2,37.5a1.686,1.686,0,0,1,.512-1.237,1.658,1.658,0,0,1,1.212-.513h10.225q.3-.85.675-2.013t.762-2.413q.387-1.25.712-2.375t.5-1.9a1.733,1.733,0,0,1,.9-1.212,2.012,2.012,0,0,1,1.475-.163,1.837,1.837,0,0,1,1.163.838A1.725,1.725,0,0,1-155.95,28q-.225.725-.55,1.712t-.7,2.063q-.375,1.075-.75,2.113t-.675,1.862h6.15a1.645,1.645,0,0,1,1.225.513,1.708,1.708,0,0,1,.5,1.237,1.678,1.678,0,0,1-.5,1.213,1.645,1.645,0,0,1-1.225.512ZM-171.4,25.05a1.617,1.617,0,0,1-1.2-.513,1.678,1.678,0,0,1-.5-1.212,1.666,1.666,0,0,1,.5-1.225,1.637,1.637,0,0,1,1.2-.5h6.95V18.95a1.843,1.843,0,0,1,.575-1.413A1.944,1.944,0,0,1-162.5,17a1.988,1.988,0,0,1,1.387.537,1.824,1.824,0,0,1,.588,1.413V21.6h6.775a1.666,1.666,0,0,1,1.225.5,1.666,1.666,0,0,1,.5,1.225,1.678,1.678,0,0,1-.5,1.212,1.645,1.645,0,0,1-1.225.513Zm5.95,10.225a1.78,1.78,0,0,1-1.425-.187,1.65,1.65,0,0,1-.775-1.113q-.15-.775-.437-1.85t-.6-2.125q-.312-1.05-.538-1.775a1.556,1.556,0,0,1,.138-1.375,1.725,1.725,0,0,1,1.037-.8,2.114,2.114,0,0,1,1.4.025,1.524,1.524,0,0,1,.9,1.05q.275.775.587,1.9t.6,2.263q.287,1.137.462,1.913a1.594,1.594,0,0,1-.212,1.325A1.946,1.946,0,0,1-165.45,35.275Zm30.975,5a1.806,1.806,0,0,1-1.275-.488,1.7,1.7,0,0,1-.525-1.312v-1.9h-1.25a1.736,1.736,0,0,1-1.275-.525,1.736,1.736,0,0,1-.525-1.275,1.766,1.766,0,0,1,.525-1.3,1.736,1.736,0,0,1,1.275-.525h1.25v-3.7q-.95,1.475-2.038,2.912A23.548,23.548,0,0,1-140.4,34.6a2.059,2.059,0,0,1-1.075.575,1.864,1.864,0,0,1-1.2-.15V38.4a1.707,1.707,0,0,1-.525,1.25,1.707,1.707,0,0,1-1.25.525,1.707,1.707,0,0,1-1.25-.525,1.707,1.707,0,0,1-.525-1.25V28.375a.655.655,0,0,1-.075.112q-.05.062-.1.138a1.63,1.63,0,0,1-1.175.662,1.845,1.845,0,0,1-1.375-.387,1.6,1.6,0,0,1-.637-1.1,1.572,1.572,0,0,1,.313-1.2,22.942,22.942,0,0,0,1.75-2.612q.85-1.462,1.563-2.987t1.188-2.8a1.712,1.712,0,0,1,.962-1.087,1.924,1.924,0,0,1,1.413.013,1.715,1.715,0,0,1,.95.837,1.672,1.672,0,0,1,.025,1.362,30.569,30.569,0,0,1-1.25,3.025v9.4q.825-.9,1.788-2.112t1.85-2.437q.888-1.225,1.488-2.125h-3.05a1.678,1.678,0,0,1-1.212-.5,1.617,1.617,0,0,1-.512-1.2,1.617,1.617,0,0,1,.512-1.2,1.678,1.678,0,0,1,1.212-.5h4.325V18.6a1.674,1.674,0,0,1,.525-1.288,1.806,1.806,0,0,1,1.275-.487,1.774,1.774,0,0,1,1.25.487A1.674,1.674,0,0,1-132.7,18.6v3.075h5a1.637,1.637,0,0,1,1.2.5,1.637,1.637,0,0,1,.5,1.2,1.637,1.637,0,0,1-.5,1.2,1.637,1.637,0,0,1-1.2.5h-3.875q.5.75,1.212,1.662t1.512,1.85q.8.938,1.563,1.775t1.338,1.438a1.851,1.851,0,0,1,.563,1.325,1.726,1.726,0,0,1-.562,1.325,2.109,2.109,0,0,1-1.4.575,1.792,1.792,0,0,1-1.375-.55,29.048,29.048,0,0,1-1.975-2.35q-1.05-1.375-2-2.75V32.95h1.25a1.766,1.766,0,0,1,1.3.525,1.766,1.766,0,0,1,.525,1.3,1.736,1.736,0,0,1-.525,1.275,1.766,1.766,0,0,1-1.3.525h-1.25v1.9a1.7,1.7,0,0,1-.525,1.313A1.774,1.774,0,0,1-134.475,40.275Zm10.425-7.6a1.449,1.449,0,0,1-.612-.962,1.439,1.439,0,0,1,.262-1.138,10.178,10.178,0,0,0,1.375-2.887,14.422,14.422,0,0,0,.525-4.013,6.77,6.77,0,0,1,.475-2.538,2.581,2.581,0,0,1,1.412-1.35,7.05,7.05,0,0,1,2.663-.413h6.425q0-.275-.012-.538t-.013-.537a1.7,1.7,0,0,1,.388-1.237A1.55,1.55,0,0,1-110,16.575q1.7-.05,1.75,1.575v.625q0,.3.025.6h1.65l-.475-.475a1.173,1.173,0,0,1-.337-.975,1.558,1.558,0,0,1,.462-.95,1.645,1.645,0,0,1,.975-.438,1.311,1.311,0,0,1,1.05.363q.125.1.4.35t.537.513l.363.363a1.274,1.274,0,0,1,.4,1.25h.55a1.366,1.366,0,0,1,1.063.425,1.468,1.468,0,0,1,.387,1.025,1.436,1.436,0,0,1-.387,1,1.366,1.366,0,0,1-1.062.425h-5.325q.15.925.35,1.762a12.767,12.767,0,0,0,.475,1.563q.275-.5.537-1a10.7,10.7,0,0,0,.463-1,1.42,1.42,0,0,1,.925-.9,1.569,1.569,0,0,1,1.275.15,1.5,1.5,0,0,1,.85.888,1.516,1.516,0,0,1-.125,1.163,23.867,23.867,0,0,1-2.125,3.65,2.144,2.144,0,0,0,.275.275l.3.25q.625.525.9-.3.025-.075.063-.2t.063-.225a1.352,1.352,0,0,1,.788-.825,1.688,1.688,0,0,1,1.212-.05,1.6,1.6,0,0,1,.875.675,1.4,1.4,0,0,1,.1,1.225q-.1.35-.3.863t-.375.938a2.914,2.914,0,0,1-1.925,1.837,3.618,3.618,0,0,1-2.85-.862q-.275-.2-.575-.45t-.575-.525q-.3.35-.613.675t-.637.625a1.932,1.932,0,0,1-1.187.537,1.476,1.476,0,0,1-1.238-.513,1.419,1.419,0,0,1-.412-1.1,1.431,1.431,0,0,1,.488-1.025q.425-.375.863-.825t.862-.95a16.3,16.3,0,0,1-1.187-2.788,20.421,20.421,0,0,1-.787-3.537H-117.4a2.225,2.225,0,0,0-1.5.35,1.908,1.908,0,0,0-.4,1.25,25.016,25.016,0,0,1-.612,4.55,10.519,10.519,0,0,1-1.713,3.875,1.717,1.717,0,0,1-1.1.688A1.7,1.7,0,0,1-124.05,32.675Zm11.975,7.475a12.693,12.693,0,0,1-3.35-.35,2.735,2.735,0,0,1-1.725-1.225,4.853,4.853,0,0,1-.5-2.4V34.25a1.575,1.575,0,0,1,.475-1.2,1.611,1.611,0,0,1,1.15-.45,1.611,1.611,0,0,1,1.15.45,1.575,1.575,0,0,1,.475,1.2V35.8a1.736,1.736,0,0,0,.188.888,1.02,1.02,0,0,0,.7.425,7.58,7.58,0,0,0,1.512.112,9.019,9.019,0,0,0,1.45-.087,1.574,1.574,0,0,0,.763-.312,1.969,1.969,0,0,0,.463-.625,1.663,1.663,0,0,1,.912-.838,1.561,1.561,0,0,1,1.237.038,1.686,1.686,0,0,1,.913.825,1.464,1.464,0,0,1,.012,1.2,4.326,4.326,0,0,1-.988,1.6,3.6,3.6,0,0,1-1.75.862A14.339,14.339,0,0,1-112.075,40.15ZM-115.2,31.9a8.753,8.753,0,0,1-2.238-.225,1.719,1.719,0,0,1-1.137-.85,3.921,3.921,0,0,1-.325-1.775,3.907,3.907,0,0,1,.325-1.787,1.73,1.73,0,0,1,1.137-.838A8.753,8.753,0,0,1-115.2,26.2a8.6,8.6,0,0,1,2.225.225,1.724,1.724,0,0,1,1.125.838,3.907,3.907,0,0,1,.325,1.787,3.921,3.921,0,0,1-.325,1.775,1.714,1.714,0,0,1-1.125.85A8.6,8.6,0,0,1-115.2,31.9Zm-8.025,6.925a1.682,1.682,0,0,1-.562-1.05,1.306,1.306,0,0,1,.338-1.1q.25-.3.637-.787t.762-1q.375-.513.575-.812a1.671,1.671,0,0,1,1.037-.725,1.617,1.617,0,0,1,1.213.25,1.547,1.547,0,0,1,.725.95,1.391,1.391,0,0,1-.25,1.225q-.4.625-.988,1.462a11.873,11.873,0,0,1-1.062,1.338,1.794,1.794,0,0,1-1.162.638A1.6,1.6,0,0,1-123.225,38.825Zm5.3-13.275a1.178,1.178,0,0,1-.925-.362,1.249,1.249,0,0,1-.325-.863,1.282,1.282,0,0,1,.325-.887,1.178,1.178,0,0,1,.925-.362h5.65a1.139,1.139,0,0,1,.912.362,1.312,1.312,0,0,1,.313.887,1.278,1.278,0,0,1-.312.863,1.139,1.139,0,0,1-.912.362ZM-101.6,38.775a1.635,1.635,0,0,1-1.213.325,1.432,1.432,0,0,1-1.062-.6q-.225-.325-.625-.85t-.825-1.062a10.118,10.118,0,0,0-.75-.863,1.144,1.144,0,0,1-.3-1.025,1.56,1.56,0,0,1,.55-.975,1.54,1.54,0,0,1,1.125-.387,1.567,1.567,0,0,1,1.075.512,9.642,9.642,0,0,1,.8.863q.45.538.875,1.063t.65.825a1.481,1.481,0,0,1,.337,1.113A1.53,1.53,0,0,1-101.6,38.775Zm-8.7-2.8a1.639,1.639,0,0,1-1.125.388A1.34,1.34,0,0,1-112.5,35.8l-.562-.687a5.241,5.241,0,0,0-.537-.587,1.083,1.083,0,0,1-.3-1,1.46,1.46,0,0,1,.55-.95,1.579,1.579,0,0,1,1.037-.362,1.534,1.534,0,0,1,1.037.462q.575.525,1.125,1.125a1.469,1.469,0,0,1,.463,1.125A1.432,1.432,0,0,1-110.3,35.975Zm-4.9-6.275a1.946,1.946,0,0,0,.837-.113q.188-.113.188-.538t-.187-.538a1.946,1.946,0,0,0-.837-.112,1.946,1.946,0,0,0-.838.112q-.187.113-.187.538t.188.538A1.946,1.946,0,0,0-115.2,29.7Zm30.625,8.5A1.9,1.9,0,0,1-86,37.987a1.8,1.8,0,0,1-.875-1.138,1.831,1.831,0,0,1,.225-1.412,1.754,1.754,0,0,1,1.125-.838,6.534,6.534,0,0,0,3.863-2.225,6.46,6.46,0,0,0,1.137-3.925,5.076,5.076,0,0,0-1.338-3.575A6.032,6.032,0,0,0-85.65,23.1a32.593,32.593,0,0,1-1.612,7.325,14.014,14.014,0,0,1-2.6,4.675,4.256,4.256,0,0,1-3.112,1.625,4.519,4.519,0,0,1-2.6-.8,5.512,5.512,0,0,1-1.875-2.312,8.743,8.743,0,0,1-.7-3.687,9.933,9.933,0,0,1,.8-3.962,10.179,10.179,0,0,1,2.275-3.3,10.587,10.587,0,0,1,3.512-2.25A12.082,12.082,0,0,1-87.05,19.6a12.552,12.552,0,0,1,4.088.638,9.674,9.674,0,0,1,3.225,1.813,8.189,8.189,0,0,1,2.113,2.8,8.488,8.488,0,0,1,.75,3.6,10.127,10.127,0,0,1-1.9,6.288A9.894,9.894,0,0,1-84.575,38.2Zm-8.375-5.275q.425,0,1.15-1.187a16.933,16.933,0,0,0,1.45-3.362,27.16,27.16,0,0,0,1.1-5.125,6.885,6.885,0,0,0-2.9,1.438,6.512,6.512,0,0,0-1.762,2.375,7.361,7.361,0,0,0-.613,2.813,4.538,4.538,0,0,0,.412,2.325A1.316,1.316,0,0,0-92.95,32.925Zm34.55,6.75a2.219,2.219,0,0,1-1.462-.15,1.576,1.576,0,0,1-.913-1.075,1.672,1.672,0,0,1,.2-1.375,1.861,1.861,0,0,1,1.125-.85,5.929,5.929,0,0,0,2.825-1.6,3.943,3.943,0,0,0,.9-2.7,3.408,3.408,0,0,0-.662-2.075,4.1,4.1,0,0,0-1.988-1.375,15.988,15.988,0,0,1-1.162,3.375,16.035,16.035,0,0,1-1.787,2.925l.1.15a.631.631,0,0,1,.075.15,1.807,1.807,0,0,1,.288,1.388,1.731,1.731,0,0,1-.787,1.188,1.79,1.79,0,0,1-1.2.275,1.8,1.8,0,0,1-1.1-.525,10.2,10.2,0,0,1-2.375,1.325A6.8,6.8,0,0,1-68.8,39.2a4.573,4.573,0,0,1-3.125-1.05,4.372,4.372,0,0,1-1.2-3.45,7.817,7.817,0,0,1,.8-3.5,9.789,9.789,0,0,1,2.188-2.9,13.187,13.187,0,0,1,3.112-2.125q0-1.125.075-2.325-2.075.125-3.825.075A1.577,1.577,0,0,1-72,23.362a1.784,1.784,0,0,1-.475-1.287,1.746,1.746,0,0,1,.6-1.238,1.766,1.766,0,0,1,1.275-.463q.95.025,1.963,0l2.063-.05q.075-.45.162-.887t.188-.888a1.793,1.793,0,0,1,.775-1.175,1.67,1.67,0,0,1,1.375-.25,1.7,1.7,0,0,1,1.175.8,1.8,1.8,0,0,1,.225,1.4q-.025.175-.062.35t-.088.375q.95-.1,1.838-.212l1.663-.212a1.773,1.773,0,0,1,1.337.288,1.659,1.659,0,0,1,.737,1.137,1.782,1.782,0,0,1-.3,1.35,1.605,1.605,0,0,1-1.15.725q-2.125.3-4.675.5-.025.35-.05.688t-.05.688a12.6,12.6,0,0,1,2.375-.225,11.821,11.821,0,0,1,4.938.913,6.745,6.745,0,0,1,3,2.525,6.833,6.833,0,0,1,1.012,3.712,8.167,8.167,0,0,1-1.5,5A7.731,7.731,0,0,1-58.4,39.675ZM-68.45,35.75a3.151,3.151,0,0,0,1.4-.375,7.284,7.284,0,0,0,1.5-1.025,17.963,17.963,0,0,1-.687-2.175q-.287-1.15-.487-2.375a7.309,7.309,0,0,0-2.1,2.2,4.952,4.952,0,0,0-.775,2.6,1.32,1.32,0,0,0,.275.925A1.314,1.314,0,0,0-68.45,35.75Zm5.5-4.75a12.171,12.171,0,0,0,1.175-2.9q-.425.025-.838.088t-.812.162q.075.7.188,1.35T-62.95,31Zm25.15,8.55a6.948,6.948,0,0,1-2.712-.638A4.208,4.208,0,0,1-42.3,37.35a3.866,3.866,0,0,1-.55-2.325,3.79,3.79,0,0,1,.675-1.975,3.893,3.893,0,0,1,1.638-1.312,4.646,4.646,0,0,1,2.362-.337,4.073,4.073,0,0,1,3,1.275,3.364,3.364,0,0,1,.7,2.725,2.737,2.737,0,0,0,1.012-1.213A4.292,4.292,0,0,0-33.15,32.5a2.771,2.771,0,0,0-.487-1.525,3.752,3.752,0,0,0-1.375-1.237,4.394,4.394,0,0,0-2.1-.5,6.043,6.043,0,0,0-2.663.688,11.531,11.531,0,0,0-3.075,2.35,1.979,1.979,0,0,1-1.463.612,1.758,1.758,0,0,1-1.437-.638,1.884,1.884,0,0,1-.437-1.338A1.539,1.539,0,0,1-45.55,29.7q1.5-1.125,3.05-2.425t2.95-2.563q1.4-1.262,2.45-2.287.4-.375.275-.7T-37.6,21.5q-.875.125-1.8.25t-1.875.25a1.789,1.789,0,0,1-1.362-.362,1.865,1.865,0,0,1-.737-1.238,1.789,1.789,0,0,1,.362-1.362,1.774,1.774,0,0,1,1.237-.712q.625-.1,1.513-.175l1.788-.15q.9-.075,1.525-.1a4.767,4.767,0,0,1,2.75.487,3.217,3.217,0,0,1,1.475,1.638,3.464,3.464,0,0,1,.088,2.2,4.61,4.61,0,0,1-1.438,2.2q-.325.325-.888.825t-1.262,1.1a7.4,7.4,0,0,1,3.362.663,5.97,5.97,0,0,1,2.487,2.125,6.109,6.109,0,0,1,.95,3.487A6.911,6.911,0,0,1-30.5,36.588a6.278,6.278,0,0,1-2.963,2.337A10.242,10.242,0,0,1-37.8,39.55Zm-.65-3.425a8.374,8.374,0,0,0,.925,0,1.356,1.356,0,0,0,.125-1.088.937.937,0,0,0-.825-.587,1.2,1.2,0,0,0-.85.1.752.752,0,0,0-.4.575.7.7,0,0,0,.237.675A1.857,1.857,0,0,0-38.45,36.125Zm28.15,4.3a15.668,15.668,0,0,1-4.662-.337A7.531,7.531,0,0,1-18,38.65a4.656,4.656,0,0,1-1.513-2.238,5.9,5.9,0,0,1-.137-2.737,4.36,4.36,0,0,1,1.35-2.513,6.149,6.149,0,0,1,2.725-1.4,9.919,9.919,0,0,1,3.65-.163q-.2-.35-.4-.712t-.4-.738q-1.4.225-2.812.413t-2.713.313a1.67,1.67,0,0,1-1.312-.413,1.728,1.728,0,0,1-.612-1.238,1.708,1.708,0,0,1,.412-1.325,1.711,1.711,0,0,1,1.238-.625q.975-.075,2.038-.2t2.162-.3q-.1-.275-.212-.575t-.238-.575q-.925.15-1.788.262L-18.2,24.1a1.8,1.8,0,0,1-1.337-.387A1.7,1.7,0,0,1-20.2,22.5a1.688,1.688,0,0,1,.375-1.325,1.706,1.706,0,0,1,1.2-.675q.6-.05,1.288-.15l1.387-.2q-.075-.3-.162-.6t-.163-.6a1.849,1.849,0,0,1,.212-1.4,1.71,1.71,0,0,1,1.138-.85,1.784,1.784,0,0,1,1.412.188,1.718,1.718,0,0,1,.838,1.138l.2.75.2.75q.7-.15,1.363-.288t1.237-.263a1.712,1.712,0,0,1,1.362.225A1.774,1.774,0,0,1-7.5,20.325a1.678,1.678,0,0,1-.225,1.35A1.886,1.886,0,0,1-8.85,22.5q-.55.1-1.125.225t-1.175.25a10.178,10.178,0,0,0,.45,1.15q.95-.2,1.862-.413T-7.15,23.3a1.614,1.614,0,0,1,1.363.213,1.821,1.821,0,0,1,.813,1.137A1.678,1.678,0,0,1-5.2,26a1.886,1.886,0,0,1-1.125.825q-.625.175-1.325.337t-1.475.313a21.464,21.464,0,0,0,1.187,1.85A10.789,10.789,0,0,0-6.675,30.8,1.71,1.71,0,0,1-6.1,31.913a1.906,1.906,0,0,1-.275,1.238,1.876,1.876,0,0,1-.975.775A1.705,1.705,0,0,1-8.6,33.9a11.69,11.69,0,0,0-3.762-1.05,5.852,5.852,0,0,0-2.65.288A1.541,1.541,0,0,0-16.1,34.325a1.777,1.777,0,0,0,1.137,1.925,10.093,10.093,0,0,0,4.463.475,1.78,1.78,0,0,1,1.35.463,1.758,1.758,0,0,1,.6,1.313,1.7,1.7,0,0,1-.463,1.325A1.859,1.859,0,0,1-10.3,40.425Zm20.825-1.1A1.827,1.827,0,0,1,9.2,38.787a1.854,1.854,0,0,1-.575-1.312,1.742,1.742,0,0,1,.512-1.325,1.765,1.765,0,0,1,1.313-.55,10.77,10.77,0,0,0,5.038-1,2.913,2.913,0,0,0,1.663-2.625,2.277,2.277,0,0,0-.775-1.788A3.248,3.248,0,0,0,14.15,29.5a6.752,6.752,0,0,0-2.163.375,8.744,8.744,0,0,0-2.125,1.063A7.847,7.847,0,0,0,8.1,32.575a1.671,1.671,0,0,1-1.075.575,1.919,1.919,0,0,1-1.2-.175,1.616,1.616,0,0,1-.787-.825A2.009,2.009,0,0,1,4.9,31q.175-1.125.412-2.45t.5-2.575q.262-1.25.463-2.1a1.854,1.854,0,0,1,.862-1.15,1.705,1.705,0,0,1,1.388-.2,1.752,1.752,0,0,1,1.15.85,1.788,1.788,0,0,1,.2,1.425q-.3,1.275-.725,2.75a12.221,12.221,0,0,1,2.525-1.162,8.4,8.4,0,0,1,2.6-.413,7.743,7.743,0,0,1,3.5.738,5.389,5.389,0,0,1,2.275,2.075,6.1,6.1,0,0,1,.8,3.188,6.239,6.239,0,0,1-2.663,5.337Q15.525,39.25,10.525,39.325Zm3.85-15.8q-.75-.375-1.738-.837t-2.013-.9q-1.025-.437-1.9-.762A1.577,1.577,0,0,1,7.775,20a1.9,1.9,0,0,1,.075-1.45,1.738,1.738,0,0,1,1.063-.925,2.134,2.134,0,0,1,1.438.05q1.325.5,2.75,1.125t2.725,1.3a1.959,1.959,0,0,1,.975,1.012,1.737,1.737,0,0,1,0,1.413,1.783,1.783,0,0,1-1,1.012A1.672,1.672,0,0,1,14.375,23.525ZM39.7,40.425a15.668,15.668,0,0,1-4.663-.337A7.531,7.531,0,0,1,32,38.65a4.656,4.656,0,0,1-1.513-2.238,5.9,5.9,0,0,1-.137-2.737,4.36,4.36,0,0,1,1.35-2.513,6.149,6.149,0,0,1,2.725-1.4,9.919,9.919,0,0,1,3.65-.163q-.2-.35-.4-.712t-.4-.738q-1.4.225-2.812.413t-2.713.313a1.67,1.67,0,0,1-1.312-.413,1.728,1.728,0,0,1-.612-1.238,1.778,1.778,0,0,1,1.65-1.95q.975-.075,2.038-.2t2.162-.3q-.1-.275-.212-.575t-.238-.575q-.925.15-1.787.262L31.8,24.1a1.8,1.8,0,0,1-1.337-.387,1.813,1.813,0,0,1,.913-3.213q.6-.05,1.287-.15l1.388-.2q-.075-.3-.162-.6t-.163-.6a1.849,1.849,0,0,1,.213-1.4,1.71,1.71,0,0,1,1.138-.85,1.784,1.784,0,0,1,1.412.188,1.718,1.718,0,0,1,.838,1.138l.2.75.2.75q.7-.15,1.363-.288t1.237-.263a1.712,1.712,0,0,1,1.362.225,1.774,1.774,0,0,1,.813,1.125,1.678,1.678,0,0,1-.225,1.35,1.886,1.886,0,0,1-1.125.825q-.55.1-1.125.225t-1.175.25a10.178,10.178,0,0,0,.45,1.15q.95-.2,1.862-.413T42.85,23.3a1.614,1.614,0,0,1,1.363.213,1.821,1.821,0,0,1,.813,1.137A1.678,1.678,0,0,1,44.8,26a1.886,1.886,0,0,1-1.125.825q-.625.175-1.325.337t-1.475.313a21.464,21.464,0,0,0,1.188,1.85A10.79,10.79,0,0,0,43.325,30.8a1.71,1.71,0,0,1,.575,1.113,1.906,1.906,0,0,1-.275,1.238,1.876,1.876,0,0,1-.975.775A1.705,1.705,0,0,1,41.4,33.9a11.69,11.69,0,0,0-3.763-1.05,5.852,5.852,0,0,0-2.65.288A1.541,1.541,0,0,0,33.9,34.325a1.777,1.777,0,0,0,1.137,1.925,10.093,10.093,0,0,0,4.463.475,1.78,1.78,0,0,1,1.35.463,1.758,1.758,0,0,1,.6,1.313,1.7,1.7,0,0,1-.463,1.325A1.859,1.859,0,0,1,39.7,40.425Zm20.825-1.1a1.827,1.827,0,0,1-1.325-.538,1.854,1.854,0,0,1-.575-1.312,1.742,1.742,0,0,1,.513-1.325,1.765,1.765,0,0,1,1.313-.55,10.77,10.77,0,0,0,5.038-1,2.913,2.913,0,0,0,1.662-2.625,2.277,2.277,0,0,0-.775-1.788A3.248,3.248,0,0,0,64.15,29.5a6.752,6.752,0,0,0-2.163.375,8.744,8.744,0,0,0-2.125,1.063A7.847,7.847,0,0,0,58.1,32.575a1.671,1.671,0,0,1-1.075.575,1.919,1.919,0,0,1-1.2-.175,1.616,1.616,0,0,1-.788-.825A2.009,2.009,0,0,1,54.9,31q.175-1.125.412-2.45t.5-2.575q.262-1.25.463-2.1a1.854,1.854,0,0,1,.862-1.15,1.705,1.705,0,0,1,1.388-.2,1.752,1.752,0,0,1,1.15.85,1.788,1.788,0,0,1,.2,1.425q-.3,1.275-.725,2.75a12.221,12.221,0,0,1,2.525-1.162,8.4,8.4,0,0,1,2.6-.413,7.743,7.743,0,0,1,3.5.738,5.389,5.389,0,0,1,2.275,2.075,6.1,6.1,0,0,1,.8,3.188,6.239,6.239,0,0,1-2.662,5.337Q65.525,39.25,60.525,39.325Zm3.85-15.8q-.75-.375-1.737-.837t-2.013-.9q-1.025-.437-1.9-.762A1.577,1.577,0,0,1,57.775,20a1.9,1.9,0,0,1,.075-1.45,1.738,1.738,0,0,1,1.063-.925,2.134,2.134,0,0,1,1.438.05q1.325.5,2.75,1.125t2.725,1.3a1.959,1.959,0,0,1,.975,1.012,1.737,1.737,0,0,1,0,1.413,1.783,1.783,0,0,1-1,1.012A1.672,1.672,0,0,1,64.375,23.525ZM86.85,39.9a5.134,5.134,0,0,1-3.412-1.1,3.821,3.821,0,0,1-1.312-3.1,3.7,3.7,0,0,1,1.325-2.987A5.223,5.223,0,0,1,86.925,31.6a8.132,8.132,0,0,1,1.1.075V27.45a1.807,1.807,0,0,1,.525-1.313,1.745,1.745,0,0,1,1.3-.538,1.7,1.7,0,0,1,1.287.538,1.831,1.831,0,0,1,.513,1.313v5.025a19.874,19.874,0,0,1,2.5,1.038,15.316,15.316,0,0,1,2.05,1.212,1.728,1.728,0,0,1,.763,1.213,1.9,1.9,0,0,1-1.55,2.15,1.7,1.7,0,0,1-1.388-.338q-.525-.4-1.138-.787A12.754,12.754,0,0,0,91.6,36.25a4,4,0,0,1-1.475,2.688A5.156,5.156,0,0,1,86.85,39.9ZM77.825,33a1.89,1.89,0,0,1-.55-1.35,1.69,1.69,0,0,1,.575-1.3,15.7,15.7,0,0,0,2.287-2.575,17.3,17.3,0,0,0,1.713-3l-1.025.1q-.5.05-.925.075a1.8,1.8,0,0,1-1.95-1.75,1.76,1.76,0,0,1,.438-1.288A2.011,2.011,0,0,1,79.7,21.3q.75-.075,1.575-.175T82.95,20.9a12.97,12.97,0,0,0,.15-1.975,1.926,1.926,0,0,1,.537-1.312,1.7,1.7,0,0,1,1.288-.538,1.87,1.87,0,0,1,1.337.538,1.666,1.666,0,0,1,.538,1.313q-.025.325-.038.663a5.754,5.754,0,0,1-.062.663l.125-.025a1.766,1.766,0,0,1,1.4.237,1.726,1.726,0,0,1,.8,1.163A1.67,1.67,0,0,1,88.775,23a1.89,1.89,0,0,1-1.175.8q-.35.075-.775.163l-.925.188a22.282,22.282,0,0,1-2.2,4.9A16.6,16.6,0,0,1,80.45,33a1.958,1.958,0,0,1-1.325.537A1.734,1.734,0,0,1,77.825,33Zm16.65-6.525A20.147,20.147,0,0,0,92.7,25.5a15.484,15.484,0,0,0-1.725-.725,2.366,2.366,0,0,1-1.112-.875,1.629,1.629,0,0,1-.238-1.35,1.9,1.9,0,0,1,.863-1.163,1.611,1.611,0,0,1,1.387-.187,15.144,15.144,0,0,1,1.637.587q.863.363,1.675.763a13.385,13.385,0,0,1,1.387.775,1.625,1.625,0,0,1,.775,1.188,1.974,1.974,0,0,1-.3,1.438,1.793,1.793,0,0,1-1.175.775A1.879,1.879,0,0,1,94.475,26.475ZM86.8,36.55a1.094,1.094,0,0,0,1.225-1.25v-.325q-.325-.05-.625-.075t-.6-.025q-1.15,0-1.15.825Q85.65,36.55,86.8,36.55Zm22.45,3.275a1.266,1.266,0,0,1-.988-.4,1.442,1.442,0,0,1,0-1.912,1.287,1.287,0,0,1,.988-.388h5.425V36.55h-4.45a1.128,1.128,0,0,1-.887-.35,1.2,1.2,0,0,1-.312-.825,1.231,1.231,0,0,1,.313-.85,1.128,1.128,0,0,1,.887-.35h4.45V33.6h-1.25a6.243,6.243,0,0,1-2.187-.312,2,2,0,0,1-1.163-1.162,6.605,6.605,0,0,1-.35-2.425,6.5,6.5,0,0,1,.35-2.413,2.046,2.046,0,0,1,1.163-1.162,6.023,6.023,0,0,1,2.188-.325h5.625a6.023,6.023,0,0,1,2.188.325,2.091,2.091,0,0,1,1.175,1.162,6.3,6.3,0,0,1,.363,2.413,6.4,6.4,0,0,1-.363,2.425,2.042,2.042,0,0,1-1.175,1.162,6.243,6.243,0,0,1-2.187.313H117.8v.575h4.375a1.128,1.128,0,0,1,.887.35,1.231,1.231,0,0,1,.313.85,1.2,1.2,0,0,1-.312.825,1.128,1.128,0,0,1-.887.35H117.8v.575h5.325a1.278,1.278,0,0,1,1,.388,1.481,1.481,0,0,1,0,1.912,1.258,1.258,0,0,1-1,.4ZM104.9,36.8a6.374,6.374,0,0,1-2.287-.325,1.894,1.894,0,0,1-1.113-1.062,5.475,5.475,0,0,1-.3-2.012V21.525a5.579,5.579,0,0,1,.3-2.025,1.848,1.848,0,0,1,1.113-1.062,8.574,8.574,0,0,1,4.587,0,1.849,1.849,0,0,1,1.1,1.063,5.579,5.579,0,0,1,.3,2.025V33.4a5.475,5.475,0,0,1-.3,2.012,1.9,1.9,0,0,1-1.1,1.063A6.357,6.357,0,0,1,104.9,36.8Zm5.225-11.575a1.208,1.208,0,0,1-.963-.388,1.378,1.378,0,0,1-.338-.937,1.332,1.332,0,0,1,.338-.925,1.228,1.228,0,0,1,.963-.375h1.9a1.3,1.3,0,0,0-.05-.162.307.307,0,0,1-.025-.113,1.169,1.169,0,0,1,.025-1.025h-1.4a1.208,1.208,0,0,1-.962-.388,1.378,1.378,0,0,1-.338-.937,1.332,1.332,0,0,1,.338-.925,1.228,1.228,0,0,1,.962-.375H114.6V18.1a1.446,1.446,0,0,1,.463-1.137,1.682,1.682,0,0,1,1.162-.413,1.717,1.717,0,0,1,1.188.413,1.446,1.446,0,0,1,.463,1.137v.575h4.1a1.228,1.228,0,0,1,.962.375,1.332,1.332,0,0,1,.338.925,1.378,1.378,0,0,1-.338.937,1.208,1.208,0,0,1-.962.388h-1.45a1.169,1.169,0,0,1,.025,1.025.307.307,0,0,1-.025.113,1.3,1.3,0,0,0-.05.162H122.9a1.228,1.228,0,0,1,.963.375,1.332,1.332,0,0,1,.337.925,1.378,1.378,0,0,1-.337.937,1.208,1.208,0,0,1-.963.388ZM115.25,22.6h2q.1-.325.213-.663a3.7,3.7,0,0,0,.138-.487.2.2,0,0,0,.025-.087.085.085,0,0,1,.025-.062h-2.8a.384.384,0,0,1,.05.15q.05.15.15.487T115.25,22.6ZM104.9,33.775a.732.732,0,0,0,.5-.138.817.817,0,0,0,.15-.588V31.525h-1.275V33.05a.817.817,0,0,0,.15.588A.688.688,0,0,0,104.9,33.775Zm-.625-5.375h1.275V26.275h-1.275Zm0-5.25h1.275V21.875a.817.817,0,0,0-.15-.587.732.732,0,0,0-.5-.138.688.688,0,0,0-.475.138.817.817,0,0,0-.15.587ZM117.8,28.775h1.7a.8.8,0,0,0-.3-.65,1.9,1.9,0,0,0-.9-.15h-.5Zm-4.825,0h1.7v-.8h-.5a1.824,1.824,0,0,0-.875.15A.863.863,0,0,0,112.975,28.775Zm1.2,2.65h.5V30.65h-1.7a.818.818,0,0,0,.325.638A1.969,1.969,0,0,0,114.175,31.425Zm3.625,0h.5a1.969,1.969,0,0,0,.875-.137.818.818,0,0,0,.325-.638h-1.7Zm12.8,7.4a1.835,1.835,0,0,1-1.388-.312,1.734,1.734,0,0,1-.762-1.187,24.671,24.671,0,0,1-.363-3q-.112-1.7-.125-3.588t.088-3.812q.1-1.925.313-3.675t.512-3.15a1.826,1.826,0,0,1,.825-1.188,1.766,1.766,0,0,1,1.4-.237,1.876,1.876,0,0,1,1.175.813,1.75,1.75,0,0,1,.25,1.413,37.823,37.823,0,0,0-.6,3.812q-.225,2.063-.288,4.188t.05,4.125a29.063,29.063,0,0,0,.413,3.625,1.872,1.872,0,0,1-.3,1.4A1.806,1.806,0,0,1,130.6,38.825Zm10.2-1.275a8.708,8.708,0,0,1-4.925-1.138,5.32,5.32,0,0,1-2.1-3.637,1.88,1.88,0,0,1,.313-1.413A1.749,1.749,0,0,1,135.3,30.6a1.8,1.8,0,0,1,1.375.312,1.852,1.852,0,0,1,.775,1.213,1.923,1.923,0,0,0,.9,1.3,5.312,5.312,0,0,0,2.6.45,14.16,14.16,0,0,0,2-.15q1.05-.15,2.375-.425a1.7,1.7,0,0,1,1.387.25,1.885,1.885,0,0,1,.813,1.2,1.744,1.744,0,0,1-.275,1.375,2,2,0,0,1-1.175.825,21.965,21.965,0,0,1-2.762.462A25.156,25.156,0,0,1,140.8,37.55Zm-4.4-12.5a1.865,1.865,0,0,1-1.387-.3,1.781,1.781,0,0,1-.787-1.175,1.817,1.817,0,0,1,.275-1.4,1.682,1.682,0,0,1,1.175-.775,24.059,24.059,0,0,1,3.25-.4,33.121,33.121,0,0,1,3.4-.025,25.436,25.436,0,0,1,3.025.3,1.6,1.6,0,0,1,1.175.75,1.9,1.9,0,0,1,.3,1.4,1.682,1.682,0,0,1-.762,1.213,1.9,1.9,0,0,1-1.387.287,23.034,23.034,0,0,0-4.1-.3A22.575,22.575,0,0,0,136.4,25.05Zm26.1,14.7a1,1,0,0,1-.7-.312,6.183,6.183,0,0,1-.675-.787,3.18,3.18,0,0,0-.35-.463q-.25-.287-.6-.662-.85-1-2.187-2.613a37.657,37.657,0,0,1-2.588-3.537q-3.025-4.775-3.025-8.45a5.08,5.08,0,0,1,1.675-3.8,5.36,5.36,0,0,1,3.825-1.55,5.062,5.062,0,0,1,2.775.763,4.905,4.905,0,0,1,1.85,2.237,4.905,4.905,0,0,1,1.85-2.237,5.062,5.062,0,0,1,2.775-.763,5.361,5.361,0,0,1,3.925,1.65,5.064,5.064,0,0,1,1.575,3.7q0,3.675-3.025,8.45a34.782,34.782,0,0,1-2.562,3.537q-1.338,1.613-2.213,2.613l-.575.662q-.25.287-.375.463a6.183,6.183,0,0,1-.675.787A1,1,0,0,1,162.5,39.75Zm0-1.075q.05-.05.175-.2t.35-.45q.15-.2.4-.488l.6-.687q.675-.775,1.638-1.925t1.987-2.562a30.95,30.95,0,0,0,1.913-2.987,19.332,19.332,0,0,0,1.45-3.213,9.92,9.92,0,0,0,.563-3.237,4.145,4.145,0,0,0-1.25-2.95,4.373,4.373,0,0,0-3.2-1.35,3.972,3.972,0,0,0-2.212.625,4.029,4.029,0,0,0-1.488,1.825,2.209,2.209,0,0,1-.3.513.735.735,0,0,1-.625.262.7.7,0,0,1-.613-.262,3.845,3.845,0,0,1-.312-.513,4.029,4.029,0,0,0-1.488-1.825,3.972,3.972,0,0,0-2.212-.625,4.373,4.373,0,0,0-3.2,1.35,4.145,4.145,0,0,0-1.25,2.95,9.92,9.92,0,0,0,.563,3.237,19.332,19.332,0,0,0,1.45,3.213,30.95,30.95,0,0,0,1.913,2.987q1.025,1.413,1.987,2.563t1.638,1.925l.6.688q.25.288.4.488.225.3.35.45T162.5,38.675Z" transform="translate(261.879 650.129)" fill="#d77298"/>
    <path id="パス_9827" data-name="パス 9827" d="M70.524,26.153c0-4.516-3.276-8.176-7.317-8.176a6.889,6.889,0,0,0-4.927,2.131,6.9,6.9,0,0,0-4.929-2.131c-4.039,0-7.315,3.66-7.315,8.176a8.654,8.654,0,0,0,3.384,6.9l.032.021c.249.175.249.175,8.828,6.432,8.576-6.257,8.576-6.257,8.825-6.432l.019-.011.013-.011h0l1.012-.792a8.441,8.441,0,0,0,2.375-6.1" transform="translate(-95.862 614.052)" fill="#d77298"/>
    <path id="パス_9828" data-name="パス 9828" d="M62.145,23.355a5.119,5.119,0,0,0-4.814-5.378,4.532,4.532,0,0,0-3.241,1.4,4.536,4.536,0,0,0-3.243-1.4,5.119,5.119,0,0,0-4.812,5.378,5.693,5.693,0,0,0,2.226,4.536l.021.014c.164.115.164.115,5.807,4.231,5.642-4.116,5.642-4.116,5.805-4.231l.012-.007.009-.007h0l.666-.521a5.553,5.553,0,0,0,1.562-4.015" transform="translate(491.577 637.808)" fill="#d77298"/>
    <path id="パス_9781" data-name="パス 9781" d="M28.491-.646a7.344,7.344,0,0,1,4.68,1.706,7.344,7.344,0,0,1,4.68-1.706,7.417,7.417,0,0,1,5.526,2.509,8.8,8.8,0,0,1,2.244,5.946,8.616,8.616,0,0,1-2.571,6.348l-.405.313-.091.07.017.046L42,14.958c-.218.152-.507.36-8.349,5.992l-.483.347-.483-.347c-7.843-5.633-8.131-5.84-8.349-5.992l-.906-.536.123-.119a8.993,8.993,0,0,1-1.855-2.44,8.727,8.727,0,0,1-.977-4.055,8.8,8.8,0,0,1,2.244-5.946A7.417,7.417,0,0,1,28.491-.646Zm4.68,3.957-.585-.587a5.775,5.775,0,0,0-4.1-1.754c-3.38,0-6.13,3.067-6.13,6.84a7.221,7.221,0,0,0,2.878,5.8l.023.016c.237.165.241.168,7.913,5.677,7.668-5.508,7.674-5.512,7.913-5.677l.031-.021.006,0,.92-.711a7.1,7.1,0,0,0,1.943-5.077c0-3.772-2.75-6.84-6.13-6.84a5.775,5.775,0,0,0-4.1,1.754Z" transform="translate(532.999 635.955)" fill="#d77298"/>
    <path id="パス_9781-2" data-name="パス 9781" d="M26.078-.646A5.063,5.063,0,0,1,29.3.53,5.063,5.063,0,0,1,32.531-.646a5.113,5.113,0,0,1,3.809,1.73,6.067,6.067,0,0,1,1.547,4.1,5.939,5.939,0,0,1-1.773,4.376l-.28.216-.063.048.011.032-.391.257c-.15.1-.35.248-5.756,4.131l-.333.239-.333-.239c-5.406-3.883-5.606-4.026-5.756-4.131l-.625-.369.085-.082A6.2,6.2,0,0,1,21.4,7.978a6.016,6.016,0,0,1-.674-2.8,6.067,6.067,0,0,1,1.547-4.1A5.113,5.113,0,0,1,26.078-.646ZM29.3,2.082l-.4-.4A3.981,3.981,0,0,0,26.078.467a4.5,4.5,0,0,0-4.226,4.715,4.978,4.978,0,0,0,1.984,4l.016.011c.163.114.166.116,5.455,3.913,5.286-3.8,5.29-3.8,5.455-3.913l.021-.014,0,0,.634-.49a4.895,4.895,0,0,0,1.34-3.5A4.5,4.5,0,0,0,32.534.467a3.981,3.981,0,0,0-2.823,1.209Z" transform="translate(-50.743 655.464)" fill="#d77298"/>
  </g>
</svg>
