<svg xmlns="http://www.w3.org/2000/svg" width="211.274" height="33.15" viewBox="0 0 211.274 33.15">
  <g id="グループ_3881" data-name="グループ 3881" transform="translate(74.028 -39.33)">
    <path id="パス_10342" data-name="パス 10342" d="M13.533-27.885l-2.808,7.917H5.031l-1.4,3.744H9.4L7.722-11.466H2.262L.858-7.722h5.5L3.549.2h4.1l2.847-7.917h4.836L12.519.2h4.1l2.808-7.917H24.96l1.365-3.744H20.748l1.677-4.758h5.3l1.4-3.744H23.751l2.808-7.917H22.5l-2.847,7.917H14.82l2.808-7.917Zm-.117,11.661h4.992l-1.677,4.758H11.7ZM33.657.156C38.22.078,42.12,0,45.357,0c4.056,0,8.034.039,11.934.078l.156-7.8h-1.6c-.78,4.056-3.12,5.85-7.488,5.85-3.939,0-4.914-1.248-4.914-5.148V-21.294c0-2.574.7-3.315,3.51-3.315h.234v-1.56c-3.042.078-5.343.117-6.786.117-1.95,0-4.212-.039-6.747-.117v1.56h.195c2.574,0,3.393.741,3.393,3.081V-5.382c0,2.925-.663,3.9-3.276,3.9h-.312Zm28-.039C63.375.039,65.247,0,67.236,0c.78,0,2.379.039,4.875.117V-1.365c-2.067-.117-2.457-.429-2.457-2.067V-17.706h-.585a35.637,35.637,0,0,1-7.41,1.365v1.365c1.989.078,2.457.468,2.457,2.34v9.2c0,1.6-.351,1.95-2.457,2.067Zm2.028-24.765a2.963,2.963,0,0,0,2.964,2.964,2.963,2.963,0,0,0,2.964-2.964,2.938,2.938,0,0,0-2.964-2.964A2.938,2.938,0,0,0,63.687-24.648ZM86.658-1.95a3.259,3.259,0,0,0,3.588,2.5,5.824,5.824,0,0,0,4.524-2.3l-.819-1.053a2.831,2.831,0,0,1-1.287.585c-.507,0-.7-.312-.7-1.092v-9.2c0-3.393-2.5-5.07-7.41-5.07-4.68,0-7.293,1.56-7.293,3.744a2.11,2.11,0,0,0,2.184,2.184c1.833,0,2.145-1.482,2.769-2.847a2.6,2.6,0,0,1,2.418-1.56c1.4,0,2.184.819,2.184,2.418v1.326A1.238,1.238,0,0,1,85.839-11L83.07-9.984C78.624-8.307,76.6-6.942,76.6-3.861A4.149,4.149,0,0,0,81.12.546,8.13,8.13,0,0,0,86.658-1.95Zm-.039-3.315a2.651,2.651,0,0,1-2.691,2.613c-1.092,0-1.872-.9-1.872-2.379,0-2.223,1.443-3.549,4.563-4.524ZM98.4.078C100.7,0,102.375,0,103.545,0c1.872,0,3.744.039,5.538.078V-1.365c-2.028,0-2.73-.312-2.73-1.911v-7.332c0-1.911,1.248-3.7,2.262-3.7.936,0,1.287,2.028,3.081,2.028a2.242,2.242,0,0,0,2.418-2.379c0-1.755-1.17-2.769-3.2-2.769-1.716,0-3.471,1.053-4.914,3.2l-.312-3.393h-.663a27.522,27.522,0,0,1-6.591,1.365V-14.9c2.028.039,2.418,1.014,2.418,3.549v7.956c0,1.482-.546,1.833-2.457,2.028Zm19.89.039C119.535,0,121.056,0,122.85,0c3.666,0,6.63.039,8.97.117v-1.6h-.234c-2.925,0-3.7-.819-3.7-3.354v-6.942c.663.039,1.326.039,1.911.039,7.878,0,11.622-2.3,11.622-7.371,0-5.031-3.939-6.981-12.168-6.981-2.847,0-5.07.078-6.708.078-1.209,0-2.652,0-4.251-.117v1.521c2.886.195,3.432.78,3.432,3.2v16.77c0,2.3-.7,2.964-3.432,3.159Zm9.594-13.806v-9.477c0-.858.507-1.053,2.067-1.053,3.12,0,4.8,1.716,4.8,4.992,0,3.978-1.677,5.577-5.811,5.577A9.5,9.5,0,0,1,127.881-13.689ZM146.055.117C147.771.039,149.643,0,151.632,0c.78,0,2.379.039,4.875.117V-1.365c-2.067-.117-2.457-.429-2.457-2.067V-17.706h-.585a35.637,35.637,0,0,1-7.41,1.365v1.365c1.989.078,2.457.468,2.457,2.34v9.2c0,1.6-.351,1.95-2.457,2.067Zm2.028-24.765a2.963,2.963,0,0,0,2.964,2.964,2.963,2.963,0,0,0,2.964-2.964,2.938,2.938,0,0,0-2.964-2.964A2.938,2.938,0,0,0,148.083-24.648ZM160.992.117C162.669.039,164.229,0,165.711,0c1.326,0,3.12.039,5.421.117v-1.4c-1.872-.039-2.3-.624-2.3-2.418V-9.789c0-3.081,1.56-4.953,3.783-4.953,1.56,0,2.34,1.131,2.34,3.354V-3.51c0,1.755-.39,2.223-2.223,2.223v1.4C174.6.039,176.241,0,177.606,0c1.6,0,3.276.039,5.07.117v-1.4c-2.145-.156-2.3-.507-2.3-2.223v-7.878c0-4.134-1.872-6.2-5.5-6.2a7.856,7.856,0,0,0-6.357,3.432l-.234-3.432h-.663a27.145,27.145,0,0,1-6.63,1.365v1.443c1.95,0,2.418.507,2.418,2.574v8.7c0,1.677-.195,2.028-2.418,2.223Zm25.7,0c.936-.078,3.315-.117,7.1-.117,1.287,0,2.262.039,3.042.117v-1.4c-1.95-.234-2.379-.585-2.379-2.145V-6.318l1.326-1.248L201.24.117A14.669,14.669,0,0,1,203.58,0c.936,0,2.145.039,3.666.117V-1.365h-.078a1.874,1.874,0,0,1-1.4-.741L199.1-10.881l2.886-2.964a7.245,7.245,0,0,1,4.29-2.106v-1.287c-1.248.078-2.574.117-3.861.117-1.56,0-3.159-.039-4.758-.117v1.287c1.56.039,2.3.39,2.3,1.131s-.78,1.443-1.989,2.652l-3.51,3.51V-27.729a25.671,25.671,0,0,1-7.761,1.56v1.443h.195c1.716,0,2.223.546,2.223,2.262V-3.432c0,1.56-.39,1.95-2.418,2.145Z" transform="translate(-72 69.934)" fill="#fff" stroke="#e8aeb8" stroke-width="4"/>
    <path id="パス_10341" data-name="パス 10341" d="M13.533-27.885l-2.808,7.917H5.031l-1.4,3.744H9.4L7.722-11.466H2.262L.858-7.722h5.5L3.549.2h4.1l2.847-7.917h4.836L12.519.2h4.1l2.808-7.917H24.96l1.365-3.744H20.748l1.677-4.758h5.3l1.4-3.744H23.751l2.808-7.917H22.5l-2.847,7.917H14.82l2.808-7.917Zm-.117,11.661h4.992l-1.677,4.758H11.7ZM33.657.156C38.22.078,42.12,0,45.357,0c4.056,0,8.034.039,11.934.078l.156-7.8h-1.6c-.78,4.056-3.12,5.85-7.488,5.85-3.939,0-4.914-1.248-4.914-5.148V-21.294c0-2.574.7-3.315,3.51-3.315h.234v-1.56c-3.042.078-5.343.117-6.786.117-1.95,0-4.212-.039-6.747-.117v1.56h.195c2.574,0,3.393.741,3.393,3.081V-5.382c0,2.925-.663,3.9-3.276,3.9h-.312Zm28-.039C63.375.039,65.247,0,67.236,0c.78,0,2.379.039,4.875.117V-1.365c-2.067-.117-2.457-.429-2.457-2.067V-17.706h-.585a35.637,35.637,0,0,1-7.41,1.365v1.365c1.989.078,2.457.468,2.457,2.34v9.2c0,1.6-.351,1.95-2.457,2.067Zm2.028-24.765a2.963,2.963,0,0,0,2.964,2.964,2.963,2.963,0,0,0,2.964-2.964,2.938,2.938,0,0,0-2.964-2.964A2.938,2.938,0,0,0,63.687-24.648ZM86.658-1.95a3.259,3.259,0,0,0,3.588,2.5,5.824,5.824,0,0,0,4.524-2.3l-.819-1.053a2.831,2.831,0,0,1-1.287.585c-.507,0-.7-.312-.7-1.092v-9.2c0-3.393-2.5-5.07-7.41-5.07-4.68,0-7.293,1.56-7.293,3.744a2.11,2.11,0,0,0,2.184,2.184c1.833,0,2.145-1.482,2.769-2.847a2.6,2.6,0,0,1,2.418-1.56c1.4,0,2.184.819,2.184,2.418v1.326A1.238,1.238,0,0,1,85.839-11L83.07-9.984C78.624-8.307,76.6-6.942,76.6-3.861A4.149,4.149,0,0,0,81.12.546,8.13,8.13,0,0,0,86.658-1.95Zm-.039-3.315a2.651,2.651,0,0,1-2.691,2.613c-1.092,0-1.872-.9-1.872-2.379,0-2.223,1.443-3.549,4.563-4.524ZM98.4.078C100.7,0,102.375,0,103.545,0c1.872,0,3.744.039,5.538.078V-1.365c-2.028,0-2.73-.312-2.73-1.911v-7.332c0-1.911,1.248-3.7,2.262-3.7.936,0,1.287,2.028,3.081,2.028a2.242,2.242,0,0,0,2.418-2.379c0-1.755-1.17-2.769-3.2-2.769-1.716,0-3.471,1.053-4.914,3.2l-.312-3.393h-.663a27.522,27.522,0,0,1-6.591,1.365V-14.9c2.028.039,2.418,1.014,2.418,3.549v7.956c0,1.482-.546,1.833-2.457,2.028Zm19.89.039C119.535,0,121.056,0,122.85,0c3.666,0,6.63.039,8.97.117v-1.6h-.234c-2.925,0-3.7-.819-3.7-3.354v-6.942c.663.039,1.326.039,1.911.039,7.878,0,11.622-2.3,11.622-7.371,0-5.031-3.939-6.981-12.168-6.981-2.847,0-5.07.078-6.708.078-1.209,0-2.652,0-4.251-.117v1.521c2.886.195,3.432.78,3.432,3.2v16.77c0,2.3-.7,2.964-3.432,3.159Zm9.594-13.806v-9.477c0-.858.507-1.053,2.067-1.053,3.12,0,4.8,1.716,4.8,4.992,0,3.978-1.677,5.577-5.811,5.577A9.5,9.5,0,0,1,127.881-13.689ZM146.055.117C147.771.039,149.643,0,151.632,0c.78,0,2.379.039,4.875.117V-1.365c-2.067-.117-2.457-.429-2.457-2.067V-17.706h-.585a35.637,35.637,0,0,1-7.41,1.365v1.365c1.989.078,2.457.468,2.457,2.34v9.2c0,1.6-.351,1.95-2.457,2.067Zm2.028-24.765a2.963,2.963,0,0,0,2.964,2.964,2.963,2.963,0,0,0,2.964-2.964,2.938,2.938,0,0,0-2.964-2.964A2.938,2.938,0,0,0,148.083-24.648ZM160.992.117C162.669.039,164.229,0,165.711,0c1.326,0,3.12.039,5.421.117v-1.4c-1.872-.039-2.3-.624-2.3-2.418V-9.789c0-3.081,1.56-4.953,3.783-4.953,1.56,0,2.34,1.131,2.34,3.354V-3.51c0,1.755-.39,2.223-2.223,2.223v1.4C174.6.039,176.241,0,177.606,0c1.6,0,3.276.039,5.07.117v-1.4c-2.145-.156-2.3-.507-2.3-2.223v-7.878c0-4.134-1.872-6.2-5.5-6.2a7.856,7.856,0,0,0-6.357,3.432l-.234-3.432h-.663a27.145,27.145,0,0,1-6.63,1.365v1.443c1.95,0,2.418.507,2.418,2.574v8.7c0,1.677-.195,2.028-2.418,2.223Zm25.7,0c.936-.078,3.315-.117,7.1-.117,1.287,0,2.262.039,3.042.117v-1.4c-1.95-.234-2.379-.585-2.379-2.145V-6.318l1.326-1.248L201.24.117A14.669,14.669,0,0,1,203.58,0c.936,0,2.145.039,3.666.117V-1.365h-.078a1.874,1.874,0,0,1-1.4-.741L199.1-10.881l2.886-2.964a7.245,7.245,0,0,1,4.29-2.106v-1.287c-1.248.078-2.574.117-3.861.117-1.56,0-3.159-.039-4.758-.117v1.287c1.56.039,2.3.39,2.3,1.131s-.78,1.443-1.989,2.652l-3.51,3.51V-27.729a25.671,25.671,0,0,1-7.761,1.56v1.443h.195c1.716,0,2.223.546,2.223,2.262V-3.432c0,1.56-.39,1.95-2.418,2.145Z" transform="translate(-72 69.934)" fill="#fff"/>
  </g>
</svg>
