<svg xmlns="http://www.w3.org/2000/svg" width="196.111" height="79.894" viewBox="0 0 196.111 79.894">
  <g id="グループ_3909" data-name="グループ 3909" transform="translate(-1.423 10.096) rotate(-3)">
    <g id="グループ_3914" data-name="グループ 3914" transform="translate(0 27.19)">
      <path id="パス_10048" data-name="パス 10048" d="M20.283,0l.081,0A28.7,28.7,0,0,1,26.1.851a2.067,2.067,0,0,1,1.506,1.33q.033.092.056.186a2.068,2.068,0,0,1,1.854,1.7l.365,2.043a2.067,2.067,0,0,1-1.12,2.217,2.056,2.056,0,0,1,.069.223l.024.1a2.067,2.067,0,0,1-.152,1.416c-.228.463-.459.909-.693,1.341a12.3,12.3,0,0,0,2.091.382,2.067,2.067,0,0,1,1.854,2.138,11.162,11.162,0,0,1-2.407,6.832l.584,3.331.8-.144a2.067,2.067,0,0,1,2.4,1.671l.365,2.043a2.067,2.067,0,0,1-1.677,2.4L4.663,34.869A2.067,2.067,0,0,1,2.27,33.2l-.365-2.043a2.067,2.067,0,0,1,1.67-2.4l.82-.147-.253-1.45a2.062,2.062,0,0,1-1.354-.36l-1.9-1.313a2.067,2.067,0,0,1-.672-2.624c.9-1.793,1.824-3.648.81-9.445L.3,9.259A2.067,2.067,0,0,1,1.975,6.866l9.317-1.648c-.094-.414-.208-.963-.256-1.321a2.067,2.067,0,0,1,1.693-2.309L18.006.663a2.069,2.069,0,0,1,.754.007A2.067,2.067,0,0,1,20.283,0ZM17.62,7.434a2.059,2.059,0,0,1-.592-1.039c-.04-.177-.082-.354-.124-.535-.057-.246-.117-.5-.179-.775l-1.153.2c.067.237.155.533.286.949A2.068,2.068,0,0,1,15.9,7.342a2.061,2.061,0,0,1,.615.881,21.76,21.76,0,0,0,3.223,6.335,2.066,2.066,0,0,1,.385,1.493,2.04,2.04,0,0,1,1.428.556,8.455,8.455,0,0,0,1.872,1.4,2.068,2.068,0,0,1,.872,2.7,2.059,2.059,0,0,1,.338.821l.966,5.458.823-.145-1.143-6.517a2.067,2.067,0,0,1,.914-2.093,1.91,1.91,0,0,0,.481-.488,2.411,2.411,0,0,1-.966.392l-.071.012a2.522,2.522,0,0,1-.356.025c-1.466,0-2.816-1.253-3.49-2a2.067,2.067,0,0,1-.093-2.66A28.536,28.536,0,0,0,23.711,10.6l-.8-.141c-.062.212-.133.442-.216.712a2.067,2.067,0,0,1-3.845.269l-.077-.162a23.29,23.29,0,0,1-1.1-2.671A2.067,2.067,0,0,1,17.62,7.434ZM6.784,13.452a2.067,2.067,0,0,1-.332-.812l-.389-2.213c0-.028-.009-.055-.013-.083l-1.322.234L5.1,12.7a25.234,25.234,0,0,1,.428,6.766q.093-.2.184-.414.034-.078.073-.153a2.072,2.072,0,0,1,.09-.306,11.221,11.221,0,0,0,.691-4.2v-.026A2.061,2.061,0,0,1,6.784,13.452Zm6.306,4.977q.031-.085.07-.168c.081-.172.4-1.126-.088-4.693l-1.119.2v.006a27.424,27.424,0,0,1,.473,4.542q0,.03,0,.059a3.794,3.794,0,0,1-.038.437,1.384,1.384,0,0,0,.685-.365Zm7.462,9.446-.965-5.451-.429.076v0l.964,5.449Zm-5.45.959-.963-5.442,0-.012-.354.062v.008l.964,5.446Zm-5.352.942-.962-5.435,0-.024-.913.16.952,5.447,0,.015Z" fill="#dd7498"/>
    </g>
    <path id="パス_10049" data-name="パス 10049" d="M24.783,7.077a31.093,31.093,0,0,1-3.526,5.642c.9,1,1.678,1.362,2.019,1.313.681-.122.8-2.408.754-3.137a15.345,15.345,0,0,0,3.794.876c-.1,2.456-1,5.107-2.578,6.129l1.143,6.518,2.846-.511L29.6,25.95,2.238,30.766l-.365-2.043,2.845-.511L3.5,21.256A13.986,13.986,0,0,1,1.9,23.032L0,21.718c1.021-2.043,2.116-4.329,1-10.725L.268,6.834,11.82,4.791c-.292-.924-.389-1.313-.486-1.7s-.268-1.167-.316-1.532L16.295.632l.073.438c.195,1.07.413,1.946.608,2.8l2.748-.486a14.078,14.078,0,0,0-2.918-1.629L18.216,0a26.978,26.978,0,0,1,5.375.8L21.84,2.991l3.575-.632L25.78,4.4,17.56,5.861a21.92,21.92,0,0,0,1.094,2.627,15.416,15.416,0,0,0,.608-2.481l5.5.973ZM12.549,17.754A4.387,4.387,0,0,1,9.826,18.97l-3.381.608-.9-1.775a16.58,16.58,0,0,1-1.532,2.821l10.142-1.775-1.581-1.094ZM6.567,12.331a13.235,13.235,0,0,1-.827,4.937H7.466a.917.917,0,0,0,.827-1.022,25.526,25.526,0,0,0-.438-4.159l-1.289.219ZM12.72,9.12c.705,3.989.827,6.713.243,7.953A19.5,19.5,0,0,0,16,13.717a23.961,23.961,0,0,1-3.5-6.858L6.032,8l.389,2.213L12.72,9.1ZM9.68,21.743l-.924.17.973,5.5.924-.17Zm5.375-.949-.948.17.973,5.5.948-.17Zm5.3-3.04a10.578,10.578,0,0,1-2.286-1.7,27.454,27.454,0,0,1-3.891,2.8l6.177-1.094Zm.17,7.734.973-.17-.973-5.5-.973.17Z" transform="translate(2.067 29.258)" fill="#fff"/>
    <g id="グループ_3913" data-name="グループ 3913" transform="translate(32.687 24.831)">
      <path id="パス_10050" data-name="パス 10050" d="M9.68,30.3a2.067,2.067,0,0,1-2.045-1.765c-.112-.756-.276-1.79-.459-2.913a2.067,2.067,0,0,1-2.845-.208L1.266,22.037a2.067,2.067,0,0,1-.064-2.7c.543-.66,2.863-3.6,4.051-5.122l-.034-.2-.127-.747c-.613.165-1.268.354-1.925.566A2.067,2.067,0,0,1,.494,12.23l-.462-2.6A2.067,2.067,0,0,1,1.648,7.242c.991-.206,1.735-.367,2.323-.5L3.314,2.982A2.067,2.067,0,0,1,5.136.571L10.486.011a2.068,2.068,0,0,1,2.277,1.907c.073,1.006.246,2.338.439,3.633a12.607,12.607,0,0,1,5.773-3.063,7.209,7.209,0,0,1,1.24-.107c3.253,0,5.558,2.058,6.166,5.5l0,.013c.111.656.284,2.3.483,4.2.164,1.566.361,3.444.5,4.461a2.067,2.067,0,0,1,2.845-.3L32.058,17.7a2.067,2.067,0,0,1,.275,3.009c-1.976,2.915-4.5,4.8-7.119,5.316l-.025,0-.045.008a7.194,7.194,0,0,1-1.249.114c-2.886,0-4.882-1.891-5.475-5.189-.192-1.088-.442-3.082-.624-4.538-.036-.285-.069-.547-.1-.772l0-.033c-.082-.737-.393-3.9-.516-5.155a17.98,17.98,0,0,0-2.68,2.925l2.374,13.513a2.067,2.067,0,0,1-1.653,2.389l-5.156.973A2.067,2.067,0,0,1,9.68,30.3ZM8.244,17.365a2.068,2.068,0,0,1,2.04,1.731c.092.556.2,1.219.322,1.937.253,1.518.546,3.276.787,4.776l1.053-.2L10.27,13.223a2.067,2.067,0,0,1,.372-1.585l.085-.116a2.068,2.068,0,0,1-.968-1.41c-.206-1.165-.625-3.612-.9-5.775l-1.093.114.617,3.534a2.059,2.059,0,0,1-.178,1.261,2.067,2.067,0,0,1,.6,1.164c.064.414.32,1.915.489,2.909.085.5.156.916.187,1.1a2.067,2.067,0,0,1-.4,1.6c-.208.27-.591.762-1.055,1.353A2.071,2.071,0,0,1,8.244,17.365ZM21.8,15.15c.028.223.061.482.1.763.167,1.333.419,3.347.592,4.327.32,1.78,1.025,1.784,1.4,1.779a3.033,3.033,0,0,0,.51-.048l.01,0a4.633,4.633,0,0,0,1.16-.407,2.846,2.846,0,0,1-1.645-1.569,8.915,8.915,0,0,1-.549-2.146c-.149-.807-.345-2.632-.626-5.315-.175-1.671-.356-3.4-.446-3.934-.259-1.461-.885-2.084-2.094-2.084a3.094,3.094,0,0,0-.524.045l-.049.009A4.4,4.4,0,0,1,21.2,9.336l.007.033a2.062,2.062,0,0,1,.036.227l.041.421C21.395,11.1,21.718,14.4,21.8,15.15Z" fill="#dd7498"/>
    </g>
    <path id="パス_10051" data-name="パス 10051" d="M28.7,17.268c-2.675,4.086-5.5,4.572-5.983,4.67-2.748.486-3.94-1.24-4.329-3.4-.219-1.24-.535-3.867-.705-5.2-.1-.875-.535-5.351-.559-5.594-.073-.34-.365-2.043-1.775-1.8-.876.146-2.578,1.435-5.107,4.864l2.529,14.4-5.156.973c-.316-2.14-1.046-6.445-1.435-8.8-1.094,1.946-1.994,3.843-2.383,4.6L.73,18.581c.681-.827,3.916-4.937,4.645-5.886-.1-.584-.584-3.4-.681-4.037C3.745,8.877,2.116,9.266.462,9.8L0,7.2c2.578-.535,3.527-.778,4.28-.924l-1-5.715L8.634,0c.146,2.019.681,5.351,1.094,7.685,2.213-2.286,4.791-4.742,7.539-5.229,1.532-.267,4.353,0,5.01,3.721.219,1.289.8,7.807,1.07,9.242.292,1.7.462,2.311,1.386,2.14a3.853,3.853,0,0,0,2.14-1.727l1.848,1.435Z" transform="translate(34.754 26.899)" fill="#fff"/>
    <g id="グループ_3912" data-name="グループ 3912" transform="translate(62.164 17.486)">
      <path id="パス_10052" data-name="パス 10052" d="M19.313,0a2.067,2.067,0,0,1,2.035,1.715c.117.675.218,1.243.308,1.73,1.6-.322,2.947-.585,4.7-.886a2.067,2.067,0,0,1,2.384,1.67l.413,2.286a2.067,2.067,0,0,1-1.662,2.4l-.949.172c-.965.174-1.955.353-3.612.68.453,2.326,1.092,5.653,1.237,6.449.856,4.848-.252,8.859-3.291,11.932a20.236,20.236,0,0,1-7.912,4.569,2.067,2.067,0,0,1-2.366-.755L9.283,30.115a2.067,2.067,0,0,1,.929-3.121,15.1,15.1,0,0,0,2.034-.964c-1.971-.227-5.219-1.449-6.16-6.877a10.316,10.316,0,0,1,.55-5.894c-1.328.319-2.568.632-3.569.915a2.067,2.067,0,0,1-2.6-1.639l-.33-1.92A2.067,2.067,0,0,1,1.529,7.878C4.6,7.052,9.024,6.056,12.273,5.352c-.14-.6-.275-1.139-.555-2.2A2.067,2.067,0,0,1,13.511.57L19.1.01Q19.21,0,19.313,0Zm-.729,7.377a2.067,2.067,0,0,1-.6-1.1l-.055-.285c-.086-.44-.189-.973-.319-1.678l-1.3.13c.049.21.1.426.155.669.083.36.181.784.312,1.344A2.068,2.068,0,0,1,16.7,7.652a2.067,2.067,0,0,1,.654,1.16c.024.129.071.353.128.629.114.547.27,1.3.385,1.94a2.068,2.068,0,0,1-.451,1.694,6.767,6.767,0,0,1,1.375,3.144,6.546,6.546,0,0,1-.21,3.479,2.067,2.067,0,0,1,1.106,2.24l-.02.1c-.07.363-.149.779-.266,1.233a9.755,9.755,0,0,0,.7-6.328c-.2-1.079-1.329-6.959-1.619-8.387A2.058,2.058,0,0,1,18.584,7.377ZM10.46,18.167a2.075,2.075,0,0,1-.09-.335,8.363,8.363,0,0,1-.088-2.542,6.677,6.677,0,0,0-.124,3.146c.557,3.215,2.043,3.481,2.719,3.5A5.519,5.519,0,0,1,10.46,18.167Zm4.3-.119a3.681,3.681,0,0,0-.395-2.123,4.222,4.222,0,0,0,.03.905,2.072,2.072,0,0,1,.067.273A3.8,3.8,0,0,0,14.761,18.048Z" fill="#dd7498"/>
    </g>
    <path id="パス_10053" data-name="パス 10053" d="M0,7.807c3.429-.924,8.8-2.116,12.7-2.943-.486-2.067-.511-2.286-1.046-4.3L17.243,0c.34,1.97.559,3.064.705,3.818,2.651-.535,4.28-.876,6.688-1.289l.413,2.286c-1.727.316-2.918.511-6.615,1.265.292,1.435,1.435,7.369,1.629,8.439,1.678,9.509-5.667,12.72-9.85,14.179L8.9,26.85c5.813-2.286,6.323-5.472,6.688-7.369a5.874,5.874,0,0,1-3.721,2.384C10.6,22.083,7,22.2,6.056,16.733c-.584-3.259.34-6.907,4.159-7.588a5.347,5.347,0,0,1,3.551.535c-.17-.949-.438-2.165-.511-2.554C10.361,7.758,3.964,9.12.438,10.117L.049,7.856Zm10.361,7.588c.073.414.632,3.235,2.675,2.87,1.265-.219,2.043-1.557,1.654-3.745-.268-1.484-1.192-3.235-2.821-2.967-2.019.365-1.678,3.04-1.532,3.843Z" transform="translate(64.231 19.554)" fill="#fff"/>
    <g id="グループ_3911" data-name="グループ 3911" transform="translate(94.924 0)">
      <g id="グループ_3903" data-name="グループ 3903">
        <path id="パス_10054" data-name="パス 10054" d="M22.4,0a2.064,2.064,0,0,1,.711.126,16.858,16.858,0,0,1,4.246,2.382l.011.008A2.067,2.067,0,0,1,27.7,5.545L26,7.49a2.067,2.067,0,0,1-.372.333,2.07,2.07,0,0,1-.2.239l-1.8,1.9h0a2.068,2.068,0,0,1,1.536,1.655l.389,2.262a2.067,2.067,0,0,1-1.439,2.329c-.629.19-1.2.359-1.727.51a22.988,22.988,0,0,0,1.575,2,2.067,2.067,0,0,1-.311,3.038l-4.037,2.991a2.067,2.067,0,0,1-2.1.216,6.168,6.168,0,0,0-2.815-.766,6.847,6.847,0,0,0-1.12.1c-1.59.288-1.679.975-1.578,1.541A1.616,1.616,0,0,0,13.741,27.1a2.916,2.916,0,0,0,.511-.047,31.3,31.3,0,0,0,7.079-2.514,2.067,2.067,0,0,1,2.811,1.155l1.046,2.821a2.067,2.067,0,0,1-1.208,2.653l-.173.065A46.071,46.071,0,0,1,14.8,33.678a22.688,22.688,0,0,1-3.887.375,9.558,9.558,0,0,1-5.342-1.346,7.07,7.07,0,0,1-3.084-4.936,7.253,7.253,0,0,1,2.293-6.938q.088-.08.177-.157c-.677.124-1.378.249-2.121.38A2.067,2.067,0,0,1,.449,19.4L.036,17.214a2.067,2.067,0,0,1,1.2-2.278,2.065,2.065,0,0,1-.248-.575l-.559-2.14A2.067,2.067,0,0,1,2.08,9.661C3.345,9.443,4.7,9.2,6.2,8.894l-.02-.033-.279-.449A2.067,2.067,0,0,1,6.895,5.4l5.3-2.116a2.068,2.068,0,0,1,.766-.147h.049a2.067,2.067,0,0,1,1.855,1.155c.46.936.759,1.508,1.2,2.3.238-.067.487-.139.75-.215a2.067,2.067,0,0,1,.24-2.6l1.265-1.289a2.067,2.067,0,0,1,1.37-.617L20.924.62A2.068,2.068,0,0,1,22.4,0ZM14.18,10.9a2.064,2.064,0,0,1-.928-.861c-.544-.968-.9-1.6-1.234-2.228l-1.291.515c.16.251.338.527.541.839a2.067,2.067,0,0,1,.332,1.2,2.064,2.064,0,0,1,.932.807c.294.474.637,1,1.6,2.453a2.067,2.067,0,0,1,.341,1.228,2.064,2.064,0,0,1,.925.768c.6.91,1.894,2.888,2.126,3.265a2.067,2.067,0,0,1,.217,1.687q.195.067.377.138l1.344-1c-.6-.812-1.264-1.774-2.132-3.07a2.067,2.067,0,0,1-.348-1.239,2.064,2.064,0,0,1-.952-.81c-.628-1.005-.9-1.466-1.19-1.953-.109-.184-.223-.376-.362-.608A2.067,2.067,0,0,1,14.18,10.9ZM9.846,29.865a5.538,5.538,0,0,1-1.91-3.312,5.366,5.366,0,0,1,.42-3.272,3.458,3.458,0,0,0-1.8,3.767C6.793,28.367,7.376,29.6,9.846,29.865Z" transform="translate(0 9.607)" fill="#dd7498"/>
        <path id="パス_10055" data-name="パス 10055" d="M27.533,0a2.068,2.068,0,0,1,2.033,1.7l.365,2.043a2.067,2.067,0,0,1-1.688,2.4l-.09.015.227,1.288,1.512-.269a2.067,2.067,0,0,1,2.4,1.672l.365,2.043a2.067,2.067,0,0,1-1.673,2.4l-1.519.271.255,1.447.537-.1a2.067,2.067,0,0,1,2.4,1.671l.365,2.043A2.067,2.067,0,0,1,31.9,20.846a25.941,25.941,0,0,1,3.2,2.675,2.067,2.067,0,0,1-.547,3.235l-5.424,2.87a2.067,2.067,0,0,1-2.629-.6l-4.787,1.864a2.068,2.068,0,0,1-2.1-.36l-5.079,1.75a2.067,2.067,0,0,1-1.813-.23c-.036-.024-.071-.048-.1-.074a2.066,2.066,0,0,1-1.9.842l-5.74-.632a2.067,2.067,0,0,1-1.47-3.236,32.936,32.936,0,0,0,2.1-3.38,2.067,2.067,0,0,1-2.271-1.69l-.365-2.043a2.067,2.067,0,0,1,1.677-2.4l.59-.1-.251-1.427-1.419.252a2.067,2.067,0,0,1-2.4-1.672L.81,14.445a2.068,2.068,0,0,1-.029-.253A2.067,2.067,0,0,1,.3,11.5C1.6,9.361,2.83,5.7,2.633,3.281A2.067,2.067,0,0,1,4.622,1.047L10.9.828A2.067,2.067,0,0,1,13,2.528L27.172.032A2.078,2.078,0,0,1,27.533,0ZM25.126,11.186a2.067,2.067,0,0,1-.458-.976L23.72,4.838l-.457.08,0,.024.949,5.375a2.058,2.058,0,0,1-.093,1.067,2.067,2.067,0,0,1,.458.977l.968,5.494.457-.081v0l-.973-5.521A2.058,2.058,0,0,1,25.126,11.186ZM8.1,5.985a2.069,2.069,0,0,1-.171-.916l-1.214.042a20.287,20.287,0,0,1-.95,4.257,2.068,2.068,0,0,1,2.178,1.7l.365,2.043a2.067,2.067,0,0,1-.079,1.033,2.066,2.066,0,0,1,.469.99l.973,5.521v.005l.256-.045L8.957,15.1a2.057,2.057,0,0,1,.093-1.066,2.068,2.068,0,0,1-.458-.976L7.644,7.68A2.063,2.063,0,0,1,8.1,5.985Zm11.552,6.2a2.067,2.067,0,0,1-.458-.976l-.949-5.375,0-.029-.3.053,0,.011.949,5.375a2.057,2.057,0,0,1-.093,1.067,2.067,2.067,0,0,1,.458.977l.971,5.51.3-.054-.968-5.493A2.058,2.058,0,0,1,19.654,12.183Zm-5.326.924a2.068,2.068,0,0,1-.458-.976l-.949-5.375,0-.015-.256.045v.006l.948,5.375a2.058,2.058,0,0,1-.093,1.067,2.067,2.067,0,0,1,.458.977l.972,5.518.256-.045-.971-5.509A2.058,2.058,0,0,1,14.328,13.107Zm15.6,11.42c-.435-.328-.9-.666-1.371-.99.239.453.468.909.678,1.357Zm-6.94,1.433c-.364-.385-.746-.776-1.116-1.146.156.477.309.954.45,1.4Zm-6.607,1.314c-.323-.428-.658-.858-.99-1.267v0c.1.567.178,1.072.243,1.522Z" transform="translate(28.942 7.15)" fill="#dd7498"/>
        <path id="パス_10056" data-name="パス 10056" d="M6.807,34.73a2.068,2.068,0,0,1-2.034-1.71l-3.162-18a2.067,2.067,0,0,1,1.445-2.339q-.075-.146-.152-.284l-.119.021A2.067,2.067,0,0,1,.4,10.748L.032,8.705a2.067,2.067,0,0,1,1.675-2.4l3.049-.54L4.579,4.76a2.067,2.067,0,0,1,1.68-2.395l5.424-.949A2.067,2.067,0,0,1,14.075,3.1l.177,1,2.839-.5c-.049-.5-.1-.885-.136-1.13a2.06,2.06,0,0,1,2.016-2.4L24.928,0a2.067,2.067,0,0,1,2.089,2.192,20,20,0,0,1-.284,2.281l2.875-.5A2.068,2.068,0,0,1,32,5.644l.365,2.043a2.066,2.066,0,0,1-.681,1.925c.684,4.714.878,8.458-.7,12.616A13.769,13.769,0,0,0,34.5,24.513a2.067,2.067,0,0,1,.973,2.935L34.4,29.3a2.067,2.067,0,0,1-.862.812l-.049.024a2.067,2.067,0,0,1-1.672.08L31.5,30.09a29.606,29.606,0,0,1-4.181-1.9,24.271,24.271,0,0,1-3.961,3.462,2.067,2.067,0,0,1-2.5-.042,9.675,9.675,0,0,1-2.969.9l-3.205.559a2.066,2.066,0,0,1-1.637-.415,2.067,2.067,0,0,1-1.571,1.29l-4.3.754A2.081,2.081,0,0,1,6.807,34.73ZM6.043,16.351,8.488,30.27l.229-.04L6.89,19.915a2.058,2.058,0,0,1,.092-1.065A2.067,2.067,0,0,1,6.5,17.842l-.266-1.524Zm12.5,10.681a5.369,5.369,0,0,1,.124,1.043c.075-.028.131-.053.171-.072a8.209,8.209,0,0,0-.142-1.425,2.067,2.067,0,0,1-.045-.386l-1.793-10.12a2.064,2.064,0,0,1,0-.732,2.065,2.065,0,0,1-.223-.64l-.037-.215-.266.047.267,1.529a2.058,2.058,0,0,1-.1,1.08,2.058,2.058,0,0,1,.464.983Zm5.538-7.2a11.189,11.189,0,0,0,1.678,2.083,2.067,2.067,0,0,1,.65,1.558q.085-.02.172-.032a2.067,2.067,0,0,1,.069-1.571c1.937-4.178,1.553-7.816.688-13.306l-1.036.181.005.03.124.733a43.159,43.159,0,0,1,.974,8.744,2.067,2.067,0,0,1-3.325,1.58Zm-3.216-5.748a2.067,2.067,0,0,1,1.286,1.392,16.368,16.368,0,0,0,.688,1.983,31.011,31.011,0,0,1-.882-3.469,2.069,2.069,0,0,1-.989-.41Q20.923,13.835,20.868,14.084Zm.419-9.9c.09,1.125.165,2.561.151,4.115A2.068,2.068,0,0,1,22,7.645a2.067,2.067,0,0,1,.009-1.215,22.31,22.31,0,0,0,.573-2.267ZM9.01,6.082l.176,1,0,.02,1.35-.241,0-.01-.177-1.006Z" transform="translate(62.237)" fill="#dd7498"/>
      </g>
    </g>
    <g id="グループ_3905" data-name="グループ 3905" transform="translate(96.991 2.067)">
      <path id="パス_10057" data-name="パス 10057" d="M10.944,3.137c.705,1.435,1.046,2.043,2.043,3.818,1.216-.341,2.918-.778,5.4-1.63l.413,2.31C16.951,8.2,14.836,8.755,14.179,8.9c.511.851.681,1.167,1.532,2.529,2.554-.681,3.356-.9,5.351-1.532l.389,2.262c-2.092.632-3.551,1.022-4.475,1.265a39.824,39.824,0,0,0,3.381,4.6l-4.037,2.991a7.81,7.81,0,0,0-5.156-.827C7.9,20.77,7.71,23.032,7.9,24.126a3.769,3.769,0,0,0,4.645,2.894,31.082,31.082,0,0,0,7.588-2.675l1.046,2.821a44.027,44.027,0,0,1-8.8,2.408c-5.034.876-9.12.292-9.923-4.232C1.678,20.964,5.351,18.7,9.315,18a12.647,12.647,0,0,1,4.378-.1c-.195-.316-1.386-2.14-2.092-3.21C7.539,15.614,4.718,16.2.413,16.951L0,14.763c2.943-.511,5.788-1.046,10.336-2.067C9.388,11.26,9.023,10.7,8.707,10.19c-1.921.438-4.5.973-7.783,1.581L.365,9.631c1.97-.341,4.256-.754,7.1-1.411-.9-1.386-1.313-2.067-1.873-2.967l5.3-2.116Zm9.12,3.332a15.264,15.264,0,0,0-3.6-3.308L17.73,1.873a17.064,17.064,0,0,1,4.135,2.7Zm2.286-2.432a15.408,15.408,0,0,0-3.283-2.748L20.332,0a14.893,14.893,0,0,1,3.745,2.116l-1.7,1.946Z" transform="translate(0 9.607)" fill="#fff"/>
      <path id="パス_10058" data-name="パス 10058" d="M4.572,13.449l-3.429.608L.778,12.014l3.429-.608L3.843,9.363c-.73.9-1.216,1.411-1.678,1.9L0,10.506C1.435,8.147,2.87,4.037,2.627,1.046L8.9.827a15.094,15.094,0,0,1-.973,2.262L25.464,0l.365,2.043-2.14.365.948,5.375,3.551-.632.365,2.043L25,9.825l.973,5.521,2.578-.462.365,2.043L3.308,21.451l-.365-2.043,2.627-.462L4.6,13.425Zm4.6,8.026A39.54,39.54,0,0,1,8.877,28.7l-5.74-.632a34.441,34.441,0,0,0,3.721-6.712l2.31.1ZM8.561,10.628l.948-.17L8.561,5.083l-.949.17ZM9.9,18.192l.949-.17L9.874,12.5l-.948.17Zm3.064,2.262a38.532,38.532,0,0,1,4.621,5.813L11.8,28.26a37.844,37.844,0,0,0-.511-3.964,24.2,24.2,0,0,0-.705-3.113l2.359-.754ZM13.838,9.7l.948-.17-.948-5.375-.949.17Zm1.338,7.564.949-.17-.973-5.521-.948.17Zm3.867,1.97a41.425,41.425,0,0,1,5.351,5.521L18.9,26.9a68.9,68.9,0,0,0-2.237-6.785ZM18.216,3.4l.949,5.375.948-.17-.948-5.375Zm1.313,7.418.973,5.521.948-.17-.973-5.521Zm5.253,7.223a31.169,31.169,0,0,1,6.737,4.816L26.1,25.731a28.858,28.858,0,0,0-3.381-6.542l2.067-1.143Z" transform="translate(28.942 7.15)" fill="#fff"/>
      <path id="パス_10059" data-name="パス 10059" d="M30.5,26.218a25.88,25.88,0,0,1-5.691-2.8,20.829,20.829,0,0,1-4.742,4.5L18.678,26.8c-.292.657-.8,1.192-3.21,1.605l-3.21.559-.948-2.213a15.056,15.056,0,0,0,2.675-.195c.657-.122.608-.462.462-1.216l-1.581-8.926-1.24.219.268,1.532.559-.1,1.265,7.223-4.67.827L7.783,18.9l.559-.1-.268-1.532-1.216.219L9.047,29.841l-4.3.754-3.162-18,2.262-.389A13.664,13.664,0,0,0,2.116,8.488l.9-.632L.365,8.318,0,6.275l5.083-.9-.535-3.04,5.423-.948.535,3.04,5.521-.973L16.392,5.5l-4.3.754,3.648.462a28.929,28.929,0,0,1-3.5,4.013l3.989-.705.389,2.262c1.313-4.913.365-11.917.316-12.209L22.886,0a22.928,22.928,0,0,1-.973,4.986L27.9,3.94l.365,2.043-.948.17c.924,5.861,1.313,9.85-.851,14.519a16.912,16.912,0,0,0,5.156,3.672l-1.07,1.848ZM4.864,7.515A27.164,27.164,0,0,1,8.926,9.923l-2.967,1.9,4.961-.875L9.339,10.75a18.01,18.01,0,0,0,.292-4.062l-4.767.851ZM7.685,15.2l-.268-1.532L6.2,13.887l.268,1.532Zm3.21,5.229-.827.146.559,3.113.827-.146Zm1.605-6.08-.268-1.532-1.24.219.268,1.532Zm6.153,9.728a9.058,9.058,0,0,1,.17,2.14,13.693,13.693,0,0,0,3.454-4.864,16.465,16.465,0,0,1-4.183-7.393c-.146.243-.146.292-.389.657l-.876-.973,1.848,10.434ZM21.548,9.558a26.158,26.158,0,0,0,1.727,6.567c.073-2.505-.316-4.621-1.07-9.072l-1.021.17c-.243.705-.486,1.411-1.021,2.651l1.362-.34Z" transform="translate(62.236)" fill="#fff"/>
    </g>
    <g id="グループ_3910" data-name="グループ 3910" transform="translate(105.003 35.383)">
      <g id="グループ_3906" data-name="グループ 3906">
        <path id="パス_10060" data-name="パス 10060" d="M21.6,0a5.213,5.213,0,0,1,5.152,4.39,5.394,5.394,0,0,1-.885,4.017,5.148,5.148,0,0,1-1.689,1.535l1.029.909a2.067,2.067,0,0,1-.617,3.476A61.44,61.44,0,0,1,11.7,19.775l1.012,5.7a3.079,3.079,0,0,0,.072.308,2.147,2.147,0,0,0,.288.017,6.31,6.31,0,0,0,1.082-.116l.014,0,3.794-.657A46.738,46.738,0,0,0,25.588,23a2.067,2.067,0,0,1,2.788,1.572l.511,2.943A2.067,2.067,0,0,1,27.209,29.9l-12.4,2.189a24.64,24.64,0,0,1-4.22.427,7.284,7.284,0,0,1-5.373-1.783,7.361,7.361,0,0,1-1.872-4.1l0-.013L.031,7.8A2.067,2.067,0,0,1,1.86,5.383l5.3-.535A2.068,2.068,0,0,1,9.4,6.545l1.127,6.379A32.773,32.773,0,0,0,17.539,8.6a5.377,5.377,0,0,1-1.069-2.419,5.3,5.3,0,0,1,4.224-6.1l.013,0A5.193,5.193,0,0,1,21.6,0ZM7.513,17.341a2.067,2.067,0,0,1-.6-1.127L5.667,9.154l-1.179.119L7.41,25.9c.254,1.392.4,2.2,2.062,2.424a5.11,5.11,0,0,1-.827-2.094l0-.018L7.3,18.672A2.061,2.061,0,0,1,7.513,17.341Z" transform="translate(0 7.493)" fill="#dd7498"/>
        <path id="パス_10061" data-name="パス 10061" d="M2.748,0H2.8A26.245,26.245,0,0,1,14.86,2.918a2.067,2.067,0,0,1,.834,2.937l-2.918,4.718a2.067,2.067,0,0,1-3.22.374A20.577,20.577,0,0,0,1.385,5.891,2.067,2.067,0,0,1,.124,3.233L.805,1.361A2.067,2.067,0,0,1,2.748,0Zm8.193,5.678A20.368,20.368,0,0,0,8.75,4.942q.936.628,1.814,1.346ZM24.321,3.5a2.067,2.067,0,0,1,.915.214l1.921.949a2.067,2.067,0,0,1,1.059,2.466,32.442,32.442,0,0,1-7.2,13.1c-3.163,3.371-7.239,6.1-13.215,8.859a2.068,2.068,0,0,1-2.6-.75l-3.259-5.01A2.067,2.067,0,0,1,1.605,22.2V22.18a2.067,2.067,0,0,1,1.52-1.993C14.531,17.055,18.851,12.125,22.46,4.669A2.067,2.067,0,0,1,24.321,3.5ZM7.678,24.571A35.718,35.718,0,0,0,17.543,17.9,33.518,33.518,0,0,1,6.9,23.37Z" transform="translate(31.155 6.737)" fill="#dd7498"/>
        <path id="パス_10062" data-name="パス 10062" d="M6.591,30.863A2.068,2.068,0,0,1,4.84,29.9L3.649,28a2.067,2.067,0,0,1-.317-1.1V26.87a2.067,2.067,0,0,1,1.424-1.96C8.417,23.711,16.7,21,16.838,9.555L13,10.238a21.746,21.746,0,0,1-8.086,9.176A2.067,2.067,0,0,1,2.316,19.2L.638,17.594a2.067,2.067,0,0,1,.045-3.029c1.332-1.2,4.869-4.39,4.284-12.346A2.067,2.067,0,0,1,7.152,0l6.08.365a2.067,2.067,0,0,1,1.928,2.316c-.036.294-.071.566-.109.827l7.062-1.242a2.068,2.068,0,0,1,1.448.28l2.116,1.313a2.067,2.067,0,0,1,.977,1.756A30.14,30.14,0,0,1,24.59,17.672l-.005.012a20.543,20.543,0,0,1-8.4,9.436,35.705,35.705,0,0,1-9.032,3.665A2.07,2.07,0,0,1,6.591,30.863ZM20.85,6.689a2.062,2.062,0,0,1,.036.257c.433,5.751-.734,9.988-2.611,13.123A16.081,16.081,0,0,0,20.8,16.03a24.724,24.724,0,0,0,1.719-9.266l-.461-.286ZM9.164,4.266a20.761,20.761,0,0,1-.93,6.071A23.957,23.957,0,0,0,9.69,7.545a2.066,2.066,0,0,1,.713-.856,2.066,2.066,0,0,1-.013-1.172c.125-.442.223-.814.3-1.159Z" transform="translate(62.674)" fill="#dd7498"/>
      </g>
    </g>
    <g id="グループ_3908" data-name="グループ 3908" transform="translate(107.07 37.45)">
      <path id="パス_10063" data-name="パス 10063" d="M21.718,10.334a62.087,62.087,0,0,1-14.446,5.91l1.338,7.539c.268,1.435.876,2.408,3.843,1.873L16.246,25a49.259,49.259,0,0,0,8.026-2.14l.511,2.943-12.4,2.189c-7.345,1.289-8.512-.73-9.072-3.794L0,5.372l5.3-.535,1.581,8.95A35.974,35.974,0,0,0,18.022,7.026l3.745,3.308ZM16.441,3.767A3.2,3.2,0,0,1,18.994.046a3.156,3.156,0,0,1,3.648,2.627,3.15,3.15,0,1,1-6.2,1.094Zm4.451-.778A1.324,1.324,0,0,0,19.335,1.87a1.4,1.4,0,1,0,1.581,1.119Z" transform="translate(0 7.493)" fill="#fff"/>
      <path id="パス_10064" data-name="パス 10064" d="M8.95,7.418A22.738,22.738,0,0,0,0,1.873L.681,0A24.211,24.211,0,0,1,11.868,2.7L8.95,7.418Zm-7.345,12.7c11.6-3.186,16.611-8.269,20.648-16.611l1.921.949c-3.186,10.263-8.342,15.638-19.311,20.7l-3.259-5.01Z" transform="translate(31.155 6.737)" fill="#fff"/>
      <path id="パス_10065" data-name="パス 10065" d="M3.332,24.807c4.159-1.362,14.544-4.913,13.425-19.773L9.509,6.323a20,20,0,0,1-7.831,9.315L0,14.033C1.484,12.7,5.618,8.926,4.961,0l6.08.365a20.614,20.614,0,0,1-.73,3.648L20.4,2.237l2.116,1.313a28.213,28.213,0,0,1-1.9,11.236c-3.551,8.1-11.285,10.579-16.1,11.941l-1.192-1.9Z" transform="translate(62.674)" fill="#fff"/>
    </g>
  </g>
</svg>
