<svg xmlns="http://www.w3.org/2000/svg" xmlns:xlink="http://www.w3.org/1999/xlink" width="200" height="100" viewBox="0 0 200 100">
  <defs>
    <clipPath id="clip-path">
      <rect id="長方形_1256" data-name="長方形 1256" width="200" height="100" transform="translate(39 2980.68)" fill="#fff" stroke="#707070" stroke-width="1"/>
    </clipPath>
    <filter id="合体_9" x="-4.126" y="-8.028" width="210.542" height="114.267" filterUnits="userSpaceOnUse">
      <feOffset input="SourceAlpha"/>
      <feGaussianBlur stdDeviation="3.5" result="blur"/>
      <feFlood flood-color="#e287a3"/>
      <feComposite operator="in" in2="blur"/>
      <feComposite in="SourceGraphic"/>
    </filter>
    <filter id="合体_10" x="-2.626" y="-6.528" width="207.542" height="111.267" filterUnits="userSpaceOnUse">
      <feOffset input="SourceAlpha"/>
      <feGaussianBlur stdDeviation="3" result="blur-2"/>
      <feFlood flood-color="#eb779b"/>
      <feComposite operator="in" in2="blur-2"/>
      <feComposite in="SourceGraphic"/>
    </filter>
  </defs>
  <g id="マスクグループ_2684" data-name="マスクグループ 2684" transform="translate(-39 -2980.68)" clip-path="url(#clip-path)">
    <g id="レイヤー_1" data-name="レイヤー 1" transform="translate(-58.721 2570.822) rotate(4)">
      <g id="グループ_3909" data-name="グループ 3909" transform="translate(132 402) rotate(-3)">
        <g transform="matrix(1, -0.02, 0.02, 1, -5.92, -0.27)" filter="url(#合体_9)">
          <path id="合体_9-2" data-name="合体 9" d="M8.006,85.831,4.712,67.1l5.281-.533,1.575,8.908A35.862,35.862,0,0,0,22.66,68.743l3.731,3.291h-.049a61.923,61.923,0,0,1-14.387,5.883l1.333,7.5c.266,1.427.872,2.4,3.827,1.863l3.779-.653a48.97,48.97,0,0,0,7.992-2.13l.509,2.928L17.041,89.606A22.634,22.634,0,0,1,13.2,90C9.265,90,8.446,88.24,8.006,85.831Zm29.331-4.793v-.023c11.553-3.172,16.543-8.23,20.563-16.531l1.913.943c-3.173,10.214-8.307,15.563-19.231,20.6ZM70.447,79V78.98c4.143-1.355,14.485-4.889,13.37-19.677L76.6,60.585a19.9,19.9,0,0,1-7.8,9.27l-1.672-1.6c1.477-1.332,5.6-5.083,4.941-13.967l6.055.364a20.487,20.487,0,0,1-.726,3.63L87.45,56.52l2.107,1.307a28.055,28.055,0,0,1-1.889,11.182c-3.536,8.06-11.239,10.529-16.034,11.884ZM35.739,62.86,36.417,61a24.151,24.151,0,0,1,11.142,2.686l-2.906,4.7A22.666,22.666,0,0,0,35.739,62.86ZM21.085,65.5a3.187,3.187,0,0,1,2.543-3.7,3.221,3.221,0,0,1,1.115,6.342,3.227,3.227,0,0,1-.55.048A3.193,3.193,0,0,1,21.085,65.5Zm2.882-1.888a1.39,1.39,0,1,0,1.575,1.114h-.025a1.326,1.326,0,0,0-1.3-1.138A1.383,1.383,0,0,0,23.968,63.611Zm-22.1-7.967L4.7,55.135,3.487,48.213a13.848,13.848,0,0,1-1.6,1.767L0,48.673C1.018,46.64,2.107,44.365.993,38L.267,33.86l11.5-2.033c-.29-.92-.387-1.307-.484-1.694s-.267-1.162-.315-1.525l5.256-.919.073.436c.194,1.064.412,1.936.6,2.782l2.737-.484A14.117,14.117,0,0,0,16.737,28.8l1.4-1.743a26.932,26.932,0,0,1,5.353.8L21.75,30.036l3.561-.628.363,2.033-8.187,1.452a21.683,21.683,0,0,0,1.09,2.614,15.349,15.349,0,0,0,.606-2.469l5.474.968.023.1a30.933,30.933,0,0,1-3.512,5.616c.9.993,1.672,1.355,2.011,1.307.678-.122.8-2.4.751-3.122a15.3,15.3,0,0,0,3.779.871c-.1,2.445-.993,5.083-2.568,6.1l1.138,6.487,2.833-.508.364,2.033L2.229,57.677Zm6.854-6.777.97,5.47.92-.17L9.64,48.7Zm5.329-.944.97,5.471.944-.169-.969-5.47Zm5.426-.968.969,5.47.969-.168-.969-5.471ZM4,47.583l10.1-1.766-1.575-1.089H12.5a4.38,4.38,0,0,1-2.713,1.21l-3.365.6-.9-1.766A16.528,16.528,0,0,1,4,47.583ZM14.12,45.817l6.152-1.089A10.544,10.544,0,0,1,18,43.033,27.236,27.236,0,0,1,14.12,45.817Zm-7.58-6.51v.024a13.158,13.158,0,0,1-.824,4.913h1.72a.912.912,0,0,0,.824-1.016,25.3,25.3,0,0,0-.436-4.14Zm6.128-3.172c.7,3.97.824,6.681.242,7.915a19.378,19.378,0,0,0,3.028-3.339,23.848,23.848,0,0,1-3.487-6.826L6.007,35.022l.387,2.2,6.273-1.113ZM38.7,41.993c-1.089,1.937-1.985,3.825-2.374,4.576L33.28,43.2c.677-.823,3.9-4.914,4.626-5.858-.1-.581-.581-3.388-.679-4.018-.944.219-2.567.605-4.214,1.137l-.461-2.589c2.568-.533,3.513-.775,4.263-.92l-.992-5.687,5.327-.558c.146,2.009.679,5.326,1.09,7.649,2.2-2.275,4.772-4.719,7.508-5.2,1.527-.267,4.335,0,4.991,3.7.218,1.284.8,7.77,1.066,9.2.29,1.694.46,2.3,1.38,2.13a3.843,3.843,0,0,0,2.131-1.719l1.84,1.429h-.025c-2.664,4.065-5.474,4.55-5.958,4.646-2.736.484-3.924-1.234-4.311-3.389-.219-1.234-.534-3.848-.7-5.179-.1-.872-.532-5.325-.557-5.566-.073-.339-.363-2.034-1.768-1.791-.873.145-2.568,1.427-5.086,4.84l2.519,14.329-5.134.968C39.819,48.625,39.093,44.342,38.7,41.993Zm32.069,2.13c5.788-2.275,6.3-5.445,6.66-7.333a5.854,5.854,0,0,1-3.7,2.372c-1.26.217-4.844.339-5.79-5.108-.581-3.243.339-6.874,4.143-7.55a5.333,5.333,0,0,1,3.536.532c-.17-.945-.436-2.155-.509-2.541-2.883.628-9.252,1.985-12.764,2.977l-.388-2.251-.048-.048c3.415-.92,8.768-2.105,12.644-2.928-.486-2.058-.509-2.276-1.042-4.285L79.08,17.4c.339,1.96.557,3.05.7,3.8,2.639-.532,4.263-.871,6.66-1.282l.412,2.275c-1.72.315-2.906.509-6.587,1.259.29,1.427,1.428,7.333,1.623,8.4,1.672,9.464-5.643,12.659-9.809,14.111ZM73.728,28.9c-2.011.364-1.672,3.025-1.527,3.824h.025c.073.413.629,3.22,2.664,2.857,1.26-.219,2.036-1.549,1.647-3.728-.247-1.375-1.063-2.979-2.484-2.98A2.03,2.03,0,0,0,73.728,28.9ZM96.98,34.782c-.776-4.357,2.881-6.607,6.829-7.31a12.627,12.627,0,0,1,4.36-.1c-.194-.314-1.38-2.13-2.084-3.195-4.044.92-6.854,1.5-11.14,2.251l-.412-2.179c2.93-.508,5.764-1.041,10.293-2.058-.945-1.427-1.308-1.984-1.623-2.493-1.914.436-4.482.968-7.751,1.574l-.557-2.13c1.962-.339,4.238-.75,7.073-1.4-.9-1.379-1.308-2.058-1.865-2.953l5.279-2.1h.048c.7,1.427,1.042,2.033,2.036,3.8,1.211-.339,2.906-.774,5.377-1.622l.412,2.3c-1.841.556-3.948,1.113-4.6,1.259.509.847.679,1.162,1.525,2.517,2.543-.678,3.343-.9,5.329-1.524l.388,2.25c-2.084.63-3.536,1.017-4.457,1.259a39.583,39.583,0,0,0,3.367,4.574l-4.021,2.977a7.784,7.784,0,0,0-5.134-.823c-3.246.58-3.439,2.831-3.246,3.921a3.753,3.753,0,0,0,4.627,2.879,30.928,30.928,0,0,0,7.557-2.662l1.041,2.808a43.9,43.9,0,0,1-8.768,2.4,20.738,20.738,0,0,1-3.519.343C100.031,39.335,97.581,38.168,96.98,34.782Zm29.5.265a34.266,34.266,0,0,0,3.706-6.68l2.3.1v.023a39.247,39.247,0,0,1-.291,7.188Zm8.114-3.751a23.954,23.954,0,0,0-.7-3.1l2.349-.751.025.025a38.427,38.427,0,0,1,4.6,5.785L135.1,35.241A37.34,37.34,0,0,0,134.593,31.3Zm5.353-4.163,2.374-.872a41.354,41.354,0,0,1,5.329,5.494l-5.474,2.13A68.572,68.572,0,0,0,139.947,27.133Zm6.03-.92,2.059-1.137a31.03,31.03,0,0,1,6.709,4.792l-5.4,2.855A28.7,28.7,0,0,0,145.977,26.212Zm12.11-13.675,2.253-.387a13.611,13.611,0,0,0-1.72-3.7l.9-.63-2.64.461-.363-2.033,5.062-.9-.534-3.025,5.4-.944.534,3.025,5.5-.968.363,2.033-4.287.75,3.634.459a28.727,28.727,0,0,1-3.487,4l3.972-.7.387,2.251c1.308-4.889.364-11.859.316-12.151L179.3,0a22.784,22.784,0,0,1-.969,4.961l5.958-1.041.364,2.033-.945.169c.921,5.833,1.308,9.8-.847,14.451A16.857,16.857,0,0,0,188,24.228l-1.066,1.84-.048.023a25.765,25.765,0,0,1-5.668-2.783,20.736,20.736,0,0,1-4.723,4.479l-1.382-1.114c-.29.653-.8,1.187-3.2,1.6l-3.2.557-.944-2.2a14.926,14.926,0,0,0,2.664-.195c.654-.12.606-.459.461-1.209l-1.575-8.882-1.235.217.267,1.525.557-.1,1.26,7.189-4.65.823-1.26-7.189.557-.1-.267-1.525-1.211.217,2.181,12.3-4.287.751ZM175.26,26.091a13.63,13.63,0,0,0,3.439-4.84,16.368,16.368,0,0,1-4.166-7.358c-.146.242-.146.291-.388.653l-.872-.968,1.84,10.383h-.023A9.023,9.023,0,0,1,175.26,26.091Zm-8.72-5.615.557,3.1.824-.145-.557-3.1ZM177.973,9.512a25.946,25.946,0,0,0,1.72,6.535c.073-2.494-.316-4.6-1.066-9.028l-1.018.169c-.242.7-.484,1.4-1.018,2.639l1.357-.339ZM162.689,13.82l.267,1.524,1.211-.217L163.9,13.6Zm4.772-.848.267,1.526,1.235-.217-.267-1.526Zm-2.059-3.1-2.955,1.888,4.941-.871-1.575-.194a17.818,17.818,0,0,0,.29-4.042l-4.711.84A27.161,27.161,0,0,1,165.4,9.875ZM126.286,26.431l2.616-.46-.969-5.495-.025.025-3.415.605-.364-2.034,3.415-.6-.363-2.033c-.726.9-1.211,1.4-1.672,1.888l-2.156-.751c1.43-2.347,2.859-6.438,2.617-9.415l6.248-.217a14.912,14.912,0,0,1-.969,2.25l17.463-3.073.363,2.033-2.131.363.945,5.349,3.536-.63.363,2.034-3.536.629.97,5.494,2.567-.459.364,2.033-25.5,4.5Zm5.958-6.7.969,5.493.945-.169-.97-5.493Zm5.256-.92.969,5.494.944-.169-.969-5.494Zm5.3-.92.969,5.495.945-.17-.97-5.495Zm-11.868-5.542.944,5.348.945-.169-.945-5.349Zm5.256-.92.944,5.349.945-.17-.945-5.348Zm5.3-.92.944,5.35.945-.17-.945-5.349Zm-30.567,2.2,1.26-1.284a17.063,17.063,0,0,1,4.118,2.686L114.516,16A15.215,15.215,0,0,0,110.93,12.708Zm5.862.871a15.316,15.316,0,0,0-3.27-2.734l1.259-1.283a14.838,14.838,0,0,1,3.731,2.1l-1.7,1.938Z" transform="translate(7.95 2.47) rotate(1)" fill="#fff"/>
        </g>
        <g transform="matrix(1, -0.02, 0.02, 1, -5.92, -0.27)" filter="url(#合体_10)">
          <path id="合体_10-2" data-name="合体 10" d="M8.006,85.831,4.712,67.1l5.281-.533,1.575,8.908A35.862,35.862,0,0,0,22.66,68.743l3.731,3.291h-.049a61.923,61.923,0,0,1-14.387,5.883l1.333,7.5c.266,1.427.872,2.4,3.827,1.863l3.779-.653a48.97,48.97,0,0,0,7.992-2.13l.509,2.928L17.041,89.606A22.634,22.634,0,0,1,13.2,90C9.265,90,8.446,88.24,8.006,85.831Zm29.331-4.793v-.023c11.553-3.172,16.543-8.23,20.563-16.531l1.913.943c-3.173,10.214-8.307,15.563-19.231,20.6ZM70.447,79V78.98c4.143-1.355,14.485-4.889,13.37-19.677L76.6,60.585a19.9,19.9,0,0,1-7.8,9.27l-1.672-1.6c1.477-1.332,5.6-5.083,4.941-13.967l6.055.364a20.487,20.487,0,0,1-.726,3.63L87.45,56.52l2.107,1.307a28.055,28.055,0,0,1-1.889,11.182c-3.536,8.06-11.239,10.529-16.034,11.884ZM35.739,62.86,36.417,61a24.151,24.151,0,0,1,11.142,2.686l-2.906,4.7A22.666,22.666,0,0,0,35.739,62.86ZM21.085,65.5a3.187,3.187,0,0,1,2.543-3.7,3.221,3.221,0,0,1,1.115,6.342,3.227,3.227,0,0,1-.55.048A3.193,3.193,0,0,1,21.085,65.5Zm2.882-1.888a1.39,1.39,0,1,0,1.575,1.114h-.025a1.326,1.326,0,0,0-1.3-1.138A1.383,1.383,0,0,0,23.968,63.611Zm-22.1-7.967L4.7,55.135,3.487,48.213a13.848,13.848,0,0,1-1.6,1.767L0,48.673C1.018,46.64,2.107,44.365.993,38L.267,33.86l11.5-2.033c-.29-.92-.387-1.307-.484-1.694s-.267-1.162-.315-1.525l5.256-.919.073.436c.194,1.064.412,1.936.6,2.782l2.737-.484A14.117,14.117,0,0,0,16.737,28.8l1.4-1.743a26.932,26.932,0,0,1,5.353.8L21.75,30.036l3.561-.628.363,2.033-8.187,1.452a21.683,21.683,0,0,0,1.09,2.614,15.349,15.349,0,0,0,.606-2.469l5.474.968.023.1a30.933,30.933,0,0,1-3.512,5.616c.9.993,1.672,1.355,2.011,1.307.678-.122.8-2.4.751-3.122a15.3,15.3,0,0,0,3.779.871c-.1,2.445-.993,5.083-2.568,6.1l1.138,6.487,2.833-.508.364,2.033L2.229,57.677Zm6.854-6.777.97,5.47.92-.17L9.64,48.7Zm5.329-.944.97,5.471.944-.169-.969-5.47Zm5.426-.968.969,5.47.969-.168-.969-5.471ZM4,47.583l10.1-1.766-1.575-1.089H12.5a4.38,4.38,0,0,1-2.713,1.21l-3.365.6-.9-1.766A16.528,16.528,0,0,1,4,47.583ZM14.12,45.817l6.152-1.089A10.544,10.544,0,0,1,18,43.033,27.236,27.236,0,0,1,14.12,45.817Zm-7.58-6.51v.024a13.158,13.158,0,0,1-.824,4.913h1.72a.912.912,0,0,0,.824-1.016,25.3,25.3,0,0,0-.436-4.14Zm6.128-3.172c.7,3.97.824,6.681.242,7.915a19.378,19.378,0,0,0,3.028-3.339,23.848,23.848,0,0,1-3.487-6.826L6.007,35.022l.387,2.2,6.273-1.113ZM38.7,41.993c-1.089,1.937-1.985,3.825-2.374,4.576L33.28,43.2c.677-.823,3.9-4.914,4.626-5.858-.1-.581-.581-3.388-.679-4.018-.944.219-2.567.605-4.214,1.137l-.461-2.589c2.568-.533,3.513-.775,4.263-.92l-.992-5.687,5.327-.558c.146,2.009.679,5.326,1.09,7.649,2.2-2.275,4.772-4.719,7.508-5.2,1.527-.267,4.335,0,4.991,3.7.218,1.284.8,7.77,1.066,9.2.29,1.694.46,2.3,1.38,2.13a3.843,3.843,0,0,0,2.131-1.719l1.84,1.429h-.025c-2.664,4.065-5.474,4.55-5.958,4.646-2.736.484-3.924-1.234-4.311-3.389-.219-1.234-.534-3.848-.7-5.179-.1-.872-.532-5.325-.557-5.566-.073-.339-.363-2.034-1.768-1.791-.873.145-2.568,1.427-5.086,4.84l2.519,14.329-5.134.968C39.819,48.625,39.093,44.342,38.7,41.993Zm32.069,2.13c5.788-2.275,6.3-5.445,6.66-7.333a5.854,5.854,0,0,1-3.7,2.372c-1.26.217-4.844.339-5.79-5.108-.581-3.243.339-6.874,4.143-7.55a5.333,5.333,0,0,1,3.536.532c-.17-.945-.436-2.155-.509-2.541-2.883.628-9.252,1.985-12.764,2.977l-.388-2.251-.048-.048c3.415-.92,8.768-2.105,12.644-2.928-.486-2.058-.509-2.276-1.042-4.285L79.08,17.4c.339,1.96.557,3.05.7,3.8,2.639-.532,4.263-.871,6.66-1.282l.412,2.275c-1.72.315-2.906.509-6.587,1.259.29,1.427,1.428,7.333,1.623,8.4,1.672,9.464-5.643,12.659-9.809,14.111ZM73.728,28.9c-2.011.364-1.672,3.025-1.527,3.824h.025c.073.413.629,3.22,2.664,2.857,1.26-.219,2.036-1.549,1.647-3.728-.247-1.375-1.063-2.979-2.484-2.98A2.03,2.03,0,0,0,73.728,28.9ZM96.98,34.782c-.776-4.357,2.881-6.607,6.829-7.31a12.627,12.627,0,0,1,4.36-.1c-.194-.314-1.38-2.13-2.084-3.195-4.044.92-6.854,1.5-11.14,2.251l-.412-2.179c2.93-.508,5.764-1.041,10.293-2.058-.945-1.427-1.308-1.984-1.623-2.493-1.914.436-4.482.968-7.751,1.574l-.557-2.13c1.962-.339,4.238-.75,7.073-1.4-.9-1.379-1.308-2.058-1.865-2.953l5.279-2.1h.048c.7,1.427,1.042,2.033,2.036,3.8,1.211-.339,2.906-.774,5.377-1.622l.412,2.3c-1.841.556-3.948,1.113-4.6,1.259.509.847.679,1.162,1.525,2.517,2.543-.678,3.343-.9,5.329-1.524l.388,2.25c-2.084.63-3.536,1.017-4.457,1.259a39.583,39.583,0,0,0,3.367,4.574l-4.021,2.977a7.784,7.784,0,0,0-5.134-.823c-3.246.58-3.439,2.831-3.246,3.921a3.753,3.753,0,0,0,4.627,2.879,30.928,30.928,0,0,0,7.557-2.662l1.041,2.808a43.9,43.9,0,0,1-8.768,2.4,20.738,20.738,0,0,1-3.519.343C100.031,39.335,97.581,38.168,96.98,34.782Zm29.5.265a34.266,34.266,0,0,0,3.706-6.68l2.3.1v.023a39.247,39.247,0,0,1-.291,7.188Zm8.114-3.751a23.954,23.954,0,0,0-.7-3.1l2.349-.751.025.025a38.427,38.427,0,0,1,4.6,5.785L135.1,35.241A37.34,37.34,0,0,0,134.593,31.3Zm5.353-4.163,2.374-.872a41.354,41.354,0,0,1,5.329,5.494l-5.474,2.13A68.572,68.572,0,0,0,139.947,27.133Zm6.03-.92,2.059-1.137a31.03,31.03,0,0,1,6.709,4.792l-5.4,2.855A28.7,28.7,0,0,0,145.977,26.212Zm12.11-13.675,2.253-.387a13.611,13.611,0,0,0-1.72-3.7l.9-.63-2.64.461-.363-2.033,5.062-.9-.534-3.025,5.4-.944.534,3.025,5.5-.968.363,2.033-4.287.75,3.634.459a28.727,28.727,0,0,1-3.487,4l3.972-.7.387,2.251c1.308-4.889.364-11.859.316-12.151L179.3,0a22.784,22.784,0,0,1-.969,4.961l5.958-1.041.364,2.033-.945.169c.921,5.833,1.308,9.8-.847,14.451A16.857,16.857,0,0,0,188,24.228l-1.066,1.84-.048.023a25.765,25.765,0,0,1-5.668-2.783,20.736,20.736,0,0,1-4.723,4.479l-1.382-1.114c-.29.653-.8,1.187-3.2,1.6l-3.2.557-.944-2.2a14.926,14.926,0,0,0,2.664-.195c.654-.12.606-.459.461-1.209l-1.575-8.882-1.235.217.267,1.525.557-.1,1.26,7.189-4.65.823-1.26-7.189.557-.1-.267-1.525-1.211.217,2.181,12.3-4.287.751ZM175.26,26.091a13.63,13.63,0,0,0,3.439-4.84,16.368,16.368,0,0,1-4.166-7.358c-.146.242-.146.291-.388.653l-.872-.968,1.84,10.383h-.023A9.023,9.023,0,0,1,175.26,26.091Zm-8.72-5.615.557,3.1.824-.145-.557-3.1ZM177.973,9.512a25.946,25.946,0,0,0,1.72,6.535c.073-2.494-.316-4.6-1.066-9.028l-1.018.169c-.242.7-.484,1.4-1.018,2.639l1.357-.339ZM162.689,13.82l.267,1.524,1.211-.217L163.9,13.6Zm4.772-.848.267,1.526,1.235-.217-.267-1.526Zm-2.059-3.1-2.955,1.888,4.941-.871-1.575-.194a17.818,17.818,0,0,0,.29-4.042l-4.711.84A27.161,27.161,0,0,1,165.4,9.875ZM126.286,26.431l2.616-.46-.969-5.495-.025.025-3.415.605-.364-2.034,3.415-.6-.363-2.033c-.726.9-1.211,1.4-1.672,1.888l-2.156-.751c1.43-2.347,2.859-6.438,2.617-9.415l6.248-.217a14.912,14.912,0,0,1-.969,2.25l17.463-3.073.363,2.033-2.131.363.945,5.349,3.536-.63.363,2.034-3.536.629.97,5.494,2.567-.459.364,2.033-25.5,4.5Zm5.958-6.7.969,5.493.945-.169-.97-5.493Zm5.256-.92.969,5.494.944-.169-.969-5.494Zm5.3-.92.969,5.495.945-.17-.97-5.495Zm-11.868-5.542.944,5.348.945-.169-.945-5.349Zm5.256-.92.944,5.349.945-.17-.945-5.348Zm5.3-.92.944,5.35.945-.17-.945-5.349Zm-30.567,2.2,1.26-1.284a17.063,17.063,0,0,1,4.118,2.686L114.516,16A15.215,15.215,0,0,0,110.93,12.708Zm5.862.871a15.316,15.316,0,0,0-3.27-2.734l1.259-1.283a14.838,14.838,0,0,1,3.731,2.1l-1.7,1.938Z" transform="translate(7.95 2.47) rotate(1)" fill="#fff"/>
        </g>
      </g>
    </g>
  </g>
</svg>
