<svg xmlns="http://www.w3.org/2000/svg" width="230.5" height="36.654" viewBox="0 0 230.5 36.654">
  <g id="Group_40" data-name="Group 40" transform="translate(-288.665 -503.314)">
    <path id="Path_1" data-name="Path 1" d="M335.055,543.33c0,4.028.539,5.4,3.406,5.4v.247H323.539v-.247c2.865,0,3.351-1.424,3.405-5.4V532.323c0-3.341.215-7.616-3.675-7.616-2.489,0-4.922,1.965-6.273,4.667a10.77,10.77,0,0,1,.648,3.882V543.33c0,3.98.488,5.4,3.408,5.4v.247H306.074v-.247c2.92,0,3.406-1.424,3.406-5.4V532.323c0-3.341.272-7.616-3.622-7.616a6.7,6.7,0,0,0-5.57,3.637c-.053,1.031-.109,14.986-.109,14.986.055,3.98.54,5.4,3.406,5.4v.247H288.665v-.247c2.863,0,3.406-1.424,3.406-5.4V530.308c0-3.98-.543-5.355-3.406-5.355v-.246H301.1v.246c-.326.147-.6,1.032-.759,2.9,1.622-2.26,3.461-3.636,7.733-3.636s7.461,1.524,8.813,4.915c1.784-3.047,3.946-4.915,8.6-4.915,5.784,0,9.57,2.753,9.57,9.041Z" transform="translate(0 -9.503)" fill="#9c4f68"/>
    <path id="Path_2" data-name="Path 2" d="M392.137,507.342a4.25,4.25,0,0,1,8.488,0,4.25,4.25,0,0,1-8.488,0m8.328,26.533c0,3.98.485,5.355,3.406,5.355v.246H388.894v-.246c2.918,0,3.406-1.424,3.406-5.4v-13.02c0-3.98-.488-5.356-3.406-5.356V515.2h12.434v.245c-.486.247-.864,2.407-.864,7.371v11.055Z" transform="translate(-45.571)" fill="#9c4f68"/>
    <path id="Path_3" data-name="Path 3" d="M471.667,543.33c0,4.028.539,5.4,3.406,5.4v.247H460.151v-.247c2.865,0,3.351-1.424,3.405-5.4V532.323c0-3.341.216-7.616-3.675-7.616-2.489,0-4.922,1.965-6.271,4.667a10.806,10.806,0,0,1,.646,3.882V543.33c0,3.98.488,5.4,3.408,5.4v.247H442.686v-.247c2.92,0,3.406-1.424,3.406-5.4V532.323c0-3.341.272-7.616-3.622-7.616a6.7,6.7,0,0,0-5.57,3.637c-.054,1.031-.109,14.986-.109,14.986.055,3.98.54,5.4,3.407,5.4v.247H425.277v-.247c2.863,0,3.406-1.424,3.406-5.4V530.308c0-3.98-.543-5.355-3.406-5.355v-.246h12.436v.246c-.324.147-.595,1.032-.759,2.9,1.622-2.26,3.461-3.636,7.733-3.636s7.461,1.524,8.813,4.915c1.784-3.047,3.947-4.915,8.6-4.915,5.785,0,9.57,2.753,9.57,9.041Z" transform="translate(-62.113 -9.503)" fill="#9c4f68"/>
    <path id="Path_4" data-name="Path 4" d="M554.258,543.789c0,3.98.488,5.355,3.408,5.355v.247H545.229v-.247c.325-.147.594-1.079.758-2.947-1.677,2.31-3.73,3.685-8,3.685-5.733,0-9.57-2.752-9.57-9.091V530.719c0-4.029-.486-5.356-3.408-5.356v-.246H537.5v.246c-.542.246-.918,2.408-.918,7.37v9.042c0,3.34-.271,7.615,3.62,7.615a6.974,6.974,0,0,0,5.787-3.685c.107-1.032.107-2.359.107-3.93V530.719c0-4.029-.486-5.356-3.406-5.356v-.246h12.491v.246c-.542.246-.921,2.408-.921,7.37v11.056Z" transform="translate(-107.456 -9.913)" fill="#9c4f68"/>
    <path id="Path_5" data-name="Path 5" d="M620.564,546.253v.588a14.985,14.985,0,0,1-7.84,2.605c-7.731.442-17.14-2.359-17.843-11.743-.593-9.041,7.731-13.021,15.247-13.415,5.462-.3,9.571,2.606,10.6,4.374s.486,4.176-1.622,4.471-3.515-1.278-2.92-2.948,2.433-1.768,1.244-3.341c-1.082-1.425-4.164-2.556-7.3-2.359-5.568.394-7.515,7.273-7.028,13.119.486,5.9,3.622,11.595,9.569,11.646a12.693,12.693,0,0,0,7.895-3" transform="translate(-139.212 -9.527)" fill="#9c4f68"/>
    <path id="Path_6" data-name="Path 6" d="M677.017,535.976c-.7-6.977-4.11-11.891-8.6-11.546-4.488.393-5.948,6.78-5.189,13.266.81,6.781,4.055,11.892,8.6,11.5s5.841-6.681,5.192-13.217m-5.192,13.413c-7.245.491-16.328-2.7-17.083-11.4-.7-8.353,6-12.971,13.623-13.757,7.678-.738,16.707,3.1,17.2,11.351.486,8.156-6.49,13.365-13.735,13.806" transform="translate(-166.419 -9.47)" fill="#9c4f68"/>
  </g>
</svg>
