<?xml version="1.0" encoding="UTF-8"?>
<svg xmlns="http://www.w3.org/2000/svg" version="1.1" viewBox="0 0 32 32">
  <defs>
    <style>
      .cls-1 {
        fill: none;
        stroke: #ce7d7e;
        stroke-miterlimit: 10;
      }
    </style>
  </defs>
  <!-- Generator: Adobe Illustrator 28.6.0, SVG Export Plug-In . SVG Version: 1.2.0 Build 709)  -->
  <g>
    <g id="_レイヤー_1" data-name="レイヤー_1">
      <path d="M831.4,287.8c-32.3-21-55.5-54.7-62.8-93.9-1.6-8.5-2.4-17.2-2.4-26.1h-103l-.2,412.7c-1.7,46.2-39.8,83.3-86.4,83.3s-28.1-3.6-40.1-9.9c-27.6-14.5-46.4-43.4-46.4-76.6,0-47.7,38.8-86.6,86.6-86.6s17.5,1.5,25.5,4v-105.1c-8.4-1.1-16.9-1.9-25.5-1.9-104.5,0-189.5,85-189.5,189.5s32,120.9,80.9,155.2c30.8,21.6,68.2,34.3,108.6,34.3,104.5,0,189.5-85,189.5-189.5v-209.3c40.4,29,89.9,46.1,143.3,46.1v-103c-28.8,0-55.5-8.5-78-23.2Z"/>
      <path class="cls-1" d="M22.3,9.8c-1.1-.7-1.9-1.9-2.2-3.2,0-.3,0-.6,0-.9h-3.6v14.2c0,1.6-1.4,2.9-3,2.9s-1-.1-1.4-.3c-1-.5-1.6-1.5-1.6-2.6,0-1.6,1.3-3,3-3s.6,0,.9.1v-3.6c-.3,0-.6,0-.9,0-3.6,0-6.5,2.9-6.5,6.5s1.1,4.2,2.8,5.4c1.1.7,2.4,1.2,3.7,1.2,3.6,0,6.5-2.9,6.5-6.5v-7.2c1.4,1,3.1,1.6,4.9,1.6v-3.6c-1,0-1.9-.3-2.7-.8Z"/>
    </g>
  </g>
</svg>