<svg xmlns="http://www.w3.org/2000/svg" xmlns:xlink="http://www.w3.org/1999/xlink" width="34" height="34" viewBox="0 0 34 34">
  <defs>
    <clipPath id="clip-path">
      <circle id="楕円形_146" data-name="楕円形 146" cx="17" cy="17" r="17" transform="translate(993 0.447)" fill="none" stroke="#7f6361" stroke-width="1"/>
    </clipPath>
  </defs>
  <g id="マスクグループ_518" data-name="マスクグループ 518" transform="translate(-993 -0.447)" clip-path="url(#clip-path)">
    <g id="グループ_6000" data-name="グループ 6000" transform="translate(1001.838 9.284)">
      <path id="パス_5848" data-name="パス 5848" d="M1116.87,2367.33a3.9,3.9,0,1,0,3.9,3.9A3.9,3.9,0,0,0,1116.87,2367.33Zm0,6.537a2.637,2.637,0,1,1,2.638-2.637A2.64,2.64,0,0,1,1116.87,2373.867Z" transform="translate(-1108.708 -2363.067)" fill="#7f6361"/>
      <path id="パス_5849" data-name="パス 5849" d="M1185.137,2353.318a.995.995,0,1,0,.995.995A.995.995,0,0,0,1185.137,2353.318Z" transform="translate(-1172.695 -2350.47)" fill="#7f6361"/>
      <path id="パス_5850" data-name="パス 5850" d="M1082.853,2325.1h-7.91a4.213,4.213,0,0,0-4.208,4.208v7.909a4.212,4.212,0,0,0,4.208,4.208h7.91a4.212,4.212,0,0,0,4.208-4.208V2329.3A4.213,4.213,0,0,0,1082.853,2325.1Zm2.946,12.117a2.949,2.949,0,0,1-2.946,2.946h-7.91a2.949,2.949,0,0,1-2.946-2.946V2329.3a2.949,2.949,0,0,1,2.946-2.946h7.91a2.949,2.949,0,0,1,2.946,2.946Z" transform="translate(-1070.736 -2325.096)" fill="#7f6361"/>
    </g>
  </g>
</svg>
