<?xml version="1.0" encoding="utf-8"?>
<!-- Generator: Adobe Illustrator 27.7.0, SVG Export Plug-In . SVG Version: 6.00 Build 0)  -->
<svg version="1.1" id="レイヤー_1" xmlns="http://www.w3.org/2000/svg" xmlns:xlink="http://www.w3.org/1999/xlink" x="0px"
	 y="0px" viewBox="0 0 32 32" style="enable-background:new 0 0 32 32;" xml:space="preserve">
<style type="text/css">
	.st0{fill:#F0979A;}
	.st1{fill:#FFFFFF;}
</style>
<g>
	<rect y="0" class="st0" width="32" height="32"/>
</g>
<path class="st1" d="M26.6,19.7c0,2,0.3,2.7,1.7,2.7v0.2h-7.4v-0.2c1.4,0,1.7-0.7,1.7-2.7v-5.4c0-1.6,0.1-3.8-1.8-3.8
	c-1.4,0.2-2.5,1-3.1,2.3c0.2,0.6,0.3,1.3,0.3,1.9v5c0,2,0.2,2.7,1.7,2.7v0.2h-7.4v-0.2c1.4,0,1.7-0.7,1.7-2.7v-5.4
	c0-1.6,0.1-3.8-1.8-3.8c-1.2,0.1-2.2,0.8-2.8,1.8c0,0.5-0.1,7.4-0.1,7.4c0,2,0.3,2.7,1.7,2.7v0.2H3.7v-0.2c1.4,0,1.7-0.7,1.7-2.7
	v-6.4c0-2-0.3-2.7-1.7-2.7v-0.1h6.2v0.1c-0.2,0.1-0.3,0.5-0.4,1.4c0.8-1.1,1.7-1.8,3.8-1.8s3.7,0.8,4.4,2.4c0.8-1.6,2.5-2.6,4.2-2.4
	c2.9,0,4.7,1.4,4.7,4.5V19.7z"/>
</svg>
