<svg id="グループ_1267" data-name="グループ 1267" xmlns="http://www.w3.org/2000/svg" width="23.973" height="21.551" viewBox="0 0 23.973 21.551">
  <path id="パス_4903" data-name="パス 4903" d="M119.148,104.009h9.918a.987.987,0,0,0,.948-.7l2.489-8.071a.991.991,0,0,0-.947-1.284H112.649l-.828-2.413a.57.57,0,0,0-.378-.362l-2.137-.63a.571.571,0,1,0-.322,1.095l1.854.546.86,2.5,2.529,8.89.79,3.187a.571.571,0,0,0,.554.433h14.843a.571.571,0,1,0,0-1.141h-14.4l-.51-2.057h3.641Zm-4.882-4.456h3.1l1.012,3.315h-3.169Zm4.293,0h2.98v3.315H119.57Zm4.121,3.315V99.552h3.055l-1.066,3.315Zm0-4.456V95.1h4.488L126.1,98.411Zm-1.141,0h-3.328L117.2,95.1h4.34Zm7.417,4.456h-3.088l1.066-3.315h3.044Zm1.375-4.456H127.3l1.047-3.255a.554.554,0,0,0,.013-.061h2.992ZM116.006,95.1l1.011,3.315h-3.077L113,95.1Z" transform="translate(-108.574 -90.527)" fill="#ce7d7e"/>
  <circle id="楕円形_3" data-name="楕円形 3" cx="1.7" cy="1.7" r="1.7" transform="translate(6.443 18.241) rotate(-13.282)" fill="#ce7d7e"/>
  <circle id="楕円形_4" data-name="楕円形 4" cx="1.7" cy="1.7" r="1.7" transform="translate(17.871 17.805)" fill="#ce7d7e"/>
</svg>
