<?xml version="1.0" encoding="utf-8"?>
<!-- Generator: Adobe Illustrator 27.8.1, SVG Export Plug-In . SVG Version: 6.00 Build 0)  -->
<svg version="1.1" id="logo" xmlns="http://www.w3.org/2000/svg" xmlns:xlink="http://www.w3.org/1999/xlink" x="0px" y="0px"
	 viewBox="0 0 1600 255" style="enable-background:new 0 0 1600 255;" xml:space="preserve">
<style type="text/css">
	.st0{fill:#7F6361;}
</style>
<path id="m" class="st0" d="M322,212.1c0,28,3.7,37.5,23.6,37.5v1.7H242.1v-1.7c19.9,0,23.3-9.9,23.6-37.5v-76.4
	c0-23.2,1.5-52.9-25.5-52.9c-17.3,0-34.2,13.6-43.5,32.4c3.1,8.6,4.7,17.8,4.5,26.9V212c0,27.6,3.4,37.5,23.7,37.5v1.7h-104v-1.7
	c20.3,0,23.6-9.9,23.6-37.5v-76.4c0-23.2,1.9-52.9-25.1-52.9c-16.4,1-31.2,10.6-38.7,25.2c-0.4,7.2-0.8,104-0.8,104
	c0.4,27.6,3.7,37.5,23.6,37.5v1.7H0v-1.7c19.9,0,23.6-9.9,23.6-37.5v-90.4c0-27.5-3.7-37-23.6-37v-1.7h86.3v1.7
	c-2.3,1-4.2,7.2-5.3,20.1c11.3-15.7,24-25.2,53.7-25.2s51.8,10.6,61.2,34.1c12.4-21.1,27.4-34.1,59.7-34.1
	c40.1,0,66.4,19.1,66.4,62.8V212.1z"/>
<path id="i" class="st0" d="M401.9,28.2c0.9-16.3,14.8-28.8,31-27.9C448,1.1,460,13.2,460.8,28.2c-0.9,16.3-14.8,28.8-31,27.9
	C414.7,55.3,402.7,43.3,401.9,28.2 M459.7,212.4c0,27.6,3.4,37.2,23.6,37.2v1.7h-104v-1.7c20.3,0,23.6-9.9,23.6-37.5v-90.4
	c0-27.6-3.4-37.2-23.6-37.2v-1.8h86.3v1.7c-3.4,1.7-6,16.7-6,51.2L459.7,212.4L459.7,212.4z"/>
<path id="m_00000074412535585686224670000004078827335211538081_" class="st0" d="M839.1,212.1c0,28,3.7,37.5,23.6,37.5v1.7H759.2
	v-1.7c19.9,0,23.3-9.9,23.6-37.5v-76.4c0-23.2,1.5-52.9-25.5-52.9c-17.3,0-34.2,13.6-43.5,32.4c3.1,8.6,4.7,17.8,4.5,26.9V212
	c0,27.6,3.4,37.5,23.7,37.5v1.7H638v-1.7c20.3,0,23.6-9.9,23.6-37.5v-76.4c0-23.2,1.9-52.9-25.1-52.9c-16.4,1-31.2,10.6-38.7,25.2
	c-0.4,7.2-0.8,104-0.8,104c0.4,27.6,3.7,37.5,23.6,37.5v1.7H517.1v-1.7c19.9,0,23.6-9.9,23.6-37.5v-90.4c0-27.6-3.8-37.2-23.6-37.2
	v-1.7h86.3v1.7c-2.2,1-4.1,7.2-5.3,20.1c11.3-15.7,24-25.2,53.7-25.2S703.6,90,713,113.5c12.4-21.1,27.4-34.1,59.7-34.1
	c40.2,0,66.4,19.1,66.4,62.8L839.1,212.1z"/>
<path id="u" class="st0" d="M1097.7,212.4c0,27.6,3.4,37.2,23.7,37.2v1.7H1035v-1.7c2.3-1,4.1-7.5,5.3-20.5
	c-11.6,16-25.9,25.6-55.5,25.6c-39.8,0-66.4-19.1-66.4-63.1v-69.9c0-28-3.4-37.2-23.7-37.2v-1.7h86.7v1.7
	c-3.8,1.7-6.4,16.7-6.4,51.2v62.8c0,23.2-1.9,52.9,25.1,52.9c16.9-0.9,32.2-10.6,40.2-25.6c0.7-7.2,0.7-16.4,0.7-27.3v-76.7
	c0-28-3.4-37.2-23.6-37.2v-1.7h86.7v1.7c-3.8,1.7-6.4,16.7-6.4,51.2L1097.7,212.4L1097.7,212.4z"/>
<path id="c" class="st0" d="M1337.5,232.2v4.1c-16.1,11-34.9,17.3-54.4,18.1c-53.7,3.1-119-16.4-123.9-81.5
	c-4.1-62.8,53.7-90.4,105.8-93.1c37.9-2.1,66.4,18.1,73.6,30.4c7.1,12.3,3.4,29-11.3,31c-14.6,2-24.4-8.9-20.3-20.5
	s16.9-12.3,8.6-23.2c-7.5-9.9-28.9-17.7-50.7-16.4c-38.6,2.7-52.2,50.5-48.8,91.1c3.4,41,25.1,80.5,66.4,80.8
	C1302.8,252.5,1322.1,245.2,1337.5,232.2"/>
<path id="o" class="st0" d="M1540.5,161.2c-4.9-48.4-28.5-82.5-59.7-80.1c-31.2,2.7-41.3,47.1-36,92.1c5.6,47.1,28.1,82.5,59.7,79.8
	S1545,206.6,1540.5,161.2 M1504.5,254.4c-50.3,3.4-113.3-18.7-118.6-79.1c-4.9-58,41.6-90,94.6-95.5c53.3-5.1,116,21.5,119.4,78.8
	C1603.2,215.2,1554.8,251.3,1504.5,254.4"/>
</svg>
