<svg xmlns="http://www.w3.org/2000/svg" width="402.007" height="63.927" viewBox="0 0 402.007 63.927">
  <g id="グループ_2353" data-name="グループ 2353" transform="translate(-288.665 -503.314)">
    <path id="パス_1" data-name="パス 1" d="M369.572,557.552c0,7.026.941,9.425,5.94,9.425v.43H349.488v-.43c5,0,5.844-2.484,5.939-9.425v-19.2c0-5.827.376-13.283-6.41-13.283-4.342,0-8.585,3.427-10.94,8.14a18.785,18.785,0,0,1,1.13,6.77v17.569c0,6.941.85,9.425,5.944,9.425v.43H319.028v-.43c5.092,0,5.941-2.484,5.941-9.425v-19.2c0-5.827.474-13.283-6.317-13.283-3.771,0-7.543,2.486-9.714,6.343-.093,1.8-.189,26.136-.189,26.136.1,6.941.943,9.425,5.941,9.425v.43H288.665v-.43c4.993,0,5.941-2.484,5.941-9.425v-22.71c0-6.941-.947-9.339-5.941-9.339v-.43h21.689v.43c-.569.257-1.041,1.8-1.324,5.055,2.83-3.942,6.037-6.342,13.487-6.342s13.012,2.659,15.37,8.571c3.111-5.314,6.882-8.571,15-8.571,10.087,0,16.69,4.8,16.69,15.767Z" transform="translate(0 -1.022)" fill="#ce7d7e"/>
    <path id="パス_2" data-name="パス 2" d="M394.549,510.34a7.412,7.412,0,0,1,14.8,0,7.412,7.412,0,0,1-14.8,0m14.524,46.276c0,6.941.846,9.339,5.941,9.339v.43h-26.12v-.43c5.089,0,5.941-2.484,5.941-9.425V533.82c0-6.942-.851-9.341-5.941-9.341v-.428H410.58v.428c-.847.43-1.507,4.2-1.507,12.855v19.281Z" transform="translate(-4.901 0)" fill="#ce7d7e"/>
    <path id="パス_3" data-name="パス 3" d="M506.184,557.552c0,7.026.941,9.425,5.94,9.425v.43H486.1v-.43c5,0,5.845-2.484,5.939-9.425v-19.2c0-5.827.378-13.283-6.41-13.283-4.342,0-8.584,3.427-10.937,8.14a18.844,18.844,0,0,1,1.127,6.77v17.569c0,6.941.85,9.425,5.944,9.425v.43H455.64v-.43c5.092,0,5.94-2.484,5.94-9.425v-19.2c0-5.827.474-13.283-6.317-13.283-3.771,0-7.543,2.486-9.714,6.343-.094,1.8-.189,26.136-.189,26.136.1,6.941.943,9.425,5.942,9.425v.43H425.277v-.43c4.993,0,5.94-2.484,5.94-9.425v-22.71c0-6.941-.947-9.339-5.94-9.339v-.43h21.689v.43c-.566.257-1.038,1.8-1.324,5.055,2.829-3.942,6.037-6.342,13.488-6.342s13.012,2.659,15.37,8.571c3.111-5.314,6.883-8.571,15-8.571,10.089,0,16.69,4.8,16.69,15.767Z" transform="translate(-6.68 -1.022)" fill="#ce7d7e"/>
    <path id="パス_4" data-name="パス 4" d="M576.023,557.682c0,6.941.851,9.339,5.944,9.339v.43H560.276v-.43c.567-.257,1.037-1.882,1.322-5.14-2.924,4.029-6.505,6.427-13.957,6.427-10,0-16.691-4.8-16.691-15.855V534.887c0-7.027-.848-9.341-5.943-9.341v-.429h21.785v.429c-.945.43-1.6,4.2-1.6,12.854v15.77c0,5.824-.472,13.281,6.314,13.281,3.773,0,7.923-2.486,10.092-6.426.186-1.8.186-4.114.186-6.855V534.887c0-7.027-.847-9.341-5.941-9.341v-.429h21.786v.429c-.945.43-1.606,4.2-1.606,12.854v19.282Z" transform="translate(-11.557 -1.066)" fill="#ce7d7e"/>
    <path id="パス_5" data-name="パス 5" d="M639.7,562.611v1.026a26.136,26.136,0,0,1-13.673,4.544c-13.484.77-29.894-4.113-31.119-20.48-1.035-15.767,13.484-22.709,26.591-23.4,9.525-.515,16.693,4.544,18.485,7.629s.847,7.282-2.83,7.8-6.13-2.229-5.092-5.142,4.244-3.084,2.169-5.826c-1.888-2.486-7.262-4.458-12.732-4.115-9.711.687-13.107,12.684-12.257,22.881.847,10.284,6.316,20.222,16.689,20.311,5.093,0,11.319-2.657,13.769-5.228" transform="translate(-14.973 -1.025)" fill="#ce7d7e"/>
    <path id="パス_6" data-name="パス 6" d="M693.629,544.78c-1.227-12.169-7.167-20.738-15-20.138-7.827.685-10.373,11.825-9.05,23.137,1.412,11.827,7.071,20.74,14.99,20.053s10.186-11.653,9.055-23.052m-9.055,23.393c-12.636.856-28.478-4.712-29.794-19.881-1.229-14.568,10.466-22.622,23.759-23.993,13.392-1.287,29.139,5.4,29.99,19.8.847,14.225-11.319,23.309-23.955,24.078" transform="translate(-17.899 -1.018)" fill="#ce7d7e"/>
  </g>
</svg>
