<?xml version="1.0" encoding="utf-8"?>
<!-- Generator: Adobe Illustrator 26.3.1, SVG Export Plug-In . SVG Version: 6.00 Build 0)  -->
<svg version="1.1" id="レイヤー_1" xmlns="http://www.w3.org/2000/svg" xmlns:xlink="http://www.w3.org/1999/xlink" x="0px"
	 y="0px" viewBox="0 0 500 500" style="enable-background:new 0 0 500 500;" xml:space="preserve">
<g>
	<path d="M478.8,33.8h-76.8c-6,0-11,4.3-12.1,10.1l-13.7,77.2H53.3c-3.8,0-7.3,1.7-9.7,4.7c-2.3,3-3.2,6.9-2.2,10.5l41.3,165.9
		c1.4,5.5,6.3,9.3,11.9,9.3h247.8l-5.7,32H100.2c-6.8,0-12.3,5.5-12.3,12.3s5.5,12.3,12.3,12.3h246.7c6,0,11-4.3,12.1-10.1l10-56.2
		c0-0.1,0-0.3,0.1-0.4l43.2-243.1h66.5c6.8,0,12.3-5.5,12.3-12.3S485.6,33.8,478.8,33.8z M361.5,203.7h-78.3v-58h88.6L361.5,203.7z
		 M186.3,203.7v-58h72.3v58L186.3,203.7L186.3,203.7z M258.6,228.3v58.8h-72.3v-58.8H258.6z M161.7,145.8v58H83.4l-14.4-58
		L161.7,145.8L161.7,145.8z M89.5,228.3h72.2v58.8h-57.6L89.5,228.3z M283.2,287.1v-58.8h73.9l-10.4,58.8H283.2z"/>
	<path d="M325.1,380.1c-23.7,0-43,19.3-43,43s19.3,43,43,43s43-19.3,43-43S348.8,380.1,325.1,380.1z M325.1,441.6
		c-10.2,0-18.5-8.3-18.5-18.5s8.3-18.5,18.5-18.5c10.2,0,18.5,8.3,18.5,18.5S335.3,441.6,325.1,441.6z"/>
	<path d="M123.3,380.1c-23.7,0-43,19.3-43,43s19.3,43,43,43s43-19.3,43-43S147,380.1,123.3,380.1z M123.3,441.6
		c-10.2,0-18.5-8.3-18.5-18.5s8.3-18.5,18.4-18.5s18.4,8.3,18.4,18.5S133.5,441.6,123.3,441.6z"/>
</g>
</svg>
