<svg width="233" height="33" viewBox="0 0 233 33" fill="none" xmlns="http://www.w3.org/2000/svg">
<path d="M50.1362 16.6328L49.2398 25H28.0757V24.3496H28.8667C29.5581 24.3496 30.1148 24.2266 30.5366 23.9805C30.8413 23.8164 31.0757 23.5352 31.2398 23.1367C31.3687 22.8555 31.4331 22.1172 31.4331 20.9219V5.24219C31.4331 4.02344 31.3687 3.26172 31.2398 2.95703C31.1109 2.65234 30.8472 2.38867 30.4487 2.16602C30.062 1.93164 29.5347 1.81445 28.8667 1.81445H28.0757V1.16406H40.7847V1.81445H39.7476C39.0562 1.81445 38.4995 1.9375 38.0777 2.18359C37.773 2.34766 37.5327 2.62891 37.3569 3.02734C37.228 3.30859 37.1636 4.04688 37.1636 5.24219V20.4297C37.1636 21.6484 37.2339 22.4277 37.3745 22.7676C37.5152 23.0957 37.7905 23.3418 38.2007 23.5059C38.4937 23.6113 39.2027 23.6641 40.3277 23.6641H42.314C43.5796 23.6641 44.6343 23.4414 45.478 22.9961C46.3218 22.5508 47.0484 21.8477 47.6577 20.8867C48.2788 19.9258 48.8648 18.5078 49.4155 16.6328H50.1362Z" fill="black"/>
<path d="M69.4342 16.1934H60.4166C60.5221 18.373 61.1022 20.0957 62.1569 21.3613C62.9655 22.334 63.9381 22.8203 65.0748 22.8203C65.778 22.8203 66.4166 22.627 66.9909 22.2402C67.5651 21.8418 68.1803 21.1328 68.8366 20.1133L69.4342 20.5C68.5436 22.3164 67.5592 23.6055 66.4811 24.3672C65.403 25.1172 64.1549 25.4922 62.7369 25.4922C60.2994 25.4922 58.4537 24.5547 57.1998 22.6797C56.192 21.168 55.6881 19.293 55.6881 17.0547C55.6881 14.3125 56.4264 12.1328 57.903 10.5156C59.3912 8.88672 61.1315 8.07227 63.1237 8.07227C64.7877 8.07227 66.2291 8.75781 67.4479 10.1289C68.6784 11.4883 69.3405 13.5098 69.4342 16.1934ZM65.11 15.0156C65.11 13.1289 65.0045 11.834 64.7936 11.1309C64.5944 10.4277 64.278 9.89453 63.8444 9.53125C63.5983 9.32031 63.2702 9.21484 62.86 9.21484C62.2506 9.21484 61.7526 9.51367 61.3659 10.1113C60.6744 11.1543 60.3287 12.584 60.3287 14.4004V15.0156H65.11Z" fill="black"/>
<path d="M81.1033 8.56445V10.6914C81.947 9.77734 82.7556 9.11523 83.5291 8.70508C84.3025 8.2832 85.1345 8.07227 86.0252 8.07227C87.0916 8.07227 87.9763 8.37109 88.6795 8.96875C89.3826 9.55469 89.8513 10.2871 90.0857 11.166C90.2732 11.834 90.367 13.1172 90.367 15.0156V21.4141C90.367 22.6797 90.4783 23.4707 90.7009 23.7871C90.9353 24.0918 91.4158 24.2852 92.1423 24.3672V25H83.8279V24.3672C84.449 24.2852 84.8943 24.0273 85.1638 23.5938C85.3513 23.3008 85.4451 22.5742 85.4451 21.4141V14.1016C85.4451 12.7539 85.3923 11.9043 85.2869 11.5527C85.1814 11.2012 84.9998 10.9316 84.742 10.7441C84.4959 10.5449 84.2205 10.4453 83.9158 10.4453C82.908 10.4453 81.9705 11.166 81.1033 12.6074V21.4141C81.1033 22.6445 81.2146 23.4238 81.4373 23.752C81.6716 24.0801 82.0994 24.2852 82.7205 24.3672V25H74.406V24.3672C75.0974 24.2969 75.5896 24.0742 75.8826 23.6992C76.0818 23.4414 76.1814 22.6797 76.1814 21.4141V12.1328C76.1814 10.8906 76.0642 10.1172 75.8298 9.8125C75.6072 9.50781 75.1326 9.30859 74.406 9.21484V8.56445H81.1033Z" fill="black"/>
<path d="M107.696 8.10742L107.96 13.7148H107.362C106.647 12.0508 105.903 10.9141 105.13 10.3047C104.368 9.69531 103.606 9.39062 102.845 9.39062C102.364 9.39062 101.954 9.55469 101.614 9.88281C101.274 10.1992 101.104 10.5684 101.104 10.9902C101.104 11.3066 101.222 11.6113 101.456 11.9043C101.831 12.3848 102.88 13.2109 104.602 14.3828C106.325 15.543 107.456 16.5332 107.995 17.3535C108.546 18.1621 108.821 19.0703 108.821 20.0781C108.821 20.9922 108.593 21.8887 108.136 22.7676C107.679 23.6465 107.034 24.3203 106.202 24.7891C105.37 25.2578 104.45 25.4922 103.442 25.4922C102.657 25.4922 101.608 25.2461 100.296 24.7539C99.9442 24.625 99.704 24.5605 99.5751 24.5605C99.1884 24.5605 98.8661 24.8535 98.6083 25.4395H98.0282L97.7469 19.5332H98.3446C98.8719 21.0801 99.5927 22.2402 100.507 23.0137C101.432 23.7871 102.306 24.1738 103.126 24.1738C103.688 24.1738 104.145 24.0039 104.497 23.6641C104.86 23.3125 105.042 22.8906 105.042 22.3984C105.042 21.8359 104.866 21.3496 104.515 20.9395C104.163 20.5293 103.378 19.9082 102.159 19.0762C100.366 17.834 99.2059 16.8848 98.6786 16.2285C97.9052 15.2676 97.5184 14.207 97.5184 13.0469C97.5184 11.7812 97.952 10.6387 98.8192 9.61914C99.6981 8.58789 100.964 8.07227 102.616 8.07227C103.507 8.07227 104.368 8.28906 105.2 8.72266C105.516 8.89844 105.774 8.98633 105.974 8.98633C106.184 8.98633 106.354 8.94531 106.483 8.86328C106.612 8.76953 106.817 8.51758 107.099 8.10742H107.696Z" fill="black"/>
<path d="M141.792 0.619141L141.985 8.56445H141.265C140.925 6.57227 140.087 4.97266 138.751 3.76562C137.427 2.54688 135.991 1.9375 134.444 1.9375C133.249 1.9375 132.3 2.25977 131.597 2.9043C130.905 3.53711 130.56 4.26953 130.56 5.10156C130.56 5.62891 130.683 6.09766 130.929 6.50781C131.269 7.05859 131.814 7.60352 132.564 8.14258C133.114 8.5293 134.386 9.21484 136.378 10.1992C139.167 11.5703 141.048 12.8652 142.021 14.084C142.982 15.3027 143.462 16.6973 143.462 18.2676C143.462 20.2598 142.683 21.9766 141.124 23.418C139.577 24.8477 137.609 25.5625 135.218 25.5625C134.468 25.5625 133.759 25.4863 133.091 25.334C132.423 25.1816 131.585 24.8945 130.577 24.4727C130.015 24.2383 129.552 24.1211 129.189 24.1211C128.884 24.1211 128.562 24.2383 128.222 24.4727C127.882 24.707 127.607 25.0645 127.396 25.5449H126.745V16.5449H127.396C127.911 19.0762 128.901 21.0098 130.366 22.3457C131.843 23.6699 133.431 24.332 135.13 24.332C136.443 24.332 137.485 23.9746 138.259 23.2598C139.044 22.5449 139.437 21.7129 139.437 20.7637C139.437 20.2012 139.284 19.6562 138.98 19.1289C138.687 18.6016 138.235 18.1035 137.626 17.6348C137.017 17.1543 135.939 16.5332 134.392 15.7715C132.224 14.7051 130.665 13.7969 129.716 13.0469C128.767 12.2969 128.034 11.459 127.519 10.5332C127.015 9.60742 126.763 8.58789 126.763 7.47461C126.763 5.57617 127.46 3.95898 128.855 2.62305C130.249 1.28711 132.007 0.619141 134.128 0.619141C134.901 0.619141 135.651 0.712891 136.378 0.900391C136.929 1.04102 137.597 1.30469 138.382 1.69141C139.179 2.06641 139.735 2.25391 140.052 2.25391C140.357 2.25391 140.597 2.16016 140.773 1.97266C140.948 1.78516 141.112 1.33398 141.265 0.619141H141.792Z" fill="black"/>
<path d="M155.377 23.3301V29.4473C155.377 30.291 155.442 30.8652 155.571 31.1699C155.711 31.4746 155.922 31.6973 156.203 31.8379C156.485 31.9785 157.035 32.0488 157.856 32.0488V32.6992H148.487V32.0488C149.213 32.0254 149.752 31.8203 150.104 31.4336C150.338 31.1641 150.455 30.4668 150.455 29.3418V11.9922C150.455 10.832 150.321 10.0938 150.051 9.77734C149.781 9.44922 149.26 9.26172 148.487 9.21484V8.56445H155.377V10.7266C155.951 9.88281 156.537 9.27344 157.135 8.89844C157.99 8.34766 158.922 8.07227 159.93 8.07227C161.137 8.07227 162.233 8.45312 163.217 9.21484C164.213 9.97656 164.969 11.0312 165.485 12.3789C166 13.7148 166.258 15.1562 166.258 16.7031C166.258 18.3672 165.989 19.8906 165.449 21.2734C164.922 22.6445 164.149 23.6934 163.129 24.4199C162.121 25.1348 160.996 25.4922 159.754 25.4922C158.852 25.4922 158.008 25.293 157.223 24.8945C156.637 24.5898 156.022 24.0684 155.377 23.3301ZM155.377 21.5547C156.385 22.9844 157.463 23.6992 158.612 23.6992C159.244 23.6992 159.766 23.3652 160.176 22.6973C160.785 21.7129 161.09 19.8379 161.09 17.0723C161.09 14.2363 160.756 12.2969 160.088 11.2539C159.643 10.5625 159.045 10.2168 158.295 10.2168C157.112 10.2168 156.139 11.0723 155.377 12.7832V21.5547Z" fill="black"/>
<path d="M185.855 16.1934H176.837C176.943 18.373 177.523 20.0957 178.577 21.3613C179.386 22.334 180.359 22.8203 181.495 22.8203C182.199 22.8203 182.837 22.627 183.411 22.2402C183.986 21.8418 184.601 21.1328 185.257 20.1133L185.855 20.5C184.964 22.3164 183.98 23.6055 182.902 24.3672C181.824 25.1172 180.576 25.4922 179.158 25.4922C176.72 25.4922 174.874 24.5547 173.62 22.6797C172.613 21.168 172.109 19.293 172.109 17.0547C172.109 14.3125 172.847 12.1328 174.324 10.5156C175.812 8.88672 177.552 8.07227 179.544 8.07227C181.208 8.07227 182.65 8.75781 183.869 10.1289C185.099 11.4883 185.761 13.5098 185.855 16.1934ZM181.531 15.0156C181.531 13.1289 181.425 11.834 181.214 11.1309C181.015 10.4277 180.699 9.89453 180.265 9.53125C180.019 9.32031 179.691 9.21484 179.281 9.21484C178.671 9.21484 178.173 9.51367 177.786 10.1113C177.095 11.1543 176.749 12.584 176.749 14.4004V15.0156H181.531Z" fill="black"/>
<path d="M204.221 20.7637L204.766 21.1855C203.993 22.6387 203.026 23.7227 201.866 24.4375C200.717 25.1406 199.493 25.4922 198.192 25.4922C196 25.4922 194.249 24.666 192.936 23.0137C191.624 21.3613 190.967 19.375 190.967 17.0547C190.967 14.8164 191.565 12.8477 192.76 11.1484C194.202 9.09766 196.188 8.07227 198.719 8.07227C200.418 8.07227 201.766 8.5 202.762 9.35547C203.77 10.2109 204.274 11.166 204.274 12.2207C204.274 12.8887 204.069 13.4219 203.659 13.8203C203.26 14.2188 202.733 14.418 202.077 14.418C201.385 14.418 200.811 14.1895 200.354 13.7324C199.909 13.2754 199.633 12.4609 199.528 11.2891C199.458 10.5508 199.288 10.0352 199.018 9.74219C198.749 9.44922 198.432 9.30273 198.069 9.30273C197.506 9.30273 197.026 9.60156 196.627 10.1992C196.018 11.1016 195.713 12.4844 195.713 14.3477C195.713 15.8945 195.959 17.377 196.452 18.7949C196.944 20.2012 197.618 21.25 198.473 21.9414C199.118 22.4453 199.879 22.6973 200.758 22.6973C201.333 22.6973 201.877 22.5625 202.393 22.293C202.909 22.0234 203.518 21.5137 204.221 20.7637Z" fill="black"/>
<path d="M10.9842 24C10.9842 14.2222 9.76377 13 0 13C9.76377 13 10.9842 11.7778 10.9842 2C10.9842 11.7778 12.2047 13 21.9685 13C12.2047 13 10.9842 14.2222 10.9842 24Z" fill="black"/>
<path d="M221.984 24C221.984 14.2222 220.764 13 211 13C220.764 13 221.984 11.7778 221.984 2C221.984 11.7778 223.205 13 232.968 13C223.205 13 221.984 14.2222 221.984 24Z" fill="black"/>
</svg>
