<svg width="270" height="41" viewBox="0 0 270 41" fill="none" xmlns="http://www.w3.org/2000/svg">
<path d="M49.7426 24.6328L48.8461 33H27.682V32.3496H28.473C29.1645 32.3496 29.7211 32.2266 30.143 31.9805C30.4477 31.8164 30.682 31.5352 30.8461 31.1367C30.975 30.8555 31.0395 30.1172 31.0395 28.9219V13.2422C31.0395 12.0234 30.975 11.2617 30.8461 10.957C30.7172 10.6523 30.4535 10.3887 30.0551 10.166C29.6684 9.93164 29.141 9.81445 28.473 9.81445H27.682V9.16406H40.391V9.81445H39.3539C38.6625 9.81445 38.1059 9.9375 37.684 10.1836C37.3793 10.3477 37.1391 10.6289 36.9633 11.0273C36.8344 11.3086 36.7699 12.0469 36.7699 13.2422V28.4297C36.7699 29.6484 36.8402 30.4277 36.9809 30.7676C37.1215 31.0957 37.3969 31.3418 37.807 31.5059C38.1 31.6113 38.809 31.6641 39.934 31.6641H41.9203C43.1859 31.6641 44.2406 31.4414 45.0844 30.9961C45.9281 30.5508 46.6547 29.8477 47.2641 28.8867C47.8852 27.9258 48.4711 26.5078 49.0219 24.6328H49.7426ZM69.0405 24.1934H60.023C60.1284 26.373 60.7085 28.0957 61.7632 29.3613C62.5718 30.334 63.5445 30.8203 64.6812 30.8203C65.3843 30.8203 66.023 30.627 66.5972 30.2402C67.1714 29.8418 67.7866 29.1328 68.4429 28.1133L69.0405 28.5C68.1499 30.3164 67.1655 31.6055 66.0874 32.3672C65.0093 33.1172 63.7612 33.4922 62.3433 33.4922C59.9058 33.4922 58.0601 32.5547 56.8062 30.6797C55.7984 29.168 55.2945 27.293 55.2945 25.0547C55.2945 22.3125 56.0327 20.1328 57.5093 18.5156C58.9976 16.8867 60.7378 16.0723 62.73 16.0723C64.3941 16.0723 65.8355 16.7578 67.0542 18.1289C68.2847 19.4883 68.9468 21.5098 69.0405 24.1934ZM64.7163 23.0156C64.7163 21.1289 64.6109 19.834 64.3999 19.1309C64.2007 18.4277 63.8843 17.8945 63.4507 17.5312C63.2046 17.3203 62.8765 17.2148 62.4663 17.2148C61.857 17.2148 61.3589 17.5137 60.9722 18.1113C60.2808 19.1543 59.9351 20.584 59.9351 22.4004V23.0156H64.7163ZM80.7096 16.5645V18.6914C81.5534 17.7773 82.362 17.1152 83.1354 16.7051C83.9088 16.2832 84.7409 16.0723 85.6315 16.0723C86.6979 16.0723 87.5827 16.3711 88.2858 16.9688C88.9889 17.5547 89.4577 18.2871 89.692 19.166C89.8795 19.834 89.9733 21.1172 89.9733 23.0156V29.4141C89.9733 30.6797 90.0846 31.4707 90.3073 31.7871C90.5416 32.0918 91.0221 32.2852 91.7487 32.3672V33H83.4342V32.3672C84.0553 32.2852 84.5006 32.0273 84.7702 31.5938C84.9577 31.3008 85.0514 30.5742 85.0514 29.4141V22.1016C85.0514 20.7539 84.9987 19.9043 84.8932 19.5527C84.7877 19.2012 84.6061 18.9316 84.3483 18.7441C84.1022 18.5449 83.8268 18.4453 83.5221 18.4453C82.5143 18.4453 81.5768 19.166 80.7096 20.6074V29.4141C80.7096 30.6445 80.8209 31.4238 81.0436 31.752C81.278 32.0801 81.7057 32.2852 82.3268 32.3672V33H74.0123V32.3672C74.7038 32.2969 75.1959 32.0742 75.4889 31.6992C75.6881 31.4414 75.7877 30.6797 75.7877 29.4141V20.1328C75.7877 18.8906 75.6705 18.1172 75.4362 17.8125C75.2135 17.5078 74.7389 17.3086 74.0123 17.2148V16.5645H80.7096ZM107.302 16.1074L107.566 21.7148H106.969C106.254 20.0508 105.51 18.9141 104.736 18.3047C103.974 17.6953 103.213 17.3906 102.451 17.3906C101.97 17.3906 101.56 17.5547 101.22 17.8828C100.881 18.1992 100.711 18.5684 100.711 18.9902C100.711 19.3066 100.828 19.6113 101.062 19.9043C101.437 20.3848 102.486 21.2109 104.209 22.3828C105.931 23.543 107.062 24.5332 107.601 25.3535C108.152 26.1621 108.427 27.0703 108.427 28.0781C108.427 28.9922 108.199 29.8887 107.742 30.7676C107.285 31.6465 106.64 32.3203 105.808 32.7891C104.976 33.2578 104.056 33.4922 103.049 33.4922C102.263 33.4922 101.215 33.2461 99.9021 32.7539C99.5505 32.625 99.3103 32.5605 99.1814 32.5605C98.7947 32.5605 98.4724 32.8535 98.2146 33.4395H97.6345L97.3533 27.5332H97.9509C98.4783 29.0801 99.199 30.2402 100.113 31.0137C101.039 31.7871 101.912 32.1738 102.732 32.1738C103.295 32.1738 103.752 32.0039 104.103 31.6641C104.467 31.3125 104.648 30.8906 104.648 30.3984C104.648 29.8359 104.472 29.3496 104.121 28.9395C103.769 28.5293 102.984 27.9082 101.765 27.0762C99.9724 25.834 98.8123 24.8848 98.2849 24.2285C97.5115 23.2676 97.1248 22.207 97.1248 21.0469C97.1248 19.7812 97.5584 18.6387 98.4255 17.6191C99.3045 16.5879 100.57 16.0723 102.222 16.0723C103.113 16.0723 103.974 16.2891 104.806 16.7227C105.123 16.8984 105.381 16.9863 105.58 16.9863C105.791 16.9863 105.961 16.9453 106.09 16.8633C106.219 16.7695 106.424 16.5176 106.705 16.1074H107.302ZM124.963 33V32.3496H125.754C126.445 32.3496 126.973 32.2441 127.336 32.0332C127.711 31.8105 127.986 31.5117 128.162 31.1367C128.268 30.8906 128.32 30.1523 128.32 28.9219V13.2422C128.32 12.0234 128.256 11.2617 128.127 10.957C127.998 10.6523 127.734 10.3887 127.336 10.166C126.949 9.93164 126.422 9.81445 125.754 9.81445H124.963V9.16406H135.633C138.48 9.16406 140.771 9.55078 142.506 10.3242C144.627 11.2734 146.232 12.709 147.322 14.6309C148.424 16.5527 148.975 18.7266 148.975 21.1523C148.975 22.8281 148.705 24.375 148.166 25.793C147.627 27.1992 146.93 28.3652 146.074 29.291C145.219 30.2051 144.229 30.9434 143.104 31.5059C141.99 32.0566 140.625 32.4844 139.008 32.7891C138.293 32.9297 137.168 33 135.633 33H124.963ZM134.051 10.5176V29.1152C134.051 30.0996 134.098 30.7031 134.191 30.9258C134.285 31.1484 134.443 31.3184 134.666 31.4355C134.982 31.6113 135.439 31.6992 136.037 31.6992C137.994 31.6992 139.488 31.0312 140.52 29.6953C141.926 27.8906 142.629 25.0898 142.629 21.293C142.629 18.2344 142.148 15.791 141.188 13.9629C140.426 12.5332 139.447 11.5605 138.252 11.0449C137.408 10.6816 136.008 10.5059 134.051 10.5176ZM168.519 24.1934H159.501C159.607 26.373 160.187 28.0957 161.241 29.3613C162.05 30.334 163.023 30.8203 164.159 30.8203C164.862 30.8203 165.501 30.627 166.075 30.2402C166.65 29.8418 167.265 29.1328 167.921 28.1133L168.519 28.5C167.628 30.3164 166.644 31.6055 165.566 32.3672C164.487 33.1172 163.239 33.4922 161.821 33.4922C159.384 33.4922 157.538 32.5547 156.284 30.6797C155.276 29.168 154.773 27.293 154.773 25.0547C154.773 22.3125 155.511 20.1328 156.987 18.5156C158.476 16.8867 160.216 16.0723 162.208 16.0723C163.872 16.0723 165.314 16.7578 166.532 18.1289C167.763 19.4883 168.425 21.5098 168.519 24.1934ZM164.194 23.0156C164.194 21.1289 164.089 19.834 163.878 19.1309C163.679 18.4277 163.362 17.8945 162.929 17.5312C162.683 17.3203 162.355 17.2148 161.944 17.2148C161.335 17.2148 160.837 17.5137 160.45 18.1113C159.759 19.1543 159.413 20.584 159.413 22.4004V23.0156H164.194ZM183.862 16.1074L184.125 21.7148H183.528C182.813 20.0508 182.069 18.9141 181.295 18.3047C180.533 17.6953 179.772 17.3906 179.01 17.3906C178.53 17.3906 178.119 17.5547 177.78 17.8828C177.44 18.1992 177.27 18.5684 177.27 18.9902C177.27 19.3066 177.387 19.6113 177.621 19.9043C177.996 20.3848 179.045 21.2109 180.768 22.3828C182.49 23.543 183.621 24.5332 184.16 25.3535C184.711 26.1621 184.987 27.0703 184.987 28.0781C184.987 28.9922 184.758 29.8887 184.301 30.7676C183.844 31.6465 183.199 32.3203 182.367 32.7891C181.535 33.2578 180.615 33.4922 179.608 33.4922C178.823 33.4922 177.774 33.2461 176.461 32.7539C176.11 32.625 175.869 32.5605 175.74 32.5605C175.354 32.5605 175.031 32.8535 174.774 33.4395H174.194L173.912 27.5332H174.51C175.037 29.0801 175.758 30.2402 176.672 31.0137C177.598 31.7871 178.471 32.1738 179.291 32.1738C179.854 32.1738 180.311 32.0039 180.662 31.6641C181.026 31.3125 181.207 30.8906 181.207 30.3984C181.207 29.8359 181.031 29.3496 180.68 28.9395C180.328 28.5293 179.543 27.9082 178.324 27.0762C176.531 25.834 175.371 24.8848 174.844 24.2285C174.071 23.2676 173.684 22.207 173.684 21.0469C173.684 19.7812 174.117 18.6387 174.985 17.6191C175.864 16.5879 177.129 16.0723 178.781 16.0723C179.672 16.0723 180.533 16.2891 181.365 16.7227C181.682 16.8984 181.94 16.9863 182.139 16.9863C182.35 16.9863 182.52 16.9453 182.649 16.8633C182.778 16.7695 182.983 16.5176 183.264 16.1074H183.862ZM194.335 8.60156C195.097 8.60156 195.742 8.87109 196.269 9.41016C196.796 9.9375 197.06 10.5762 197.06 11.3262C197.06 12.0762 196.79 12.7148 196.251 13.2422C195.724 13.7695 195.085 14.0332 194.335 14.0332C193.585 14.0332 192.947 13.7695 192.419 13.2422C191.892 12.7148 191.628 12.0762 191.628 11.3262C191.628 10.5762 191.892 9.9375 192.419 9.41016C192.947 8.87109 193.585 8.60156 194.335 8.60156ZM196.796 16.5645V29.5898C196.796 30.75 196.931 31.4941 197.201 31.8223C197.47 32.1387 197.997 32.3203 198.783 32.3672V33H189.906V32.3672C190.632 32.3438 191.171 32.1328 191.523 31.7344C191.757 31.4648 191.874 30.75 191.874 29.5898V19.9922C191.874 18.832 191.74 18.0938 191.47 17.7773C191.201 17.4492 190.679 17.2617 189.906 17.2148V16.5645H196.796ZM213.827 16.7578H219.364V18.6914H216.217C216.791 19.2656 217.19 19.7871 217.413 20.2559C217.694 20.8887 217.834 21.5508 217.834 22.2422C217.834 23.4141 217.506 24.4336 216.85 25.3008C216.206 26.1562 215.321 26.8301 214.196 27.3223C213.082 27.8027 212.092 28.043 211.225 28.043C211.155 28.043 210.452 28.0137 209.116 27.9551C208.588 27.9551 208.143 28.1309 207.78 28.4824C207.428 28.8223 207.252 29.2324 207.252 29.7129C207.252 30.1348 207.411 30.4805 207.727 30.75C208.055 31.0195 208.582 31.1543 209.309 31.1543L212.35 31.1191C214.811 31.1191 216.504 31.3887 217.43 31.9277C218.754 32.6777 219.416 33.832 219.416 35.3906C219.416 36.3867 219.112 37.2891 218.502 38.0977C217.893 38.918 217.09 39.5215 216.094 39.9082C214.582 40.4824 212.842 40.7695 210.874 40.7695C209.397 40.7695 208.049 40.623 206.831 40.3301C205.612 40.0488 204.739 39.6504 204.211 39.1348C203.684 38.6309 203.42 38.0977 203.42 37.5352C203.42 36.9961 203.62 36.5098 204.018 36.0762C204.428 35.6543 205.184 35.2969 206.286 35.0039C204.762 34.2539 204 33.2109 204 31.875C204 31.0664 204.311 30.2812 204.932 29.5195C205.553 28.7578 206.538 28.0957 207.885 27.5332C206.315 26.959 205.178 26.2031 204.475 25.2656C203.772 24.3281 203.42 23.2441 203.42 22.0137C203.42 20.4082 204.077 19.0195 205.389 17.8477C206.702 16.6641 208.389 16.0723 210.452 16.0723C211.541 16.0723 212.666 16.3008 213.827 16.7578ZM210.786 17.1621C210.106 17.1621 209.532 17.5078 209.063 18.1992C208.594 18.8789 208.36 20.2969 208.36 22.4531C208.36 24.1992 208.588 25.4004 209.045 26.0566C209.514 26.7012 210.065 27.0234 210.698 27.0234C211.401 27.0234 211.987 26.7012 212.456 26.0566C212.924 25.4121 213.159 24.1582 213.159 22.2949C213.159 20.1973 212.895 18.7676 212.368 18.0059C211.993 17.4434 211.465 17.1621 210.786 17.1621ZM209.749 35.4258C208.553 35.4258 207.762 35.5254 207.375 35.7246C206.707 36.0879 206.374 36.5801 206.374 37.2012C206.374 37.7988 206.719 38.3379 207.411 38.8184C208.102 39.3105 209.403 39.5566 211.313 39.5566C212.942 39.5566 214.219 39.3398 215.145 38.9062C216.082 38.4727 216.551 37.8633 216.551 37.0781C216.551 36.7852 216.463 36.5391 216.288 36.3398C215.971 35.9883 215.491 35.748 214.846 35.6191C214.213 35.4902 212.514 35.4258 209.749 35.4258ZM230.875 16.5645V18.6914C231.718 17.7773 232.527 17.1152 233.3 16.7051C234.074 16.2832 234.906 16.0723 235.796 16.0723C236.863 16.0723 237.748 16.3711 238.451 16.9688C239.154 17.5547 239.623 18.2871 239.857 19.166C240.045 19.834 240.138 21.1172 240.138 23.0156V29.4141C240.138 30.6797 240.25 31.4707 240.472 31.7871C240.707 32.0918 241.187 32.2852 241.914 32.3672V33H233.599V32.3672C234.22 32.2852 234.666 32.0273 234.935 31.5938C235.123 31.3008 235.216 30.5742 235.216 29.4141V22.1016C235.216 20.7539 235.164 19.9043 235.058 19.5527C234.953 19.2012 234.771 18.9316 234.513 18.7441C234.267 18.5449 233.992 18.4453 233.687 18.4453C232.679 18.4453 231.742 19.166 230.875 20.6074V29.4141C230.875 30.6445 230.986 31.4238 231.209 31.752C231.443 32.0801 231.871 32.2852 232.492 32.3672V33H224.177V32.3672C224.869 32.2969 225.361 32.0742 225.654 31.6992C225.853 31.4414 225.953 30.6797 225.953 29.4141V20.1328C225.953 18.8906 225.836 18.1172 225.601 17.8125C225.379 17.5078 224.904 17.3086 224.177 17.2148V16.5645H230.875Z" fill="black"/>
<path d="M10.9842 32C10.9842 22.2222 9.76377 21 0 21C9.76377 21 10.9842 19.7778 10.9842 10C10.9842 19.7778 12.2047 21 21.9685 21C12.2047 21 10.9842 22.2222 10.9842 32Z" fill="black"/>
<path d="M258.984 32C258.984 22.2222 257.764 21 248 21C257.764 21 258.984 19.7778 258.984 10C258.984 19.7778 260.205 21 269.968 21C260.205 21 258.984 22.2222 258.984 32Z" fill="black"/>
</svg>
