<svg width="289" height="41" viewBox="0 0 289 41" fill="none" xmlns="http://www.w3.org/2000/svg">
<path d="M50.1737 24.6328L49.2772 33H28.1131V32.3496H28.9041C29.5955 32.3496 30.1522 32.2266 30.5741 31.9805C30.8787 31.8164 31.1131 31.5352 31.2772 31.1367C31.4061 30.8555 31.4705 30.1172 31.4705 28.9219V13.2422C31.4705 12.0234 31.4061 11.2617 31.2772 10.957C31.1483 10.6523 30.8846 10.3887 30.4862 10.166C30.0994 9.93164 29.5721 9.81445 28.9041 9.81445H28.1131V9.16406H40.8221V9.81445H39.785C39.0936 9.81445 38.5369 9.9375 38.1151 10.1836C37.8104 10.3477 37.5702 10.6289 37.3944 11.0273C37.2655 11.3086 37.201 12.0469 37.201 13.2422V28.4297C37.201 29.6484 37.2713 30.4277 37.4119 30.7676C37.5526 31.0957 37.828 31.3418 38.2381 31.5059C38.5311 31.6113 39.2401 31.6641 40.3651 31.6641H42.3514C43.617 31.6641 44.6717 31.4414 45.5155 30.9961C46.3592 30.5508 47.0858 29.8477 47.6952 28.8867C48.3162 27.9258 48.9022 26.5078 49.453 24.6328H50.1737ZM69.4716 24.1934H60.4541C60.5595 26.373 61.1396 28.0957 62.1943 29.3613C63.0029 30.334 63.9755 30.8203 65.1123 30.8203C65.8154 30.8203 66.4541 30.627 67.0283 30.2402C67.6025 29.8418 68.2177 29.1328 68.874 28.1133L69.4716 28.5C68.581 30.3164 67.5966 31.6055 66.5185 32.3672C65.4404 33.1172 64.1923 33.4922 62.7744 33.4922C60.3369 33.4922 58.4912 32.5547 57.2373 30.6797C56.2295 29.168 55.7255 27.293 55.7255 25.0547C55.7255 22.3125 56.4638 20.1328 57.9404 18.5156C59.4287 16.8867 61.1689 16.0723 63.1611 16.0723C64.8252 16.0723 66.2666 16.7578 67.4853 18.1289C68.7158 19.4883 69.3779 21.5098 69.4716 24.1934ZM65.1474 23.0156C65.1474 21.1289 65.042 19.834 64.831 19.1309C64.6318 18.4277 64.3154 17.8945 63.8818 17.5312C63.6357 17.3203 63.3076 17.2148 62.8974 17.2148C62.288 17.2148 61.79 17.5137 61.4033 18.1113C60.7119 19.1543 60.3662 20.584 60.3662 22.4004V23.0156H65.1474ZM81.1407 16.5645V18.6914C81.9845 17.7773 82.793 17.1152 83.5665 16.7051C84.3399 16.2832 85.172 16.0723 86.0626 16.0723C87.129 16.0723 88.0137 16.3711 88.7169 16.9688C89.42 17.5547 89.8887 18.2871 90.1231 19.166C90.3106 19.834 90.4044 21.1172 90.4044 23.0156V29.4141C90.4044 30.6797 90.5157 31.4707 90.7384 31.7871C90.9727 32.0918 91.4532 32.2852 92.1798 32.3672V33H83.8653V32.3672C84.4864 32.2852 84.9317 32.0273 85.2012 31.5938C85.3887 31.3008 85.4825 30.5742 85.4825 29.4141V22.1016C85.4825 20.7539 85.4298 19.9043 85.3243 19.5527C85.2188 19.2012 85.0372 18.9316 84.7794 18.7441C84.5333 18.5449 84.2579 18.4453 83.9532 18.4453C82.9454 18.4453 82.0079 19.166 81.1407 20.6074V29.4141C81.1407 30.6445 81.252 31.4238 81.4747 31.752C81.7091 32.0801 82.1368 32.2852 82.7579 32.3672V33H74.4434V32.3672C75.1348 32.2969 75.627 32.0742 75.92 31.6992C76.1192 31.4414 76.2188 30.6797 76.2188 29.4141V20.1328C76.2188 18.8906 76.1016 18.1172 75.8673 17.8125C75.6446 17.5078 75.17 17.3086 74.4434 17.2148V16.5645H81.1407ZM107.734 16.1074L107.997 21.7148H107.4C106.685 20.0508 105.941 18.9141 105.167 18.3047C104.405 17.6953 103.644 17.3906 102.882 17.3906C102.402 17.3906 101.991 17.5547 101.652 17.8828C101.312 18.1992 101.142 18.5684 101.142 18.9902C101.142 19.3066 101.259 19.6113 101.493 19.9043C101.868 20.3848 102.917 21.2109 104.64 22.3828C106.362 23.543 107.493 24.5332 108.032 25.3535C108.583 26.1621 108.859 27.0703 108.859 28.0781C108.859 28.9922 108.63 29.8887 108.173 30.7676C107.716 31.6465 107.071 32.3203 106.239 32.7891C105.407 33.2578 104.487 33.4922 103.48 33.4922C102.695 33.4922 101.646 33.2461 100.333 32.7539C99.9816 32.625 99.7414 32.5605 99.6125 32.5605C99.2258 32.5605 98.9035 32.8535 98.6457 33.4395H98.0656L97.7844 27.5332H98.382C98.9094 29.0801 99.6301 30.2402 100.544 31.0137C101.47 31.7871 102.343 32.1738 103.163 32.1738C103.726 32.1738 104.183 32.0039 104.534 31.6641C104.898 31.3125 105.079 30.8906 105.079 30.3984C105.079 29.8359 104.904 29.3496 104.552 28.9395C104.2 28.5293 103.415 27.9082 102.196 27.0762C100.404 25.834 99.2434 24.8848 98.716 24.2285C97.9426 23.2676 97.5559 22.207 97.5559 21.0469C97.5559 19.7812 97.9894 18.6387 98.8566 17.6191C99.7355 16.5879 101.001 16.0723 102.654 16.0723C103.544 16.0723 104.405 16.2891 105.237 16.7227C105.554 16.8984 105.812 16.9863 106.011 16.9863C106.222 16.9863 106.392 16.9453 106.521 16.8633C106.65 16.7695 106.855 16.5176 107.136 16.1074H107.734ZM134.816 10.5352V20.3262H135.501C136.556 20.3262 137.417 20.168 138.085 19.8516C138.753 19.5352 139.316 19.002 139.773 18.252C140.242 17.502 140.546 16.4883 140.687 15.2109H141.302V27.1816H140.687C140.464 24.9199 139.855 23.4316 138.859 22.7168C137.874 21.9902 136.755 21.627 135.501 21.627H134.816V28.9219C134.816 30.1406 134.88 30.9023 135.009 31.207C135.15 31.5117 135.414 31.7812 135.8 32.0156C136.199 32.2383 136.732 32.3496 137.4 32.3496H138.191V33H125.728V32.3496H126.519C127.21 32.3496 127.767 32.2266 128.189 31.9805C128.494 31.8164 128.728 31.5352 128.892 31.1367C129.021 30.8555 129.085 30.1172 129.085 28.9219V13.2422C129.085 12.0234 129.021 11.2617 128.892 10.957C128.763 10.6523 128.499 10.3887 128.101 10.166C127.714 9.93164 127.187 9.81445 126.519 9.81445H125.728V9.16406H145.837V16.002H145.117C144.953 14.3965 144.531 13.207 143.851 12.4336C143.183 11.6602 142.21 11.1152 140.933 10.7988C140.23 10.623 138.929 10.5352 137.031 10.5352H134.816ZM164.942 24.1934H155.924C156.03 26.373 156.61 28.0957 157.665 29.3613C158.473 30.334 159.446 30.8203 160.583 30.8203C161.286 30.8203 161.924 30.627 162.499 30.2402C163.073 29.8418 163.688 29.1328 164.344 28.1133L164.942 28.5C164.051 30.3164 163.067 31.6055 161.989 32.3672C160.911 33.1172 159.663 33.4922 158.245 33.4922C155.807 33.4922 153.961 32.5547 152.708 30.6797C151.7 29.168 151.196 27.293 151.196 25.0547C151.196 22.3125 151.934 20.1328 153.411 18.5156C154.899 16.8867 156.639 16.0723 158.631 16.0723C160.295 16.0723 161.737 16.7578 162.956 18.1289C164.186 19.4883 164.848 21.5098 164.942 24.1934ZM160.618 23.0156C160.618 21.1289 160.512 19.834 160.301 19.1309C160.102 18.4277 159.786 17.8945 159.352 17.5312C159.106 17.3203 158.778 17.2148 158.368 17.2148C157.758 17.2148 157.26 17.5137 156.874 18.1113C156.182 19.1543 155.836 20.584 155.836 22.4004V23.0156H160.618ZM178.966 30.5742C176.963 32.3438 175.164 33.2285 173.57 33.2285C172.633 33.2285 171.853 32.9238 171.232 32.3145C170.611 31.6934 170.3 30.9199 170.3 29.9941C170.3 28.7402 170.84 27.6152 171.918 26.6191C172.996 25.6113 175.345 24.2754 178.966 22.6113V20.959C178.966 19.7168 178.896 18.9375 178.756 18.6211C178.627 18.293 178.375 18.0117 178 17.7773C177.625 17.5312 177.203 17.4082 176.734 17.4082C175.972 17.4082 175.345 17.5781 174.853 17.918C174.549 18.1289 174.396 18.375 174.396 18.6562C174.396 18.9023 174.56 19.207 174.888 19.5703C175.334 20.0742 175.556 20.5605 175.556 21.0293C175.556 21.6035 175.34 22.0957 174.906 22.5059C174.484 22.9043 173.927 23.1035 173.236 23.1035C172.498 23.1035 171.877 22.8809 171.373 22.4355C170.881 21.9902 170.634 21.4688 170.634 20.8711C170.634 20.0273 170.968 19.2246 171.636 18.4629C172.304 17.6895 173.236 17.0977 174.431 16.6875C175.627 16.2773 176.869 16.0723 178.158 16.0723C179.716 16.0723 180.947 16.4062 181.849 17.0742C182.763 17.7305 183.355 18.4453 183.625 19.2188C183.789 19.7109 183.871 20.8418 183.871 22.6113V28.9922C183.871 29.7422 183.9 30.2168 183.959 30.416C184.017 30.6035 184.105 30.7441 184.222 30.8379C184.34 30.9316 184.474 30.9785 184.627 30.9785C184.931 30.9785 185.242 30.7617 185.558 30.3281L186.086 30.75C185.5 31.6172 184.89 32.25 184.258 32.6484C183.636 33.0352 182.927 33.2285 182.131 33.2285C181.193 33.2285 180.461 33.0117 179.933 32.5781C179.406 32.1328 179.084 31.4648 178.966 30.5742ZM178.966 29.291V23.7891C177.549 24.6211 176.494 25.5117 175.802 26.4609C175.345 27.0938 175.117 27.7324 175.117 28.377C175.117 28.916 175.31 29.3906 175.697 29.8008C175.99 30.1172 176.4 30.2754 176.927 30.2754C177.513 30.2754 178.193 29.9473 178.966 29.291ZM197.298 10.5527V16.5645H201.2V18.3047H197.298V28.4473C197.298 29.3965 197.339 30.0117 197.421 30.293C197.514 30.5625 197.673 30.7852 197.895 30.9609C198.118 31.125 198.323 31.207 198.511 31.207C199.272 31.207 199.993 30.627 200.673 29.4668L201.2 29.8535C200.251 32.1035 198.71 33.2285 196.577 33.2285C195.534 33.2285 194.649 32.9414 193.923 32.3672C193.208 31.7812 192.751 31.1309 192.552 30.416C192.434 30.0176 192.376 28.9395 192.376 27.1816V18.3047H190.231V17.6895C191.708 16.6465 192.962 15.5508 193.993 14.4023C195.036 13.2539 195.944 11.9707 196.718 10.5527H197.298ZM221.517 16.5645V29.4316C221.517 30.6855 221.635 31.4707 221.869 31.7871C222.103 32.0918 222.578 32.2852 223.293 32.3672V33H216.596V30.8027C215.81 31.7402 215.025 32.4258 214.24 32.8594C213.455 33.2812 212.576 33.4922 211.603 33.4922C210.678 33.4922 209.851 33.2109 209.125 32.6484C208.41 32.0742 207.93 31.4062 207.684 30.6445C207.437 29.8828 207.314 28.5527 207.314 26.6543V20.1328C207.314 18.8906 207.197 18.1172 206.963 17.8125C206.74 17.5078 206.266 17.3086 205.539 17.2148V16.5645H212.236V27.7969C212.236 28.9688 212.289 29.7246 212.394 30.0645C212.512 30.4043 212.687 30.6621 212.922 30.8379C213.168 31.0137 213.449 31.1016 213.766 31.1016C214.187 31.1016 214.568 30.9902 214.908 30.7676C215.377 30.4629 215.939 29.8477 216.596 28.9219V20.1328C216.596 18.8906 216.478 18.1172 216.244 17.8125C216.021 17.5078 215.547 17.3086 214.82 17.2148V16.5645H221.517ZM235.384 16.5645V20.291C236.474 18.5918 237.429 17.4668 238.249 16.916C239.069 16.3535 239.86 16.0723 240.622 16.0723C241.278 16.0723 241.8 16.2773 242.187 16.6875C242.585 17.0859 242.784 17.6543 242.784 18.3926C242.784 19.1777 242.591 19.7871 242.204 20.2207C241.829 20.6543 241.372 20.8711 240.833 20.8711C240.212 20.8711 239.673 20.6719 239.216 20.2734C238.759 19.875 238.489 19.6523 238.407 19.6055C238.29 19.5352 238.155 19.5 238.003 19.5C237.663 19.5 237.341 19.6289 237.036 19.8867C236.556 20.2852 236.192 20.8535 235.946 21.5918C235.571 22.7285 235.384 23.9824 235.384 25.3535V29.1328L235.401 30.1172C235.401 30.7852 235.442 31.2129 235.524 31.4004C235.665 31.7168 235.87 31.9512 236.14 32.1035C236.421 32.2441 236.89 32.332 237.546 32.3672V33H228.669V32.3672C229.384 32.3086 229.864 32.1152 230.11 31.7871C230.368 31.4473 230.497 30.5625 230.497 29.1328V20.0449C230.497 19.1074 230.45 18.5098 230.356 18.252C230.239 17.9238 230.069 17.6836 229.847 17.5312C229.624 17.3789 229.231 17.2734 228.669 17.2148V16.5645H235.384ZM260.694 24.1934H251.676C251.781 26.373 252.361 28.0957 253.416 29.3613C254.225 30.334 255.197 30.8203 256.334 30.8203C257.037 30.8203 257.676 30.627 258.25 30.2402C258.824 29.8418 259.44 29.1328 260.096 28.1133L260.694 28.5C259.803 30.3164 258.819 31.6055 257.74 32.3672C256.662 33.1172 255.414 33.4922 253.996 33.4922C251.559 33.4922 249.713 32.5547 248.459 30.6797C247.451 29.168 246.947 27.293 246.947 25.0547C246.947 22.3125 247.686 20.1328 249.162 18.5156C250.651 16.8867 252.391 16.0723 254.383 16.0723C256.047 16.0723 257.488 16.7578 258.707 18.1289C259.938 19.4883 260.6 21.5098 260.694 24.1934ZM256.369 23.0156C256.369 21.1289 256.264 19.834 256.053 19.1309C255.854 18.4277 255.537 17.8945 255.104 17.5312C254.858 17.3203 254.529 17.2148 254.119 17.2148C253.51 17.2148 253.012 17.5137 252.625 18.1113C251.934 19.1543 251.588 20.584 251.588 22.4004V23.0156H256.369Z" fill="black"/>
<path d="M10.9842 32C10.9842 22.2222 9.76377 21 0 21C9.76377 21 10.9842 19.7778 10.9842 10C10.9842 19.7778 12.2047 21 21.9685 21C12.2047 21 10.9842 22.2222 10.9842 32Z" fill="black"/>
<path d="M277.984 32C277.984 22.2222 276.764 21 267 21C276.764 21 277.984 19.7778 277.984 10C277.984 19.7778 279.205 21 288.968 21C279.205 21 277.984 22.2222 277.984 32Z" fill="black"/>
</svg>
