<?xml version="1.0" encoding="UTF-8"?>
<svg id="_レイヤー_2" data-name="レイヤー 2" xmlns="http://www.w3.org/2000/svg" viewBox="0 0 175.49 32.44">
  <g id="image">
    <g>
      <g>
        <path d="m53.09,16.2l-.91,8.46h-21.39v-.66h.8c.7,0,1.26-.12,1.69-.37.31-.17.54-.45.71-.85.13-.28.2-1.03.2-2.24V4.69c0-1.23-.07-2-.2-2.31-.13-.31-.39-.58-.79-.81s-.93-.35-1.61-.35h-.8v-.66h12.85v.66h-1.05c-.7,0-1.26.12-1.69.37-.31.17-.55.45-.73.85-.13.28-.2,1.03-.2,2.24v15.35c0,1.23.07,2.02.21,2.35s.42.59.84.76c.3.11,1.01.16,2.15.16h2.01c1.28,0,2.35-.22,3.2-.68.85-.45,1.59-1.16,2.21-2.13.62-.97,1.21-2.4,1.77-4.3h.73Z"/>
        <path d="m63.92,8.05v13.16c0,1.17.14,1.92.41,2.25.27.33.81.51,1.6.56v.64h-8.97v-.64c.73-.02,1.28-.24,1.63-.64.24-.27.36-.99.36-2.17v-9.7c0-1.17-.14-1.92-.41-2.25-.27-.33-.8-.51-1.58-.56v-.66h6.96Zm-2.49-8.05c.77,0,1.42.27,1.95.81.53.54.8,1.19.8,1.95s-.27,1.4-.81,1.94-1.19.8-1.95.8-1.4-.27-1.94-.8c-.53-.53-.8-1.18-.8-1.94s.27-1.41.8-1.95c.53-.54,1.18-.81,1.94-.81Z"/>
        <path d="m76.15,8.05v2.15c.85-.92,1.67-1.6,2.45-2.02.78-.42,1.62-.63,2.52-.63,1.08,0,1.97.3,2.68.9.71.6,1.18,1.34,1.42,2.23.19.68.28,1.97.28,3.89v6.47c0,1.28.12,2.08.35,2.39.23.31.71.51,1.45.6v.64h-8.4v-.64c.63-.08,1.08-.34,1.35-.78.19-.3.28-1.03.28-2.2v-7.39c0-1.36-.05-2.22-.16-2.58s-.29-.63-.54-.83c-.26-.2-.54-.29-.84-.29-1.02,0-1.97.73-2.84,2.19v8.9c0,1.24.12,2.03.35,2.36.23.33.66.54,1.29.62v.64h-8.4v-.64c.7-.07,1.2-.3,1.49-.68.2-.26.3-1.03.3-2.31v-9.38c0-1.26-.12-2.04-.35-2.35-.23-.31-.71-.51-1.45-.6v-.66h6.77Z"/>
        <path d="m105.49,15.76h-9.11c.11,2.2.69,3.94,1.76,5.22.82.98,1.8,1.47,2.95,1.47.71,0,1.36-.2,1.94-.6.58-.4,1.2-1.11,1.87-2.14l.6.39c-.9,1.84-1.89,3.14-2.98,3.9s-2.35,1.15-3.78,1.15c-2.46,0-4.33-.95-5.6-2.84-1.02-1.53-1.53-3.42-1.53-5.69,0-2.77.75-4.98,2.25-6.62,1.5-1.64,3.25-2.46,5.27-2.46,1.68,0,3.14.69,4.38,2.07,1.24,1.38,1.9,3.43,2,6.14Zm-4.37-1.19c0-1.91-.1-3.22-.31-3.93s-.53-1.25-.97-1.62c-.25-.21-.58-.32-.99-.32-.62,0-1.12.3-1.51.91-.7,1.05-1.05,2.5-1.05,4.33v.62h4.83Z"/>
        <path d="m125.43,8.05v13c0,1.27.12,2.06.36,2.37.24.31.72.51,1.44.6v.64h-6.77v-2.22c-.79.95-1.59,1.64-2.38,2.07-.79.43-1.68.65-2.67.65s-1.77-.29-2.5-.86c-.73-.57-1.22-1.25-1.47-2.02-.25-.77-.37-2.11-.37-4.03v-6.59c0-1.26-.12-2.04-.35-2.35-.23-.31-.71-.51-1.45-.6v-.66h6.77v11.35c0,1.18.06,1.95.17,2.29.11.34.29.6.53.78.24.18.52.27.84.27.43,0,.81-.11,1.15-.34.47-.31,1.04-.93,1.71-1.87v-8.88c0-1.26-.12-2.04-.35-2.35-.23-.31-.71-.51-1.45-.6v-.66h6.77Z"/>
        <path d="m137.87,22.97v6.18c0,.85.07,1.43.2,1.74.14.31.35.53.63.68s.84.21,1.67.21v.66h-9.47v-.66c.73-.02,1.28-.23,1.63-.62.24-.27.36-.98.36-2.11V11.51c0-1.17-.14-1.92-.41-2.25-.27-.33-.8-.51-1.58-.56v-.66h6.96v2.19c.58-.85,1.17-1.47,1.78-1.85.86-.56,1.81-.84,2.82-.84,1.22,0,2.33.39,3.33,1.15,1,.77,1.76,1.83,2.28,3.19.52,1.36.78,2.82.78,4.38,0,1.68-.27,3.22-.81,4.61-.54,1.39-1.32,2.45-2.35,3.18s-2.16,1.09-3.42,1.09c-.91,0-1.77-.2-2.56-.6-.59-.31-1.21-.84-1.87-1.58Zm0-1.79c1.02,1.45,2.11,2.17,3.27,2.17.64,0,1.17-.34,1.58-1.01.62-.99.92-2.89.92-5.69s-.34-4.83-1.01-5.88c-.45-.7-1.05-1.05-1.81-1.05-1.2,0-2.18.86-2.95,2.59v8.87Z"/>
      </g>
      <path d="m10,23.18c0-8.89-1.11-10-10-10,8.89,0,10-1.11,10-10,0,8.89,1.11,10,10,10-8.89,0-10,1.11-10,10Z"/>
      <path d="m165.5,23.18c0-8.89-1.11-10-10-10,8.89,0,10-1.11,10-10,0,8.89,1.11,10,10,10-8.89,0-10,1.11-10,10Z"/>
    </g>
  </g>
</svg>