<svg xmlns="http://www.w3.org/2000/svg" width="1249" height="64.541" viewBox="0 0 1249 64.541">
  <g id="グループ_888" data-name="グループ 888" transform="translate(-96.804 -2534.377)">
    <path id="パス_190" data-name="パス 190" d="M1288.6,2134.418h-221.08a30.771,30.771,0,0,1,0-61.541H1288.6a30.771,30.771,0,0,1,0,61.541Z" transform="translate(-234.118 463)" fill="none" stroke="#5c8291" stroke-miterlimit="10" stroke-width="3"/>
    <path id="パス_191" data-name="パス 191" d="M1094.794,2101.643a.489.489,0,0,0-.24.068c-1.062.856-5.514,4.144-6.644,4.144-.925,0-2.055-1.815-2.055-2.363,0-.411.652-.719,1.028-.89a38.755,38.755,0,0,0,10.445-7.74,18.662,18.662,0,0,0,2.294-2.911.739.739,0,0,1,.651-.445c.343,0,2.774.582,3.288.719.274.069.65.24.65.583,0,.205-.205.342-.377.411a.32.32,0,0,0-.171.24.177.177,0,0,0,.068.137,33.8,33.8,0,0,0,12.328,9.007c.309.137.787.308.787.719,0,.479-1.062,2.6-1.78,2.6-1.028,0-6.13-3.458-7.192-4.212a.3.3,0,0,0-.205-.1c-.206,0-.274.172-.308.343-.035.514-.1.788-.685.788-.821,0-1.781-.069-2.74-.069h-5.445c-.925,0-1.952.069-2.705.069-.582,0-.685-.24-.72-.788-.034-.171-.1-.308-.273-.308m.171,19.418c-.445,0-.616.205-.616.651v.1c0,.788-.549.754-1.919.754-1.3,0-1.815,0-1.815-.754,0-.445.1-1.438.1-2.123v-5.034c0-.651-.068-1.335-.068-1.986,0-1.336,1.165-1.472,2.226-1.472.959,0,1.918.068,2.877.068h6.85a1.408,1.408,0,0,0,1.4-.719,15.884,15.884,0,0,0,1.644-2.774c0-.445-.787-.377-1.095-.377h-8.87c-1.267,0-2.6.1-3.63.1-.822,0-.788-.446-.788-1.576,0-.959,0-1.4.788-1.4.857,0,2.3.1,3.63.1h9.658c.993,0,1.952-.068,2.945-.068a2.319,2.319,0,0,1,2.157,1.575c0,.753-1.849,3.6-2.329,4.349a.478.478,0,0,0-.1.308c0,.308.24.411.514.411h.959c1.027,0,2.157.17,2.157,1.438,0,.684-.068,1.335-.068,2.02v5.034c0,.445.1,1.61.1,2.089,0,.822-.514.787-1.849.787-1.3,0-1.816.034-1.816-.754v-.1c0-.446-.205-.651-.616-.651Zm13.116-6.028a.979.979,0,0,0-.958-.958H1095.2a.979.979,0,0,0-.959.958v2.26a.98.98,0,0,0,.959.96h11.918a.98.98,0,0,0,.958-.96Zm-6.849-19.178a.9.9,0,0,0-.616.308,41.212,41.212,0,0,1-3.254,3.219.512.512,0,0,0-.137.308c0,.24.172.309.376.343h7.193c.171-.034.376-.1.376-.343a.388.388,0,0,0-.1-.273,35.8,35.8,0,0,1-3.219-3.219.939.939,0,0,0-.616-.343" transform="translate(-241.774 460.095)" fill="#5c8291"/>
    <path id="パス_192" data-name="パス 192" d="M1134.11,2103.369c-1.13,0-2.26.068-3.391.068-.788,0-.788-.411-.788-1.746,0-1.37,0-1.781.788-1.781,1.13,0,2.26.069,3.391.069h5.308a1.545,1.545,0,0,1,1.507.651,2.034,2.034,0,0,1,.479,1.3,10.442,10.442,0,0,1-.514,2.226,31.785,31.785,0,0,1-4.349,9.178c-.753,1.062-4.075,5.171-5.308,5.171-.718,0-2.363-1.3-2.363-2.021,0-.343.343-.582.616-.787a23.993,23.993,0,0,0,5.685-6.781c.48-.856,2.055-4.143,2.055-5,0-.617-.617-.549-1.507-.549Zm14.9.343a.778.778,0,0,0,.548-.205,36.992,36.992,0,0,0,4.966-5.138c.137-.136.308-.376.514-.376a18.171,18.171,0,0,1,2.877,1.918c.171.137.513.445.513.685a.453.453,0,0,1-.445.445c-.172,0-.308-.034-.479-.034a.7.7,0,0,0-.515.205,60.606,60.606,0,0,1-5.684,5.24.973.973,0,0,0-.412.719,1.084,1.084,0,0,0,.206.548,31.172,31.172,0,0,0,7.843,7.74c.273.172.65.41.65.753,0,.514-1.507,2.329-2.363,2.329-.65,0-2.705-1.814-3.287-2.329a32.809,32.809,0,0,1-7.5-10.206c-.068-.068-.1-.137-.205-.137-.138,0-.206.1-.206.24v9.9c0,.924.068,1.849.068,2.74,0,3.664-3.219,3.869-6.1,3.869-.788,0-1.438,0-1.746-.719a8.455,8.455,0,0,1-.377-2.26c0-.549.172-.857.754-.857.411,0,1.2.1,1.952.1,2.055,0,1.986-.685,1.986-2.774v-19.692c0-1.2-.034-2.432-.137-3.459,0-.1-.034-.308-.034-.446,0-.376.24-.479.582-.479.582,0,2.6.171,3.254.24.274.034.821.068.821.445,0,.24-.24.343-.548.548-.411.308-.479.926-.479,2.089v1.918a3.112,3.112,0,0,0,.206,1.233,46.378,46.378,0,0,0,2.157,4.795c.172.206.343.411.616.411" transform="translate(-248.481 460.013)" fill="#5c8291"/>
    <path id="パス_193" data-name="パス 193" d="M1190.1,2113.493h7.534c1.336,0,2.706-.1,4.042-.1.821,0,.821.343.821,1.61s0,1.609-.821,1.609c-1.335,0-2.705-.068-4.042-.068h-7.568c-.652,0-.925.274-.925.925v.651c0,1.164.068,2.362.068,3.527,0,1.1-.41,1.13-1.814,1.13-1.439,0-1.85-.035-1.85-1.1,0-1.2.069-2.4.069-3.561v-.651c0-.651-.274-.925-.924-.925h-7.569c-1.335,0-2.672.068-4.041.068-.822,0-.787-.342-.787-1.609,0-1.3,0-1.61.787-1.61,1.37,0,2.706.1,4.041.1h7.569c.615,0,.89-.274.924-.925-.035-.308-.1-1.027-.1-1.13,0-.343.24-.48.582-.48.411,0,2.808.24,3.321.274.275.034.583.1.583.411,0,.274-.24.377-.445.513a.834.834,0,0,0-.377.685c.069.513.446.651.925.651m-9.521-7.021c0,.719-.067.822-.513,1.027-1.474.719-2.808,1.3-4.486,2.021-.548.24-.72.274-.856.684-.068.206-.206.377-.411.377-.274,0-.376-.274-.549-.651-.308-.617-.547-1.267-.821-1.918a1.3,1.3,0,0,1-.171-.514c0-.273.206-.273.719-.411a43.843,43.843,0,0,0,5.822-2.329,1.347,1.347,0,0,1,.479-.171c.651,0,.787,1.438.787,1.884m.172,4.931c-.1.206-.24.377-.48.377-.308,0-.445-.377-.514-.617a22.381,22.381,0,0,1-.649-2.465c0-.342.239-.376,1.78-.41.822,0,1.4.068,2.02-.617.172-.206.377-.411.548-.616a1.068,1.068,0,0,0,.24-.616.825.825,0,0,0-.343-.651c-.993-.857-2.021-1.61-3.082-2.364-.205-.136-.616-.376-.616-.685,0-.376.685-1.232.924-1.541.377-.446.582-.479.822-.411a1.56,1.56,0,0,0,.548.1.672.672,0,0,0,.582-.307c.376-.582.72-1.165,1.062-1.747a.56.56,0,0,0,.1-.308c0-.376-.274-.479-.582-.514H1177.7c-1.37,0-2.705.069-4.075.069-.821,0-.787-.343-.787-1.542,0-1.233-.035-1.576.821-1.576,1.335,0,2.671.068,4.041.068h6.953c.616,0,.924-.239.959-.89-.035-.514-.069-1.028-.137-1.507a.863.863,0,0,1-.034-.274c0-.377.377-.411.651-.411.616,0,2.4.137,3.082.205.377.034.788.069.788.411,0,.274-.24.377-.446.479-.376.206-.343.548-.343,1.1,0,.651.308.89.925.89h7.055c1.335,0,2.705-.068,4.041-.068.822,0,.822.377.822,1.576,0,1.232,0,1.542-.822,1.542-1.335,0-2.706-.069-4.041-.069h-10.206c-.068,0-.137.034-.137.1a.073.073,0,0,0,.068.068c.24.137.788.411.788.685s-.342.275-.513.275c-.24.034-.274.034-.446.274-.65.924-1.4,2.089-2.123,2.979a.626.626,0,0,0-.171.411c0,.171.138.308.24.445a3.569,3.569,0,0,1,.411.343,1.066,1.066,0,0,0,.617.24.828.828,0,0,0,.65-.343c.72-.992,1.37-1.918,2.021-2.98.1-.137.206-.308.411-.308.272,0,2.945,1.473,2.945,1.849s-.411.411-.65.411c-.378,0-.344.035-.549.24a56.852,56.852,0,0,1-3.767,4.589.644.644,0,0,0-.1.273.334.334,0,0,0,.377.343c.958-.1,1.952-.171,2.911-.24.273-.068.514-.206.514-.513,0-.24-.241-.48-.376-.685a3.051,3.051,0,0,1-.479-.959c0-.514,1.609-1.2,2.02-1.2a.908.908,0,0,1,.754.548c.685.959,1.3,1.849,1.883,2.843a15.847,15.847,0,0,1,1.473,2.808c0,.548-1.678,1.267-2.191,1.267-.48,0-.583-.445-.822-.891a1.043,1.043,0,0,0-.994-.685h-.24c-3.459.377-6.883.685-10.342.925-.2,0-.273.1-.376.274m-3.494-7.226c-.308,0-.994-.788-1.2-1.026-.479-.48-1.643-1.473-2.193-1.919-.2-.136-.581-.376-.581-.684,0-.274,1.3-1.849,1.849-1.849.446,0,1.85,1.3,2.26,1.678.308.274,1.714,1.473,1.714,1.85,0,.513-1.233,1.951-1.85,1.951m24.007-2.637a.8.8,0,0,1-.308-.068,1.075,1.075,0,0,0-.274-.068.849.849,0,0,0-.377.137c-.924.446-4.452,2.158-5.307,2.158-.891,0-1.507-1.747-1.507-2.055,0-.445.479-.548,1.095-.754a24.892,24.892,0,0,0,4.761-2.191,1.192,1.192,0,0,1,.479-.205c.412,0,1.747,2.6,1.747,2.739a.287.287,0,0,1-.308.308m-1.952,4.76c.445.24,2.26,1.131,2.26,1.645,0,.411-1.027,2.088-1.575,2.088a1.331,1.331,0,0,1-.719-.376,50.105,50.105,0,0,0-4.8-2.67c-.342-.172-.787-.343-.787-.754,0-.24.65-1.953,1.231-1.953a30.584,30.584,0,0,1,4.384,2.02" transform="translate(-255.252 460.026)" fill="#5c8291"/>
    <path id="パス_194" data-name="パス 194" d="M1238.68,2107.819q0,.154.513.308a5.362,5.362,0,0,1,3.938,5.412c0,3.8-2.808,7.6-10.273,7.6a16.021,16.021,0,0,1-6.4-1.233c-.514-.24-.719-.446-.719-.788a1.55,1.55,0,0,1,.137-.616l.583-1.678c.171-.479.308-.719.582-.719a1.727,1.727,0,0,1,.651.274,10.435,10.435,0,0,0,5.308,1.335c4.041,0,6.061-2.089,6.061-4.246,0-2.364-1.986-3.562-6.4-3.562-.753,0-1.952.035-2.293.035-.891,0-1.028-.137-1.028-.994v-1.541c0-.891.137-1.027,1.028-1.027.377,0,1.3.034,1.952.034,4.144,0,5.685-1.473,5.685-3.357,0-1.849-1.678-3.013-4.315-3.013a8.981,8.981,0,0,0-4.794,1.336,1.4,1.4,0,0,1-.685.308c-.24,0-.41-.206-.616-.686l-.754-1.575a1.815,1.815,0,0,1-.205-.685c0-.309.205-.48.685-.72a14.792,14.792,0,0,1,6.781-1.61c5.616,0,7.911,2.843,7.911,5.925a5.559,5.559,0,0,1-2.877,5.1c-.274.137-.445.274-.445.377" transform="translate(-263.586 459.33)" fill="#5c8291"/>
    <path id="パス_195" data-name="パス 195" d="M1267.385,2108.04c0,.137.171.274.514.446,2.534,1.267,4.554,3.014,4.554,6.061,0,3.9-3.185,6.678-9.966,6.678-5.411,0-9.281-2.329-9.281-6.37,0-2.6,1.541-4.727,4.383-6.165.343-.171.513-.308.513-.445s-.171-.274-.479-.479c-1.952-1.165-3.391-2.808-3.391-5.342,0-3.288,3.048-6.131,8.869-6.131,5.308,0,8.391,2.534,8.391,5.822,0,2.26-1.335,4.11-3.63,5.446-.308.17-.479.342-.479.479m-5.1,1.884a2.306,2.306,0,0,0-.958.24c-2.6,1.1-4.144,2.465-4.144,4.417,0,2.158,2.362,3.322,5.479,3.322,3.424,0,5.753-1.232,5.753-3.458,0-2.089-2.123-3.151-5.205-4.316a2.681,2.681,0,0,0-.925-.205m.685-10.206c-2.672,0-4.692,1.062-4.692,2.808,0,1.781,1.747,2.74,4.111,3.7a2.811,2.811,0,0,0,.924.24,2.415,2.415,0,0,0,.959-.274c2.089-.993,3.253-2.191,3.253-3.733,0-1.713-1.952-2.74-4.555-2.74" transform="translate(-267.87 459.349)" fill="#5c8291"/>
    <path id="パス_196" data-name="パス 196" d="M1294.719,2103.271c0,4.726-2.637,7.431-6.3,7.431-3.356,0-5.993-2.5-5.993-6.884,0-4.451,2.4-7.363,6.37-7.363,3.321,0,5.924,2.432,5.924,6.816m-8.835.616c0,2.4,1.1,3.664,2.568,3.664,1.712,0,2.843-1.472,2.843-4.075,0-2.364-1.062-3.7-2.6-3.7-1.816,0-2.808,1.678-2.808,4.11m3.938,17.021c-.514,0-.754-.068-.754-.309a1.581,1.581,0,0,1,.2-.616c.583-1.1,1.165-2.26,1.713-3.322l7.808-15.754c.515-1.027,1.062-2.192,1.576-3.322.343-.787.548-.924,1.438-.924h1.815c.515,0,.754.068.754.308a1.474,1.474,0,0,1-.205.582c-.617,1.2-1.233,2.4-1.747,3.459l-7.774,15.685c-.513,1.1-1.062,2.192-1.575,3.288-.376.787-.548.925-1.438.925Zm21.164-7.226c0,4.726-2.637,7.431-6.3,7.431-3.356,0-5.993-2.5-5.993-6.883,0-4.452,2.4-7.363,6.369-7.363,3.322,0,5.925,2.43,5.925,6.815m-8.836.616c0,2.4,1.1,3.664,2.568,3.664,1.712,0,2.842-1.472,2.842-4.075,0-2.363-1.062-3.7-2.6-3.7-1.815,0-2.808,1.678-2.808,4.11" transform="translate(-272.426 459.323)" fill="#5c8291"/>
    <path id="パス_197" data-name="パス 197" d="M1603.292,2134.418H1424.356a30.771,30.771,0,0,1,0-61.541h178.936a30.771,30.771,0,0,1,0,61.541Z" transform="translate(-289.759 463)" fill="none" stroke="#5c8291" stroke-miterlimit="10" stroke-width="3"/>
    <path id="パス_198" data-name="パス 198" d="M1444.1,2120.933c-1.61,0-4.315.068-4.555.068-.72,0-.959-.239-.959-.958,0-.24.068-3.938.068-5.856v-10.754c0-1.677-.068-5.137-.068-5.719,0-.822.2-1.1.959-1.1.376,0,2.945.068,4.555.068h2.637c4.932,0,7.842,1.3,7.842,5.479a5.9,5.9,0,0,1-2.226,5.172c-.274.206-.446.343-.446.445,0,.172.171.274.548.411,1.986.789,3.288,2.5,3.288,5.309,0,5.1-3.391,7.431-8.9,7.431Zm-1.575-15.376c0,.857.171,1.028,1.027,1.028h2.74c2.534,0,4.349-.959,4.349-3.7,0-2.26-1.848-2.842-3.938-2.842h-3.15c-.857,0-1.027.171-1.027,1.027Zm0,11.062c0,.856.171,1.027,1.027,1.027h3.219c2.843,0,4.932-1.335,4.932-4.177,0-2.6-1.678-3.6-4.315-3.6h-3.835c-.857,0-1.027.171-1.027,1.028Z" transform="translate(-296.777 459.298)" fill="#5c8291"/>
    <path id="パス_199" data-name="パス 199" d="M1483.517,2119.3c0,.308-.24.479-.754.719a15.028,15.028,0,0,1-5.788,1.1c-7.088,0-11.644-4.726-11.644-11.746,0-7.157,4.349-12.911,12.911-12.911a13.435,13.435,0,0,1,4.932.855c.513.205.753.377.753.686a2.025,2.025,0,0,1-.171.65L1483,2100.7c-.206.513-.308.719-.583.719a1.807,1.807,0,0,1-.684-.206,9.243,9.243,0,0,0-3.664-.788c-5.686,0-8.6,4.007-8.6,8.836s3.049,8.117,7.945,8.117a8.926,8.926,0,0,0,3.973-.857,1.618,1.618,0,0,1,.685-.239c.274,0,.41.205.616.719l.651,1.644a2.024,2.024,0,0,1,.171.651" transform="translate(-300.947 459.323)" fill="#5c8291"/>
    <path id="パス_200" data-name="パス 200" d="M1518.71,2108.04c0,.137.171.274.514.446,2.535,1.267,4.555,3.014,4.555,6.061,0,3.9-3.184,6.678-9.966,6.678-5.411,0-9.28-2.329-9.28-6.37,0-2.6,1.542-4.727,4.383-6.165.343-.171.513-.308.513-.445s-.171-.274-.479-.479c-1.952-1.165-3.39-2.808-3.39-5.342,0-3.288,3.047-6.131,8.87-6.131,5.308,0,8.39,2.534,8.39,5.822,0,2.26-1.334,4.11-3.63,5.446-.308.17-.479.342-.479.479m-5.1,1.884a2.3,2.3,0,0,0-.958.24c-2.6,1.1-4.144,2.465-4.144,4.417,0,2.158,2.361,3.322,5.478,3.322,3.424,0,5.754-1.232,5.754-3.458,0-2.089-2.124-3.151-5.205-4.316a2.691,2.691,0,0,0-.925-.205m.685-10.206c-2.671,0-4.693,1.062-4.693,2.808,0,1.781,1.748,2.74,4.111,3.7a2.823,2.823,0,0,0,.924.24,2.413,2.413,0,0,0,.96-.274c2.089-.993,3.253-2.191,3.253-3.733,0-1.713-1.951-2.74-4.555-2.74" transform="translate(-307.059 459.349)" fill="#5c8291"/>
    <path id="パス_201" data-name="パス 201" d="M1539.083,2121.946a2.606,2.606,0,0,1-2.706,2.774,2.339,2.339,0,0,1-2.466-2.4,2.6,2.6,0,0,1,2.74-2.739,2.321,2.321,0,0,1,2.432,2.363" transform="translate(-311.64 455.717)" fill="#5c8291"/>
    <path id="パス_202" data-name="パス 202" d="M1552.424,2106.552a11.216,11.216,0,0,1,5.513-1.472c4.041,0,7.705,2.328,7.705,7.328,0,5.377-4.144,8.733-9.453,8.733-5.855,0-9.212-3.9-9.212-9.554a15.8,15.8,0,0,1,4.315-11.37,14.819,14.819,0,0,1,9.623-3.8c.685,0,.822.172.822.96v1.781c0,.89-.137,1.027-1.028,1.129a11.38,11.38,0,0,0-7.192,3.185,7.854,7.854,0,0,0-1.986,3.322.126.126,0,0,0,.137.138,1.835,1.835,0,0,0,.754-.377m-.651,3.63a1.891,1.891,0,0,0-.925,1.849c0,3.391,2.157,5.685,5.514,5.685s5.377-2.294,5.377-5c0-2.4-1.747-4.247-4.76-4.247a8.928,8.928,0,0,0-5.205,1.712" transform="translate(-313.678 459.33)" fill="#5c8291"/>
    <path id="パス_203" data-name="パス 203" d="M1580.3,2116.662c0,1.541.068,4.383.068,4.624,0,.719-.205.856-.994.856h-1.985c-.788,0-.993-.137-.993-.856,0-.24.068-3.083.068-4.624v-6.61c0-1.541-.068-4.384-.068-4.623,0-.719.205-.856.993-.856h1.678c.787,0,.924.137.959.924.034.446.1.651.273.651a1.044,1.044,0,0,0,.513-.24,7.381,7.381,0,0,1,4.555-1.541,5.436,5.436,0,0,1,4.11,1.643c.308.343.479.513.686.513.171,0,.342-.137.685-.411a8.447,8.447,0,0,1,5.137-1.745c3.391,0,5.65,2.328,5.65,6.129v6.164c0,1.541.068,4.383.068,4.624,0,.719-.205.856-.993.856h-1.987c-.787,0-.993-.137-.993-.856,0-.24.068-3.083.068-4.624v-5.1c0-2.089-.993-3.494-3.116-3.494a4.888,4.888,0,0,0-3.013,1.1,1.288,1.288,0,0,0-.652,1.335v6.164c0,1.541.069,4.383.069,4.624,0,.719-.206.856-.993.856h-1.986c-.788,0-.993-.137-.993-.856,0-.24.068-3.083.068-4.624v-5.1c0-2.089-.993-3.494-3.116-3.494a4.981,4.981,0,0,0-3.013,1.062,1.646,1.646,0,0,0-.754,1.542Z" transform="translate(-318.265 458.09)" fill="#5c8291"/>
    <path id="パス_204" data-name="パス 204" d="M1618.367,2116.662c0,1.541.068,4.383.068,4.624,0,.719-.205.856-.993.856h-1.985c-.788,0-.993-.137-.993-.856,0-.24.068-3.083.068-4.624v-6.61c0-1.541-.068-4.384-.068-4.623,0-.719.205-.856.993-.856h1.678c.787,0,.924.137.959.924.034.446.1.651.273.651a1.044,1.044,0,0,0,.513-.24,7.38,7.38,0,0,1,4.555-1.541,5.437,5.437,0,0,1,4.11,1.643c.308.343.479.513.685.513.171,0,.342-.137.684-.411a8.448,8.448,0,0,1,5.137-1.745c3.391,0,5.65,2.328,5.65,6.129v6.164c0,1.541.068,4.383.068,4.624,0,.719-.2.856-.993.856h-1.987c-.787,0-.993-.137-.993-.856,0-.24.068-3.083.068-4.624v-5.1c0-2.089-.993-3.494-3.116-3.494a4.888,4.888,0,0,0-3.013,1.1,1.289,1.289,0,0,0-.651,1.335v6.164c0,1.541.069,4.383.069,4.624,0,.719-.206.856-.993.856h-1.986c-.788,0-.993-.137-.993-.856,0-.24.068-3.083.068-4.624v-5.1c0-2.089-.993-3.494-3.116-3.494a4.981,4.981,0,0,0-3.013,1.062,1.646,1.646,0,0,0-.754,1.542Z" transform="translate(-324.201 458.09)" fill="#5c8291"/>
    <path id="パス_205" data-name="パス 205" d="M475.309,2134.418H233.075a30.771,30.771,0,0,1,0-61.541H475.309a30.771,30.771,0,0,1,0,61.541Z" transform="translate(-104 463)" fill="none" stroke="#5c8291" stroke-miterlimit="10" stroke-width="3"/>
    <path id="パス_206" data-name="パス 206" d="M263.8,2120.334c-1.61,0-4.315.068-4.555.068-.754,0-.96-.273-.96-1.1.035-1.918.068-4.075.068-5.719v-10.754c0-1.678-.034-3.732-.068-5.719,0-.822.206-1.1.96-1.1.24,0,2.945.068,4.555.068h4.212c6.781,0,10.823,3.767,10.823,11.4,0,7.98-4.384,12.843-11.918,12.843Zm-1.473-4.555c0,.856.171,1.027,1.027,1.027h3.459c5.377,0,7.98-3.664,7.98-9.109,0-4.624-2.192-7.912-7.158-7.912h-4.281c-.856,0-1.027.172-1.027,1.028Z" transform="translate(-112.729 459.391)" fill="#5c8291"/>
    <path id="パス_207" data-name="パス 207" d="M291.332,2120.346c-.787,0-.993-.137-.993-.856,0-.24.1-4.007.1-5.993v-10.548c0-1.986-.1-5.753-.1-5.993,0-.719.206-.856.993-.856h2.192c.788,0,.993.137.993.856,0,.24-.1,4.007-.1,5.993V2113.5c0,1.986.1,5.753.1,5.993,0,.719-.205.856-.993.856Z" transform="translate(-117.727 459.379)" fill="#5c8291"/>
    <path id="パス_208" data-name="パス 208" d="M309.405,2114.627c-.89,0-1.13.068-1.438.822-.479,1.13-.925,2.294-1.507,3.938-.308.822-.48.959-1.37.959h-2.4c-.548,0-.788-.068-.788-.343a1.469,1.469,0,0,1,.206-.583c1.062-2.4,1.815-4.11,2.534-5.788l4.9-11.609c.617-1.473,1.336-3.116,2.055-4.966.308-.822.479-.959,1.369-.959h1.473c.89,0,1.062.136,1.37.959.719,1.849,1.4,3.493,2.021,4.932l4.931,11.574c.754,1.781,1.507,3.493,2.568,5.856a1.469,1.469,0,0,1,.206.583c0,.274-.24.343-.788.343H322.11c-.89,0-1.061-.137-1.369-.959-.582-1.644-1.028-2.808-1.507-3.938-.309-.754-.514-.822-1.439-.822Zm.616-4.247a1.53,1.53,0,0,0-.137.583c0,.308.24.376.788.376h5.856c.548,0,.788-.069.788-.376a1.531,1.531,0,0,0-.137-.583l-3.185-7.842c-.138-.343-.24-.548-.377-.548-.1,0-.239.17-.376.548Z" transform="translate(-119.531 459.379)" fill="#5c8291"/>
    <path id="パス_209" data-name="パス 209" d="M356.137,2113.5c0,1.986.1,5.582.1,5.993,0,.719-.206.856-.993.856h-2.123c-.788,0-.993-.137-.993-.856,0-.411.1-4.007.1-5.993v-11.987c0-.582-.1-.822-.411-.822a1.393,1.393,0,0,0-.548.137c-1.028.377-2.192.856-3.082,1.267a1.539,1.539,0,0,1-.651.206c-.308,0-.445-.24-.616-.753l-.651-1.713a1.832,1.832,0,0,1-.137-.651c0-.308.205-.479.788-.65a53.11,53.11,0,0,0,5.342-2.021,4.547,4.547,0,0,1,2.021-.41h.924c.788,0,.993.137.993.856,0,.514-.068,4.007-.068,5.993Z" transform="translate(-126.428 459.379)" fill="#5c8291"/>
    <path id="パス_210" data-name="パス 210" d="M384.057,2116.067c0,1.164.069,3.185.069,3.425,0,.719-.206.856-.993.856h-1.918c-.788,0-.993-.137-.993-.856,0-.24.068-2.26.068-3.425,0-.788-.137-.925-.924-.925h-5.411c-1.986,0-4.932.068-5.171.068-.719,0-.857-.205-.857-.992v-.583a3.455,3.455,0,0,1,.479-1.952c.754-1.37,1.473-2.774,2.157-4.111l3.014-5.822c.719-1.4,1.507-2.979,2.329-4.726.343-.787.548-.924,1.438-.924h2.568c.513,0,.753.068.753.308a1.692,1.692,0,0,1-.24.582c-1.1,2.021-1.986,3.7-2.842,5.343l-4.383,8.458a1.568,1.568,0,0,0-.206.617c0,.24.24.308.754.308h5.616c.822,0,.924-.205.924-.993,0-2.328-.068-5.445-.068-5.685,0-.719.205-.855.993-.855h1.918c.788,0,.993.136.993.855,0,.24-.069,3.322-.069,5.753,0,.788.138.925.925.925.924,0,2.6-.034,2.842-.034.719,0,.857.205.857.993v1.542c0,.787-.138.992-.857.992-.24,0-1.918-.068-2.842-.068-.788,0-.925.137-.925.925" transform="translate(-129.826 459.379)" fill="#5c8291"/>
    <path id="パス_211" data-name="パス 211" d="M403.33,2121.347a2.605,2.605,0,0,1-2.705,2.774,2.338,2.338,0,0,1-2.466-2.4,2.6,2.6,0,0,1,2.74-2.739,2.321,2.321,0,0,1,2.431,2.363" transform="translate(-134.54 455.81)" fill="#5c8291"/>
    <path id="パス_212" data-name="パス 212" d="M421.167,2116.775c1.746,0,4.966-.07,5.205-.07.719,0,.856.206.856.994v1.61c0,.789-.137.993-.856.993-.24,0-3.459-.068-5.205-.068h-4.452c-1.747,0-4.966.068-5.206.068-.718,0-.856-.2-.856-.993v-.616a1.61,1.61,0,0,1,.822-1.678c.616-.446,1.164-.925,1.746-1.438,6.164-5.412,9.726-8.836,9.726-12.192,0-2.226-1.541-3.767-4.349-3.767a6.87,6.87,0,0,0-5,2.26c-.308.342-.513.478-.719.478-.17,0-.376-.17-.685-.478l-1.37-1.473c-.274-.308-.411-.514-.411-.719,0-.24.171-.445.479-.754a11.7,11.7,0,0,1,8.048-3.116c5.205,0,8.117,3.083,8.117,7.021,0,4.83-3.87,8.7-9.11,13.253-.274.24-.376.377-.376.479,0,.137.205.206.616.206Z" transform="translate(-136.451 459.423)" fill="#5c8291"/>
    <path id="パス_213" data-name="パス 213" d="M442.562,2116.063c0,1.541.068,4.384.068,4.624,0,.719-.206.856-.993.856H439.65c-.788,0-.992-.137-.992-.856,0-.24.068-3.083.068-4.624v-6.61c0-1.54-.068-4.383-.068-4.623,0-.719.2-.856.992-.856h1.678c.787,0,.925.137.959.924.035.446.1.651.275.651a1.045,1.045,0,0,0,.512-.24,7.38,7.38,0,0,1,4.555-1.541,5.439,5.439,0,0,1,4.111,1.643c.308.343.479.514.685.514.171,0,.342-.137.685-.412a8.451,8.451,0,0,1,5.138-1.746c3.391,0,5.65,2.328,5.65,6.13v6.164c0,1.541.068,4.384.068,4.624,0,.719-.205.856-.993.856h-1.987c-.787,0-.993-.137-.993-.856,0-.24.068-3.083.068-4.624v-5.1c0-2.089-.992-3.494-3.115-3.494a4.892,4.892,0,0,0-3.014,1.1,1.29,1.29,0,0,0-.651,1.335v6.164c0,1.541.069,4.384.069,4.624,0,.719-.206.856-.993.856h-1.986c-.788,0-.994-.137-.994-.856,0-.24.069-3.083.069-4.624v-5.1c0-2.089-.993-3.494-3.117-3.494a4.979,4.979,0,0,0-3.013,1.062,1.644,1.644,0,0,0-.753,1.541Z" transform="translate(-140.855 458.183)" fill="#5c8291"/>
    <path id="パス_214" data-name="パス 214" d="M480.625,2116.063c0,1.541.068,4.384.068,4.624,0,.719-.206.856-.993.856h-1.986c-.788,0-.993-.137-.993-.856,0-.24.068-3.083.068-4.624v-6.61c0-1.54-.068-4.383-.068-4.623,0-.719.205-.856.993-.856h1.678c.788,0,.925.137.959.924.035.446.1.651.274.651a1.043,1.043,0,0,0,.513-.24,7.38,7.38,0,0,1,4.555-1.541,5.439,5.439,0,0,1,4.111,1.643c.308.343.479.514.685.514.171,0,.342-.137.685-.412a8.45,8.45,0,0,1,5.137-1.746c3.391,0,5.651,2.328,5.651,6.13v6.164c0,1.541.068,4.384.068,4.624,0,.719-.205.856-.994.856h-1.986c-.788,0-.993-.137-.993-.856,0-.24.068-3.083.068-4.624v-5.1c0-2.089-.993-3.494-3.115-3.494a4.892,4.892,0,0,0-3.014,1.1,1.29,1.29,0,0,0-.651,1.335v6.164c0,1.541.068,4.384.068,4.624,0,.719-.205.856-.993.856h-1.987c-.788,0-.993-.137-.993-.856,0-.24.068-3.083.068-4.624v-5.1c0-2.089-.993-3.494-3.116-3.494a4.979,4.979,0,0,0-3.013,1.062,1.645,1.645,0,0,0-.754,1.541Z" transform="translate(-146.79 458.183)" fill="#5c8291"/>
    <path id="パス_215" data-name="パス 215" d="M916.989,2134.418H614.8a30.771,30.771,0,0,1,0-61.541H916.989a30.771,30.771,0,0,1,0,61.541Z" transform="translate(-163.523 463)" fill="none" stroke="#5c8291" stroke-miterlimit="10" stroke-width="3"/>
    <path id="パス_216" data-name="パス 216" d="M650.425,2121.265H639.808c-.274,0-.479.069-.514.514-.034.719-.274.787-1.78.787-1.473,0-1.849-.034-1.849-.821,0-.89.068-1.816.068-2.706v-4.691c-.035-.205-.1-.411-.343-.411a.349.349,0,0,0-.274.171c-.616.685-3.63,3.767-4.383,3.767-.787,0-2.363-1.2-2.363-2.021,0-.308.273-.514.513-.684a24.757,24.757,0,0,0,7.055-8.013,1,1,0,0,0,.069-.31c0-.376-.309-.478-.617-.513H633.4c-1.3,0-2.637.068-3.973.068-.685,0-.685-.308-.685-1.267,0-.993,0-1.3.685-1.3,1.336,0,2.671.069,3.973.069h7.774c.548,0,.788-.24.788-.822v-.1c0-.582-.24-.821-.788-.821h-4.555c-1.233,0-2.466.069-3.733.069-.685,0-.651-.411-.651-1.234s0-1.233.651-1.233c1.267,0,2.5.069,3.733.069h4.691c.479,0,.651-.171.651-.651v-.308c0-.479-.171-.651-.616-.651H634.4c-1.335,0-2.637.068-3.972.068-.719,0-.685-.445-.685-1.3,0-.924,0-1.3.685-1.3,1.335,0,2.637.068,3.972.068h2.192c.274,0,.548-.1.548-.445a.553.553,0,0,0-.1-.308c-.445-.651-.788-1.061-1.3-1.712a.773.773,0,0,1-.274-.48c0-.616,2.055-1.267,2.5-1.267.513,0,.993.617,1.3,1.028a8.608,8.608,0,0,1,1.37,2.124c0,.376-.617.651-.925.787-.034.035-.1.068-.1.137,0,.1.069.136.171.136h5.994a1.311,1.311,0,0,0,1.37-.718,20.909,20.909,0,0,0,1.54-3.014c.068-.273.171-.513.48-.513a14.486,14.486,0,0,1,2.157.719c.514.171,1.541.548,1.541.856s-.445.376-.685.411a.6.6,0,0,0-.445.308c-.274.376-.48.788-.719,1.164a.659.659,0,0,0-.1.343c0,.343.274.411.549.445H653.3c1.3,0,2.6-.068,3.938-.068.719,0,.719.343.719,1.3,0,.891,0,1.3-.685,1.3-1.335,0-2.671-.068-3.972-.068h-7.055c-.446,0-.651.171-.651.616v.343c0,.48.171.651.651.651h4.726c1.267,0,2.5-.069,3.732-.069.685,0,.685.343.685,1.233,0,.857,0,1.234-.651,1.234-1.268,0-2.5-.069-3.767-.069h-4.555c-.582,0-.822.24-.822.821v.1c0,.582.24.822.822.822h7.877c1.3,0,2.637-.069,3.972-.069.719,0,.685.343.685,1.3,0,.924.034,1.267-.685,1.267-1.335,0-2.671-.068-3.972-.068H640.664a.947.947,0,0,0-.924.651.989.989,0,0,0-.068.309c0,.376.308.514.65.514h9.795c.96,0,1.918-.035,2.878-.035,1.1,0,1.575.342,1.575,1.507,0,.891-.035,1.781-.035,2.672v7.156c0,.926.068,1.816.068,2.74,0,.788-.411.788-1.815.788-1.678,0-1.815-.069-1.849-.89,0-.446-.273-.48-.513-.48m-.068-9.657a.6.6,0,0,0,.651-.651v-.137a.622.622,0,0,0-.651-.685h-10.48a.621.621,0,0,0-.651.685v.137a.6.6,0,0,0,.651.651Zm-10.48,2.089a.63.63,0,0,0-.651.651v.205a.6.6,0,0,0,.651.651h10.48a.6.6,0,0,0,.651-.651v-.205a.612.612,0,0,0-.651-.651Zm0,3.7a.63.63,0,0,0-.651.651v.205a.63.63,0,0,0,.651.651h10.48a.612.612,0,0,0,.651-.651v-.205a.612.612,0,0,0-.651-.651Z" transform="translate(-170.437 460.095)" fill="#5c8291"/>
    <path id="パス_217" data-name="パス 217" d="M692.672,2100.805c0,.309.24.377.479.377h.891c1.13,0,2.26-.034,3.391-.034,1.267,0,1.986.308,1.986,1.713,0,.89-.068,1.746-.068,2.637v3.767c0,1.1.068,2.158.068,2.911,0,.719-.343.788-1.575.788-1.165,0-1.816,0-2.124-.479a.973.973,0,0,0-.924-.343H679.966c-.685,0-.959.275-.959.959v2.637c0,2.5.308,2.775,3.014,2.775h12.706c2.705,0,3.253-.343,3.732-3.459.137-.787.137-1.13.856-1.13.925,0,2.843.376,2.843,1.541a11.239,11.239,0,0,1-1.268,4.281c-1.061,1.917-2.637,2.054-4.657,2.054h-15.24c-6.233,0-5.583-1.883-5.583-6.575v-9.418c-.034-.274-.1-.514-.41-.514a.512.512,0,0,0-.309.137,2.521,2.521,0,0,1-1.2.616c-.856,0-2.192-1.507-2.192-2.226,0-.411.48-.65.788-.855a35.247,35.247,0,0,0,7.636-7.672,22.39,22.39,0,0,0,1.987-3.219.658.658,0,0,1,.616-.445c.273,0,2.26.548,2.705.651.548.136,1.233.274,1.233.754,0,.342-.514.445-.788.547-.274.069-.446.343-.582.582a.666.666,0,0,0-.1.343c0,.343.274.411.549.446h5.377c.753,0,1.507-.069,2.226-.069a2.286,2.286,0,0,1,2.363,1.747c0,.719-1.986,3.185-2.5,3.836-.068.137-.137.205-.137.342m-12.706,3.528a.981.981,0,0,0-.959.959V2108a.981.981,0,0,0,.959.959h4.76a.908.908,0,0,0,.925-.959v-2.706a.908.908,0,0,0-.925-.959Zm-.205-3.493c0,.24.24.343.446.343h6.677a1.534,1.534,0,0,0,1.473-.616,10.364,10.364,0,0,0,1.678-2.432c0-.411-.446-.343-.857-.343H683.22a1.557,1.557,0,0,0-1.473.651,26.211,26.211,0,0,1-1.849,2.054.612.612,0,0,0-.137.343m9.486,7.158a.907.907,0,0,0,.924.959H694.9a.981.981,0,0,0,.96-.959v-2.706a.981.981,0,0,0-.96-.959h-4.726a.907.907,0,0,0-.924.959Z" transform="translate(-177.132 460.076)" fill="#5c8291"/>
    <path id="パス_218" data-name="パス 218" d="M728.252,2100.056c.685,0,.959-.275.959-.959v-.343c0-.684-.274-.959-.959-.959H720.1c-1.37,0-2.774.069-4.178.069-.753,0-.753-.377-.753-1.473,0-1.164,0-1.541.753-1.541,1.4,0,2.808.068,4.178.068h8.151c.651,0,.924-.24.959-.89-.035-.446-.068-.891-.138-1.336v-.343c0-.377.274-.479.617-.479.411,0,2.294.171,2.91.24.1,0,.206.034.309.034.479.034.924.069.924.446,0,.273-.171.343-.514.513a.9.9,0,0,0-.41.925c-.035.651.308.89.924.89h6.13c1.4,0,2.774-.068,4.178-.068.753,0,.753.342.753,1.507,0,1.13,0,1.507-.753,1.507-1.4,0-2.774-.069-4.178-.069H733.8c-.65,0-.924.274-.924.959v.343c0,.685.274.959.924.959h2.638c.719,0,1.438-.035,2.192-.035,1.026,0,1.575.24,1.575,1.37,0,.822-.035,1.644-.035,2.466v9.451c0,.823.068,1.644.068,2.431,0,1.028-.753,1.062-1.849,1.062a3.109,3.109,0,0,1-1.472-.24,1.123,1.123,0,0,0-.549-.24h-8.732a1.276,1.276,0,0,0-.549.24,2.977,2.977,0,0,1-1.472.24c-1.1,0-1.816-.068-1.816-1.062,0-.719.068-1.643.068-2.431v-9.451c0-.822-.034-1.644-.034-2.466,0-1.1.548-1.37,1.575-1.37.753,0,1.473.035,2.227.035Zm-9.692,22.6c-1.438,0-1.849,0-1.849-1.13,0-1.3.068-2.637.068-3.972v-11.884a16.611,16.611,0,0,0-.1-2.3,1.265,1.265,0,0,1-.035-.342c0-.411.308-.479.617-.479.651,0,2.466.171,3.219.24.308,0,.821.034.821.479,0,.24-.205.308-.513.513-.411.239-.445.651-.445,1.678v12.158c0,.685.273.959.958.959h18.768c1.369,0,2.739-.068,4.143-.068.787,0,.787.343.787,1.541s0,1.54-.787,1.54c-1.4,0-2.774-.068-4.143-.068h-18.8c-.479,0-.651.308-.994.822-.308.308-.822.308-1.712.308m17.328-17.843a.773.773,0,0,0,.822-.822v-.343a.792.792,0,0,0-.822-.822h-7.739a.792.792,0,0,0-.822.822v.343a.791.791,0,0,0,.822.822Zm-7.739,2.329a.791.791,0,0,0-.822.822v.411a.765.765,0,0,0,.822.788h7.739a.764.764,0,0,0,.822-.788v-.411a.791.791,0,0,0-.822-.822Zm0,4.349c-.583,0-.822.24-.822.822v.479c0,.583.24.822.822.822h7.739c.549,0,.822-.24.822-.822v-.479a.727.727,0,0,0-.822-.822Z" transform="translate(-183.972 460.038)" fill="#5c8291"/>
    <path id="パス_219" data-name="パス 219" d="M765.814,2106.806c0,.24-.205.343-.411.479-.273.205-.308.514-.308,1.678v8.425c0,1.438.068,2.843.068,4.281,0,.925-.376,1.13-1.781,1.13-1.472,0-1.78-.274-1.78-1.2,0-1.4.068-2.809.068-4.213v-7.055c0-.205-.1-.411-.343-.411a.479.479,0,0,0-.308.1c-.343.343-1.37,1.4-1.815,1.4a4.211,4.211,0,0,1-2.157-2.191c0-.308.273-.514.513-.685a40.634,40.634,0,0,0,7.808-9.144c.137-.273.24-.479.548-.479a15.751,15.751,0,0,1,2.568,1.233c.24.1.616.308.616.616,0,.24-.342.308-.548.343-.308.035-.376.035-.651.445-.993,1.473-2.054,2.877-3.15,4.281a.365.365,0,0,0-.069.205c0,.206.138.274.343.309.273.034.788.068.788.445m.137-13.973c.138.068.309.171.446.24.514.274,1.027.548,1.027.822,0,.068-.034.308-.479.343-.274,0-.343.033-.479.205a46.953,46.953,0,0,1-5.548,6.131c-.273.24-1.2,1.1-1.507,1.1-.582,0-2.157-1.4-2.157-2.054,0-.376.376-.617.891-1.027a32.855,32.855,0,0,0,5.685-6.062c.137-.205.274-.411.514-.411a5.558,5.558,0,0,1,1.609.719m14.179,18.014h1.438c1.3,0,2.568-.069,3.869-.069.891,0,.857.446.857,1.645,0,1.3,0,1.678-.89,1.678-1.3,0-2.568-.1-3.836-.1H780.13a.839.839,0,0,0-.959.959v2.5c0,.684.308.958.959.958h3.116c1.3,0,2.568-.068,3.87-.068.89,0,.856.445.856,1.678,0,1.267.034,1.678-.856,1.678-1.3,0-2.569-.068-3.87-.068H771.26c-1.267,0-2.568.068-3.869.068-.891,0-.857-.479-.857-1.678,0-1.3,0-1.678.891-1.678,1.3,0,2.568.068,3.835.068h3.494c.685,0,.959-.274.959-.958v-2.5c0-.651-.274-.959-.959-.959H773.52c-1.3,0-2.568.1-3.87.1-.89,0-.856-.445-.856-1.678,0-1.267,0-1.645.89-1.645,1.267,0,2.569.069,3.836.069h1.233c.685,0,.959-.275.959-.959a10.026,10.026,0,0,0-.138-2.26v-.308c0-.446.274-.514.617-.514.171,0,2.91.171,3.185.206.205,0,.617.1.617.376s-.206.308-.446.479c-.376.24-.411.719-.376,2.089,0,.651.342.891.959.891m-9.829-2.227a5.644,5.644,0,0,1-1.575.514c-.754,0-1.746-1.918-1.746-2.432,0-.48.788-.685,1.713-1.027a28.741,28.741,0,0,0,5.479-2.6c.24-.171.411-.309.411-.583a.744.744,0,0,0-.24-.547,20.113,20.113,0,0,1-3.356-5.24c-.171-.308-.343-.616-.719-.616-.343,0-.719.034-1.1.034-.753,0-.719-.377-.719-1.542s-.034-1.507.719-1.507c1.233,0,2.432.068,3.665.068h8.082c.788,0,1.575-.034,2.363-.034a1.709,1.709,0,0,1,1.609.822,2.661,2.661,0,0,1,.788,1.61c0,1.677-3.562,5.273-4.8,6.438a.847.847,0,0,0-.274.549c0,.274.171.41.377.548a31.421,31.421,0,0,0,6.815,2.911c.274.068.479.171.479.48,0,.685-1.027,2.6-1.781,2.6a2.885,2.885,0,0,1-.891-.239,35.623,35.623,0,0,1-7.328-3.63,1.506,1.506,0,0,0-.754-.24,1.389,1.389,0,0,0-.719.24,34.71,34.71,0,0,1-6.507,3.424m10.753-12.089c0-.548-.445-.513-1.643-.513h-4.247c-.308.034-.615.137-.615.513a.549.549,0,0,0,.1.308,15.96,15.96,0,0,0,2.294,3.117.9.9,0,0,0,.685.342,1.218,1.218,0,0,0,.685-.273c.617-.583,2.74-2.706,2.74-3.494" transform="translate(-190.502 460)" fill="#5c8291"/>
    <path id="パス_220" data-name="パス 220" d="M821.343,2114.1c0,1.987.1,5.583.1,5.994,0,.719-.206.856-.993.856h-2.123c-.787,0-.993-.137-.993-.856,0-.411.1-4.007.1-5.994v-11.986c0-.583-.1-.822-.411-.822a1.406,1.406,0,0,0-.548.137c-1.028.377-2.192.856-3.083,1.267a1.53,1.53,0,0,1-.651.206c-.308,0-.445-.24-.616-.754l-.651-1.712a1.832,1.832,0,0,1-.137-.651c0-.309.205-.479.787-.651a53.458,53.458,0,0,0,5.342-2.021,4.551,4.551,0,0,1,2.021-.411h.924c.788,0,.994.137.994.856,0,.514-.068,4.007-.068,5.994Z" transform="translate(-198.969 459.285)" fill="#5c8291"/>
    <path id="パス_221" data-name="パス 221" d="M845.8,2107.819q0,.154.513.308a5.362,5.362,0,0,1,3.938,5.412c0,3.8-2.807,7.6-10.273,7.6a16.015,16.015,0,0,1-6.4-1.233c-.514-.24-.719-.446-.719-.788a1.551,1.551,0,0,1,.137-.616l.582-1.678c.17-.479.307-.719.582-.719a1.717,1.717,0,0,1,.651.274,10.435,10.435,0,0,0,5.308,1.335c4.041,0,6.061-2.089,6.061-4.246,0-2.364-1.986-3.562-6.4-3.562-.754,0-1.952.035-2.294.035-.891,0-1.028-.137-1.028-.994v-1.541c0-.891.138-1.027,1.028-1.027.376,0,1.3.034,1.952.034,4.143,0,5.684-1.473,5.684-3.357,0-1.849-1.677-3.013-4.315-3.013a8.983,8.983,0,0,0-4.794,1.336,1.4,1.4,0,0,1-.685.308c-.239,0-.41-.206-.616-.686l-.753-1.575a1.807,1.807,0,0,1-.206-.685c0-.309.206-.48.685-.72a14.786,14.786,0,0,1,6.78-1.61c5.616,0,7.911,2.843,7.911,5.925a5.558,5.558,0,0,1-2.877,5.1c-.273.137-.445.274-.445.377" transform="translate(-202.323 459.33)" fill="#5c8291"/>
    <path id="パス_222" data-name="パス 222" d="M865.778,2121.946a2.605,2.605,0,0,1-2.705,2.774,2.338,2.338,0,0,1-2.466-2.4,2.6,2.6,0,0,1,2.74-2.739,2.32,2.32,0,0,1,2.431,2.363" transform="translate(-206.651 455.717)" fill="#5c8291"/>
    <path id="パス_223" data-name="パス 223" d="M883.614,2117.374c1.746,0,4.966-.069,5.205-.069.719,0,.857.206.857.994v1.609c0,.788-.138.994-.857.994-.24,0-3.459-.068-5.205-.068h-4.452c-1.747,0-4.966.068-5.206.068-.719,0-.856-.205-.856-.994v-.616a1.61,1.61,0,0,1,.822-1.678c.616-.446,1.164-.925,1.746-1.438,6.164-5.411,9.726-8.836,9.726-12.192,0-2.226-1.541-3.767-4.349-3.767a6.871,6.871,0,0,0-5,2.26c-.308.342-.513.479-.719.479-.17,0-.376-.171-.684-.479l-1.37-1.473c-.274-.308-.411-.514-.411-.719,0-.24.171-.445.479-.754a11.7,11.7,0,0,1,8.048-3.116c5.205,0,8.117,3.083,8.117,7.02,0,4.83-3.87,8.7-9.11,13.254-.274.24-.376.377-.376.479,0,.137.205.206.616.206Z" transform="translate(-208.561 459.33)" fill="#5c8291"/>
    <path id="パス_224" data-name="パス 224" d="M905.009,2116.662c0,1.541.068,4.383.068,4.624,0,.719-.206.856-.993.856H902.1c-.787,0-.993-.137-.993-.856,0-.24.068-3.083.068-4.624v-6.61c0-1.541-.068-4.384-.068-4.623,0-.719.205-.856.993-.856h1.678c.788,0,.925.137.959.924.035.446.1.651.274.651a1.047,1.047,0,0,0,.513-.24,7.38,7.38,0,0,1,4.555-1.541,5.439,5.439,0,0,1,4.111,1.643c.308.343.479.513.685.513.171,0,.342-.137.685-.411a8.452,8.452,0,0,1,5.137-1.745c3.391,0,5.651,2.328,5.651,6.129v6.164c0,1.541.068,4.383.068,4.624,0,.719-.205.856-.993.856h-1.986c-.787,0-.994-.137-.994-.856,0-.24.068-3.083.068-4.624v-5.1c0-2.089-.993-3.494-3.115-3.494a4.888,4.888,0,0,0-3.014,1.1,1.289,1.289,0,0,0-.651,1.335v6.164c0,1.541.068,4.383.068,4.624,0,.719-.205.856-.993.856h-1.987c-.788,0-.993-.137-.993-.856,0-.24.068-3.083.068-4.624v-5.1c0-2.089-.993-3.494-3.116-3.494a4.977,4.977,0,0,0-3.013,1.062,1.646,1.646,0,0,0-.754,1.542Z" transform="translate(-212.965 458.09)" fill="#5c8291"/>
    <path id="パス_225" data-name="パス 225" d="M943.073,2116.662c0,1.541.068,4.383.068,4.624,0,.719-.205.856-.993.856h-1.986c-.788,0-.993-.137-.993-.856,0-.24.068-3.083.068-4.624v-6.61c0-1.541-.068-4.384-.068-4.623,0-.719.205-.856.993-.856h1.678c.788,0,.925.137.959.924.035.446.1.651.274.651a1.05,1.05,0,0,0,.513-.24,7.381,7.381,0,0,1,4.556-1.541,5.436,5.436,0,0,1,4.109,1.643c.308.343.479.513.685.513.171,0,.343-.137.685-.411a8.452,8.452,0,0,1,5.137-1.745c3.391,0,5.65,2.328,5.65,6.129v6.164c0,1.541.069,4.383.069,4.624,0,.719-.206.856-.993.856H961.5c-.787,0-.994-.137-.994-.856,0-.24.068-3.083.068-4.624v-5.1c0-2.089-.993-3.494-3.116-3.494a4.889,4.889,0,0,0-3.013,1.1,1.289,1.289,0,0,0-.651,1.335v6.164c0,1.541.068,4.383.068,4.624,0,.719-.205.856-.993.856H950.88c-.788,0-.993-.137-.993-.856,0-.24.068-3.083.068-4.624v-5.1c0-2.089-.993-3.494-3.116-3.494a4.977,4.977,0,0,0-3.013,1.062,1.644,1.644,0,0,0-.754,1.542Z" transform="translate(-218.901 458.09)" fill="#5c8291"/>
  </g>
</svg>
