<svg xmlns="http://www.w3.org/2000/svg" width="307.559" height="66.504" viewBox="0 0 307.559 66.504">
  <g id="グループ_1535" data-name="グループ 1535" transform="translate(-61.22 -658.284)">
    <g id="グループ_612" data-name="グループ 612" transform="translate(-160.094 -1414.096)">
      <rect id="長方形_206" data-name="長方形 206" width="126.31" height="27.504" rx="13.752" transform="translate(249.37 2110.881)" fill="none" stroke="#5c8291" stroke-miterlimit="10" stroke-width="1"/>
      <g id="グループ_605" data-name="グループ 605" transform="translate(267.893 2117.908)">
        <g id="グループ_604" data-name="グループ 604" transform="translate(0 0)">
          <path id="パス_5548" data-name="パス 5548" d="M1109.36,2096.041a.219.219,0,0,0-.107.031,12.028,12.028,0,0,1-2.969,1.852c-.413,0-.919-.811-.919-1.056,0-.184.291-.321.459-.4a17.32,17.32,0,0,0,4.668-3.459,8.327,8.327,0,0,0,1.025-1.3.33.33,0,0,1,.291-.2c.153,0,1.24.26,1.469.321.122.031.29.107.29.26,0,.092-.092.153-.168.184a.142.142,0,0,0-.076.106.08.08,0,0,0,.031.062,15.1,15.1,0,0,0,5.51,4.025c.138.062.352.138.352.321,0,.215-.475,1.164-.8,1.164a16.408,16.408,0,0,1-3.214-1.883.132.132,0,0,0-.092-.046c-.092,0-.123.077-.138.153-.016.229-.046.353-.306.353-.367,0-.8-.031-1.225-.031h-2.434c-.413,0-.873.031-1.209.031-.26,0-.306-.107-.322-.353C1109.467,2096.1,1109.437,2096.041,1109.36,2096.041Zm.077,8.678c-.2,0-.276.092-.276.291v.046c0,.352-.245.337-.857.337-.581,0-.811,0-.811-.337,0-.2.046-.643.046-.949v-2.25c0-.291-.03-.6-.03-.888,0-.6.521-.658.995-.658.428,0,.857.031,1.286.031h3.061a.631.631,0,0,0,.627-.321,7.11,7.11,0,0,0,.734-1.24c0-.2-.352-.168-.489-.168h-3.964c-.566,0-1.163.046-1.622.046-.367,0-.352-.2-.352-.7,0-.429,0-.628.352-.628.383,0,1.026.046,1.622.046h4.316c.444,0,.872-.031,1.316-.031a1.037,1.037,0,0,1,.964.7,8.6,8.6,0,0,1-1.041,1.944.212.212,0,0,0-.046.137c0,.137.107.184.23.184h.429c.459,0,.964.076.964.643,0,.306-.031.6-.031.9v2.25c0,.2.046.719.046.934,0,.367-.23.352-.827.352-.582,0-.811.015-.811-.337v-.046c0-.2-.092-.291-.275-.291Zm5.862-2.694a.438.438,0,0,0-.428-.428h-5.327a.438.438,0,0,0-.428.428v1.01a.437.437,0,0,0,.428.428h5.327a.438.438,0,0,0,.428-.428Zm-3.061-8.57a.4.4,0,0,0-.275.138,18.323,18.323,0,0,1-1.454,1.438.231.231,0,0,0-.061.138c0,.107.076.137.168.153h3.214c.077-.015.168-.046.168-.153a.176.176,0,0,0-.046-.123,15.95,15.95,0,0,1-1.439-1.438A.419.419,0,0,0,1112.238,2093.454Z" transform="translate(-1105.365 -2091.51)" fill="#5c8291"/>
          <path id="パス_5549" data-name="パス 5549" d="M1150.722,2097.1c-.505,0-1.01.031-1.515.031-.352,0-.352-.184-.352-.781,0-.612,0-.8.352-.8.505,0,1.01.031,1.515.031h2.372a.69.69,0,0,1,.673.291.911.911,0,0,1,.214.582,4.669,4.669,0,0,1-.23.995,14.211,14.211,0,0,1-1.943,4.1c-.337.474-1.821,2.312-2.372,2.312-.321,0-1.056-.582-1.056-.9,0-.153.153-.26.275-.353a10.728,10.728,0,0,0,2.541-3.03,9.842,9.842,0,0,0,.918-2.235c0-.275-.275-.245-.673-.245Zm6.657.153a.349.349,0,0,0,.245-.091,16.6,16.6,0,0,0,2.219-2.3c.061-.061.138-.168.229-.168a8.131,8.131,0,0,1,1.286.857c.077.061.23.2.23.306a.2.2,0,0,1-.2.2c-.077,0-.138-.015-.214-.015a.314.314,0,0,0-.23.092,27.158,27.158,0,0,1-2.54,2.342.434.434,0,0,0-.184.321.482.482,0,0,0,.092.245,13.943,13.943,0,0,0,3.505,3.458c.122.076.29.184.29.337,0,.23-.673,1.041-1.056,1.041-.291,0-1.209-.811-1.469-1.041a14.689,14.689,0,0,1-3.352-4.561c-.03-.031-.046-.061-.091-.061-.062,0-.092.046-.092.107v4.423c0,.413.03.827.03,1.224,0,1.638-1.438,1.73-2.724,1.73-.352,0-.643,0-.78-.321a3.782,3.782,0,0,1-.168-1.01c0-.245.077-.383.337-.383.184,0,.535.046.872.046.918,0,.888-.307.888-1.24V2094c0-.535-.015-1.087-.061-1.546,0-.046-.016-.138-.016-.2,0-.168.107-.214.261-.214.26,0,1.163.076,1.454.107.122.016.367.03.367.2,0,.107-.107.153-.245.245-.184.138-.214.413-.214.934v.857a1.392,1.392,0,0,0,.092.551,20.776,20.776,0,0,0,.964,2.143C1157.181,2097.165,1157.257,2097.256,1157.38,2097.256Z" transform="translate(-1132.153 -2091.838)" fill="#5c8291"/>
          <path id="パス_5550" data-name="パス 5550" d="M1199.759,2101.583h3.367c.6,0,1.209-.046,1.806-.046.367,0,.367.153.367.719s0,.719-.367.719c-.6,0-1.209-.03-1.806-.03h-3.382c-.291,0-.413.122-.413.413v.291c0,.521.031,1.056.031,1.577,0,.489-.184.5-.812.5-.643,0-.827-.016-.827-.49,0-.536.031-1.071.031-1.592v-.291c0-.291-.123-.413-.413-.413h-3.383c-.6,0-1.194.03-1.806.03-.367,0-.351-.153-.351-.719,0-.582,0-.719.351-.719.612,0,1.209.046,1.806.046h3.383c.276,0,.4-.123.413-.414-.016-.137-.046-.459-.046-.505,0-.153.107-.214.26-.214.184,0,1.256.107,1.485.122.123.016.26.046.26.184s-.107.168-.2.229a.373.373,0,0,0-.168.306C1199.377,2101.522,1199.545,2101.583,1199.759,2101.583Zm-4.255-3.137c0,.321-.031.367-.229.459-.658.322-1.255.582-2.005.9-.245.107-.321.122-.382.306-.031.092-.092.168-.184.168-.122,0-.168-.123-.245-.291-.138-.275-.245-.566-.367-.857a.579.579,0,0,1-.077-.23c0-.122.092-.122.322-.184a19.6,19.6,0,0,0,2.6-1.04.589.589,0,0,1,.215-.077C1195.443,2097.6,1195.5,2098.247,1195.5,2098.446Zm.077,2.2c-.046.092-.107.168-.214.168-.138,0-.2-.168-.229-.275a9.837,9.837,0,0,1-.291-1.1c0-.153.107-.169.8-.184.367,0,.628.031.9-.276.077-.092.168-.184.245-.276a.478.478,0,0,0,.108-.275.369.369,0,0,0-.154-.291c-.444-.383-.9-.719-1.377-1.056-.092-.061-.276-.168-.276-.306,0-.168.306-.551.413-.688.168-.2.26-.214.368-.184a.7.7,0,0,0,.245.046.3.3,0,0,0,.26-.138c.168-.26.321-.521.474-.781a.244.244,0,0,0,.046-.137c0-.168-.123-.215-.26-.23h-2.418c-.612,0-1.209.031-1.821.031-.367,0-.352-.153-.352-.689,0-.552-.015-.7.368-.7.6,0,1.193.031,1.806.031h3.107c.276,0,.413-.107.429-.4-.016-.23-.031-.459-.062-.673a.391.391,0,0,1-.015-.123c0-.168.168-.184.29-.184.276,0,1.072.061,1.378.092.168.015.352.031.352.184,0,.122-.107.168-.2.214-.168.092-.153.244-.153.49,0,.291.138.4.413.4h3.153c.6,0,1.209-.031,1.806-.031.367,0,.367.168.367.7,0,.551,0,.689-.367.689-.6,0-1.209-.031-1.806-.031h-4.561c-.03,0-.061.015-.061.046a.033.033,0,0,0,.031.031c.107.061.352.183.352.306s-.153.123-.23.123c-.107.015-.122.015-.2.122-.291.413-.627.933-.949,1.332a.28.28,0,0,0-.077.183c0,.076.061.138.107.2a1.688,1.688,0,0,1,.184.153.475.475,0,0,0,.275.107.371.371,0,0,0,.291-.153c.321-.444.612-.857.9-1.332.046-.061.092-.137.184-.137.123,0,1.317.658,1.317.826s-.184.184-.291.184c-.169,0-.153.016-.245.107a25.522,25.522,0,0,1-1.684,2.051.289.289,0,0,0-.046.123.149.149,0,0,0,.168.153c.429-.046.873-.077,1.3-.107.123-.031.23-.092.23-.229,0-.107-.107-.215-.169-.306a1.368,1.368,0,0,1-.214-.429c0-.229.719-.536.9-.536a.406.406,0,0,1,.337.245c.306.429.582.827.842,1.271a7.1,7.1,0,0,1,.658,1.254c0,.245-.75.566-.98.566-.214,0-.26-.2-.367-.4a.465.465,0,0,0-.444-.306h-.108c-1.545.168-3.076.306-4.622.413C1195.658,2100.527,1195.627,2100.573,1195.581,2100.65Zm-1.561-3.229c-.138,0-.444-.352-.536-.459-.215-.215-.735-.658-.98-.857-.092-.061-.26-.168-.26-.306,0-.122.581-.826.826-.826.2,0,.826.582,1.01.75.138.123.766.658.766.827C1194.847,2096.777,1194.3,2097.42,1194.02,2097.42Zm10.729-1.178a.372.372,0,0,1-.137-.031.475.475,0,0,0-.123-.031.378.378,0,0,0-.169.061,12.66,12.66,0,0,1-2.372.964c-.4,0-.673-.781-.673-.919,0-.2.214-.245.49-.336a11.165,11.165,0,0,0,2.128-.98.537.537,0,0,1,.214-.092c.183,0,.78,1.163.78,1.224A.128.128,0,0,1,1204.749,2096.242Zm-.872,2.127c.2.107,1.01.505,1.01.735,0,.184-.459.933-.7.933a.6.6,0,0,1-.321-.168,22.624,22.624,0,0,0-2.143-1.194c-.153-.076-.352-.153-.352-.337,0-.107.291-.873.551-.873A13.646,13.646,0,0,1,1203.877,2098.369Z" transform="translate(-1159.194 -2091.788)" fill="#5c8291"/>
          <path id="パス_5551" data-name="パス 5551" d="M1251.031,2101.515c0,.046.076.092.229.138a2.4,2.4,0,0,1,1.76,2.418c0,1.7-1.255,3.4-4.591,3.4a7.159,7.159,0,0,1-2.863-.551c-.23-.108-.321-.2-.321-.352a.69.69,0,0,1,.061-.275l.26-.75c.077-.214.138-.322.26-.322a.78.78,0,0,1,.291.122,4.66,4.66,0,0,0,2.373.6c1.806,0,2.709-.934,2.709-1.9,0-1.056-.888-1.592-2.862-1.592-.337,0-.872.015-1.025.015-.4,0-.459-.061-.459-.444v-.689c0-.4.061-.459.459-.459.168,0,.581.016.872.016,1.852,0,2.541-.658,2.541-1.5,0-.827-.75-1.346-1.929-1.346a4.018,4.018,0,0,0-2.143.6.624.624,0,0,1-.307.138c-.107,0-.183-.092-.275-.306l-.337-.7a.81.81,0,0,1-.092-.306c0-.138.092-.214.306-.322a6.61,6.61,0,0,1,3.031-.719c2.51,0,3.536,1.271,3.536,2.648a2.484,2.484,0,0,1-1.286,2.28C1251.107,2101.408,1251.031,2101.469,1251.031,2101.515Z" transform="translate(-1192.477 -2094.567)" fill="#5c8291"/>
          <path id="パス_5552" data-name="パス 5552" d="M1279.054,2101.547c0,.061.076.123.229.2a3.027,3.027,0,0,1,2.036,2.709c0,1.745-1.424,2.985-4.454,2.985-2.418,0-4.148-1.041-4.148-2.847a3.089,3.089,0,0,1,1.959-2.755c.153-.076.23-.138.23-.2s-.077-.123-.214-.215a2.7,2.7,0,0,1-1.515-2.387c0-1.47,1.362-2.74,3.964-2.74,2.372,0,3.75,1.133,3.75,2.6a2.829,2.829,0,0,1-1.623,2.433C1279.13,2101.41,1279.054,2101.486,1279.054,2101.547Zm-2.281.842a1.034,1.034,0,0,0-.428.107c-1.163.49-1.852,1.1-1.852,1.975,0,.964,1.056,1.484,2.449,1.484,1.531,0,2.571-.551,2.571-1.546,0-.934-.949-1.408-2.326-1.928A1.2,1.2,0,0,0,1276.773,2102.389Zm.306-4.56c-1.194,0-2.1.474-2.1,1.255s.781,1.224,1.837,1.653a1.27,1.27,0,0,0,.414.107,1.081,1.081,0,0,0,.428-.123c.934-.444,1.454-.979,1.454-1.667C1279.115,2098.288,1278.242,2097.829,1277.079,2097.829Z" transform="translate(-1209.586 -2094.492)" fill="#5c8291"/>
          <path id="パス_5553" data-name="パス 5553" d="M1307.43,2099.506c0,2.112-1.178,3.321-2.816,3.321-1.5,0-2.678-1.117-2.678-3.076,0-1.989,1.071-3.29,2.846-3.29C1306.267,2096.46,1307.43,2097.547,1307.43,2099.506Zm-3.949.275c0,1.071.49,1.638,1.148,1.638.766,0,1.271-.658,1.271-1.821,0-1.056-.474-1.653-1.163-1.653C1303.925,2097.944,1303.481,2098.695,1303.481,2099.781Zm1.76,7.607c-.229,0-.336-.03-.336-.137a.709.709,0,0,1,.092-.276c.26-.49.521-1.01.766-1.485l3.489-7.041c.23-.459.475-.979.7-1.485.154-.352.245-.413.643-.413h.812c.23,0,.336.031.336.138a.656.656,0,0,1-.092.26c-.275.536-.551,1.071-.781,1.546l-3.474,7.01c-.229.49-.475.979-.7,1.469-.169.352-.245.413-.643.413Zm9.459-3.229c0,2.112-1.179,3.322-2.816,3.322-1.5,0-2.678-1.117-2.678-3.077,0-1.99,1.071-3.291,2.847-3.291C1313.536,2101.113,1314.7,2102.2,1314.7,2104.158Zm-3.949.275c0,1.072.49,1.638,1.148,1.638.765,0,1.27-.658,1.27-1.822,0-1.056-.474-1.653-1.163-1.653C1311.195,2102.6,1310.751,2103.347,1310.751,2104.434Z" transform="translate(-1227.782 -2094.593)" fill="#5c8291"/>
        </g>
      </g>
      <rect id="長方形_207" data-name="長方形 207" width="107.474" height="27.504" rx="13.752" transform="translate(393.356 2110.881)" fill="none" stroke="#5c8291" stroke-miterlimit="10" stroke-width="1"/>
      <g id="グループ_607" data-name="グループ 607" transform="translate(410.333 2119.715)">
        <g id="グループ_606" data-name="グループ 606" transform="translate(0 0)">
          <path id="パス_5554" data-name="パス 5554" d="M1460.565,2107.489c-.719,0-1.928.031-2.036.031-.321,0-.428-.107-.428-.429,0-.107.031-1.76.031-2.617v-4.806c0-.75-.031-2.3-.031-2.556,0-.368.092-.49.428-.49.169,0,1.316.031,2.036.031h1.178c2.2,0,3.5.582,3.5,2.449a2.636,2.636,0,0,1-1,2.311c-.122.092-.2.153-.2.2,0,.077.077.122.245.183a2.33,2.33,0,0,1,1.47,2.373c0,2.281-1.516,3.322-3.98,3.322Zm-.7-6.872c0,.383.076.459.459.459h1.224c1.132,0,1.944-.429,1.944-1.653,0-1.01-.827-1.27-1.76-1.27h-1.408c-.383,0-.459.076-.459.459Zm0,4.944c0,.383.076.459.459.459h1.439c1.27,0,2.2-.6,2.2-1.867,0-1.163-.75-1.607-1.929-1.607h-1.714c-.383,0-.459.076-.459.459Z" transform="translate(-1458.101 -2096.5)" fill="#5c8291"/>
          <path id="パス_5555" data-name="パス 5555" d="M1492.969,2106.668c0,.138-.107.214-.337.321a6.714,6.714,0,0,1-2.587.49,4.921,4.921,0,0,1-5.2-5.25,5.4,5.4,0,0,1,5.77-5.77,6,6,0,0,1,2.2.383c.23.092.337.168.337.306a.907.907,0,0,1-.077.291l-.337.919c-.092.229-.137.322-.26.322a.806.806,0,0,1-.306-.092,4.129,4.129,0,0,0-1.637-.352,3.663,3.663,0,0,0-3.842,3.948,3.371,3.371,0,0,0,3.551,3.627,4,4,0,0,0,1.776-.383.719.719,0,0,1,.306-.107c.122,0,.183.092.275.321l.291.735A.914.914,0,0,1,1492.969,2106.668Z" transform="translate(-1474.754 -2096.399)" fill="#5c8291"/>
          <path id="パス_5556" data-name="パス 5556" d="M1530.379,2101.547c0,.061.076.123.229.2a3.027,3.027,0,0,1,2.036,2.709c0,1.745-1.424,2.985-4.454,2.985-2.418,0-4.147-1.041-4.147-2.847a3.089,3.089,0,0,1,1.959-2.755c.154-.076.23-.138.23-.2s-.076-.123-.214-.215a2.7,2.7,0,0,1-1.515-2.387c0-1.47,1.362-2.74,3.964-2.74,2.372,0,3.75,1.133,3.75,2.6a2.829,2.829,0,0,1-1.622,2.433C1530.455,2101.41,1530.379,2101.486,1530.379,2101.547Zm-2.281.842a1.034,1.034,0,0,0-.428.107c-1.164.49-1.852,1.1-1.852,1.975,0,.964,1.056,1.484,2.448,1.484,1.531,0,2.572-.551,2.572-1.546,0-.934-.949-1.408-2.326-1.928A1.2,1.2,0,0,0,1528.1,2102.389Zm.306-4.56c-1.194,0-2.1.474-2.1,1.255s.78,1.224,1.837,1.653a1.271,1.271,0,0,0,.413.107,1.082,1.082,0,0,0,.428-.123c.934-.444,1.454-.979,1.454-1.667C1530.44,2098.288,1529.567,2097.829,1528.4,2097.829Z" transform="translate(-1499.167 -2096.298)" fill="#5c8291"/>
          <path id="パス_5557" data-name="パス 5557" d="M1555.733,2120.643a1.164,1.164,0,0,1-1.209,1.24,1.045,1.045,0,0,1-1.1-1.072,1.163,1.163,0,0,1,1.225-1.224A1.037,1.037,0,0,1,1555.733,2120.643Z" transform="translate(-1517.464 -2110.802)" fill="#5c8291"/>
          <path id="パス_5558" data-name="パス 5558" d="M1568.921,2100.949a5.013,5.013,0,0,1,2.464-.658,3.164,3.164,0,0,1,3.444,3.276,3.9,3.9,0,0,1-4.225,3.9c-2.617,0-4.117-1.745-4.117-4.27a7.061,7.061,0,0,1,1.929-5.081,6.624,6.624,0,0,1,4.3-1.7c.306,0,.367.076.367.428v.8c0,.4-.061.459-.459.505a5.09,5.09,0,0,0-3.214,1.423,3.509,3.509,0,0,0-.888,1.484.056.056,0,0,0,.061.061A.815.815,0,0,0,1568.921,2100.949Zm-.291,1.623a.845.845,0,0,0-.413.827,2.359,2.359,0,0,0,2.464,2.541,2.235,2.235,0,0,0,2.4-2.235,1.909,1.909,0,0,0-2.128-1.9A3.992,3.992,0,0,0,1568.631,2102.572Z" transform="translate(-1525.6 -2096.374)" fill="#5c8291"/>
          <path id="パス_5559" data-name="パス 5559" d="M1597.653,2109.866c0,.689.031,1.959.031,2.066,0,.322-.092.383-.444.383h-.888c-.352,0-.444-.061-.444-.383,0-.107.031-1.378.031-2.066v-2.954c0-.688-.031-1.959-.031-2.066,0-.322.092-.383.444-.383h.75c.352,0,.413.061.428.414.015.2.046.291.122.291a.466.466,0,0,0,.23-.107,3.3,3.3,0,0,1,2.036-.688,2.431,2.431,0,0,1,1.837.734c.138.154.214.229.306.229.077,0,.153-.061.306-.183a3.775,3.775,0,0,1,2.3-.781,2.465,2.465,0,0,1,2.526,2.74v2.755c0,.689.03,1.959.03,2.066,0,.322-.092.383-.444.383h-.888c-.351,0-.443-.061-.443-.383,0-.107.031-1.378.031-2.066v-2.281c0-.934-.444-1.561-1.393-1.561a2.186,2.186,0,0,0-1.347.49.576.576,0,0,0-.291.6v2.755c0,.689.031,1.959.031,2.066,0,.322-.092.383-.444.383h-.888c-.352,0-.444-.061-.444-.383,0-.107.03-1.378.03-2.066v-2.281c0-.934-.444-1.561-1.393-1.561a2.228,2.228,0,0,0-1.347.474.736.736,0,0,0-.337.689Z" transform="translate(-1543.923 -2101.326)" fill="#5c8291"/>
          <path id="パス_5560" data-name="パス 5560" d="M1635.718,2109.866c0,.689.031,1.959.031,2.066,0,.322-.092.383-.444.383h-.888c-.352,0-.444-.061-.444-.383,0-.107.031-1.378.031-2.066v-2.954c0-.688-.031-1.959-.031-2.066,0-.322.092-.383.444-.383h.75c.352,0,.413.061.428.414.015.2.047.291.123.291a.466.466,0,0,0,.229-.107,3.3,3.3,0,0,1,2.036-.688,2.431,2.431,0,0,1,1.837.734c.138.154.214.229.306.229.077,0,.153-.061.306-.183a3.774,3.774,0,0,1,2.3-.781,2.465,2.465,0,0,1,2.525,2.74v2.755c0,.689.031,1.959.031,2.066,0,.322-.092.383-.444.383h-.887c-.352,0-.444-.061-.444-.383,0-.107.031-1.378.031-2.066v-2.281c0-.934-.444-1.561-1.393-1.561a2.187,2.187,0,0,0-1.347.49.576.576,0,0,0-.291.6v2.755c0,.689.031,1.959.031,2.066,0,.322-.092.383-.444.383h-.888c-.352,0-.444-.061-.444-.383,0-.107.031-1.378.031-2.066v-2.281c0-.934-.444-1.561-1.393-1.561a2.229,2.229,0,0,0-1.347.474.736.736,0,0,0-.337.689Z" transform="translate(-1567.628 -2101.326)" fill="#5c8291"/>
        </g>
      </g>
      <rect id="長方形_208" data-name="長方形 208" width="135.764" height="27.504" rx="13.752" transform="translate(221.814 2072.881)" fill="none" stroke="#5c8291" stroke-miterlimit="10" stroke-width="1"/>
      <g id="グループ_609" data-name="グループ 609" transform="translate(242.931 2081.534)">
        <g id="グループ_608" data-name="グループ 608" transform="translate(0 0)">
          <path id="パス_5561" data-name="パス 5561" d="M280.256,2106.89c-.719,0-1.928.031-2.036.031-.336,0-.429-.122-.429-.49.015-.857.031-1.822.031-2.556v-4.806c0-.75-.015-1.668-.031-2.556,0-.367.092-.49.429-.49.107,0,1.316.031,2.036.031h1.883c3.031,0,4.837,1.684,4.837,5.1,0,3.567-1.959,5.74-5.326,5.74Zm-.658-2.035c0,.382.077.459.459.459H281.6c2.4,0,3.566-1.638,3.566-4.071,0-2.066-.98-3.535-3.2-3.535h-1.913c-.383,0-.459.076-.459.459Z" transform="translate(-277.792 -2095.947)" fill="#5c8291"/>
          <path id="パス_5562" data-name="パス 5562" d="M310.294,2106.94c-.352,0-.444-.061-.444-.383,0-.107.046-1.791.046-2.679v-4.714c0-.888-.046-2.572-.046-2.679,0-.321.092-.382.444-.382h.98c.352,0,.444.061.444.382,0,.107-.046,1.791-.046,2.679v4.714c0,.888.046,2.571.046,2.679,0,.322-.092.383-.444.383Z" transform="translate(-297.757 -2095.997)" fill="#5c8291"/>
          <path id="パス_5563" data-name="パス 5563" d="M324.768,2104.384c-.4,0-.505.031-.643.368-.214.5-.413,1.025-.673,1.76-.138.368-.214.429-.612.429h-1.071c-.245,0-.352-.031-.352-.153a.653.653,0,0,1,.092-.26c.475-1.072.811-1.837,1.133-2.587l2.188-5.188c.276-.658.6-1.393.919-2.219.138-.368.214-.429.612-.429h.658c.4,0,.475.061.612.429.321.826.628,1.561.9,2.2l2.2,5.173c.337.8.673,1.561,1.148,2.617a.65.65,0,0,1,.092.26c0,.122-.107.153-.352.153h-1.178c-.4,0-.475-.061-.612-.429-.26-.735-.459-1.255-.673-1.76-.138-.337-.23-.368-.643-.368Zm.275-1.9a.692.692,0,0,0-.061.26c0,.137.107.168.352.168h2.617c.245,0,.352-.031.352-.168a.684.684,0,0,0-.061-.26l-1.423-3.5c-.061-.153-.107-.245-.168-.245-.046,0-.107.076-.169.245Z" transform="translate(-304.96 -2095.997)" fill="#5c8291"/>
          <path id="パス_5564" data-name="パス 5564" d="M370.116,2103.879c0,.888.046,2.5.046,2.679,0,.322-.092.383-.444.383h-.949c-.352,0-.444-.061-.444-.383,0-.184.046-1.791.046-2.679v-5.356c0-.26-.046-.367-.184-.367a.633.633,0,0,0-.245.061c-.459.169-.98.383-1.378.566a.684.684,0,0,1-.29.092c-.138,0-.2-.107-.276-.337l-.291-.765a.82.82,0,0,1-.061-.291c0-.138.092-.214.352-.291a23.9,23.9,0,0,0,2.388-.9,2.03,2.03,0,0,1,.9-.184h.413c.352,0,.444.061.444.382,0,.23-.031,1.791-.031,2.679Z" transform="translate(-332.505 -2095.997)" fill="#5c8291"/>
          <path id="パス_5565" data-name="パス 5565" d="M394.646,2105.027c0,.521.031,1.423.031,1.531,0,.322-.092.383-.444.383h-.857c-.352,0-.444-.061-.444-.383,0-.107.031-1.01.031-1.531,0-.352-.061-.413-.413-.413h-2.418c-.888,0-2.2.031-2.311.031-.321,0-.383-.092-.383-.444v-.26a1.545,1.545,0,0,1,.215-.873c.336-.612.658-1.24.964-1.837l1.347-2.6c.321-.627.673-1.331,1.041-2.112.153-.352.245-.413.643-.413h1.148c.23,0,.337.031.337.137a.758.758,0,0,1-.107.26c-.49.9-.888,1.653-1.271,2.388l-1.959,3.78a.7.7,0,0,0-.092.275c0,.107.108.138.337.138h2.51c.367,0,.413-.092.413-.444,0-1.041-.031-2.434-.031-2.541,0-.322.092-.382.444-.382h.857c.352,0,.444.061.444.382,0,.107-.031,1.485-.031,2.572,0,.352.061.413.413.413.413,0,1.163-.016,1.271-.016.321,0,.383.092.383.444v.689c0,.352-.061.444-.383.444-.107,0-.857-.031-1.271-.031C394.707,2104.614,394.646,2104.675,394.646,2105.027Z" transform="translate(-346.075 -2095.997)" fill="#5c8291"/>
          <path id="パス_5566" data-name="パス 5566" d="M419.98,2120.043a1.164,1.164,0,0,1-1.209,1.24,1.045,1.045,0,0,1-1.1-1.072,1.163,1.163,0,0,1,1.225-1.224A1.037,1.037,0,0,1,419.98,2120.043Z" transform="translate(-364.903 -2110.248)" fill="#5c8291"/>
          <path id="パス_5567" data-name="パス 5567" d="M434.729,2105.187c.78,0,2.219-.031,2.326-.031.321,0,.383.092.383.444v.72c0,.352-.061.444-.383.444-.107,0-1.546-.031-2.326-.031h-1.99c-.781,0-2.219.031-2.326.031-.321,0-.383-.092-.383-.444v-.276a.719.719,0,0,1,.367-.75,10.088,10.088,0,0,0,.781-.643c2.755-2.418,4.347-3.949,4.347-5.448,0-.995-.688-1.684-1.944-1.684a3.071,3.071,0,0,0-2.235,1.01c-.138.153-.23.214-.321.214-.077,0-.169-.076-.306-.214l-.612-.658c-.123-.138-.184-.23-.184-.322,0-.107.077-.2.215-.337a5.229,5.229,0,0,1,3.6-1.393c2.326,0,3.627,1.378,3.627,3.137,0,2.158-1.73,3.887-4.071,5.924-.123.107-.169.168-.169.214,0,.061.092.092.276.092Z" transform="translate(-372.534 -2095.82)" fill="#5c8291"/>
          <path id="パス_5568" data-name="パス 5568" d="M459.912,2109.267c0,.689.031,1.959.031,2.066,0,.322-.092.383-.444.383h-.888c-.352,0-.444-.061-.444-.383,0-.107.031-1.378.031-2.066v-2.954c0-.688-.031-1.959-.031-2.066,0-.322.092-.383.444-.383h.75c.352,0,.413.061.429.413.015.2.046.291.122.291a.469.469,0,0,0,.23-.107,3.3,3.3,0,0,1,2.036-.689,2.431,2.431,0,0,1,1.837.734c.138.154.214.23.306.23.076,0,.153-.062.306-.184a3.775,3.775,0,0,1,2.3-.78,2.464,2.464,0,0,1,2.525,2.74v2.755c0,.689.031,1.959.031,2.066,0,.322-.092.383-.444.383h-.888c-.352,0-.444-.061-.444-.383,0-.107.031-1.378.031-2.066v-2.281c0-.933-.444-1.561-1.393-1.561a2.185,2.185,0,0,0-1.347.49.576.576,0,0,0-.291.6v2.755c0,.689.031,1.959.031,2.066,0,.322-.092.383-.444.383H463.4c-.352,0-.444-.061-.444-.383,0-.107.031-1.378.031-2.066v-2.281c0-.933-.444-1.561-1.393-1.561a2.228,2.228,0,0,0-1.347.474.736.736,0,0,0-.337.689Z" transform="translate(-390.124 -2100.772)" fill="#5c8291"/>
          <path id="パス_5569" data-name="パス 5569" d="M497.975,2109.267c0,.689.031,1.959.031,2.066,0,.322-.092.383-.444.383h-.888c-.352,0-.444-.061-.444-.383,0-.107.031-1.378.031-2.066v-2.954c0-.688-.031-1.959-.031-2.066,0-.322.092-.383.444-.383h.75c.352,0,.413.061.429.413.015.2.046.291.123.291a.469.469,0,0,0,.229-.107,3.3,3.3,0,0,1,2.036-.689,2.43,2.43,0,0,1,1.837.734c.138.154.214.23.306.23.077,0,.153-.062.306-.184a3.777,3.777,0,0,1,2.3-.78,2.465,2.465,0,0,1,2.526,2.74v2.755c0,.689.031,1.959.031,2.066,0,.322-.092.383-.444.383h-.888c-.352,0-.444-.061-.444-.383,0-.107.031-1.378.031-2.066v-2.281c0-.933-.444-1.561-1.393-1.561a2.186,2.186,0,0,0-1.347.49.577.577,0,0,0-.291.6v2.755c0,.689.031,1.959.031,2.066,0,.322-.092.383-.444.383h-.888c-.352,0-.444-.061-.444-.383,0-.107.03-1.378.03-2.066v-2.281c0-.933-.444-1.561-1.393-1.561a2.227,2.227,0,0,0-1.347.474.736.736,0,0,0-.337.689Z" transform="translate(-413.828 -2100.772)" fill="#5c8291"/>
        </g>
      </g>
      <rect id="長方形_209" data-name="長方形 209" width="162.561" height="27.504" rx="13.752" transform="translate(365.812 2072.881)" fill="none" stroke="#5c8291" stroke-miterlimit="10" stroke-width="1"/>
      <g id="グループ_611" data-name="グループ 611" transform="translate(382.541 2079.908)">
        <g id="グループ_610" data-name="グループ 610" transform="translate(0 0)">
          <path id="パス_5570" data-name="パス 5570" d="M657.737,2104.81h-4.745c-.123,0-.214.031-.23.23-.015.321-.122.352-.8.352-.658,0-.827-.016-.827-.368,0-.4.031-.811.031-1.209v-2.1c-.015-.092-.046-.184-.153-.184a.156.156,0,0,0-.122.077c-.276.306-1.623,1.684-1.959,1.684-.352,0-1.056-.536-1.056-.9,0-.138.122-.23.229-.306a11.064,11.064,0,0,0,3.153-3.581.445.445,0,0,0,.031-.138c0-.168-.138-.214-.276-.23h-.888c-.582,0-1.179.031-1.775.031-.306,0-.306-.138-.306-.566,0-.444,0-.582.306-.582.6,0,1.194.031,1.775.031H653.6c.245,0,.352-.107.352-.367v-.046c0-.26-.107-.368-.352-.368h-2.036c-.551,0-1.1.031-1.669.031-.306,0-.291-.184-.291-.551s0-.551.291-.551c.566,0,1.117.031,1.669.031h2.1c.214,0,.291-.076.291-.291v-.137c0-.214-.077-.291-.275-.291h-3.107c-.6,0-1.179.031-1.776.031-.321,0-.306-.2-.306-.581,0-.413,0-.582.306-.582.6,0,1.178.031,1.776.031h.979c.123,0,.245-.046.245-.2a.249.249,0,0,0-.046-.138c-.2-.29-.352-.474-.582-.765a.344.344,0,0,1-.123-.215c0-.275.919-.566,1.117-.566.23,0,.444.276.582.459a3.851,3.851,0,0,1,.612.949c0,.168-.276.291-.413.352-.016.015-.046.031-.046.061s.031.061.077.061h2.678a.586.586,0,0,0,.612-.322,9.269,9.269,0,0,0,.688-1.347c.031-.122.077-.229.215-.229a6.441,6.441,0,0,1,.964.321c.23.077.689.245.689.383s-.2.168-.306.184a.269.269,0,0,0-.2.138c-.123.168-.215.352-.322.521a.292.292,0,0,0-.046.153c0,.153.122.184.245.2h.827c.581,0,1.163-.031,1.76-.031.321,0,.321.153.321.582,0,.4,0,.581-.306.581-.6,0-1.194-.031-1.776-.031h-3.153c-.2,0-.291.077-.291.276v.153c0,.215.077.291.291.291h2.112c.566,0,1.117-.031,1.669-.031.306,0,.306.153.306.551,0,.382,0,.551-.291.551-.566,0-1.117-.031-1.684-.031h-2.036c-.26,0-.367.107-.367.368v.046c0,.26.107.367.367.367h3.52c.581,0,1.179-.031,1.775-.031.321,0,.306.153.306.582,0,.413.015.566-.306.566-.6,0-1.194-.031-1.775-.031h-6.092a.423.423,0,0,0-.413.291.453.453,0,0,0-.031.138c0,.168.138.23.291.23H657.6c.429,0,.857-.015,1.286-.015.49,0,.7.153.7.674,0,.4-.015.8-.015,1.193v3.2c0,.413.031.811.031,1.224,0,.352-.183.352-.811.352-.75,0-.811-.031-.826-.4C657.966,2104.825,657.844,2104.81,657.737,2104.81Zm-.031-4.316a.266.266,0,0,0,.291-.291v-.061a.277.277,0,0,0-.291-.306h-4.684a.277.277,0,0,0-.291.306v.061a.266.266,0,0,0,.291.291Zm-4.684.934a.282.282,0,0,0-.291.291v.092a.266.266,0,0,0,.291.291h4.684a.266.266,0,0,0,.291-.291v-.092a.273.273,0,0,0-.291-.291Zm0,1.653a.282.282,0,0,0-.291.291v.092a.282.282,0,0,0,.291.291h4.684a.273.273,0,0,0,.291-.291v-.092a.273.273,0,0,0-.291-.291Z" transform="translate(-647.88 -2091.51)" fill="#5c8291"/>
          <path id="パス_5571" data-name="パス 5571" d="M700.363,2095.734c0,.137.108.168.214.168h.4c.505,0,1.01-.015,1.515-.015.566,0,.888.138.888.766,0,.4-.031.781-.031,1.178v1.684c0,.49.031.963.031,1.3,0,.321-.153.352-.7.352-.521,0-.811,0-.949-.214a.435.435,0,0,0-.413-.153h-6.627c-.306,0-.429.122-.429.429v1.178c0,1.118.138,1.24,1.347,1.24h5.678c1.209,0,1.454-.153,1.668-1.546.061-.352.061-.5.383-.5.413,0,1.271.168,1.271.688a5.019,5.019,0,0,1-.566,1.913c-.475.857-1.179.919-2.082.919h-6.811c-2.785,0-2.495-.842-2.495-2.939v-4.209c-.016-.122-.046-.23-.184-.23a.228.228,0,0,0-.138.062,1.127,1.127,0,0,1-.536.275c-.382,0-.98-.674-.98-.995,0-.184.215-.291.352-.383a15.76,15.76,0,0,0,3.413-3.428,10.03,10.03,0,0,0,.888-1.439.294.294,0,0,1,.275-.2c.123,0,1.01.245,1.209.29.244.062.551.123.551.337,0,.153-.229.2-.352.245-.123.031-.2.153-.26.26a.3.3,0,0,0-.046.153c0,.153.123.184.245.2h2.4c.337,0,.673-.03.995-.03a1.021,1.021,0,0,1,1.056.78,6.69,6.69,0,0,1-1.117,1.714C700.393,2095.642,700.363,2095.673,700.363,2095.734Zm-5.678,1.576a.439.439,0,0,0-.429.428v1.209a.439.439,0,0,0,.429.429h2.127a.406.406,0,0,0,.413-.429v-1.209a.406.406,0,0,0-.413-.428Zm-.092-1.561c0,.107.107.153.2.153h2.984a.685.685,0,0,0,.658-.275,4.63,4.63,0,0,0,.75-1.087c0-.183-.2-.153-.383-.153h-2.663a.7.7,0,0,0-.658.291,11.745,11.745,0,0,1-.826.918A.272.272,0,0,0,694.593,2095.749Zm4.24,3.2a.406.406,0,0,0,.413.429h2.112a.438.438,0,0,0,.429-.429v-1.209a.438.438,0,0,0-.429-.428h-2.112a.406.406,0,0,0-.413.428Z" transform="translate(-674.617 -2091.586)" fill="#5c8291"/>
          <path id="パス_5572" data-name="パス 5572" d="M740.526,2095.533c.306,0,.429-.123.429-.428v-.154c0-.306-.122-.428-.429-.428h-3.643c-.612,0-1.24.031-1.867.031-.337,0-.337-.168-.337-.658,0-.52,0-.688.337-.688.627,0,1.255.03,1.867.03h3.643c.291,0,.413-.107.429-.4-.015-.2-.031-.4-.061-.6v-.154c0-.168.123-.214.275-.214.184,0,1.026.076,1.3.107.046,0,.092.015.138.015.214.016.413.031.413.2,0,.122-.077.153-.23.23a.4.4,0,0,0-.184.413c-.015.291.138.4.413.4h2.739c.628,0,1.24-.03,1.867-.03.337,0,.337.153.337.673,0,.5,0,.673-.337.673-.627,0-1.24-.031-1.867-.031h-2.755c-.291,0-.413.123-.413.428v.154c0,.306.122.428.413.428h1.179c.322,0,.643-.015.98-.015.459,0,.7.107.7.612,0,.367-.015.735-.015,1.1v4.224c0,.367.031.734.031,1.086,0,.459-.337.475-.827.475a1.393,1.393,0,0,1-.658-.107.5.5,0,0,0-.245-.107h-3.9a.571.571,0,0,0-.245.107,1.333,1.333,0,0,1-.658.107c-.49,0-.811-.031-.811-.475,0-.321.031-.735.031-1.086v-4.224c0-.367-.015-.735-.015-1.1,0-.49.245-.612.7-.612.336,0,.658.015.995.015Zm-4.331,10.1c-.643,0-.827,0-.827-.505,0-.582.031-1.178.031-1.775v-5.311a7.5,7.5,0,0,0-.046-1.026.562.562,0,0,1-.016-.153c0-.184.138-.214.275-.214.291,0,1.1.076,1.439.107.138,0,.367.015.367.214,0,.107-.092.137-.23.229-.183.107-.2.291-.2.75v5.433c0,.306.122.429.429.429h8.387c.612,0,1.225-.031,1.852-.031.352,0,.352.153.352.689s0,.688-.352.688c-.627,0-1.24-.031-1.852-.031h-8.4c-.214,0-.291.138-.444.368C736.822,2105.634,736.592,2105.634,736.194,2105.634Zm7.745-7.974a.346.346,0,0,0,.367-.367v-.153a.354.354,0,0,0-.367-.367H740.48a.354.354,0,0,0-.367.367v.153a.354.354,0,0,0,.367.367Zm-3.459,1.041a.354.354,0,0,0-.367.367v.184a.341.341,0,0,0,.367.352h3.459a.342.342,0,0,0,.367-.352v-.184a.354.354,0,0,0-.367-.367Zm0,1.943c-.26,0-.367.107-.367.367v.214c0,.26.107.367.367.367h3.459c.245,0,.367-.107.367-.367v-.214a.325.325,0,0,0-.367-.367Z" transform="translate(-701.936 -2091.738)" fill="#5c8291"/>
          <path id="パス_5573" data-name="パス 5573" d="M780.476,2098.684c0,.107-.092.154-.183.215-.123.092-.138.229-.138.75v3.765c0,.643.031,1.271.031,1.913,0,.413-.168.505-.8.505-.658,0-.8-.122-.8-.535,0-.628.031-1.255.031-1.883v-3.153c0-.092-.046-.184-.153-.184a.215.215,0,0,0-.138.046c-.153.153-.612.628-.811.628a1.884,1.884,0,0,1-.964-.979c0-.138.122-.229.229-.307a18.146,18.146,0,0,0,3.49-4.086c.061-.122.107-.214.245-.214a7.019,7.019,0,0,1,1.148.551c.107.046.275.138.275.275,0,.107-.153.138-.245.153-.138.015-.168.015-.291.2-.444.658-.918,1.286-1.408,1.913a.164.164,0,0,0-.031.092c0,.091.061.122.153.138C780.246,2098.5,780.476,2098.516,780.476,2098.684Zm.061-6.244c.061.03.138.076.2.107.23.123.459.245.459.367,0,.03-.015.137-.214.153-.123,0-.153.015-.214.092a20.976,20.976,0,0,1-2.48,2.74c-.122.107-.536.49-.673.49-.26,0-.964-.627-.964-.918,0-.168.168-.275.4-.459a14.671,14.671,0,0,0,2.541-2.709c.061-.092.123-.184.23-.184A2.474,2.474,0,0,1,780.537,2092.44Zm6.337,8.05h.643c.581,0,1.148-.03,1.729-.03.4,0,.383.2.383.734,0,.582,0,.75-.4.75-.582,0-1.148-.046-1.714-.046h-.643a.375.375,0,0,0-.428.428v1.117c0,.306.138.428.428.428h1.393c.582,0,1.148-.031,1.729-.031.4,0,.383.2.383.75s.015.749-.383.749c-.581,0-1.148-.03-1.729-.03H782.91c-.566,0-1.148.03-1.729.03-.4,0-.383-.214-.383-.749,0-.582,0-.75.4-.75.582,0,1.148.031,1.714.031h1.561c.306,0,.428-.122.428-.428v-1.117c0-.291-.123-.428-.428-.428h-.551c-.582,0-1.148.046-1.73.046-.4,0-.383-.2-.383-.75,0-.566,0-.734.4-.734.566,0,1.148.03,1.714.03h.551c.306,0,.428-.122.428-.428a4.474,4.474,0,0,0-.061-1.01v-.138c0-.2.123-.23.276-.23.077,0,1.3.077,1.423.092.092,0,.276.046.276.168s-.092.138-.2.214c-.168.107-.184.321-.168.933C786.445,2100.383,786.6,2100.49,786.874,2100.49Zm-4.393-.994a2.511,2.511,0,0,1-.7.23c-.337,0-.781-.857-.781-1.087,0-.214.352-.306.766-.459a12.843,12.843,0,0,0,2.448-1.163c.107-.077.184-.138.184-.26a.334.334,0,0,0-.107-.245,8.979,8.979,0,0,1-1.5-2.342c-.077-.137-.153-.275-.321-.275-.153,0-.321.015-.49.015-.337,0-.321-.168-.321-.689s-.015-.673.321-.673c.551,0,1.087.031,1.638.031h3.612c.352,0,.7-.015,1.056-.015a.764.764,0,0,1,.719.367,1.19,1.19,0,0,1,.352.719c0,.75-1.592,2.357-2.143,2.877a.38.38,0,0,0-.122.245c0,.122.077.184.168.245a14.056,14.056,0,0,0,3.046,1.3c.123.031.214.077.214.214,0,.306-.459,1.163-.8,1.163a1.278,1.278,0,0,1-.4-.107,15.9,15.9,0,0,1-3.276-1.623.677.677,0,0,0-.337-.107.624.624,0,0,0-.321.107A15.469,15.469,0,0,1,782.481,2099.5Zm4.806-5.4c0-.245-.2-.229-.735-.229h-1.9c-.138.015-.275.061-.275.229a.246.246,0,0,0,.046.138,7.134,7.134,0,0,0,1.025,1.393.4.4,0,0,0,.306.153.542.542,0,0,0,.306-.123C786.338,2095.394,787.287,2094.445,787.287,2094.092Z" transform="translate(-728.016 -2091.889)" fill="#5c8291"/>
          <path id="パス_5574" data-name="パス 5574" d="M835.322,2104.478c0,.888.046,2.495.046,2.678,0,.322-.092.383-.444.383h-.949c-.352,0-.444-.061-.444-.383,0-.184.046-1.791.046-2.678v-5.356c0-.26-.046-.367-.184-.367a.633.633,0,0,0-.245.061c-.459.169-.98.383-1.378.566a.681.681,0,0,1-.29.092c-.138,0-.2-.107-.276-.337l-.291-.765a.828.828,0,0,1-.061-.291c0-.138.092-.214.352-.291a23.893,23.893,0,0,0,2.388-.9,2.031,2.031,0,0,1,.9-.184h.413c.352,0,.444.061.444.383,0,.229-.031,1.791-.031,2.678Z" transform="translate(-761.829 -2094.744)" fill="#5c8291"/>
          <path id="パス_5575" data-name="パス 5575" d="M858.146,2101.515c0,.046.076.092.229.138a2.4,2.4,0,0,1,1.76,2.418c0,1.7-1.255,3.4-4.592,3.4a7.156,7.156,0,0,1-2.862-.551c-.229-.108-.321-.2-.321-.352a.7.7,0,0,1,.061-.275l.26-.75c.077-.214.138-.322.26-.322a.776.776,0,0,1,.291.122,4.657,4.657,0,0,0,2.372.6c1.806,0,2.709-.934,2.709-1.9,0-1.056-.888-1.592-2.862-1.592-.337,0-.873.015-1.026.015-.4,0-.459-.061-.459-.444v-.689c0-.4.061-.459.459-.459.169,0,.582.016.873.016,1.852,0,2.541-.658,2.541-1.5,0-.827-.75-1.346-1.928-1.346a4.019,4.019,0,0,0-2.143.6.623.623,0,0,1-.306.138c-.107,0-.184-.092-.275-.306l-.337-.7a.8.8,0,0,1-.092-.306c0-.138.092-.214.306-.322a6.606,6.606,0,0,1,3.03-.719c2.51,0,3.536,1.271,3.536,2.648a2.484,2.484,0,0,1-1.286,2.28C858.222,2101.408,858.146,2101.469,858.146,2101.515Z" transform="translate(-775.223 -2094.567)" fill="#5c8291"/>
          <path id="パス_5576" data-name="パス 5576" d="M882.427,2120.643a1.164,1.164,0,0,1-1.209,1.24,1.045,1.045,0,0,1-1.1-1.072,1.163,1.163,0,0,1,1.224-1.224A1.037,1.037,0,0,1,882.427,2120.643Z" transform="translate(-792.509 -2108.995)" fill="#5c8291"/>
          <path id="パス_5577" data-name="パス 5577" d="M897.177,2105.786c.781,0,2.219-.031,2.326-.031.321,0,.383.092.383.444v.72c0,.352-.062.443-.383.443-.107,0-1.545-.03-2.326-.03h-1.99c-.78,0-2.219.03-2.327.03-.321,0-.383-.092-.383-.443v-.276a.72.72,0,0,1,.368-.75,10.1,10.1,0,0,0,.78-.643c2.755-2.418,4.347-3.949,4.347-5.449,0-.994-.688-1.683-1.944-1.683a3.069,3.069,0,0,0-2.234,1.01c-.138.153-.23.214-.322.214-.076,0-.168-.076-.306-.214l-.612-.658c-.122-.138-.184-.23-.184-.322,0-.107.077-.2.214-.337a5.232,5.232,0,0,1,3.6-1.393c2.326,0,3.627,1.378,3.627,3.137,0,2.158-1.729,3.887-4.071,5.923-.122.107-.168.168-.168.215s.092.091.276.091Z" transform="translate(-800.141 -2094.567)" fill="#5c8291"/>
          <path id="パス_5578" data-name="パス 5578" d="M922.359,2109.866c0,.689.031,1.959.031,2.066,0,.322-.092.383-.444.383h-.888c-.352,0-.444-.061-.444-.383,0-.107.031-1.378.031-2.066v-2.954c0-.688-.031-1.959-.031-2.066,0-.322.092-.383.444-.383h.75c.352,0,.413.061.429.414.016.2.046.291.123.291a.468.468,0,0,0,.229-.107,3.3,3.3,0,0,1,2.035-.688,2.43,2.43,0,0,1,1.837.734c.138.154.214.229.306.229.076,0,.153-.061.306-.183a3.775,3.775,0,0,1,2.3-.781,2.465,2.465,0,0,1,2.526,2.74v2.755c0,.689.031,1.959.031,2.066,0,.322-.092.383-.444.383h-.888c-.352,0-.444-.061-.444-.383,0-.107.031-1.378.031-2.066v-2.281c0-.934-.444-1.561-1.393-1.561a2.186,2.186,0,0,0-1.347.49.576.576,0,0,0-.291.6v2.755c0,.689.031,1.959.031,2.066,0,.322-.092.383-.444.383h-.888c-.352,0-.444-.061-.444-.383,0-.107.031-1.378.031-2.066v-2.281c0-.934-.444-1.561-1.393-1.561a2.228,2.228,0,0,0-1.347.474.735.735,0,0,0-.337.689Z" transform="translate(-817.73 -2099.52)" fill="#5c8291"/>
          <path id="パス_5579" data-name="パス 5579" d="M960.423,2109.866c0,.689.031,1.959.031,2.066,0,.322-.092.383-.444.383h-.888c-.352,0-.444-.061-.444-.383,0-.107.031-1.378.031-2.066v-2.954c0-.688-.031-1.959-.031-2.066,0-.322.092-.383.444-.383h.75c.352,0,.413.061.429.414.016.2.046.291.123.291a.468.468,0,0,0,.229-.107,3.3,3.3,0,0,1,2.036-.688,2.43,2.43,0,0,1,1.836.734c.138.154.214.229.306.229.077,0,.154-.061.306-.183a3.776,3.776,0,0,1,2.3-.781,2.465,2.465,0,0,1,2.525,2.74v2.755c0,.689.031,1.959.031,2.066,0,.322-.092.383-.444.383h-.888c-.352,0-.444-.061-.444-.383,0-.107.031-1.378.031-2.066v-2.281c0-.934-.444-1.561-1.393-1.561a2.187,2.187,0,0,0-1.347.49.577.577,0,0,0-.291.6v2.755c0,.689.031,1.959.031,2.066,0,.322-.092.383-.444.383h-.888c-.352,0-.444-.061-.444-.383,0-.107.031-1.378.031-2.066v-2.281c0-.934-.444-1.561-1.393-1.561a2.228,2.228,0,0,0-1.347.474.735.735,0,0,0-.336.689Z" transform="translate(-841.434 -2099.52)" fill="#5c8291"/>
        </g>
      </g>
    </g>
  </g>
</svg>
