<svg xmlns="http://www.w3.org/2000/svg" width="1081.209" height="173.688" viewBox="0 0 1081.209 173.688">
  <g id="グループ_2435" data-name="グループ 2435" transform="translate(-464.68 -1741.197)">
    <g id="グループ_580" data-name="グループ 580" transform="translate(-4.51 -39.386)">
      <path id="パス_5420" data-name="パス 5420" d="M499.542,1851.633c0,8.792-6.5,15.736-13.608,20.048-.952.56-3.752,2.073-4.816,2.073-1.68,0-3.976-3.809-3.976-4.705,0-.56.616-.784,1.12-.952,6.72-2.128,15.008-8.232,15.008-16.015,0-4.761-3.024-7.728-7.784-7.728-4.7,0-8.512,2.352-11.984,5.263a2.54,2.54,0,0,1-1.176.56c-1.344,0-3.136-4.031-3.136-5.319,0-.9,1.008-1.4,1.68-1.736,4.48-2.465,9.744-4.536,14.952-4.536C493.774,1838.586,499.542,1843.4,499.542,1851.633Zm-23.24-23.8c.224-.5.448-1.064,1.12-1.064a1.966,1.966,0,0,1,.9.336c3.528,1.511,10.136,2.408,14,2.8.784.057,1.4.057,1.4.9a24.077,24.077,0,0,1-.56,3.416c-.28,1.121-.616,1.681-1.512,1.681-1.792,0-10.752-1.96-12.88-2.52-2.352-.617-3.584-.9-3.584-1.792A13.112,13.112,0,0,1,476.3,1827.834Z" fill="#877877"/>
      <path id="パス_5421" data-name="パス 5421" d="M555.038,1833.938c0,.392-.616.728-1.232,1.175a54.288,54.288,0,0,0-8.12,7.5,1.679,1.679,0,0,0-.561.952c0,.449.449.729.953.729a3.341,3.341,0,0,0,.728-.112,10.634,10.634,0,0,1,2.3-.224,16.41,16.41,0,0,1,6.888,1.68,11.574,11.574,0,0,1,6.664,10.864c0,9.912-8.792,15.063-17.808,15.063-4.648,0-11.256-1.9-11.256-7.616a7.032,7.032,0,0,1,7.168-6.776,9.134,9.134,0,0,1,7.448,3.976,5.571,5.571,0,0,1,1.008,3.584c.056.393.223.728.672.728,1.456,0,6.776-2.968,6.776-8.624,0-5.432-4.592-7.671-9.464-7.671-5.1,0-8.96,1.96-12.544,5.487-2.184,2.128-4.2,4.424-6.217,6.721a.759.759,0,0,1-.615.392c-1.176,0-4.032-3.137-4.032-4.033,0-.671.84-1.288,1.344-1.68a224.562,224.562,0,0,0,17.416-17.583c.448-.448,1.456-1.456,1.456-2.016,0-.5-.505-.673-.952-.673-.281,0-1.008.169-1.345.224-1.343.336-9.239,1.96-10.135,1.96-1.232,0-1.4-4.2-1.4-5.151,0-1.289.055-1.4,1.736-1.4h1.344c3.584,0,10.92-.785,14.168-2.073a7.671,7.671,0,0,1,2.128-.615C551.79,1828.73,555.038,1832.986,555.038,1833.938Zm-14.168,27.776a2.319,2.319,0,0,0-2.408,2.239c0,2.016,2.688,2.969,4.368,2.969,1.064,0,1.512-1.009,1.512-1.905A3.421,3.421,0,0,0,540.87,1861.714Z" fill="#877877"/>
      <path id="パス_5422" data-name="パス 5422" d="M618.262,1851.633c0,8.792-6.5,15.736-13.608,20.048-.952.56-3.752,2.073-4.816,2.073-1.68,0-3.976-3.809-3.976-4.705,0-.56.616-.784,1.12-.952,6.72-2.128,15.008-8.232,15.008-16.015,0-4.761-3.024-7.728-7.784-7.728-4.7,0-8.512,2.352-11.984,5.263a2.54,2.54,0,0,1-1.176.56c-1.344,0-3.136-4.031-3.136-5.319,0-.9,1.008-1.4,1.68-1.736,4.48-2.465,9.744-4.536,14.952-4.536C612.494,1838.586,618.262,1843.4,618.262,1851.633Zm-23.24-23.8c.224-.5.448-1.064,1.12-1.064a1.966,1.966,0,0,1,.9.336c3.528,1.511,10.136,2.408,14,2.8.784.057,1.4.057,1.4.9a24.073,24.073,0,0,1-.56,3.416c-.28,1.121-.616,1.681-1.512,1.681-1.792,0-10.752-1.96-12.88-2.52-2.352-.617-3.584-.9-3.584-1.792A13.113,13.113,0,0,1,595.022,1827.834Z" fill="#877877"/>
      <path id="パス_5423" data-name="パス 5423" d="M673.758,1833.938c0,.392-.616.728-1.232,1.175a54.339,54.339,0,0,0-8.12,7.5,1.677,1.677,0,0,0-.56.952c0,.449.448.729.952.729a3.341,3.341,0,0,0,.728-.112,10.635,10.635,0,0,1,2.3-.224,16.41,16.41,0,0,1,6.888,1.68,11.573,11.573,0,0,1,6.664,10.864c0,9.912-8.792,15.063-17.808,15.063-4.648,0-11.256-1.9-11.256-7.616a7.032,7.032,0,0,1,7.168-6.776,9.135,9.135,0,0,1,7.448,3.976,5.571,5.571,0,0,1,1.008,3.584c.056.393.224.728.672.728,1.456,0,6.776-2.968,6.776-8.624,0-5.432-4.592-7.671-9.464-7.671-5.1,0-8.96,1.96-12.544,5.487-2.184,2.128-4.2,4.424-6.216,6.721a.762.762,0,0,1-.616.392c-1.176,0-4.032-3.137-4.032-4.033,0-.671.84-1.288,1.344-1.68a224.392,224.392,0,0,0,17.416-17.583c.448-.448,1.456-1.456,1.456-2.016,0-.5-.5-.673-.952-.673-.28,0-1.008.169-1.344.224-1.344.336-9.24,1.96-10.136,1.96-1.232,0-1.4-4.2-1.4-5.151,0-1.289.056-1.4,1.736-1.4h1.344c3.584,0,10.92-.785,14.168-2.073a7.67,7.67,0,0,1,2.128-.615C670.51,1828.73,673.758,1832.986,673.758,1833.938Zm-14.168,27.776a2.319,2.319,0,0,0-2.408,2.239c0,2.016,2.688,2.969,4.368,2.969,1.064,0,1.512-1.009,1.512-1.905A3.421,3.421,0,0,0,659.59,1861.714Z" fill="#877877"/>
      <path id="パス_5424" data-name="パス 5424" d="M702.318,1850.234c-.952,0-1.9.168-2.8.168-1.344,0-1.288-.729-1.288-2.745s-.056-2.743,1.288-2.743c.9,0,1.848.112,2.8.112h1.456c1.12,0,2.24-.112,3.36-.112,1.96,0,3.136.5,3.136,2.688,0,1.511-.112,3.079-.112,4.592v8.175c0,3.08-.056,5.768,3.864,6.945,3.136.951,8.288,1.064,12.6,1.064h4.088c3.528,0,7,0,10.472-.113.839-.055,4.7-.224,5.151-.224,1.064,0,1.121.673,1.121,1.624,0,3.529-1.008,3.808-3.3,3.808H727.966c-5.208,0-16.968.392-20.16-4.424a1.315,1.315,0,0,0-1.008-.616,1.215,1.215,0,0,0-.784.281c-1.4,1.119-2.744,2.239-4.144,3.248a1.559,1.559,0,0,0-.84,1.343.773.773,0,0,1-.728.672c-.5,0-.672-.391-.952-.951-.5-.953-2.3-4.088-2.3-4.985,0-.616,1.12-1.064,2.184-1.512a45.357,45.357,0,0,0,4.088-2.408,2.18,2.18,0,0,0,1.288-2.351V1851.8c0-1.064-.448-1.567-1.568-1.567Zm5.6-12.04c-.5,0-.84-.5-1.12-.9a62.348,62.348,0,0,0-7.056-7.84c-.336-.336-.728-.672-.728-1.12,0-.953,2.464-2.913,3.36-2.913.5,0,.9.449,1.288.841,1.288,1.287,2.576,2.632,3.808,3.975.728.785,3.808,4.257,3.808,5.153C711.278,1836.345,708.982,1838.194,707.918,1838.194Zm24.7,2.24c-.392,0-.56.336-.616.672.056.839.112,1.679.112,2.575,0,1.68-.56,1.68-2.856,1.68-2.184,0-2.8-.056-2.8-1.68,0-.783.056-1.9.112-2.743,0-.392-.168-.728-.616-.728a.744.744,0,0,0-.448.168,41.8,41.8,0,0,1-10.976,6.775,7.175,7.175,0,0,1-1.848.617c-1.12,0-2.632-2.744-2.632-3.529,0-.5.336-.672,2.072-1.343a46.452,46.452,0,0,0,9.632-5.04.58.58,0,0,0,.224-.449c0-.336-.28-.447-.56-.5h-2.352c-1.96,0-3.92.113-5.88.113-1.176,0-1.232-.392-1.232-2.073,0-1.567.056-2.016,1.232-2.016,1.96,0,3.92.113,5.88.113h6.216c.951,0,1.344-.392,1.344-1.345v-.111c0-.84-.393-1.345-1.232-1.288-3.024.167-6.1.448-9.128.448-1.12,0-1.288-.224-1.568-.841a8.386,8.386,0,0,1-.5-2.352c0-1.064.9-1.007,1.68-1.007h2.072c5.824,0,15.848-.448,21.336-1.96a4.889,4.889,0,0,1,1.232-.28c.9,0,3.528,3.3,3.528,4.032a.572.572,0,0,1-.5.616,2.19,2.19,0,0,1-.784-.281,1.04,1.04,0,0,0-.729-.224,5.618,5.618,0,0,0-.9.113c-2.631.5-5.263.9-7.951,1.175a1.222,1.222,0,0,0-1.232,1.4v.337c0,1.119.5,1.568,1.568,1.568h6.552c1.959,0,3.919-.113,5.879-.113,1.288,0,1.233.505,1.233,2.016,0,1.624,0,2.073-1.233,2.073-1.96,0-3.92-.113-5.879-.113h-3.416c-.28.057-.56.168-.56.5,0,.168.112.281.224.449a41.7,41.7,0,0,0,9.744,5.151c.784.281,1.736.56,1.736,1.177,0,1.064-1.792,3.639-2.913,3.639a13.672,13.672,0,0,1-3.527-1.511,43.869,43.869,0,0,1-8.232-5.657A.839.839,0,0,0,732.614,1840.434Zm-15.232,10.415c-1.12,0-1.176-.447-1.176-2.128,0-1.735,0-2.184,1.176-2.184,1.12,0,3.024.113,4.872.113h7.672c1.511,0,3.024-.113,4.592-.113,1.12,0,2.576.337,2.576,1.737a11.8,11.8,0,0,1-.5,2.352c0,.111-.056.279-.056.392,0,.783.56,1.064,1.232,1.064h.448c1.232,0,2.52-.056,3.752-.056,2.015,0,2.632.56,2.632,2.407a22.166,22.166,0,0,1-2.128,9.3c-1.4,2.575-3.36,2.967-7.9,2.967-3.528,0-4.312-.392-4.312-3.7,0-.841.112-1.345,1.064-1.345.392,0,.952.057,1.288.057.952.056,1.624.168,2.575.168,1.624,0,2.073-.112,2.689-1.289a9.314,9.314,0,0,0,1.008-3.64c0-.9-.728-.783-1.512-.783H736.2c-.672,0-.9.279-1.512,1.064a2.063,2.063,0,0,1-1.4.392c-.9,0-3.7-.168-3.7-1.4a2.1,2.1,0,0,1,.223-.84,24.232,24.232,0,0,0,1.121-4.031c0-.673-.9-.617-1.456-.617H728.19c-1.064,0-1.512.393-1.68,1.457-1.4,9.52-8.68,13.943-9.632,13.943-1.12,0-3.472-1.9-3.472-3.024,0-.392.448-.616.728-.839,3.7-2.577,6.216-5.544,7.112-10.024,0-.168.056-.281.056-.392,0-.84-.672-1.064-1.344-1.121C719.118,1850.794,718.222,1850.849,717.382,1850.849Z" fill="#877877"/>
      <path id="パス_5425" data-name="パス 5425" d="M766.662,1858.13c-1.064,0-1.456.392-1.512,1.511,0,.784.056,1.569.056,2.352,0,1.4-.56,1.4-2.968,1.4-2.3,0-2.912,0-2.912-1.344,0-2.016.111-4.032.111-6.047v-20.553c0-1.511-.111-3.024-.111-4.535,0-2.016.672-2.744,2.688-2.744,1.288,0,2.576.056,3.864.056h4.872c1.288,0,2.576-.056,3.864-.056,1.96,0,2.743.616,2.743,2.631,0,1.569-.111,3.137-.111,4.648v18.593c0,2.015.111,4.031.111,6.048,0,1.4-.671,1.343-2.856,1.343-2.015,0-2.911.113-2.911-1.232,0-.279.056-.56.056-.84a1.135,1.135,0,0,0-1.289-1.231Zm5.04-23.24a1.486,1.486,0,0,0-1.513-1.569h-3.527a1.6,1.6,0,0,0-1.568,1.569v4.032a1.6,1.6,0,0,0,1.568,1.567h3.527a1.483,1.483,0,0,0,1.513-1.567Zm-1.513,17.92a1.486,1.486,0,0,0,1.513-1.569v-4.255a1.484,1.484,0,0,0-1.513-1.568h-3.527a1.6,1.6,0,0,0-1.568,1.568v4.255a1.6,1.6,0,0,0,1.568,1.569Zm19.153,2.464c-1.065,0-1.512.392-1.737,1.456-1.175,6.1-3.7,12.039-8.007,16.519-.5.505-1.064,1.176-1.792,1.176-1.176,0-3.92-2.408-3.92-3.584,0-.5.5-.9,1.064-1.456,6.832-6.664,7.672-13.608,7.672-22.735v-11.705c0-1.735-.112-3.471-.112-5.263,0-2.072.783-2.744,2.8-2.744,1.512,0,3.023.111,4.48.111h6.775c1.456,0,2.969-.111,4.425-.111,2.015,0,2.856.615,2.856,2.688,0,1.792-.113,3.584-.113,5.319v28.617c0,1.4.113,2.8.113,4.143,0,1.96-.168,3.7-1.737,5.04-1.847,1.569-4.984,1.737-7.336,1.737-1.567,0-2.127-.281-2.631-1.792a9.477,9.477,0,0,1-.5-2.8c0-.783.279-1.288,1.12-1.288h.727c.56.056,1.177.113,1.737.113,2.856,0,2.912-.9,2.912-3.473v-8.4c0-1.12-.448-1.567-1.569-1.567Zm7.223-16.577a1.6,1.6,0,0,0,1.569-1.567v-3.305a1.6,1.6,0,0,0-1.569-1.568H789.79a1.6,1.6,0,0,0-1.568,1.568v3.305a1.6,1.6,0,0,0,1.568,1.567Zm-6.775,4.872c-1.121,0-1.568.5-1.568,1.568v3.529c0,1.119.447,1.568,1.511,1.568h6.832c1.121,0,1.569-.449,1.569-1.513v-3.584c0-1.064-.448-1.568-1.569-1.568Z" fill="#877877"/>
      <path id="パス_5426" data-name="パス 5426" d="M860.014,1829.737c0,.393.28.561.672.561,1.288,0,2.576-.112,3.92-.112s1.344.56,1.344,2.52,0,2.52-1.344,2.52c-2.24,0-4.424-.168-6.664-.168h-7.336c-.672,0-1.344.28-1.344,1.119a.706.706,0,0,0,.056.336,34.162,34.162,0,0,0,1.68,6.664.664.664,0,0,0,.616.5.68.68,0,0,0,.672-.391,41.361,41.361,0,0,0,2.632-5.768c.168-.449.28-1.177.9-1.177a18.91,18.91,0,0,1,3.08,1.345,6.8,6.8,0,0,0,.728.336c1.176.56,1.792.784,1.792,1.288,0,.447-.448.615-.784.728-.672.168-.784.447-1.288,1.4a70.153,70.153,0,0,1-4.144,7.168,2.345,2.345,0,0,0-.448,1.175,1.409,1.409,0,0,0,.5,1.12c.84,1.008,2.352,2.577,3.752,2.577,1.736,0,2.128-3.361,2.352-4.705.056-.392.168-.839,1.064-.839,1.344,0,3.752.672,3.752,2.3a13.916,13.916,0,0,1-1.68,5.936,5.343,5.343,0,0,1-4.984,2.911c-3.08,0-5.6-1.679-7.672-3.864a1.363,1.363,0,0,0-1.008-.5,1.348,1.348,0,0,0-.952.5c-.112.112-.336.28-.56.5-.9.952-2.464,2.465-3.136,2.465-.952,0-3.472-2.3-3.472-3.248,0-.505,1.008-1.288,1.4-1.624a24.574,24.574,0,0,0,2.744-2.633,1.994,1.994,0,0,0,.616-1.287,2.8,2.8,0,0,0-.28-1.177,42.323,42.323,0,0,1-3.584-11.7,1.49,1.49,0,0,0-1.736-1.455H827.254c-1.064,0-1.568.448-1.568,1.568v4.872a38.623,38.623,0,0,1-2.52,14.5c-.392,1.064-1.848,4.759-3.08,4.759-1.008,0-4.144-2.016-4.144-3.135a12.612,12.612,0,0,1,.9-1.681c2.744-4.872,3.416-10.808,3.416-16.352v-3.08c0-1.568-.112-2.8-.112-3.807,0-2.128,1.344-2.465,3.136-2.465,1.736,0,3.472.113,5.208.113h12.992c1.008-.113,1.456-.449,1.456-1.513,0-.951-.28-3.191-.28-3.3,0-.784.616-.9,1.232-.9.336,0,3.192.168,3.752.223,1.568.113,2.464.113,2.464.9,0,.505-.5.673-.952.953-.5.28-.56.616-.56,1.288a4.23,4.23,0,0,0,.056.839c.056,1.121.56,1.4,1.568,1.513h6.048c.224-.056.5-.113.5-.392a.4.4,0,0,0-.224-.393,22.5,22.5,0,0,0-2.576-1.343c-1.344-.616-1.9-.841-1.9-1.344,0-.729,1.12-2.688,1.9-2.688a17.155,17.155,0,0,1,3.528,1.512c.672.336,3.192,1.679,3.192,2.3a3.275,3.275,0,0,1-.5,1.288A.742.742,0,0,0,860.014,1829.737Zm-33.04,31.584c.336.112.84.336.84.84,0,.56-.728.673-.9.728-.5.113-.616.56-.728.952a45.349,45.349,0,0,1-3.92,8.344,1.519,1.519,0,0,1-1.456.952c-1.008,0-3.92-1.007-3.92-2.128a1.411,1.411,0,0,1,.336-.839,34.818,34.818,0,0,0,4.312-9.241c.112-.447.224-1.064.84-1.064C822.774,1859.865,826.3,1861.1,826.974,1861.321Zm5.376-19.879c-1.232,0-2.464.111-3.752.111-1.064,0-1.008-.839-1.008-1.96,0-1.175-.056-1.9,1.064-1.9,1.232,0,2.464.056,3.7.056h5.04c1.232,0,2.464-.056,3.7-.056,1.12,0,1.064.615,1.064,1.9,0,1.177.056,1.96-1.008,1.96-1.232,0-2.464-.111-3.752-.111Zm9.072,9.744c0,.783.056,1.343.056,2.015,0,1.4-.616,2.016-2.016,2.016-.952,0-1.848-.111-2.744-.111h-2.856c-.56,0-1.344,0-1.568.951-.112.673-.28.673-2.3.673-1.344,0-1.96.055-1.96-1.009v-7.951c0-.673-.056-1.345-.056-2.016,0-1.456.672-2.017,2.128-2.017.9,0,1.792.113,2.688.113h3.92c.9,0,1.792-.113,2.688-.113,1.4,0,2.072.5,2.072,2.017,0,.671-.056,1.343-.056,2.016Zm5.6,17.247c1.12,0,2.24.224,2.856-3.471.168-.9.168-1.513,1.232-1.513,1.4,0,4.2.785,4.2,2.464a15.718,15.718,0,0,1-1.848,5.6c-1.456,2.3-3.136,2.073-6.272,2.073H834.254c-2.744,0-5.32-.392-5.32-3.809,0-.784.056-1.512.056-2.295v-3.361c0-1.568-.168-3.528-.168-4.088s.336-.783.84-.783c.9,0,4.424.336,5.432.391.448.056,1.064.168,1.064.728,0,.281-.224.449-.448.617-.784.5-.9.615-.9,2.687v3.3c0,1.569.84,1.456,2.3,1.456Zm-14.672-18.648a1.6,1.6,0,0,0,1.568,1.569h1.568a1.6,1.6,0,0,0,1.568-1.569v-.559a1.566,1.566,0,0,0-1.568-1.569h-1.568a1.566,1.566,0,0,0-1.568,1.569Zm11.424,16.073c-.5,0-.84-.449-1.12-.841a57.79,57.79,0,0,0-4.48-4.592c-.28-.279-.728-.616-.728-1.064,0-.839,2.8-2.744,3.528-2.744.672,0,3.248,2.52,3.864,3.137s2.688,2.52,2.688,3.3C847.526,1864.066,844.67,1865.858,843.774,1865.858Zm17.472,6.664c-.784,0-1.008-.673-1.232-1.288a44.085,44.085,0,0,0-4.256-7.617,2.654,2.654,0,0,1-.5-1.064c0-1.007,3.08-2.184,3.92-2.184a1.314,1.314,0,0,1,1.008.617,41.419,41.419,0,0,1,2.576,4.031c.5.841,2.688,4.48,2.688,5.264C865.446,1871.569,861.918,1872.522,861.246,1872.522Z" fill="#877877"/>
      <path id="パス_5427" data-name="パス 5427" d="M909.35,1833.21c1.568,0,4.144-.112,4.928-.112,1.176,0,1.96,1.008,2.688,1.736.5.5,1.96,2.071,1.96,2.631,0,.5-.448,1.064-.84,3.249-1.848,10.527-5.992,17.919-14.84,24.08a50.854,50.854,0,0,1-10.752,5.767,6.917,6.917,0,0,1-1.848.505c-1.288,0-3.3-3.752-3.3-4.705,0-.616.5-.784,1.008-.9a39.411,39.411,0,0,0,13.944-7.392,26.336,26.336,0,0,0,9.128-16.3,13.513,13.513,0,0,0,.168-1.4c0-1.064-.952-1.177-1.96-1.177H889.694c-2.352,0-4.648.113-7,.113-1.68,0-1.68-.5-1.68-2.969,0-2.631-.056-3.247,1.568-3.247,2.408,0,4.816.112,7.224.112Zm14-.785c0,.785-1.96,2.577-2.688,2.577-.336,0-.5-.281-.728-.5a45.107,45.107,0,0,0-4.2-4.48c-.168-.224-.448-.449-.448-.728,0-.617,2.072-2.352,2.688-2.352S923.35,1831.754,923.35,1832.425Zm5.04-4.312c0,.785-1.96,2.577-2.632,2.577-.28,0-.56-.336-.728-.5a53.4,53.4,0,0,0-4.2-4.536c-.168-.168-.448-.393-.448-.672,0-.672,2.072-2.352,2.688-2.352S928.39,1827.385,928.39,1828.113Z" fill="#877877"/>
      <path id="パス_5428" data-name="パス 5428" d="M952.19,1833.042c.672.111,1.4.111,1.4.672,0,.279-.336.56-.56.784-.336.336-.28,1.287-.28,1.792v1.232c0,11.591-.784,21.447-9.688,29.96-.448.391-1.12,1.175-1.736,1.175-.84,0-4.984-2.071-4.984-3.08,0-.392.448-.783.728-1.008,8.512-7.056,9.576-14.9,9.576-25.312,0-1.68-.056-3.919-.224-5.543,0-.168-.056-.448-.056-.616,0-.505.336-.616.728-.616C948.158,1832.482,951.014,1832.874,952.19,1833.042Zm13.272,23.407c0,1.737.056,2.577.9,2.577,1.849,0,12.88-9.856,14.672-11.7.281-.279.672-.728,1.12-.728.953,0,2.857,3.584,2.857,4.48,0,.84-2.185,2.632-2.912,3.248-3.361,2.913-6.72,5.769-10.248,8.4-1.512,1.177-3.92,2.969-5.264,4.144-.5.392-1.064,1.008-1.736,1.008a14.5,14.5,0,0,1-3.865-1.679c-.783-.449-1.792-1.009-1.792-2.017,0-.392.225-4.031.225-6.719v-19.6a48.487,48.487,0,0,0-.225-5.712v-.281a.5.5,0,0,1,.561-.559c.336,0,1.735.223,2.184.28,2.912.392,4.536.56,4.536,1.175,0,.392-.224.505-.449.785a2.192,2.192,0,0,0-.5,1.456c-.056,1.288-.056,4.088-.056,5.487Z" fill="#877877"/>
      <path id="パス_5429" data-name="パス 5429" d="M1032.1,1845.922c2.576,0,6.215-.168,6.944-.168,1.512,0,1.567.447,1.567,3.527,0,1.792-.055,2.856-1.511,2.856-2.353,0-4.705-.111-7-.111h-25.76c-2.3,0-4.649.111-7,.111-1.456,0-1.512-1.064-1.512-2.8,0-3.137.111-3.584,1.567-3.584.729,0,4.592.168,6.945.168Z" fill="#877877"/>
      <path id="パス_5430" data-name="パス 5430" d="M1089.222,1835.73a9.831,9.831,0,0,0,2.24-.168,2.382,2.382,0,0,1,.616-.113c1.232,0,4.088,3.416,4.088,4.312a5.434,5.434,0,0,1-.672,1.345c-.336.615-.9,1.456-1.456,2.575-5.544,10.7-10.92,18.816-21.28,25.48-1.232.784-6.44,3.976-7.616,3.976-1.288,0-4.76-2.744-4.76-3.752,0-.56.728-.9,1.12-1.064a49.4,49.4,0,0,0,21.672-17.919c.9-1.345,4.312-6.776,4.312-8.176,0-.728-.952-.784-1.736-.784h-10.64c-1.12.111-1.344.111-2.352,1.511-1.008,1.512-7.5,9.241-8.96,9.241-.728,0-4.816-2.128-4.816-3.36a1.035,1.035,0,0,1,.5-.785c5.768-4.423,12.488-13.159,14.952-19.991.224-.56.448-1.344.9-1.344a29.615,29.615,0,0,1,3.976,1.735,6.684,6.684,0,0,0,.728.337c.672.28,1.68.616,1.68,1.119,0,.336-.56.56-.84.728-.672.393-.9.841-1.456,1.849-.224.392-.448.784-.784,1.343a2.246,2.246,0,0,0-.392,1.009c0,.56.448.839.952.9Zm11.312-1.12c0,.839-2.184,2.352-2.856,2.352-.336,0-.5-.336-.728-.617-1.12-1.679-2.352-3.359-3.64-4.927-.168-.224-.392-.449-.392-.728,0-.672,2.3-2.073,2.912-2.073S1100.534,1833.993,1100.534,1834.61Zm5.768-3.473c0,.841-2.184,2.3-2.857,2.3-.391,0-.559-.281-.727-.56a53.79,53.79,0,0,0-3.7-4.929,1.2,1.2,0,0,1-.391-.671c0-.728,2.3-2.128,2.912-2.128C1102.1,1825.146,1106.3,1830.409,1106.3,1831.137Z" fill="#877877"/>
      <path id="パス_5431" data-name="パス 5431" d="M1129.822,1859.026c0,1.4.113,2.3,1.12,2.3a24.168,24.168,0,0,0,4.592-1.792,77.641,77.641,0,0,0,21.5-14.728c.336-.336.84-.9,1.344-.9.9,0,2.8,3.7,2.8,4.816a1.625,1.625,0,0,1-.617,1.009c-1.232,1.232-2.576,2.352-3.92,3.471a100.266,100.266,0,0,1-24.64,14.56,20.892,20.892,0,0,0-1.96.9,3.337,3.337,0,0,1-1.4.56,19.718,19.718,0,0,1-4.423-2.071c-.672-.505-.729-1.009-.729-1.961,0-1.9.112-3.975.112-6.048v-22.792c0-1.232,0-2.463-.055-3.416-.057-.391-.168-1.568-.168-1.847a.6.6,0,0,1,.615-.673,11.8,11.8,0,0,1,1.176.169c.9.112,3.7.559,4.536.783.5.113,1.177.168,1.177.729,0,.335-.281.5-.505.728a2.15,2.15,0,0,0-.5,1.735c-.056.841-.056,1.737-.056,2.633Z" fill="#877877"/>
      <path id="パス_5432" data-name="パス 5432" d="M1210.183,1845.922c2.576,0,6.215-.168,6.944-.168,1.512,0,1.567.447,1.567,3.527,0,1.792-.055,2.856-1.511,2.856-2.353,0-4.7-.111-7-.111h-25.76c-2.3,0-4.649.111-7,.111-1.456,0-1.512-1.064-1.512-2.8,0-3.137.111-3.584,1.568-3.584.728,0,4.591.168,6.944.168Z" fill="#877877"/>
      <path id="パス_5433" data-name="パス 5433" d="M1248.542,1859.026c0,1.4.112,2.3,1.12,2.3a24.165,24.165,0,0,0,4.592-1.792,77.658,77.658,0,0,0,21.5-14.728c.336-.336.84-.9,1.344-.9.9,0,2.8,3.7,2.8,4.816a1.628,1.628,0,0,1-.616,1.009c-1.232,1.232-2.576,2.352-3.92,3.471a100.266,100.266,0,0,1-24.64,14.56,20.892,20.892,0,0,0-1.96.9,3.342,3.342,0,0,1-1.4.56,19.7,19.7,0,0,1-4.424-2.071c-.671-.505-.728-1.009-.728-1.961,0-1.9.112-3.975.112-6.048v-22.792c0-1.232,0-2.463-.055-3.416-.057-.391-.169-1.568-.169-1.847a.6.6,0,0,1,.616-.673c.224,0,.84.113,1.177.169.9.112,3.695.559,4.535.783.5.113,1.176.168,1.176.729,0,.335-.28.5-.5.728a2.15,2.15,0,0,0-.5,1.735c-.056.841-.056,1.737-.056,2.633Z" fill="#877877"/>
      <path id="パス_5434" data-name="パス 5434" d="M1339.318,1843.794c0,.951-2.24,3.135-2.967,3.863-9.073,9.352-18.592,15.624-30.409,21.112-1.847.9-1.9.952-2.351,1.9a.561.561,0,0,1-.561.336c-.616,0-1.792-2.24-2.183-2.912a15.678,15.678,0,0,1-1.681-3.36c0-.616,1.009-.728,1.736-.952,12.376-3.639,26.376-14.223,34.328-24.36a1.376,1.376,0,0,1,.953-.615C1337.3,1838.81,1339.318,1842.953,1339.318,1843.794Zm-28.9-9.241c.728.505,3.416,2.352,3.416,3.193,0,1.287-2.632,4.312-3.7,4.312a6,6,0,0,1-2.241-1.512,69.593,69.593,0,0,0-7.448-5.208c-.447-.28-.9-.561-.9-1.064,0-.84,2.24-4.424,3.527-4.424C1303.982,1829.85,1309.358,1833.77,1310.422,1834.553Z" fill="#877877"/>
      <path id="パス_5435" data-name="パス 5435" d="M1381.935,1833.489c.952,0,3.192,0,4.032-.111a8.981,8.981,0,0,1,1.231-.112c1.177,0,3.584,3.024,3.584,3.752,0,.447-.672,1.232-.9,1.624-.784,1.119-1.68,2.743-2.408,3.975a83.75,83.75,0,0,1-6.1,8.681,1.607,1.607,0,0,0-.5,1.12,1.478,1.478,0,0,0,.84,1.287,84.74,84.74,0,0,1,9.464,7.224c1.4,1.232,2.744,2.464,4.032,3.752a1.253,1.253,0,0,1,.447.841c0,1.232-3.08,4.535-4.311,4.535a1.837,1.837,0,0,1-1.344-.9c-4.032-4.759-7.448-7.447-12.433-11.088a2.161,2.161,0,0,0-1.231-.5c-.84,0-1.513.785-2.072,1.344a58.419,58.419,0,0,1-13.945,9.633,8.776,8.776,0,0,1-2.183.839c-1.12,0-3.7-3.7-3.7-4.7,0-.728.729-1.008,1.289-1.232,9.744-3.752,19.544-12.6,25.032-21.447a3.559,3.559,0,0,0,.727-1.624c0-.84-.951-.953-1.792-.953h-11.423c-2.409,0-4.816.113-7.168.113-1.512,0-1.4-1.009-1.4-3.193,0-2.015-.112-3.024,1.288-3.024,2.407,0,4.871.168,7.28.168Zm14.9,0c0,.841-1.96,2.577-2.688,2.577-.336,0-.672-.5-1.233-1.121-1.119-1.343-2.351-2.631-3.584-3.863-.223-.224-.5-.449-.5-.784,0-.616,2.073-2.3,2.744-2.3C1392.127,1828,1396.831,1832.761,1396.831,1833.489Zm5.544-3.807c0,.783-1.9,2.519-2.688,2.519-.281,0-.56-.336-.728-.559a59.087,59.087,0,0,0-4.032-4.368c-.225-.225-.5-.5-.5-.785,0-.671,2.071-2.351,2.687-2.351C1397.671,1824.138,1402.375,1828.9,1402.375,1829.682Z" fill="#877877"/>
      <path id="パス_5436" data-name="パス 5436" d="M1415.87,1834.666c8.176-.5,16.352-1.345,24.472-2.3,4.256-.505,8.512-1.064,12.712-1.737a3.247,3.247,0,0,1,.728-.055c.84,0,.952.728,1.064,1.4a25.45,25.45,0,0,1,.5,4.088c0,1.232-1.176,1.12-2.52,1.175-3.248.057-6.1.057-9.3,1.177a17.02,17.02,0,0,0-9.52,8.343,20.969,20.969,0,0,0-2.688,9.856c0,6.5,4.144,8.064,9.856,8.064.952,0,2.184-.055,2.8-.055.84,0,1.288.055,1.288.951a15.862,15.862,0,0,1-.84,4.593c-.392.839-.84.951-1.792.951-9.52,0-17.7-3.024-17.7-13.944a24.863,24.863,0,0,1,6.161-16.071c.615-.672.951-1.064.951-1.345,0-.5-.448-.671-.84-.671s-2.968.448-3.527.5c-3.752.56-8.792,1.345-12.376,2.3a4.352,4.352,0,0,1-.841.113c-.783,0-1.064-1.232-1.232-1.849a25.087,25.087,0,0,1-.616-4.031C1412.622,1834.666,1413.406,1834.834,1415.87,1834.666Zm37.184,13.663c0,.841-2.24,2.352-2.856,2.352-.392,0-.56-.391-.784-.672-1.12-1.624-2.351-3.191-3.584-4.7-.168-.168-.5-.5-.5-.783,0-.672,2.24-2.073,2.856-2.073S1453.054,1847.657,1453.054,1848.329Zm6.776-3.079c0,.783-2.184,2.352-2.856,2.352-.392,0-.616-.449-.84-.728a47.277,47.277,0,0,0-3.64-4.648,1.341,1.341,0,0,1-.392-.728c0-.673,2.184-2.129,2.856-2.129C1455.518,1839.369,1459.83,1844.577,1459.83,1845.25Z" fill="#877877"/>
      <path id="パス_5437" data-name="パス 5437" d="M644.917,1915.687a13.265,13.265,0,0,0,3.137-.336c.168,0,.392-.056.615-.056,1.121,0,3.584,3.08,3.584,3.808a3.541,3.541,0,0,1-.671,1.4,32.96,32.96,0,0,0-1.736,3.024c-5.489,10.64-10.976,18.816-21.28,25.48-1.232.784-6.5,4.088-7.672,4.088-1.232,0-4.76-2.744-4.76-3.808,0-.56.672-.84,1.12-1.008a49.624,49.624,0,0,0,21.616-17.92c.952-1.4,4.312-6.832,4.312-8.232,0-.728-.9-.784-1.681-.784H630.862c-1.288,0-1.624.56-2.352,1.568-1.064,1.512-7.5,9.184-9.016,9.184-.672,0-4.76-2.128-4.76-3.3a.878.878,0,0,1,.5-.784c5.88-4.647,12.376-12.992,14.952-20.048.224-.559.392-1.344.9-1.344a18.677,18.677,0,0,1,2.968,1.232c.5.28,3.36,1.345,3.36,1.96,0,.281-.28.5-.5.616-.785.28-.952.561-1.9,2.3a8.468,8.468,0,0,0-1.008,2.017c0,.615.392.9.952.951Z" fill="#877877"/>
      <path id="パス_5438" data-name="パス 5438" d="M705.622,1926.327c2.575,0,6.215-.168,6.943-.168,1.513,0,1.568.448,1.568,3.528,0,1.792-.055,2.856-1.511,2.856-2.352,0-4.705-.112-7-.112h-25.76c-2.3,0-4.648.112-7,.112-1.456,0-1.512-1.064-1.512-2.8,0-3.136.112-3.584,1.567-3.584.729,0,4.593.168,6.945.168Z" fill="#877877"/>
      <path id="パス_5439" data-name="パス 5439" d="M744.43,1913.447c.672.112,1.4.112,1.4.672,0,.281-.336.56-.56.784-.336.336-.28,1.289-.28,1.792v1.232c0,11.592-.784,21.448-9.688,29.96-.448.392-1.12,1.176-1.736,1.176-.84,0-4.984-2.072-4.984-3.08,0-.392.448-.784.728-1.008,8.512-7.056,9.576-14.9,9.576-25.312,0-1.679-.056-3.92-.224-5.544,0-.168-.056-.447-.056-.616,0-.5.336-.616.728-.616C740.4,1912.887,743.254,1913.279,744.43,1913.447Zm13.272,23.408c0,1.736.056,2.576.9,2.576,1.848,0,12.88-9.856,14.672-11.7.28-.28.672-.728,1.12-.728.952,0,2.856,3.584,2.856,4.48,0,.84-2.184,2.632-2.912,3.248-3.36,2.912-6.72,5.768-10.248,8.4-1.512,1.176-3.92,2.968-5.264,4.144-.5.392-1.064,1.008-1.736,1.008a14.466,14.466,0,0,1-3.864-1.68c-.784-.448-1.792-1.008-1.792-2.016,0-.392.224-4.032.224-6.72v-19.6a48.713,48.713,0,0,0-.224-5.712v-.28a.5.5,0,0,1,.56-.56c.336,0,1.736.224,2.184.28,2.912.392,4.536.56,4.536,1.176,0,.392-.224.505-.448.784a2.193,2.193,0,0,0-.5,1.456c-.056,1.288-.056,4.088-.056,5.488Z" fill="#877877"/>
      <path id="パス_5440" data-name="パス 5440" d="M801.1,1936.8c0,6.776,1.12,6.664,8.792,6.664,5.544,0,13.328-.112,18.7-1.176.168,0,.392-.056.56-.056,1.064,0,1.12,1.4,1.12,3.08s0,3.08-1.792,3.3c-3.808.56-15.232.616-19.6.616-3.752,0-10.024.224-12.432-3.248-1.4-2.072-1.456-6.44-1.456-8.9v-18.984a71.823,71.823,0,0,0-.28-7.784v-.448a.579.579,0,0,1,.616-.616c.56,0,4.312.784,5.1.952.728.168,1.68.28,1.68.84,0,.616-.84.784-.952,1.96-.056.392-.056,1.456-.056,2.465v8.175c0,.952.728,1.4,1.624,1.4,5.992,0,15.792-3.08,20.888-6.216a2.566,2.566,0,0,1,.9-.392c.5,0,1.511,1.513,2.184,2.576.168.224.28.392.392.561a9.382,9.382,0,0,1,1.512,2.575c0,.448-.5.56-.84.56-.224,0-.448-.056-.728-.056-.112,0-.28-.056-.392-.056a5.265,5.265,0,0,0-2.016.616c-7.224,3.024-13.832,4.928-21.728,5.32-1.008.056-1.792.5-1.792,1.568Zm31.7-19.543c0,.839-2.184,2.3-2.856,2.3-.392,0-.616-.392-.84-.672a48.247,48.247,0,0,0-3.528-4.648c-.168-.224-.5-.559-.5-.84,0-.615,2.3-2.072,2.856-2.072C828.6,1911.319,832.8,1916.583,832.8,1917.256Zm5.824-3.584c0,.9-2.185,2.407-2.856,2.407-.336,0-.56-.392-.785-.672-1.175-1.624-2.351-3.192-3.639-4.7-.168-.224-.448-.5-.448-.728,0-.728,2.3-2.128,2.856-2.128C834.366,1907.847,838.622,1913.055,838.622,1913.672Z" fill="#877877"/>
      <path id="パス_5441" data-name="パス 5441" d="M875.357,1923.079c.673,0,1.345,0,1.905-.056.224,0,.56-.056.783-.056,1.288,0,3.248,1.568,3.248,2.856,0,.448-.168.728-.279,1.568-.168,1.064-.336,2.3-.392,2.576l-1.176,10.3a1.2,1.2,0,0,0,1.176,1.344h1.512c1.847,0,3.7-.112,5.6-.112,1.456,0,1.4.952,1.4,2.8,0,1.568,0,2.52-1.569,2.52-1.792,0-3.639-.112-5.431-.112h-22.9c-1.9,0-4.031.112-5.375.112-1.512,0-1.456-1.288-1.456-2.408,0-1.9.112-2.912,1.4-2.912.952,0,3.92.112,5.431.112h13.385a1.571,1.571,0,0,0,1.568-1.344l1.064-9.8c0-.168.168-1.008.168-1.12,0-.9-.784-1.176-1.512-1.176h-7.784c-1.9,0-4.088.112-5.488.112-1.288,0-1.288-.952-1.288-2.744,0-1.456-.113-2.52,1.232-2.52.952,0,3.3.056,5.544.056Z" fill="#877877"/>
      <path id="パス_5442" data-name="パス 5442" d="M943.062,1926.327c2.576,0,6.215-.168,6.943-.168,1.513,0,1.568.448,1.568,3.528,0,1.792-.055,2.856-1.511,2.856-2.353,0-4.705-.112-7-.112H917.3c-2.3,0-4.648.112-7,.112-1.456,0-1.512-1.064-1.512-2.8,0-3.136.111-3.584,1.567-3.584.728,0,4.593.168,6.945.168Z" fill="#877877"/>
      <path id="パス_5443" data-name="パス 5443" d="M1003.374,1924.927c2.352,0,4.7-.168,7.111-.168,1.737,0,1.681.448,1.681,3.08,0,1.9,0,2.968-1.513,2.968-2.464,0-4.871-.112-7.279-.112h-7.336c-1.568,0-1.624,1.456-1.792,2.632-1.232,7.9-5.04,13.776-12.1,17.64-1.064.56-4.76,2.464-5.824,2.464-1.232,0-4.312-3.7-4.312-4.648,0-.616,1.064-.84,1.568-.952a26.455,26.455,0,0,0,7-2.912,16.53,16.53,0,0,0,7.056-10.192,25.945,25.945,0,0,0,.5-2.744,1.316,1.316,0,0,0-1.344-1.288H975.43c-2.3,0-4.648.112-7,.112-1.456,0-1.512-.84-1.512-2.856,0-2.576.168-3.192,1.4-3.192,2.408,0,4.76.168,7.112.168Zm-8.288-14.671c2.408,0,4.815-.113,7.28-.113,1.512,0,1.456.728,1.456,3.472,0,1.736.056,2.52-1.512,2.52-2.352,0-4.76-.112-7.168-.112H982.934c-2.408,0-4.816.112-7.168.112-1.68,0-1.512-.9-1.512-3.024,0-2.352.056-2.968,1.512-2.968,2.408,0,4.816.113,7.28.113Z" fill="#877877"/>
      <path id="パス_5444" data-name="パス 5444" d="M1052.934,1946.879c0,1.9.111,3.752.111,5.656,0,1.4-1.176,1.512-2.239,1.512-3.137,0-3.305-.28-3.305-1.792,0-1.736.112-3.528.112-5.264V1935.4c0-.28-.112-.84-.672-.84-.5,0-1.064.5-1.456.784-1.232.9-8.064,5.432-9.183,5.432-.952,0-3.584-2.688-3.584-3.7,0-.616.672-.9,1.287-1.176,8.12-3.808,17.36-10.36,22.009-18.088.279-.448.5-1.008.951-1.008.672,0,2.688,1.512,3.305,1.96.559.336,1.567.952,1.567,1.68,0,.448-.392.616-.784.672a2.725,2.725,0,0,0-1.623,1.232,68.1,68.1,0,0,1-5.04,5.6c-1.177,1.12-1.456,1.4-1.456,3.08Z" fill="#877877"/>
      <path id="パス_5445" data-name="パス 5445" d="M1121.142,1926.327c2.576,0,6.215-.168,6.944-.168,1.512,0,1.567.448,1.567,3.528,0,1.792-.055,2.856-1.511,2.856-2.353,0-4.7-.112-7-.112h-25.76c-2.3,0-4.649.112-7,.112-1.456,0-1.512-1.064-1.512-2.8,0-3.136.111-3.584,1.568-3.584.728,0,4.591.168,6.944.168Z" fill="#877877"/>
      <path id="パス_5446" data-name="パス 5446" d="M1167.286,1907.568c.28.111.9.279.9.671s-.392.616-.9,1.008c-.448.392-.84,2.352-1.008,2.968a18.134,18.134,0,0,0-.616,2.521.652.652,0,0,0,.616.728,27.116,27.116,0,0,0,3.192-.841,2.024,2.024,0,0,1,.56-.112c.672,0,.728,1.008.84,1.681a26.533,26.533,0,0,1,.28,2.967c0,1.232-.672,1.344-5.824,2.3-2.016.336-1.96.728-2.632,2.576a142.506,142.506,0,0,1-9.128,19.936c-.336.56-.5.784-1.12.784-1.232,0-4.984-1.624-4.984-2.8a6.194,6.194,0,0,1,1.008-2.016,104.576,104.576,0,0,0,6.664-12.936,21.9,21.9,0,0,0,1.288-3.416.754.754,0,0,0-.784-.728c-.448,0-4.76.56-6.048.56-.952,0-1.176-.5-1.4-1.792-.112-.672-.392-2.688-.392-3.248,0-.728.392-.9,1.008-.9h2.576a49.727,49.727,0,0,0,5.768-.28c.728-.112,1.232-.168,1.68-.9.84-1.4,1.792-7.616,1.792-9.408,0-.391,0-.951.5-.951C1161.742,1905.944,1166.39,1907.287,1167.286,1907.568Zm8.064,16.687c.616.168,1.12.5,1.12,1.176,0,.112-.113,1.792-.113,2.968,0,1.624.281,9.688.561,10.864.168.84.9,1.064,1.736,1.4.168.056.392.168.56.224,1.288.5,7.9,3.584,7.9,4.928,0,.9-2.071,4.088-3.471,4.088-.56,0-1.064-.5-1.456-.784-.84-.616-3.584-2.576-4.48-2.576-.616,0-.84.784-.9,1.288-.672,4.088-3.976,5.488-7.785,5.488-4.535,0-9.855-2.408-9.855-7.616,0-5.152,4.872-6.944,9.3-6.944h1.456c.672,0,1.176-.28,1.176-.952,0-1.792-.84-9.912-1.008-12.1,0-.28-.056-.5-.056-.784,0-.9.5-1.232,1.344-1.232A23.446,23.446,0,0,1,1175.35,1924.255Zm-10.472,21.336c0,1.736,2.24,2.632,3.7,2.632,2.016,0,2.912-1.064,2.912-3.024,0-1.12-.056-1.736-2.856-1.736C1167.286,1943.463,1164.878,1943.8,1164.878,1945.591Zm24.472-21.392c0,1.344-3.192,3.864-4.2,3.864-.559,0-.951-.616-1.231-1.008a31.749,31.749,0,0,0-7-7.224c-.224-.168-.729-.5-.729-.9,0-.783,2.577-3.864,3.752-3.864C1181.342,1915.071,1189.35,1922.743,1189.35,1924.2Z" fill="#877877"/>
      <path id="パス_5447" data-name="パス 5447" d="M1210.686,1946.151c-1.008,0-1.457.448-1.512,1.512,0,.616.055,1.232.055,1.848,0,1.456-.839,1.344-2.744,1.344-2.128,0-2.744.056-2.744-1.512,0-2.016.113-4.088.113-6.1v-27.664c0-1.568-.056-3.192-.056-4.759,0-1.792.336-2.689,2.239-2.689,1.008,0,2.017.112,3.025.112h3.919c1.008,0,1.96-.112,2.968-.112,2.017,0,2.3.952,2.3,2.744,0,1.568-.056,3.136-.056,4.7v25.7c0,1.9.056,3.808.056,5.712,0,1.512-.672,1.456-2.576,1.456-2.239,0-2.407-.112-2.575-1.288-.113-.672-.336-1.008-1.009-1.008Zm2.519-31.136c0-.952-.615-1.456-1.567-1.568h-.952c-.953.112-1.569.616-1.569,1.568v2.52c0,.952.616,1.456,1.569,1.568h.952a1.6,1.6,0,0,0,1.567-1.568Zm-1.567,14.448a1.6,1.6,0,0,0,1.567-1.568v-2.352a1.564,1.564,0,0,0-1.567-1.568h-.952a1.47,1.47,0,0,0-1.569,1.568v2.352c0,.952.616,1.456,1.569,1.568Zm0,11.536a1.483,1.483,0,0,0,1.567-1.512v-3.472a1.483,1.483,0,0,0-1.567-1.512h-.952a1.428,1.428,0,0,0-1.569,1.512v3.472a1.428,1.428,0,0,0,1.569,1.512Zm26.712,1.232c0,.784.336,1.064,1.063,1.064h3.7c1.905,0,3.808-.112,5.768-.112,1.232,0,1.176.784,1.176,2.184,0,1.456.056,2.184-1.176,2.184-1.96,0-3.863-.112-5.768-.112h-3.639c-.784,0-1.12.28-1.12,1.064v.392a.926.926,0,0,0,1.063,1.064h5.152c1.96,0,3.976-.112,5.993-.112,1.343,0,1.288.616,1.288,2.24,0,1.512.055,2.184-1.233,2.184-2.015,0-4.032-.112-6.048-.112h-19.152c-2.016,0-4.032.112-6.048.112-1.288,0-1.288-.56-1.288-2.184,0-1.68,0-2.24,1.288-2.24,2.016,0,4.032.112,6.048.112h6.328a.926.926,0,0,0,1.065-1.064v-.392c0-.784-.281-1.064-1.065-1.064h-3.807c-1.9,0-3.865.112-5.769.112-1.231,0-1.176-.672-1.176-2.184,0-1.456-.055-2.184,1.176-2.184,1.96,0,3.864.112,5.769.112h3.807c.729,0,1.065-.28,1.065-1.008v-.28c0-.728-.281-1.064-1.065-1.064h-2.464c-1.232,0-2.464.112-3.7.112-1.567,0-2.407-.5-2.407-2.184,0-.952.055-1.848.055-2.8V1929.3c0-.952-.055-1.848-.055-2.744,0-1.736.84-2.184,2.464-2.184,1.231,0,2.464.056,3.639.056h12.657c1.231,0,2.463-.056,3.7-.056,1.568,0,2.464.392,2.464,2.128,0,.952-.056,1.848-.056,2.8v6.776c0,.952.056,1.9.056,2.8,0,1.68-.9,2.184-2.407,2.184-1.233,0-2.521-.112-3.752-.112h-2.464c-.784,0-1.12.28-1.12,1.064Zm.168-34.272c0,.9.727,1.176,1.456,1.176h3.3c1.737,0,3.529-.111,5.264-.111,1.288,0,1.232.727,1.232,2.239,0,1.624,0,2.3-1.232,2.3-1.176,0-2.352-.056-3.472-.112a.121.121,0,0,0-.112.112c0,.056,0,.113.057.113.5.111,1.287.279,1.287.839,0,.392-.224.5-.56.56a1.2,1.2,0,0,0-.9.672,3.657,3.657,0,0,0-.449,1.232c0,.616.449.84,1.008.84,1.68,0,3.416-.112,5.1-.112,1.288,0,1.232.784,1.232,2.3,0,1.569.056,2.24-1.232,2.24-2.016,0-4.032-.112-6.048-.112h-17.359c-1.96,0-3.977.112-5.992.112-1.289,0-1.289-.56-1.289-2.24,0-1.736,0-2.3,1.289-2.3,1.679,0,3.3.112,4.927.112.56,0,1.065-.224,1.065-.9a1.636,1.636,0,0,0-.113-.5c-.223-.728-.5-1.4-.784-2.128-.168-.392-.336-.784-.784-.784-.84,0-1.735.056-2.519.056-1.289,0-1.233-.728-1.233-2.3,0-1.624,0-2.239,1.288-2.239,1.737,0,3.472.111,5.208.111h3.136c1.009,0,1.568-.448,1.513-1.512a13.727,13.727,0,0,0-.113-1.512,1.749,1.749,0,0,1-.055-.5c0-.673.5-.785,1.008-.785,1.063,0,3.416.225,4.536.336.615.056,1.624.056,1.624.728,0,.392-.281.5-.729.785a1.2,1.2,0,0,0-.559.951Zm-5.433,21.28a1.25,1.25,0,0,0-1.344-1.288h-2.072a1.25,1.25,0,0,0-1.344,1.288v.28a1.3,1.3,0,0,0,1.344,1.344h2.072a1.294,1.294,0,0,0,1.344-1.344Zm-3.416,4.872a1.3,1.3,0,0,0-1.344,1.344v.448a1.264,1.264,0,0,0,1.344,1.344h2.072a1.264,1.264,0,0,0,1.344-1.344v-.448a1.294,1.294,0,0,0-1.344-1.344Zm3.584-16.3h3.809c1.175,0,1.624-.224,2.071-1.344a9.246,9.246,0,0,0,.616-2.016c0-.728-.56-.952-1.176-1.008h-5.6c-.281.056-1.12.056-1.12.953a1.313,1.313,0,0,0,.111.447c.168.617.505,1.513.616,2.128C1232.693,1917.367,1232.806,1917.815,1233.253,1917.815Zm8.288,13.048a1.294,1.294,0,0,0,1.344-1.344v-.28a1.25,1.25,0,0,0-1.344-1.288h-2.071a1.222,1.222,0,0,0-1.345,1.288v.28a1.264,1.264,0,0,0,1.345,1.344Zm-3.416,5.04a1.237,1.237,0,0,0,1.345,1.344h2.071a1.264,1.264,0,0,0,1.344-1.344v-.448a1.294,1.294,0,0,0-1.344-1.344h-2.071a1.264,1.264,0,0,0-1.345,1.344Z" fill="#877877"/>
      <path id="パス_5448" data-name="パス 5448" d="M1277.382,1911.991c.448.168,1.12.392,1.12.953,0,.335-.225.391-.784.728-.952.5-1.176,1.007-1.737,2.407a44.432,44.432,0,0,0-3.135,15.9c0,1.064.223,7.84,1.511,7.84.5,0,1.289-1.624,1.513-2.184.336-.728.672-1.344,1.176-1.344.559,0,2.016,1.176,2.016,1.792,0,.5-2.241,5.6-2.241,8.12,0,.56.168,1.848.225,2.352a4.967,4.967,0,0,1,.112.84c0,1.4-3.192,2.744-4.368,2.744-.952,0-1.624-1.232-2.352-2.744-2.632-5.32-3.417-11.312-3.417-17.192a67,67,0,0,1,2.857-18.535,25.617,25.617,0,0,0,.727-2.8c.113-.5.225-1.232.84-1.232C1271.894,1909.639,1276.6,1911.655,1277.382,1911.991Zm6.944,26.768c2.407,2.968,4.76,3.92,8.512,3.92a45.819,45.819,0,0,0,12.319-1.792,4,4,0,0,1,1.177-.224c.9,0,1.008,1.344,1.008,4.2,0,.672.055,1.68-.672,2.072-1.568.84-11.032,1.68-13.273,1.68-9.071,0-12.824-4.7-12.824-5.6,0-.784,1.96-4.76,3.025-4.76A.989.989,0,0,1,1284.326,1938.759Zm2.016-24.472a35.923,35.923,0,0,0,7.336.84,36.594,36.594,0,0,0,8.511-1.12,5.431,5.431,0,0,1,1.008-.167c.784,0,1.009.671,1.12,1.343a27.23,27.23,0,0,1,.225,3.024c0,1.176,0,1.624-1.064,1.848a65.283,65.283,0,0,1-9.409.785c-1.735,0-8.624-.337-9.8-1.121-.617-.392-.56-1.567-.56-2.184,0-2.688.279-3.528,1.176-3.528A7.4,7.4,0,0,1,1286.342,1914.287Z" fill="#877877"/>
    </g>
    <g id="グループ_1767" data-name="グループ 1767" transform="translate(1.772 -246.042)" opacity="0.3" style="mix-blend-mode: multiply;isolation: isolate">
      <path id="パス_15735" data-name="パス 15735" d="M1479.263,2044.939c1.832-6.224-2.181-14.082-5.654-19.561s-5.6-13.806-3.585-19.973c1.992-6.088,9.823-9.384,15.645-6.717s8.489,10.535,5.653,16.277a12.817,12.817,0,1,1,25,5.661c-1.791,7.536-9.643,11.717-16.683,14.952q-10.186,4.682-20.374,9.362" transform="translate(0 17.978)" fill="#833e4d"/>
      <path id="パス_15736" data-name="パス 15736" d="M1490.81,2012.157c-.816-5.91-3.417-10.646-3.962-14.676s.715-9.1,4.658-10.094a6.324,6.324,0,0,1,6.295,2.5,10.9,10.9,0,0,1,1.959,6.761,17.182,17.182,0,0,1,3.981-4.877c5.547-3.528,11.413,4.078,10.354,8.5-1.257,5.254-5.27,7.435-9.508,9.459s-9.083,2.246-13.776,2.431" transform="translate(29.898)" fill="#833e4d"/>
    </g>
  </g>
</svg>
