<svg xmlns="http://www.w3.org/2000/svg" width="838.573" height="111.489" viewBox="0 0 838.573 111.489">
  <g id="グループ_2436" data-name="グループ 2436" transform="translate(-218.713 -1180.464)">
    <g id="グループ_2281" data-name="グループ 2281" transform="translate(250.461 293.371)">
      <path id="パス_15439" data-name="パス 15439" d="M2480.284,1750.1h.008a.685.685,0,0,1,.676.653c.344,7.485,1.16,15.146,4.765,20.467,3.624,5.346,9.673,7.838,19.038,7.838a.684.684,0,0,1,.051,1.366c-9.674.714-15.006,2.629-18.4,6.613-3.418,4.007-5.045,10.492-5.442,21.685a.685.685,0,0,1-.684.66h0a.684.684,0,0,1-.683-.66c-.308-9-1.182-15.929-4.446-20.519-3.16-4.442-8.511-6.828-17.891-7.978a.684.684,0,0,1,.022-1.36c9.09-.818,14.581-3.382,17.8-8.316,2.947-4.509,3.883-10.679,4.506-19.811A.684.684,0,0,1,2480.284,1750.1Zm17.612,29.789a24.8,24.8,0,0,1-5.724-1.668,17.149,17.149,0,0,1-7.572-6.234c-2.5-3.693-3.725-8.38-4.369-13.349-.7,5.3-1.835,9.36-3.989,12.659a16.841,16.841,0,0,1-6.972,6.038,28.4,28.4,0,0,1-7.2,2.263c7.013,1.4,11.379,3.835,14.208,7.811,2.239,3.147,3.415,7.251,4.052,12.256.872-6.278,2.485-10.513,5.049-13.518a17.157,17.157,0,0,1,7.663-5.005A32.679,32.679,0,0,1,2497.9,1779.891Z" transform="translate(-1722.34 -850.139)" fill="#452f27"/>
      <path id="パス_15440" data-name="パス 15440" d="M2486.23,1768.738h.007a.685.685,0,0,1,.676.653c.443,9.629,2.554,14.848,12.423,14.848a.684.684,0,0,1,.05,1.366c-5.085.374-7.875,1.367-9.633,3.428-1.778,2.085-2.627,5.5-2.838,11.412a.684.684,0,0,1-.683.66h0a.684.684,0,0,1-.683-.661c-.163-4.757-.619-8.416-2.322-10.808-1.635-2.3-4.433-3.536-9.358-4.139a.684.684,0,0,1,.022-1.36c9.657-.87,11.015-5.383,11.656-14.762A.684.684,0,0,1,2486.23,1768.738Zm7.96,16.258a10,10,0,0,1-5.913-4.046,14.634,14.634,0,0,1-2.076-5.356c-.922,4.6-2.958,7.843-8.312,9.257,5.19,1.374,7.411,4.118,8.372,8.836a12.135,12.135,0,0,1,2.453-5.542A10.042,10.042,0,0,1,2494.19,1785Z" transform="translate(-1693.195 -817.42)" fill="#452f27"/>
      <path id="パス_15439-2" data-name="パス 15439" d="M2481.841,1750.1a.683.683,0,0,1,.682.637c.623,9.132,1.56,15.3,4.506,19.811,3.223,4.934,8.713,7.5,17.8,8.316a.684.684,0,0,1,.022,1.36c-9.38,1.15-14.731,3.536-17.891,7.978-3.265,4.59-4.139,11.522-4.447,20.519a.684.684,0,0,1-.683.66h0a.684.684,0,0,1-.684-.66c-.4-11.193-2.024-17.679-5.442-21.685-3.4-3.984-8.73-5.9-18.4-6.613a.684.684,0,0,1,.051-1.366c9.365,0,15.414-2.491,19.038-7.838,3.606-5.321,4.422-12.981,4.766-20.467a.684.684,0,0,1,.676-.653Zm18.215,29.5a28.409,28.409,0,0,1-7.2-2.263,16.843,16.843,0,0,1-6.972-6.038c-2.154-3.3-3.285-7.361-3.988-12.659-.645,4.968-1.867,9.655-4.37,13.349a17.148,17.148,0,0,1-7.571,6.234,24.8,24.8,0,0,1-5.724,1.668,32.676,32.676,0,0,1,4.855,1.253,17.156,17.156,0,0,1,7.664,5.005c2.563,3.005,4.177,7.239,5.049,13.518.637-5.006,1.813-9.109,4.052-12.256C2488.677,1783.435,2493.043,1781,2500.056,1779.6Z" transform="translate(-2464.708 -850.139)" fill="#452f27"/>
      <path id="パス_15440-2" data-name="パス 15440" d="M2487.06,1768.738a.684.684,0,0,1,.682.637c.64,9.379,2,13.892,11.655,14.762a.684.684,0,0,1,.022,1.36c-4.924.6-7.723,1.841-9.358,4.139-1.7,2.392-2.159,6.051-2.321,10.808a.684.684,0,0,1-.683.661h0a.684.684,0,0,1-.684-.66c-.21-5.914-1.059-9.327-2.838-11.412-1.757-2.06-4.548-3.054-9.632-3.428a.684.684,0,0,1,.05-1.366c9.869,0,11.98-5.219,12.423-14.848a.684.684,0,0,1,.676-.653Zm8.342,16.113c-5.354-1.414-7.391-4.656-8.312-9.257a14.659,14.659,0,0,1-2.075,5.356A10.006,10.006,0,0,1,2479.1,1785a10.043,10.043,0,0,1,5.476,3.149,12.135,12.135,0,0,1,2.454,5.542C2487.99,1788.969,2490.212,1786.225,2495.4,1784.851Z" transform="translate(-2505.017 -817.42)" fill="#452f27"/>
    </g>
    <g id="グループ_1722" data-name="グループ 1722" transform="translate(-2005.332 -294.078)">
      <path id="パス_15356" data-name="パス 15356" d="M2435.452,1490.847c0,.135.227.271.683.406a7.111,7.111,0,0,1,5.223,7.177c0,5.043-3.723,10.085-13.628,10.085a21.221,21.221,0,0,1-8.492-1.633c-.683-.322-.956-.592-.956-1.047a2.066,2.066,0,0,1,.183-.821l.773-2.225c.225-.635.406-.951.769-.951a2.322,2.322,0,0,1,.866.361,13.8,13.8,0,0,0,7.037,1.774c5.361,0,8.04-2.772,8.04-5.632,0-3.137-2.634-4.727-8.495-4.727-1,0-2.585.045-3.043.045-1.179,0-1.363-.181-1.363-1.314V1490.3c0-1.184.184-1.365,1.363-1.365.5,0,1.726.045,2.593.045,5.5,0,7.538-1.951,7.538-4.45,0-2.454-2.226-4-5.722-4a11.908,11.908,0,0,0-6.36,1.771,1.837,1.837,0,0,1-.908.406c-.319,0-.548-.271-.818-.905l-1-2.093a2.353,2.353,0,0,1-.274-.905c0-.409.274-.637.908-.957a19.611,19.611,0,0,1,8.993-2.135c7.448,0,10.492,3.771,10.492,7.86a7.373,7.373,0,0,1-3.816,6.769C2435.679,1490.528,2435.452,1490.712,2435.452,1490.847Z" transform="translate(38.779 2.362)" fill="#674646"/>
      <path id="パス_15357" data-name="パス 15357" d="M2441.371,1487.574c.911,0,5.452,3.59,6.363,4.363.634.544,3.178,2.5,3.178,3.272s-2.135,3.133-3.043,3.133a1.628,1.628,0,0,1-1-.592,67.462,67.462,0,0,0-6.589-5.313.8.8,0,0,0-.454-.184c-.409,0-.544.364-.544.728v12.4c0,1.819.091,3.591.091,5.406,0,2.09-.046,2.36-2.818,2.36-1.816,0-2.589-.042-2.589-1.542,0-2.045.135-4.09.135-6.131v-25.893c0-1.182-.09-2.409-.135-3.542,0-.229-.045-.638-.045-.818,0-.454.139-.679.589-.679.274,0,1.227.132,1.546.177,2.044.274,3.909.454,3.909,1.092a1.32,1.32,0,0,1-.232.592,3.666,3.666,0,0,0-.5,2.406c0,.682.048,1.545.048,2.679v6.817c0,.361.226.451.361.451a.5.5,0,0,0,.412-.181C2440.373,1488.211,2440.871,1487.574,2441.371,1487.574Z" transform="translate(70.169)" fill="#674646"/>
      <path id="パス_15358" data-name="パス 15358" d="M2474.451,1479.921c2.09,0,5.04-.138,5.633-.138,1.226,0,1.268.364,1.268,2.862,0,1.453-.042,2.315-1.223,2.315-1.909,0-3.816-.09-5.677-.09h-20.9c-1.864,0-3.771.09-5.677.09-1.182,0-1.23-.862-1.23-2.27,0-2.544.094-2.908,1.272-2.908.6,0,3.728.138,5.635.138Z" transform="translate(95.709 10.518)" fill="#674646"/>
      <path id="パス_15359" data-name="パス 15359" d="M2497.066,1486.8c0,.773-1.812,2.544-2.406,3.133a78.9,78.9,0,0,1-24.666,17.128c-1.5.725-1.542.773-1.909,1.542a.45.45,0,0,1-.45.273c-.5,0-1.452-1.816-1.775-2.363a12.76,12.76,0,0,1-1.362-2.724c0-.5.821-.59,1.41-.773,10.037-2.95,21.395-11.537,27.845-19.759a1.115,1.115,0,0,1,.77-.5C2495.43,1482.761,2497.066,1486.122,2497.066,1486.8Zm-23.436-7.5c.589.411,2.769,1.909,2.769,2.592,0,1.044-2.135,3.5-3,3.5a4.878,4.878,0,0,1-1.819-1.226,56.454,56.454,0,0,0-6.038-4.225c-.363-.226-.728-.454-.728-.863,0-.683,1.816-3.587,2.862-3.587C2468.407,1475.493,2472.767,1478.672,2473.63,1479.306Z" transform="translate(131.532 1.909)" fill="#674646"/>
      <path id="パス_15360" data-name="パス 15360" d="M2492.969,1483.7a1.411,1.411,0,0,0,1.362-1.181c.091-.908.316-5.767.361-6.859,0-.454-.045-1.043.59-1.043.274,0,4.269.773,4.727.9.271.048.68.184.68.5,0,.274-.315.593-.5.773-.547.5-.5.547-.638,1.958-.086.634-.36,3.359-.36,3.813a1.014,1.014,0,0,0,1.089,1.047l4.363-.048c1.317,0,4.949-.181,5-.181,1,0,2.586,1.726,2.586,2.637,0,.451-.635,5.493-.725,6.356-.457,3.5-1.136,9.812-2.543,12.9-1.228,2.682-3.089,3.545-5.906,3.951a17.679,17.679,0,0,1-2.638.184,1.437,1.437,0,0,1-1.588-.908,9.694,9.694,0,0,1-1.182-3.178.745.745,0,0,1,.819-.821c.454,0,1.5.184,2.588.184,2.682,0,3.632-1.227,4.315-4.453a81.085,81.085,0,0,0,1.366-10.855c0-1.224-.638-1.137-2.683-1.137l-4.585.048c-1.137,0-1.321.953-1.456,1.636a37.806,37.806,0,0,1-8.9,17.669c-.637.68-3.366,3.543-4.18,3.543-.863,0-3.455-2.135-3.455-2.953,0-.36.367-.589.635-.818a31.33,31.33,0,0,0,9.86-13.717,24.01,24.01,0,0,0,1.179-4.36.931.931,0,0,0-.951-.956l-6.407.048c-1.224,0-3.948.18-4.54.18-1,0-1.137-.728-1.137-2.5,0-1.951.094-2.361,1.092-2.361,1.5,0,3.043.046,4.539.046Z" transform="translate(162.867 0.15)" fill="#674646"/>
      <path id="パス_15361" data-name="パス 15361" d="M2521.3,1485.228c1.044,0,3.133,0,4.087-.09a5.067,5.067,0,0,1,.818-.09c.953,0,3.226,2.18,3.226,3a11.6,11.6,0,0,1-.592,1.861,31.411,31.411,0,0,1-2.634,6.134,37.926,37.926,0,0,1-9.4,10.72c-1.272,1.043-6.177,4.54-7.588,4.54-1.043,0-3.133-2.586-3.133-3.359,0-.547,1.135-.953,1.591-1.181a32.681,32.681,0,0,0,13.943-12.9,11.63,11.63,0,0,0,1.231-2.949c0-1.092-1.231-1-1.958-1h-16.9c-1.91,0-3.813.09-5.767.09-1.275,0-1.275-.451-1.275-2.225,0-2.313.047-2.635,1.32-2.635,1.909,0,3.861.09,5.812.09Zm-3.046-9.808c1.861,0,4.179-.139,5.361-.139,1.134,0,1.227.5,1.227,2.772,0,1.543,0,2.135-1.227,2.135-1.816,0-3.587-.094-5.361-.094h-11.129c-1.771,0-3.542.094-5.314.094-1.272,0-1.272-.544-1.272-2.228,0-2.134.091-2.679,1.228-2.679,1.271,0,3.587.139,5.358.139Z" transform="translate(196.654 1.483)" fill="#674646"/>
      <path id="パス_15362" data-name="パス 15362" d="M2540.951,1479.921c2.09,0,5.04-.138,5.632-.138,1.226,0,1.269.364,1.269,2.862,0,1.453-.042,2.315-1.224,2.315-1.91,0-3.816-.09-5.677-.09h-20.9c-1.864,0-3.771.09-5.677.09-1.181,0-1.23-.862-1.23-2.27,0-2.544.093-2.908,1.272-2.908.6,0,3.729.138,5.635.138Z" transform="translate(229.171 10.518)" fill="#674646"/>
      <path id="パス_15363" data-name="パス 15363" d="M2532.21,1479.006c6.634-.409,13.264-1.092,19.852-1.864,3.452-.406,6.9-.863,10.311-1.4a2.471,2.471,0,0,1,.592-.048c.68,0,.774.589.864,1.137a20.8,20.8,0,0,1,.409,3.314c0,1-.956.908-2.045.956a22.352,22.352,0,0,0-7.541.953,13.816,13.816,0,0,0-7.722,6.769,17,17,0,0,0-2.179,7.992c0,5.271,3.358,6.543,7.992,6.543.773,0,1.775-.045,2.273-.045.682,0,1.044.045,1.044.77a12.886,12.886,0,0,1-.683,3.729c-.316.679-.68.769-1.452.769-7.722,0-14.355-2.453-14.355-11.309a20.171,20.171,0,0,1,5-13.038c.5-.544.77-.863.77-1.089,0-.409-.364-.547-.68-.547s-2.408.364-2.863.412c-3.043.451-7.129,1.089-10.037,1.861a3.765,3.765,0,0,1-.683.091c-.637,0-.863-1-1-1.5a20.436,20.436,0,0,1-.5-3.268C2529.576,1479.006,2530.214,1479.141,2532.21,1479.006Zm30.163,11.084c0,.682-1.816,1.906-2.315,1.906-.322,0-.454-.319-.638-.545-.908-1.317-1.906-2.589-2.908-3.816-.135-.135-.408-.409-.408-.634,0-.547,1.819-1.682,2.318-1.682S2562.373,1489.542,2562.373,1490.09Zm5.5-2.5c0,.637-1.772,1.909-2.319,1.909-.316,0-.5-.364-.683-.592a37.8,37.8,0,0,0-2.95-3.768,1.109,1.109,0,0,1-.316-.593c0-.544,1.768-1.726,2.316-1.726C2564.37,1482.822,2567.871,1487.043,2567.871,1487.591Z" transform="translate(262.142 2.302)" fill="#674646"/>
      <path id="パス_15364" data-name="パス 15364" d="M2427.351,1511.151a38.549,38.549,0,0,1,4.405,1.224c.318.138.818.273.818.682s-.271.5-.593.589c-.541.138-.634.228-.769.547-1,3.539-1.865,7.084-2.953,10.581-.68,2.135-1.362,4.27-2.09,6.405a.84.84,0,0,0-.091.318c0,.592.454.77.953.818h5.271c1.813,0,3.587-.135,5.4-.135,1.137,0,1.092.589,1.092,2.36s.046,2.361-1.092,2.361c-1.816,0-3.59-.091-5.4-.091h-26.846c-1.816,0-3.588.091-5.407.091-1.179,0-1.089-.634-1.089-2.361,0-1.771-.09-2.36,1.089-2.36,1.819,0,3.591.135,5.407.135h14.626c.908,0,1.362-.225,1.632-1.088a131.879,131.879,0,0,0,4.907-19.079C2426.713,1511.7,2426.807,1511.151,2427.351,1511.151Zm-6.041-7.316c0,.908.406,1.272,1.268,1.272h7.86c1.774,0,3.5-.091,5.271-.091,1.179,0,1.088.547,1.088,2.364,0,1.723.091,2.319-1.088,2.319-1.729,0-3.5-.094-5.271-.094H2407.5c-1.775,0-3.5.094-5.271.094-1.181,0-1.088-.6-1.088-2.319,0-1.816-.093-2.364,1.088-2.364,1.774,0,3.5.091,5.271.091h7.767c.908,0,1.272-.364,1.272-1.272v-.863a36.623,36.623,0,0,0-.183-3.906c0-.139-.046-.316-.046-.454,0-.544.409-.634.866-.634.905,0,3.134.18,4.087.318.409.042,1.272.042,1.272.631,0,.322-.274.412-.637.637-.545.364-.59.956-.59,2.228Zm-9.358,26.073c-1.136,0-1.136-.68-1.317-1.636a75.005,75.005,0,0,0-3.5-13.354,4.64,4.64,0,0,1-.319-1.317c0-.773.773-1,1.362-1.179a7.762,7.762,0,0,1,2-.412,1.134,1.134,0,0,1,1.138.728,70.082,70.082,0,0,1,2.318,7.725c.315,1.362,1.546,6.675,1.546,7.809C2415.179,1529.545,2412.725,1529.909,2411.952,1529.909Z" transform="translate(0 47.035)" fill="#674646"/>
      <path id="パス_15365" data-name="パス 15365" d="M2426.016,1528.244c-.271,0-.361.225-.406.5v2.772c0,1.907.135,3.861.135,5.768,0,1.271-.635,1.5-2.453,1.5-1.951,0-2.409-.364-2.409-1.636,0-1.861.094-3.771.094-5.632v-13.537c0-.225-.094-.457-.319-.457a.479.479,0,0,0-.365.184c-.409.589-1.77,2.547-2.45,2.547-.773,0-2.544-2.908-2.544-3.636a1.746,1.746,0,0,1,.59-1.046,42.952,42.952,0,0,0,8.4-16.533c.09-.364.139-.911.637-.911a26.264,26.264,0,0,1,3.134.956c1.136.406,2,.634,2,1.227,0,.406-.454.635-.773.725-.773.273-.815.5-1.137,1.411-.724,2-2.177,5.313-3.089,7.174a.912.912,0,0,0-.044.319.548.548,0,0,0,.5.547c.5.09,1.046.132,1.046.724,0,.364-.183.454-.454.638-.545.454-.5,1.317-.5,4.135v9.264c.045.316.135.544.5.544a.813.813,0,0,0,.406-.18,44.2,44.2,0,0,0,10-12.81.638.638,0,0,0,.132-.409c0-.638-.679-.683-.863-.683h-2.315c-1.588,0-3.133.091-4.724.091-1.092,0-1.043-.59-1.043-2.271s-.091-2.315,1.043-2.315c1.591,0,3.136.09,4.724.09h4.044c.9,0,1.269-.364,1.269-1.272v-3.725a20.886,20.886,0,0,0-.136-3.043,2.288,2.288,0,0,1-.044-.547c0-.541.363-.631.818-.631.683,0,3.452.271,4.269.315.319.048.683.091.683.548,0,.316-.274.406-.548.68-.5.409-.544,1.455-.544,3.091v3.314c.09.908.408,1.272,1.272,1.272H2450c1.587,0,3.134-.09,4.723-.09,1.089,0,1.044.589,1.044,2.315s.045,2.271-1.044,2.271c-1.589,0-3.136-.091-4.723-.091h-3.819c-.406.045-.774.181-.774.637a.635.635,0,0,0,.139.406,48.684,48.684,0,0,0,10.495,12.494c.316.273.679.589.679,1,0,.773-1.77,3.272-2.724,3.272-.547,0-.908-.454-3-2.543a45.868,45.868,0,0,1-7.087-9.358.447.447,0,0,0-.317-.18c-.183,0-.273.225-.318.409v7.947c.09.908.408,1.272,1.272,1.272,1.043.045,2.044-.09,3.042-.09,1.321,0,1.272.679,1.272,2.27s.048,2.273-1.227,2.273c-1.043,0-2.044-.138-3.087-.093-.819,0-1.228.319-1.228,1.181,0,1.591.09,3.182.09,4.724,0,1.362-.5,1.407-2.315,1.407-1.954,0-2.409-.045-2.409-1.407,0-1.543.091-3.134.091-4.676,0-.911-.406-1.23-1.269-1.23-1.092-.045-2.184.093-3.272.093-1.271,0-1.23-.682-1.23-2.273,0-1.543-.042-2.27,1.23-2.27,1.088,0,2.18.135,3.272.09.9,0,1.269-.364,1.269-1.272v-7.631c0-.225-.091-.364-.271-.364a.345.345,0,0,0-.318.183,49.326,49.326,0,0,1-8.447,10.766c-.367.364-.957.953-1.456.953-.589,0-1.5-.863-1.909-1.272A.558.558,0,0,0,2426.016,1528.244Z" transform="translate(32.791 47.248)" fill="#674646"/>
      <path id="パス_15366" data-name="パス 15366" d="M2467.792,1502.416c0,.316.229.454.545.454,1.046,0,2.093-.09,3.181-.09s1.089.454,1.089,2.041,0,2.045-1.089,2.045c-1.819,0-3.587-.135-5.406-.135h-5.948c-.548,0-1.094.225-1.094.908a.559.559,0,0,0,.048.273,27.668,27.668,0,0,0,1.362,5.406.537.537,0,0,0,.5.406.553.553,0,0,0,.546-.316,34.228,34.228,0,0,0,2.136-4.682c.135-.361.225-.953.724-.953a15.046,15.046,0,0,1,2.5,1.092,5.446,5.446,0,0,0,.59.271c.957.454,1.456.637,1.456,1.047,0,.364-.367.5-.638.589-.544.139-.635.364-1.043,1.137a56.78,56.78,0,0,1-3.361,5.813,1.892,1.892,0,0,0-.365.956,1.149,1.149,0,0,0,.409.908c.683.818,1.906,2.09,3.043,2.09,1.407,0,1.726-2.724,1.909-3.819.045-.316.136-.68.863-.68,1.089,0,3.043.545,3.043,1.865a11.3,11.3,0,0,1-1.362,4.811,4.34,4.34,0,0,1-4.045,2.367,8.65,8.65,0,0,1-6.221-3.136,1.107,1.107,0,0,0-.821-.409,1.093,1.093,0,0,0-.773.409c-.087.09-.271.229-.451.409-.728.773-2,2-2.544,2-.772,0-2.817-1.861-2.817-2.635,0-.406.817-1.043,1.136-1.317a20.021,20.021,0,0,0,2.225-2.135,1.609,1.609,0,0,0,.5-1.043,2.265,2.265,0,0,0-.227-.954,34.393,34.393,0,0,1-2.907-9.493,1.212,1.212,0,0,0-1.41-1.182H2441.22c-.863,0-1.272.361-1.272,1.272v3.951a31.373,31.373,0,0,1-2.045,11.766c-.317.863-1.5,3.861-2.5,3.861-.815,0-3.361-1.636-3.361-2.544a10.45,10.45,0,0,1,.728-1.365c2.225-3.951,2.772-8.766,2.772-13.261v-2.5c0-1.272-.09-2.273-.09-3.091,0-1.726,1.088-2,2.541-2,1.407,0,2.818.094,4.225.094h10.539c.818-.094,1.179-.361,1.179-1.227,0-.77-.225-2.589-.225-2.679,0-.637.5-.728,1-.728.274,0,2.588.138,3.046.18,1.272.091,2,.091,2,.728,0,.409-.409.544-.773.773-.409.225-.451.5-.451,1.046a3.714,3.714,0,0,0,.042.68c.048.908.457,1.133,1.272,1.227h4.907c.18-.046.409-.094.409-.319a.324.324,0,0,0-.183-.316,18.775,18.775,0,0,0-2.087-1.094c-1.091-.5-1.545-.68-1.545-1.089,0-.589.908-2.18,1.545-2.18a13.988,13.988,0,0,1,2.86,1.227c.548.274,2.59,1.362,2.59,1.864a2.7,2.7,0,0,1-.406,1.043A.6.6,0,0,0,2467.792,1502.416Zm-26.8,25.619c.271.087.68.271.68.683,0,.451-.59.541-.728.589-.409.09-.5.451-.589.773a36.718,36.718,0,0,1-3.182,6.766,1.227,1.227,0,0,1-1.182.773c-.815,0-3.178-.818-3.178-1.726a1.143,1.143,0,0,1,.274-.68,28.358,28.358,0,0,0,3.5-7.5c.091-.364.181-.863.68-.863C2437.587,1526.853,2440.447,1527.854,2440.995,1528.035Zm4.36-16.126c-1,0-2,.09-3.046.09-.863,0-.815-.68-.815-1.588,0-.956-.048-1.546.863-1.546,1,0,2,.046,3,.046h4.087c1,0,2-.046,3-.046.908,0,.863.5.863,1.546,0,.95.045,1.588-.818,1.588-1,0-2-.09-3.043-.09Zm7.358,7.905c0,.635.045,1.089.045,1.636,0,1.133-.5,1.633-1.636,1.633-.772,0-1.5-.094-2.228-.094h-2.316c-.45,0-1.088,0-1.271.773-.091.547-.226.547-1.862.547-1.089,0-1.588.045-1.588-.818v-6.45c0-.547-.047-1.088-.047-1.636,0-1.182.546-1.636,1.725-1.636.728,0,1.456.09,2.183.09h3.175c.73,0,1.456-.09,2.183-.09,1.136,0,1.681.412,1.681,1.636,0,.547-.045,1.088-.045,1.636Zm4.543,13.988c.905,0,1.814.184,2.313-2.814.138-.731.138-1.23,1-1.23,1.136,0,3.407.637,3.407,2a12.727,12.727,0,0,1-1.5,4.544c-1.181,1.861-2.544,1.68-5.085,1.68H2446.9c-2.225,0-4.314-.318-4.314-3.091,0-.635.045-1.224.045-1.861v-2.724c0-1.272-.136-2.863-.136-3.317s.271-.634.679-.634c.729,0,3.591.271,4.409.316.361.048.863.139.863.593,0,.225-.181.36-.365.5-.637.409-.727.5-.727,2.18v2.682c0,1.269.679,1.179,1.864,1.179Zm-11.9-15.125a1.3,1.3,0,0,0,1.271,1.272h1.269a1.3,1.3,0,0,0,1.272-1.272v-.457a1.268,1.268,0,0,0-1.272-1.269h-1.269a1.267,1.267,0,0,0-1.271,1.269Zm9.264,13.035c-.409,0-.682-.361-.907-.683a47.33,47.33,0,0,0-3.632-3.723c-.228-.225-.593-.5-.593-.863,0-.682,2.274-2.226,2.862-2.226.548,0,2.635,2.042,3.134,2.542s2.181,2.044,2.181,2.682C2457.663,1530.257,2455.347,1531.713,2454.619,1531.713Zm14.175,5.406c-.637,0-.821-.545-1-1.047a35.734,35.734,0,0,0-3.452-6.176,2.145,2.145,0,0,1-.409-.863c0-.818,2.5-1.771,3.179-1.771a1.072,1.072,0,0,1,.82.5,34.411,34.411,0,0,1,2.087,3.268c.412.683,2.179,3.635,2.179,4.27C2472.2,1536.346,2469.336,1537.119,2468.794,1537.119Z" transform="translate(66.396 46.913)" fill="#674646"/>
      <path id="パス_15367" data-name="パス 15367" d="M2480.249,1504.225a15.363,15.363,0,0,1,4.592,11.178,16.318,16.318,0,0,1-8.862,14.671c-1.04.544-3.861,1.816-4.949,1.816-1.182,0-3.043-2.815-3.043-3.816,0-.454.683-.545,1.137-.635,5.951-1.41,10.627-5.316,10.627-11.811,0-4.859-2.541-9.219-7.268-10.855a7.911,7.911,0,0,0-1.726-.409c-1.04,0-1.04,1-1.088,1.771-.5,6.633-2.086,14.716-6.45,19.943-1.5,1.816-3.5,3.5-6,3.5-2.772,0-4.95-2-6.176-4.318a14.19,14.19,0,0,1-1.411-6.447,18.715,18.715,0,0,1,18.851-19.079A16.15,16.15,0,0,1,2480.249,1504.225Zm-17.669,1.32a14.053,14.053,0,0,0-8.173,13.081c0,1.681.59,5.906,2.905,5.906,2.271,0,4.815-5.182,6.086-9.812a45.994,45.994,0,0,0,1.453-8.858c0-.451-.225-.815-.724-.815A5.119,5.119,0,0,0,2462.579,1505.545Z" transform="translate(101.703 50.552)" fill="#674646"/>
      <path id="パス_15368" data-name="パス 15368" d="M2483.656,1499.493c1.224.361,1.951.5,1.951.953,0,.271-.274.451-.454.589-.589.361-.725.592-1,1.681-.048.273-.274,1.226-.274,1.407a.659.659,0,0,0,.639.68,3.4,3.4,0,0,0,.678-.135,36.185,36.185,0,0,0,5.362-1.5,2.185,2.185,0,0,1,.769-.228c1.092,0,1.456,3.452,1.456,3.635,0,.863-1.088,1.047-2.225,1.272-1.771.409-4.588.953-6.405,1.227-1.046.18-1.226,1.317-1.226,1.816,0,.409.405.589.728.589.09,0,.224-.045.364-.045.907-.09,2.044-.225,2.949-.225,7.043,0,13.357,3.587,13.357,11.354,0,10.311-12.858,14.217-14.355,14.217-1,0-2.091-2.77-2.091-3.632,0-.5.5-.547,1-.682,4.772-1.269,10.629-4,10.629-9.719,0-5.042-4-6.5-4.544-6.5-.68,0-.952.589-1.224,1.133a40.769,40.769,0,0,1-6.086,8.675,1.187,1.187,0,0,0-.458.908c0,.139.23,1.456.274,1.684v.226c0,.862-2.451,2.408-3.452,2.408a.824.824,0,0,1-.772-.637c-.091-.225-.184-.454-.5-.454a1.111,1.111,0,0,0-.5.181,13.015,13.015,0,0,1-6.719,2.453c-3.182,0-5.134-2.405-5.134-5.452,0-6.041,5.765-11.582,10.9-14.033.27-.139,1.316-.364,1.316-2.547a.717.717,0,0,0-.772-.773c-.18,0-.818.094-1,.094-1.677.138-3.358.364-5.042.364-2,0-2.268,0-2.268-2.135,0-2.27.271-2.409,1.089-2.409.772,0,1.543.048,2.363.048,1.546,0,3.088-.048,4.632-.183a1.744,1.744,0,0,0,1.226-.409,1.8,1.8,0,0,0,.458-1.227c.226-1.587.406-3.178.631-4.814.048-.409.231-.728.73-.728C2480.974,1498.627,2483.157,1499.355,2483.656,1499.493Zm-12.675,27.343c0,.863.408,1.362,1.271,1.362,1.591,0,4.226-1.588,5.449-2.541a1.642,1.642,0,0,0,.546-1.41c0-.409-.134-2.319-.134-3.723,0-.457.044-.911.044-1.32s-.093-.773-.547-.773C2476.662,1518.431,2470.982,1523.158,2470.982,1526.836Zm11.947-10.993c-.5.321-.455,1.226-.455,2.225v.548c0,.724.046,1.816.455,1.816.769,0,2.453-3.269,2.814-4a2,2,0,0,0,.272-.725c0-.316-.318-.409-.588-.409A6.515,6.515,0,0,0,2482.929,1515.842Z" transform="translate(135.341 48.338)" fill="#674646"/>
      <path id="パス_15369" data-name="パス 15369" d="M2508.52,1503.363c0,.321-.5.592-1,.956a43.919,43.919,0,0,0-6.589,6.086,1.373,1.373,0,0,0-.453.774c0,.363.363.589.772.589a2.506,2.506,0,0,0,.589-.09,8.658,8.658,0,0,1,1.862-.181,13.313,13.313,0,0,1,5.587,1.362,9.389,9.389,0,0,1,5.407,8.811c0,8.041-7.133,12.22-14.443,12.22-3.771,0-9.135-1.546-9.135-6.176a5.7,5.7,0,0,1,5.815-5.5,7.417,7.417,0,0,1,6.044,3.223,4.534,4.534,0,0,1,.814,2.908c.048.315.184.59.547.59,1.182,0,5.5-2.406,5.5-6.994,0-4.405-3.726-6.221-7.679-6.221a13.78,13.78,0,0,0-10.173,4.45c-1.771,1.726-3.407,3.59-5.043,5.452a.615.615,0,0,1-.5.315c-.957,0-3.271-2.541-3.271-3.269,0-.544.68-1.043,1.091-1.365a181.1,181.1,0,0,0,14.124-14.261c.367-.365,1.185-1.183,1.185-1.636,0-.409-.412-.544-.772-.544a10.18,10.18,0,0,0-1.092.184c-1.087.27-7.493,1.588-8.221,1.588-1,0-1.133-3.4-1.133-4.177,0-1.047.042-1.137,1.4-1.137h1.1c2.9,0,8.854-.635,11.489-1.681a6.23,6.23,0,0,1,1.726-.5C2505.886,1499.141,2508.52,1502.593,2508.52,1503.363Zm-11.5,22.534a1.88,1.88,0,0,0-1.952,1.816c0,1.633,2.18,2.405,3.545,2.405.863,0,1.224-.818,1.224-1.545A2.772,2.772,0,0,0,2497.024,1525.9Z" transform="translate(169.008 49.369)" fill="#674646"/>
      <path id="パス_15370" data-name="パス 15370" d="M2528.748,1514.072c1.908,0,3.815-.139,5.722-.139,1.32,0,1.41.229,1.41,2.409,0,1.864-.09,2.5-1.272,2.5-1.951,0-3.909-.09-5.86-.09H2522.8c-1.272,0-1.272,1.133-1.452,2.09a23.078,23.078,0,0,1-3,8.221c-2.184,3.5-5.726,5.815-9.451,7.4a7.957,7.957,0,0,1-2.135.724c-1,0-3.448-2.995-3.448-3.723,0-.548.68-.637,1.224-.815a21.845,21.845,0,0,0,5.725-2.367,13.59,13.59,0,0,0,5.726-8.266,21.77,21.77,0,0,0,.361-2.18,1.038,1.038,0,0,0-1.043-1.088h-9.223c-1.906,0-3.951.135-5.725.135-1.224,0-1.179-.863-1.179-2.589,0-1.681.044-2.364,1.137-2.364,1.588,0,3.771.139,5.767.139Zm-6.994-11.9c2,0,4.176-.136,5.722-.136,1.362,0,1.273.908,1.273,2.724,0,1.546,0,2.18-1.224,2.18-1.909,0-3.864-.09-5.77-.09h-9.676c-1.907,0-3.816.09-5.768.09-1.272,0-1.182-.725-1.182-2.36s-.09-2.544,1.272-2.544c1.455,0,3.632.136,5.677.136Zm14.851,4.585c0,.682-1.681,2-2.271,2-.225,0-.544-.406-.953-.906-.864-1.185-1.819-2.273-2.769-3.365-.184-.135-.413-.364-.413-.589,0-.5,1.775-1.771,2.274-1.771S2536.6,1506.167,2536.6,1506.756Zm1.909-6.5c.364.412,1.816,1.958,1.816,2.409,0,.637-1.635,2-2.225,2-.315,0-.638-.5-1.136-1.137-.726-.953-1.862-2.18-2.679-3.043a.932.932,0,0,1-.365-.589c0-.547,1.729-1.816,2.229-1.816C2536.559,1498.084,2538.151,1499.852,2538.514,1500.261Z" transform="translate(201.132 47.248)" fill="#674646"/>
      <path id="パス_15371" data-name="パス 15371" d="M2522.992,1511.135c1.179,0,1.5-.68,1.5-1.179v-3.091c0-2.541-.136-4.949-.136-5,0-.361.136-.451.455-.451.773,0,3.407.225,4.269.315.318.048,1.182.136,1.182.547,0,.184-.183.361-.274.5-.59.683-.544,1.047-.544,4v3.133a1.2,1.2,0,0,0,1.133,1.227h8.041c.637,0,1.137-.454,1.137-1.362,0-1.636,0-6.36-.183-7.722a2.363,2.363,0,0,1-.042-.544c0-.412.316-.547.95-.547.593,0,1.546.135,2.821.229,1.179.09,2.087.138,2.087.592,0,.271-.136.409-.455.77a14.512,14.512,0,0,0-.271,3.816v3.317c0,.953.451,1.453,1.363,1.453h1.223c1.775,0,3.909-.136,5.317-.136.864,0,1.136.361,1.136,2.135,0,2.27-.138,2.679-1.23,2.679-1.767,0-3.5-.09-5.223-.09h-1.223c-1.452,0-1.452.953-1.452,1.542-.183,7.906-.866,13.357-7.906,18.033-.773.5-3.816,2.367-4.633,2.367-.635,0-3.269-2.593-3.269-3.272,0-.409.361-.592.724-.727,8.63-3.678,10.218-7.358,10.218-16.49,0-.773-.317-1.452-1.179-1.452h-7.951a1.153,1.153,0,0,0-1.133,1.136v4.36c0,1.227.091,2.5.091,3.771,0,1.951-.23,1.816-2.953,1.816-1.588,0-2.136,0-2.136-1.179,0-1.455.046-2.908.046-4.363v-4.315a1.22,1.22,0,0,0-1.224-1.227H2521.9c-1.681,0-3.4.138-5.088.138-1.088,0-1.224-.866-1.224-2.093,0-2.177.042-2.77,1.178-2.77,1.318,0,3.317.136,5.134.136Zm30.344-4.676c0,.635-1.681,2-2.271,2-.273,0-.637-.544-1.229-1.317-.815-1-1.678-2-2.59-2.953a.846.846,0,0,1-.316-.545c0-.5,1.772-1.774,2.225-1.774C2549.655,1501.868,2553.336,1505.867,2553.336,1506.459Zm3.861-4c0,.632-1.591,2.042-2.225,2.042-.228,0-.457-.273-.592-.454-.953-1.182-2.135-2.544-3.224-3.636a.882.882,0,0,1-.412-.589c0-.544,1.726-1.864,2.183-1.864C2553.427,1497.962,2557.2,1501.916,2557.2,1502.463Z" transform="translate(234.073 47.003)" fill="#674646"/>
      <path id="パス_15372" data-name="パス 15372" d="M2553.742,1529.82c0,2,.09,4,.09,5.951,0,1.226-.589,1.362-2.27,1.362-2.5,0-2.952-.135-2.952-1.314,0-1.957.089-3.909.089-5.864V1517.6c0-.274.135-1.275-.728-1.275-.45,0-1.407.773-1.77,1.046-1.362,1-8.585,5.813-9.767,5.813-.773,0-3.539-2.769-3.539-3.632,0-.454.406-.637.724-.773a65.358,65.358,0,0,0,17.849-12.033,38.592,38.592,0,0,0,6.18-7.68c.138-.225.409-.682.727-.682a17.007,17.007,0,0,1,3.088,1.861c.5.321,1.771,1.095,1.771,1.636,0,.274-.229.364-.454.457a2.454,2.454,0,0,0-1.771,1.089,89.214,89.214,0,0,1-6.222,6.816,2.414,2.414,0,0,0-1.046,2.042Z" transform="translate(268.803 47.852)" fill="#674646"/>
      <path id="パス_15373" data-name="パス 15373" d="M2583.235,1510.755c0,.77-1.813,2.541-2.406,3.134a78.956,78.956,0,0,1-24.667,17.125c-1.5.725-1.545.773-1.909,1.546a.452.452,0,0,1-.451.271c-.5,0-1.452-1.816-1.774-2.364a12.78,12.78,0,0,1-1.362-2.724c0-.5.818-.589,1.41-.773,10.037-2.95,21.395-11.538,27.845-19.759a1.118,1.118,0,0,1,.77-.5C2581.6,1506.71,2583.235,1510.073,2583.235,1510.755Zm-23.437-7.5c.589.412,2.77,1.909,2.77,2.592,0,1.044-2.135,3.5-3,3.5a4.914,4.914,0,0,1-1.82-1.224,55.838,55.838,0,0,0-6.038-4.228c-.364-.225-.727-.454-.727-.863,0-.679,1.816-3.587,2.863-3.587C2554.575,1499.443,2558.935,1502.624,2559.8,1503.256Z" transform="translate(304.469 49.976)" fill="#674646"/>
    </g>
  </g>
</svg>
