<svg xmlns="http://www.w3.org/2000/svg" width="283.931" height="141.966" viewBox="0 0 283.931 141.966">
  <g id="グループ_1750" data-name="グループ 1750" transform="translate(-1313.87 -1567.24)">
    <path id="パス_15709" data-name="パス 15709" d="M1597.8,1567.24a141.966,141.966,0,0,1-283.931,0" transform="translate(0 0)" fill="#5c8291"/>
    <path id="パス_92" data-name="パス 92" d="M1658.108,131.994c-3.527,6.55-8.78,9.861-15.617,9.861s-12.091-3.311-15.619-9.861c-2.806-5.254-4.246-11.659-4.246-19.144s1.44-13.89,4.246-19.144c3.528-6.55,8.781-9.861,15.619-9.861s12.09,3.311,15.617,9.861c2.879,5.325,4.318,11.731,4.318,19.144s-1.439,13.819-4.318,19.144m-7.916-30.587c-1.656-4.678-4.246-7.053-7.7-7.053-3.383,0-5.974,2.375-7.629,7.053a35.944,35.944,0,0,0,0,22.887c1.656,4.678,4.247,7.053,7.629,7.053,3.455,0,6.045-2.375,7.7-7.053a35.926,35.926,0,0,0,0-22.887" transform="translate(-210.334 1521.328)" fill="#fff"/>
    <path id="パス_93" data-name="パス 93" d="M1732.748,129.529v11.155h-9.86V129.529H1697.7L1721.161,83.4l9.068,4.75c-3.383,6.982-8.637,17.489-15.618,31.451h8.277V106.139h9.86V119.6h4.1v9.932Z" transform="translate(-237.471 1521.491)" fill="#fff"/>
  </g>
</svg>
