<svg xmlns="http://www.w3.org/2000/svg" width="327.121" height="63.717" viewBox="0 0 327.121 63.717">
  <g id="グループ_865" data-name="グループ 865" transform="translate(145.637 -1598.426)">
    <g id="グループ_272" data-name="グループ 272" transform="translate(147.638 1598.426)" opacity="0.4">
      <path id="パス_769" data-name="パス 769" d="M1038.172,2837.351l.547.394,1.348-.378.928.669a1.264,1.264,0,0,1,1.033.09c.173.121.493.033.863.042a17.484,17.484,0,0,1,1.638,1.132c.216.339.074.872.569,1.092.068.031.044.27.052.338l-1.75.385-.519-.324-1.4.226-.834-.543a5.645,5.645,0,0,0-1.517.158l-.467-.288-1.518.209-1.292-.932a7.319,7.319,0,0,0-.325-1.541c-.288-.3-.836-.37-.84-.949l1.069-.134a1.187,1.187,0,0,0,1.186.161l.453.291Z" transform="translate(-1011.303 -2817.346)" fill="#5c8291"/>
      <path id="パス_770" data-name="パス 770" d="M1042.837,2824.447c-.123.15-.214.379-.345.4-.96.184-1.928.327-2.894.483l-.326.4c-.268.126-.473.007-.718-.1a2.717,2.717,0,0,0-.879-.046,17.187,17.187,0,0,1-1.625-1.124,2.034,2.034,0,0,1-.187-1.2l1.32-.213c.573-.543.609-.55,1.164-.261l1.907-.21.614-.851,1.851-.348,1.757,1.267c.059.362.115.713.172,1.064l-.288.455Z" transform="translate(-1011.866 -2809.684)" fill="#5c8291"/>
      <path id="パス_771" data-name="パス 771" d="M988.786,2805.208a.83.83,0,0,0,.838-.514c-.022-.209-.05-.467-.077-.725.708-.042.732-.029.9.92l.758.546a7.1,7.1,0,0,1,.356,1.609l.412.3c.054.268.106.525.159.79l.431.311a1.178,1.178,0,0,0,.549,1.1c-.16.69.769.946.645,1.622l.838.771a2.769,2.769,0,0,1,.193,1.149l-.336.392-1.054.17-.86-.621-.154-.777-.832-.6-.17-.8-.832-.6c-.075-.468-.146-.905-.227-1.4l-.615-.445c-.448-.477-.152-1.1-.862-1.223C988.828,2806.556,988.808,2805.94,988.786,2805.208Z" transform="translate(-988.786 -2801.139)" fill="#5c8291"/>
      <path id="パス_772" data-name="パス 772" d="M1009.848,2799.045q.213,1.306.425,2.611l-.308.426c.035.267.068.526.1.772l-.291.451c.07.437.141.873.214,1.321-.014.321-.333.548-.246.945.189.858.3,1.734.437,2.6l-1.088.176-.87-.628-.158-.733-.37-.268c-.24-.407.133-.653.183-.964-.114-.706-.227-1.4-.342-2.115l.3-.414c-.073-.526-.146-1.044-.214-1.541l.289-.46c-.026-.336-.2-.67.088-.992.2-.223.03-.5.012-.825.1-.161.231-.376.362-.593a.679.679,0,0,1,.622-.391Z" transform="translate(-997.982 -2798.426)" fill="#5c8291"/>
      <path id="パス_773" data-name="パス 773" d="M1028.206,2807.071a14.641,14.641,0,0,1,1.167-1.725c.328-.28.951,0,1.082-.849l-.058-.53.719-.161-.083-.762.356-.409c.527-.123.75.383,1.2.578.022.315.047.667.081,1.152l-.521.721c.022.281.042.537.067.848l-2.458,3.406c.03.274.059.533.089.815l-.3.409c-.372.214-.619-.225-.942-.2-.351.029-.694.141-1.029-.242l-.18-.923a.769.769,0,0,1,.049-.265,7.96,7.96,0,0,1,.626-.863A1,1,0,0,0,1028.206,2807.071Z" transform="translate(-1007.727 -2800.482)" fill="#5c8291"/>
    </g>
    <g id="グループ_347" data-name="グループ 347" transform="translate(-144.887 1623.845)">
      <g id="グループ_344" data-name="グループ 344" transform="translate(2.387 0.477)">
        <g id="グループ_343" data-name="グループ 343">
          <path id="パス_979" data-name="パス 979" d="M272.912,2902.5c.568.21,1.014.588,1.014.8,0,.252-.365.462-.568.588a2.611,2.611,0,0,0-1.1,1.68,60.236,60.236,0,0,1-3.489,8.527,1.738,1.738,0,0,0-.284.882,1.3,1.3,0,0,0,.649,1.092,26.607,26.607,0,0,1,2.191,1.806c.446.42.73.8.73,1.008,0,.714-2.718,4.957-3.773,4.957-.365,0-.771-.42-1.014-.672a23.647,23.647,0,0,0-1.826-1.6,1.636,1.636,0,0,0-.811-.42,1.151,1.151,0,0,0-.893.546,34,34,0,0,1-6.734,6.384c-1.055.756-5.558,3.654-6.653,3.654-.771,0-2.191-1.722-2.758-2.394-.446-.5-1.42-1.68-1.42-2.184,0-.588.852-.924,1.42-1.134a1.974,1.974,0,0,0,.284-.125,26.927,26.927,0,0,0,10.3-7.309c.325-.336.609-.63.609-1.008a.946.946,0,0,0-.487-.8,41.059,41.059,0,0,0-3.935-1.638c-.446-.168-.852-.378-.852-.924a9.985,9.985,0,0,1,.852-2.478c.405-.84,1.176-2.478,2.109-2.478.771,0,4.259,1.638,5.071,2.058a2.131,2.131,0,0,0,.73.252c.689,0,.973-.589,1.257-1.134a30.067,30.067,0,0,0,2.84-9.114c.041-.294.122-1.092.487-1.092C267.517,2900.232,270.681,2901.618,272.912,2902.5Z" transform="translate(-246.179 -2896.535)" fill="#fff"/>
          <path id="パス_980" data-name="パス 980" d="M382.6,2921.547c0,1.134.041,2.268.041,3.4,0,.756.041,1.554.041,2.352,0,1.3-.689,1.344-2.718,1.344H378.3c-1.907,0-2.191-.251-2.191-1.218,0-1.89.081-3.78.081-5.67v-9.366c0-.63-.2-1.05-.73-1.05a2.7,2.7,0,0,0-1.176.63c-1.1.8-6.694,4.662-7.626,4.662s-4.746-3.864-4.746-4.956c0-.462.487-.63.852-.756a56.464,56.464,0,0,0,7.91-4.368,49.066,49.066,0,0,0,10.344-9.072,43.321,43.321,0,0,0,3.732-5.251c.081-.209.243-.5.527-.5.609,0,4.016,2.562,5.233,3.486.487.378.812.8.812,1.05,0,.293-.284.377-.528.461a2.548,2.548,0,0,0-1.46.714c-.974,1.008-2.758,3.318-5.8,6.51a2.805,2.805,0,0,0-.933,2.142Z" transform="translate(-316.755 -2891.349)" fill="#fff"/>
          <path id="パス_981" data-name="パス 981" d="M508.73,2899.327a8.307,8.307,0,0,0,2.271-.294,1.61,1.61,0,0,1,.446-.042c1.217,0,3.326,3.066,3.326,3.654a5.525,5.525,0,0,1-.73,1.471c-.406.672-.771,1.386-1.136,2.1-5.03,9.828-9.209,15.708-18.782,21.21a10.194,10.194,0,0,1-2.637,1.176c-.73,0-2.475-1.6-3.124-2.185-.487-.462-1.42-1.344-1.42-1.932,0-.462.568-.756,1.1-1.05.122-.042.243-.125.365-.168a37.041,37.041,0,0,0,15.659-13.86c.446-.714,1.622-2.688,1.622-3.486,0-.546-.568-.588-1.055-.588h-5.8c-.69,0-1.014.5-1.379,1.008a50.484,50.484,0,0,1-3.57,4.369c-.528.588-2.434,2.688-3.083,2.688-.811,0-3.732-2.058-4.422-2.646a1.524,1.524,0,0,1-.527-.966.9.9,0,0,1,.405-.672,34.526,34.526,0,0,0,6.45-6.973,39.886,39.886,0,0,0,4.665-8.484c.2-.546.405-1.176.73-1.176a57.64,57.64,0,0,1,5.274,2.562c.487.21.973.42.973.757,0,.209-.2.293-.365.377a4.169,4.169,0,0,0-1.623,2.394c0,.462.366.672.771.756Z" transform="translate(-392.341 -2891.808)" fill="#fff"/>
          <path id="パス_982" data-name="パス 982" d="M611.769,2911.591c.446.252.771.588.771.84,0,.21-.244.336-.405.42a3.206,3.206,0,0,0-1.136,1.092c-1.014,1.26-6.287,7.518-7.545,7.518-.811,0-4.057-3.066-4.057-4.116,0-.42.69-.924,1.014-1.176a21.157,21.157,0,0,0,5.6-6.342c.162-.294.365-.714.771-.714C607.347,2909.113,610.268,2910.751,611.769,2911.591Zm1.339-10.668c1.055,0,1.136-.924,1.136-1.6v-.378a40.878,40.878,0,0,0-.2-4.452c0-.168-.041-.378-.041-.588,0-.5.405-.588.973-.588.608,0,4.827.5,5.557.63.244.042.69.126.69.462,0,.294-.243.5-.406.671a1.724,1.724,0,0,0-.487,1.386v.546c0,.63-.041,1.26-.041,1.932v.378c0,.672.122,1.6,1.1,1.6h5.233c1.866,0,4.219-.126,5.761-.126.974,0,1.136.5,1.136,2.058V2905c0,1.554-.162,2.1-1.3,2.1-1.866,0-3.732-.042-5.6-.042h-5.07a1.251,1.251,0,0,0-1.258,1.26v8.61c0,.84.041,1.722.041,2.6,0,2.184-.2,4.284-1.622,5.418a13.389,13.389,0,0,1-6.329,1.974c-.73,0-.933-.252-1.541-1.428a16.385,16.385,0,0,1-1.379-3.864c0-.63.892-.672,1.339-.714,3.164-.168,3.448-.588,3.448-3.7v-8.9a1.25,1.25,0,0,0-1.258-1.26h-5.4c-1.785,0-3.529.084-5.314.084-1.1,0-1.257-.756-1.257-2.184V2902.9c0-1.764.2-2.1,1.136-2.1.527,0,3.651.126,5.436.126Zm17.849,11.424c.771.756,3.732,3.7,3.732,4.662,0,1.092-3.124,4.2-4.016,4.2-.446,0-1.055-.8-1.907-1.932a37.428,37.428,0,0,0-5.152-5.418c-.284-.252-.649-.546-.649-.924,0-.714,1.055-1.89,1.542-2.394.892-1.008,1.379-1.554,2.028-1.554C627.711,2908.987,630.1,2911.464,630.957,2912.346Zm5.152-17.22a4.221,4.221,0,1,1-4.219-4.368A4.3,4.3,0,0,1,636.108,2895.126Zm-6.369,0a2.177,2.177,0,0,0,2.15,2.226,2.227,2.227,0,1,0-2.15-2.226Z" transform="translate(-461.585 -2890.758)" fill="#fff"/>
          <path id="パス_983" data-name="パス 983" d="M750.682,2921.547c0,1.134.041,2.268.041,3.4,0,.756.041,1.554.041,2.352,0,1.3-.69,1.344-2.718,1.344h-1.663c-1.907,0-2.191-.251-2.191-1.218,0-1.89.081-3.78.081-5.67v-9.366c0-.63-.2-1.05-.73-1.05a2.7,2.7,0,0,0-1.176.63c-1.1.8-6.694,4.662-7.626,4.662s-4.746-3.864-4.746-4.956c0-.462.487-.63.852-.756a56.49,56.49,0,0,0,7.91-4.368,49.073,49.073,0,0,0,10.344-9.072,43.309,43.309,0,0,0,3.732-5.251c.081-.209.243-.5.528-.5.608,0,4.016,2.562,5.233,3.486.487.378.812.8.812,1.05,0,.293-.284.377-.528.461a2.549,2.549,0,0,0-1.46.714c-.973,1.008-2.758,3.318-5.8,6.51a2.806,2.806,0,0,0-.933,2.142Z" transform="translate(-541.228 -2891.349)" fill="#fff"/>
          <path id="パス_984" data-name="パス 984" d="M886.876,2908.634c.081.126.122.294.243.462a6.843,6.843,0,0,1,.689,1.974c0,1.008-3.286,4.242-4.138,5.082-6.531,6.594-13.063,10.374-21.176,14.406a1.791,1.791,0,0,0-1.1,1.092.355.355,0,0,1-.324.252c-.325,0-.568-.378-.73-.672a37.3,37.3,0,0,1-1.907-3.234,10.787,10.787,0,0,1-1.176-2.52c0-.378.446-.588.771-.672a41.974,41.974,0,0,0,10.385-4.62c4.99-3.066,11.237-8.316,14.644-13.146.081-.126.162-.21.244-.336.365-.546.69-1.008,1.136-1.008C885.254,2905.694,886.511,2907.962,886.876,2908.634Zm-24.421-8.568a46.36,46.36,0,0,1,7.14,5.292.909.909,0,0,1,.365.756c0,1.218-2.88,4.62-3.813,4.62a1.76,1.76,0,0,1-1.014-.63,41.813,41.813,0,0,0-6.815-4.914c-.324-.21-.73-.462-.73-.882,0-.84,2.434-4.83,3.611-4.83A4.04,4.04,0,0,1,862.456,2900.066Z" transform="translate(-618.843 -2896.075)" fill="#fff"/>
          <path id="パス_985" data-name="パス 985" d="M996.7,2923.5c0,1.386.041,2.772.041,4.2,0,2.016-.122,2.184-2.758,2.184h-1.826c-1.623,0-2.11-.21-2.11-1.3,0-1.68.081-3.318.081-5v-24.235c0-1.722-.081-3.906-.081-5.208,0-.546.081-.8.649-.8a58.238,58.238,0,0,1,6.247.84.568.568,0,0,1,.446.5.74.74,0,0,1-.243.5,2.24,2.24,0,0,0-.446,1.512v8.148c0,.21.041.588.487.588.243,0,.487-.168.689-.168a4.115,4.115,0,0,1,1.5.672c1.3.84,2.961,2.184,3.488,2.6a48.524,48.524,0,0,1,3.733,3.4,1.1,1.1,0,0,1,.284.672c0,.84-2.961,4.243-3.894,4.243-.365,0-.771-.42-1.014-.672-.689-.672-4.016-3.78-4.665-3.78-.568,0-.608.588-.608,1.008Z" transform="translate(-699.818 -2892.333)" fill="#fff"/>
        </g>
      </g>
      <g id="グループ_346" data-name="グループ 346" opacity="0.7">
        <g id="グループ_345" data-name="グループ 345">
          <path id="パス_986" data-name="パス 986" d="M266.793,2901.276c.568.211,1.014.588,1.014.8,0,.252-.365.462-.568.588a2.609,2.609,0,0,0-1.1,1.68,60.188,60.188,0,0,1-3.489,8.526,1.742,1.742,0,0,0-.284.882,1.3,1.3,0,0,0,.649,1.092,26.628,26.628,0,0,1,2.19,1.805c.446.42.73.8.73,1.009,0,.714-2.718,4.956-3.773,4.956-.365,0-.771-.42-1.014-.672a23.541,23.541,0,0,0-1.826-1.6,1.635,1.635,0,0,0-.811-.419,1.151,1.151,0,0,0-.893.546,34.026,34.026,0,0,1-6.734,6.385c-1.055.756-5.558,3.654-6.653,3.654-.771,0-2.191-1.722-2.758-2.394-.446-.5-1.42-1.68-1.42-2.184,0-.588.852-.924,1.42-1.134a1.942,1.942,0,0,0,.284-.126,26.915,26.915,0,0,0,10.3-7.308c.324-.336.609-.63.609-1.008a.945.945,0,0,0-.487-.8,41.029,41.029,0,0,0-3.935-1.638c-.446-.168-.852-.378-.852-.924a9.976,9.976,0,0,1,.852-2.478c.406-.84,1.177-2.479,2.11-2.479.771,0,4.259,1.638,5.071,2.058a2.139,2.139,0,0,0,.73.252c.689,0,.974-.588,1.258-1.134a30.059,30.059,0,0,0,2.839-9.114c.041-.294.122-1.092.487-1.092C261.4,2899.008,264.562,2900.394,266.793,2901.276Z" transform="translate(-240.06 -2895.312)" fill="none" stroke="#5c8291" stroke-miterlimit="10" stroke-width="1.5"/>
          <path id="パス_987" data-name="パス 987" d="M376.478,2920.324c0,1.134.041,2.269.041,3.4,0,.756.041,1.554.041,2.352,0,1.3-.69,1.344-2.718,1.344h-1.663c-1.907,0-2.191-.252-2.191-1.218,0-1.89.081-3.78.081-5.67v-9.366c0-.63-.2-1.05-.73-1.05a2.7,2.7,0,0,0-1.177.63c-1.1.8-6.693,4.662-7.626,4.662s-4.746-3.863-4.746-4.956c0-.461.487-.63.852-.756a56.533,56.533,0,0,0,7.91-4.368,49.063,49.063,0,0,0,10.344-9.072,43.309,43.309,0,0,0,3.732-5.25c.081-.21.243-.5.527-.5.609,0,4.016,2.562,5.233,3.486.487.378.811.8.811,1.05,0,.294-.284.378-.527.462a2.547,2.547,0,0,0-1.46.714c-.974,1.008-2.759,3.318-5.8,6.51a2.805,2.805,0,0,0-.933,2.142Z" transform="translate(-310.636 -2890.126)" fill="none" stroke="#5c8291" stroke-miterlimit="10" stroke-width="1.5"/>
          <path id="パス_988" data-name="パス 988" d="M502.611,2898.1a8.316,8.316,0,0,0,2.272-.294,1.6,1.6,0,0,1,.446-.042c1.217,0,3.326,3.066,3.326,3.654a5.522,5.522,0,0,1-.73,1.469c-.406.672-.771,1.386-1.136,2.1-5.03,9.828-9.209,15.708-18.782,21.211a10.192,10.192,0,0,1-2.637,1.176c-.73,0-2.475-1.6-3.124-2.184-.487-.462-1.42-1.344-1.42-1.932,0-.462.568-.756,1.1-1.05.122-.042.243-.126.365-.168a37.052,37.052,0,0,0,15.659-13.86c.446-.714,1.622-2.688,1.622-3.486,0-.546-.568-.588-1.055-.588h-5.8c-.69,0-1.014.5-1.379,1.008a50.6,50.6,0,0,1-3.57,4.368c-.528.588-2.434,2.688-3.083,2.688-.812,0-3.732-2.058-4.422-2.646a1.526,1.526,0,0,1-.528-.966.905.905,0,0,1,.406-.672,34.51,34.51,0,0,0,6.45-6.972,39.876,39.876,0,0,0,4.665-8.484c.2-.546.405-1.177.73-1.177a57.75,57.75,0,0,1,5.274,2.562c.487.21.973.42.973.756,0,.21-.2.294-.365.378a4.166,4.166,0,0,0-1.623,2.394c0,.462.365.672.771.756Z" transform="translate(-386.221 -2890.585)" fill="none" stroke="#5c8291" stroke-miterlimit="10" stroke-width="1.5"/>
          <path id="パス_989" data-name="パス 989" d="M605.65,2910.367c.446.252.771.588.771.84,0,.21-.244.336-.405.42a3.206,3.206,0,0,0-1.136,1.092c-1.014,1.26-6.288,7.518-7.545,7.518-.811,0-4.057-3.066-4.057-4.116,0-.42.689-.924,1.014-1.176a21.161,21.161,0,0,0,5.6-6.343c.162-.294.365-.714.771-.714C601.228,2907.889,604.149,2909.528,605.65,2910.367Zm1.339-10.668c1.055,0,1.136-.924,1.136-1.6v-.378a40.867,40.867,0,0,0-.2-4.452c0-.168-.041-.378-.041-.588,0-.5.405-.588.974-.588.608,0,4.827.5,5.557.629.244.042.69.126.69.462,0,.294-.243.5-.406.672a1.722,1.722,0,0,0-.487,1.386v.546c0,.63-.041,1.26-.041,1.932v.378c0,.672.122,1.6,1.1,1.6H620.5c1.866,0,4.219-.126,5.761-.126.973,0,1.136.5,1.136,2.058v2.142c0,1.554-.162,2.1-1.3,2.1-1.866,0-3.732-.042-5.6-.042h-5.071a1.251,1.251,0,0,0-1.257,1.26v8.61c0,.84.041,1.722.041,2.6,0,2.184-.2,4.284-1.622,5.418a13.4,13.4,0,0,1-6.329,1.973c-.73,0-.933-.252-1.541-1.427a16.38,16.38,0,0,1-1.38-3.865c0-.63.893-.672,1.339-.714,3.164-.167,3.448-.588,3.448-3.7v-8.9a1.251,1.251,0,0,0-1.258-1.26h-5.4c-1.785,0-3.529.084-5.314.084-1.1,0-1.257-.756-1.257-2.184v-2.058c0-1.764.2-2.1,1.136-2.1.527,0,3.651.126,5.436.126Zm17.849,11.424c.771.756,3.732,3.7,3.732,4.663,0,1.092-3.124,4.2-4.016,4.2-.446,0-1.055-.8-1.906-1.933a37.4,37.4,0,0,0-5.152-5.418c-.284-.252-.649-.546-.649-.924,0-.714,1.055-1.89,1.542-2.394.892-1.008,1.379-1.554,2.028-1.554C621.592,2907.763,623.986,2910.241,624.837,2911.123Zm5.152-17.22a4.221,4.221,0,1,1-4.219-4.368A4.3,4.3,0,0,1,629.989,2893.9Zm-6.369,0a2.177,2.177,0,0,0,2.15,2.226,2.227,2.227,0,1,0-2.15-2.226Z" transform="translate(-455.466 -2889.535)" fill="none" stroke="#5c8291" stroke-miterlimit="10" stroke-width="1.5"/>
          <path id="パス_990" data-name="パス 990" d="M744.563,2920.324c0,1.134.041,2.269.041,3.4,0,.756.041,1.554.041,2.352,0,1.3-.689,1.344-2.718,1.344h-1.663c-1.906,0-2.19-.252-2.19-1.218,0-1.89.081-3.78.081-5.67v-9.366c0-.63-.2-1.05-.73-1.05a2.7,2.7,0,0,0-1.176.63c-1.1.8-6.694,4.662-7.626,4.662s-4.746-3.863-4.746-4.956c0-.461.487-.63.852-.756a56.541,56.541,0,0,0,7.91-4.368,49.075,49.075,0,0,0,10.344-9.072,43.265,43.265,0,0,0,3.732-5.25c.081-.21.243-.5.528-.5.608,0,4.016,2.562,5.233,3.486.487.378.812.8.812,1.05,0,.294-.284.378-.528.462a2.549,2.549,0,0,0-1.46.714c-.973,1.008-2.758,3.318-5.8,6.51a2.805,2.805,0,0,0-.933,2.142Z" transform="translate(-535.109 -2890.126)" fill="none" stroke="#5c8291" stroke-miterlimit="10" stroke-width="1.5"/>
          <path id="パス_991" data-name="パス 991" d="M880.757,2907.411c.081.126.122.294.243.462a6.844,6.844,0,0,1,.69,1.974c0,1.008-3.286,4.243-4.138,5.083-6.531,6.594-13.062,10.375-21.176,14.406a1.792,1.792,0,0,0-1.1,1.092.355.355,0,0,1-.325.252c-.325,0-.568-.378-.73-.672a37.178,37.178,0,0,1-1.907-3.234,10.773,10.773,0,0,1-1.176-2.52c0-.377.446-.588.771-.672a41.993,41.993,0,0,0,10.385-4.62c4.989-3.066,11.237-8.316,14.644-13.146.081-.126.162-.21.243-.336.365-.546.69-1.008,1.136-1.008C879.135,2904.471,880.392,2906.739,880.757,2907.411Zm-24.421-8.568a46.41,46.41,0,0,1,7.14,5.292.91.91,0,0,1,.365.756c0,1.218-2.88,4.62-3.813,4.62a1.761,1.761,0,0,1-1.014-.63,41.789,41.789,0,0,0-6.815-4.914c-.324-.21-.73-.462-.73-.882,0-.84,2.434-4.83,3.61-4.83A4.04,4.04,0,0,1,856.337,2898.843Z" transform="translate(-612.724 -2894.852)" fill="none" stroke="#5c8291" stroke-miterlimit="10" stroke-width="1.5"/>
          <path id="パス_992" data-name="パス 992" d="M990.577,2922.275c0,1.386.041,2.772.041,4.2,0,2.017-.122,2.185-2.758,2.185h-1.826c-1.623,0-2.11-.21-2.11-1.3,0-1.681.081-3.318.081-5v-24.234c0-1.722-.081-3.906-.081-5.208,0-.546.081-.8.649-.8a58.07,58.07,0,0,1,6.247.84.568.568,0,0,1,.446.5.738.738,0,0,1-.243.5,2.241,2.241,0,0,0-.446,1.512v8.148c0,.21.041.588.487.588.243,0,.487-.168.689-.168a4.1,4.1,0,0,1,1.5.672c1.3.839,2.961,2.184,3.488,2.6a48.475,48.475,0,0,1,3.733,3.4,1.1,1.1,0,0,1,.284.672c0,.84-2.961,4.242-3.894,4.242-.365,0-.771-.42-1.014-.672-.689-.672-4.016-3.78-4.665-3.78-.568,0-.608.588-.608,1.008Z" transform="translate(-693.698 -2891.11)" fill="none" stroke="#5c8291" stroke-miterlimit="10" stroke-width="1.5"/>
        </g>
      </g>
    </g>
  </g>
</svg>
