<svg xmlns="http://www.w3.org/2000/svg" width="870.345" height="184.453" viewBox="0 0 870.345 184.453">
  <g id="グループ_2282" data-name="グループ 2282" transform="translate(-233.72 -2466.693)">
    <g id="グループ_1693" data-name="グループ 1693" transform="translate(1055.085 2467.332)">
      <line id="線_325" data-name="線 325" y1="119.534" x2="42.67" transform="translate(0 0)" fill="none" stroke="#674646" stroke-linecap="round" stroke-linejoin="round" stroke-width="1"/>
      <line id="線_326" data-name="線 326" y1="63.04" x2="30.978" transform="translate(17.333 55.819)" fill="none" stroke="#674646" stroke-linecap="round" stroke-linejoin="round" stroke-width="1"/>
    </g>
    <g id="グループ_1694" data-name="グループ 1694" transform="translate(234.405 2538.537)">
      <line id="線_327" data-name="線 327" x1="64.536" y1="109.289" transform="translate(0 0)" fill="none" stroke="#674646" stroke-linecap="round" stroke-linejoin="round" stroke-width="1"/>
      <line id="線_328" data-name="線 328" x1="42.356" y1="56.032" transform="translate(5.032 55.877)" fill="none" stroke="#674646" stroke-linecap="round" stroke-linejoin="round" stroke-width="1"/>
    </g>
    <g id="グループ_1657" data-name="グループ 1657" transform="translate(-3877.154 2212.303) rotate(-4)">
      <path id="パス_14190" data-name="パス 14190" d="M4218.01,622.693c-.716,0-1.429.126-2.107.126-1.009,0-.967-.547-.967-2.064s-.042-2.066.967-2.066c.678,0,1.391.085,2.107.085h1.1c.842,0,1.683-.085,2.528-.085,1.476,0,2.36.38,2.36,2.024,0,1.136-.084,2.316-.084,3.454v6.153c0,2.318-.042,4.34,2.909,5.226,2.358.715,6.236.8,9.478.8h3.078c2.655,0,5.267,0,7.879-.085.632-.041,3.539-.169,3.875-.169.8,0,.844.506.844,1.223,0,2.654-.756,2.867-2.485,2.867H4237.31c-3.917,0-12.768.293-15.169-3.33a.979.979,0,0,0-.756-.465.923.923,0,0,0-.594.211c-1.05.843-2.063,1.687-3.116,2.446a1.172,1.172,0,0,0-.632,1.01.583.583,0,0,1-.547.506c-.38,0-.509-.295-.718-.716-.38-.717-1.729-3.076-1.729-3.751,0-.463.846-.8,1.646-1.136a34.483,34.483,0,0,0,3.073-1.814,1.638,1.638,0,0,0,.973-1.768v-7.5c0-.8-.339-1.18-1.18-1.18Zm4.214-9.06c-.38,0-.632-.378-.84-.674a47.042,47.042,0,0,0-5.312-5.9c-.253-.252-.545-.5-.545-.843,0-.715,1.854-2.19,2.527-2.19.378,0,.674.337.972.632.967.968,1.937,1.981,2.863,2.991.546.591,2.864,3.2,2.864,3.877C4224.752,612.244,4223.026,613.634,4222.224,613.634Zm18.583,1.686c-.293,0-.421.252-.463.506.042.632.087,1.264.087,1.938,0,1.264-.424,1.264-2.152,1.264-1.643,0-2.107-.041-2.107-1.264,0-.591.042-1.432.083-2.064,0-.3-.124-.549-.463-.549a.573.573,0,0,0-.337.128,31.415,31.415,0,0,1-8.256,5.1,5.462,5.462,0,0,1-1.394.464c-.841,0-1.979-2.065-1.979-2.656,0-.378.251-.506,1.559-1.012a34.9,34.9,0,0,0,7.249-3.791.436.436,0,0,0,.166-.339c0-.252-.208-.337-.422-.378h-1.767c-1.477,0-2.95.085-4.425.085-.884,0-.926-.3-.926-1.56,0-1.18.042-1.518.926-1.518,1.475,0,2.949.084,4.425.084h4.674c.722,0,1.013-.3,1.013-1.01v-.085c0-.632-.292-1.012-.926-.971-2.274.128-4.594.339-6.868.339-.844,0-.968-.169-1.18-.632a6.347,6.347,0,0,1-.378-1.77c0-.8.673-.758,1.26-.758h1.562c4.381,0,11.925-.337,16.055-1.475a3.686,3.686,0,0,1,.927-.211c.676,0,2.657,2.485,2.657,3.032a.431.431,0,0,1-.38.465,1.653,1.653,0,0,1-.591-.211.777.777,0,0,0-.548-.169,4.345,4.345,0,0,0-.675.085c-1.978.38-3.96.674-5.982.886a.917.917,0,0,0-.927,1.052v.254c0,.843.381,1.18,1.18,1.18h4.929c1.476,0,2.951-.084,4.426-.084.968,0,.925.38.925,1.518,0,1.221,0,1.56-.925,1.56-1.476,0-2.951-.085-4.426-.085h-2.568c-.21.041-.424.126-.424.378,0,.126.083.213.17.339a31.419,31.419,0,0,0,7.332,3.877c.592.211,1.307.42,1.307.884,0,.8-1.35,2.739-2.19,2.739a10.238,10.238,0,0,1-2.656-1.138,32.943,32.943,0,0,1-6.195-4.255A.618.618,0,0,0,4240.807,615.319Zm-11.459,7.837c-.843,0-.884-.337-.884-1.6,0-1.305,0-1.644.884-1.644.843,0,2.274.086,3.665.086h5.774c1.136,0,2.277-.086,3.454-.086.843,0,1.938.254,1.938,1.308a8.759,8.759,0,0,1-.378,1.77c0,.084-.042.211-.042.3,0,.589.419.8.926.8h.336c.927,0,1.9-.043,2.825-.043,1.516,0,1.979.421,1.979,1.812a16.657,16.657,0,0,1-1.6,7c-1.051,1.938-2.526,2.233-5.94,2.233-2.657,0-3.244-.3-3.244-2.78,0-.632.083-1.012.8-1.012.3,0,.718.041.969.041.717.044,1.224.128,1.939.128,1.222,0,1.559-.085,2.022-.971a7,7,0,0,0,.761-2.739c0-.674-.551-.589-1.14-.589h-.886c-.5,0-.673.211-1.135.8a1.541,1.541,0,0,1-1.052.3c-.677,0-2.784-.126-2.784-1.053a1.577,1.577,0,0,1,.168-.632,18.13,18.13,0,0,0,.842-3.035c0-.506-.674-.463-1.093-.463h-.971c-.8,0-1.137.3-1.265,1.1-1.051,7.163-6.53,10.493-7.248,10.493-.84,0-2.613-1.434-2.613-2.277,0-.293.336-.462.55-.632,2.781-1.937,4.674-4.17,5.352-7.542,0-.126.042-.211.042-.3,0-.632-.506-.8-1.012-.843C4230.654,623.115,4229.98,623.156,4229.348,623.156Z" transform="translate(0 0.094)" fill="#674646"/>
      <path id="パス_14191" data-name="パス 14191" d="M4245.589,627.753c-.8,0-1.1.3-1.138,1.138,0,.591.042,1.181.042,1.77,0,1.053-.42,1.053-2.233,1.053-1.729,0-2.191,0-2.191-1.01,0-1.516.087-3.034.087-4.552V610.687c0-1.138-.087-2.274-.087-3.412,0-1.516.5-2.065,2.024-2.065.968,0,1.94.043,2.907.043h3.665c.967,0,1.937-.043,2.908-.043,1.475,0,2.066.465,2.066,1.981,0,1.182-.086,2.359-.086,3.5v13.99c0,1.518.086,3.034.086,4.552,0,1.053-.508,1.01-2.151,1.01-1.521,0-2.193.084-2.193-.925,0-.213.042-.423.042-.632a.856.856,0,0,0-.971-.929Zm3.792-17.485a1.117,1.117,0,0,0-1.135-1.181h-2.657a1.205,1.205,0,0,0-1.18,1.181V613.3a1.206,1.206,0,0,0,1.18,1.181h2.657a1.118,1.118,0,0,0,1.135-1.181Zm-1.135,13.484a1.118,1.118,0,0,0,1.135-1.18v-3.2a1.116,1.116,0,0,0-1.135-1.18h-2.657a1.2,1.2,0,0,0-1.18,1.18v3.2a1.206,1.206,0,0,0,1.18,1.18Zm14.409,1.853c-.8,0-1.138.3-1.307,1.1a24.45,24.45,0,0,1-6.024,12.431c-.381.378-.8.884-1.349.884-.886,0-2.95-1.811-2.95-2.7,0-.38.38-.675.8-1.1,5.143-5.013,5.772-10.239,5.772-17.107v-8.807c0-1.306-.083-2.613-.083-3.962,0-1.559.59-2.064,2.106-2.064,1.137,0,2.278.085,3.373.085h5.1c1.1,0,2.234-.085,3.331-.085,1.516,0,2.148.463,2.148,2.022,0,1.348-.083,2.7-.083,4v21.534c0,1.052.083,2.107.083,3.117,0,1.475-.127,2.781-1.308,3.793-1.391,1.181-3.748,1.307-5.518,1.307-1.177,0-1.6-.212-1.98-1.349a7.074,7.074,0,0,1-.381-2.107c0-.591.213-.971.848-.971h.544c.423.043.883.085,1.306.085,2.147,0,2.192-.673,2.192-2.613v-6.321c0-.841-.338-1.179-1.181-1.179Zm5.435-12.472a1.207,1.207,0,0,0,1.181-1.181v-2.485a1.206,1.206,0,0,0-1.181-1.179h-5.1a1.208,1.208,0,0,0-1.181,1.179v2.485a1.209,1.209,0,0,0,1.181,1.181Zm-5.1,3.664c-.844,0-1.181.38-1.181,1.181v2.654c0,.843.337,1.179,1.139,1.179h5.139c.843,0,1.181-.337,1.181-1.138v-2.7c0-.8-.338-1.181-1.181-1.181Z" transform="translate(20.835 0.975)" fill="#674646"/>
      <path id="パス_14192" data-name="パス 14192" d="M4296.884,607.309c0,.294.21.419.5.419.97,0,1.936-.083,2.952-.083s1.008.421,1.008,1.9,0,1.9-1.008,1.9c-1.687,0-3.331-.127-5.017-.127H4289.8c-.505,0-1.007.211-1.007.843a.566.566,0,0,0,.04.252,25.633,25.633,0,0,0,1.267,5.015.5.5,0,0,0,.46.378.514.514,0,0,0,.506-.294,31.051,31.051,0,0,0,1.981-4.341c.125-.337.211-.884.674-.884a14.135,14.135,0,0,1,2.317,1.012,4.641,4.641,0,0,0,.55.252c.884.421,1.348.591,1.348.969,0,.337-.337.463-.592.547-.506.126-.588.339-.97,1.054a52.889,52.889,0,0,1-3.116,5.395,1.736,1.736,0,0,0-.336.884,1.056,1.056,0,0,0,.378.842c.63.758,1.77,1.938,2.823,1.938,1.306,0,1.6-2.528,1.768-3.539.045-.3.127-.632.8-.632,1.012,0,2.823.506,2.823,1.727a10.48,10.48,0,0,1-1.265,4.468,4.017,4.017,0,0,1-3.75,2.19,8.033,8.033,0,0,1-5.772-2.906,1.028,1.028,0,0,0-.757-.38,1.012,1.012,0,0,0-.717.38c-.085.083-.255.211-.423.38-.674.715-1.854,1.853-2.361,1.853-.716,0-2.609-1.727-2.609-2.443,0-.38.756-.971,1.052-1.223a18.545,18.545,0,0,0,2.064-1.981,1.493,1.493,0,0,0,.463-.969,2.12,2.12,0,0,0-.209-.884,31.855,31.855,0,0,1-2.7-8.808,1.123,1.123,0,0,0-1.306-1.095h-11c-.8,0-1.178.337-1.178,1.18v3.666a29.057,29.057,0,0,1-1.9,10.912c-.3.8-1.391,3.582-2.317,3.582-.76,0-3.117-1.516-3.117-2.359a9.288,9.288,0,0,1,.672-1.264c2.063-3.667,2.567-8.132,2.567-12.3v-2.318c0-1.179-.082-2.107-.082-2.865,0-1.6,1.012-1.855,2.359-1.855,1.308,0,2.614.085,3.921.085h9.776c.758-.085,1.094-.336,1.094-1.138,0-.715-.209-2.4-.209-2.485,0-.591.462-.675.927-.675.253,0,2.4.126,2.82.169,1.183.083,1.857.083,1.857.673,0,.38-.379.506-.715.717-.38.211-.426.463-.426.969a2.964,2.964,0,0,0,.045.632c.041.843.421,1.053,1.178,1.138h4.551c.17-.043.379-.085.379-.295a.3.3,0,0,0-.167-.294,16.294,16.294,0,0,0-1.939-1.012c-1.009-.465-1.433-.632-1.433-1.012,0-.548.846-2.022,1.433-2.022a12.875,12.875,0,0,1,2.655,1.138c.507.252,2.4,1.264,2.4,1.727a2.432,2.432,0,0,1-.378.969A.55.55,0,0,0,4296.884,607.309Zm-24.863,23.765c.253.085.633.254.633.634,0,.421-.55.5-.674.547-.379.084-.464.422-.548.717a34.348,34.348,0,0,1-2.95,6.278,1.145,1.145,0,0,1-1.1.717c-.76,0-2.949-.758-2.949-1.6a1.068,1.068,0,0,1,.252-.632,26.2,26.2,0,0,0,3.243-6.953c.086-.339.169-.8.632-.8C4268.859,629.979,4271.517,630.907,4272.021,631.074Zm4.046-14.959c-.927,0-1.854.085-2.823.085-.8,0-.759-.632-.759-1.475,0-.886-.043-1.432.8-1.432.928,0,1.855.041,2.782.041h3.792c.93,0,1.854-.041,2.782-.041.841,0,.8.463.8,1.432,0,.884.042,1.475-.756,1.475-.927,0-1.855-.085-2.824-.085Zm6.827,7.333c0,.591.042,1.012.042,1.516,0,1.055-.464,1.518-1.517,1.518-.718,0-1.391-.085-2.065-.085h-2.147c-.426,0-1.015,0-1.184.717-.082.506-.209.506-1.726.506-1.013,0-1.475.041-1.475-.758v-5.984c0-.506-.043-1.012-.043-1.518,0-1.095.505-1.516,1.6-1.516.673,0,1.35.085,2.023.085h2.951c.674,0,1.347-.085,2.021-.085,1.053,0,1.561.378,1.561,1.516,0,.506-.042,1.012-.042,1.518Zm4.214,12.978c.841,0,1.688.169,2.15-2.613.125-.673.125-1.136.925-1.136,1.053,0,3.161.589,3.161,1.853a11.872,11.872,0,0,1-1.388,4.214c-1.1,1.729-2.361,1.559-4.721,1.559H4277.5c-2.063,0-4-.3-4-2.865,0-.589.042-1.138.042-1.727v-2.53c0-1.179-.125-2.654-.125-3.074s.255-.591.633-.591c.673,0,3.331.252,4.086.293.338.043.8.128.8.549,0,.211-.167.337-.336.463-.588.38-.674.463-.674,2.024v2.485c0,1.179.634,1.095,1.728,1.095Zm-11.041-14.031a1.2,1.2,0,0,0,1.18,1.179h1.181a1.2,1.2,0,0,0,1.177-1.179v-.422a1.175,1.175,0,0,0-1.177-1.179h-1.181a1.178,1.178,0,0,0-1.18,1.179Zm8.6,12.094c-.382,0-.635-.337-.844-.632a43.553,43.553,0,0,0-3.371-3.456c-.213-.211-.549-.463-.549-.8,0-.632,2.107-2.065,2.656-2.065.5,0,2.444,1.9,2.908,2.359s2.021,1.9,2.021,2.487C4287.487,633.14,4285.337,634.488,4284.665,634.488Zm13.146,5.015c-.591,0-.759-.506-.927-.971a33.151,33.151,0,0,0-3.2-5.73,2.013,2.013,0,0,1-.377-.8c0-.758,2.317-1.642,2.951-1.642a.985.985,0,0,1,.756.463,30.928,30.928,0,0,1,1.938,3.034c.376.632,2.021,3.371,2.021,3.962C4300.97,638.787,4298.317,639.5,4297.811,639.5Z" transform="translate(39.776 0.056)" fill="#674646"/>
      <path id="パス_14193" data-name="パス 14193" d="M4292.888,614.107c-.3.252-.337.337-.381.842a54.878,54.878,0,0,1-.927,8.26c-.126.5-.253.843-.841.843-.509,0-2.193-.3-2.193-.97a4.522,4.522,0,0,1,.17-.715,46.475,46.475,0,0,0,.926-8.386c0-.506-.081-1.138.548-1.138.421,0,1.518.211,1.728.211.378,0,1.266.041,1.266.591C4293.183,613.855,4293.013,613.981,4292.888,614.107Zm22.965,21.87c-.336,0-.465.254-.5.548v.38c0,3.541-1.979,4.088-5.858,4.088-.631,0-1.729.126-1.729-2.571,0-.547.21-.8.76-.8.125,0,.293.042.419.042a5.792,5.792,0,0,0,.843.043c1.768,0,1.688-.675,1.688-2.318v-3.71c0-.926-.04-1.812-.126-2.739,0-.083-.042-.252-.042-.38,0-.463.336-.546.715-.546.884,0,2.147.126,3.077.209.335.043,1.137.085,1.137.591,0,.252-.251.378-.506.547-.421.254-.377.927-.377,2.15v.547a.285.285,0,0,0,.294.3.77.77,0,0,0,.5-.211c.336-.38,1.265-1.1,1.813-1.6a1.1,1.1,0,0,0,.294-.715,1.371,1.371,0,0,0-.336-.8c-.551-.547-1.054-1.1-1.558-1.642a1.881,1.881,0,0,0-1.771-.845h-2.7a1.973,1.973,0,0,0-1.809.76c-.758.843-1.307,1.39-2.109,2.148a1.065,1.065,0,0,0-.418.758,1.039,1.039,0,0,0,.336.758c.377.38.713.76,1.05,1.138a1.032,1.032,0,0,0,.887.38c.589.084,1.39,1.6,1.39,2.064,0,.38-.211.549-.505.76-1.686,1.095-4.3,2.528-6.112,3.5-.8.422-.883.422-.969.8-.084.252-.168.632-.506.632-.464,0-1.517-2.065-1.767-2.528a.589.589,0,0,0-.509-.3.581.581,0,0,0-.377.126.979.979,0,0,1-.633.3c-.842,0-2.654-3.92-2.992-4.72a.448.448,0,0,0-.38-.3.5.5,0,0,0-.421.337c-.461,1.39-2.823,7.754-4.34,7.754-.926,0-3.032-1.306-3.032-2.276,0-.378.421-.884.63-1.179,3.708-5.1,4.593-12.389,4.593-18.541V608a24.906,24.906,0,0,0-.169-3.751,1.192,1.192,0,0,1-.041-.378c0-.506.419-.591.843-.591.292,0,3.413.211,3.667.254.292.041.631.169.631.547,0,.211-.168.337-.464.591-.463.378-.5.969-.5,2.443v6.28c.041.209.124.463.378.463.168,0,.209-.042.338-.169a20.167,20.167,0,0,0,1.387-1.938c.171-.211.337-.547.632-.547.337,0,1.9,1.938,2.276,2.359a2.063,2.063,0,0,1,.59,1.012.389.389,0,0,1-.377.422c-.127,0-.212-.044-.3-.044-.34,0-.463,0-.674.254a48.373,48.373,0,0,1-3.455,3.708,2,2,0,0,0-.8,1.812c-.087,1.6-.087,3.245-.254,4.846a1.762,1.762,0,0,0-.042.465,2.788,2.788,0,0,0,.3,1.305,29.763,29.763,0,0,0,4,6.659,2.116,2.116,0,0,1,.465.926,1.494,1.494,0,0,1-.251.717.512.512,0,0,0-.044.252.3.3,0,0,0,.295.339c.043,0,.123-.043.167-.043,1.054-.463,2.066-.927,3.078-1.432a.822.822,0,0,0,.505-.717.922.922,0,0,0-.252-.632,4.571,4.571,0,0,0-.633-.673,1.017,1.017,0,0,0-.758-.38,1.057,1.057,0,0,0-.589.168,4.72,4.72,0,0,1-1.645.717c-.757,0-1.938-1.937-1.938-2.613,0-.421.422-.548.718-.717a20.906,20.906,0,0,0,3.961-2.611c.125-.128.21-.211.21-.38,0-.252-.253-.337-.462-.38-.971.043-1.939.085-2.908.085-.845,0-.845-.5-.845-1.6s0-1.559.883-1.559c1.394,0,2.782.084,4.176.084h.5c.676,0,1.011-.3,1.011-1.012v-.548a.9.9,0,0,0-.967-1.012c-1.182.043-2.317.085-3.5.085-.887,0-.845-.463-.845-1.6,0-1.095-.042-1.558.845-1.558,1.051,0,2.314.126,3.368.083.76,0,1.011-.38,1.011-1.138,0-.211-.041-.378-.041-.589-.125-.591-.253-.928-.886-.969a12.057,12.057,0,0,1-1.219.041c-1.182,0-1.854-.3-1.854-1.6,0-.715.04-1.432.04-2.148v-3.286c0-.717-.04-1.433-.04-2.15,0-1.306.633-1.6,1.854-1.6.926,0,1.853.043,2.822.043h10.747c.927,0,1.851-.043,2.778-.043,1.179,0,1.9.254,1.9,1.6,0,.717-.082,1.433-.082,2.15v3.286c0,.717.082,1.39.082,2.066,0,1.305-.585,1.685-1.851,1.685-.928,0-1.9-.085-2.822-.085h-.76a.092.092,0,0,0-.085.085c0,.041.126.085,1.139.126.8.041,1.221.211,1.221.547,0,.254-.207.337-.5.549a.917.917,0,0,0-.38.589v.169c0,.547.5.673.97.673,1.223,0,2.442-.083,3.708-.083.928,0,.884.463.884,1.6,0,1.095,0,1.558-.884,1.558-1.266,0-2.529-.126-3.793-.085-.67,0-.97.338-.97,1.012v.548c0,.717.3,1.012,1.013,1.012h.8c1.391,0,2.781-.084,4.17-.084.93,0,.889.465.889,1.6,0,1.1,0,1.559-.845,1.559-1.392,0-2.742-.085-4.131-.085-.253.043-.506.128-.506.421a.431.431,0,0,0,.213.339,26.783,26.783,0,0,0,4.593,2.991c.336.169,1.01.464,1.01.884,0,.591-1.264,2.572-1.939,2.572a9.237,9.237,0,0,1-2.613-1.39h-.085c-.042,0-.127.083-.169.083a.305.305,0,0,1-.252.085.937.937,0,0,1-.336-.041H4321c-.339,0-.841.422-1.351.8-.3.213-.589.421-.589.844a.909.909,0,0,0,.421.674c1.054.758,2.107,1.516,3.162,2.318.3.252.881.717.881,1.138,0,.547-1.264,2.022-2.062,2.022a1.774,1.774,0,0,1-.966-.506c-1.436-1.18-2.828-2.443-4.215-3.623A.764.764,0,0,0,4315.853,635.977Zm3.582-28.022a.7.7,0,0,0-.674-.675H4308.14a.724.724,0,0,0-.673.675v.168a.725.725,0,0,0,.673.675h10.621a.7.7,0,0,0,.674-.675Zm-11.295,3.119a.721.721,0,0,0-.673.674v.169a.722.722,0,0,0,.673.673h10.621a.694.694,0,0,0,.674-.673v-.169a.694.694,0,0,0-.674-.674Zm2.191,4.171a.091.091,0,0,0-.083.085c0,.085.379.085.673.085.8.042,1.394.167,1.394.547,0,.252-.21.337-.507.547a.871.871,0,0,0-.376.548v.169c0,.632.5.758,1.05.758h1.9c.8,0,1.138-.337,1.1-1.18a3.681,3.681,0,0,0-.087-.674c-.127-.717-.376-.843-.8-.886Zm2.023,5.73a.975.975,0,0,0-1.009,1.012v.548a.974.974,0,0,0,1.009,1.012h2.191a.976.976,0,0,0,1.013-1.012v-.548a.977.977,0,0,0-1.013-1.012Z" transform="translate(59.656 0.168)" fill="#674646"/>
      <path id="パス_14194" data-name="パス 14194" d="M4333.625,615.015c0,.8.337,1.1,1.182,1.18h7c1.685,0,3.366-.126,5.053-.126,1.1,0,1.053.547,1.053,2.192,0,1.77.044,2.276-1.053,2.276-1.687,0-3.369-.085-5.053-.085h-7c-.845,0-1.182.337-1.182,1.179v12.262c0,.8.337,1.181,1.182,1.181h9.184c1.771,0,3.539-.126,5.309-.126,1.1,0,1.1.506,1.1,2.148,0,1.855,0,2.318-1.1,2.318-1.77,0-3.538-.126-5.309-.126h-23.979c-1.767,0-3.537.126-5.309.126-1.1,0-1.052-.589-1.052-2.233,0-1.686,0-2.233,1.052-2.233,1.771,0,3.542.126,5.309.126h7.715c.844,0,1.18-.38,1.18-1.181V607.641c0-1.179-.085-2.4-.172-3.328,0-.128-.038-.3-.038-.423,0-.506.376-.589.8-.589.588,0,3.373.252,4.086.337.34.043,1.055.084,1.055.589,0,.3-.17.38-.505.632-.464.338-.506,1.223-.506,2.571Z" transform="translate(79.759 0.187)" fill="#674646"/>
      <path id="パス_14195" data-name="パス 14195" d="M4355.276,607.027c.336.085,1.095.213,1.095.675,0,.252-.168.38-.377.547-.8.591-.888,1.264-1.1,2.78-.084.465-.167,1.056-.3,1.729a2.131,2.131,0,0,0-.083.5.819.819,0,0,0,.926.845h.506a8.442,8.442,0,0,1,4.762.926c2.108,1.392,2.613,3.794,2.613,6.154,0,3.834-.675,9.522-2.53,12.894a8.607,8.607,0,0,1-7.961,4.552c-.931,0-1.519-.085-1.94-.969a8.526,8.526,0,0,1-.758-3.035c0-.38.125-.717.59-.717.422,0,1.054.168,1.9.168,2.317,0,3.375-.5,4.425-2.612,1.224-2.4,1.9-6.785,1.9-9.524,0-2.065-.129-3.834-2.7-3.834-2.359,0-2.822.337-3.119,1.516a47.519,47.519,0,0,1-5.4,12.6,37.714,37.714,0,0,1-4.17,5.984.973.973,0,0,1-.714.422c-.759,0-3.458-1.6-3.458-2.572a1.577,1.577,0,0,1,.591-.969,33.49,33.49,0,0,0,7.543-11.714,15.747,15.747,0,0,0,1.053-3.2.529.529,0,0,0-.55-.547,35.174,35.174,0,0,0-4.844,1.475,3.081,3.081,0,0,1-.885.3c-1.011,0-1.727-4.131-1.727-4.383,0-.632.716-.632,1.224-.674,2.357-.252,4.717-.843,7.035-1.264.844-.169,1.224-.421,1.351-1.307a39.155,39.155,0,0,0,.46-5.435c0-.675-.083-1.56-.083-1.644,0-.337.126-.632.5-.632C4351.483,606.058,4354.643,606.859,4355.276,607.027Zm17.529,13.949c0,.969-2.654,2.528-3.5,2.528-.546,0-.8-.548-.971-.969a30.961,30.961,0,0,0-5.645-9.018,1.315,1.315,0,0,1-.38-.717c0-.758,2.316-2.148,2.992-2.148C4366.905,610.652,4372.806,619.922,4372.806,620.976Zm-.63-10.788c0,.675-1.479,1.939-2.023,1.939-.214,0-.422-.3-.591-.465a36.166,36.166,0,0,0-2.994-3.245c-.167-.167-.378-.378-.378-.589,0-.506,1.517-1.77,2.023-1.77C4368.633,606.058,4372.175,609.683,4372.175,610.188Zm4-2.991c0,.673-1.515,1.938-2.021,1.938-.253,0-.379-.211-.59-.463-.97-1.138-1.939-2.191-2.992-3.245-.168-.126-.42-.38-.42-.589,0-.506,1.6-1.77,2.023-1.77C4372.637,603.067,4376.175,606.733,4376.175,607.2Z" transform="translate(100.367 0)" fill="#674646"/>
      <path id="パス_14196" data-name="パス 14196" d="M4374.416,608.137c0,.252-.293.463-.5.547a1.93,1.93,0,0,0-.8.843,16.656,16.656,0,0,0-1.224,3.54,22.252,22.252,0,0,0-.549,4.718c0,.337-.041,2.15.424,2.15.336,0,.587-.675.758-1.1.209-.463.971-2.275,1.472-2.275.379,0,1.643.758,1.643,1.305,0,.126-.63,1.6-1.007,2.613l-.38,1.01a16.581,16.581,0,0,0-1.391,5.226c0,.591.083,1.054.083,1.349,0,1.179-2.236,1.685-3.034,1.685-.926,0-1.223-.758-1.474-1.559a34.994,34.994,0,0,1-1.39-9.818,39.592,39.592,0,0,1,.968-8.638c.252-1.054.55-2.065.716-3.119.042-.295.17-1.053.55-1.053.124,0,1.978.758,2.275.886C4372.48,606.873,4374.416,607.673,4374.416,608.137Zm13.316-3.666c.8,0,.886.506,1.055,1.138a55.917,55.917,0,0,1,1.306,12.135c0,7.29-1.224,13.484-6.533,18.878-.672.675-2.4,2.36-3.369,2.36-.674,0-3.121-2.065-3.121-2.95,0-.338.379-.591.63-.717a16.007,16.007,0,0,0,5.735-6.575,24.9,24.9,0,0,0,1.938-10.619,40.863,40.863,0,0,0-1.476-11.756,2.486,2.486,0,0,1-.083-.547C4383.816,604.892,4387.271,604.471,4387.732,604.471Z" transform="translate(122.514 1.124)" fill="#674646"/>
      <path id="パス_14197" data-name="パス 14197" d="M4392.98,628.242v-10.2c0-.76-.294-1.138-1.138-1.181-.884.043-1.9.084-2.781.084s-.843-.591-.843-2.022c0-1.559-.044-2.107.887-2.107.5,0,2.1.042,2.737.085.844-.043,1.138-.38,1.138-1.181v-3.5a24.976,24.976,0,0,0-.168-3.582v-.463c0-.506.338-.549.717-.549.42,0,3.538.212,3.959.3.34.043.676.128.676.549,0,.337-.21.419-.593.673-.42.337-.459.717-.459,2.444v4.129c.082.8.336,1.138,1.178,1.138.381,0,1.939-.042,2.235-.042.924,0,.883.548.883,2.107,0,1.432.041,2.022-.843,2.022-.126,0-2.106-.041-2.316-.041-.8.041-1.055.337-1.137,1.138v8.764c.039.421.208.884.716.884a1.489,1.489,0,0,0,.377-.085c.085-.041.213-.083.424-.167a11.684,11.684,0,0,1,1.643-.591c.8,0,.886,1.308.886,1.9,0,1.729-.3,1.981-.8,2.233-2.15.969-6.7,2.53-9.061,3.33-.886.3-.844.378-1.054.843a.493.493,0,0,1-.465.38c-.461,0-.632-.591-1.012-1.559a21.94,21.94,0,0,1-.969-2.739c0-.506.509-.547.887-.632a30.834,30.834,0,0,0,3.245-.886C4392.771,629.464,4392.98,629.084,4392.98,628.242Zm12.221,4.93a25.765,25.765,0,0,1-3.412,7.122.97.97,0,0,1-.843.464c-.886,0-3.288-1.1-3.288-1.854,0-.254.423-.8.591-1.054,3.918-5.858,4.846-12.3,4.846-19.216v-6.321c0-1.39-.046-2.443-.046-3.245,0-2.78.424-2.739,3.922-2.95a51.637,51.637,0,0,0,11.335-1.855,17.42,17.42,0,0,0,2.528-.884.957.957,0,0,1,.463-.126c.464,0,1.012.717,1.812,1.855.209.252.426.547.632.843a3.467,3.467,0,0,1,.718,1.347.471.471,0,0,1-.506.421,1.482,1.482,0,0,1-.59-.126,1.38,1.38,0,0,0-.631-.168,2.98,2.98,0,0,0-.8.168c-6.49,1.9-12.686,2.022-13.908,2.317-.63.126-.715.463-.715,1.644v1.727c0,.843.336,1.18,1.179,1.18h11.5c1.6,0,3.161-.085,4.722-.085,1.01,0,.97.465.97,2.024,0,1.518.04,2.022-.97,2.022-1.561,0-3.117-.085-4.722-.085h-11.5c-.843,0-1.179.339-1.179,1.138A45.585,45.585,0,0,1,4405.2,633.172Zm7.837,5.521c-.673,0-.969.3-1.009.969.04,1.349-.213,1.349-2.024,1.349-1.518,0-2.021.042-2.021-1.1,0-1.18.083-2.4.083-3.582v-7.754c0-1.01-.083-2.064-.083-3.117,0-1.39.587-1.9,1.98-1.9.967,0,1.938.041,2.95.041h5.773c.966,0,1.937-.041,2.864-.041,1.431,0,2.063.421,2.063,1.9,0,1.053-.081,2.107-.081,3.117V636.5c0,1.179.081,2.4.081,3.581,0,1.138-.463,1.1-2.062,1.1-1.435,0-1.983.043-1.983-1.01v-.506c0-.673-.295-.969-.969-.969Zm5.436-3.666a1.043,1.043,0,0,0,1.14-1.138v-5.352c0-.717-.423-1.054-1.14-1.137h-5.308c-.759,0-1.1.42-1.182,1.137v5.352c.085.717.423,1.138,1.182,1.138Z" transform="translate(139.132 0.15)" fill="#674646"/>
      <path id="パス_14198" data-name="パス 14198" d="M4418.024,628.229c-.044-.465-.21-.884-.761-.884-.125,0-.209.041-.335.041a7.6,7.6,0,0,0-.757.252c-1.181.38-1.267.38-1.477.928a.578.578,0,0,1-.546.463c-.425,0-.549-.378-.717-.926a32.835,32.835,0,0,1-.928-3.245c0-.464.423-.591,1.684-.884.677-.17,1.6-.38,2.781-.76.8-.3.972-.632,1.056-1.475v-5.856c0-.8-.38-1.138-1.181-1.181-.883.043-1.979.126-2.78.126-1.012,0-.972-.589-.972-2.022,0-1.475-.041-2.064.972-2.064.926,0,1.854.168,2.78.126a1.033,1.033,0,0,0,1.181-1.18v-1.812a23.836,23.836,0,0,0-.17-3.541v-.38c0-.548.34-.632.8-.632.632,0,2.654.17,3.415.211.338.041,1.051.041,1.051.547,0,.38-.293.506-.59.675-.421.3-.461.927-.461,2.276v2.654c0,.758.253,1.136,1.051,1.18.845-.043,1.769-.126,2.528-.126,1.054,0,.968.632.968,2.064,0,1.39.086,2.022-.968,2.022-.333,0-2.021-.083-2.528-.126-.8.084-1.051.423-1.051,1.181v4.466c.04.421.168.842.671.842a1.025,1.025,0,0,0,.38-.043,31.552,31.552,0,0,1,3.163-1.221c.883,0,1.009,1.644,1.009,2.317,0,1.516-.253,1.475-4.172,2.993a1.36,1.36,0,0,0-1.051,1.557v7.375c0,.927.04,1.9.04,2.823a3.681,3.681,0,0,1-1.011,2.991c-1.178,1.012-3.331,1.1-4.886,1.1-1.057,0-2.4.3-2.4-3.119,0-.717.125-1.262.968-1.262.3,0,1.012.083,1.6.083,1.814,0,1.645-.758,1.645-2.739Zm13.063-14.075c-.887.041-1.813.085-2.74.085-.967,0-.884-.506-.884-2.022,0-1.559-.083-2.065.884-2.065.926,0,2.022.084,2.991.084.717,0,1.095-.337,1.095-1.053.043-1.644-.084-3.287-.084-4.888,0-.632.084-.971.8-.971a7.235,7.235,0,0,1,.968.085l1.391.126c1.18.128,2.066.085,2.066.673,0,.3-.334.506-.591.676-.252.211-.336.254-.336.8v.126c0,1.137-.042,2.233-.083,3.33.041.8.377,1.095,1.139,1.095h7.12c1.519,0,3.035-.084,4.551-.084.971,0,.927.547.927,2.065s.043,2.022-.927,2.022c-1.516,0-3.033-.085-4.551-.085h-7.288a1.056,1.056,0,0,0-1.224,1.1c-.083.715-.126,1.39-.209,2.107v.168c0,.674.421.927,1.053.927h5.479c.926,0,1.851-.043,2.778-.043a1.919,1.919,0,0,1,1.854.927,3.087,3.087,0,0,1,.8,1.854c0,2.444-2.7,7.922-4.089,10.072a1.645,1.645,0,0,0-.253.8,1.459,1.459,0,0,0,.421.886,32.915,32.915,0,0,0,5.69,4.255c.254.169.631.38.631.717,0,.843-1.855,3.034-2.74,3.034-1.051,0-5.349-3.792-6.235-4.678a1.206,1.206,0,0,0-.8-.378,1.262,1.262,0,0,0-.8.421c-.968.926-5.013,4.509-6.275,4.509-.886,0-2.615-1.9-2.615-2.824,0-.506.676-.886,1.309-1.264a28.99,28.99,0,0,0,4.932-3.751,1.187,1.187,0,0,0,.417-.884,1.415,1.415,0,0,0-.3-.8,33.4,33.4,0,0,1-2.485-4.676.447.447,0,0,0-.379-.3.372.372,0,0,0-.38.3,44.019,44.019,0,0,1-6.571,12.346c-.38.506-.97,1.391-1.644,1.391-.8,0-2.907-1.686-2.907-2.528,0-.337.5-.928.756-1.18,5.4-6.868,7.5-12.811,8.388-21.405C4432.14,614.534,4431.844,614.239,4431.087,614.154Zm7.5,8.132c-.463.043-.883.169-.883.717a1.012,1.012,0,0,0,.083.339,22.58,22.58,0,0,0,2.235,4.507c.167.211.336.421.632.421a.7.7,0,0,0,.588-.421c.546-.928,1.98-4.045,1.98-5.013,0-.506-.421-.549-1.1-.549Z" transform="translate(158.916 0.206)" fill="#674646"/>
      <path id="パス_14199" data-name="パス 14199" d="M4447.928,607.973c0,.254-.211.339-.42.464a2.415,2.415,0,0,0-1.351,1.516,34.381,34.381,0,0,0-2.275,11.842c0,.8.295,5.689,1.1,5.689.336,0,.756-1.475.926-1.855.422-1.054.717-1.981,1.178-1.981.38,0,1.771.76,1.771,1.265,0,.547-1.559,4.594-1.559,7.374,0,.632.042,1.307.042,1.981,0,1.644-2.823,2.233-3.2,2.233-.673,0-.929-.378-1.474-1.306-2.234-3.918-2.993-8.849-2.993-13.315a49.717,49.717,0,0,1,2.151-13.823,10.4,10.4,0,0,0,.293-1.18c.085-.38.126-1.012.632-1.012.211,0,3.288,1.1,3.75,1.264C4447.338,607.382,4447.928,607.51,4447.928,607.973Zm11.8-2.824c.209,0,.505.085.717.085,1.306.126,2.613.084,3.874.295.213.043.593.126.593.422,0,.547-.633.465-.633,2.066,0,1.306.168,2.611.213,3.918.041.632.251,1.223.963,1.223.341,0,2.657-.506,3.123-.632a3.133,3.133,0,0,1,.631-.085c.927,0,.969,2.57.969,3.286,0,1.053-.465,1.095-2.655,1.39-1.515.169-2.741.126-2.741,1.6,0,1.138.046,2.276.046,3.371a20.684,20.684,0,0,1-4.638,13.779c-.506.675-2.107,2.572-2.991,2.572-.759,0-3.077-2.024-3.077-2.782a.7.7,0,0,1,.337-.632c4.637-3.875,6.025-7.711,6.025-13.695v-.884c0-1.306-.082-2.15-1.052-2.15-.336,0-5.271.76-6.027.886a8.71,8.71,0,0,1-1.476.167c-.548,0-1.222-.083-1.222-2.739,0-1.642.17-1.642,2.023-1.727,1.18-.085,5.479-.421,6.45-.632a1.13,1.13,0,0,0,.882-1.138,51.168,51.168,0,0,0-1.051-6.911,1.75,1.75,0,0,1-.045-.5C4458.967,605.277,4459.348,605.149,4459.728,605.149Z" transform="translate(180.669 1.667)" fill="#674646"/>
      <path id="パス_14200" data-name="パス 14200" d="M4471.422,627.268c0,1.053.085,1.727.841,1.727a18.167,18.167,0,0,0,3.456-1.347,58.524,58.524,0,0,0,16.183-11.082c.251-.254.631-.675,1.012-.675.671,0,2.107,2.782,2.107,3.623a1.228,1.228,0,0,1-.466.76c-.926.926-1.936,1.77-2.949,2.611a75.364,75.364,0,0,1-18.541,10.956,15.792,15.792,0,0,0-1.475.675,2.544,2.544,0,0,1-1.053.422,14.834,14.834,0,0,1-3.331-1.56c-.5-.378-.544-.758-.544-1.475,0-1.433.081-2.991.081-4.55V610.2c0-.927,0-1.855-.042-2.571-.04-.294-.126-1.179-.126-1.39a.452.452,0,0,1,.463-.506,8.85,8.85,0,0,1,.888.128c.674.085,2.781.42,3.412.589.378.085.883.128.883.547,0,.254-.208.38-.378.549a1.616,1.616,0,0,0-.379,1.306c-.041.632-.041,1.306-.041,1.981Z" transform="translate(202.216 2.136)" fill="#674646"/>
      <path id="パス_14201" data-name="パス 14201" d="M4520.632,615.993c0,.716-1.686,2.361-2.234,2.908a73.24,73.24,0,0,1-22.882,15.887c-1.391.674-1.432.715-1.768,1.432a.425.425,0,0,1-.424.254c-.462,0-1.347-1.686-1.642-2.192a11.766,11.766,0,0,1-1.265-2.528c0-.465.757-.547,1.306-.717,9.316-2.739,19.847-10.7,25.832-18.33a1.04,1.04,0,0,1,.716-.463C4519.114,612.244,4520.632,615.361,4520.632,615.993Zm-21.746-6.953c.546.38,2.572,1.77,2.572,2.4,0,.969-1.982,3.245-2.782,3.245a4.478,4.478,0,0,1-1.685-1.138,52.26,52.26,0,0,0-5.605-3.918c-.336-.211-.675-.423-.675-.8,0-.632,1.687-3.33,2.656-3.33C4494.04,605.5,4498.086,608.45,4498.886,609.04Z" transform="translate(221.306 1.948)" fill="#674646"/>
      <path id="パス_14202" data-name="パス 14202" d="M4534.2,610.15c.716,0,2.4,0,3.035-.083a6.735,6.735,0,0,1,.927-.084c.886,0,2.7,2.274,2.7,2.823,0,.337-.506.926-.676,1.221-.587.843-1.264,2.066-1.81,2.993a62.607,62.607,0,0,1-4.593,6.531,1.212,1.212,0,0,0-.377.843,1.111,1.111,0,0,0,.632.969,63.659,63.659,0,0,1,7.118,5.436c1.056.928,2.066,1.853,3.037,2.824a.928.928,0,0,1,.337.632c0,.926-2.318,3.412-3.246,3.412a1.387,1.387,0,0,1-1.012-.674,47.414,47.414,0,0,0-9.354-8.345,1.618,1.618,0,0,0-.925-.378c-.632,0-1.14.589-1.561,1.01a44,44,0,0,1-10.491,7.248,6.589,6.589,0,0,1-1.644.632c-.845,0-2.785-2.781-2.785-3.538,0-.549.551-.758.971-.927,7.336-2.824,14.71-9.483,18.838-16.14a2.7,2.7,0,0,0,.547-1.221c0-.632-.718-.717-1.348-.717h-8.6c-1.812,0-3.628.085-5.394.085-1.14,0-1.053-.758-1.053-2.4,0-1.516-.086-2.276.97-2.276,1.809,0,3.665.126,5.478.126Zm11.209,0c0,.634-1.477,1.939-2.021,1.939-.256,0-.509-.38-.93-.843-.842-1.012-1.768-1.981-2.695-2.908-.169-.168-.379-.337-.379-.591,0-.463,1.56-1.727,2.064-1.727C4541.869,606.021,4545.41,609.6,4545.41,610.15Zm4.171-2.865c0,.591-1.432,1.9-2.021,1.9-.212,0-.423-.252-.551-.421a44.292,44.292,0,0,0-3.033-3.287c-.167-.167-.378-.38-.378-.59,0-.506,1.559-1.769,2.023-1.769C4546.041,603.114,4549.582,606.7,4549.582,607.284Z" transform="translate(239.8 0.038)" fill="#674646"/>
      <path id="パス_14203" data-name="パス 14203" d="M4551.551,633.571a3.1,3.1,0,0,1-3.289,3.243,2.734,2.734,0,0,1-2.909-2.781,3.153,3.153,0,0,1,3.246-3.371A2.823,2.823,0,0,1,4551.551,633.571Zm-3.794-6.2c-1.053,0-1.265-.209-1.305-1.264l-.3-10.66c-.083-2.528-.379-8.174-.379-9.018,0-.715.251-.884,1.18-.884h2.948c.929,0,1.181.169,1.181.884,0,.844-.295,6.49-.378,9.272l-.253,10.407c-.04,1.055-.253,1.264-1.306,1.264Z" transform="translate(265.299 1.986)" fill="#674646"/>
      <path id="パス_14204" data-name="パス 14204" d="M4222.207,645.766c.336.085.926.169.926.591,0,.252-.168.337-.419.547-.591.463-.633,1.306-.762,2.022a31.672,31.672,0,0,0-.334,4.468,24.093,24.093,0,0,0,1.347,8.806c.505,1.182,1.9,3.668,3.372,3.668,1.179,0,2.4-1.855,2.908-2.782.25-.421.587-1.053,1.135-1.053.886,0,3.036,1.727,3.036,2.487,0,.8-1.9,2.991-2.485,3.665-1.224,1.392-2.529,2.656-4.51,2.656-3.119,0-5.563-2.824-6.955-5.4-2.106-3.96-2.443-9.271-2.443-13.738,0-.672.126-6.024.21-6.4a.524.524,0,0,1,.589-.465C4218.373,644.839,4221.489,645.64,4222.207,645.766Zm17.147-.843c.93,0,4.47,2.654,6.491,6.531a22.941,22.941,0,0,1,2.49,8.766c0,.8-.424,1.01-1.142,1.221a8.933,8.933,0,0,1-2.361.38c-1.346,0-1.3-.591-1.388-1.6-.5-4.93-2.231-8.934-6.239-12.011a.7.7,0,0,1-.377-.632C4236.826,646.778,4238.513,644.924,4239.354,644.924Z" transform="translate(2.381 33.45)" fill="#674646"/>
      <path id="パス_14205" data-name="パス 14205" d="M4246.624,648.6c4.93-1.727,10.236-3.877,15.547-3.877a11.32,11.32,0,0,1,8.3,3.078,10.9,10.9,0,0,1,2.865,7.415c0,6.49-5.141,11.04-10.785,13.358-1.814.717-6.322,2.107-8.217,2.107-.719,0-1.014-.421-1.351-1.01a9.005,9.005,0,0,1-.969-2.823c0-.758.883-.843,1.432-.884,5.9-.464,15.13-3.625,15.13-10.832,0-3.749-2.906-5.856-6.449-5.856-5.856,0-12.388,3.117-17.532,5.771a2.354,2.354,0,0,1-1.09.338c-1.308,0-3.205-3.034-3.205-4.214,0-.547.508-.717,2.275-1.264C4243.546,649.611,4244.853,649.231,4246.624,648.6Z" transform="translate(21.023 33.356)" fill="#674646"/>
      <path id="パス_14206" data-name="パス 14206" d="M4283.212,643.1c0,.211-.168.337-.381.464-.589.294-.883.335-1.472,1.853-.381,1.012-.717,2.066-1.054,3.076a1.455,1.455,0,0,0-.127.591c0,.717.55.884,1.136.969,1.435.169,2.865.3,4.3.337.8,0,1.43-.041,1.43.8a12.544,12.544,0,0,1-.459,2.739c-.172.591-.341.926-.928.926a52.906,52.906,0,0,1-5.732-.63,1.255,1.255,0,0,0-.379-.084c-.674,0-.967.463-1.138,1.012-.126.5-.716,3.16-.716,3.5,0,.884.887.927,1.475.969,1.265.126,2.529.169,3.793.169,1.136,0,1.264.293,1.264.715a9.244,9.244,0,0,1-.548,2.824c-.209.632-.463.969-1.18.969-.966,0-2.95-.293-3.96-.421a4.326,4.326,0,0,0-.676-.083c-1.139,0-1.139,1.052-1.139,2.865,0,3.665,1.94,5.6,5.608,5.6,1.894,0,4.8-.5,6.108-1.981a4.239,4.239,0,0,0,.928-2.991,18.2,18.2,0,0,0-1.434-6.11,2.213,2.213,0,0,1-.167-.758c0-1.012,3.118-1.56,3.582-1.56.674,0,.8.673,1.136,1.6a23.092,23.092,0,0,1,1.392,7.374c0,6.532-6.027,8.808-11.63,8.808-6.362,0-10.115-3.666-10.115-10.072,0-1.053.17-2.654.17-3.076,0-.927-.718-1.179-1.686-1.475a13.883,13.883,0,0,1-2.485-1.012c-.464-.252-.8-.463-.8-1.01,0-.254.423-3.582,1.473-3.582a2.345,2.345,0,0,1,1.057.42,7.618,7.618,0,0,0,2.694,1.181c.718,0,.844-.591,1.1-1.813.081-.463.255-1.01.38-1.643a8.9,8.9,0,0,0,.167-.927c0-.927-.758-1.179-1.349-1.39-2.949-1.138-3.788-1.518-3.788-2.276,0-.717.672-3.623,1.556-3.623a2.266,2.266,0,0,1,.968.463,26.345,26.345,0,0,0,2.869,1.475,1.277,1.277,0,0,0,.545.127c.678,0,.844-.548.971-1.01.377-1.433,1.307-4.424,1.643-5.647.127-.463.211-.843.634-.843a15.888,15.888,0,0,1,2.1.675C4281.064,641.835,4283.212,642.426,4283.212,643.1Z" transform="translate(42.662 30.302)" fill="#674646"/>
      <path id="パス_14207" data-name="パス 14207" d="M4299.79,642.149a15.363,15.363,0,0,1,2.02-.211c1.18,0,1.1.632,1.18,1.6a57.283,57.283,0,0,0,1.307,7.543c.125.547.253,1.264.968,1.264.757,0,7.5-3.962,8.6-4.679a2.7,2.7,0,0,1,1.1-.421c.547,0,1.264,1.264,1.514,1.685a8.428,8.428,0,0,1,1.221,2.572c0,.419-.465.547-.8.674a77.856,77.856,0,0,0-10.411,4.846,43.113,43.113,0,0,0-7.584,4.972,5.315,5.315,0,0,0-2.064,3.792c0,1.518,1.475,2.571,2.781,3.034a16.858,16.858,0,0,0,5.605.76,63.612,63.612,0,0,0,11-1.1,1.161,1.161,0,0,1,.376-.041c.594,0,.63,1.727.63,2.613v.5c0,1.1-.036,1.559-.882,1.77-1.6.422-9.564.674-11.588.674-3.117,0-5.858-.167-8.639-1.811a7.418,7.418,0,0,1-3.877-6.488c0-4.594,3.793-7.585,7.289-9.861a1.3,1.3,0,0,0,.717-1.095,1.451,1.451,0,0,0-.166-.76c-.507-1.516-1.686-5.982-2.108-7.711a26.8,26.8,0,0,0-.8-2.78,2.187,2.187,0,0,1-.128-.506C4297.048,642.359,4298.439,642.359,4299.79,642.149Z" transform="translate(62.616 31.127)" fill="#674646"/>
      <path id="パス_14208" data-name="パス 14208" d="M4320.282,658.19c-.846,0-1.184.378-1.184,1.18v4.72c0,.843.338,1.18,1.184,1.18h4.172c1.6,0,3.2-.085,4.8-.085,1.055,0,1.012.463,1.012,2.064s.043,2.067-.969,2.067c-1.644,0-3.245-.087-4.845-.087h-4.172c-.846,0-1.138.339-1.184,1.181.046.926.085,1.812.085,2.739,0,1.095-.461,1.053-2.146,1.053-1.729,0-2.192.042-2.192-1.053,0-1.56.086-3.162.086-4.763V651.952c0-1.39-.045-2.739-.045-4.129,0-2.4.76-2.528,2.445-2.95a34.189,34.189,0,0,0,9.479-4.046,1.391,1.391,0,0,1,.675-.294c.421,0,.758.421,1.348,1.18a20.334,20.334,0,0,1,2.19,2.95.521.521,0,0,1-.5.547,1.038,1.038,0,0,1-.465-.168,1.527,1.527,0,0,0-.587-.169,3.535,3.535,0,0,0-1.307.506,54.673,54.673,0,0,1-7.922,2.949c-1.054.337-1.14.463-1.14,1.56v3.287c0,.8.338,1.179,1.184,1.179h4.424c1.514,0,3.076-.126,4.636-.126,1.008,0,.969.463.969,2.064,0,1.56.039,1.981-.969,1.981-1.561,0-3.123-.083-4.636-.083Zm24.482-10.536c0-.842-.338-1.18-1.182-1.18H4338.4c-.84,0-1.176.337-1.176,1.18v24.062c0,1.812.086,3.623.086,5.437,0,1.138-.465,1.138-2.276,1.138-1.771,0-2.319,0-2.319-1.138,0-1.814.127-3.625.127-5.437v-23.64c0-1.221-.083-2.443-.083-3.665,0-1.6.8-1.981,2.275-1.981,1.012,0,2.02.085,2.991.085h5.731c.969,0,1.983-.085,2.951-.085,1.474,0,2.317.378,2.317,1.981,0,1.179-.085,2.318-.085,3.5v14.16c0,1.052.127,2.105.127,3.158,0,4.09-1.223,5.393-6.784,5.393-1.01,0-1.726-.041-2.023-.841a8.363,8.363,0,0,1-.463-2.487c0-.589.21-1.054.883-1.054.8,0,1.563.085,2.361.085,1.686,0,1.729-.969,1.729-2.865Z" transform="translate(80.715 30.003)" fill="#674646"/>
      <path id="パス_14209" data-name="パス 14209" d="M4351.712,658.823c0-.169-.17-.254-.336-.254H4349.6c-1.139,0-2.277.084-3.412.084-1.181,0-2.151-.169-2.151-1.6,0-.549.042-1.1.042-1.981V652.08c-.042-.423-.167-.76-.632-.76a.7.7,0,0,0-.418.126,6.7,6.7,0,0,1-1.984.843c-.757,0-2.232-2.149-2.232-2.865,0-.463.462-.632.926-.843,3.54-1.6,8.215-4.592,10.7-7.626.213-.254.38-.421.633-.421.378,0,3.624,1.095,4.215,1.264a.584.584,0,0,1,.42.5c0,.465-.632.423-.927.465a.675.675,0,0,0-.461.211.3.3,0,0,0-.127.252c0,.211.252.295.378.295h5.226c.8,0,1.6-.041,2.443-.041a3.187,3.187,0,0,1,2.825,2.485c0,.506-.97,1.349-1.561,1.855a2.09,2.09,0,0,0-.3.252.347.347,0,0,0-.169.337.428.428,0,0,0,.466.38h2.233c1.141,0,2.278-.085,3.416-.085,1.179,0,2.147.169,2.147,1.6,0,.549-.04,1.1-.04,1.981v2.782c0,.884.04,1.431.04,1.981,0,1.39-.923,1.6-2.107,1.6-1.137,0-2.314-.084-3.455-.084h-1.22c-.422.043-.885.169-.885.717a1,1,0,0,0,.083.337,36.5,36.5,0,0,0,1.6,3.371,1.007,1.007,0,0,0,.845.548,1.449,1.449,0,0,0,.719-.209c1.177-.845,2.314-1.77,3.454-2.7.336-.3.5-.547.8-.547.335,0,1.1.8,1.559,1.264l.212.211c.506.506,1.39,1.306,1.39,1.684,0,.3-.212.423-.5.423a.924.924,0,0,1-.341-.043.928.928,0,0,0-.338-.042,1.242,1.242,0,0,0-.544.252c-1.179.886-2.32,1.77-3.583,2.571a.891.891,0,0,0-.5.8,1.175,1.175,0,0,0,.25.632,44.494,44.494,0,0,0,6.068,5.563c.3.211.927.632.927,1.012,0,.8-2.151,2.654-2.781,2.654a1.976,1.976,0,0,1-.97-.506,38.279,38.279,0,0,1-6.443-6.362,36.808,36.808,0,0,1-6.283-11.421c-.042-.126-.086-.167-.255-.21a2.153,2.153,0,0,0-.25.084,13.911,13.911,0,0,1-1.306.8.781.781,0,0,0-.379.632.832.832,0,0,0,.252.506,16.717,16.717,0,0,1,4.72,11.419c0,5.436-3.077,6.49-7.838,6.49-2.232,0-2.993-.044-2.993-2.613,0-.76.085-1.223.884-1.223.464,0,1.981.128,2.951.128,2.192,0,2.781-1.012,2.781-3.078v-.336c-.042-.38-.209-.674-.632-.674a.71.71,0,0,0-.421.126,73.286,73.286,0,0,1-13.441,5.856,7.562,7.562,0,0,1-1.687.421c-.97,0-1.937-1.981-1.937-2.444s.42-.547,1.474-.8c.211-.041.423-.126.633-.167a60.82,60.82,0,0,0,14.579-6.11.819.819,0,0,0,.424-.717,1.283,1.283,0,0,0-.085-.38l-.042-.083a.913.913,0,0,0-.844-.632,1.551,1.551,0,0,0-.632.168c-5.519,2.993-6.952,3.33-12.682,5.393a6.111,6.111,0,0,1-1.52.38c-.883,0-1.641-1.9-1.641-2.487,0-.463.251-.546.715-.673a59.672,59.672,0,0,0,13.441-5.1.937.937,0,0,0,.507-.758.811.811,0,0,0-.3-.632l-.083-.043a.651.651,0,0,0-.421-.254,1.27,1.27,0,0,0-.382.085,74.759,74.759,0,0,1-10.364,3.92,11.3,11.3,0,0,1-1.9.463c-1.1,0-1.853-1.9-1.853-2.57,0-.465.208-.506.757-.632a56.144,56.144,0,0,0,12.052-3.962A.286.286,0,0,0,4351.712,658.823Zm-2.359-6.7a1.118,1.118,0,0,0-1.141,1.18v.758a1.121,1.121,0,0,0,1.141,1.181h5.013a1.211,1.211,0,0,0,1.181-1.181V653.3a1.208,1.208,0,0,0-1.181-1.18Zm2.189-5.519a2.756,2.756,0,0,0-2.023.673c-.337.293-.714.547-1.053.8-.128.128-.21.211-.21.337,0,.254.21.339.419.38h7.165a1.7,1.7,0,0,0,1.308-.422c.294-.252,1.473-1.179,1.473-1.516,0-.3-.59-.252-.927-.252Zm7.963,7.457a1.182,1.182,0,0,0,1.182,1.181h5.266a1.209,1.209,0,0,0,1.181-1.181V653.3a1.207,1.207,0,0,0-1.181-1.18h-5.266a1.18,1.18,0,0,0-1.182,1.18Z" transform="translate(99.843 30.003)" fill="#674646"/>
      <path id="パス_14210" data-name="パス 14210" d="M4383.713,643.246c0,.252-.3.421-.507.506-.672.252-.842.463-1.39,1.432a2.822,2.822,0,0,0-.42.969.408.408,0,0,0,.46.421,30.539,30.539,0,0,0,4.891-1.179,3.2,3.2,0,0,1,1.051-.252c.717,0,.929.674,1.056,1.264a13.755,13.755,0,0,1,.336,2.274c0,.717-1.35.884-2.234,1.053-2.654.547-5.31,1.012-7.965,1.307a1.487,1.487,0,0,0-1.264.673,13.613,13.613,0,0,0-1.433,2.444.324.324,0,0,0,.339.3,1.626,1.626,0,0,0,.757-.252,11.666,11.666,0,0,1,4.592-1.1c2.7,0,4.258,1.138,4.8,3.793.083.38.21.717.634.717a37.5,37.5,0,0,0,4.928-2.4,3.473,3.473,0,0,1,1.1-.421c.8,0,1.811,3.245,1.811,3.962,0,.506-.461.673-1.265.928-.167.084-.377.126-.588.21-1.687.632-3.33,1.349-4.974,2.066-.756.293-1.094.547-1.094,1.39v.547c0,1.305.042,2.57.042,3.875,0,1.518-.212,1.688-1.814,1.688-1.811,0-2.567-.085-2.567-1.182,0-.926.083-1.853.083-2.739,0-.378-.127-.715-.545-.715-.215,0-4.55,1.853-4.55,4.466,0,2.824,4.084,3.076,6.108,3.076a30.824,30.824,0,0,0,7.836-1.052,5.116,5.116,0,0,1,.844-.086c.547,0,.843.465.843,2.867,0,1.264-.043,1.6-.971,1.811a55.8,55.8,0,0,1-8.092.547,15.611,15.611,0,0,1-6.656-1.095,6.4,6.4,0,0,1-4.214-6.025c0-3.794,3.078-5.858,5.986-7.587.84-.5,1.727-.969,2.611-1.39.419-.211.757-.463.757-.969a5.668,5.668,0,0,0-.21-1.179,1.752,1.752,0,0,0-1.854-1.434c-2.359,0-6.234,2.022-7.878,3.709a27.634,27.634,0,0,0-3.542,4.929.7.7,0,0,1-.589.421c-.758,0-3.581-1.685-3.581-2.443,0-.337.336-.674.548-.927.968-1.054,7.081-9.524,7.081-10.324,0-.378-.337-.506-.929-.506-.672,0-1.645.128-2.949.128-.927,0-1.095-.213-1.095-2.361,0-1.686.167-1.939,1.224-1.939.716,0,1.808.084,3.03.084h1.224c1.1,0,2.233-.041,2.613-.547a23.2,23.2,0,0,0,2.274-5.437c.085-.463.169-.884.589-.884C4379.37,640.674,4383.713,642.613,4383.713,643.246Z" transform="translate(121.184 30.115)" fill="#674646"/>
      <path id="パス_14211" data-name="パス 14211" d="M4397.134,652.034c-.34.041-.507.293-.884.884-.128.167-.256.38-.424.591-.632.884-3.96,4.55-4.97,4.55-.927,0-2.613-1.432-2.613-2.022,0-.3.63-.758.883-.927a18.6,18.6,0,0,0,4.51-4.931c.21-.337.378-.717.8-.717a7.408,7.408,0,0,1,2.064,1.012c.293.169.591.337.757.422.3.126.761.38.761.716C4398.019,652.034,4397.3,652.034,4397.134,652.034Zm9.187-3.625a1.1,1.1,0,0,0-1.263,1.138c-.592,5.478-2.784,8.891-7.587,11.673-.843.463-2.991,1.644-3.917,1.644-.887,0-2.064-1.687-2.064-2.529,0-.549.545-.675,1.008-.842,4.637-1.729,8.344-4.763,8.682-9.987.043-.76-.337-1.1-1.141-1.1h-5.476c-1.643,0-3.329.128-4.97.128-1.012,0-1.012-.423-1.012-1.9s0-1.9,1.012-1.9c1.641,0,3.328.126,4.97.126h9.271c.8,0,1.139-.335,1.18-1.136a13.42,13.42,0,0,0-.171-2.276v-.422c0-.506.423-.547.8-.547.677,0,2.909.211,3.627.3.378.042,1.181.042,1.181.548,0,.252-.213.378-.507.59-.507.378-.507.969-.464,1.853,0,.8.38,1.095,1.178,1.095h9.146c1.644,0,3.33-.126,4.973-.126,1.012,0,1.012.423,1.012,1.9s0,1.9-1.012,1.9c-1.643,0-3.329-.128-4.973-.128h-4.676c-.845,0-1.181.38-1.181,1.18v4.257c0,.843.086,1.727.086,2.613,0,3.877-2.7,4-5.818,4a4.908,4.908,0,0,1-1.094-.126c-.127,0-.127.042-.127.126.044.042.044.083.044.169,0,.419-.634.5-.972.589-.084,0-.169.085-.253.126a.444.444,0,0,0-.21.38c0,.337.42.463.717.506h5.138c1.436,0,2.824-.085,4.258-.085,1.644,0,2.318,2.192,2.318,2.528,0,1.434-4.6,5.309-5.815,6.195a.718.718,0,0,0-.294.548.7.7,0,0,0,.418.547,38.652,38.652,0,0,0,12.141,2.276c.755,0,1.049.211,1.049,1.053,0,1.01-.423,2.95-2.022,2.95a38.135,38.135,0,0,1-15-3.919,1.989,1.989,0,0,0-.967-.3,2.1,2.1,0,0,0-.971.252,39.549,39.549,0,0,1-11,3.076c-1.138.169-3.961.548-5.014.548-1.687,0-2.065-2.233-2.065-2.865,0-.841.844-.8,1.434-.841a40.4,40.4,0,0,0,13.064-2.319c.249-.126.46-.252.46-.589a.786.786,0,0,0-.294-.547,15.3,15.3,0,0,1-2.488-2.7,1.139,1.139,0,0,0-.883-.506,1.274,1.274,0,0,0-.673.211c-1.771,1.138-5.774,3.119-7.881,3.119-.967,0-1.685-2.148-1.685-2.654,0-.632.843-.76,1.307-.886,4.3-.969,9.312-3.834,11.587-7.711.126-.252.422-.758.758-.758a12.585,12.585,0,0,1,2.064.673,2.12,2.12,0,0,0,.547.167.2.2,0,0,0,.21-.209v-.169a6.613,6.613,0,0,1-.42-2.192c0-.547.252-.758.759-.758.295,0,1.013.085,1.727.085,1.771,0,1.642-.843,1.642-2.487v-4.383c0-.8-.337-1.18-1.178-1.18Zm1.223,20.775a1.361,1.361,0,0,0,.881-.337c.55-.423,3.078-2.361,3.078-2.951,0-.168-.295-.211-.845-.211h-5.815c-.333.043-.63.128-.63.506a.537.537,0,0,0,.168.38,14.372,14.372,0,0,0,2.276,2.233A1.393,1.393,0,0,0,4407.543,669.184Zm15.5-9.735c-.421,0-.673-.421-.925-.673a44.918,44.918,0,0,0-5.689-5.984c-.253-.252-.633-.548-.633-.928a4.053,4.053,0,0,1,2.487-2.276c.38,0,.63.3,1.056.675.967.8,6.317,5.984,6.317,6.868C4425.661,657.848,4423.765,659.449,4423.047,659.449Z" transform="translate(139.488 29.965)" fill="#674646"/>
      <path id="パス_14212" data-name="パス 14212" d="M4436.687,667.554c-.087.675-.293,2.107-.293,2.739a1.211,1.211,0,0,0,1.387,1.39c2.025,0,4.551-1.474,6.238-2.528a3.332,3.332,0,0,1,1.181-.548c.59,0,.549,2.192.549,2.654,0,.758.041,2.107-.72,2.528a20.842,20.842,0,0,1-7.794,2.15c-2.866,0-5.183-1.9-5.183-4.846a22.288,22.288,0,0,1,.377-3.329,18.427,18.427,0,0,0,.254-2.654c0-.969-.378-1.518-1.39-1.518a6.769,6.769,0,0,0-3.751,1.77c-2.107,1.812-6.152,7.164-8.006,9.566-.25.3-.756,1.095-1.179,1.095-.885,0-3.372-2.107-3.372-3.076,0-.5.674-1.095,1.013-1.432,4.8-4.761,9.145-9.945,13.653-14.961.379-.42,1.518-1.558,1.518-1.981a.344.344,0,0,0-.382-.335,26.211,26.211,0,0,0-2.57.674c-.968.252-5.9,1.559-6.614,1.559-.589,0-.759-.337-1.139-.969a3.077,3.077,0,0,0-.294-.506,6.359,6.359,0,0,1-.969-2.361c0-.547.419-.632.884-.674a89.011,89.011,0,0,0,15.212-3.034,3.727,3.727,0,0,1,1.181-.3c1.012,0,2.951,2.949,2.951,3.582,0,.465-.549.8-.931,1.055a53.412,53.412,0,0,0-5.854,5.687c-.214.211-.551.549-.551.843a.423.423,0,0,0,.424.421c.292,0,.547-.041.84-.041,1.139,0,3.668.717,3.668,4.214A20.188,20.188,0,0,1,4436.687,667.554Zm-3.542-23.808c.422.126.8.3.8.8,0,.209-.594,3.58-1.562,3.58-.3,0-2.652-.841-4.465-1.473-.8-.3-1.516-.549-1.814-.632-1.475-.465-2.4-.634-2.4-1.307a11.032,11.032,0,0,1,.632-2.148c.423-1.138.589-1.308,1.053-1.308C4425.73,641.259,4432.222,643.451,4433.145,643.746Z" transform="translate(160.903 30.583)" fill="#674646"/>
      <path id="パス_14213" data-name="パス 14213" d="M4455.6,641.778c.38.126,1.559.423,1.559.886,0,.211-.253.337-.38.421-.63.378-.674.548-.967,1.475-.127.462-1.013,3.538-1.013,3.751a.622.622,0,0,0,.634.632,29.551,29.551,0,0,0,4.886-1.561,2.271,2.271,0,0,1,.889-.209c.84,0,.84,2.57.84,3.2,0,.716-.084,1.307-.8,1.518a63.307,63.307,0,0,1-6.91,1.642c-1.221.254-1.348.463-1.728,1.644a131.311,131.311,0,0,1-7.838,18.582c-.549,1.012-.886,1.6-1.518,1.6-.673,0-3.582-1.348-3.582-2.276a3.148,3.148,0,0,1,.717-1.39c2.655-3.793,5.815-11.125,7.459-15.593a6.45,6.45,0,0,0,.335-1.095c0-.422-.335-.632-.757-.632-.592,0-2.443.21-3.749.21-.844,0-1.518.043-1.772-.758a18.088,18.088,0,0,1-.336-3.075c0-.465.128-.76.632-.76.379,0,2.15.169,3.961.169,2.7,0,3.33-.043,3.708-.675.5-.841,1.517-6.447,1.558-7.668.043-.632.043-1.053.463-1.053C4452.269,640.768,4455.051,641.611,4455.6,641.778Zm-.589,27.181c1.853,2.064,5.055,2.444,7.626,2.444a19.033,19.033,0,0,0,5.984-.843,1.534,1.534,0,0,1,.421-.084c.716,0,.716.969.716,2.654,0,.844.042,1.812-.463,2.108-.756.337-5.519.546-6.571.546-2.784,0-6.662-.337-9.019-1.894-.678-.465-2.065-1.518-2.065-2.4,0-.632,1.937-3.119,2.612-3.119C4454.545,668.368,4454.838,668.748,4455.009,668.959Zm5.139-13.612a30.225,30.225,0,0,1,8.472,1.181.793.793,0,0,1,.589.843,10.465,10.465,0,0,1-.8,2.948c-.166.38-.336.549-.756.549a2.271,2.271,0,0,1-.885-.21,18.9,18.9,0,0,0-6.7-1.053c-.545,0-1.051.041-1.6.041-.843,0-1.052-.211-1.052-.927C4457.411,655.095,4458.167,655.347,4460.148,655.347Z" transform="translate(180.669 30.19)" fill="#674646"/>
      <path id="パス_14214" data-name="パス 14214" d="M4470.213,645.766c.336.085.93.169.93.591,0,.252-.171.337-.423.547-.591.463-.631,1.306-.758,2.022a31.172,31.172,0,0,0-.336,4.468,24.072,24.072,0,0,0,1.347,8.806c.5,1.182,1.9,3.668,3.373,3.668,1.178,0,2.4-1.855,2.909-2.782.251-.421.588-1.053,1.134-1.053.883,0,3.034,1.727,3.034,2.487,0,.8-1.89,2.991-2.487,3.665-1.218,1.392-2.527,2.656-4.508,2.656-3.117,0-5.561-2.824-6.951-5.4-2.109-3.96-2.445-9.271-2.445-13.738,0-.672.127-6.024.21-6.4a.527.527,0,0,1,.592-.465C4466.381,644.839,4469.5,645.64,4470.213,645.766Zm17.153-.843c.924,0,4.466,2.654,6.488,6.531a23.017,23.017,0,0,1,2.488,8.766c0,.8-.423,1.01-1.137,1.221a8.955,8.955,0,0,1-2.365.38c-1.345,0-1.3-.591-1.386-1.6-.507-4.93-2.236-8.934-6.238-12.011a.694.694,0,0,1-.38-.632C4484.836,646.778,4486.524,644.924,4487.366,644.924Z" transform="translate(200.979 33.45)" fill="#674646"/>
      <path id="パス_14215" data-name="パス 14215" d="M4509.767,673.515h-12.854c-.67,0-.971.293-.971.969v.421c0,1.18-.417,1.18-2.4,1.18-1.812,0-2.4,0-2.4-1.138,0-1.77.127-3.539.127-5.267V648.484c0-1.349-.086-2.655-.086-4,0-1.687.675-2.191,2.316-2.191,1.224,0,2.443.085,3.71.085h12.3c1.224,0,2.445-.085,3.667-.085,1.6,0,2.319.421,2.319,2.148,0,1.349-.083,2.7-.083,4.047v21.11c0,1.77.123,3.5.123,5.267,0,1.181-.5,1.138-2.4,1.138s-2.4,0-2.4-1.138a1.231,1.231,0,0,1,.04-.378C4510.737,673.808,4510.443,673.515,4509.767,673.515Zm-.086-17.952a1.209,1.209,0,0,0,1.182-1.181v-6.742a1.206,1.206,0,0,0-1.182-1.178H4497a1.2,1.2,0,0,0-1.176,1.178v6.742a1.2,1.2,0,0,0,1.176,1.181Zm-13.859,12.6a1.2,1.2,0,0,0,1.176,1.18h12.683a1.208,1.208,0,0,0,1.182-1.18v-7.417a1.208,1.208,0,0,0-1.182-1.18H4497a1.2,1.2,0,0,0-1.176,1.18Z" transform="translate(221.888 31.408)" fill="#674646"/>
      <path id="パス_14216" data-name="パス 14216" d="M4522.454,644.316c.336.126.842.3.842.717,0,.252-.17.293-.591.547-.716.378-.883.758-1.306,1.811a33.466,33.466,0,0,0-2.359,11.968c0,.8.17,5.9,1.139,5.9.379,0,.968-1.223,1.136-1.644.252-.547.507-1.01.883-1.01.424,0,1.521.884,1.521,1.349,0,.378-1.688,4.214-1.688,6.11,0,.421.127,1.39.167,1.77a3.626,3.626,0,0,1,.087.632c0,1.052-2.4,2.064-3.292,2.064-.713,0-1.22-.928-1.766-2.064a29.012,29.012,0,0,1-2.572-12.938,50.431,50.431,0,0,1,2.15-13.947,19.1,19.1,0,0,0,.547-2.107c.085-.38.167-.927.633-.927C4518.324,642.546,4521.865,644.062,4522.454,644.316Zm5.223,20.143a7.225,7.225,0,0,0,6.407,2.948,34.477,34.477,0,0,0,9.269-1.347,2.992,2.992,0,0,1,.883-.169c.678,0,.762,1.012.762,3.16,0,.506.039,1.264-.507,1.559-1.178.632-8.3,1.264-9.986,1.264-6.828,0-9.65-3.54-9.65-4.214,0-.589,1.475-3.581,2.276-3.581A.738.738,0,0,1,4527.677,664.46Zm1.52-18.417a26.924,26.924,0,0,0,5.518.632,27.541,27.541,0,0,0,6.407-.843,4.11,4.11,0,0,1,.758-.126c.591,0,.757.506.844,1.012a20.718,20.718,0,0,1,.167,2.276c0,.884,0,1.221-.8,1.39a49.236,49.236,0,0,1-7.08.589c-1.308,0-6.492-.252-7.375-.843-.464-.3-.42-1.179-.42-1.642,0-2.024.207-2.656.883-2.656A5.554,5.554,0,0,1,4529.2,646.043Z" transform="translate(240.717 31.614)" fill="#674646"/>
      <path id="パス_14217" data-name="パス 14217" d="M4549.673,640.908c2.233,3.582,2.442,3.751,7.458,7.837,2.738,2.235,5.6,4.72,5.6,8.892,0,3.034-2.149,8.723-8.6,11.588l-.085-.126a25.579,25.579,0,0,0,4.046-4.214c1.979-2.7,2.528-4.846,2.528-6.11,0-2.528-1.773-3.834-3.247-4.761-1.011-.632-5.686-3.119-6.615-3.666v20.311c0,2.443-4.044,7.12-7,7.12a2.254,2.254,0,0,1-2.442-2.19c0-2.066,2.317-5.352,8-5.815V640.908Z" transform="translate(262.076 30.302)" fill="#674646"/>
    </g>
  </g>
</svg>
