<svg xmlns="http://www.w3.org/2000/svg" width="59.238" height="719.713" viewBox="0 0 59.238 719.713">
  <g id="グループ_947" data-name="グループ 947" transform="translate(-1691.932 -17048.83)">
    <g id="グループ_946" data-name="グループ 946">
      <path id="パス_17" data-name="パス 17" d="M1732.668,795.741a6.943,6.943,0,0,1-5.479,2.208,8.9,8.9,0,0,1-3.786-.814,6.5,6.5,0,0,1-2.856-2.623,8.7,8.7,0,0,1-1.1-4.566v-3.554h-8.834v-3.221h24.01v6.443a8.916,8.916,0,0,1-1.959,6.127m-9.365-2.989a4.217,4.217,0,0,0,1.777,1.544,5.01,5.01,0,0,0,2.042.465,4.651,4.651,0,0,0,3.073-1.129,4.343,4.343,0,0,0,1.344-3.52v-3.72h-8.966v3.554a4.915,4.915,0,0,0,.73,2.806" transform="translate(0 16265.659)" fill="#756c67"/>
      <path id="パス_18" data-name="パス 18" d="M1716.246,812.594a5.6,5.6,0,0,0-2.025,2.075,5.77,5.77,0,0,0-.747,2.906,6.2,6.2,0,0,0,.73,3.006,5.375,5.375,0,0,0,2.025,2.108,5.587,5.587,0,0,0,2.89.764h15.508v3.155h-15.608a8.572,8.572,0,0,1-4.533-1.2,8.154,8.154,0,0,1-3.055-3.254,10.191,10.191,0,0,1,0-9.132,8.035,8.035,0,0,1,3.055-3.238,8.674,8.674,0,0,1,4.533-1.179h15.608v3.221h-15.508a5.488,5.488,0,0,0-2.873.764" transform="translate(0 16265.659)" fill="#756c67"/>
      <path id="パス_19" data-name="パス 19" d="M1710.617,852.412l8.867-5.646a6.827,6.827,0,0,1-.033-.8v-3.553h-8.834V839.2h24.009V845.6a10.609,10.609,0,0,1-.863,4.384,6.9,6.9,0,0,1-2.54,3.022,7.218,7.218,0,0,1-4.035,1.095,8.618,8.618,0,0,1-4.085-.98,6.373,6.373,0,0,1-2.822-3.005l-9.664,6.045Zm13.316-2.774a4.705,4.705,0,0,0,3.122,1.147,4.883,4.883,0,0,0,2.092-.483,4.106,4.106,0,0,0,1.711-1.526,4.76,4.76,0,0,0,.68-2.641v-3.719h-8.966V845.9a4.626,4.626,0,0,0,1.361,3.735" transform="translate(0 16265.659)" fill="#756c67"/>
      <path id="パス_20" data-name="パス 20" d="M1716.246,870.776a5.6,5.6,0,0,0-2.025,2.075,5.77,5.77,0,0,0-.747,2.906,6.2,6.2,0,0,0,.73,3.006,5.375,5.375,0,0,0,2.025,2.108,5.586,5.586,0,0,0,2.89.764h15.508v3.155h-15.608a8.572,8.572,0,0,1-4.533-1.2,8.154,8.154,0,0,1-3.055-3.254,10.191,10.191,0,0,1,0-9.132,8.036,8.036,0,0,1,3.055-3.238,8.674,8.674,0,0,1,4.533-1.179h15.608v3.221h-15.508a5.488,5.488,0,0,0-2.873.764" transform="translate(0 16265.659)" fill="#756c67"/>
      <path id="パス_21" data-name="パス 21" d="M1710.617,910.594l8.867-5.646a6.808,6.808,0,0,1-.033-.8V900.6h-8.834v-3.221h24.009v6.409a10.606,10.606,0,0,1-.863,4.384,6.9,6.9,0,0,1-2.54,3.022,7.21,7.21,0,0,1-4.035,1.1,8.629,8.629,0,0,1-4.085-.98,6.371,6.371,0,0,1-2.822-3.006l-9.664,6.045Zm13.316-2.773a4.709,4.709,0,0,0,3.122,1.146,4.9,4.9,0,0,0,2.092-.482,4.109,4.109,0,0,0,1.711-1.527,4.759,4.759,0,0,0,.68-2.64V900.6h-8.966v3.487a4.63,4.63,0,0,0,1.361,3.736" transform="translate(0 16265.659)" fill="#756c67"/>
      <path id="パス_22" data-name="パス 22" d="M1716.246,928.958a5.6,5.6,0,0,0-2.025,2.075,5.77,5.77,0,0,0-.747,2.906,6.2,6.2,0,0,0,.73,3.006,5.375,5.375,0,0,0,2.025,2.108,5.586,5.586,0,0,0,2.89.764h15.508v3.155h-15.608a8.573,8.573,0,0,1-4.533-1.2,8.154,8.154,0,0,1-3.055-3.254,10.191,10.191,0,0,1,0-9.132,8.036,8.036,0,0,1,3.055-3.238,8.674,8.674,0,0,1,4.533-1.179h15.608v3.221h-15.508a5.488,5.488,0,0,0-2.873.764" transform="translate(0 16265.659)" fill="#756c67"/>
      <path id="パス_23" data-name="パス 23" d="M1734.627,976.48H1709.82v-.1l17.9-17.634-17.1.067v-3.255h24.741v.166l-18.1,17.6,17.368-.066Z" transform="translate(0 16265.659)" fill="#756c67"/>
      <path id="パス_24" data-name="パス 24" d="M1731.473,1015.5a9.775,9.775,0,0,0,.431-2.756,4.976,4.976,0,0,0-.88-3.105,2.988,2.988,0,0,0-4.849.2,17.346,17.346,0,0,0-1.876,3.835,17.069,17.069,0,0,1-1.445,3.139,6.406,6.406,0,0,1-2.157,2.125,6.608,6.608,0,0,1-3.5.847,6.507,6.507,0,0,1-3.488-.963,6.662,6.662,0,0,1-2.458-2.74,9.165,9.165,0,0,1-.9-4.167,12.988,12.988,0,0,1,.714-4.285,14.566,14.566,0,0,1,1.81-3.619l2.557,1.427a11.651,11.651,0,0,0-1.577,2.956,9.207,9.207,0,0,0-.649,3.221,5.792,5.792,0,0,0,1,3.371,3.359,3.359,0,0,0,2.956,1.445,3.22,3.22,0,0,0,2.64-1.212,13.125,13.125,0,0,0,1.843-3.405,27.552,27.552,0,0,1,1.494-3.37,7.123,7.123,0,0,1,2.01-2.308,5.173,5.173,0,0,1,3.2-.963,5.8,5.8,0,0,1,4.567,1.976,7.871,7.871,0,0,1,1.843,5.131,14.1,14.1,0,0,1-1.927,7.206l-2.489-1.229a14.534,14.534,0,0,0,1.129-2.756" transform="translate(0 16265.659)" fill="#756c67"/>
      <path id="パス_25" data-name="パス 25" d="M1728.715,1031.307a12.6,12.6,0,0,1,4.5,4.467,12,12,0,0,1,0,12.238,12.7,12.7,0,0,1-4.5,4.5,11.748,11.748,0,0,1-6.11,1.677,11.9,11.9,0,0,1-6.144-1.66,12.268,12.268,0,0,1-4.466-4.5,12.209,12.209,0,0,1,10.61-18.381,11.836,11.836,0,0,1,6.11,1.66m-10.693,2.856a8.951,8.951,0,0,0-3.32,3.271,8.825,8.825,0,0,0,3.3,12.254,9.53,9.53,0,0,0,9.216-.016,8.941,8.941,0,0,0,3.355-3.255,8.661,8.661,0,0,0,1.228-4.516,8.559,8.559,0,0,0-1.245-4.516,8.932,8.932,0,0,0-3.371-3.239,9.357,9.357,0,0,0-4.616-1.178,9.016,9.016,0,0,0-4.55,1.195" transform="translate(0 16265.659)" fill="#756c67"/>
      <path id="パス_26" data-name="パス 26" d="M1734.627,1065.578v6.577a14.136,14.136,0,0,1-1.777,7.421,10.763,10.763,0,0,1-4.583,4.284,13.552,13.552,0,0,1-5.927,1.345,11.622,11.622,0,0,1-6.161-1.627,11.118,11.118,0,0,1-4.118-4.35,12.426,12.426,0,0,1-1.444-5.912v-7.738Zm-20.888,7.107a10.478,10.478,0,0,0,1.046,4.749,7.741,7.741,0,0,0,3.038,3.271,10.163,10.163,0,0,0,9.6-.049,8.089,8.089,0,0,0,3.072-3.271,9.527,9.527,0,0,0,1.046-4.4V1068.8h-17.8Z" transform="translate(0 16265.659)" fill="#756c67"/>
      <path id="パス_27" data-name="パス 27" d="M1716.927,1109.182v-9.232l-6.31-2.557V1094.2l25.007,10.494v.2l-25.007,10.494v-3.72Zm2.79-1.1,8.767-3.421-8.767-3.553Z" transform="translate(0 16265.659)" fill="#756c67"/>
      <path id="パス_28" data-name="パス 28" d="M1734.627,1140.1h-3.088v-11.026H1723.9v9.664h-3.087v-9.664h-10.2v-3.221h24.01Z" transform="translate(0 16265.659)" fill="#756c67"/>
      <path id="パス_29" data-name="パス 29" d="M1734.627,1154.611h-20.888v12.221h-3.122V1151.39h24.01Z" transform="translate(0 16265.659)" fill="#756c67"/>
      <path id="パス_30" data-name="パス 30" d="M1728.715,1178.189a12.606,12.606,0,0,1,4.5,4.467,12,12,0,0,1,0,12.238,12.7,12.7,0,0,1-4.5,4.5,11.748,11.748,0,0,1-6.11,1.677,11.9,11.9,0,0,1-6.144-1.66,12.269,12.269,0,0,1-4.466-4.5,12.209,12.209,0,0,1,10.61-18.381,11.837,11.837,0,0,1,6.11,1.66m-10.693,2.856a8.95,8.95,0,0,0-3.32,3.271,8.825,8.825,0,0,0,3.3,12.254,9.53,9.53,0,0,0,9.216-.016,8.941,8.941,0,0,0,3.355-3.255,8.661,8.661,0,0,0,1.228-4.516,8.56,8.56,0,0,0-1.245-4.516,8.933,8.933,0,0,0-3.371-3.239,9.357,9.357,0,0,0-4.616-1.178,9.016,9.016,0,0,0-4.55,1.2" transform="translate(0 16265.659)" fill="#756c67"/>
      <path id="パス_31" data-name="パス 31" d="M1716.927,1225.048v-9.233l-6.31-2.556v-3.189l25.007,10.493v.2l-25.007,10.5v-3.72Zm2.79-1.1,8.767-3.42-8.767-3.553Z" transform="translate(0 16265.659)" fill="#756c67"/>
      <path id="パス_32" data-name="パス 32" d="M1734.627,1255.9h-3.088v-6.443h-20.922v-3.221h20.922v-6.276h3.088Z" transform="translate(0 16265.659)" fill="#756c67"/>
    </g>
    <path id="パス_43" data-name="パス 43" d="M1721.551,1426.879a29.619,29.619,0,1,1,29.619-29.619,29.619,29.619,0,0,1-29.619,29.619" transform="translate(0 16265.659)" fill="#bec0c6"/>
    <path id="パス_44" data-name="パス 44" d="M1721.551,1346.514a29.619,29.619,0,1,1,29.619-29.619,29.619,29.619,0,0,1-29.619,29.619" transform="translate(0 16265.659)" fill="#e7a944"/>
    <path id="パス_45" data-name="パス 45" d="M1721.551,1502.883a29.619,29.619,0,1,1,29.619-29.619,29.619,29.619,0,0,1-29.619,29.619" transform="translate(0 16265.659)" fill="#969494"/>
  </g>
</svg>
