<svg xmlns="http://www.w3.org/2000/svg" width="1290.801" height="120.904" viewBox="0 0 1290.801 120.904">
  <g id="グループ_2401" data-name="グループ 2401" transform="translate(-297.082 -16557.857)">
    <g id="グループ_948" data-name="グループ 948">
      <path id="パス_53" data-name="パス 53" d="M320.632,400.6l-17.625-6.5,14.625-39.75,17.625,6.375Zm42.125-57c10.625,8.875,16,19.25,16,31.25q0,21.375-21.75,36.375l-10.625-15.375c9.125-6.25,13.625-13.25,13.625-21,0-5.375-2.375-10.375-7-14.875-2.625-2.5-7.25-5.75-14-9.75l13-27.75h-22v-18.75h51.375Zm42.5-6.125a14.941,14.941,0,1,1,4.25-10.375,13.956,13.956,0,0,1-4.25,10.375m-6.75,58.625-16.75-38.625,17.25-7.5,16.75,38.625Zm1.375-74.125a7.08,7.08,0,0,0-5.125-2.125,7.007,7.007,0,0,0-5,2.125,7.129,7.129,0,0,0-2.25,5.125,7.73,7.73,0,0,0,7.25,7.25,7.248,7.248,0,0,0,5.125-12.375" transform="translate(0 16265.659)" fill="#fff"/>
      <path id="パス_54" data-name="パス 54" d="M497.257,400.978c-6.875,7-15.75,10.5-26.5,10.5-7.875,0-14.25-2.5-19.25-7.375s-7.5-11.25-7.5-19a20.591,20.591,0,0,1,7.625-16.25,25,25,0,0,1,17-6.375c8.25,0,15,3.5,20.125,10.5a28.82,28.82,0,0,0-8.375-18.125c-3.5-3.625-9.125-7.5-16.75-11.5l11.125-22.375H449.632v-18.75h55.375l-16.875,34a53.927,53.927,0,0,1,13.875,17,44.224,44.224,0,0,1,5.625,21.125c0,10.75-3.5,19.625-10.375,26.625M476.882,387.1a10.883,10.883,0,0,0-3.25-4.5,7.534,7.534,0,0,0-5-2,7.307,7.307,0,0,0-3.875,1.375,3.756,3.756,0,0,0-2,3.125c0,5.125,2.625,7.625,8,7.625,7.75,0,13.125-3.25,16.125-9.875Z" transform="translate(0 16265.659)" fill="#fff"/>
      <path id="パス_55" data-name="パス 55" d="M604.757,400.978c-6.875,7-15.75,10.5-26.5,10.5-7.875,0-14.25-2.5-19.25-7.375s-7.5-11.25-7.5-19a20.591,20.591,0,0,1,7.625-16.25,25,25,0,0,1,17-6.375c8.25,0,15,3.5,20.125,10.5a28.82,28.82,0,0,0-8.375-18.125c-3.5-3.625-9.125-7.5-16.75-11.5l11.125-22.375H557.132v-18.75h55.375l-16.875,34a53.927,53.927,0,0,1,13.875,17,44.224,44.224,0,0,1,5.625,21.125c0,10.75-3.5,19.625-10.375,26.625M584.382,387.1a10.883,10.883,0,0,0-3.25-4.5,7.534,7.534,0,0,0-5-2,7.307,7.307,0,0,0-3.875,1.375,3.756,3.756,0,0,0-2,3.125c0,5.125,2.625,7.625,8,7.625,7.75,0,13.125-3.25,16.125-9.875Z" transform="translate(0 16265.659)" fill="#fff"/>
      <path id="パス_56" data-name="パス 56" d="M720.132,408.228a43.208,43.208,0,0,1-25.625-8.25q-10.5-7.5-17.625-20.625l-10.5,27.125-17.5-6.875,39.5-101.25,17.5,6.875L678.507,375.1l13.875-6.625q10.125,21,27.75,21c5.375,0,11.125-1.625,17.25-4.75l8.375,16.875c-8.875,4.375-17.375,6.625-25.625,6.625" transform="translate(0 16265.659)" fill="#fff"/>
      <path id="パス_57" data-name="パス 57" d="M786.757,346.478l-23.375-28.25,14.375-12,23.375,28.25Zm50.5,18.375a174.567,174.567,0,0,1-36,41.875l-12-14.375a154.763,154.763,0,0,0,32-37.375A159.626,159.626,0,0,0,840.382,309.6l18.25,4.375a175.062,175.062,0,0,1-21.375,50.875" transform="translate(0 16265.659)" fill="#fff"/>
      <rect id="長方形_78" data-name="長方形 78" width="102.5" height="17.5" transform="translate(881.632 16610.637)" fill="#fff"/>
      <path id="パス_58" data-name="パス 58" d="M1041.258,413.1l-12-14.5c10.25-8.375,19.875-19,29-31.625l-17.25-12.75,11-15.125,16.5,12.125c3.375-5.625,6.625-11.5,9.5-17.5l-22.75-11.75-26.375,33.375-14.75-11.5,36.125-45.75,52.125,27.25q-25.312,57.938-61.125,87.75m61.875-97-8.875-8.625-8.75,9-8.875-8.625,8.625-9,9,8.625,8.75-8.875,8.875,8.625Z" transform="translate(0 16265.659)" fill="#fff"/>
      <path id="パス_59" data-name="パス 59" d="M1219.883,317.353q-7.687,50.063-49.25,93.875l-13.625-12.875c21.875-23.125,36-47.375,42.25-73h-65.625V306.6h87.875Z" transform="translate(0 16265.659)" fill="#fff"/>
      <path id="パス_60" data-name="パス 60" d="M1257.383,314.728h83.25v83.5h-83.25Zm64.5,18.75h-45.75v46h45.75Z" transform="translate(0 16265.659)" fill="#fff"/>
      <rect id="長方形_79" data-name="長方形 79" width="102.5" height="17.5" transform="translate(1369.133 16610.637)" fill="#fff"/>
      <path id="パス_61" data-name="パス 61" d="M1579.883,371.6l-46.875-22.375v60.125h-18.75V299.1h18.75v44l5.75-11.875,49.125,23.5Z" transform="translate(0 16265.659)" fill="#fff"/>
    </g>
    <g id="グループ_949" data-name="グループ 949">
      <path id="パス_417" data-name="パス 417" d="M316.632,396.6l-17.625-6.5,14.625-39.75,17.625,6.375Zm42.125-57c10.625,8.875,16,19.25,16,31.25q0,21.375-21.75,36.375l-10.625-15.375c9.125-6.25,13.625-13.25,13.625-21,0-5.375-2.375-10.375-7-14.875-2.625-2.5-7.25-5.75-14-9.75l13-27.75h-22v-18.75h51.375Zm42.5-6.125a14.941,14.941,0,1,1,4.25-10.375A13.956,13.956,0,0,1,401.257,333.478Zm-6.75,58.625-16.75-38.625,17.25-7.5,16.75,38.625Zm1.375-74.125a7.08,7.08,0,0,0-5.125-2.125,7.007,7.007,0,0,0-5,2.125,7.129,7.129,0,0,0-2.25,5.125,7.73,7.73,0,0,0,7.25,7.25,7.248,7.248,0,0,0,5.125-12.375Z" transform="translate(0 16265.659)" fill="none" stroke="#856660" stroke-miterlimit="10" stroke-width="3"/>
      <path id="パス_418" data-name="パス 418" d="M493.257,396.978c-6.875,7-15.75,10.5-26.5,10.5-7.875,0-14.25-2.5-19.25-7.375s-7.5-11.25-7.5-19a20.591,20.591,0,0,1,7.625-16.25,25,25,0,0,1,17-6.375c8.25,0,15,3.5,20.125,10.5a28.82,28.82,0,0,0-8.375-18.125c-3.5-3.625-9.125-7.5-16.75-11.5l11.125-22.375H445.632v-18.75h55.375l-16.875,34a53.927,53.927,0,0,1,13.875,17,44.224,44.224,0,0,1,5.625,21.125C503.632,381.1,500.132,389.978,493.257,396.978ZM472.882,383.1a10.883,10.883,0,0,0-3.25-4.5,7.534,7.534,0,0,0-5-2,7.307,7.307,0,0,0-3.875,1.375,3.756,3.756,0,0,0-2,3.125c0,5.125,2.625,7.625,8,7.625,7.75,0,13.125-3.25,16.125-9.875Z" transform="translate(0 16265.659)" fill="none" stroke="#856660" stroke-miterlimit="10" stroke-width="3"/>
      <path id="パス_419" data-name="パス 419" d="M600.757,396.978c-6.875,7-15.75,10.5-26.5,10.5-7.875,0-14.25-2.5-19.25-7.375s-7.5-11.25-7.5-19a20.591,20.591,0,0,1,7.625-16.25,25,25,0,0,1,17-6.375c8.25,0,15,3.5,20.125,10.5a28.82,28.82,0,0,0-8.375-18.125c-3.5-3.625-9.125-7.5-16.75-11.5l11.125-22.375H553.132v-18.75h55.375l-16.875,34a53.927,53.927,0,0,1,13.875,17,44.224,44.224,0,0,1,5.625,21.125C611.132,381.1,607.632,389.978,600.757,396.978ZM580.382,383.1a10.883,10.883,0,0,0-3.25-4.5,7.534,7.534,0,0,0-5-2,7.307,7.307,0,0,0-3.875,1.375,3.756,3.756,0,0,0-2,3.125c0,5.125,2.625,7.625,8,7.625,7.75,0,13.125-3.25,16.125-9.875Z" transform="translate(0 16265.659)" fill="none" stroke="#856660" stroke-miterlimit="10" stroke-width="3"/>
      <path id="パス_420" data-name="パス 420" d="M716.132,404.228a43.208,43.208,0,0,1-25.625-8.25q-10.5-7.5-17.625-20.625l-10.5,27.125-17.5-6.875,39.5-101.25,17.5,6.875L674.507,371.1l13.875-6.625q10.125,21,27.75,21c5.375,0,11.125-1.625,17.25-4.75l8.375,16.875C732.882,401.978,724.382,404.228,716.132,404.228Z" transform="translate(0 16265.659)" fill="none" stroke="#856660" stroke-miterlimit="10" stroke-width="3"/>
      <path id="パス_421" data-name="パス 421" d="M782.757,342.478l-23.375-28.25,14.375-12,23.375,28.25Zm50.5,18.375a174.567,174.567,0,0,1-36,41.875l-12-14.375a154.763,154.763,0,0,0,32-37.375A159.626,159.626,0,0,0,836.382,305.6l18.25,4.375A175.062,175.062,0,0,1,833.257,360.853Z" transform="translate(0 16265.659)" fill="none" stroke="#856660" stroke-miterlimit="10" stroke-width="3"/>
      <rect id="長方形_114" data-name="長方形 114" width="102.5" height="17.5" transform="translate(877.632 16606.637)" fill="none" stroke="#856660" stroke-miterlimit="10" stroke-width="3"/>
      <path id="パス_422" data-name="パス 422" d="M1037.257,409.1l-12-14.5c10.25-8.375,19.875-19,29-31.625l-17.25-12.75,11-15.125,16.5,12.125c3.375-5.625,6.625-11.5,9.5-17.5l-22.75-11.75-26.375,33.375-14.75-11.5,36.125-45.75,52.125,27.25Q1073.069,379.29,1037.257,409.1Zm61.875-97-8.875-8.625-8.75,9-8.875-8.625,8.625-9,9,8.625,8.75-8.875,8.875,8.625Z" transform="translate(0 16265.659)" fill="none" stroke="#856660" stroke-miterlimit="10" stroke-width="3"/>
      <path id="パス_423" data-name="パス 423" d="M1215.882,313.353q-7.687,50.063-49.25,93.875l-13.625-12.875c21.875-23.125,36-47.375,42.25-73h-65.625V302.6h87.875Z" transform="translate(0 16265.659)" fill="none" stroke="#856660" stroke-miterlimit="10" stroke-width="3"/>
      <path id="パス_424" data-name="パス 424" d="M1253.382,310.728h83.25v83.5h-83.25Zm64.5,18.75h-45.75v46h45.75Z" transform="translate(0 16265.659)" fill="none" stroke="#856660" stroke-miterlimit="10" stroke-width="3"/>
      <rect id="長方形_115" data-name="長方形 115" width="102.5" height="17.5" transform="translate(1365.132 16606.637)" fill="none" stroke="#856660" stroke-miterlimit="10" stroke-width="3"/>
      <path id="パス_425" data-name="パス 425" d="M1575.882,367.6l-46.875-22.375v60.125h-18.75V295.1h18.75v44l5.75-11.875,49.125,23.5Z" transform="translate(0 16265.659)" fill="none" stroke="#856660" stroke-miterlimit="10" stroke-width="3"/>
    </g>
  </g>
</svg>
