<svg xmlns="http://www.w3.org/2000/svg" width="593.657" height="51.52" viewBox="0 0 593.657 51.52">
  <g id="グループ_944" data-name="グループ 944" transform="translate(-645.602 -16446.533)">
    <path id="パス_33" data-name="パス 33" d="M665.258,187.481c1.12,0,1.176.56,1.176,1.959,0,1.345-.056,1.96-1.176,1.96-1.736,0-3.416-.168-5.152-.111-.952,0-1.344.392-1.344,1.344v1.232c0,.951.392,1.344,1.344,1.344h.28c.84,0,1.624-.056,2.3-.056,1.68,0,2.632.28,2.632,2.128v14.056c0,1.567-.616,2.184-2.184,2.184-.9,0-1.848-.056-2.744-.056h-.28c-.952,0-1.344.448-1.344,1.344v1.232c0,.952.392,1.4,1.344,1.4,1.848.057,3.7-.111,5.544-.111,1.176,0,1.176.56,1.176,1.96s0,1.96-1.176,1.96c-1.792,0-3.528-.168-5.32-.112-1.12,0-1.568.448-1.568,1.568-.056,2.3.168,4.648.168,6.943,0,1.792-.448,2.017-2.24,2.017-1.848,0-2.24-.225-2.24-2.017,0-2.295.168-4.647.112-6.943,0-1.12-.448-1.568-1.568-1.568h-.728c-1.792,0-3.64.112-5.488.112-1.176,0-1.176-.616-1.176-1.96,0-1.4,0-1.96,1.176-1.96,1.848,0,3.7.111,5.488.111h.952c.952,0,1.344-.447,1.344-1.4v-1.232c0-.9-.392-1.344-1.344-1.344h-.392c-.9,0-1.792.056-2.688.056-1.512,0-2.3-.5-2.3-2.128,0-.728.056-1.512.056-2.241v-9.575c0-.784-.056-1.513-.056-2.3,0-1.288.616-2.128,1.96-2.128,1.008,0,2.016.056,3.024.056h.392c.952,0,1.344-.393,1.344-1.344v-1.232c0-.952-.392-1.344-1.344-1.344h-.336c-1.68,0-3.416.111-5.1.111-1.12,0-1.176-.559-1.176-1.96,0-1.511.056-1.959,1.176-1.959,1.68,0,3.416.056,5.1.056h.168c1.064,0,1.4-.392,1.512-1.456a28.646,28.646,0,0,0-.168-3.136,1.906,1.906,0,0,1-.056-.56c0-.672.392-.784.9-.784s3.64.336,4.2.448c.392.056.784.168.784.616,0,.392-.28.56-.728.84-.728.448-.672,1.12-.728,2.519.112,1.121.448,1.457,1.568,1.513,1.624.056,3.248-.056,4.928-.056M653.386,198.9a1.294,1.294,0,0,0-1.344,1.344v.9a1.294,1.294,0,0,0,1.344,1.344h6.44a1.294,1.294,0,0,0,1.344-1.344v-.9a1.294,1.294,0,0,0-1.344-1.344Zm-1.344,9.408a1.294,1.294,0,0,0,1.344,1.344h6.44a1.294,1.294,0,0,0,1.344-1.344v-1.064a1.294,1.294,0,0,0-1.344-1.344h-6.44a1.294,1.294,0,0,0-1.344,1.344Zm32.7,11.816c0,.9.392,1.344,1.344,1.344h1.736c2.016,0,3.976-.113,5.936-.113,1.176,0,1.176.672,1.176,1.9,0,1.175,0,1.9-1.176,1.9-1.96,0-3.92-.112-5.936-.112h-1.512c-1.064,0-1.512.391-1.568,1.456.056,1.232.112,2.464.112,3.7,0,1.512-.5,1.624-2.128,1.624-1.792,0-2.3-.112-2.3-1.513,0-1.288.056-2.519.112-3.752-.056-1.063-.448-1.511-1.568-1.511H673.21c-1.96,0-3.92.112-5.936.112-1.12,0-1.12-.672-1.12-1.9,0-1.344,0-1.9,1.12-1.9.728,0,1.4,0,2.072.057.952-.057,1.288-.448,1.288-1.345v-.223c0-1.12-.056-2.241-.056-3.361,0-1.847.728-2.351,2.464-2.351,1.12,0,2.184.055,3.248.055h3.136c.672,0,1.064-.279,1.064-1.063a9.173,9.173,0,0,0-.112-1.288,2.105,2.105,0,0,1-.056-.561c0-.559.448-.672.9-.672.672,0,2.968.168,3.752.281.392,0,1.12.055,1.12.616,0,.336-.28.448-.672.727a1.139,1.139,0,0,0-.616.953c-.056.784.448.952,1.064,1.007h2.52c1.344,0,2.688-.055,4.088-.055.952,0,1.064.28,1.064,1.847s-.112,1.905-1.12,1.905c-1.344,0-2.688-.113-4.032-.113h-2.3c-.952,0-1.344.449-1.344,1.345Zm-8.96-28.9v-.223a1.181,1.181,0,0,0-1.344-1.233c-1.288-.055-2.576.113-3.864.113-1.008,0-1.064-.5-1.064-1.96,0-1.344.056-1.9,1.064-1.9,1.456,0,2.856.225,4.312.168a1.255,1.255,0,0,0,1.456-1.287,6.1,6.1,0,0,0,.056-1.008c0-.448-.056-.9-.056-1.289,0-.559.112-.9.728-.9.672,0,2.632.392,3.416.5,1.008.168,1.624.223,1.624.728,0,.392-.448.56-.784.784-.56.28-.56.5-.728,1.176a.711.711,0,0,0-.056.336c0,.672.616.9,1.232.951h2.968c1.232,0,2.3-.111,3.3-.111,1.344,0,2.352.5,2.352,2.016,0,.616-.056,2.688-.112,3.416l-.056.728c-.056.9.392,1.232,1.232,1.288.952-.056,1.68-.056,2.184-.056,1.344,0,1.456.28,1.456,1.848,0,1.232,0,1.9-1.12,1.9-2.016,0-3.976-.112-5.936-.112H674.106c-1.96,0-3.976.112-5.936.112-1.12,0-1.12-.672-1.12-1.9s0-1.848,1.12-1.848c2.016,0,4.032.168,5.992.112a1.3,1.3,0,0,0,1.512-1.288Zm15.288,15.345c0,.56.056,1.176.056,1.736,0,1.68-1.176,2.016-2.576,2.016-1.12,0-2.184-.057-3.248-.057h-8.9c-1.008,0-2.072.057-3.136.057-1.4,0-2.632-.28-2.632-2.016,0-.56.056-1.008.056-1.736V203.44c0-.783-.056-1.175-.056-1.792,0-1.567,1.064-2.015,2.464-2.015,1.12,0,2.184.112,3.3.112h8.9c1.12,0,2.184-.112,3.3-.112,1.4,0,2.52.448,2.52,2.015,0,.617-.056,1.177-.056,1.792Zm-15.12,11.2a1.3,1.3,0,0,0-1.344,1.345v1.008a1.294,1.294,0,0,0,1.344,1.344H679.2a1.294,1.294,0,0,0,1.344-1.344v-1.008a1.3,1.3,0,0,0-1.344-1.345Zm-1.12-12.376a1.264,1.264,0,0,0,1.344,1.345h9.352a1.309,1.309,0,0,0,1.4-1.345v-.895a1.323,1.323,0,0,0-1.4-1.4h-9.352a1.28,1.28,0,0,0-1.344,1.4Zm10.024-11.815c.952,0,1.232-.393,1.4-1.288,0-.392.056-1.12.056-1.456,0-1.12-.672-1.065-1.9-1.065h-2.968a1.289,1.289,0,0,0-1.512,1.233l-.056,1.064c-.056,1.064.336,1.4,1.344,1.512Z" transform="translate(0 16265.659)" fill="#877877"/>
    <path id="パス_34" data-name="パス 34" d="M713.978,228.809c-.784,0-1.12.28-1.12,1.064v1.008c0,1.344-.5,1.512-2.408,1.512s-2.408-.224-2.408-1.569c0-2.183.168-4.367.168-6.552V191.9c0-1.68-.112-3.36-.112-5.04,0-2.3,1.008-2.744,3.081-2.744,1.792,0,3.584.111,5.376.111h27.887c1.736,0,3.528-.111,5.32-.111,2.072,0,3.08.448,3.08,2.744,0,1.68-.056,3.36-.056,5.04v32.367c0,2.185.112,4.369.112,6.552,0,1.4-.5,1.569-2.408,1.569-2.128,0-2.408-.281-2.408-1.624,0-.336.056-.617.056-.953-.056-.727-.392-1.007-1.12-1.007Zm34.272-38.976a1.6,1.6,0,0,0-1.568-1.568H714.258a1.484,1.484,0,0,0-1.512,1.568v33.319a1.486,1.486,0,0,0,1.512,1.569h32.424a1.6,1.6,0,0,0,1.568-1.569Zm-15.792,25.144c0,1.064.448,1.511,1.568,1.511h3.136c2.072,0,4.144-.111,6.216-.111,1.176,0,1.176.727,1.176,2.071s0,2.017-1.176,2.017c-2.072,0-4.144-.112-6.216-.112H724.17c-2.072,0-4.144.112-6.216.112-1.176,0-1.176-.672-1.176-2.017s0-2.071,1.176-2.071c2.072,0,4.144.111,6.216.111h2.3c1.064,0,1.568-.447,1.568-1.511v-5.993c0-1.119-.5-1.567-1.568-1.567h-.9c-1.792,0-3.584.111-5.376.111-1.176,0-1.176-.615-1.176-2.015,0-1.344,0-1.96,1.176-1.96,1.792,0,3.584.112,5.376.112h.9c1.064,0,1.568-.448,1.568-1.568v-3.752c0-1.064-.5-1.512-1.568-1.512h-2.072c-2.016,0-4.088.111-6.1.111-1.176,0-1.176-.727-1.176-2.071s0-2.017,1.176-2.017c2.072,0,4.088.113,6.1.113h12.6c2.016,0,4.088-.113,6.1-.113,1.176,0,1.176.673,1.176,2.017,0,1.4,0,2.071-1.176,2.071-2.016,0-4.032-.111-6.1-.111h-2.968c-1.12,0-1.568.448-1.568,1.512V202.1c0,1.12.448,1.568,1.568,1.568h1.68c1.792,0,3.584-.112,5.432-.112,1.176,0,1.176.672,1.176,1.96,0,1.343,0,2.015-1.176,2.015-1.792,0-3.64-.111-5.432-.111h-1.68c-1.12,0-1.568.448-1.568,1.567Zm7.784,1.064c-.5,0-.784-.393-1.008-.784a41.719,41.719,0,0,0-3.192-3.864,1.32,1.32,0,0,1-.5-.9c0-.784,1.848-2.072,2.632-2.072.728,0,2.184,1.736,2.688,2.351s2.128,2.409,2.128,3.137c0,.9-1.96,2.128-2.744,2.128" transform="translate(0 16265.659)" fill="#877877"/>
    <path id="パス_35" data-name="パス 35" d="M781.178,197.617c.56,0,.84-.336,1.176-.728,1.4-2.183,2.408-3.865,3.7-6.16a1.317,1.317,0,0,0,.112-.448.76.76,0,0,0-.952-.783c-3.64.223-7.224.5-10.808.5h-2.016c-1.68,0-2.016-1.456-2.016-2.856s.784-1.4,1.9-1.4h1.96c8.68,0,23.3-.9,31.416-3.473a2.655,2.655,0,0,1,.9-.222c.616,0,1.4,1.119,2.128,2.182.224.338.448.674.672.953a1.676,1.676,0,0,1,.448.952.57.57,0,0,1-.616.5,5.245,5.245,0,0,1-.9-.224,1.079,1.079,0,0,0-.56-.167c-.056,0-6.888,1.4-7.84,1.566-3.024.561-6.1.953-9.184,1.234a.369.369,0,0,0-.224.28.306.306,0,0,0,.168.278c.5.338,1.288.673,1.288,1.177s-.448.56-.84.56a1.123,1.123,0,0,0-1.008.561,76.459,76.459,0,0,1-4.368,7.167,1.375,1.375,0,0,0-.336.9,1.274,1.274,0,0,0,.672,1.12c1.12.785,2.24,1.624,3.36,2.464a1.466,1.466,0,0,0,.952.392,1.535,1.535,0,0,0,1.064-.56,110.857,110.857,0,0,0,9.128-11.479c.28-.393.392-.729.84-.729.392,0,4.312,2.464,4.312,3.081,0,.448-.448.5-.784.5h-.336a1.067,1.067,0,0,0-.784.393,149,149,0,0,1-11.144,12.655.455.455,0,0,0-.224.449c0,.336.28.5.616.5q5.964-.251,11.928-.672a.8.8,0,0,0,.784-.784c0-.223-.112-.336-.224-.56-.56-.784-1.008-1.345-1.4-1.849-.672-.839-1.064-1.343-1.064-1.792,0-.839,2.016-2.071,2.744-2.071.56,0,.84.336,1.176.728,1.176,1.511,2.8,3.752,3.864,5.376.672,1.008,4.088,5.992,4.088,6.832,0,.9-2.016,1.96-2.856,1.96-.56,0-1.008-.728-1.736-1.9a8.441,8.441,0,0,0-.672-1.119,1.989,1.989,0,0,0-2.184-1.063c-4.256.28-8.568.448-12.824.726-1.12.057-1.512.617-1.512,1.624v8.682c0,2.3.168,4.647.168,6.942,0,1.85-.448,2.017-2.352,2.017-1.848,0-2.352-.167-2.352-1.959,0-2.353.112-4.648.112-7v-8.457c0-1.064-.448-1.456-1.512-1.512-5.488.224-11.032.392-16.576.5-.448.057-.5.225-.84.615a.741.741,0,0,1-.616.449c-.5,0-.616-.5-.728-.952a32.932,32.932,0,0,1-.784-3.808c0-.5.336-.616.784-.616.336,0,1.792.056,2.128.056,4.984,0,9.912,0,14.84-.169a1.459,1.459,0,0,0,1.232-.5,1.317,1.317,0,0,0,.392-.895,1.417,1.417,0,0,0-.56-1.008,109.417,109.417,0,0,0-10.976-7.28c-.448-.224-.9-.5-.9-1.065,0-.5,1.176-2.742,2.24-2.742.672,0,2.744,1.4,3.416,1.847a1.859,1.859,0,0,0,.9.28m2.52,20.664c-.784.056-.84.056-1.456.841a54.083,54.083,0,0,1-9.688,9.575,3.155,3.155,0,0,1-1.736.951c-.784,0-2.576-1.566-2.576-2.408,0-.447.728-1.008,1.064-1.23,3.248-2.521,7.784-6.442,10.024-9.913.224-.336.5-.784.952-.784a8.7,8.7,0,0,1,2.464,1.121c.392.223.728.391.952.5.28.167.728.393.728.784s-.392.5-.728.56m26.488,11.256c-.616,0-1.12-.672-1.512-1.12a74.107,74.107,0,0,0-9.464-9.743c-.392-.281-.9-.729-.9-1.234,0-.783,1.96-2.295,2.632-2.295a1.531,1.531,0,0,1,1.008.449c1.96,1.678,3.808,3.47,5.6,5.262.952.953,5.376,5.321,5.376,6.384,0,.952-1.9,2.3-2.744,2.3" transform="translate(0 16265.659)" fill="#877877"/>
    <path id="パス_36" data-name="パス 36" d="M830.794,227.129c-.448.112-.5.336-.728.672-.168.336-.336.617-.728.617-.448,0-.672-.617-.952-1.569a21.227,21.227,0,0,1-.784-2.968c0-.56.392-.56,1.736-.672,1.008-.056,1.96-.112,2.968-.224,1.12-.111,1.512-.5,1.512-1.68V207.361c0-1.008-.392-1.512-1.456-1.568-1.4.056-2.912.113-4.312.113-1.12,0-1.12-.616-1.12-1.9s.056-1.9,1.12-1.9c2.184,0,4.368.113,6.552.113h33.992c2.184,0,4.368-.113,6.552-.113,1.12,0,1.12.672,1.12,1.9,0,1.289,0,1.9-1.12,1.9-2.184,0-4.368-.113-6.552-.113H852.242c-1.12,0-1.568.449-1.568,1.568V223.1c0,2.184.168,4.368.168,6.552,0,1.681-.392,1.96-2.24,1.96s-2.24-.279-2.24-1.96c0-1.176.056-2.352.056-3.584a1.1,1.1,0,0,0-1.064-1.231c-.112,0-.224.055-.336.055-4.76.84-9.464,1.569-14.224,2.24m35.056-31.7c0,.84.056,1.568.056,2.353,0,1.792-1.4,2.015-2.856,2.015-1.4,0-2.744-.055-4.088-.055H844.234c-1.344,0-2.688.055-4.032.055-1.512,0-2.912-.168-2.912-2.015,0-.785.056-1.513.056-2.353v-7.5c0-.84-.056-1.567-.056-2.3,0-1.792,1.288-2.072,2.8-2.072,1.4,0,2.744.057,4.144.057h14.728c1.344,0,2.688-.057,4.032-.057,1.456,0,2.912.168,2.912,2.017,0,.784-.056,1.567-.056,2.351Zm-27.944,12.376a1.058,1.058,0,0,0,1.12,1.12h6.328a1.058,1.058,0,0,0,1.12-1.12v-.84a1.1,1.1,0,0,0-1.12-1.176h-6.328a1.1,1.1,0,0,0-1.12,1.176Zm0,6.273a1.1,1.1,0,0,0,1.12,1.175h6.328a1.1,1.1,0,0,0,1.12-1.175v-1.008a1.1,1.1,0,0,0-1.12-1.177h-6.328a1.1,1.1,0,0,0-1.12,1.177Zm0,6.943c0,.672.28,1.232,1.008,1.232h.224c2.128-.28,4.2-.5,6.328-.9.784-.111,1.008-.56,1.008-1.288v-.224c0-1.12-.448-1.568-1.568-1.568H839.25c-.952,0-1.344.392-1.344,1.345Zm23.8-32.76a1.148,1.148,0,0,0-1.176-1.176H842.61a1.1,1.1,0,0,0-1.12,1.176v.616a1.058,1.058,0,0,0,1.12,1.12h17.92a1.1,1.1,0,0,0,1.176-1.12Zm-19.1,4.817a1.1,1.1,0,0,0-1.12,1.175v.9a1.057,1.057,0,0,0,1.12,1.119h17.92a1.1,1.1,0,0,0,1.176-1.119v-.9a1.147,1.147,0,0,0-1.176-1.175Zm21.056,32.759a1.661,1.661,0,0,0-1.12.449c-1.344,1.175-6.888,5.263-8.512,5.263-1.064,0-2.24-1.792-2.24-2.688,0-.84,1.008-1.232,1.736-1.568a30.426,30.426,0,0,0,6.272-3.976,1.288,1.288,0,0,0,.616-1.119,1.745,1.745,0,0,0-.392-1.009,32,32,0,0,1-4.032-7.615,1.223,1.223,0,0,0-1.288-.952c-.392,0-.728.055-1.12.055-1.12,0-1.176-.448-1.176-1.9,0-1.4.056-1.848,1.12-1.848,2.072,0,4.088.113,6.16.113h5.88c1.232,0,2.464-.057,3.752-.057a3.111,3.111,0,0,1,3.08,2.8c0,1.96-3.752,7.9-5.04,9.519a1.745,1.745,0,0,0-.392,1.008,1.353,1.353,0,0,0,.56,1.064,29.78,29.78,0,0,0,7.5,4.144c.5.168.952.336.952.9,0,1.007-1.344,3.023-2.408,3.023-1.736,0-7.392-3.92-8.848-5.151a1.527,1.527,0,0,0-1.064-.449m-.056-6.944a1.126,1.126,0,0,0,.9-.616c.616-.783,2.688-4.088,2.688-4.984,0-.671-.728-.728-1.68-.728H861.37c-.56.057-1.12.224-1.12.9a.826.826,0,0,0,.056.5,23.838,23.838,0,0,0,2.408,4.368,1.156,1.156,0,0,0,.9.56" transform="translate(0 16265.659)" fill="#877877"/>
    <path id="パス_37" data-name="パス 37" d="M894.41,207.81h3.92c1.008,0,1.96-.113,2.912-.113,1.96,0,2.464,1.009,2.464,2.8,0,4.143-.784,11.871-2.184,15.734-1.568,4.368-3.976,5.1-8.344,5.1-1.736,0-3.3.337-3.3-3.473,0-.727.112-1.343.952-1.343a4.038,4.038,0,0,1,.84.055c.448.057,1.96.113,2.352.113,1.456,0,2.8-.281,3.416-1.736,1.008-2.576,1.792-9.071,1.792-11.927,0-1.176-.784-1.065-2.016-1.065h-3.7c-.728,0-1.008.447-1.456,1.008-.28.336-.84.336-1.344.336-.84,0-2.632,0-2.632-1.233,0-.279.336-3.416.392-3.975.168-1.344,1.12-11.2,1.232-11.536.336-1.288,1.344-1.344,2.52-1.344.9,0,1.792.056,2.688.056h3.024c1.12,0,1.568-.449,1.568-1.567v-4.369c0-1.064-.448-1.568-1.568-1.568h-4.816c-1.176,0-2.408.113-3.584.113s-1.232-.448-1.232-2.129c0-1.735.056-2.184,1.232-2.184s2.352.056,3.584.056h4.928c1.008,0,2.016-.056,3.024-.056,1.736,0,2.744.335,2.744,2.241,0,1.287-.056,2.575-.056,3.864v5.6c0,1.4.112,2.856.112,4.256,0,1.232-.728,1.232-2.24,1.232-.784,0-1.624.055-2.016-.393-.336-.446-.616-.951-1.176-.951h-3.248c-1.568,0-1.512.447-1.68,1.68-.112.785-.448,4.143-.56,5.208,0,1.063.392,1.513,1.456,1.513m34.1-16.072c0-.393-.5-.9-.728-1.177a9.722,9.722,0,0,1-1.68-2.632c0-.84,2.072-1.679,2.912-1.679a1.325,1.325,0,0,1,1.12.727c.672.784,2.912,4.144,3.584,5.152.672.953,3.36,4.985,3.36,5.881,0,.951-2.016,1.846-2.8,1.846s-1.176-.671-1.792-1.9c-.168-.28-.336-.56-.5-.9a1.721,1.721,0,0,0-1.568-1.007.734.734,0,0,0-.336.054c-2.24.168-4.48.394-6.776.562-.056,0-.168.055-.168.11s.112.113.168.113c.448.056,1.176.056,1.176.672,0,.392-.392.56-.84.839-.672.449-.728,1.009-.672,3.306,0,1.063.5,1.455,1.568,1.455h2.8c1.456,0,2.912-.057,4.368-.057s2.632.225,2.632,1.96c0,.785-.056,1.57-.056,2.353v5.992c0,.783.056,1.512.056,2.3,0,1.566-1.008,1.9-2.408,1.9-1.512,0-3.024-.055-4.592-.055h-2.8c-1.12,0-1.568.5-1.568,1.568v4.144c0,.839.336,1.4,1.232,1.4h.168l3.584-.337a.741.741,0,0,0,.728-.729.9.9,0,0,0-.168-.5c-.56-.9-.952-1.287-.952-1.68,0-.783,2.184-1.68,2.912-1.68a1.4,1.4,0,0,1,1.12.729c1.064,1.344,1.96,2.8,2.968,4.2a34.263,34.263,0,0,1,2.856,5.15c0,1.008-2.3,1.737-2.968,1.737-.728,0-.952-.56-1.512-1.569-.168-.336-.448-.784-.728-1.287a1.92,1.92,0,0,0-1.736-1.063.986.986,0,0,0-.392.054c-7.5.953-15.008,1.738-22.512,2.409-.392.112-.448.336-.728.784a.656.656,0,0,1-.616.5c-.56,0-.728-.672-.84-1.176-.112-.561-.784-3.36-.784-3.7,0-.617.5-.617,1.456-.617.392,0,.9-.054,1.456-.054,3.192-.169,6.44-.337,9.688-.561,1.12-.224,1.456-.615,1.456-1.681v-4.479c0-1.064-.448-1.568-1.512-1.568H914.29c-1.96,0-2.184.055-2.184.728,0,.9-.448.9-2.128.9-1.736,0-2.128,0-2.128-1.232V205.177c0-1.792.84-2.073,3.36-2.073.952,0,2.128.057,3.584.057h2.352c1.12,0,1.512-.448,1.512-1.513a20.263,20.263,0,0,0-.112-3.19c-.112-.953-.616-1.289-1.568-1.233-2.744.224-5.432.392-8.176.617-.392.054-.56.279-.784.671-.168.28-.336.448-.616.448-.336,0-.56-.448-1.008-1.9a17.466,17.466,0,0,1-.616-2.8c0-.673.616-.673,2.856-.673.56,0,1.176-.055,1.736-.112a2.033,2.033,0,0,0,2.128-1.288,64.393,64.393,0,0,0,4.368-9.856c.112-.336.28-.839.728-.839.056,0,4.76,1.231,4.76,2.239,0,.5-.5.5-1.232.672a.955.955,0,0,0-.56.392c-.9,1.96-2.52,5.264-3.528,7.113a1.624,1.624,0,0,0-.112.5c0,.783.784.783.9.783,3.248-.223,6.552-.39,9.856-.671.392-.055.84-.28.84-.783m-14.84,15.344a1.563,1.563,0,0,0-1.568,1.566v3.473a1.6,1.6,0,0,0,1.568,1.567h3.472a1.483,1.483,0,0,0,1.512-1.567v-3.473c0-1.007-.56-1.456-1.512-1.566Zm9.3,5.039a1.564,1.564,0,0,0,1.568,1.567h3.976a1.6,1.6,0,0,0,1.568-1.567v-3.473a1.563,1.563,0,0,0-1.568-1.566h-3.976a1.529,1.529,0,0,0-1.568,1.566Z" transform="translate(0 16265.659)" fill="#877877"/>
    <path id="パス_38" data-name="パス 38" d="M983.283,192.857a20.035,20.035,0,0,0,3.64-.279,1.867,1.867,0,0,1,.559-.057c1.009,0,3.193,2.576,3.193,3.248,0,.225-.224.561-.617,1.176-.391.673-1.007,1.624-1.736,3.08-5.375,10.584-10.92,18.872-21.111,25.424-1.176.728-6.441,3.976-7.561,3.976s-3.975-2.015-3.975-2.912c0-.559.728-.84,1.12-1.008a54,54,0,0,0,8.792-4.872A48.225,48.225,0,0,0,978.8,206.914c.952-1.4,4.536-7.393,4.536-8.792,0-.672-.9-.729-1.737-.729h-12.04c-1.4,0-1.679.336-2.464,1.456-1.12,1.512-7.5,9.3-9.015,9.3-.616,0-3.808-1.567-3.808-2.632,0-.336.279-.5.5-.727,5.6-4.368,12.376-12.992,14.783-19.712.168-.448.336-1.233.84-1.233a14.678,14.678,0,0,1,2.633,1.065c.56.223,1.008.447,1.231.5.393.168,1.344.5,1.344,1.008,0,.28-.336.5-.559.616-.953.5-1.008.615-1.569,1.735-.279.5-.615,1.177-1.176,2.128a2.353,2.353,0,0,0-.5,1.064c0,.56.392.84.952.9Z" transform="translate(0 16265.659)" fill="#877877"/>
    <path id="パス_39" data-name="パス 39" d="M1045.778,203.665c2.352,0,5.824-.168,6.72-.168,1.4,0,1.511.392,1.511,2.744,0,1.287,0,2.407-1.343,2.407-2.3,0-4.592-.168-6.888-.168h-25.7c-2.3,0-4.592.168-6.888.168-1.4,0-1.4-1.12-1.4-2.407,0-2.352.168-2.744,1.512-2.744.9,0,4.368.168,6.776.168Z" transform="translate(0 16265.659)" fill="#877877"/>
    <path id="パス_40" data-name="パス 40" d="M1084.642,190.337c1.288.224,1.792.224,1.792.728,0,.28-.335.561-.5.784-.392.393-.336,1.512-.336,2.072,0,10.192-.167,18.872-6.776,27.272-.615.784-3.584,4.2-4.479,4.2-.728,0-3.976-1.567-3.976-2.464,0-.391.336-.672.616-.9,8.455-6.776,9.8-14.951,9.8-25.2a38.882,38.882,0,0,0-.281-5.712v-.617c0-.448.281-.559.672-.559.616,0,2.744.279,3.472.391m13.665,25.144c0,1.568.055,2.24.783,2.24a3.752,3.752,0,0,0,1.624-.84,122.272,122.272,0,0,0,14.057-11.648c.279-.279.672-.728,1.063-.728.84,0,2.352,2.688,2.352,3.416,0,.84-2.128,2.464-2.8,3.024-2.688,2.408-5.488,4.7-8.287,6.889-1.681,1.343-6.44,4.872-7.561,5.823a2.549,2.549,0,0,1-1.512.841,13.321,13.321,0,0,1-3.248-1.345c-.728-.392-1.512-.84-1.512-1.735,0-.336.225-3.529.225-6.721V194.2a32.385,32.385,0,0,0-.168-4.033,5.468,5.468,0,0,1-.113-.9.5.5,0,0,1,.561-.56c.615,0,3.639.56,4.367.672.5.113,1.065.281,1.065.729a.952.952,0,0,1-.393.727,2.1,2.1,0,0,0-.448,1.4c-.055,1.456-.055,3.92-.055,5.431Z" transform="translate(0 16265.659)" fill="#877877"/>
    <path id="パス_41" data-name="パス 41" d="M1153.913,219.065a.967.967,0,0,0-.839.5c-3.584,5.544-9.3,8.4-15.4,10.137a39.8,39.8,0,0,1-6.385,1.4c-1.4,0-2.239-2.464-2.239-3.472,0-.56.5-.672.951-.728,6.721-.783,15.065-3.416,18.985-9.352a.9.9,0,0,0,.168-.5c0-.616-.449-.784-.951-.784h-9.857c-2.185,0-4.367.112-6.553.112-1.119,0-1.119-.671-1.119-2.016,0-1.4,0-2.071,1.119-2.071,2.186,0,4.368.168,6.553.168h11.144c.9,0,1.511-.225,1.736-1.177.056-.5.056-.951.111-1.344.057-1.12.057-1.512.841-1.512.672,0,2.968.392,3.752.5.672.113,1.456.224,1.456.729,0,.447-.615.672-.9.84a.879.879,0,0,0-.56.615c-.057.9.279,1.232,1.176,1.345h12.376c2.183,0,4.368-.168,6.552-.168,1.12,0,1.175.615,1.175,2.071,0,1.4-.055,2.016-1.175,2.016-2.184,0-4.369-.112-6.552-.112h-10.529c-.39,0-.784.168-.784.616a.787.787,0,0,0,.168.5c5.1,5.712,11.7,8.064,18.986,9.464.838.168,1.4.28,1.4,1.233,0,1.175-.784,3.248-2.24,3.248-2.3,0-9.128-2.521-11.424-3.584a28.7,28.7,0,0,1-10.36-8.288,1.068,1.068,0,0,0-.785-.393m2.41-30.352a2.3,2.3,0,0,0,2.35-1.12,36.9,36.9,0,0,0,3.416-5.935c.114-.336.281-.616.673-.616s4.648,1.679,4.648,2.408c0,.5-.617.5-1.008.559a1.057,1.057,0,0,0-.839.449c-.226.335-1.177,1.96-1.905,3.023-.113.225-.224.336-.224.561,0,.5.447.616.84.671h5.1c2.184,0,4.368-.112,6.552-.112,1.12,0,1.12.616,1.12,2.017,0,1.343,0,1.96-1.12,1.96-2.184,0-4.368-.113-6.552-.113h-11.76c-.952,0-1.4.392-1.4,1.344V195.1c0,.952.449,1.344,1.4,1.344h6.833c2.127,0,4.255-.111,6.383-.111,1.12,0,1.175.615,1.175,1.96,0,1.288,0,1.9-1.175,1.9-2.128,0-4.256-.111-6.383-.111h-6.833c-.952,0-1.4.447-1.4,1.343v1.456c0,.953.449,1.344,1.4,1.344h13.271c2.185,0,4.369-.112,6.609-.112,1.12,0,1.12.673,1.12,2.016,0,1.289,0,1.96-1.12,1.96-2.183,0-4.424-.112-6.609-.112H1137c-2.183,0-4.367.112-6.551.112-1.121,0-1.176-.56-1.176-1.96,0-1.511.055-2.016,1.176-2.016,2.184,0,4.368.112,6.551.112h13.218c.95,0,1.344-.391,1.344-1.344v-1.456c0-.9-.394-1.343-1.344-1.343h-6.609c-2.128,0-4.256.111-6.384.111-1.176,0-1.176-.615-1.176-1.9,0-1.4.056-1.96,1.176-1.96,2.128,0,4.256.111,6.384.111h6.609c.95,0,1.344-.392,1.344-1.344v-1.288c0-.952-.394-1.344-1.344-1.344h-11.481c-2.184,0-4.368.113-6.552.113-1.12,0-1.12-.672-1.12-1.96,0-1.456.055-2.017,1.176-2.017,2.185,0,4.312.112,6.5.112Zm-9.016-4.816c.446.561,1.623,1.9,1.623,2.576,0,.952-2.408,1.792-3.08,1.792s-1.065-.672-1.456-1.231a33.626,33.626,0,0,0-2.8-3.416,1.461,1.461,0,0,1-.505-.9c0-1.008,2.521-1.847,3.08-1.847.952,0,2.576,2.24,3.138,3.023" transform="translate(0 16265.659)" fill="#877877"/>
    <path id="パス_42" data-name="パス 42" d="M1214.451,202.937a.42.42,0,0,0-.393.336c-3.359,11.256-9.128,19.712-18.927,26.265-.729.5-2.016,1.456-2.857,1.456-1.119,0-2.911-2.185-2.911-3.248,0-.561.56-.841,1.287-1.288,5.265-3.3,9.465-6.721,13.1-11.873,5.544-7.839,8.231-17.752,8.231-27.328,0-1.232-.056-2.464-.056-3.7s.281-1.624,1.176-1.624a32.618,32.618,0,0,1,3.92.5c.616.112,1.288.168,1.288.728,0,.5-.672.728-1.063.953a.868.868,0,0,0-.5.839c-.057,1.4-.112,2.745-.112,4.144,0,.393.055.9.055,1.288a48.374,48.374,0,0,0,3.137,14.28c3.64,9.464,9.855,16.632,18.311,22.176.449.28,1.121.672,1.121,1.176,0,1.12-1.737,3.192-2.8,3.192a2.23,2.23,0,0,1-1.009-.392,44.35,44.35,0,0,1-9.352-7.728,48.633,48.633,0,0,1-11.255-19.824.419.419,0,0,0-.392-.336" transform="translate(0 16265.659)" fill="#877877"/>
  </g>
</svg>
